<svg xmlns="http://www.w3.org/2000/svg" viewBox="0 0 54.85 54.85"><defs><style>.cls-1{fill:#fff;}.cls-2{fill:#e8314b;}</style></defs><g id="レイヤー_2" data-name="レイヤー 2"><g id="pc"><circle class="cls-1" cx="27.43" cy="27.43" r="27.43"/><path class="cls-2" d="M44.53,33.71a8.22,8.22,0,0,0-.61-1.61c-.12-.24-.27-.49-.41-.72s-.25-.36-.38-.53a8,8,0,0,0-3.7-2.67,7.55,7.55,0,0,0-1.49-.37l-.6-.07a8.18,8.18,0,0,0-2.59.25h0V18.72c-3.51-2.34-3-8.4-3-8.4H28.84v2.32a3.75,3.75,0,1,1-7.5,0V10.32H18.49s.48,6.06-3,8.4V31.81H29.8a7.75,7.75,0,0,0-.36.7l-.11.26H15.45V43.64h8.41l1.27-4.88,1.2,4.88h8.4v-.15l.22.06c.2.05.41.08.62.12a7.93,7.93,0,0,0,3.24-.18,7.45,7.45,0,0,0,1.5-.55c.2-.1.4-.2.59-.32s.52-.34.77-.52a8.11,8.11,0,0,0,2.67-3.71,7.73,7.73,0,0,0,.28-1c0-.21.08-.42.11-.64A8,8,0,0,0,44.53,33.71ZM19.18,17.25a8.49,8.49,0,0,1-2.75,3.22V19.21c2.64-2.12,3-6,3.06-7.91h.88v1.45h0c0,.1,0,.22,0,.33A9.69,9.69,0,0,1,19.18,17.25ZM37.54,29.87a3.5,3.5,0,0,0,.29-.8,6.78,6.78,0,0,1,3.41,1.6c.18.16.35.33.52.51a7.3,7.3,0,0,0-.81,0,9.92,9.92,0,0,0-2.8.58l-.6.23q-.45-.57-.93-1.08A2.43,2.43,0,0,0,37,30.6,3.14,3.14,0,0,0,37.54,29.87Zm-2.48-.67a7.06,7.06,0,0,1,2.13-.2,2.44,2.44,0,0,1-1,1.45,14.59,14.59,0,0,0-1.39-1.15Zm-1,.36.68.5c.28.23.56.47.82.72a5,5,0,0,1-.82.29l-.29.07c-1,.22-2,.28-3,.5l.29-.36A6.75,6.75,0,0,1,34.05,29.56ZM29.81,12.75s0-.07,0-.11V11.3h.88c0,1.88.42,5.79,3.05,7.91v1.26A8.56,8.56,0,0,1,31,17.25a9.72,9.72,0,0,1-1.21-4.17c0-.11,0-.23,0-.33Zm.43,24.7a6.74,6.74,0,0,1-.15-2.67,6.62,6.62,0,0,1,.62-2,3.07,3.07,0,0,1,.17-.31c.13,0,.26-.09.4-.12a12.37,12.37,0,0,1,1.58-.27c.54-.07,1.1-.13,1.68-.26h.05l.14,0a5.74,5.74,0,0,0,1.33-.49,12,12,0,0,1,.86,1l-.14.07a8.64,8.64,0,0,0-1.29.8c-.27.2-.52.41-.76.62a13.52,13.52,0,0,0-1.39,1.45,18.32,18.32,0,0,0-1.64,2.3c-.3.5-.58,1-.83,1.49A6.78,6.78,0,0,1,30.24,37.45Zm5.26,4.37c0,.18-.07.36-.11.53a5.33,5.33,0,0,1-.66-.17,6.78,6.78,0,0,1-2.42-1.37,6.91,6.91,0,0,1-1.05-1.17,19.65,19.65,0,0,1,1-1.77,19.29,19.29,0,0,1,1.6-2.21c.28-.33.57-.65.88-.95a10,10,0,0,1,1.16-1,8,8,0,0,1,1.2-.75l.24-.12A13.94,13.94,0,0,1,38.58,35a5.17,5.17,0,0,0-1,.77,5.3,5.3,0,0,0-.83,1.13,6.17,6.17,0,0,0-.53,1.25,17.16,17.16,0,0,0-.54,2.49C35.63,41.05,35.57,41.44,35.5,41.82Zm3,.45a6.78,6.78,0,0,1-2.48.19c0-.18.08-.35.11-.52.08-.4.15-.79.21-1.19a18.11,18.11,0,0,1,.53-2.38,5.41,5.41,0,0,1,1.21-2.12,3.93,3.93,0,0,1,.79-.62A18.22,18.22,0,0,1,40,39.74c.1.61.17,1.22.22,1.81A6.72,6.72,0,0,1,38.49,42.27Zm5-5.56a6.74,6.74,0,0,1-2.64,4.44c0-.49-.09-1-.17-1.52a18.38,18.38,0,0,0-1.19-4.32,3,3,0,0,1,.68-.19,2.32,2.32,0,0,1,1.11.08,3.8,3.8,0,0,1,1,.5c.42.28.81.61,1.21.93A.22.22,0,0,1,43.46,36.71Zm-.84-1.55a4.82,4.82,0,0,0-1.18-.59,3.15,3.15,0,0,0-1.4-.12,3.61,3.61,0,0,0-.85.25A15.78,15.78,0,0,0,38,32.57l.41-.16A10.35,10.35,0,0,1,41,31.84a9.4,9.4,0,0,1,1.3,0,6.67,6.67,0,0,1,1,2.19,6.86,6.86,0,0,1,.22,1.84A11.49,11.49,0,0,0,42.62,35.16Z"/></g></g></svg>