<svg xmlns="http://www.w3.org/2000/svg" viewBox="0 0 96.85 10.96"><defs><style>.cls-1{fill:none;stroke:#231815;}</style></defs><g id="レイヤー_2" data-name="レイヤー 2"><g id="pc"><rect class="cls-1" x="68.9" y="2.11" width="6.75" height="6.75" transform="translate(127.26 -41.75) rotate(135)"/><rect class="cls-1" x="78.45" y="2.11" width="6.75" height="6.75" transform="translate(143.56 -48.5) rotate(135)"/><rect class="cls-1" x="87.99" y="2.11" width="6.75" height="6.75" transform="translate(159.85 -55.25) rotate(135)"/><rect class="cls-1" x="2.11" y="2.11" width="6.75" height="6.75" transform="translate(13.23 5.48) rotate(135)"/><rect class="cls-1" x="59.36" y="2.11" width="6.75" height="6.75" transform="translate(110.97 -35) rotate(135)"/><rect class="cls-1" x="49.82" y="2.11" width="6.75" height="6.75" transform="translate(94.68 -28.26) rotate(135)"/><rect class="cls-1" x="40.28" y="2.11" width="6.75" height="6.75" transform="translate(78.39 -21.51) rotate(135)"/><rect class="cls-1" x="30.74" y="2.11" width="6.75" height="6.75" transform="translate(62.11 -14.76) rotate(135)"/><rect class="cls-1" x="21.19" y="2.11" width="6.75" height="6.75" transform="translate(45.82 -8.02) rotate(135)"/><rect class="cls-1" x="11.65" y="2.11" width="6.75" height="6.75" transform="translate(29.53 -1.27) rotate(135)"/></g></g></svg>