<svg xmlns="http://www.w3.org/2000/svg" viewBox="0 0 54.85 54.85"><defs><style>.cls-1{fill:#fff;}.cls-2{fill:#e8314b;}</style></defs><g id="レイヤー_2" data-name="レイヤー 2"><g id="pc"><circle class="cls-1" cx="27.43" cy="27.43" r="27.43"/><path class="cls-2" d="M38.76,18.62,29.33,13a3.73,3.73,0,0,0-1.9-.52,3.67,3.67,0,0,0-1.9.52l-9.44,5.66a3.7,3.7,0,0,0-1.79,3.17V33.06a3.7,3.7,0,0,0,1.79,3.17l9.44,5.66a3.68,3.68,0,0,0,1.9.53,3.74,3.74,0,0,0,1.9-.53l9.43-5.66a3.7,3.7,0,0,0,1.79-3.17V21.79A3.7,3.7,0,0,0,38.76,18.62ZM27.11,41.29a2.65,2.65,0,0,1-1-.35l-9.44-5.66a2.61,2.61,0,0,1-1.25-2.22V21.79a2.64,2.64,0,0,1,.2-1l11.5,6.89ZM15.93,20.23a2.56,2.56,0,0,1,.73-.66l9.44-5.66a2.58,2.58,0,0,1,2.66,0l9.43,5.66a2.44,2.44,0,0,1,.73.66l-11.49,6.9ZM39.44,33.06a2.58,2.58,0,0,1-1.25,2.22l-9.43,5.66a2.69,2.69,0,0,1-1,.35V27.67l11.5-6.89a2.64,2.64,0,0,1,.2,1Z"/><path class="cls-2" d="M24.27,30.57c.65.36,1.18.12,1.18-.53a2.36,2.36,0,0,0-1.18-1.83c-.66-.36-1.18-.12-1.18.54A2.32,2.32,0,0,0,24.27,30.57Z"/><path class="cls-2" d="M17.66,33.58c.66.35,1.19.11,1.19-.54a2.36,2.36,0,0,0-1.19-1.83c-.65-.35-1.18-.11-1.18.54A2.38,2.38,0,0,0,17.66,33.58Z"/><path class="cls-2" d="M21,32.08c.65.35,1.18.11,1.18-.54A2.38,2.38,0,0,0,21,29.71c-.66-.35-1.19-.11-1.19.54A2.36,2.36,0,0,0,21,32.08Z"/><path class="cls-2" d="M36.93,24.61a2.36,2.36,0,0,0-1.18,1.83c0,.65.53.89,1.18.54a2.38,2.38,0,0,0,1.18-1.83C38.11,24.49,37.58,24.25,36.93,24.61Z"/><path class="cls-2" d="M30.33,28.21A2.35,2.35,0,0,0,29.14,30c0,.65.53.89,1.19.53a2.34,2.34,0,0,0,1.18-1.82C31.51,28.09,31,27.85,30.33,28.21Z"/><path class="cls-2" d="M36.93,31.21A2.38,2.38,0,0,0,35.75,33c0,.65.53.89,1.18.54a2.38,2.38,0,0,0,1.18-1.83C38.11,31.1,37.58,30.86,36.93,31.21Z"/><path class="cls-2" d="M30.33,34.81a2.36,2.36,0,0,0-1.19,1.83c0,.65.53.89,1.19.54a2.38,2.38,0,0,0,1.18-1.83C31.51,34.7,31,34.46,30.33,34.81Z"/><path class="cls-2" d="M29.12,18.7a3.09,3.09,0,0,0-3.38,0,1.4,1.4,0,0,0-.06,2.43,3.09,3.09,0,0,0,3.39,0A1.4,1.4,0,0,0,29.12,18.7Z"/></g></g></svg>