<svg xmlns="http://www.w3.org/2000/svg" viewBox="0 0 54.85 54.85"><defs><style>.cls-1{fill:#fff;}.cls-2{fill:#e8314b;}</style></defs><g id="レイヤー_2" data-name="レイヤー 2"><g id="pc"><circle class="cls-1" cx="27.43" cy="27.43" r="27.43"/><path class="cls-2" d="M43.77,34l-.41-.41a3.5,3.5,0,0,1-.33-.32s0-.05,0-.06,0,0,0-.08a1.81,1.81,0,0,1,0-.47c0-.25,0-.59.08-1a13,13,0,0,0-.16-3.56A11,11,0,0,0,39.49,22a13.84,13.84,0,0,0-6.05-3.18c-.39-.34-.79-.75-1.19-1.17a23.67,23.67,0,0,0-2.06-2.07A7,7,0,0,0,29,14.71a4.25,4.25,0,0,0-1.37-.45,2.11,2.11,0,0,0-.71,0,1.71,1.71,0,0,0-.38.13,1.34,1.34,0,0,0-.31.22,1.53,1.53,0,0,0-.34.55,3.16,3.16,0,0,0-.1.5,6.61,6.61,0,0,0,0,.89c0,.45.1.91.12,1.33a5.46,5.46,0,0,1,0,.58l0,.15a17.58,17.58,0,0,0-6.78,4.23,15,15,0,0,0-3.69,6.5c-.3.78-.47,1.35-.64,1.82A5,5,0,0,1,14,32.49a22.44,22.44,0,0,0-2,3,10.91,10.91,0,0,0-1.15,2.85l-.17.75.77,0A8.35,8.35,0,0,0,12.75,39a10.12,10.12,0,0,0,2.81-1c.29-.15.53-.29.71-.4a6.23,6.23,0,0,0,.88.56A9,9,0,0,0,19,38.9a6.12,6.12,0,0,0,.77.17l.32,0a1.1,1.1,0,0,0,.31,0,1.18,1.18,0,0,0,.23-.09l.22-.12.07-.24a3.31,3.31,0,0,0,0-1.43,8.14,8.14,0,0,0-.58-1.64,6.92,6.92,0,0,1-.51-1.49A3,3,0,0,1,20,32.56a5.67,5.67,0,0,1,1.22-2,9.27,9.27,0,0,1,1-.9,5,5,0,0,1,1.41-.72,14.1,14.1,0,0,1,1.88-.43l.19,0h.55a7.91,7.91,0,0,1,1,.12l.34.06-.1.17c-.46.74-.93,1.45-1.28,2.08a6,6,0,0,0-.43.89,1.86,1.86,0,0,0-.12.43,1.23,1.23,0,0,0,0,.47c0,.07,0,.15.07.23a1.09,1.09,0,0,0,.29.35,1,1,0,0,0,.3.14,1.3,1.3,0,0,0,.44.06,2.69,2.69,0,0,0,.47,0,24.9,24.9,0,0,0,4.2-1.16A16.68,16.68,0,0,0,34.05,31l.17.11h0l1.43.93c.62.41,1.23.77,1.84,1.17a15,15,0,0,1,1.88,1.46,9.41,9.41,0,0,0,2.24,1.59,3.77,3.77,0,0,0,.91.31,2,2,0,0,0,.81,0,1.22,1.22,0,0,0,.49-.19,1.08,1.08,0,0,0,.3-.26,1.15,1.15,0,0,0,.25-.52,1.51,1.51,0,0,0,0-.56A2.2,2.2,0,0,0,43.77,34ZM25.94,18.6ZM43.22,35.41v0a.19.19,0,0,1-.1,0,.88.88,0,0,1-.36,0,3.41,3.41,0,0,1-1-.44,9.93,9.93,0,0,1-1.54-1.18,15.87,15.87,0,0,0-2-1.57l-1.86-1.18-1.43-.93h0l-.5-.31-.31-.2-.32.2a14.35,14.35,0,0,1-2.66,1.3,23.18,23.18,0,0,1-4,1.11l-.15,0a2.91,2.91,0,0,1,.19-.44c.15-.3.37-.68.62-1.09s.54-.86.83-1.32.5-.82.74-1.24h0A12.26,12.26,0,0,0,29.87,27l-1.08-.46c-.14.32-.32.66-.51,1a3.45,3.45,0,0,0-.46-.12,9.86,9.86,0,0,0-1.38-.18c-.22,0-.42,0-.61,0a3.83,3.83,0,0,0-.51.05c-.52.1-1,.19-1.4.29a6.71,6.71,0,0,0-1.79.69,9.17,9.17,0,0,0-1.76,1.4v0l0,0a7.09,7.09,0,0,0-1.47,2.45,4.21,4.21,0,0,0-.12,2.09A8.44,8.44,0,0,0,19.34,36a6.56,6.56,0,0,1,.5,1.39,1.83,1.83,0,0,1,0,.46l-.48-.11A8.37,8.37,0,0,1,18,37.25a5.34,5.34,0,0,1-1.33-.86l-.36-.32-.39.29a5.83,5.83,0,0,1-.95.58,9.32,9.32,0,0,1-2.46.86l-.26,0a14.41,14.41,0,0,1,.8-1.74A22.37,22.37,0,0,1,15,33.21a5.9,5.9,0,0,0,.91-1.64c.2-.54.36-1.09.64-1.83v0a13.86,13.86,0,0,1,3.42-6,16.27,16.27,0,0,1,6.36-3.95l.15,0,.33-.05.12-.32a3.18,3.18,0,0,0,.17-.74,6.71,6.71,0,0,0,0-1.27c0-.31-.06-.61-.09-.87s0-.38,0-.53a1.09,1.09,0,0,1,0-.28.86.86,0,0,1,0-.13.11.11,0,0,1,0-.05.15.15,0,0,1,.08,0,.94.94,0,0,1,.33,0,3.27,3.27,0,0,1,1.31.52,11.38,11.38,0,0,1,2,1.75,24.66,24.66,0,0,0,2,2.05l.1.09.14,0a12.58,12.58,0,0,1,5.66,2.93,9.93,9.93,0,0,1,3,5.48,11.77,11.77,0,0,1,.14,3.23c0,.46-.06.81-.08,1.1a3.4,3.4,0,0,0,0,.74,1.47,1.47,0,0,0,.17.47,1.89,1.89,0,0,0,.2.27c.11.12.22.21.33.32l.41.4a1.06,1.06,0,0,1,.29.5A.39.39,0,0,1,43.22,35.41Z"/><path class="cls-2" d="M38.28,28.52a.72.72,0,0,0-.58.85.72.72,0,0,0,.85.58.73.73,0,0,0,.58-.85A.74.74,0,0,0,38.28,28.52Z"/></g></g></svg>