<svg xmlns="http://www.w3.org/2000/svg" viewBox="0 0 54.85 54.85"><defs><style>.cls-1{fill:#fff;}.cls-2{fill:#e8314b;}</style></defs><g id="レイヤー_2" data-name="レイヤー 2"><g id="pc"><circle class="cls-1" cx="27.43" cy="27.43" r="27.43"/><path class="cls-2" d="M38.34,27.49l-2.08-3.13a5.71,5.71,0,0,0-2-1.79l-4.08-2.28a3.48,3.48,0,0,0-2-.48l-1.95.27a2.92,2.92,0,0,0-1.86,1l-3.72,3.95-3.4,1.25a1.31,1.31,0,0,0-.79,1.6l0,0a1.27,1.27,0,0,0,1.52.87l2.78-.64a5.64,5.64,0,0,0,1.93-.84l1.93-1.29.68,5.18a1.72,1.72,0,0,1-.21,1.09l-5.78,10a1.5,1.5,0,0,0,.54,2l.05,0a1.51,1.51,0,0,0,2-.44l6.46-9.23,1.95,3.9a3.13,3.13,0,0,0,.57.78l4.34,4.24a1.46,1.46,0,0,0,2,.06l.07-.06a1.48,1.48,0,0,0,.49-1,1.46,1.46,0,0,0-.37-1.07l-3.66-4.08-2-7.2h0L31.2,24.7l2,.91L36.44,29a1.19,1.19,0,0,0,1.55.16l0,0A1.2,1.2,0,0,0,38.34,27.49Z"/><path class="cls-2" d="M30.53,15.55c-.3,2.22,1.77,2.46,2.36,1.84-.62-.12-.82-1.43-.51-2.29s.58-2.55-.23-3.31a2.1,2.1,0,0,0-3.34.35c.21.25.66.51.9.78C30.37,12.68,30.73,14.11,30.53,15.55Z"/><path class="cls-2" d="M25.94,18.45a3.14,3.14,0,1,0-2.63-3.58A3.13,3.13,0,0,0,25.94,18.45Z"/></g></g></svg>