<svg xmlns="http://www.w3.org/2000/svg" viewBox="0 0 54.85 54.85"><defs><style>.cls-1{fill:#fff;}.cls-2{fill:#e8314b;}</style></defs><g id="レイヤー_2" data-name="レイヤー 2"><g id="pc"><circle class="cls-1" cx="27.43" cy="27.43" r="27.43"/><path class="cls-2" d="M36.31,19.59a6.21,6.21,0,0,1,1.33.69,5.84,5.84,0,0,0-6.55-3.37s0-.09,0-.13a6.79,6.79,0,0,1,7-1.37,6.81,6.81,0,0,0-7.86-2.11,8.66,8.66,0,0,0-1.6-2.15,8.27,8.27,0,0,0-6.12-2.34,8.35,8.35,0,0,1,1.72,1.28,8.23,8.23,0,0,1,2.21,3.71,6.8,6.8,0,0,0-8.86,1.61A6.78,6.78,0,0,1,24.64,17a5.73,5.73,0,0,0-3.39.19,5.79,5.79,0,0,0-3.33,3.14,5.77,5.77,0,0,1,1.33-.69,5.83,5.83,0,0,1,7.1,2.64,6.88,6.88,0,0,0-2.78,1.3A9.87,9.87,0,0,0,20.85,27a21.11,21.11,0,0,0-1.94,9.14c0,3.36.69,5.84,2.1,7.57s3.77,2.76,6.77,2.76,5.26-.93,6.76-2.76,2.1-4.21,2.1-7.57A21.11,21.11,0,0,0,34.7,27,9.87,9.87,0,0,0,32,23.53a6.9,6.9,0,0,0-2.77-1.3A5.82,5.82,0,0,1,36.31,19.59ZM25.84,23.7,24.1,25.44l-.38-.37A5.64,5.64,0,0,1,25.84,23.7Zm-3.05,2.51.27.27-1,1A9.62,9.62,0,0,1,22.79,26.21Zm1.31,1.3,2.64,2.65L24.1,32.8l-2.65-2.64Zm3.68,9-2.65-2.64,2.65-2.65,2.64,2.65Zm3.68-1.6,2.64,2.64-2.64,2.64-2.65-2.64Zm-4.72,2.64L24.1,40.16l-2.65-2.64,2.65-2.64Zm-6.53-1.33a23.61,23.61,0,0,1,.48-4.72l2.37,2.37-2.65,2.64-.2-.2Zm.15,2.42.05,0,2.65,2.64-1.35,1.35A8.65,8.65,0,0,1,20.36,38.61Zm6.2,6.45a6.73,6.73,0,0,1-3.87-1.42l1.41-1.4,2.64,2.64Zm1.22-1.22L25.13,41.2l2.65-2.64,2.64,2.64ZM29,45.06l-.18-.18,2.65-2.64,1.4,1.4A6.73,6.73,0,0,1,29,45.06Zm4.85-2.51L32.49,41.2l2.65-2.64,0,0A8.65,8.65,0,0,1,33.84,42.55Zm1-11.08a23.61,23.61,0,0,1,.48,4.72v.09l-.2.2-2.65-2.64Zm-2.1-5.26a8.69,8.69,0,0,1,.77,1.31l-1-1Zm1.34,3.95L31.46,32.8l-2.65-2.64,2.65-2.65Zm-2.27-5.09-.37.37L29.71,23.7A5.64,5.64,0,0,1,31.83,25.07Zm-1.41,1.41-2.64,2.64-2.65-2.64,2.65-2.65Z"/></g></g></svg>