<svg xmlns="http://www.w3.org/2000/svg" viewBox="0 0 295.34 92.14"><defs><style>.cls-1{fill:#fff;stroke:#333;stroke-width:1.76px;}</style></defs><g id="レイヤー_2" data-name="レイヤー 2"><g id="pc"><path class="cls-1" d="M147.65,91.27c7.58-14.71,79.17-7.47,101.37-5.94,7.84.54,17.56,1.16,17.56,1.16,8.78.63,11.31-4.46,11.31-4.46,7.66,1.48,7.31-4.43,7.31-4.43s6.25.88,5.13-7c-.5-3.61-1.45-14.33-1.34-17.22.2-5.62,4.09-7.26,4.09-7.26h0s-3.89-1.63-4.09-7.26c-.11-2.88.84-13.6,1.34-17.21,1.12-7.93-5.13-7-5.13-7s.35-5.92-7.31-4.44c0,0-2.53-5.09-11.31-4.46,0,0-9.72.61-17.56,1.16-22.2,1.53-93.79,8.77-101.37-5.94h0C140.11,15.59,68.52,8.35,46.32,6.82c-7.84-.55-17.56-1.16-17.56-1.16C20,5,17.45,10.12,17.45,10.12c-7.66-1.48-7.31,4.44-7.31,4.44s-6.25-.89-5.14,7c.51,3.61,1.46,14.33,1.35,17.21-.21,5.63-4.09,7.26-4.09,7.26h0s3.88,1.64,4.09,7.26C6.46,56.22,5.51,66.94,5,70.55c-1.11,7.93,5.14,7,5.14,7S9.79,83.51,17.45,82c0,0,2.53,5.09,11.31,4.46,0,0,9.72-.62,17.56-1.16,22.2-1.53,93.79-8.77,101.37,5.94Z"/></g></g></svg>