<svg xmlns="http://www.w3.org/2000/svg" viewBox="0 0 564.33 104.98"><defs><style>.cls-1{fill:#fff;stroke:#333;stroke-width:2px;}</style></defs><g id="レイヤー_2" data-name="レイヤー 2"><g id="pc"><path class="cls-1" d="M282.14,104c8.64-16.76,204.12-8.51,229.41-6.76,8.93.61,20,1.31,20,1.31,10,.72,12.88-5.08,12.88-5.08,8.73,1.69,8.33-5,8.33-5s7.12,1,5.85-8c-.58-4.11-1.65-16.32-1.53-19.61.23-6.41,4.66-8.27,4.66-8.27h0s-4.43-1.86-4.66-8.27c-.12-3.29.95-15.5,1.53-19.61,1.27-9-5.85-8-5.85-8s.4-6.74-8.33-5c0,0-2.89-5.79-12.88-5.08,0,0-11.08.7-20,1.32C486.26,9.51,290.78,17.76,282.14,1h0C273.55,17.76,78.06,9.51,52.77,7.77c-8.93-.62-20-1.32-20-1.32-10-.71-12.88,5.08-12.88,5.08-8.73-1.69-8.33,5-8.33,5s-7.12-1-5.85,8c.58,4.11,1.66,16.32,1.53,19.61C7,50.63,2.58,52.49,2.58,52.49h0S7,54.35,7.23,60.76c.13,3.29-1,15.5-1.53,19.61-1.27,9,5.85,8,5.85,8s-.4,6.74,8.33,5c0,0,2.89,5.8,12.88,5.08,0,0,11.08-.7,20-1.31,25.29-1.75,220.78-10,229.41,6.76Z"/></g></g></svg>