<svg xmlns="http://www.w3.org/2000/svg" viewBox="0 0 54.85 54.85"><defs><style>.cls-1{fill:#fff;}.cls-2{fill:#e8314b;}</style></defs><g id="レイヤー_2" data-name="レイヤー 2"><g id="pc"><circle class="cls-1" cx="27.43" cy="27.43" r="27.43"/><path class="cls-2" d="M28.84,16.75A11.38,11.38,0,1,0,40.21,28.12,11.38,11.38,0,0,0,28.84,16.75Zm-6.69,4.68a9.9,9.9,0,0,1,2.17-1.62A12,12,0,0,0,23.22,22H21.65C21.81,21.8,22,21.61,22.15,21.43Zm-1.61,2.15h2.18a18.32,18.32,0,0,0-.54,3.74H19.42A9.52,9.52,0,0,1,20.54,23.58Zm0,9.08a9.47,9.47,0,0,1-1.12-3.74h2.75a17.64,17.64,0,0,0,.55,3.74Zm1.61,2.15c-.17-.18-.34-.36-.5-.55h1.57A12.1,12.1,0,0,0,24,35.88c.11.19.23.37.34.55A9.31,9.31,0,0,1,22.15,34.81ZM28,37.54l-.24,0a3.53,3.53,0,0,1-.77-.44A7.05,7.05,0,0,1,25,34.26H28Zm0-4.88H24.38a15.9,15.9,0,0,1-.6-3.74H28Zm0-5.34H23.77a16,16,0,0,1,.6-3.74H28ZM28,22H25a8.22,8.22,0,0,1,.42-.84,6.37,6.37,0,0,1,1.66-2,3.53,3.53,0,0,1,.77-.44l.24,0Zm9.1,1.59a9.52,9.52,0,0,1,1.12,3.74H35.51A18.31,18.31,0,0,0,35,23.58Zm-1.61-2.15c.17.18.34.37.5.56H34.46a12.24,12.24,0,0,0-.76-1.63c-.11-.19-.23-.37-.34-.55A9.6,9.6,0,0,1,35.53,21.43ZM29.64,18.7l.24,0a3.53,3.53,0,0,1,.77.44A7.17,7.17,0,0,1,32.73,22H29.64Zm0,4.88H33.3a16,16,0,0,1,.6,3.74H29.64Zm2.67,11.51a6.25,6.25,0,0,1-1.66,2,3.53,3.53,0,0,1-.77.44l-.24,0V34.26h3.09C32.59,34.55,32.46,34.83,32.31,35.09Zm-2.67-2.43V28.92h4.27a15.9,15.9,0,0,1-.6,3.74Zm5.89,2.15a9.31,9.31,0,0,1-2.17,1.62,11.91,11.91,0,0,0,1.1-2.17H36C35.87,34.45,35.7,34.63,35.53,34.81Zm1.61-2.15H35a17.66,17.66,0,0,0,.53-3.74h2.77A9.47,9.47,0,0,1,37.14,32.66Z"/><path class="cls-2" d="M36.08,40A13.87,13.87,0,1,1,21.6,16.29l-.67-1.09A15.15,15.15,0,1,0,36.75,41L36.08,40Z"/><path class="cls-2" d="M26.24,15.55h6c.61,0,1.11-.21,1.11-.82s-1.18-1.22-1.79-1.22H30.3l-2.51-2.26c-.13-.14-.63-.05-.78-.05s-.14.3-.07.48l.73,1.83H25.91L25,12a.61.61,0,0,0-1.06.41v1.46C23.88,14.79,25,15.55,26.24,15.55Z"/></g></g></svg>