<svg xmlns="http://www.w3.org/2000/svg" viewBox="0 0 23.62 104.11"><defs><style>.cls-1{fill:#373735;}</style></defs><g id="レイヤー_2" data-name="レイヤー 2"><g id="pc"><path class="cls-1" d="M15.45,35C21.37,24,25,16.88,23.14,6.72c-.68-3-2.65-6-5.89-6.66a3.72,3.72,0,0,0-1.14,0c-3.07.28-5.57,4.62-4,6.91a2.46,2.46,0,0,0,.49.57,5.71,5.71,0,0,0,2,1,1.51,1.51,0,1,0,.29-2.9c-.11,0-.86.12-1,.15l-.09,0c-.05,0-.17,0-.21-.07-.29-.12-.62-.73-.51-1.61A3.9,3.9,0,0,1,16.17.61a2.8,2.8,0,0,1,1,0,3.83,3.83,0,0,1,1,.31c2.14.92,3.35,3.48,3.5,6a15.68,15.68,0,0,1-.18,2.8c-1,7.19-6.74,13-10.42,21C9.25,34.91,7,39.78,9,43.88c-5.09,2.23-8.65,4-9,8.27a5.15,5.15,0,0,0,1.59,3.6A22.43,22.43,0,0,0,7.65,59.5l1.57.64-.1.18s-.14.36-.1.23a15.42,15.42,0,0,0-1.7,5,15.77,15.77,0,0,0,.09,4.88c2.27,9.82,10.3,13.67,11.43,21,.64,3.63.48,8.57-2.49,10.75a5.83,5.83,0,0,1-2.21,1C8.83,104.55,6.8,98,9.08,96.87a2.34,2.34,0,0,1,1.36-.22A1.46,1.46,0,0,0,10,93.76a5.63,5.63,0,0,0-2.44,1.41c-2.65,2.69,0,8.25,4.2,8.88a7,7,0,0,0,4.91-1.36c3-2.23,3.8-7.45,4-11.29a15.69,15.69,0,0,0-.13-3.61,20.51,20.51,0,0,0-.81-3.68,42.51,42.51,0,0,0-3-7c-3.57-7-2.79-6-3.46-7.9A19.65,19.65,0,0,1,13,66.44c0-.21-.08-.41-.08-.62A10.42,10.42,0,0,1,13,64.34a8.85,8.85,0,0,0,.09-.9,3.31,3.31,0,0,1,.1-.83c.08-.28.22-.91.61-.76a5.53,5.53,0,0,0,2.3.43c2-.15,3.92-1.4,3.54-3.5A4.34,4.34,0,0,0,18.69,57s-.23-.2-.15-.14c-2.53-2.46-7,0-9,2.74A12.9,12.9,0,0,1,8,58.68a15.18,15.18,0,0,1-1.58-1.19,8.86,8.86,0,0,1-1.49-1.63A2.6,2.6,0,0,1,4.51,55c-.08-.37-.28-.69-.37-1a3,3,0,0,1,0-.9,2.48,2.48,0,0,1,.26-.75c.29-.71.61-1.4,1-2.09A12,12,0,0,1,9.68,45c1.69,2.26,4.94,3.82,7.44,2.59,2.73-1.3,2.52-4.76-.17-5.2a10.89,10.89,0,0,0-4.86.38C11.88,40.4,13.58,38.26,15.45,35Zm.92,23.71a.82.82,0,0,1,.28,0,.93.93,0,0,1,.72.23c.21.22.6.5.49.86-.17.73-1.16,1.27-1.9,1.47a5.27,5.27,0,0,1-2.12-.13,7.69,7.69,0,0,1,1.06-1.4,5.77,5.77,0,0,1,.68-.63,4,4,0,0,1,.34-.23,1.46,1.46,0,0,1,.36-.09A.32.32,0,0,1,16.37,58.72Zm.56-12.13-.2,0c-1.91.52-3.91-1.28-4.5-3.15C18.33,40.59,20.3,45.17,16.93,46.59Z"/></g></g></svg>