<svg xmlns="http://www.w3.org/2000/svg" viewBox="0 0 144 144"><defs><style>.cls-1{fill:#006ebb;}.cls-2{fill:#fff;stroke:#006ebb;stroke-width:0.65px;}</style></defs><g id="レイヤー_2" data-name="レイヤー 2"><g id="pc"><path class="cls-1" d="M144,72A72,72,0,1,1,72,0,72,72,0,0,1,144,72Z"/><path class="cls-2" d="M31.69,32.2c0,5.74,17.81,10.39,39.78,10.39s39.81-4.65,39.81-10.39S93.46,21.82,71.47,21.82,31.69,26.47,31.69,32.2Z"/><path class="cls-2" d="M71.7,37.26c-6.15,0-11.13,19.12-11.13,42.7s5,42.69,11.13,42.69S82.84,103.54,82.84,80,77.85,37.26,71.7,37.26Z"/><path class="cls-2" d="M41,46.75c-5.46,0-9.89,17-9.89,37.91s4.43,37.91,9.89,37.91,9.89-17,9.89-37.91S46.5,46.75,41,46.75Z"/><path class="cls-2" d="M104.75,26.57c-6.93,0-12.55,21.53-12.55,48.09s5.62,48.08,12.55,48.08,12.54-21.53,12.54-48.08S111.67,26.57,104.75,26.57Z"/></g></g></svg>