<svg xmlns="http://www.w3.org/2000/svg" viewBox="0 0 134.41 40"><defs><style>.cls-1{fill:#231815;}.cls-2{fill:#006ebb;}.cls-3{fill:#fff;stroke:#006ebb;stroke-width:0.65px;}</style></defs><g id="レイヤー_2" data-name="レイヤー 2"><g id="pc"><path class="cls-1" d="M67,2.48a10.22,10.22,0,0,0,1.33.15,10.63,10.63,0,0,0,1.37-.15c1,8.52,1.71,15.43,2.78,21.73-.88-.06-1.74-.16-2.63-.16s-1.68.1-2.56.16c-.26-5-.89-9.88-1.36-14.76-2.41,4.84-4.79,9.69-7,14.6a3.23,3.23,0,0,0-1.2,0c-2-4.37-4.53-9.28-6.94-14.25a130.68,130.68,0,0,0-1.33,14.41,12.79,12.79,0,0,0-1.49-.16,12.07,12.07,0,0,0-1.46.16c1.14-6.37,2.15-13.72,3.23-21.73a9.77,9.77,0,0,0,1.3.15,10,10,0,0,0,1.33-.15c2.28,5,4.79,9.91,7.29,14.89C61.85,12.87,64.54,7.89,67,2.48Z"/><path class="cls-1" d="M89.45,3.42c4.75,0,6.65,4.88,6.65,9.13C96.1,18,93.92,23.1,89,23.1s-6.62-4.55-6.62-8.83C82.42,6.88,85.05,3.42,89.45,3.42Zm11.91,9.77c0-4.92-2.69-11.28-11.72-11.28-7.89,0-12.48,5.1-12.48,11.4,0,7.2,4.72,11.31,11.72,11.31C96.64,24.62,101.4,19.36,101.36,13.19Z"/><path class="cls-1" d="M111.56,4.19c1.93,0,5.62-.26,6.13,2.37a7.86,7.86,0,0,1,.16,1.59c0,3.26-3,4.85-6.29,4.53Zm-4.75,20c.79-.06,1.58-.16,2.37-.16s1.59.1,2.38.16V14h.67a4.4,4.4,0,0,1,4.15,2.23A21.62,21.62,0,0,1,118.24,22c.37,1.54.55,2.23.55,2.23s2-.14,3-.14,2.88.16,2.88.16-.59-1.23-.93-2.21c-1.08-3.05-1.38-4.34-2.32-5.82a6.4,6.4,0,0,0-3.59-2.84,5.39,5.39,0,0,0,4.94-5.7c-.06-2.15-1.39-3.5-3.25-4.35s-5.49-.81-7-.81h-5.72Z"/><path class="cls-1" d="M129.66,2.48c.79.06,1.58.15,2.38.15s1.58-.09,2.37-.15V24.21c-.79-.06-1.58-.16-2.37-.16s-1.59.1-2.38.16Z"/><path class="cls-1" d="M77.23,28.43c.94,0,2.72-.12,3,1.15a5,5,0,0,1,.08.87c0,1.57-1.43,2.44-3,2.29Zm-2.29,10c.38,0,.77-.08,1.15-.08s.76,0,1.14.08V33.53h.33a2,2,0,0,1,2,1,10.55,10.55,0,0,1,.9,2.74l.26,1.08s1-.07,1.44-.07,1.39.08,1.39.08-.28-.6-.45-1.07A13.08,13.08,0,0,0,82,34.52a3.09,3.09,0,0,0-1.74-1.37,2.88,2.88,0,0,0,2.39-2.95,2.59,2.59,0,0,0-1.57-2.29,9.75,9.75,0,0,0-3.37-.39H74.94Z"/><path class="cls-1" d="M69.92,38.39c-.39,0-.78-.08-1.17-.08s-.79,0-1.18.08V28.64a21.36,21.36,0,0,0-2.91.22,4.91,4.91,0,0,0,.08-.67,5,5,0,0,0-.08-.66h8.06a4.93,4.93,0,0,0-.07.66,3.72,3.72,0,0,0,.08.67,23.66,23.66,0,0,0-2.81-.22Z"/><path class="cls-1" d="M110.88,38.39c-.39,0-.79-.08-1.18-.08s-.78,0-1.17.08V28.64a21.36,21.36,0,0,0-2.91.22,4.9,4.9,0,0,0,.07-.67,4.93,4.93,0,0,0-.07-.66h8.06a5,5,0,0,0-.08.66,4.91,4.91,0,0,0,.08.67,23.5,23.5,0,0,0-2.8-.22Z"/><path class="cls-1" d="M85.48,27.57a11.69,11.69,0,0,0,1.18.08,11.5,11.5,0,0,0,1.17-.08V32a20.65,20.65,0,0,0,.11,3,2.85,2.85,0,0,0,.83,1.8,2.51,2.51,0,0,0,1.79.68,2.61,2.61,0,0,0,2.78-1.9,12,12,0,0,0,.29-3.24V27.57a3.24,3.24,0,0,0,.62.05,3.28,3.28,0,0,0,.63-.05v5.58c0,1.78,0,3.41-1.66,4.54a5.07,5.07,0,0,1-3,.83c-1.9,0-4-.59-4.53-2.63A7.41,7.41,0,0,1,85.48,34Z"/><path class="cls-1" d="M102.83,29.59a1.87,1.87,0,0,0-1.8-1.36c-1.24,0-1.72.64-1.72,1.54,0,2.11,4.76,1.72,4.76,5.31,0,2-1.73,3.44-4.15,3.44a4.77,4.77,0,0,1-2.53-.67,15.48,15.48,0,0,0,.46-2h.3a2.11,2.11,0,0,0,2.16,1.72A1.65,1.65,0,0,0,102.14,36c0-2.5-4.67-1.6-4.67-5.37,0-1.8,1.24-3.29,3.62-3.29a4.1,4.1,0,0,1,2.47.75c-.18.51-.34,1-.5,1.55Z"/><path class="cls-2" d="M40,20A20,20,0,1,1,20,0,20,20,0,0,1,40,20Z"/><path class="cls-3" d="M8.8,8.94c0,1.6,4.95,2.89,11.05,2.89s11.06-1.29,11.06-2.89S26,6.06,19.85,6.06,8.8,7.35,8.8,8.94Z"/><path class="cls-3" d="M19.92,10.35c-1.71,0-3.09,5.31-3.09,11.86s1.38,11.86,3.09,11.86S23,28.76,23,22.21,21.63,10.35,19.92,10.35Z"/><path class="cls-3" d="M11.4,13C9.88,13,8.65,17.7,8.65,23.52S9.88,34.05,11.4,34.05s2.75-4.72,2.75-10.53S12.92,13,11.4,13Z"/><path class="cls-3" d="M29.1,7.38c-1.93,0-3.49,6-3.49,13.36s1.56,13.35,3.49,13.35,3.48-6,3.48-13.35S31,7.38,29.1,7.38Z"/></g></g></svg>