<?xml version="1.0" encoding="utf-8"?>
<!-- Generator: Adobe Illustrator 25.4.6, SVG Export Plug-In . SVG Version: 6.00 Build 0)  -->
<svg version="1.1" xmlns="http://www.w3.org/2000/svg" xmlns:xlink="http://www.w3.org/1999/xlink" x="0px" y="0px"
	 viewBox="0 0 335 419.5" style="enable-background:new 0 0 335 419.5;" xml:space="preserve">
<style type="text/css">
	.st0{fill:#333333;}
	.st1{fill:#E8314B;}
	.st2{fill:none;stroke:#333333;stroke-miterlimit:10;}
	.st3{fill:none;stroke:#E8314B;stroke-width:1.76;stroke-miterlimit:10;}
</style>
<g id="レイヤー_1">
</g>
<g id="レイヤー_2">
	<g>
		<g>
			<g>
				<g>
					<g>
						<path class="st0" d="M246.8,194.3c-0.5,0.8-1.1,1.5-1.7,2.1c-0.1,0.1-0.2-0.1-0.2-0.2c1.2-2.2,2.2-4.6,2.8-6.9
							c0.3-1,0.4-2.1,0.5-3c2.4,0.6,2.6,0.7,2.6,1c0,0.2-0.1,0.3-0.8,0.5c-0.5,1.6-1.2,3.3-2.1,4.8c1.1,0.2,1.3,0.2,1.3,0.4
							c0,0.2-0.1,0.3-0.5,0.5v10.3c0,0.6-0.3,0.8-1.1,0.8c-0.6,0-0.9-0.2-0.9-0.8c0-0.5,0.1-2.1,0.1-5.3V194.3z M251.7,201.5
							c0,1.3-0.5,2.3-1.5,2.3c-0.6,0-0.9-0.4-0.9-0.9c0-0.5,0.2-0.7,0.8-1c0.9-0.4,1.3-0.9,1.3-1.6c0-0.1,0.2-0.1,0.2,0
							C251.7,200.7,251.7,201.1,251.7,201.5z M252.8,189.2c1.4,0.4,2.1,1,2.1,1.9c0,0.4-0.3,0.8-0.7,0.8h3.3
							c0.2-0.5,0.3-0.9,0.4-1.4c0.1-0.4,0.2-0.9,0.2-1.3c1.7,0.5,2.2,0.7,2.2,0.9c0,0.2-0.1,0.3-0.6,0.4c-0.8,0.8-1.1,1.1-1.6,1.4
							h2.7c0.9-1,1.1-1.2,1.2-1.2c0.2,0,0.4,0.2,1.2,0.8c0.4,0.3,0.5,0.5,0.5,0.6c0,0.1-0.1,0.2-0.3,0.2h-12.4c-0.4,0-0.9,0-1.4,0.1
							l-0.2-0.7c0.6,0.1,1.1,0.2,1.6,0.2h2.7c-0.3-0.1-0.5-0.2-0.6-0.6c-0.2-1.1-0.4-1.5-0.9-2.2h-0.2c-0.4,0-0.9,0-1.4,0.1
							l-0.2-0.7c0.6,0.1,1.1,0.2,1.6,0.2h3.2v-1.2c0-0.4,0-0.8-0.1-1.2c2.3,0.2,2.5,0.4,2.5,0.6c0,0.2-0.2,0.3-0.6,0.5v1.3h2.9
							c0.8-1,1.1-1.2,1.2-1.2c0.2,0,0.4,0.2,1.3,0.8c0.4,0.3,0.5,0.5,0.5,0.6s-0.1,0.2-0.3,0.2H252.8z M252.8,198.6
							c-0.1,0.4-0.4,0.6-1,0.6c-0.6,0-0.8-0.2-0.8-0.7c0-0.3,0.1-0.7,0.1-2c0-1.2,0-2.3-0.1-3.5c1,0.4,1.2,0.5,2.1,0.9h6.2
							c0.7-0.7,0.8-0.9,1-0.9c0.2,0,0.4,0.1,1.1,0.6c0.3,0.2,0.4,0.4,0.4,0.5c0,0.1-0.1,0.3-0.5,0.6v0.6c0,1.6,0,2.7,0,3.1
							c0,0.5-0.4,0.8-1.1,0.8c-0.5,0-0.7-0.2-0.7-0.6v0H252.8z M259.4,194.4h-6.6v1.7h6.6V194.4z M259.4,196.5h-6.6v1.7h6.6V196.5z
							 M259.6,202.2c0,0.3,0.1,0.4,0.2,0.4c0.5,0.1,0.6,0.3,0.6,0.7c0,0.4-0.3,0.7-0.9,0.9c-0.7,0.2-1.7,0.3-3.2,0.3
							c-2.6,0-3.4-0.3-3.4-1.4c0-0.4,0-0.9,0-2.6c0-0.3,0-0.6-0.1-0.9c2,0.2,2.2,0.3,2.2,0.5c0,0.2-0.2,0.3-0.5,0.4v1.7
							c0,0.6,0.3,0.7,1.9,0.7c0.8,0,1.4,0,1.7-0.1c0.6-0.2,0.7-0.7,1.2-2c0-0.1,0.2-0.1,0.2,0V202.2z M257,202
							c-0.5,0-0.5-0.1-0.8-1.1c-0.1-0.5-0.3-0.8-0.8-1.4c-0.1-0.1,0-0.2,0.1-0.1c1.7,0.3,2.5,0.8,2.5,1.7
							C257.9,201.5,257.5,202,257,202z M262.5,203.6c-0.5,0-0.7-0.2-0.9-1.2c-0.2-0.9-0.6-1.7-1.1-2.2c-0.1-0.1,0-0.2,0.1-0.2
							c2,0.6,2.8,1.3,2.8,2.4C263.4,203.2,263,203.6,262.5,203.6z"/>
						<path class="st0" d="M272.6,203.8c0,0.5-0.4,0.7-1.2,0.7c-0.6,0-0.9-0.2-0.9-0.7c0-1.8,0.1-3.6,0.1-10.8c0-2.1,0-4.2-0.1-6.3
							c1,0.5,1.2,0.6,2.3,1.1h11.3c0.7-0.8,0.9-1,1.1-1c0.2,0,0.4,0.1,1.1,0.8c0.3,0.3,0.5,0.4,0.5,0.6c0,0.2-0.1,0.3-0.5,0.6v2.2
							c0,9.7,0.1,10.1,0.1,11.3c0,1-0.3,1.5-0.9,1.8c-0.3,0.1-1,0.3-1.3,0.3s-0.4-0.1-0.5-0.5c-0.1-0.7-0.5-1.2-2.4-1.6
							c-0.1,0-0.1-0.2,0-0.2c1.1,0,2,0.1,2.7,0.1c0.3,0,0.3-0.1,0.3-0.4v-6.5h-11.6V203.8z M277.3,194.8v-6.4h-4.7v6.4H277.3z
							 M284.2,188.3h-4.9v6.4h4.9V188.3z"/>
					</g>
				</g>
			</g>
		</g>
		<g>
			<g>
				<path class="st1" d="M43.5,171.4l-4.7-12.6c1.4-1.2,3.1-2.2,5.1-3c2-0.8,4.1-1.4,6.4-1.8c2.3-0.4,4.6-0.6,6.8-0.6
					c3.8,0,7.2,0.6,10.2,1.7c3,1.1,5.4,2.8,7.2,4.9c1.8,2.1,2.6,4.7,2.6,7.7c0,2.2-0.5,4.3-1.4,6.3c-1,2-2.2,3.8-3.7,5.5
					c-1.5,1.7-3.2,3.2-5,4.7c-1.8,1.4-3.6,2.7-5.4,3.8c-1.8,1.1-3.4,2.2-4.8,3h13.3c1.4,0,2.7-0.3,3.8-0.8c1.1-0.5,2.2-1.3,3.1-2.4
					c1-1.1,1.8-2.5,2.6-4.1h0.7l-4.8,19.7H39.2v-0.7c2-2.5,4.1-4.9,6.2-7.4c2.1-2.5,4.2-4.9,6.2-7.4c2-2.5,3.8-4.9,5.4-7.3
					c1.6-2.4,2.8-4.8,3.8-7.2c0.9-2.4,1.4-4.7,1.4-7.1c0-3-0.8-5.4-2.4-7.1c-1.6-1.7-3.8-2.5-6.5-2.2c-2.9,0.2-5.2,1.6-6.7,4
					c-1.5,2.5-2.3,6-2.3,10.5H43.5z"/>
				<path class="st1" d="M87.5,192.9c1.1-0.8,2.3-1.2,3.6-1.2c1.3,0,2.6,0.4,3.7,1c1.2,0.7,2.1,1.7,2.6,3c0.9,2.1,1.3,4.1,1,6.3
					c-0.3,2.1-1,4-2.2,5.7c-1.2,1.7-2.7,3-4.5,3.9c-1.8,0.9-3.7,1.1-5.8,0.7l-0.3-0.9c0.8-0.4,1.6-1,2.2-1.9c0.7-0.9,1-1.9,0.9-3.1
					c0-1.2-0.7-2.5-1.9-3.9c-0.8-1-1.4-2.1-1.6-3.3s-0.1-2.4,0.3-3.6C86,194.5,86.6,193.6,87.5,192.9z"/>
				<path class="st1" d="M134.4,166.1l-21.5,1.8l-1.3,5.8c4.5-1.1,8.4-1.4,11.9-1c3.5,0.4,6.3,1.4,8.7,3c2.3,1.6,4.1,3.6,5.2,6
					c1.1,2.4,1.6,5.1,1.5,8.1c-0.1,3.5-1.1,6.4-2.9,9c-1.8,2.5-4,4.5-6.8,6.1c-2.8,1.5-5.8,2.6-9.1,3.2c-3.3,0.6-6.5,0.7-9.7,0.2
					c-3.2-0.4-6.1-1.3-8.7-2.7l0.1-0.7c1.2,0,2.7-0.1,4.5-0.3c1.8-0.3,3.6-0.7,5.6-1.4c1.9-0.7,3.8-1.5,5.5-2.6
					c1.7-1.1,3.1-2.4,4.3-4s1.8-3.4,1.9-5.5c0.2-2.7-0.5-4.7-2.2-6.3c-1.6-1.5-3.9-2.4-6.7-2.5c-2.8-0.2-6,0.5-9.6,1.9l-0.6-0.4
					l5.8-26.9l20.9-1.8c1.5,0,2.7-0.3,3.5-1c0.8-0.7,1.5-1.5,2-2.5h0.7L134.4,166.1z"/>
				<path class="st1" d="M147.1,168c0-3.1,0.8-5.8,2.3-7.9c1.5-2.2,3.6-3.8,6.2-5c2.6-1.1,5.5-1.7,8.8-1.7c3.1,0,5.9,0.5,8.6,1.5
					c2.6,1,4.8,2.4,6.4,4.2c1.6,1.8,2.4,3.9,2.4,6.3c0,2.2-0.7,4-2.1,5.5c-1.4,1.5-3.2,2.6-5.2,3.3c-2.1,0.7-4.2,1.1-6.4,1.1h-2.4
					c1.2-0.3,2.1-1.2,2.8-2.5c0.7-1.3,1.1-2.8,1.4-4.4c0.3-1.6,0.4-3,0.3-4.2c0-1.9-0.6-3.6-1.6-4.9c-1-1.4-2.5-2.1-4.4-2.2
					c-1.7-0.1-3.1,0.4-4,1.6c-1,1.1-1.4,2.6-1.4,4.3c0,1.3,0.3,2.4,0.9,3.4c0.6,1,1.7,1.9,3.2,2.9c1.5,1,3.6,2.2,6.2,3.7
					c2.2,1.2,4.3,2.3,6.3,3.3c1.9,1.1,3.7,2.2,5.1,3.4c1.5,1.2,2.6,2.6,3.5,4.1c0.8,1.6,1.2,3.5,1.2,5.7c0,3.3-0.9,6-2.7,8.3
					c-1.8,2.2-4.4,3.9-7.7,5s-7.1,1.7-11.5,1.7c-2.2,0-4.4-0.2-6.6-0.5c-2.2-0.3-4.3-1-6.2-1.8c-1.9-0.9-3.4-2.1-4.6-3.7
					c-1.1-1.6-1.7-3.6-1.7-6.1c0-2.2,0.5-4.1,1.4-5.6c0.9-1.5,2.1-2.8,3.5-3.7c1.4-1,2.8-1.7,4.3-2.2c1.5-0.5,2.9-0.9,4.1-1.1
					c1.2-0.2,2.1-0.3,2.6-0.3l3.4-0.8c-2.1,0.7-3.9,1.9-5.3,3.8c-1.4,1.9-2.1,4.5-2.1,7.8c0,3.3,0.7,5.8,2.1,7.6
					c1.4,1.8,3.3,2.8,5.7,3.1c1.5,0.1,3,0,4.2-0.5c1.3-0.5,2.3-1.2,3.1-2.1c0.8-1,1.2-2,1.2-3.3c0-0.8-0.2-1.6-0.5-2.3
					c-0.4-0.7-0.9-1.5-1.8-2.2c-0.8-0.8-2-1.6-3.4-2.5c-1.4-0.9-3.2-1.9-5.4-2.9c-1.3-0.7-2.7-1.4-4.3-2.3c-1.6-0.9-3.1-2-4.6-3.3
					c-1.5-1.3-2.7-2.9-3.7-4.8S147.1,170.5,147.1,168z"/>
				<path class="st1" d="M191.6,168c0-3.1,0.8-5.8,2.3-7.9c1.5-2.2,3.6-3.8,6.2-5c2.6-1.1,5.5-1.7,8.8-1.7c3.1,0,5.9,0.5,8.6,1.5
					c2.6,1,4.8,2.4,6.4,4.2c1.6,1.8,2.4,3.9,2.4,6.3c0,2.2-0.7,4-2.1,5.5s-3.2,2.6-5.2,3.3c-2.1,0.7-4.2,1.1-6.4,1.1h-2.4
					c1.2-0.3,2.1-1.2,2.8-2.5s1.1-2.8,1.4-4.4c0.3-1.6,0.4-3,0.3-4.2c0-1.9-0.6-3.6-1.6-4.9c-1-1.4-2.5-2.1-4.4-2.2
					c-1.7-0.1-3.1,0.4-4,1.6c-1,1.1-1.4,2.6-1.4,4.3c0,1.3,0.3,2.4,0.9,3.4c0.6,1,1.7,1.9,3.2,2.9c1.5,1,3.6,2.2,6.2,3.7
					c2.2,1.2,4.3,2.3,6.3,3.3c1.9,1.1,3.7,2.2,5.1,3.4c1.5,1.2,2.6,2.6,3.5,4.1c0.8,1.6,1.2,3.5,1.2,5.7c0,3.3-0.9,6-2.7,8.3
					c-1.8,2.2-4.4,3.9-7.7,5s-7.1,1.7-11.5,1.7c-2.2,0-4.4-0.2-6.7-0.5c-2.2-0.3-4.3-1-6.2-1.8c-1.9-0.9-3.4-2.1-4.6-3.7
					c-1.1-1.6-1.7-3.6-1.7-6.1c0-2.2,0.5-4.1,1.4-5.6c0.9-1.5,2.1-2.8,3.5-3.7c1.4-1,2.8-1.7,4.3-2.2c1.5-0.5,2.9-0.9,4.1-1.1
					c1.2-0.2,2.1-0.3,2.6-0.3l3.4-0.8c-2.1,0.7-3.9,1.9-5.3,3.8c-1.4,1.9-2.1,4.5-2.1,7.8c0,3.3,0.7,5.8,2.1,7.6
					c1.4,1.8,3.3,2.8,5.7,3.1c1.5,0.1,3,0,4.2-0.5c1.3-0.5,2.3-1.2,3.1-2.1c0.8-1,1.2-2,1.2-3.3c0-0.8-0.2-1.6-0.5-2.3
					s-0.9-1.5-1.8-2.2c-0.8-0.8-2-1.6-3.4-2.5c-1.4-0.9-3.2-1.9-5.4-2.9c-1.3-0.7-2.7-1.4-4.3-2.3c-1.6-0.9-3.1-2-4.6-3.3
					c-1.5-1.3-2.7-2.9-3.7-4.8C192.1,172.8,191.6,170.5,191.6,168z"/>
			</g>
		</g>
		<g>
			<g>
				<g>
					<g>
						<path class="st0" d="M29.6,36.7c0,1,0,1.5,0,2c0,0.3-0.2,0.5-0.7,0.5c-0.3,0-0.5-0.1-0.5-0.4c0-0.4,0.1-1.8,0.1-3.1
							c-0.8,1-1.7,1.7-2.8,2.2c-0.1,0-0.2-0.1-0.1-0.2c1.2-1.1,2-2.3,2.7-3.9H27c-0.2,0-0.5,0-0.8,0.1L26,33.5
							c0.4,0.1,0.6,0.1,0.9,0.1h1.6v-0.4c0-0.5,0-0.9-0.1-1.4c1.1,0.1,1.7,0.2,1.7,0.4c0,0.1-0.1,0.3-0.4,0.4v1.1h0.6
							c0.4-0.6,0.6-0.7,0.7-0.7c0.1,0,0.3,0.1,0.7,0.5c0.2,0.2,0.3,0.3,0.3,0.4c0,0.1,0,0.1-0.2,0.1h-2.2v0.8
							c1.3,0.2,2.1,0.7,2.1,1.3c0,0.4-0.2,0.6-0.6,0.6c-0.3,0-0.4-0.1-0.5-0.4c-0.2-0.6-0.6-1-1-1.3V36.7z M32.9,28.6
							c0.5,0.5,1.3,1,2.1,1.3c1,0.4,2.2,0.6,3.5,0.8c0.1,0,0.1,0.1,0,0.2c-0.4,0.2-0.7,0.4-0.8,0.8c-0.2,0.4-0.3,0.5-0.4,0.5
							c-0.1,0-0.4-0.1-0.7-0.2c-0.6-0.3-1.5-0.8-2-1.2c-0.6-0.4-1.1-1-1.7-1.8c0,1.2,0.1,2.3,0.1,2.9c0,0.4-0.3,0.5-0.8,0.5
							c-0.4,0-0.6-0.1-0.6-0.4c0-0.2,0-1.4,0.1-2.3c-1.2,1.2-3.1,2.1-5.3,2.7c-0.1,0-0.1-0.1-0.1-0.1c2.2-1.1,3.3-2.1,4.6-3.5h-3
							c-0.3,0-0.6,0-0.9,0.1l-0.2-0.5c0.4,0.1,0.7,0.1,1,0.1h3.8v-0.6c0-0.5,0-0.9-0.1-1.3c1.6,0.2,1.8,0.2,1.8,0.4
							c0,0.2-0.1,0.3-0.5,0.4v1.1h2.9c0.7-0.9,0.9-1,1-1c0.1,0,0.3,0.1,1,0.7c0.3,0.3,0.4,0.4,0.4,0.5c0,0.1,0,0.1-0.2,0.1H32.9z
							 M35.3,36.7c0,0.8,0,1.4,0,1.9c0,0.3-0.2,0.5-0.7,0.5c-0.4,0-0.5-0.1-0.5-0.4c0-0.4,0-1.8,0.1-3.2c-1,1.2-2.1,2-3.5,2.6
							c-0.1,0-0.2-0.1-0.1-0.2c1.4-1.1,2.4-2.4,3.2-4.1h-0.7c-0.2,0-0.5,0-0.8,0.1l-0.2-0.5c0.4,0.1,0.7,0.1,0.9,0.1h1V33
							c0-0.4,0-0.8-0.1-1.3c1.2,0.1,1.7,0.2,1.7,0.4c0,0.1-0.1,0.2-0.4,0.4v1.1h1.2c0.5-0.7,0.7-0.8,0.8-0.8c0.1,0,0.3,0.1,0.8,0.5
							c0.3,0.2,0.4,0.3,0.4,0.4c0,0.1,0,0.1-0.2,0.1h-2.9c0.4,0.7,0.9,1.3,1.4,1.8c0.6,0.5,1.3,0.9,2.1,1.1c0.1,0,0.1,0.1,0,0.1
							c-0.4,0.3-0.7,0.5-0.8,0.9C38.1,38,38,38,37.9,38c-0.1,0-0.2-0.1-0.4-0.2c-0.4-0.3-0.9-0.9-1.2-1.3c-0.4-0.6-0.7-1.3-1.1-2.2
							V36.7z"/>
						<path class="st0" d="M47,31.9c0.8,0.4,1.3,0.8,1.3,1.4c0,0.4-0.3,0.7-0.6,0.7c-0.3,0-0.5-0.1-0.8-0.4c-0.3-0.4-0.7-0.7-1-1
							c-0.4-0.4-0.9-0.6-1.5-0.8c0,0.8,0,1.6,0,2.4c0,0.6,0,1.9,0.1,3.4c0,0.5-0.2,0.7-0.5,0.7c-0.2,0-0.4-0.1-0.6-0.3
							c-0.2-0.4-0.3-0.8-0.3-1.1c0-0.1,0-0.3,0.1-0.4c0-0.1,0.1-0.2,0.1-0.2c0-0.2,0-0.6,0.1-3.1c0-1.3,0-2.5,0-3.8
							c0-0.4,0-1-0.1-1.2c0-0.1-0.2-0.2-0.3-0.3c-0.2-0.1-0.4-0.2-0.5-0.2c-0.1,0-0.1-0.1-0.1-0.1c0-0.1,0.1-0.2,0.2-0.2
							c0.1-0.1,0.3-0.1,0.4-0.1c0.3,0,0.7,0.1,1.4,0.4c0.4,0.2,0.6,0.4,0.6,0.7c0,0.2-0.1,0.3-0.2,0.4c-0.1,0.1-0.1,0.1-0.1,0.3
							c0,0.4-0.1,1.2-0.1,2.5C45.4,31.4,46.3,31.6,47,31.9z"/>
						<path class="st0" d="M54.7,30.6c0.8-0.1,2-0.2,3.8-0.4c0.2,0,0.3-0.1,0.5-0.2c0.1-0.1,0.3-0.1,0.4-0.1c0.3,0,0.7,0.3,1.1,0.7
							c0.3,0.3,0.3,0.4,0.3,0.6c0,0.2-0.2,0.3-0.3,0.3c-0.2,0.1-0.3,0.2-0.5,0.6c-0.5,1-1.3,2.1-2.2,3.1c-1.1,1.2-2.7,2.5-4.6,3.2
							c-0.1,0-0.2,0.1-0.3,0.1c-0.1,0-0.1-0.1-0.1-0.1c0-0.1,0.1-0.1,0.2-0.2c1.7-1.1,2.9-2.4,4-3.9c0.8-1,1.3-1.9,1.8-2.9
							c0-0.1,0.1-0.3,0.1-0.3c0,0,0,0-0.1,0c-0.1,0-0.2,0-0.2,0c-1.5,0.1-2.6,0.3-4,0.6c-0.5,0.1-0.7,0.2-0.8,0.2
							c-0.2,0.1-0.3,0.1-0.4,0.1c-0.2,0-0.4-0.1-0.8-0.4c-0.4-0.4-0.5-0.8-0.5-1c0-0.2,0.1-0.4,0.1-0.4c0.1,0,0.1,0,0.2,0.1
							c0.4,0.4,0.6,0.5,1.1,0.5C53.6,30.7,54.2,30.7,54.7,30.6z M55.3,27.9c0.5-0.1,1.1-0.2,1.7-0.3c0.4-0.1,0.5-0.2,0.6-0.2
							c0.2-0.1,0.4-0.1,0.5-0.1c0.6,0,1.2,0.3,1.2,0.6c0,0.2,0,0.4-0.3,0.5c-0.3,0.1-0.6,0.1-0.9,0.2c-0.6,0.1-2.1,0.3-3.2,0.4
							c-0.3,0-0.5,0-0.7,0c-0.5,0-0.8-0.2-1.2-0.8c-0.2-0.2-0.2-0.4-0.2-0.6c0-0.1,0-0.2,0.1-0.2c0,0,0.1,0,0.2,0.1
							c0.5,0.4,0.7,0.5,1.3,0.5C54.8,28,55.1,28,55.3,27.9z"/>
						<path class="st0" d="M72.2,33.9c0.5,0.3,1,0.6,1.3,0.9c0.8,0.6,1.2,1.2,1.2,1.6c0,0.4-0.3,0.8-0.6,0.8c-0.4,0-0.6-0.1-0.9-0.5
							c-0.5-0.7-1-1.5-1.6-2.1c-0.5-0.5-0.9-0.8-1.4-1.1c-1.1,1.1-2.2,2-3.4,2.7c-0.9,0.5-1.8,0.9-2.4,1.1c-0.1,0-0.2,0.1-0.3,0.1
							c-0.1,0-0.1,0-0.1-0.1c0-0.1,0-0.1,0.1-0.2c1.7-0.9,2.8-1.8,4.4-3.4c1.1-1.1,1.8-2.1,2.8-3.7c0.1-0.1,0.1-0.1,0.1-0.2
							c0,0,0-0.1-0.2,0c-1,0.1-2.2,0.3-3.3,0.6c-0.4,0.1-0.5,0.2-0.6,0.2c-0.1,0.1-0.2,0.2-0.5,0.2c-0.3,0-0.5-0.2-0.9-0.7
							c-0.3-0.3-0.3-0.5-0.3-0.9c0-0.3,0.1-0.4,0.2-0.4c0,0,0.1,0.1,0.2,0.2c0.4,0.4,0.5,0.5,1,0.5c0.2,0,0.5,0,1.1-0.1
							c1.1-0.1,2.1-0.3,3.1-0.4c0.3,0,0.4-0.1,0.6-0.2c0.1-0.1,0.2-0.2,0.4-0.2c0.3,0,0.4,0.1,0.7,0.4c0.4,0.4,0.6,0.6,0.6,0.8
							c0,0.1,0,0.3-0.5,0.4c-0.1,0-0.2,0.2-0.3,0.3c-0.6,0.9-1.1,1.6-1.9,2.5C71.2,33.4,71.7,33.6,72.2,33.9z"/>
						<path class="st0" d="M83.6,31.9c0.8,0.4,1.3,0.8,1.3,1.4c0,0.4-0.3,0.7-0.6,0.7c-0.3,0-0.5-0.1-0.8-0.4c-0.3-0.4-0.7-0.7-1-1
							c-0.4-0.4-0.9-0.6-1.5-0.8c0,0.8,0,1.6,0,2.4c0,0.6,0,1.9,0.1,3.4c0,0.5-0.2,0.7-0.5,0.7c-0.2,0-0.4-0.1-0.6-0.3
							c-0.2-0.4-0.3-0.8-0.3-1.1c0-0.1,0-0.3,0.1-0.4c0-0.1,0.1-0.2,0.1-0.2c0-0.2,0-0.6,0.1-3.1c0-1.3,0-2.5,0-3.8
							c0-0.4,0-1-0.1-1.2c0-0.1-0.2-0.2-0.3-0.3c-0.2-0.1-0.4-0.2-0.5-0.2c-0.1,0-0.1-0.1-0.1-0.1c0-0.1,0.1-0.2,0.2-0.2
							c0.1-0.1,0.3-0.1,0.4-0.1c0.3,0,0.7,0.1,1.4,0.4c0.4,0.2,0.6,0.4,0.6,0.7c0,0.2-0.1,0.3-0.2,0.4c-0.1,0.1-0.1,0.1-0.1,0.3
							c0,0.4-0.1,1.2-0.1,2.5C81.9,31.4,82.8,31.6,83.6,31.9z"/>
						<path class="st0" d="M97.3,30.2c0,0.2-0.1,0.4-0.4,0.5c-0.2,0.1-0.3,0.3-0.4,0.5c-1,1.5-2,2.9-3.2,4.2
							c-1.3,1.3-2.8,2.4-4.5,3.1c-0.1,0-0.2,0.1-0.3,0.1c-0.1,0-0.1,0-0.1-0.1c0-0.1,0.1-0.1,0.2-0.3c1.8-1.2,3.1-2.4,4.1-3.6
							c1-1.2,2-2.6,2.8-4.2c0-0.1,0-0.1,0-0.1s0-0.1-0.1-0.1c-0.3,0-0.8,0.2-1.4,0.3c-0.4,0.1-0.6,0.1-0.8,0.1
							c-0.2,0-0.5-0.1-0.8-0.2c-0.5,0.7-1.1,1.3-1.7,1.9c-0.6,0.6-1.3,1.1-2,1.6c-0.3,0.2-0.4,0.2-0.4,0.2c-0.1,0-0.2-0.1-0.2-0.2
							c0-0.1,0.2-0.3,0.5-0.6c0.5-0.5,1.1-1.2,1.7-2c0.4-0.5,0.8-1.1,1.1-1.7c0.2-0.4,0.5-0.8,0.5-1.1s-0.2-0.4-0.5-0.5
							c-0.1-0.1-0.2-0.1-0.2-0.2c0-0.1,0.2-0.2,0.5-0.2c0.2,0,0.7,0.1,1.4,0.5c0.4,0.3,0.5,0.4,0.5,0.7c0,0.2-0.2,0.3-0.3,0.4
							c-0.1,0.1-0.2,0.2-0.6,0.7c0,0,0.1,0,0.2,0c0.3,0,0.6-0.1,1.1-0.2c0.6-0.1,0.9-0.2,1.1-0.2c0.1,0,0.2-0.1,0.3-0.2
							c0.1-0.1,0.2-0.2,0.4-0.2c0.3,0,0.6,0.2,1.1,0.6C97.2,29.8,97.3,30,97.3,30.2z M98,28.3c0.4,0.3,0.5,0.5,0.5,0.8
							c0,0.2-0.2,0.5-0.5,0.5c-0.2,0-0.3,0-0.5-0.3c-0.3-0.5-0.5-0.9-0.9-1.2c-0.1-0.1-0.2-0.1-0.2-0.2c0-0.1,0.1-0.1,0.2-0.1
							c0.1,0,0.3,0,0.3,0.1C97.4,27.9,97.7,28.1,98,28.3z M99.3,27.3c0.3,0.2,0.5,0.4,0.5,0.7c0,0.3-0.2,0.5-0.4,0.5
							c-0.2,0-0.4-0.1-0.5-0.3c-0.3-0.5-0.6-0.8-1-1.1c-0.1,0-0.2-0.1-0.2-0.2c0-0.1,0.1-0.1,0.1-0.1c0.1,0,0.2,0,0.4,0
							C98.6,27,98.9,27.1,99.3,27.3z"/>
						<path class="st0" d="M104.6,30.4c-0.1,0-0.2-0.1-0.2-0.1c0-0.1,0.3-0.3,0.5-0.3c0.4,0,1,0.2,1.5,0.5c0.4,0.2,0.4,0.4,0.4,0.6
							c0,0.1,0,0.2-0.2,0.4c-0.1,0.1-0.2,0.2-0.2,0.5c-0.3,0.9-0.6,1.8-1.1,2.6c-0.7,1.1-1.6,2-2.8,2.6c-0.1,0.1-0.2,0.1-0.3,0.1
							c-0.1,0-0.1,0-0.1-0.1c0-0.1,0-0.1,0.1-0.2c0.9-0.8,1.4-1.5,2-2.5c0.4-0.8,0.7-1.6,1-2.4c0.1-0.4,0.2-0.7,0.2-1
							C105.3,30.8,104.9,30.6,104.6,30.4z M107.8,29.5c-0.1-0.2-0.3-0.4-0.6-0.5c-0.1,0-0.2-0.1-0.2-0.2c0-0.1,0.3-0.3,0.6-0.3
							c0.3,0,0.8,0.2,1.3,0.5c0.3,0.2,0.6,0.4,0.6,0.7c0,0.2-0.1,0.3-0.2,0.4c-0.1,0.1-0.1,0.2-0.1,0.3c0,0.9,0,1.8-0.1,3.2
							c0,0.6,0,1,0,1c0,0.1,0,0.2,0.1,0.2s0.2,0,0.3-0.1c1.5-0.7,2.9-1.3,4.6-2.7c0.2-0.1,0.3-0.2,0.4-0.2c0.1,0,0.1,0,0.1,0.1
							c0,0.1-0.1,0.1-0.1,0.2c-0.9,1.3-2.5,2.6-4.9,4c-0.1,0.1-0.2,0.2-0.3,0.3c-0.1,0.1-0.2,0.2-0.3,0.2c-0.2,0-0.5-0.2-0.7-0.4
							c-0.3-0.3-0.4-0.6-0.4-0.8c0-0.1,0-0.1,0-0.2c0-0.1,0.1-0.5,0.1-0.9c0-1.1,0-2.1,0-3.9C107.8,30,107.8,29.7,107.8,29.5z"/>
						<path class="st0" d="M127.7,33.3c-0.4,0-1.4-0.1-2.1-0.1c-1.1,0-3.5,0.1-5.2,0.2c-0.7,0.1-1.2,0.1-1.4,0.3
							c-0.1,0.1-0.2,0.1-0.4,0.1c-0.4,0-0.7-0.3-1.1-1c-0.2-0.3-0.3-0.5-0.3-0.8c0-0.2,0.1-0.3,0.2-0.3c0,0,0.1,0.1,0.2,0.1
							c0.5,0.5,0.8,0.5,1.2,0.5c0.4,0,0.6,0,1.5-0.1c1.7-0.1,3.6-0.2,5-0.2c0.5,0,0.9-0.1,1.1-0.2c0.1-0.1,0.3-0.1,0.4-0.1
							c0.2,0,0.4,0,0.6,0.1c0.5,0.2,0.9,0.4,0.9,0.8C128.2,33,128,33.3,127.7,33.3z"/>
						<path class="st0" d="M133.7,30.7c-0.3,0.1-0.4,0.1-0.5,0.2c-0.1,0.1-0.3,0.1-0.4,0.1c-0.2,0-0.5-0.2-0.8-0.6
							c-0.4-0.5-0.5-0.7-0.5-1c0-0.3,0.1-0.4,0.2-0.4c0.1,0,0.1,0.1,0.2,0.2c0.4,0.5,0.7,0.6,1.2,0.6c0.4,0,0.7,0,1-0.1
							c1.4-0.1,2.8-0.3,4-0.4c0.3,0,0.5-0.1,0.6-0.2c0.1-0.1,0.2-0.2,0.4-0.2c0.3,0,0.5,0.1,0.9,0.4c0.5,0.4,0.6,0.6,0.6,0.9
							c0,0.1-0.1,0.3-0.3,0.4c-0.3,0.2-0.4,0.4-0.6,0.7c-0.9,1.7-1.7,2.7-2.7,3.7c-1.5,1.6-3.3,2.5-4.6,3c-0.1,0-0.2,0-0.2,0
							c-0.1,0-0.2,0-0.2-0.2c0-0.1,0.1-0.1,0.2-0.2c1.7-1,2.9-2.2,4-3.5c0.8-1.1,1.5-2.2,2.2-3.6c0.1-0.2,0.2-0.4,0.2-0.5
							c0-0.1-0.1-0.1-0.1-0.1c-0.1,0-0.3,0-0.6,0.1C136.6,30.2,135,30.4,133.7,30.7z M142.6,28c0,0.6-0.5,1.2-1.2,1.2
							c-0.6,0-1.2-0.5-1.2-1.2c0-0.7,0.5-1.2,1.2-1.2C142.1,26.8,142.6,27.3,142.6,28z M140.7,28c0,0.4,0.4,0.8,0.8,0.8
							c0.4,0,0.8-0.3,0.8-0.8c0-0.4-0.4-0.8-0.8-0.8C141,27.2,140.7,27.5,140.7,28z"/>
						<path class="st0" d="M31.1,53.8C31,57,29.7,58.4,26,59.1c-0.1,0-0.1-0.2-0.1-0.2c2.9-1.1,3.8-2.4,3.8-5.3c0-0.2,0-0.3,0-0.6
							c1.5,0.1,1.9,0.2,1.9,0.5C31.5,53.6,31.4,53.7,31.1,53.8z M36.5,52.1c0.5-0.6,0.6-0.7,0.8-0.7c0.1,0,0.2,0.1,0.9,0.7
							c0.3,0.3,0.4,0.4,0.4,0.5c0,0.3-0.1,0.3-0.6,0.3c-0.2,0-0.3,0.1-0.4,0.1c-0.5,0.4-0.9,0.6-1.3,0.9c-0.1,0-0.2,0-0.1-0.1
							c0.3-0.5,0.4-0.8,0.6-1.4h-8.8c0,1.1-0.5,1.9-1.3,1.9c-0.4,0-0.6-0.3-0.6-0.6c0-0.3,0.1-0.5,0.5-0.7c0.7-0.4,1-0.8,1.1-1.7
							c0-0.1,0.1-0.1,0.2,0c0.1,0.3,0.1,0.6,0.2,0.9H36.5z M32.7,50.3h2.5c0.7-0.8,0.8-0.9,0.9-0.9c0.1,0,0.3,0.1,0.9,0.6
							c0.3,0.2,0.4,0.3,0.4,0.4c0,0.1,0,0.1-0.2,0.1h-8.8c-0.3,0-0.6,0-1,0.1l-0.2-0.5c0.4,0.1,0.7,0.1,1.1,0.1h3v-1.7h-4.2
							c-0.3,0-0.6,0-1,0.1l-0.2-0.5c0.4,0.1,0.8,0.1,1.1,0.1h4.2v-0.6c0-0.5,0-0.9-0.1-1.4c1.8,0.2,1.9,0.3,1.9,0.5
							c0,0.1-0.2,0.2-0.5,0.3v1.1h3.5c0.7-0.8,0.8-0.9,0.9-0.9c0.1,0,0.3,0.1,1,0.6c0.3,0.3,0.4,0.4,0.4,0.5s0,0.1-0.2,0.1h-5.6
							V50.3z M34.1,57.1c0,0.4,0.1,0.5,1.3,0.5c0.6,0,0.9,0,1.4-0.1c0.4-0.1,0.7-0.7,1.1-2c0-0.1,0.2-0.1,0.2,0c0,0.5,0,1.1,0,1.5
							c0,0.2,0,0.2,0.1,0.3c0.4,0.2,0.5,0.4,0.5,0.6c0,0.4-0.2,0.6-0.7,0.8c-0.5,0.2-1.4,0.2-2.7,0.2c-2,0-2.5-0.2-2.5-1.2v-2.3
							c0-0.8,0-1.5,0-2.3c1.8,0.3,1.8,0.3,1.8,0.5c0,0.1-0.1,0.2-0.4,0.4V57.1z"/>
						<path class="st0" d="M47.9,58h3.4c0.8-1,1-1.1,1.1-1.1c0.1,0,0.3,0.1,1.1,0.8c0.4,0.3,0.5,0.4,0.5,0.5c0,0.1,0,0.1-0.2,0.1H43
							c-0.4,0-0.9,0-1.3,0.1l-0.2-0.5c0.6,0.1,1,0.1,1.5,0.1h3.5v-9.3c0-0.8,0-1.5-0.1-2c1.8,0.2,2,0.3,2,0.5s-0.2,0.3-0.5,0.4v4.2
							h2.3c0.8-1,0.9-1.1,1-1.1c0.1,0,0.3,0.1,1.1,0.8c0.4,0.3,0.5,0.4,0.5,0.5c0,0.1,0,0.1-0.2,0.1h-4.7V58z"/>
						<path class="st0" d="M62.3,47.1c0-0.2,0-0.5-0.1-0.8c1.8,0.2,1.9,0.3,1.9,0.5c0,0.1-0.2,0.3-0.5,0.4v0.8h3.4
							c0.8-0.8,0.9-1,1-1c0.1,0,0.3,0.1,0.9,0.7c0.3,0.3,0.4,0.4,0.4,0.5c0,0.1,0,0.1-0.2,0.1H58c-0.3,0-0.6,0-1,0.1l-0.2-0.5
							c0.4,0.1,0.8,0.1,1.1,0.1h4.3V47.1z M67.2,53.1c0.5-0.5,0.6-0.6,0.7-0.6c0.1,0,0.3,0.1,0.8,0.5c0.2,0.2,0.3,0.3,0.3,0.4
							c0,0.2-0.1,0.3-0.4,0.4v0.7c0,2.2,0,2.8,0,3.4c0,0.5-0.1,0.8-0.5,1c-0.3,0.2-0.6,0.2-0.9,0.2c-0.2,0-0.3,0-0.3-0.4
							c-0.1-0.5-0.3-0.6-1.2-0.9c-0.1,0-0.1-0.2,0-0.2c0.6,0.1,1,0.1,1.5,0.1c0.1,0,0.2,0,0.2-0.2v-4.2h-8.4v5.2
							c0,0.4-0.2,0.6-0.8,0.6c-0.4,0-0.6-0.1-0.6-0.5c0-0.8,0-1.5,0-4.7c0-0.5,0-1.1,0-1.6c0.7,0.3,0.8,0.3,1.4,0.7H67.2z
							 M60.7,51.9V52c0,0.4-0.3,0.5-0.8,0.5c-0.4,0-0.5-0.1-0.5-0.5c0-0.4,0-0.7,0-2.1c0-0.4,0-0.8,0-1.1c0.7,0.3,0.8,0.3,1.4,0.7
							h4.4c0.4-0.5,0.5-0.6,0.7-0.6c0.1,0,0.3,0.1,0.8,0.5c0.2,0.2,0.3,0.3,0.3,0.4s-0.1,0.2-0.4,0.4v0.3c0,0.8,0,1.3,0,1.5
							c0,0.4-0.2,0.6-0.8,0.6c-0.4,0-0.5-0.1-0.5-0.5v-0.1H60.7z M61.6,56.9v0.3c0,0.4-0.2,0.5-0.7,0.5c-0.4,0-0.5-0.1-0.5-0.5
							c0-0.3,0-0.6,0-1.9c0-0.5,0-0.9-0.1-1.4c0.6,0.3,0.7,0.3,1.4,0.6h2.7c0.4-0.4,0.5-0.5,0.6-0.5c0.1,0,0.3,0.1,0.7,0.5
							c0.2,0.2,0.3,0.3,0.3,0.4c0,0.1-0.1,0.2-0.4,0.4v0.3c0,0.7,0,1.2,0,1.4c0,0.4-0.2,0.5-0.7,0.5c-0.4,0-0.5-0.1-0.5-0.4v-0.2
							H61.6z M65.3,49.8h-4.6v1.8h4.6V49.8z M64.5,54.9h-2.9v1.7h2.9V54.9z"/>
					</g>
				</g>
			</g>
		</g>
		<g>
			<g>
				<g>
					<g>
						<path class="st0" d="M240.2,369.3c0.9-1.1,1.1-1.2,1.2-1.2c0.1,0,0.3,0.1,1.2,0.8c0.4,0.3,0.5,0.5,0.5,0.6
							c0,0.1,0,0.2-0.2,0.2h-5.6c0,1.7,0,3.3,0,4c0,0.5-0.3,0.7-1,0.7c-0.5,0-0.7-0.1-0.7-0.6s0.1-1.6,0.1-4.1h-5.6
							c-0.4,0-0.7,0-1.2,0.1l-0.2-0.6c0.5,0.1,0.9,0.1,1.3,0.1h1.4v-2.2c0-0.8,0-1.6-0.1-2.4c0.8,0.3,0.9,0.4,1.7,0.8h2.7v-2.9h-3
							c-1,1.5-2.1,2.6-3.6,3.5c-0.1,0-0.2-0.1-0.2-0.1c1.1-1.1,2.1-2.9,2.8-4.6c0.3-0.7,0.4-1.3,0.5-1.8c1.7,0.5,2.1,0.7,2.1,1
							c0,0.2-0.2,0.3-0.7,0.4c-0.2,0.5-0.5,0.9-0.7,1.4h6.8c0.8-1,1-1.1,1.1-1.1c0.1,0,0.3,0.1,1.1,0.8c0.4,0.3,0.5,0.4,0.5,0.5
							c0,0.1,0,0.2-0.2,0.2h-5.1v2.9h1.9c0.8-0.9,0.9-1,1.1-1c0.2,0,0.3,0.1,1.1,0.7c0.4,0.3,0.5,0.4,0.5,0.5c0,0.1-0.1,0.2-0.2,0.2
							h-4.3v0.6c0,0.9,0,1.9,0,2.9H240.2z M235.7,365.9H233v3.5h2.8V365.9z"/>
					</g>
				</g>
			</g>
		</g>
		<g>
			<g>
				<g>
					<g>
						<path class="st0" d="M197.4,387.9c0.3-0.6,0.6-1.2,0.8-1.6c0.2-0.4,0.3-0.8,0.4-1.2c1.4,0.4,2,0.7,2,0.9
							c0,0.2-0.2,0.3-0.7,0.3c-0.8,0.8-1.1,1.1-1.8,1.6h3c0.8-0.9,1-1.1,1.1-1.1c0.1,0,0.3,0.1,1.1,0.7c0.4,0.3,0.5,0.4,0.5,0.5
							c0,0.1,0,0.2-0.2,0.2h-12.8c-0.4,0-0.7,0-1.2,0.1l-0.2-0.6c0.5,0.1,0.9,0.1,1.3,0.1H197.4z M191.9,395.2c0,1.9,0,2.9,0,3.9
							c0,0.4-0.3,0.6-0.9,0.6c-0.5,0-0.7-0.1-0.7-0.5c0-0.9,0.1-1.8,0.1-5.3c0-1.5,0-3.1,0-4.6c0.8,0.3,0.9,0.3,1.6,0.7h2.6
							c0.5-0.6,0.7-0.7,0.8-0.7c0.2,0,0.3,0.1,0.8,0.5c0.2,0.2,0.3,0.3,0.3,0.4c0,0.1-0.1,0.2-0.4,0.4v1.2c0,5.1,0,5.9,0,6.4
							c0,0.4-0.1,0.8-0.4,1c-0.3,0.2-0.6,0.3-1.2,0.3c-0.2,0-0.2-0.1-0.3-0.3c-0.1-0.5-0.3-0.8-1.5-1.2c-0.1,0-0.1-0.2,0-0.2
							c0.6,0,1.1,0.1,1.6,0.1c0.1,0,0.2,0,0.2-0.3v-2.6H191.9z M194.7,390.4h-2.8v2h2.8V390.4z M194.7,392.7h-2.8v2.1h2.8V392.7z
							 M194.4,387.8c-0.4,0-0.6-0.2-0.7-0.7c-0.2-0.8-0.5-1.3-0.8-1.7c0-0.1,0-0.2,0.1-0.2c1.5,0.4,2.2,0.9,2.2,1.7
							C195.2,387.4,194.8,387.8,194.4,387.8z M199.3,391.7c0,2.3,0,3.9,0,4.4c0,0.5-0.3,0.7-0.9,0.7c-0.5,0-0.6-0.1-0.6-0.6
							c0-0.5,0-1.9,0-4.8c0-0.6,0-0.9-0.1-1.4c1.8,0.2,2.1,0.3,2.1,0.5c0,0.2-0.2,0.3-0.5,0.4V391.7z M201,390.8
							c0-0.6,0-0.8-0.1-1.4c1.9,0.2,2.1,0.3,2.1,0.5c0,0.2-0.2,0.3-0.5,0.4v4.2c0,0.8,0.1,2.7,0.1,3.6c0,0.3-0.1,0.7-0.2,0.9
							c-0.3,0.4-0.7,0.6-1.4,0.6c-0.4,0-0.4,0-0.5-0.4c-0.1-0.5-0.4-0.8-1.7-1.1c-0.1,0-0.1-0.2,0-0.2c0.7,0,1.5,0.1,1.9,0.1
							c0.4,0,0.4,0,0.4-0.2V390.8z"/>
						<path class="st0" d="M209.5,391.5c-0.4,0.6-0.9,1.2-1.4,1.6c-0.1,0.1-0.2-0.1-0.2-0.2c1-1.8,1.8-3.7,2.3-5.5
							c0.2-0.8,0.4-1.6,0.4-2.4c1.9,0.5,2.1,0.6,2.1,0.8c0,0.2,0,0.2-0.6,0.4c-0.4,1.3-1,2.6-1.7,3.8c0.8,0.1,0.9,0.2,0.9,0.4
							c0,0.1-0.1,0.2-0.4,0.4v8.3c0,0.5-0.3,0.7-0.8,0.7c-0.5,0-0.7-0.2-0.7-0.6c0-0.4,0.1-1.7,0.1-4.2V391.5z M215.5,396.6
							c1-0.2,2-0.4,2.6-0.5c0.1,0,0.1,0.2,0.1,0.2c-1.6,0.8-3.1,1.4-5.4,2.1c0,0.4-0.1,0.6-0.3,0.6c-0.2,0-0.3-0.2-0.8-1.9
							c0.3,0,0.6,0,1,0c0.4,0,1-0.1,1.5-0.2V394h-1.3c-0.3,0-0.5,0-0.9,0.1l-0.2-0.6c0.4,0.1,0.7,0.1,1,0.1h1.3v-0.6
							c0-0.7,0-1.3-0.1-1.8c1.7,0.2,1.9,0.3,1.9,0.5s-0.2,0.3-0.5,0.4v1.5h0.7c0.5-0.7,0.7-0.8,0.8-0.8c0.1,0,0.3,0.1,0.8,0.6
							c0.2,0.2,0.3,0.3,0.3,0.4s0,0.2-0.2,0.2h-2.4V396.6z M215.4,387c-0.5,1.1-1,2.1-1.8,3.1c1,0,2-0.1,3.1-0.2
							c-0.2-0.7-0.4-1.3-0.8-1.7c0-0.1,0.1-0.2,0.1-0.1c1.4,0.8,2.2,1.6,2.2,2.4c0,0.5-0.4,0.9-0.8,0.9c-0.4,0-0.5-0.2-0.7-0.9
							l0-0.1c-1.2,0.5-2.6,0.8-4,1.1c-0.1,0.3-0.2,0.4-0.4,0.4c-0.2,0-0.3-0.2-0.7-1.8c0.4,0,0.6,0,0.8,0h0.7c0.3-1,0.4-2,0.6-3.1
							h-0.4c-0.3,0-0.5,0-0.9,0.1l-0.2-0.6c0.4,0.1,0.7,0.1,1.1,0.1h3c0.5-0.8,0.7-0.9,0.8-0.9c0.1,0,0.3,0.1,0.9,0.6
							c0.3,0.2,0.4,0.4,0.4,0.5c0,0.1,0,0.2-0.2,0.2H215.4z M221,386.7c0-0.5,0-0.8-0.1-1.3c1.8,0.2,1.9,0.3,1.9,0.5
							c0,0.2-0.1,0.3-0.4,0.4v5.7c0,2.9,0.1,5,0.1,5.9c0,0.7-0.1,1-0.5,1.3c-0.4,0.2-0.8,0.4-1.2,0.4c-0.4,0-0.5-0.1-0.5-0.4
							c-0.1-0.6-0.4-0.8-1.6-1.2c-0.1,0-0.1-0.2,0-0.2c0.7,0,1.6,0.1,2.1,0.1c0.2,0,0.2,0,0.2-0.2V386.7z M220,389
							c0,3.4,0.1,5.7,0.1,6.5c0,0.4-0.3,0.7-0.8,0.7c-0.4,0-0.6-0.2-0.6-0.6c0-0.5,0.1-1.9,0.1-4.8c0-2.3,0-3.6-0.1-3.9
							c1.7,0.2,1.8,0.2,1.8,0.5c0,0.1-0.1,0.3-0.4,0.4V389z"/>
						<path class="st0" d="M231.1,388.6c-0.1,0.3-0.2,1.1-0.3,2.8c-0.1,1.7-0.2,3.1-0.2,4.1c0,0.8,0.1,1.3,0.4,1.5
							c0.3,0.2,0.8,0.4,1.5,0.4c1.1,0,2.3-0.4,3.5-1c0.8-0.4,1.9-1.1,2.8-2.2c0.1-0.1,0.2-0.2,0.3-0.2c0.1,0,0.2,0,0.2,0.2
							c0,0.1-0.1,0.3-0.2,0.4c-0.7,1.1-1.6,2.1-2.8,2.8c-1,0.7-2.3,1.3-4.3,1.3c-1.7,0-2.7-1.2-2.7-3.1c0.1-2.7,0.2-5.3,0.2-7.7
							c0-0.6-0.1-0.8-0.6-1.1c-0.4-0.2-0.5-0.2-0.5-0.3c0-0.1,0.1-0.2,0.3-0.3c0.2-0.1,0.6-0.1,0.7-0.1c0.4,0,0.9,0.2,1.5,0.7
							c0.3,0.3,0.5,0.6,0.5,0.8c0,0.3-0.1,0.4-0.2,0.5C231.2,388.4,231.1,388.5,231.1,388.6z"/>
						<path class="st0" d="M251.5,389c-2.3,0.6-3.8,1.1-4.7,1.5c-0.2,0.1-0.4,0.2-0.6,0.4c-0.1,0.1-0.3,0.2-0.5,0.2
							c-0.3,0-0.7-0.2-1.2-0.8c-0.3-0.3-0.6-0.7-0.6-1.2c0-0.3,0.1-0.5,0.2-0.5c0.1,0,0.1,0,0.3,0.2c0.6,0.6,0.7,0.6,1.2,0.6
							c0.2,0,1.1-0.1,2.7-0.5c2-0.5,3.6-0.9,4.9-1.3c0.4-0.1,0.7-0.2,0.9-0.3c0.2-0.1,0.3-0.1,0.6-0.1c0.4,0,0.9,0,1.5,0.3
							c0.3,0.1,0.5,0.3,0.5,0.6c0,0.3-0.1,0.6-0.6,0.6c-0.3,0-0.7,0-1.6,0.1c-1.5,0.1-2.7,0.6-3.7,1.7c-0.8,0.9-1.2,1.9-1.2,3.1
							c0,1,0.4,1.9,1.2,2.4c0.8,0.5,1.6,0.8,2.6,0.8c0.5,0,0.9,0,1.2,0.2c0.4,0.2,0.6,0.4,0.6,0.8c0,0.4-0.3,0.8-1,0.8
							c-1,0-2.2-0.3-3.1-0.8c-1.1-0.5-2.4-1.8-2.4-3.7c0-1,0.2-1.9,0.6-2.7C249.6,390.6,250.5,389.7,251.5,389L251.5,389z
							 M255.8,391.2c0.4,0.3,0.6,0.6,0.6,1c0,0.3-0.2,0.6-0.5,0.6c-0.2,0-0.4,0-0.5-0.4c-0.3-0.6-0.6-1-1-1.4
							c-0.1-0.1-0.2-0.1-0.2-0.2c0-0.1,0-0.1,0.1-0.1c0.1,0,0.2,0,0.3,0C255,390.7,255.5,390.9,255.8,391.2z M257.3,390.1
							c0.3,0.2,0.6,0.5,0.6,0.8c0,0.4-0.2,0.6-0.5,0.6c-0.2,0-0.4-0.1-0.6-0.4c-0.3-0.6-0.7-0.9-1.1-1.2c-0.1,0-0.2-0.1-0.2-0.2
							c0,0,0-0.1,0-0.1c0.1,0,0.1,0,0.3,0C256.4,389.7,256.8,389.8,257.3,390.1z"/>
						<path class="st0" d="M265.7,396.3c0.5,0.8,0.8,1.1,1.5,1.3c0.8,0.2,2,0.4,3.6,0.4c1.9,0,3.4-0.1,6.1-0.4c0.1,0,0.1,0.1,0,0.2
							c-0.4,0.2-0.6,0.4-0.6,0.9c0,0.5-0.1,0.5-0.4,0.6c-0.8,0.1-2.8,0.1-3.9,0.1c-2.7,0-4.3-0.2-5.4-0.9c-0.7-0.5-1.2-1.2-1.5-2.3
							c-0.5,0.9-1,1.5-1.8,2.4c0,0.6,0,0.7-0.3,0.7s-0.6-0.6-1.2-2c0.4-0.1,0.7-0.2,1.1-0.4c0.4-0.2,0.8-0.4,1.2-0.6v-4.2h-1.1
							c-0.3,0-0.5,0-0.9,0.1l-0.2-0.6c0.4,0.1,0.7,0.1,1.1,0.1h1c0.6-0.6,0.7-0.7,0.8-0.7c0.2,0,0.3,0.1,0.9,0.6
							c0.3,0.2,0.4,0.3,0.4,0.5c0,0.1,0,0.2-0.5,0.5V396.3z M264.8,388.5c-0.4,0-0.6-0.2-0.8-1c-0.2-0.6-0.5-1.4-1-1.9
							c-0.1-0.1,0-0.2,0.1-0.1c1.9,0.5,2.6,1.2,2.6,2C265.7,388.1,265.4,388.5,264.8,388.5z M271.8,388.9h2.8
							c0.6-0.7,0.8-0.9,0.9-0.9c0.1,0,0.3,0.1,0.9,0.6c0.3,0.2,0.4,0.4,0.4,0.5c0,0.1,0,0.2-0.2,0.2h-3.7c1.1,0.4,1.4,0.5,1.4,0.7
							c0,0.2-0.1,0.2-0.6,0.2c-0.6,0.5-0.8,0.7-1.2,1h1.7c0.6-0.7,0.8-0.8,0.9-0.8c0.1,0,0.3,0.1,0.9,0.6c0.2,0.2,0.4,0.3,0.4,0.4
							c0,0.1,0,0.2-0.2,0.2h-4.3v1.6h1.8c0.5-0.6,0.7-0.8,0.8-0.8c0.1,0,0.3,0.1,0.8,0.5c0.2,0.2,0.3,0.3,0.3,0.4
							c0,0.1,0,0.2-0.2,0.2h-3.6c0,0.5,0,1.1,0,1.6h2.6c0.6-0.7,0.8-0.9,0.9-0.9c0.1,0,0.3,0.1,0.9,0.6c0.3,0.2,0.4,0.4,0.4,0.5
							s0,0.2-0.2,0.2h-4.6c0,0.6,0,1.2,0,1.4c0,0.5-0.3,0.7-0.9,0.7c-0.4,0-0.7-0.1-0.7-0.4c0-0.2,0-0.7,0.1-1.6h-2.9
							c-0.3,0-0.6,0-0.9,0.1l-0.2-0.6c0.4,0.1,0.8,0.1,1.1,0.1h3v-1.6h-2.1c-0.3,0-0.5,0-0.9,0.1l-0.2-0.6c0.4,0.1,0.7,0.1,1,0.1
							h2.1v-1.6h-2.8c-0.3,0-0.5,0-0.9,0.1l-0.2-0.6c0.4,0.1,0.7,0.1,1,0.1h1.7c-0.1-0.1-0.2-0.3-0.3-0.6c-0.1-0.5-0.3-1-0.5-1.3
							c0-0.1,0-0.1,0.1-0.1c1.1,0.3,1.7,0.7,1.7,1.3c0,0.3-0.2,0.6-0.4,0.7h2.2c0.2-0.4,0.3-0.8,0.4-1.1c0.1-0.3,0.2-0.6,0.2-0.9
							h-5.2c-0.3,0-0.6,0-0.9,0.1l-0.2-0.6c0.4,0.1,0.8,0.1,1.1,0.1h3v-1.7h-2.3c-0.3,0-0.5,0-0.9,0.1l-0.2-0.6
							c0.4,0.1,0.7,0.1,1.1,0.1h2.3v-0.5c0-0.4,0-0.8-0.1-1.3c1.7,0.2,1.9,0.3,1.9,0.5c0,0.1-0.1,0.3-0.4,0.4v1h1.9
							c0.6-0.7,0.8-0.8,0.9-0.8c0.1,0,0.3,0.1,0.9,0.6c0.2,0.2,0.4,0.3,0.4,0.4c0,0.1,0,0.2-0.2,0.2h-3.8V388.9z"/>
						<path class="st0" d="M289.2,388.4c0-0.2,0-0.5,0-0.7c0-1.2,0-1.7-0.2-2.3c2,0.3,2,0.3,2,0.5c0,0.1-0.1,0.3-0.5,0.4
							c0,0.8,0,1.5,0,2.2h2.7c0.8-1,1-1.1,1.1-1.1c0.2,0,0.3,0.1,0.9,0.7c0.3,0.3,0.4,0.4,0.4,0.5c0,0.1-0.1,0.2-0.2,0.2h-4.8
							c0.2,2.4,0.4,3.9,0.9,5.1c0.2-0.3,0.3-0.6,0.5-1c0.4-0.8,0.6-1.7,0.8-2.6c1.4,0.4,1.8,0.6,1.8,0.9c0,0.2-0.1,0.2-0.5,0.4
							c-0.5,1.4-1.1,2.7-1.9,3.7c0.4,0.6,0.8,1.2,1.3,1.7c0.4,0.4,0.7,0.6,0.8,0.6c0.2,0,0.4-0.4,1.1-1.7c0-0.1,0.2,0,0.2,0
							c-0.1,1.5-0.1,1.8-0.1,2c0,0.3,0,0.3,0.2,0.6c0.1,0.2,0.2,0.3,0.2,0.5c0,0.4-0.3,0.7-0.7,0.7c-0.5,0-1.2-0.4-1.9-0.9
							c-0.8-0.7-1.5-1.4-2-2.3c-1.3,1.3-2.9,2.3-4.9,3c-0.1,0-0.2-0.1-0.1-0.2c1.8-1.1,3.3-2.5,4.4-4c-0.8-1.7-1.2-3.5-1.3-6.6h-4.9
							c0,1.1,0,1.8-0.1,2.7h2.4c0.5-0.7,0.7-0.8,0.8-0.8c0.2,0,0.3,0.1,0.9,0.6c0.3,0.3,0.4,0.4,0.4,0.5c0,0.1,0,0.2-0.5,0.5
							c-0.2,2.5-0.2,3.2-0.5,4c-0.1,0.4-0.4,0.7-0.7,0.9c-0.3,0.2-0.7,0.3-1.2,0.3c-0.2,0-0.2-0.1-0.3-0.4c-0.2-0.6-0.3-0.7-1.3-1.1
							c-0.1,0,0-0.2,0.1-0.2c0.8,0.1,1.1,0.2,1.4,0.2c0.6,0,0.7-0.1,0.9-1c0.1-0.6,0.2-1.5,0.3-3.2h-2.5c-0.1,1.8-0.2,3.2-0.6,4.3
							c-0.4,1.4-1.1,2.4-2.2,3.4c-0.1,0-0.2-0.1-0.2-0.1c0.6-1.2,1-2.3,1.2-3.7c0.2-1.3,0.3-2.9,0.3-5.1c0-1.2,0-2.1-0.1-3.3
							c0.9,0.4,1,0.5,1.8,0.9H289.2z M293,387.9c-0.2,0-0.3,0-0.4-0.3c-0.4-0.8-0.8-1.3-1.3-1.6c-0.1,0,0-0.2,0-0.2
							c1.6,0.1,2.4,0.6,2.4,1.3C293.7,387.6,293.4,387.9,293,387.9z"/>
					</g>
				</g>
			</g>
		</g>
		<g>
			<g>
				<g>
					<g>
						<path class="st0" d="M192.8,257.9c-0.5,0-1.1-0.1-1.6-0.1c-0.6,0-1.1,0-1.7,0.1l-0.5,1.5c-0.3,0.8-0.3,1.2-0.2,1.6
							c0.1,0.3,0.6,0.4,1.1,0.4c0.1,0,0.1,0,0.1,0.2s0,0.2-0.2,0.2c-0.5,0-1.2,0-1.8,0c-0.5,0-1,0-1.5,0c-0.1,0-0.2,0-0.2-0.2
							s0-0.2,0.2-0.2c0.4-0.1,0.6-0.2,0.8-0.4c0.3-0.3,0.5-0.8,0.9-1.6l1.7-4.5c0.7-1.8,0.8-2.2,1-2.9l1.1-0.5c0.1,0,0.2,0,0.2,0.1
							c0.3,0.9,0.5,1.6,1.2,3.4l1.6,4.6c0.3,0.8,0.5,1.3,0.7,1.6c0.2,0.3,0.4,0.3,0.9,0.4c0.2,0,0.2,0,0.2,0.2s0,0.2-0.2,0.2
							c-0.6,0-1.4,0-2,0c-0.5,0-1.4,0-2,0c-0.1,0-0.1,0-0.1-0.2s0-0.2,0.1-0.2c0.5,0,0.9-0.1,1-0.4c0.1-0.3,0-0.7-0.3-1.5
							L192.8,257.9z M191.7,254.9c-0.3-0.9-0.4-1.3-0.6-1.8c-0.2,0.5-0.3,0.9-0.6,1.8l-0.9,2.5c0.5,0,1,0,1.6,0c0.4,0,1,0,1.4,0
							L191.7,254.9z"/>
						<path class="st0" d="M203.5,253.4c0-0.5,0-0.9-0.1-1.2c-0.1-0.2-0.3-0.3-0.5-0.3l-0.3,0c-0.2,0-0.2,0-0.2-0.2
							c0-0.2,0-0.2,0.2-0.2c0.6-0.1,1.7-0.4,2.3-0.6c0.1,0,0.2,0.1,0.2,0.1c-0.1,1-0.1,2-0.1,3.4v5.3c0,0.8,0,1.2,0.1,1.5
							c0.1,0.2,0.3,0.2,0.4,0.2l0.3,0c0.1,0,0.1,0,0.1,0.2c0,0.1,0,0.2-0.1,0.2c-0.6,0-1.6,0.1-2.2,0.2c-0.1,0-0.1,0-0.1-0.2
							c0-0.3,0-0.6,0-1c-0.5,0.8-1.1,1.1-1.8,1.1c-1.9,0-3-1.4-3-3.4c0-2,1.2-3.5,3.2-3.5c0.7,0,1.2,0.3,1.7,0.7V253.4z
							 M203.5,257.7c0-0.5,0-0.7-0.3-1.2c-0.2-0.4-0.7-0.8-1.2-0.8c-1.1,0-1.7,1.2-1.7,3c0,1.8,0.7,2.7,1.7,2.7
							c0.5,0,0.9-0.3,1.2-0.7c0.3-0.4,0.3-0.6,0.3-1.1V257.7z"/>
						<path class="st0" d="M210.9,259.3c0.2,0.4,0.2,0.7,0.4,1.2c0.2-0.5,0.3-0.7,0.4-1.2l0.6-1.8c0.2-0.7,0.3-1.2,0.2-1.4
							c-0.1-0.2-0.4-0.2-0.7-0.3c-0.1,0-0.1,0-0.1-0.2c0-0.1,0-0.2,0.1-0.2c0.4,0,0.9,0,1.3,0c0.4,0,0.8,0,1.2,0
							c0.1,0,0.1,0,0.1,0.2c0,0.1,0,0.2-0.1,0.2c-0.2,0-0.5,0.1-0.7,0.3c-0.2,0.3-0.4,0.7-0.7,1.3l-0.9,2.6c-0.3,0.7-0.4,1-0.6,1.6
							c-0.7,0.3-0.8,0.3-0.9,0.3c-0.1,0-0.1,0-0.1-0.1c-0.2-0.6-0.4-1.1-0.6-1.8l-1-2.6c-0.3-0.8-0.5-1.2-0.7-1.4
							c-0.2-0.2-0.3-0.2-0.7-0.2c-0.1,0-0.1,0-0.1-0.2c0-0.1,0-0.2,0.1-0.2c0.5,0,1.1,0,1.6,0c0.5,0,1.2,0,1.7,0
							c0.1,0,0.1,0,0.1,0.2c0,0.1,0,0.2-0.1,0.2c-0.4,0-0.7,0-0.8,0.2c-0.1,0.2,0.1,0.6,0.4,1.4L210.9,259.3z"/>
						<path class="st0" d="M221.4,260.2c0,0.9,0.2,1.2,0.5,1.2c0.2,0,0.3,0,0.4-0.1c0.1,0,0.1,0,0.2,0.1c0.1,0.1,0.1,0.1,0,0.2
							c-0.2,0.2-0.6,0.3-1.2,0.3c-0.6,0-1-0.3-1.2-0.8c-0.5,0.5-1,0.8-2,0.8c-1.4,0-1.8-0.9-1.8-1.5c0-0.6,0.2-0.9,0.5-1.2
							c0.4-0.4,0.9-0.5,1.8-0.8c0.6-0.2,0.9-0.3,1.1-0.5c0.2-0.1,0.3-0.4,0.3-0.5V257c0-1.1-0.3-1.5-0.8-1.5c-0.2,0-0.5,0-0.7,0.3
							c-0.2,0.2-0.3,0.4-0.3,0.8c0,0.4-0.4,0.7-1.1,0.7c-0.4,0-0.5-0.2-0.5-0.4c0-0.7,1.1-1.7,2.8-1.7c2.1,0,2.1,1,2.1,2.1
							L221.4,260.2z M220,258.2c-0.1,0.2-0.3,0.3-1.1,0.6c-0.7,0.3-1,0.8-1,1.5c0,0.7,0.5,1.1,0.9,1.1c0.7,0,1.2-0.6,1.2-1.2
							L220,258.2z"/>
						<path class="st0" d="M224.4,256.2c-0.1,0-0.2,0-0.2-0.2c0-0.2,0-0.2,0.2-0.2c0.6-0.1,1.6-0.4,2.2-0.6c0.1,0,0.2,0.1,0.2,0.1
							c0,0.4,0,0.8,0,1.2c0.5-0.8,1.3-1.3,2.2-1.3c0.4,0,2,0.2,2,2c0,0.5,0,1.2,0,1.6v1c0,0.8,0,1.3,0.1,1.5
							c0.1,0.2,0.3,0.2,0.7,0.3c0.1,0,0.1,0,0.1,0.2s0,0.2-0.1,0.2c-0.5,0-1.1,0-1.5,0c-0.5,0-1.1,0-1.6,0c-0.1,0-0.1,0-0.1-0.2
							c0-0.1,0-0.2,0.1-0.2c0.4,0,0.6,0,0.7-0.3s0.1-0.7,0.1-1.5v-1.9c0-0.4,0-0.8-0.2-1.2c-0.2-0.4-0.5-0.7-1-0.7
							c-0.5,0-1,0.4-1.3,0.8c-0.3,0.4-0.3,0.7-0.3,1.1v1.9c0,0.8,0,1.3,0.1,1.5c0.1,0.2,0.3,0.2,0.8,0.3c0.1,0,0.1,0,0.1,0.2
							c0,0.1,0,0.2-0.1,0.2c-0.5,0-1,0-1.5,0c-0.5,0-1.1,0-1.6,0c-0.1,0-0.1,0-0.1-0.2c0-0.1,0-0.2,0.1-0.2c0.4,0,0.6,0,0.7-0.3
							s0.1-0.7,0.1-1.5v-2.1c0-0.5,0-0.9-0.1-1.2c-0.1-0.2-0.2-0.3-0.4-0.3L224.4,256.2z"/>
						<path class="st0" d="M239,255.5c0.3,0.1,0.6,0.3,0.6,0.7c0,0.5-0.2,0.9-0.6,0.9c-0.4,0-0.7-0.5-0.8-0.9
							c-0.2-0.3-0.4-0.6-0.7-0.6c-1.1,0-1.6,1.2-1.6,2.9c0,1.8,1,2.7,1.9,2.7c0.8,0,1.3-0.3,1.8-1c0.1-0.1,0.1-0.1,0.3,0
							c0.1,0.1,0.1,0.1,0.1,0.2c-0.6,1-1.4,1.5-2.5,1.5c-1.9,0-3.2-1.4-3.2-3.4c0-1.9,1.4-3.5,3.2-3.5
							C238.1,255.2,238.6,255.3,239,255.5z"/>
						<path class="st0" d="M243.5,258.6c0,1.8,1.1,2.8,2,2.8c0.9,0,1.4-0.3,1.9-1c0-0.1,0.1-0.1,0.1-0.1s0.1,0,0.1,0.1
							c0.1,0,0.1,0.1,0.1,0.1c0,0,0,0.1-0.1,0.2c-0.6,1-1.4,1.4-2.6,1.4c-1.9,0-3.2-1.4-3.2-3.4c0-1.9,1.3-3.5,3.2-3.5
							c1.8,0,2.7,1.6,2.7,2.6c0,0.1,0,0.1-0.1,0.2c-0.1,0.1-0.1,0.1-0.2,0.1c-1.4,0-2.8-0.1-4.1,0
							C243.5,258.2,243.5,258.3,243.5,258.6z M246.2,257.5c0.1,0,0.1-0.1,0.1-0.2c0-0.8-0.4-1.7-1.2-1.7c-0.8,0-1.3,0.8-1.6,2
							C244.6,257.6,245.2,257.6,246.2,257.5z"/>
						<path class="st0" d="M253.7,260.4c1.2,0,1.5-0.1,1.7-0.3c0.3-0.3,0.5-0.6,0.8-1.1c0.1-0.1,0.1-0.1,0.2-0.1s0.2,0.1,0.1,0.2
							c-0.2,0.7-0.5,2-0.8,2.7c-1,0-1.7,0-2.7,0c-1,0-1.8,0-2.8,0c-0.1,0-0.2,0-0.2-0.2c0-0.2,0-0.3,0.1-0.4
							c0.7-1.3,1.3-2.1,2.5-3.6c1.2-1.5,1.9-2.3,1.9-3.6c0-1.2-0.4-2-1.2-2c-0.7,0-1,0.4-1.2,0.8c-0.1,0.2-0.1,0.6-0.1,1
							c0,0.4-0.5,0.7-1,0.7c-0.4,0-0.7-0.1-0.7-0.5c0-0.9,1.1-2.4,3-2.4c1.9,0,2.9,1.1,2.9,2.5c0,1.8-1.3,2.5-2.7,3.8
							c-1.6,1.4-1.9,1.8-2.3,2.6H253.7z"/>
						<path class="st0" d="M265.1,256.8c0,3.2-1.2,5.3-3.1,5.3c-2,0-3.1-1.9-3.1-5.2c0-3.3,1.1-5.3,3.1-5.3
							C264,251.6,265.1,253.6,265.1,256.8z M260.5,256.8c0,2.9,0.3,4.8,1.5,4.8c1.2,0,1.5-1.9,1.5-4.8c0-2.9-0.3-4.8-1.5-4.8
							C260.8,252,260.5,253.9,260.5,256.8z"/>
						<path class="st0" d="M271.1,260.4c1.2,0,1.5-0.1,1.7-0.3c0.3-0.3,0.5-0.6,0.8-1.1c0.1-0.1,0.1-0.1,0.2-0.1s0.2,0.1,0.1,0.2
							c-0.2,0.7-0.5,2-0.8,2.7c-1,0-1.7,0-2.7,0c-1,0-1.8,0-2.8,0c-0.1,0-0.2,0-0.2-0.2c0-0.2,0-0.3,0.1-0.4
							c0.7-1.3,1.3-2.1,2.5-3.6c1.2-1.5,1.9-2.3,1.9-3.6c0-1.2-0.4-2-1.2-2c-0.7,0-1,0.4-1.2,0.8c-0.1,0.2-0.1,0.6-0.1,1
							c0,0.4-0.5,0.7-1.1,0.7c-0.4,0-0.7-0.1-0.7-0.5c0-0.9,1.1-2.4,3-2.4c1.9,0,2.9,1.1,2.9,2.5c0,1.8-1.3,2.5-2.7,3.8
							c-1.6,1.4-1.9,1.8-2.3,2.6H271.1z"/>
						<path class="st0" d="M278.5,253.1c-0.8,0-1,0.1-1.1,0.3c-0.2,0.2-0.4,0.6-0.5,0.9c0,0.1-0.1,0.1-0.3,0.1
							c-0.2,0-0.2-0.1-0.2-0.2c0.1-0.7,0.3-1.8,0.4-2.6c0.9,0,1.8,0,2.8,0c1,0,1.8,0,2.7,0c0.1,0,0.1,0,0.1,0.3c0,0.2,0,0.3-0.1,0.4
							c-1.4,2.4-2.1,4.4-2.5,6.1c-0.2,0.7-0.2,1.4-0.2,1.8c0,0.4,0,0.6,0,0.9c0,0.4-0.5,0.8-1.1,0.8c-0.5,0-0.9-0.2-0.9-0.6
							c0-1.1,0.4-2.2,1-3.6c0.6-1.4,1.5-2.8,2.7-4.7H278.5z"/>
						<path class="st0" d="M192.4,277.9c-0.1,3.2-1.4,4.7-5.1,5.3c-0.1,0-0.1-0.2-0.1-0.2c2.9-1.1,3.8-2.4,3.8-5.3
							c0-0.2,0-0.3,0-0.6c1.5,0.1,1.9,0.2,1.9,0.5C192.8,277.7,192.7,277.7,192.4,277.9z M197.8,276.2c0.5-0.6,0.6-0.7,0.8-0.7
							c0.1,0,0.2,0.1,0.9,0.7c0.3,0.3,0.4,0.4,0.4,0.5c0,0.3-0.1,0.3-0.6,0.3c-0.2,0-0.3,0.1-0.4,0.1c-0.5,0.4-0.9,0.6-1.3,0.9
							c-0.1,0-0.2,0-0.1-0.1c0.3-0.5,0.4-0.8,0.6-1.4h-8.8c0,1.1-0.5,1.9-1.3,1.9c-0.4,0-0.6-0.3-0.6-0.6c0-0.3,0.1-0.5,0.5-0.7
							c0.7-0.4,1-0.8,1.1-1.7c0-0.1,0.1-0.1,0.2,0c0.1,0.3,0.1,0.6,0.2,0.9H197.8z M194,274.4h2.5c0.7-0.8,0.8-0.9,0.9-0.9
							c0.1,0,0.3,0.1,0.9,0.6c0.3,0.2,0.4,0.3,0.4,0.4c0,0.1,0,0.1-0.2,0.1h-8.8c-0.3,0-0.6,0-1,0.1l-0.2-0.5
							c0.4,0.1,0.7,0.1,1.1,0.1h3v-1.7h-4.2c-0.3,0-0.6,0-1,0.1l-0.2-0.5c0.4,0.1,0.8,0.1,1.1,0.1h4.2v-0.6c0-0.5,0-0.9-0.1-1.4
							c1.8,0.2,1.9,0.3,1.9,0.5c0,0.1-0.2,0.2-0.5,0.3v1.1h3.5c0.7-0.8,0.8-0.9,0.9-0.9c0.1,0,0.3,0.1,1,0.6
							c0.3,0.3,0.4,0.4,0.4,0.5s0,0.1-0.2,0.1H194V274.4z M195.4,281.2c0,0.4,0.1,0.5,1.3,0.5c0.6,0,0.9,0,1.4-0.1
							c0.4-0.1,0.7-0.7,1.1-2c0-0.1,0.2-0.1,0.2,0c0,0.5,0,1.1,0,1.5c0,0.2,0,0.2,0.1,0.3c0.4,0.2,0.5,0.4,0.5,0.6
							c0,0.4-0.2,0.6-0.7,0.8c-0.5,0.2-1.4,0.2-2.7,0.2c-2,0-2.5-0.2-2.5-1.2v-2.3c0-0.8,0-1.5,0-2.3c1.8,0.3,1.8,0.3,1.8,0.5
							c0,0.1-0.1,0.2-0.4,0.4V281.2z"/>
						<path class="st0" d="M209.2,282.1h3.4c0.8-1,1-1.1,1.1-1.1c0.1,0,0.3,0.1,1.1,0.8c0.4,0.3,0.5,0.4,0.5,0.5
							c0,0.1,0,0.1-0.2,0.1h-10.8c-0.4,0-0.9,0-1.3,0.1l-0.2-0.5c0.6,0.1,1,0.1,1.5,0.1h3.5v-9.3c0-0.8,0-1.5-0.1-2
							c1.8,0.2,2,0.3,2,0.5s-0.2,0.3-0.5,0.4v4.2h2.3c0.8-1,0.9-1.1,1-1.1c0.1,0,0.3,0.1,1.1,0.8c0.4,0.3,0.5,0.4,0.5,0.5
							c0,0.1,0,0.1-0.2,0.1h-4.7V282.1z"/>
						<path class="st0" d="M221.2,281.9v0.6c0,0.4-0.3,0.6-0.9,0.6c-0.4,0-0.6-0.1-0.6-0.5c0-1.4,0.1-2.8,0.1-8.5
							c0-1.2,0-2.3-0.1-3.5c0.8,0.4,0.9,0.4,1.7,0.9h5.7c0.5-0.6,0.6-0.7,0.8-0.7c0.1,0,0.3,0.1,0.8,0.5c0.3,0.2,0.3,0.3,0.3,0.4
							c0,0.2-0.1,0.3-0.4,0.5v1.7c0,4.4,0.1,7.5,0.1,8.5c0,0.4-0.3,0.6-0.9,0.6c-0.4,0-0.6-0.1-0.6-0.4v-0.7H221.2z M227.3,271.8h-6
							v2.9h6V271.8z M227.3,275.1h-6v2.9h6V275.1z M227.3,278.3h-6v3.3h6V278.3z"/>
						<path class="st0" d="M235.9,275.3c0.9,0.3,1.5,0.9,1.5,1.5c0,0.4-0.2,0.7-0.6,0.7c-0.2,0-0.3-0.1-0.4-0.5
							c-0.1-0.7-0.2-1.1-0.5-1.4c0,2.5,0.1,6,0.1,7.2c0,0.3-0.3,0.5-0.7,0.5c-0.4,0-0.5-0.1-0.5-0.4c0-0.7,0.1-3.8,0.1-6.3
							c-0.6,1.5-1.1,2.3-1.9,3.2c0,0.1-0.2,0-0.1-0.1c0.8-1.6,1.5-3.9,1.8-5.8H234c-0.3,0-0.5,0-0.9,0.1l-0.2-0.5
							c0.4,0.1,0.7,0.1,1,0.1h0.7v-1.4c0-0.7,0-1.2-0.1-1.8c1.5,0.2,1.8,0.2,1.8,0.5c0,0.2-0.1,0.3-0.5,0.4v2.4h0
							c0.3-0.6,0.5-0.7,0.6-0.7c0.1,0,0.2,0.1,0.6,0.5c0.1,0.1,0.2,0.3,0.2,0.4c0,0.1,0,0.1-0.2,0.1h-1.3V275.3z M239.3,280.6
							c-0.8,0.8-1.6,1.4-2.9,1.9c-0.1,0-0.2-0.1-0.1-0.1c0.6-0.5,1.2-1.2,1.6-2c0.2-0.3,0.3-0.6,0.4-1c1.2,0.6,1.5,0.8,1.5,0.9
							C239.8,280.5,239.7,280.6,239.3,280.6z M241.9,280c0,0.3,0,1.5,0,2.1c0,0.3-0.1,0.6-0.3,0.8c-0.2,0.3-0.7,0.4-1.2,0.4
							c-0.1,0-0.2-0.1-0.2-0.3c-0.1-0.5-0.4-0.7-1.4-1c-0.1,0-0.1-0.2,0-0.2c0.6,0,1.2,0,1.6,0c0.2,0,0.2,0,0.2-0.2v-2.6h-2.8
							c-0.3,0-0.5,0-0.9,0.1l-0.2-0.5c0.4,0.1,0.7,0.1,1,0.1h5.8c0.6-0.8,0.8-0.9,0.9-0.9c0.1,0,0.3,0.1,0.9,0.6
							c0.3,0.2,0.4,0.3,0.4,0.4c0,0.1,0,0.1-0.2,0.1h-3.8V280z M238.7,275.8c0,0.3-0.2,0.5-0.7,0.5c-0.3,0-0.5-0.1-0.5-0.4
							c0-0.3,0-0.6,0-1.7c0-0.6,0-1.2-0.1-1.9c0.6,0.3,0.7,0.3,1.3,0.6h0.9v-1.5h-1.4c-0.3,0-0.7,0-1.1,0.1l-0.2-0.5
							c0.5,0.1,0.9,0.1,1.3,0.1h5.5c0.6-0.8,0.8-0.9,0.9-0.9c0.1,0,0.3,0.1,0.9,0.6c0.3,0.3,0.4,0.4,0.4,0.4c0,0.1,0,0.1-0.2,0.1
							h-2.9v1.5h1c0.4-0.4,0.5-0.5,0.6-0.5c0.1,0,0.3,0.1,0.7,0.5c0.2,0.2,0.3,0.3,0.3,0.4s-0.1,0.3-0.4,0.4v0.3c0,0.9,0,1.5,0,1.7
							c0,0.3-0.2,0.4-0.7,0.4c-0.3,0-0.5-0.1-0.5-0.4v-0.1h-5.3V275.8z M242.6,277c0.6-0.7,0.7-0.8,0.8-0.8c0.1,0,0.3,0.1,0.8,0.6
							c0.2,0.2,0.4,0.3,0.4,0.4s0,0.1-0.2,0.1h-5.5c-0.2,0-0.5,0-0.8,0.1l-0.2-0.5c0.4,0.1,0.6,0.1,0.9,0.1H242.6z M239.7,273.4h-1
							v2.1h1V273.4z M241.9,271.5h-1.1v1.5h1.1V271.5z M241.9,275.4v-2.1h-1.1v2.1H241.9z M244.8,282.4c-0.3,0-0.5-0.2-0.7-0.6
							c-0.3-0.9-0.8-1.5-1.5-2.2c-0.1,0,0-0.1,0.1-0.1c1.8,0.5,2.8,1.2,2.8,2.1C245.5,282.1,245.2,282.4,244.8,282.4z M244,273.4
							h-1.1v2.1h1.1V273.4z"/>
					</g>
				</g>
			</g>
		</g>
		<g>
			<g>
				<g>
					<g>
						<path class="st0" d="M76.3,390.4c-0.4,0.6-0.9,1.2-1.4,1.7c-0.1,0.1-0.2-0.1-0.2-0.2c1-1.8,1.8-3.7,2.2-5.5
							c0.2-0.8,0.4-1.6,0.4-2.4c1.9,0.5,2.1,0.6,2.1,0.8c0,0.2,0,0.2-0.6,0.4c-0.4,1.3-1,2.6-1.7,3.9c0.9,0.1,1,0.2,1,0.4
							c0,0.1-0.1,0.2-0.4,0.4v8.3c0,0.5-0.3,0.7-0.9,0.7c-0.5,0-0.7-0.2-0.7-0.6c0-0.4,0.1-1.7,0.1-4.2V390.4z M80.2,396.1
							c0,1-0.4,1.9-1.2,1.9c-0.4,0-0.8-0.3-0.8-0.7c0-0.4,0.2-0.6,0.6-0.8c0.7-0.3,1-0.7,1.1-1.3c0-0.1,0.2-0.1,0.2,0
							C80.2,395.5,80.2,395.8,80.2,396.1z M81.1,386.3c1.2,0.4,1.7,0.8,1.7,1.5c0,0.3-0.2,0.6-0.6,0.7h2.6c0.1-0.4,0.3-0.8,0.3-1.1
							c0.1-0.4,0.2-0.7,0.2-1c1.4,0.4,1.8,0.6,1.8,0.7c0,0.1-0.1,0.2-0.5,0.3c-0.6,0.7-0.9,0.8-1.3,1.1h2.2c0.7-0.8,0.9-1,1-1
							c0.1,0,0.3,0.1,1,0.7c0.3,0.2,0.4,0.4,0.4,0.5c0,0.1,0,0.2-0.2,0.2h-10c-0.4,0-0.7,0-1.2,0.1l-0.2-0.6
							c0.5,0.1,0.9,0.1,1.3,0.1h2.2c-0.2,0-0.4-0.2-0.4-0.5c-0.2-0.9-0.3-1.2-0.7-1.7h-0.1c-0.4,0-0.7,0-1.2,0.1l-0.2-0.6
							c0.5,0.1,0.9,0.1,1.3,0.1h2.6v-1c0-0.3,0-0.6-0.1-1c1.9,0.2,2,0.3,2,0.5c0,0.1-0.2,0.3-0.5,0.4v1.1h2.3c0.7-0.8,0.9-0.9,1-0.9
							c0.1,0,0.3,0.1,1,0.7c0.3,0.3,0.4,0.4,0.4,0.5s0,0.2-0.2,0.2H81.1z M81.1,393.8c0,0.3-0.3,0.4-0.8,0.4c-0.4,0-0.7-0.2-0.7-0.6
							c0-0.3,0-0.5,0-1.6c0-0.9,0-1.9-0.1-2.8c0.8,0.3,0.9,0.4,1.7,0.8h5c0.5-0.6,0.7-0.7,0.8-0.7c0.2,0,0.3,0.1,0.8,0.5
							c0.3,0.2,0.4,0.3,0.4,0.4c0,0.1-0.1,0.2-0.4,0.5v0.5c0,1.3,0,2.2,0,2.4c0,0.4-0.3,0.6-0.9,0.6c-0.4,0-0.6-0.1-0.6-0.5v0H81.1z
							 M86.4,390.4h-5.3v1.3h5.3V390.4z M86.4,392.1h-5.3v1.3h5.3V392.1z M86.5,396.6c0,0.2,0,0.3,0.2,0.3c0.4,0.1,0.5,0.2,0.5,0.5
							c0,0.3-0.2,0.6-0.8,0.7c-0.5,0.2-1.4,0.2-2.6,0.2c-2,0-2.7-0.3-2.7-1.1c0-0.3,0-0.7,0-2.1c0-0.2,0-0.5-0.1-0.7
							c1.6,0.2,1.8,0.2,1.8,0.4c0,0.2-0.1,0.3-0.4,0.4v1.4c0,0.4,0.2,0.5,1.5,0.5c0.7,0,1.1,0,1.4-0.1c0.4-0.2,0.6-0.6,0.9-1.6
							c0-0.1,0.2-0.1,0.2,0V396.6z M84.5,396.5c-0.4,0-0.4-0.1-0.7-0.9c-0.1-0.4-0.3-0.7-0.7-1.2c0-0.1,0-0.1,0.1-0.1
							c1.4,0.2,2,0.7,2,1.4C85.2,396.1,84.9,396.5,84.5,396.5z M88.9,397.8c-0.4,0-0.6-0.2-0.7-1c-0.1-0.7-0.5-1.3-0.9-1.7
							c-0.1,0,0-0.2,0.1-0.1c1.6,0.5,2.3,1.1,2.3,1.9C89.6,397.4,89.3,397.8,88.9,397.8z"/>
						<path class="st0" d="M97,397.9c0,0.4-0.4,0.6-1,0.6c-0.5,0-0.7-0.1-0.7-0.5c0-1.4,0.1-2.9,0.1-8.7c0-1.7,0-3.3-0.1-5
							c0.8,0.4,1,0.5,1.8,0.9h9c0.6-0.7,0.7-0.8,0.8-0.8c0.2,0,0.3,0.1,0.9,0.6c0.3,0.2,0.4,0.4,0.4,0.5c0,0.1-0.1,0.2-0.4,0.5v1.8
							c0,7.8,0,8.1,0,9c0,0.8-0.2,1.2-0.8,1.4c-0.2,0.1-0.8,0.2-1.1,0.2c-0.3,0-0.3-0.1-0.4-0.4c-0.1-0.5-0.4-0.9-1.9-1.3
							c-0.1,0-0.1-0.2,0-0.2c0.8,0,1.6,0,2.1,0c0.2,0,0.3-0.1,0.3-0.3v-5.2H97V397.9z M100.7,390.7v-5.2H97v5.2H100.7z M106.3,385.6
							h-3.9v5.2h3.9V385.6z"/>
					</g>
				</g>
			</g>
		</g>
		<g>
			<g>
				<g>
					<g>
						<path class="st0" d="M135,398.5c-0.1,0-0.2-0.1-0.1-0.2c4.4-3.1,6.1-6.5,6.1-12.4c0-0.5,0-0.8-0.1-1.3
							c2.1,0.2,2.3,0.2,2.3,0.5c0,0.2-0.1,0.2-0.6,0.4c0,0.5,0,1-0.1,1.5c0.2,2.1,0.8,3.9,1.8,5.5c1.2,1.9,3,3.3,5.2,4.2
							c0.1,0,0.1,0.2,0,0.2c-0.6,0.2-0.8,0.5-1.1,1.2c-0.1,0.3-0.2,0.3-0.3,0.3s-0.4-0.2-0.8-0.5c-1.7-1.4-3.2-3.1-4-5.2
							c-0.5-1.2-0.8-2.6-1-4.3C141.9,393.6,139.7,396.3,135,398.5z"/>
					</g>
				</g>
			</g>
		</g>
		<g>
			<g>
				<path class="st1" d="M41.8,344.6c3.7,0,6.9,0.5,9.6,1.4c2.6,1,4.7,2.3,6.1,4.1c1.4,1.8,2.1,3.9,2.1,6.5c0,2-0.4,3.6-1.2,5
					c-0.8,1.4-1.8,2.5-3,3.4c-1.3,0.8-2.6,1.4-4.1,1.6c-1.5,0.3-2.9,0.2-4.2-0.2c1.4,0,2.9,0.2,4.6,0.7c1.7,0.4,3.2,1.2,4.8,2.2
					c1.5,1.1,2.8,2.5,3.7,4.3c1,1.8,1.5,4,1.5,6.8c0,3.3-0.8,6.1-2.3,8.6c-1.5,2.5-3.6,4.6-6.1,6.2c-2.6,1.6-5.4,2.8-8.6,3.4
					c-3.2,0.7-6.5,0.9-9.9,0.6c-3.4-0.3-6.6-1.2-9.7-2.6l0.1-0.7c2.9,0,5.6-0.3,8.2-1c2.6-0.7,4.8-1.9,6.8-3.3
					c2-1.5,3.5-3.2,4.7-5.3c1.1-2.1,1.7-4.4,1.7-7c0-2.8-0.7-5.1-2-6.8c-1.3-1.7-3-3-5-3.7c-2-0.8-4-1.2-6-1.2l0.1-0.7
					c2.1,0,4.1-0.5,6-1.5c1.8-1,3.2-2.5,4.3-4.3c1-1.8,1.4-3.9,1.2-6.1c-0.1-1.7-0.6-3.1-1.5-4.2s-1.9-1.8-3.1-2.2
					c-1.2-0.4-2.6-0.6-4-0.4c-2.8,0.2-4.8,1.5-6,3.7c-1.2,2.2-1.7,5.5-1.6,9.9h-0.7l-4-12.1c1.8-1.5,4.2-2.7,7.2-3.6
					C34.7,345.1,38.1,344.6,41.8,344.6z"/>
			</g>
		</g>
		<g>
			<g>
				<path class="st1" d="M190.3,321.7l37.1-0.1l-9,20.8c-0.6,1.4-1.3,3-2,4.9c-0.7,1.9-1.4,4-2.2,6.2c-0.7,2.2-1.5,4.4-2.2,6.5
					c-0.7,2.1-1.3,4.1-1.9,6c-0.6,1.8-1,3.4-1.4,4.7H197c0.8-1.4,1.8-3.1,3-5.1c1.2-2,2.4-4.1,3.6-6.3c1.3-2.2,2.5-4.5,3.7-6.7
					c1.2-2.2,2.3-4.3,3.3-6.2c1-1.9,1.8-3.5,2.4-4.7l3.6-7.8h-22.4c-1.4,0-2.5,0.3-3.3,1c-0.8,0.7-1.4,1.8-2,3.2h-0.7L190.3,321.7z"
					/>
			</g>
		</g>
		<g>
			<g>
				<g>
					<g>
						<path class="st0" d="M23.8,256.5c-0.5,0.4-1.1,0.8-1.6,1.1c-0.1,0-0.1-0.1-0.1-0.2c0.9-1,1.7-2,2.3-3.1
							c0.3-0.6,0.6-1.1,0.7-1.6c1.4,0.7,1.5,0.7,1.5,0.9c0,0.2-0.1,0.2-0.5,0.3c-0.3,0.5-0.7,1.1-1.2,1.6c0.5,0.1,0.6,0.1,0.6,0.3
							c0,0.1-0.1,0.2-0.4,0.3v5.8c0,0.4-0.2,0.6-0.7,0.6c-0.3,0-0.6-0.1-0.6-0.5c0-0.4,0.1-1.5,0.1-3.7V256.5z M25.9,250.7
							c-1.2,1.5-2.1,2.2-3.5,2.9c-0.1,0-0.2-0.1-0.1-0.1c0.7-0.7,1.4-1.6,1.9-2.5c0.3-0.5,0.5-1,0.6-1.5c1.1,0.4,1.7,0.7,1.7,0.9
							C26.5,250.7,26.3,250.7,25.9,250.7z M31.1,260.8c0.5,0.1,1.1,0.2,1.7,0.2c0.7,0,1.3,0,2.5-0.2c0.1,0,0.1,0.1,0,0.2
							c-0.4,0.2-0.5,0.4-0.6,0.9c-0.1,0.3-0.1,0.4-0.2,0.4c-0.2,0-0.3,0-0.4,0c-2,0-3.1-0.2-4.2-0.8c-0.9-0.5-1.4-1.2-2-2.6
							c-0.5,1.4-1.3,2.4-2.5,3.4c-0.1,0-0.2-0.1-0.1-0.2c1.2-1.6,1.9-3.7,1.9-6.2c0-0.2,0-0.4,0-0.7c1.4,0.2,1.7,0.3,1.7,0.5
							c0,0.1-0.1,0.2-0.4,0.3c-0.1,0.9-0.2,1.7-0.4,2.4c0.6,1.1,1.2,1.6,1.8,1.9v-6.8h-2.2c-0.3,0-0.5,0-0.8,0.1l-0.2-0.5
							c0.4,0.1,0.7,0.1,0.9,0.1h3.1c0.4-0.8,0.7-1.6,1-2.5c0.1-0.3,0.2-0.7,0.2-1c1.4,0.5,1.8,0.7,1.8,0.9s-0.1,0.2-0.5,0.2
							c-0.6,0.9-1.3,1.8-1.9,2.3h1.7c0.6-0.8,0.8-0.9,0.9-0.9c0.1,0,0.3,0.1,0.9,0.6c0.3,0.2,0.4,0.4,0.4,0.4c0,0.1,0,0.1-0.2,0.1
							h-3.8v3.1h1.3c0.6-0.7,0.8-0.9,0.9-0.9c0.1,0,0.3,0.1,0.9,0.6c0.3,0.2,0.4,0.3,0.4,0.4s0,0.1-0.2,0.1h-3.2V260.8z M28.9,252.7
							c-0.4,0-0.4-0.1-0.6-1.1c-0.2-0.6-0.4-1.2-0.7-1.6c0-0.1,0-0.2,0.1-0.1c1.4,0.5,2.1,1.2,2.1,1.9
							C29.8,252.3,29.4,252.7,28.9,252.7z"/>
						<path class="st0" d="M44.8,258.3c0.6,0.6,1.4,1,2.3,1.4c1.1,0.5,2.3,0.7,3.7,0.8c0.1,0,0.1,0.1,0,0.2c-0.5,0.2-0.6,0.3-1,1.2
							c-0.1,0.1-0.1,0.2-0.2,0.2c-0.1,0-0.4-0.1-0.7-0.2c-0.9-0.3-1.7-0.8-2.5-1.4c-0.7-0.5-1.2-1.1-1.8-1.8c0,1.8,0.1,3.1,0.1,3.5
							c0,0.4-0.2,0.5-0.8,0.5c-0.4,0-0.5-0.2-0.5-0.5c0-0.3,0.1-1.7,0.1-2.9c-1.2,1.3-3.1,2.3-5.5,2.8c-0.1,0-0.1-0.1-0.1-0.1
							c2.1-1,3.6-2.1,4.7-3.6h-3.3c-0.3,0-0.6,0-1,0.1l-0.2-0.5c0.4,0.1,0.8,0.1,1.1,0.1h4.3v-1.3h-2.7c-0.3,0-0.6,0-1,0.1l-0.2-0.5
							c0.4,0.1,0.8,0.1,1.1,0.1h2.8v-1.3h-3.5c-0.3,0-0.6,0-1,0.1l-0.2-0.5c0.4,0.1,0.8,0.1,1.1,0.1h2.3c-0.2-0.1-0.3-0.2-0.4-0.6
							c-0.1-0.4-0.4-0.9-0.7-1.2c-0.1,0,0-0.1,0.1-0.1c1.3,0.2,1.9,0.6,1.9,1.3c0,0.3-0.2,0.6-0.5,0.7h2.3c0.3-0.5,0.4-0.9,0.6-1.2
							c0.1-0.3,0.2-0.6,0.3-0.9c1.1,0.4,1.6,0.7,1.6,0.8s-0.1,0.2-0.6,0.2c-0.5,0.5-1,0.8-1.4,1h2.3c0.7-0.7,0.8-0.8,0.9-0.8
							c0.1,0,0.3,0.1,0.9,0.6c0.3,0.2,0.4,0.3,0.4,0.4c0,0.1,0,0.1-0.2,0.1h-5v1.3h2.2c0.6-0.7,0.8-0.8,0.9-0.8
							c0.1,0,0.3,0.1,0.8,0.5c0.2,0.2,0.4,0.3,0.4,0.4c0,0.1,0,0.1-0.2,0.1h-4v1.3h3.5c0.7-0.8,0.9-0.9,1-0.9c0.1,0,0.3,0.1,0.9,0.6
							c0.3,0.2,0.4,0.4,0.4,0.5c0,0.1,0,0.1-0.2,0.1H44.8z M42.1,250.6c0-0.6,0-0.7-0.1-1c1.6,0.2,1.7,0.3,1.7,0.4
							c0,0.1-0.1,0.2-0.4,0.4v2h1.2v-1.8c0-0.6,0-0.7-0.1-1c1.6,0.2,1.8,0.3,1.8,0.4c0,0.1-0.1,0.2-0.5,0.4v2h0.6
							c0.3-0.6,0.6-1.1,0.8-1.6c0.1-0.3,0.2-0.6,0.3-0.9c1.2,0.5,1.7,0.7,1.7,0.9c0,0.2-0.1,0.3-0.6,0.3c-0.6,0.6-1.2,1.1-1.7,1.3
							h1.6c0.6-0.7,0.8-0.8,0.9-0.8c0.1,0,0.3,0.1,0.9,0.6c0.3,0.2,0.4,0.3,0.4,0.4c0,0.1,0,0.1-0.2,0.1H39.1c-0.3,0-0.6,0-1,0.1
							l-0.2-0.5c0.5,0.1,0.8,0.1,1.1,0.1h3.1V250.6z M40.7,252.1c-0.3,0-0.4-0.1-0.6-0.5c-0.2-0.6-0.4-1-0.8-1.4
							c-0.1,0,0-0.1,0.1-0.1c1.3,0.2,2,0.7,2,1.3C41.4,251.8,41,252.1,40.7,252.1z"/>
						<path class="st0" d="M58.1,261.1c-1.4,0.7-2.6,1-4.6,1.2c-0.1,0-0.1-0.1,0-0.2c1-0.4,2-0.9,2.8-1.4c0.4-0.3,0.7-0.6,1-0.9
							c1.3,0.6,1.6,0.8,1.6,1C58.9,261.1,58.7,261.2,58.1,261.1z M56.4,259.6c0,0.4-0.2,0.6-0.8,0.6c-0.4,0-0.6-0.1-0.6-0.5
							c0-0.6,0.1-1.3,0.1-3.6c0-0.9,0-1.9-0.1-2.8c0.7,0.3,0.8,0.4,1.5,0.7h6.3c0.5-0.5,0.6-0.6,0.7-0.6c0.1,0,0.3,0.1,0.8,0.5
							c0.3,0.2,0.3,0.3,0.3,0.4c0,0.1-0.1,0.2-0.4,0.4v0.9c0,2,0.1,3.4,0.1,3.9c0,0.4-0.2,0.6-0.8,0.6c-0.4,0-0.6-0.1-0.6-0.5v0
							L56.4,259.6L56.4,259.6z M57,252.9c0,0.4-0.3,0.5-0.8,0.5c-0.3,0-0.6-0.1-0.6-0.4c0-0.3,0-0.9,0-1.7c0-0.6,0-0.9,0-1.5
							c0.7,0.3,0.9,0.4,1.5,0.7h5c0.5-0.5,0.6-0.6,0.7-0.6c0.1,0,0.3,0.1,0.8,0.5c0.2,0.2,0.3,0.3,0.3,0.4c0,0.1-0.1,0.2-0.4,0.4
							v0.3c0,0.7,0,1.2,0,1.4c0,0.4-0.3,0.5-0.8,0.5c-0.4,0-0.6-0.1-0.6-0.5H57z M62.9,254.4h-6.6v1.4h6.6V254.4z M56.4,257.5h6.6
							v-1.4h-6.6V257.5z M56.4,259.3h6.6v-1.4h-6.6V259.3z M62.3,250.9H57v1.7h5.3V250.9z M64.4,262.5c-0.3,0-0.4-0.1-0.8-0.4
							c-0.7-0.7-1.6-1.3-3-1.7c-0.1,0,0-0.2,0.1-0.2c3.1,0.1,4.3,0.6,4.3,1.6C65.1,262.2,64.8,262.5,64.4,262.5z"/>
						<path class="st0" d="M78.7,255.8c0.8-1,1-1.1,1.1-1.1c0.1,0,0.3,0.1,1.1,0.8c0.4,0.3,0.5,0.4,0.5,0.5c0,0.1,0,0.1-0.2,0.1h-11
							c-0.4,0-0.8,0-1.4,0.1l-0.2-0.5c0.6,0.1,1,0.1,1.5,0.1H78.7z"/>
						<path class="st0" d="M84.2,262.3c-0.1,0-0.2-0.1-0.1-0.2c3.8-2.7,5.3-5.7,5.3-10.8c0-0.4,0-0.7-0.1-1.2c1.8,0.2,2,0.2,2,0.5
							c0,0.1-0.1,0.2-0.5,0.4c0,0.4,0,0.9-0.1,1.3c0.2,1.8,0.7,3.4,1.6,4.8c1.1,1.7,2.6,2.9,4.6,3.7c0.1,0,0.1,0.2,0,0.2
							c-0.5,0.1-0.7,0.4-0.9,1c-0.1,0.2-0.1,0.3-0.3,0.3s-0.4-0.2-0.7-0.4c-1.5-1.2-2.8-2.7-3.5-4.5c-0.4-1.1-0.7-2.3-0.9-3.8
							C90.2,258,88.3,260.4,84.2,262.3z"/>
						<path class="st0" d="M109.2,255.5c0.5-0.5,0.6-0.6,0.7-0.6c0.1,0,0.3,0.1,0.8,0.5c0.2,0.2,0.3,0.3,0.3,0.4
							c0,0.1,0,0.1-0.4,0.4v0.9c0,2.5,0.1,4.2,0.1,4.7c0,0.4-0.3,0.6-0.8,0.6c-0.4,0-0.5-0.1-0.5-0.5v-0.4h-7.9
							c-0.3,0-0.6,0-0.9,0.1l-0.2-0.5c0.4,0.1,0.7,0.1,1.1,0.1h7.9v-2.7H102c-0.3,0-0.6,0-0.9,0.1l-0.2-0.5c0.4,0.1,0.7,0.1,1.1,0.1
							h7.4v-2.4h-7.6c-0.3,0-0.6,0-1,0.1l-0.2-0.6c0.4,0.1,0.8,0.1,1.1,0.1h3.2v-4.4c0-0.4,0-0.9-0.1-1.3c1.7,0.2,1.9,0.3,1.9,0.4
							c0,0.1-0.2,0.3-0.5,0.4v4.9H109.2z M102.8,254.5c-0.4,0-0.6-0.2-0.7-0.9c-0.2-1.1-0.6-1.9-1.2-2.6c0-0.1,0-0.2,0.1-0.1
							c1.7,0.7,2.5,1.7,2.5,2.7C103.5,254.1,103.2,254.5,102.8,254.5z M110.5,251.9c-0.9,1.4-1.9,2.4-2.8,3c-0.1,0-0.2-0.1-0.2-0.1
							c0.6-0.9,1.1-2,1.4-2.9c0.2-0.4,0.3-0.9,0.4-1.2c1.3,0.5,1.7,0.7,1.7,0.9S111,251.8,110.5,251.9z"/>
						<path class="st0" d="M121.1,252.3c0.2,0,0.4,0,0.6,0.1c0.2,0.1,0.3,0.2,0.3,0.4s-0.1,0.4-0.4,0.5c-0.6,0.2-1.6,0.5-2.3,0.7
							c-0.2,0.6-0.7,1.8-1,2.7c-0.3,0.9-0.8,2.2-1.6,4.1c-0.2,0.5-0.5,0.7-0.8,0.7c-0.1,0-0.3-0.1-0.4-0.2s-0.2-0.2-0.2-0.5
							c0-0.3,0.1-0.5,0.4-1c1-1.9,1.8-3.7,2.5-5.6c-0.8,0.1-1.2,0.2-1.5,0.2c-0.6,0-0.9-0.1-1.3-0.5c-0.3-0.3-0.4-0.6-0.4-0.7
							c0-0.1,0-0.1,0.1-0.1c0.1,0,0.1,0.1,0.2,0.1c0.4,0.2,0.6,0.4,1.1,0.4c0.7,0,1.4-0.2,2.1-0.3c0.3-1,0.4-1.6,0.4-1.8
							c0-0.2-0.1-0.4-0.3-0.5c-0.2-0.1-0.3-0.1-0.5-0.2c-0.1,0-0.2-0.1-0.2-0.1c0-0.1,0-0.2,0.2-0.2c0.2-0.1,0.4-0.2,0.7-0.2
							c0.4,0,1,0.2,1.4,0.6c0.1,0.1,0.2,0.2,0.2,0.4c0,0.1-0.1,0.3-0.2,0.4c-0.3,0.3-0.4,0.5-0.7,1.4c0.4-0.1,0.7-0.3,0.9-0.4
							C120.7,252.4,121,252.3,121.1,252.3z M120.9,258.2c-0.1,0.3-0.1,0.6-0.1,0.9c0,0.8,0.7,1.3,2.1,1.3c0.7,0,1.2,0,1.4-0.1
							c0.2-0.1,0.4-0.1,0.7-0.1c0.2,0,0.5,0.1,0.7,0.2c0.2,0.1,0.4,0.3,0.4,0.6c0,0.4-0.3,0.5-0.8,0.6c-0.4,0.1-1.1,0.1-1.5,0.1
							c-0.5,0-1.2-0.1-1.9-0.2c-1.1-0.3-1.7-1.1-1.7-2c0-0.6,0.2-1,0.4-1.4c0.1-0.1,0.2-0.2,0.3-0.2c0.1,0,0.1,0,0.1,0.1
							S120.9,258.1,120.9,258.2z M122.4,255.2c-0.4,0.1-1,0.2-1.6,0.5c0,0-0.1,0-0.1,0c-0.1,0-0.1,0-0.1-0.1c0-0.1,0-0.1,0.1-0.2
							c0.4-0.3,0.8-0.6,1.3-0.9c0.5-0.2,1.2-0.3,1.8-0.3c0.6,0,1.2,0.2,1.6,0.3c0.3,0.2,0.5,0.4,0.5,0.7c0,0.3-0.2,0.4-0.5,0.4
							c-0.2,0-0.4,0-0.5-0.1c-0.2,0-0.4,0-0.5,0c-0.4,0-1,0.2-2,0.8c-0.1,0.1-0.1,0.1-0.2,0.1c-0.1,0-0.1-0.1-0.1-0.1
							c0-0.1,0.7-0.6,1.3-1.2C123,255.2,122.7,255.2,122.4,255.2z"/>
						<path class="st0" d="M132.4,253.9c0.3-0.7,0.5-1.2,0.8-1.6c0.3-0.4,0.7-0.6,1.2-0.6c0.5,0,1.1,0.3,1.6,1
							c0.4,0.7,0.7,1.8,0.7,2.9c0,1.6-0.3,2.7-1,3.7c-0.6,0.8-1,1.3-1.8,1.7c-0.8,0.5-1.6,0.8-2.4,1c-0.2,0.1-0.3,0.1-0.4,0.1
							c-0.1,0-0.2,0-0.2-0.1c0-0.1,0.1-0.1,0.3-0.2c1.5-0.6,2.6-1.5,3.3-2.5c0.6-1,0.9-2,0.9-3.8c0-1-0.1-1.8-0.3-2.3
							c-0.2-0.6-0.5-0.8-0.9-0.8c-0.7,0-1.1,0.5-1.8,3.4c-0.2,0.6-0.3,1.1-0.3,1.5c0,0.5,0.1,0.7,0.1,0.9c0,0.4-0.1,0.5-0.5,0.5
							c-0.4,0-0.7-0.4-0.9-1c-0.2-0.6-0.2-1.1-0.2-1.9c0-0.9,0.2-2,0.3-3.1c0.1-0.4,0.1-0.8,0.1-1.2c0-0.3-0.1-0.5-0.4-0.9
							c-0.1-0.1-0.1-0.1-0.1-0.2c0-0.1,0.1-0.2,0.3-0.2c0.1,0,0.2,0,0.4,0.2c0.4,0.3,0.7,0.6,0.9,1.1c0.1,0.2,0.2,0.4,0.2,0.6
							c0,0.2-0.1,0.3-0.2,0.4c-0.1,0.1-0.2,0.3-0.2,0.4c-0.3,1-0.5,1.8-0.5,2.4c0,0.4,0,0.6,0,0.8c0,0.1,0.1,0.1,0.2,0
							C131.9,255,132.1,254.5,132.4,253.9z"/>
						<path class="st0" d="M146.8,253.4c0,0.3-0.1,0.9-0.3,1.5c-0.2,0.6-0.5,1.3-0.9,2c-0.4,0.8-1,1.8-1.6,2.3
							c-0.3,0.3-0.7,0.6-1.2,0.6c-0.4,0-0.7-0.2-1.1-0.5c-0.5-0.6-0.8-1.3-0.8-2.5c0-0.7,0.2-1.5,0.6-2.1c0.5-0.9,1.1-1.5,1.9-2
							c1-0.6,2.1-0.9,3.4-0.9c1.5,0,2.6,0.4,3.5,1.1c1,0.8,1.6,1.9,1.6,3.6c0,1.2-0.5,2.2-1.3,2.9c-0.7,0.6-1.3,1-2.1,1.2
							c-0.9,0.3-2,0.5-2.9,0.5c-0.2,0-0.3,0-0.3-0.1s0.1-0.1,0.3-0.2c1.7-0.4,2.8-1,3.6-1.8c0.9-0.9,1.3-1.8,1.3-3.2
							c0-1-0.3-2-1.2-2.6c-0.7-0.5-1.5-0.7-2.2-0.8c-0.2,0-0.6,0-0.9,0C146.5,252.6,146.8,253,146.8,253.4z M143.4,253.5
							c-0.6,0.6-1,1.1-1.2,1.7c-0.1,0.3-0.2,0.8-0.2,1.3c0,0.6,0.1,1.1,0.4,1.5c0.2,0.3,0.4,0.5,0.6,0.5c0.2,0,0.4-0.1,1-0.9
							c0.8-1.1,1.5-2.5,1.9-3.4c0.2-0.5,0.3-0.9,0.3-1.2c0-0.3-0.1-0.5-0.3-0.6C144.7,252.5,143.9,253,143.4,253.5z"/>
						<path class="st0" d="M27.6,277.1c-0.1,3.2-1.4,4.7-5.1,5.3c-0.1,0-0.1-0.2-0.1-0.2c2.9-1.1,3.8-2.4,3.8-5.3c0-0.2,0-0.3,0-0.6
							c1.5,0.1,1.9,0.2,1.9,0.5C28.1,276.9,28,277,27.6,277.1z M33,275.4c0.5-0.6,0.6-0.7,0.8-0.7c0.1,0,0.2,0.1,0.9,0.7
							c0.3,0.3,0.4,0.4,0.4,0.5c0,0.3-0.1,0.3-0.6,0.3c-0.2,0-0.3,0.1-0.4,0.1c-0.5,0.4-0.9,0.6-1.3,0.9c-0.1,0-0.2,0-0.1-0.1
							c0.3-0.5,0.4-0.8,0.6-1.4h-8.8c0,1.1-0.5,1.9-1.3,1.9c-0.4,0-0.6-0.3-0.6-0.6c0-0.3,0.1-0.5,0.5-0.7c0.7-0.4,1-0.8,1.1-1.7
							c0-0.1,0.1-0.1,0.2,0c0.1,0.3,0.1,0.6,0.2,0.9H33z M29.3,273.6h2.5c0.7-0.8,0.8-0.9,0.9-0.9c0.1,0,0.3,0.1,0.9,0.6
							c0.3,0.2,0.4,0.3,0.4,0.4c0,0.1,0,0.1-0.2,0.1H25c-0.3,0-0.6,0-1,0.1l-0.2-0.5c0.4,0.1,0.7,0.1,1.1,0.1h3V272h-4.2
							c-0.3,0-0.6,0-1,0.1l-0.2-0.5c0.4,0.1,0.8,0.1,1.1,0.1h4.2v-0.6c0-0.5,0-0.9-0.1-1.4c1.8,0.2,1.9,0.3,1.9,0.5
							c0,0.1-0.2,0.2-0.5,0.3v1.1h3.5c0.7-0.8,0.8-0.9,0.9-0.9c0.1,0,0.3,0.1,1,0.6c0.3,0.3,0.4,0.4,0.4,0.5s0,0.1-0.2,0.1h-5.6
							V273.6z M30.6,280.5c0,0.4,0.1,0.5,1.3,0.5c0.6,0,0.9,0,1.4-0.1c0.4-0.1,0.7-0.7,1.1-2c0-0.1,0.2-0.1,0.2,0c0,0.5,0,1.1,0,1.5
							c0,0.2,0,0.2,0.1,0.3c0.4,0.2,0.5,0.4,0.5,0.6c0,0.4-0.2,0.6-0.7,0.8c-0.5,0.2-1.4,0.2-2.7,0.2c-2,0-2.5-0.2-2.5-1.2v-2.3
							c0-0.8,0-1.5,0-2.3c1.8,0.3,1.8,0.3,1.8,0.5c0,0.1-0.1,0.2-0.4,0.4V280.5z"/>
						<path class="st0" d="M44.4,281.3h3.4c0.8-1,1-1.1,1.1-1.1c0.1,0,0.3,0.1,1.1,0.8c0.4,0.3,0.5,0.4,0.5,0.5c0,0.1,0,0.1-0.2,0.1
							H39.5c-0.4,0-0.9,0-1.3,0.1l-0.2-0.5c0.6,0.1,1,0.1,1.5,0.1H43V272c0-0.8,0-1.5-0.1-2c1.8,0.2,2,0.3,2,0.5s-0.2,0.3-0.5,0.4
							v4.2h2.3c0.8-1,0.9-1.1,1-1.1c0.1,0,0.3,0.1,1.1,0.8c0.4,0.3,0.5,0.4,0.5,0.5c0,0.1,0,0.1-0.2,0.1h-4.7V281.3z"/>
						<path class="st0" d="M58.9,270.4c0-0.2,0-0.5-0.1-0.8c1.8,0.2,1.9,0.3,1.9,0.5c0,0.1-0.2,0.3-0.5,0.4v0.8h3.4
							c0.8-0.8,0.9-1,1-1c0.1,0,0.3,0.1,0.9,0.7c0.3,0.3,0.4,0.4,0.4,0.5c0,0.1,0,0.1-0.2,0.1H54.6c-0.3,0-0.6,0-1,0.1l-0.2-0.5
							c0.4,0.1,0.8,0.1,1.1,0.1h4.3V270.4z M63.7,276.4c0.5-0.5,0.6-0.6,0.7-0.6c0.1,0,0.3,0.1,0.8,0.5c0.2,0.2,0.3,0.3,0.3,0.4
							c0,0.2-0.1,0.3-0.4,0.4v0.7c0,2.2,0,2.8,0,3.4c0,0.5-0.1,0.8-0.5,1c-0.3,0.2-0.6,0.2-0.9,0.2c-0.2,0-0.3,0-0.3-0.4
							c-0.1-0.5-0.3-0.6-1.2-0.9c-0.1,0-0.1-0.2,0-0.2c0.6,0.1,1,0.1,1.5,0.1c0.1,0,0.2,0,0.2-0.2v-4.2h-8.4v5.2
							c0,0.4-0.2,0.6-0.8,0.6c-0.4,0-0.6-0.1-0.6-0.5c0-0.8,0-1.5,0-4.7c0-0.5,0-1.1,0-1.6c0.7,0.3,0.8,0.3,1.4,0.7H63.7z
							 M57.3,275.2v0.1c0,0.4-0.3,0.5-0.8,0.5c-0.4,0-0.5-0.1-0.5-0.5c0-0.4,0-0.7,0-2.1c0-0.4,0-0.8,0-1.1c0.7,0.3,0.8,0.3,1.4,0.7
							h4.4c0.4-0.5,0.5-0.6,0.7-0.6c0.1,0,0.3,0.1,0.8,0.5c0.2,0.2,0.3,0.3,0.3,0.4s-0.1,0.2-0.4,0.4v0.3c0,0.8,0,1.3,0,1.5
							c0,0.4-0.2,0.6-0.8,0.6c-0.4,0-0.5-0.1-0.5-0.5v-0.1H57.3z M58.1,280.3v0.3c0,0.4-0.2,0.5-0.7,0.5c-0.4,0-0.5-0.1-0.5-0.5
							c0-0.3,0-0.6,0-1.9c0-0.5,0-0.9-0.1-1.4c0.6,0.3,0.7,0.3,1.4,0.6h2.7c0.4-0.4,0.5-0.5,0.6-0.5c0.1,0,0.3,0.1,0.7,0.5
							c0.2,0.2,0.3,0.3,0.3,0.4c0,0.1-0.1,0.2-0.4,0.4v0.3c0,0.7,0,1.2,0,1.4c0,0.4-0.2,0.5-0.7,0.5c-0.4,0-0.5-0.1-0.5-0.4v-0.2
							H58.1z M61.9,273.1h-4.6v1.8h4.6V273.1z M61,278.3h-2.9v1.7H61V278.3z"/>
					</g>
				</g>
			</g>
		</g>
		<line class="st2" x1="131.1" y1="382.9" x2="116.1" y2="397.9"/>
		<g>
			<g>
				<polygon class="st0" points="301.5,378.3 301.5,378.3 301.5,378.3 				"/>
				<polygon class="st0" points="302.9,377 302.9,377 302.9,377 				"/>
				<polygon class="st0" points="270.3,344.1 270.3,344.1 270.3,344.1 270.3,344.1 				"/>
				<polygon class="st0" points="280.9,341 280.8,341 280.8,341 280.8,341 				"/>
				<path class="st0" d="M315.5,316.8c-0.7-1.1-1.6-1.9-2.2-2.6c-0.3-0.4-0.6-0.7-0.8-0.9c-0.2-0.3-0.3-0.4-0.3-0.5
					c0-0.1,0-0.2,0-0.4c0-0.4,0.1-1.2,0.3-2.1c0.2-0.9,0.4-1.9,0.5-3c0-0.8-0.1-1.7-0.6-2.5c-0.3-0.5-0.6-0.9-1-1.2
					c-0.7-0.6-1.4-0.9-2-1.2c-1-0.4-1.9-0.6-2.7-0.9c-0.4-0.1-0.7-0.2-0.9-0.4c-0.2-0.1-0.4-0.2-0.4-0.3l0,0
					c-0.1-0.1-0.3-0.3-0.4-0.8c-0.3-0.7-0.5-1.8-0.9-2.9c-0.2-0.6-0.5-1.1-0.8-1.7c-0.4-0.6-0.9-1.2-1.6-1.6
					c-0.9-0.5-1.8-0.6-2.5-0.6c-1.2,0-2.2,0.3-3,0.5c-0.9,0.2-1.6,0.4-2.1,0.3c-0.2,0-0.3,0-0.4,0c-0.1,0-0.4-0.2-0.8-0.5
					c-0.6-0.5-1.3-1.3-2.3-2c-0.5-0.4-1-0.8-1.6-1.1c-0.6-0.3-1.4-0.6-2.2-0.6c-1.1,0-2.1,0.4-2.8,0.9c-1.1,0.7-1.9,1.6-2.6,2.2
					c-0.4,0.3-0.7,0.6-0.9,0.8c-0.3,0.2-0.4,0.3-0.5,0.3c-0.1,0-0.2,0-0.4,0c-0.4,0-1.2-0.1-2.1-0.3c-0.9-0.2-1.9-0.5-3-0.5
					c-0.8,0-1.7,0.1-2.5,0.6l0,0l0,0c-0.5,0.3-0.9,0.6-1.2,1c-0.6,0.7-0.9,1.4-1.2,2c-0.4,1-0.6,1.9-0.9,2.7
					c-0.1,0.4-0.2,0.7-0.4,0.9c-0.1,0.2-0.2,0.4-0.3,0.4c-0.1,0.1-0.3,0.3-0.8,0.4c-0.7,0.3-1.8,0.5-2.9,0.9
					c-0.6,0.2-1.1,0.5-1.7,0.8c-0.6,0.4-1.2,0.9-1.6,1.6c-0.5,0.9-0.6,1.8-0.6,2.5c0,1.2,0.3,2.2,0.5,3c0.2,0.9,0.4,1.6,0.3,2.1
					c0,0.2,0,0.3,0,0.4l0,0c0,0.1-0.2,0.4-0.5,0.8c-0.5,0.6-1.3,1.3-2,2.3c-0.4,0.5-0.8,1-1.1,1.6c-0.3,0.6-0.6,1.4-0.6,2.2
					c0,1.1,0.4,2.1,0.9,2.8c0.7,1.1,1.6,1.9,2.2,2.6c0.3,0.4,0.6,0.7,0.8,0.9c0.2,0.3,0.3,0.4,0.3,0.5l0,0l0,0c0,0.1,0,0.2,0,0.4
					c0,0.4-0.1,1.2-0.3,2.1c-0.2,0.9-0.5,1.9-0.5,3c0,0.8,0.1,1.7,0.6,2.5c0.3,0.5,0.6,0.9,1,1.2c0.7,0.6,1.4,0.9,2,1.2
					c1,0.4,1.9,0.6,2.7,0.9c0.4,0.1,0.7,0.2,0.9,0.4c0.2,0.1,0.4,0.2,0.4,0.3c0.1,0.1,0.2,0.3,0.4,0.7c0.2,0.4,0.3,1,0.5,1.6l0,0
					c0.2,0.5,0.3,1.1,0.6,1.7c0.2,0.6,0.5,1.2,1,1.8c0.2,0.3,0.4,0.5,0.7,0.7l-6.8,14.6l9.4-0.3l5.8,7.3l6.6-14.3l6.6,14.3l5.8-7.3
					l9.4,0.3l-6.5-14c0,0,0.1,0,0.1,0c0.6-0.3,1.1-0.8,1.4-1.3c0.5-0.7,0.8-1.3,1-2c0.4-1,0.6-1.9,0.8-2.6c0.1-0.4,0.2-0.6,0.4-0.9
					c0.1-0.2,0.2-0.3,0.3-0.4c0.1-0.1,0.3-0.3,0.8-0.4c0.7-0.3,1.8-0.5,2.9-0.9c0.6-0.2,1.1-0.5,1.7-0.8c0.6-0.4,1.2-0.9,1.6-1.6
					c0.5-0.9,0.6-1.8,0.6-2.5c0-1.2-0.3-2.2-0.5-3c-0.2-0.9-0.4-1.6-0.3-2.1c0-0.2,0-0.3,0-0.4c0-0.1,0.2-0.4,0.5-0.8
					c0.5-0.6,1.3-1.3,2-2.3c0.4-0.5,0.8-1,1.1-1.6c0.3-0.6,0.6-1.4,0.6-2.2C316.3,318.4,315.9,317.5,315.5,316.8z M311.8,320.1
					c-0.3,0.5-1,1.2-1.7,2c-0.4,0.4-0.8,0.9-1.1,1.4c-0.4,0.5-0.7,1.1-0.9,1.9c-0.1,0.5-0.2,1-0.2,1.5c0,1.2,0.3,2.2,0.5,3.1
					c0.2,0.9,0.4,1.6,0.3,2.1c0,0.1,0,0.2,0,0.3l0,0.1l-0.1,0.1c-0.1,0.1-0.4,0.3-0.8,0.4c-0.6,0.3-1.5,0.5-2.5,0.8
					c-0.5,0.2-1,0.3-1.5,0.6c-0.5,0.3-1,0.6-1.5,1.1c-0.6,0.6-1,1.3-1.3,1.9c-0.4,1-0.7,1.9-0.9,2.7c-0.2,0.8-0.5,1.4-0.7,1.6l0,0
					l-0.1,0.1l0,0l0,0l0,0l-0.1,0c-0.1,0-0.2,0-0.3,0c-0.4,0-1.2-0.1-2.1-0.3c-0.9-0.2-1.9-0.5-3.1-0.5c-0.5,0-1,0-1.5,0.2l0,0
					l-0.1,0l0,0c-1.2,0.4-2,1.1-2.7,1.7c-0.7,0.6-1.3,1.3-1.8,1.7l0,0c-0.3,0.2-0.6,0.4-0.7,0.5c-0.2,0.1-0.3,0.1-0.3,0.1
					c0,0-0.1,0-0.3-0.1c-0.2-0.1-0.4-0.2-0.7-0.5c-0.5-0.4-1.2-1.1-1.9-1.7c-0.7-0.6-1.6-1.3-2.9-1.7c-0.5-0.1-1-0.2-1.5-0.2
					c-1.2,0-2.2,0.3-3.1,0.5c-0.9,0.2-1.6,0.4-2.1,0.3c-0.1,0-0.2,0-0.3,0l-0.1,0l0,0l-0.1-0.1l0,0l0,0c-0.1-0.1-0.2-0.4-0.4-0.8
					c-0.1-0.4-0.3-0.8-0.4-1.4l0,0c-0.2-0.6-0.4-1.3-0.7-2c-0.3-0.7-0.7-1.4-1.3-2.1c-0.7-0.7-1.5-1.1-2.3-1.4c-1.1-0.4-2.2-0.7-3-1
					c-0.4-0.1-0.7-0.3-0.8-0.4c-0.2-0.1-0.2-0.2-0.2-0.2l0,0l0-0.1c0-0.1,0-0.2,0-0.3c0-0.4,0.1-1.2,0.3-2.1
					c0.2-0.9,0.5-1.9,0.5-3.1c0-0.5,0-1-0.2-1.5l0,0c-0.3-1-0.8-1.7-1.3-2.4c-0.8-0.9-1.6-1.7-2.1-2.3c-0.3-0.3-0.4-0.6-0.5-0.8
					c-0.1-0.2-0.1-0.3-0.1-0.3c0,0,0-0.2,0.2-0.5c0.3-0.5,1-1.2,1.7-2c0.4-0.4,0.8-0.9,1.1-1.4c0.4-0.5,0.7-1.1,0.9-1.9l0,0
					c0.1-0.5,0.2-1,0.2-1.5c0-1.2-0.3-2.2-0.5-3.1c-0.2-0.9-0.4-1.6-0.3-2.1c0-0.1,0-0.2,0-0.3l0-0.1l0,0l0.1-0.1
					c0.1-0.1,0.4-0.3,0.8-0.4c0.6-0.3,1.5-0.5,2.5-0.8c0.5-0.2,1-0.3,1.5-0.6c0.5-0.3,1-0.6,1.5-1.1c0.7-0.7,1.1-1.5,1.4-2.3
					c0.4-1.1,0.7-2.2,1-3c0.1-0.4,0.3-0.7,0.4-0.8c0.1-0.2,0.2-0.2,0.2-0.2l0.1,0c0.1,0,0.2,0,0.3,0c0.4,0,1.2,0.1,2.1,0.3
					c0.9,0.2,1.9,0.5,3.1,0.5c0.5,0,1,0,1.5-0.2c1-0.3,1.7-0.8,2.4-1.3c0.9-0.8,1.7-1.6,2.3-2.1c0.3-0.3,0.6-0.4,0.8-0.5
					c0.2-0.1,0.3-0.1,0.3-0.1c0,0,0.2,0,0.5,0.2c0.5,0.3,1.2,1,2,1.7c0.4,0.4,0.9,0.8,1.4,1.1c0.5,0.4,1.1,0.7,1.9,0.9
					c0.5,0.1,1,0.2,1.5,0.2c1.2,0,2.2-0.3,3.1-0.5c0.9-0.2,1.6-0.4,2.1-0.3c0.1,0,0.2,0,0.3,0l0.1,0l0.1,0.1
					c0.1,0.1,0.3,0.4,0.4,0.8c0.3,0.6,0.5,1.5,0.8,2.5c0.2,0.5,0.4,1,0.6,1.5c0.3,0.5,0.6,1,1.1,1.5l0,0l0,0
					c0.7,0.7,1.5,1.1,2.3,1.4c1.1,0.4,2.2,0.7,3,1c0.4,0.1,0.7,0.3,0.8,0.4c0.2,0.1,0.2,0.2,0.2,0.2l0,0.1c0,0.1,0,0.2,0,0.3
					c0,0.4-0.1,1.2-0.3,2.1c-0.2,0.9-0.5,1.9-0.5,3.1c0,0.5,0,1,0.2,1.5c0.3,1,0.8,1.7,1.3,2.4c0.8,0.9,1.6,1.7,2.1,2.3
					c0.3,0.3,0.4,0.6,0.5,0.8c0.1,0.2,0.1,0.3,0.1,0.3C312,319.6,312,319.8,311.8,320.1z"/>
				<path class="st0" d="M286.6,301.4c-10,0-18.1,8.1-18.1,18.1c0,5.2,2.2,10,5.8,13.3c3,2.8,6.9,4.6,11.3,4.8h0c0,0,0,0,0,0l0,0
					c0.4,0,0.7,0,1.1,0c10,0,18.1-8.1,18.1-18.1C304.7,309.6,296.6,301.4,286.6,301.4z M297.1,330.1c-2.7,2.7-6.4,4.4-10.5,4.4
					c-0.3,0-0.6,0-0.8,0l0,0c-3.6-0.2-6.8-1.7-9.3-4c-2.9-2.7-4.7-6.6-4.7-10.9c0-4.1,1.7-7.8,4.4-10.5c2.7-2.7,6.4-4.4,10.5-4.4
					c4.1,0,7.8,1.7,10.5,4.4c2.7,2.7,4.4,6.4,4.4,10.5C301.4,323.7,299.8,327.4,297.1,330.1z"/>
			</g>
		</g>
		<g>
			<g>
				<g>
					<path class="st0" d="M111.4,305.2c0-2-1.6-3.7-3.7-3.7c-2,0-3.7,1.6-3.7,3.7c0,2,1.6,3.7,3.7,3.7
						C109.7,308.9,111.4,307.2,111.4,305.2z"/>
					<path class="st0" d="M99.4,313.7V326c0,0.9,0.7,1.6,1.6,1.6c0.9,0,1.6-0.7,1.6-1.6v-10.2h0.7v27.6c0,1.2,1,2.1,2.1,2.1
						c1.2,0,2.1-1,2.1-2.1v-16h0.7v16c0,1.2,1,2.1,2.1,2.1c1.2,0,2.1-1,2.1-2.1v-27.6h0.7V326c0,0.9,0.7,1.6,1.6,1.6
						c0.9,0,1.6-0.7,1.6-1.6v-12.4c0-1.8-1.9-3.7-3.7-3.7h-9.7C101.4,309.9,99.4,311.9,99.4,313.7z"/>
				</g>
			</g>
			<g>
				<path class="st0" d="M143.5,331.9c-0.7,0.2-1.6,0.5-2.5,0.7c-0.4,0.1-0.8,0.1-1.2,0.1c0,0,0-0.1,0-0.1c0.3-0.9,0.5-1.8,0.6-2.5
					c0.2-0.7,0.3-1.3,0.3-1.5c0.1-0.6,0.2-1,0.3-1.4c0.1-0.3,0.3-0.5,0.7-0.6c1.3-0.3,2.6-1.2,3.4-2.5c0.9-1.3,1.3-3.1,1.2-4.9
					c-0.1-1.2-0.3-1.7-0.7-1.8c-0.3-0.1-0.8,0.2-1.3,0.7c-0.5,0.4-1.2,1-2,1.5c-0.3,0.2-0.7,0.4-1,0.5c-0.1-0.8-0.2-1.6-0.3-2.3
					c-0.1-0.7-0.2-1.3-0.3-1.5c-0.2-1.2-0.3-1.7,0.2-2.1c1.1-0.7,1.9-1.9,2.2-3.4c0.3-1.4,0.2-3.2-0.6-4.8c-0.5-1-0.9-1.4-1.2-1.3
					c-0.3,0-0.6,0.4-1,1c-0.3,0.6-0.7,1.3-1.3,1.9c-0.2,0.3-0.5,0.5-0.7,0.8c-0.3-0.6-0.6-1.2-0.9-1.7c-0.3-0.6-0.6-1-0.7-1.2
					c-0.6-1-0.8-1.4-0.4-1.9c0.7-1,1.1-2.3,0.9-3.7c-0.2-1.4-0.8-2.9-2-4.1c-0.7-0.8-1.2-1-1.5-0.8c-0.3,0.1-0.4,0.6-0.6,1.2
					c-0.1,0.6-0.3,1.4-0.5,2.1c-0.1,0.3-0.2,0.6-0.4,0.9c-0.3-0.3-0.6-0.6-0.9-0.9c-0.5-0.5-0.9-0.8-1-0.9c-0.8-0.8-1.2-1.1-1-1.7
					c0.4-1.2,0.3-2.5-0.3-3.8c-0.6-1.3-1.7-2.5-3.1-3.3c-0.9-0.5-1.4-0.6-1.7-0.3c-0.2,0.2-0.2,0.7-0.2,1.3c0.1,0.6,0.2,1.3,0.1,2.1
					c-0.5-0.6-1.2-1-1.9-1.4c-0.9-0.4-2.2-0.7-3.4-0.6c-1.2,0.1-2.1,0.5-2.3,1.3c-0.2,0.8,0.3,1.6,1,2.4c0.7,0.7,1.7,1.4,2.4,1.7
					c0.7,0.3,1.3,0.5,2,0.6c0,0-0.1,0-0.1,0.1c-0.6,0.5-1.2,0.9-1.7,1.2c-0.5,0.4-0.8,0.7-0.9,1c-0.1,0.3,0.2,0.6,0.8,0.9
					c1,0.5,2.1,0.8,3.2,0.7c1.1-0.1,2.3-0.4,3.4-1c0.5-0.3,0.9,0,1.7,0.7c0.1,0.1,0.5,0.5,0.9,0.9c0.2,0.3,0.5,0.6,0.8,0.9
					c-0.3,0.1-0.6,0.3-0.9,0.4c-0.7,0.3-1.4,0.4-2,0.6c-0.6,0.2-1,0.4-1.1,0.7c-0.1,0.3,0,0.6,0.5,1.1c0.8,0.8,1.8,1.4,2.9,1.7
					c1.1,0.3,2.3,0.3,3.5,0.1c0.6-0.1,0.9,0.2,1.4,1.1c0.1,0.2,0.3,0.6,0.6,1.2c0.2,0.5,0.5,1,0.7,1.6c-0.4,0-0.7,0.1-1.1,0.1
					c-0.8,0-1.6,0-2.2,0c-0.6,0-1.1,0.1-1.3,0.3c-0.2,0.2-0.2,0.6,0.1,1.3c0.5,1.1,1.3,1.9,2.3,2.6c1,0.7,2.2,1.1,3.5,1.3
					c0.6,0.1,0.8,0.6,1,1.6c0,0.2,0.1,0.7,0.2,1.3c0.1,0.6,0.1,1.4,0.1,2.1c-0.4-0.1-0.7-0.2-1.1-0.3c-0.8-0.3-1.5-0.6-2.2-0.8
					c-0.6-0.2-1.1-0.3-1.4-0.2c-0.3,0.1-0.4,0.5-0.4,1.3c0.1,1.2,0.5,2.4,1.3,3.4c0.7,1,1.7,1.9,2.9,2.5c0.3,0.2,0.4,0.4,0.5,0.7
					c0,0.3,0,0.7-0.1,1.3c0,0.2-0.2,0.7-0.4,1.4c-0.2,0.7-0.5,1.5-0.8,2.2c0,0,0,0.1,0,0.1c-0.3-0.2-0.6-0.5-0.9-0.7
					c-0.7-0.6-1.3-1.2-1.8-1.7c-0.5-0.5-1-0.8-1.3-0.7c-0.4,0-0.6,0.3-0.9,1.1c-0.4,1.2-0.4,2.5-0.1,3.8c0.3,1.3,0.9,2.6,1.8,3.6
					c0.4,0.6,0.2,1.1-0.5,2c-0.1,0.2-0.4,0.6-0.9,1.2c-0.5,0.6-1,1.2-1.7,1.9c-0.1,0.1-0.2,0.2-0.3,0.3c-0.2-0.4-0.4-0.7-0.6-1.1
					c-0.4-0.9-0.7-1.7-1-2.3c-0.3-0.7-0.6-1.1-1-1.3c-0.4-0.1-0.7,0-1.3,0.7c-0.9,1-1.4,2.2-1.7,3.5c-0.2,1.3-0.2,2.8,0.2,4.3
					c0.2,0.7-0.2,1.1-1.3,1.8c-0.2,0.1-0.7,0.4-1.4,0.7c-0.7,0.3-1.5,0.7-2.4,1c-0.8,0.3-2,0.8-2.6,1c-8,2.8-17.7,4-23.6,8.4
					c-0.9,0.7,0.9,3.3,1.7,3.1c0.8-0.2,6.7-3.7,21.4-7.8c0.6-0.2,3.6-1.2,4.5-1.6c0.9-0.4,1.8-0.9,2.6-1.4c0.7-0.4,1.3-0.8,1.5-0.9
					c0.6-0.4,1-0.6,1.4-0.7c0.4-0.1,0.7-0.1,1,0.1c0.6,0.4,1.4,0.7,2.2,0.9c0.8,0.1,1.6,0.1,2.5,0c0.9-0.2,1.7-0.5,2.6-1
					c0.8-0.5,1.6-1.1,2.3-1.9c0.9-1,1.1-1.6,0.9-2c-0.2-0.4-0.8-0.5-1.6-0.5c-0.8-0.1-1.7-0.2-2.7-0.4c-0.4-0.1-0.8-0.2-1.2-0.4
					c0.1-0.1,0.2-0.2,0.3-0.4c0.6-0.7,1.2-1.5,1.7-2.2c0.5-0.7,0.8-1.2,0.9-1.4c0.7-1.1,1-1.6,1.8-1.5c1.4,0.2,3-0.1,4.4-1.1
					c0.7-0.5,1.3-1.1,1.9-1.8c0.5-0.7,1-1.6,1.3-2.5c0.4-1.2,0.3-1.8,0-2C144.7,331.6,144.2,331.7,143.5,331.9z"/>
				<path class="st0" d="M99.1,354.5c1.8-0.7,3.8-1.3,5.8-1.9c-2.1-0.6-4.2-1.2-6.2-1.9c-0.6-0.2-1.8-0.7-2.6-1
					c-0.8-0.3-1.7-0.7-2.4-1c-0.7-0.3-1.2-0.6-1.4-0.7c-1.1-0.6-1.5-1-1.3-1.8c0.4-1.4,0.4-2.9,0.2-4.3c-0.3-1.3-0.8-2.6-1.7-3.5
					c-0.6-0.6-0.9-0.8-1.3-0.7c-0.3,0.1-0.7,0.6-1,1.3c-0.3,0.7-0.6,1.5-1,2.3c-0.2,0.4-0.4,0.7-0.6,1.1c-0.1-0.1-0.2-0.2-0.3-0.3
					c-0.6-0.6-1.2-1.3-1.7-1.9c-0.5-0.6-0.8-1-0.9-1.2c-0.7-1-0.9-1.5-0.5-2c0.9-1.1,1.5-2.4,1.8-3.6c0.3-1.3,0.3-2.5-0.1-3.8
					c-0.2-0.8-0.5-1.1-0.9-1.1c-0.4,0-0.8,0.3-1.3,0.7c-0.5,0.5-1.1,1.1-1.8,1.7c-0.3,0.3-0.6,0.5-0.9,0.7c0,0,0-0.1,0-0.1
					c-0.3-0.8-0.6-1.6-0.8-2.2c-0.2-0.7-0.3-1.2-0.4-1.4c-0.1-0.6-0.2-1-0.1-1.3c0-0.3,0.2-0.5,0.5-0.7c1.2-0.6,2.2-1.5,2.9-2.5
					c0.7-1,1.2-2.2,1.3-3.4c0.1-0.8-0.1-1.1-0.4-1.3c-0.3-0.1-0.8,0-1.4,0.2c-0.6,0.2-1.4,0.6-2.2,0.8c-0.3,0.1-0.7,0.2-1.1,0.3
					c0-0.7,0.1-1.5,0.1-2.1c0.1-0.7,0.1-1.2,0.2-1.3c0.2-1.1,0.3-1.5,1-1.6c1.3-0.1,2.5-0.6,3.5-1.3c1-0.7,1.8-1.5,2.3-2.6
					c0.3-0.7,0.3-1.1,0.1-1.3c-0.2-0.2-0.7-0.3-1.3-0.3c-0.6,0-1.4,0.1-2.2,0c-0.4,0-0.7,0-1.1-0.1c0.2-0.6,0.5-1.1,0.7-1.6
					c0.3-0.6,0.5-1,0.6-1.2c0.5-0.9,0.8-1.3,1.4-1.1c1.2,0.3,2.4,0.2,3.5-0.1c1.1-0.3,2.1-0.8,2.9-1.7c0.5-0.5,0.6-0.9,0.5-1.1
					c-0.1-0.3-0.6-0.5-1.1-0.7c-0.6-0.2-1.3-0.4-2-0.6c-0.3-0.1-0.6-0.2-0.9-0.4c0.3-0.3,0.5-0.6,0.8-0.9c0.4-0.5,0.8-0.8,0.9-0.9
					c0.8-0.7,1.1-1,1.7-0.7c1.1,0.6,2.2,1,3.4,1c1.1,0.1,2.2-0.2,3.2-0.7c0.6-0.3,0.9-0.6,0.8-0.9c-0.1-0.3-0.4-0.6-0.9-1
					c-0.5-0.4-1.1-0.7-1.7-1.2c0,0-0.1,0-0.1-0.1c0.7,0,1.4-0.3,2-0.6c0.8-0.4,1.7-1,2.4-1.7c0.7-0.7,1.3-1.6,1-2.4
					c-0.2-0.8-1.2-1.2-2.3-1.3c-1.2-0.1-2.5,0.2-3.4,0.6c-0.8,0.4-1.4,0.8-1.9,1.4c0-0.8,0.1-1.5,0.1-2.1c0.1-0.6,0.1-1.1-0.2-1.3
					c-0.2-0.2-0.7-0.2-1.7,0.3c-1.5,0.8-2.5,2-3.1,3.3c-0.6,1.3-0.7,2.6-0.3,3.8c0.2,0.6-0.2,0.9-1,1.7c-0.1,0.1-0.5,0.5-1,0.9
					c-0.3,0.3-0.6,0.6-0.9,0.9c-0.2-0.3-0.3-0.6-0.4-0.9c-0.3-0.7-0.4-1.5-0.5-2.1s-0.3-1.1-0.6-1.2c-0.3-0.1-0.8,0.1-1.5,0.8
					c-1.1,1.2-1.8,2.7-2,4.1c-0.2,1.4,0.2,2.7,0.9,3.7c0.3,0.5,0.1,1-0.4,1.9c-0.1,0.2-0.4,0.6-0.7,1.2c-0.3,0.5-0.6,1.1-0.9,1.7
					c-0.3-0.2-0.5-0.5-0.7-0.8c-0.5-0.7-0.9-1.4-1.3-1.9c-0.3-0.6-0.6-1-1-1c-0.3,0-0.7,0.3-1.2,1.3c-0.7,1.6-0.9,3.3-0.6,4.8
					c0.3,1.5,1.1,2.6,2.2,3.4c0.5,0.4,0.4,0.9,0.2,2.1c0,0.2-0.1,0.7-0.3,1.5c-0.1,0.7-0.2,1.5-0.3,2.3c-0.4-0.1-0.7-0.3-1-0.5
					c-0.7-0.5-1.4-1-2-1.5c-0.5-0.4-1-0.8-1.3-0.7c-0.3,0.1-0.6,0.6-0.7,1.8c-0.1,1.9,0.3,3.6,1.2,4.9c0.9,1.3,2.1,2.2,3.4,2.5
					c0.3,0.1,0.5,0.3,0.7,0.6c0.1,0.3,0.2,0.7,0.3,1.4c0,0.2,0.1,0.8,0.3,1.5c0.2,0.7,0.4,1.7,0.6,2.5c0,0,0,0.1,0,0.1
					c-0.4,0-0.8,0-1.2-0.1c-0.9-0.2-1.8-0.5-2.5-0.7c-0.7-0.2-1.3-0.4-1.6-0.1c-0.3,0.2-0.3,0.8,0,2c0.3,0.9,0.8,1.8,1.3,2.5
					c0.5,0.7,1.2,1.4,1.9,1.8c1.4,0.9,2.9,1.3,4.4,1.1c0.7-0.1,1.1,0.4,1.8,1.5c0.1,0.2,0.5,0.7,0.9,1.4c0.5,0.7,1.1,1.4,1.7,2.2
					c0.1,0.1,0.2,0.2,0.3,0.4c-0.4,0.2-0.8,0.3-1.2,0.4c-0.9,0.2-1.9,0.3-2.7,0.4c-0.8,0.1-1.4,0.2-1.6,0.5c-0.2,0.3,0,1,0.9,2
					c0.7,0.8,1.5,1.4,2.3,1.9c0.8,0.5,1.7,0.8,2.6,1c0.9,0.2,1.7,0.2,2.5,0c0.8-0.1,1.5-0.4,2.2-0.9c0.3-0.2,0.6-0.2,1-0.1
					c0.4,0.1,0.8,0.4,1.4,0.7c0.2,0.1,0.7,0.5,1.5,0.9c0.7,0.4,1.6,0.9,2.6,1.4C95.5,353.3,98.4,354.2,99.1,354.5z"/>
				<path class="st0" d="M116.8,356.2c-2.3,0.6-4.4,1.3-6.3,1.9c6.5,2.3,9.5,4,10,4.2c0.8,0.2,2.7-2.4,1.7-3.1
					C120.7,358,118.8,357,116.8,356.2z"/>
			</g>
		</g>
		<g>
			<rect x="135.1" y="95" class="st0" width="22.4" height="39.6"/>
			<rect x="166.5" y="78.3" class="st0" width="22.4" height="56.4"/>
			<rect x="103.7" y="111" class="st0" width="22.4" height="23.6"/>
			<path class="st0" d="M228.9,56.9l-18.4-31.7c-0.3-0.5-0.8-0.8-1.4-0.8c-0.6,0-1.1,0.3-1.4,0.8l-18.4,31.7c-0.3,0.5-0.3,1.1,0,1.6
				s0.8,0.8,1.4,0.8h7.2v75.4h22.4V59.3h7.2c0.6,0,1.1-0.3,1.4-0.8C229.2,58,229.2,57.4,228.9,56.9z"/>
		</g>
		<line class="st3" x1="0" y1="228.4" x2="335" y2="228.4"/>
		<line class="st3" x1="167.5" y1="228.4" x2="167.5" y2="419.5"/>
	</g>
</g>
</svg>
