<?xml version="1.0" encoding="utf-8"?>
<!-- Generator: Adobe Illustrator 25.4.1, SVG Export Plug-In . SVG Version: 6.00 Build 0)  -->
<svg version="1.1" id="レイヤー_1" xmlns="http://www.w3.org/2000/svg" xmlns:xlink="http://www.w3.org/1999/xlink" x="0px"
	 y="0px" viewBox="0 0 335 419.5" style="enable-background:new 0 0 335 419.5;" xml:space="preserve">
<style type="text/css">
	.st0{fill:#333333;}
	.st1{fill:#E8314B;}
	.st2{fill:none;stroke:#333333;stroke-miterlimit:10;}
	.st3{fill:none;stroke:#E8314B;stroke-width:1.76;stroke-miterlimit:10;}
</style>
<path class="st0" d="M246.8,194.9c-0.5,0.7-1.1,1.4-1.7,2.1c-0.1,0.1-0.2-0.1-0.2-0.2c1.2-2.2,2.1-4.5,2.8-6.9c0.3-1,0.4-2,0.5-3
	c2.4,0.6,2.6,0.7,2.6,1s-0.1,0.3-0.8,0.5c-0.5,1.7-1.2,3.3-2.1,4.8c1.1,0.2,1.3,0.2,1.3,0.4s-0.1,0.3-0.5,0.5v10.3
	c0,0.6-0.3,0.8-1.1,0.8s-0.9-0.2-0.9-0.8s0.1-2.1,0.1-5.3L246.8,194.9z M251.7,202.1c0,1.3-0.5,2.3-1.5,2.3c-0.5,0-0.9-0.3-0.9-0.8
	c0,0,0-0.1,0-0.1c0-0.5,0.2-0.7,0.8-1c0.7-0.2,1.3-0.9,1.3-1.6c0-0.1,0.2-0.1,0.2,0C251.7,201.3,251.7,201.7,251.7,202.1z
	 M252.8,189.8c1.4,0.4,2.1,1,2.1,1.9c0,0.4-0.3,0.8-0.7,0.8h3.3c0.2-0.5,0.3-0.9,0.4-1.4c0.1-0.4,0.2-0.8,0.2-1.3
	c1.7,0.5,2.2,0.7,2.2,0.9s-0.1,0.3-0.6,0.4c-0.5,0.5-1,1-1.6,1.4h2.7c0.9-1,1.1-1.2,1.2-1.2s0.4,0.2,1.2,0.8
	c0.4,0.3,0.5,0.5,0.5,0.6s-0.1,0.2-0.3,0.2h-12.4c-0.5,0-1,0-1.4,0.1l-0.2-0.7c0.5,0.1,1.1,0.2,1.6,0.2h2.7c-0.3,0-0.5-0.3-0.6-0.6
	c-0.1-0.8-0.4-1.5-0.9-2.2h-0.1c-0.5,0-1,0-1.4,0.1l-0.2-0.7c0.5,0.1,1.1,0.2,1.6,0.2h3.2v-1.2c0-0.4,0-0.8-0.1-1.2
	c2.3,0.2,2.5,0.4,2.5,0.6s-0.2,0.3-0.6,0.5v1.3h2.9c0.8-1,1.1-1.2,1.2-1.2s0.4,0.2,1.3,0.8c0.4,0.3,0.5,0.5,0.5,0.6
	s-0.1,0.2-0.3,0.2L252.8,189.8z M252.8,199.2c-0.1,0.4-0.4,0.6-1,0.6s-0.8-0.2-0.8-0.7c0-0.3,0.1-0.7,0.1-2c0-1.2,0-2.3-0.1-3.5
	c0.7,0.3,1.4,0.6,2.1,0.9h6.2c0.7-0.7,0.8-0.9,1-0.9s0.4,0.1,1.1,0.6c0.3,0.2,0.4,0.4,0.4,0.5s-0.1,0.3-0.5,0.6v0.6
	c0,1.6,0,2.7,0,3.1c0,0.5-0.4,0.8-1.1,0.8c-0.5,0-0.7-0.2-0.7-0.6l0,0L252.8,199.2z M259.4,194.9h-6.6v1.7h6.6V194.9z M259.4,197.1
	h-6.6v1.7h6.6V197.1z M259.5,202.8c0,0.3,0.1,0.4,0.2,0.4c0.5,0.1,0.6,0.3,0.6,0.7s-0.3,0.7-0.9,0.9c-1,0.2-2.1,0.3-3.2,0.3
	c-2.6,0-3.4-0.3-3.4-1.4c0-0.4,0-0.9,0-2.6c0-0.3,0-0.6-0.1-0.9c2,0.2,2.2,0.3,2.2,0.5s-0.2,0.3-0.5,0.4v1.7c0,0.6,0.3,0.7,1.9,0.7
	c0.6,0,1.2,0,1.7-0.1c0.6-0.2,0.7-0.7,1.2-2c0-0.1,0.2-0.1,0.2,0L259.5,202.8z M257,202.5c-0.5,0-0.5-0.1-0.8-1.1
	c-0.2-0.5-0.4-1-0.8-1.4c-0.1-0.1,0-0.2,0.1-0.1c1.7,0.3,2.5,0.8,2.5,1.7C257.9,202.1,257.5,202.5,257,202.5L257,202.5z
	 M262.5,204.2c-0.5,0-0.7-0.2-0.9-1.2c-0.1-0.8-0.5-1.6-1.1-2.2c-0.1-0.1,0-0.2,0.1-0.2c2,0.6,2.8,1.3,2.8,2.4
	C263.5,203.6,263.1,204.1,262.5,204.2C262.5,204.2,262.5,204.2,262.5,204.2L262.5,204.2z"/>
<path class="st0" d="M272.6,204.4c0,0.5-0.4,0.7-1.2,0.7c-0.6,0-0.9-0.2-0.9-0.7c0-1.8,0.1-3.6,0.1-10.8c0-2.1,0-4.2-0.1-6.3
	c1,0.5,1.2,0.6,2.3,1.1h11.3c0.7-0.8,0.9-1,1.1-1s0.4,0.1,1.1,0.8c0.3,0.3,0.5,0.4,0.5,0.6s-0.1,0.3-0.5,0.6v2.2
	c0,9.7,0.1,10.1,0.1,11.3c0,1-0.3,1.5-0.9,1.8c-0.4,0.2-0.9,0.3-1.3,0.3c-0.3,0-0.4-0.1-0.5-0.5c-0.1-0.7-0.5-1.2-2.4-1.6
	c-0.1,0-0.1-0.2,0-0.2c1.1,0,2,0.1,2.7,0.1c0.3,0,0.3-0.1,0.3-0.4v-6.5h-11.6V204.4z M277.3,195.4v-6.4h-4.7v6.4H277.3z
	 M284.2,188.9h-4.9v6.4h4.9V188.9z"/>
<path class="st1" d="M57.8,172l-4.7-12.6c1.5-1.3,3.2-2.3,5.1-3c2.1-0.8,4.2-1.4,6.4-1.8c2.2-0.4,4.5-0.6,6.8-0.6
	c3.5-0.1,6.9,0.5,10.2,1.7c2.8,1,5.3,2.7,7.2,4.9c1.8,2.2,2.7,4.9,2.6,7.7c0,2.2-0.5,4.3-1.4,6.3c-1,2-2.2,3.8-3.7,5.4
	c-1.5,1.7-3.2,3.2-5,4.7c-1.8,1.4-3.6,2.7-5.4,3.9s-3.4,2.2-4.8,3h13.3c1.3,0,2.6-0.3,3.8-0.8c1.2-0.6,2.3-1.4,3.2-2.4
	c1.1-1.2,1.9-2.6,2.6-4.1h0.7L90,203.8H53.6v-0.7c2-2.5,4.1-4.9,6.2-7.4c2.1-2.5,4.2-4.9,6.2-7.4c1.9-2.3,3.7-4.8,5.3-7.3
	c1.5-2.3,2.8-4.7,3.8-7.2c0.9-2.2,1.4-4.6,1.4-7.1c0.2-2.6-0.7-5.2-2.4-7.1c-1.7-1.8-4.1-2.6-6.5-2.2c-2.8,0.1-5.3,1.6-6.7,4
	c-1.5,2.5-2.3,6.1-2.3,10.7H57.8z"/>
<path class="st1" d="M101.9,193.5c1-0.8,2.3-1.2,3.6-1.1c1.3,0,2.6,0.4,3.8,1c1.2,0.7,2.1,1.7,2.6,3c0.9,2,1.3,4.1,1,6.3
	c-0.3,2.1-1,4-2.2,5.7c-1.1,1.7-2.7,3-4.5,3.9c-1.8,0.9-3.9,1.1-5.8,0.7L100,212c0.9-0.4,1.7-1.1,2.2-1.9c0.7-0.9,1-2,1-3.1
	c-0.2-1.5-0.8-2.9-1.9-3.9c-0.8-0.9-1.4-2.1-1.6-3.3c-0.2-1.2-0.1-2.4,0.3-3.6C100.3,195.1,101,194.2,101.9,193.5z"/>
<path class="st1" d="M148.8,166.7l-21.5,1.8l-1.3,5.8c3.9-1,7.9-1.4,11.9-1c3.1,0.3,6.1,1.3,8.7,3c2.3,1.5,4,3.6,5.2,6
	c1.1,2.5,1.6,5.3,1.5,8.1c-0.1,3.2-1,6.3-2.9,9c-1.8,2.5-4.1,4.6-6.8,6.1c-2.8,1.5-5.9,2.6-9.1,3.1c-3.2,0.6-6.5,0.7-9.7,0.2
	c-3-0.4-6-1.3-8.7-2.7l0.1-0.7c1.5,0,3-0.1,4.5-0.4c1.9-0.3,3.8-0.8,5.6-1.4c1.9-0.7,3.8-1.5,5.5-2.6c1.7-1,3.1-2.4,4.3-4
	c1.1-1.6,1.8-3.5,1.9-5.5c0.3-2.3-0.5-4.6-2.2-6.3c-1.9-1.6-4.2-2.5-6.7-2.5c-3.3-0.1-6.6,0.6-9.6,1.9l-0.6-0.4l5.8-26.9l20.9-1.8
	c1.2,0.1,2.5-0.3,3.5-1c0.8-0.7,1.5-1.5,2-2.5h0.7L148.8,166.7z"/>
<path class="st1" d="M159.3,203.9l0.1-0.7h1.5c1,0,2-0.4,2.7-1.1c0.7-0.7,1.1-1.7,1.1-2.7v-35.5c0-1.8-0.4-3.1-1.3-3.8
	c-1-0.7-2.2-1.1-3.4-1h-1.3v-0.7c1,0,2.3-0.2,4-0.4s3.4-0.5,5.4-0.8c1.9-0.3,3.7-0.8,5.6-1.3c1.6-0.5,3.1-1.1,4.6-1.9h0.7v45.5
	c0,1,0.4,2,1.2,2.6c0.7,0.7,1.7,1.1,2.7,1.1h1.5v0.7H159.3z"/>
<path class="st1" d="M221.4,153.9l0.6,5.2l-24.9,24.2h28c1,0.1,2.1-0.2,2.9-0.7c0.7-0.5,1.3-1.3,1.6-2.1h0.7l-2.2,10.1h-42.9V190
	L221.4,153.9z M222.1,199.4c0,1,0.4,2,1.2,2.7c0.7,0.7,1.7,1.1,2.7,1.1h0.8v0.7h-23.6l0.1-0.7h0.7c1,0,2-0.4,2.8-1.1
	c0.8-0.7,1.2-1.7,1.1-2.7H222.1z M207.8,169l13.6-15.1h0.7v49.9h-14.3L207.8,169z"/>
<path class="st0" d="M29.6,37.3c0,1,0,1.5,0,2c0,0.3-0.2,0.5-0.7,0.5c-0.3,0-0.5-0.1-0.5-0.4s0.1-1.8,0.1-3.1
	c-0.8,0.9-1.7,1.7-2.8,2.2c-0.1,0-0.2-0.1-0.1-0.2c1.2-1.1,2.1-2.4,2.7-3.9h-1.3c-0.3,0-0.5,0-0.8,0.1L26,34
	c0.3,0.1,0.6,0.1,0.9,0.1h1.6v-0.4c0-0.5,0-0.9-0.1-1.4c1.1,0.1,1.6,0.2,1.6,0.4s-0.1,0.2-0.4,0.4v1.1h0.6c0.5-0.6,0.6-0.7,0.7-0.7
	s0.3,0.1,0.7,0.5c0.2,0.2,0.3,0.3,0.3,0.4s0,0.1-0.2,0.1h-2.2v0.8c1.3,0.2,2.1,0.7,2.1,1.3c0,0.3-0.2,0.6-0.5,0.6c0,0,0,0,0,0
	c-0.2,0-0.5-0.2-0.5-0.4c-0.2-0.5-0.5-1-1-1.3L29.6,37.3z M32.9,29.1c0.6,0.6,1.3,1,2.1,1.3c1.1,0.4,2.3,0.7,3.5,0.8
	c0.1,0,0.1,0.1,0,0.2c-0.4,0.1-0.7,0.4-0.8,0.8c-0.2,0.4-0.3,0.5-0.4,0.5c-0.2,0-0.5-0.1-0.7-0.2c-0.7-0.3-1.4-0.7-2-1.2
	c-0.6-0.5-1.2-1.1-1.7-1.8c0,1.2,0,2.3,0,2.9c0,0.4-0.3,0.5-0.8,0.5s-0.6-0.1-0.6-0.4s0-1.4,0.1-2.3c-1.5,1.3-3.3,2.3-5.3,2.7
	c-0.1,0-0.1-0.1-0.1-0.1c1.8-0.8,3.3-2,4.6-3.5h-3c-0.3,0-0.6,0-0.9,0.1l-0.1-0.5c0.3,0.1,0.7,0.1,1,0.1h3.8v-0.6
	c0-0.5,0-0.9-0.1-1.3c1.6,0.2,1.8,0.2,1.8,0.5s-0.1,0.3-0.5,0.4v1.1h2.9c0.7-0.9,0.9-1,1-1c0.1,0,0.3,0.1,1,0.7
	c0.3,0.3,0.5,0.4,0.5,0.5s0,0.1-0.2,0.1L32.9,29.1z M35.3,37.3c0,0.8,0,1.4,0,1.9s-0.2,0.5-0.7,0.5s-0.5-0.1-0.5-0.4s0-1.8,0.1-3.2
	c-0.9,1.1-2.1,2-3.5,2.7c-0.1,0-0.2-0.1-0.1-0.2c1.4-1.1,2.5-2.5,3.2-4.1h-0.6c-0.3,0-0.5,0-0.8,0.1L32.1,34
	c0.3,0.1,0.6,0.1,0.9,0.1h1v-0.6c0-0.4,0-0.8-0.1-1.3c1.2,0.1,1.7,0.2,1.7,0.4s-0.1,0.2-0.4,0.4v1.1h1.2c0.5-0.7,0.7-0.8,0.8-0.8
	s0.3,0.1,0.8,0.5c0.2,0.2,0.4,0.3,0.4,0.4s0,0.1-0.2,0.1h-2.8c0.4,0.7,0.8,1.3,1.4,1.8c0.6,0.5,1.3,0.9,2.1,1.1c0.1,0,0,0.1,0,0.1
	c-0.4,0.2-0.7,0.5-0.8,0.9c-0.1,0.2-0.1,0.2-0.2,0.2s-0.2-0.1-0.3-0.2c-0.4-0.4-0.8-0.9-1.2-1.3c-0.5-0.7-0.8-1.4-1.1-2.2V37.3z"/>
<path class="st0" d="M47,32.5c0.8,0.3,1.3,0.8,1.3,1.4c0,0.4-0.2,0.7-0.6,0.7c-0.3,0-0.6-0.1-0.8-0.4c-0.3-0.4-0.6-0.7-1-1
	c-0.4-0.4-0.9-0.6-1.5-0.8v2.4c0,0.6,0,1.9,0.1,3.4c0,0.5-0.2,0.7-0.5,0.7c-0.2,0-0.5-0.1-0.6-0.3c-0.2-0.3-0.3-0.7-0.3-1.1
	c0-0.1,0-0.3,0.1-0.4c0-0.1,0.1-0.2,0.1-0.2c0-0.2,0-0.6,0.1-3.1c0-1.3,0-2.5,0-3.8c0-0.4,0-0.8-0.1-1.2c-0.1-0.1-0.2-0.3-0.3-0.3
	c-0.2-0.1-0.3-0.2-0.5-0.2c-0.1,0-0.1-0.1-0.1-0.1s0.1-0.2,0.2-0.2c0.1-0.1,0.3-0.1,0.4-0.1c0.5,0,1,0.1,1.4,0.4
	c0.4,0.2,0.6,0.4,0.6,0.7c0,0.2-0.1,0.3-0.2,0.5c-0.1,0.1-0.1,0.2-0.1,0.3c0,0.4-0.1,1.2-0.1,2.5C45.4,32,46.2,32.2,47,32.5z"/>
<path class="st0" d="M54.7,31.2l3.8-0.4c0.2,0,0.4-0.1,0.5-0.2c0.1-0.1,0.3-0.1,0.4-0.1c0.4,0.1,0.8,0.3,1.1,0.7
	c0.3,0.3,0.3,0.4,0.3,0.6S60.6,32,60.5,32s-0.3,0.2-0.5,0.6c-0.6,1.1-1.3,2.1-2.2,3.1c-1.3,1.4-2.8,2.5-4.6,3.3
	c-0.1,0-0.2,0.1-0.3,0.1c-0.1,0-0.1,0-0.1-0.1c0,0,0,0,0,0c0-0.1,0.1-0.1,0.2-0.2c1.6-1.1,2.9-2.4,4-3.9c0.7-0.9,1.3-1.9,1.8-3
	c0-0.1,0.1-0.2,0.1-0.3c0,0,0,0-0.1,0c-0.1,0-0.2,0-0.2,0c-1.5,0.1-2.6,0.3-4,0.6c-0.3,0-0.6,0.1-0.8,0.2c-0.1,0.1-0.3,0.1-0.5,0.1
	c-0.2,0-0.4-0.1-0.8-0.4c-0.3-0.3-0.5-0.6-0.5-1c0-0.2,0.1-0.4,0.1-0.4s0.1,0,0.2,0.1c0.3,0.3,0.7,0.5,1.1,0.5
	C53.6,31.3,54.1,31.2,54.7,31.2z M55.3,28.5c0.5-0.1,1.1-0.2,1.7-0.3c0.2,0,0.4-0.1,0.6-0.2c0.2-0.1,0.4-0.1,0.5-0.1
	c0.6,0,1.2,0.3,1.2,0.6s0,0.4-0.3,0.5c-0.3,0.1-0.6,0.1-0.9,0.1c-0.6,0.1-2.1,0.2-3.2,0.4c-0.2,0-0.5,0-0.7,0
	c-0.5,0-0.8-0.2-1.2-0.8c-0.1-0.2-0.2-0.4-0.2-0.6c0-0.1,0-0.1,0.1-0.1s0.1,0,0.2,0.1c0.4,0.3,0.8,0.5,1.3,0.5
	C54.8,28.5,55.1,28.5,55.3,28.5z"/>
<path class="st0" d="M72.2,34.5c0.5,0.2,0.9,0.5,1.3,0.9c0.8,0.6,1.2,1.2,1.2,1.6c0,0.4-0.2,0.7-0.6,0.8c0,0,0,0,0,0
	c-0.4,0-0.7-0.2-0.9-0.5c-0.5-0.8-1-1.4-1.6-2.1c-0.4-0.4-0.9-0.8-1.4-1.1c-1,1.1-2.2,2-3.4,2.7c-0.8,0.5-1.6,0.8-2.4,1.1
	c-0.1,0-0.2,0.1-0.3,0.1c-0.1,0-0.1,0-0.1-0.1c0,0,0,0,0,0c0-0.1,0-0.1,0.1-0.2c1.6-0.9,3.1-2,4.4-3.4c1.1-1.1,2-2.4,2.8-3.7
	c0-0.1,0.1-0.1,0.1-0.2c0,0,0-0.1-0.2,0c-1,0.1-2.2,0.3-3.3,0.6c-0.2,0-0.4,0.1-0.6,0.2c-0.1,0.1-0.3,0.2-0.5,0.2
	c-0.3,0-0.6-0.2-0.9-0.7c-0.2-0.2-0.3-0.6-0.3-0.9c0-0.3,0.1-0.4,0.2-0.4c0.1,0,0.1,0,0.2,0.2c0.4,0.4,0.5,0.5,1,0.5
	c0.2,0,0.5,0,1.1-0.1c1.2-0.1,2.1-0.2,3.1-0.4c0.2,0,0.4-0.1,0.6-0.2c0.1-0.1,0.3-0.2,0.4-0.1c0.3,0,0.6,0.2,0.7,0.4
	c0.4,0.4,0.6,0.6,0.6,0.8s0,0.3-0.5,0.4c-0.1,0-0.2,0.1-0.3,0.3c-0.6,0.9-1.2,1.7-1.9,2.5C71.1,33.9,71.6,34.2,72.2,34.5z"/>
<path class="st0" d="M83.6,32.5c0.8,0.3,1.3,0.8,1.3,1.4c0,0.4-0.2,0.7-0.6,0.7c-0.3,0-0.6-0.2-0.8-0.4c-0.3-0.4-0.6-0.7-1-1
	c-0.4-0.4-0.9-0.6-1.4-0.8v2.4c0,0.6,0,1.9,0,3.4c0,0.5-0.2,0.7-0.5,0.7c-0.2,0-0.5-0.1-0.6-0.3c-0.2-0.3-0.3-0.7-0.3-1.1
	c0-0.1,0-0.3,0.1-0.4c0-0.1,0.1-0.2,0.1-0.2c0-0.2,0-0.6,0.1-3.1c0-1.3,0-2.5,0-3.8c0-0.4,0-0.8-0.1-1.2c-0.1-0.1-0.2-0.3-0.3-0.3
	c-0.2-0.1-0.3-0.2-0.5-0.2c-0.1,0-0.1-0.1-0.1-0.1s0.1-0.2,0.2-0.2c0.1-0.1,0.3-0.1,0.4-0.1c0.5,0,1,0.1,1.4,0.4
	c0.4,0.2,0.6,0.4,0.6,0.7c0,0.2-0.1,0.3-0.2,0.5c-0.1,0.1-0.1,0.2-0.1,0.3c0,0.4-0.1,1.2-0.1,2.5C81.9,32,82.8,32.2,83.6,32.5z"/>
<path class="st0" d="M97.3,30.8c0,0.2-0.2,0.4-0.4,0.5c-0.2,0.1-0.3,0.2-0.4,0.5c-0.9,1.5-2,2.9-3.2,4.2c-1.3,1.3-2.8,2.4-4.5,3
	c-0.1,0-0.2,0.1-0.3,0.1c-0.1,0-0.1,0-0.1-0.1s0.1-0.1,0.2-0.2c1.5-1,2.9-2.2,4.1-3.6c1.1-1.3,2-2.7,2.8-4.2c0,0,0-0.1,0-0.1
	c0,0,0,0-0.1,0c-0.3,0-0.8,0.1-1.4,0.3c-0.2,0.1-0.5,0.1-0.8,0.1c-0.3,0-0.5-0.1-0.8-0.2c-0.5,0.7-1.1,1.3-1.7,1.9
	c-0.6,0.6-1.3,1.1-2,1.6c-0.2,0.2-0.4,0.2-0.4,0.2s-0.2-0.1-0.2-0.2s0.2-0.2,0.5-0.6c0.6-0.6,1.2-1.3,1.7-2c0.4-0.5,0.8-1.1,1.1-1.7
	c0.2-0.3,0.4-0.7,0.5-1.1c0-0.2-0.2-0.4-0.5-0.5s-0.2-0.1-0.2-0.2s0.2-0.2,0.5-0.2c0.5,0.1,1,0.2,1.4,0.5c0.4,0.3,0.5,0.5,0.5,0.7
	c0,0.2-0.1,0.3-0.3,0.4c-0.2,0.2-0.4,0.4-0.6,0.7c0.1,0,0.1,0,0.2,0c0.3,0,0.6-0.1,1.1-0.1S95,30,95.1,30c0.1,0,0.2-0.1,0.3-0.2
	c0.1-0.1,0.2-0.2,0.4-0.2c0.4,0,0.9,0.3,1.1,0.6C97.1,30.4,97.2,30.6,97.3,30.8z M98,28.9c0.3,0.2,0.5,0.5,0.5,0.8
	c0,0.3-0.2,0.5-0.5,0.5c-0.2,0-0.4-0.1-0.5-0.3c-0.2-0.5-0.5-0.9-0.9-1.2c-0.1,0-0.2-0.1-0.2-0.2s0.1-0.1,0.2-0.1
	c0.1,0,0.2,0,0.3,0.1C97.4,28.5,97.7,28.6,98,28.9z M99.3,27.9c0.3,0.1,0.5,0.4,0.5,0.7c0,0.3-0.2,0.5-0.4,0.5c0,0,0,0,0,0
	c-0.2,0-0.4-0.1-0.5-0.3c-0.3-0.4-0.6-0.8-1-1.1c-0.1,0-0.2-0.1-0.2-0.2c0-0.1,0-0.1,0.1-0.1c0.1,0,0.2,0,0.4,0
	C98.6,27.5,99,27.7,99.3,27.9L99.3,27.9z"/>
<path class="st0" d="M104.6,31c-0.1,0-0.2-0.1-0.2-0.1s0.3-0.3,0.5-0.3c0.5,0.1,1,0.2,1.5,0.5c0.3,0.2,0.4,0.4,0.4,0.6
	c0,0.1-0.1,0.3-0.2,0.4c-0.1,0.1-0.2,0.3-0.2,0.5c-0.3,0.9-0.6,1.8-1.2,2.6c-0.7,1.1-1.7,2-2.8,2.6c-0.1,0-0.2,0.1-0.3,0.1
	c-0.1,0-0.1,0-0.1-0.1s0-0.1,0.1-0.2c0.8-0.7,1.5-1.5,2-2.5c0.4-0.8,0.8-1.6,1-2.4c0.1-0.3,0.2-0.7,0.2-1
	C105.3,31.4,104.9,31.2,104.6,31z M107.8,30.1c-0.1-0.2-0.4-0.4-0.6-0.5c-0.1,0-0.2,0-0.2-0.1s0.2-0.3,0.6-0.3
	c0.5,0,0.9,0.2,1.3,0.5c0.2,0.2,0.6,0.4,0.6,0.7c0,0.2-0.1,0.3-0.2,0.4c-0.1,0.1-0.1,0.2-0.1,0.3c0,0.9,0,1.8-0.1,3.2v1
	c0,0.1,0,0.2,0.1,0.2c0.1,0,0.2-0.1,0.3-0.1c1.7-0.7,3.2-1.6,4.6-2.7c0.2-0.1,0.3-0.2,0.3-0.2s0.1,0,0.1,0.1c0,0.1-0.1,0.1-0.1,0.2
	c-1.4,1.6-3,3-4.9,4c-0.1,0.1-0.2,0.2-0.3,0.3c-0.1,0.1-0.2,0.2-0.3,0.2c-0.3-0.1-0.5-0.2-0.7-0.5c-0.2-0.2-0.3-0.5-0.4-0.8
	c0-0.1,0-0.2,0-0.2c0.1-0.3,0.1-0.6,0.1-0.8c0-1.1,0-2.1,0-3.9C107.8,30.7,107.8,30.4,107.8,30.1L107.8,30.1z"/>
<path class="st0" d="M127.7,33.9c-0.4,0-1.4-0.1-2.1-0.1c-1.1,0-3.5,0.1-5.2,0.2c-0.5,0-0.9,0.1-1.4,0.3c-0.1,0.1-0.2,0.1-0.4,0.1
	c-0.4,0-0.7-0.3-1.1-1c-0.2-0.2-0.3-0.5-0.3-0.8c0-0.2,0.1-0.3,0.2-0.3s0.1,0.1,0.2,0.1c0.3,0.4,0.7,0.6,1.2,0.5
	c0.4,0,0.6,0,1.5-0.1c1.7-0.1,3.6-0.2,5-0.2c0.4,0,0.7,0,1.1-0.2c0.1-0.1,0.3-0.1,0.4-0.1c0.2,0,0.4,0.1,0.6,0.1
	c0.5,0.2,0.9,0.4,0.9,0.8C128.3,33.6,128.1,33.9,127.7,33.9C127.8,33.9,127.7,33.9,127.7,33.9z"/>
<path class="st0" d="M133.7,31.2c-0.2,0-0.3,0.1-0.5,0.2c-0.1,0.1-0.3,0.1-0.4,0.1c-0.2,0-0.5-0.2-0.8-0.6c-0.3-0.4-0.5-0.7-0.5-1
	s0.1-0.4,0.2-0.4s0.1,0.1,0.2,0.2c0.3,0.4,0.7,0.6,1.2,0.6l1-0.1c1.4-0.1,2.8-0.2,4.1-0.4c0.2,0,0.4-0.1,0.6-0.2
	c0.1-0.1,0.2-0.2,0.4-0.2c0.3,0,0.7,0.2,0.9,0.4c0.5,0.4,0.6,0.6,0.6,0.9c0,0.1-0.1,0.3-0.3,0.4c-0.3,0.1-0.5,0.4-0.6,0.7
	c-0.7,1.4-1.6,2.6-2.7,3.7c-1.3,1.3-2.9,2.4-4.6,3h-0.2c-0.1,0-0.2,0-0.2-0.2s0.1-0.1,0.2-0.2c1.5-0.9,2.9-2.1,4-3.5
	c0.8-1.1,1.6-2.3,2.2-3.6c0.1-0.1,0.2-0.3,0.2-0.5c0-0.1-0.1-0.1-0.1-0.1c-0.2,0-0.4,0-0.6,0C136.6,30.8,135,31,133.7,31.2z
	 M142.6,28.5c0,0.6-0.5,1.2-1.2,1.2c-0.6,0-1.2-0.5-1.2-1.2c0-0.6,0.5-1.2,1.2-1.2c0,0,0,0,0,0C142.1,27.4,142.6,27.9,142.6,28.5
	C142.6,28.5,142.6,28.5,142.6,28.5L142.6,28.5z M140.7,28.5c0,0.4,0.4,0.8,0.8,0.7c0.4,0,0.8-0.4,0.7-0.8c0-0.4-0.3-0.7-0.7-0.7
	C141,27.8,140.7,28.1,140.7,28.5C140.7,28.5,140.7,28.5,140.7,28.5z"/>
<path class="st0" d="M31.1,54.4c-0.1,3.2-1.4,4.7-5.1,5.3c-0.1,0-0.1-0.2,0-0.2c2.9-1.1,3.8-2.4,3.8-5.3c0-0.2,0-0.3,0-0.6
	c1.5,0.1,1.9,0.2,1.9,0.5S31.4,54.2,31.1,54.4z M36.5,52.7c0.5-0.7,0.6-0.7,0.8-0.7s0.2,0.1,0.9,0.7c0.3,0.3,0.4,0.4,0.4,0.5
	s-0.1,0.3-0.6,0.3c-0.1,0-0.3,0-0.4,0.1c-0.4,0.3-0.9,0.6-1.3,0.9c0,0-0.2,0-0.1-0.1c0.2-0.5,0.4-0.9,0.5-1.4h-8.8
	c0,1.1-0.5,1.9-1.3,1.9c-0.3,0-0.6-0.2-0.6-0.6c0,0,0,0,0,0c0-0.3,0.1-0.5,0.5-0.7c0.7-0.3,1.1-1,1.1-1.7c0-0.1,0.1-0.1,0.2,0
	c0.1,0.3,0.1,0.6,0.1,0.9L36.5,52.7z M32.7,50.9h2.5c0.7-0.8,0.8-0.9,0.9-0.9c0.1,0,0.3,0.1,0.9,0.6c0.3,0.2,0.4,0.3,0.4,0.5
	s0,0.1-0.2,0.1h-8.8c-0.3,0-0.6,0-1,0.1l-0.1-0.5c0.3,0.1,0.7,0.1,1.1,0.1h3v-1.7h-4.2c-0.3,0-0.7,0-1,0.1l-0.2-0.5
	c0.4,0.1,0.7,0.1,1.1,0.1h4.2v-0.6c0-0.5,0-0.9-0.1-1.4c1.8,0.2,1.9,0.3,1.9,0.5s-0.1,0.2-0.5,0.3v1.2h3.5c0.7-0.8,0.8-0.9,0.9-0.9
	c0.1,0,0.3,0.1,1,0.6c0.3,0.2,0.4,0.4,0.4,0.5s0,0.1-0.2,0.1h-5.6V50.9z M34.1,57.7c0,0.4,0.1,0.5,1.3,0.5c0.5,0,0.9,0,1.4-0.1
	c0.4-0.1,0.7-0.7,1.1-2c0-0.1,0.2-0.1,0.2,0c0,0.5,0,1.1,0,1.5c0,0.2,0,0.2,0.1,0.3c0.4,0.2,0.5,0.4,0.5,0.6S38.5,59,38,59.2
	c-0.9,0.2-1.8,0.3-2.7,0.2c-2,0-2.5-0.2-2.5-1.2v-2.3c0-0.8,0-1.5,0-2.3c1.8,0.3,1.8,0.3,1.8,0.5s-0.1,0.2-0.4,0.3L34.1,57.7z"/>
<path class="st0" d="M47.9,58.6h3.4c0.8-1,1-1.1,1.1-1.1s0.3,0.1,1.1,0.8c0.4,0.3,0.5,0.4,0.5,0.5s0,0.1-0.2,0.1H43
	c-0.5,0-0.9,0-1.3,0.1l-0.2-0.5c0.5,0.1,1,0.1,1.5,0.1h3.5v-9.3c0-0.7,0-1.3-0.1-2c1.8,0.2,2,0.3,2,0.5s-0.2,0.3-0.5,0.4v4.2h2.3
	c0.8-1,0.9-1.1,1-1.1s0.3,0.1,1.1,0.8c0.3,0.3,0.5,0.4,0.5,0.5s0,0.1-0.2,0.1h-4.6V58.6z"/>
<path class="st0" d="M62.3,47.6c0-0.3,0-0.6-0.1-0.8c1.8,0.2,1.9,0.3,1.9,0.5s-0.2,0.3-0.5,0.4v0.8h3.5c0.8-0.8,0.9-1,1-1
	c0.1,0,0.3,0.1,0.9,0.7c0.3,0.3,0.4,0.4,0.4,0.5s0,0.1-0.2,0.1H58c-0.3,0-0.7,0-1,0.1l-0.2-0.5c0.4,0.1,0.7,0.1,1.1,0.1h4.3
	L62.3,47.6z M67.2,53.6c0.5-0.5,0.6-0.6,0.7-0.6c0.1,0,0.2,0.1,0.8,0.5c0.2,0.2,0.3,0.3,0.3,0.4s-0.1,0.3-0.4,0.4v0.7
	c0,2.2,0,2.8,0,3.5c0,0.4-0.2,0.8-0.5,1c-0.3,0.2-0.6,0.2-0.9,0.2c-0.2,0-0.2,0-0.3-0.4s-0.3-0.6-1.2-0.9c-0.1,0-0.1-0.2,0-0.2
	c0.7,0,1,0.1,1.5,0.1c0.1,0,0.2,0,0.2-0.2V54h-8.4v5.2c0,0.4-0.2,0.6-0.8,0.6s-0.6-0.1-0.6-0.5c0-0.8,0-1.5,0-4.7c0-0.5,0-1.1,0-1.6
	c0.5,0.2,1,0.4,1.4,0.7L67.2,53.6z M60.7,52.4v0.1c0,0.4-0.2,0.5-0.8,0.5s-0.5-0.1-0.5-0.5s0-0.7,0-2.1c0-0.4,0-0.8,0-1.1
	c0.5,0.2,0.9,0.4,1.4,0.7h4.4c0.4-0.5,0.5-0.6,0.7-0.6s0.3,0.1,0.8,0.5c0.2,0.2,0.3,0.3,0.3,0.4s-0.1,0.2-0.4,0.4V51
	c0,0.8,0,1.3,0,1.5c0,0.4-0.2,0.6-0.8,0.6c-0.4,0-0.5-0.1-0.5-0.5v-0.1L60.7,52.4z M61.6,57.5v0.3c0,0.4-0.2,0.5-0.7,0.5
	s-0.5-0.1-0.5-0.5s0-0.6,0-1.9c0-0.5,0-0.9-0.1-1.4c0.6,0.3,0.7,0.3,1.4,0.6h2.7c0.4-0.4,0.5-0.5,0.6-0.5s0.3,0.1,0.8,0.5
	c0.2,0.2,0.3,0.3,0.3,0.4S66,55.8,65.7,56v0.3c0,0.7,0,1.2,0,1.4c0,0.4-0.2,0.5-0.7,0.5s-0.5-0.1-0.5-0.4v-0.2L61.6,57.5z
	 M65.3,50.3h-4.6v1.8h4.6V50.3z M64.5,55.5h-2.9v1.7h2.9V55.5z"/>
<path class="st0" d="M240.2,369.9c0.9-1.1,1.1-1.2,1.2-1.2s0.3,0.1,1.2,0.8c0.4,0.3,0.5,0.5,0.5,0.6s0,0.2-0.2,0.2h-5.6
	c0,1.7,0.1,3.3,0.1,4c0,0.5-0.3,0.7-1,0.7c-0.5,0-0.7-0.1-0.7-0.6s0.1-1.6,0.1-4.1h-5.6c-0.4,0-0.8,0-1.2,0.1l-0.2-0.6
	c0.4,0.1,0.9,0.1,1.3,0.1h1.4v-2.2c0-0.8,0-1.6-0.1-2.4c0.6,0.2,1.1,0.5,1.7,0.8h2.6v-2.9h-3c-0.9,1.4-2.1,2.6-3.6,3.5
	c-0.1,0-0.2-0.1-0.2-0.1c1.2-1.3,2.2-2.9,2.8-4.6c0.2-0.6,0.4-1.2,0.5-1.8c1.7,0.5,2.1,0.7,2.1,1s-0.2,0.3-0.7,0.4
	c-0.2,0.5-0.5,1-0.7,1.4h6.8c0.8-1,1-1.1,1.1-1.1s0.3,0.1,1.1,0.8c0.4,0.3,0.5,0.4,0.5,0.5s0,0.2-0.2,0.2h-5.1v2.9h1.9
	c0.8-0.9,0.9-1,1.1-1s0.3,0.1,1.1,0.7c0.4,0.3,0.5,0.4,0.5,0.5s-0.1,0.2-0.2,0.2h-4.3v0.5c0,0.9,0,1.9,0,2.9L240.2,369.9z
	 M235.7,366.5H233v3.5h2.8V366.5z"/>
<path class="st0" d="M197.4,388.5c0.3-0.5,0.5-1.1,0.8-1.6c0.2-0.4,0.3-0.8,0.4-1.2c1.4,0.4,2.1,0.7,2.1,0.9s-0.2,0.3-0.7,0.3
	c-0.6,0.6-1.2,1.1-1.8,1.6h3c0.8-0.9,1-1.1,1.1-1.1s0.3,0.1,1.1,0.7c0.4,0.3,0.5,0.4,0.5,0.5s-0.1,0.2-0.2,0.2h-12.8
	c-0.4,0-0.8,0-1.2,0.1l-0.2-0.6c0.4,0.1,0.9,0.1,1.3,0.1L197.4,388.5z M191.9,395.8c0,1.9,0,2.9,0,3.9c0,0.4-0.3,0.6-0.9,0.6
	s-0.7-0.1-0.7-0.5c0-0.9,0.1-1.8,0.1-5.3c0-1.5,0-3.1-0.1-4.6c0.6,0.2,1.1,0.4,1.6,0.7h2.6c0.5-0.6,0.7-0.7,0.8-0.7s0.3,0.1,0.8,0.5
	c0.2,0.2,0.3,0.3,0.3,0.4s-0.1,0.2-0.4,0.5v1.2c0,5.1,0,5.9,0,6.4c0,0.4-0.1,0.7-0.4,1c-0.3,0.2-0.7,0.4-1.2,0.3
	c-0.2,0-0.2-0.1-0.3-0.3c-0.1-0.5-0.2-0.8-1.5-1.2c-0.1,0-0.1-0.2,0-0.2c0.6,0,1.1,0.1,1.6,0.1c0.1,0,0.2,0,0.2-0.2v-2.6
	L191.9,395.8z M194.7,390.9h-2.8v2h2.8V390.9z M194.7,393.3h-2.8v2.1h2.8V393.3z M194.3,388.3c-0.4,0-0.6-0.2-0.7-0.7
	c-0.1-0.6-0.4-1.2-0.8-1.7c0-0.1,0-0.1,0-0.1c0,0,0,0,0.1,0c1.5,0.4,2.2,0.9,2.2,1.7C195.2,387.9,194.9,388.3,194.3,388.3
	C194.4,388.3,194.4,388.3,194.3,388.3L194.3,388.3z M199.3,392.2c0,2.3,0,3.9,0,4.4s-0.3,0.7-0.9,0.7s-0.6-0.1-0.6-0.6s0-1.9,0-4.8
	c0-0.5,0-1-0.1-1.4c1.8,0.2,2.1,0.3,2.1,0.5s-0.2,0.3-0.6,0.4L199.3,392.2z M201,391.3c0-0.5,0-0.9-0.1-1.4c1.9,0.2,2.1,0.3,2.1,0.5
	s-0.2,0.3-0.5,0.4v4.2c0,0.8,0.1,2.7,0.1,3.6c0,0.8-0.5,1.4-1.3,1.5c-0.1,0-0.2,0-0.3,0c-0.4,0-0.4,0-0.5-0.4s-0.4-0.8-1.7-1.1
	c-0.1,0-0.1-0.2,0-0.2c0.7,0,1.5,0.1,1.9,0.1s0.4,0,0.4-0.2V391.3z"/>
<path class="st0" d="M209.5,392.1c-0.4,0.6-0.9,1.1-1.4,1.6c-0.1,0.1-0.2-0.1-0.2-0.2c1-1.7,1.8-3.6,2.3-5.5
	c0.2-0.8,0.3-1.6,0.4-2.4c1.9,0.5,2.1,0.6,2.1,0.8s0,0.2-0.6,0.4c-0.4,1.3-1,2.6-1.7,3.8c0.8,0.1,0.9,0.2,0.9,0.4s-0.1,0.2-0.4,0.4
	v8.3c0,0.5-0.3,0.7-0.9,0.7s-0.7-0.2-0.7-0.6s0.1-1.7,0.1-4.2V392.1z M215.5,397.2c0.9-0.1,1.7-0.3,2.6-0.5c0.1,0,0.1,0.2,0.1,0.2
	c-1.7,0.9-3.5,1.6-5.4,2.1c0,0.4-0.1,0.6-0.3,0.6s-0.3-0.2-0.8-1.9c0.3,0,0.7,0,1,0c0.4,0,1-0.1,1.5-0.2v-2.8h-1.3
	c-0.3,0-0.6,0-0.9,0.1l-0.2-0.6c0.3,0.1,0.7,0.1,1,0.1h1.3v-0.6c0-0.7,0-1.3-0.1-1.8c1.7,0.2,1.9,0.3,1.9,0.5s-0.2,0.3-0.5,0.4v1.5
	h0.7c0.5-0.7,0.7-0.8,0.8-0.8s0.3,0.1,0.8,0.6c0.2,0.2,0.3,0.3,0.3,0.5s0,0.2-0.2,0.2h-2.4L215.5,397.2z M215.4,387.5
	c-0.5,1.1-1.1,2.1-1.8,3.1c1,0,2.1-0.1,3.1-0.2c-0.1-0.6-0.4-1.2-0.8-1.7c-0.1-0.1,0.1-0.2,0.1-0.1c1.4,0.8,2.2,1.6,2.2,2.4
	c0,0.5-0.3,0.9-0.8,0.9c-0.4,0-0.5-0.2-0.7-0.9v-0.1c-1.3,0.5-2.6,0.8-4,1.1c-0.1,0.3-0.2,0.4-0.4,0.4s-0.3-0.2-0.7-1.8h1.4
	c0.2-1,0.4-2.1,0.6-3.1h-0.4c-0.3,0-0.6,0-0.9,0.1l-0.2-0.6c0.3,0.1,0.7,0.1,1.1,0.1h3c0.5-0.8,0.7-0.9,0.9-0.9s0.3,0.1,0.9,0.6
	c0.3,0.2,0.4,0.4,0.4,0.5s-0.1,0.2-0.2,0.2L215.4,387.5z M221,387.3c0-0.4,0-0.9-0.1-1.3c1.8,0.2,1.9,0.3,1.9,0.5s-0.1,0.2-0.4,0.4
	v5.7c0,2.9,0.1,5,0.1,5.9c0,0.7-0.1,1-0.5,1.3c-0.3,0.2-0.8,0.4-1.2,0.4c-0.4,0-0.5-0.1-0.5-0.4c-0.1-0.6-0.4-0.8-1.6-1.2
	c-0.1,0-0.1-0.2,0-0.2c0.7,0,1.6,0.1,2.1,0.1c0.2,0,0.2,0,0.2-0.2L221,387.3z M219.9,389.6c0,3.4,0.1,5.7,0.1,6.5
	c0,0.5-0.2,0.7-0.8,0.7s-0.6-0.2-0.6-0.6s0.1-1.9,0.1-4.8c0-2.3,0-3.6-0.1-3.9c1.7,0.2,1.8,0.2,1.8,0.5s-0.1,0.3-0.4,0.4
	L219.9,389.6z"/>
<path class="st0" d="M231.1,389.2c-0.2,0.9-0.2,1.9-0.3,2.8c-0.1,1.7-0.2,3.1-0.2,4.1c0,0.8,0.1,1.3,0.4,1.5c0.5,0.3,1,0.4,1.5,0.4
	c1.2-0.1,2.4-0.4,3.5-1c1.1-0.5,2-1.3,2.8-2.2c0.1-0.1,0.2-0.2,0.3-0.2c0.1,0,0.2,0.1,0.2,0.1c0,0,0,0,0,0c0,0.2-0.1,0.3-0.2,0.4
	c-0.7,1.1-1.7,2.1-2.8,2.9c-1.3,0.9-2.8,1.3-4.3,1.3c-1.7,0-2.7-1.1-2.7-3.1c0.1-2.7,0.2-5.3,0.2-7.7c0-0.6-0.1-0.9-0.6-1.1
	s-0.5-0.2-0.5-0.3s0.1-0.2,0.3-0.3c0.2-0.1,0.5-0.1,0.7-0.1c0.6,0,1.1,0.3,1.5,0.7c0.3,0.2,0.4,0.5,0.5,0.8c0,0.2-0.1,0.4-0.2,0.5
	C231.2,389,231.1,389.1,231.1,389.2z"/>
<path class="st0" d="M251.5,389.5c-1.6,0.4-3.1,0.9-4.6,1.5c-0.2,0.1-0.4,0.2-0.6,0.4c-0.1,0.1-0.3,0.2-0.5,0.2
	c-0.3,0-0.7-0.2-1.2-0.8c-0.3-0.3-0.5-0.7-0.6-1.1c0-0.2,0.1-0.5,0.2-0.5s0.1,0,0.2,0.2c0.6,0.6,0.7,0.6,1.2,0.6
	c0.9-0.1,1.8-0.3,2.7-0.5c2-0.5,3.6-0.9,4.9-1.3c0.3-0.1,0.6-0.2,0.9-0.3c0.2-0.1,0.4-0.2,0.6-0.1c0.5,0,1,0.1,1.5,0.2
	c0.3,0.1,0.5,0.3,0.5,0.6s-0.1,0.6-0.6,0.6c-0.4,0-0.7,0-1.6,0.1c-1.4,0.1-2.7,0.7-3.7,1.7c-0.8,0.8-1.2,2-1.1,3.1
	c0,0.9,0.4,1.8,1.2,2.4c0.8,0.5,1.6,0.8,2.6,0.8c0.4,0,0.8,0.1,1.2,0.2c0.4,0.1,0.6,0.4,0.6,0.8c0,0.4-0.3,0.8-1,0.8
	c-1.1,0-2.1-0.3-3.1-0.8c-1.4-0.7-2.3-2.1-2.4-3.7c0-0.9,0.2-1.9,0.6-2.7C249.9,391,250.6,390.2,251.5,389.5L251.5,389.5z
	 M255.8,391.7c0.4,0.2,0.6,0.6,0.6,1c0,0.3-0.2,0.5-0.5,0.5c0,0,0,0,0,0c-0.2,0-0.5-0.1-0.6-0.4c-0.3-0.5-0.6-1-1-1.4
	c-0.1-0.1-0.2-0.1-0.2-0.2s0-0.1,0.1-0.1h0.3C255,391.3,255.4,391.5,255.8,391.7L255.8,391.7z M257.3,390.7c0.3,0.1,0.5,0.5,0.6,0.8
	c0,0.3-0.2,0.6-0.5,0.6c0,0,0,0,0,0c-0.2,0-0.5-0.1-0.6-0.4c-0.3-0.5-0.7-0.9-1.1-1.2c-0.1,0-0.2-0.1-0.2-0.2s0-0.1,0-0.1
	c0.1,0,0.2,0,0.2,0C256.3,390.3,256.9,390.4,257.3,390.7L257.3,390.7z"/>
<path class="st0" d="M265.7,396.9c0.3,0.7,0.8,1.1,1.5,1.4c1.2,0.3,2.4,0.4,3.6,0.4c2.1,0,4.1-0.1,6.1-0.4c0.1,0,0.1,0.1,0,0.2
	c-0.4,0.2-0.6,0.5-0.6,0.9c0,0.5-0.1,0.5-0.4,0.6c-0.9,0.1-2.8,0.1-3.9,0.1c-2.7,0-4.3-0.2-5.4-0.9c-0.8-0.6-1.3-1.4-1.5-2.3
	c-0.5,0.9-1.1,1.7-1.8,2.4c0,0.6,0,0.7-0.3,0.7s-0.6-0.6-1.2-2c0.4-0.1,0.7-0.2,1.1-0.4c0.4-0.2,0.8-0.4,1.2-0.6v-4.2h-1.1
	c-0.3,0-0.6,0-0.9,0.1l-0.2-0.6c0.3,0.1,0.7,0.1,1,0.1h1c0.6-0.6,0.7-0.7,0.8-0.7s0.3,0.1,0.9,0.6c0.3,0.2,0.4,0.3,0.4,0.5
	s0,0.2-0.5,0.5L265.7,396.9z M264.8,389.1c-0.4,0-0.6-0.2-0.8-1c-0.2-0.7-0.5-1.3-1-1.9c-0.1-0.1,0-0.2,0.1-0.1
	c1.9,0.5,2.6,1.2,2.6,2c0.1,0.5-0.3,0.9-0.8,1C264.9,389.1,264.9,389.1,264.8,389.1z M271.8,389.5h2.8c0.6-0.7,0.8-0.9,0.9-0.9
	s0.3,0.1,0.9,0.6c0.2,0.2,0.4,0.4,0.4,0.5s0,0.2-0.2,0.2h-3.7c1.1,0.4,1.4,0.5,1.4,0.7s-0.1,0.2-0.6,0.2c-0.6,0.5-0.8,0.7-1.2,1h1.7
	c0.6-0.7,0.8-0.8,0.9-0.8s0.3,0.1,0.9,0.6c0.2,0.2,0.4,0.3,0.4,0.5s0,0.2-0.2,0.2h-4.3v1.6h1.8c0.5-0.6,0.7-0.8,0.8-0.8
	s0.3,0.1,0.8,0.5c0.2,0.2,0.3,0.3,0.3,0.4s0,0.2-0.2,0.2h-3.6c0,0.5,0,1,0,1.6h2.6c0.6-0.7,0.8-0.9,0.9-0.9s0.3,0.1,0.9,0.6
	c0.3,0.2,0.4,0.4,0.4,0.5s0,0.2-0.2,0.2h-4.6c0,0.6,0,1.1,0,1.4c0,0.5-0.3,0.7-0.9,0.7c-0.5,0-0.6-0.1-0.6-0.4s0-0.7,0.1-1.6h-2.8
	c-0.3,0-0.6,0-0.9,0.1l-0.2-0.6c0.4,0.1,0.7,0.1,1.1,0.1h3v-1.6h-2.1c-0.3,0-0.6,0-0.9,0.1l-0.2-0.6c0.3,0.1,0.7,0.1,1,0.1h2.1v-1.6
	h-2.9c-0.3,0-0.6,0-0.9,0.1l-0.2-0.6c0.3,0.1,0.7,0.1,1,0.1h1.7c-0.1-0.1-0.2-0.3-0.3-0.6c-0.1-0.5-0.2-0.9-0.5-1.3
	c0-0.1,0-0.1,0.1-0.1c1.1,0.3,1.7,0.7,1.7,1.3c0,0.3-0.2,0.6-0.4,0.7h2.2c0.2-0.4,0.3-0.7,0.4-1.1l0.2-0.9h-5.2c-0.3,0-0.6,0-1,0.1
	l-0.2-0.6c0.4,0.1,0.7,0.1,1.1,0.1h3v-1.7h-2.2c-0.3,0-0.6,0-0.9,0.1l-0.2-0.6c0.3,0.1,0.7,0.1,1.1,0.1h2.3v-0.5
	c0-0.4,0-0.8-0.1-1.3c1.7,0.2,1.9,0.3,1.9,0.5s-0.1,0.3-0.4,0.4v1h1.9c0.6-0.7,0.8-0.8,0.9-0.8s0.3,0.1,0.9,0.6
	c0.2,0.2,0.4,0.3,0.4,0.4s0,0.2-0.2,0.2h-3.8L271.8,389.5z"/>
<path class="st0" d="M289.1,389c0-0.2,0-0.5,0-0.7c0-0.8-0.1-1.6-0.2-2.3c2,0.2,2,0.3,2,0.5s-0.1,0.3-0.5,0.4c0,0.8,0,1.5,0,2.2h2.7
	c0.9-1,1-1.1,1.1-1.1s0.3,0.1,0.9,0.7c0.3,0.3,0.4,0.4,0.4,0.5s-0.1,0.2-0.2,0.2h-4.8c0.1,1.7,0.4,3.4,0.9,5.1
	c0.2-0.3,0.3-0.6,0.5-1c0.4-0.8,0.6-1.7,0.8-2.6c1.4,0.4,1.8,0.6,1.8,0.9s-0.1,0.2-0.5,0.4c-0.4,1.3-1.1,2.6-1.9,3.7
	c0.4,0.6,0.8,1.2,1.3,1.7c0.4,0.4,0.7,0.6,0.8,0.6s0.5-0.4,1.1-1.7c0-0.1,0.2,0,0.2,0c-0.1,1.5-0.1,1.8-0.1,2s0,0.3,0.2,0.6
	c0.1,0.2,0.2,0.3,0.2,0.5c0,0.4-0.2,0.7-0.6,0.7c0,0-0.1,0-0.1,0c-0.7-0.1-1.4-0.4-1.9-0.9c-0.8-0.7-1.5-1.4-2-2.3
	c-1.4,1.4-3,2.4-4.9,3c-0.1,0-0.2-0.1-0.1-0.2c1.7-1,3.2-2.4,4.4-4c-0.9-2.1-1.3-4.3-1.3-6.6h-4.9c0,1.1,0,1.8-0.1,2.7h2.4
	c0.5-0.6,0.6-0.8,0.8-0.8s0.3,0.1,0.9,0.6c0.3,0.3,0.4,0.4,0.4,0.5s0,0.2-0.5,0.5c0,1.4-0.2,2.7-0.5,4c-0.1,0.4-0.4,0.7-0.7,0.9
	c-0.4,0.2-0.8,0.3-1.2,0.2c-0.2,0-0.2-0.1-0.3-0.4c-0.2-0.6-0.3-0.7-1.3-1.1c-0.1,0,0-0.2,0.1-0.2c0.4,0.1,0.9,0.2,1.4,0.2
	c0.6,0,0.7-0.1,0.9-1c0.2-1.1,0.3-2.1,0.3-3.2h-2.5c0,1.5-0.2,2.9-0.6,4.3c-0.4,1.3-1.2,2.5-2.2,3.5c-0.1,0-0.2-0.1-0.2-0.1
	c0.6-1.2,1-2.4,1.2-3.7c0.2-1.7,0.3-3.4,0.3-5c0-1.2,0-2.1-0.1-3.3c0.9,0.4,1,0.5,1.8,1L289.1,389z M293,388.5c-0.2,0-0.3,0-0.4-0.3
	c-0.3-0.7-0.7-1.2-1.3-1.6c-0.1,0,0-0.2,0-0.2c1.6,0.1,2.4,0.6,2.4,1.4C293.6,388.1,293.4,388.5,293,388.5L293,388.5z"/>
<path class="st0" d="M192.8,258.5c-0.5,0-1.1-0.1-1.6-0.1s-1.1,0-1.7,0.1l-0.5,1.5c-0.3,0.5-0.3,1-0.2,1.6c0.1,0.3,0.6,0.4,1.1,0.5
	c0.1,0,0.1,0,0.1,0.2s0,0.2-0.1,0.2c-0.5,0-1.2,0-1.8,0s-1,0-1.5,0c-0.1,0-0.1,0-0.1-0.2s0-0.2,0.1-0.2c0.3-0.1,0.6-0.2,0.8-0.4
	c0.4-0.5,0.7-1,0.9-1.6l1.7-4.5c0.6-1.8,0.8-2.2,1-2.9l1.1-0.5c0.1,0,0.2,0,0.2,0.1c0.3,0.9,0.5,1.6,1.2,3.4l1.6,4.6
	c0.2,0.6,0.4,1.1,0.7,1.6c0.2,0.3,0.4,0.3,0.9,0.4c0.1,0,0.2,0,0.2,0.2s0,0.2-0.2,0.2h-2h-2c-0.1,0-0.1,0-0.1-0.2s0-0.2,0.1-0.2
	c0.5,0,0.9-0.1,1-0.4c0.1-0.5,0-1-0.2-1.5L192.8,258.5z M191.8,255.5c-0.3-0.9-0.4-1.3-0.6-1.8c-0.2,0.6-0.3,0.9-0.6,1.8l-0.9,2.5
	c0.5,0,1,0,1.6,0s1,0,1.4,0L191.8,255.5z"/>
<path class="st0" d="M203.5,254c0-0.4,0-0.8,0-1.2c-0.1-0.2-0.3-0.3-0.5-0.3h-0.3c-0.2,0-0.2,0-0.2-0.2s0-0.2,0.2-0.2
	c0.8-0.2,1.5-0.4,2.3-0.6c0.1,0,0.2,0.1,0.2,0.1c-0.1,1-0.1,2.1-0.1,3.4v5.3c0,0.5,0,1,0.1,1.5c0.1,0.2,0.3,0.2,0.4,0.2h0.3
	c0.1,0,0.1,0,0.1,0.1s0,0.2-0.1,0.2c-0.6,0-1.6,0.1-2.2,0.2c-0.1,0-0.1,0-0.1-0.2c0-0.3,0-0.6,0-1c-0.4,0.7-1.1,1.1-1.8,1.1
	c-1.9,0-3-1.4-3-3.4c-0.2-1.7,1.1-3.3,2.9-3.5c0.1,0,0.2,0,0.4,0c0.6,0,1.2,0.3,1.6,0.7L203.5,254z M203.5,258.2
	c0-0.4-0.1-0.9-0.3-1.2c-0.2-0.5-0.7-0.8-1.2-0.8c-1.1,0-1.7,1.2-1.7,3s0.7,2.8,1.7,2.8c0.5,0,0.9-0.3,1.2-0.7
	c0.2-0.3,0.3-0.7,0.3-1.1V258.2z"/>
<path class="st0" d="M210.9,259.9c0.2,0.4,0.2,0.7,0.4,1.2c0.2-0.5,0.3-0.7,0.4-1.2l0.6-1.8c0.2-0.4,0.3-0.9,0.2-1.4
	c-0.1-0.2-0.4-0.2-0.7-0.3c-0.1,0-0.1,0-0.1-0.2s0-0.2,0.1-0.2c0.4,0,0.9,0,1.3,0s0.8,0,1.2,0c0.1,0,0.1,0,0.1,0.2
	c0,0.2,0,0.1-0.1,0.2c-0.3,0-0.5,0.2-0.7,0.3c-0.3,0.4-0.6,0.8-0.7,1.3l-0.9,2.6c-0.3,0.7-0.4,1-0.6,1.6c-0.3,0.1-0.6,0.2-0.9,0.3
	c-0.1,0-0.1,0-0.1-0.1c-0.2-0.6-0.4-1.1-0.6-1.8l-1-2.6c-0.2-0.5-0.4-1-0.7-1.4c-0.2-0.2-0.3-0.2-0.7-0.2c-0.1,0-0.1,0-0.1-0.2
	s0-0.2,0.1-0.2c0.5,0,1.1,0,1.6,0s1.2,0,1.7,0c0.1,0,0.1,0,0.1,0.2c0,0.2,0,0.2-0.1,0.2c-0.4,0-0.7,0-0.8,0.2s0.1,0.6,0.4,1.4
	L210.9,259.9z"/>
<path class="st0" d="M221.4,260.8c0,0.9,0.2,1.2,0.5,1.2c0.1,0,0.3,0,0.4-0.1c0.1,0,0.1,0,0.2,0.1c0.1,0.1,0.1,0.1,0,0.2
	c-0.3,0.2-0.8,0.4-1.2,0.3c-0.5,0-1-0.3-1.2-0.8c-0.5,0.6-1.2,0.9-2,0.8c-1.4,0-1.8-0.9-1.8-1.5c0-0.5,0.2-0.9,0.5-1.2
	c0.5-0.4,1.1-0.6,1.8-0.8c0.4-0.1,0.8-0.3,1.1-0.5c0.2-0.1,0.3-0.3,0.3-0.5v-0.4c0-1-0.3-1.5-0.8-1.5c-0.3,0-0.5,0.1-0.7,0.3
	c-0.2,0.2-0.3,0.5-0.2,0.8c0,0.4-0.4,0.7-1.1,0.7c-0.4,0-0.6-0.2-0.6-0.4c0-0.7,1.1-1.7,2.8-1.7c2.1,0,2.1,1,2.1,2.1L221.4,260.8z
	 M220,258.8c-0.1,0.2-0.3,0.3-1.1,0.6c-0.6,0.2-1.1,0.8-1,1.5c-0.1,0.5,0.3,1.1,0.8,1.1c0,0,0,0,0,0c0.7,0,1.2-0.5,1.2-1.2
	c0,0,0,0,0,0L220,258.8z"/>
<path class="st0" d="M224.4,256.8c-0.1,0-0.2,0-0.2-0.1s0-0.2,0.2-0.2c0.7-0.2,1.5-0.4,2.2-0.6c0.1,0,0.2,0.1,0.2,0.1
	c0,0.4,0,0.8,0,1.2c0.4-0.8,1.3-1.3,2.2-1.3c1.1,0,2,0.8,2,1.9c0,0,0,0,0,0.1c0,0.5,0,1.2,0,1.5v1c0,0.5,0,1,0.1,1.5
	c0.1,0.2,0.3,0.2,0.7,0.3c0.1,0,0.1,0,0.1,0.2s0,0.1-0.1,0.1c-0.5,0-1,0-1.5,0s-1.1,0-1.6,0c-0.1,0-0.1,0-0.1-0.1s0-0.2,0.1-0.2
	c0.4,0,0.6,0,0.7-0.3c0.1-0.5,0.2-1,0.1-1.5v-1.9c0-0.4,0-0.8-0.2-1.2c-0.1-0.4-0.5-0.7-1-0.7c-0.5,0-1,0.3-1.3,0.8
	c-0.2,0.3-0.3,0.7-0.3,1.1v1.9c0,0.5,0,1,0.1,1.5c0.1,0.2,0.3,0.2,0.8,0.3c0.1,0,0.1,0,0.1,0.2s0,0.1-0.1,0.1c-0.5,0-1,0-1.5,0
	s-1.1,0-1.6,0c-0.1,0-0.1,0-0.1-0.1s0-0.2,0.1-0.2c0.4,0,0.6,0,0.8-0.3c0.1-0.5,0.1-1,0.1-1.5v-2.1c0-0.4,0-0.8-0.1-1.2
	c0-0.2-0.2-0.3-0.4-0.3L224.4,256.8z"/>
<path class="st0" d="M239,256.1c0.3,0.1,0.5,0.3,0.6,0.6c0,0.5-0.1,0.9-0.6,0.9s-0.7-0.5-0.8-0.9s-0.4-0.6-0.7-0.6
	c-1.1,0-1.6,1.2-1.6,2.9s1,2.8,1.9,2.8c0.7,0,1.4-0.4,1.8-1c0.1-0.1,0.1-0.1,0.3,0s0.1,0.1,0.1,0.2c-0.5,0.9-1.5,1.5-2.5,1.5
	c-1.7,0-3.2-1.4-3.2-3.1c0-0.1,0-0.2,0-0.3c-0.1-1.8,1.3-3.4,3.2-3.5c0,0,0,0,0.1,0C237.9,255.7,238.4,255.8,239,256.1z"/>
<path class="st0" d="M243.5,259.1c0,1.9,1.1,2.8,2,2.8c0.8,0,1.5-0.3,1.9-1c0,0,0.1-0.1,0.1-0.1c0,0,0.1,0,0.1,0.1
	c0,0,0.1,0.1,0.1,0.1c0,0.1,0,0.1-0.1,0.2c-0.5,0.9-1.5,1.5-2.6,1.4c-1.8,0-3.2-1.4-3.2-3.1c0-0.1,0-0.2,0-0.3
	c-0.1-1.8,1.3-3.4,3.2-3.5c0,0,0.1,0,0.1,0c1.5,0,2.7,1.2,2.7,2.6c0,0.1,0,0.2-0.1,0.2c-0.1,0.1-0.1,0.1-0.2,0.1
	c-1.4,0-2.8-0.1-4.1,0C243.5,258.8,243.5,259,243.5,259.1z M246.2,258.1c0.1,0,0.1-0.1,0.1-0.2c0-0.8-0.4-1.7-1.2-1.7
	s-1.3,0.8-1.6,2C244.5,258.2,245.3,258.2,246.2,258.1L246.2,258.1z"/>
<path class="st0" d="M253.7,261c1.2,0,1.4-0.1,1.7-0.3c0.3-0.3,0.6-0.7,0.8-1.1c0.1-0.1,0.1-0.1,0.2-0.1c0.1,0,0.1,0.1,0.1,0.2
	c-0.2,0.7-0.5,2-0.8,2.7c-0.9,0-1.7,0-2.7,0s-1.9,0-2.8,0c-0.1,0-0.2,0-0.2-0.2c0-0.1,0-0.3,0.1-0.4c0.7-1.3,1.5-2.5,2.4-3.6
	c1.2-1.5,1.9-2.3,1.9-3.6c0-1.2-0.4-2-1.2-2c-0.5,0-1,0.3-1.2,0.8c-0.1,0.3-0.1,0.7-0.1,1c0,0.4-0.5,0.6-1,0.6s-0.7-0.1-0.7-0.5
	c0.3-1.4,1.5-2.4,3-2.4c1.9,0,2.9,1.1,2.9,2.5c0,1.8-1.3,2.5-2.7,3.8c-0.9,0.7-1.7,1.6-2.3,2.6L253.7,261z"/>
<path class="st0" d="M265.1,257.4c0,3.2-1.2,5.2-3.1,5.2s-3.1-1.9-3.1-5.2s1.1-5.3,3.1-5.3C264,252.1,265.1,254.2,265.1,257.4z
	 M260.5,257.4c0,2.9,0.3,4.8,1.5,4.8s1.5-1.9,1.5-4.8s-0.3-4.8-1.5-4.8S260.5,254.5,260.5,257.4L260.5,257.4z"/>
<path class="st0" d="M271.1,261c1.2,0,1.5-0.1,1.7-0.3c0.3-0.3,0.6-0.7,0.8-1.1c0-0.1,0.1-0.1,0.2-0.1s0.2,0.1,0.1,0.2
	c-0.2,0.7-0.5,2-0.8,2.7c-1,0-1.7,0-2.7,0s-1.9,0-2.8,0c-0.1,0-0.2,0-0.2-0.2c0-0.1,0-0.3,0.1-0.4c0.7-1.3,1.5-2.5,2.5-3.6
	c1.2-1.5,1.9-2.3,1.9-3.6c0-1.2-0.4-2-1.2-2c-0.5,0-1,0.3-1.2,0.8c-0.1,0.3-0.1,0.7-0.1,1c0,0.4-0.5,0.6-1,0.6s-0.7-0.1-0.7-0.5
	c0.3-1.4,1.5-2.4,3-2.4c1.9,0,2.9,1.1,2.9,2.5c0,1.8-1.3,2.5-2.7,3.8c-0.9,0.7-1.7,1.6-2.3,2.6L271.1,261z"/>
<path class="st0" d="M278.5,253.7c-0.8,0-1,0.1-1.1,0.3c-0.2,0.3-0.4,0.6-0.5,0.9c0,0.1-0.1,0.1-0.2,0.1s-0.2-0.1-0.2-0.1
	c0.1-0.7,0.3-1.8,0.4-2.6c0.9,0,1.8,0,2.8,0s1.8,0,2.7,0c0.1,0,0.1,0,0.1,0.3c0,0.1,0,0.2,0,0.4c-1.1,1.9-2,3.9-2.5,6.1
	c-0.1,0.6-0.2,1.2-0.2,1.9c0,0.4,0,0.6,0,0.9s-0.5,0.8-1.1,0.8s-0.9-0.2-0.9-0.6c0.1-1.2,0.4-2.5,1-3.6c0.8-1.6,1.7-3.2,2.7-4.7
	L278.5,253.7z"/>
<path class="st0" d="M192.4,278.4c-0.1,3.2-1.4,4.7-5.1,5.3c-0.1,0-0.1-0.2-0.1-0.2c2.9-1.1,3.8-2.4,3.8-5.3c0-0.1,0-0.3,0-0.6
	c1.5,0.1,1.9,0.2,1.9,0.5S192.7,278.3,192.4,278.4z M197.8,276.8c0.5-0.6,0.6-0.7,0.8-0.7s0.2,0.1,0.9,0.7c0.3,0.3,0.4,0.4,0.4,0.5
	s-0.1,0.3-0.6,0.3c-0.1,0-0.3,0-0.4,0.1c-0.4,0.3-0.9,0.6-1.3,0.9c-0.1,0-0.2,0-0.1-0.1c0.3-0.5,0.5-0.9,0.6-1.4h-8.8
	c0,1.1-0.5,1.9-1.3,1.9c-0.3,0-0.6-0.2-0.6-0.6c0,0,0,0,0,0c0-0.3,0.1-0.5,0.5-0.7c0.7-0.3,1.1-1,1.1-1.7c0-0.1,0.1-0.1,0.1,0
	c0.1,0.3,0.1,0.6,0.2,0.9L197.8,276.8z M194,275h2.5c0.7-0.8,0.8-0.9,0.9-0.9s0.3,0.1,0.9,0.6c0.3,0.2,0.4,0.4,0.4,0.5
	s0,0.1-0.2,0.1h-8.8c-0.3,0-0.7,0-1,0.1l-0.2-0.5c0.4,0.1,0.7,0.1,1.1,0.1h3v-1.7h-4.2c-0.3,0-0.7,0-1,0.1l-0.1-0.5
	c0.4,0.1,0.7,0.1,1.1,0.1h4.2v-0.6c0-0.5,0-0.9-0.1-1.4c1.8,0.1,1.9,0.3,1.9,0.5s-0.1,0.2-0.5,0.4v1.2h3.5c0.7-0.8,0.8-0.9,0.9-0.9
	s0.3,0.1,1,0.6c0.3,0.2,0.4,0.4,0.4,0.5s-0.1,0.1-0.2,0.1H194L194,275z M195.4,281.8c0,0.4,0.1,0.5,1.3,0.5c0.5,0,0.9,0,1.4-0.1
	c0.4-0.1,0.7-0.7,1.1-2c0-0.1,0.2-0.1,0.2,0c0,0.5,0,1.1,0,1.5c0,0.2,0,0.2,0.1,0.3c0.4,0.2,0.5,0.4,0.5,0.6s-0.2,0.6-0.7,0.8
	c-0.9,0.2-1.8,0.3-2.7,0.2c-2,0-2.5-0.2-2.5-1.2V280c0-0.8,0-1.5,0-2.3c1.8,0.2,1.8,0.2,1.8,0.5s-0.1,0.2-0.4,0.4L195.4,281.8z"/>
<path class="st0" d="M209.1,282.6h3.4c0.8-1,1-1.1,1.1-1.1s0.3,0.1,1.1,0.8c0.4,0.3,0.5,0.4,0.5,0.5s-0.1,0.1-0.2,0.1h-10.8
	c-0.4,0-0.9,0-1.3,0.1l-0.2-0.5c0.5,0.1,1,0.1,1.5,0.1h3.5v-9.3c0-0.7,0-1.3-0.1-2c1.9,0.1,2,0.3,2,0.5s-0.2,0.3-0.5,0.4v4.2h2.3
	c0.8-1,0.9-1.1,1-1.1s0.3,0.1,1.1,0.8c0.4,0.3,0.5,0.4,0.5,0.5s0,0.1-0.2,0.1h-4.6V282.6z"/>
<path class="st0" d="M221.2,282.5v0.6c0,0.4-0.3,0.6-0.9,0.6s-0.6-0.1-0.6-0.5c0-1.4,0.1-2.8,0.1-8.5c0-1.2,0-2.3-0.1-3.5
	c0.6,0.2,1.2,0.5,1.7,0.9h5.7c0.5-0.6,0.6-0.7,0.8-0.7s0.3,0.1,0.8,0.5c0.3,0.2,0.4,0.3,0.4,0.4s-0.1,0.3-0.4,0.5v1.7
	c0,4.4,0.1,7.5,0.1,8.5c0,0.4-0.3,0.6-0.9,0.6s-0.6-0.1-0.6-0.5v-0.6L221.2,282.5z M227.2,272.4h-6v2.9h6V272.4z M227.2,275.7h-6
	v2.9h6V275.7z M227.2,278.9h-6v3.3h6V278.9z"/>
<path class="st0" d="M235.9,275.9c0.9,0.3,1.5,0.9,1.5,1.5c0,0.4-0.2,0.7-0.6,0.7s-0.3-0.1-0.4-0.5c0-0.5-0.2-1-0.5-1.4
	c0,2.5,0.1,6,0.1,7.2c0,0.3-0.3,0.5-0.7,0.5s-0.5-0.1-0.5-0.4c0-0.7,0.1-3.8,0.1-6.3c-0.4,1.2-1.1,2.3-1.9,3.2c0,0-0.1,0-0.1-0.1
	c0.9-1.8,1.5-3.8,1.8-5.8H234c-0.3,0-0.6,0-0.9,0.1l-0.1-0.5c0.3,0.1,0.7,0.1,1,0.1h0.7v-1.4c0-0.7,0-1.2-0.1-1.8
	c1.5,0.2,1.8,0.2,1.8,0.5s-0.1,0.3-0.5,0.4v2.4l0,0c0.3-0.6,0.5-0.7,0.6-0.7s0.2,0.1,0.6,0.5c0.1,0.1,0.2,0.2,0.2,0.4
	c0,0.1,0,0.1-0.2,0.1h-1.3L235.9,275.9z M239.3,281.1c-0.8,0.9-1.8,1.5-2.9,1.9c-0.1,0-0.1-0.1-0.1-0.1c0.6-0.6,1.2-1.2,1.6-2
	c0.2-0.3,0.3-0.7,0.4-1c1.2,0.6,1.5,0.8,1.5,0.9S239.7,281.1,239.3,281.1z M241.9,280.6c0,0.3,0,1.5,0,2.1c0,0.3-0.1,0.6-0.3,0.8
	c-0.3,0.3-0.8,0.4-1.2,0.4c-0.1,0-0.2-0.1-0.2-0.3c-0.1-0.5-0.4-0.7-1.4-1c-0.1,0-0.1-0.2,0-0.2c0.6,0,1.2,0,1.6,0
	c0.2,0,0.2,0,0.2-0.2v-2.6h-2.8c-0.3,0-0.6,0-0.9,0.1l-0.2-0.5c0.3,0.1,0.7,0.1,1,0.1h5.8c0.6-0.8,0.8-0.9,0.9-0.9s0.3,0.1,0.9,0.6
	c0.3,0.2,0.4,0.4,0.4,0.5s0,0.1-0.2,0.1h-3.8L241.9,280.6z M238.7,276.4c0,0.3-0.2,0.5-0.7,0.5c-0.3,0-0.5-0.1-0.5-0.4s0-0.6,0-1.6
	c0-0.6,0-1.2-0.1-1.9c0.5,0.2,0.9,0.4,1.3,0.6h0.9v-1.5h-1.4c-0.4,0-0.7,0-1.1,0.1l-0.2-0.5c0.4,0.1,0.9,0.1,1.3,0.1h5.5
	c0.6-0.8,0.8-0.9,0.9-0.9s0.3,0.1,0.9,0.6c0.3,0.2,0.4,0.4,0.4,0.5s0,0.1-0.2,0.1h-2.9v1.5h1c0.4-0.5,0.5-0.5,0.6-0.5
	s0.3,0.1,0.7,0.5c0.2,0.2,0.3,0.3,0.3,0.4s-0.1,0.3-0.4,0.4v0.3c0,0.9,0,1.5,0,1.7s-0.2,0.4-0.7,0.4c-0.3,0-0.5-0.1-0.5-0.4v-0.1
	h-5.3L238.7,276.4z M242.6,277.6c0.6-0.7,0.7-0.8,0.8-0.8s0.3,0.1,0.8,0.6c0.2,0.2,0.4,0.3,0.4,0.4s-0.1,0.1-0.2,0.1h-5.5
	c-0.3,0-0.5,0-0.8,0.1l-0.2-0.5c0.3,0.1,0.6,0.1,0.9,0.1L242.6,277.6z M239.7,273.9h-1v2.1h1V273.9z M241.9,272.1h-1.1v1.5h1.1
	V272.1z M241.9,276v-2.1h-1.1v2.1L241.9,276z M244.9,283c-0.4,0-0.5-0.1-0.7-0.6c-0.3-0.9-0.8-1.6-1.5-2.2c-0.1,0,0-0.1,0.1-0.1
	c1.8,0.5,2.9,1.2,2.9,2.1C245.6,282.6,245.3,282.9,244.9,283C244.9,283,244.9,283,244.9,283L244.9,283z M244.1,273.9H243v2.1h1.1
	V273.9z"/>
<path class="st0" d="M76.3,391c-0.4,0.6-0.9,1.2-1.4,1.7c-0.1,0.1-0.2-0.1-0.2-0.2c1-1.7,1.7-3.6,2.2-5.5c0.2-0.8,0.3-1.6,0.4-2.4
	c1.9,0.5,2.1,0.6,2.1,0.8s0,0.2-0.6,0.4c-0.4,1.4-1,2.7-1.7,3.9c0.9,0.1,1,0.2,1,0.4s-0.1,0.2-0.4,0.4v8.3c0,0.5-0.3,0.7-0.9,0.7
	s-0.7-0.2-0.7-0.6s0.1-1.7,0.1-4.2L76.3,391z M80.2,396.8c0,1-0.4,1.9-1.2,1.9c-0.4,0-0.7-0.3-0.7-0.6c0,0,0,0,0-0.1
	c0-0.4,0.2-0.6,0.6-0.8c0.6-0.2,1-0.7,1.1-1.3c0-0.1,0.2-0.1,0.2,0C80.2,396.1,80.2,396.4,80.2,396.8L80.2,396.8z M81.1,386.9
	c1.2,0.4,1.7,0.8,1.7,1.5c0,0.3-0.3,0.6-0.6,0.7h2.6c0.1-0.4,0.2-0.7,0.3-1.1c0.1-0.3,0.1-0.7,0.2-1c1.4,0.4,1.8,0.6,1.8,0.7
	s-0.1,0.2-0.5,0.3c-0.4,0.4-0.8,0.7-1.3,1h2.2c0.7-0.8,0.9-1,1-1s0.3,0.1,1,0.7c0.3,0.2,0.4,0.4,0.4,0.5s0,0.2-0.2,0.2h-10
	c-0.4,0-0.8,0-1.2,0.1l-0.2-0.6c0.4,0.1,0.9,0.1,1.3,0.1h2.2c-0.2,0-0.4-0.2-0.4-0.5c-0.1-0.6-0.3-1.2-0.7-1.7h-0.1
	c-0.4,0-0.8,0-1.2,0.1l-0.2-0.6c0.4,0.1,0.9,0.1,1.3,0.1h2.6v-1c0-0.3,0-0.7-0.1-1c1.9,0.2,2,0.3,2,0.5s-0.2,0.2-0.5,0.4v1h2.3
	c0.7-0.8,0.9-0.9,1-0.9s0.3,0.1,1,0.6c0.3,0.3,0.4,0.4,0.4,0.5s0,0.2-0.2,0.2L81.1,386.9z M81.1,394.4c0,0.3-0.3,0.5-0.8,0.5
	s-0.7-0.2-0.7-0.6s0-0.5,0-1.6s0-1.9-0.1-2.8c0.6,0.2,1.1,0.5,1.7,0.8h5c0.5-0.6,0.7-0.7,0.8-0.7s0.3,0.1,0.8,0.5
	c0.2,0.2,0.3,0.3,0.3,0.4s-0.1,0.2-0.4,0.5v0.5c0,1.3,0,2.2,0,2.5s-0.3,0.6-0.9,0.6c-0.4,0-0.6-0.1-0.6-0.5L81.1,394.4L81.1,394.4z
	 M86.4,391h-5.3v1.3h5.3V391z M86.4,392.7h-5.3v1.3h5.3V392.7z M86.5,397.3c0,0.2,0,0.3,0.2,0.3c0.4,0.1,0.5,0.2,0.5,0.5
	s-0.2,0.6-0.8,0.7c-0.8,0.2-1.7,0.3-2.6,0.2c-2,0-2.7-0.3-2.7-1.1c0-0.3,0-0.7,0-2.1c0-0.2,0-0.5-0.1-0.7c1.6,0.2,1.8,0.2,1.8,0.4
	s-0.1,0.3-0.4,0.4v1.4c0,0.5,0.2,0.5,1.5,0.5c0.5,0,0.9,0,1.4-0.1c0.4-0.2,0.6-0.6,0.9-1.6c0-0.1,0.2-0.1,0.2,0L86.5,397.3z
	 M84.5,397.1c-0.4,0-0.4-0.1-0.7-0.9c-0.1-0.5-0.4-0.9-0.7-1.2c0-0.1,0-0.1,0.1-0.1c1.4,0.2,2,0.7,2,1.4
	C85.2,396.7,84.9,397,84.5,397.1C84.5,397,84.5,397,84.5,397.1L84.5,397.1z M88.9,398.4c-0.4,0-0.6-0.2-0.7-1
	c-0.1-0.7-0.4-1.3-0.9-1.7c-0.1,0,0-0.2,0.1-0.1c1.6,0.5,2.3,1.1,2.3,1.9C89.7,397.9,89.4,398.3,88.9,398.4
	C88.9,398.4,88.9,398.4,88.9,398.4L88.9,398.4z"/>
<path class="st0" d="M97,398.5c0,0.4-0.3,0.6-1,0.6s-0.7-0.1-0.7-0.5c0-1.4,0.1-2.9,0.1-8.7c0-1.7,0-3.3-0.1-5l1.8,0.9h9
	c0.6-0.7,0.7-0.8,0.8-0.8s0.3,0.1,0.9,0.6c0.3,0.2,0.4,0.4,0.4,0.5s-0.1,0.2-0.4,0.5v1.8c0,7.8,0,8.1,0,9s-0.2,1.2-0.8,1.4
	c-0.3,0.1-0.6,0.2-0.9,0.2c-0.3,0-0.3-0.1-0.4-0.4c-0.1-0.5-0.4-0.9-1.9-1.3c-0.1,0-0.1-0.2,0-0.2c0.8,0,1.6,0,2.1,0
	c0.2,0,0.3-0.1,0.3-0.3v-5.2H97L97,398.5z M100.7,391.3v-5.2H97v5.2H100.7z M106.3,386.1h-3.9v5.2h3.9L106.3,386.1z"/>
<path class="st0" d="M135,399c-0.1,0-0.2-0.1-0.1-0.2c4.4-3.1,6.1-6.5,6.1-12.4c0-0.4,0-0.9-0.1-1.3c2.1,0.2,2.3,0.2,2.3,0.5
	s-0.1,0.2-0.6,0.5c0,0.5,0,1-0.1,1.5c0.2,1.9,0.8,3.8,1.8,5.5c1.2,1.9,3.1,3.4,5.2,4.2c0.1,0,0.1,0.2,0,0.2c-0.5,0.1-1,0.6-1.1,1.1
	c-0.1,0.3-0.2,0.3-0.3,0.3c-0.3-0.1-0.6-0.3-0.8-0.5c-1.8-1.3-3.1-3.1-4-5.1c-0.5-1.4-0.9-2.8-1-4.3
	C141.9,394.2,139.7,396.9,135,399z"/>
<path class="st1" d="M41.8,345.2c3.2-0.1,6.5,0.4,9.5,1.4c2.4,0.8,4.5,2.2,6.1,4.1c1.5,1.9,2.2,4.2,2.1,6.5c0,1.7-0.4,3.5-1.2,5
	c-0.7,1.3-1.7,2.5-3,3.4c-1.2,0.8-2.6,1.4-4.1,1.6c-1.4,0.3-2.9,0.2-4.2-0.2c1.5,0,3.1,0.2,4.6,0.7c1.7,0.5,3.3,1.2,4.7,2.3
	c1.6,1.1,2.9,2.6,3.8,4.3c1,2.1,1.5,4.4,1.5,6.7c0.1,3-0.7,6-2.3,8.6c-1.5,2.5-3.6,4.6-6.1,6.2c-2.7,1.6-5.6,2.8-8.7,3.4
	c-3.2,0.7-6.6,0.9-9.9,0.6c-3.4-0.3-6.6-1.2-9.7-2.6l0.1-0.7c2.8,0.1,5.5-0.3,8.2-1c2.5-0.7,4.8-1.8,6.8-3.3
	c1.9-1.4,3.5-3.2,4.7-5.3c1.2-2.1,1.8-4.6,1.7-7c0.1-2.4-0.6-4.8-2-6.8c-1.3-1.7-3-3-5-3.8c-1.9-0.8-3.9-1.2-6-1.2l0.1-0.7
	c2.1,0.1,4.1-0.5,6-1.5c1.8-1,3.3-2.5,4.3-4.3c1-1.9,1.4-4,1.2-6.1c-0.1-1.5-0.6-3-1.5-4.2c-0.8-1-1.9-1.8-3.1-2.2
	c-1.3-0.4-2.6-0.6-4-0.4c-2.5,0-4.8,1.4-6,3.7c-1.2,2.2-1.7,5.5-1.6,9.9h-0.7l-4-12.1c2.1-1.7,4.6-2.9,7.2-3.6
	C34.9,345.6,38.4,345.1,41.8,345.2z"/>
<path class="st1" d="M190.3,322.2l37.1-0.1l-9,20.8c-0.6,1.4-1.3,3-2,4.9s-1.4,4-2.2,6.2s-1.5,4.4-2.2,6.5s-1.3,4.1-1.9,6
	s-1,3.4-1.4,4.7h-11.9c0.8-1.4,1.8-3.1,3-5.1c1.2-2,2.4-4.1,3.6-6.3s2.5-4.5,3.7-6.7s2.4-4.3,3.3-6.2s1.8-3.5,2.4-4.7l3.6-7.8h-22.4
	c-1.2-0.1-2.4,0.3-3.3,1c-0.9,0.9-1.6,1.9-2,3.1h-0.7L190.3,322.2z"/>
<path class="st0" d="M23.8,257c-0.5,0.4-1,0.8-1.6,1.1c-0.1,0-0.1-0.1-0.1-0.1c0.9-0.9,1.7-2,2.3-3.1c0.3-0.5,0.6-1,0.7-1.6
	c1.4,0.7,1.5,0.7,1.5,0.9s-0.1,0.2-0.5,0.3c-0.4,0.6-0.8,1.1-1.2,1.6c0.5,0.1,0.6,0.1,0.6,0.3s-0.1,0.2-0.4,0.3v5.8
	c0,0.4-0.2,0.6-0.7,0.6c-0.3,0-0.6-0.1-0.6-0.5s0.1-1.5,0.1-3.7L23.8,257z M25.9,251.3c-0.9,1.2-2.1,2.2-3.5,2.9
	c0,0-0.1-0.1-0.1-0.1c0.7-0.7,1.4-1.6,1.9-2.5c0.3-0.5,0.5-0.9,0.6-1.5c1.1,0.4,1.7,0.7,1.7,0.9S26.3,251.3,25.9,251.3L25.9,251.3z
	 M31.1,261.3c0.6,0.1,1.1,0.2,1.7,0.2c0.8,0,1.7-0.1,2.5-0.2c0.1,0,0,0.1,0,0.2c-0.4,0.2-0.6,0.5-0.6,0.9c-0.1,0.3-0.1,0.4-0.2,0.4
	h-0.4c-1.4,0.1-2.9-0.2-4.2-0.8c-0.9-0.6-1.6-1.5-2-2.6c-0.5,1.3-1.4,2.5-2.5,3.4c0,0-0.1-0.1-0.1-0.1c1.3-1.8,1.9-3.9,1.9-6.1
	c0-0.2,0-0.4,0-0.7c1.4,0.2,1.7,0.3,1.7,0.5s-0.1,0.2-0.4,0.3c-0.1,0.8-0.2,1.6-0.5,2.4c0.4,0.8,1,1.5,1.9,1.9v-6.8h-2.2
	c-0.3,0-0.6,0-0.8,0.1l-0.2-0.5c0.3,0.1,0.6,0.1,0.9,0.1h3.1c0.4-0.8,0.7-1.6,1-2.5l0.2-1c1.4,0.5,1.8,0.7,1.8,0.9s-0.1,0.2-0.5,0.2
	c-0.6,0.9-1.2,1.6-1.9,2.3H33c0.6-0.8,0.8-0.9,0.9-0.9s0.3,0.1,0.9,0.6c0.3,0.2,0.4,0.4,0.4,0.4s0,0.1-0.2,0.1h-3.9v3.1h1.3
	c0.6-0.7,0.8-0.9,0.9-0.9s0.3,0.1,0.9,0.6c0.2,0.2,0.4,0.3,0.4,0.4s0,0.1-0.2,0.1h-3.2V261.3z M28.9,253.3c-0.4,0-0.5-0.1-0.6-1.1
	c-0.1-0.6-0.4-1.1-0.7-1.6c0-0.1,0-0.1,0.1-0.1c1.4,0.5,2.1,1.2,2.1,1.9C29.8,252.8,29.5,253.3,28.9,253.3
	C29,253.3,29,253.3,28.9,253.3L28.9,253.3z"/>
<path class="st0" d="M44.8,258.9c0.7,0.6,1.5,1,2.3,1.4c1.2,0.5,2.4,0.7,3.7,0.8c0.1,0,0.1,0.1,0,0.2c-0.5,0.2-0.7,0.3-1,1.2
	c0,0.1-0.1,0.2-0.2,0.1c-0.2,0-0.4-0.1-0.7-0.2c-0.9-0.3-1.7-0.8-2.5-1.4c-0.7-0.5-1.3-1.1-1.8-1.9c0,1.8,0.1,3.1,0.1,3.5
	s-0.2,0.5-0.8,0.5c-0.4,0-0.5-0.2-0.5-0.5s0.1-1.7,0.1-2.9c-1.5,1.5-3.4,2.5-5.5,2.8c-0.1,0-0.1-0.1-0.1-0.1c1.8-0.8,3.4-2,4.7-3.6
	h-3.3c-0.3,0-0.7,0-1,0.1l-0.2-0.5c0.4,0.1,0.7,0.1,1.1,0.1h4.3v-1.3h-2.7c-0.3,0-0.7,0-1,0.1l-0.2-0.5c0.4,0.1,0.7,0.1,1.1,0.1h2.8
	v-1.3h-3.5c-0.3,0-0.7,0-1,0.1l-0.2-0.5c0.4,0.1,0.7,0.1,1.1,0.1h2.3c-0.2-0.1-0.3-0.2-0.4-0.6c-0.1-0.5-0.4-0.9-0.7-1.2
	c0-0.1,0-0.1,0.1-0.1c1.3,0.2,1.9,0.6,1.9,1.3c0,0.3-0.2,0.6-0.5,0.7h2.3c0.2-0.4,0.4-0.8,0.6-1.2c0.1-0.3,0.2-0.6,0.3-0.9
	c1.1,0.4,1.6,0.7,1.6,0.8s-0.1,0.2-0.6,0.2c-0.4,0.4-0.9,0.7-1.4,1h2.3c0.7-0.7,0.8-0.9,0.9-0.9s0.3,0.1,0.9,0.6
	c0.3,0.2,0.4,0.3,0.4,0.4s0,0.1-0.2,0.1h-5v1.3h2.2c0.6-0.7,0.8-0.8,0.9-0.8s0.3,0.1,0.8,0.5c0.2,0.2,0.3,0.3,0.3,0.4s0,0.1-0.2,0.1
	h-4v1.3h3.5c0.7-0.8,0.9-0.9,1-0.9s0.3,0.1,0.9,0.6c0.3,0.2,0.4,0.4,0.4,0.5s0,0.1-0.2,0.1L44.8,258.9z M42.1,251.2
	c0-0.3,0-0.7-0.1-1c1.6,0.1,1.7,0.3,1.7,0.4s-0.1,0.2-0.5,0.4v2h1.2v-1.8c0-0.3,0-0.7-0.1-1c1.6,0.2,1.8,0.3,1.8,0.4
	s-0.1,0.2-0.5,0.4v2h0.6c0.3-0.5,0.6-1,0.8-1.6c0.1-0.3,0.2-0.6,0.3-0.9c1.2,0.5,1.7,0.8,1.7,0.9s-0.1,0.3-0.6,0.3
	c-0.5,0.5-1.1,1-1.7,1.4h1.6c0.6-0.7,0.8-0.8,0.9-0.8s0.3,0.1,0.9,0.6c0.3,0.2,0.4,0.3,0.4,0.4s0,0.1-0.2,0.1H39.1
	c-0.3,0-0.7,0-1,0.1l-0.2-0.5c0.4,0.1,0.8,0.1,1.1,0.1h3V251.2z M40.6,252.7c-0.3,0-0.5-0.1-0.6-0.6c-0.1-0.5-0.4-1-0.8-1.4
	c-0.1,0,0-0.1,0.1-0.1c1.3,0.2,2,0.7,2,1.4C41.4,252.4,41,252.7,40.6,252.7L40.6,252.7z"/>
<path class="st0" d="M58.1,261.7c-1.4,0.7-3,1.2-4.6,1.3c-0.1,0-0.1-0.1,0-0.2c1-0.4,1.9-0.8,2.8-1.4c0.4-0.2,0.7-0.5,1-0.9
	c1.3,0.6,1.6,0.8,1.6,1S58.7,261.8,58.1,261.7z M56.4,260.2c0,0.4-0.2,0.6-0.8,0.6s-0.6-0.1-0.6-0.5c0-0.6,0.1-1.3,0.1-3.6
	c0-0.9,0-1.9-0.1-2.8c0.5,0.2,1,0.5,1.5,0.7h6.3c0.5-0.5,0.6-0.6,0.7-0.6s0.3,0.1,0.8,0.5c0.3,0.2,0.3,0.3,0.3,0.4s-0.1,0.2-0.4,0.4
	v0.9c0,2,0.1,3.4,0.1,3.9s-0.2,0.6-0.8,0.6s-0.6-0.1-0.6-0.5v0L56.4,260.2L56.4,260.2z M57,253.5c0,0.4-0.3,0.5-0.8,0.5
	c-0.3,0-0.6-0.1-0.6-0.4s0-0.9,0-1.7c0-0.6,0-0.9,0-1.5c0.5,0.2,1,0.5,1.5,0.7h5c0.5-0.6,0.6-0.6,0.7-0.6s0.3,0.1,0.8,0.5
	c0.2,0.2,0.3,0.3,0.3,0.4s-0.1,0.2-0.4,0.4v0.3c0,0.7,0,1.2,0,1.4c0,0.4-0.3,0.5-0.8,0.5s-0.6-0.1-0.6-0.5H57z M62.9,255h-6.6v1.4
	h6.6V255z M56.4,258.1h6.6v-1.4h-6.6V258.1z M56.4,259.9h6.6v-1.4h-6.6V259.9z M62.4,251.5H57v1.7h5.3L62.4,251.5z M64.5,263
	c-0.3,0-0.4-0.1-0.8-0.4c-0.8-0.8-1.9-1.4-3-1.7c-0.1,0,0-0.1,0-0.1c3.1,0.1,4.4,0.6,4.4,1.6C65.2,262.7,64.9,263,64.5,263
	C64.5,263,64.5,263.1,64.5,263L64.5,263z"/>
<path class="st0" d="M78.8,256.4c0.8-1,1-1.1,1.1-1.1s0.3,0.1,1.1,0.8c0.4,0.3,0.5,0.4,0.5,0.5s0,0.1-0.2,0.1h-11
	c-0.4,0-0.8,0-1.4,0.1l-0.2-0.5c0.5,0.1,1,0.1,1.5,0.1H78.8z"/>
<path class="st0" d="M84.1,262.8c-0.1,0-0.2-0.1-0.1-0.1c3.8-2.7,5.3-5.7,5.3-10.8c0-0.4,0-0.8-0.1-1.2c1.8,0.2,2,0.2,2,0.5
	s-0.1,0.2-0.5,0.4c0,0.4,0,0.9,0,1.3c0.2,1.7,0.7,3.4,1.6,4.8c1.1,1.7,2.7,3,4.6,3.7c0.1,0,0.1,0.2,0,0.2c-0.5,0.1-0.7,0.4-0.9,1
	c-0.1,0.2-0.1,0.3-0.3,0.3c-0.3-0.1-0.5-0.2-0.7-0.4c-1.5-1.2-2.7-2.7-3.5-4.5c-0.5-1.2-0.8-2.5-0.9-3.8
	C90.2,258.6,88.3,261,84.1,262.8z"/>
<path class="st0" d="M109.2,256.1c0.5-0.6,0.6-0.6,0.7-0.6s0.3,0.1,0.8,0.5c0.2,0.2,0.3,0.3,0.3,0.4s0,0.1-0.4,0.4v0.9
	c0,2.5,0,4.2,0,4.7c0,0.4-0.3,0.6-0.8,0.6c-0.4,0-0.5-0.1-0.5-0.5v-0.4h-7.8c-0.3,0-0.6,0-0.9,0.1l-0.2-0.5c0.4,0.1,0.7,0.1,1.1,0.1
	h7.9v-2.7H102c-0.3,0-0.6,0-0.9,0.1l-0.2-0.5c0.4,0.1,0.7,0.1,1.1,0.1h7.3v-2.4h-7.6c-0.3,0-0.7,0-1,0.1l-0.2-0.5
	c0.4,0.1,0.8,0.1,1.1,0.1h3.2v-4.4c0-0.4,0-0.9-0.1-1.3c1.7,0.1,1.9,0.3,1.9,0.4s-0.2,0.2-0.5,0.4v4.9L109.2,256.1z M102.8,255.1
	c-0.4,0-0.6-0.2-0.7-0.9c-0.2-1-0.6-1.9-1.2-2.6c0-0.1,0-0.1,0.1-0.1c1.7,0.7,2.6,1.7,2.6,2.7C103.5,254.7,103.2,255.1,102.8,255.1
	L102.8,255.1z M110.5,252.5c-0.8,1.1-1.7,2.2-2.8,3c-0.1,0-0.2-0.1-0.2-0.1c0.6-0.9,1-1.9,1.4-2.9c0.2-0.4,0.3-0.8,0.4-1.2
	c1.3,0.5,1.7,0.7,1.7,0.9S111,252.4,110.5,252.5L110.5,252.5z"/>
<path class="st0" d="M121.1,252.9c0.2,0,0.4,0,0.6,0.1c0.2,0.1,0.3,0.2,0.3,0.4c0,0.2-0.1,0.4-0.4,0.5c-0.8,0.3-1.5,0.5-2.3,0.7
	c-0.2,0.6-0.7,1.9-1,2.7s-0.8,2.2-1.6,4.1c-0.2,0.5-0.5,0.7-0.8,0.7c-0.2,0-0.3-0.1-0.4-0.2c-0.1-0.1-0.2-0.3-0.2-0.5
	c0.1-0.4,0.2-0.7,0.4-1c0.9-1.8,1.8-3.7,2.5-5.6c-0.5,0.1-1,0.2-1.5,0.2c-0.5,0.1-1-0.2-1.3-0.6c-0.2-0.2-0.3-0.5-0.4-0.7
	c0-0.1,0-0.1,0.1-0.1s0.1,0.1,0.2,0.1c0.3,0.3,0.7,0.4,1.1,0.4c0.7,0,1.4-0.1,2.2-0.3c0.2-0.6,0.4-1.2,0.4-1.8
	c0-0.2-0.1-0.4-0.3-0.5c-0.2-0.1-0.3-0.1-0.5-0.2c-0.1,0-0.2-0.1-0.2-0.1s0-0.2,0.2-0.2c0.2-0.1,0.4-0.2,0.7-0.2
	c0.5,0,1,0.2,1.4,0.6c0.1,0.1,0.2,0.2,0.2,0.4c0,0.2-0.1,0.3-0.2,0.4c-0.3,0.2-0.3,0.5-0.7,1.4c0.3-0.1,0.6-0.2,0.9-0.4
	C120.7,253,120.9,252.9,121.1,252.9z M120.9,258.8c-0.1,0.3-0.1,0.6-0.1,0.9c0,0.8,0.7,1.3,2.1,1.3c0.5,0,0.9,0,1.4-0.1
	c0.2-0.1,0.5-0.1,0.7-0.1c0.2,0,0.5,0.1,0.7,0.2c0.2,0.1,0.4,0.3,0.3,0.6c0,0.4-0.3,0.5-0.8,0.6c-0.5,0.1-1,0.1-1.5,0.1
	c-0.6,0-1.3-0.1-1.9-0.2c-1-0.2-1.7-1-1.7-2c0-0.5,0.1-1,0.4-1.4c0.1-0.1,0.2-0.2,0.2-0.2s0.1,0,0.1,0.1
	C120.9,258.6,120.9,258.7,120.9,258.8z M122.4,255.8c-0.6,0.1-1.1,0.3-1.6,0.5c0,0-0.1,0-0.1,0c-0.1,0-0.1,0-0.1-0.1s0-0.1,0.1-0.2
	c0.4-0.4,0.8-0.6,1.3-0.9c0.6-0.2,1.2-0.3,1.8-0.3c0.5,0,1.1,0.1,1.6,0.3c0.3,0.1,0.5,0.4,0.5,0.7c0,0.2-0.2,0.4-0.5,0.4
	c0,0,0,0,0,0c-0.2,0-0.4,0-0.6-0.1c-0.2,0-0.3,0-0.5,0c-0.7,0.1-1.4,0.4-2,0.8c-0.1,0-0.1,0.1-0.2,0.1c-0.1,0-0.1-0.1-0.1-0.1
	c0.4-0.4,0.9-0.8,1.3-1.2C122.9,255.7,122.6,255.7,122.4,255.8L122.4,255.8z"/>
<path class="st0" d="M132.4,254.4c0.2-0.6,0.4-1.1,0.8-1.6c0.3-0.4,0.7-0.6,1.2-0.6c0.7,0,1.3,0.4,1.6,1c0.5,0.9,0.7,1.9,0.7,2.9
	c0.1,1.3-0.3,2.6-1,3.7c-0.5,0.7-1.1,1.3-1.8,1.7c-0.7,0.5-1.6,0.8-2.4,1c-0.1,0-0.3,0.1-0.4,0.1c-0.1,0-0.2,0-0.2-0.1
	s0.1-0.1,0.2-0.2c1.4-0.5,2.5-1.4,3.3-2.5c0.7-1.2,1-2.5,0.9-3.8c0-0.8-0.1-1.6-0.3-2.3c-0.2-0.6-0.5-0.8-0.9-0.8
	c-0.6,0-1.1,0.5-1.8,3.4c-0.1,0.5-0.2,1-0.3,1.5c0,0.3,0,0.6,0.1,0.9c0,0.4-0.1,0.5-0.5,0.5c-0.3,0-0.8-0.5-0.9-1
	c-0.2-0.6-0.2-1.2-0.2-1.9c0-1,0.1-2,0.3-3.1c0.1-0.4,0.1-0.8,0.1-1.2c0-0.3-0.1-0.6-0.4-0.9c-0.1-0.1-0.1-0.1-0.1-0.2
	s0.1-0.2,0.3-0.2c0.1,0,0.3,0.1,0.4,0.2c0.4,0.2,0.8,0.6,1,1c0.1,0.2,0.2,0.4,0.2,0.6c0,0.2-0.1,0.3-0.2,0.4
	c-0.1,0.1-0.2,0.3-0.2,0.4c-0.3,0.8-0.5,1.6-0.5,2.4c0,0.3,0,0.5,0,0.8c0,0.1,0.1,0.1,0.2,0C131.9,255.6,132.1,255.1,132.4,254.4z"
	/>
<path class="st0" d="M146.8,254c0,0.5-0.1,1-0.3,1.5c-0.2,0.7-0.5,1.4-0.9,2c-0.4,0.8-0.9,1.6-1.6,2.3c-0.3,0.4-0.7,0.6-1.2,0.6
	c-0.4,0-0.8-0.2-1.1-0.5c-0.6-0.7-0.9-1.6-0.8-2.5c0-0.7,0.2-1.5,0.6-2.1c0.4-0.8,1.1-1.5,1.9-2c1-0.6,2.2-0.9,3.4-0.9
	c1.3-0.1,2.5,0.3,3.5,1.1c1.1,0.9,1.7,2.2,1.6,3.6c0,1.1-0.5,2.2-1.3,2.9c-0.6,0.5-1.3,1-2.1,1.2c-0.9,0.3-1.9,0.5-2.9,0.5
	c-0.2,0-0.3,0-0.3-0.1s0.1-0.1,0.3-0.2c1.4-0.2,2.6-0.9,3.6-1.8c0.9-0.8,1.3-2,1.3-3.2c0.1-1-0.4-2-1.2-2.6
	c-0.7-0.5-1.4-0.7-2.2-0.8c-0.3,0-0.6,0-0.9,0C146.6,253.1,146.7,253.6,146.8,254z M143.4,254.1c-0.5,0.5-0.9,1.1-1.2,1.7
	c-0.2,0.4-0.2,0.9-0.2,1.3c0,0.5,0.1,1.1,0.4,1.5c0.1,0.2,0.4,0.4,0.6,0.5c0.2,0,0.4-0.1,1-0.9c0.8-1.1,1.4-2.2,1.9-3.4
	c0.2-0.4,0.3-0.8,0.3-1.2c0-0.2-0.1-0.5-0.3-0.6C144.9,253.1,144.1,253.5,143.4,254.1L143.4,254.1z"/>
<path class="st0" d="M27.6,277.7c-0.1,3.2-1.4,4.7-5.1,5.3c-0.1,0-0.1-0.2-0.1-0.2c2.9-1.1,3.8-2.4,3.8-5.3c0-0.2,0-0.3,0-0.6
	c1.5,0.1,1.9,0.2,1.9,0.5S28,277.6,27.6,277.7z M33,276c0.5-0.6,0.7-0.7,0.8-0.7s0.2,0.1,0.9,0.7c0.3,0.3,0.4,0.4,0.4,0.5
	s-0.1,0.3-0.6,0.3c-0.1,0-0.3,0-0.4,0.1c-0.4,0.3-0.9,0.6-1.3,0.9c0,0-0.2,0-0.1-0.1c0.3-0.5,0.5-0.9,0.6-1.5h-8.8
	c0,1.1-0.5,1.9-1.3,1.9c-0.3,0-0.6-0.2-0.6-0.6c0,0,0,0,0,0c0-0.3,0.1-0.5,0.5-0.7c0.7-0.3,1.1-1,1.1-1.7c0-0.1,0.1-0.1,0.1,0
	c0.1,0.3,0.1,0.6,0.1,0.9L33,276z M29.3,274.2h2.5c0.7-0.8,0.8-0.9,0.9-0.9c0.1,0,0.3,0.1,0.9,0.6c0.3,0.2,0.4,0.4,0.4,0.5
	s0,0.1-0.2,0.1H25c-0.3,0-0.7,0-1,0.1l-0.1-0.5c0.3,0.1,0.7,0.1,1.1,0.1h3v-1.7h-4.1c-0.3,0-0.7,0-1,0.1l-0.2-0.5
	c0.4,0.1,0.7,0.1,1.1,0.1h4.2v-0.6c0-0.5,0-0.9-0.1-1.4c1.8,0.2,1.9,0.3,1.9,0.5s-0.1,0.2-0.5,0.3v1.1h3.5c0.7-0.8,0.8-0.9,0.9-0.9
	c0.1,0,0.3,0.1,1,0.6c0.3,0.3,0.4,0.4,0.4,0.5s0,0.1-0.2,0.1h-5.6V274.2z M30.6,281c0,0.4,0.1,0.5,1.3,0.5c0.5,0,0.9,0,1.4-0.1
	c0.4-0.1,0.6-0.7,1.1-2c0-0.1,0.2-0.1,0.2,0c0,0.5,0,1.1,0,1.5c0,0.2,0,0.2,0.1,0.3c0.4,0.2,0.5,0.4,0.5,0.6s-0.2,0.6-0.7,0.8
	c-0.9,0.2-1.8,0.3-2.7,0.2c-2,0-2.5-0.2-2.5-1.2v-2.3c0-0.8,0-1.5,0-2.3c1.8,0.2,1.8,0.2,1.8,0.5s-0.1,0.2-0.4,0.4L30.6,281z"/>
<path class="st0" d="M44.4,281.9h3.4c0.8-1,1-1.1,1.1-1.1s0.3,0.1,1.1,0.8c0.4,0.3,0.5,0.4,0.5,0.5s0,0.1-0.2,0.1H39.5
	c-0.4,0-0.9,0-1.3,0.1l-0.2-0.5c0.5,0.1,1,0.1,1.5,0.1H43v-9.3c0-0.7,0-1.3-0.1-2c1.8,0.1,2,0.3,2,0.5s-0.2,0.3-0.5,0.4v4.2h2.3
	c0.8-1,0.9-1.1,1-1.1s0.3,0.1,1.1,0.8c0.3,0.3,0.5,0.4,0.5,0.5s0,0.1-0.2,0.1h-4.6V281.9z"/>
<path class="st0" d="M58.8,271c0-0.3,0-0.5-0.1-0.8c1.8,0.1,1.9,0.3,1.9,0.5s-0.2,0.3-0.5,0.4v0.8h3.4c0.8-0.8,0.9-1,1-1
	c0.1,0,0.3,0.1,0.9,0.7c0.3,0.2,0.4,0.4,0.4,0.5s0,0.1-0.2,0.1H54.6c-0.3,0-0.7,0-1,0.1l-0.2-0.5c0.4,0.1,0.7,0.1,1.1,0.1h4.3
	L58.8,271z M63.7,277c0.5-0.5,0.6-0.6,0.7-0.6s0.2,0.1,0.8,0.5c0.2,0.2,0.3,0.3,0.3,0.4s-0.1,0.3-0.4,0.4v0.7c0,2.2,0,2.8,0,3.5
	c0,0.4-0.2,0.8-0.5,1c-0.3,0.2-0.6,0.2-0.9,0.2c-0.2,0-0.2,0-0.3-0.4s-0.3-0.6-1.2-0.9c-0.1,0-0.1-0.2,0-0.2c0.7,0.1,1,0.1,1.5,0.1
	c0.1,0,0.2,0,0.2-0.2v-4.2h-8.4v5.2c0,0.4-0.2,0.6-0.8,0.6s-0.5-0.1-0.5-0.5c0-0.8,0-1.5,0-4.6c0-0.5,0-1.1,0-1.6
	c0.5,0.2,1,0.4,1.4,0.7L63.7,277z M57.3,275.8v0.1c0,0.4-0.2,0.5-0.8,0.5s-0.5-0.1-0.5-0.5s0-0.7,0-2.1c0-0.4,0-0.8,0-1.1
	c0.5,0.2,0.9,0.4,1.4,0.7h4.4c0.4-0.5,0.5-0.6,0.7-0.6s0.3,0.1,0.8,0.5c0.2,0.2,0.3,0.3,0.3,0.4s-0.1,0.2-0.4,0.4v0.3
	c0,0.8,0,1.3,0,1.5c0,0.4-0.2,0.6-0.8,0.6c-0.4,0-0.5-0.1-0.5-0.5v-0.1H57.3z M58.1,280.9v0.3c0,0.4-0.2,0.5-0.7,0.5
	c-0.4,0-0.5-0.1-0.5-0.5s0-0.6,0-1.9c0-0.5,0-0.9,0-1.4c0.6,0.3,0.7,0.3,1.4,0.6h2.7c0.4-0.5,0.5-0.5,0.7-0.5s0.2,0.1,0.7,0.5
	c0.2,0.2,0.3,0.3,0.3,0.4s-0.1,0.2-0.4,0.4v0.3c0,0.7,0,1.2,0,1.4c0,0.4-0.2,0.5-0.7,0.5s-0.5-0.1-0.5-0.4v-0.2L58.1,280.9z
	 M61.9,273.7h-4.6v1.8h4.6V273.7z M61,278.9h-2.9v1.7H61L61,278.9z"/>
<line class="st2" x1="131.1" y1="383.5" x2="116.1" y2="398.5"/>
<polygon class="st0" points="301.5,378.9 301.5,378.9 301.5,378.9 "/>
<polygon class="st0" points="302.9,377.6 302.9,377.6 302.9,377.6 "/>
<polygon class="st0" points="270.3,344.7 270.3,344.7 270.3,344.7 270.3,344.7 "/>
<polygon class="st0" points="280.9,341.6 280.8,341.6 280.8,341.6 280.8,341.6 "/>
<path class="st0" d="M315.5,317.3c-0.6-0.9-1.4-1.8-2.2-2.6c-0.3-0.3-0.5-0.6-0.8-0.9c-0.1-0.2-0.2-0.3-0.3-0.5c0-0.1,0-0.2,0-0.4
	c0-0.7,0.2-1.4,0.4-2.1c0.3-1,0.4-2,0.5-3c0-0.9-0.2-1.8-0.6-2.5c-0.3-0.5-0.6-0.9-1-1.2c-0.6-0.5-1.3-0.9-2-1.2
	c-1-0.4-1.9-0.6-2.7-0.9c-0.3-0.1-0.6-0.2-0.9-0.4c-0.1-0.1-0.3-0.2-0.4-0.3l0,0c-0.2-0.2-0.4-0.5-0.5-0.8c-0.3-0.7-0.5-1.8-1-2.9
	c-0.2-0.6-0.5-1.2-0.9-1.7c-0.4-0.7-1-1.2-1.6-1.6c-0.8-0.4-1.7-0.7-2.5-0.6c-1,0-2,0.2-3,0.5c-0.7,0.2-1.4,0.3-2.1,0.4
	c-0.1,0-0.2,0-0.4,0c-0.3-0.1-0.5-0.3-0.8-0.5c-0.6-0.5-1.4-1.2-2.3-2c-0.5-0.4-1-0.8-1.6-1.1c-0.7-0.4-1.5-0.5-2.2-0.5
	c-1,0-2,0.3-2.8,0.9c-0.9,0.7-1.8,1.4-2.6,2.2c-0.3,0.3-0.6,0.5-0.9,0.8c-0.1,0.1-0.3,0.2-0.5,0.3c-0.1,0-0.2,0-0.4,0
	c-0.7,0-1.4-0.2-2.1-0.4c-1-0.3-2-0.4-3-0.5c-0.9,0-1.8,0.2-2.5,0.6l0,0l0,0c-0.5,0.3-0.9,0.6-1.2,1c-0.5,0.6-0.9,1.3-1.2,2
	c-0.4,1-0.6,1.9-0.9,2.7c-0.1,0.3-0.2,0.6-0.4,0.9c-0.1,0.1-0.1,0.3-0.3,0.4c-0.2,0.2-0.5,0.4-0.8,0.5c-0.7,0.3-1.8,0.5-2.9,1
	c-0.6,0.2-1.2,0.5-1.7,0.8c-0.7,0.4-1.2,1-1.6,1.6c-0.4,0.8-0.7,1.7-0.6,2.5c0,1,0.2,2,0.5,3c0.2,0.7,0.3,1.4,0.4,2.1
	c0,0.1,0,0.2,0,0.4l0,0c-0.1,0.3-0.3,0.5-0.5,0.8c-0.5,0.6-1.2,1.3-2,2.3c-0.4,0.5-0.8,1-1.1,1.6c-0.4,0.7-0.5,1.5-0.6,2.2
	c0,1,0.3,2,0.9,2.8c0.7,0.9,1.4,1.8,2.2,2.6c0.3,0.3,0.5,0.6,0.8,0.9c0.1,0.2,0.2,0.3,0.3,0.5l0,0c0,0.1,0,0.2,0,0.4
	c0,0.7-0.2,1.4-0.4,2.1c-0.3,1-0.4,2-0.5,3c0,0.9,0.2,1.8,0.6,2.5c0.3,0.5,0.6,0.9,1,1.2c0.6,0.5,1.3,0.9,2,1.2
	c1,0.4,1.9,0.6,2.7,0.9c0.3,0.1,0.6,0.2,0.9,0.4c0.1,0.1,0.3,0.1,0.4,0.3c0.2,0.2,0.3,0.5,0.4,0.7c0.2,0.4,0.3,1,0.5,1.6l0,0
	c0.2,0.5,0.3,1.1,0.6,1.7c0.2,0.6,0.6,1.3,1,1.8c0.2,0.3,0.4,0.5,0.7,0.7l-6.9,14.6l9.4-0.3l5.8,7.3l6.6-14.3l6.6,14.3l5.8-7.3
	l9.4,0.3l-6.5-14h0.1c0.5-0.3,1-0.8,1.4-1.3c0.4-0.6,0.8-1.3,1-2c0.4-1,0.6-1.9,0.8-2.6c0.1-0.3,0.2-0.6,0.4-0.9
	c0.1-0.1,0.1-0.3,0.2-0.4c0.2-0.2,0.5-0.3,0.8-0.5c0.7-0.3,1.8-0.5,2.9-0.9c0.6-0.2,1.2-0.5,1.7-0.8c1.4-0.9,2.3-2.5,2.2-4.2
	c0-1-0.2-2-0.5-3c-0.2-0.7-0.3-1.4-0.4-2.1c0-0.1,0-0.2,0-0.4c0.1-0.3,0.3-0.5,0.5-0.8c0.5-0.6,1.3-1.4,2-2.3c0.4-0.5,0.8-1,1.1-1.6
	c0.4-0.7,0.5-1.5,0.5-2.2C316.3,319.2,316,318.2,315.5,317.3z M311.8,320.7c-0.5,0.7-1.1,1.4-1.7,2c-0.4,0.4-0.8,0.9-1.1,1.4
	c-0.7,1-1.1,2.1-1.1,3.3c0,1,0.2,2.1,0.5,3.1c0.2,0.7,0.3,1.4,0.4,2.1c0,0.1,0,0.2,0,0.3v0.1l-0.1,0.1c-0.2,0.2-0.5,0.3-0.8,0.4
	c-0.6,0.2-1.5,0.5-2.5,0.8c-0.5,0.2-1,0.4-1.5,0.6c-0.6,0.3-1.1,0.6-1.5,1.1c-0.5,0.6-1,1.2-1.3,2c-0.4,0.9-0.7,1.8-0.9,2.7
	c-0.2,0.6-0.4,1.1-0.7,1.6l0,0l-0.1,0.1l0,0l0,0h-0.1c-0.1,0-0.2,0-0.3,0c-0.7,0-1.4-0.2-2.1-0.4c-1-0.3-2-0.4-3.1-0.5
	c-0.5,0-1,0.1-1.5,0.2h0h-0.1l0,0c-1,0.4-2,0.9-2.7,1.7c-0.7,0.6-1.3,1.2-1.8,1.7l0,0c-0.2,0.2-0.5,0.4-0.7,0.5
	c-0.2,0.1-0.4,0.1-0.5,0c-0.3-0.1-0.5-0.3-0.7-0.5c-0.5-0.4-1.2-1.1-1.9-1.7c-0.8-0.8-1.8-1.4-2.9-1.7c-0.5-0.1-1-0.2-1.5-0.2
	c-1,0-2.1,0.2-3,0.5c-0.7,0.2-1.4,0.3-2.1,0.4c-0.1,0-0.2,0-0.3,0H274l0,0l-0.1-0.1l0,0c-0.2-0.2-0.3-0.5-0.4-0.8
	c-0.1-0.4-0.3-0.8-0.5-1.4l0,0c-0.2-0.6-0.4-1.3-0.7-2c-0.3-0.8-0.8-1.5-1.3-2.1c-0.7-0.6-1.4-1.1-2.3-1.4c-1.1-0.4-2.2-0.7-3-1
	c-0.3-0.1-0.6-0.2-0.9-0.4c-0.1-0.1-0.1-0.1-0.2-0.2l0,0v-0.1c0-0.1,0-0.2,0-0.3c0-0.7,0.2-1.4,0.4-2.1c0.3-1,0.4-2,0.5-3.1
	c0-0.5-0.1-1-0.2-1.5l0,0c-0.3-0.9-0.7-1.7-1.3-2.4c-0.8-0.9-1.5-1.7-2.1-2.3c-0.2-0.2-0.4-0.5-0.5-0.8c-0.1-0.1-0.1-0.2-0.1-0.3
	c0-0.2,0.1-0.4,0.2-0.5c0.5-0.7,1.1-1.4,1.7-2c0.4-0.4,0.8-0.9,1.1-1.4c0.4-0.6,0.7-1.2,0.9-1.9l0,0c0.1-0.5,0.2-1,0.2-1.5
	c0-1-0.2-2.1-0.5-3c-0.2-0.7-0.3-1.4-0.4-2.1c0-0.1,0-0.2,0-0.3v-0.1l0,0l0.1-0.1c0.2-0.2,0.5-0.3,0.8-0.4c0.6-0.2,1.5-0.5,2.5-0.8
	c0.5-0.2,1-0.4,1.5-0.6c0.6-0.3,1.1-0.6,1.5-1.1c0.6-0.7,1.1-1.4,1.4-2.3c0.4-1.1,0.7-2.2,1-3c0.1-0.3,0.2-0.6,0.4-0.9
	c0-0.1,0.1-0.1,0.2-0.2h0.1h0.3c0.7,0,1.4,0.2,2.1,0.3c1,0.3,2,0.4,3,0.5c0.5,0,1-0.1,1.5-0.2c0.9-0.3,1.7-0.7,2.4-1.3
	c0.9-0.8,1.7-1.5,2.3-2.1c0.2-0.2,0.5-0.4,0.8-0.5c0.1-0.1,0.2-0.1,0.3-0.1c0.2,0,0.4,0.1,0.5,0.2c0.7,0.5,1.4,1.1,2,1.7
	c0.4,0.4,0.9,0.8,1.4,1.1c0.6,0.4,1.2,0.7,1.9,0.9c0.5,0.1,1,0.2,1.5,0.2c1,0,2.1-0.2,3.1-0.5c0.7-0.2,1.4-0.3,2.1-0.3h0.3h0.1
	l0.1,0.1c0.2,0.2,0.3,0.5,0.4,0.8c0.2,0.6,0.5,1.5,0.8,2.5c0.2,0.5,0.4,1,0.6,1.5c0.3,0.6,0.6,1.1,1.1,1.5l0,0l0,0
	c0.7,0.6,1.4,1.1,2.3,1.4c1.1,0.4,2.2,0.7,3,1c0.3,0.1,0.6,0.2,0.9,0.4c0.2,0.1,0.2,0.2,0.2,0.2v0.1c0,0.1,0,0.2,0,0.3
	c-0.1,0.7-0.2,1.4-0.4,2.1c-0.3,1-0.4,2-0.5,3c0,0.5,0.1,1,0.2,1.5c0.3,0.9,0.7,1.7,1.3,2.4c0.8,0.9,1.5,1.7,2.1,2.3
	c0.2,0.2,0.4,0.5,0.5,0.8c0.1,0.1,0.1,0.2,0.1,0.3C312,320.3,311.9,320.5,311.8,320.7L311.8,320.7z"/>
<path class="st0" d="M286.6,302c-10,0-18.1,8.1-18.2,18.1c0,9.6,7.5,17.6,17.1,18.1l0,0c0.4,0,0.7,0,1,0c10,0,18.1-8.1,18.1-18.1
	C304.7,310.1,296.6,302,286.6,302L286.6,302z M297.1,330.7c-2.8,2.8-6.6,4.4-10.6,4.3c-0.3,0-0.6,0-0.9,0l0,0
	c-8.2-0.5-14.5-7.5-14-15.7c0.5-8.2,7.5-14.5,15.7-14c8.2,0.5,14.5,7.5,14,15.7C301.3,324.7,299.7,328.1,297.1,330.7z"/>
<path class="st0" d="M111.4,305.8c0-2-1.7-3.7-3.7-3.7s-3.7,1.7-3.7,3.7c0,2,1.7,3.7,3.7,3.7C109.7,309.5,111.4,307.8,111.4,305.8
	L111.4,305.8z"/>
<path class="st0" d="M99.4,314.2v12.4c0.1,0.9,0.9,1.6,1.7,1.5c0.8-0.1,1.4-0.7,1.5-1.5v-10.2h0.8v27.6c0,1.2,0.9,2.1,2.1,2.1
	c1.2,0,2.1-0.9,2.1-2.1c0,0,0,0,0,0V328h0.7v16c0.1,1.2,1.1,2.1,2.3,2c1.1-0.1,1.9-0.9,2-2v-27.5h0.7v10.2c0.1,0.9,0.9,1.6,1.7,1.5
	c0.8-0.1,1.4-0.7,1.5-1.5v-12.4c-0.2-2-1.7-3.5-3.7-3.7h-9.7C101.2,310.7,99.6,312.3,99.4,314.2z"/>
<path class="st0" d="M143.5,332.5c-0.8,0.3-1.6,0.5-2.5,0.7c-0.4,0.1-0.8,0.1-1.2,0.1v-0.1c0.3-0.9,0.5-1.8,0.6-2.5s0.3-1.3,0.3-1.5
	c0.1-0.5,0.2-0.9,0.3-1.4c0.1-0.3,0.4-0.5,0.7-0.6c1.4-0.4,2.6-1.3,3.4-2.5c0.9-1.5,1.3-3.2,1.2-4.9c-0.1-1.2-0.3-1.7-0.7-1.8
	s-0.8,0.2-1.3,0.7c-0.6,0.5-1.2,1-1.9,1.4c-0.3,0.2-0.7,0.4-1,0.5c-0.1-0.8-0.2-1.6-0.3-2.3s-0.2-1.2-0.3-1.5
	c-0.2-1.1-0.3-1.7,0.2-2.1c1.1-0.8,1.9-2,2.2-3.4c0.3-1.6,0.1-3.3-0.6-4.8c-0.5-1-0.9-1.4-1.2-1.3s-0.6,0.4-1,1
	c-0.4,0.7-0.8,1.4-1.2,2c-0.2,0.3-0.5,0.5-0.7,0.8c-0.3-0.6-0.6-1.2-0.9-1.7s-0.6-1-0.7-1.2c-0.6-1-0.8-1.4-0.4-1.9
	c0.8-1.1,1.1-2.4,0.9-3.7c-0.2-1.5-0.9-3-2-4.1c-0.7-0.8-1.2-1-1.5-0.8s-0.4,0.6-0.6,1.2c-0.1,0.7-0.3,1.4-0.5,2.1
	c-0.1,0.3-0.2,0.6-0.4,0.9c-0.3-0.3-0.7-0.6-0.9-0.9l-1-0.9c-0.8-0.8-1.2-1.1-1-1.7c0.4-1.3,0.3-2.6-0.3-3.8
	c-0.7-1.4-1.7-2.6-3.1-3.3c-0.9-0.5-1.4-0.6-1.7-0.4s-0.2,0.7-0.2,1.3c0.1,0.7,0.1,1.4,0.1,2.1c-0.5-0.6-1.2-1.1-1.9-1.4
	c-1.1-0.5-2.2-0.7-3.4-0.6c-1.2,0.1-2.1,0.5-2.3,1.3c-0.1,0.9,0.3,1.8,1,2.4c0.7,0.7,1.5,1.3,2.4,1.7c0.6,0.3,1.3,0.5,2,0.6
	l-0.1,0.1c-0.6,0.5-1.2,0.9-1.7,1.2s-0.8,0.7-0.9,1s0.2,0.6,0.8,0.9c1,0.5,2.1,0.8,3.2,0.7c1.2-0.1,2.3-0.4,3.4-1
	c0.5-0.3,0.9,0,1.7,0.7c0.1,0.1,0.5,0.5,0.9,0.9l0.8,0.9c-0.3,0.1-0.6,0.3-0.9,0.4c-0.7,0.3-1.4,0.4-2,0.6c-0.6,0.2-1,0.4-1.1,0.7
	s0,0.6,0.5,1.1c0.8,0.8,1.8,1.4,2.9,1.7c1.1,0.3,2.4,0.3,3.5,0.1c0.6-0.1,0.9,0.2,1.4,1.1c0.1,0.1,0.3,0.6,0.6,1.1s0.5,1,0.7,1.6
	c-0.4,0-0.7,0.1-1.1,0.1c-0.8,0-1.6,0-2.2,0c-0.5-0.1-0.9,0.1-1.3,0.3c-0.2,0.2-0.2,0.6,0.1,1.3c0.5,1.1,1.3,2,2.3,2.6
	c1,0.7,2.2,1.1,3.5,1.3c0.6,0.1,0.8,0.5,1,1.6c0,0.2,0.1,0.7,0.2,1.4s0.1,1.4,0.1,2.1c-0.4-0.1-0.7-0.2-1.1-0.3
	c-0.8-0.3-1.5-0.6-2.2-0.9c-0.4-0.2-0.9-0.3-1.4-0.2c-0.3,0.1-0.4,0.5-0.4,1.3c0.1,1.2,0.5,2.4,1.3,3.4c0.8,1.1,1.8,1.9,2.9,2.5
	c0.3,0.1,0.5,0.4,0.5,0.7c0,0.4,0,0.8-0.1,1.3c0,0.2-0.2,0.7-0.4,1.4s-0.5,1.5-0.8,2.2l-0.1,0.1c-0.3-0.2-0.6-0.5-0.9-0.7
	c-0.7-0.6-1.3-1.2-1.8-1.7c-0.3-0.4-0.8-0.6-1.3-0.8c-0.4,0-0.6,0.3-0.9,1.1c-0.4,1.2-0.4,2.5-0.1,3.8c0.3,1.3,0.9,2.6,1.8,3.6
	c0.4,0.6,0.2,1.1-0.4,2c-0.1,0.2-0.4,0.6-0.9,1.2c-0.5,0.6-1,1.2-1.7,1.9l-0.3,0.3c-0.2-0.4-0.4-0.7-0.6-1.1c-0.4-0.9-0.7-1.7-1-2.4
	c-0.2-0.5-0.5-1-1-1.3c-0.3-0.1-0.7,0-1.3,0.7c-0.9,1-1.5,2.2-1.7,3.5c-0.3,1.4-0.2,2.9,0.2,4.3c0.2,0.7-0.2,1.1-1.3,1.8
	c-0.2,0.1-0.7,0.4-1.4,0.7s-1.6,0.7-2.4,1s-2,0.8-2.6,1c-8,2.8-17.7,4-23.7,8.4c-0.9,0.7,0.9,3.3,1.7,3.1c6.9-3.3,14-5.9,21.4-7.8
	c0.6-0.2,3.6-1.2,4.5-1.6s1.8-0.9,2.6-1.4s1.3-0.8,1.5-0.9c0.4-0.3,0.9-0.5,1.4-0.7c0.3-0.1,0.7-0.1,1,0.1c0.7,0.4,1.4,0.7,2.2,0.9
	c0.8,0.1,1.7,0.1,2.5,0c0.9-0.2,1.8-0.5,2.6-1c0.9-0.5,1.7-1.2,2.3-1.9c0.9-1,1.1-1.6,0.9-2s-0.8-0.5-1.6-0.5
	c-0.9-0.1-1.8-0.2-2.7-0.4c-0.4-0.1-0.8-0.2-1.2-0.4l0.3-0.4c0.6-0.7,1.2-1.5,1.7-2.2s0.8-1.2,0.9-1.4c0.7-1.1,1-1.6,1.8-1.5
	c1.5,0.2,3.1-0.2,4.4-1.1c0.7-0.5,1.3-1.1,1.9-1.8c0.6-0.8,1-1.6,1.3-2.5c0.4-1.2,0.3-1.8,0-2S144.1,332.3,143.5,332.5z"/>
<path class="st0" d="M99.1,355.1c1.8-0.7,3.8-1.3,5.8-1.9c-2.1-0.6-4.2-1.2-6.2-1.9c-0.6-0.2-1.8-0.7-2.6-1s-1.7-0.7-2.4-1
	s-1.2-0.6-1.4-0.7c-1.1-0.6-1.5-1-1.3-1.8c0.4-1.4,0.5-2.9,0.2-4.3c-0.2-1.3-0.8-2.5-1.7-3.5c-0.6-0.6-0.9-0.8-1.3-0.7
	c-0.5,0.3-0.8,0.8-1,1.3c-0.3,0.6-0.6,1.5-1,2.4c-0.2,0.4-0.4,0.7-0.6,1.1l-0.3-0.3c-0.6-0.6-1.2-1.3-1.7-1.9s-0.8-1-0.9-1.2
	c-0.7-1-0.9-1.5-0.4-2c0.9-1.1,1.5-2.3,1.8-3.6c0.3-1.2,0.3-2.5-0.1-3.8c-0.2-0.8-0.5-1.1-0.9-1.1c-0.5,0.1-1,0.4-1.3,0.8
	c-0.5,0.5-1.1,1.1-1.8,1.7c-0.3,0.2-0.6,0.5-0.9,0.7c0,0,0-0.1,0-0.1c-0.3-0.8-0.6-1.6-0.8-2.2s-0.3-1.2-0.3-1.4
	c-0.1-0.4-0.1-0.8-0.1-1.3c0-0.3,0.2-0.6,0.5-0.7c1.2-0.6,2.2-1.6,2.9-2.7c0.7-1,1.2-2.2,1.3-3.4c0.1-0.8-0.1-1.1-0.4-1.3
	c-0.5-0.1-1,0-1.4,0.2c-0.6,0.2-1.3,0.6-2.2,0.9c-0.3,0.1-0.7,0.2-1.1,0.3c0-0.7,0-1.5,0.1-2.1s0.1-1.2,0.2-1.4
	c0.2-1.1,0.3-1.5,1-1.6c1.2-0.1,2.4-0.6,3.5-1.3c1-0.6,1.8-1.5,2.3-2.6c0.3-0.7,0.3-1.1,0.1-1.3c-0.4-0.2-0.9-0.3-1.3-0.3
	c-0.6,0-1.4,0-2.2,0c-0.4,0-0.7,0-1.1-0.1c0.2-0.6,0.5-1.1,0.7-1.6s0.5-1,0.6-1.1c0.5-0.9,0.8-1.3,1.4-1.1c1.2,0.3,2.4,0.2,3.5-0.1
	c1.1-0.3,2.1-0.9,2.9-1.7c0.5-0.5,0.6-0.9,0.5-1.1c-0.3-0.3-0.7-0.6-1.1-0.7c-0.6-0.2-1.3-0.4-2-0.6c-0.3-0.1-0.6-0.2-0.9-0.4
	c0.3-0.3,0.5-0.6,0.8-0.9c0.4-0.5,0.8-0.8,0.9-0.9c0.8-0.7,1.1-1,1.7-0.7c1,0.6,2.2,0.9,3.4,1c1.1,0.1,2.3-0.2,3.2-0.7
	c0.6-0.4,0.8-0.6,0.8-0.9s-0.4-0.6-0.9-1s-1.1-0.8-1.7-1.2l-0.1-0.1c0.7-0.1,1.4-0.3,2-0.6c0.9-0.4,1.7-1,2.5-1.6
	c0.7-0.6,1.1-1.5,1-2.4c-0.2-0.8-1.2-1.2-2.3-1.3c-1.2-0.1-2.3,0.1-3.4,0.6c-0.7,0.3-1.4,0.8-1.9,1.4c0-0.7,0.1-1.4,0.2-2.1
	c0.1-0.6,0.1-1.1-0.2-1.3s-0.8-0.1-1.7,0.4c-1.4,0.7-2.5,1.9-3.1,3.3c-0.6,1.2-0.7,2.5-0.3,3.8c0.2,0.6-0.2,0.9-1,1.7l-1,0.9
	l-0.9,0.9c-0.2-0.3-0.3-0.6-0.4-0.9c-0.2-0.7-0.4-1.4-0.5-2.1c-0.1-0.6-0.3-1.1-0.6-1.2s-0.8,0.1-1.5,0.8c-1.1,1.1-1.8,2.5-1.9,4.1
	c-0.2,1.3,0.2,2.6,0.9,3.7c0.3,0.5,0.1,1-0.4,1.9c-0.1,0.2-0.4,0.6-0.7,1.2s-0.6,1.1-0.9,1.7c-0.3-0.2-0.5-0.5-0.7-0.8
	c-0.5-0.6-0.9-1.3-1.2-2c-0.3-0.6-0.6-1-1-1s-0.7,0.3-1.2,1.3c-0.7,1.5-0.9,3.2-0.6,4.8c0.3,1.4,1.1,2.6,2.2,3.4
	c0.5,0.4,0.4,0.9,0.2,2.1c0,0.2-0.2,0.7-0.3,1.5s-0.2,1.5-0.3,2.3c-0.3-0.1-0.7-0.3-1-0.5c-0.7-0.4-1.4-0.9-2-1.5
	c-0.6-0.4-1-0.8-1.3-0.7s-0.6,0.6-0.7,1.8c-0.1,1.7,0.3,3.4,1.2,4.9c0.8,1.2,2,2.1,3.4,2.5c0.3,0.1,0.6,0.3,0.7,0.6
	c0.2,0.4,0.3,0.9,0.3,1.4c0,0.2,0.1,0.8,0.3,1.5s0.4,1.6,0.6,2.5v0.1c-0.4,0-0.8,0-1.2-0.1c-0.8-0.2-1.7-0.4-2.5-0.7
	c-0.7-0.2-1.3-0.4-1.6-0.1s-0.3,0.8,0,2c0.3,0.9,0.7,1.8,1.3,2.5c0.5,0.7,1.1,1.3,1.9,1.8c1.3,0.9,2.8,1.3,4.3,1.1
	c0.7-0.1,1,0.4,1.8,1.5c0.1,0.2,0.5,0.7,0.9,1.4s1.1,1.4,1.7,2.2l0.3,0.4c-0.4,0.2-0.8,0.3-1.2,0.4c-0.9,0.2-1.8,0.3-2.7,0.4
	c-0.8,0.1-1.4,0.2-1.6,0.5s0,1,0.9,2c0.7,0.8,1.5,1.4,2.3,1.9c0.8,0.5,1.7,0.8,2.6,1c0.8,0.2,1.7,0.2,2.5,0c0.8-0.1,1.5-0.4,2.2-0.9
	c0.3-0.2,0.7-0.2,1-0.1c0.5,0.2,0.9,0.4,1.4,0.7c0.2,0.1,0.8,0.5,1.5,0.9s1.6,0.9,2.6,1.4S98.4,354.8,99.1,355.1z"/>
<path class="st0" d="M116.8,356.8c-2.3,0.6-4.4,1.3-6.3,1.9c6.5,2.4,9.5,4,10,4.2c0.8,0.2,2.7-2.4,1.7-3.1
	C120.6,358.5,118.8,357.5,116.8,356.8z"/>
<rect x="135.1" y="95.6" class="st0" width="22.4" height="39.6"/>
<rect x="166.5" y="78.8" class="st0" width="22.4" height="56.4"/>
<rect x="103.8" y="111.6" class="st0" width="22.4" height="23.6"/>
<path class="st0" d="M228.9,57.5l-18.4-31.7c-0.3-0.5-0.8-0.8-1.4-0.8c-0.6,0-1.1,0.3-1.4,0.8l-18.4,31.7c-0.3,0.5-0.3,1.1,0,1.6
	c0.3,0.5,0.8,0.8,1.4,0.8h7.2v75.4h22.4V59.8h7.2c0.9,0,1.6-0.7,1.6-1.6C229.1,58,229.1,57.7,228.9,57.5L228.9,57.5z"/>
<line class="st3" x1="0" y1="229" x2="335" y2="229"/>
<line class="st3" x1="167.5" y1="229" x2="167.5" y2="419.5"/>
</svg>
