<svg xmlns="http://www.w3.org/2000/svg" viewBox="0 0 997.29 308.93"><defs><style>.cls-1{fill:#333;}.cls-2{fill:#e8314b;}.cls-3,.cls-5,.cls-6{fill:none;}.cls-3{stroke:#e8314b;stroke-width:1.76px;}.cls-3,.cls-6{stroke-miterlimit:10;}.cls-4{fill:#fff;}.cls-5,.cls-6{stroke:#fff;}.cls-5{stroke-width:6px;}.cls-6{stroke-width:1.18px;}</style></defs><g id="レイヤー_2" data-name="レイヤー 2"><g id="pc"><circle class="cls-1" cx="101.73" cy="104.44" r="17.4"/><path class="cls-1" d="M222.33,265.57c0,.67-.52,1-1.38,1s-1.06-.23-1.06-.81c0-1.84.1-3.77.1-11.2,0-2.39,0-4.79-.15-7.21a21.43,21.43,0,0,1,2.67,1.33h2.24c.86-1,1.06-1.2,1.27-1.2s.5.16,1.43.89c.42.31.58.49.58.7s-.13.39-.71.81v2.44c0,6.45.13,10.9.13,12.38,0,.67-.49,1-1.43,1-.7,0-1-.21-1-.8v-.94h-2.71ZM225,249.24h-2.71v6.52H225Zm0,7.12h-2.71v7H225Zm10.68-1.43h3.59c1.14-1.43,1.46-1.63,1.64-1.63s.52.2,1.71,1.14c.52.44.73.65.73.83s-.08.26-.34.26H229.64a8.56,8.56,0,0,0-1.54.16l-.28-1a7.43,7.43,0,0,0,1.74.21h3.69v-4h-2.94a8,8,0,0,0-1.48.16l-.28-1a7.5,7.5,0,0,0,1.71.2h3v-2.21a18.06,18.06,0,0,0-.13-2c3.15.28,3.43.57,3.43.83s-.28.49-.83.7v2.73h2.45c1.11-1.4,1.43-1.61,1.61-1.61s.52.21,1.71,1.12c.55.44.76.65.76.83s-.08.26-.34.26h-6.19Zm3.51,7.88c0,1,.08,3.2.08,4.16s-.1,1.46-.6,1.95a3.43,3.43,0,0,1-2.49,1,.37.37,0,0,1-.42-.33c-.21-1.36-.94-1.72-3-2.24-.13,0-.13-.31,0-.31,1.33.08,2.55.1,3.54.1.36,0,.46-.08.46-.41V260h-7.12a8.38,8.38,0,0,0-1.53.16l-.29-1a7.43,7.43,0,0,0,1.74.21h7.2v-1.14a13.36,13.36,0,0,0-.13-2.08c2.58.23,3.36.42,3.36.78s-.24.44-.81.73v1.71h.63c1-1.14,1.27-1.35,1.45-1.35s.5.21,1.41,1c.36.32.57.55.57.73s-.08.26-.34.26h-3.72Zm-6.45,2.86c-.67,0-.93-.44-1.24-1.66a4.3,4.3,0,0,0-1.54-2.6c-.1-.08,0-.24.16-.21,2.83.57,4.05,1.51,4.05,2.86C234.21,265.05,233.69,265.67,232.78,265.67Z"/><path class="cls-1" d="M253.53,254.62V269c0,.7-.49,1-1.48,1-.75,0-1.07-.26-1.07-.93,0-1.93.16-3.82.16-11.52,0-3.88,0-7.75-.18-11.62a15.51,15.51,0,0,1,2.75,1.32h4.63c.89-1,1.09-1.17,1.3-1.17s.47.16,1.41.91c.41.34.57.52.57.73s-.18.42-.76.78v1c0,2.76.06,4.66.06,5.28s-.5.88-1.41.88c-.67,0-.93-.2-.93-.75v-.34Zm5-6.76h-5v2.68h5Zm0,3.28h-5V254h5Zm.75,14.48v.91c0,.73-.39,1-1.35,1-.7,0-1-.24-1-.81,0-.86.08-1.77.08-5.22,0-1.62,0-3.25-.13-4.89a16.45,16.45,0,0,1,2.65,1.27h4.92c.86-1,1.06-1.12,1.27-1.12s.5.13,1.38.86c.47.36.62.55.62.76s-.2.39-.72.72v1.17c0,3.1,0,5.2,0,5.91s-.39,1-1.32,1c-.71,0-.94-.26-.94-.78v-.75Zm5.46-7.15h-5.46v2.83h5.46Zm0,3.43h-5.46V265h5.46Zm.88-7.28v.13c0,.68-.44,1-1.3,1s-1-.2-1-.78c0-1,.06-2,.06-6.05,0-1,0-1.95-.11-2.94a20.81,20.81,0,0,1,2.68,1.32h4.65c.91-1,1.15-1.17,1.36-1.17s.46.16,1.43.94c.44.39.59.57.59.78s-.15.44-.7.75v3.12c0,14.49,0,15.16,0,15.86a2.29,2.29,0,0,1-.52,1.56,2.9,2.9,0,0,1-2.26.76c-.34,0-.45-.08-.47-.37-.13-1.19-.6-1.58-2.58-2.1-.13,0-.13-.34,0-.34,1.56.1,1.95.13,3,.13.26,0,.31-.05.31-.36v-12.2Zm5.15-6.76h-5.15v2.68h5.15Zm0,3.28h-5.15V254h5.15Z"/><path class="cls-2" d="M21.26,227l-6-16.2a22.81,22.81,0,0,1,6.53-3.87A42.92,42.92,0,0,1,30,204.54a48.93,48.93,0,0,1,8.77-.81A37.26,37.26,0,0,1,52,205.93a21.63,21.63,0,0,1,9.23,6.3,15.16,15.16,0,0,1,3.37,10,18.22,18.22,0,0,1-1.84,8.1,29.55,29.55,0,0,1-4.82,7,52.55,52.55,0,0,1-6.48,6c-2.34,1.84-4.65,3.48-6.93,4.95s-4.32,2.78-6.12,3.92h17.1a11.28,11.28,0,0,0,4.91-1,12.47,12.47,0,0,0,4.05-3.1,22.17,22.17,0,0,0,3.37-5.31h.9L62.57,268H15.77v-.9q3.87-4.77,8-9.54t7.92-9.49q3.82-4.74,6.88-9.41a51.08,51.08,0,0,0,4.86-9.27,24.76,24.76,0,0,0,1.8-9.09q0-5.85-3.1-9.18t-8.42-2.88a10.53,10.53,0,0,0-8.59,5.17q-2.93,4.74-2.93,13.55Z"/><path class="cls-2" d="M74.72,205.17l47.7-.18L110.9,231.72q-1.17,2.61-2.52,6.3t-2.79,7.92q-1.44,4.23-2.79,8.37c-.9,2.76-1.72,5.33-2.47,7.69s-1.34,4.37-1.76,6H83.27c1.08-1.8,2.37-4,3.87-6.53s3.06-5.26,4.68-8.14,3.23-5.74,4.82-8.6,3-5.49,4.27-7.91,2.28-4.46,3.06-6.08l4.68-10H79.85a6.17,6.17,0,0,0-4.23,1.35,9.78,9.78,0,0,0-2.52,4h-.9Z"/><path class="cls-2" d="M134.48,269.25a8.07,8.07,0,1,1,5.76-2.39A7.77,7.77,0,0,1,134.48,269.25Z"/><path class="cls-2" d="M154.46,227l-6-16.2a22.67,22.67,0,0,1,6.53-3.87,42.72,42.72,0,0,1,8.28-2.34,48.93,48.93,0,0,1,8.77-.81,37.26,37.26,0,0,1,13.14,2.2,21.63,21.63,0,0,1,9.23,6.3,15.16,15.16,0,0,1,3.37,10,18.35,18.35,0,0,1-1.84,8.1,29.85,29.85,0,0,1-4.82,7,52.55,52.55,0,0,1-6.48,6c-2.34,1.84-4.65,3.48-6.93,4.95s-4.32,2.78-6.12,3.92h17.1a11.31,11.31,0,0,0,4.91-1,12.58,12.58,0,0,0,4.05-3.1A22.48,22.48,0,0,0,201,242.7h.9L195.77,268H149v-.9q3.87-4.77,8-9.54c2.73-3.18,5.36-6.35,7.92-9.49s4.84-6.29,6.88-9.41a51.08,51.08,0,0,0,4.86-9.27,24.76,24.76,0,0,0,1.8-9.09q0-5.85-3.1-9.18t-8.42-2.88a10.52,10.52,0,0,0-8.59,5.17q-2.94,4.74-2.93,13.55Z"/><path class="cls-1" d="M8.91,46.15H13.2c1-1.32,1.26-1.46,1.38-1.46s.36.14,1.43,1c.48.39.63.56.63.68s-.06.18-.24.18H8.91v.24c0,3.42.07,4.88.07,6.3,0,.57-.36.79-1.13.79-.58,0-.79-.18-.79-.7s.09-3.41.09-6.38v-.25H1.93a16.54,16.54,0,0,0-1.73.11L0,46a12.75,12.75,0,0,0,1.91.15H7.15v-7.1H2.72a15.49,15.49,0,0,0-1.66.11l-.2-.66a13.39,13.39,0,0,0,1.86.14h10c.94-1.12,1.16-1.26,1.28-1.26s.36.14,1.33.88c.44.34.58.49.58.61s-.05.18-.23.18H8.91ZM4.36,45c-.54,0-.69-.23-.85-1.31a8.29,8.29,0,0,0-1.3-3.53c0-.07.08-.18.15-.15,2,1.14,3,2.42,3,3.68C5.4,44.47,5,45,4.36,45ZM14,41.36a12.38,12.38,0,0,1-4,4.19c-.08.06-.24-.1-.19-.18A15.17,15.17,0,0,0,12,41.43a11.13,11.13,0,0,0,.53-1.73c1.58.67,2.19,1,2.19,1.28S14.51,41.29,14,41.36Z"/><path class="cls-1" d="M27.83,42.93a22.78,22.78,0,0,0,1.3-3.17,9.63,9.63,0,0,0,.43-2.25c2,.46,2.47.61,2.47.9s-.17.34-.69.43A16.52,16.52,0,0,1,30.26,41h5.22c.69-.82.83-.93,1-.93s.33.11,1,.75c.32.29.43.44.43.58s0,.18-.56.56c-.09,5.33-.28,7.69-.82,9.65a3.16,3.16,0,0,1-.92,1.55,2.47,2.47,0,0,1-1.64.59c-.38,0-.41-.05-.52-.5s-.63-1-2-1.39c-.09,0-.09-.29,0-.27,1.37.14,1.8.16,2.07.16.81,0,1-.05,1.19-.34.6-1.15.87-3.71,1-10H30a12.53,12.53,0,0,1-3.22,3.62c-.08,0-.24-.06-.18-.13A13.46,13.46,0,0,0,27.79,43a.29.29,0,0,1-.19,0h-2V48c.83-.27,1.64-.55,2.3-.82.09,0,.18.12.11.18a26.89,26.89,0,0,1-5,3.15c0,.57-.13.77-.38.77s-.63-.63-1.19-2.18A11.11,11.11,0,0,0,23,48.76c.32-.07.65-.16,1-.27V43.05H22.79a4.48,4.48,0,0,0-.88.11l-.2-.67a3.8,3.8,0,0,0,1,.15H24V39.79c0-.86,0-1.57-.09-2.18,2.16.2,2.38.4,2.38.6s-.22.32-.65.54v3.89h.14c.51-.87.72-1,.85-1s.32.14.88.7c.22.23.36.41.36.54Zm1,7.41c0,.56-.13.76-.38.76s-.5-.36-1.21-2.23c.42,0,1-.11,1.55-.22a43.22,43.22,0,0,0,5.55-1.37c.09,0,.18.13.11.18A24.67,24.67,0,0,1,28.84,50.34Zm2.88-5.69c.72-.93.94-1.08,1.06-1.08s.34.15,1,.76c.29.27.43.43.43.56s-.05.18-.23.18h-4.7a3.27,3.27,0,0,0-.83.11l-.2-.67a3.25,3.25,0,0,0,.95.14Z"/><path class="cls-1" d="M48.19,42.49c.59-.63.74-.74.88-.74s.31.11.92.69c.25.23.36.38.36.52s0,.23-.45.43c-1,5.46-2.72,8.12-6.57,10.34-.08,0-.18-.13-.11-.18a13.61,13.61,0,0,0,4.05-6.2.72.72,0,0,1-.47.18c-.32,0-.45-.18-.54-.73A3.63,3.63,0,0,0,45.54,45a11.17,11.17,0,0,1-2.29,2.63c-.07.05-.18-.09-.12-.16a16.92,16.92,0,0,0,2.43-8.1h-.72a8.27,8.27,0,0,0-1.21.1l-.2-.66a7,7,0,0,0,1.41.14h3.78c.77-.9,1-1,1.12-1s.36.14,1.11.72c.34.29.49.43.49.56s-.06.18-.24.18H47.27a19.19,19.19,0,0,1-.61,3.09Zm-1.68.42a11.06,11.06,0,0,1-.82,1.87c.75.32,1.69.81,1.85,1.69a25.41,25.41,0,0,0,.72-3.56ZM54.33,44c.07.67.2,1.53.36,2.33L56.87,46c.72-1.06.86-1.17,1-1.17s.4.11,1.21.58c.42.23.52.34.52.48s-.09.15-.19.17l-4.63.68a11.73,11.73,0,0,0,.68,1.91A9.85,9.85,0,0,0,56.78,47c1.44.75,1.87,1,1.87,1.26s-.13.3-.94.3a12.57,12.57,0,0,1-1.47,1.37c.18.25.36.47.55.69a3.46,3.46,0,0,0,1.43,1.08c.23,0,.36-.15,1.22-2.06,0-.09.25,0,.24.06-.18,1.42-.27,2.12-.27,2.28a.42.42,0,0,0,.19.4,1,1,0,0,1,.42.72.84.84,0,0,1-.9.76A5.48,5.48,0,0,1,56,52a9,9,0,0,1-1-1.21,15.59,15.59,0,0,1-7.08,2.43c-.09,0-.16-.16-.07-.18a18.92,18.92,0,0,0,6.46-3.35,11.24,11.24,0,0,1-1-2.75l-2.11.3a5,5,0,0,0-1.21.29l-.29-.63c.62,0,1.14,0,1.44-.07l2.08-.31c-.18-.88-.29-1.56-.38-2.32l-1.12.16a6.44,6.44,0,0,0-1.21.27l-.27-.61A11.87,11.87,0,0,0,51.63,44l1.13-.17c-.07-.73-.13-1.47-.18-2.21l-1.13.16c-.42.06-.74.15-1.21.25L50,41.39a8.7,8.7,0,0,0,1.42,0l1.17-.16c0-.36,0-.74,0-1.12a15,15,0,0,0-.18-2.43c1.91.25,2.28.36,2.28.61s-.07.26-.48.47c0,.87,0,1.6,0,2.25l2.39-.32c.59-.9.74-1,.88-1s.38.11,1,.52c.32.22.43.33.43.47a.16.16,0,0,1-.16.16l-4.56.61c0,.74.06,1.48.11,2.2l2-.29c.64-1,.79-1.08.93-1.08s.38.11,1.1.54c.36.22.47.33.47.47a.19.19,0,0,1-.18.18ZM56.42,40c-.33,0-.38,0-.69-.61a2.94,2.94,0,0,0-.93-1.1c-.08,0,0-.2.09-.2,1.49.13,2.17.51,2.17,1.25A.63.63,0,0,1,56.42,40Z"/><path class="cls-1" d="M73.75,48.61a11.11,11.11,0,0,0,2.93,1.77,15,15,0,0,0,4.74,1c.09,0,.09.17,0,.2-.67.25-.83.4-1.32,1.5a.29.29,0,0,1-.27.19A3.07,3.07,0,0,1,79,53a13,13,0,0,1-3.17-1.74,11.39,11.39,0,0,1-2.31-2.38c.06,2.3.11,4,.11,4.48s-.29.69-1.06.69c-.49,0-.7-.2-.7-.6s.09-2.18.12-3.76a13.07,13.07,0,0,1-7.13,3.66c-.09,0-.18-.13-.09-.17a15,15,0,0,0,6-4.61H66.51a9,9,0,0,0-1.26.11l-.2-.66a7.58,7.58,0,0,0,1.39.14h5.49V46.53H68.4a9.16,9.16,0,0,0-1.28.1l-.2-.66a7.15,7.15,0,0,0,1.43.14h3.58V44.47H67.46a9.47,9.47,0,0,0-1.29.11l-.2-.66a8.17,8.17,0,0,0,1.44.14h3c-.23-.07-.36-.31-.5-.83a3.44,3.44,0,0,0-.9-1.55c-.07,0,0-.16.11-.14,1.62.25,2.45.81,2.45,1.64a.92.92,0,0,1-.63.88h2.89a10.85,10.85,0,0,0,.76-1.55,8.59,8.59,0,0,0,.36-1.13c1.46.55,2,.84,2,1.06s-.12.27-.79.3a10.52,10.52,0,0,1-1.76,1.32h3c.84-.94,1.06-1.08,1.18-1.08s.36.14,1.16.75c.34.29.48.44.48.56s0,.18-.23.18H73.55v1.64h2.81c.77-.86,1-1,1.12-1s.36.15,1,.71c.31.25.45.41.45.54s0,.18-.23.18H73.55V48.2H78c.91-1,1.13-1.17,1.26-1.17s.34.14,1.17.81c.36.29.5.47.5.59s0,.18-.23.18Zm-3.37-9.92a7.41,7.41,0,0,0-.09-1.31c2,.2,2.23.34,2.23.56s-.14.25-.57.45v2.55h1.49V38.69a7.41,7.41,0,0,0-.09-1.31c2.05.22,2.25.34,2.25.56s-.12.25-.59.45v2.55h.74a18.87,18.87,0,0,0,1-2,7.66,7.66,0,0,0,.39-1.21c1.59.67,2.14,1,2.14,1.17s-.12.33-.82.34a11.59,11.59,0,0,1-2.16,1.71h2.1c.81-.9,1-1,1.15-1s.36.14,1.12.72c.34.29.49.43.49.56s-.06.18-.24.18H66.46a8.78,8.78,0,0,0-1.34.11l-.19-.67a7.53,7.53,0,0,0,1.47.14h4Zm-1.92,1.93c-.42,0-.58-.16-.76-.7a3.66,3.66,0,0,0-1-1.77c-.08,0,0-.18.09-.16,1.69.29,2.57.88,2.57,1.73A.93.93,0,0,1,68.46,40.62Z"/><path class="cls-1" d="M88.67,50.92c0,.47-.36.67-1,.67S87,51.42,87,51c0-1.28.07-2.61.07-7.76,0-1.66,0-3.32-.11-5a13.86,13.86,0,0,1,1.85.92h1.55c.6-.72.74-.83.89-.83s.34.11,1,.61c.28.22.39.34.39.49s-.09.27-.48.56v1.69c0,4.46.09,7.54.09,8.57,0,.47-.35.7-1,.7s-.69-.14-.69-.56v-.65H88.67Zm1.87-11.31H88.67v4.52h1.87Zm0,4.94H88.67v4.82h1.87Zm7.4-1h2.49c.79-1,1-1.14,1.13-1.14s.36.14,1.19.79c.36.31.5.45.5.58s0,.18-.23.18H93.73a6.36,6.36,0,0,0-1.06.11l-.2-.67a5.15,5.15,0,0,0,1.2.15h2.56V40.82h-2a5.17,5.17,0,0,0-1,.11l-.2-.67a5,5,0,0,0,1.19.14h2.07V38.87a14.06,14.06,0,0,0-.09-1.42c2.18.2,2.38.4,2.38.58s-.2.34-.58.48V40.4h1.69c.78-1,1-1.11,1.12-1.11s.36.14,1.19.77c.38.31.52.45.52.58s0,.18-.23.18H97.94ZM100.37,49c0,.67.06,2.21.06,2.88s-.08,1-.42,1.35a2.37,2.37,0,0,1-1.73.67.25.25,0,0,1-.28-.24c-.15-.93-.65-1.18-2.08-1.54-.09,0-.09-.22,0-.22.92.05,1.77.07,2.45.07.26,0,.33,0,.33-.29V47H93.76a6.46,6.46,0,0,0-1.06.11l-.2-.67a5.3,5.3,0,0,0,1.21.15h5v-.8a10.12,10.12,0,0,0-.09-1.44c1.78.17,2.32.29,2.32.54s-.16.31-.56.51v1.19h.43c.67-.8.89-.94,1-.94s.34.14,1,.67c.26.21.4.37.4.5s-.05.18-.23.18h-2.58Zm-4.46,2c-.47,0-.65-.31-.87-1.15A3,3,0,0,0,94,48c-.07-.06,0-.16.11-.15,2,.4,2.81,1,2.81,2C96.9,50.56,96.54,51,95.91,51Z"/><path class="cls-1" d="M110.27,43.34v10c0,.48-.34.7-1,.7-.52,0-.74-.18-.74-.65,0-1.33.11-2.65.11-8,0-2.68,0-5.36-.12-8a11.52,11.52,0,0,1,1.9.92h3.21c.61-.7.76-.81.9-.81s.32.11,1,.63c.29.24.4.36.4.51s-.13.29-.52.54v.72c0,1.91,0,3.22,0,3.65s-.34.62-1,.62c-.47,0-.65-.15-.65-.53v-.23Zm3.49-4.68h-3.49v1.85h3.49Zm0,2.27h-3.49v2h3.49Zm.52,10v.63c0,.5-.27.68-.93.68-.49,0-.7-.16-.7-.56,0-.59,0-1.22,0-3.62,0-1.11,0-2.25-.09-3.38a11.42,11.42,0,0,1,1.84.88h3.4c.59-.67.74-.78.88-.78s.34.1,1,.6c.32.25.43.38.43.52s-.15.27-.51.51v.81c0,2.14,0,3.6,0,4.08s-.27.69-.92.69c-.48,0-.65-.18-.65-.54V51Zm3.78-5h-3.78v2h3.78Zm0,2.38h-3.78v2.16h3.78Zm.62-5v.09c0,.47-.31.67-.9.67s-.72-.15-.72-.54c0-.69,0-1.39,0-4.2,0-.67,0-1.35-.07-2a15.29,15.29,0,0,1,1.86.92h3.22c.63-.7.79-.81.93-.81s.33.11,1,.65c.31.27.42.4.42.54s-.11.31-.49.52V41.3c0,10,0,10.5,0,11a1.62,1.62,0,0,1-.36,1.08,2,2,0,0,1-1.57.52c-.23,0-.3,0-.32-.25-.09-.83-.41-1.1-1.78-1.46-.09,0-.09-.23,0-.23C121,52,121.29,52,122,52c.18,0,.21,0,.21-.26V43.34Zm3.56-4.68h-3.56v1.85h3.56Zm0,2.27h-3.56v2h3.56Z"/><path class="cls-1" d="M605,253.79c0,3.56-2.13,5.69-4.79,5.69s-4.68-2-4.68-5.51,2.11-5.72,4.68-5.72S605,250.36,605,253.79Zm-6.94.1c0,3.15.8,4.89,2.15,4.89s2.24-1.74,2.24-4.89-.83-4.91-2.24-4.91S598.07,250.72,598.07,253.89Zm1.66,14.28,12.77-20.8.85.52-12.76,20.8ZM617.41,262c0,3.59-2.08,5.72-4.71,5.72s-4.75-2.05-4.75-5.53,2.15-5.7,4.75-5.7S617.41,258.52,617.41,262Zm-6.92.11c0,3.14.84,4.89,2.21,4.89s2.19-1.75,2.19-4.89-.81-4.92-2.19-4.92S610.49,258.91,610.49,262.06Z"/><path class="cls-2" d="M411.47,205.17l47.7-.18-11.52,26.73q-1.17,2.61-2.52,6.3t-2.79,7.92q-1.44,4.23-2.79,8.37c-.9,2.76-1.73,5.33-2.48,7.69s-1.33,4.37-1.75,6H420c1.08-1.8,2.37-4,3.87-6.53s3.06-5.26,4.68-8.14,3.22-5.74,4.81-8.6,3-5.49,4.28-7.91,2.28-4.46,3.06-6.08l4.68-10H416.6a6.17,6.17,0,0,0-4.23,1.35,9.78,9.78,0,0,0-2.52,4H409Z"/><path class="cls-2" d="M470.42,271.41l-.36-.63q9.63-3,15.07-6.66a24.12,24.12,0,0,0,8-8.37,28.48,28.48,0,0,0,3.15-10.58,126.67,126.67,0,0,0,.63-13.36q0-7.47-.36-12.46a18.45,18.45,0,0,0-1.76-7.48A5,5,0,0,0,490,209.4a6,6,0,0,0-5,2.2,13,13,0,0,0-2.34,5.72A43.37,43.37,0,0,0,482,225a42.51,42.51,0,0,0,.58,8,10.87,10.87,0,0,0,1.62,4.27,5.52,5.52,0,0,0,6.12,2.21,12.81,12.81,0,0,0,2.93-1.26l.63.72a10.79,10.79,0,0,1-4,4.59,15.21,15.21,0,0,1-6.21,2.34,18.21,18.21,0,0,1-7.11-.32,16.42,16.42,0,0,1-11.43-9.67,22.58,22.58,0,0,1-1.62-9.9,23.44,23.44,0,0,1,3-11,20,20,0,0,1,8.55-7.92q5.76-3,14.67-3.06,13.23-.18,20.29,7t7.07,22.68a48.37,48.37,0,0,1-2.88,17.23,30.69,30.69,0,0,1-8.73,12.65,34.29,34.29,0,0,1-14.58,7.15Q482.21,272.84,470.42,271.41Z"/><path class="cls-2" d="M532,269.25a8.07,8.07,0,1,1,5.76-2.39A7.81,7.81,0,0,1,532,269.25Z"/><path class="cls-2" d="M546.56,268l.09-.9h1.89a4.78,4.78,0,0,0,3.51-1.44,4.67,4.67,0,0,0,1.44-3.42V216.6q0-3.51-1.62-4.86a6.53,6.53,0,0,0-4.32-1.35h-1.62v-.9c1.26-.06,3-.23,5.08-.5s4.43-.63,6.89-1.08a67.19,67.19,0,0,0,7.15-1.71,26,26,0,0,0,5.9-2.47h.9v58.59a4.45,4.45,0,0,0,1.48,3.37,4.88,4.88,0,0,0,3.47,1.4h1.89v.9Z"/><path class="cls-1" d="M359.5,40.89a15.1,15.1,0,0,1-1.33,2.47l.12,0H364c.68-.72.83-.83,1-.83s.32.11,1,.74c.32.29.43.42.43.56s-.05.25-.54.54v1.23c0,5,.05,5.54.05,6.32a1.54,1.54,0,0,1-.57,1.45,2.34,2.34,0,0,1-1.43.45c-.21,0-.28-.07-.34-.41-.11-.74-.45-1-2.16-1.46-.09,0-.09-.22,0-.22,1,.08,1.57.11,2.47.11.23,0,.27,0,.27-.23V49.17h-6.05c0,1.95,0,3,0,4,0,.5-.38.72-1.08.72-.53,0-.74-.16-.74-.54s.09-2.11.09-3.42v-4.5a15.61,15.61,0,0,1-3.78,2.64c-.07,0-.2-.16-.13-.21a17.81,17.81,0,0,0,5.22-7h-3.44a11.85,11.85,0,0,0-1.45.11l-.2-.67a9.06,9.06,0,0,0,1.6.15h3.65a14.36,14.36,0,0,0,.87-3.14c1.82.4,2.32.62,2.32.85s-.21.36-.75.5c-.2.63-.42,1.23-.65,1.79h6.07c.88-1,1.09-1.17,1.22-1.17s.38.14,1.26.81c.41.32.56.46.56.59s-.06.18-.24.18Zm4.68,5.1V43.81h-6.05V46Zm-6.05,2.77h6.05V46.4h-6.05Z"/><path class="cls-1" d="M376.4,48.38a12.94,12.94,0,0,1-2.16,4.25c-.06.07-.24,0-.2-.13a24.69,24.69,0,0,0,.77-3.38,14.15,14.15,0,0,0,.17-1.95c1.72.53,2,.63,2,.87S376.79,48.29,376.4,48.38Zm-.13-3.44a32.54,32.54,0,0,0,1.68-3,13.64,13.64,0,0,0,.88-2.18c1.48.61,2,.9,2,1.11s-.18.29-.67.27a25.77,25.77,0,0,1-3.33,3.82c.54,0,1.8,0,2.7-.09a5.69,5.69,0,0,0-.67-1.37c-.05-.07.07-.14.15-.1a5.69,5.69,0,0,1,1.44,1,16.51,16.51,0,0,0,2.88-4.93,14.07,14.07,0,0,0,.63-2.22c1.92.49,2.3.65,2.3.89s-.07.27-.61.32a8.8,8.8,0,0,0,2.14,2.86A8.56,8.56,0,0,0,391,43a.09.09,0,0,1,0,.18,1.72,1.72,0,0,0-.92,1.26c-.07.29-.14.38-.3.38a1.6,1.6,0,0,1-.6-.38,10.75,10.75,0,0,1-2-2.18,15.54,15.54,0,0,1-1.73-3.58,13.33,13.33,0,0,1-4.77,5.85,1.92,1.92,0,0,1,.54,1.25.84.84,0,0,1-.78.93c-.48,0-.59-.18-.72-1.22l0-.24c-.38.13-.76.26-1.14.36V48.2c0,1.93.06,4.34.06,5.13,0,.49-.33.69-.92.69s-.72-.13-.72-.53.11-1.6.11-3.94V46c-.53.13-1.1.24-1.71.34-.11.36-.24.51-.38.51s-.38-.36-.69-2c.47,0,.65,0,1,0Zm.43-6.21a13.9,13.9,0,0,0,.24-1.41c1.46.45,2.16.78,2.16,1s-.24.33-.7.33a16.44,16.44,0,0,1-1.95,2.25,1.59,1.59,0,0,1,.81,1.35c0,.61-.36,1-.83,1s-.52-.07-.79-1.09a3.52,3.52,0,0,0-1-1.86c-.05-.07,0-.23.13-.2a8.58,8.58,0,0,1,1.39.58C376.36,40.08,376.54,39.38,376.7,38.73ZM380,51.21c-.39,0-.59-.34-.63-1.46a6.61,6.61,0,0,0-.5-2.38.08.08,0,0,1,.12-.11c1.25,1,1.84,1.89,1.84,2.83C380.79,50.72,380.43,51.21,380,51.21Zm3.15,1.35v.66c0,.45-.28.69-1,.69-.5,0-.68-.2-.68-.6,0-.72.09-1.45.09-4.37,0-.92,0-1.84-.09-2.76a20.21,20.21,0,0,1,1.87.9H387c.67-.75.81-.86.95-.86s.33.11,1,.65c.27.23.38.36.38.5s-.08.25-.51.58v.84c0,2.27.09,3.82.09,4.33s-.27.68-1,.68c-.5,0-.7-.16-.7-.56v-.68Zm2.63-8.36c.63-.9.85-1,1-1s.37.14,1.09.74c.3.25.45.41.45.54s-.06.18-.24.18h-4.73a6.23,6.23,0,0,0-1,.1l-.2-.66a5,5,0,0,0,1.19.14Zm1.5,3.3h-4.13v4.64h4.13Z"/><path class="cls-1" d="M397.3,38.87h-.38a5.23,5.23,0,0,0-1,.11l-.19-.66a5.37,5.37,0,0,0,1.18.14h6c.75-.86,1-1,1.09-1s.36.15,1.08.7c.33.27.47.42.47.54s-.05.18-.23.18h-2.22V44c0,3.44,0,7.71,0,9.13,0,.57-.29.81-1,.81s-.76-.18-.76-.7c0-.35.09-1.41.09-3.52v-.57A22.16,22.16,0,0,1,397,51.21c-.13.48-.27.68-.51.68s-.27,0-.86-2.23c.5,0,1.08-.09,1.66-.16ZM398.9,42h2.66V38.87H398.9Zm0,3.35h2.66V42.37H398.9Zm0,4c.9-.14,1.78-.32,2.66-.54v-3H398.9Zm10.39-8.86c.74-.82.86-.95,1-.95s.34.09,1,.7c.45.4.48.52.48.7s-.14.35-.59.58a19.55,19.55,0,0,1-2.61,7.13,13,13,0,0,0,4.14,2.94c.09,0,0,.18,0,.21a1.49,1.49,0,0,0-1,1.19c-.09.38-.14.47-.32.47a1.55,1.55,0,0,1-.67-.38,12.74,12.74,0,0,1-3.07-3.12,13.3,13.3,0,0,1-4.22,3.37c-.07,0-.21-.18-.14-.23a16.1,16.1,0,0,0,3.58-4.38l-.38-.81a22.5,22.5,0,0,1-1.62-7c-.43,0-.79,0-1.11.09l-.18-.67a5.44,5.44,0,0,0,1.58.16Zm-3.93.42a18.11,18.11,0,0,0,2.27,6.43,23.53,23.53,0,0,0,1.82-6.43Z"/><path class="cls-1" d="M419.42,45.84a14.44,14.44,0,0,1-2.16,1.5c-.07,0-.22-.11-.15-.18a19.26,19.26,0,0,0,3-4.06,9.28,9.28,0,0,0,.81-1.94c1.89.79,2,.85,2,1.06s-.14.25-.63.38a10.57,10.57,0,0,1-1.66,2.12c.76.13.89.2.89.38s-.11.27-.49.44v7.67c0,.52-.31.75-.94.75-.41,0-.77-.16-.77-.68s.11-1.89.11-4.74Zm2.66-7a13,13,0,0,1-4.59,3.66c-.09,0-.18-.15-.11-.2a15.27,15.27,0,0,0,2.42-3.08,8,8,0,0,0,.9-1.93c1.58.71,2.16,1,2.16,1.25S422.66,38.8,422.08,38.8Zm8.84,10.79c0,.84,0,1.69,0,2.54a1.49,1.49,0,0,1-.47,1.13,1.93,1.93,0,0,1-1.44.49c-.25,0-.36-.09-.41-.35-.15-.68-.49-.88-1.88-1.26-.09,0-.09-.27,0-.27.87.06,1.55.09,2.24.09.25,0,.3-.05.3-.27V48.15h-5.78a10.06,10.06,0,0,0-1.33.1l-.2-.66a7.88,7.88,0,0,0,1.5.14h5.81V47.3c0-.5,0-.74-.07-1.35,1.91.22,2.18.29,2.18.56s-.13.23-.49.41v.81h.67c.65-.77.86-.92,1-.92s.36.15,1,.65c.27.22.42.38.42.51s-.06.18-.24.18h-2.81Zm.22-4.36c.7-.85.92-1,1-1s.36.14,1.08.68c.33.27.47.42.47.54s-.05.18-.23.18h-9.76a9.21,9.21,0,0,0-1.28.11l-.2-.66a8.37,8.37,0,0,0,1.46.14Zm-5.76-1.78c0,.52-.27.73-.9.73s-.78-.17-.78-.57.09-1,.09-2.86c0-1,0-2.06-.09-3.1a13.11,13.11,0,0,1,1.82.88h4.39c.63-.7.78-.81.92-.81s.33.11,1,.65c.29.25.39.38.39.52s0,.24-.5.58v.65c0,1.72.07,2.91.07,3.31s-.3.75-.94.75-.72-.17-.72-.7v0Zm.41,8.3c-.47,0-.61-.18-.83-1A4.09,4.09,0,0,0,424,49a.13.13,0,0,1,.13-.18c1.83.39,2.63,1.09,2.63,1.89A1,1,0,0,1,425.79,51.75Zm4.3-12.8h-4.71v1.83h4.71Zm0,2.25h-4.71V43h4.71Z"/><path class="cls-1" d="M447.79,49.82c0,1.89,0,3.19,0,3.64s-.39.61-1,.61-.76-.14-.76-.65.07-1.46.09-3.6h-5.56a9.87,9.87,0,0,0-1.32.11l-.19-.67a7.62,7.62,0,0,0,1.47.15h5.6V49.3a18.17,18.17,0,0,0-.09-2c2.11.22,2.34.29,2.34.56s-.09.23-.59.48v1.07h4.46c.9-1.12,1.12-1.26,1.25-1.26s.36.14,1.27.88c.42.32.56.48.56.61s-.05.18-.23.18Zm-7.11-2.52c0,.54-.08.72-.33.72s-.5-.45-1.19-1.94c.54-.15,1.07-.29,1.55-.45a17.82,17.82,0,0,0,3.22-1.34c.08,0,.24.15.18.22A13.43,13.43,0,0,1,440.68,47.3ZM446.17,40c1.26.48,1.65.7,1.65.91s0,.2-.63.22a9.32,9.32,0,0,1-1.58,1.37,1.43,1.43,0,0,1,.61,1.11.77.77,0,0,1-.74.85c-.43,0-.48-.07-.77-1a3.94,3.94,0,0,0-1.1-1.66.09.09,0,0,1,.07-.16,5.61,5.61,0,0,1,1.44.5c.17-.34.33-.68.47-1A7.45,7.45,0,0,0,446,40h-5.37a8.8,8.8,0,0,0-1.26.1l-.2-.66a7.13,7.13,0,0,0,1.42.14H446V38.39a7.11,7.11,0,0,0-.09-1.07c2.23.2,2.45.4,2.45.6s-.2.36-.63.5v1.19h4.29c1-1.08,1.2-1.22,1.33-1.22s.34.14,1.19.84c.37.33.52.49.52.62s-.06.18-.24.18Zm-4,4.07c-.49,0-.61-.17-.94-1.12a4.19,4.19,0,0,0-1.15-1.93.1.1,0,0,1,.09-.16c2,.58,2.9,1.26,2.9,2.2A1,1,0,0,1,442.17,44.1Zm6.77,1.8a5.26,5.26,0,0,0-.74-1.09c-.05-.07,0-.16.13-.12,1.53.5,2.5,1.33,2.5,2.18a.88.88,0,0,1-.85.92c-.41,0-.5-.13-.75-1.1a3.12,3.12,0,0,0-.15-.43,24.33,24.33,0,0,1-4.7,1.17c-.09.39-.14.48-.3.48s-.4-.3-.78-1.94c.81,0,1.25.05,1.84.05a22.8,22.8,0,0,0,2.31-3,13,13,0,0,0,.77-1.46c1.55.81,1.82,1,1.82,1.22s0,.2-.76.24a38.47,38.47,0,0,1-3.4,3C446.91,46,447.91,46,448.94,45.9Zm4.48-3.73A13.71,13.71,0,0,1,450,44.24c-.09,0-.23-.11-.16-.16a13.12,13.12,0,0,0,1.78-2.15,5.88,5.88,0,0,0,.69-1.27c1.38.72,1.83,1,1.83,1.24S454,42.19,453.42,42.17Zm-.09,5.42c-.45,0-.59-.15-1.1-1a4.78,4.78,0,0,0-1.71-1.8c-.07,0,0-.2.08-.18,2.41.36,3.6,1.06,3.6,2.11A.87.87,0,0,1,453.33,47.59Z"/><path class="cls-1" d="M961.16,253.79c0,3.56-2.13,5.69-4.78,5.69s-4.69-2-4.69-5.51,2.11-5.72,4.69-5.72S961.16,250.36,961.16,253.79Zm-6.94.1c0,3.15.8,4.89,2.16,4.89s2.23-1.74,2.23-4.89-.83-4.91-2.23-4.91S954.22,250.72,954.22,253.89Zm1.66,14.28,12.77-20.8.86.52-12.77,20.8ZM973.56,262c0,3.59-2.08,5.72-4.7,5.72s-4.76-2.05-4.76-5.53,2.16-5.7,4.76-5.7S973.56,258.52,973.56,262Zm-6.91.11c0,3.14.83,4.89,2.21,4.89s2.18-1.75,2.18-4.89-.81-4.92-2.18-4.92S966.65,258.91,966.65,262.06Z"/><path class="cls-2" d="M778.51,268l.09-.9h1.89a4.78,4.78,0,0,0,3.51-1.44,4.67,4.67,0,0,0,1.44-3.42V216.6q0-3.51-1.62-4.86a6.53,6.53,0,0,0-4.32-1.35h-1.62v-.9c1.26-.06,3-.23,5.09-.5s4.42-.63,6.88-1.08A68,68,0,0,0,797,206.2a26.09,26.09,0,0,0,5.89-2.47h.9v58.59a4.46,4.46,0,0,0,1.49,3.37,4.85,4.85,0,0,0,3.46,1.4h1.89v.9Z"/><path class="cls-2" d="M844.39,203.73a26.77,26.77,0,0,1,15,4.09A26.43,26.43,0,0,1,869,219.25a46.16,46.16,0,0,1,0,34.43,26.26,26.26,0,0,1-9.54,11.47,29.53,29.53,0,0,1-30,0,26.14,26.14,0,0,1-9.58-11.47,46.16,46.16,0,0,1,0-34.43,26.31,26.31,0,0,1,9.58-11.43A26.84,26.84,0,0,1,844.39,203.73Zm0,4.5q-4.68,0-6.84,6.88t-2.16,21.38q0,14.49,2.16,21.37t6.84,6.89q4.68,0,6.84-6.89t2.16-21.37q0-14.49-2.16-21.38T844.39,208.23Z"/><path class="cls-2" d="M906.49,203.73a26.77,26.77,0,0,1,15,4.09,26.43,26.43,0,0,1,9.54,11.43,46.16,46.16,0,0,1,0,34.43,26.26,26.26,0,0,1-9.54,11.47,29.53,29.53,0,0,1-30,0,26.14,26.14,0,0,1-9.58-11.47,46.16,46.16,0,0,1,0-34.43,26.31,26.31,0,0,1,9.58-11.43A26.84,26.84,0,0,1,906.49,203.73Zm0,4.5q-4.68,0-6.84,6.88t-2.16,21.38q0,14.49,2.16,21.37t6.84,6.89q4.68,0,6.84-6.89t2.16-21.37q0-14.49-2.16-21.38T906.49,208.23Z"/><path class="cls-1" d="M725.85,40a14.79,14.79,0,0,1-2.25,2.36c2.27,0,4.56,0,6.82-.25a7.8,7.8,0,0,0-1.83-1.37c-.07-.05,0-.2,0-.18,2.94.43,4.72,1.46,4.72,2.68a1,1,0,0,1-.92,1c-.34,0-.58-.16-.88-.65s-.56-.83-.79-1.14a58.4,58.4,0,0,1-10,1.45c-.15.45-.22.55-.42.55s-.36-.2-.79-2.28a32.46,32.46,0,0,0,3.26.14,18.06,18.06,0,0,0,.77-2.36h-3.62a9.21,9.21,0,0,0-1.26.11l-.19-.67a7.34,7.34,0,0,0,1.44.15h5.6V38.24a10.41,10.41,0,0,0-.09-1c2.23.2,2.45.4,2.45.57s-.22.37-.65.51v1.28h4.3c.94-1.08,1.15-1.23,1.28-1.23s.34.15,1.24.85c.38.31.52.49.52.61s-.05.18-.23.18Zm-3,9.92c0,1.73,0,2.6,0,3.51,0,.51-.36.71-1.07.71-.54,0-.73-.18-.73-.74,0-1,.07-1.86.07-5.85,0-1.17,0-2.34-.07-3.51a13.77,13.77,0,0,1,2,.86h6.57c.59-.7.74-.81.88-.81s.33.11,1.1.72c.34.29.45.41.45.56s-.07.27-.52.56V47c0,4.25,0,4.54,0,5.29a1.46,1.46,0,0,1-.79,1.42,2.78,2.78,0,0,1-1.29.33c-.15,0-.22-.07-.29-.54s-.43-.83-2-1.3c-.09,0-.09-.21,0-.21,1.06.07,1.58.09,2.37.09.16,0,.2-.06.2-.22V49.89Zm6.93-4.61H722.9v1.86h6.93Zm-6.93,4.2h6.93V47.55H722.9Z"/><path class="cls-1" d="M746.71,47.75c-.54,3.85-2.27,5.44-6.59,6.07-.09,0-.18-.22-.09-.25,2.61-.94,4-2.13,4.61-4.07a9.59,9.59,0,0,0,.31-2.85c2.3.34,2.32.36,2.32.61S747.13,47.55,746.71,47.75ZM743.56,40c0,3.26.07,5.51.07,6.25,0,.58-.28.79-1,.79-.58,0-.79-.16-.79-.68s.09-2.2.09-5.49a23.37,23.37,0,0,0-.13-3.12c2.31.31,2.31.31,2.31.58s-.15.31-.51.43Zm4.18,5.59v.18c0,.5-.27.73-.92.73s-.76-.19-.76-.55c0-.92.09-1.84.09-5.55,0-.85,0-1.71-.09-2.58a12.21,12.21,0,0,1,1.82.89h4.65c.66-.7.81-.81,1-.81s.33.11,1,.65c.29.25.39.37.39.52s-.05.25-.5.56v1c0,2.7.07,4.54.07,5.15s-.29.74-1,.74c-.5,0-.68-.18-.68-.68v-.25Zm5-6.47h-5v2.76h5Zm0,3.17h-5v2.88h5Zm-2.42,9c0,.85.17.89,1.48.89,1.51,0,2.09-.13,2.4-.38s.46-.49,1.13-2.34c0-.09.23-.06.23,0,0,.64-.1,1.66-.1,1.89s0,.31.3.45a.71.71,0,0,1,.43.67c0,.45-.28.76-1,1a13.83,13.83,0,0,1-3.34.28c-2.66,0-3.2-.37-3.2-1.69,0-.54,0-1.06,0-2.74,0-1,0-1.69-.09-2.59,2.18.24,2.3.33,2.3.56s-.14.29-.56.49Z"/><path class="cls-1" d="M763.34,44.44a15.47,15.47,0,0,1-2,2c-.07.05-.23-.09-.18-.16a19.58,19.58,0,0,0,3.05-6,16.58,16.58,0,0,0,.65-3c1.63.45,2.37.76,2.37,1s-.18.32-.63.4A20.59,20.59,0,0,1,764.46,43c.83.13.95.2.95.38s-.1.27-.46.43v9.42c0,.52-.31.75-.94.75-.4,0-.77-.16-.77-.68s.1-1.89.1-4.74Zm8.88-.8c0,4.31.13,7,.13,9.62,0,.49-.31.67-1.07.67-.55,0-.81-.17-.81-.53,0-.93.13-4.79.15-8.26a16.79,16.79,0,0,1-5.31,5.51c-.08.05-.24-.09-.18-.16a21.33,21.33,0,0,0,4.75-8.05h-2.79a6.11,6.11,0,0,0-1.12.11l-.2-.67A5.54,5.54,0,0,0,767,42h3.54V39.74a17.11,17.11,0,0,0-.1-2.29c2.37.32,2.41.32,2.41.63s-.18.33-.65.54V42h2.83c.84-1.08,1.06-1.22,1.19-1.22s.34.14,1.17.85c.36.32.5.48.5.61s0,.18-.23.18h-5.35a11.47,11.47,0,0,0,2.37,3.65,12.15,12.15,0,0,0,3.79,2.7c.09,0,0,.2,0,.22-.41.09-.76.43-1,1.08-.16.42-.21.45-.39.45a1.19,1.19,0,0,1-.61-.32,11.49,11.49,0,0,1-2.44-3,14.47,14.47,0,0,1-1.76-4.37Z"/><path class="cls-1" d="M792,48.61A11.11,11.11,0,0,0,795,50.38a15,15,0,0,0,4.74,1c.09,0,.09.17,0,.2-.67.25-.83.4-1.32,1.5a.29.29,0,0,1-.27.19,3.07,3.07,0,0,1-.84-.27,13,13,0,0,1-3.17-1.74,11.39,11.39,0,0,1-2.31-2.38c.06,2.3.11,4,.11,4.48s-.29.69-1.06.69c-.49,0-.7-.2-.7-.6s.09-2.18.12-3.76a13.07,13.07,0,0,1-7.13,3.66c-.09,0-.18-.13-.09-.17a15,15,0,0,0,6-4.61H784.8a9,9,0,0,0-1.26.11l-.2-.66a7.58,7.58,0,0,0,1.39.14h5.49V46.53h-3.53a9.16,9.16,0,0,0-1.28.1l-.2-.66a7.15,7.15,0,0,0,1.43.14h3.58V44.47h-4.47a9.47,9.47,0,0,0-1.29.11l-.2-.66a8.08,8.08,0,0,0,1.44.14h2.95c-.23-.07-.36-.31-.5-.83a3.53,3.53,0,0,0-.9-1.55c-.07,0,0-.16.11-.14,1.62.25,2.44.81,2.44,1.64a.92.92,0,0,1-.63.88h2.9a10.85,10.85,0,0,0,.76-1.55,8.59,8.59,0,0,0,.36-1.13c1.46.55,2,.84,2,1.06s-.12.27-.79.3a11,11,0,0,1-1.76,1.32h3c.85-.94,1.07-1.08,1.19-1.08s.36.14,1.15.75c.35.29.49.44.49.56s0,.18-.23.18h-6.43v1.64h2.81c.77-.86,1-1,1.11-1s.36.15,1,.71c.3.25.45.41.45.54s-.06.18-.24.18h-5.18V48.2h4.46c.92-1,1.14-1.17,1.26-1.17s.35.14,1.17.81c.37.29.51.47.51.59s0,.18-.23.18Zm-3.37-9.92a7.41,7.41,0,0,0-.09-1.31c2,.2,2.23.34,2.23.56s-.14.25-.57.45v2.55h1.49V38.69a7.41,7.41,0,0,0-.09-1.31c2.05.22,2.25.34,2.25.56s-.12.25-.59.45v2.55H794a16.94,16.94,0,0,0,1-2,7.76,7.76,0,0,0,.4-1.21c1.58.67,2.14,1,2.14,1.17s-.12.33-.83.34a11.27,11.27,0,0,1-2.16,1.71h2.11c.81-.9,1-1,1.15-1s.36.14,1.12.72c.34.29.49.43.49.56s-.06.18-.24.18H784.74a8.76,8.76,0,0,0-1.33.11l-.2-.67a7.69,7.69,0,0,0,1.48.14h4Zm-1.93,1.93c-.41,0-.57-.16-.75-.7a3.66,3.66,0,0,0-1-1.77c-.08,0,0-.18.08-.16,1.7.29,2.58.88,2.58,1.73A.93.93,0,0,1,786.74,40.62Z"/><path class="cls-1" d="M813.58,49.82c0,1.89.06,3.19.06,3.64s-.4.61-1,.61-.75-.14-.75-.65.07-1.46.09-3.6h-5.57a9.74,9.74,0,0,0-1.31.11l-.2-.67a7.71,7.71,0,0,0,1.48.15h5.6V49.3a18.17,18.17,0,0,0-.09-2c2.1.22,2.34.29,2.34.56s-.09.23-.6.48v1.07h4.47c.9-1.12,1.11-1.26,1.24-1.26s.36.14,1.28.88c.41.32.56.48.56.61s-.06.18-.24.18Zm-7.11-2.52c0,.54-.07.72-.32.72s-.51-.45-1.19-1.94c.54-.15,1.06-.29,1.55-.45a18.45,18.45,0,0,0,3.22-1.34c.07,0,.23.15.18.22A13.33,13.33,0,0,1,806.47,47.3ZM812,40c1.26.48,1.66.7,1.66.91s0,.2-.63.22a9.35,9.35,0,0,1-1.59,1.37,1.44,1.44,0,0,1,.62,1.11.77.77,0,0,1-.74.85c-.43,0-.49-.07-.78-1a3.92,3.92,0,0,0-1.09-1.66.09.09,0,0,1,.07-.16,5.9,5.9,0,0,1,1.44.5c.16-.34.32-.68.47-1A7.4,7.4,0,0,0,811.8,40h-5.36a9,9,0,0,0-1.27.1l-.19-.66a7.06,7.06,0,0,0,1.42.14h5.44V38.39a7.11,7.11,0,0,0-.09-1.07c2.23.2,2.45.4,2.45.6s-.2.36-.64.5v1.19h4.29c1-1.08,1.21-1.22,1.33-1.22s.34.14,1.19.84c.38.33.52.49.52.62s0,.18-.23.18Zm-4,4.07c-.49,0-.62-.17-.94-1.12a4.28,4.28,0,0,0-1.15-1.93.09.09,0,0,1,.09-.16c2,.58,2.9,1.26,2.9,2.2A1,1,0,0,1,808,44.1Zm6.77,1.8a5.26,5.26,0,0,0-.74-1.09c-.06-.07,0-.16.12-.12,1.53.5,2.51,1.33,2.51,2.18a.88.88,0,0,1-.85.92c-.41,0-.5-.13-.76-1.1a3.09,3.09,0,0,0-.14-.43,24.52,24.52,0,0,1-4.7,1.17c-.09.39-.14.48-.31.48s-.39-.3-.77-1.94c.81,0,1.24.05,1.84.05a22.65,22.65,0,0,0,2.3-3,11.68,11.68,0,0,0,.78-1.46c1.54.81,1.81,1,1.81,1.22s0,.2-.75.24a38.17,38.17,0,0,1-3.41,3C812.7,46,813.71,46,814.74,45.9Zm4.48-3.73a13.89,13.89,0,0,1-3.42,2.07c-.09,0-.24-.11-.16-.16a13.12,13.12,0,0,0,1.78-2.15,6.23,6.23,0,0,0,.68-1.27c1.39.72,1.84,1,1.84,1.24S819.79,42.19,819.22,42.17Zm-.09,5.42c-.45,0-.6-.15-1.1-1a4.86,4.86,0,0,0-1.71-1.8c-.07,0,0-.2.07-.18,2.41.36,3.6,1.06,3.6,2.11A.86.86,0,0,1,819.13,47.59Z"/><path class="cls-1" d="M836.23,50.23A17.64,17.64,0,0,1,828.65,54c-.09,0-.2-.2-.11-.23a22,22,0,0,0,6.68-4.61,16.91,16.91,0,0,1-3-7.76,22.68,22.68,0,0,1-1.41,7,10.67,10.67,0,0,1-4.55,5.42c-.08.05-.2-.13-.15-.2a13.7,13.7,0,0,0,3.32-5.64A30.59,30.59,0,0,0,830.45,39h-1.82a6.53,6.53,0,0,0-1.39.11l-.16-.67a6,6,0,0,0,1.5.15h7.2c.63-.76.77-.87.92-.87s.32.11,1.06.8c.34.3.45.45.45.59s-.18.38-.63.52a26.82,26.82,0,0,1-1,3.22h2c.66-.81.77-.88.93-.88s.33.07,1.14.7c.43.33.52.47.52.69s-.18.3-.65.43a16,16,0,0,1-3.2,5.38A15,15,0,0,0,843.07,52c.09,0,.07.18,0,.22-.84.31-1,.47-1.24,1.37,0,.2-.13.29-.23.29a3.37,3.37,0,0,1-1.23-.53,23,23,0,0,1-4-3Zm-4-10.15a16.48,16.48,0,0,0,3.91,8,14.4,14.4,0,0,0,2.55-4.81h-2.26l0,.09a.83.83,0,0,1-.9.58c-.58,0-.92-.22-.92-.53a2.53,2.53,0,0,1,.22-.65A22.51,22.51,0,0,0,835.92,39h-3.67c0,.33,0,.63,0,1Z"/><path class="cls-1" d="M858.8,43.75c0,.63,0,1.14,0,1.59a13.15,13.15,0,0,1-.31,3.44c-.65,2.57-2.39,4.3-5,4.3a4,4,0,0,1-3.29-1.4,5.3,5.3,0,0,1-1.1-3.37,11.21,11.21,0,0,1,2.39-6.59c-.32,0-.86.05-1.13.05a1.76,1.76,0,0,1-1.53-.68,2.15,2.15,0,0,1-.38-1.12c0-.09,0-.23.14-.23s.18.09.24.18c.25.45.52.57,1.24.57a7.88,7.88,0,0,0,2.47-.52,2.12,2.12,0,0,0,.52-.34.84.84,0,0,1,.56-.18,1.62,1.62,0,0,1,1.17.79.5.5,0,0,1,.09.27c0,.2-.15.36-.42.45a3.72,3.72,0,0,0-1.15.76,11.71,11.71,0,0,0-2,2.41A8,8,0,0,0,850.16,48a3.3,3.3,0,0,0,.81,2.46,3,3,0,0,0,2.5.92c3.17,0,4.21-2.74,4.57-5.44a14,14,0,0,0,.13-2.9,5.28,5.28,0,0,0-.49-2.14,1.75,1.75,0,0,1-.16-.75c0-.36.38-.62.92-.62a.68.68,0,0,1,.7.69,4.91,4.91,0,0,0,.22,1.74,7.24,7.24,0,0,0,1.26,2.31A9.54,9.54,0,0,0,862.26,46a1.72,1.72,0,0,1,.59,1.2.88.88,0,0,1-.29.67.63.63,0,0,1-.5.21c-.34,0-.81-.3-1.5-1.2a11,11,0,0,1-1.65-3.12Zm2.77-4a1.34,1.34,0,0,1,.67,1.08.6.6,0,0,1-.59.63A.66.66,0,0,1,861,41a6.87,6.87,0,0,0-1.13-1.58c-.07-.07-.2-.16-.2-.23s0-.09.09-.11a.71.71,0,0,1,.29,0A3.47,3.47,0,0,1,861.57,39.74Zm1.66-1.21a1.16,1.16,0,0,1,.65.92.6.6,0,0,1-.56.67.71.71,0,0,1-.67-.4,4.41,4.41,0,0,0-1.26-1.4c-.07-.06-.21-.15-.21-.22s0-.09.05-.11a.62.62,0,0,1,.29,0A3.8,3.8,0,0,1,863.23,38.53Z"/><path class="cls-1" d="M870.57,46.13a14.81,14.81,0,0,1-2.05,1.51c-.08.06-.2-.11-.15-.18a20.1,20.1,0,0,0,2.94-4.27,11.08,11.08,0,0,0,.74-1.92c1.72.74,2,.86,2,1.06s-.15.27-.63.4a12.35,12.35,0,0,1-1.6,2.19c.75.13.88.2.88.38s-.13.27-.49.43v7.62c0,.52-.3.76-.93.76-.42,0-.78-.15-.78-.63s.11-1.91.11-4.79Zm2.68-7.31a12.93,12.93,0,0,1-4.48,3.76c-.07,0-.2-.11-.13-.18A15.33,15.33,0,0,0,871,39.29a9.61,9.61,0,0,0,.84-1.95c1.44.51,2.24.9,2.24,1.16S873.79,38.8,873.25,38.82Zm4.2,7.29c1.26.36,1.67.54,1.67.74s-.11.25-.74.41a3.91,3.91,0,0,1-.3.45h3c.65-.64.79-.75.94-.75s.32.11,1,.7c.33.29.44.41.44.56s-.19.34-.85.48A13.4,13.4,0,0,1,880.35,51a13,13,0,0,0,5.18,1c.09,0,.09.18,0,.22a1.68,1.68,0,0,0-1,1.33c-.06.29-.13.38-.27.38a3.84,3.84,0,0,1-.9-.22,12.72,12.72,0,0,1-4-2,16.11,16.11,0,0,1-6.68,2.23c-.09,0-.18-.18-.09-.21a19.32,19.32,0,0,0,5.86-2.89,9.83,9.83,0,0,1-1.34-1.87A10.13,10.13,0,0,1,873,51.57c-.09,0-.18-.11-.11-.16a13.2,13.2,0,0,0,3.41-3.55,5.76,5.76,0,0,0,.82-1.75h-.28c0,.45-.34.63-.9.63s-.74-.18-.74-.52.05-1,.05-2.94c0-.35,0-.77,0-1.22a8.78,8.78,0,0,1-1.2,1.08c-.07,0-.2,0-.15-.13a17.14,17.14,0,0,0,1.75-3.83,10,10,0,0,0,.47-1.82c1.8.54,2.21.72,2.21,1s-.1.29-.75.42c-.15.29-.31.56-.47.84h5.17c.88-1.06,1.09-1.2,1.22-1.2s.34.14,1.19.84c.36.31.5.47.5.6s0,.18-.23.18h-8.1c-.26.38-.51.74-.78,1.08a5.78,5.78,0,0,1,.83.48h4.7c.56-.63.7-.73.85-.73s.34.1,1,.61c.28.23.39.36.39.5s-.12.29-.5.51V43c0,1.52.05,2.54.05,2.88,0,.51-.29.74-.93.74-.42,0-.67-.14-.72-.54ZM881.7,42h-4.88v1.58h4.88Zm0,2h-4.88V45.7h4.88Zm-3.93,4.14c-.16.21-.29.36-.43.52a8,8,0,0,0,1.78,1.6,12.28,12.28,0,0,0,2-2.12Z"/><path class="cls-1" d="M895.07,40.22c0,6.23-.33,8.27-1.35,10.21a8.64,8.64,0,0,1-3.12,3.35c-.09.06-.27-.12-.2-.21a10.47,10.47,0,0,0,2.2-3.66c.69-1.93.88-3.56.88-8a36,36,0,0,0-.16-4.28c2.18.27,2.38.32,2.38.59s-.09.27-.63.49ZM892.3,42.1c0,2.77.05,4.3.05,4.8s-.36.62-.92.62-.68-.15-.68-.65.09-1.64.09-4.67a22.55,22.55,0,0,0-.09-2.32c1.89.22,2.09.29,2.09.52s-.09.27-.54.49Zm12.2,2.5c.71-.76.85-.87,1-.87s.31.11,1.17.92c.4.38.51.53.51.67,0,.32-.11.36-1,.34a.7.7,0,0,0-.47.16c-.38.24-.7.42-1.08.62-.06,0-.15,0-.13-.09a5.92,5.92,0,0,0,.31-1.34h-8a4.22,4.22,0,0,1,0,.49,2.7,2.7,0,0,1-.2,1.08c.5.23.83.4,1.41.7H900a16.72,16.72,0,0,0-.09-1.92c2.17.25,2.25.27,2.25.54s-.15.28-.63.5v.88h1.92c.63-.66.78-.77.92-.77s.33.11,1,.65c.31.25.42.37.42.52s-.09.27-.53.52v.47c0,1.73.06,2,.06,2.32a1.42,1.42,0,0,1-.67,1.37,2.46,2.46,0,0,1-1,.23c-.2,0-.29-.07-.34-.37-.09-.53-.38-.81-1.34-1-.1,0-.1-.21,0-.21.63,0,1,0,1.5,0,.21,0,.23-.05.23-.22V47.7H901.5c0,3,0,5,0,5.67,0,.5-.32.7-.95.7s-.72-.14-.72-.63.09-2.3.09-5.74h-2v4.06c0,.55-.31.78-.92.78s-.72-.18-.72-.49.07-.9.07-2.81c0-.77,0-1.45,0-2.21a.92.92,0,0,1-.6.2.83.83,0,0,1-.81-.88c0-.33.11-.51.49-.81a2.06,2.06,0,0,0,.85-1.82c0-.11.16-.16.19-.06a3.06,3.06,0,0,1,.31.94Zm-1.15-5.8h-5.47a4.3,4.3,0,0,0-1.1.15l-.2-.71a5.63,5.63,0,0,0,1.26.15h5.31c.65-.76.79-.87.94-.87s.32.11,1,.67c.3.27.41.4.41.54s0,.18-.57.59v.6c0,1.56,0,2.64,0,3,0,.5-.27.7-1,.7-.47,0-.65-.16-.67-.61h-5.6a4.21,4.21,0,0,0-1,.12l-.2-.66a5.83,5.83,0,0,0,1.15.12h5.64V40.87h-5.13a4.21,4.21,0,0,0-1,.13l-.2-.67a5.93,5.93,0,0,0,1.15.13h5.17Z"/><path class="cls-1" d="M920.74,49.82c0,1.89,0,3.19,0,3.64s-.39.61-1,.61-.76-.14-.76-.65.07-1.46.09-3.6h-5.56a9.87,9.87,0,0,0-1.32.11l-.2-.67a7.79,7.79,0,0,0,1.48.15h5.6V49.3a18.17,18.17,0,0,0-.09-2c2.11.22,2.34.29,2.34.56s-.09.23-.59.48v1.07h4.46c.9-1.12,1.12-1.26,1.25-1.26s.36.14,1.27.88c.42.32.56.48.56.61s0,.18-.23.18Zm-7.11-2.52c0,.54-.08.72-.33.72s-.5-.45-1.19-1.94c.54-.15,1.07-.29,1.55-.45a17.82,17.82,0,0,0,3.22-1.34c.08,0,.24.15.18.22A13.43,13.43,0,0,1,913.63,47.3ZM919.12,40c1.26.48,1.65.7,1.65.91s0,.2-.63.22a9.32,9.32,0,0,1-1.58,1.37,1.43,1.43,0,0,1,.61,1.11.77.77,0,0,1-.74.85c-.43,0-.48-.07-.77-1a3.94,3.94,0,0,0-1.1-1.66.09.09,0,0,1,.07-.16,5.61,5.61,0,0,1,1.44.5c.16-.34.33-.68.47-1A7.45,7.45,0,0,0,919,40h-5.37a8.8,8.8,0,0,0-1.26.1l-.2-.66a7.13,7.13,0,0,0,1.42.14H919V38.39a7.11,7.11,0,0,0-.09-1.07c2.23.2,2.45.4,2.45.6s-.2.36-.63.5v1.19H925c1-1.08,1.21-1.22,1.34-1.22s.34.14,1.19.84c.37.33.52.49.52.62s-.06.18-.24.18Zm-4,4.07c-.49,0-.61-.17-.94-1.12A4.19,4.19,0,0,0,913,41.05a.1.1,0,0,1,.09-.16c2,.58,2.9,1.26,2.9,2.2A1,1,0,0,1,915.12,44.1Zm6.77,1.8a5.26,5.26,0,0,0-.74-1.09c0-.07,0-.16.13-.12,1.53.5,2.5,1.33,2.5,2.18a.88.88,0,0,1-.85.92c-.41,0-.5-.13-.75-1.1a3.12,3.12,0,0,0-.15-.43,24.33,24.33,0,0,1-4.7,1.17c-.09.39-.14.48-.3.48s-.4-.3-.78-1.94c.81,0,1.25.05,1.84.05a23.7,23.7,0,0,0,2.31-3,13,13,0,0,0,.77-1.46c1.55.81,1.82,1,1.82,1.22s0,.2-.76.24a38.47,38.47,0,0,1-3.4,3C919.85,46,920.86,46,921.89,45.9Zm4.48-3.73A13.71,13.71,0,0,1,923,44.24c-.09,0-.23-.11-.16-.16a13.12,13.12,0,0,0,1.78-2.15,5.88,5.88,0,0,0,.69-1.27c1.38.72,1.83,1,1.83,1.24S927,42.19,926.37,42.17Zm-.09,5.42c-.45,0-.59-.15-1.1-1a4.78,4.78,0,0,0-1.71-1.8c-.07,0,0-.2.08-.18,2.41.36,3.6,1.06,3.6,2.11A.87.87,0,0,1,926.28,47.59Z"/><line class="cls-3" x1="680.79" y1="308.93" x2="680.79"/><line class="cls-3" x1="314.12" y1="308.93" x2="314.12"/><path class="cls-1" d="M756.44,99.34a7.69,7.69,0,1,0-7.69-7.69A7.69,7.69,0,0,0,756.44,99.34Z"/><path class="cls-1" d="M776.58,126.13l-2.68-11.25c-2.65-10.26-11.51-12.68-17.46-12.68s-14.81,2.42-17.45,12.68l-5.25,22a3,3,0,1,0,5.72,1.77l6.09-16.14.15,3.5a26.68,26.68,0,0,0-4.11,13.9c0,3.35,3.4,18.61,3.4,18.61h2.08L748,181a3.52,3.52,0,0,0,7,0l.88-22.41h1l.89,22.41a3.51,3.51,0,0,0,7,0l.95-22.48h2.09s3.4-15.26,3.4-18.61a24.89,24.89,0,0,0-.68-5.67L760.9,138a4.46,4.46,0,0,1-1.8.37,4.55,4.55,0,0,1-1.87-8.71l9.87-4.88c0,.06.23-2.29.23-2.29l1.25,3.3-10.69,5.29a3,3,0,0,0,2.42,5.48L774.7,131C776.55,130.15,777.09,128.24,776.58,126.13Z"/><path class="cls-1" d="M817.25,169.2l-.23.31-6.95-5.38,3.62-4.68a.63.63,0,0,1,1.19.13l.32.7a1.52,1.52,0,0,0,1.64.83l6-1.36a.74.74,0,0,1,1,.91l-.45,2.7a1.9,1.9,0,0,1-1.36,1.43l-3.37.72c-.64.14-.63.24,0,.22l1.88-.06c.65,0,1,.44.67,1a2.62,2.62,0,0,1-1.69,1.26l-.41.08A3.41,3.41,0,0,0,817.25,169.2Z"/><path class="cls-1" d="M797,170.47c.23-.95.67-.49.85-.16a15.14,15.14,0,0,0,3.69,4.78c1.32-1.64,4.55-5.79,7.35-9.4l7,5.42-.91,1.3c1.06,2.83,3.12,8.69,3.12,8.69a1.41,1.41,0,0,1-.87,1.81,1.38,1.38,0,0,1-1.75-.88l-3-6.09-1,1.39a2.34,2.34,0,0,1,.62,1.53v.64h.17c3.09,0,3.26,3.43.17,3.43h-9.61c-3.22,0-4.23-2.5-3.22-5.07C798.39,176.57,796.1,173.68,797,170.47Z"/><path class="cls-1" d="M845.37,91.54a7.89,7.89,0,1,1-7.88-7.89A7.88,7.88,0,0,1,845.37,91.54Z"/><path class="cls-1" d="M837.51,102.18h0c-5.32,0-16.79,2.27-16.79,13.52L822.1,143a3.15,3.15,0,0,0,3.35,3,3.06,3.06,0,0,0,2.46-1.87L829,179.82a4,4,0,1,0,8,0l.52-30h0l.52,30a4,4,0,1,0,8,0l1.05-35.66a3.06,3.06,0,0,0,2.46,1.87,3.15,3.15,0,0,0,3.35-3l1.39-27.32C854.31,104.45,842.83,102.18,837.51,102.18Z"/><path class="cls-1" d="M883.1,91.64a7.89,7.89,0,1,1-7.89-7.89A7.88,7.88,0,0,1,883.1,91.64Z"/><path class="cls-1" d="M885.49,134.53c.2-2.33.33-4.82.33-4.82,5.75-2,6.21-12.47,6.21-12.47,0-11.26-9.19-15-16.79-15-7.36,0-16.4,4.27-16.8,15,0,0-.09,11,6.68,15.53l.12,1.32c-1.3,3.31-5.19,14.12-5.19,25.87h6.63l1,20.08A8.92,8.92,0,0,1,879,184.18a4,4,0,0,0,3.8-4.14l1-20.08h6.71C890.51,148.69,886.94,138.27,885.49,134.53Z"/><path class="cls-4" d="M882.72,111.2a4,4,0,1,1-.92,5.56A4,4,0,0,1,882.72,111.2Z"/><path class="cls-4" d="M869.21,122a1.92,1.92,0,0,1,2.34-1.39c1.31.31,3.46,1.12,3.46,1.12l2.66-1.75-2.57-1.21a1.1,1.1,0,0,1-.26-.18,1.17,1.17,0,0,1,0-1.67,1.24,1.24,0,0,1,1.22-.33s5.55,1.84,6.51,2.1a2.23,2.23,0,0,1,.8,4l0,.05-2.81.3a2.89,2.89,0,0,0-2.65,3.1c0,.11,0,.22,0,.33a4.8,4.8,0,0,1-3.62.38,6.7,6.7,0,0,1-2.47-1.05l-.21.61-3.57,0Z"/><path class="cls-1" d="M976.28,91.79a7.47,7.47,0,1,1-7.46-7.47A7.46,7.46,0,0,1,976.28,91.79Z"/><path class="cls-1" d="M940.54,142.65a6.59,6.59,0,1,1-6.58-6.59A6.59,6.59,0,0,1,940.54,142.65Z"/><path class="cls-1" d="M926,181.21a3.88,3.88,0,1,1-3.88-3.88A3.88,3.88,0,0,1,926,181.21Z"/><path class="cls-1" d="M939.78,181.21a3.88,3.88,0,1,1-3.88-3.88A3.88,3.88,0,0,1,939.78,181.21Z"/><path class="cls-1" d="M931.74,175.84h-12.9l2.18-3.92h10.72c1.59,0,4.56-1.4,5.77-5.14.82-2.52,6.07-22.11,6.14-22.35L944,143h10.88l-1.19,3.93h-6.67S942,165.71,941.25,168C939.58,173.14,935.2,175.84,931.74,175.84Z"/><path class="cls-1" d="M932.28,150.63c-3.12.52-13.63,3.21-13.63,3.21a2,2,0,1,0,.88,4l6.74-.79-1.3,5h-5.12c-2.29,0-3.84.8-4.7,2.69l-4.06,9.08a2.69,2.69,0,0,0,1.37,3.54A2.73,2.73,0,0,0,916,176l3.52-6.2h10.35a5.36,5.36,0,0,0,5.23-3.59c.65-2.4,2.78-10.83,2.78-10.83C938.9,151.63,935.91,150,932.28,150.63Z"/><path class="cls-1" d="M988.44,161.26l-.74-5.14h9.59s-5.81-23.77-15.93-30.09c0,0-3.54-16.19-4.8-20.23s-10.18-7.15-14.91,4.3l-4.13,10.46L952,134.5a2.91,2.91,0,0,0,5.31,2.37l6.71-13.4.42-.86,1.66,6.2-8.31,51.72a3.79,3.79,0,1,0,7.42,1.53l6.56-25.94h5.92l1.61,6.86,4.46,19a3.79,3.79,0,0,0,7.44-1.4Z"/><rect class="cls-1" x="451.36" y="80.54" width="101.09" height="56.44"/><path class="cls-5" d="M473.06,147.61a9.58,9.58,0,1,0-9.59-9.58A9.57,9.57,0,0,0,473.06,147.61Z"/><path class="cls-5" d="M473.06,152.73c-7,0-12.14,8.3-12.14,13.41v10.22h24.27V166.14C485.19,161,480.08,152.73,473.06,152.73Z"/><path class="cls-5" d="M503.52,147.61a9.58,9.58,0,1,0-9.58-9.58A9.57,9.57,0,0,0,503.52,147.61Z"/><path class="cls-5" d="M503.52,152.73c-7,0-12.14,8.3-12.14,13.41v10.22h24.28V166.14C515.66,161,510.55,152.73,503.52,152.73Z"/><path class="cls-5" d="M531,154.73a7.21,7.21,0,1,0-7.21-7.21A7.21,7.21,0,0,0,531,154.73Z"/><path class="cls-5" d="M531,158.58c-5.29,0-9.14,6.25-9.14,10.09v7.69h18.27v-7.69C540.11,164.83,536.26,158.58,531,158.58Z"/><path class="cls-1" d="M473.06,147.61a9.58,9.58,0,1,0-9.59-9.58A9.57,9.57,0,0,0,473.06,147.61Z"/><path class="cls-1" d="M473.06,152.73c-7,0-12.14,8.3-12.14,13.41v10.22h24.27V166.14C485.19,161,480.08,152.73,473.06,152.73Z"/><path class="cls-1" d="M503.52,147.61a9.58,9.58,0,1,0-9.58-9.58A9.57,9.57,0,0,0,503.52,147.61Z"/><path class="cls-1" d="M503.52,152.73c-7,0-12.14,8.3-12.14,13.41v10.22h24.28V166.14C515.66,161,510.55,152.73,503.52,152.73Z"/><path class="cls-1" d="M531,154.73a7.21,7.21,0,1,0-7.21-7.21A7.21,7.21,0,0,0,531,154.73Z"/><path class="cls-1" d="M531,158.58c-5.29,0-9.14,6.25-9.14,10.09v7.69h18.27v-7.69C540.11,164.83,536.26,158.58,531,158.58Z"/><rect class="cls-1" x="451.36" y="175.71" width="101.09" height="6.65"/><rect class="cls-1" x="79.02" y="169.44" width="107.9" height="11.23"/><polygon class="cls-1" points="105.87 166.48 134.2 166.48 151.44 166.48 151.44 157.61 130.12 157.61 121.14 133.23 79.27 133.23 92.32 166.48 105.87 166.48"/><path class="cls-1" d="M145.77,114.55c.65,3.3,1.75,6.21,3.2,7.64v4a1,1,0,0,1-.06.32l7.46,3.19,7.44-3.19a1.25,1.25,0,0,1-.05-.32v-4c1.45-1.43,2.54-4.34,3.19-7.64,1.53-.48,2.4-1.26,3.49-4.65,1.15-3.62-1.74-3.5-1.74-3.5C171,99.49,168,93,162.79,93.47c-3.56-5.56-15.5,1.27-19.24.79a6.86,6.86,0,0,0,.89,3.33c-1.3,2.2-.8,6.59-.43,8.81-.21,0-2.83,0-1.72,3.5S144.25,114.07,145.77,114.55Z"/><rect class="cls-1" x="153.55" y="131.31" width="5.62" height="4.34"/><path class="cls-1" d="M155.25,153.8v12.68h31.42c-1.67-15.58-9.19-30.16-14.36-31.89a15.76,15.76,0,0,1-1.82-.76l-10.57,13-.75-8.53h-5.62l-.75,8.53-10.55-13a12.65,12.65,0,0,1-1.84.76c-2.75.86-6.34,7.49-9.14,15.09l1.51,4.12Z"/><polyline class="cls-6" points="101.72 91.34 101.72 104.99 106.08 112.94"/></g></g></svg>