<?xml version="1.0" encoding="utf-8"?>
<!-- Generator: Adobe Illustrator 25.4.6, SVG Export Plug-In . SVG Version: 6.00 Build 0)  -->
<svg version="1.1" xmlns="http://www.w3.org/2000/svg" xmlns:xlink="http://www.w3.org/1999/xlink" x="0px" y="0px"
	 viewBox="0 0 335 366.2" style="enable-background:new 0 0 335 366.2;" xml:space="preserve">
<style type="text/css">
	.st0{fill:#333333;}
	.st1{fill:#E8314B;}
	.st2{fill:#FFFFFF;}
	.st3{fill:none;stroke:#FFFFFF;stroke-width:1.0311;stroke-miterlimit:10;}
	.st4{fill:none;stroke:#E8314B;stroke-width:1.76;stroke-miterlimit:10;}
	.st5{fill:none;stroke:#FFFFFF;stroke-width:4.0936;}
</style>
<g id="レイヤー_1">
</g>
<g id="レイヤー_2">
	<g>
		<g>
			<g>
				<g>
					<g>
						<path class="st0" d="M279.9,134c0,0.4-0.3,0.6-0.8,0.6c-0.5,0-0.7-0.1-0.7-0.5c0-1.1,0.1-2.3,0.1-6.9c0-1.5,0-2.9-0.1-4.4
							c0.8,0.4,0.9,0.4,1.6,0.8h1.4c0.5-0.6,0.7-0.7,0.8-0.7c0.2,0,0.3,0.1,0.9,0.5c0.3,0.2,0.4,0.3,0.4,0.4s-0.1,0.2-0.4,0.5v1.5
							c0,4,0.1,6.7,0.1,7.6c0,0.4-0.3,0.6-0.9,0.6c-0.4,0-0.6-0.1-0.6-0.5V133h-1.7V134z M281.5,123.9h-1.7v4h1.7V123.9z
							 M281.5,128.3h-1.7v4.3h1.7V128.3z M288.1,127.5h2.2c0.7-0.9,0.9-1,1-1c0.1,0,0.3,0.1,1.1,0.7c0.3,0.3,0.4,0.4,0.4,0.5
							s0,0.2-0.2,0.2h-8.3c-0.3,0-0.6,0-0.9,0.1l-0.2-0.6c0.4,0.1,0.8,0.1,1.1,0.1h2.3V125h-1.8c-0.3,0-0.5,0-0.9,0.1l-0.2-0.6
							c0.4,0.1,0.7,0.1,1.1,0.1h1.8v-1.4c0-0.4,0-0.8-0.1-1.3c1.9,0.2,2.1,0.4,2.1,0.5s-0.2,0.3-0.5,0.4v1.7h1.5c0.7-0.9,0.9-1,1-1
							c0.1,0,0.3,0.1,1.1,0.7c0.3,0.3,0.5,0.4,0.5,0.5c0,0.1,0,0.2-0.2,0.2h-3.8V127.5z M290.3,132.3c0,0.6,0,2,0,2.6
							c0,0.7-0.1,0.9-0.4,1.2c-0.4,0.4-0.9,0.6-1.5,0.6c-0.1,0-0.2-0.1-0.3-0.2c-0.1-0.8-0.6-1.1-1.8-1.4c-0.1,0-0.1-0.2,0-0.2
							c0.8,0,1.6,0.1,2.2,0.1c0.2,0,0.3,0,0.3-0.3v-4.1h-4.4c-0.3,0-0.6,0-0.9,0.1l-0.2-0.6c0.4,0.1,0.8,0.1,1.1,0.1h4.4v-0.7
							c0-0.6,0-0.7-0.1-1.3c1.6,0.1,2.1,0.3,2.1,0.5c0,0.2-0.1,0.3-0.5,0.4v1.1h0.4c0.6-0.7,0.8-0.8,0.9-0.8c0.1,0,0.3,0.1,0.9,0.6
							c0.2,0.2,0.4,0.3,0.4,0.4c0,0.1,0,0.2-0.2,0.2h-2.3V132.3z M286.3,134.1c-0.4,0-0.6-0.3-0.8-1c-0.2-0.8-0.5-1.2-0.9-1.6
							c-0.1,0,0-0.1,0.1-0.1c1.7,0.4,2.5,0.9,2.5,1.8C287.2,133.7,286.8,134.1,286.3,134.1z"/>
						<path class="st0" d="M299.1,127.3v8.9c0,0.4-0.3,0.6-0.9,0.6c-0.5,0-0.7-0.2-0.7-0.6c0-1.2,0.1-2.4,0.1-7.1
							c0-2.4,0-4.8-0.1-7.2c0.8,0.3,0.9,0.4,1.7,0.8h2.8c0.5-0.6,0.7-0.7,0.8-0.7c0.2,0,0.3,0.1,0.9,0.6c0.3,0.2,0.4,0.3,0.4,0.4
							c0,0.1-0.1,0.3-0.5,0.5v0.6c0,1.7,0,2.9,0,3.2c0,0.4-0.3,0.5-0.9,0.5c-0.4,0-0.6-0.1-0.6-0.5v-0.2H299.1z M302.2,123.1h-3.1
							v1.6h3.1V123.1z M302.2,125.1h-3.1v1.8h3.1V125.1z M302.6,134v0.6c0,0.4-0.2,0.6-0.8,0.6c-0.4,0-0.6-0.1-0.6-0.5
							c0-0.5,0-1.1,0-3.2c0-1,0-2-0.1-3c0.8,0.3,0.9,0.4,1.6,0.8h3c0.5-0.6,0.7-0.7,0.8-0.7c0.2,0,0.3,0.1,0.8,0.5
							c0.3,0.2,0.4,0.3,0.4,0.5c0,0.1-0.1,0.2-0.4,0.4v0.7c0,1.9,0,3.2,0,3.6c0,0.4-0.2,0.6-0.8,0.6c-0.4,0-0.6-0.2-0.6-0.5V134
							H302.6z M306,129.6h-3.4v1.7h3.4V129.6z M306,131.7h-3.4v1.9h3.4V131.7z M306.5,127.3L306.5,127.3c0,0.5-0.3,0.7-0.8,0.7
							c-0.4,0-0.6-0.1-0.6-0.5c0-0.6,0-1.2,0-3.7c0-0.6,0-1.2-0.1-1.8c0.8,0.3,0.9,0.4,1.6,0.8h2.9c0.6-0.6,0.7-0.7,0.8-0.7
							c0.2,0,0.3,0.1,0.9,0.6c0.3,0.2,0.4,0.4,0.4,0.5c0,0.2-0.1,0.3-0.4,0.5v1.9c0,8.9,0,9.3,0,9.8c0,0.4-0.1,0.7-0.3,1
							c-0.3,0.3-0.7,0.5-1.4,0.5c-0.2,0-0.3,0-0.3-0.2c-0.1-0.7-0.4-1-1.6-1.3c-0.1,0-0.1-0.2,0-0.2c1,0.1,1.2,0.1,1.9,0.1
							c0.2,0,0.2,0,0.2-0.2v-7.5H306.5z M309.7,123.1h-3.2v1.6h3.2V123.1z M309.7,125.1h-3.2v1.8h3.2V125.1z"/>
					</g>
				</g>
			</g>
		</g>
		<g>
			<g>
				<path class="st1" d="M145.3,106.6l-4-10.8c1.2-1,2.6-1.9,4.4-2.6c1.7-0.7,3.5-1.2,5.5-1.6c2-0.4,3.9-0.5,5.9-0.5
					c3.2,0,6.2,0.5,8.8,1.5c2.6,1,4.7,2.4,6.2,4.2c1.5,1.8,2.2,4,2.2,6.6c0,1.9-0.4,3.7-1.2,5.4c-0.8,1.7-1.9,3.2-3.2,4.7
					s-2.8,2.8-4.3,4c-1.6,1.2-3.1,2.3-4.6,3.3c-1.5,1-2.9,1.9-4.1,2.6h11.4c1.2,0,2.3-0.2,3.3-0.7c1-0.5,1.9-1.1,2.7-2.1
					c0.8-0.9,1.6-2.1,2.2-3.5h0.6l-4.1,16.9h-31.2v-0.6c1.7-2.1,3.5-4.2,5.3-6.4c1.8-2.1,3.6-4.2,5.3-6.3c1.7-2.1,3.2-4.2,4.6-6.3
					c1.4-2.1,2.4-4.1,3.2-6.2c0.8-2,1.2-4.1,1.2-6.1c0-2.6-0.7-4.6-2.1-6.1c-1.4-1.5-3.3-2.1-5.6-1.9c-2.5,0.2-4.4,1.3-5.7,3.5
					c-1.3,2.1-2,5.1-2,9H145.3z"/>
				<path class="st1" d="M181,92.1l31.8-0.1l-7.7,17.8c-0.5,1.2-1.1,2.6-1.7,4.2c-0.6,1.6-1.2,3.4-1.9,5.3c-0.6,1.9-1.3,3.7-1.9,5.6
					c-0.6,1.8-1.2,3.6-1.7,5.1c-0.5,1.6-0.9,2.9-1.2,4h-10.2c0.7-1.2,1.6-2.6,2.6-4.3s2-3.5,3.1-5.4s2.2-3.8,3.2-5.7
					c1.1-1.9,2-3.7,2.9-5.3s1.5-3,2-4l3.1-6.7h-19.2c-1.2,0-2.1,0.3-2.8,0.9c-0.7,0.6-1.2,1.5-1.7,2.7h-0.6L181,92.1z"/>
				<path class="st1" d="M220.8,134.8c-1.5,0-2.8-0.5-3.8-1.6c-1.1-1.1-1.6-2.3-1.6-3.8c0-1.5,0.5-2.8,1.6-3.8
					c1.1-1,2.3-1.6,3.8-1.6c1.5,0,2.8,0.5,3.8,1.6c1,1,1.6,2.3,1.6,3.8c0,1.5-0.5,2.8-1.6,3.8S222.3,134.8,220.8,134.8z"/>
				<path class="st1" d="M234.1,106.6l-4-10.8c1.2-1,2.6-1.9,4.4-2.6c1.7-0.7,3.5-1.2,5.5-1.6c2-0.4,3.9-0.5,5.9-0.5
					c3.2,0,6.2,0.5,8.8,1.5c2.6,1,4.7,2.4,6.2,4.2c1.5,1.8,2.2,4,2.2,6.6c0,1.9-0.4,3.7-1.2,5.4c-0.8,1.7-1.9,3.2-3.2,4.7
					s-2.8,2.8-4.3,4c-1.6,1.2-3.1,2.3-4.6,3.3c-1.5,1-2.9,1.9-4.1,2.6h11.4c1.2,0,2.3-0.2,3.3-0.7c1-0.5,1.9-1.1,2.7-2.1
					c0.8-0.9,1.6-2.1,2.2-3.5h0.6l-4.1,16.9h-31.2v-0.6c1.7-2.1,3.5-4.2,5.3-6.4c1.8-2.1,3.6-4.2,5.3-6.3s3.2-4.2,4.6-6.3
					c1.4-2.1,2.4-4.1,3.2-6.2c0.8-2,1.2-4.1,1.2-6.1c0-2.6-0.7-4.6-2.1-6.1c-1.4-1.5-3.2-2.1-5.6-1.9c-2.5,0.2-4.4,1.3-5.7,3.5
					c-1.3,2.1-2,5.1-2,9H234.1z"/>
			</g>
		</g>
		<g>
			<g>
				<g>
					<g>
						<path class="st0" d="M126.7,34.4h3.3c0.8-1,1-1.1,1.1-1.1c0.1,0,0.3,0.1,1.1,0.8c0.4,0.3,0.5,0.4,0.5,0.5c0,0.1,0,0.1-0.2,0.1
							h-5.8v0.2c0,2.7,0.1,3.8,0.1,4.9c0,0.4-0.3,0.6-0.9,0.6c-0.4,0-0.6-0.1-0.6-0.5c0-0.4,0.1-2.6,0.1-5v-0.2h-4.1
							c-0.4,0-0.8,0-1.3,0.1l-0.2-0.5c0.6,0.1,1,0.1,1.5,0.1h4.1v-5.5h-3.4c-0.4,0-0.8,0-1.3,0.1l-0.2-0.5c0.6,0.1,1,0.1,1.4,0.1
							h7.8c0.7-0.9,0.9-1,1-1c0.1,0,0.3,0.1,1,0.7c0.3,0.3,0.4,0.4,0.4,0.5c0,0.1,0,0.1-0.2,0.1h-5.2V34.4z M123.2,33.5
							c-0.4,0-0.5-0.2-0.7-1c-0.2-1.1-0.4-1.8-1-2.7c0-0.1,0.1-0.1,0.1-0.1c1.6,0.9,2.4,1.9,2.4,2.9C124,33.1,123.6,33.5,123.2,33.5
							z M130.6,30.6c-0.9,1.5-1.8,2.5-3.1,3.3c-0.1,0-0.2-0.1-0.1-0.1c0.6-0.8,1.3-2,1.7-3.1c0.2-0.5,0.3-0.9,0.4-1.3
							c1.2,0.5,1.7,0.8,1.7,1C131.2,30.5,131.1,30.6,130.6,30.6z"/>
						<path class="st0" d="M140,31.9c0.4-0.8,0.8-1.7,1-2.5c0.2-0.7,0.3-1.3,0.3-1.8c1.6,0.4,1.9,0.5,1.9,0.7c0,0.2-0.1,0.3-0.5,0.3
							c-0.3,0.6-0.5,1.2-0.8,1.7h4.1c0.5-0.6,0.6-0.7,0.8-0.7c0.1,0,0.3,0.1,0.8,0.6c0.3,0.2,0.3,0.3,0.3,0.4c0,0.1,0,0.1-0.4,0.4
							c-0.1,4.1-0.2,6-0.6,7.5c-0.2,0.5-0.4,0.9-0.7,1.2c-0.4,0.3-0.8,0.5-1.3,0.5c-0.3,0-0.3,0-0.4-0.4c-0.1-0.4-0.5-0.8-1.6-1.1
							c-0.1,0-0.1-0.2,0-0.2c1.1,0.1,1.4,0.1,1.6,0.1c0.6,0,0.8,0,0.9-0.3c0.5-0.9,0.7-2.9,0.8-7.8h-4.4c-0.7,1.2-1.6,2.1-2.5,2.8
							c-0.1,0-0.2,0-0.1-0.1C139.4,33,139.7,32.5,140,31.9c-0.1,0.1-0.1,0.1-0.2,0.1h-1.6v3.8c0.6-0.2,1.3-0.4,1.8-0.6
							c0.1,0,0.1,0.1,0.1,0.1c-1.4,1.1-2.2,1.6-3.9,2.5c0,0.4-0.1,0.6-0.3,0.6c-0.2,0-0.5-0.5-0.9-1.7c0.3,0,0.7-0.1,1.2-0.3
							c0.3-0.1,0.5-0.1,0.8-0.2V32h-0.9c-0.2,0-0.4,0-0.7,0.1l-0.2-0.5c0.3,0.1,0.6,0.1,0.8,0.1h1v-2.2c0-0.7,0-1.2-0.1-1.7
							c1.7,0.2,1.8,0.3,1.8,0.5c0,0.1-0.2,0.3-0.5,0.4v3h0.1c0.4-0.7,0.6-0.8,0.7-0.8c0.1,0,0.3,0.1,0.7,0.5
							C139.9,31.6,140,31.7,140,31.9L140,31.9z M140.8,37.6c0,0.4-0.1,0.6-0.3,0.6c-0.2,0-0.4-0.3-0.9-1.7c0.3,0,0.7-0.1,1.2-0.2
							c1.3-0.2,3-0.6,4.3-1.1c0.1,0,0.1,0.1,0.1,0.1C143.7,36.4,142.8,36.8,140.8,37.6z M143,33.2c0.6-0.7,0.7-0.8,0.8-0.8
							c0.1,0,0.3,0.1,0.8,0.6c0.2,0.2,0.3,0.3,0.3,0.4c0,0.1,0,0.1-0.2,0.1h-3.7c-0.2,0-0.4,0-0.6,0.1l-0.2-0.5
							c0.3,0.1,0.5,0.1,0.7,0.1H143z"/>
						<path class="st0" d="M154.4,31.5c0.5-0.5,0.6-0.6,0.7-0.6c0.1,0,0.2,0.1,0.7,0.5c0.2,0.2,0.3,0.3,0.3,0.4s0,0.2-0.4,0.3
							c-0.7,4.2-2.1,6.3-5.1,8c-0.1,0-0.1-0.1-0.1-0.1c1.4-1.2,2.5-2.7,3.2-4.8c-0.1,0.1-0.2,0.1-0.4,0.1c-0.3,0-0.4-0.1-0.4-0.6
							c-0.1-0.6-0.3-1-0.6-1.4c-0.5,0.8-1.1,1.4-1.8,2c-0.1,0-0.1-0.1-0.1-0.1c1.1-1.7,1.7-3.7,1.9-6.3h-0.6c-0.3,0-0.6,0-0.9,0.1
							l-0.2-0.5c0.4,0.1,0.8,0.1,1.1,0.1h2.9c0.6-0.7,0.8-0.8,0.9-0.8c0.1,0,0.3,0.1,0.9,0.6c0.3,0.2,0.4,0.3,0.4,0.4
							c0,0.1,0,0.1-0.2,0.1h-3c-0.1,0.8-0.2,1.6-0.5,2.4H154.4z M153.1,31.8c-0.2,0.5-0.4,1-0.6,1.5c0.6,0.3,1.3,0.6,1.4,1.3
							c0.2-0.8,0.4-1.8,0.6-2.8H153.1z M159.2,32.7c0.1,0.5,0.2,1.2,0.3,1.8l1.7-0.3c0.6-0.8,0.7-0.9,0.8-0.9c0.1,0,0.3,0.1,0.9,0.4
							c0.3,0.2,0.4,0.3,0.4,0.4c0,0.1-0.1,0.1-0.2,0.1l-3.6,0.5c0.1,0.5,0.3,1,0.5,1.5c0.4-0.4,0.8-0.9,1-1.3c1.1,0.6,1.5,0.8,1.5,1
							c0,0.2-0.1,0.2-0.7,0.2c-0.4,0.4-0.7,0.7-1.1,1.1c0.1,0.2,0.3,0.4,0.4,0.5c0.4,0.5,0.9,0.8,1.1,0.8s0.3-0.1,1-1.6
							c0-0.1,0.2,0,0.2,0c-0.1,1.1-0.2,1.7-0.2,1.8c0,0.2,0,0.2,0.2,0.3c0.2,0.2,0.3,0.4,0.3,0.6c0,0.3-0.3,0.6-0.7,0.6
							c-0.6,0-1.6-0.6-2.4-1.4c-0.3-0.3-0.6-0.6-0.8-0.9c-1.6,1.1-3.5,1.7-5.5,1.9c-0.1,0-0.1-0.1-0.1-0.1c1.8-0.5,3.6-1.5,5-2.6
							c-0.4-0.7-0.6-1.4-0.8-2.1l-1.6,0.2c-0.5,0.1-0.7,0.1-0.9,0.2l-0.2-0.5c0.5,0,0.9,0,1.1-0.1l1.6-0.2c-0.1-0.7-0.2-1.2-0.3-1.8
							l-0.9,0.1c-0.4,0.1-0.7,0.1-0.9,0.2l-0.2-0.5c0.4,0,0.8,0,1.1-0.1l0.9-0.1c-0.1-0.6-0.1-1.1-0.1-1.7L157,31
							c-0.3,0-0.6,0.1-0.9,0.2l-0.2-0.5c0.5,0,0.9,0,1.1,0l0.9-0.1c0-0.3,0-0.6,0-0.9c0-1.1,0-1.3-0.1-1.9c1.5,0.2,1.8,0.3,1.8,0.5
							c0,0.1-0.1,0.2-0.4,0.4c0,0.7,0,1.2,0,1.8l1.9-0.3c0.5-0.7,0.6-0.8,0.7-0.8c0.1,0,0.3,0.1,0.8,0.4c0.3,0.2,0.3,0.3,0.3,0.4
							c0,0.1-0.1,0.1-0.1,0.1l-3.5,0.5c0,0.6,0,1.1,0.1,1.7l1.5-0.2c0.5-0.8,0.6-0.8,0.7-0.8c0.1,0,0.3,0.1,0.9,0.4
							c0.3,0.2,0.4,0.3,0.4,0.4c0,0.1-0.1,0.1-0.1,0.1L159.2,32.7z M160.8,29.6c-0.3,0-0.3,0-0.5-0.5c-0.2-0.4-0.5-0.7-0.7-0.9
							c-0.1,0,0-0.2,0.1-0.2c1.2,0.1,1.7,0.4,1.7,1C161.3,29.4,161.1,29.6,160.8,29.6z"/>
						<path class="st0" d="M172.9,36.3c0.6,0.6,1.4,1,2.3,1.4c1.1,0.5,2.3,0.7,3.7,0.8c0.1,0,0.1,0.1,0,0.2c-0.5,0.2-0.6,0.3-1,1.2
							c-0.1,0.1-0.1,0.2-0.2,0.2c-0.1,0-0.4-0.1-0.7-0.2c-0.9-0.3-1.7-0.8-2.5-1.4c-0.7-0.5-1.2-1.1-1.8-1.8c0,1.8,0.1,3.1,0.1,3.5
							c0,0.4-0.2,0.5-0.8,0.5c-0.4,0-0.5-0.2-0.5-0.5c0-0.3,0.1-1.7,0.1-2.9c-1.2,1.3-3.1,2.3-5.5,2.8c-0.1,0-0.1-0.1-0.1-0.1
							c2.1-1,3.6-2.1,4.7-3.6h-3.3c-0.3,0-0.6,0-1,0.1l-0.2-0.5c0.4,0.1,0.8,0.1,1.1,0.1h4.3v-1.3h-2.7c-0.3,0-0.6,0-1,0.1l-0.2-0.5
							c0.4,0.1,0.8,0.1,1.1,0.1h2.8v-1.3H168c-0.3,0-0.6,0-1,0.1l-0.2-0.5c0.4,0.1,0.8,0.1,1.1,0.1h2.3c-0.2-0.1-0.3-0.2-0.4-0.6
							c-0.1-0.4-0.4-0.9-0.7-1.2c-0.1,0,0-0.1,0.1-0.1c1.3,0.2,1.9,0.6,1.9,1.3c0,0.3-0.2,0.6-0.5,0.7h2.3c0.3-0.5,0.4-0.9,0.6-1.2
							c0.1-0.3,0.2-0.6,0.3-0.9c1.1,0.4,1.6,0.7,1.6,0.8s-0.1,0.2-0.6,0.2c-0.5,0.5-1,0.8-1.4,1h2.3c0.7-0.7,0.8-0.8,0.9-0.8
							c0.1,0,0.3,0.1,0.9,0.6c0.3,0.2,0.4,0.3,0.4,0.4c0,0.1,0,0.1-0.2,0.1h-5v1.3h2.2c0.6-0.7,0.8-0.8,0.9-0.8
							c0.1,0,0.3,0.1,0.8,0.5c0.2,0.2,0.4,0.3,0.4,0.4c0,0.1,0,0.1-0.2,0.1h-4V36h3.5c0.7-0.8,0.9-0.9,1-0.9c0.1,0,0.3,0.1,0.9,0.6
							c0.3,0.2,0.4,0.4,0.4,0.5c0,0.1,0,0.1-0.2,0.1H172.9z M170.3,28.6c0-0.6,0-0.7-0.1-1c1.6,0.2,1.7,0.3,1.7,0.4
							c0,0.1-0.1,0.2-0.4,0.4v2h1.2v-1.8c0-0.6,0-0.7-0.1-1c1.6,0.2,1.8,0.3,1.8,0.4c0,0.1-0.1,0.2-0.5,0.4v2h0.6
							c0.3-0.6,0.6-1.1,0.8-1.6c0.1-0.3,0.2-0.6,0.3-0.9c1.2,0.5,1.7,0.7,1.7,0.9c0,0.2-0.1,0.3-0.6,0.3c-0.6,0.6-1.2,1.1-1.7,1.3
							h1.6c0.6-0.7,0.8-0.8,0.9-0.8c0.1,0,0.3,0.1,0.9,0.6c0.3,0.2,0.4,0.3,0.4,0.4c0,0.1,0,0.1-0.2,0.1h-11.3c-0.3,0-0.6,0-1,0.1
							l-0.2-0.5c0.5,0.1,0.8,0.1,1.1,0.1h3.1V28.6z M168.8,30.1c-0.3,0-0.4-0.1-0.6-0.5c-0.2-0.6-0.4-1-0.8-1.4
							c-0.1,0,0-0.1,0.1-0.1c1.3,0.2,2,0.7,2,1.3C169.5,29.7,169.2,30.1,168.8,30.1z"/>
						<path class="st0" d="M183.1,38.1c0,0.4-0.3,0.5-0.7,0.5c-0.4,0-0.6-0.1-0.6-0.4c0-1,0.1-2,0.1-6c0-1.3,0-2.6-0.1-3.9
							c0.7,0.3,0.8,0.4,1.4,0.7h1.2c0.5-0.6,0.6-0.6,0.7-0.6c0.1,0,0.3,0.1,0.8,0.5c0.2,0.2,0.3,0.3,0.3,0.4s-0.1,0.2-0.4,0.4v1.3
							c0,3.5,0.1,5.9,0.1,6.7c0,0.4-0.3,0.5-0.8,0.5c-0.4,0-0.5-0.1-0.5-0.4v-0.5h-1.5V38.1z M184.6,29.3h-1.5v3.5h1.5V29.3z
							 M184.6,33.1h-1.5v3.8h1.5V33.1z M190.3,32.4h1.9c0.6-0.8,0.8-0.9,0.9-0.9c0.1,0,0.3,0.1,0.9,0.6c0.3,0.2,0.4,0.3,0.4,0.4
							c0,0.1,0,0.1-0.2,0.1h-7.2c-0.3,0-0.5,0-0.8,0.1l-0.2-0.5c0.4,0.1,0.7,0.1,0.9,0.1h2v-2.1h-1.6c-0.2,0-0.5,0-0.8,0.1l-0.2-0.5
							c0.4,0.1,0.6,0.1,0.9,0.1h1.6v-1.2c0-0.4,0-0.7-0.1-1.1c1.7,0.2,1.8,0.3,1.8,0.4c0,0.1-0.2,0.3-0.4,0.4v1.5h1.3
							c0.6-0.8,0.8-0.9,0.9-0.9c0.1,0,0.3,0.1,0.9,0.6c0.3,0.2,0.4,0.3,0.4,0.4c0,0.1,0,0.1-0.2,0.1h-3.3V32.4z M192.2,36.6
							c0,0.5,0,1.7,0,2.2c0,0.6-0.1,0.8-0.3,1.1c-0.3,0.3-0.8,0.5-1.3,0.5c-0.1,0-0.2-0.1-0.2-0.2c-0.1-0.7-0.5-0.9-1.6-1.2
							c-0.1,0-0.1-0.2,0-0.2c0.7,0,1.4,0.1,1.9,0.1c0.2,0,0.3,0,0.3-0.2v-3.6h-3.8c-0.3,0-0.5,0-0.8,0.1l-0.2-0.5
							c0.4,0.1,0.7,0.1,0.9,0.1h3.9v-0.6c0-0.5,0-0.6-0.1-1.1c1.4,0.1,1.8,0.2,1.8,0.4c0,0.1-0.1,0.2-0.4,0.4v0.9h0.3
							c0.5-0.6,0.7-0.7,0.8-0.7c0.1,0,0.3,0.1,0.8,0.5c0.2,0.2,0.3,0.3,0.3,0.4c0,0.1,0,0.1-0.2,0.1h-2V36.6z M188.8,38.1
							c-0.4,0-0.5-0.2-0.7-0.9c-0.2-0.7-0.4-1.1-0.8-1.4c-0.1,0,0-0.1,0.1-0.1c1.5,0.3,2.2,0.8,2.2,1.5
							C189.5,37.8,189.2,38.1,188.8,38.1z"/>
						<path class="st0" d="M198.5,32.2v7.7c0,0.4-0.3,0.5-0.8,0.5c-0.4,0-0.6-0.1-0.6-0.5c0-1,0.1-2.1,0.1-6.2c0-2.1,0-4.2-0.1-6.3
							c0.7,0.3,0.8,0.3,1.5,0.7h2.5c0.5-0.5,0.6-0.6,0.7-0.6c0.1,0,0.3,0.1,0.8,0.5c0.2,0.2,0.3,0.3,0.3,0.4c0,0.1-0.1,0.2-0.4,0.4
							v0.6c0,1.5,0,2.5,0,2.8s-0.3,0.5-0.8,0.5c-0.4,0-0.5-0.1-0.5-0.4v-0.2H198.5z M201.2,28.5h-2.7V30h2.7V28.5z M201.2,30.3h-2.7
							v1.6h2.7V30.3z M201.7,38.1v0.5c0,0.4-0.2,0.5-0.7,0.5c-0.4,0-0.5-0.1-0.5-0.4c0-0.5,0-1,0-2.8c0-0.9,0-1.8-0.1-2.6
							c0.7,0.3,0.8,0.3,1.4,0.7h2.6c0.5-0.5,0.6-0.6,0.7-0.6c0.1,0,0.3,0.1,0.7,0.5c0.3,0.2,0.3,0.3,0.3,0.4c0,0.1-0.1,0.2-0.4,0.4
							v0.6c0,1.7,0,2.8,0,3.2c0,0.4-0.2,0.5-0.7,0.5c-0.4,0-0.5-0.1-0.5-0.4v-0.4H201.7z M204.6,34.3h-2.9v1.5h2.9V34.3z
							 M204.6,36.1h-2.9v1.7h2.9V36.1z M205.1,32.2L205.1,32.2c0,0.4-0.2,0.6-0.7,0.6c-0.4,0-0.6-0.1-0.6-0.4c0-0.5,0-1.1,0-3.3
							c0-0.5,0-1.1-0.1-1.6c0.7,0.3,0.8,0.4,1.4,0.7h2.5c0.5-0.5,0.6-0.6,0.7-0.6c0.1,0,0.3,0.1,0.8,0.5c0.2,0.2,0.3,0.3,0.3,0.4
							c0,0.1-0.1,0.2-0.4,0.4v1.7c0,7.8,0,8.2,0,8.5c0,0.4-0.1,0.6-0.3,0.8c-0.2,0.3-0.6,0.4-1.2,0.4c-0.2,0-0.2,0-0.3-0.2
							c-0.1-0.6-0.3-0.9-1.4-1.1c-0.1,0-0.1-0.2,0-0.2c0.8,0.1,1.1,0.1,1.6,0.1c0.1,0,0.2,0,0.2-0.2v-6.6H205.1z M207.8,28.5h-2.8
							V30h2.8V28.5z M207.8,30.3h-2.8v1.6h2.8V30.3z"/>
					</g>
				</g>
			</g>
		</g>
		<g>
			<g>
				<g>
					<path class="st0" d="M197.9,246c2.1,0,3.8-1.7,3.8-3.8c0-2.1-1.7-3.8-3.8-3.8c-2.1,0-3.8,1.7-3.8,3.8
						C194.2,244.3,195.8,246,197.9,246z"/>
					<g>
						<path class="st0" d="M207.8,259.2l-1.3-5.5c-1.3-5.1-5.7-6.2-8.6-6.2c-2.9,0-7.3,1.2-8.6,6.2l-2.6,10.8
							c-0.2,0.8,0.2,1.6,1,1.8c0.8,0.2,1.6-0.2,1.8-1l3-7.9l0.1,1.7c-0.5,0.8-2,3.4-2,6.8c0,1.6,1.7,9.2,1.7,9.2l1,0l0.5,11.1
							c0,1,0.8,1.7,1.7,1.7c1,0,1.7-0.8,1.7-1.7l0.4-11l0.3,0l0.3,0l0.4,11c0,1,0.8,1.7,1.7,1.7c1,0,1.7-0.8,1.7-1.7l0.5-11.1l1,0
							c0,0,1.7-7.5,1.7-9.2c0-1-0.1-1.9-0.3-2.8l-4.8,1.9c-0.3,0.1-0.6,0.2-0.9,0.2c-0.9,0-1.7-0.5-2.1-1.3c-0.5-1.1,0-2.4,1.1-2.9
							l4.9-2.4c0,0,0.1-1.1,0.1-1.1l0.6,1.6l-5.3,2.6c-0.7,0.3-1.1,1.2-0.8,1.9c0.3,0.7,1.2,1.1,1.9,0.8l7.1-2.8
							C207.8,261.1,208.1,260.2,207.8,259.2z"/>
					</g>
				</g>
				<g>
					<g>
						<g>
							<g>
								<path class="st0" d="M224.2,280.4l-0.1,0.2l-3.4-2.6c1-1.3,1.8-2.3,1.8-2.3c0.2-0.3,0.5-0.2,0.6,0.1l0.2,0.3
									c0.1,0.3,0.5,0.5,0.8,0.4l3-0.7c0.3-0.1,0.5,0.1,0.5,0.4l-0.2,1.3c-0.1,0.3-0.4,0.6-0.7,0.7l-1.7,0.4
									c-0.3,0.1-0.3,0.1,0,0.1l0.9,0c0.3,0,0.5,0.2,0.3,0.5c-0.1,0.3-0.5,0.6-0.8,0.6l-0.2,0C224.8,279.8,224.4,280.1,224.2,280.4
									z"/>
								<path class="st0" d="M214.2,281c0.1-0.5,0.3-0.2,0.4-0.1c0.1,0.1,0.7,1.5,1.8,2.3c0.7-0.8,2.2-2.8,3.6-4.6l3.4,2.7l-0.4,0.6
									c0.5,1.4,1.5,4.3,1.5,4.3c0.1,0.4-0.1,0.8-0.4,0.9c-0.4,0.1-0.7-0.1-0.9-0.4l-1.5-3l-0.5,0.7c0.2,0.2,0.3,0.5,0.3,0.8l0,0.3
									c0,0,0.1,0,0.1,0c1.5,0,1.6,1.7,0.1,1.7c-0.4,0-2.4,0-2.4,0s-0.7,0-2.3,0c-1.6,0-2.1-1.2-1.6-2.5
									C214.9,284,213.8,282.6,214.2,281z"/>
							</g>
						</g>
					</g>
				</g>
				<g>
					<path class="st0" d="M238,242.1c0,2.1-1.7,3.9-3.9,3.9c-2.1,0-3.9-1.7-3.9-3.9c0-2.1,1.7-3.9,3.9-3.9
						C236.3,238.3,238,240,238,242.1z"/>
					<path class="st0" d="M234.2,247.4L234.2,247.4c-2.6,0-8.3,1.1-8.3,6.7l0.7,13.4c0.1,0.9,0.8,1.6,1.6,1.5c0.5-0.1,1-0.4,1.2-0.9
						l0.5,17.6c0,1.2,0.9,2.1,2,2.1c1.1,0,2-1,2-2.1l0.3-14.8h0l0.3,14.8c0,1.2,0.9,2.1,2,2.1c1.1,0,2-1,2-2.1l0.5-17.6
						c0.2,0.5,0.7,0.9,1.2,0.9c0.8,0.1,1.6-0.6,1.6-1.5l0.7-13.4C242.4,248.5,236.8,247.4,234.2,247.4z"/>
				</g>
				<g>
					<path class="st0" d="M256.6,242.2c0,2.1-1.7,3.9-3.9,3.9c-2.1,0-3.9-1.7-3.9-3.9c0-2.1,1.7-3.9,3.9-3.9
						C254.9,238.3,256.6,240,256.6,242.2z"/>
					<g>
						<g>
							<path class="st0" d="M257.8,263.3c0.1-1.1,0.2-2.4,0.2-2.4c2.8-1,3.1-6.1,3.1-6.1c0-5.5-4.5-7.4-8.3-7.4
								c-3.6,0-8.1,2.1-8.3,7.4c0,0,0,5.4,3.3,7.6l0.1,0.7c-0.6,1.6-2.6,6.9-2.6,12.7h3.3l0.5,9.9c0,1.1,0.8,2,1.9,2
								c1,0,1.8-0.8,1.9-1.9c0.1,1.1,0.9,1.9,1.9,1.9c1,0,1.9-0.9,1.9-2l0.5-9.9h3.3C260.2,270.3,258.5,265.1,257.8,263.3z"/>
						</g>
					</g>
				</g>
				<path class="st2" d="M256.4,251.8c0.9-0.6,2.1-0.4,2.7,0.5c0.6,0.9,0.4,2.1-0.5,2.7c-0.9,0.6-2.1,0.4-2.7-0.5
					C255.3,253.7,255.5,252.4,256.4,251.8z"/>
				<path class="st2" d="M249.8,257.1c0.1-0.4,0.5-0.8,1.1-0.7c0.6,0.2,1.7,0.6,1.7,0.6l1.3-0.9l-1.3-0.6c0,0-0.1-0.1-0.1-0.1
					c-0.2-0.2-0.2-0.6,0-0.8c0.2-0.2,0.4-0.2,0.6-0.2c0,0,2.7,0.9,3.2,1c0.8,0.2,1.2,1.2,0.4,2c0,0,0,0,0,0l-1.4,0.1
					c-0.8,0.1-1.4,0.7-1.3,1.5c0,0.1,0,0.1,0,0.2c-0.6,0.3-1.3,0.4-1.8,0.2c-0.8-0.2-1.2-0.5-1.2-0.5l-0.1,0.3l-1.8,0
					C249.2,259.2,249.7,257.5,249.8,257.1z"/>
			</g>
		</g>
		<g>
			<path class="st0" d="M300.4,242.3c0,2-1.6,3.7-3.7,3.7c-2,0-3.7-1.6-3.7-3.7s1.6-3.7,3.7-3.7
				C298.8,238.6,300.4,240.2,300.4,242.3z"/>
			<g>
				<g>
					<path class="st0" d="M282.8,267.3c0,1.8-1.5,3.2-3.2,3.2c-1.8,0-3.2-1.5-3.2-3.2c0-1.8,1.5-3.2,3.2-3.2
						C281.4,264,282.8,265.5,282.8,267.3z"/>
					<path class="st0" d="M275.7,286.3c0,1.1-0.9,1.9-1.9,1.9c-1.1,0-1.9-0.9-1.9-1.9c0-1.1,0.9-1.9,1.9-1.9
						C274.8,284.4,275.7,285.2,275.7,286.3z"/>
					<path class="st0" d="M282.5,286.3c0,1.1-0.9,1.9-1.9,1.9c-1.1,0-1.9-0.9-1.9-1.9c0-1.1,0.9-1.9,1.9-1.9
						C281.6,284.4,282.5,285.2,282.5,286.3z"/>
					<path class="st0" d="M278.5,283.6h-6.3l1.1-1.9h5.3c0.8,0,2.2-0.7,2.8-2.5c0.4-1.2,3-10.9,3-11l0.2-0.7h5.4l-0.6,1.9H286
						c0,0-2.5,9.3-2.9,10.4C282.4,282.3,280.2,283.6,278.5,283.6z"/>
					<path class="st0" d="M278.8,271.2c-1.5,0.3-6.7,1.6-6.7,1.6c-0.5,0.1-0.9,0.7-0.8,1.2c0.1,0.5,0.7,0.9,1.2,0.8l3.3-0.4
						l-0.6,2.5c0,0-1.8,0-2.5,0c-1.1,0-1.9,0.4-2.3,1.3l-2,4.5c-0.3,0.7,0,1.4,0.7,1.7c0.7,0.3,1.4,0,1.7-0.7l1.7-3.1
						c0,0,4.1,0,5.1,0c1,0,2.3-0.6,2.6-1.8c0.3-1.2,1.4-5.3,1.4-5.3C282,271.7,280.6,270.9,278.8,271.2z"/>
				</g>
			</g>
			<path class="st0" d="M306.4,276.4l-0.4-2.5h4.7c0,0-2.9-11.7-7.8-14.8c0,0-1.7-8-2.4-10c-0.6-2-5-3.5-7.3,2.1l-2,5.1l-2.7,6.9
				c-0.3,0.7,0,1.6,0.7,1.9c0.7,0.3,1.6,0,1.9-0.7l3.3-6.6l0.2-0.4l0.8,3l-4.1,25.5c-0.2,1,0.4,2,1.4,2.2c1,0.2,2-0.4,2.2-1.4
				l3.2-12.8h2.9l0.8,3.4l2.2,9.4c0.2,1,1.2,1.7,2.2,1.5c1-0.2,1.7-1.2,1.5-2.2L306.4,276.4z"/>
		</g>
		<g>
			<circle class="st0" cx="48.8" cy="72" r="15.2"/>
			<g>
				<g>
					<rect x="29" y="128.7" class="st0" width="94.2" height="9.8"/>
					<polygon class="st0" points="52.4,126.2 77.1,126.2 92.2,126.2 92.2,118.4 73.6,118.4 65.7,97.1 29.2,97.1 40.6,126.2 					"/>
					<path class="st0" d="M87.2,80.8c0.6,2.9,1.5,5.4,2.8,6.7c0,1.5,0,2.6,0,3.5c0,0.1,0,0.2,0,0.3l6.5,2.8l6.5-2.8
						c0-0.1,0-0.2,0-0.3c0-0.9,0-2,0-3.5c1.3-1.3,2.2-3.8,2.8-6.7c1.3-0.4,2.1-1.1,3-4.1c1-3.2-1.5-3.1-1.5-3.1
						c2-6-0.6-11.7-5.2-11.3c-3.1-4.9-13.5,1.1-16.8,0.7c0,1.7,0.8,2.9,0.8,2.9c-1.1,1.9-0.7,5.7-0.4,7.7c-0.2,0-2.5,0-1.5,3.1
						C85.1,79.7,85.9,80.4,87.2,80.8z"/>
					<rect x="94" y="95.5" class="st0" width="4.9" height="3.8"/>
					<path class="st0" d="M95.5,115.1v11.1h27.4c-1.5-13.6-8-26.3-12.5-27.8c-0.5-0.2-1-0.4-1.6-0.7L99.6,109l-0.7-7.4H94l-0.7,7.4
						l-9.2-11.4c-0.6,0.3-1.1,0.5-1.6,0.7c-2.4,0.8-5.5,6.5-8,13.2l1.3,3.6H95.5z"/>
				</g>
				<polyline class="st3" points="48.8,60.6 48.8,72.5 52.6,79.4 				"/>
			</g>
		</g>
		<g>
			<g>
				<g>
					<g>
						<path class="st0" d="M193,189.4c-0.5,0.7-1.1,1.3-1.8,1.8c1.8,0,3.5,0,5.3-0.2c-0.4-0.4-0.8-0.7-1.4-1.1c-0.1,0,0-0.2,0-0.1
							c2.3,0.3,3.7,1.1,3.7,2.1c0,0.5-0.3,0.8-0.7,0.8c-0.3,0-0.4-0.1-0.7-0.5c-0.2-0.4-0.4-0.6-0.6-0.9c-2.1,0.5-4,0.8-7.8,1.1
							c-0.1,0.4-0.2,0.4-0.3,0.4c-0.2,0-0.3-0.2-0.6-1.8c0.8,0.1,1.4,0.1,2.5,0.1c0.3-0.6,0.4-1.2,0.6-1.8h-2.8c-0.3,0-0.6,0-1,0.1
							l-0.2-0.5c0.4,0.1,0.8,0.1,1.1,0.1h4.4v-1c0-0.2,0-0.5-0.1-0.8c1.7,0.2,1.9,0.3,1.9,0.4c0,0.1-0.2,0.3-0.5,0.4v1h3.3
							c0.7-0.8,0.9-1,1-1c0.1,0,0.3,0.1,1,0.7c0.3,0.2,0.4,0.4,0.4,0.5c0,0.1,0,0.1-0.2,0.1H193z M190.7,197.2c0,1.3,0,2,0,2.7
							c0,0.4-0.3,0.5-0.8,0.5c-0.4,0-0.6-0.1-0.6-0.6c0-0.8,0.1-1.4,0.1-4.6c0-0.9,0-1.8-0.1-2.7c0.7,0.3,0.8,0.3,1.5,0.7h5.1
							c0.5-0.5,0.6-0.6,0.7-0.6c0.1,0,0.3,0.1,0.9,0.6c0.3,0.2,0.3,0.3,0.3,0.4c0,0.1-0.1,0.2-0.4,0.4v0.8c0,3.3,0,3.5,0,4.1
							c0,0.5-0.2,0.9-0.6,1.1c-0.3,0.2-0.7,0.3-1,0.3c-0.1,0-0.2-0.1-0.2-0.4c-0.1-0.4-0.3-0.6-1.5-1c-0.1,0-0.1-0.2,0-0.2
							c0.8,0.1,1.2,0.1,1.8,0.1c0.1,0,0.2,0,0.2-0.2v-1.5H190.7z M196.1,193.6h-5.4v1.4h5.4V193.6z M190.7,196.8h5.4v-1.5h-5.4
							V196.8z"/>
						<path class="st0" d="M207.9,195.5c-0.4,3-1.8,4.2-5.1,4.7c-0.1,0-0.1-0.2-0.1-0.2c2-0.7,3.1-1.7,3.6-3.2
							c0.2-0.6,0.2-1.2,0.2-2.2c1.8,0.3,1.8,0.3,1.8,0.5C208.3,195.2,208.2,195.3,207.9,195.5z M205.4,189.4c0,2.5,0.1,4.3,0.1,4.9
							c0,0.4-0.2,0.6-0.8,0.6c-0.4,0-0.6-0.1-0.6-0.5c0-0.4,0.1-1.7,0.1-4.3c0-1.3,0-1.6-0.1-2.4c1.8,0.2,1.8,0.2,1.8,0.4
							c0,0.1-0.1,0.2-0.4,0.3V189.4z M208.7,193.8v0.1c0,0.4-0.2,0.6-0.7,0.6c-0.4,0-0.6-0.2-0.6-0.4c0-0.7,0.1-1.4,0.1-4.3
							c0-0.7,0-1.3-0.1-2c0.7,0.3,0.8,0.3,1.4,0.7h3.6c0.5-0.5,0.6-0.6,0.7-0.6c0.1,0,0.3,0.1,0.7,0.5c0.2,0.2,0.3,0.3,0.3,0.4
							c0,0.1,0,0.2-0.4,0.4v0.8c0,2.1,0.1,3.5,0.1,4c0,0.4-0.2,0.6-0.8,0.6c-0.4,0-0.5-0.1-0.5-0.5v-0.2H208.7z M212.5,188.7h-3.9
							v2.1h3.9V188.7z M212.5,191.2h-3.9v2.2h3.9V191.2z M210.7,198.2c0,0.7,0.1,0.7,1.1,0.7c1.2,0,1.6-0.1,1.9-0.3
							c0.2-0.2,0.4-0.4,0.9-1.8c0-0.1,0.2,0,0.2,0c0,0.5-0.1,1.3-0.1,1.5c0,0.2,0,0.2,0.2,0.4c0.2,0.1,0.3,0.3,0.3,0.5
							c0,0.3-0.2,0.6-0.8,0.7c-0.6,0.2-1.4,0.2-2.6,0.2c-2.1,0-2.5-0.3-2.5-1.3c0-0.4,0-0.8,0-2.1c0-0.8,0-1.3-0.1-2
							c1.7,0.2,1.8,0.3,1.8,0.4c0,0.1-0.1,0.2-0.4,0.4V198.2z"/>
						<path class="st0" d="M219.4,192.9c-0.5,0.5-1,1.1-1.6,1.5c-0.1,0-0.2-0.1-0.1-0.1c1-1.2,1.8-3,2.4-4.7
							c0.3-0.8,0.4-1.6,0.5-2.3c1.3,0.3,1.8,0.6,1.8,0.8c0,0.2-0.1,0.3-0.5,0.3c-0.5,1.3-1,2.4-1.7,3.3c0.6,0.1,0.7,0.2,0.7,0.3
							c0,0.1-0.1,0.2-0.4,0.3v7.3c0,0.4-0.2,0.6-0.7,0.6c-0.3,0-0.6-0.1-0.6-0.5c0-0.4,0.1-1.5,0.1-3.7V192.9z M226.3,192.3
							c0,3.3,0.1,5.4,0.1,7.5c0,0.4-0.2,0.5-0.8,0.5c-0.4,0-0.6-0.1-0.6-0.4c0-0.7,0.1-3.7,0.1-6.4c-1,1.7-2.3,3.1-4.1,4.3
							c-0.1,0-0.2-0.1-0.1-0.1c1.8-1.9,2.8-3.7,3.7-6.3h-2.2c-0.3,0-0.5,0-0.9,0.1l-0.2-0.5c0.4,0.1,0.7,0.1,1,0.1h2.8v-1.8
							c0-0.9,0-1.1-0.1-1.8c1.8,0.3,1.9,0.3,1.9,0.5c0,0.1-0.1,0.3-0.5,0.4v2.6h2.2c0.7-0.8,0.8-1,0.9-1c0.1,0,0.3,0.1,0.9,0.7
							c0.3,0.3,0.4,0.4,0.4,0.5c0,0.1,0,0.1-0.2,0.1h-4.2c0.4,1,1.1,2,1.8,2.8c0.8,0.9,1.8,1.6,2.9,2.1c0.1,0,0,0.2,0,0.2
							c-0.3,0.1-0.6,0.3-0.8,0.8c-0.1,0.3-0.2,0.4-0.3,0.4c-0.1,0-0.3-0.1-0.5-0.3c-0.7-0.6-1.4-1.5-1.9-2.3c-0.6-1-1.1-2.1-1.4-3.4
							V192.3z"/>
						<path class="st0" d="M240.3,196.2c0.6,0.6,1.4,1,2.3,1.4c1.1,0.5,2.3,0.7,3.7,0.8c0.1,0,0.1,0.1,0,0.2c-0.5,0.2-0.6,0.3-1,1.2
							c-0.1,0.1-0.1,0.2-0.2,0.2c-0.1,0-0.4-0.1-0.7-0.2c-0.9-0.3-1.7-0.8-2.5-1.4c-0.7-0.5-1.2-1.1-1.8-1.8c0,1.8,0.1,3.1,0.1,3.5
							c0,0.4-0.2,0.5-0.8,0.5c-0.4,0-0.5-0.2-0.5-0.5c0-0.3,0.1-1.7,0.1-2.9c-1.2,1.3-3.1,2.3-5.5,2.8c-0.1,0-0.1-0.1-0.1-0.1
							c2.1-1,3.6-2.1,4.7-3.6h-3.3c-0.3,0-0.6,0-1,0.1l-0.2-0.5c0.4,0.1,0.8,0.1,1.1,0.1h4.3v-1.3h-2.7c-0.3,0-0.6,0-1,0.1l-0.2-0.5
							c0.4,0.1,0.8,0.1,1.1,0.1h2.8v-1.3h-3.5c-0.3,0-0.6,0-1,0.1l-0.2-0.5c0.4,0.1,0.8,0.1,1.1,0.1h2.3c-0.2-0.1-0.3-0.2-0.4-0.6
							c-0.1-0.4-0.4-0.9-0.7-1.2c-0.1,0,0-0.1,0.1-0.1c1.3,0.2,1.9,0.6,1.9,1.3c0,0.3-0.2,0.6-0.5,0.7h2.3c0.3-0.5,0.4-0.9,0.6-1.2
							c0.1-0.3,0.2-0.6,0.3-0.9c1.1,0.4,1.6,0.7,1.6,0.8s-0.1,0.2-0.6,0.2c-0.5,0.5-1,0.8-1.4,1h2.3c0.7-0.7,0.8-0.8,0.9-0.8
							c0.1,0,0.3,0.1,0.9,0.6c0.3,0.2,0.4,0.3,0.4,0.4c0,0.1,0,0.1-0.2,0.1h-5v1.3h2.2c0.6-0.7,0.8-0.8,0.9-0.8
							c0.1,0,0.3,0.1,0.8,0.5c0.2,0.2,0.4,0.3,0.4,0.4c0,0.1,0,0.1-0.2,0.1h-4v1.3h3.5c0.7-0.8,0.9-0.9,1-0.9c0.1,0,0.3,0.1,0.9,0.6
							c0.3,0.2,0.4,0.4,0.4,0.5c0,0.1,0,0.1-0.2,0.1H240.3z M237.7,188.4c0-0.6,0-0.7-0.1-1c1.6,0.2,1.7,0.3,1.7,0.4
							c0,0.1-0.1,0.2-0.4,0.4v2h1.2v-1.8c0-0.6,0-0.7-0.1-1c1.6,0.2,1.8,0.3,1.8,0.4c0,0.1-0.1,0.2-0.5,0.4v2h0.6
							c0.3-0.6,0.6-1.1,0.8-1.6c0.1-0.3,0.2-0.6,0.3-0.9c1.2,0.5,1.7,0.7,1.7,0.9c0,0.2-0.1,0.3-0.6,0.3c-0.6,0.6-1.2,1.1-1.7,1.3
							h1.6c0.6-0.7,0.8-0.8,0.9-0.8c0.1,0,0.3,0.1,0.9,0.6c0.3,0.2,0.4,0.3,0.4,0.4c0,0.1,0,0.1-0.2,0.1h-11.3c-0.3,0-0.6,0-1,0.1
							l-0.2-0.5c0.5,0.1,0.8,0.1,1.1,0.1h3.1V188.4z M236.2,189.9c-0.3,0-0.4-0.1-0.6-0.5c-0.2-0.6-0.4-1-0.8-1.4
							c-0.1,0,0-0.1,0.1-0.1c1.3,0.2,2,0.7,2,1.3C236.9,189.6,236.6,189.9,236.2,189.9z"/>
						<path class="st0" d="M255.7,197.1c0,1.5,0,2.5,0,2.8c0,0.3-0.3,0.5-0.8,0.5c-0.4,0-0.6-0.1-0.6-0.5c0-0.3,0.1-1.1,0.1-2.8
							h-4.3c-0.3,0-0.6,0-1,0.1l-0.2-0.5c0.5,0.1,0.8,0.1,1.1,0.1h4.4v-0.1c0-0.7,0-1-0.1-1.6c1.6,0.2,1.8,0.2,1.8,0.4
							c0,0.1-0.1,0.2-0.5,0.4v0.8h3.5c0.7-0.9,0.9-1,1-1c0.1,0,0.3,0.1,1,0.7c0.3,0.3,0.4,0.4,0.4,0.5c0,0.1,0,0.1-0.2,0.1H255.7z
							 M250.1,195.1c0,0.4-0.1,0.6-0.3,0.6c-0.2,0-0.4-0.3-0.9-1.5c0.4-0.1,0.8-0.2,1.2-0.3c0.9-0.3,1.8-0.6,2.5-1
							c0.1,0,0.2,0.1,0.1,0.2C252.3,193.7,251.3,194.4,250.1,195.1z M254.4,189.5c1,0.4,1.3,0.5,1.3,0.7c0,0.2,0,0.2-0.5,0.2
							c-0.5,0.5-0.8,0.8-1.2,1.1c0.3,0.3,0.5,0.5,0.5,0.9c0,0.4-0.2,0.7-0.6,0.7c-0.3,0-0.4-0.1-0.6-0.7c-0.2-0.5-0.4-0.9-0.9-1.3
							c-0.1,0,0-0.1,0.1-0.1c0.4,0.1,0.8,0.2,1.1,0.4c0.1-0.3,0.3-0.5,0.4-0.8c0.1-0.3,0.2-0.6,0.3-0.9h-4.2c-0.3,0-0.6,0-1,0.1
							L249,189c0.4,0.1,0.8,0.1,1.1,0.1h4.2v-1c0-0.2,0-0.5-0.1-0.8c1.7,0.2,1.9,0.3,1.9,0.5c0,0.1-0.2,0.3-0.5,0.4v0.9h3.3
							c0.8-0.8,0.9-1,1-1c0.1,0,0.3,0.1,0.9,0.7c0.3,0.3,0.4,0.4,0.4,0.5c0,0.1,0,0.1-0.2,0.1H254.4z M251.3,192.6
							c-0.4,0-0.5-0.1-0.7-0.9c-0.2-0.7-0.5-1.1-0.9-1.5c-0.1-0.1,0-0.1,0.1-0.1c1.5,0.4,2.3,1,2.3,1.7
							C252,192.3,251.7,192.6,251.3,192.6z M256.6,194c-0.1-0.3-0.3-0.5-0.6-0.8c0-0.1,0-0.1,0.1-0.1c1.2,0.4,1.9,1,1.9,1.7
							c0,0.4-0.3,0.7-0.7,0.7c-0.3,0-0.4-0.1-0.6-0.9c0-0.1-0.1-0.2-0.1-0.3c-1,0.4-2.2,0.7-3.7,0.9c-0.1,0.3-0.1,0.4-0.2,0.4
							c-0.2,0-0.3-0.2-0.6-1.5c0.6,0,1,0,1.4,0c0.7-0.8,1.3-1.6,1.8-2.4c0.2-0.4,0.4-0.8,0.6-1.1c1.2,0.6,1.4,0.8,1.4,1
							c0,0.2,0,0.2-0.6,0.2c-1.3,1.2-2,1.9-2.6,2.4C255,194.1,255.8,194.1,256.6,194z M260.1,191.1c-0.8,0.7-1.8,1.2-2.7,1.6
							c-0.1,0-0.2-0.1-0.1-0.1c0.4-0.4,1-1.1,1.4-1.7c0.3-0.4,0.4-0.7,0.5-1c1.1,0.6,1.4,0.8,1.4,1
							C260.6,191.1,260.5,191.2,260.1,191.1z M260,195.4c-0.3,0-0.5-0.1-0.9-0.8c-0.4-0.6-0.7-1-1.3-1.4c-0.1,0,0-0.2,0.1-0.1
							c1.9,0.3,2.8,0.8,2.8,1.6C260.7,195.1,260.4,195.4,260,195.4z"/>
						<path class="st0" d="M271.9,197.4c-1.5,1.3-3.5,2.3-5.9,2.9c-0.1,0-0.2-0.2-0.1-0.2c2.1-1,3.9-2.2,5.2-3.6
							c-1.4-1.7-2-3.9-2.4-6c-0.1,2.1-0.5,3.9-1.1,5.4c-0.8,1.9-1.9,3.3-3.5,4.2c-0.1,0-0.2-0.1-0.1-0.2c1.2-1.2,2-2.6,2.6-4.4
							c0.6-1.8,0.8-4,0.8-6.9H266c-0.5,0-0.7,0-1.1,0.1l-0.1-0.5c0.4,0.1,0.7,0.1,1.2,0.1h5.6c0.5-0.6,0.6-0.7,0.7-0.7
							c0.1,0,0.3,0.1,0.8,0.6c0.3,0.2,0.4,0.3,0.4,0.5c0,0.2-0.1,0.3-0.5,0.4c-0.2,0.9-0.4,1.7-0.8,2.5h1.6c0.5-0.6,0.6-0.7,0.7-0.7
							c0.1,0,0.3,0.1,0.9,0.5c0.3,0.3,0.4,0.4,0.4,0.5c0,0.1-0.1,0.2-0.5,0.3c-0.6,1.6-1.4,3-2.5,4.2c1.2,1,2.7,1.7,4.5,2.2
							c0.1,0,0.1,0.1,0,0.2c-0.7,0.2-0.8,0.4-1,1.1c0,0.2-0.1,0.2-0.2,0.2c-0.2,0-0.5-0.2-1-0.4
							C274.2,199.3,272.8,198.3,271.9,197.4L271.9,197.4z M268.8,189.5c0.5,2.3,1.4,4.5,3,6.2c0.9-1.1,1.6-2.4,2-3.7H272l0,0.1
							c-0.2,0.3-0.3,0.4-0.7,0.4c-0.4,0-0.7-0.2-0.7-0.4c0-0.1,0.1-0.2,0.2-0.5c0.3-0.8,0.5-1.3,0.9-2.9h-2.9c0,0.3,0,0.5,0,0.7
							V189.5z"/>
						<path class="st0" d="M288,192.4c0,0.5,0,0.9,0,1.2c0,1.1,0,1.9-0.2,2.7c-0.5,2-1.9,3.3-3.9,3.3c-1.2,0-2-0.4-2.6-1.1
							c-0.5-0.6-0.9-1.5-0.9-2.6c0-1.8,0.6-3.3,1.9-5.1c-0.3,0-0.7,0-0.9,0c-0.5,0-0.9-0.2-1.2-0.5c-0.2-0.3-0.3-0.6-0.3-0.9
							c0-0.1,0-0.2,0.1-0.2c0.1,0,0.1,0.1,0.2,0.1c0.2,0.3,0.4,0.4,1,0.4c0.4,0,1.2-0.1,1.9-0.4c0.2-0.1,0.3-0.2,0.4-0.3
							c0.1-0.1,0.3-0.1,0.4-0.1c0.3,0,0.7,0.3,0.9,0.6c0.1,0.1,0.1,0.1,0.1,0.2c0,0.2-0.1,0.3-0.3,0.4c-0.3,0.1-0.7,0.4-0.9,0.6
							c-0.5,0.5-1.1,1.1-1.5,1.9c-0.6,1-1,2.2-1,3c0,0.9,0.3,1.5,0.6,1.9c0.5,0.5,1.1,0.7,1.9,0.7c2.5,0,3.3-2.1,3.6-4.2
							c0.1-1.1,0.1-1.6,0.1-2.3c0-0.7-0.2-1.2-0.4-1.7c-0.1-0.1-0.1-0.3-0.1-0.6c0-0.3,0.3-0.5,0.7-0.5c0.2,0,0.5,0.1,0.5,0.5
							c0,0.6,0,0.9,0.2,1.4c0.2,0.6,0.4,1.1,1,1.8c0.6,0.8,0.8,1,1.3,1.4c0.3,0.3,0.5,0.6,0.5,0.9c0,0.2-0.1,0.4-0.2,0.5
							c-0.1,0.1-0.1,0.2-0.4,0.2c-0.3,0-0.6-0.2-1.2-0.9C288.9,194.1,288.5,193.4,288,192.4L288,192.4z M290.2,189.3
							c0.4,0.3,0.5,0.5,0.5,0.8c0,0.2-0.2,0.5-0.5,0.5c-0.2,0-0.3,0-0.5-0.3c-0.3-0.5-0.5-0.9-0.9-1.2c-0.1-0.1-0.2-0.1-0.2-0.2
							c0-0.1,0-0.1,0.1-0.1c0.1,0,0.2,0,0.2,0C289.5,188.8,289.9,189,290.2,189.3z M291.5,188.3c0.3,0.2,0.5,0.4,0.5,0.7
							c0,0.3-0.2,0.5-0.4,0.5c-0.2,0-0.4-0.1-0.5-0.3c-0.3-0.5-0.6-0.8-1-1.1c-0.1,0-0.2-0.1-0.2-0.2c0,0,0-0.1,0-0.1
							c0.1,0,0.1,0,0.2,0C290.7,187.9,291,188,291.5,188.3z"/>
						<path class="st0" d="M188.6,214.2c-0.5,0.4-1,0.8-1.6,1.2c-0.1,0-0.2-0.1-0.1-0.1c0.9-1,1.7-2.2,2.3-3.3
							c0.3-0.5,0.5-1.1,0.6-1.5c1.3,0.6,1.5,0.7,1.5,0.8c0,0.1-0.1,0.2-0.5,0.3c-0.3,0.6-0.8,1.2-1.2,1.7c0.6,0.1,0.7,0.2,0.7,0.3
							c0,0.1-0.1,0.2-0.4,0.3v5.9c0,0.4-0.2,0.6-0.7,0.6c-0.3,0-0.6-0.1-0.6-0.5c0-0.4,0.1-1.5,0.1-3.7V214.2z M190.7,208.5
							c-1.2,1.5-2.1,2.2-3.5,2.9c-0.1,0-0.2-0.1-0.1-0.1c0.6-0.6,1.3-1.6,1.8-2.4c0.3-0.5,0.5-1.1,0.7-1.5c1.1,0.4,1.7,0.7,1.7,0.9
							C191.3,208.5,191.2,208.5,190.7,208.5z M194,214.2c1,0.3,1.3,0.4,1.3,0.6s-0.1,0.2-0.6,0.3c-0.1,0.1-0.2,0.2-0.2,0.4h2.4
							c0.5-0.5,0.6-0.6,0.7-0.6c0.1,0,0.3,0.1,0.8,0.5c0.3,0.2,0.3,0.3,0.3,0.4c0,0.2-0.1,0.3-0.7,0.4c-0.5,0.7-1.1,1.2-1.8,1.8
							c1.1,0.5,2.5,0.8,4,0.8c0.1,0,0.1,0.1,0,0.2c-0.4,0.2-0.7,0.5-0.8,1c0,0.2-0.1,0.3-0.2,0.3c-0.1,0-0.4-0.1-0.7-0.2
							c-1-0.3-2.2-0.9-3.1-1.6c-1.5,0.9-3.2,1.5-5.2,1.7c-0.1,0-0.1-0.1-0.1-0.2c1.8-0.6,3.3-1.3,4.6-2.2c-0.4-0.4-0.7-0.9-1-1.5
							c-0.9,1-2,1.6-3.2,2.1c-0.1,0-0.1-0.1-0.1-0.1c1-0.7,2-1.8,2.6-2.8c0.3-0.5,0.5-0.9,0.6-1.4h-0.2c0,0.4-0.3,0.5-0.7,0.5
							c-0.4,0-0.6-0.1-0.6-0.4c0-0.4,0-0.8,0-2.3c0-0.3,0-0.6,0-1c-0.3,0.3-0.6,0.6-0.9,0.8c-0.1,0-0.2,0-0.1-0.1
							c0.5-0.8,1-1.9,1.4-3c0.2-0.5,0.3-1,0.4-1.4c1.4,0.4,1.7,0.6,1.7,0.8c0,0.2-0.1,0.2-0.6,0.3c-0.1,0.2-0.2,0.4-0.4,0.7h4
							c0.7-0.8,0.9-0.9,1-0.9c0.1,0,0.3,0.1,0.9,0.7c0.3,0.2,0.4,0.4,0.4,0.5s0,0.1-0.2,0.1h-6.3c-0.2,0.3-0.4,0.6-0.6,0.8
							c0.2,0.1,0.4,0.2,0.6,0.4h3.7c0.4-0.5,0.5-0.6,0.7-0.6c0.1,0,0.3,0.1,0.8,0.5c0.2,0.2,0.3,0.3,0.3,0.4c0,0.1-0.1,0.2-0.4,0.4
							v0.4c0,1.2,0,2,0,2.2c0,0.4-0.2,0.6-0.7,0.6c-0.3,0-0.5-0.1-0.6-0.4H194z M197.3,211h-3.8v1.2h3.8V211z M197.3,212.6h-3.8v1.3
							h3.8V212.6z M194.3,215.8c-0.1,0.2-0.2,0.3-0.3,0.4c0.4,0.5,0.9,0.9,1.4,1.2c0.6-0.5,1.1-1.1,1.5-1.7H194.3z"/>
						<path class="st0" d="M206.3,209.6c0,4.8-0.3,6.4-1.1,7.9c-0.6,1.1-1.4,1.9-2.4,2.6c-0.1,0-0.2-0.1-0.2-0.2
							c0.8-0.9,1.3-1.8,1.7-2.8c0.5-1.5,0.7-2.8,0.7-6.2c0-1.6,0-2.5-0.1-3.3c1.7,0.2,1.8,0.3,1.8,0.5c0,0.2-0.1,0.2-0.5,0.4V209.6z
							 M204.1,211.1c0,2.2,0,3.3,0,3.7c0,0.3-0.3,0.5-0.7,0.5c-0.4,0-0.5-0.1-0.5-0.5c0-0.3,0.1-1.3,0.1-3.6c0-0.8,0-1.2-0.1-1.8
							c1.5,0.2,1.6,0.2,1.6,0.4c0,0.1-0.1,0.2-0.4,0.4V211.1z M213.6,213c0.5-0.6,0.7-0.7,0.8-0.7c0.1,0,0.2,0.1,0.9,0.7
							c0.3,0.3,0.4,0.4,0.4,0.5c0,0.3-0.1,0.3-0.8,0.3c-0.1,0-0.2,0-0.4,0.1c-0.3,0.2-0.5,0.3-0.8,0.5c0,0-0.1,0-0.1-0.1
							c0.1-0.3,0.2-0.8,0.2-1h-6.2c0,0.1,0,0.3,0,0.4c0,0.3-0.1,0.6-0.2,0.8c0.4,0.2,0.6,0.3,1.1,0.5h1.5c0-0.6,0-0.9-0.1-1.5
							c1.7,0.2,1.8,0.2,1.8,0.4c0,0.1-0.1,0.2-0.5,0.4v0.7h1.5c0.5-0.5,0.6-0.6,0.7-0.6c0.1,0,0.3,0.1,0.8,0.5
							c0.2,0.2,0.3,0.3,0.3,0.4c0,0.1-0.1,0.2-0.4,0.4v0.4c0,1.3,0,1.6,0,1.8c0,0.5-0.2,0.8-0.5,1.1c-0.2,0.1-0.6,0.2-0.8,0.2
							c-0.2,0-0.2-0.1-0.3-0.3c-0.1-0.4-0.3-0.6-1-0.8c-0.1,0-0.1-0.2,0-0.2c0.5,0,0.8,0,1.2,0c0.2,0,0.2,0,0.2-0.2v-2.4h-1.7
							c0,2.3,0,3.9,0,4.4c0,0.4-0.3,0.5-0.7,0.5c-0.4,0-0.6-0.1-0.6-0.5c0-0.4,0.1-1.8,0.1-4.5h-1.6v3.2c0,0.4-0.2,0.6-0.7,0.6
							c-0.4,0-0.6-0.1-0.6-0.4c0-0.3,0.1-0.7,0.1-2.2c0-0.6,0-1.1,0-1.7c-0.1,0.1-0.3,0.2-0.5,0.2c-0.4,0-0.6-0.3-0.6-0.7
							c0-0.3,0.1-0.4,0.4-0.6c0.5-0.4,0.7-0.8,0.7-1.4c0-0.1,0.1-0.1,0.2,0c0.1,0.2,0.2,0.5,0.2,0.7H213.6z M212.7,208.5h-4.3
							c-0.3,0-0.5,0-0.9,0.1l-0.2-0.5c0.4,0.1,0.7,0.1,1,0.1h4.1c0.5-0.6,0.6-0.7,0.7-0.7c0.1,0,0.3,0.1,0.8,0.5
							c0.2,0.2,0.3,0.3,0.3,0.4c0,0.1,0,0.1-0.4,0.5v0.5c0,1.2,0,2.1,0,2.3c0,0.4-0.2,0.5-0.8,0.5c-0.4,0-0.5-0.1-0.5-0.5h-4.4
							c-0.2,0-0.5,0-0.8,0.1l-0.2-0.5c0.4,0.1,0.6,0.1,0.9,0.1h4.4v-1.3h-4c-0.2,0-0.5,0-0.8,0.1l-0.2-0.5c0.4,0.1,0.6,0.1,0.9,0.1
							h4V208.5z"/>
						<path class="st0" d="M224.9,217.1c0,1.5,0,2.5,0,2.8c0,0.3-0.3,0.5-0.8,0.5c-0.4,0-0.6-0.1-0.6-0.5c0-0.3,0.1-1.1,0.1-2.8
							h-4.3c-0.3,0-0.6,0-1,0.1l-0.2-0.5c0.5,0.1,0.8,0.1,1.1,0.1h4.4v-0.1c0-0.7,0-1-0.1-1.6c1.6,0.2,1.8,0.2,1.8,0.4
							c0,0.1-0.1,0.2-0.5,0.4v0.8h3.5c0.7-0.9,0.9-1,1-1c0.1,0,0.3,0.1,1,0.7c0.3,0.3,0.4,0.4,0.4,0.5c0,0.1,0,0.1-0.2,0.1H224.9z
							 M219.3,215.1c0,0.4-0.1,0.6-0.3,0.6c-0.2,0-0.4-0.3-0.9-1.5c0.4-0.1,0.8-0.2,1.2-0.3c0.9-0.3,1.8-0.6,2.5-1
							c0.1,0,0.2,0.1,0.1,0.2C221.5,213.7,220.5,214.4,219.3,215.1z M223.6,209.5c1,0.4,1.3,0.5,1.3,0.7c0,0.2,0,0.2-0.5,0.2
							c-0.5,0.5-0.8,0.8-1.2,1.1c0.3,0.3,0.5,0.5,0.5,0.9c0,0.4-0.2,0.7-0.6,0.7s-0.4-0.1-0.6-0.7c-0.2-0.5-0.4-0.9-0.9-1.3
							c-0.1,0,0-0.1,0.1-0.1c0.4,0.1,0.8,0.2,1.1,0.4c0.1-0.3,0.3-0.5,0.4-0.8c0.1-0.3,0.2-0.6,0.3-0.9h-4.2c-0.3,0-0.6,0-1,0.1
							l-0.2-0.5c0.4,0.1,0.8,0.1,1.1,0.1h4.2v-1c0-0.2,0-0.5-0.1-0.8c1.7,0.2,1.9,0.3,1.9,0.5c0,0.1-0.2,0.3-0.5,0.4v0.9h3.3
							c0.8-0.8,0.9-1,1-1c0.1,0,0.3,0.1,0.9,0.7c0.3,0.3,0.4,0.4,0.4,0.5c0,0.1,0,0.1-0.2,0.1H223.6z M220.5,212.6
							c-0.4,0-0.5-0.1-0.7-0.9c-0.2-0.7-0.5-1.1-0.9-1.5c-0.1-0.1,0-0.1,0.1-0.1c1.5,0.4,2.3,1,2.3,1.7
							C221.2,212.3,220.9,212.6,220.5,212.6z M225.8,214c-0.1-0.3-0.3-0.5-0.6-0.8c0-0.1,0-0.1,0.1-0.1c1.2,0.4,1.9,1,1.9,1.7
							c0,0.4-0.3,0.7-0.7,0.7c-0.3,0-0.4-0.1-0.6-0.9c0-0.1-0.1-0.2-0.1-0.3c-1,0.4-2.2,0.7-3.7,0.9c-0.1,0.3-0.1,0.4-0.2,0.4
							c-0.2,0-0.3-0.2-0.6-1.5c0.6,0,1,0,1.4,0c0.7-0.8,1.3-1.6,1.8-2.4c0.2-0.4,0.4-0.8,0.6-1.1c1.2,0.6,1.4,0.8,1.4,1
							c0,0.2,0,0.2-0.6,0.2c-1.3,1.2-2,1.9-2.6,2.4C224.2,214.1,225,214.1,225.8,214z M229.3,211.1c-0.8,0.7-1.8,1.2-2.7,1.6
							c-0.1,0-0.2-0.1-0.1-0.1c0.4-0.4,1-1.1,1.4-1.7c0.3-0.4,0.4-0.7,0.5-1c1.1,0.6,1.4,0.8,1.4,1
							C229.8,211.1,229.7,211.2,229.3,211.1z M229.2,215.4c-0.4,0-0.5-0.1-0.9-0.8c-0.4-0.6-0.7-1-1.3-1.4c-0.1,0,0-0.2,0.1-0.1
							c1.9,0.3,2.8,0.8,2.8,1.6C229.9,215.1,229.6,215.4,229.2,215.4z"/>
					</g>
				</g>
			</g>
		</g>
		<g>
			<g>
				<g>
					<g>
						<path class="st0" d="M136.7,332.6c0,2.2-1.3,3.5-2.9,3.5c-1.6,0-2.9-1.2-2.9-3.4c0-2.1,1.3-3.5,2.9-3.5
							S136.7,330.5,136.7,332.6z M132.4,332.7c0,1.9,0.5,3,1.3,3c0.9,0,1.4-1.1,1.4-3c0-2-0.5-3-1.4-3
							C132.9,329.7,132.4,330.7,132.4,332.7z M133.4,341.5l7.9-12.8l0.5,0.3l-7.9,12.8L133.4,341.5z M144.3,337.6
							c0,2.2-1.3,3.5-2.9,3.5c-1.6,0-2.9-1.3-2.9-3.4s1.3-3.5,2.9-3.5C143,334.3,144.3,335.5,144.3,337.6z M140.1,337.7
							c0,1.9,0.5,3,1.4,3s1.3-1.1,1.3-3s-0.5-3-1.3-3C140.6,334.7,140.1,335.8,140.1,337.7z"/>
					</g>
				</g>
			</g>
		</g>
		<g>
			<g>
				<path class="st1" d="M32.6,307.9l24.4-0.1l-5.9,13.7c-0.4,0.9-0.8,2-1.3,3.2c-0.5,1.3-0.9,2.6-1.4,4c-0.5,1.4-1,2.9-1.4,4.3
					c-0.5,1.4-0.9,2.7-1.3,3.9c-0.4,1.2-0.7,2.2-0.9,3.1H37c0.6-0.9,1.2-2,2-3.3c0.8-1.3,1.6-2.7,2.4-4.2c0.8-1.5,1.6-2.9,2.5-4.4
					c0.8-1.5,1.5-2.8,2.2-4c0.6-1.2,1.2-2.3,1.6-3.1l2.4-5.1H35.3c-0.9,0-1.6,0.2-2.2,0.7c-0.5,0.5-1,1.2-1.3,2.1h-0.5L32.6,307.9z"
					/>
				<path class="st1" d="M62.8,341.8l-0.2-0.3c3.3-1,5.8-2.1,7.7-3.4c1.9-1.3,3.2-2.7,4.1-4.3c0.9-1.6,1.4-3.4,1.6-5.4
					c0.2-2,0.3-4.3,0.3-6.8c0-2.5-0.1-4.7-0.2-6.4s-0.4-3-0.9-3.8c-0.5-0.8-1.3-1.3-2.4-1.3c-1.1,0-2,0.4-2.6,1.1
					c-0.6,0.8-1,1.7-1.2,2.9c-0.2,1.2-0.3,2.5-0.3,3.9c0,1.7,0.1,3.1,0.3,4.1c0.2,1,0.5,1.7,0.8,2.2c0.4,0.5,0.7,0.8,1.2,1
					c0.7,0.3,1.4,0.3,2,0.1s1.1-0.4,1.5-0.6l0.3,0.4c-0.4,1-1.1,1.7-2,2.3s-2,1-3.2,1.2c-1.2,0.2-2.4,0.1-3.6-0.2
					c-1.2-0.3-2.4-0.8-3.4-1.7c-1-0.8-1.8-1.9-2.5-3.3c-0.6-1.4-0.9-3.1-0.8-5.1c0.1-2.1,0.6-3.9,1.5-5.6c1-1.7,2.4-3,4.4-4
					c2-1,4.5-1.5,7.5-1.6c4.5-0.1,8,1.1,10.4,3.6c2.4,2.5,3.6,6.3,3.6,11.6c0,3.3-0.5,6.2-1.5,8.8c-1,2.6-2.5,4.7-4.5,6.5
					c-2,1.7-4.5,2.9-7.5,3.7C70.3,342.1,66.8,342.2,62.8,341.8z"/>
				<path class="st1" d="M94.2,340.6c-1.1,0-2.1-0.4-2.9-1.2c-0.8-0.8-1.2-1.8-1.2-2.9c0-1.2,0.4-2.1,1.2-2.9
					c0.8-0.8,1.8-1.2,2.9-1.2c1.2,0,2.1,0.4,2.9,1.2c0.8,0.8,1.2,1.8,1.2,2.9c0,1.1-0.4,2.1-1.2,2.9
					C96.4,340.2,95.4,340.6,94.2,340.6z"/>
				<path class="st1" d="M101.7,340l0-0.5h1c0.7,0,1.3-0.2,1.8-0.7c0.5-0.5,0.7-1.1,0.7-1.7v-23.3c0-1.2-0.3-2-0.8-2.5
					c-0.6-0.5-1.3-0.7-2.2-0.7h-0.8v-0.5c0.6,0,1.5-0.1,2.6-0.3c1.1-0.1,2.3-0.3,3.5-0.6c1.3-0.2,2.5-0.5,3.7-0.9
					c1.2-0.4,2.2-0.8,3-1.3h0.5v29.9c0,0.7,0.3,1.2,0.8,1.7c0.5,0.5,1.1,0.7,1.8,0.7h1v0.5H101.7z"/>
			</g>
		</g>
		<g>
			<g>
				<g>
					<g>
						<path class="st0" d="M291.8,332.6c0,2.2-1.3,3.5-2.9,3.5c-1.6,0-2.9-1.2-2.9-3.4c0-2.1,1.3-3.5,2.9-3.5
							S291.8,330.5,291.8,332.6z M287.6,332.7c0,1.9,0.5,3,1.3,3c0.9,0,1.4-1.1,1.4-3c0-2-0.5-3-1.4-3
							C288,329.7,287.6,330.7,287.6,332.7z M288.6,341.5l7.9-12.8l0.5,0.3l-7.9,12.8L288.6,341.5z M299.5,337.6
							c0,2.2-1.3,3.5-2.9,3.5c-1.6,0-2.9-1.3-2.9-3.4s1.3-3.5,2.9-3.5C298.1,334.3,299.5,335.5,299.5,337.6z M295.2,337.7
							c0,1.9,0.5,3,1.4,3c0.8,0,1.3-1.1,1.3-3s-0.5-3-1.3-3C295.7,334.7,295.2,335.8,295.2,337.7z"/>
					</g>
				</g>
			</g>
		</g>
		<g>
			<g>
				<path class="st1" d="M199.5,340l0-0.5h1c0.7,0,1.3-0.2,1.8-0.7c0.5-0.5,0.7-1.1,0.7-1.7v-23.3c0-1.2-0.3-2-0.8-2.5
					c-0.6-0.5-1.3-0.7-2.2-0.7h-0.8v-0.5c0.6,0,1.5-0.1,2.6-0.3c1.1-0.1,2.3-0.3,3.5-0.6c1.3-0.2,2.5-0.5,3.7-0.9s2.2-0.8,3-1.3h0.5
					v29.9c0,0.7,0.3,1.2,0.8,1.7s1.1,0.7,1.8,0.7h1v0.5H199.5z"/>
				<path class="st1" d="M233.2,307.2c3,0,5.6,0.7,7.7,2.1s3.7,3.3,4.9,5.8c1.1,2.5,1.7,5.4,1.7,8.8c0,3.3-0.6,6.3-1.7,8.8
					c-1.1,2.5-2.8,4.5-4.9,5.9c-2.1,1.4-4.7,2.1-7.7,2.1c-3,0-5.5-0.7-7.7-2.1c-2.1-1.4-3.8-3.3-4.9-5.9c-1.1-2.5-1.7-5.4-1.7-8.8
					c0-3.4,0.6-6.3,1.7-8.8c1.1-2.5,2.8-4.4,4.9-5.8C227.6,307.9,230.2,307.2,233.2,307.2z M233.2,309.5c-1.6,0-2.8,1.2-3.5,3.5
					c-0.7,2.3-1.1,6-1.1,10.9s0.4,8.6,1.1,10.9c0.7,2.3,1.9,3.5,3.5,3.5c1.6,0,2.8-1.2,3.5-3.5c0.7-2.3,1.1-6,1.1-10.9
					s-0.4-8.6-1.1-10.9C235.9,310.6,234.8,309.5,233.2,309.5z"/>
				<path class="st1" d="M264.9,307.2c3,0,5.6,0.7,7.7,2.1s3.7,3.3,4.9,5.8c1.1,2.5,1.7,5.4,1.7,8.8c0,3.3-0.6,6.3-1.7,8.8
					c-1.1,2.5-2.8,4.5-4.9,5.9c-2.1,1.4-4.7,2.1-7.7,2.1c-3,0-5.5-0.7-7.7-2.1c-2.1-1.4-3.8-3.3-4.9-5.9c-1.1-2.5-1.7-5.4-1.7-8.8
					c0-3.4,0.6-6.3,1.7-8.8c1.1-2.5,2.8-4.4,4.9-5.8C259.4,307.9,261.9,307.2,264.9,307.2z M264.9,309.5c-1.6,0-2.8,1.2-3.5,3.5
					c-0.7,2.3-1.1,6-1.1,10.9s0.4,8.6,1.1,10.9c0.7,2.3,1.9,3.5,3.5,3.5c1.6,0,2.8-1.2,3.5-3.5c0.7-2.3,1.1-6,1.1-10.9
					s-0.4-8.6-1.1-10.9C267.7,310.6,266.5,309.5,264.9,309.5z"/>
			</g>
		</g>
		<g>
			<g>
				<g>
					<g>
						<path class="st0" d="M27.9,189.4c-0.3,0.7-0.6,1.3-1,1.9l0.1,0h4.4c0.5-0.6,0.6-0.6,0.8-0.6c0.1,0,0.3,0.1,0.8,0.6
							c0.3,0.2,0.3,0.3,0.3,0.4c0,0.1,0,0.2-0.4,0.4v1c0,3.9,0,4.3,0,4.9c0,0.6-0.1,0.9-0.4,1.1c-0.3,0.2-0.7,0.4-1.1,0.4
							c-0.2,0-0.2-0.1-0.3-0.3c-0.1-0.6-0.4-0.8-1.7-1.1c-0.1,0-0.1-0.2,0-0.2c0.8,0.1,1.2,0.1,1.9,0.1c0.2,0,0.2,0,0.2-0.2v-1.9
							h-4.7c0,1.5,0,2.3,0,3.1c0,0.4-0.3,0.6-0.8,0.6c-0.4,0-0.6-0.1-0.6-0.4c0-0.3,0.1-1.6,0.1-2.7v-3.5c-0.8,0.8-1.8,1.5-2.9,2.1
							c-0.1,0-0.2-0.1-0.1-0.2c1.8-1.4,3.2-3.4,4.1-5.4h-2.7c-0.3,0-0.7,0-1.1,0.1l-0.2-0.5c0.5,0.1,0.9,0.1,1.2,0.1h2.8
							c0.3-0.8,0.5-1.6,0.7-2.4c1.4,0.3,1.8,0.5,1.8,0.7c0,0.2-0.2,0.3-0.6,0.4c-0.2,0.5-0.3,1-0.5,1.4h4.7c0.7-0.8,0.9-0.9,1-0.9
							c0.1,0,0.3,0.1,1,0.6c0.3,0.3,0.4,0.4,0.4,0.5c0,0.1,0,0.1-0.2,0.1H27.9z M31.5,193.4v-1.7h-4.7v1.7H31.5z M26.8,195.5h4.7
							v-1.8h-4.7V195.5z"/>
						<path class="st0" d="M39.6,195.2c-0.5,1.4-0.9,2.4-1.7,3.3c0,0.1-0.2,0-0.2-0.1c0.2-0.8,0.5-1.8,0.6-2.6
							c0.1-0.6,0.1-1.1,0.1-1.5c1.3,0.4,1.5,0.5,1.5,0.7C40,195.1,39.9,195.2,39.6,195.2z M39.5,192.5c0.4-0.7,0.9-1.6,1.3-2.4
							c0.3-0.7,0.6-1.3,0.7-1.7c1.1,0.5,1.6,0.7,1.6,0.9c0,0.1-0.1,0.2-0.5,0.2c-1,1.3-1.4,1.8-2.6,3c0.4,0,1.4,0,2.1-0.1
							c-0.1-0.3-0.3-0.7-0.5-1.1c0-0.1,0.1-0.1,0.1-0.1c0.5,0.2,0.8,0.5,1.1,0.8c1-1.2,1.7-2.5,2.2-3.8c0.2-0.6,0.4-1.1,0.5-1.7
							c1.5,0.4,1.8,0.5,1.8,0.7c0,0.2-0.1,0.2-0.5,0.3c0.4,0.9,1,1.7,1.7,2.2c0.7,0.6,1.5,1.1,2.5,1.3c0.1,0,0.1,0.1,0,0.1
							c-0.4,0.2-0.6,0.5-0.7,1c-0.1,0.2-0.1,0.3-0.2,0.3c-0.1,0-0.2-0.1-0.5-0.3c-0.6-0.5-1.1-1.1-1.6-1.7c-0.5-0.7-0.9-1.6-1.3-2.8
							c-0.8,1.8-2,3.4-3.7,4.6c0.3,0.3,0.4,0.6,0.4,1c0,0.4-0.3,0.7-0.6,0.7c-0.4,0-0.5-0.1-0.6-1l0-0.2c-0.3,0.1-0.6,0.2-0.9,0.3v2
							c0,1.5,0,3.4,0,4c0,0.4-0.3,0.5-0.7,0.5c-0.4,0-0.6-0.1-0.6-0.4c0-0.3,0.1-1.2,0.1-3.1v-2.7c-0.4,0.1-0.9,0.2-1.3,0.3
							c-0.1,0.3-0.2,0.4-0.3,0.4c-0.2,0-0.3-0.3-0.5-1.5c0.4,0,0.5,0,0.7,0H39.5z M39.8,187.7c0.1-0.4,0.2-0.8,0.2-1.1
							c1.1,0.4,1.7,0.6,1.7,0.8c0,0.2-0.2,0.3-0.5,0.3c-0.9,1.2-1,1.3-1.5,1.8c0.4,0.3,0.6,0.6,0.6,1c0,0.5-0.3,0.8-0.6,0.8
							s-0.4-0.1-0.6-0.9c-0.2-0.6-0.3-1-0.8-1.4c0-0.1,0-0.2,0.1-0.2c0.4,0.1,0.8,0.3,1.1,0.4C39.6,188.8,39.7,188.2,39.8,187.7z
							 M42.4,197.4c-0.3,0-0.5-0.3-0.5-1.1c0-0.7-0.2-1.4-0.4-1.8c0-0.1,0-0.1,0.1-0.1c1,0.8,1.4,1.5,1.4,2.2
							C43,197,42.7,197.4,42.4,197.4z M44.8,198.5v0.5c0,0.3-0.2,0.5-0.8,0.5c-0.4,0-0.5-0.2-0.5-0.5c0-0.6,0.1-1.1,0.1-3.4
							c0-0.7,0-1.4-0.1-2.1c0.7,0.3,0.8,0.4,1.5,0.7h2.9c0.5-0.6,0.6-0.7,0.7-0.7c0.1,0,0.3,0.1,0.7,0.5c0.2,0.2,0.3,0.3,0.3,0.4
							c0,0.1-0.1,0.2-0.4,0.4v0.7c0,1.8,0.1,3,0.1,3.4c0,0.3-0.2,0.5-0.8,0.5c-0.4,0-0.5-0.1-0.5-0.4v-0.5H44.8z M46.9,192
							c0.5-0.7,0.7-0.8,0.8-0.8c0.1,0,0.3,0.1,0.8,0.6c0.2,0.2,0.4,0.3,0.4,0.4s0,0.1-0.2,0.1H45c-0.2,0-0.5,0-0.8,0.1l-0.2-0.5
							c0.4,0.1,0.6,0.1,0.9,0.1H46.9z M48,194.5h-3.2v3.6H48V194.5z"/>
						<path class="st0" d="M54.5,187.8h-0.3c-0.2,0-0.4,0-0.7,0.1l-0.2-0.5c0.4,0.1,0.6,0.1,0.9,0.1h4.7c0.6-0.7,0.8-0.8,0.9-0.8
							c0.1,0,0.3,0.1,0.8,0.5c0.3,0.2,0.4,0.3,0.4,0.4c0,0.1,0,0.1-0.2,0.1H59v4c0,2.7,0,6,0,7.1c0,0.4-0.2,0.6-0.8,0.6
							c-0.4,0-0.6-0.1-0.6-0.5c0-0.3,0.1-1.1,0.1-2.7v-0.4c-0.8,0.5-2.1,1.1-3.5,1.6c-0.1,0.4-0.2,0.5-0.4,0.5c-0.2,0-0.2,0-0.7-1.7
							c0.4,0,0.8-0.1,1.3-0.1V187.8z M55.7,190.2h2.1v-2.4h-2.1V190.2z M55.7,192.8h2.1v-2.3h-2.1V192.8z M55.7,195.9
							c0.7-0.1,1.4-0.3,2.1-0.4v-2.3h-2.1V195.9z M63.8,189c0.6-0.6,0.7-0.7,0.8-0.7c0.1,0,0.3,0.1,0.8,0.5c0.4,0.3,0.4,0.4,0.4,0.5
							c0,0.2-0.1,0.3-0.5,0.4c-0.4,2.2-1.1,4-2,5.5c0.8,0.9,1.9,1.6,3.2,2.3c0.1,0,0,0.1,0,0.2c-0.4,0.2-0.6,0.4-0.8,0.9
							c-0.1,0.3-0.1,0.4-0.3,0.4c-0.1,0-0.3-0.1-0.5-0.3c-1-0.8-1.8-1.5-2.4-2.4c-0.9,1.1-2,1.9-3.3,2.6c-0.1,0-0.2-0.1-0.1-0.2
							c1.1-0.9,2-2.1,2.8-3.4l-0.3-0.6c-0.6-1.5-1.1-3.2-1.3-5.4c-0.3,0-0.6,0-0.9,0.1l-0.1-0.5c0.4,0.1,0.7,0.1,1.2,0.1H63.8z
							 M60.7,189.3c0.3,1.8,0.8,3.4,1.8,5c0.7-1.5,1.1-3.2,1.4-5H60.7z"/>
						<path class="st0" d="M70.3,193.2c-0.5,0.4-1.1,0.8-1.7,1.2c-0.1,0-0.2-0.1-0.1-0.1c0.9-0.9,1.8-2.1,2.4-3.2
							c0.3-0.5,0.5-1.1,0.6-1.5c1.5,0.6,1.5,0.7,1.5,0.8c0,0.1-0.1,0.2-0.5,0.3c-0.3,0.6-0.8,1.1-1.3,1.7c0.6,0.1,0.7,0.2,0.7,0.3
							c0,0.1-0.1,0.2-0.4,0.3v6c0,0.4-0.2,0.6-0.7,0.6c-0.3,0-0.6-0.1-0.6-0.5c0-0.4,0.1-1.5,0.1-3.7V193.2z M72.3,187.8
							c-1.2,1.4-2.2,2.2-3.6,2.8c-0.1,0-0.1-0.1-0.1-0.2c0.6-0.6,1.4-1.5,1.9-2.4c0.3-0.6,0.6-1.1,0.7-1.5c1.2,0.5,1.7,0.8,1.7,1
							C72.9,187.7,72.8,187.8,72.3,187.8z M79.2,196.2c0,0.7,0,1.3,0,2c0,0.4-0.1,0.7-0.4,0.9c-0.2,0.3-0.6,0.4-1.1,0.4
							c-0.2,0-0.3-0.1-0.3-0.3c-0.1-0.5-0.4-0.7-1.5-1c-0.1,0-0.1-0.2,0-0.2c0.7,0,1.2,0.1,1.7,0.1c0.2,0,0.2,0,0.2-0.2V195h-4.5
							c-0.3,0-0.6,0-1,0.1l-0.2-0.5c0.5,0.1,0.8,0.1,1.2,0.1H78v-0.3c0-0.4,0-0.6-0.1-1.1c1.5,0.2,1.7,0.2,1.7,0.4
							c0,0.1-0.1,0.2-0.4,0.3v0.6h0.5c0.5-0.6,0.7-0.7,0.8-0.7c0.1,0,0.3,0.1,0.8,0.5c0.2,0.2,0.3,0.3,0.3,0.4c0,0.1,0,0.1-0.2,0.1
							h-2.2V196.2z M79.4,192.8c0.5-0.7,0.7-0.8,0.8-0.8c0.1,0,0.3,0.1,0.8,0.5c0.3,0.2,0.4,0.3,0.4,0.4c0,0.1,0,0.1-0.2,0.1h-7.6
							c-0.3,0-0.6,0-1,0.1l-0.2-0.5c0.4,0.1,0.8,0.1,1.1,0.1H79.4z M74.9,191.4c0,0.4-0.2,0.6-0.7,0.6c-0.4,0-0.6-0.1-0.6-0.4
							c0-0.4,0.1-0.7,0.1-2.2c0-0.8,0-1.6-0.1-2.4c0.6,0.3,0.7,0.3,1.4,0.7h3.4c0.5-0.5,0.6-0.6,0.7-0.6c0.1,0,0.3,0.1,0.7,0.5
							c0.2,0.2,0.3,0.3,0.3,0.4c0,0.1,0,0.2-0.4,0.4v0.5c0,1.3,0.1,2.3,0.1,2.6c0,0.4-0.2,0.6-0.7,0.6c-0.4,0-0.6-0.1-0.6-0.5v0
							H74.9z M75.2,197.8c-0.4,0-0.5-0.1-0.6-0.8c-0.2-0.6-0.4-1.1-0.8-1.4c0-0.1,0-0.2,0.1-0.1c1.4,0.3,2,0.9,2,1.5
							C76,197.6,75.6,197.8,75.2,197.8z M78.6,187.9h-3.7v1.4h3.7V187.9z M78.6,189.6h-3.7v1.4h3.7V189.6z"/>
						<path class="st0" d="M90.9,196.3c0,1.5,0,2.5,0,2.8c0,0.3-0.3,0.5-0.8,0.5c-0.4,0-0.6-0.1-0.6-0.5c0-0.3,0.1-1.1,0.1-2.8h-4.3
							c-0.3,0-0.6,0-1,0.1l-0.2-0.5c0.5,0.1,0.8,0.1,1.1,0.1h4.4v-0.1c0-0.7,0-1-0.1-1.6c1.6,0.2,1.8,0.2,1.8,0.4
							c0,0.1-0.1,0.2-0.5,0.4v0.8h3.5c0.7-0.9,0.9-1,1-1c0.1,0,0.3,0.1,1,0.7c0.3,0.3,0.4,0.4,0.4,0.5c0,0.1,0,0.1-0.2,0.1H90.9z
							 M85.4,194.4c0,0.4-0.1,0.6-0.3,0.6c-0.2,0-0.4-0.3-0.9-1.5c0.4-0.1,0.8-0.2,1.2-0.3c0.9-0.3,1.8-0.6,2.5-1
							c0.1,0,0.2,0.1,0.1,0.2C87.5,192.9,86.6,193.7,85.4,194.4z M89.7,188.7c1,0.4,1.3,0.5,1.3,0.7c0,0.2,0,0.2-0.5,0.2
							c-0.5,0.5-0.8,0.8-1.2,1.1c0.3,0.3,0.5,0.5,0.5,0.9c0,0.4-0.2,0.7-0.6,0.7c-0.3,0-0.4-0.1-0.6-0.7c-0.2-0.5-0.4-0.9-0.9-1.3
							c-0.1,0,0-0.1,0.1-0.1c0.4,0.1,0.8,0.2,1.1,0.4c0.1-0.3,0.3-0.5,0.4-0.8c0.1-0.3,0.2-0.6,0.3-0.9h-4.2c-0.3,0-0.6,0-1,0.1
							l-0.2-0.5c0.4,0.1,0.8,0.1,1.1,0.1h4.2v-1c0-0.2,0-0.5-0.1-0.8c1.7,0.2,1.9,0.3,1.9,0.5c0,0.1-0.2,0.3-0.5,0.4v0.9h3.3
							c0.8-0.8,0.9-1,1-1c0.1,0,0.3,0.1,0.9,0.7c0.3,0.3,0.4,0.4,0.4,0.5c0,0.1,0,0.1-0.2,0.1H89.7z M86.6,191.9
							c-0.4,0-0.5-0.1-0.7-0.9c-0.2-0.7-0.5-1.1-0.9-1.5c-0.1-0.1,0-0.1,0.1-0.1c1.5,0.4,2.3,1,2.3,1.7
							C87.3,191.5,86.9,191.9,86.6,191.9z M91.8,193.3c-0.1-0.3-0.3-0.5-0.6-0.8c0-0.1,0-0.1,0.1-0.1c1.2,0.4,1.9,1,1.9,1.7
							c0,0.4-0.3,0.7-0.7,0.7c-0.3,0-0.4-0.1-0.6-0.9c0-0.1-0.1-0.2-0.1-0.3c-1,0.4-2.2,0.7-3.7,0.9c-0.1,0.3-0.1,0.4-0.2,0.4
							c-0.2,0-0.3-0.2-0.6-1.5c0.6,0,1,0,1.4,0c0.7-0.8,1.3-1.6,1.8-2.4c0.2-0.4,0.4-0.8,0.6-1.1c1.2,0.6,1.4,0.8,1.4,1
							c0,0.2,0,0.2-0.6,0.2c-1.3,1.2-2,1.9-2.6,2.4C90.2,193.4,91,193.3,91.8,193.3z M95.3,190.4c-0.8,0.7-1.8,1.2-2.7,1.6
							c-0.1,0-0.2-0.1-0.1-0.1c0.4-0.4,1-1.1,1.4-1.7c0.3-0.4,0.4-0.7,0.5-1c1.1,0.6,1.4,0.8,1.4,1
							C95.9,190.3,95.8,190.4,95.3,190.4z M95.2,194.6c-0.4,0-0.5-0.1-0.9-0.8c-0.4-0.6-0.7-1-1.3-1.4c-0.1,0,0-0.2,0.1-0.1
							c1.9,0.3,2.8,0.8,2.8,1.6C95.9,194.3,95.6,194.6,95.2,194.6z"/>
					</g>
				</g>
			</g>
		</g>
		<line class="st4" x1="167.5" y1="165.5" x2="167.5" y2="366.2"/>
		<line class="st4" x1="0" y1="165.5" x2="335" y2="165.5"/>
		<g>
			<rect x="53" y="217.8" class="st0" width="69" height="38.5"/>
			<g>
				<g>
					<path class="st5" d="M67.8,263.6c3.6,0,6.5-2.9,6.5-6.5c0-3.6-2.9-6.5-6.5-6.5c-3.6,0-6.5,2.9-6.5,6.5
						C61.2,260.7,64.2,263.6,67.8,263.6z"/>
					<path class="st5" d="M67.8,267.1c-4.8,0-8.3,5.7-8.3,9.2c0,3.5,0,7,0,7h16.6c0,0,0-3.5,0-7C76.1,272.7,72.6,267.1,67.8,267.1z"
						/>
					<path class="st5" d="M88.6,263.6c3.6,0,6.5-2.9,6.5-6.5c0-3.6-2.9-6.5-6.5-6.5c-3.6,0-6.5,2.9-6.5,6.5
						C82,260.7,84.9,263.6,88.6,263.6z"/>
					<path class="st5" d="M88.6,267.1c-4.8,0-8.3,5.7-8.3,9.2c0,3.5,0,7,0,7h16.6c0,0,0-3.5,0-7C96.8,272.7,93.3,267.1,88.6,267.1z"
						/>
					<path class="st5" d="M107.3,268.4c2.7,0,4.9-2.2,4.9-4.9c0-2.7-2.2-4.9-4.9-4.9c-2.7,0-4.9,2.2-4.9,4.9
						C102.4,266.2,104.6,268.4,107.3,268.4z"/>
					<path class="st5" d="M107.3,271.1c-3.6,0-6.2,4.3-6.2,6.9c0,2.6,0,5.2,0,5.2h12.5c0,0,0-2.6,0-5.2
						C113.5,275.3,110.9,271.1,107.3,271.1z"/>
				</g>
				<g>
					<path class="st0" d="M67.8,263.6c3.6,0,6.5-2.9,6.5-6.5c0-3.6-2.9-6.5-6.5-6.5c-3.6,0-6.5,2.9-6.5,6.5
						C61.2,260.7,64.2,263.6,67.8,263.6z"/>
					<path class="st0" d="M67.8,267.1c-4.8,0-8.3,5.7-8.3,9.2c0,3.5,0,7,0,7h16.6c0,0,0-3.5,0-7C76.1,272.7,72.6,267.1,67.8,267.1z"
						/>
					<path class="st0" d="M88.6,263.6c3.6,0,6.5-2.9,6.5-6.5c0-3.6-2.9-6.5-6.5-6.5c-3.6,0-6.5,2.9-6.5,6.5
						C82,260.7,84.9,263.6,88.6,263.6z"/>
					<path class="st0" d="M88.6,267.1c-4.8,0-8.3,5.7-8.3,9.2c0,3.5,0,7,0,7h16.6c0,0,0-3.5,0-7C96.8,272.7,93.3,267.1,88.6,267.1z"
						/>
					<path class="st0" d="M107.3,268.4c2.7,0,4.9-2.2,4.9-4.9c0-2.7-2.2-4.9-4.9-4.9c-2.7,0-4.9,2.2-4.9,4.9
						C102.4,266.2,104.6,268.4,107.3,268.4z"/>
					<path class="st0" d="M107.3,271.1c-3.6,0-6.2,4.3-6.2,6.9c0,2.6,0,5.2,0,5.2h12.5c0,0,0-2.6,0-5.2
						C113.5,275.3,110.9,271.1,107.3,271.1z"/>
				</g>
			</g>
			<rect x="53" y="282.7" class="st0" width="69" height="4.5"/>
		</g>
	</g>
</g>
</svg>
