<?xml version="1.0" encoding="utf-8"?>
<!-- Generator: Adobe Illustrator 25.4.1, SVG Export Plug-In . SVG Version: 6.00 Build 0)  -->
<svg version="1.1" id="レイヤー_1" xmlns="http://www.w3.org/2000/svg" xmlns:xlink="http://www.w3.org/1999/xlink" x="0px"
	 y="0px" viewBox="0 0 1082 309" style="enable-background:new 0 0 1082 309;" xml:space="preserve">
<style type="text/css">
	.st0{fill:none;stroke:#E8314B;stroke-width:1.76;stroke-miterlimit:10;}
	.st1{fill:#333333;}
	.st2{fill:#E8314B;}
	.st3{fill:none;stroke:#333333;stroke-miterlimit:10;}
</style>
<line class="st0" x1="775.4" y1="309" x2="775.4" y2="0"/>
<path class="st1" d="M343.2,252.1c-0.7,1-1.4,1.9-2.3,2.7c-0.1,0.1-0.3-0.1-0.3-0.3c1.6-2.8,2.8-5.8,3.6-8.9
	c0.3-1.3,0.5-2.6,0.7-3.9c3.1,0.8,3.4,0.9,3.4,1.3s-0.1,0.4-1,0.6c-0.7,2.2-1.6,4.3-2.7,6.3c1.5,0.2,1.7,0.3,1.7,0.6
	s-0.2,0.4-0.7,0.6v13.4c0,0.8-0.5,1.1-1.4,1.1s-1.1-0.3-1.1-1s0.1-2.7,0.1-6.8L343.2,252.1z M349.6,261.5c0,1.7-0.7,3-2,3
	c-0.6,0-1.2-0.4-1.2-1.1c0,0,0-0.1,0-0.1c0-0.6,0.3-1,1-1.3c0.9-0.3,1.6-1.1,1.7-2.1c0-0.1,0.3-0.2,0.3,0
	C349.5,260.4,349.6,260.9,349.6,261.5L349.6,261.5z M351,245.5c1.9,0.6,2.8,1.4,2.8,2.5c0,0.6-0.4,1-1,1.1h4.3
	c0.2-0.6,0.4-1.2,0.5-1.8c0.1-0.5,0.2-1.1,0.3-1.7c2.2,0.7,2.9,0.9,2.9,1.2s-0.2,0.3-0.8,0.5c-0.6,0.7-1.3,1.3-2.1,1.9h3.6
	c1.1-1.4,1.4-1.6,1.6-1.6s0.5,0.2,1.6,1.1c0.5,0.4,0.7,0.6,0.7,0.8s-0.1,0.3-0.3,0.3h-16.2c-0.6,0-1.3,0.1-1.9,0.1l-0.3-1
	c0.7,0.1,1.4,0.2,2.1,0.2h3.5c-0.4-0.1-0.7-0.4-0.7-0.8c-0.1-1-0.5-2-1.2-2.8h-0.2c-0.6,0-1.3,0.1-1.9,0.1l-0.3-1
	c0.7,0.1,1.4,0.2,2.1,0.2h4.2v-1.6c0-0.5-0.1-1-0.1-1.6c3,0.3,3.3,0.5,3.3,0.8s-0.3,0.4-0.8,0.7v1.7h3.8c1.1-1.3,1.4-1.5,1.6-1.5
	s0.5,0.2,1.6,1.1c0.5,0.4,0.7,0.6,0.7,0.8s-0.1,0.3-0.3,0.3L351,245.5z M351,257.7c-0.1,0.5-0.5,0.7-1.3,0.7s-1.1-0.3-1.1-0.9
	c0-0.4,0.1-0.9,0.1-2.6c0-1.5,0-3-0.2-4.6c0.9,0.3,1.9,0.7,2.7,1.2h8.1c0.9-1,1.1-1.1,1.3-1.1s0.5,0.2,1.4,0.8
	c0.4,0.3,0.6,0.5,0.6,0.7s-0.1,0.4-0.7,0.8v0.8c0,2.1,0,3.5,0,4c0,0.7-0.5,1-1.5,1c-0.6,0-0.9-0.2-0.9-0.8l0,0H351z M359.6,252.2
	H351v2.2h8.6L359.6,252.2z M359.6,255H351v2.2h8.6L359.6,255z M359.8,262.4c0,0.3,0.1,0.5,0.3,0.5c0.6,0.2,0.8,0.4,0.8,0.9
	s-0.4,0.9-1.2,1.2c-1.4,0.3-2.8,0.4-4.2,0.4c-3.3,0-4.4-0.4-4.4-1.8c0-0.5,0-1.1,0-3.4c0-0.4,0-0.8-0.1-1.1c2.6,0.3,2.9,0.3,2.9,0.7
	s-0.2,0.4-0.7,0.6v2.3c0,0.7,0.4,0.9,2.5,0.9c0.8,0.1,1.5,0,2.3-0.2c0.7-0.3,1-0.9,1.5-2.6c0-0.1,0.3-0.1,0.3,0V262.4z M356.5,262.1
	c-0.6,0-0.7-0.1-1.1-1.4c-0.2-0.7-0.6-1.3-1.1-1.9c-0.1-0.1,0-0.2,0.1-0.2c2.2,0.4,3.2,1.1,3.2,2.2
	C357.6,261.5,357.1,262,356.5,262.1L356.5,262.1z M363.6,264.2c-0.7,0-0.9-0.3-1.2-1.6c-0.2-1.1-0.7-2-1.4-2.8
	c-0.1-0.1,0-0.3,0.1-0.2c2.6,0.8,3.7,1.8,3.7,3.1C364.9,263.5,364.3,264.1,363.6,264.2C363.6,264.2,363.6,264.2,363.6,264.2
	L363.6,264.2z"/>
<path class="st1" d="M376.7,264.4c0,0.6-0.6,1-1.6,1c-0.8,0-1.1-0.2-1.1-0.9c0-2.3,0.2-4.7,0.2-14.1c0-2.7,0-5.4-0.2-8.1l2.9,1.4
	h14.7c1-1.1,1.2-1.2,1.4-1.2s0.5,0.2,1.5,1c0.5,0.4,0.6,0.6,0.6,0.8s-0.1,0.4-0.7,0.8v2.9c0,12.7,0.1,13.2,0.1,14.7
	c0,1.3-0.3,1.9-1.2,2.3c-0.5,0.2-1.1,0.4-1.7,0.4c-0.4,0-0.5-0.2-0.6-0.7c-0.1-0.9-0.6-1.5-3.1-2c-0.1,0-0.1-0.3,0-0.3
	c1.4,0,2.6,0.1,3.5,0.1c0.4,0,0.5-0.1,0.5-0.5v-8.5h-15.1L376.7,264.4z M382.9,252.7v-8.4h-6.1v8.4H382.9z M391.9,244.3h-6.4v8.4
	h6.4V244.3z"/>
<path class="st2" d="M79.2,218.1l-6.7-18c2.2-1.8,4.6-3.3,7.2-4.3c3-1.2,6.1-2,9.2-2.6c3.2-0.6,6.5-0.9,9.7-0.9
	c5-0.1,9.9,0.8,14.6,2.4c4,1.4,7.5,3.8,10.2,7c2.5,3.1,3.9,7,3.8,11.1c0,3.1-0.6,6.2-2,9c-1.4,2.8-3.2,5.5-5.3,7.8
	c-2.2,2.4-4.6,4.6-7.2,6.6c-2.6,2-5.2,3.9-7.7,5.5s-4.8,3.1-6.8,4.4h19c1.9,0,3.7-0.4,5.4-1.1c1.7-0.8,3.3-2,4.5-3.4
	c1.5-1.8,2.8-3.8,3.8-5.9h1l-6.8,28.1h-52v-1c2.9-3.5,5.8-7.1,8.8-10.6c3-3.5,6-7.1,8.8-10.6c2.7-3.4,5.3-6.8,7.6-10.4
	c2.2-3.2,4-6.7,5.4-10.3c1.3-3.2,2-6.6,2-10.1c0-4.3-1.2-7.7-3.4-10.2c-2.3-2.5-5.4-3.5-9.3-3.2c-4,0.2-7.5,2.3-9.6,5.8
	c-2.2,3.5-3.2,8.5-3.2,15L79.2,218.1z"/>
<path class="st2" d="M142.1,248.9c1.5-1.1,3.3-1.7,5.1-1.6c1.9,0,3.7,0.6,5.4,1.5c1.7,1,3,2.5,3.8,4.2c1.3,2.8,1.8,5.9,1.4,9
	c-0.4,2.9-1.4,5.8-3.1,8.2c-1.6,2.4-3.8,4.3-6.4,5.5c-2.6,1.3-5.5,1.6-8.3,1l-0.4-1.3c1.3-0.6,2.4-1.5,3.2-2.6
	c0.9-1.3,1.4-2.9,1.4-4.5c0-1.7-0.9-3.6-2.8-5.6c-1.2-1.3-1.9-3-2.2-4.8c-0.3-1.7-0.2-3.5,0.4-5.1
	C139.9,251.2,140.8,249.8,142.1,248.9z"/>
<path class="st2" d="M209.1,210.5l-30.7,2.5l-1.9,8.3c5.5-1.5,11.3-1.9,17-1.4c4.4,0.4,8.7,1.9,12.4,4.2c3.2,2.1,5.8,5.1,7.4,8.6
	c1.6,3.6,2.4,7.6,2.1,11.6c-0.1,4.6-1.5,9-4.1,12.8c-2.5,3.6-5.9,6.6-9.8,8.6c-4,2.2-8.4,3.7-12.9,4.5c-4.6,0.8-9.2,0.9-13.9,0.4
	c-4.3-0.5-8.5-1.8-12.4-3.8l0.2-1c2.1,0,4.3-0.1,6.4-0.5c2.7-0.4,5.4-1.1,7.9-2c2.8-0.9,5.4-2.2,7.9-3.8c2.4-1.5,4.4-3.4,6.1-5.6
	c1.6-2.3,2.6-5,2.7-7.8c0.3-3.8-0.8-6.8-3.1-9c-2.3-2.2-5.5-3.4-9.6-3.6c-4.7-0.1-9.4,0.8-13.6,2.8l-0.9-0.6l8.3-38.4l29.8-2.5
	c1.8,0.1,3.5-0.4,5-1.4c1.2-1,2.2-2.2,2.9-3.6h1L209.1,210.5z"/>
<path class="st2" d="M224.1,263.8l0.1-1h2.1c1.5,0,2.9-0.5,3.9-1.6c1-1,1.6-2.4,1.6-3.8v-50.7c0-2.6-0.6-4.4-1.8-5.4
	c-1.4-1.1-3.1-1.6-4.8-1.5h-1.8v-1c1.4-0.1,3.3-0.2,5.6-0.6s4.9-0.7,7.6-1.2c2.7-0.5,5.3-1.1,7.9-1.9c2.3-0.6,4.5-1.6,6.5-2.8h1
	v65.1c0,1.4,0.6,2.8,1.6,3.8c1,1,2.4,1.6,3.8,1.5h2.1v1H224.1z"/>
<path class="st2" d="M312.9,192.3l0.9,7.4l-35.6,34.6h40c1.5,0.1,2.9-0.3,4.2-1.1c1-0.8,1.8-1.8,2.3-2.9h1l-3.1,14.5h-61.3v-1
	L312.9,192.3z M313.9,257.3c0,1.4,0.6,2.8,1.6,3.8c1,1,2.4,1.6,3.9,1.6h1.1v1h-33.8l0.1-1h1c1.5,0,2.9-0.5,4-1.5
	c1.1-1,1.7-2.4,1.6-3.9H313.9z M293.4,213.9l19.5-21.6h1v71.3h-20.5V213.9z"/>
<path class="st1" d="M48.5,61.8c0,1.2,0,1.9,0,2.5c0,0.4-0.3,0.6-1,0.6c-0.4,0-0.7-0.2-0.7-0.5S47,62,47,60.5
	c-1,1.2-2.2,2.2-3.6,2.9c-0.1,0-0.2-0.2-0.1-0.2c1.5-1.4,2.7-3.1,3.4-5h-1.6c-0.3,0-0.7,0-1,0.1l-0.2-0.7c0.4,0.1,0.8,0.1,1.2,0.2h2
	v-0.6c0-0.6,0-1.2-0.1-1.8c1.5,0.1,2.1,0.2,2.1,0.5s-0.1,0.3-0.6,0.5v1.4h0.8c0.6-0.7,0.8-0.9,0.9-0.9s0.4,0.2,1,0.6
	c0.2,0.2,0.4,0.3,0.4,0.5s-0.1,0.2-0.2,0.2h-3v1.1c1.6,0.2,2.7,0.9,2.7,1.7c0,0.4-0.3,0.8-0.7,0.8c0,0,0,0-0.1,0
	c-0.3,0-0.6-0.2-0.7-0.5c-0.2-0.7-0.7-1.3-1.3-1.7L48.5,61.8z M52.8,51.3c0.8,0.7,1.7,1.3,2.7,1.7c1.4,0.5,2.9,0.9,4.4,1
	c0.1,0,0.1,0.2,0,0.2c-0.5,0.2-0.9,0.5-1.1,1c-0.2,0.5-0.3,0.6-0.5,0.6c-0.3,0-0.6-0.1-0.9-0.3c-0.9-0.4-1.8-1-2.6-1.6
	c-0.8-0.6-1.6-1.4-2.2-2.3c0,1.5,0.1,2.9,0.1,3.7c0,0.5-0.4,0.6-1,0.6S51,55.9,51,55.5s0-1.8,0.1-3c-1.9,1.7-4.3,2.9-6.8,3.5
	c-0.1,0-0.2-0.2-0.1-0.2c2.3-1.1,4.3-2.6,5.8-4.6h-3.8c-0.4,0-0.8,0-1.2,0.1l-0.2-0.7c0.4,0.1,0.9,0.1,1.3,0.2H51V50
	c0-0.5,0-1.1,0-1.6c2.1,0.2,2.3,0.3,2.3,0.6s-0.2,0.3-0.6,0.5v1.4h3.7c0.9-1.1,1.1-1.3,1.3-1.3s0.4,0.1,1.2,0.9
	c0.4,0.3,0.6,0.5,0.6,0.6s0,0.2-0.2,0.2L52.8,51.3z M55.9,61.8c0,1,0,1.8,0,2.4c0,0.6-0.3,0.7-0.9,0.7s-0.7-0.2-0.7-0.5
	s0.1-2.3,0.1-4c-1.2,1.5-2.7,2.6-4.5,3.4c-0.1,0-0.2-0.2-0.1-0.2c1.8-1.4,3.2-3.2,4.1-5.3H53c-0.3,0-0.7,0-1,0.1l-0.2-0.7
	c0.4,0.1,0.8,0.1,1.2,0.2h1.3V57c0-0.5,0-1.1-0.1-1.7c1.6,0.1,2.1,0.2,2.1,0.5s-0.1,0.3-0.5,0.5v1.4h1.5c0.7-0.8,0.9-1,1-1
	s0.4,0.1,1.1,0.7c0.3,0.3,0.5,0.4,0.5,0.5s0,0.2-0.2,0.2H56c0.5,0.9,1.1,1.6,1.8,2.2c0.8,0.6,1.7,1.1,2.7,1.4c0,0,0.1,0.1,0,0.1
	c0,0,0,0,0,0c-0.5,0.2-0.8,0.7-1,1.2c-0.1,0.2-0.2,0.3-0.3,0.3s-0.2-0.1-0.5-0.3c-0.6-0.5-1.1-1.1-1.5-1.7c-0.6-0.9-1.1-1.9-1.4-2.9
	V61.8z"/>
<path class="st1" d="M72.7,55.6c1.1,0.5,1.7,1,1.7,1.8c0,0.5-0.3,0.9-0.8,1c-0.4,0-0.8-0.2-1-0.5c-0.4-0.5-0.8-0.9-1.3-1.3
	c-0.5-0.5-1.2-0.8-1.9-1v3.1c0,0.8,0,2.4,0.1,4.4c0,0.7-0.3,0.8-0.7,0.8c-0.3,0-0.6-0.1-0.8-0.4c-0.2-0.4-0.4-0.9-0.4-1.4
	c0-0.2,0-0.4,0.1-0.5c0.1-0.1,0.1-0.2,0.1-0.3c0-0.2,0.1-0.7,0.1-4c0-1.7,0-3.2,0-4.9c0-0.5,0-1-0.1-1.5c-0.1-0.2-0.2-0.3-0.4-0.4
	c-0.2-0.1-0.4-0.2-0.6-0.3c-0.1,0-0.2-0.1-0.2-0.2s0.1-0.2,0.2-0.3c0.1-0.1,0.3-0.2,0.5-0.2c0.6,0,1.3,0.2,1.8,0.5
	c0.5,0.2,0.7,0.5,0.7,0.8c0,0.2-0.1,0.4-0.3,0.6c-0.1,0.1-0.1,0.2-0.1,0.4c0,0.5-0.1,1.6-0.1,3.2C70.6,55,71.7,55.2,72.7,55.6z"/>
<path class="st1" d="M84.3,54c1.1-0.1,2.6-0.3,4.9-0.5c0.2,0,0.5-0.1,0.6-0.3c0.2-0.1,0.3-0.2,0.5-0.2c0.5,0.2,1,0.4,1.4,0.8
	c0.4,0.4,0.4,0.5,0.4,0.7S92,55,91.8,55.1s-0.4,0.2-0.6,0.8c-0.8,1.4-1.7,2.8-2.8,4c-1.6,1.8-3.7,3.2-5.9,4.2c-0.1,0-0.3,0-0.4,0
	c-0.1,0-0.2-0.1-0.2-0.2c0,0,0,0,0,0c0-0.1,0.1-0.2,0.2-0.2c2-1.3,3.8-3,5.2-5c0.9-1.2,1.7-2.4,2.2-3.8c0.1-0.1,0.1-0.2,0.1-0.4
	c0,0,0,0-0.1,0h-0.3c-1.9,0.2-3.3,0.4-5.1,0.7c-0.4,0-0.7,0.1-1.1,0.3c-0.2,0.1-0.4,0.2-0.6,0.2c-0.3,0-0.5-0.1-1-0.6
	c-0.4-0.3-0.6-0.8-0.7-1.3c0-0.3,0.1-0.5,0.2-0.5s0.1,0,0.3,0.2c0.4,0.4,0.9,0.7,1.5,0.7C82.9,54.1,83.7,54,84.3,54z M85.2,50.6
	c0.7-0.1,1.4-0.2,2.2-0.4c0.3-0.1,0.6-0.2,0.8-0.3c0.2-0.1,0.5-0.1,0.7-0.2c0.8,0,1.6,0.4,1.6,0.8c0,0.3-0.1,0.5-0.4,0.6
	c-0.4,0.1-0.7,0.2-1.1,0.2c-0.8,0.1-2.7,0.3-4.1,0.5c-0.3,0-0.6,0-0.9,0c-0.7,0-1-0.2-1.6-1c-0.2-0.2-0.3-0.5-0.2-0.8
	c0-0.1,0-0.2,0.1-0.2s0.1,0.1,0.2,0.1c0.5,0.4,1.1,0.7,1.7,0.6C84.5,50.6,84.8,50.5,85.2,50.6L85.2,50.6z"/>
<path class="st1" d="M108.7,58.1c0.6,0.3,1.2,0.7,1.7,1.1c1.1,0.8,1.5,1.5,1.5,2.1c0.1,0.5-0.3,0.9-0.8,1c0,0,0,0,0,0
	c-0.5,0-0.9-0.2-1.1-0.6c-0.6-1-1.3-1.9-2.1-2.7c-0.5-0.5-1.2-1-1.8-1.4c-1.3,1.4-2.8,2.6-4.4,3.5c-1,0.6-2,1.1-3.1,1.4
	c-0.1,0.1-0.3,0.1-0.4,0.1c-0.1,0-0.2,0-0.2-0.2c0-0.1,0-0.2,0.1-0.2c2.1-1.1,4-2.6,5.6-4.4c1.4-1.4,2.6-3,3.7-4.8
	c0.1-0.1,0.1-0.1,0.1-0.2c0,0,0-0.1-0.2,0c-1.3,0.1-2.9,0.4-4.3,0.7c-0.3,0-0.6,0.1-0.8,0.3c-0.2,0.1-0.4,0.2-0.6,0.2
	c-0.3,0-0.7-0.2-1.2-0.8c-0.3-0.3-0.4-0.7-0.4-1.2c0-0.3,0.1-0.5,0.2-0.5s0.1,0.1,0.2,0.2c0.5,0.6,0.7,0.7,1.2,0.7
	c0.2,0,0.7,0,1.4-0.1c1.5-0.2,2.7-0.3,4-0.5c0.3,0,0.5-0.1,0.7-0.3c0.1-0.1,0.3-0.2,0.5-0.2c0.4,0,0.7,0.2,1,0.5
	c0.5,0.5,0.8,0.8,0.8,1s0,0.4-0.6,0.5c-0.2,0.1-0.3,0.2-0.4,0.4c-0.7,1.1-1.6,2.2-2.4,3.2C107.3,57.5,108,57.8,108.7,58.1z"/>
<path class="st1" d="M125.1,55.6c1.1,0.5,1.7,1,1.7,1.8c0,0.5-0.3,0.9-0.8,1c-0.4,0-0.8-0.2-1-0.5c-0.4-0.5-0.8-0.9-1.3-1.3
	c-0.5-0.5-1.2-0.8-1.9-1v3.1c0,0.8,0,2.4,0.1,4.4c0,0.7-0.3,0.8-0.7,0.8c-0.3,0-0.6-0.1-0.8-0.4c-0.2-0.4-0.4-0.9-0.4-1.4
	c0-0.2,0-0.4,0.1-0.5c0.1-0.1,0.1-0.2,0.1-0.3c0-0.2,0.1-0.7,0.1-4c0-1.7,0-3.2,0-4.9c0-0.5,0-1-0.1-1.5c-0.1-0.2-0.2-0.3-0.4-0.4
	c-0.2-0.1-0.4-0.2-0.6-0.3c-0.1,0-0.2-0.1-0.2-0.2s0.1-0.2,0.2-0.3c0.1-0.1,0.3-0.2,0.5-0.2c0.6,0,1.3,0.2,1.8,0.5
	c0.5,0.2,0.7,0.5,0.7,0.8c0,0.2-0.1,0.4-0.3,0.6c-0.1,0.1-0.1,0.2-0.1,0.4c0,0.5-0.1,1.6-0.1,3.2C123,55,124.1,55.2,125.1,55.6z"/>
<path class="st1" d="M144.5,53.4c0,0.3-0.2,0.5-0.5,0.6c-0.3,0.1-0.4,0.3-0.6,0.6c-1.2,1.9-2.6,3.8-4.2,5.4
	c-1.6,1.7-3.6,3.1-5.8,3.9c-0.1,0.1-0.3,0.1-0.4,0.1c-0.1,0-0.2,0-0.2-0.2s0.1-0.2,0.3-0.3c2-1.2,3.8-2.8,5.3-4.5
	c1.4-1.7,2.6-3.5,3.5-5.5c0-0.1,0-0.1,0.1-0.2c0,0,0-0.1-0.1-0.1c-0.4,0.1-1,0.2-1.8,0.3c-0.5,0.1-0.7,0.2-1,0.2
	c-0.3,0-0.7-0.1-1-0.3c-0.7,0.9-1.4,1.7-2.1,2.4c-0.8,0.7-1.7,1.4-2.6,2c-0.3,0.2-0.5,0.3-0.6,0.3s-0.2-0.1-0.2-0.2s0.3-0.3,0.7-0.8
	c0.8-0.8,1.5-1.7,2.2-2.6c0.5-0.7,1-1.4,1.5-2.2c0.3-0.4,0.5-0.9,0.6-1.4c0-0.3-0.3-0.5-0.6-0.7c-0.2-0.1-0.2-0.1-0.2-0.2
	s0.2-0.3,0.6-0.3c0.6,0.1,1.2,0.3,1.8,0.7c0.6,0.3,0.7,0.6,0.7,0.8c0,0.2-0.2,0.4-0.4,0.6c-0.2,0.1-0.3,0.3-0.7,0.9
	c0.1,0,0.2,0,0.3,0c0.5,0,0.9-0.1,1.4-0.2c0.7-0.1,1.2-0.2,1.4-0.3c0.1,0,0.3-0.1,0.4-0.2c0.1-0.1,0.3-0.2,0.5-0.2
	c0.4,0,0.8,0.2,1.4,0.8C144.3,52.8,144.5,53.1,144.5,53.4z M145.4,50.9c0.4,0.2,0.6,0.6,0.7,1.1c0,0.3-0.3,0.6-0.6,0.6c0,0,0,0,0,0
	c-0.3,0-0.5-0.2-0.6-0.4c-0.3-0.6-0.7-1.1-1.1-1.6c-0.1-0.1-0.2-0.2-0.2-0.2s0.1-0.1,0.2-0.1c0.1,0,0.3,0,0.4,0.1
	C144.6,50.5,145.1,50.7,145.4,50.9z M147.1,49.7c0.4,0.2,0.6,0.5,0.6,0.9c0,0.3-0.2,0.6-0.6,0.7c0,0,0,0,0,0c-0.3,0-0.5-0.1-0.7-0.4
	c-0.3-0.6-0.7-1-1.3-1.4c-0.1,0-0.2-0.1-0.2-0.2c0-0.1,0.1-0.1,0.1-0.2c0.2,0,0.3,0,0.5,0.1C146.2,49.3,146.6,49.4,147.1,49.7z"/>
<path class="st1" d="M155.6,53.7c-0.1,0-0.2-0.1-0.2-0.2s0.3-0.4,0.7-0.4c0.7,0.1,1.3,0.3,1.9,0.7c0.4,0.3,0.5,0.5,0.5,0.8
	c0,0.2-0.1,0.4-0.3,0.5c-0.2,0.2-0.3,0.4-0.3,0.6c-0.3,1.2-0.8,2.3-1.5,3.3c-0.9,1.4-2.1,2.6-3.6,3.3c-0.1,0.1-0.2,0.1-0.4,0.1
	c-0.1,0-0.2,0-0.2-0.2s0-0.1,0.2-0.2c1-0.9,1.9-1.9,2.5-3.1c0.5-1,1-2,1.2-3.1c0.1-0.4,0.2-0.8,0.2-1.3
	C156.6,54.2,156.1,53.9,155.6,53.7z M159.8,52.6c-0.2-0.3-0.5-0.5-0.8-0.7c-0.1,0-0.2-0.1-0.2-0.2s0.3-0.4,0.8-0.4
	c0.6,0.1,1.2,0.3,1.6,0.6c0.3,0.2,0.7,0.5,0.7,0.9c0,0.2-0.1,0.4-0.2,0.5c-0.1,0.1-0.1,0.3-0.1,0.4c0,1.2-0.1,2.3-0.1,4.1v1.3
	c0,0.2,0,0.2,0.1,0.2c0.2,0,0.3-0.1,0.4-0.1c2.1-0.9,4.1-2,5.9-3.5c0.2-0.2,0.3-0.3,0.4-0.3c0.1,0,0.2,0.1,0.2,0.1c0,0,0,0,0,0
	c0,0.1-0.1,0.2-0.1,0.2c-1.8,2.1-3.9,3.9-6.4,5.2c-0.2,0.1-0.3,0.2-0.4,0.4c-0.1,0.2-0.2,0.2-0.4,0.2c-0.4-0.1-0.7-0.3-0.9-0.6
	c-0.3-0.3-0.5-0.7-0.5-1.1c0-0.1,0-0.2,0.1-0.3c0.1-0.4,0.1-0.7,0.1-1.1c0-1.4,0-2.7,0-5C159.9,53.3,159.9,52.9,159.8,52.6z"/>
<path class="st1" d="M187.2,57.4c-0.6,0-1.8-0.1-2.7-0.1c-1.4,0-4.5,0.1-6.7,0.3c-0.6,0-1.2,0.2-1.8,0.4c-0.1,0.1-0.3,0.1-0.5,0.1
	c-0.5,0-0.9-0.4-1.4-1.2c-0.2-0.3-0.4-0.6-0.3-1c0-0.3,0.1-0.4,0.2-0.4c0.1,0,0.2,0.1,0.2,0.2c0.4,0.5,0.9,0.7,1.5,0.7
	c0.5,0,0.8,0,1.9-0.1c2.2-0.2,4.6-0.2,6.4-0.3c0.5,0,1-0.1,1.4-0.2c0.2-0.1,0.3-0.1,0.5-0.2c0.3,0,0.6,0.1,0.8,0.2
	c0.7,0.3,1.1,0.6,1.1,1C187.8,57.1,187.6,57.4,187.2,57.4z"/>
<path class="st1" d="M196.8,54c-0.2,0-0.4,0.1-0.6,0.2c-0.2,0.1-0.3,0.1-0.5,0.1c-0.3,0-0.6-0.2-1.1-0.8s-0.6-0.8-0.6-1.3
	s0.1-0.5,0.2-0.5s0.2,0.1,0.3,0.2c0.3,0.5,0.9,0.8,1.6,0.7l1.3-0.1c1.8-0.2,3.6-0.3,5.2-0.5c0.3,0,0.6-0.1,0.8-0.3
	c0.1-0.1,0.3-0.2,0.5-0.2c0.4,0,0.9,0.2,1.2,0.5c0.6,0.5,0.8,0.7,0.8,1.2c0,0.2-0.1,0.3-0.4,0.5c-0.4,0.2-0.6,0.5-0.8,0.9
	c-0.9,1.8-2,3.4-3.4,4.8c-1.7,1.7-3.7,3.1-5.9,3.9c-0.1,0-0.2,0-0.3,0c-0.2,0-0.2,0-0.2-0.2s0.1-0.2,0.3-0.3c2-1.2,3.7-2.7,5.1-4.5
	c1.1-1.4,2-3,2.9-4.6c0.1-0.2,0.2-0.4,0.2-0.6c0-0.1-0.1-0.1-0.2-0.1s-0.4,0-0.8,0.1C200.5,53.4,198.4,53.7,196.8,54z M208.2,50.5
	c0,0.8-0.7,1.5-1.5,1.5s-1.5-0.7-1.5-1.5s0.7-1.5,1.5-1.5S208.2,49.7,208.2,50.5z M205.7,50.5c0,0.6,0.4,1,1,1s1-0.4,1-1s-0.4-1-1-1
	S205.7,50,205.7,50.5z"/>
<path class="st1" d="M50.4,83.4c-0.1,4.1-1.8,6-6.6,6.9c-0.1,0-0.2-0.2-0.1-0.3c3.7-1.4,4.9-3,4.9-6.9c0-0.2,0-0.4,0-0.8
	c1.9,0.2,2.4,0.3,2.4,0.6S50.9,83.3,50.4,83.4z M57.3,81.2c0.7-0.8,0.8-0.9,1-0.9s0.3,0.1,1.2,0.9c0.4,0.4,0.5,0.5,0.5,0.7
	c0,0.3-0.1,0.4-0.8,0.4c-0.2,0-0.4,0-0.5,0.2c-0.5,0.4-1.1,0.8-1.7,1.1c-0.1,0-0.2-0.1-0.2-0.1c0.3-0.6,0.6-1.2,0.8-1.9H46.2
	c0,1.4-0.6,2.4-1.7,2.4c-0.4,0-0.8-0.3-0.8-0.7c0,0,0,0,0-0.1c0-0.4,0.2-0.7,0.7-1c0.9-0.4,1.4-1.2,1.4-2.2c0-0.1,0.2-0.1,0.2,0
	c0.1,0.4,0.2,0.7,0.2,1.1L57.3,81.2z M52.5,79h3.2c0.8-1,1.1-1.1,1.2-1.1s0.4,0.1,1.2,0.8c0.3,0.3,0.5,0.4,0.5,0.6s0,0.2-0.2,0.2H47
	c-0.4,0-0.8,0-1.2,0.1l-0.2-0.7C46,79,46.5,79,47,79h3.8v-2.2h-5.4c-0.4,0-0.9,0-1.3,0.1L44,76.2c0.5,0.1,0.9,0.1,1.4,0.2h5.4v-0.8
	c0-0.6,0-1.2-0.1-1.8c2.2,0.2,2.5,0.4,2.5,0.6s-0.2,0.3-0.6,0.4v1.5H57c0.9-1,1.1-1.2,1.2-1.2s0.4,0.2,1.2,0.8
	c0.4,0.3,0.5,0.5,0.5,0.6s0,0.2-0.2,0.2h-7.2V79z M54.3,87.8c0,0.5,0.2,0.7,1.7,0.7c0.6,0,1.2,0,1.8-0.2c0.5-0.2,0.8-0.8,1.4-2.6
	c0-0.1,0.2-0.1,0.2,0c0,0.7,0,1.4,0,1.9c0,0.2,0,0.3,0.1,0.3c0.5,0.2,0.6,0.5,0.6,0.8c0,0.4-0.2,0.8-0.8,1C58.1,89.9,57,90,55.8,90
	c-2.6,0-3.2-0.2-3.2-1.6v-3c0-1,0-2,0-3c2.3,0.3,2.3,0.3,2.3,0.6s-0.1,0.3-0.5,0.4L54.3,87.8z"/>
<path class="st1" d="M73.8,88.8h4.4c1-1.3,1.3-1.5,1.4-1.5s0.4,0.2,1.4,1c0.5,0.4,0.6,0.6,0.6,0.7s-0.1,0.2-0.2,0.2H67.5
	c-0.6,0-1.2,0-1.7,0.1l-0.2-0.7c0.6,0.1,1.3,0.1,1.9,0.1H72v-12c0-0.8,0-1.7-0.1-2.5c2.4,0.2,2.6,0.4,2.6,0.6s-0.2,0.4-0.6,0.5v5.4
	h2.9c1-1.3,1.2-1.4,1.3-1.4s0.4,0.2,1.4,1c0.4,0.4,0.6,0.5,0.6,0.7s-0.1,0.2-0.2,0.2h-6L73.8,88.8z"/>
<path class="st1" d="M94.2,74.8c0-0.4,0-0.7-0.1-1.1c2.2,0.2,2.5,0.4,2.5,0.6s-0.2,0.3-0.6,0.5v1.1h4.4c1-1.1,1.2-1.2,1.3-1.2
	s0.3,0.1,1.2,0.8c0.4,0.3,0.5,0.5,0.5,0.6s-0.1,0.2-0.2,0.2H88.7c-0.4,0-0.8,0-1.3,0.1l-0.2-0.7c0.5,0.1,1,0.1,1.4,0.1h5.5
	L94.2,74.8z M100.4,82.5c0.6-0.7,0.8-0.8,0.9-0.8s0.3,0.1,1,0.6c0.3,0.3,0.4,0.4,0.4,0.5s-0.1,0.3-0.6,0.6v0.9c0,2.9,0,3.6,0,4.4
	c0.1,0.5-0.2,1.1-0.7,1.3c-0.4,0.2-0.8,0.3-1.2,0.3c-0.2,0-0.3-0.1-0.4-0.5s-0.3-0.8-1.6-1.2c-0.1,0-0.1-0.2,0-0.2
	c0.8,0.1,1.3,0.1,1.9,0.1c0.2,0,0.2-0.1,0.2-0.2v-5.4H89.8v6.7c0,0.6-0.3,0.8-1,0.8c-0.5,0-0.7-0.2-0.7-0.7c0-1,0-2,0-6
	c0-0.7,0-1.4,0-2.1c0.6,0.2,1.3,0.5,1.8,0.9L100.4,82.5z M92.1,81v0.2c0,0.5-0.3,0.7-1,0.7c-0.5,0-0.7-0.2-0.7-0.6s0-0.9,0-2.7
	c0-0.5,0-1,0-1.5c0.6,0.2,1.2,0.5,1.8,0.9h5.7c0.6-0.7,0.7-0.8,0.8-0.8s0.3,0.1,1,0.6c0.3,0.2,0.4,0.4,0.4,0.5s-0.1,0.3-0.5,0.5V79
	c0,1,0,1.7,0,1.9c0,0.6-0.3,0.8-1,0.8c-0.5,0-0.7-0.2-0.7-0.6V81H92.1z M93.2,87.5v0.4c0,0.5-0.2,0.7-0.9,0.7
	c-0.5,0-0.7-0.2-0.7-0.6s0-0.8,0-2.5c0-0.6,0-1.2-0.1-1.8c0.8,0.3,0.9,0.4,1.8,0.8h3.5c0.5-0.6,0.7-0.7,0.8-0.7s0.3,0.1,1,0.6
	c0.3,0.2,0.4,0.4,0.4,0.5s-0.1,0.3-0.5,0.5v0.3c0,0.9,0,1.6,0,1.8c0,0.5-0.3,0.7-0.9,0.7c-0.5,0-0.7-0.1-0.7-0.5v-0.2H93.2z
	 M98,78.2h-5.9v2.3H98V78.2z M96.9,84.9h-3.7v2.2h3.7L96.9,84.9z"/>
<path class="st1" d="M916.8,198.7c1.4-1.7,1.7-1.9,1.9-1.9s0.5,0.2,1.9,1.3c0.6,0.5,0.8,0.8,0.8,0.9s-0.1,0.3-0.3,0.3h-9
	c0,2.8,0.1,5.3,0.1,6.4c0,0.8-0.5,1.1-1.6,1.1c-0.8,0-1.2-0.2-1.2-0.9s0.1-2.7,0.1-6.6h-9.2c-0.6,0-1.3,0.1-1.9,0.2l-0.3-1
	c0.7,0.1,1.4,0.2,2.1,0.2h2.3v-3.6c0-1.3,0-2.6-0.1-3.9c0.9,0.3,1.9,0.7,2.7,1.2h4.3v-4.8h-4.8c-1.5,2.3-3.5,4.3-5.8,5.7
	c-0.1,0.1-0.4-0.1-0.3-0.2c2-2.2,3.5-4.7,4.5-7.4c0.4-1,0.7-2,0.8-3c2.8,0.8,3.5,1.1,3.5,1.6c0,0.3-0.3,0.5-1.1,0.6
	c-0.4,0.8-0.8,1.5-1.2,2.2h11c1.4-1.6,1.7-1.8,1.8-1.8s0.5,0.2,1.8,1.2c0.6,0.5,0.8,0.7,0.8,0.9s-0.1,0.3-0.3,0.3H912v4.8h3.1
	c1.3-1.5,1.5-1.7,1.7-1.7s0.5,0.2,1.8,1.1c0.6,0.5,0.8,0.6,0.8,0.9s-0.1,0.3-0.4,0.3H912v0.9c0,1.5,0,3.1,0,4.7L916.8,198.7z
	 M909.5,193.1H905v5.6h4.5V193.1z"/>
<path class="st1" d="M855.4,242.2c0.5-0.9,0.9-1.8,1.2-2.7c0.2-0.7,0.4-1.3,0.6-2c2.2,0.7,3.3,1.2,3.3,1.5s-0.3,0.5-1.2,0.5
	c-0.9,1-1.9,1.9-2.9,2.6h4.9c1.3-1.5,1.6-1.7,1.8-1.7s0.5,0.2,1.8,1.2c0.6,0.5,0.8,0.7,0.8,0.9s-0.1,0.3-0.3,0.3h-20.7
	c-0.6,0-1.3,0.1-1.9,0.2l-0.3-1c0.7,0.1,1.4,0.2,2.1,0.2L855.4,242.2z M846.4,254.1c0,3.1,0,4.8,0,6.4c0,0.7-0.4,1-1.4,1
	c-0.8,0-1.1-0.2-1.1-0.8c0-1.4,0.1-2.9,0.1-8.7c0-2.5,0-5-0.1-7.5c0.9,0.3,1.8,0.7,2.6,1.2h4.2c0.9-1,1.1-1.1,1.3-1.1
	s0.5,0.1,1.4,0.9c0.4,0.3,0.5,0.5,0.5,0.7s-0.2,0.4-0.7,0.7v2c0,8.4,0.1,9.5,0.1,10.3c0,0.6-0.2,1.2-0.7,1.7
	c-0.5,0.4-1.2,0.6-1.9,0.5c-0.3,0-0.4-0.1-0.4-0.5c-0.2-0.9-0.4-1.3-2.4-1.9c-0.1,0-0.1-0.3,0-0.3c1,0,1.8,0.1,2.7,0.1
	c0.2,0,0.3-0.1,0.3-0.4v-4.2L846.4,254.1z M851,246.2h-4.5v3.3h4.5V246.2z M851,250.1h-4.5v3.4h4.5V250.1z M850.5,242
	c-0.7,0-0.9-0.3-1.1-1.2c-0.2-1-0.7-2-1.3-2.8c0-0.1,0-0.2,0.1-0.2c0,0,0.1,0,0.1,0c2.4,0.6,3.5,1.5,3.5,2.8
	C851.8,241.3,851.2,241.9,850.5,242C850.5,242,850.4,242,850.5,242L850.5,242z M858.5,248.3c0,3.7,0,6.3,0,7.1
	c0,0.8-0.5,1.1-1.5,1.1c-0.8,0-1-0.1-1-1s0-3.1,0-7.8c0-0.8,0-1.5-0.1-2.3c2.9,0.4,3.3,0.5,3.3,0.8s-0.3,0.5-0.9,0.7L858.5,248.3z
	 M861.3,246.8c0-0.8,0-1.5-0.1-2.3c3.1,0.4,3.4,0.4,3.4,0.9c0,0.3-0.3,0.4-0.9,0.7v6.9c0,1.4,0.1,4.5,0.1,5.9c0,0.5-0.1,1-0.4,1.4
	c-0.5,0.7-1.3,1.1-2.2,1c-0.6,0-0.6,0-0.8-0.6c-0.2-0.8-0.7-1.2-2.8-1.8c-0.1,0-0.1-0.3,0-0.3c1.1,0.1,2.4,0.1,3,0.1s0.7,0,0.7-0.4
	L861.3,246.8z"/>
<path class="st1" d="M875,248.1c-0.7,0.9-1.5,1.8-2.3,2.7c-0.1,0.1-0.3-0.1-0.3-0.3c1.6-2.8,2.9-5.9,3.7-9c0.3-1.3,0.6-2.6,0.7-3.9
	c3,0.8,3.3,0.9,3.3,1.3s-0.1,0.4-1,0.6c-0.7,2.2-1.6,4.3-2.7,6.2c1.3,0.2,1.5,0.3,1.5,0.6s-0.2,0.4-0.7,0.6v13.4
	c0,0.8-0.5,1.1-1.4,1.1s-1.1-0.3-1.1-1s0.2-2.7,0.2-6.8L875,248.1z M884.8,256.4c1.4-0.2,2.8-0.5,4.2-0.9c0.1,0,0.2,0.3,0.1,0.3
	c-2.8,1.5-5.7,2.6-8.8,3.4c-0.1,0.7-0.2,1-0.5,1s-0.5-0.4-1.3-3.1c0.5,0,1.1,0,1.6-0.1c0.7,0,1.6-0.2,2.5-0.3v-4.6h-2.1
	c-0.5,0-0.9,0.1-1.4,0.1l-0.3-1c0.6,0.1,1.1,0.2,1.7,0.2h2.1v-0.9c0-1.1,0-2.1-0.1-3c2.8,0.3,3.1,0.5,3.1,0.8s-0.3,0.5-0.8,0.6v2.5
	h1.1c0.8-1.1,1.1-1.3,1.3-1.3s0.5,0.2,1.3,0.9c0.3,0.3,0.5,0.5,0.5,0.7s-0.1,0.3-0.3,0.3h-4L884.8,256.4z M884.6,240.6
	c-0.8,1.8-1.7,3.4-2.9,5c1.7,0,3.3-0.1,5-0.2c-0.2-1-0.6-1.9-1.2-2.8c-0.1-0.1,0.1-0.3,0.2-0.2c2.3,1.3,3.5,2.6,3.5,3.9
	c0.1,0.8-0.5,1.4-1.3,1.5c-0.6,0-0.9-0.3-1.1-1.5v-0.1c-2.1,0.8-4.3,1.4-6.5,1.7c-0.2,0.5-0.3,0.7-0.6,0.7s-0.5-0.4-1.1-2.9
	c0.6,0,1,0,1.3,0h1.1c0.4-1.6,0.7-3.3,0.9-5h-0.7c-0.5,0-1,0.1-1.4,0.2l-0.3-1c0.6,0.1,1.1,0.2,1.7,0.2h4.7c0.9-1.2,1.2-1.4,1.4-1.4
	s0.5,0.2,1.5,1c0.4,0.4,0.6,0.6,0.6,0.8s-0.1,0.3-0.3,0.3L884.6,240.6z M893.8,240.2c0-0.7,0-1.5-0.2-2.2c2.9,0.4,3.1,0.5,3.1,0.9
	s-0.1,0.4-0.7,0.7v9.2c0,4.7,0.1,8.1,0.1,9.7c0,1.2-0.2,1.6-0.8,2.1c-0.6,0.4-1.2,0.6-1.9,0.6c-0.6,0-0.8-0.1-0.9-0.6
	c-0.1-1-0.6-1.4-2.7-2c-0.1,0-0.1-0.4,0-0.4c1.1,0.1,2.6,0.2,3.5,0.2c0.3,0,0.4-0.1,0.4-0.4V240.2z M892,244c0,5.5,0.1,9.3,0.1,10.5
	c0,0.7-0.4,1.1-1.4,1.1c-0.7,0-1-0.3-1-0.9s0.1-3.1,0.1-7.8c0-3.7,0-5.8-0.1-6.4c2.8,0.3,2.9,0.4,2.9,0.8c0,0.2-0.2,0.4-0.7,0.7
	L892,244z"/>
<path class="st1" d="M910.1,243.4c-0.3,1.5-0.4,3-0.4,4.6c-0.2,2.7-0.3,5.1-0.3,6.7c0,1.3,0.2,2.1,0.6,2.5c0.7,0.5,1.6,0.7,2.5,0.6
	c2-0.1,3.9-0.6,5.7-1.6c1.7-0.9,3.3-2.1,4.5-3.5c0.2-0.2,0.3-0.3,0.5-0.3c0.1,0,0.3,0.1,0.3,0.2c0,0,0,0,0,0
	c-0.1,0.3-0.2,0.5-0.3,0.7c-1.2,1.9-2.7,3.4-4.5,4.6c-2,1.4-4.5,2.2-6.9,2.1c-2.7,0-4.4-1.9-4.3-5.1c0.1-4.4,0.3-8.6,0.4-12.6
	c0-1-0.2-1.4-1-1.7s-0.8-0.3-0.8-0.4s0.2-0.3,0.4-0.5c0.4-0.2,0.8-0.2,1.2-0.2c0.9,0.1,1.8,0.5,2.5,1.2c0.4,0.3,0.7,0.8,0.8,1.3
	c0,0.3-0.1,0.6-0.4,0.9C910.3,243.1,910.2,243.1,910.1,243.4z"/>
<path class="st1" d="M943.2,243.9c-2.6,0.6-5.1,1.4-7.6,2.4c-0.4,0.2-0.7,0.4-1,0.6c-0.2,0.2-0.5,0.3-0.8,0.3c-0.5,0-1.1-0.3-2-1.3
	c-0.5-0.5-0.9-1.1-1-1.9c0-0.4,0.1-0.8,0.3-0.8s0.2,0,0.4,0.3c0.9,0.9,1.1,1,1.9,1c1.5-0.2,2.9-0.5,4.3-0.9c3.3-0.8,5.9-1.5,7.9-2.1
	c0.5-0.1,1-0.3,1.4-0.5c0.3-0.2,0.7-0.2,1-0.2c0.8,0,1.6,0.1,2.4,0.4c0.4,0.2,0.8,0.5,0.8,1s-0.2,0.9-1,0.9c-0.5,0-1.1,0-2.6,0.1
	c-2.3,0.1-4.4,1.1-6,2.8c-1.2,1.4-1.9,3.2-1.9,5c0,1.6,0.7,3.1,2,4c1.2,0.8,2.7,1.3,4.2,1.4c0.7,0,1.4,0.1,2,0.4
	c0.6,0.2,1,0.7,1,1.3c0,0.7-0.5,1.2-1.7,1.2c-1.8,0-3.5-0.5-5-1.2c-2.3-1.1-3.8-3.4-3.8-6c0-1.5,0.3-3,1-4.4
	c0.9-1.5,2.1-2.8,3.6-3.8L943.2,243.9z M950.3,247.5c0.6,0.3,0.9,0.9,1,1.6c0,0.5-0.3,0.9-0.8,0.9c0,0,0,0,0,0
	c-0.4,0-0.7-0.2-0.9-0.6c-0.4-0.8-1-1.6-1.6-2.3c-0.1-0.1-0.3-0.2-0.3-0.3s0.1-0.1,0.1-0.2c0.1,0,0.3,0,0.4,0
	C949,246.7,949.7,247,950.3,247.5z M952.7,245.8c0.5,0.3,0.9,0.8,0.9,1.3c0.1,0.5-0.3,0.9-0.7,1c0,0-0.1,0-0.1,0
	c-0.4,0-0.8-0.2-1-0.6c-0.5-0.8-1.1-1.5-1.8-2c-0.1-0.1-0.3-0.2-0.3-0.3c0-0.1,0-0.1,0.1-0.2c0.1,0,0.3,0,0.4,0
	C951.1,245.1,952,245.3,952.7,245.8z"/>
<path class="st1" d="M966.3,255.8c0.5,1,1.4,1.8,2.5,2.2c1.9,0.5,3.9,0.7,5.9,0.6c3.3,0,6.7-0.2,10-0.6c0.1,0,0.1,0.2,0,0.3
	c-0.6,0.2-1,0.8-1,1.5c-0.1,0.8-0.1,0.9-0.6,0.9c-1.4,0.2-4.5,0.2-6.3,0.2c-4.4,0-7-0.4-8.7-1.5c-1.2-0.9-2.1-2.2-2.4-3.7
	c-0.8,1.4-1.8,2.8-3,3.9c0.1,1-0.1,1.2-0.5,1.2s-1-0.9-1.9-3.2c0.6-0.2,1.2-0.4,1.8-0.6c0.7-0.3,1.3-0.6,1.9-1V249H962
	c-0.5,0-1,0.1-1.4,0.2l-0.3-1c0.6,0.2,1.1,0.2,1.7,0.2h1.6c0.9-1,1.1-1.2,1.3-1.2s0.5,0.1,1.4,0.9c0.4,0.4,0.6,0.5,0.6,0.8
	s-0.1,0.3-0.8,0.8L966.3,255.8z M964.9,243.2c-0.6,0-0.9-0.3-1.3-1.6c-0.3-1.1-0.9-2.1-1.7-3c-0.1-0.1,0.1-0.3,0.2-0.2
	c3,0.8,4.2,2,4.2,3.3c0.1,0.8-0.5,1.5-1.3,1.5C965,243.2,964.9,243.2,964.9,243.2z M976.2,243.8h4.5c1-1.2,1.3-1.4,1.5-1.4
	s0.5,0.2,1.5,1c0.4,0.3,0.6,0.6,0.6,0.8s-0.1,0.3-0.3,0.3h-6c1.8,0.6,2.3,0.9,2.3,1.2s-0.2,0.3-1,0.4c-0.9,0.8-1.3,1.2-2,1.7h2.8
	c1-1.1,1.3-1.4,1.5-1.4s0.5,0.2,1.4,1c0.4,0.3,0.6,0.5,0.6,0.7s-0.1,0.3-0.3,0.3h-7v2.6h3c0.8-1,1.1-1.2,1.3-1.2s0.5,0.2,1.3,0.9
	c0.3,0.3,0.5,0.5,0.5,0.7s-0.1,0.3-0.3,0.3h-5.8c0,0.9,0,1.7,0,2.6h4.2c1-1.2,1.3-1.4,1.5-1.4s0.5,0.2,1.5,1
	c0.4,0.3,0.6,0.6,0.6,0.8s-0.1,0.3-0.3,0.3h-7.5c0,1,0,1.9,0,2.3c0,0.8-0.4,1.1-1.5,1.1c-0.7,0-1.1-0.2-1.1-0.7s0.1-1.1,0.1-2.7
	h-4.8c-0.5,0-1,0.1-1.5,0.1l-0.3-1c0.6,0.1,1.2,0.2,1.7,0.2h4.8v-2.6h-3.4c-0.5,0-0.9,0.1-1.4,0.1l-0.3-1c0.5,0.1,1.1,0.2,1.6,0.2
	h3.5v-2.6h-4.6c-0.5,0-1,0.1-1.4,0.1l-0.3-1c0.5,0.1,1.1,0.2,1.7,0.2h2.8c-0.2-0.1-0.3-0.4-0.4-1c-0.1-0.7-0.3-1.4-0.8-2.1
	c-0.1-0.1,0-0.2,0.1-0.2c1.8,0.4,2.7,1.2,2.7,2.1c0,0.5-0.3,0.9-0.7,1.1h3.6c0.3-0.6,0.5-1.2,0.7-1.8c0.1-0.5,0.3-1,0.4-1.4H969
	c-0.5,0-1,0.1-1.5,0.1l-0.3-1c0.6,0.1,1.2,0.2,1.8,0.2h4.9V241h-3.7c-0.5,0-1,0.1-1.5,0.2l-0.3-1c0.6,0.1,1.1,0.2,1.7,0.2h3.7v-0.9
	c0-0.7,0-1.4-0.1-2.1c2.8,0.3,3.1,0.5,3.1,0.8s-0.2,0.4-0.7,0.6v1.6h3.1c0.9-1.1,1.2-1.3,1.4-1.3s0.5,0.2,1.4,0.9
	c0.4,0.3,0.6,0.6,0.6,0.7s-0.1,0.3-0.3,0.3h-6.2L976.2,243.8z"/>
<path class="st1" d="M1004.4,243c0-0.4,0-0.8,0-1.2c0-1.3-0.1-2.5-0.3-3.8c3.2,0.4,3.3,0.4,3.3,0.8c0,0.2-0.2,0.4-0.8,0.6
	c0,1.3,0,2.4,0.1,3.5h4.3c1.4-1.6,1.6-1.7,1.8-1.7s0.5,0.1,1.5,1.2c0.5,0.5,0.6,0.7,0.6,0.9s-0.1,0.3-0.4,0.3h-7.8
	c0.1,2.8,0.6,5.6,1.4,8.2c0.3-0.5,0.5-1,0.8-1.6c0.6-1.4,1-2.8,1.2-4.3c2.2,0.6,3,1,3,1.4c0,0.3-0.2,0.4-0.9,0.6
	c-0.7,2.2-1.7,4.2-3,6.1c0.6,1,1.3,1.9,2.2,2.7c0.7,0.6,1.1,0.9,1.3,0.9s0.7-0.6,1.7-2.8c0-0.1,0.3-0.1,0.3,0.1
	c-0.2,2.5-0.2,2.9-0.2,3.2c0,0.4,0.1,0.7,0.4,1c0.2,0.3,0.3,0.6,0.3,0.9c0.1,0.5-0.3,1.1-0.8,1.1c-0.1,0-0.2,0-0.3,0
	c-1.2-0.2-2.3-0.7-3.1-1.5c-1.3-1.1-2.4-2.3-3.2-3.7c-2.2,2.3-4.9,3.9-7.9,4.9c-0.1,0-0.3-0.2-0.2-0.3c2.8-1.7,5.2-3.9,7.1-6.4
	c-1.3-2.8-1.9-5.7-2.2-10.7h-8c0,1.7,0,2.9-0.1,4.4h3.8c0.9-1.1,1.1-1.2,1.3-1.2s0.5,0.2,1.5,1c0.4,0.4,0.6,0.6,0.6,0.8
	s-0.1,0.3-0.9,0.8c-0.3,4.1-0.4,5.2-0.8,6.6c-0.2,0.6-0.6,1.1-1.1,1.4c-0.6,0.3-1.3,0.5-1.9,0.4c-0.3,0-0.4-0.1-0.5-0.7
	c-0.3-1-0.5-1.1-2.1-1.8c-0.1,0,0-0.3,0.1-0.3c0.7,0.2,1.5,0.3,2.2,0.3c1,0,1.2-0.2,1.5-1.6c0.3-1.7,0.4-3.4,0.5-5.2h-4
	c0,2.4-0.3,4.7-0.9,7c-0.7,2.2-1.9,4.1-3.6,5.6c-0.1,0.1-0.3-0.1-0.3-0.2c1-1.9,1.6-3.9,1.9-6c0.4-2.7,0.6-5.5,0.5-8.2
	c0-2-0.1-3.5-0.2-5.3c1.4,0.7,1.6,0.8,3,1.5L1004.4,243z M1010.6,242.2c-0.3,0-0.4-0.1-0.7-0.5c-0.5-1.1-1.2-2-2.2-2.6
	c-0.1-0.1-0.1-0.3,0-0.3c2.7,0.2,3.9,1,3.9,2.2C1011.8,241.6,1011.3,242.1,1010.6,242.2C1010.7,242.2,1010.7,242.2,1010.6,242.2
	L1010.6,242.2z"/>
<path class="st2" d="M840,121.2l63.6-0.2l-15.4,35.6c-1,2.3-2.2,5.1-3.3,8.4s-2.4,6.8-3.7,10.6s-2.5,7.5-3.7,11.2s-2.3,7.1-3.3,10.3
	s-1.8,5.8-2.3,8h-20.4c1.4-2.4,3.2-5.3,5.2-8.7s4.1-7,6.2-10.9c2.1-3.9,4.3-7.7,6.4-11.4c2.1-3.8,4-7.3,5.7-10.6
	c1.7-3.2,3-5.9,4.1-8.1l6.2-13.3h-38.4c-2-0.1-4,0.5-5.6,1.8c-1.6,1.5-2.7,3.4-3.4,5.4h-1.2L840,121.2z"/>
<path class="st1" d="M826.8,58.1c-0.6,0-1.4-0.1-2-0.1s-1.5,0-2.2,0.1l-0.7,1.9c-0.3,0.6-0.4,1.3-0.2,2c0.2,0.4,0.8,0.5,1.4,0.6
	c0.1,0,0.2,0,0.2,0.2s0,0.2-0.2,0.2c-0.7,0-1.6,0-2.2,0s-1.3,0-1.9,0c-0.2,0-0.2,0-0.2-0.2s0-0.2,0.2-0.2c0.4-0.1,0.8-0.3,1.1-0.6
	c0.5-0.6,0.9-1.3,1.1-2.1l2.2-5.8c0.8-2.3,1-2.8,1.3-3.8l1.4-0.7c0.1,0,0.2,0,0.2,0.2c0.4,1.1,0.7,2,1.5,4.4l2,5.9
	c0.2,0.7,0.5,1.4,0.9,2.1c0.3,0.4,0.5,0.4,1.2,0.5c0.2,0,0.2,0,0.2,0.2s0,0.2-0.2,0.2c-0.8,0-1.8,0-2.5,0s-1.8,0-2.5,0
	c-0.1,0-0.2,0-0.2-0.2s0-0.2,0.2-0.2c0.7,0,1.1-0.1,1.2-0.5c0.1-0.7,0-1.3-0.3-1.9L826.8,58.1z M825.5,54.2
	c-0.4-1.2-0.6-1.7-0.8-2.4c-0.2,0.7-0.4,1.2-0.8,2.3l-1.2,3.2c0.6,0,1.3,0,2,0s1.3,0,1.8,0L825.5,54.2z"/>
<path class="st1" d="M842.4,52.3c0-0.5,0-1-0.1-1.5c-0.1-0.3-0.3-0.4-0.7-0.4h-0.4c-0.2,0-0.3,0-0.3-0.2s0-0.2,0.2-0.3
	c1-0.2,2-0.5,3-0.8c0.1,0,0.2,0.1,0.2,0.2c-0.1,1.2-0.1,2.6-0.1,4.4v6.8c-0.1,0.6,0,1.3,0.1,1.9c0.1,0.3,0.3,0.3,0.5,0.3h0.4
	c0.1,0,0.2,0,0.2,0.2s0,0.2-0.2,0.2c-0.9,0.1-1.9,0.2-2.8,0.3c-0.1,0-0.2-0.1-0.2-0.2c0-0.4,0-0.8,0-1.2c-0.5,0.9-1.4,1.5-2.4,1.5
	c-2.5,0-3.9-1.8-3.9-4.3s1.6-4.5,4.1-4.5c0.8,0,1.6,0.3,2.1,0.9V52.3z M842.4,57.8c0.1-0.6-0.1-1.1-0.3-1.6c-0.3-0.6-0.9-1-1.5-1
	c-1.4,0-2.2,1.5-2.2,3.8s0.9,3.5,2.2,3.5c0.6,0,1.2-0.4,1.5-1c0.3-0.4,0.4-0.9,0.4-1.5L842.4,57.8z"/>
<path class="st1" d="M853.8,59.9c0.2,0.6,0.3,0.9,0.5,1.5c0.2-0.6,0.4-0.9,0.6-1.6l0.8-2.4c0.3-0.9,0.4-1.5,0.2-1.8
	s-0.5-0.3-0.9-0.4c-0.1,0-0.1,0-0.1-0.2s0-0.2,0.1-0.2c0.5,0,1.2,0,1.7,0s1,0,1.5,0c0.1,0,0.2,0,0.2,0.2s0,0.2-0.2,0.2
	c-0.3,0-0.7,0.2-0.9,0.4c-0.4,0.5-0.7,1.1-0.9,1.7l-1.2,3.4c-0.3,0.9-0.5,1.3-0.8,2.1c-0.3,0.2-0.7,0.3-1.1,0.4
	c-0.1,0-0.1,0-0.2-0.1c-0.2-0.8-0.5-1.4-0.8-2.4l-1.3-3.4c-0.2-0.6-0.5-1.3-0.8-1.8c-0.2-0.2-0.4-0.2-1-0.3c-0.1,0-0.1,0-0.1-0.2
	s0-0.2,0.1-0.2c0.7,0,1.5,0,2.1,0s1.5,0,2.2,0c0.1,0,0.1,0,0.1,0.2s0,0.2-0.1,0.2c-0.5,0-0.9,0-1,0.3s0.1,0.8,0.5,1.8L853.8,59.9z"
	/>
<path class="st1" d="M869,61c0,1.2,0.2,1.6,0.7,1.6c0.2,0,0.4,0,0.5-0.1c0.1,0,0.2,0,0.2,0.1s0.1,0.2,0,0.3c-0.5,0.3-1,0.4-1.5,0.4
	c-0.7,0-1.3-0.4-1.5-1c-0.6,0.7-1.6,1.1-2.5,1.1c-1.8,0-2.3-1.1-2.3-1.9c0-0.6,0.2-1.2,0.6-1.6c0.7-0.5,1.5-0.8,2.3-1
	c0.5-0.1,1-0.3,1.4-0.7c0.2-0.2,0.4-0.4,0.4-0.7V57c0-1.3-0.3-1.9-1.1-1.9c-0.3,0-0.7,0.1-0.9,0.4c-0.2,0.3-0.4,0.6-0.3,1
	c0,0.5-0.5,0.9-1.4,0.9c-0.5,0-0.7-0.2-0.7-0.6c0-0.8,1.4-2.2,3.6-2.2c2.7,0,2.7,1.3,2.7,2.7L869,61z M867.2,58.5
	c-0.2,0.3-0.4,0.4-1.4,0.8c-0.8,0.2-1.4,1-1.3,1.9c-0.1,0.7,0.4,1.4,1.1,1.5c0.9,0,1.6-0.7,1.6-1.5c0,0,0,0,0-0.1L867.2,58.5z"/>
<path class="st1" d="M874.7,55.9c-0.2,0-0.2,0-0.2-0.2s0-0.2,0.2-0.3c1-0.2,1.9-0.5,2.8-0.8c0.1,0,0.2,0.1,0.2,0.1
	c0,0.5,0,1.1,0,1.5c0.5-1,1.6-1.7,2.8-1.7c1.4-0.1,2.6,1,2.6,2.4c0,0.1,0,0.1,0,0.2c0,0.7,0,1.6,0,2v1.2c-0.1,0.6,0,1.3,0.1,1.9
	c0.1,0.3,0.4,0.3,0.9,0.3c0.1,0,0.1,0,0.1,0.2s0,0.2-0.1,0.2c-0.7,0-1.3,0-2,0s-1.4,0-2.1,0c-0.1,0-0.1,0-0.1-0.2s0-0.2,0.1-0.2
	c0.5,0,0.8-0.1,0.9-0.3c0.2-0.6,0.2-1.3,0.2-1.9v-2.5c0-0.5,0-1.1-0.2-1.5c-0.2-0.6-0.7-0.9-1.3-0.9c-0.7,0-1.3,0.4-1.6,1
	c-0.3,0.4-0.4,0.9-0.4,1.4v2.4c-0.1,0.6,0,1.3,0.1,1.9c0.1,0.3,0.4,0.3,1,0.3c0.1,0,0.2,0,0.2,0.2s0,0.2-0.2,0.2c-0.6,0-1.3,0-1.9,0
	s-1.4,0-2.1,0c-0.1,0-0.1,0-0.1-0.2s0-0.2,0.1-0.2c0.5-0.1,0.8-0.1,1-0.3c0.2-0.6,0.2-1.3,0.1-1.9v-2.6c0-0.5,0-1-0.1-1.5
	c0-0.3-0.3-0.4-0.5-0.4c0,0,0,0,0,0L874.7,55.9z"/>
<path class="st1" d="M895.2,55c0.4,0.1,0.7,0.4,0.7,0.8c0,0.7-0.2,1.2-0.8,1.2s-0.9-0.7-1.1-1.1s-0.5-0.8-1-0.8
	c-1.4,0-2.1,1.6-2.1,3.8s1.3,3.5,2.5,3.5c0.9,0,1.8-0.4,2.3-1.3c0.1-0.2,0.2-0.1,0.3,0s0.2,0.2,0.1,0.3c-0.6,1.2-1.9,1.9-3.2,1.8
	c-2.2,0.1-4.1-1.7-4.1-3.9c0-0.2,0-0.3,0-0.5c-0.1-2.3,1.7-4.3,4.1-4.4c0,0,0,0,0.1,0C893.8,54.5,894.5,54.7,895.2,55z"/>
<path class="st1" d="M902.8,58.9c0,2.4,1.5,3.6,2.6,3.6c1,0.1,2-0.4,2.5-1.3c0-0.1,0.1-0.1,0.2-0.1c0.1,0,0.1,0,0.2,0.1
	c0.1,0,0.2,0.1,0.2,0.2c0,0.1,0,0.1-0.1,0.2c-0.7,1.2-2,1.9-3.3,1.8c-2.3,0-4.1-1.7-4.2-4c0-0.1,0-0.2,0-0.3c-0.1-2.3,1.7-4.3,4-4.4
	c0,0,0.1,0,0.1,0c1.9,0,3.4,1.5,3.5,3.3c0,0.1,0,0.2-0.1,0.3c-0.1,0.1-0.2,0.1-0.3,0.1c-1.8-0.1-3.6-0.1-5.2,0
	C902.8,58.5,902.8,58.7,902.8,58.9z M906.3,57.6c0.2,0,0.2-0.1,0.2-0.3c-0.1-1-0.5-2.2-1.5-2.2s-1.7,1-2,2.5
	C904.1,57.7,905.2,57.7,906.3,57.6L906.3,57.6z"/>
<path class="st1" d="M917.7,61.3c1.5,0,1.9-0.1,2.2-0.4c0.4-0.4,0.8-0.9,1-1.4c0.1-0.1,0.1-0.1,0.3-0.1s0.2,0.1,0.2,0.2
	c-0.2,0.9-0.7,2.5-1,3.5c-1.2,0-2.2,0-3.5,0s-2.4,0-3.6,0c-0.2,0-0.2,0-0.2-0.3c0-0.2,0-0.4,0.1-0.5c0.9-1.6,2-3.2,3.2-4.6
	c1.5-2,2.4-2.9,2.4-4.6c0-1.5-0.5-2.6-1.5-2.6c-0.7,0-1.3,0.4-1.5,1c-0.1,0.4-0.2,0.9-0.2,1.3c0,0.5-0.7,0.8-1.3,0.8
	c-0.5,0-0.9-0.1-0.9-0.7c0-1.2,1.5-3.1,3.9-3.1s3.8,1.5,3.8,3.2c0,2.3-1.7,3.2-3.5,4.9c-1.2,0.9-2.2,2-3,3.3H917.7z"/>
<path class="st1" d="M934.2,56.6c0,4.2-1.5,6.8-4,6.8s-4-2.5-4-6.7s1.5-6.8,4-6.8S934.2,52.5,934.2,56.6z M928.3,56.7
	c0,3.7,0.4,6.1,1.9,6.1s1.9-2.4,1.9-6.1s-0.4-6.2-1.9-6.2S928.3,52.9,928.3,56.7z"/>
<path class="st1" d="M943.7,61.3c1.5,0,1.9-0.1,2.2-0.4c0.4-0.4,0.8-0.9,1-1.4c0.1-0.1,0.1-0.1,0.3-0.1s0.2,0.1,0.2,0.2
	c-0.2,0.9-0.7,2.5-1,3.5c-1.2,0-2.2,0-3.5,0s-2.4,0-3.6,0c-0.2,0-0.2,0-0.2-0.3c0-0.2,0-0.4,0.1-0.5c0.9-1.6,2-3.2,3.2-4.6
	c1.5-2,2.4-2.9,2.4-4.6c0-1.5-0.5-2.6-1.5-2.6c-0.7,0-1.3,0.4-1.5,1c-0.1,0.4-0.2,0.9-0.2,1.3c0,0.5-0.7,0.8-1.3,0.8
	c-0.5,0-0.9-0.1-0.9-0.7c0-1.2,1.5-3.1,3.9-3.1s3.7,1.4,3.7,3.2c0,2.3-1.7,3.2-3.5,4.9c-1.2,0.9-2.2,2-3,3.3L943.7,61.3z"/>
<path class="st1" d="M955,52c-1,0-1.3,0.1-1.5,0.4c-0.3,0.4-0.5,0.8-0.6,1.2c-0.1,0.1-0.1,0.2-0.3,0.1s-0.2-0.1-0.2-0.2
	c0.1-0.9,0.4-2.4,0.5-3.3c1.2,0,2.4,0,3.6,0s2.4,0,3.5,0c0.1,0,0.2,0,0.2,0.4s0,0.3-0.1,0.5c-1.4,2.4-2.5,5.1-3.1,7.8
	c-0.2,0.8-0.3,1.6-0.3,2.4c0,0.5,0,0.8,0,1.2s-0.7,1-1.4,1s-1.1-0.2-1.1-0.8c0.1-1.6,0.5-3.2,1.3-4.6c1-2.1,2.2-4.1,3.5-6L955,52z"
	/>
<path class="st1" d="M971.9,58c-0.1,4.1-1.8,6-6.6,6.9c-0.1,0-0.2-0.2-0.1-0.3c3.7-1.4,4.9-3,4.9-6.9c0-0.2,0-0.4,0-0.8
	c1.9,0.2,2.4,0.3,2.4,0.6C972.5,57.8,972.4,57.9,971.9,58z M978.8,55.8c0.7-0.8,0.8-0.9,1-0.9s0.3,0.1,1.2,0.9
	c0.4,0.4,0.5,0.5,0.5,0.7c0,0.3-0.1,0.4-0.8,0.4c-0.2,0-0.4,0-0.5,0.2c-0.5,0.4-1.1,0.8-1.7,1.1c-0.1,0-0.2,0-0.2-0.1
	c0.3-0.6,0.6-1.2,0.8-1.9h-11.3c0,1.4-0.6,2.4-1.7,2.4c-0.4,0-0.8-0.3-0.8-0.7c0,0,0,0,0-0.1c0-0.4,0.2-0.7,0.7-1
	c0.9-0.4,1.4-1.2,1.4-2.2c0-0.1,0.2-0.1,0.2,0c0.1,0.4,0.2,0.7,0.2,1.1L978.8,55.8z M974,53.5h3.2c0.8-1,1.1-1.1,1.2-1.1
	s0.4,0.1,1.2,0.8c0.3,0.3,0.5,0.5,0.5,0.6s-0.1,0.2-0.2,0.2h-11.2c-0.4,0-0.8,0-1.2,0.1l-0.2-0.7c0.5,0.1,0.9,0.1,1.4,0.1h3.8v-2.1
	h-5.4c-0.4,0-0.9,0-1.3,0.1l-0.2-0.7c0.5,0.1,0.9,0.1,1.4,0.1h5.4v-0.8c0-0.6,0-1.2-0.1-1.8c2.2,0.2,2.5,0.4,2.5,0.6
	s-0.2,0.3-0.6,0.5V51h4.5c0.9-1,1.1-1.2,1.2-1.2s0.4,0.2,1.2,0.8c0.4,0.3,0.5,0.5,0.5,0.6s-0.1,0.2-0.2,0.2H974V53.5z M975.8,62.3
	c0,0.5,0.2,0.7,1.7,0.7c0.6,0,1.2,0,1.8-0.2c0.5-0.2,0.8-0.8,1.4-2.6c0-0.1,0.2-0.1,0.2,0c0,0.7-0.1,1.4-0.1,1.9
	c0,0.2,0,0.3,0.2,0.3c0.5,0.2,0.6,0.5,0.6,0.8s-0.2,0.8-0.8,1c-1.1,0.2-2.3,0.3-3.4,0.3c-2.6,0-3.2-0.2-3.2-1.6v-3c0-1,0-2-0.1-3
	c2.3,0.3,2.3,0.3,2.3,0.6s-0.1,0.3-0.5,0.5L975.8,62.3z"/>
<path class="st1" d="M995.3,63.4h4.4c1-1.3,1.3-1.5,1.4-1.5s0.4,0.2,1.4,1c0.5,0.4,0.6,0.6,0.6,0.7s-0.1,0.2-0.2,0.2H989
	c-0.6,0-1.2,0-1.7,0.1l-0.2-0.7c0.6,0.1,1.3,0.1,1.9,0.1h4.5v-12c0-0.8,0-1.7-0.1-2.5c2.4,0.2,2.6,0.4,2.6,0.6s-0.2,0.4-0.6,0.5v5.4
	h2.9c1-1.3,1.2-1.4,1.3-1.4s0.4,0.2,1.4,1c0.5,0.4,0.6,0.5,0.6,0.7s-0.1,0.2-0.2,0.2h-6L995.3,63.4z"/>
<path class="st1" d="M1012.6,63.2V64c0,0.5-0.4,0.7-1.1,0.7c-0.5,0-0.8-0.2-0.8-0.6c0-1.8,0.1-3.6,0.1-10.9c0-1.5,0-3-0.1-4.5
	c0.8,0.3,1.5,0.7,2.1,1.2h7.3c0.7-0.8,0.8-0.9,1-0.9s0.3,0.1,1.1,0.7c0.3,0.3,0.5,0.4,0.5,0.5s-0.1,0.4-0.5,0.6V53
	c0,5.7,0.1,9.6,0.1,10.9c0,0.5-0.4,0.8-1.1,0.8s-0.8-0.2-0.8-0.6v-0.8L1012.6,63.2z M1020.4,50.2h-7.8V54h7.8V50.2z M1020.4,54.4
	h-7.8v3.8h7.8V54.4z M1020.4,58.6h-7.8v4.2h7.8V58.6z"/>
<path class="st1" d="M1033.2,54.7c1.2,0.4,1.9,1.1,1.9,1.9c0,0.5-0.3,0.9-0.8,0.9c-0.3,0-0.4-0.2-0.5-0.7c-0.1-0.7-0.3-1.3-0.6-1.8
	c0,3.2,0.1,7.8,0.1,9.3c0,0.4-0.4,0.6-0.9,0.6s-0.7-0.2-0.7-0.5c0-0.9,0.1-4.8,0.1-8.1c-0.5,1.5-1.4,2.9-2.5,4.1
	c0,0.1-0.2,0-0.2-0.1c1.2-2.4,1.9-4.9,2.4-7.5h-0.7c-0.4,0-0.8,0-1.1,0.1l-0.2-0.7c0.4,0.1,0.9,0.1,1.3,0.2h0.9v-1.9
	c0-0.9,0-1.6-0.1-2.3c1.9,0.2,2.2,0.3,2.2,0.6s-0.2,0.3-0.6,0.5v3l0,0c0.4-0.8,0.6-1,0.7-1s0.3,0.2,0.8,0.7c0.2,0.1,0.3,0.3,0.3,0.5
	c0,0.1,0,0.2-0.2,0.2h-1.6L1033.2,54.7z M1037.6,61.5c-1,1.1-2.3,2-3.7,2.5c-0.1,0-0.2-0.1-0.1-0.2c0.8-0.7,1.5-1.6,2.1-2.6
	c0.2-0.4,0.4-0.8,0.6-1.2c1.6,0.8,1.9,1,1.9,1.2S1038.1,61.5,1037.6,61.5z M1040.9,60.7c0,0.4,0,1.9,0,2.7c0,0.4-0.1,0.7-0.4,1
	c-0.4,0.4-1,0.5-1.6,0.5c-0.2,0-0.2-0.1-0.3-0.4c-0.1-0.6-0.4-1-1.8-1.3c-0.1,0-0.1-0.2,0-0.2c0.7,0,1.5,0.1,2.1,0.1
	c0.2,0,0.3,0,0.3-0.3v-3.4h-3.6c-0.4,0-0.7,0-1.1,0.1l-0.2-0.7c0.4,0.1,0.9,0.1,1.3,0.1h7.5c0.8-1,1-1.1,1.2-1.1s0.4,0.2,1.2,0.8
	c0.3,0.3,0.5,0.5,0.5,0.6s-0.1,0.2-0.2,0.2h-4.8L1040.9,60.7z M1036.9,55.4c0,0.4-0.2,0.6-0.9,0.6c-0.4,0-0.6-0.1-0.6-0.5
	s0-0.8,0-2.1c0-0.8,0-1.6-0.1-2.4c0.6,0.2,1.1,0.5,1.7,0.8h1.2v-1.9h-1.8c-0.5,0-1,0-1.4,0.1l-0.2-0.7c0.5,0.1,1.1,0.1,1.7,0.1h7.1
	c0.8-1,1-1.2,1.2-1.2s0.4,0.2,1.2,0.8c0.4,0.3,0.5,0.5,0.5,0.6s0,0.2-0.2,0.2h-3.7v1.9h1.3c0.5-0.6,0.7-0.7,0.8-0.7s0.3,0.1,0.9,0.6
	c0.3,0.2,0.4,0.4,0.4,0.5s-0.2,0.3-0.5,0.5v0.4c0,1.2,0.1,1.9,0.1,2.1s-0.3,0.6-0.9,0.6c-0.4,0-0.7-0.2-0.7-0.5v-0.1h-6.9
	L1036.9,55.4z M1041.9,56.9c0.7-0.9,0.9-1,1.1-1s0.4,0.2,1.1,0.7c0.3,0.2,0.4,0.4,0.4,0.5s-0.1,0.2-0.2,0.2h-7.1c-0.3,0-0.7,0-1,0.1
	l-0.2-0.7c0.4,0.1,0.8,0.1,1.2,0.2L1041.9,56.9z M1038.1,52.2h-1.3v2.7h1.3V52.2z M1040.9,49.9h-1.3v1.9h1.3V49.9z M1040.9,54.9
	v-2.6h-1.3v2.7L1040.9,54.9z M1044.7,63.9c-0.4,0-0.7-0.2-0.9-0.8c-0.4-1.1-1.1-2.1-2-2.8c-0.1,0,0.1-0.2,0.1-0.1
	c2.3,0.7,3.7,1.6,3.7,2.8c0.1,0.5-0.3,1-0.8,1.1C1044.8,63.9,1044.8,63.9,1044.7,63.9L1044.7,63.9z M1043.7,52.2h-1.4v2.7h1.4V52.2z
	"/>
<path class="st1" d="M583.4,247c-0.7,1-1.4,1.9-2.3,2.7c-0.1,0.1-0.3-0.1-0.3-0.3c1.6-2.8,2.8-5.9,3.6-9c0.3-1.3,0.6-2.6,0.7-3.9
	c3.1,0.8,3.4,0.9,3.4,1.3s-0.1,0.4-1,0.6c-0.7,2.2-1.6,4.3-2.7,6.3c1.5,0.2,1.7,0.3,1.7,0.6s-0.2,0.4-0.7,0.6v13.5
	c0,0.8-0.4,1.1-1.4,1.1s-1.2-0.3-1.2-1s0.2-2.7,0.2-6.8L583.4,247z M589.8,256.4c0,1.7-0.7,3-2,3c-0.6,0-1.2-0.4-1.2-1.1
	c0,0,0-0.1,0-0.1c0-0.6,0.3-1,1-1.3c1-0.3,1.6-1.1,1.7-2.1c0-0.1,0.3-0.2,0.3,0C589.7,255.3,589.8,255.8,589.8,256.4L589.8,256.4z
	 M591.2,240.4c1.9,0.6,2.8,1.4,2.8,2.5c0,0.6-0.4,1-1,1.1h4.2c0.2-0.6,0.4-1.2,0.5-1.8c0.1-0.5,0.2-1.1,0.3-1.7
	c2.2,0.7,2.9,0.9,2.9,1.2s-0.2,0.3-0.8,0.5c-0.6,0.7-1.3,1.3-2,1.8h3.6c1.1-1.4,1.4-1.6,1.6-1.6s0.5,0.2,1.6,1.1
	c0.5,0.4,0.7,0.6,0.7,0.8s-0.1,0.3-0.3,0.3h-16.2c-0.6,0-1.3,0.1-1.9,0.1l-0.3-1c0.7,0.1,1.4,0.2,2.1,0.2h3.5
	c-0.4-0.1-0.7-0.4-0.7-0.8c-0.1-1-0.5-2-1.2-2.8h-0.2c-0.6,0-1.3,0.1-1.9,0.1l-0.3-1c0.7,0.1,1.4,0.2,2.1,0.2h4.2v-1.6
	c0-0.5,0-1-0.1-1.6c3,0.3,3.3,0.5,3.3,0.8s-0.3,0.4-0.8,0.7v1.7h3.8c1.1-1.3,1.4-1.5,1.6-1.5s0.5,0.2,1.6,1.1
	c0.5,0.4,0.7,0.6,0.7,0.8s-0.1,0.3-0.3,0.3L591.2,240.4z M591.2,252.6c-0.1,0.5-0.5,0.7-1.3,0.7s-1.1-0.3-1.1-0.9
	c0-0.4,0.1-0.9,0.1-2.6c0-1.5,0-3-0.2-4.6c0.9,0.3,1.9,0.7,2.7,1.2h8.1c0.8-1,1.1-1.1,1.3-1.1s0.5,0.2,1.4,0.8
	c0.4,0.3,0.6,0.5,0.6,0.7s-0.2,0.4-0.7,0.8v0.8c0,2.1,0,3.5,0,4c0,0.7-0.5,1-1.5,1c-0.7,0-0.9-0.2-0.9-0.8l0,0H591.2z M599.8,247.1
	h-8.6v2.2h8.6V247.1z M599.8,249.8h-8.6v2.2h8.6V249.8z M600,257.2c0,0.3,0.1,0.5,0.3,0.5c0.6,0.2,0.8,0.4,0.8,0.9s-0.4,0.9-1.2,1.2
	c-1.4,0.3-2.8,0.4-4.2,0.4c-3.3,0-4.4-0.4-4.4-1.8c0-0.5,0-1.1,0-3.4c0-0.4,0-0.8-0.1-1.1c2.7,0.3,2.9,0.3,2.9,0.7s-0.2,0.4-0.7,0.6
	v2.3c0,0.7,0.4,0.9,2.5,0.9c0.8,0.1,1.5,0,2.3-0.2c0.7-0.3,1-0.9,1.5-2.6c0-0.1,0.3-0.1,0.3,0L600,257.2z M596.7,256.9
	c-0.6,0-0.7-0.1-1.1-1.4c-0.2-0.7-0.6-1.3-1.1-1.9c-0.1-0.1,0-0.2,0.1-0.2c2.2,0.4,3.2,1.1,3.2,2.2
	C597.9,256.4,597.3,256.9,596.7,256.9C596.7,256.9,596.7,256.9,596.7,256.9L596.7,256.9z M603.8,259.1c-0.7,0-0.9-0.3-1.2-1.6
	c-0.2-1.1-0.7-2-1.4-2.8c-0.1-0.1,0-0.3,0.1-0.2c2.6,0.8,3.7,1.8,3.7,3.1C605.1,258.3,604.6,259,603.8,259.1
	C603.8,259.1,603.8,259.1,603.8,259.1L603.8,259.1z"/>
<path class="st1" d="M616.9,259.3c0,0.6-0.6,1-1.6,1c-0.8,0-1.1-0.2-1.1-0.9c0-2.3,0.2-4.7,0.2-14.1c0-2.7,0-5.4-0.2-8.1
	c1.3,0.6,1.6,0.8,2.9,1.4h14.7c1-1.1,1.2-1.2,1.4-1.2s0.5,0.2,1.5,1c0.4,0.4,0.6,0.6,0.6,0.8s-0.2,0.4-0.7,0.8v2.9
	c0,12.7,0.1,13.2,0.1,14.7c0,1.3-0.3,1.9-1.2,2.3c-0.5,0.2-1.1,0.4-1.7,0.4c-0.4,0-0.5-0.2-0.6-0.7c-0.1-0.9-0.7-1.5-3.1-2
	c-0.1,0-0.1-0.3,0-0.3c1.4,0,2.7,0.1,3.5,0.1c0.4,0,0.4-0.1,0.4-0.5v-8.5h-15.1L616.9,259.3z M623.1,247.6v-8.4h-6.1v8.4H623.1z
	 M632.1,239.2h-6.4v8.4h6.3L632.1,239.2z"/>
<path class="st1" d="M685.1,262.9c-0.1,0-0.3-0.2-0.2-0.3c7.1-5,9.8-10.6,9.8-20.1c0-0.7,0-1.5-0.1-2.2c3.4,0.3,3.8,0.4,3.8,0.9
	c0,0.3-0.1,0.4-0.9,0.7c0,0.8,0,1.6-0.1,2.4c0.3,3.2,1.3,6.2,3,8.9c2,3.1,5,5.5,8.5,6.8c0.1,0,0.1,0.3,0,0.3c-0.9,0.2-1.6,1-1.7,1.9
	c-0.2,0.4-0.3,0.5-0.5,0.5c-0.5-0.1-1-0.4-1.3-0.8c-2.8-2.2-5.1-5.1-6.5-8.4c-0.9-2.2-1.4-4.6-1.6-7
	C696.2,255,692.8,259.4,685.1,262.9z"/>
<path class="st2" d="M533.2,178.2c5.6-0.1,11.1,0.7,16.4,2.5c4.1,1.3,7.7,3.7,10.4,7c2.5,3.2,3.8,7.1,3.7,11.2c0.1,3-0.6,6-2,8.6
	c-1.2,2.3-3,4.3-5.2,5.8c-2.1,1.4-4.5,2.4-7,2.8c-2.4,0.4-4.9,0.3-7.2-0.3c2.7,0,5.3,0.4,7.8,1.1c2.9,0.8,5.7,2.1,8.2,3.8
	c2.7,1.9,4.9,4.4,6.4,7.3c1.8,3.6,2.7,7.6,2.5,11.6c0.1,5.2-1.2,10.3-3.9,14.8c-2.6,4.3-6.2,7.9-10.5,10.6
	c-4.5,2.8-9.6,4.8-14.8,5.9c-5.6,1.2-11.3,1.5-16.9,1c-5.7-0.5-11.4-2-16.6-4.4l0.2-1.2c4.7,0.1,9.4-0.5,14-1.8
	c4.2-1.2,8.2-3.1,11.7-5.7c3.3-2.4,6-5.5,8-9.1c2-3.7,3-7.8,2.9-11.9c0-4.9-1.1-8.8-3.4-11.7c-2.2-2.9-5.2-5.1-8.5-6.4
	c-3.3-1.3-6.7-2-10.2-2l0.2-1.2c7.2,0.2,14-3.7,17.5-10c1.8-3.2,2.5-6.9,2-10.5c-0.1-2.6-1-5.1-2.5-7.1c-1.4-1.8-3.2-3.1-5.3-3.8
	c-2.2-0.7-4.5-1-6.8-0.7c-4.8,0.4-8.2,2.5-10.2,6.3c-2,3.8-2.9,9.5-2.8,17H510l-6.7-20.9c3.7-2.9,7.9-5,12.4-6.2
	C521.4,178.9,527.3,178.1,533.2,178.2z"/>
<path class="st1" d="M484.7,57.2c-0.7,0.5-1.4,1-2.1,1.4c-0.1,0-0.2-0.1-0.1-0.2c1.2-1.2,2.2-2.5,3-3.9c0.4-0.7,0.7-1.4,0.9-2.1
	c1.8,0.9,1.9,0.9,1.9,1.2s-0.1,0.3-0.7,0.4c-0.4,0.7-1,1.4-1.6,2c0.6,0.1,0.8,0.2,0.8,0.4s-0.1,0.3-0.5,0.4v7.5
	c0,0.5-0.3,0.8-0.9,0.8c-0.4,0-0.8-0.1-0.8-0.6s0.1-1.9,0.1-4.8L484.7,57.2z M487.4,49.8c-1.2,1.6-2.7,2.9-4.5,3.8
	c-0.1,0-0.2-0.1-0.1-0.2c0.9-1,1.8-2,2.4-3.2c0.3-0.6,0.6-1.2,0.8-1.9c1.4,0.5,2.2,0.9,2.2,1.2S487.9,49.8,487.4,49.8z M494,62.7
	c0.7,0.1,1.5,0.2,2.2,0.2c1.1,0,2.2-0.1,3.2-0.2c0.1,0,0.1,0.2,0,0.2c-0.4,0.2-0.7,0.7-0.8,1.2c-0.1,0.4-0.1,0.5-0.3,0.5h-0.5
	c-2.6,0-4-0.3-5.4-1.1c-1.2-0.8-2.2-1.9-2.6-3.3c-0.6,1.7-1.8,3.2-3.2,4.3c-0.1,0-0.2-0.1-0.1-0.2c1.7-2.3,2.5-5.1,2.4-7.9
	c0-0.2,0-0.5,0-0.9c1.8,0.3,2.2,0.4,2.2,0.6s-0.1,0.3-0.5,0.4c-0.1,1-0.3,2-0.6,3c0.5,1.1,1.3,1.9,2.4,2.5v-8.7h-2.8
	c-0.4,0-0.7,0-1.1,0.1l-0.2-0.7c0.4,0.1,0.8,0.1,1.2,0.1h4c0.5-1,0.9-2.1,1.2-3.2c0.1-0.4,0.2-0.8,0.3-1.3c1.7,0.7,2.3,0.9,2.3,1.1
	s-0.2,0.3-0.7,0.3c-0.7,1.1-1.5,2.1-2.5,3h2.2c0.8-1,1-1.1,1.1-1.1s0.4,0.1,1.1,0.8c0.3,0.3,0.5,0.5,0.5,0.6s0,0.2-0.2,0.2H494v4
	h1.6c0.8-1,1-1.1,1.1-1.1s0.3,0.2,1.1,0.8c0.3,0.3,0.5,0.4,0.5,0.6s0,0.2-0.2,0.2H494V62.7z M491.3,52.4c-0.5,0-0.6-0.1-0.8-1.4
	c-0.2-0.7-0.5-1.5-0.9-2.1c0-0.1,0.1-0.2,0.1-0.2c1.7,0.7,2.6,1.5,2.6,2.4C492.4,51.8,491.9,52.4,491.3,52.4
	C491.3,52.4,491.3,52.4,491.3,52.4L491.3,52.4z"/>
<path class="st1" d="M513.4,59.6c0.9,0.7,1.9,1.3,2.9,1.8c1.5,0.6,3.1,0.9,4.7,1c0.1,0,0.1,0.2,0,0.2c-0.7,0.2-0.8,0.4-1.3,1.5
	c-0.1,0.2-0.2,0.2-0.3,0.2c-0.3-0.1-0.6-0.1-0.8-0.3c-1.1-0.4-2.2-1-3.2-1.7c-0.9-0.7-1.7-1.5-2.3-2.4c0,2.3,0.1,4,0.1,4.5
	c0,0.5-0.3,0.7-1.1,0.7c-0.5,0-0.7-0.2-0.7-0.6s0.1-2.2,0.1-3.8c-1.9,1.9-4.4,3.2-7.1,3.7c-0.1,0-0.2-0.1-0.1-0.2
	c2.4-1,4.4-2.6,6-4.6h-4.2c-0.4,0-0.8,0-1.3,0.1l-0.2-0.7c0.5,0.1,0.9,0.1,1.4,0.2h5.5v-1.6h-3.5c-0.4,0-0.9,0-1.3,0.1l-0.2-0.7
	c0.5,0.1,0.9,0.1,1.4,0.2h3.6v-1.6h-4.5c-0.4,0-0.9,0-1.3,0.1l-0.2-0.7c0.5,0.1,1,0.1,1.4,0.2h2.9c-0.2-0.1-0.4-0.3-0.5-0.8
	c-0.2-0.6-0.5-1.1-0.9-1.5c-0.1-0.1,0-0.2,0.1-0.2c1.6,0.3,2.5,0.8,2.5,1.6c0,0.4-0.2,0.8-0.6,0.9h2.9c0.3-0.5,0.5-1,0.8-1.5
	c0.2-0.4,0.3-0.8,0.4-1.1c1.5,0.6,2.1,0.8,2.1,1.1s-0.1,0.3-0.8,0.3c-0.5,0.5-1.1,0.9-1.8,1.3h3c0.8-0.9,1.1-1.1,1.2-1.1
	s0.4,0.1,1.2,0.8c0.3,0.3,0.5,0.4,0.5,0.6s0,0.2-0.2,0.2h-6.4v1.6h2.8c0.8-0.9,1-1,1.1-1s0.4,0.1,1,0.7c0.3,0.3,0.5,0.4,0.5,0.5
	s0,0.2-0.2,0.2h-5.2v1.7h4.5c0.9-1,1.1-1.2,1.3-1.2s0.3,0.1,1.2,0.8c0.4,0.3,0.5,0.5,0.5,0.6s0,0.2-0.2,0.2L513.4,59.6z M510,49.7
	c0-0.4,0-0.9-0.1-1.3c2,0.2,2.2,0.3,2.2,0.6s-0.1,0.3-0.6,0.5v2.6h1.5v-2.3c0-0.4,0-0.9-0.1-1.3c2,0.2,2.2,0.3,2.2,0.6
	s-0.1,0.3-0.6,0.5v2.6h0.7c0.4-0.6,0.7-1.3,1-2c0.2-0.4,0.3-0.8,0.4-1.2c1.6,0.7,2.1,1,2.1,1.2s-0.1,0.3-0.8,0.3
	c-0.6,0.6-1.3,1.2-2.1,1.7h2.1c0.8-0.9,1-1,1.2-1s0.4,0.1,1.1,0.7c0.3,0.3,0.5,0.4,0.5,0.5s-0.1,0.2-0.2,0.2h-14.5
	c-0.4,0-0.9,0-1.3,0.1l-0.2-0.7c0.5,0.1,1,0.1,1.5,0.1h4L510,49.7z M508.1,51.6c-0.4,0-0.6-0.2-0.8-0.7c-0.2-0.7-0.5-1.3-1-1.8
	c-0.1-0.1,0-0.2,0.1-0.2c1.7,0.3,2.6,0.9,2.6,1.7C509,51.2,508.6,51.6,508.1,51.6L508.1,51.6z"/>
<path class="st1" d="M532.4,63.2c-1.9,0.9-3.9,1.4-5.9,1.6c-0.1,0-0.1-0.2,0-0.2c1.3-0.5,2.5-1.1,3.6-1.8c0.5-0.3,0.9-0.7,1.2-1.1
	c1.6,0.8,2.1,1.1,2.1,1.3S533.1,63.2,532.4,63.2z M530.1,61.3c0,0.5-0.3,0.7-1,0.7s-0.8-0.2-0.8-0.6c0-0.7,0.1-1.7,0.1-4.6
	c0-1.1,0-2.5-0.1-3.6c0.7,0.3,1.4,0.6,2,1h8.1c0.6-0.7,0.8-0.8,0.9-0.8s0.3,0.1,1,0.6c0.3,0.2,0.4,0.4,0.4,0.5s-0.1,0.3-0.5,0.6v1.1
	c0,2.5,0.1,4.4,0.1,5s-0.3,0.7-1,0.7c-0.5,0-0.8-0.2-0.8-0.6v-0.1L530.1,61.3L530.1,61.3z M530.9,52.7c0,0.5-0.3,0.7-1,0.7
	c-0.4,0-0.7-0.1-0.7-0.5s0-1.1,0-2.2c0-0.8,0-1.1,0-1.9c0.7,0.3,1.3,0.6,1.9,0.9h6.5c0.7-0.7,0.8-0.8,0.9-0.8s0.3,0.1,1,0.7
	c0.3,0.3,0.4,0.4,0.4,0.5s-0.1,0.2-0.5,0.5v0.3c0,0.9,0,1.5,0,1.8c0,0.5-0.3,0.7-1,0.7s-0.8-0.2-0.8-0.6H530.9z M538.5,54.7h-8.5
	v1.8h8.5V54.7z M530.1,58.7h8.5v-1.9h-8.5V58.7z M530.1,60.9h8.5V59h-8.5V60.9z M537.7,50h-6.8v2.2h6.8V50z M540.5,64.9
	c-0.4,0-0.5-0.1-1-0.6c-1.1-1.1-2.4-1.8-3.8-2.2c-0.1,0,0-0.2,0.1-0.2c4,0.2,5.6,0.8,5.6,2c0.1,0.5-0.2,0.9-0.7,1
	C540.6,64.9,540.5,64.9,540.5,64.9L540.5,64.9z"/>
<path class="st1" d="M560.7,56.3c1-1.3,1.3-1.4,1.4-1.4s0.4,0.1,1.4,1c0.5,0.4,0.6,0.5,0.6,0.7s0,0.2-0.2,0.2h-14.1
	c-0.6,0-1.2,0-1.8,0.1l-0.2-0.7c0.6,0.1,1.3,0.1,1.9,0.2L560.7,56.3z"/>
<path class="st1" d="M569.4,64.6c-0.1,0-0.2-0.1-0.1-0.2c4.9-3.5,6.8-7.3,6.8-13.9c0-0.5,0-1-0.1-1.5c2.3,0.2,2.6,0.3,2.6,0.6
	s-0.1,0.3-0.6,0.5c0,0.6,0,1.1-0.1,1.7c0.2,2.2,0.9,4.3,2.1,6.2c1.4,2.2,3.5,3.8,5.9,4.7c0.1,0,0.1,0.2,0,0.2
	c-0.6,0.2-1.1,0.7-1.2,1.3c-0.1,0.3-0.2,0.4-0.3,0.4c-0.3-0.1-0.7-0.3-0.9-0.5c-2-1.5-3.5-3.5-4.5-5.8c-0.6-1.5-1-3.2-1.1-4.8
	C577.2,59.2,574.8,62.2,569.4,64.6z"/>
<path class="st1" d="M603.4,56c0.7-0.7,0.8-0.8,0.9-0.8s0.3,0.1,1,0.6c0.3,0.2,0.4,0.4,0.4,0.5s-0.1,0.2-0.5,0.5V58
	c0,3.2,0.1,5.4,0.1,6.1c0,0.5-0.3,0.7-1.1,0.7c-0.5,0-0.7-0.2-0.7-0.6v-0.5h-10.1c-0.4,0-0.8,0-1.2,0.1l-0.2-0.7
	c0.5,0.1,0.9,0.1,1.4,0.1h10.2v-3.5h-9.4c-0.4,0-0.8,0.1-1.2,0.1l-0.2-0.7c0.5,0.1,0.9,0.1,1.4,0.1h9.4v-3.1h-9.8
	c-0.4,0-0.9,0.1-1.3,0.2l-0.2-0.7c0.5,0.1,1,0.1,1.5,0.2h4.2v-5.7c0-0.6,0-1.1-0.1-1.7c2.2,0.2,2.4,0.4,2.4,0.6s-0.2,0.3-0.6,0.5V56
	H603.4z M595.1,54.7c-0.5,0-0.7-0.2-0.9-1.1c-0.2-1.2-0.7-2.4-1.5-3.4c0-0.1,0-0.2,0.1-0.2c2.2,0.9,3.3,2.2,3.3,3.4
	C596.1,54.2,595.8,54.7,595.1,54.7L595.1,54.7z M605,51.4c-1,1.5-2.2,2.8-3.6,3.9c-0.1,0-0.3-0.1-0.2-0.2c0.7-1.2,1.3-2.5,1.8-3.8
	c0.2-0.5,0.4-1.1,0.5-1.6c1.7,0.7,2.2,1,2.2,1.2S605.7,51.2,605,51.4L605,51.4z"/>
<path class="st1" d="M620.5,51.9c0.3,0,0.6,0,0.8,0.2c0.2,0.1,0.4,0.3,0.4,0.5c0,0.3-0.2,0.5-0.6,0.6c-1,0.4-2,0.7-3,0.9
	c-0.3,0.8-0.9,2.4-1.3,3.5s-1.1,2.8-2,5.2c-0.3,0.7-0.6,0.9-1,0.9c-0.2,0-0.4-0.1-0.5-0.3c-0.2-0.2-0.2-0.4-0.2-0.7
	c0.1-0.5,0.2-0.9,0.5-1.3c1.2-2.3,2.3-4.7,3.2-7.2c-0.7,0.1-1.3,0.2-2,0.2c-0.7,0.1-1.3-0.2-1.7-0.7c-0.3-0.3-0.4-0.6-0.5-0.9
	c0-0.1,0-0.2,0.1-0.2s0.2,0.1,0.3,0.2c0.4,0.3,0.9,0.5,1.5,0.5c0.9,0,1.9-0.2,2.8-0.4c0.3-0.8,0.5-1.6,0.6-2.4
	c0-0.3-0.1-0.5-0.4-0.6c-0.2-0.1-0.4-0.2-0.7-0.2c-0.1,0-0.2-0.1-0.2-0.1s0-0.2,0.2-0.3c0.3-0.1,0.6-0.2,0.8-0.2
	c0.7,0,1.3,0.3,1.8,0.7c0.2,0.1,0.3,0.3,0.3,0.5c0,0.2-0.1,0.4-0.2,0.5c-0.4,0.5-0.7,1.1-0.9,1.8c0.4-0.1,0.8-0.3,1.1-0.5
	C620,52,620.3,51.9,620.5,51.9z M620.2,59.4c-0.1,0.4-0.2,0.7-0.2,1.1c0,1,0.8,1.7,2.7,1.7c0.6,0,1.2,0,1.8-0.1
	c0.3-0.1,0.6-0.1,0.9-0.1c0.3,0,0.6,0.1,0.9,0.2c0.3,0.1,0.5,0.4,0.5,0.8c0,0.5-0.4,0.7-1,0.8c-0.7,0.1-1.3,0.1-2,0.1
	c-0.8,0-1.6-0.1-2.4-0.3c-1.2-0.2-2.1-1.3-2.2-2.6c0-0.6,0.2-1.2,0.5-1.7c0.1-0.2,0.2-0.3,0.3-0.3s0.1,0.1,0.1,0.2
	C620.3,59.2,620.2,59.3,620.2,59.4L620.2,59.4z M622.1,55.6c-0.7,0.1-1.4,0.3-2,0.7c-0.1,0-0.1,0.1-0.2,0c-0.1,0-0.1,0-0.2-0.1
	c0,0,0,0,0,0c0-0.1,0.1-0.1,0.1-0.2c0.5-0.5,1-0.8,1.7-1.1c0.7-0.3,1.5-0.4,2.3-0.4c0.7,0,1.4,0.1,2,0.4c0.4,0.1,0.6,0.5,0.6,0.9
	c0,0.3-0.3,0.6-0.6,0.5c0,0,0,0,0,0c-0.2,0-0.5,0-0.7-0.1c-0.2,0-0.4,0-0.7,0c-0.9,0.1-1.8,0.5-2.5,1c-0.1,0.1-0.2,0.1-0.3,0.1
	c-0.1,0-0.1-0.1-0.1-0.1c0.5-0.5,1.1-1,1.7-1.5C622.9,55.5,622.5,55.5,622.1,55.6L622.1,55.6z"/>
<path class="st1" d="M636.8,53.8c0.2-0.7,0.6-1.4,1-2c0.3-0.5,0.9-0.8,1.5-0.8c0.8,0,1.6,0.5,2,1.3c0.6,1.1,0.9,2.4,0.9,3.7
	c0.1,1.7-0.3,3.4-1.2,4.8c-0.6,0.9-1.4,1.7-2.4,2.2c-1,0.6-2,1-3.1,1.3c-0.2,0.1-0.3,0.1-0.5,0.1c-0.1,0-0.2,0-0.2-0.2
	s0.1-0.1,0.3-0.2c1.7-0.6,3.2-1.8,4.3-3.3c0.9-1.5,1.3-3.2,1.1-4.9c0-1-0.1-2-0.4-3c-0.3-0.8-0.7-1-1.1-1c-0.8,0-1.5,0.7-2.3,4.3
	c-0.2,0.6-0.3,1.3-0.3,1.9c0,0.4,0,0.8,0.1,1.2c0,0.5-0.2,0.7-0.6,0.7s-1-0.6-1.2-1.3c-0.2-0.8-0.3-1.6-0.2-2.4
	c0-1.3,0.2-2.6,0.4-3.9c0.1-0.5,0.1-1,0.2-1.5c0-0.4-0.2-0.8-0.5-1.1c-0.1-0.1-0.2-0.2-0.2-0.2s0.2-0.2,0.4-0.2
	c0.2,0,0.4,0.1,0.5,0.2c0.5,0.3,0.9,0.8,1.2,1.4c0.1,0.2,0.2,0.5,0.2,0.8c0,0.2-0.1,0.4-0.2,0.6c-0.1,0.2-0.2,0.3-0.3,0.5
	c-0.4,1-0.6,2.1-0.7,3.1c0,0.3,0,0.7,0,1c0,0.1,0.2,0.1,0.2,0C636.2,55.3,636.5,54.6,636.8,53.8z"/>
<path class="st1" d="M657.1,53.3c-0.1,0.7-0.2,1.3-0.4,1.9c-0.3,0.9-0.7,1.8-1.1,2.6c-0.5,1.1-1.2,2.1-2,3c-0.4,0.5-0.9,0.7-1.5,0.7
	c-0.5,0-1-0.3-1.4-0.7c-0.8-0.9-1.1-2.1-1-3.3c0-1,0.3-1.9,0.8-2.7c0.6-1,1.4-1.9,2.4-2.5c1.3-0.8,2.8-1.2,4.4-1.2
	c1.6-0.1,3.2,0.4,4.5,1.4c1.4,1.1,2.2,2.8,2.1,4.6c0,1.4-0.6,2.8-1.7,3.7c-0.8,0.7-1.7,1.2-2.7,1.6c-1.2,0.4-2.4,0.6-3.7,0.7
	c-0.3,0-0.4,0-0.4-0.2s0.1-0.2,0.3-0.2c1.7-0.3,3.4-1.1,4.6-2.4c1.1-1.1,1.7-2.6,1.6-4.2c0.1-1.3-0.5-2.6-1.6-3.4
	c-0.8-0.6-1.8-0.9-2.9-1c-0.4,0-0.8,0-1.1,0C656.8,52.2,657,52.7,657.1,53.3z M652.7,53.3c-0.7,0.6-1.2,1.4-1.5,2.2
	c-0.2,0.5-0.3,1.1-0.3,1.7c0,0.7,0.1,1.4,0.5,1.9c0.2,0.3,0.4,0.5,0.8,0.6c0.3,0,0.6-0.2,1.2-1.2c1-1.4,1.8-2.9,2.4-4.4
	c0.2-0.5,0.4-1,0.4-1.5c0-0.3-0.1-0.6-0.3-0.8C654.7,52.1,653.6,52.6,652.7,53.3z"/>
<path class="st1" d="M676.3,58c-0.1,4.1-1.8,6-6.6,6.9c-0.1,0-0.2-0.2-0.1-0.3c3.7-1.4,4.9-3,4.9-6.9c0-0.2,0-0.4,0-0.8
	c1.9,0.2,2.4,0.3,2.4,0.6C676.9,57.8,676.8,57.9,676.3,58z M683.3,55.8c0.7-0.8,0.8-0.9,1-0.9s0.3,0.1,1.2,0.9
	c0.4,0.4,0.5,0.5,0.5,0.7c0,0.3-0.1,0.4-0.8,0.4c-0.2,0-0.4,0-0.5,0.2c-0.5,0.4-1.1,0.8-1.7,1.1c-0.1,0-0.2,0-0.2-0.1
	c0.3-0.6,0.6-1.2,0.8-1.9h-11.3c0,1.4-0.6,2.4-1.7,2.4c-0.4,0-0.8-0.3-0.8-0.8c0,0,0,0,0,0c0-0.4,0.2-0.7,0.7-1
	c0.9-0.4,1.4-1.2,1.4-2.2c0-0.1,0.2-0.1,0.2,0c0.1,0.4,0.2,0.7,0.2,1.1L683.3,55.8z M678.5,53.5h3.2c0.8-1,1.1-1.1,1.2-1.1
	s0.4,0.1,1.2,0.8c0.3,0.3,0.5,0.5,0.5,0.6s-0.1,0.2-0.2,0.2H673c-0.4,0-0.8,0-1.2,0.1l-0.2-0.7c0.5,0.1,0.9,0.1,1.4,0.1h3.8v-2.1
	h-5.4c-0.4,0-0.9,0-1.3,0.1l-0.2-0.7c0.5,0.1,0.9,0.1,1.4,0.1h5.4v-0.8c0-0.6,0-1.2-0.1-1.8c2.2,0.2,2.5,0.4,2.5,0.6
	s-0.2,0.3-0.6,0.5V51h4.5c0.9-1,1.1-1.2,1.2-1.2s0.4,0.2,1.2,0.8c0.4,0.3,0.5,0.5,0.5,0.6s-0.1,0.2-0.2,0.2h-7.2L678.5,53.5z
	 M680.2,62.3c0,0.5,0.2,0.7,1.7,0.7c0.6,0,1.2,0,1.8-0.2c0.5-0.2,0.8-0.8,1.4-2.6c0-0.1,0.2-0.1,0.2,0c0,0.7-0.1,1.4-0.1,1.9
	c0,0.2,0,0.3,0.2,0.3c0.5,0.2,0.6,0.5,0.6,0.8s-0.2,0.8-0.8,1c-1.1,0.2-2.3,0.3-3.4,0.3c-2.6,0-3.2-0.2-3.2-1.6v-3c0-1,0-2-0.1-3
	c2.3,0.3,2.3,0.3,2.3,0.6s-0.1,0.3-0.5,0.5L680.2,62.3z"/>
<path class="st1" d="M699.8,63.4h4.4c1-1.3,1.3-1.5,1.4-1.5s0.4,0.2,1.4,1c0.5,0.4,0.6,0.6,0.6,0.7s0,0.2-0.2,0.2h-13.9
	c-0.6,0-1.2,0-1.7,0.1l-0.2-0.7c0.6,0.1,1.3,0.1,1.9,0.1h4.5v-12c0-0.8,0-1.7-0.1-2.5c2.4,0.2,2.6,0.4,2.6,0.6s-0.2,0.4-0.6,0.5v5.4
	h2.9c1-1.3,1.2-1.4,1.3-1.4s0.4,0.2,1.4,1c0.5,0.4,0.6,0.5,0.6,0.7s-0.1,0.2-0.2,0.2h-6L699.8,63.4z"/>
<path class="st1" d="M720.1,49.4c0-0.4,0-0.7-0.1-1.1c2.2,0.2,2.5,0.4,2.5,0.6s-0.2,0.3-0.6,0.5v1.1h4.4c1-1.1,1.2-1.2,1.3-1.2
	s0.3,0.1,1.2,0.8c0.4,0.3,0.5,0.5,0.5,0.6s0,0.2-0.2,0.2h-14.4c-0.4,0-0.8,0-1.3,0.1l-0.2-0.7c0.5,0.1,1,0.1,1.4,0.1h5.5V49.4z
	 M726.3,57.1c0.6-0.7,0.8-0.8,0.9-0.8s0.3,0.1,1,0.7c0.3,0.3,0.4,0.4,0.4,0.5s-0.2,0.3-0.6,0.6V59c0,2.9,0,3.6,0,4.4
	c0.1,0.5-0.2,1.1-0.7,1.3c-0.3,0.2-0.7,0.3-1.2,0.3c-0.2,0-0.3-0.1-0.4-0.5s-0.3-0.8-1.6-1.2c-0.1,0-0.1-0.2,0-0.2
	c0.8,0.1,1.3,0.1,1.9,0.1c0.2,0,0.2-0.1,0.2-0.2v-5.5h-10.7v6.7c0,0.6-0.3,0.8-1,0.8c-0.5,0-0.7-0.2-0.7-0.7c0-1,0.1-2,0.1-6
	c0-0.7,0-1.4-0.1-2.1c0.6,0.2,1.3,0.5,1.8,0.9L726.3,57.1z M718.1,55.5v0.1c0,0.5-0.3,0.7-1,0.7c-0.5,0-0.7-0.2-0.7-0.6s0-0.9,0-2.7
	c0-0.5,0-1,0-1.5c0.6,0.2,1.2,0.5,1.8,0.9h5.7c0.6-0.7,0.7-0.8,0.8-0.8s0.3,0.1,1,0.6c0.3,0.2,0.4,0.4,0.4,0.5s-0.1,0.3-0.5,0.5v0.4
	c0,1,0,1.7,0,1.9c0,0.6-0.3,0.8-1,0.8c-0.5,0-0.7-0.2-0.7-0.6v-0.1L718.1,55.5z M719.1,62.1v0.4c0,0.5-0.3,0.7-1,0.7
	c-0.5,0-0.7-0.2-0.7-0.6s0-0.8,0-2.5c0-0.6,0-1.2-0.1-1.8c0.8,0.3,0.9,0.4,1.8,0.8h3.5c0.5-0.6,0.7-0.7,0.8-0.7s0.3,0.1,1,0.6
	c0.3,0.2,0.4,0.4,0.4,0.5s-0.1,0.3-0.5,0.5v0.3c0,0.9,0,1.5,0,1.8c0,0.5-0.3,0.7-0.9,0.7c-0.5,0-0.7-0.1-0.7-0.5v-0.2L719.1,62.1z
	 M724,52.8h-5.9v2.3h5.9V52.8z M722.9,59.5h-3.7v2.2h3.7V59.5z"/>
<line class="st3" x1="676.1" y1="237.2" x2="651.5" y2="261.8"/>
<polygon class="st1" points="1004.1,183.6 1004.1,183.6 1004.1,183.6 "/>
<polygon class="st1" points="1006.2,181.8 1006.2,181.8 1006.1,181.8 "/>
<polygon class="st1" points="959.6,181.8 959.6,181.8 959.6,181.8 959.6,181.8 "/>
<polygon class="st1" points="974.7,177.4 974.7,177.4 974.7,177.4 974.7,177.4 "/>
<path class="st1" d="M1024.1,142.8c-0.9-1.3-2-2.6-3.1-3.8c-0.4-0.4-0.8-0.9-1.1-1.3c-0.2-0.2-0.3-0.4-0.4-0.7c0-0.2,0-0.3,0-0.5
	c0.1-1,0.2-2,0.5-3c0.4-1.4,0.6-2.9,0.7-4.3c0-1.3-0.3-2.5-0.9-3.6c-0.4-0.7-0.9-1.2-1.5-1.7c-0.9-0.7-1.8-1.3-2.9-1.7
	c-1.4-0.6-2.8-0.9-3.8-1.2c-0.4-0.1-0.9-0.3-1.3-0.5c-0.2-0.1-0.4-0.2-0.6-0.4l0,0c-0.3-0.3-0.5-0.7-0.6-1.2c-0.4-1-0.8-2.5-1.4-4.1
	c-0.3-0.9-0.7-1.7-1.2-2.5c-0.6-0.9-1.4-1.7-2.3-2.3c-1.1-0.6-2.4-0.9-3.6-0.9c-1.5,0.1-2.9,0.3-4.3,0.7c-1,0.3-2,0.4-3,0.5
	c-0.2,0-0.3,0-0.5,0c-0.4-0.2-0.8-0.4-1.1-0.7c-0.8-0.7-1.9-1.8-3.2-2.9c-0.7-0.6-1.5-1.1-2.3-1.5c-1-0.5-2.1-0.8-3.2-0.8
	c-1.4,0-2.8,0.5-4,1.3c-1.3,0.9-2.6,2-3.8,3.1c-0.4,0.4-0.9,0.8-1.3,1.1c-0.2,0.2-0.4,0.3-0.7,0.4c-0.2,0-0.3,0-0.5,0
	c-1-0.1-2-0.2-3-0.5c-1.4-0.4-2.9-0.6-4.3-0.7c-1.3,0-2.5,0.3-3.6,0.9l0,0l0,0c-0.7,0.4-1.2,0.9-1.7,1.4c-0.7,0.9-1.3,1.8-1.7,2.9
	c-0.5,1.4-0.9,2.8-1.2,3.8c-0.1,0.4-0.3,0.9-0.5,1.3c-0.1,0.2-0.2,0.4-0.4,0.6c-0.3,0.3-0.7,0.5-1.2,0.7c-1,0.4-2.5,0.8-4.1,1.3
	c-0.9,0.3-1.7,0.7-2.5,1.2c-0.9,0.6-1.7,1.4-2.3,2.3c-0.6,1.1-0.9,2.4-0.9,3.6c0.1,1.5,0.3,2.9,0.7,4.3c0.3,1,0.4,2,0.5,3
	c0,0.2,0,0.3,0,0.5l0,0c-0.2,0.4-0.4,0.8-0.7,1.1c-0.7,0.9-1.8,1.9-2.9,3.2c-0.6,0.7-1.1,1.5-1.5,2.3c-0.5,1-0.8,2.1-0.8,3.2
	c0,1.4,0.5,2.8,1.3,4c0.9,1.3,2,2.6,3.1,3.8c0.4,0.4,0.8,0.9,1.1,1.3c0.2,0.2,0.3,0.5,0.4,0.7v0.1v-0.1c0,0.2,0.1,0.3,0,0.5
	c-0.1,1-0.2,2-0.5,3c-0.4,1.4-0.6,2.9-0.7,4.3c0,1.3,0.3,2.5,0.9,3.6c0.4,0.7,0.9,1.2,1.5,1.7c0.9,0.7,1.8,1.3,2.9,1.7
	c1.4,0.6,2.8,0.9,3.8,1.3c0.4,0.1,0.9,0.3,1.3,0.5c0.2,0.1,0.4,0.2,0.6,0.4c0.2,0.3,0.4,0.6,0.6,1c0.2,0.6,0.5,1.4,0.8,2.2l0,0
	c0.2,0.8,0.5,1.6,0.8,2.4c0.3,0.9,0.8,1.8,1.4,2.6c0.3,0.4,0.6,0.7,1,1l-9.7,20.9l13.4-0.4l8.3,10.5l9.5-20.5l9.5,20.5l8.3-10.5
	l13.4,0.4l-9.3-20l0.1-0.1c0.8-0.5,1.5-1.1,2-1.8c0.6-0.9,1.1-1.8,1.5-2.8c0.5-1.4,0.8-2.6,1.2-3.6c0.1-0.4,0.3-0.8,0.5-1.2
	c0.1-0.2,0.2-0.4,0.4-0.5c0.3-0.3,0.7-0.5,1.2-0.6c1-0.4,2.5-0.8,4.1-1.4c0.9-0.3,1.7-0.7,2.5-1.2c0.9-0.6,1.7-1.4,2.3-2.4
	c0.6-1.1,0.9-2.4,0.9-3.6c-0.1-1.5-0.3-2.9-0.7-4.3c-0.3-1-0.4-2-0.5-3c0-0.2,0-0.3,0-0.5c0.2-0.4,0.4-0.8,0.7-1.1
	c0.7-0.9,1.8-1.9,2.9-3.2c0.6-0.7,1.1-1.5,1.5-2.3c0.5-1,0.8-2.1,0.8-3.2C1025.3,145.3,1024.9,143.9,1024.1,142.8z M1018.8,147.5
	c-0.7,1-1.6,2-2.5,2.9c-0.6,0.6-1.1,1.3-1.6,1.9c-0.6,0.8-1,1.7-1.3,2.7c-0.2,0.7-0.3,1.4-0.3,2.1c0.1,1.5,0.3,2.9,0.7,4.4
	c0.3,1,0.4,2,0.5,2.9c0,0.1,0,0.3,0,0.4v0.1l-0.1,0.1c-0.3,0.3-0.7,0.5-1.1,0.6c-0.9,0.4-2.2,0.7-3.5,1.1c-0.7,0.2-1.4,0.5-2.1,0.9
	c-0.8,0.4-1.5,0.9-2.2,1.5c-0.8,0.8-1.4,1.8-1.8,2.8c-0.5,1.3-0.9,2.5-1.3,3.8c-0.2,0.8-0.6,1.5-1,2.2l0,0l-0.1,0.1l0,0l0,0h-0.1
	c-0.1,0-0.3,0-0.4,0c-1-0.1-2-0.2-3-0.5c-1.4-0.4-2.9-0.6-4.4-0.6c-0.7,0-1.4,0.1-2.1,0.3h-0.1l-0.2,0.1l0,0
	c-1.5,0.5-2.8,1.3-3.9,2.4c-1,0.9-1.9,1.8-2.6,2.4l0,0c-0.3,0.3-0.6,0.5-1,0.7c-0.1,0.1-0.2,0.1-0.4,0.1c-0.1,0-0.3-0.1-0.4-0.1
	c-0.4-0.2-0.7-0.4-1-0.7c-0.8-0.6-1.7-1.5-2.7-2.4c-1.2-1.1-2.6-1.9-4.1-2.4c-0.7-0.2-1.4-0.3-2.1-0.3c-1.5,0.1-2.9,0.3-4.4,0.6
	c-1,0.3-2,0.4-3,0.5c-0.1,0-0.3,0-0.4,0h-0.1l0,0l-0.2-0.2l0,0c-0.3-0.3-0.5-0.6-0.7-1c-0.2-0.5-0.4-1.2-0.6-1.9l0,0
	c-0.3-1-0.6-1.9-1-2.8c-0.4-1.1-1.1-2.1-1.9-3c-0.9-0.9-2.1-1.6-3.3-2c-1.6-0.6-3.1-1-4.2-1.4c-0.4-0.1-0.8-0.3-1.2-0.6
	c-0.1-0.1-0.2-0.1-0.3-0.2l0,0v-0.1c0-0.1,0-0.3,0-0.4c0.1-1,0.2-2,0.5-2.9c0.4-1.4,0.6-2.9,0.7-4.4c0-0.7-0.1-1.4-0.3-2.1l0,0
	c-0.4-1.2-1-2.4-1.8-3.4c-1.1-1.3-2.2-2.4-3-3.3c-0.3-0.3-0.5-0.7-0.8-1.1c-0.1-0.1-0.1-0.3-0.1-0.4c0-0.3,0.1-0.5,0.3-0.7
	c0.7-1,1.6-2,2.5-2.9c0.6-0.6,1.1-1.3,1.6-2c0.6-0.8,1-1.7,1.3-2.7l0,0c0.2-0.7,0.3-1.4,0.3-2.1c-0.1-1.5-0.3-2.9-0.7-4.4
	c-0.3-1-0.4-1.9-0.5-2.9c0-0.1,0-0.3,0-0.4v-0.1l0,0l0.1-0.1c0.3-0.3,0.7-0.5,1.1-0.6c0.9-0.4,2.2-0.7,3.5-1.1
	c0.7-0.2,1.4-0.5,2.1-0.9c0.8-0.4,1.5-0.9,2.2-1.5c0.9-0.9,1.6-2.1,2-3.3c0.6-1.6,1-3.1,1.4-4.2c0.1-0.4,0.3-0.8,0.6-1.2
	c0.1-0.1,0.1-0.2,0.2-0.3h0.1c0.1,0,0.3,0,0.4,0c1,0.1,2,0.2,3,0.5c1.4,0.4,2.9,0.6,4.4,0.7c0.7,0,1.4-0.1,2.1-0.3
	c1.2-0.4,2.4-1,3.4-1.8c1.3-1.1,2.4-2.2,3.3-2.9c0.3-0.3,0.7-0.6,1.1-0.8c0.1-0.1,0.3-0.1,0.4-0.1c0.3,0,0.5,0.2,0.7,0.3
	c1,0.7,2,1.6,2.9,2.5c0.6,0.6,1.3,1.1,2,1.6c0.8,0.6,1.7,1,2.7,1.3c0.7,0.2,1.4,0.3,2.1,0.3c1.5-0.1,2.9-0.3,4.4-0.7
	c1-0.3,2-0.4,3-0.5c0.1,0,0.3,0,0.4,0h0.1l0.1,0.1c0.3,0.3,0.5,0.7,0.6,1.1c0.4,0.9,0.7,2.2,1.2,3.5c0.2,0.7,0.5,1.4,0.9,2.1
	c0.4,0.8,0.9,1.5,1.5,2.2l0,0.1l0-0.1c0.9,0.9,2.1,1.6,3.3,2c1.6,0.6,3.1,1,4.2,1.4c0.4,0.1,0.8,0.3,1.2,0.6
	c0.2,0.2,0.3,0.2,0.3,0.3v0.1c0,0.1,0,0.3,0,0.4c-0.1,1-0.2,2-0.5,2.9c-0.4,1.4-0.6,2.9-0.7,4.4c0,0.7,0.1,1.4,0.3,2.1
	c0.4,1.2,1,2.4,1.8,3.4c1.1,1.3,2.2,2.4,3,3.3c0.3,0.3,0.6,0.7,0.8,1.1c0.1,0.1,0.1,0.3,0.1,0.4
	C1019.1,146.8,1019.1,147,1018.8,147.5L1018.8,147.5z"/>
<path class="st1" d="M982.9,120.9c-14.3,0-25.9,11.5-26,25.8c0,13.8,10.7,25.2,24.5,25.9l0,0c0.5,0,1,0.1,1.5,0.1
	c14.3-0.3,25.7-12.1,25.4-26.4C1008,132.4,996.8,121.2,982.9,120.9z M997.9,161.8c-4,4-9.4,6.2-15,6.2c-0.4,0-0.8,0-1.2,0l0,0
	c-11.7-0.7-20.7-10.7-20-22.4s10.7-20.7,22.4-20c11.7,0.7,20.7,10.7,20,22.4C1003.8,153.2,1001.6,158.1,997.9,161.8L997.9,161.8z"/>
<path class="st1" d="M655.1,122.6c0-3.2-2.6-5.7-5.7-5.7c-3.2,0-5.7,2.6-5.7,5.7s2.6,5.7,5.7,5.7l0,0
	C652.5,128.3,655.1,125.8,655.1,122.6z"/>
<path class="st1" d="M636.5,135.8V155c0.2,1.4,1.4,2.4,2.8,2.2c1.1-0.1,2-1,2.2-2.2v-15.8h1.2v43c-0.1,1.8,1.3,3.4,3.1,3.5
	c1.8,0.1,3.4-1.3,3.5-3.1c0-0.1,0-0.2,0-0.4v-25h1.1v25c-0.1,1.8,1.3,3.4,3.1,3.5c1.8,0.1,3.4-1.3,3.5-3.1c0-0.1,0-0.2,0-0.4v-43
	h1.2V155c-0.1,1.4,0.9,2.6,2.3,2.7c1.4,0.1,2.6-0.9,2.7-2.3c0-0.1,0-0.3,0-0.4v-19.2c-0.3-3.1-2.7-5.5-5.8-5.8h-15
	C639.2,130.3,636.8,132.7,636.5,135.8z"/>
<path class="st1" d="M705,164.2c-1.3,0.4-2.5,0.8-3.9,1.1c-0.6,0.1-1.2,0.2-1.8,0.2l0.1-0.2c0.4-1.4,0.8-2.8,1-3.9s0.4-2.1,0.5-2.4
	c0.1-0.7,0.3-1.4,0.5-2.1c0.2-0.4,0.5-0.8,1-0.9c2.2-0.6,4.1-2,5.3-3.9c1.4-2.3,2.1-5,1.9-7.7c-0.1-1.8-0.5-2.6-1.1-2.8
	s-1.2,0.3-2.1,1c-0.9,0.8-1.9,1.6-3,2.3c-0.5,0.3-1,0.6-1.6,0.8c-0.1-1.2-0.3-2.5-0.5-3.6s-0.3-2-0.4-2.3c-0.3-1.8-0.5-2.6,0.4-3.2
	c1.8-1.3,3-3.1,3.4-5.3c0.5-2.5,0.2-5.1-0.9-7.4c-0.7-1.6-1.3-2.1-1.9-2.1s-1,0.7-1.5,1.6c-0.6,1-1.3,2-2,3
	c-0.3,0.4-0.7,0.9-1.1,1.2c-0.5-0.9-0.9-1.9-1.4-2.6c-0.5-0.9-0.9-1.6-1.1-1.9c-0.9-1.5-1.2-2.2-0.7-3c1.2-1.7,1.7-3.7,1.4-5.8
	c-0.3-2.4-1.3-4.6-3-6.3c-1.1-1.2-1.8-1.5-2.3-1.3s-0.7,0.9-0.9,1.9c-0.2,1.1-0.5,2.2-0.8,3.3c-0.2,0.5-0.4,1-0.7,1.4
	c-0.5-0.5-1-1-1.5-1.4c-0.8-0.7-1.4-1.3-1.6-1.5c-1.3-1.2-1.8-1.7-1.6-2.6c0.6-2,0.5-4.1-0.4-5.9c-1-2.2-2.7-4-4.8-5.1
	c-1.4-0.8-2.2-0.9-2.6-0.5s-0.3,1.1-0.3,2.1c0.1,1.1,0.2,2.2,0.2,3.2c-0.8-0.9-1.9-1.7-3-2.2c-1.7-0.7-3.5-1-5.2-0.9
	c-1.8,0.1-3.3,0.8-3.6,2.1s0.5,2.6,1.6,3.7c1.1,1.1,2.4,2.1,3.8,2.8c1,0.5,2.1,0.8,3.2,0.9L672,108c-1,0.7-1.9,1.3-2.7,1.9
	s-1.2,1-1.3,1.5s0.3,0.9,1.2,1.5c1.5,0.8,3.3,1.2,5,1.1c1.9-0.1,3.7-0.6,5.2-1.6c0.8-0.4,1.4,0,2.6,1c0.2,0.2,0.7,0.7,1.4,1.4
	c0.4,0.4,0.8,0.9,1.2,1.4c-0.4,0.2-0.9,0.4-1.4,0.6c-1.1,0.4-2.2,0.7-3.1,1c-0.7,0.1-1.3,0.5-1.7,1c-0.2,0.4,0,1,0.7,1.8
	c1.2,1.3,2.8,2.2,4.5,2.6c1.8,0.5,3.7,0.5,5.5,0.1c0.9-0.2,1.4,0.4,2.2,1.8c0.1,0.2,0.5,0.9,0.9,1.8s0.7,1.6,1.1,2.5
	c-0.6,0.1-1.1,0.1-1.7,0.1c-1.3,0-2.5-0.1-3.4-0.1c-0.7-0.1-1.5,0.1-2.1,0.5c-0.4,0.4-0.3,0.9,0.1,2c0.8,1.7,2,3.1,3.5,4.1
	c1.6,1.1,3.5,1.8,5.4,2c1,0.2,1.2,0.9,1.5,2.5c0,0.3,0.2,1.1,0.2,2.1s0.2,2.1,0.2,3.3c-0.6-0.1-1.1-0.3-1.7-0.5
	c-1.2-0.4-2.4-1-3.3-1.3c-0.7-0.3-1.5-0.4-2.2-0.3c-0.5,0.2-0.7,0.8-0.6,2c0.2,1.9,0.9,3.7,2,5.3c1.2,1.7,2.7,3,4.6,4
	c0.4,0.2,0.7,0.6,0.8,1.1c0,0.7,0,1.3-0.2,2c-0.1,0.3-0.2,1.1-0.5,2.1s-0.7,2.3-1.2,3.5c0,0.1-0.1,0.1-0.1,0.2
	c-0.5-0.4-1-0.7-1.4-1.1c-1-0.9-2-1.9-2.8-2.6c-0.5-0.6-1.2-1-2-1.2c-0.6,0-1,0.5-1.4,1.7c-0.6,1.9-0.6,3.9-0.1,5.8
	c0.5,2.1,1.5,4,2.8,5.7c0.7,0.9,0.3,1.6-0.7,3.2c-0.2,0.3-0.7,1-1.4,1.8S686,179,685,180l-0.5,0.5c-0.3-0.5-0.6-1.1-0.9-1.7
	c-0.6-1.3-1.1-2.6-1.6-3.7c-0.3-0.8-0.8-1.5-1.5-2c-0.5-0.2-1.2,0-2,1c-1.4,1.6-2.3,3.5-2.6,5.5c-0.4,2.2-0.3,4.5,0.3,6.7
	c0.3,1.1-0.4,1.7-2,2.7c-0.3,0.2-1.1,0.6-2.1,1.1s-2.4,1.1-3.7,1.6s-3.1,1.3-4.1,1.6c-12.5,4.4-27.5,6.3-36.8,13.1
	c-1.5,1.1,1.4,5.2,2.7,4.9s10.4-5.8,33.3-12.1c1-0.3,5.6-1.9,7-2.5s2.8-1.4,4-2.1s2-1.2,2.3-1.4c0.7-0.5,1.4-0.8,2.1-1.1
	c0.5-0.2,1.1-0.1,1.5,0.1c1,0.7,2.2,1.1,3.4,1.3c1.3,0.2,2.6,0.2,3.9,0c1.4-0.3,2.8-0.8,4-1.5c1.4-0.8,2.6-1.8,3.6-3
	c1.4-1.6,1.7-2.5,1.4-3s-1.2-0.7-2.4-0.8c-1.4-0.1-2.8-0.3-4.2-0.6c-0.6-0.2-1.2-0.4-1.8-0.6c0.2-0.2,0.3-0.4,0.5-0.6
	c1-1.1,1.9-2.4,2.6-3.4s1.2-1.8,1.4-2.1c1.1-1.7,1.6-2.4,2.8-2.3c2.4,0.3,4.8-0.3,6.8-1.7c1.1-0.8,2.1-1.7,2.9-2.8
	c0.9-1.2,1.6-2.6,2-4c0.6-1.9,0.5-2.8,0-3.2S706.1,163.8,705,164.2z"/>
<path class="st1" d="M636,199.3c2.9-1.1,5.9-2.1,9-2.9c-3.3-0.9-6.6-1.9-9.7-2.9c-1-0.3-2.8-1.1-4.1-1.6s-2.7-1.1-3.7-1.6
	s-1.9-1-2.2-1.1c-1.7-1-2.3-1.6-2-2.7c0.6-2.2,0.7-4.4,0.3-6.7c-0.3-2-1.2-4-2.6-5.5c-0.9-1-1.5-1.2-2-1c-0.7,0.5-1.2,1.2-1.5,2
	c-0.5,1-1,2.3-1.6,3.7c-0.3,0.6-0.5,1.1-0.9,1.7l-0.5-0.5c-0.9-1-1.9-2-2.6-2.9s-1.2-1.6-1.4-1.8c-1-1.5-1.4-2.3-0.7-3.2
	c1.4-1.6,2.4-3.6,2.8-5.7c0.5-1.9,0.4-3.9-0.1-5.8c-0.4-1.2-0.8-1.7-1.4-1.7c-0.8,0.1-1.5,0.6-2,1.2c-0.8,0.7-1.7,1.7-2.8,2.6
	c-0.5,0.4-1,0.8-1.5,1.1c0-0.1,0-0.1-0.1-0.2c-0.5-1.2-0.9-2.5-1.2-3.5s-0.5-1.8-0.5-2.1c-0.2-0.7-0.2-1.3-0.2-2
	c0.1-0.5,0.3-0.9,0.8-1.1c1.8-0.9,3.4-2.3,4.6-4c1.1-1.5,1.8-3.4,2-5.3c0.1-1.2-0.1-1.8-0.6-2c-0.8-0.1-1.5,0-2.2,0.3
	c-1,0.4-2.1,0.9-3.3,1.3c-0.5,0.2-1.1,0.4-1.7,0.5c0-1.1,0.1-2.3,0.2-3.3s0.2-1.8,0.2-2.1c0.3-1.6,0.5-2.4,1.5-2.5
	c1.9-0.2,3.8-0.9,5.4-2c1.5-1,2.8-2.4,3.5-4.1c0.5-1.1,0.5-1.6,0.1-2c-0.6-0.4-1.4-0.5-2.1-0.5c-1,0-2.2,0.1-3.4,0.1
	c-0.6,0-1.1,0-1.7-0.1c0.4-0.9,0.7-1.8,1.1-2.5s0.8-1.6,0.9-1.8c0.8-1.4,1.2-2,2.2-1.8c1.8,0.4,3.7,0.4,5.5-0.1
	c1.7-0.4,3.3-1.3,4.5-2.6c0.8-0.8,1-1.3,0.7-1.8c-0.5-0.5-1.1-0.9-1.7-1c-0.9-0.3-2-0.6-3.1-1c-0.5-0.2-0.9-0.4-1.4-0.6
	c0.4-0.5,0.8-1,1.2-1.4c0.7-0.7,1.2-1.3,1.4-1.4c1.2-1.1,1.8-1.5,2.6-1c1.6,0.9,3.4,1.5,5.2,1.6c1.8,0.1,3.5-0.3,5-1.1
	c1-0.5,1.3-1,1.2-1.5s-0.6-1-1.3-1.5s-1.7-1.2-2.7-1.9l-0.1-0.1c1.1-0.1,2.2-0.4,3.2-0.9c1.4-0.7,2.7-1.6,3.8-2.7
	c1.1-1.2,2-2.5,1.6-3.7s-1.8-1.9-3.6-2.1c-1.8-0.1-3.6,0.2-5.3,0.9c-1.1,0.5-2.2,1.2-3,2.2c0-1.1,0.1-2.2,0.2-3.2
	c0.1-1,0.1-1.7-0.3-2.1s-1.2-0.2-2.6,0.5c-2.1,1.1-3.8,2.9-4.8,5.1c-0.9,1.9-1,4-0.4,5.9c0.3,1-0.3,1.5-1.6,2.6
	c-0.2,0.2-0.8,0.7-1.6,1.5c-0.5,0.4-0.9,0.9-1.5,1.4c-0.3-0.5-0.5-0.9-0.7-1.4c-0.3-1.1-0.6-2.2-0.8-3.3c-0.2-1-0.4-1.7-0.9-1.9
	s-1.2,0.1-2.3,1.3c-1.7,1.7-2.7,4-3,6.3c-0.3,2,0.2,4.1,1.4,5.8c0.5,0.8,0.2,1.5-0.7,3c-0.2,0.3-0.6,1-1.1,1.9
	c-0.4,0.8-0.9,1.7-1.4,2.6c-0.4-0.4-0.8-0.8-1.1-1.2c-0.7-1-1.4-2-2-3c-0.5-0.9-1-1.6-1.5-1.6s-1.1,0.5-1.9,2.1
	c-1.1,2.3-1.4,4.9-0.9,7.4c0.4,2.1,1.6,4,3.4,5.3c0.8,0.6,0.7,1.4,0.4,3.2c-0.1,0.3-0.2,1.1-0.4,2.3s-0.3,2.3-0.5,3.6
	c-0.6-0.2-1.1-0.5-1.6-0.8c-1-0.7-2.1-1.5-3-2.3c-0.8-0.7-1.5-1.2-2.1-1s-0.9,0.9-1.1,2.8c-0.2,2.7,0.4,5.4,1.9,7.7
	c1.2,1.9,3.1,3.3,5.3,3.9c0.5,0.1,0.8,0.5,1,0.9c0.3,0.7,0.4,1.4,0.5,2.1c0.1,0.3,0.2,1.2,0.5,2.4s0.6,2.6,1,3.9l0.1,0.2
	c-0.6,0-1.2-0.1-1.8-0.2c-1.3-0.3-2.6-0.6-3.9-1.1c-1.1-0.4-2-0.6-2.4-0.2s-0.5,1.3,0.1,3.2c0.4,1.4,1.1,2.8,2,4
	c0.8,1.1,1.8,2.1,2.9,2.8c2,1.4,4.4,2,6.8,1.7c1.2-0.1,1.6,0.6,2.8,2.3c0.2,0.3,0.7,1.1,1.4,2.1s1.6,2.2,2.6,3.4
	c0.2,0.2,0.3,0.4,0.5,0.6c-0.6,0.3-1.2,0.5-1.8,0.6c-1.4,0.3-2.8,0.5-4.2,0.6c-1.2,0.1-2.1,0.3-2.4,0.8s0,1.5,1.4,3
	c1,1.2,2.3,2.2,3.6,3c1.2,0.7,2.6,1.2,4,1.5c1.3,0.2,2.6,0.2,3.9,0c1.2-0.2,2.3-0.7,3.4-1.3c0.5-0.3,1-0.3,1.5-0.1
	c0.7,0.3,1.5,0.7,2.1,1.1c0.3,0.2,1.2,0.7,2.3,1.4s2.6,1.4,4,2.1S634.8,198.9,636,199.3z"/>
<path class="st1" d="M663.5,202c-3.6,1-6.8,2-9.8,2.9c10.1,3.7,14.7,6.3,15.6,6.5c1.3,0.3,4.2-3.8,2.7-4.9
	C669.4,204.7,666.5,203.2,663.5,202z"/>
<line class="st0" x1="436.3" y1="309" x2="436.3" y2="0"/>
<rect x="186.5" y="121.1" class="st1" width="23.8" height="42.1"/>
<rect x="219.8" y="103.4" class="st1" width="23.8" height="59.9"/>
<rect x="153.1" y="138.2" class="st1" width="23.8" height="25.1"/>
<path class="st1" d="M286.1,80.6l-19.6-33.7c-0.5-0.8-1.5-1.1-2.3-0.6c-0.3,0.1-0.5,0.4-0.6,0.6l-19.6,33.7
	c-0.5,0.8-0.2,1.9,0.6,2.3c0.3,0.1,0.5,0.2,0.8,0.2h7.7v80.1H277V83.2h7.7c0.9,0,1.7-0.8,1.7-1.7C286.4,81.2,286.3,80.9,286.1,80.6z
	"/>
</svg>
