<svg id="pc" xmlns="http://www.w3.org/2000/svg" viewBox="0 0 1100 308.93"><defs><style>.cls-1{fill:#333;}.cls-2{fill:#e8314b;}.cls-3,.cls-5,.cls-6{fill:none;}.cls-3{stroke:#e8314b;stroke-width:1.76px;}.cls-3,.cls-6{stroke-miterlimit:10;}.cls-4{fill:#fff;}.cls-5,.cls-6{stroke:#fff;}.cls-5{stroke-width:6px;}.cls-6{stroke-width:1.18px;}</style></defs><circle class="cls-1" cx="153.08" cy="104.44" r="17.4"/><path class="cls-1" d="M273.69,265.57c0,.67-.53,1-1.38,1s-1.07-.23-1.07-.81c0-1.84.1-3.77.1-11.2,0-2.39,0-4.79-.15-7.21a21.58,21.58,0,0,1,2.68,1.33h2.23c.86-1,1.07-1.2,1.28-1.2s.49.16,1.43.89c.41.31.57.49.57.7s-.13.39-.7.81v2.44c0,6.45.13,10.9.13,12.38,0,.67-.5,1-1.43,1-.7,0-1-.21-1-.8v-.94h-2.7Zm2.7-16.33h-2.7v6.52h2.7Zm0,7.12h-2.7v7h2.7Zm10.69-1.43h3.58c1.15-1.43,1.46-1.63,1.64-1.63s.52.2,1.72,1.14c.52.44.73.65.73.83s-.08.26-.34.26H281a8.38,8.38,0,0,0-1.53.16l-.29-1a7.43,7.43,0,0,0,1.74.21h3.7v-4h-2.94a7.89,7.89,0,0,0-1.48.16l-.29-1a7.56,7.56,0,0,0,1.71.2h3v-2.21c0-.67-.06-1.35-.13-2,3.14.28,3.43.57,3.43.83s-.29.49-.83.7v2.73h2.44c1.12-1.4,1.43-1.61,1.61-1.61s.52.21,1.72,1.12c.54.44.75.65.75.83s-.08.26-.34.26h-6.18Zm3.51,7.88c0,1,.07,3.2.07,4.16s-.1,1.46-.59,1.95a3.46,3.46,0,0,1-2.5,1,.39.39,0,0,1-.42-.33c-.2-1.36-.93-1.72-3-2.24-.13,0-.13-.31,0-.31,1.33.08,2.55.1,3.54.1.36,0,.47-.08.47-.41V260H281a8.38,8.38,0,0,0-1.53.16l-.29-1a7.57,7.57,0,0,0,1.75.21h7.2v-1.14a14.71,14.71,0,0,0-.13-2.08c2.57.23,3.35.42,3.35.78s-.23.44-.8.73v1.71h.62c1-1.14,1.27-1.35,1.46-1.35s.49.21,1.4,1c.36.32.57.55.57.73s-.08.26-.34.26h-3.71Zm-6.45,2.86c-.68,0-.94-.44-1.25-1.66a4.29,4.29,0,0,0-1.53-2.6c-.11-.08,0-.24.15-.21,2.84.57,4.06,1.51,4.06,2.86C285.57,265.05,285.05,265.67,284.14,265.67Z"/><path class="cls-1" d="M304.89,254.62V269c0,.7-.5,1-1.49,1-.75,0-1.06-.26-1.06-.93,0-1.93.15-3.82.15-11.52,0-3.88,0-7.75-.18-11.62a15.6,15.6,0,0,1,2.76,1.32h4.63c.88-1,1.09-1.17,1.3-1.17s.46.16,1.4.91c.42.34.57.52.57.73s-.18.42-.75.78v1c0,2.76,0,4.66,0,5.28s-.49.88-1.4.88c-.68,0-.94-.2-.94-.75v-.34Zm5-6.76h-5v2.68h5Zm0,3.28h-5V254h5Zm.75,14.48v.91c0,.73-.39,1-1.35,1-.7,0-1-.24-1-.81,0-.86.08-1.77.08-5.22,0-1.62,0-3.25-.13-4.89a16.86,16.86,0,0,1,2.65,1.27h4.91c.86-1,1.07-1.12,1.28-1.12s.49.13,1.37.86c.47.36.63.55.63.76s-.21.39-.73.72v1.17c0,3.1,0,5.2,0,5.91s-.39,1-1.33,1c-.7,0-.94-.26-.94-.78v-.75Zm5.46-7.15h-5.46v2.83h5.46Zm0,3.43h-5.46V265h5.46Zm.89-7.28v.13c0,.68-.44,1-1.3,1s-1-.2-1-.78c0-1,.05-2,.05-6.05,0-1,0-1.95-.1-2.94a21.35,21.35,0,0,1,2.67,1.32H322c.91-1,1.14-1.17,1.35-1.17s.47.16,1.43.94c.44.39.6.57.6.78s-.16.44-.7.75v3.12c0,14.49,0,15.16,0,15.86a2.29,2.29,0,0,1-.52,1.56,2.89,2.89,0,0,1-2.26.76c-.34,0-.44-.08-.47-.37-.13-1.19-.6-1.58-2.57-2.1-.13,0-.13-.34,0-.34,1.56.1,1.95.13,3,.13.26,0,.32-.05.32-.36v-12.2Zm5.15-6.76H317v2.68h5.15Zm0,3.28H317V254h5.15Z"/><path class="cls-2" d="M72.62,227l-6-16.2a22.75,22.75,0,0,1,6.52-3.87,42.92,42.92,0,0,1,8.28-2.34,49,49,0,0,1,8.78-.81,37.3,37.3,0,0,1,13.14,2.2,21.59,21.59,0,0,1,9.22,6.3,15.16,15.16,0,0,1,3.38,10,18.23,18.23,0,0,1-1.85,8.1,29.51,29.51,0,0,1-4.81,7,52.55,52.55,0,0,1-6.48,6c-2.34,1.84-4.65,3.48-6.93,4.95s-4.32,2.78-6.12,3.92h17.1a11.24,11.24,0,0,0,4.9-1,12.47,12.47,0,0,0,4-3.1,22.18,22.18,0,0,0,3.38-5.31h.9L113.93,268H67.13v-.9q3.86-4.77,8-9.54T83,248.06q3.83-4.74,6.89-9.41a52.37,52.37,0,0,0,4.86-9.27,24.76,24.76,0,0,0,1.8-9.09q0-5.85-3.11-9.18T85,208.23a10.55,10.55,0,0,0-8.6,5.17q-2.93,4.74-2.92,13.55Z"/><path class="cls-2" d="M126.08,205.17l47.7-.18-11.52,26.73q-1.19,2.61-2.52,6.3c-.9,2.46-1.84,5.1-2.79,7.92s-1.89,5.61-2.8,8.37-1.72,5.33-2.47,7.69-1.34,4.37-1.75,6h-15.3c1.08-1.8,2.36-4,3.87-6.53s3.06-5.26,4.68-8.14,3.22-5.74,4.81-8.6,3-5.49,4.28-7.91,2.27-4.46,3.06-6.08l4.68-10h-28.8a6.14,6.14,0,0,0-4.23,1.35,9.58,9.58,0,0,0-2.52,4h-.9Z"/><path class="cls-2" d="M185.83,269.25a8.07,8.07,0,1,1,5.76-2.39A7.79,7.79,0,0,1,185.83,269.25Z"/><path class="cls-2" d="M205.81,227l-6-16.2a22.81,22.81,0,0,1,6.53-3.87,42.92,42.92,0,0,1,8.28-2.34,48.93,48.93,0,0,1,8.77-.81,37.26,37.26,0,0,1,13.14,2.2,21.63,21.63,0,0,1,9.23,6.3,15.16,15.16,0,0,1,3.37,10,18.22,18.22,0,0,1-1.84,8.1,29.55,29.55,0,0,1-4.82,7,52.55,52.55,0,0,1-6.48,6c-2.34,1.84-4.65,3.48-6.93,4.95s-4.32,2.78-6.12,3.92H240a11.28,11.28,0,0,0,4.91-1A12.47,12.47,0,0,0,249,248a22.17,22.17,0,0,0,3.37-5.31h.9L247.12,268h-46.8v-.9q3.87-4.77,8-9.54t7.92-9.49q3.82-4.74,6.88-9.41a51.08,51.08,0,0,0,4.86-9.27,24.76,24.76,0,0,0,1.8-9.09q0-5.85-3.1-9.18t-8.42-2.88a10.53,10.53,0,0,0-8.59,5.17q-2.92,4.74-2.93,13.55Z"/><path class="cls-1" d="M60.27,46.15h4.28c1-1.32,1.26-1.46,1.39-1.46s.36.14,1.42,1c.49.39.63.56.63.68s0,.18-.23.18H60.27v.24c0,3.42.07,4.88.07,6.3,0,.57-.36.79-1.14.79-.57,0-.79-.18-.79-.7s.09-3.41.09-6.38v-.25H53.28a16.87,16.87,0,0,0-1.73.11l-.2-.67a12.85,12.85,0,0,0,1.91.15H58.5v-7.1H54.07a15.32,15.32,0,0,0-1.65.11l-.2-.66a13.26,13.26,0,0,0,1.85.14h10c.93-1.12,1.15-1.26,1.28-1.26s.36.14,1.33.88c.43.34.57.49.57.61s0,.18-.23.18H60.27ZM55.71,45c-.54,0-.68-.23-.85-1.31a8.41,8.41,0,0,0-1.29-3.53c-.06-.07.07-.18.14-.15,2,1.14,3,2.42,3,3.68C56.76,44.47,56.32,45,55.71,45Zm9.62-3.67a12.5,12.5,0,0,1-4,4.19c-.07.06-.24-.1-.18-.18a15.17,15.17,0,0,0,2.18-3.94,12.21,12.21,0,0,0,.52-1.73c1.58.67,2.2,1,2.2,1.28S65.87,41.29,65.33,41.36Z"/><path class="cls-1" d="M79.18,42.93a20.57,20.57,0,0,0,1.3-3.17,9.63,9.63,0,0,0,.43-2.25c2,.46,2.47.61,2.47.9s-.16.34-.69.43A16.52,16.52,0,0,1,81.61,41h5.23c.68-.82.82-.93,1-.93s.32.11,1,.75c.33.29.44.44.44.58s-.06.18-.56.56c-.09,5.33-.29,7.69-.83,9.65A3.09,3.09,0,0,1,87,53.19a2.47,2.47,0,0,1-1.64.59c-.37,0-.41-.05-.52-.5s-.63-1-2-1.39c-.09,0-.09-.29,0-.27,1.36.14,1.8.16,2.07.16.81,0,1-.05,1.19-.34.59-1.15.86-3.71,1-10H81.36a12.53,12.53,0,0,1-3.22,3.62c-.07,0-.23-.06-.18-.13A14.42,14.42,0,0,0,79.15,43a.34.34,0,0,1-.2,0H77V48c.83-.27,1.64-.55,2.31-.82.09,0,.18.12.1.18a26.89,26.89,0,0,1-5,3.15c0,.57-.13.77-.38.77s-.63-.63-1.19-2.18a11.11,11.11,0,0,0,1.53-.32c.33-.07.65-.16,1-.27V43.05H74.14a4.48,4.48,0,0,0-.88.11l-.2-.67a3.87,3.87,0,0,0,1,.15h1.22V39.79c0-.86,0-1.57-.09-2.18,2.16.2,2.38.4,2.38.6s-.22.32-.65.54v3.89h.14c.51-.87.73-1,.85-1s.33.14.88.7c.22.23.36.41.36.54Zm1,7.41c0,.56-.12.76-.38.76s-.5-.36-1.2-2.23c.41,0,1-.11,1.55-.22a43.49,43.49,0,0,0,5.54-1.37c.09,0,.18.13.11.18A24.67,24.67,0,0,1,80.19,50.34Zm2.88-5.69c.72-.93.94-1.08,1.06-1.08s.35.15,1,.76c.29.27.43.43.43.56s0,.18-.23.18h-4.7a3.39,3.39,0,0,0-.83.11l-.2-.67a3.27,3.27,0,0,0,1,.14Z"/><path class="cls-1" d="M99.54,42.49c.6-.63.74-.74.88-.74s.31.11.92.69c.25.23.36.38.36.52s0,.23-.45.43c-1,5.46-2.72,8.12-6.57,10.34-.07,0-.18-.13-.11-.18a13.61,13.61,0,0,0,4.05-6.2.68.68,0,0,1-.47.18c-.32,0-.45-.18-.54-.73A3.63,3.63,0,0,0,96.89,45a11.12,11.12,0,0,1-2.28,2.63c-.07.05-.18-.09-.13-.16a16.81,16.81,0,0,0,2.43-8.1h-.72a8,8,0,0,0-1.2.1l-.2-.66a7,7,0,0,0,1.4.14H100c.78-.9,1-1,1.12-1s.36.14,1.12.72c.34.29.48.43.48.56s0,.18-.23.18H98.62A17.24,17.24,0,0,1,98,42.49Zm-1.67.42A11.1,11.1,0,0,1,97,44.78c.76.32,1.69.81,1.85,1.69a25.41,25.41,0,0,0,.72-3.56ZM105.68,44c.07.67.2,1.53.36,2.33l2.18-.33c.72-1.06.86-1.17,1-1.17s.39.11,1.2.58c.42.23.53.34.53.48s-.09.15-.2.17l-4.63.68a11.77,11.77,0,0,0,.69,1.91A9.3,9.3,0,0,0,108.13,47c1.44.75,1.87,1,1.87,1.26s-.12.3-.93.3a12.65,12.65,0,0,1-1.48,1.37,7.65,7.65,0,0,0,.56.69,3.51,3.51,0,0,0,1.42,1.08c.23,0,.36-.15,1.22-2.06,0-.09.26,0,.24.06-.18,1.42-.27,2.12-.27,2.28a.41.41,0,0,0,.2.4,1,1,0,0,1,.41.72.84.84,0,0,1-.9.76,5.46,5.46,0,0,1-3.11-1.8,9.84,9.84,0,0,1-1-1.21,15.59,15.59,0,0,1-7.08,2.43c-.09,0-.16-.16-.07-.18a19.06,19.06,0,0,0,6.47-3.35,11.26,11.26,0,0,1-1-2.75l-2.11.3a4.94,4.94,0,0,0-1.2.29l-.29-.63c.61,0,1.13,0,1.44-.07l2.07-.31c-.18-.88-.29-1.56-.38-2.32L103,44.4a6.32,6.32,0,0,0-1.2.27l-.27-.61A11.8,11.8,0,0,0,103,44l1.13-.17c-.07-.73-.12-1.47-.18-2.21l-1.13.16c-.41.06-.74.15-1.21.25l-.27-.63a8.84,8.84,0,0,0,1.43,0l1.17-.16c0-.36,0-.74,0-1.12a13.92,13.92,0,0,0-.18-2.43c1.91.25,2.29.36,2.29.61s-.07.26-.49.47c0,.87,0,1.6,0,2.25l2.39-.32c.6-.9.74-1,.89-1s.37.11,1,.52c.33.22.43.33.43.47a.16.16,0,0,1-.16.16l-4.55.61c0,.74,0,1.48.11,2.2l1.94-.29c.65-1,.79-1.08.94-1.08s.37.11,1.09.54c.36.22.47.33.47.47a.19.19,0,0,1-.18.18ZM107.77,40c-.32,0-.38,0-.68-.61a3,3,0,0,0-.94-1.1c-.07,0,0-.2.09-.2,1.49.13,2.18.51,2.18,1.25A.63.63,0,0,1,107.77,40Z"/><path class="cls-1" d="M125.1,48.61A11.17,11.17,0,0,0,128,50.38a14.84,14.84,0,0,0,4.73,1c.09,0,.09.17,0,.2-.66.25-.83.4-1.31,1.5a.29.29,0,0,1-.27.19,3.1,3.1,0,0,1-.85-.27,13.42,13.42,0,0,1-3.17-1.74,11.35,11.35,0,0,1-2.3-2.38c0,2.3.11,4,.11,4.48s-.29.69-1.07.69c-.48,0-.7-.2-.7-.6s.09-2.18.13-3.76a13.07,13.07,0,0,1-7.13,3.66c-.09,0-.18-.13-.09-.17a15,15,0,0,0,6-4.61h-4.25a9.21,9.21,0,0,0-1.26.11l-.19-.66a7.48,7.48,0,0,0,1.38.14h5.49V46.53h-3.53a9,9,0,0,0-1.27.1l-.2-.66a7.06,7.06,0,0,0,1.42.14h3.58V44.47h-4.46a9.48,9.48,0,0,0-1.3.11l-.2-.66a8.17,8.17,0,0,0,1.44.14h3c-.24-.07-.36-.31-.51-.83a3.35,3.35,0,0,0-.9-1.55c-.07,0,0-.16.11-.14,1.62.25,2.45.81,2.45,1.64a.92.92,0,0,1-.63.88h2.9a11.83,11.83,0,0,0,.75-1.55,7.32,7.32,0,0,0,.36-1.13c1.46.55,2.06.84,2.06,1.06s-.13.27-.8.3a10.52,10.52,0,0,1-1.76,1.32h3c.85-.94,1.06-1.08,1.19-1.08s.36.14,1.15.75c.34.29.49.44.49.56s-.06.18-.24.18H124.9v1.64h2.81c.78-.86,1-1,1.12-1s.36.15,1,.71c.31.25.45.41.45.54s0,.18-.23.18H124.9V48.2h4.47c.92-1,1.13-1.17,1.26-1.17s.34.14,1.17.81c.36.29.5.47.5.59s-.05.18-.23.18Zm-3.36-9.92a7.41,7.41,0,0,0-.09-1.31c2,.2,2.23.34,2.23.56s-.15.25-.58.45v2.55h1.5V38.69a7.41,7.41,0,0,0-.09-1.31c2.05.22,2.25.34,2.25.56s-.13.25-.6.45v2.55h.74a17.15,17.15,0,0,0,1-2,7.76,7.76,0,0,0,.4-1.21c1.58.67,2.14,1,2.14,1.17s-.13.33-.83.34a11.59,11.59,0,0,1-2.16,1.71h2.11c.81-.9,1-1,1.15-1s.36.14,1.11.72c.35.29.49.43.49.56s-.05.18-.23.18H117.81a8.66,8.66,0,0,0-1.33.11l-.2-.67a7.62,7.62,0,0,0,1.48.14h4Zm-1.93,1.93c-.42,0-.58-.16-.76-.7a3.51,3.51,0,0,0-1-1.77c-.07,0,0-.18.09-.16,1.69.29,2.57.88,2.57,1.73A.93.93,0,0,1,119.81,40.62Z"/><path class="cls-1" d="M140,50.92c0,.47-.36.67-1,.67s-.74-.17-.74-.56c0-1.28.07-2.61.07-7.76,0-1.66,0-3.32-.11-5a14,14,0,0,1,1.86.92h1.55c.59-.72.73-.83.88-.83s.34.11,1,.61c.29.22.4.34.4.49s-.09.27-.49.56v1.69c0,4.46.09,7.54.09,8.57,0,.47-.34.7-1,.7-.49,0-.69-.14-.69-.56v-.65H140Zm1.87-11.31H140v4.52h1.87Zm0,4.94H140v4.82h1.87Zm7.41-1h2.48c.79-1,1-1.14,1.13-1.14s.36.14,1.19.79c.36.31.51.45.51.58s-.06.18-.24.18h-9.29a6.46,6.46,0,0,0-1.06.11l-.2-.67a5.3,5.3,0,0,0,1.21.15h2.55V40.82h-2a5.24,5.24,0,0,0-1,.11l-.19-.67a4.82,4.82,0,0,0,1.18.14h2.07V38.87a11.65,11.65,0,0,0-.09-1.42c2.18.2,2.38.4,2.38.58s-.2.34-.57.48V40.4H151c.77-1,1-1.11,1.11-1.11s.36.14,1.19.77c.38.31.52.45.52.58s-.05.18-.23.18H149.3ZM151.73,49c0,.67.05,2.21.05,2.88s-.07,1-.41,1.35a2.38,2.38,0,0,1-1.73.67.26.26,0,0,1-.29-.24c-.14-.93-.65-1.18-2.07-1.54-.09,0-.09-.22,0-.22.92.05,1.76.07,2.45.07.25,0,.32,0,.32-.29V47h-4.93a6.36,6.36,0,0,0-1.06.11l-.2-.67a5.15,5.15,0,0,0,1.2.15h5v-.8a10.12,10.12,0,0,0-.09-1.44c1.78.17,2.32.29,2.32.54s-.16.31-.55.51v1.19h.43c.66-.8.88-.94,1-.94s.34.14,1,.67c.25.21.39.37.39.5s-.05.18-.23.18h-2.57Zm-4.47,2c-.47,0-.65-.31-.86-1.15a3,3,0,0,0-1.07-1.8c-.07-.06,0-.16.11-.15,2,.4,2.81,1,2.81,2C148.25,50.56,147.89,51,147.26,51Z"/><path class="cls-1" d="M161.62,43.34v10c0,.48-.34.7-1,.7-.53,0-.74-.18-.74-.65,0-1.33.11-2.65.11-8,0-2.68,0-5.36-.13-8a11.62,11.62,0,0,1,1.91.92H165c.62-.7.76-.81.9-.81s.33.11,1,.63c.28.24.39.36.39.51s-.12.29-.52.54v.72c0,1.91,0,3.22,0,3.65s-.35.62-1,.62c-.46,0-.64-.15-.64-.53v-.23Zm3.5-4.68h-3.5v1.85h3.5Zm0,2.27h-3.5v2h3.5Zm.52,10v.63c0,.5-.27.68-.94.68-.48,0-.7-.16-.7-.56,0-.59.05-1.22.05-3.62,0-1.11,0-2.25-.09-3.38a11,11,0,0,1,1.84.88h3.4c.6-.67.74-.78.89-.78s.34.1.95.6c.32.25.43.38.43.52s-.14.27-.5.51v.81c0,2.14,0,3.6,0,4.08s-.27.69-.92.69c-.49,0-.65-.18-.65-.54V51Zm3.78-5h-3.78v2h3.78Zm0,2.38h-3.78v2.16h3.78Zm.61-5v.09c0,.47-.31.67-.9.67s-.72-.15-.72-.54c0-.69,0-1.39,0-4.2,0-.67,0-1.35-.08-2a14.6,14.6,0,0,1,1.86.92h3.22c.63-.7.79-.81.94-.81s.32.11,1,.65c.3.27.41.4.41.54s-.11.31-.48.52V41.3c0,10,0,10.5,0,11a1.57,1.57,0,0,1-.36,1.08,2,2,0,0,1-1.56.52c-.24,0-.31,0-.33-.25-.09-.83-.41-1.1-1.78-1.46-.09,0-.09-.23,0-.23,1.08.07,1.35.09,2.09.09.18,0,.22,0,.22-.26V43.34Zm3.57-4.68H170v1.85h3.57Zm0,2.27H170v2h3.57Z"/><path class="cls-1" d="M656.36,253.79c0,3.56-2.13,5.69-4.78,5.69s-4.68-2-4.68-5.51,2.1-5.72,4.68-5.72S656.36,250.36,656.36,253.79Zm-6.94.1c0,3.15.81,4.89,2.16,4.89s2.23-1.74,2.23-4.89S653,249,651.58,249,649.42,250.72,649.42,253.89Zm1.66,14.28,12.77-20.8.86.52-12.77,20.8ZM668.76,262c0,3.59-2.08,5.72-4.7,5.72s-4.76-2.05-4.76-5.53,2.16-5.7,4.76-5.7S668.76,258.52,668.76,262Zm-6.91.11c0,3.14.83,4.89,2.21,4.89s2.18-1.75,2.18-4.89-.8-4.92-2.18-4.92S661.85,258.91,661.85,262.06Z"/><path class="cls-2" d="M462.82,205.17l47.7-.18L499,231.72q-1.17,2.61-2.52,6.3t-2.79,7.92q-1.44,4.23-2.79,8.37c-.9,2.76-1.72,5.33-2.47,7.69s-1.34,4.37-1.76,6h-15.3c1.08-1.8,2.37-4,3.87-6.53s3.06-5.26,4.68-8.14,3.23-5.74,4.82-8.6,3-5.49,4.27-7.91,2.28-4.46,3.06-6.08l4.68-10H468a6.17,6.17,0,0,0-4.23,1.35,9.78,9.78,0,0,0-2.52,4h-.9Z"/><path class="cls-2" d="M521.77,271.41l-.36-.63q9.63-3,15.08-6.66a24.09,24.09,0,0,0,8-8.37,28.48,28.48,0,0,0,3.15-10.58,126.67,126.67,0,0,0,.63-13.36q0-7.47-.36-12.46a18.47,18.47,0,0,0-1.75-7.48,5,5,0,0,0-4.73-2.47,6,6,0,0,0-5,2.2,13,13,0,0,0-2.34,5.72,43.37,43.37,0,0,0-.63,7.65,42.37,42.37,0,0,0,.59,8,10.87,10.87,0,0,0,1.62,4.27,5.64,5.64,0,0,0,2.29,1.94,5.72,5.72,0,0,0,3.83.27,12.72,12.72,0,0,0,2.92-1.26l.63.72a10.79,10.79,0,0,1-4,4.59,15.21,15.21,0,0,1-6.21,2.34,18.21,18.21,0,0,1-7.11-.32,16.47,16.47,0,0,1-11.43-9.67,22.58,22.58,0,0,1-1.62-9.9,23.44,23.44,0,0,1,3-11,20,20,0,0,1,8.55-7.92q5.76-3,14.67-3.06,13.23-.18,20.3,7t7.06,22.68a48.37,48.37,0,0,1-2.88,17.23,30.69,30.69,0,0,1-8.73,12.65,34.29,34.29,0,0,1-14.58,7.15Q533.56,272.84,521.77,271.41Z"/><path class="cls-2" d="M583.33,269.25a8.07,8.07,0,1,1,5.76-2.39A7.77,7.77,0,0,1,583.33,269.25Z"/><path class="cls-2" d="M597.91,268l.09-.9h1.89a4.78,4.78,0,0,0,3.51-1.44,4.67,4.67,0,0,0,1.44-3.42V216.6q0-3.51-1.62-4.86a6.53,6.53,0,0,0-4.32-1.35h-1.62v-.9c1.26-.06,3-.23,5.09-.5s4.42-.63,6.88-1.08a68,68,0,0,0,7.16-1.71,26.09,26.09,0,0,0,5.89-2.47h.9v58.59a4.46,4.46,0,0,0,1.49,3.37,4.85,4.85,0,0,0,3.46,1.4H630v.9Z"/><path class="cls-1" d="M410.85,40.89a15.1,15.1,0,0,1-1.33,2.47l.12,0h5.71c.69-.72.83-.83,1-.83s.33.11,1,.74c.33.29.43.42.43.56s0,.25-.54.54v1.23c0,5,.06,5.54.06,6.32a1.52,1.52,0,0,1-.58,1.45,2.33,2.33,0,0,1-1.42.45c-.22,0-.29-.07-.34-.41-.11-.74-.45-1-2.16-1.46-.09,0-.09-.22,0-.22,1,.08,1.56.11,2.46.11.24,0,.27,0,.27-.23V49.17h-6c0,1.95,0,3,0,4,0,.5-.38.72-1.08.72-.52,0-.74-.16-.74-.54s.09-2.11.09-3.42v-4.5A15.41,15.41,0,0,1,404,48.09c-.07,0-.2-.16-.13-.21a17.93,17.93,0,0,0,5.23-7h-3.44a12.14,12.14,0,0,0-1.46.11l-.2-.67a9.15,9.15,0,0,0,1.6.15h3.66a14.91,14.91,0,0,0,.86-3.14c1.82.4,2.33.62,2.33.85s-.22.36-.76.5c-.2.63-.42,1.23-.65,1.79h6.07c.88-1,1.1-1.17,1.22-1.17s.38.14,1.26.81c.42.32.56.46.56.59s-.05.18-.23.18Zm4.68,5.1V43.81h-6V46Zm-6,2.77h6V46.4h-6Z"/><path class="cls-1" d="M427.75,48.38a12.57,12.57,0,0,1-2.16,4.25c0,.07-.23,0-.2-.13a24.67,24.67,0,0,0,.78-3.38,14,14,0,0,0,.16-1.95c1.73.53,2,.63,2,.87S428.15,48.29,427.75,48.38Zm-.12-3.44c.57-.9,1.18-2,1.67-3a12.75,12.75,0,0,0,.88-2.18c1.48.61,2,.9,2,1.11s-.18.29-.67.27a25.2,25.2,0,0,1-3.33,3.82c.54,0,1.8,0,2.7-.09a5.62,5.62,0,0,0-.66-1.37c-.06-.07.07-.14.14-.1a5.69,5.69,0,0,1,1.44,1,16.51,16.51,0,0,0,2.88-4.93,13.08,13.08,0,0,0,.63-2.22c1.93.49,2.31.65,2.31.89s-.08.27-.62.32a8.68,8.68,0,0,0,2.15,2.86A8.44,8.44,0,0,0,442.35,43a.09.09,0,0,1,0,.18,1.69,1.69,0,0,0-.91,1.26c-.08.29-.15.38-.31.38a1.52,1.52,0,0,1-.59-.38,10.53,10.53,0,0,1-2-2.18,16,16,0,0,1-1.73-3.58A13.26,13.26,0,0,1,432,44.56a1.92,1.92,0,0,1,.54,1.25.83.83,0,0,1-.77.93c-.49,0-.6-.18-.72-1.22l0-.24c-.38.13-.76.26-1.13.36V48.2c0,1.93.05,4.34.05,5.13,0,.49-.32.69-.92.69s-.72-.13-.72-.53.11-1.6.11-3.94V46c-.52.13-1.1.24-1.71.34-.11.36-.23.51-.38.51s-.38-.36-.68-2c.46,0,.65,0,.95,0Zm.43-6.21a11.36,11.36,0,0,0,.23-1.41c1.46.45,2.16.78,2.16,1s-.23.33-.7.33a16.62,16.62,0,0,1-1.94,2.25,1.61,1.61,0,0,1,.81,1.35c0,.61-.36,1-.83,1s-.52-.07-.79-1.09a3.59,3.59,0,0,0-1-1.86c-.06-.07,0-.23.12-.2a8.58,8.58,0,0,1,1.39.58C427.72,40.08,427.9,39.38,428.06,38.73Zm3.26,12.48c-.4,0-.6-.34-.63-1.46a6.81,6.81,0,0,0-.51-2.38.09.09,0,0,1,.13-.11c1.24,1,1.83,1.89,1.83,2.83C432.14,50.72,431.78,51.21,431.32,51.21Zm3.15,1.35v.66c0,.45-.29.69-1,.69-.51,0-.69-.2-.69-.6,0-.72.09-1.45.09-4.37,0-.92,0-1.84-.09-2.76.9.4,1,.45,1.88.9h3.72c.67-.75.81-.86,1-.86s.32.11.95.65c.27.23.38.36.38.5s-.07.25-.5.58v.84c0,2.27.09,3.82.09,4.33s-.27.68-1,.68c-.5,0-.7-.16-.7-.56v-.68Zm2.63-8.36c.63-.9.84-1,1-1s.36.14,1.08.74c.31.25.45.41.45.54s-.05.18-.24.18h-4.73a6,6,0,0,0-1,.1l-.2-.66a5,5,0,0,0,1.19.14Zm1.49,3.3h-4.12v4.64h4.12Z"/><path class="cls-1" d="M448.65,38.87h-.38a5.13,5.13,0,0,0-.95.11l-.2-.66a5.52,5.52,0,0,0,1.19.14h6c.76-.86,1-1,1.1-1s.36.15,1.08.7c.32.27.47.42.47.54s-.06.18-.24.18h-2.21V44c0,3.44,0,7.71,0,9.13,0,.57-.29.81-1,.81s-.75-.18-.75-.7c0-.35.09-1.41.09-3.52v-.57a22.53,22.53,0,0,1-4.56,2.09c-.12.48-.27.68-.5.68s-.27,0-.87-2.23c.51,0,1.08-.09,1.66-.16Zm1.6,3.08h2.67V38.87h-2.67Zm0,3.35h2.67V42.37h-2.67Zm0,4c.9-.14,1.78-.32,2.67-.54v-3h-2.67Zm10.39-8.86c.74-.82.87-.95,1.05-.95s.34.09,1,.7c.45.4.49.52.49.7s-.15.35-.6.58A19.37,19.37,0,0,1,460,48.56a13.24,13.24,0,0,0,4.14,2.94c.09,0,0,.18-.05.21a1.5,1.5,0,0,0-1,1.19c-.09.38-.15.47-.33.47a1.54,1.54,0,0,1-.66-.38A12.61,12.61,0,0,1,459,49.87a13.26,13.26,0,0,1-4.21,3.37c-.08,0-.22-.18-.15-.23a16.1,16.1,0,0,0,3.58-4.38l-.37-.81a22.5,22.5,0,0,1-1.62-7c-.44,0-.8,0-1.12.09l-.18-.67a5.48,5.48,0,0,0,1.58.16Zm-3.92.42A18.09,18.09,0,0,0,459,47.25a23.53,23.53,0,0,0,1.82-6.43Z"/><path class="cls-1" d="M470.77,45.84a14,14,0,0,1-2.16,1.5c-.07,0-.22-.11-.14-.18a19.21,19.21,0,0,0,3-4.06,8.77,8.77,0,0,0,.81-1.94c1.89.79,2,.85,2,1.06s-.14.25-.63.38A10.87,10.87,0,0,1,472,44.72c.75.13.88.2.88.38s-.11.27-.49.44v7.67c0,.52-.3.75-.93.75-.42,0-.78-.16-.78-.68s.11-1.89.11-4.74Zm2.67-7a13,13,0,0,1-4.6,3.66c-.09,0-.18-.15-.1-.2a15.24,15.24,0,0,0,2.41-3.08,8,8,0,0,0,.9-1.93c1.58.71,2.16,1,2.16,1.25S474,38.8,473.44,38.8Zm8.84,10.79c0,.84,0,1.69,0,2.54a1.49,1.49,0,0,1-.47,1.13,1.91,1.91,0,0,1-1.44.49c-.25,0-.36-.09-.41-.35-.14-.68-.49-.88-1.87-1.26-.09,0-.09-.27,0-.27.86.06,1.55.09,2.23.09.25,0,.31-.05.31-.27V48.15h-5.78a10.08,10.08,0,0,0-1.34.1l-.19-.66a7.72,7.72,0,0,0,1.49.14h5.82V47.3a11.38,11.38,0,0,0-.08-1.35c1.91.22,2.18.29,2.18.56s-.12.23-.48.41v.81h.66c.65-.77.87-.92,1-.92s.36.15,1,.65c.27.22.41.38.41.51s-.05.18-.23.18h-2.81Zm.21-4.36c.71-.85.92-1,1.05-1s.36.14,1.08.68c.32.27.47.42.47.54s-.06.18-.24.18h-9.76a9.34,9.34,0,0,0-1.28.11l-.19-.66a8.19,8.19,0,0,0,1.45.14Zm-5.76-1.78c0,.52-.27.73-.9.73s-.77-.17-.77-.57.09-1,.09-2.86c0-1,0-2.06-.09-3.1a14.3,14.3,0,0,1,1.82.88h4.39c.63-.7.77-.81.92-.81s.32.11.95.65c.29.25.4.38.4.52s0,.24-.51.58v.65c0,1.72.08,2.91.08,3.31s-.31.75-.94.75-.72-.17-.72-.7v0Zm.42,8.3c-.47,0-.62-.18-.83-1a4.2,4.2,0,0,0-1-1.81.13.13,0,0,1,.13-.18c1.84.39,2.63,1.09,2.63,1.89A1,1,0,0,1,477.15,51.75Zm4.3-12.8h-4.72v1.83h4.72Zm0,2.25h-4.72V43h4.72Z"/><path class="cls-1" d="M499.14,49.82c0,1.89.06,3.19.06,3.64s-.4.61-1.05.61-.76-.14-.76-.65.08-1.46.1-3.6h-5.57a9.74,9.74,0,0,0-1.31.11l-.2-.67a7.71,7.71,0,0,0,1.48.15h5.6V49.3a15.94,15.94,0,0,0-.1-2c2.11.22,2.35.29,2.35.56s-.09.23-.6.48v1.07h4.47c.9-1.12,1.11-1.26,1.24-1.26s.36.14,1.28.88c.41.32.56.48.56.61s-.06.18-.24.18ZM492,47.3c0,.54-.07.72-.32.72s-.51-.45-1.19-1.94c.54-.15,1.06-.29,1.55-.45a18.45,18.45,0,0,0,3.22-1.34c.07,0,.23.15.18.22A13.5,13.5,0,0,1,492,47.3ZM497.52,40c1.26.48,1.66.7,1.66.91s0,.2-.63.22A9.35,9.35,0,0,1,497,42.53a1.43,1.43,0,0,1,.61,1.11.77.77,0,0,1-.73.85c-.44,0-.49-.07-.78-1a3.85,3.85,0,0,0-1.1-1.66c-.07-.05,0-.18.08-.16a5.9,5.9,0,0,1,1.44.5c.16-.34.32-.68.46-1a7.45,7.45,0,0,0,.42-1.17H492a9,9,0,0,0-1.26.1l-.2-.66a7.22,7.22,0,0,0,1.43.14h5.43V38.39a6,6,0,0,0-.09-1.07c2.24.2,2.45.4,2.45.6s-.19.36-.63.5v1.19h4.29c1-1.08,1.2-1.22,1.33-1.22s.34.14,1.19.84c.38.33.52.49.52.62s-.05.18-.23.18Zm-4,4.07c-.48,0-.61-.17-.93-1.12a4.37,4.37,0,0,0-1.15-1.93.09.09,0,0,1,.09-.16c2,.58,2.89,1.26,2.89,2.2A1,1,0,0,1,493.52,44.1Zm6.77,1.8a5.18,5.18,0,0,0-.73-1.09c-.06-.07,0-.16.12-.12,1.53.5,2.5,1.33,2.5,2.18a.87.87,0,0,1-.84.92c-.42,0-.51-.13-.76-1.1a3.09,3.09,0,0,0-.14-.43,24.52,24.52,0,0,1-4.7,1.17c-.09.39-.15.48-.31.48s-.39-.3-.77-1.94c.81,0,1.24.05,1.83.05a22.8,22.8,0,0,0,2.31-3,10.38,10.38,0,0,0,.77-1.46c1.55.81,1.82,1,1.82,1.22s0,.2-.75.24a38.17,38.17,0,0,1-3.41,3C498.26,46,499.27,46,500.29,45.9Zm4.49-3.73a13.89,13.89,0,0,1-3.42,2.07c-.09,0-.24-.11-.17-.16A13.14,13.14,0,0,0,503,41.93a6.23,6.23,0,0,0,.68-1.27c1.39.72,1.84,1,1.84,1.24S505.35,42.19,504.78,42.17Zm-.09,5.42c-.45,0-.6-.15-1.1-1a4.94,4.94,0,0,0-1.71-1.8c-.07,0,0-.2.07-.18,2.41.36,3.6,1.06,3.6,2.11A.86.86,0,0,1,504.69,47.59Z"/><path class="cls-1" d="M1012.51,253.79c0,3.56-2.13,5.69-4.78,5.69s-4.68-2-4.68-5.51,2.1-5.72,4.68-5.72S1012.51,250.36,1012.51,253.79Zm-6.94.1c0,3.15.81,4.89,2.16,4.89s2.24-1.74,2.24-4.89-.84-4.91-2.24-4.91S1005.57,250.72,1005.57,253.89Zm1.67,14.28,12.76-20.8.86.52-12.77,20.8Zm17.68-6.22c0,3.59-2.08,5.72-4.71,5.72s-4.76-2.05-4.76-5.53,2.16-5.7,4.76-5.7S1024.92,258.52,1024.92,262Zm-6.92.11c0,3.14.83,4.89,2.21,4.89s2.18-1.75,2.18-4.89-.8-4.92-2.18-4.92S1018,258.91,1018,262.06Z"/><path class="cls-2" d="M829.86,268l.09-.9h1.89a4.78,4.78,0,0,0,3.51-1.44,4.67,4.67,0,0,0,1.44-3.42V216.6q0-3.51-1.62-4.86a6.53,6.53,0,0,0-4.32-1.35h-1.62v-.9c1.26-.06,3-.23,5.09-.5s4.42-.63,6.88-1.08a67.37,67.37,0,0,0,7.16-1.71,25.9,25.9,0,0,0,5.89-2.47h.9v58.59a4.46,4.46,0,0,0,1.49,3.37,4.85,4.85,0,0,0,3.46,1.4H862v.9Z"/><path class="cls-2" d="M895.74,203.73a26.77,26.77,0,0,1,15,4.09,26.43,26.43,0,0,1,9.54,11.43,46.16,46.16,0,0,1,0,34.43,26.26,26.26,0,0,1-9.54,11.47,29.51,29.51,0,0,1-30,0,26.16,26.16,0,0,1-9.59-11.47,46.16,46.16,0,0,1,0-34.43,26.33,26.33,0,0,1,9.59-11.43A26.81,26.81,0,0,1,895.74,203.73Zm0,4.5q-4.68,0-6.84,6.88t-2.16,21.38q0,14.49,2.16,21.37t6.84,6.89q4.68,0,6.84-6.89t2.16-21.37q0-14.49-2.16-21.38T895.74,208.23Z"/><path class="cls-2" d="M957.84,203.73a26.77,26.77,0,0,1,15,4.09,26.43,26.43,0,0,1,9.54,11.43,46.16,46.16,0,0,1,0,34.43,26.26,26.26,0,0,1-9.54,11.47,29.51,29.51,0,0,1-30,0,26.16,26.16,0,0,1-9.59-11.47,46.16,46.16,0,0,1,0-34.43,26.33,26.33,0,0,1,9.59-11.43A26.81,26.81,0,0,1,957.84,203.73Zm0,4.5q-4.68,0-6.84,6.88t-2.16,21.38q0,14.49,2.16,21.37t6.84,6.89q4.68,0,6.84-6.89t2.16-21.37q0-14.49-2.16-21.38T957.84,208.23Z"/><path class="cls-1" d="M777.2,40A14.79,14.79,0,0,1,775,42.33c2.27,0,4.56,0,6.83-.25a7.68,7.68,0,0,0-1.84-1.37c-.07-.05,0-.2.06-.18,2.93.43,4.71,1.46,4.71,2.68a1,1,0,0,1-.92,1c-.34,0-.57-.16-.88-.65s-.56-.83-.79-1.14a58.4,58.4,0,0,1-10,1.45c-.14.45-.22.55-.41.55s-.36-.2-.8-2.28a32.6,32.6,0,0,0,3.26.14,18.11,18.11,0,0,0,.78-2.36H771.3a9,9,0,0,0-1.26.11l-.2-.67a7.41,7.41,0,0,0,1.44.15h5.6V38.24a10.41,10.41,0,0,0-.09-1c2.23.2,2.45.4,2.45.57s-.22.37-.65.51v1.28h4.3c.94-1.08,1.16-1.23,1.28-1.23s.34.15,1.24.85c.38.31.53.49.53.61s-.06.18-.24.18Zm-3,9.92c0,1.73,0,2.6,0,3.51,0,.51-.36.71-1.06.71-.54,0-.74-.18-.74-.74,0-1,.07-1.86.07-5.85,0-1.17,0-2.34-.07-3.51a13.77,13.77,0,0,1,2,.86H781c.6-.7.74-.81.89-.81s.32.11,1.09.72c.35.29.45.41.45.56s-.07.27-.52.56V47c0,4.25,0,4.54,0,5.29a1.46,1.46,0,0,1-.79,1.42,2.79,2.79,0,0,1-1.3.33c-.14,0-.22-.07-.29-.54s-.43-.83-2-1.3c-.09,0-.09-.21,0-.21,1.06.07,1.58.09,2.38.09.16,0,.19-.06.19-.22V49.89Zm6.93-4.61h-6.93v1.86h6.93Zm-6.93,4.2h6.93V47.55h-6.93Z"/><path class="cls-1" d="M798.07,47.75c-.54,3.85-2.27,5.44-6.59,6.07-.09,0-.18-.22-.09-.25,2.61-.94,4-2.13,4.61-4.07a10,10,0,0,0,.3-2.85c2.31.34,2.32.36,2.32.61S798.48,47.55,798.07,47.75ZM794.92,40c0,3.26.07,5.51.07,6.25,0,.58-.29.79-1,.79-.57,0-.79-.16-.79-.68s.09-2.2.09-5.49a23.37,23.37,0,0,0-.13-3.12c2.31.31,2.31.31,2.31.58s-.14.31-.5.43Zm4.17,5.59v.18c0,.5-.27.73-.92.73-.5,0-.75-.19-.75-.55,0-.92.09-1.84.09-5.55,0-.85,0-1.71-.09-2.58a13.24,13.24,0,0,1,1.82.89h4.64c.67-.7.81-.81,1-.81s.32.11.95.65c.29.25.4.37.4.52s-.06.25-.51.56v1c0,2.7.07,4.54.07,5.15s-.28.74-1,.74c-.5,0-.68-.18-.68-.68v-.25Zm5-6.47h-5v2.76h5Zm0,3.17h-5v2.88h5Zm-2.41,9c0,.85.16.89,1.47.89,1.52,0,2.09-.13,2.4-.38s.47-.49,1.13-2.34c0-.09.24-.06.24,0,0,.64-.11,1.66-.11,1.89s0,.31.31.45a.73.73,0,0,1,.43.67c0,.45-.29.76-1,1a13.79,13.79,0,0,1-3.33.28c-2.67,0-3.21-.37-3.21-1.69,0-.54,0-1.06,0-2.74,0-1,0-1.69-.09-2.59,2.18.24,2.31.33,2.31.56s-.15.29-.56.49Z"/><path class="cls-1" d="M814.7,44.44a16.14,16.14,0,0,1-2,2c-.07.05-.24-.09-.18-.16a19.57,19.57,0,0,0,3-6,15.75,15.75,0,0,0,.65-3c1.64.45,2.38.76,2.38,1s-.18.32-.63.4A20.6,20.6,0,0,1,815.81,43c.83.13,1,.2,1,.38s-.11.27-.47.43v9.42c0,.52-.31.75-.94.75-.39,0-.77-.16-.77-.68s.11-1.89.11-4.74Zm8.87-.8c0,4.31.13,7,.13,9.62,0,.49-.31.67-1.06.67-.56,0-.81-.17-.81-.53,0-.93.12-4.79.14-8.26a16.69,16.69,0,0,1-5.31,5.51c-.07.05-.23-.09-.18-.16a21.33,21.33,0,0,0,4.75-8.05h-2.79a6,6,0,0,0-1.11.11l-.2-.67a5.4,5.4,0,0,0,1.24.14h3.55V39.74a16.93,16.93,0,0,0-.11-2.29c2.38.32,2.41.32,2.41.63s-.18.33-.65.54V42h2.83c.85-1.08,1.06-1.22,1.19-1.22s.34.14,1.17.85c.36.32.5.48.5.61s0,.18-.23.18h-5.35a11.33,11.33,0,0,0,2.38,3.65,12.1,12.1,0,0,0,3.78,2.7c.09,0,0,.2,0,.22-.41.09-.75.43-1,1.08-.17.42-.22.45-.4.45a1.23,1.23,0,0,1-.61-.32,11.45,11.45,0,0,1-2.43-3,14.48,14.48,0,0,1-1.77-4.37Z"/><path class="cls-1" d="M843.39,48.61a11.17,11.17,0,0,0,2.94,1.77,14.84,14.84,0,0,0,4.73,1c.09,0,.09.17,0,.2-.67.25-.83.4-1.31,1.5a.31.31,0,0,1-.27.19,3.1,3.1,0,0,1-.85-.27,13.22,13.22,0,0,1-3.17-1.74,11.11,11.11,0,0,1-2.3-2.38c.05,2.3.1,4,.1,4.48s-.28.69-1.06.69c-.48,0-.7-.2-.7-.6s.09-2.18.13-3.76a13.07,13.07,0,0,1-7.13,3.66c-.09,0-.18-.13-.09-.17a15,15,0,0,0,6-4.61h-4.25a9.08,9.08,0,0,0-1.26.11l-.2-.66a7.66,7.66,0,0,0,1.39.14h5.49V46.53H838a9.28,9.28,0,0,0-1.28.1l-.19-.66a7.06,7.06,0,0,0,1.42.14h3.58V44.47h-4.46a9.48,9.48,0,0,0-1.3.11l-.2-.66a8.17,8.17,0,0,0,1.44.14h3c-.24-.07-.36-.31-.51-.83a3.35,3.35,0,0,0-.9-1.55c-.07,0,0-.16.11-.14,1.62.25,2.45.81,2.45,1.64a.92.92,0,0,1-.63.88h2.9a11.83,11.83,0,0,0,.75-1.55,8.59,8.59,0,0,0,.36-1.13c1.46.55,2.06.84,2.06,1.06s-.13.27-.8.3A10.52,10.52,0,0,1,844,44.06h3c.84-.94,1.06-1.08,1.19-1.08s.36.14,1.15.75c.34.29.48.44.48.56s-.05.18-.23.18h-6.43v1.64H846c.78-.86,1-1,1.12-1s.36.15,1,.71c.31.25.45.41.45.54s-.05.18-.23.18h-5.19V48.2h4.47c.92-1,1.13-1.17,1.26-1.17s.34.14,1.17.81c.36.29.5.47.5.59s-.05.18-.23.18ZM840,38.69a5.85,5.85,0,0,0-.09-1.31c2,.2,2.24.34,2.24.56s-.15.25-.58.45v2.55h1.49V38.69a5.85,5.85,0,0,0-.09-1.31c2.06.22,2.26.34,2.26.56s-.13.25-.6.45v2.55h.74a17.15,17.15,0,0,0,1-2,7.66,7.66,0,0,0,.39-1.21c1.59.67,2.15,1,2.15,1.17s-.13.33-.83.34A11.59,11.59,0,0,1,846,40.94h2.1c.81-.9,1-1,1.16-1s.36.14,1.11.72c.34.29.49.43.49.56s0,.18-.24.18H836.1a8.66,8.66,0,0,0-1.33.11l-.2-.67a7.53,7.53,0,0,0,1.47.14h4Zm-1.92,1.93c-.42,0-.58-.16-.76-.7a3.66,3.66,0,0,0-1-1.77c-.07,0,0-.18.09-.16,1.69.29,2.57.88,2.57,1.73A.93.93,0,0,1,838.1,40.62Z"/><path class="cls-1" d="M864.94,49.82c0,1.89,0,3.19,0,3.64s-.4.61-1,.61-.76-.14-.76-.65.07-1.46.09-3.6h-5.56a9.74,9.74,0,0,0-1.32.11l-.2-.67a7.79,7.79,0,0,0,1.48.15h5.6V49.3a18.17,18.17,0,0,0-.09-2c2.11.22,2.34.29,2.34.56s-.09.23-.59.48v1.07h4.46c.9-1.12,1.12-1.26,1.24-1.26s.36.14,1.28.88c.42.32.56.48.56.61s-.05.18-.23.18Zm-7.12-2.52c0,.54-.07.72-.32.72s-.5-.45-1.19-1.94c.54-.15,1.06-.29,1.55-.45a17.82,17.82,0,0,0,3.22-1.34c.08,0,.24.15.18.22A13.33,13.33,0,0,1,857.82,47.3Zm5.5-7.27c1.26.48,1.65.7,1.65.91s0,.2-.63.22a9.32,9.32,0,0,1-1.58,1.37,1.46,1.46,0,0,1,.61,1.11.77.77,0,0,1-.74.85c-.43,0-.48-.07-.77-1a3.94,3.94,0,0,0-1.1-1.66.09.09,0,0,1,.07-.16,5.61,5.61,0,0,1,1.44.5c.16-.34.33-.68.47-1a6.52,6.52,0,0,0,.41-1.17h-5.36a8.8,8.8,0,0,0-1.26.1l-.2-.66a7.13,7.13,0,0,0,1.42.14h5.44V38.39a7.11,7.11,0,0,0-.09-1.07c2.23.2,2.45.4,2.45.6s-.2.36-.63.5v1.19h4.28c1-1.08,1.21-1.22,1.34-1.22s.34.14,1.18.84c.38.33.53.49.53.62s-.06.18-.24.18Zm-4,4.07c-.49,0-.61-.17-.94-1.12a4.19,4.19,0,0,0-1.15-1.93.1.1,0,0,1,.09-.16c2,.58,2.9,1.26,2.9,2.2A1,1,0,0,1,859.32,44.1Zm6.77,1.8a5.26,5.26,0,0,0-.74-1.09c-.05-.07,0-.16.13-.12,1.53.5,2.5,1.33,2.5,2.18a.88.88,0,0,1-.85.92c-.41,0-.5-.13-.75-1.1a3.12,3.12,0,0,0-.15-.43,24.52,24.52,0,0,1-4.7,1.17c-.09.39-.14.48-.3.48s-.4-.3-.78-1.94c.81,0,1.25.05,1.84.05a22.65,22.65,0,0,0,2.3-3,11.68,11.68,0,0,0,.78-1.46c1.55.81,1.82,1,1.82,1.22s0,.2-.76.24a38.47,38.47,0,0,1-3.4,3C864.05,46,865.06,46,866.09,45.9Zm4.48-3.73a13.71,13.71,0,0,1-3.42,2.07c-.09,0-.23-.11-.16-.16a13.12,13.12,0,0,0,1.78-2.15,5.88,5.88,0,0,0,.69-1.27c1.38.72,1.83,1,1.83,1.24S871.15,42.19,870.57,42.17Zm-.09,5.42c-.45,0-.59-.15-1.1-1a4.78,4.78,0,0,0-1.71-1.8c-.07,0,0-.2.08-.18,2.41.36,3.6,1.06,3.6,2.11A.87.87,0,0,1,870.48,47.59Z"/><path class="cls-1" d="M887.58,50.23A17.64,17.64,0,0,1,880,54c-.09,0-.2-.2-.11-.23a22,22,0,0,0,6.68-4.61,17.13,17.13,0,0,1-3-7.76,23,23,0,0,1-1.4,7,10.68,10.68,0,0,1-4.56,5.42c-.07.05-.2-.13-.14-.2a13.58,13.58,0,0,0,3.31-5.64A30.25,30.25,0,0,0,881.8,39H880a6.38,6.38,0,0,0-1.38.11l-.17-.67a6,6,0,0,0,1.5.15h7.2c.63-.76.78-.87.92-.87s.32.11,1.06.8c.34.3.45.45.45.59s-.18.38-.63.52a25.13,25.13,0,0,1-1,3.22h2c.67-.81.77-.88.94-.88s.32.07,1.13.7c.43.33.52.47.52.69s-.18.3-.65.43a15.83,15.83,0,0,1-3.2,5.38A15.12,15.12,0,0,0,894.42,52c.09,0,.08.18,0,.22-.85.31-1,.47-1.25,1.37,0,.2-.12.29-.23.29a3.37,3.37,0,0,1-1.23-.53,23.33,23.33,0,0,1-4-3Zm-4-10.15a16.56,16.56,0,0,0,3.91,8,14.42,14.42,0,0,0,2.56-4.81h-2.27l0,.09a.81.81,0,0,1-.9.58c-.57,0-.92-.22-.92-.53a3.05,3.05,0,0,1,.22-.65A23.29,23.29,0,0,0,887.28,39H883.6c0,.33,0,.63,0,1Z"/><path class="cls-1" d="M910.15,43.75c0,.63,0,1.14,0,1.59a13.15,13.15,0,0,1-.31,3.44c-.64,2.57-2.39,4.3-5,4.3a4,4,0,0,1-3.29-1.4,5.3,5.3,0,0,1-1.1-3.37,11.15,11.15,0,0,1,2.4-6.59c-.33,0-.87.05-1.14.05a1.76,1.76,0,0,1-1.53-.68,2.15,2.15,0,0,1-.38-1.12c0-.09,0-.23.15-.23s.18.09.23.18c.25.45.52.57,1.24.57A7.82,7.82,0,0,0,904,40a2,2,0,0,0,.52-.34.86.86,0,0,1,.56-.18,1.6,1.6,0,0,1,1.17.79.5.5,0,0,1,.09.27c0,.2-.14.36-.41.45a3.77,3.77,0,0,0-1.16.76,11.71,11.71,0,0,0-2,2.41A8,8,0,0,0,901.51,48a3.34,3.34,0,0,0,.81,2.46,3.06,3.06,0,0,0,2.5.92c3.17,0,4.22-2.74,4.58-5.44a13.84,13.84,0,0,0,.12-2.9,5.12,5.12,0,0,0-.48-2.14,1.75,1.75,0,0,1-.16-.75c0-.36.37-.62.91-.62a.69.69,0,0,1,.71.69,4.93,4.93,0,0,0,.21,1.74A7.66,7.66,0,0,0,912,44.24,9.54,9.54,0,0,0,913.61,46a1.68,1.68,0,0,1,.59,1.2.91.91,0,0,1-.28.67.64.64,0,0,1-.51.21c-.34,0-.81-.3-1.49-1.2a11,11,0,0,1-1.66-3.12Zm2.78-4a1.36,1.36,0,0,1,.66,1.08.6.6,0,0,1-.59.63.64.64,0,0,1-.61-.42,6.9,6.9,0,0,0-1.14-1.58c-.07-.07-.2-.16-.2-.23s0-.09.09-.11a.7.7,0,0,1,.29,0A3.51,3.51,0,0,1,912.93,39.74Zm1.65-1.21a1.16,1.16,0,0,1,.65.92.6.6,0,0,1-.56.67.68.68,0,0,1-.66-.4,4.53,4.53,0,0,0-1.26-1.4c-.08-.06-.22-.15-.22-.22a.13.13,0,0,1,.05-.11.63.63,0,0,1,.29,0A3.76,3.76,0,0,1,914.58,38.53Z"/><path class="cls-1" d="M921.92,46.13a14.81,14.81,0,0,1-2,1.51c-.07.06-.2-.11-.14-.18a19.69,19.69,0,0,0,2.93-4.27,10.33,10.33,0,0,0,.74-1.92c1.73.74,2,.86,2,1.06s-.14.27-.63.4a11.87,11.87,0,0,1-1.6,2.19c.76.13.88.2.88.38s-.12.27-.48.43v7.62c0,.52-.31.76-.94.76-.41,0-.78-.15-.78-.63s.11-1.91.11-4.79Zm2.69-7.31a12.86,12.86,0,0,1-4.49,3.76c-.07,0-.2-.11-.12-.18a15.67,15.67,0,0,0,2.3-3.11,9.17,9.17,0,0,0,.85-1.95c1.44.51,2.23.9,2.23,1.16S925.15,38.8,924.61,38.82Zm4.19,7.29c1.26.36,1.68.54,1.68.74s-.11.25-.74.41c-.11.17-.2.31-.31.45h3c.64-.64.79-.75.93-.75s.33.11,1.05.7c.32.29.43.41.43.56s-.18.34-.85.48A13.06,13.06,0,0,1,931.7,51a13,13,0,0,0,5.19,1c.09,0,.09.18,0,.22a1.71,1.71,0,0,0-1,1.33c-.05.29-.12.38-.27.38a4,4,0,0,1-.9-.22,12.56,12.56,0,0,1-3.94-2,16.16,16.16,0,0,1-6.68,2.23c-.09,0-.18-.18-.09-.21a19.38,19.38,0,0,0,5.85-2.89,10.23,10.23,0,0,1-1.33-1.87,10.13,10.13,0,0,1-4.14,2.67c-.09,0-.18-.11-.11-.16a13.31,13.31,0,0,0,3.4-3.55,6.07,6.07,0,0,0,.83-1.75h-.29c0,.45-.34.63-.9.63s-.74-.18-.74-.52.06-1,.06-2.94c0-.35,0-.77,0-1.22a9.44,9.44,0,0,1-1.21,1.08c-.07,0-.2,0-.14-.13A17.13,17.13,0,0,0,927,39.18a9.24,9.24,0,0,0,.47-1.82c1.8.54,2.22.72,2.22,1s-.11.29-.76.42c-.14.29-.31.56-.47.84h5.17c.88-1.06,1.1-1.2,1.22-1.2s.35.14,1.19.84c.36.31.51.47.51.6s-.06.18-.24.18h-8.1c-.25.38-.5.74-.77,1.08a5.72,5.72,0,0,1,.82.48h4.7c.56-.63.71-.73.85-.73s.34.1,1,.61c.29.23.4.36.4.5s-.13.29-.51.51V43c0,1.52.06,2.54.06,2.88,0,.51-.29.74-.94.74-.41,0-.67-.14-.72-.54ZM933.05,42h-4.88v1.58h4.88Zm0,2h-4.88V45.7h4.88Zm-3.92,4.14c-.17.21-.29.36-.44.52a8,8,0,0,0,1.79,1.6,12.69,12.69,0,0,0,2-2.12Z"/><path class="cls-1" d="M946.42,40.22c0,6.23-.32,8.27-1.35,10.21A8.69,8.69,0,0,1,942,53.78c-.09.06-.27-.12-.2-.21a10.62,10.62,0,0,0,2.2-3.66c.68-1.93.88-3.56.88-8a38.3,38.3,0,0,0-.16-4.28c2.17.27,2.37.32,2.37.59s-.09.27-.63.49Zm-2.77,1.88c0,2.77.05,4.3.05,4.8s-.36.62-.92.62-.68-.15-.68-.65.09-1.64.09-4.67a22.55,22.55,0,0,0-.09-2.32c1.89.22,2.09.29,2.09.52s-.09.27-.54.49Zm12.21,2.5c.7-.76.84-.87,1-.87s.3.11,1.17.92c.39.38.5.53.5.67,0,.32-.11.36-1,.34a.7.7,0,0,0-.47.16c-.38.24-.7.42-1.08.62-.05,0-.14,0-.12-.09a6.44,6.44,0,0,0,.3-1.34h-8c0,.17,0,.33,0,.49a2.7,2.7,0,0,1-.2,1.08c.51.23.83.4,1.41.7h1.89a16.72,16.72,0,0,0-.09-1.92c2.18.25,2.25.27,2.25.54s-.14.28-.63.5v.88h1.93c.63-.66.77-.77.91-.77s.33.11,1,.65c.31.25.42.37.42.52s-.09.27-.52.52v.47c0,1.73,0,2,0,2.32a1.42,1.42,0,0,1-.67,1.37,2.42,2.42,0,0,1-1,.23c-.2,0-.29-.07-.34-.37-.09-.53-.38-.81-1.33-1-.11,0-.11-.21,0-.21.63,0,1,0,1.49,0,.22,0,.24-.05.24-.22V47.7h-2.2c0,3,0,5,0,5.67,0,.5-.32.7-.95.7s-.72-.14-.72-.63.09-2.3.09-5.74h-2v4.06c0,.55-.3.78-.91.78s-.72-.18-.72-.49.07-.9.07-2.81c0-.77,0-1.45,0-2.21a.92.92,0,0,1-.59.2.82.82,0,0,1-.81-.88c0-.33.11-.51.48-.81a2,2,0,0,0,.85-1.82c0-.11.16-.16.2-.06a3.33,3.33,0,0,1,.3.94Zm-1.16-5.8h-5.47a4.35,4.35,0,0,0-1.1.15l-.2-.71a5.76,5.76,0,0,0,1.26.15h5.32c.64-.76.79-.87.93-.87s.33.11,1,.67c.31.27.41.4.41.54s-.05.18-.57.59v.6c0,1.56.05,2.64.05,3,0,.5-.27.7-1,.7-.47,0-.65-.16-.67-.61h-5.6a4.27,4.27,0,0,0-1,.12l-.19-.66a5.76,5.76,0,0,0,1.15.12h5.63V40.87h-5.13a4.34,4.34,0,0,0-1,.13l-.2-.67a5.94,5.94,0,0,0,1.16.13h5.16Z"/><path class="cls-1" d="M972.09,49.82c0,1.89.06,3.19.06,3.64s-.4.61-1,.61-.76-.14-.76-.65.08-1.46.09-3.6h-5.56a9.61,9.61,0,0,0-1.31.11l-.2-.67a7.64,7.64,0,0,0,1.48.15h5.59V49.3a16,16,0,0,0-.09-2c2.11.22,2.35.29,2.35.56s-.09.23-.6.48v1.07h4.47c.9-1.12,1.11-1.26,1.24-1.26s.36.14,1.28.88c.41.32.56.48.56.61s-.06.18-.24.18ZM965,47.3c0,.54-.07.72-.33.72s-.5-.45-1.18-1.94c.54-.15,1.06-.29,1.54-.45a18.24,18.24,0,0,0,3.23-1.34c.07,0,.23.15.18.22A13.5,13.5,0,0,1,965,47.3ZM970.47,40c1.26.48,1.66.7,1.66.91s0,.2-.63.22a9.75,9.75,0,0,1-1.59,1.37,1.43,1.43,0,0,1,.61,1.11.77.77,0,0,1-.73.85c-.44,0-.49-.07-.78-1a3.85,3.85,0,0,0-1.1-1.66c-.07-.05,0-.18.08-.16a5.9,5.9,0,0,1,1.44.5c.16-.34.32-.68.46-1a7.45,7.45,0,0,0,.42-1.17h-5.37a9,9,0,0,0-1.26.1l-.2-.66a7.15,7.15,0,0,0,1.43.14h5.43V38.39a6,6,0,0,0-.09-1.07c2.24.2,2.45.4,2.45.6s-.19.36-.63.5v1.19h4.29c1-1.08,1.2-1.22,1.33-1.22s.34.14,1.19.84c.38.33.52.49.52.62s0,.18-.23.18Zm-4,4.07c-.48,0-.61-.17-.93-1.12a4.29,4.29,0,0,0-1.16-1.93.1.1,0,0,1,.09-.16c2,.58,2.9,1.26,2.9,2.2A1,1,0,0,1,966.47,44.1Zm6.77,1.8a5.18,5.18,0,0,0-.73-1.09c-.06-.07,0-.16.12-.12,1.53.5,2.5,1.33,2.5,2.18a.87.87,0,0,1-.84.92c-.42,0-.51-.13-.76-1.1a3.09,3.09,0,0,0-.14-.43,24.52,24.52,0,0,1-4.7,1.17c-.09.39-.15.48-.31.48s-.39-.3-.77-1.94c.81,0,1.24.05,1.83.05a22.8,22.8,0,0,0,2.31-3,10.38,10.38,0,0,0,.77-1.46c1.55.81,1.82,1,1.82,1.22s0,.2-.75.24a39.67,39.67,0,0,1-3.41,3C971.21,46,972.22,46,973.24,45.9Zm4.49-3.73a13.89,13.89,0,0,1-3.42,2.07c-.09,0-.24-.11-.17-.16a13.14,13.14,0,0,0,1.79-2.15,6.23,6.23,0,0,0,.68-1.27c1.39.72,1.84,1,1.84,1.24S978.3,42.19,977.73,42.17Zm-.09,5.42c-.45,0-.6-.15-1.1-1a4.94,4.94,0,0,0-1.71-1.8c-.07,0,0-.2.07-.18,2.41.36,3.6,1.06,3.6,2.11A.86.86,0,0,1,977.64,47.59Z"/><line class="cls-3" x1="732.14" y1="308.93" x2="732.14"/><line class="cls-3" x1="365.47" y1="308.93" x2="365.47"/><path class="cls-1" d="M807.8,99.34a7.69,7.69,0,1,0-7.7-7.69A7.69,7.69,0,0,0,807.8,99.34Z"/><path class="cls-1" d="M827.93,126.13l-2.68-11.25c-2.64-10.26-11.5-12.68-17.46-12.68s-14.81,2.42-17.45,12.68l-5.24,22a3,3,0,1,0,5.71,1.77l6.09-16.14.15,3.5a26.78,26.78,0,0,0-4.11,13.9c0,3.35,3.4,18.61,3.4,18.61h2.09l1,22.48a3.51,3.51,0,0,0,7,0l.88-22.41h1l.88,22.41a3.51,3.51,0,0,0,7,0l.95-22.48h2.09s3.4-15.26,3.4-18.61a24.34,24.34,0,0,0-.68-5.67L812.26,138a4.5,4.5,0,0,1-1.8.37,4.55,4.55,0,0,1-1.88-8.71l9.88-4.88c0,.06.23-2.29.23-2.29l1.24,3.3-10.68,5.29a3,3,0,1,0,2.41,5.48L826.05,131C827.91,130.15,828.45,128.24,827.93,126.13Z"/><path class="cls-1" d="M868.6,169.2l-.22.31-7-5.38c2.05-2.64,3.62-4.68,3.62-4.68a.63.63,0,0,1,1.19.13l.32.7a1.53,1.53,0,0,0,1.65.83l6-1.36a.75.75,0,0,1,1,.91l-.46,2.7a1.9,1.9,0,0,1-1.36,1.43l-3.36.72c-.65.14-.63.24,0,.22l1.88-.06c.65,0,1,.44.67,1a2.63,2.63,0,0,1-1.68,1.26l-.42.08A3.45,3.45,0,0,0,868.6,169.2Z"/><path class="cls-1" d="M848.33,170.47c.23-.95.66-.49.84-.16a15.48,15.48,0,0,0,3.69,4.78c1.33-1.64,4.56-5.79,7.36-9.4l7,5.42-.91,1.3c1.06,2.83,3.13,8.69,3.13,8.69a1.42,1.42,0,0,1-.87,1.81,1.39,1.39,0,0,1-1.76-.88l-3-6.09-1,1.39a2.34,2.34,0,0,1,.62,1.53l0,.64h.16c3.09,0,3.26,3.43.17,3.43h-9.61c-3.21,0-4.22-2.5-3.22-5.07C849.75,176.57,847.45,173.68,848.33,170.47Z"/><path class="cls-1" d="M896.73,91.54a7.89,7.89,0,1,1-7.89-7.89A7.89,7.89,0,0,1,896.73,91.54Z"/><path class="cls-1" d="M888.87,102.18h0c-5.32,0-16.8,2.27-16.8,13.52L873.45,143a3.16,3.16,0,0,0,3.35,3,3.07,3.07,0,0,0,2.47-1.87l1.05,35.66a4,4,0,1,0,8,0l.52-30h0l.52,30a4,4,0,1,0,8,0l1.06-35.66a3,3,0,0,0,2.46,1.87,3.15,3.15,0,0,0,3.35-3l1.38-27.32C905.66,104.45,894.18,102.18,888.87,102.18Z"/><path class="cls-1" d="M934.45,91.64a7.89,7.89,0,1,1-7.88-7.89A7.88,7.88,0,0,1,934.45,91.64Z"/><path class="cls-1" d="M936.85,134.53c.19-2.33.33-4.82.33-4.82,5.74-2,6.2-12.47,6.2-12.47,0-11.26-9.19-15-16.79-15-7.36,0-16.4,4.27-16.79,15,0,0-.1,11,6.67,15.53l.12,1.32c-1.3,3.31-5.18,14.12-5.18,25.87H918L919,180a4,4,0,0,0,3.81,4.14,3.79,3.79,0,1,1,7.57,0,4,4,0,0,0,3.8-4.14l1-20.08h6.71C941.86,148.69,938.29,138.27,936.85,134.53Z"/><path class="cls-4" d="M934.07,111.2a4,4,0,1,1-.92,5.56A4,4,0,0,1,934.07,111.2Z"/><path class="cls-4" d="M920.57,122a1.9,1.9,0,0,1,2.33-1.39c1.32.31,3.46,1.12,3.46,1.12l2.66-1.75-2.56-1.21a.93.93,0,0,1-.26-.18,1.16,1.16,0,0,1,0-1.67,1.22,1.22,0,0,1,1.21-.33s5.55,1.84,6.51,2.1a2.23,2.23,0,0,1,.81,4l-.05.05-2.81.3a2.87,2.87,0,0,0-2.64,3.1,1.86,1.86,0,0,0,0,.33,4.8,4.8,0,0,1-3.62.38,6.7,6.7,0,0,1-2.47-1.05l-.21.61-3.57,0Z"/><path class="cls-1" d="M1027.64,91.79a7.47,7.47,0,1,1-7.47-7.47A7.47,7.47,0,0,1,1027.64,91.79Z"/><path class="cls-1" d="M991.89,142.65a6.59,6.59,0,1,1-6.58-6.59A6.58,6.58,0,0,1,991.89,142.65Z"/><path class="cls-1" d="M977.37,181.21a3.88,3.88,0,1,1-3.88-3.88A3.88,3.88,0,0,1,977.37,181.21Z"/><path class="cls-1" d="M991.14,181.21a3.88,3.88,0,1,1-3.88-3.88A3.88,3.88,0,0,1,991.14,181.21Z"/><path class="cls-1" d="M983.1,175.84H970.19l2.18-3.92H983.1c1.59,0,4.56-1.4,5.77-5.14.81-2.52,6.07-22.11,6.13-22.35l.39-1.46h10.87l-1.18,3.93H998.4s-5.07,18.81-5.8,21.08C990.93,173.14,986.56,175.84,983.1,175.84Z"/><path class="cls-1" d="M983.63,150.63c-3.11.52-13.63,3.21-13.63,3.21a2,2,0,0,0,.88,4l6.75-.79-1.31,5H971.2c-2.28,0-3.83.8-4.69,2.69l-4.07,9.08a2.69,2.69,0,0,0,1.38,3.54,2.73,2.73,0,0,0,3.54-1.38l3.51-6.2h10.35c2.07,0,4.58-1.2,5.23-3.59s2.78-10.83,2.78-10.83C990.26,151.63,987.27,150,983.63,150.63Z"/><path class="cls-1" d="M1039.79,161.26l-.74-5.14h9.6s-5.82-23.77-15.93-30.09c0,0-3.55-16.19-4.81-20.23s-10.17-7.15-14.91,4.3l-4.13,10.46-5.5,13.94a2.9,2.9,0,1,0,5.3,2.37l6.71-13.4.43-.86,1.65,6.2-8.3,51.72a3.79,3.79,0,1,0,7.42,1.53l6.55-25.94h5.92l1.61,6.86,4.46,19a3.79,3.79,0,0,0,7.44-1.4Z"/><rect class="cls-1" x="502.71" y="80.54" width="101.09" height="56.44"/><path class="cls-5" d="M524.41,147.61a9.58,9.58,0,1,0-9.58-9.58A9.57,9.57,0,0,0,524.41,147.61Z"/><path class="cls-5" d="M524.41,152.73c-7,0-12.14,8.3-12.14,13.41v10.22h24.28V166.14C536.55,161,531.44,152.73,524.41,152.73Z"/><path class="cls-5" d="M554.87,147.61a9.58,9.58,0,1,0-9.58-9.58A9.57,9.57,0,0,0,554.87,147.61Z"/><path class="cls-5" d="M554.87,152.73c-7,0-12.14,8.3-12.14,13.41v10.22H567V166.14C567,161,561.9,152.73,554.87,152.73Z"/><path class="cls-5" d="M582.33,154.73a7.21,7.21,0,1,0-7.21-7.21A7.21,7.21,0,0,0,582.33,154.73Z"/><path class="cls-5" d="M582.33,158.58c-5.29,0-9.13,6.25-9.13,10.09v7.69h18.26v-7.69C591.46,164.83,587.62,158.58,582.33,158.58Z"/><path class="cls-1" d="M524.41,147.61a9.58,9.58,0,1,0-9.58-9.58A9.57,9.57,0,0,0,524.41,147.61Z"/><path class="cls-1" d="M524.41,152.73c-7,0-12.14,8.3-12.14,13.41v10.22h24.28V166.14C536.55,161,531.44,152.73,524.41,152.73Z"/><path class="cls-1" d="M554.87,147.61a9.58,9.58,0,1,0-9.58-9.58A9.57,9.57,0,0,0,554.87,147.61Z"/><path class="cls-1" d="M554.87,152.73c-7,0-12.14,8.3-12.14,13.41v10.22H567V166.14C567,161,561.9,152.73,554.87,152.73Z"/><path class="cls-1" d="M582.33,154.73a7.21,7.21,0,1,0-7.21-7.21A7.21,7.21,0,0,0,582.33,154.73Z"/><path class="cls-1" d="M582.33,158.58c-5.29,0-9.13,6.25-9.13,10.09v7.69h18.26v-7.69C591.46,164.83,587.62,158.58,582.33,158.58Z"/><rect class="cls-1" x="502.71" y="175.71" width="101.09" height="6.65"/><rect class="cls-1" x="130.37" y="169.44" width="107.9" height="11.23"/><polygon class="cls-1" points="157.22 166.48 185.55 166.48 202.79 166.48 202.79 157.61 181.47 157.61 172.5 133.23 130.62 133.23 143.67 166.48 157.22 166.48"/><path class="cls-1" d="M197.12,114.55c.66,3.3,1.76,6.21,3.2,7.64v4a1.25,1.25,0,0,1,0,.32l7.45,3.19,7.44-3.19a1.25,1.25,0,0,1,0-.32v-4c1.45-1.43,2.55-4.34,3.2-7.64,1.52-.48,2.4-1.26,3.48-4.65,1.16-3.62-1.74-3.5-1.74-3.5,2.34-6.91-.74-13.41-5.91-12.93-3.56-5.56-15.49,1.27-19.24.79a6.86,6.86,0,0,0,.89,3.33c-1.3,2.2-.8,6.59-.43,8.81-.21,0-2.83,0-1.72,3.5S195.6,114.07,197.12,114.55Z"/><rect class="cls-1" x="204.91" y="131.31" width="5.62" height="4.34"/><path class="cls-1" d="M206.61,153.8v12.68H238c-1.67-15.58-9.19-30.16-14.36-31.89a16.42,16.42,0,0,1-1.81-.76l-10.58,13-.75-8.53h-5.61l-.75,8.53-10.56-13a13,13,0,0,1-1.83.76c-2.75.86-6.34,7.49-9.15,15.09l1.51,4.12Z"/><polyline class="cls-6" points="153.08 91.34 153.08 104.99 157.43 112.94"/></svg>