<svg id="pc" xmlns="http://www.w3.org/2000/svg" viewBox="0 0 1100 339.86"><defs><style>.cls-1{fill:#333;}.cls-2{fill:#e8314b;}.cls-3,.cls-4,.cls-6{fill:none;stroke-miterlimit:10;}.cls-3,.cls-6{stroke:#e8314b;}.cls-3{stroke-width:1.76px;}.cls-4{stroke:#ccc;}.cls-5{fill:#fff;}</style></defs><path class="cls-1" d="M721.05,283.56c0,3.57-2.13,5.7-4.78,5.7s-4.68-2-4.68-5.51,2.1-5.72,4.68-5.72S721.05,280.13,721.05,283.56Zm-6.94.11c0,3.14.81,4.89,2.16,4.89s2.24-1.75,2.24-4.89-.84-4.92-2.24-4.92S714.11,280.5,714.11,283.67Zm1.66,14.27,12.77-20.8.86.52-12.77,20.8Zm17.69-6.21c0,3.59-2.08,5.72-4.71,5.72s-4.76-2.06-4.76-5.54,2.16-5.69,4.76-5.69S733.46,288.3,733.46,291.73Zm-6.92.1c0,3.15.83,4.89,2.21,4.89s2.18-1.74,2.18-4.89-.8-4.91-2.18-4.91S726.54,288.69,726.54,291.83Z"/><path class="cls-2" d="M563.24,233.5l.81,6.66L532,271.3h36a6.27,6.27,0,0,0,3.78-.94,7,7,0,0,0,2.07-2.66h.9L572,280.75H516.8v-.9Zm.9,58.5a4.59,4.59,0,0,0,1.49,3.42,4.81,4.81,0,0,0,3.46,1.44h1v.9H539.66l.09-.9h.9a5,5,0,0,0,3.56-1.39,4.55,4.55,0,0,0,1.48-3.47Zm-18.45-39.06,17.55-19.44h.9v64.17H545.69Z"/><path class="cls-2" d="M579.35,297.76l.09-.9h1.89a4.78,4.78,0,0,0,3.51-1.44,4.66,4.66,0,0,0,1.44-3.42V246.37q0-3.51-1.62-4.86a6.53,6.53,0,0,0-4.32-1.35h-1.62v-.9c1.26,0,3-.22,5.09-.49s4.42-.63,6.88-1.08a67.37,67.37,0,0,0,7.16-1.71,26.35,26.35,0,0,0,5.89-2.48h.9v58.59a4.48,4.48,0,0,0,1.49,3.38,4.89,4.89,0,0,0,3.46,1.39h1.89v.9Z"/><path class="cls-2" d="M625.43,299a8.11,8.11,0,0,1-5.71-13.86,8.11,8.11,0,0,1,11.47,11.48A7.75,7.75,0,0,1,625.43,299Z"/><path class="cls-2" d="M687,231.7l.36.63q-9.63,3-15.07,6.66a24.21,24.21,0,0,0-8,8.37,28.48,28.48,0,0,0-3.15,10.58,126.81,126.81,0,0,0-.63,13.36q0,7.47.36,12.47a17.84,17.84,0,0,0,1.8,7.47,5,5,0,0,0,4.68,2.47,6,6,0,0,0,5-2.2,12.94,12.94,0,0,0,2.34-5.76,43.65,43.65,0,0,0,.63-7.61,42.59,42.59,0,0,0-.58-8,11.48,11.48,0,0,0-1.58-4.27,5.3,5.3,0,0,0-2.34-1.94,5.54,5.54,0,0,0-3.78-.27,13,13,0,0,0-3,1.26l-.72-.72a10.32,10.32,0,0,1,4-4.63,16,16,0,0,1,6.25-2.3,18.4,18.4,0,0,1,7.11.32,16.85,16.85,0,0,1,6.62,3.24,16.67,16.67,0,0,1,4.81,6.39,22.53,22.53,0,0,1,1.62,9.94,23.09,23.09,0,0,1-3,11,20,20,0,0,1-8.55,7.88q-5.71,2.92-14.63,3.1t-14.94-3a20.28,20.28,0,0,1-9.27-9.77q-3.15-6.65-3.15-16.92a48.37,48.37,0,0,1,2.88-17.23,30.82,30.82,0,0,1,8.73-12.65,34.32,34.32,0,0,1,14.63-7.15Q675.3,230.27,687,231.7Z"/><path class="cls-1" d="M52.29,43.49c0,.27-.07.56-.11.94A3.49,3.49,0,0,1,55,43.31c2.23,0,3.63,1.57,3.63,3.91s-1.42,4.34-4.12,4.34A5.25,5.25,0,0,1,52,51c-.59-.35-1.22-.94-1.22-1.53,0-.38.45-.74,1.29-.74s1,.84,1.17,1.33a1.37,1.37,0,0,0,1.3,1c1.4,0,2-1.62,2-3.76S55.51,44,54.4,44a2.43,2.43,0,0,0-2.27,1.31c-.11.18-.18.22-.49.09s-.25-.2-.21-.36a3.69,3.69,0,0,0,.1-.5L52,38.79a.31.31,0,0,1,.1-.23.31.31,0,0,1,.26-.11c.72,0,1.87,0,2.82,0,.74,0,1.87,0,3.06-.07.13,0,.18.07.17.14l-.6,1.62a.2.2,0,0,1-.18.13c-.72,0-1.17,0-1.82,0H52.54Z"/><path class="cls-1" d="M67.57,50.1a8.08,8.08,0,0,1-3.74,3.11c-.09,0-.22-.09-.15-.14a8.48,8.48,0,0,0,2.06-2.81,6.28,6.28,0,0,0,.45-1.44c1.54.58,2,.79,2,1S68,50.06,67.57,50.1Zm3.71-2.32c.54-.8.76-.94.88-.94s.33.14.83.65a1.37,1.37,0,0,1,.16.18,50.64,50.64,0,0,0,.27-6.21c0-2.2,0-3.42-.1-4.58a17.94,17.94,0,0,1,1.9,1h2.42c.63-.74.77-.85.92-.85s.32.11,1,.67c.31.25.42.38.42.52s-.06.22-.47.52v2c0,9.45,0,9.9,0,10.37,0,.85-.16,1.22-.72,1.55a2.76,2.76,0,0,1-1.31.32c-.29,0-.35,0-.42-.47-.09-.61-.52-.9-1.71-1.18-.09,0-.09-.22,0-.22.78,0,1.53,0,2.14,0,.27,0,.33-.06.33-.29V46.5H74.74a15.23,15.23,0,0,1-.43,2.14,9.18,9.18,0,0,1-3,4.38c-.07,0-.21-.06-.16-.13a10.22,10.22,0,0,0,1.87-4.7H64.83a5,5,0,0,0-.93.11l-.2-.67a4.3,4.3,0,0,0,1.1.15h.79V40.21h-.47a4.85,4.85,0,0,0-.92.11L64,39.66a4.57,4.57,0,0,0,1.08.14h.5v-1c0-.59,0-1.24-.07-2,2,.2,2.14.38,2.14.56s-.18.31-.52.41v2h2.5v-.9c0-.67,0-1.35-.07-2.09,1.94.18,2.13.34,2.13.51s-.19.32-.51.45v2h.2c.54-.77.76-.92.88-.92s.31.15.78.65a1.06,1.06,0,0,1,.3.5c0,.13,0,.18-.23.18H71.19v7.57Zm-4.14-7.57v2.2h2.5v-2.2Zm2.5,2.62h-2.5V45h2.5Zm-2.5,2.59v2.36h2.5V45.42Zm3.64,6.34c-.35,0-.62-.2-.81-.89a4.13,4.13,0,0,0-1.28-1.82c-.07,0,0-.17.11-.16,1.9.31,2.82.94,2.82,1.93A.9.9,0,0,1,70.78,51.76ZM75,42.29a37,37,0,0,1-.2,3.79h3.1V42.29Zm2.9-4H75v3.55h2.88Z"/><path class="cls-1" d="M89.41,49.25a2.69,2.69,0,0,0,1.71,1.52,15,15,0,0,0,4.08.41,56.94,56.94,0,0,0,7-.45c.09,0,.09.16,0,.2a1.13,1.13,0,0,0-.7,1c-.06.55-.09.61-.43.64-1,.13-3.1.17-4.43.17-2.94,0-4.72-.24-5.89-.94a4.36,4.36,0,0,1-1.84-2.65,12.74,12.74,0,0,1-2.07,2.7c.06.69,0,.83-.3.83s-.67-.65-1.34-2.19a9.41,9.41,0,0,0,1.3-.47,8.43,8.43,0,0,0,1.24-.7V44.52H86.49a3.41,3.41,0,0,0-1,.14l-.2-.72a4.2,4.2,0,0,0,1.19.16h1.13c.63-.72.78-.82.92-.82s.33.1,1,.63c.31.25.42.37.42.52s-.06.18-.54.57Zm-1-8.71c-.41,0-.63-.22-.88-1.12a5.3,5.3,0,0,0-1.15-2.1c-.08-.08,0-.18.14-.17,2.11.53,2.88,1.39,2.88,2.31A1,1,0,0,1,88.36,40.54Zm6.54-1.28H91.3a5.23,5.23,0,0,0-1,.11l-.2-.67a4.85,4.85,0,0,0,1.16.15h3.6v-.6a15,15,0,0,0-.06-1.78c1.79.2,2.16.29,2.16.56s-.12.25-.52.43v1.39H99c.74-.89,1-1,1.08-1s.38.14,1.14.72c.34.27.48.41.48.54s0,.18-.23.18h-5V41h2.31c.52-.61.66-.72.81-.72s.34.11.93.58c.27.21.38.34.38.48s-.09.25-.43.53v.7c0,1.82.07,3.08.07,3.49s-.36.68-.92.68-.72-.19-.72-.55v-.08H96.5c0,.42,0,1.28,0,2h2.7c.88-1,1.1-1.1,1.22-1.1s.35.14,1.1.78c.33.26.47.43.47.55s-.05.18-.23.18H96.52c0,.74,0,1.3,0,1.66s-.33.68-.94.68-.76-.18-.76-.52,0-.95,0-1.82H91.31a6.79,6.79,0,0,0-1.09.11l-.2-.67a5.94,5.94,0,0,0,1.29.15h3.55c0-.65,0-1.3,0-2H92.52v.18c0,.45-.31.67-.92.67s-.68-.18-.68-.61.07-1,.07-3.15c0-1,0-2-.07-3a16.16,16.16,0,0,1,1.69.77H94.9Zm-2.38,2.12V43.2h2.36c0-.61,0-1.2,0-1.82Zm2.36,2.24H92.52v2.05h2.36Zm1.6-.42h2.43V41.38H96.48Zm2.43,2.47V43.62H96.5v2.05Z"/><path class="cls-1" d="M121.12,43.76c.6-.74.74-.84.89-.84s.32.1,1.2.86c.42.38.53.5.53.65s-.15.36-.74.36a.67.67,0,0,0-.58.2,8.24,8.24,0,0,1-1.4.95.11.11,0,0,1-.15-.13,6.31,6.31,0,0,0,.47-1.63H115v0c0,1.06-.4,2.07-1.3,2.07a.8.8,0,0,1-.79-.83.58.58,0,0,1,0-.18.51.51,0,0,1-.25.06c-.38,0-.47-.11-.54-.85l-.85.27v2.63c0,1.93.05,4.39.05,5.19,0,.45-.32.63-.91.63s-.72-.15-.72-.53.1-1.6.1-3.94v-1.3c-.07.09-.21.15-.5.22a12.43,12.43,0,0,1-2.16,4.16c-.06.07-.24,0-.2-.11a23.13,23.13,0,0,0,.78-3.44,13.88,13.88,0,0,0,.16-1.82c1.38.42,1.82.58,1.92.74v-2c-.54.14-1.09.27-1.73.41-.1.34-.21.51-.37.51s-.4-.54-.58-2a18.29,18.29,0,0,0,1.84.07h0A31.1,31.1,0,0,0,110.61,41a10.13,10.13,0,0,0,.77-2.07c1.48.64,2,.93,2,1.11s-.16.29-.66.27a20.2,20.2,0,0,1-3.19,3.82c.74,0,1.46,0,2.18-.07H112a4.12,4.12,0,0,0-.54-1.42c0-.08.06-.13.13-.09,1.13.59,1.73,1.26,1.73,2a.58.58,0,0,1,0,.18,1.9,1.9,0,0,0,1.13-1.78.11.11,0,0,1,.2,0,3.29,3.29,0,0,1,.25.88Zm-11.59-5.89a6.28,6.28,0,0,0,.22-1.37c1.49.47,2.21.8,2.21,1s-.22.31-.72.31a18.89,18.89,0,0,1-2.07,2.32,1.5,1.5,0,0,1,.79,1.29.89.89,0,0,1-.83,1c-.46,0-.52-.08-.77-1.08a3.53,3.53,0,0,0-1-1.8.1.1,0,0,1,.09-.16,7.8,7.8,0,0,1,1.4.56A15.73,15.73,0,0,0,109.53,37.87Zm3.29,12.3c-.48,0-.55-.16-.63-1.35a6.45,6.45,0,0,0-.54-2.2c0-.07.09-.18.17-.12,1.33,1,1.9,1.78,1.9,2.63A1,1,0,0,1,112.82,50.17Zm4.34-3.87c0,.29,0,.56,0,.83a6.6,6.6,0,0,1-1.23,3.71A7.08,7.08,0,0,1,112.07,53c-.09,0-.22-.18-.15-.21a6.28,6.28,0,0,0,2.74-2.43,7.32,7.32,0,0,0,.81-3.86,10.79,10.79,0,0,0-.07-1.17c2,.22,2.23.29,2.23.53S117.51,46.16,117.16,46.3Zm1.52-4.63h1.45c.72-.86.94-1,1.07-1s.36.14,1.06.7c.31.25.45.41.45.54s0,.18-.23.18H115a4.92,4.92,0,0,0-1,.11l-.2-.67a5.22,5.22,0,0,0,1.21.14h2V39.53h-2.39a6.58,6.58,0,0,0-1.08.11l-.2-.67a5.79,5.79,0,0,0,1.28.15H117V38c0-.33,0-.79-.09-1.42,2.09.18,2.27.36,2.27.54s-.16.28-.5.45v1.53h1.8c.83-1,1-1.16,1.17-1.16s.36.15,1.15.8c.36.3.5.46.5.59s0,.18-.23.18h-4.39ZM120,50.75c0,.38.09.43.74.43s1,0,1.29-.25a4.61,4.61,0,0,0,.9-2c0-.09.2-.07.2,0,0,.51,0,1.28,0,1.51s0,.27.21.36a.7.7,0,0,1,.42.67,1,1,0,0,1-.65.9,6.09,6.09,0,0,1-2.22.31c-2,0-2.53-.35-2.53-1.75,0-.31,0-.61,0-1.95,0-1.18,0-2.37-.09-3.58,2,.24,2.22.27,2.22.52s-.15.29-.47.42Z"/><path class="cls-1" d="M136.06,45.31c0,.45-.27.67-1,.67-.43,0-.65-.15-.65-.49s0-1.4.06-3.37c0,.09-.08.15-.24.15h-1.91v5.45c.74-.23,1.48-.48,2.13-.75.09,0,.16.16.09.21a21.47,21.47,0,0,1-4.63,2.9c0,.56-.14.78-.39.78s-.53-.49-1.1-2.2a13.35,13.35,0,0,0,1.51-.27c.25,0,.5-.13.77-.2V42.27h-.93a4.48,4.48,0,0,0-1,.11l-.2-.67a4.08,4.08,0,0,0,1.07.14h1V39a16.24,16.24,0,0,0-.09-2.2c2.15.22,2.36.42,2.36.62s-.14.28-.65.52v3.92h.17c.43-.83.64-1,.77-1s.32.14.86.68a1.36,1.36,0,0,1,.35.51v-.56a25.31,25.31,0,0,0-.11-2.61,14.37,14.37,0,0,1,1.84,1h4A11.42,11.42,0,0,0,141.1,38a9.72,9.72,0,0,0,.45-1.44c1.84.68,2.15.83,2.15,1.06s-.2.33-.81.34a14.47,14.47,0,0,1-2,1.89h1.84c.57-.7.72-.81.86-.81s.33.11,1,.69c.29.25.4.38.4.52s-.16.32-.54.59v.74c0,1.91,0,3.24,0,3.68s-.3.64-1,.64c-.41,0-.63-.16-.63-.59Zm1,6.73v.45c0,.49-.3.69-1,.69-.47,0-.68-.16-.68-.58,0-.59.07-1.33.07-3.89,0-.9,0-1.8-.07-2.72a10.47,10.47,0,0,1,1.82.87h4.48c.58-.67.72-.78.86-.78s.33.11,1,.63c.29.26.39.38.39.53s-.1.3-.5.55v.76c0,2,.05,3.4.05,3.85s-.32.71-1,.71c-.47,0-.7-.15-.7-.56V52Zm.49-12.4c-.36,0-.58-.2-.72-.72a5.55,5.55,0,0,0-1-2.14.11.11,0,0,1,.13-.15c1.67.6,2.46,1.26,2.46,2A.9.9,0,0,1,137.56,39.64Zm1,2.65v-2h-2.47v2Zm-2.47,2.61h2.47V42.7h-2.47Zm5.71,2.37h-4.7V49.2h4.7Zm0,2.34h-4.7v2h4.7Zm1.06-9.34h-2.7v2h2.7Zm0,2.43h-2.7v2.2h2.7Z"/><path class="cls-1" d="M156.74,40.12c0,9,.08,11.2.08,12.14,0,.52-.33.81-1,.81-.56,0-.79-.2-.79-.63,0-.59,0-2,.07-4.56A19.49,19.49,0,0,1,151.69,50c0,.55-.18.81-.42.81s-.25,0-1.13-2.36a6.53,6.53,0,0,0,1.19-.13l.28-.05V41.11a21.46,21.46,0,0,0-.14-2.41c2.12.2,2.32.38,2.32.56s-.18.34-.57.49V47.9c.61-.14,1.24-.3,1.83-.48,0-1.12,0-2.4,0-3.91a61.48,61.48,0,0,0-.14-6.79c2.19.18,2.45.25,2.45.52s-.06.22-.64.49Zm6.9-1.49c.74-.85.88-1,1-1s.32.1,1.1.79c.36.34.46.47.46.61s-.12.34-.59.58a20.15,20.15,0,0,1-3,8.13A12.65,12.65,0,0,0,167.1,51c.09,0,.05.21,0,.23-.54.16-.77.45-1,1.19-.13.34-.16.41-.33.41a1.65,1.65,0,0,1-.63-.29,12.72,12.72,0,0,1-3.38-3.44,14.07,14.07,0,0,1-4.54,3.68c-.07,0-.2-.16-.13-.22a17.76,17.76,0,0,0,4-4.59,20.56,20.56,0,0,1-2.42-8.86,7.89,7.89,0,0,0-.95.13l-.2-.7a9.88,9.88,0,0,0,1.59.14ZM159,39a18.93,18.93,0,0,0,2.72,7.57A24.52,24.52,0,0,0,163.86,39Z"/><path class="cls-1" d="M492.81,51.76v.64c0,.51-.3.74-1,.74s-.77-.2-.77-.61c0-1.58.07-3.26.07-9.61,0-1.48,0-3-.07-4.45a17.57,17.57,0,0,1,2,1h1.62c.22-.61.42-1.24.56-1.8a5.56,5.56,0,0,0,.22-1.22c1.78.45,2.23.65,2.23.9s-.16.29-.66.38a11.28,11.28,0,0,1-1.73,1.74h5c.63-.68.77-.79.92-.79s.36.09,1.08.63c.34.25.47.43.47.58s-.09.28-.58.63v1.82c0,5.22.07,8.85.07,10,0,.52-.29.74-1,.74-.58,0-.78-.16-.78-.65v-.66Zm7.69-11.92h-7.69v3.33h7.69Zm0,3.74h-7.69V47h7.69Zm0,3.87h-7.69v3.89h7.69Z"/><path class="cls-1" d="M522.21,38.34h-8.9a6.42,6.42,0,0,0-1.33.15l-.2-.72a7.63,7.63,0,0,0,1.52.16h8.82c.63-.72.77-.83.92-.83s.34.11,1,.63c.33.25.44.38.44.52s-.06.18-.56.61v.87c0,2.25.09,3.82.09,4.32s-.33.86-1.06.86c-.51,0-.76-.16-.76-.61v-.61h-8.63v6c0,.81.36,1,4.31,1,4.57,0,5.4-.13,5.87-.47s.79-1.06,1.29-2.88c0-.09.26-.07.26,0,0,.75-.08,1.87-.08,2.25s0,.38.24.47a.64.64,0,0,1,.43.68c0,.58-.41,1-1.51,1.21a31.76,31.76,0,0,1-5.91.34c-5.72,0-6.68-.33-6.68-2.38,0-.74,0-2.07,0-4,0-1.71,0-2.2-.09-3.57a21.75,21.75,0,0,1,2,1h8.46Z"/><path class="cls-1" d="M533.15,42.92c-.07.46-.18.64-.41.64s-.33-.1-.92-2.1a17.14,17.14,0,0,0,1.85-.09,31.35,31.35,0,0,0,4.18-.67c.09,0,.16.2.09.23A24.09,24.09,0,0,1,533.15,42.92Zm4.54,8.93a14.08,14.08,0,0,1-5.75,1.22c-.09,0-.12-.22,0-.23a13.93,13.93,0,0,0,3.29-1.46,4.9,4.9,0,0,0,1.3-1.1c2,1.13,2,1.13,2,1.37S538.39,51.86,537.69,51.85Zm-3.35-7.48c-.58.08-1.17.15-1.82.2-.09,0-.14-.2,0-.21a14.72,14.72,0,0,0,1.85-.42c0-.39,0-.79,0-1.19a14.08,14.08,0,0,1,1.62.63,8.4,8.4,0,0,0,3.23-2.27A5.56,5.56,0,0,0,540.21,39c1.58.24,2.25.45,2.25.69s-.2.27-.67.39a6.64,6.64,0,0,0,2.6,1.86,11.89,11.89,0,0,0,4,.74c.09,0,0,.18,0,.21a1.49,1.49,0,0,0-.94,1.33.25.25,0,0,1-.27.2,2.88,2.88,0,0,1-.77-.18q-.47-.16-.9-.36a1.8,1.8,0,0,1-.36.25V45c0,2.5.07,4.25.07,4.81s-.38.63-1,.63c-.45,0-.69-.15-.69-.54h-7.47V50c0,.4-.32.59-.94.59s-.75-.16-.75-.59c0-.81.09-1.64.09-4.95Zm.54-4.55c-.42,0-.61-.16-.87-.74a4.37,4.37,0,0,0-1.38-1.87c-.07-.06,0-.15.07-.15,2.07.18,3.11.76,3.11,1.79A.91.91,0,0,1,534.88,39.82Zm1.06,5.6h7.47V43.85H536.9l-1,.24Zm7.47.41h-7.47V47.4h7.47Zm0,2h-7.47v1.71h7.47Zm-4.64-9a9.5,9.5,0,0,1-2.42,1.68c-.07,0-.25-.11-.18-.16a8.46,8.46,0,0,0,1.64-2.36,7.74,7.74,0,0,0,.58-1.62c1.69.5,2.16.72,2.16.92s-.09.25-.79.37a3.93,3.93,0,0,1-.58.76h5.91c.66-.74.81-.85.95-.85s.31.11,1.06.81c.35.33.45.47.45.62,0,.32-.09.41-.75.45a1,1,0,0,0-.61.25,12.75,12.75,0,0,1-1.89,1c-.09,0-.22-.15-.17-.22a6.37,6.37,0,0,0,1-1.68Zm4.52,4.67a5.86,5.86,0,0,1,.47-.52,7.23,7.23,0,0,1-2.18-2.62,7.35,7.35,0,0,1-3.51,3.14Zm2.34,9.81a1.48,1.48,0,0,1-1.08-.52,8.94,8.94,0,0,0-3.66-1.89c-.09,0-.07-.18,0-.18,4.66,0,5.71.66,5.71,1.69A1,1,0,0,1,545.63,53.25Z"/><path class="cls-1" d="M560.26,48.59c0-1.86.09-3.71.09-5.57A17.36,17.36,0,0,1,553,49.9c-.1,0-.2-.12-.13-.18a21.53,21.53,0,0,0,6.55-8.7h-4.14a13.53,13.53,0,0,0-1.55.11l-.19-.66a11.19,11.19,0,0,0,1.71.14h5V39.08a18.74,18.74,0,0,0-.11-2.5c1.84.14,2.38.27,2.38.54s-.14.3-.56.52v3h4.23c.85-1.1,1.07-1.24,1.19-1.24s.36.14,1.3.86c.41.34.56.49.56.61s-.06.18-.24.18h-6.88A11.54,11.54,0,0,0,564.9,45,13.48,13.48,0,0,0,570,47.76a.09.09,0,0,1,0,.18,1.89,1.89,0,0,0-1.33,1.39c-.09.25-.18.34-.32.34a2.07,2.07,0,0,1-.81-.38A13.2,13.2,0,0,1,564,45.85a17.37,17.37,0,0,1-2.13-4.32c0,1.67.09,5.44.15,7.06h.91c.76-1,1-1.14,1.1-1.14s.34.15,1.12.8c.32.28.47.45.47.57s-.06.18-.24.18H562c0,1.64,0,2.85,0,3.39s-.4.73-1.1.73-.79-.16-.79-.61,0-1.74.07-3.51h-2a10.14,10.14,0,0,0-1.33.11l-.2-.67a7.15,7.15,0,0,0,1.42.15Z"/><path class="cls-1" d="M578.62,50a43.28,43.28,0,0,0,4.32-1.26c.09,0,.16.14.09.2a30,30,0,0,1-6.64,3.22c-.09.5-.22.7-.47.7s-.43-.36-1-2.23c.36,0,.74-.07,1.13-.14l.85-.15V39.24a13.07,13.07,0,0,0-.11-2.16c2.23.2,2.47.4,2.47.58s-.13.29-.63.52V42.9h1.75c.91-1,1.13-1.19,1.26-1.19s.34.14,1.15.83c.36.3.5.46.5.59s0,.18-.23.18h-4.43Zm6.68-5.71A15.58,15.58,0,0,0,588,41.84a9.58,9.58,0,0,0,1.22-1.77c1.44.9,2,1.33,2,1.59s-.16.34-.87.25a16.9,16.9,0,0,1-5,2.93V50.3c0,.72.16.77,2.18.77a3,3,0,0,0,1.58-.21c.45-.26.78-1.07,1.33-2.85,0-.09.24-.07.24,0-.06.74-.15,2-.15,2.25a.37.37,0,0,0,.24.4c.39.19.52.34.52.66,0,.52-.34.85-1.12,1a13.31,13.31,0,0,1-2.75.21c-3.28,0-3.84-.29-3.84-2,0-.35.06-.69.06-2.06,0-3.78,0-7.56-.07-11.36,2,.2,2.28.27,2.28.56s-.09.32-.5.5Z"/><path class="cls-1" d="M605.19,49c0,1.89,0,3.19,0,3.64s-.39.61-1,.61-.76-.14-.76-.65.07-1.46.09-3.6H598a9.87,9.87,0,0,0-1.32.11l-.19-.67a7.62,7.62,0,0,0,1.47.15h5.6v-.11a18.17,18.17,0,0,0-.09-2c2.11.22,2.34.29,2.34.56s-.09.23-.59.48v1.07h4.46c.9-1.12,1.12-1.26,1.25-1.26s.36.14,1.27.88c.42.32.56.49.56.61s-.05.18-.23.18Zm-7.11-2.52c0,.54-.08.72-.33.72s-.5-.45-1.19-1.94c.54-.15,1.07-.29,1.55-.45a17.82,17.82,0,0,0,3.22-1.34c.08,0,.24.15.18.22A13.43,13.43,0,0,1,598.08,46.48Zm5.49-7.27c1.26.48,1.65.7,1.65.91s0,.2-.63.22A9.32,9.32,0,0,1,603,41.71a1.43,1.43,0,0,1,.61,1.12.77.77,0,0,1-.74.84c-.43,0-.48-.07-.77-1a3.94,3.94,0,0,0-1.1-1.66.09.09,0,0,1,.07-.16,6,6,0,0,1,1.44.5c.17-.34.33-.68.47-1a7.45,7.45,0,0,0,.42-1.17H598a8.8,8.8,0,0,0-1.26.1l-.2-.66a7.13,7.13,0,0,0,1.42.14h5.44V37.57a7.21,7.21,0,0,0-.09-1.07c2.23.2,2.45.4,2.45.6s-.2.36-.63.5v1.19h4.29c1-1.08,1.2-1.22,1.33-1.22s.34.14,1.19.84c.37.33.52.49.52.62s-.06.18-.24.18Zm-4,4.07c-.49,0-.61-.17-.94-1.12a4.19,4.19,0,0,0-1.15-1.93.1.1,0,0,1,.09-.16c2,.58,2.9,1.26,2.9,2.2A1,1,0,0,1,599.57,43.28Zm6.77,1.8A5,5,0,0,0,605.6,44a.1.1,0,0,1,.13-.13c1.53.5,2.5,1.33,2.5,2.18a.88.88,0,0,1-.85.92c-.41,0-.5-.13-.75-1.1a3.12,3.12,0,0,0-.15-.43,24.33,24.33,0,0,1-4.7,1.17c-.08.39-.14.48-.3.48s-.4-.3-.78-1.94c.81,0,1.25.05,1.84.05a22.8,22.8,0,0,0,2.31-3,13,13,0,0,0,.77-1.46c1.55.81,1.82,1,1.82,1.22s0,.2-.76.24a38.47,38.47,0,0,1-3.4,3C604.31,45.18,605.31,45.15,606.34,45.08Zm4.48-3.73a13.53,13.53,0,0,1-3.42,2.07c-.09,0-.23-.11-.16-.16A13.12,13.12,0,0,0,609,41.11a5.88,5.88,0,0,0,.69-1.27c1.38.72,1.83,1,1.83,1.24S611.4,41.37,610.82,41.35Zm-.09,5.42c-.45,0-.59-.15-1.09-1a4.88,4.88,0,0,0-1.72-1.8c-.07,0,0-.2.08-.18,2.41.36,3.6,1.06,3.6,2.11A.87.87,0,0,1,610.73,46.77Z"/><path class="cls-1" d="M974.21,231.07c0,1.3-.08,2.62-.15,3.92h1.71c.81-1.06,1-1.22,1.22-1.22s.47.16,1.36,1c.39.34.54.55.54.76s-.08.26-.62.67c-.29,5.46-.78,9.39-1.46,10.77a3.19,3.19,0,0,1-1,1.25,3,3,0,0,1-1.82.54c-.31,0-.42-.1-.44-.41-.16-1.07-.52-1.49-1.88-1.9-.13,0-.07-.31.06-.31,1.17.1,1.84.13,2.13.13.78,0,1-.13,1.22-1.17a53.78,53.78,0,0,0,.91-9.47h-2c-.52,6.76-2,10.22-5.25,13.21-.11.08-.34-.13-.26-.23,2.36-4,3.35-8.87,3.35-16.75v-.75h-.67a11.16,11.16,0,0,0-1.67.15l-.28-1a9.08,9.08,0,0,0,1.92.21h1.56v-3.15c0-.41,0-1-.1-1.92,2.91.29,3.17.57,3.17.83s-.24.39-.73.65v3.59h.83c.94-1.17,1.25-1.38,1.43-1.38s.5.21,1.35,1c.34.31.55.54.55.73s-.08.26-.34.26Zm7.54-.65a14.69,14.69,0,0,1-3.38,3.56c-.1.08-.36-.08-.28-.18a19.27,19.27,0,0,0,2.39-5.15,17.23,17.23,0,0,0,.65-3.36c2.73.58,3.33.81,3.33,1.17s-.26.47-.94.58a15.64,15.64,0,0,1-1.38,2.78h6.66c1.27-1.56,1.58-1.77,1.77-1.77s.49.21,1.66,1.22c.52.47.73.71.73.89s-.08.26-.34.26Zm.83,15.08c0,.88.16,1,3.49,1s3.9-.11,4.34-.39.62-.63,1.54-3.46c0-.13.33-.08.33.05,0,.78-.08,1.87-.08,2.37a.61.61,0,0,0,.39.67c.53.32.71.58.71,1,0,.7-.47,1.17-1.67,1.43a24.55,24.55,0,0,1-5,.34c-5.36,0-6.32-.39-6.32-2.44,0-.65,0-1.3,0-4,0-1.19,0-2.36,0-3.56a6.28,6.28,0,0,0-1.53.6l-.49-.86A6.72,6.72,0,0,0,980,238l.36-.1c0-1.64,0-3.28-.07-4.94,2.75.29,3.09.39,3.09.78s-.18.42-.81.68v2.86l2.08-.6v-1.85a29.13,29.13,0,0,0-.13-3.43c2.29.21,3.05.42,3.05.81s-.24.41-.84.59v3.28l2-.57c.81-1.22,1.07-1.51,1.35-1.51a4.14,4.14,0,0,1,1.8,1.2,1.06,1.06,0,0,1,.31.52c0,.26-.18.44-.76.8a38.14,38.14,0,0,1-.41,5.39,3,3,0,0,1-.83,1.61,2.41,2.41,0,0,1-1.59.57c-.34,0-.36-.05-.36-.7s-.52-1.15-1.46-1.54c0,.81,0,1.41,0,1.75,0,.67-.39.93-1.33.93-.7,0-.91-.18-.91-.86s.08-2.68.1-6.34l-2.08.6Zm4.16-8.77c0,.81,0,1.59,0,2.4v2.36a6.82,6.82,0,0,0,1.4.16.71.71,0,0,0,.76-.7,40.59,40.59,0,0,0,.28-4.92Z"/><path class="cls-1" d="M1007.18,230.62c1.12-1.37,1.43-1.58,1.61-1.58s.52.21,1.67,1.12c.49.39.7.62.7.8s-.08.26-.34.26h-8.22a11.11,11.11,0,0,0-1.76.16l-.29-1a11.22,11.22,0,0,0,2.08.2ZM1004,247.29v.81c0,.67-.47,1-1.33,1s-1.09-.26-1.09-.88c0-.81.08-1.64.08-5a35.39,35.39,0,0,0-.16-3.69,23,23,0,0,1,2.76,1.3h2.6c.91-1.09,1.11-1.25,1.32-1.25s.47.16,1.41.91c.41.37.57.55.57.75s-.18.47-.76.86V243c0,2.24.11,3.77.11,4.27,0,.67-.47,1-1.41,1-.7,0-1-.23-1-.81v-.18Zm2-20.18c1.14-1.35,1.45-1.56,1.64-1.56s.52.21,1.61,1.1c.47.39.67.62.67.8s-.07.26-.33.26h-6.09a9.37,9.37,0,0,0-1.53.16l-.29-1a8.67,8.67,0,0,0,1.82.2Zm.23,7c1-1.27,1.3-1.48,1.48-1.48s.52.21,1.51,1c.44.37.65.6.65.78s-.08.26-.34.26h-6a9,9,0,0,0-1.58.16l-.29-1a8.53,8.53,0,0,0,1.87.21Zm0,3.36c1-1.28,1.3-1.49,1.48-1.49s.52.21,1.53,1c.44.37.65.6.65.78s-.08.26-.34.26h-6a9.92,9.92,0,0,0-1.56.16l-.28-1a8.29,8.29,0,0,0,1.84.21Zm.85,4H1004v5.22H1007Zm12.17-4.71c1.07-1,1.28-1.2,1.48-1.2s.5.16,1.57,1c.49.39.64.57.64.78s-.28.54-1,.81a20.09,20.09,0,0,1-3.46,5.33,15.35,15.35,0,0,0,6.24,2.34.14.14,0,0,1,0,.26c-.88.26-1.22.75-1.5,2-.08.39-.18.55-.37.55a4.44,4.44,0,0,1-1-.37,12.43,12.43,0,0,1-4.83-3.38,21,21,0,0,1-7.67,3.93c-.13,0-.26-.29-.13-.34a20.23,20.23,0,0,0,6.63-5.07,20.54,20.54,0,0,1-2.58-6h-.41a5.66,5.66,0,0,0-1.51.21l-.29-1a8.78,8.78,0,0,0,1.9.21Zm4.58-5.1c0,.4.1.5.52.65a.82.82,0,0,1,.36.79c0,.54-.33,1-1,1.19a7.87,7.87,0,0,1-2.52.31c-2.29,0-3.09-.57-3.09-2.21,0-1,0-1.27,0-2.28v-2.66h-3v.5a10.39,10.39,0,0,1-.83,4.62c-.7,1.28-1.9,2.14-3.9,3.12-.11.06-.34-.1-.24-.18a7.08,7.08,0,0,0,2.21-3.61,12.07,12.07,0,0,0,.32-3.15,28.92,28.92,0,0,0-.19-3.12,29.74,29.74,0,0,1,2.71,1.23h2.86c.83-1,1-1.1,1.27-1.1s.47.11,1.33.83a1.45,1.45,0,0,1,.52.68c0,.26-.18.47-.68.75v4c0,.41.18.49,1,.49.62,0,1,0,1.22-.31a5.65,5.65,0,0,0,.86-2.32c0-.13.31-.13.31,0Zm-10,5.7a13.61,13.61,0,0,0,3.07,4.78,15.7,15.7,0,0,0,2.44-4.78Z"/><path class="cls-2" d="M869.66,250.64l-.35-.63q9.62-3,15.07-6.66a24.21,24.21,0,0,0,8-8.37,28.66,28.66,0,0,0,3.14-10.58,126.81,126.81,0,0,0,.63-13.36q0-7.47-.36-12.47A18.42,18.42,0,0,0,894,191.1a5,5,0,0,0-4.73-2.47,6,6,0,0,0-5,2.2,12.8,12.8,0,0,0-2.33,5.72,50.08,50.08,0,0,0,0,15.66,10.93,10.93,0,0,0,1.62,4.27,5.5,5.5,0,0,0,6.12,2.21,12.72,12.72,0,0,0,2.92-1.26l.64.72a10.93,10.93,0,0,1-4,4.59,15.25,15.25,0,0,1-6.22,2.34,18.4,18.4,0,0,1-7.11-.32,16.81,16.81,0,0,1-6.61-3.24,16.49,16.49,0,0,1-4.81-6.43,22.3,22.3,0,0,1-1.62-9.9,23.31,23.31,0,0,1,3-11,20,20,0,0,1,8.56-7.92c3.83-2,8.73-3,14.66-3.06q13.23-.18,20.3,7t7.06,22.68a48.37,48.37,0,0,1-2.88,17.23,30.76,30.76,0,0,1-8.73,12.65A34.29,34.29,0,0,1,890.18,250Q881.45,252.08,869.66,250.64Z"/><path class="cls-2" d="M923.3,247.22l.09-.9h1.89a4.78,4.78,0,0,0,3.51-1.44,4.67,4.67,0,0,0,1.44-3.42V195.83q0-3.51-1.62-4.86a6.53,6.53,0,0,0-4.32-1.35h-1.62v-.9c1.26-.06,3-.23,5.09-.5s4.42-.63,6.88-1.08a67.37,67.37,0,0,0,7.16-1.71,26.36,26.36,0,0,0,5.89-2.47h.9v58.59a4.46,4.46,0,0,0,1.49,3.37,4.89,4.89,0,0,0,3.46,1.4h1.89v.9Z"/><path class="cls-1" d="M821.59,44.19a21.65,21.65,0,0,0,1.71-3.06,14.22,14.22,0,0,0,.81-2c1.41.65,2,1,2,1.24s-.2.29-.71.27a24.22,24.22,0,0,1-3.18,3.58c.9,0,1.78,0,2.66-.09a4.3,4.3,0,0,0-.65-1.44c-.05-.07.07-.14.15-.1,1.38.75,2,1.45,2,2.34a.83.83,0,0,1-.74.91c-.42,0-.58-.25-.69-1.18v0c-.32.11-.66.22-1,.31v2.52c0,1.92.06,4.32.06,5.11,0,.49-.33.7-.94.7s-.74-.16-.74-.57.11-1.55.11-3.89V47.54a1,1,0,0,1-.47.18,12.41,12.41,0,0,1-2.12,4.11c-.06.07-.22,0-.2-.11a24.82,24.82,0,0,0,.76-3.33,13.75,13.75,0,0,0,.14-1.87,6.13,6.13,0,0,1,1.89.7V45.27c-.43.09-.95.2-1.58.35-.11.36-.22.5-.38.5s-.36-.34-.67-2c.43,0,.63,0,.94,0Zm.69-6.53c.1-.42.18-.79.23-1.12,1.62.58,2.14.85,2.14,1.06s-.21.31-.72.31a20.85,20.85,0,0,1-2,2.32,1.53,1.53,0,0,1,.74,1.32.89.89,0,0,1-.8,1c-.46,0-.52-.08-.81-1.08A3.5,3.5,0,0,0,820,39.64c-.07-.07,0-.18.11-.16a7.06,7.06,0,0,1,1.48.54A18.43,18.43,0,0,0,822.28,37.66Zm3.09,11.45c-.43,0-.61-.16-.68-1a4.14,4.14,0,0,0-.49-1.8c-.05-.07.06-.12.13-.09,1.24.67,1.8,1.26,1.8,2A.79.79,0,0,1,825.37,49.11Zm1.73.27c0,1.21-.45,2.21-1.42,2.21a.83.83,0,0,1-.85-.84c0-.4.2-.65.71-.87.82-.34,1.09-.79,1.18-1.85,0-.09.18-.11.2,0A5.06,5.06,0,0,1,827.1,49.38Zm2.58-11.22a10.19,10.19,0,0,1-4,4.65c-.07,0-.22-.06-.16-.13a12,12,0,0,0,2.27-4.25c.14-.52.27-1.08.37-1.65,1.9.55,2.24.7,2.24,1S830.2,38.09,829.68,38.16ZM828.27,44a23.75,23.75,0,0,0,.87-2.51,11.23,11.23,0,0,0,.36-1.8c1.81.49,2.3.69,2.3.94s0,.23-.72.39a18.12,18.12,0,0,1-2.2,3c1.26,0,2.53-.08,3.77-.17a5.58,5.58,0,0,0-1-1.65c0-.07,0-.2.09-.17,2,.71,2.92,1.59,2.92,2.65a1,1,0,0,1-.85,1.05c-.39,0-.63-.27-.79-.81,0-.2-.11-.4-.16-.58a31.38,31.38,0,0,1-5.15,1.12c-.07.41-.22.59-.42.59s-.28-.29-.68-2.11A10.18,10.18,0,0,0,828,44Zm1.24,6.68c0,.5.2.59,1.35.59a2.68,2.68,0,0,0,1.3-.2c.31-.18.49-.48.9-1.94,0-.09.2-.08.2,0,0,.43,0,1,0,1.53,0,.23.05.28.23.36.4.16.58.27.58.66s-.27.67-.9.85a10.78,10.78,0,0,1-2.43.21c-2.27,0-2.9-.32-2.9-1.31,0-.58.07-1.12.07-3.53a8.33,8.33,0,0,0-.07-1.1c2.09.22,2.21.24,2.21.51s-.1.23-.56.43Zm2-2.17c-.4,0-.56-.16-.7-.68a3.79,3.79,0,0,0-1.16-1.91c-.07-.05,0-.16.08-.14,1.67.23,2.66.92,2.66,1.78A.9.9,0,0,1,831.46,48.51Zm4.1-6c0,.2-.1.27-.23.27a1,1,0,0,1-.5-.29,10.24,10.24,0,0,1-1.59-1.73,9.39,9.39,0,0,1-1.31-3.17.67.67,0,0,0-.25-.47c-.06-.07-.08-.1-.08-.14s.36-.25.63-.25a.15.15,0,0,1,.17.14c0,.06-.09.27-.09.34a1,1,0,0,0,.12.45A5.17,5.17,0,0,0,834,39.53a9.72,9.72,0,0,0,2.52,1.35.13.13,0,0,1,0,.23C836,41.35,835.82,41.6,835.56,42.54Zm-.14,8.84c-.5,0-.68-.24-.83-1.14a5.07,5.07,0,0,0-.93-2.36c-.06-.07.05-.16.14-.12,1.82.79,2.61,1.58,2.61,2.57A1,1,0,0,1,835.42,51.38Z"/><path class="cls-1" d="M844.74,40.59c0,.9,0,1.82-.11,2.72h1.19c.56-.74.7-.85.85-.85s.32.11.93.67c.27.24.38.38.38.52s-.05.18-.43.47c-.2,3.78-.54,6.5-1,7.46a2.16,2.16,0,0,1-.7.86,2.07,2.07,0,0,1-1.26.38c-.22,0-.29-.07-.31-.29-.11-.74-.36-1-1.29-1.31-.09,0-.06-.22,0-.22.81.07,1.28.09,1.48.09.54,0,.66-.09.85-.81a37.6,37.6,0,0,0,.63-6.55h-1.36c-.36,4.68-1.36,7.07-3.63,9.14-.07.06-.24-.09-.18-.16,1.64-2.79,2.32-6.14,2.32-11.6v-.52h-.47a7.71,7.71,0,0,0-1.15.11l-.2-.67a6.42,6.42,0,0,0,1.33.15h1.08V38a13.27,13.27,0,0,0-.07-1.33c2,.2,2.2.39,2.2.57s-.16.27-.5.45v2.49h.57c.65-.81.87-1,1-1s.34.15.94.69c.23.21.38.38.38.5s-.06.18-.24.18Zm5.22-.45a10.2,10.2,0,0,1-2.34,2.47c-.07,0-.25,0-.2-.13a13.3,13.3,0,0,0,1.66-3.56,12,12,0,0,0,.45-2.32c1.89.39,2.31.55,2.31.81s-.19.32-.65.39a11.57,11.57,0,0,1-1,1.93h4.61c.88-1.08,1.1-1.23,1.23-1.23s.34.15,1.15.85c.36.32.5.49.5.61s-.05.18-.23.18Zm.58,10.45c0,.61.11.72,2.41.72s2.7-.08,3-.27.43-.44,1.06-2.4c0-.09.23,0,.23,0,0,.54,0,1.29,0,1.64a.41.41,0,0,0,.27.46c.36.22.49.4.49.72,0,.49-.33.81-1.16,1a16.56,16.56,0,0,1-3.43.24c-3.71,0-4.38-.27-4.38-1.69,0-.45,0-.9,0-2.78,0-.83,0-1.64,0-2.46a4.68,4.68,0,0,0-1.06.41l-.35-.59a5,5,0,0,0,1.16-.2l.25-.07c0-1.14,0-2.27-.06-3.43,1.91.2,2.15.28,2.15.54s-.13.29-.56.47v2L852,44.5V43.22a21.78,21.78,0,0,0-.09-2.38c1.58.15,2.11.29,2.11.56s-.17.29-.58.42v2.27l1.37-.4c.56-.85.74-1,.93-1a2.84,2.84,0,0,1,1.25.82.77.77,0,0,1,.21.36c0,.18-.12.31-.52.56a25.3,25.3,0,0,1-.29,3.73,2.1,2.1,0,0,1-.57,1.12,1.66,1.66,0,0,1-1.1.39c-.24,0-.25,0-.25-.48s-.36-.8-1-1.07c0,.56,0,1,0,1.21,0,.47-.28.65-.92.65s-.63-.13-.63-.6S852,47.49,852,45l-1.44.41Zm2.88-6.07c0,.56,0,1.1,0,1.65v1.64a4.7,4.7,0,0,0,1,.11c.29,0,.47-.14.52-.49a27.26,27.26,0,0,0,.2-3.4Z"/><path class="cls-1" d="M867.57,40.29c.77-1,1-1.1,1.11-1.1s.36.14,1.15.77c.35.27.49.43.49.56s-.05.18-.23.18H864.4a8.69,8.69,0,0,0-1.23.11l-.2-.67a7.41,7.41,0,0,0,1.44.15Zm-2.24,11.54v.56c0,.46-.32.7-.92.7s-.75-.18-.75-.61.05-1.14.05-3.44a24.47,24.47,0,0,0-.11-2.56,16.54,16.54,0,0,1,1.91.9h1.8c.63-.76.78-.86.92-.86s.33.1,1,.63c.29.25.4.37.4.52s-.13.32-.52.59v.6c0,1.55.07,2.61.07,3s-.32.7-1,.7c-.49,0-.72-.16-.72-.56v-.12Zm1.39-14c.79-.94,1-1.08,1.13-1.08s.36.14,1.12.75c.32.27.47.43.47.56s-.06.18-.24.18H865a6.46,6.46,0,0,0-1.06.11l-.2-.67a5.63,5.63,0,0,0,1.26.15Zm.16,4.82c.69-.88.9-1,1-1s.36.14,1,.72c.31.25.45.41.45.54s0,.18-.23.18H865a6.68,6.68,0,0,0-1.1.1l-.2-.66a5.89,5.89,0,0,0,1.3.14Zm0,2.32c.69-.88.9-1,1-1s.36.14,1.06.72c.31.25.45.41.45.54s0,.18-.23.18H865a5.64,5.64,0,0,0-1.08.11l-.2-.67A5.72,5.72,0,0,0,865,45Zm.6,2.79h-2.13v3.62h2.13Zm8.42-3.25c.74-.72.89-.83,1-.83s.34.11,1.08.7c.34.27.45.4.45.54s-.2.38-.67.56a13.89,13.89,0,0,1-2.39,3.69,10.52,10.52,0,0,0,4.32,1.62.09.09,0,0,1,0,.18c-.61.18-.85.52-1,1.37-.06.27-.13.38-.26.38a2.83,2.83,0,0,1-.68-.26,8.59,8.59,0,0,1-3.35-2.34,14.46,14.46,0,0,1-5.31,2.72c-.09,0-.18-.2-.09-.23a13.89,13.89,0,0,0,4.59-3.51A14.33,14.33,0,0,1,871.78,45h-.29a4.27,4.27,0,0,0-1,.14l-.2-.7a6.11,6.11,0,0,0,1.31.15ZM879.05,41c0,.27.07.34.36.45a.55.55,0,0,1,.26.54c0,.38-.24.66-.73.83a5.62,5.62,0,0,1-1.74.21c-1.59,0-2.14-.39-2.14-1.53,0-.7,0-.88,0-1.58V38.09H873v.34a7.19,7.19,0,0,1-.58,3.21,5.66,5.66,0,0,1-2.7,2.16c-.07,0-.23-.07-.16-.13a5,5,0,0,0,1.53-2.5,8.7,8.7,0,0,0,.21-2.18,19.72,19.72,0,0,0-.12-2.16,19.1,19.1,0,0,1,1.87.85h2c.58-.67.69-.76.88-.76s.33.07.92.58a.92.92,0,0,1,.36.46c0,.18-.12.33-.47.53v2.79c0,.28.13.34.71.34s.66,0,.84-.22a3.77,3.77,0,0,0,.6-1.6c0-.09.21-.09.21,0ZM872.12,45a9.46,9.46,0,0,0,2.13,3.31A11.05,11.05,0,0,0,875.94,45Z"/><path class="cls-1" d="M889.69,42.45c0,.38,0,1.13,0,1.53s-.29.68-.91.68-.69-.11-.69-.65a16.19,16.19,0,0,1,.13-1.62,9.16,9.16,0,0,1-4,3c-.09,0-.18-.13-.11-.18a11.3,11.3,0,0,0,3.19-3.88H886a8.57,8.57,0,0,0-1.22.11l-.2-.66a7.3,7.3,0,0,0,1.37.14h2.2V38.52a15,15,0,0,0-.09-1.71c1.73.16,2.14.27,2.14.52s-.11.26-.52.44v3.11h1.6c.52-.77.74-.92.86-.92s.36.15,1,.65c.27.22.42.38.42.5s-.06.18-.24.18h-3.63v.65c1.71.31,2.52.83,2.52,1.66a.71.71,0,0,1-.7.74c-.33,0-.53-.16-.85-.72a3.63,3.63,0,0,0-1-1.3Zm2.18,4.5a10.69,10.69,0,0,1-1.25,2.7c.78.4,1.19.85,1.19,1.35a.77.77,0,0,1-.75.81c-.45,0-.51-.05-1.35-1.06A9,9,0,0,1,884.63,53c-.09,0-.15-.2-.06-.24a9.15,9.15,0,0,0,4.25-2.91,9.76,9.76,0,0,0-1.31-.8l-.4.67a.74.74,0,0,1-.79.45c-.45,0-.79-.2-.79-.45a.94.94,0,0,1,.16-.45A20.52,20.52,0,0,0,887,47h-1a7,7,0,0,0-1.2.11l-.2-.67a6.49,6.49,0,0,0,1.37.14h1.24l.09-.19a7.59,7.59,0,0,0,.5-1.57c1.82.34,1.88.36,1.88.61s-.13.27-.56.42l-.32.73h2.5c.65-.75.86-.9,1-.9s.34.15.9.63c.23.22.38.38.38.51s-.06.18-.24.18Zm-5.14-6.57c-.46,0-.55-.13-.73-1.12a3.15,3.15,0,0,0-.69-1.53c0-.07,0-.14.09-.13,1.33.35,2.11,1,2.11,1.95A.79.79,0,0,1,886.73,40.38Zm.94,8.41a12.32,12.32,0,0,1,1.66.36,8.43,8.43,0,0,0,.9-2.2h-1.7Zm4.72-10.18a9.48,9.48,0,0,1-2.16,1.87c-.07.06-.2,0-.15-.1a10.94,10.94,0,0,0,.85-1.8,6.58,6.58,0,0,0,.38-1.23c1.24.47,1.73.76,1.73,1S893,38.61,892.39,38.61Zm7.09,2.7a16.27,16.27,0,0,1-2.25,7A10.69,10.69,0,0,0,901.5,51a.11.11,0,0,1,0,.2c-.49.2-.61.41-.81,1.3-.13.45-.16.5-.36.5a2.6,2.6,0,0,1-.9-.49,12.82,12.82,0,0,1-3-3,11.92,11.92,0,0,1-5.46,3.62c-.09,0-.2-.16-.13-.22a14.75,14.75,0,0,0,4.83-4.64,17.61,17.61,0,0,1-1.53-4.84,11.67,11.67,0,0,1-1.69,1.9c-.08.06-.24-.05-.18-.12a20.22,20.22,0,0,0,2.28-6,13.94,13.94,0,0,0,.31-2.43c2,.45,2.36.56,2.36.83s-.17.33-.72.45a20.75,20.75,0,0,1-1,2.92h3.09c.8-1,1-1.12,1.14-1.12s.34.15,1.1.78c.32.28.46.45.46.57s0,.18-.23.18Zm-4.19,0a15.19,15.19,0,0,1-.92,1.68,12.9,12.9,0,0,0,1.87,4.12,17.18,17.18,0,0,0,1.53-5.8Z"/><path class="cls-1" d="M847.65,278.46a4.75,4.75,0,0,0,0,1,.58.58,0,0,0,.35.4,2.58,2.58,0,0,0,1.15.19,11.44,11.44,0,0,0,2.81-.31,2.82,2.82,0,0,1,.73-.12c.56,0,1,.26,1,.67s-.17.46-.44.57A4.38,4.38,0,0,1,852,281c-.79.06-1.53.1-2.2.1-1.54,0-2.45-.24-2.82-.71a1.82,1.82,0,0,1-.33-.65,4.57,4.57,0,0,1-.09-1.13c0-.86,0-1.74,0-2.61s0-1.54,0-2.25c0-.53,0-.65-.4-.84a2.48,2.48,0,0,0-.37-.14c-.1,0-.14-.07-.14-.13s.46-.36.76-.36a2.52,2.52,0,0,1,1.09.39c.49.28.65.49.65.74a.58.58,0,0,1-.22.48c-.11.11-.15.19-.18.66s-.08,1.23-.09,2a14.83,14.83,0,0,0,2.07-.85,14.12,14.12,0,0,0,1.69-1c.14-.1.23-.16.23-.25s-.13-.26-.24-.37-.21-.19-.21-.25.14-.13.29-.13c.44,0,.65.09,1.22.61.38.35.58.64.56.88s-.15.38-.49.45a3.08,3.08,0,0,0-.5.15c-.76.27-1.47.48-2.17.66a23,23,0,0,1-2.47.5C847.66,277.42,847.65,278,847.65,278.46Zm5.85-6.18a1,1,0,0,1,.52.84.47.47,0,0,1-.46.49.5.5,0,0,1-.48-.32,5.17,5.17,0,0,0-.88-1.24c-.06-.05-.15-.12-.15-.18s.07-.1.16-.1a1.51,1.51,0,0,1,.33.06A2.44,2.44,0,0,1,853.5,272.28Zm1.31-1a.86.86,0,0,1,.5.71.47.47,0,0,1-.44.52.53.53,0,0,1-.51-.31,3.6,3.6,0,0,0-1-1.09c-.06,0-.17-.11-.17-.17a.1.1,0,0,1,.11-.11,1.71,1.71,0,0,1,.36,0A3.34,3.34,0,0,1,854.81,271.3Z"/><path class="cls-1" d="M861.46,274.18c-.11,0-.18-.05-.18-.12s.27-.3.55-.3a3.31,3.31,0,0,1,1.48.55c.35.22.42.42.42.6a.41.41,0,0,1-.19.37.91.91,0,0,0-.24.47,10.81,10.81,0,0,1-1.15,2.61,7.26,7.26,0,0,1-2.83,2.6.89.89,0,0,1-.28.12.12.12,0,0,1-.13-.14c0-.09,0-.1.15-.2a8.79,8.79,0,0,0,2-2.45,11.27,11.27,0,0,0,1-2.44,3.85,3.85,0,0,0,.16-1C862.16,274.56,861.84,274.34,861.46,274.18Zm3.2-.89a1.12,1.12,0,0,0-.65-.51c-.11,0-.16,0-.16-.15s.25-.31.58-.31a2.62,2.62,0,0,1,1.28.49c.25.15.56.39.56.72a.52.52,0,0,1-.2.39.5.5,0,0,0-.11.33c0,.94,0,1.8-.07,3.17v1c0,.12,0,.18.07.18a1,1,0,0,0,.34-.11,17.66,17.66,0,0,0,4.62-2.72c.17-.14.25-.22.35-.22s.14,0,.14.12-.06.13-.11.2a16.14,16.14,0,0,1-4.95,4,.7.7,0,0,0-.28.29.36.36,0,0,1-.32.2,1.17,1.17,0,0,1-.7-.45,1.52,1.52,0,0,1-.39-.84.85.85,0,0,1,0-.24,4.31,4.31,0,0,0,.07-.86c0-1.12,0-2.07,0-3.85A2.86,2.86,0,0,0,864.66,273.29Z"/><path class="cls-1" d="M879.41,276.42a1.25,1.25,0,1,1-1.26-1.26A1.25,1.25,0,0,1,879.41,276.42Z"/><path class="cls-1" d="M886.45,275.44a13,13,0,0,1-1.69,1.71c-.06.05-.18-.07-.14-.12a14.77,14.77,0,0,0,2.45-4.89,12.65,12.65,0,0,0,.46-2.14c1.26.35,1.85.58,1.85.77s-.14.25-.48.32a17.45,17.45,0,0,1-1.68,3.3c.75.12.86.17.86.31s-.09.21-.38.34v7.25c0,.41-.24.59-.73.59-.32,0-.6-.11-.6-.5s.08-1.49.08-3.71Zm5.47,2.18H890a5,5,0,0,0-.89.08l-.15-.52a4.66,4.66,0,0,0,1,.11h1.89v-3.43h-2.24a5.35,5.35,0,0,0-.9.09l-.16-.52a5.37,5.37,0,0,0,1.06.11h5.4c.67-.85.84-1,.94-1s.28.12,1,.68c.31.25.42.37.42.47s0,.14-.18.14h-4v3.43h1.5c.66-.87.83-1,.92-1s.27.11.9.68c.28.26.39.39.39.49s0,.14-.18.14h-3.53v4.2h2.09c.74-1,.91-1.14,1-1.14s.26.12,1,.79c.32.31.43.43.43.53s0,.14-.18.14h-8.39a7.83,7.83,0,0,0-1,.08l-.15-.51a6.29,6.29,0,0,0,1.13.11h2.71Zm1.05-4.88c-.41,0-.55-.12-.8-.82a3,3,0,0,0-1-1.46c-.06,0,0-.14.07-.13,1.82.24,2.55.73,2.55,1.61A.8.8,0,0,1,893,272.74Z"/><path class="cls-1" d="M912.3,272.15c.58-.67.69-.75.8-.75s.25.08,1.08.82c.38.35.46.45.46.56s-.14.3-.6.3c-.31,0-.42,0-.59.12a7.93,7.93,0,0,1-1.26.76c-.06,0-.17,0-.14-.11a4.88,4.88,0,0,0,.43-1.38H903.9c.05,1.11-.38,1.87-1.11,1.87a.7.7,0,0,1-.71-.74.66.66,0,0,1,.45-.68,1.59,1.59,0,0,0,1-1.55c0-.07.14-.09.15,0a4.25,4.25,0,0,1,.17.8h3.56v-.89c0-.47,0-.84,0-1.14,1.72.17,1.89.32,1.89.48s-.17.26-.48.39v1.16Zm-5.66,3.45a21.75,21.75,0,0,1-3.86.4c-.07,0-.07-.18,0-.19a22.9,22.9,0,0,0,5.81-1.89,4.78,4.78,0,0,0,1.53-1.11c1.17.76,1.5,1.07,1.5,1.28s-.14.21-.86.11a13.86,13.86,0,0,1-2.79,1.08v2.34l3.88-.54c.7-1,.82-1.1.93-1.1s.29.08,1,.54c.36.24.44.33.44.44a.16.16,0,0,1-.16.15L908,278v2.31c0,1.05.1,1.1,2.19,1.1,1.6,0,2.1-.1,2.37-.41a7.65,7.65,0,0,0,.78-1.88c0-.07.14-.07.14,0,0,.49-.06,1.11-.06,1.6,0,.17.05.24.24.31a.51.51,0,0,1,.41.5c0,.42-.28.72-.95.88a14.21,14.21,0,0,1-3.24.26c-2.67,0-3.21-.44-3.21-1.81v-2.69l-3.34.46a6,6,0,0,0-.87.2l-.2-.49a8.46,8.46,0,0,0,1,0l3.4-.46Z"/><path class="cls-1" d="M922.81,276.42a1.25,1.25,0,1,1-1.26-1.26A1.25,1.25,0,0,1,922.81,276.42Z"/><path class="cls-1" d="M934,270.78a4.67,4.67,0,0,0-.07-.83c1.75.16,1.92.31,1.92.47s-.18.28-.49.39v1h3.5c.73-.84.9-1,1-1s.28.11,1,.65c.31.26.42.38.42.48s0,.14-.18.14H929.73a6.24,6.24,0,0,0-1,.09l-.16-.52a6.19,6.19,0,0,0,1.12.11H934Zm0,3.77c-.16,1.76-1,2.58-3.16,3-.07,0-.11-.11,0-.16a3.31,3.31,0,0,0,2-2.88h-2.12v7.81c0,.35-.22.59-.8.59-.42,0-.58-.14-.58-.52,0-.84.08-1.68.08-5.07,0-1.27,0-2.55-.06-3.82a7.81,7.81,0,0,1,1.52.69h1.82c-.17-.09-.25-.3-.39-.86a2.64,2.64,0,0,0-.55-1.08c0-.05,0-.12,0-.11,1.21.23,1.84.7,1.84,1.37a.71.71,0,0,1-.45.68h2.73a8.09,8.09,0,0,0,.45-1.27,4.71,4.71,0,0,0,.18-.81c1.47.54,1.59.59,1.59.8s-.13.24-.54.27a7.43,7.43,0,0,1-1.2,1h2.34c.53-.56.64-.65.75-.65s.27.09.82.52c.25.21.33.31.33.42s-.11.27-.47.48v1c0,4.26,0,5,0,5.53s-.15.95-.62,1.19a2.3,2.3,0,0,1-1,.21c-.15,0-.21,0-.22-.18-.16-.79-.27-.88-1.21-1.21-.07,0-.05-.18,0-.16a11.57,11.57,0,0,0,1.44.08c.17,0,.21,0,.21-.21v-6.68h-2.54v1.24c0,.29.12.34.72.34a1.41,1.41,0,0,0,.57-.07c.23-.11.32-.36.53-.95,0-.07.13-.07.13,0v.68c0,.14,0,.17.2.21a.42.42,0,0,1,.29.4c0,.26-.22.46-.67.57a4.41,4.41,0,0,1-1.21.13c-1.36,0-1.68-.24-1.68-1.19v-1.36Zm-.52,6.6c0,.33-.23.47-.73.47s-.49-.11-.49-.4,0-.8,0-2.13c0-.61,0-1.21-.07-1.81a7.64,7.64,0,0,1,1.39.59h2.23c.47-.52.58-.6.7-.6s.26.08.74.46c.22.18.31.28.31.39s-.1.21-.37.39v.38c0,1,0,1.64,0,1.85s-.24.5-.74.5c-.34,0-.49-.11-.49-.37v-.23h-2.55Zm2.55-3h-2.55v2.13h2.55Z"/><path class="cls-1" d="M952.19,278.76a8.51,8.51,0,0,0,2.28,1.38,11.74,11.74,0,0,0,3.68.81c.07,0,.07.13,0,.15-.51.2-.64.31-1,1.17a.22.22,0,0,1-.21.15,2.49,2.49,0,0,1-.66-.21,10.36,10.36,0,0,1-2.46-1.36A8.58,8.58,0,0,1,952,279c0,1.8.09,3.11.09,3.49s-.23.53-.83.53c-.38,0-.54-.15-.54-.46s.07-1.69.09-2.93a10.14,10.14,0,0,1-5.54,2.85c-.07,0-.14-.1-.07-.13a11.68,11.68,0,0,0,4.66-3.59h-3.3a6.24,6.24,0,0,0-1,.09l-.16-.52a5.71,5.71,0,0,0,1.08.11h4.27v-1.3H948a7.83,7.83,0,0,0-1,.08l-.15-.51a6,6,0,0,0,1.1.11h2.79v-1.28H947.3a6.7,6.7,0,0,0-1,.09l-.15-.52a6,6,0,0,0,1.12.11h2.29c-.18-.06-.28-.24-.39-.64a2.62,2.62,0,0,0-.7-1.21c-.06,0,0-.12.08-.11,1.27.2,1.91.63,1.91,1.27a.71.71,0,0,1-.49.69h2.25a8.69,8.69,0,0,0,.59-1.2,6,6,0,0,0,.28-.89c1.14.44,1.6.66,1.6.83s-.1.21-.62.24a8,8,0,0,1-1.37,1H955c.65-.73.82-.84.92-.84s.28.11.9.59c.26.22.38.33.38.43s-.05.14-.19.14h-5v1.28h2.19c.6-.68.77-.79.87-.79s.28.11.81.55c.24.2.35.32.35.42s0,.14-.18.14h-4v1.3h3.48c.71-.8.88-.91,1-.91s.26.11.91.63c.28.23.39.37.39.46s0,.14-.18.14Zm-2.62-7.71a7,7,0,0,0-.07-1c1.58.16,1.73.27,1.73.44s-.11.19-.44.35v2H952v-1.75a7,7,0,0,0-.07-1c1.59.17,1.75.27,1.75.44s-.1.19-.46.35v2h.57a14.41,14.41,0,0,0,.79-1.57,6.3,6.3,0,0,0,.3-.94c1.24.52,1.67.74,1.67.91s-.1.25-.64.27a9.21,9.21,0,0,1-1.68,1.33h1.63c.63-.7.8-.82.9-.82s.28.12.87.56c.27.23.38.34.38.44s0,.14-.18.14H946.51a8.71,8.71,0,0,0-1,.08l-.16-.51a6.41,6.41,0,0,0,1.15.11h3.1Zm-1.5,1.49c-.32,0-.45-.12-.59-.54a2.78,2.78,0,0,0-.76-1.37.08.08,0,0,1,.07-.13c1.32.22,2,.69,2,1.34A.73.73,0,0,1,948.07,272.54Z"/><path class="cls-1" d="M964.7,273.16c0,.7,0,1.42-.08,2.12h.92c.43-.58.55-.66.66-.66s.25.08.73.52c.21.18.29.29.29.4s0,.14-.33.37a21.5,21.5,0,0,1-.79,5.8,1.67,1.67,0,0,1-.55.67,1.61,1.61,0,0,1-1,.29c-.16,0-.22-.05-.23-.22-.09-.58-.28-.8-1-1-.07,0-.05-.17,0-.17.63.05,1,.07,1.14.07.42,0,.52-.07.66-.63a28.71,28.71,0,0,0,.49-5.1h-1c-.28,3.64-1.06,5.5-2.83,7.11,0,.05-.18-.07-.14-.12,1.28-2.17,1.81-4.78,1.81-9v-.41h-.36a5.35,5.35,0,0,0-.9.09l-.16-.52a5.34,5.34,0,0,0,1,.11h.84v-1.7c0-.22,0-.56,0-1,1.56.15,1.7.31,1.7.45s-.12.21-.39.35v1.93h.45c.5-.63.67-.74.77-.74s.27.11.73.53c.18.17.29.29.29.39s0,.14-.18.14Zm4.06-.35a7.92,7.92,0,0,1-1.82,1.92c-.05,0-.2,0-.15-.1a10.27,10.27,0,0,0,1.29-2.77,10.08,10.08,0,0,0,.35-1.81c1.47.31,1.79.44,1.79.63s-.14.25-.51.31a8,8,0,0,1-.74,1.5h3.59c.68-.84.85-.95,1-.95s.27.11.9.66c.28.25.39.37.39.47s0,.14-.18.14Zm.45,8.13c0,.47.08.56,1.88.56s2.1-.06,2.34-.21.33-.34.82-1.87c0-.07.19,0,.19,0,0,.42-.05,1-.05,1.28a.34.34,0,0,0,.21.36c.28.17.38.31.38.56s-.25.63-.9.77a13.16,13.16,0,0,1-2.67.18c-2.89,0-3.4-.21-3.4-1.31,0-.35,0-.7,0-2.16,0-.65,0-1.28,0-1.92a4.12,4.12,0,0,0-.83.32l-.26-.46a3.77,3.77,0,0,0,.89-.15l.2-.06c0-.88,0-1.77,0-2.66,1.48.15,1.66.21,1.66.42s-.09.22-.43.36v1.54l1.12-.32v-1a15.51,15.51,0,0,0-.07-1.85c1.23.11,1.64.22,1.64.43s-.13.23-.45.32v1.77l1.07-.31c.43-.66.57-.81.72-.81a2.19,2.19,0,0,1,1,.64.54.54,0,0,1,.17.28c0,.14-.1.24-.41.44a21.11,21.11,0,0,1-.22,2.9,1.59,1.59,0,0,1-.45.86,1.25,1.25,0,0,1-.85.31c-.19,0-.2,0-.2-.37s-.28-.62-.78-.83c0,.43,0,.76,0,.94,0,.36-.21.5-.72.5s-.49-.1-.49-.46.05-1.44.06-3.42l-1.12.32Zm2.24-4.73c0,.44,0,.86,0,1.29v1.28a3.85,3.85,0,0,0,.75.08.38.38,0,0,0,.41-.38,22.57,22.57,0,0,0,.15-2.64Z"/><path class="cls-1" d="M982.45,272.92c.61-.74.77-.85.87-.85s.28.11.9.6c.26.21.38.34.38.44s-.05.14-.19.14H980a6,6,0,0,0-1,.08l-.15-.52a5.4,5.4,0,0,0,1.12.11Zm-1.73,9v.44c0,.36-.26.54-.72.54s-.59-.14-.59-.47,0-.89,0-2.68a19,19,0,0,0-.08-2,15.44,15.44,0,0,1,1.49.7h1.4c.49-.59.6-.67.71-.67s.25.08.76.49c.22.2.31.29.31.41s-.1.25-.41.46v.46c0,1.21.06,2,.06,2.3s-.26.54-.76.54-.56-.12-.56-.43v-.1ZM981.79,271c.62-.73.79-.84.89-.84s.28.11.87.59c.25.21.36.34.36.43s0,.14-.18.14h-3.28a4.63,4.63,0,0,0-.83.09l-.15-.52a4.72,4.72,0,0,0,1,.11Zm.13,3.76c.53-.69.7-.8.8-.8s.28.11.81.56c.24.19.35.32.35.42s0,.14-.18.14h-3.22a6,6,0,0,0-.86.08l-.15-.52a4.43,4.43,0,0,0,1,.12Zm0,1.8c.53-.68.7-.8.79-.8s.29.12.83.57c.24.19.35.32.35.42s0,.14-.18.14h-3.22a4.54,4.54,0,0,0-.84.08l-.16-.52a4.28,4.28,0,0,0,1,.11Zm.46,2.17h-1.65v2.82h1.65Zm6.55-2.53c.58-.56.69-.64.8-.64s.27.08.84.54c.27.21.35.31.35.42s-.15.3-.52.44a10.68,10.68,0,0,1-1.86,2.87,8.23,8.23,0,0,0,3.36,1.26c.07,0,.07.12,0,.14-.47.14-.65.4-.81,1.06,0,.21-.1.3-.19.3a2.75,2.75,0,0,1-.54-.2,6.75,6.75,0,0,1-2.6-1.82,11.25,11.25,0,0,1-4.13,2.11c-.07,0-.14-.15-.07-.18a11,11,0,0,0,3.57-2.73,10.9,10.9,0,0,1-1.39-3.25h-.22a3.37,3.37,0,0,0-.82.11l-.15-.54a5.08,5.08,0,0,0,1,.11Zm2.47-2.75c0,.21.06.27.28.35a.45.45,0,0,1,.2.42c0,.3-.19.52-.56.65a4.42,4.42,0,0,1-1.36.17c-1.24,0-1.67-.31-1.67-1.19,0-.55,0-.69,0-1.24v-1.43h-1.63v.27a5.76,5.76,0,0,1-.45,2.49,4.38,4.38,0,0,1-2.1,1.68c-.06,0-.19,0-.13-.09a3.86,3.86,0,0,0,1.19-1.95,6.47,6.47,0,0,0,.17-1.69,15.6,15.6,0,0,0-.1-1.69c.7.3.83.34,1.46.66h1.54c.45-.52.53-.59.68-.59s.26.06.72.45a.74.74,0,0,1,.28.37c0,.14-.1.25-.37.4v2.17c0,.23.1.27.55.27s.52,0,.66-.17a3,3,0,0,0,.46-1.25c0-.07.17-.07.17,0ZM986,276.55a7.35,7.35,0,0,0,1.65,2.58,8.78,8.78,0,0,0,1.32-2.58Z"/><path class="cls-1" d="M997.35,276.45a2,2,0,0,1,1.86-1.13c1.78,0,2.7,1.3,2.7,3.11a3,3,0,0,1-3,3.26c-1.86,0-3.21-1.51-3.21-3.93a6.44,6.44,0,0,1,2.85-5.3,9,9,0,0,1,2.34-1.3c.11,0,.18,0,.37.26s.12.42,0,.42a3.76,3.76,0,0,0-2.08.7,5.44,5.44,0,0,0-1.85,3.91Zm.1.58a1.68,1.68,0,0,0-.19.87c0,2.25.62,3.36,1.6,3.36s1.4-1.23,1.4-2.82c0-1.43-.41-2.57-1.44-2.57C998.2,275.87,997.74,276.31,997.45,277Z"/><path class="cls-1" d="M1006.84,275.42c0,.21-.06.43-.08.72a2.72,2.72,0,0,1,2.21-.86,2.76,2.76,0,0,1,2.83,3,3.09,3.09,0,0,1-3.21,3.37,4.08,4.08,0,0,1-2-.47c-.47-.27-1-.73-1-1.19,0-.3.35-.58,1-.58s.76.66.91,1a1.07,1.07,0,0,0,1,.77c1.09,0,1.54-1.26,1.54-2.93s-.78-2.52-1.65-2.52a1.91,1.91,0,0,0-1.77,1c-.08.14-.14.17-.38.07s-.19-.15-.16-.28a3.82,3.82,0,0,0,.08-.39l.34-4.47a.25.25,0,0,1,.08-.18.24.24,0,0,1,.2-.09c.56,0,1.45,0,2.2,0,.57,0,1.45,0,2.38-.06.1,0,.14.06.12.11l-.46,1.27a.14.14,0,0,1-.14.09l-1.41,0H1007Z"/><path class="cls-1" d="M1018.77,275c1,.38,1.51.9,1.51,1.54,0,.38-.22.67-.52.67s-.42-.17-.46-.5a2.7,2.7,0,0,0-.53-1.46c0,2.75.07,6.54.07,7.31,0,.31-.28.45-.74.45s-.55-.11-.55-.41c0-.71.1-3.65.11-6.31a8.46,8.46,0,0,1-2,3.29c-.06.05-.16,0-.13-.09a20.13,20.13,0,0,0,1.93-5.85h-.5a7.14,7.14,0,0,0-.95.08l-.16-.51a5.34,5.34,0,0,0,1,.11h.73v-1.45c0-.7,0-1.26-.07-1.79,1.51.16,1.78.21,1.78.45s-.16.27-.52.41v2.38h.15c.39-.72.56-.83.66-.83s.22.11.62.58a.89.89,0,0,1,.25.43c0,.1,0,.14-.18.14h-1.5Zm6,3a6.49,6.49,0,0,0,1.76,1.71,7.67,7.67,0,0,0,2.58,1c.07,0,.06.1,0,.14a1.4,1.4,0,0,0-.74.94c-.07.24-.1.26-.21.26a1.29,1.29,0,0,1-.55-.23,8.46,8.46,0,0,1-1.57-1.29,9.88,9.88,0,0,1-1.52-2.33c0,1.84.14,3.7.14,4.27,0,.38-.26.54-.77.54s-.55-.13-.55-.44.08-1.86.11-3.4a9.13,9.13,0,0,1-4.27,2.91c-.07,0-.13-.1-.07-.14a10.45,10.45,0,0,0,3.7-3.92h-1.09v0c0,.36-.24.5-.73.5s-.54-.1-.54-.43,0-1.29,0-3c0-.8,0-1.19,0-2a10.83,10.83,0,0,1,1.32.68h1.61v-1.37h-2.34a6.22,6.22,0,0,0-.88.08l-.15-.51a5.24,5.24,0,0,0,1,.11h2.34v-.41a13.77,13.77,0,0,0-.07-1.6c1.45.12,1.71.21,1.71.44s-.11.22-.42.39V272h1.92c.66-.76.83-.87.92-.87s.28.11.87.6c.27.22.38.35.38.45s0,.14-.18.14h-3.91v1.37h1.77c.4-.53.51-.61.63-.61s.26.08.75.46c.23.18.31.28.31.39s-.11.27-.38.43V275c0,1.58.07,2.67.07,3s-.25.47-.73.47-.54-.11-.54-.36V278Zm-1.39-3.94h-1.66v1.59h1.66Zm0,1.91h-1.66v1.71h1.66Zm3.1-.32V274h-1.88v1.59Zm0,2V276h-1.88v1.71Z"/><path class="cls-1" d="M1032.81,279.58a.12.12,0,0,1,.12-.13,7.12,7.12,0,0,1,2.46,1,1.77,1.77,0,0,1,.89,1.41.82.82,0,0,1-.84.87.84.84,0,0,1-.74-.63,4.82,4.82,0,0,0-1.79-2.35A.17.17,0,0,1,1032.81,279.58Z"/><path class="cls-1" d="M852.72,295.36a1.83,1.83,0,0,0,.63-.21,1.17,1.17,0,0,1,.47-.12,2.52,2.52,0,0,1,1.17.35.61.61,0,0,1,.36.55.41.41,0,0,1-.41.43,4.1,4.1,0,0,1-.7-.07,8.56,8.56,0,0,0-.93-.08c-.54,0-1.52,0-2.72.07,0,1.09,0,2,0,2.62,0,1.4.07,2,.07,2.56a2,2,0,0,1-.2.89.91.91,0,0,1-.87.57c-.21,0-.36-.08-.43-.41a.84.84,0,0,0-.31-.53,6.11,6.11,0,0,0-1.08-.61c-.25-.12-.31-.16-.31-.26s.06-.07.14-.07a2.54,2.54,0,0,1,.34,0,10.7,10.7,0,0,0,1.27.11c.21,0,.21-.14.21-.32,0-.36,0-.82,0-1.85s0-1.8,0-2.68c-.86.1-1.59.21-2.64.38a1.53,1.53,0,0,0-.57.18.87.87,0,0,1-.51.17c-.19,0-.49-.13-.88-.62a1.14,1.14,0,0,1-.36-.77c0-.15.05-.4.15-.4s.21.14.42.32a1.09,1.09,0,0,0,.84.33l.58,0,3-.28V294a1.21,1.21,0,0,0-.05-.45.46.46,0,0,0-.37-.31l-.4-.08c-.15,0-.19-.06-.19-.13s.17-.28.42-.39a1.62,1.62,0,0,1,.65-.14,2.78,2.78,0,0,1,1.2.53.56.56,0,0,1,.28.49.71.71,0,0,1-.19.41c-.16.15-.19.21-.2.53s0,.62,0,1.12C851.3,295.5,852,295.44,852.72,295.36Zm-5.61,2.38c.1,0,.12.11.13.26a4.47,4.47,0,0,1-.11,1.57,2.54,2.54,0,0,1-.65,1.11,1.21,1.21,0,0,1-.82.36.62.62,0,0,1-.69-.66c0-.29.09-.51.56-.75a2.65,2.65,0,0,0,.86-.62A2.78,2.78,0,0,0,847,298C847,297.82,847,297.74,847.11,297.74Zm5.09.17c0-.09.06-.12.17-.12l.19,0a4.78,4.78,0,0,1,1.8.84,1.73,1.73,0,0,1,.79,1.26c0,.49-.19.87-.67.87s-.56-.24-.73-.63a8.81,8.81,0,0,0-.72-1.32,3.2,3.2,0,0,0-.68-.72C852.26,298,852.2,298,852.2,297.91Z"/><path class="cls-1" d="M865.37,295.69c1.43-.11,1.94-.14,2.65-.22a2.1,2.1,0,0,0,.53-.16,1.65,1.65,0,0,1,.52-.12,2.7,2.7,0,0,1,1.33.38.59.59,0,0,1,.31.54.39.39,0,0,1-.32.42,4.18,4.18,0,0,1-.86,0,14.34,14.34,0,0,0-1.73-.1c-.48,0-1.27,0-1.9,0,.45.31.65.59.65.78a.48.48,0,0,1-.07.23,2.28,2.28,0,0,0-.28.63,9.17,9.17,0,0,1-1.53,2.76,8.67,8.67,0,0,1-2.86,2.37.58.58,0,0,1-.23.08c-.1,0-.14,0-.14-.14s.11-.17.35-.38a11.8,11.8,0,0,0,2.06-2.58,11,11,0,0,0,1-2.48A3.87,3.87,0,0,0,865,297a.62.62,0,0,0-.16-.47c-1,.09-2,.22-2.67.35a1.67,1.67,0,0,0-.66.23.64.64,0,0,1-.42.13c-.25,0-.5-.14-.94-.63a1.27,1.27,0,0,1-.36-.77c0-.21.07-.34.15-.34s.13.09.21.16a1.49,1.49,0,0,0,1,.45c.34,0,.83-.05,1.24-.09C863.3,295.87,864.11,295.79,865.37,295.69Zm.9-3a1.59,1.59,0,0,0,.42-.15,1.67,1.67,0,0,1,.53-.16,2.61,2.61,0,0,1,1.21.28.48.48,0,0,1,.22.42c0,.3-.18.48-.52.49s-.67,0-1.12.06l-3.09.25c-.27,0-.54.06-.73.06a1.18,1.18,0,0,1-1.12-.51,1,1,0,0,1-.33-.74c0-.12,0-.21.1-.21s.09.06.18.13a1.54,1.54,0,0,0,1.13.43c.28,0,.78,0,1.51-.11S865.82,292.82,866.27,292.72Z"/><path class="cls-1" d="M877.28,295.33c-.11,0-.18-.06-.18-.13s.27-.29.55-.29a3.28,3.28,0,0,1,1.48.54c.35.23.42.42.42.61a.41.41,0,0,1-.19.36.91.91,0,0,0-.24.48,10.92,10.92,0,0,1-1.15,2.6,7.36,7.36,0,0,1-2.83,2.61.8.8,0,0,1-.28.11c-.08,0-.13,0-.13-.14s0-.1.14-.2a8.38,8.38,0,0,0,2-2.45,11.27,11.27,0,0,0,1-2.44,3.85,3.85,0,0,0,.16-1C878,295.71,877.66,295.48,877.28,295.33Zm3.2-.9a1.11,1.11,0,0,0-.65-.5c-.11-.05-.16-.06-.16-.16s.25-.31.58-.31a2.55,2.55,0,0,1,1.28.5c.25.15.56.39.56.71a.49.49,0,0,1-.2.39.56.56,0,0,0-.11.34c0,.94,0,1.79-.07,3.16v1c0,.13,0,.18.07.18a1.07,1.07,0,0,0,.34-.11,17.66,17.66,0,0,0,4.62-2.72c.17-.14.25-.22.35-.22s.14,0,.14.12-.06.13-.11.2a16.14,16.14,0,0,1-5,4.05.7.7,0,0,0-.28.29.36.36,0,0,1-.32.2,1.17,1.17,0,0,1-.7-.45,1.46,1.46,0,0,1-.39-.84.85.85,0,0,1,0-.24,4.27,4.27,0,0,0,.07-.85c0-1.12,0-2.08,0-3.85A2.93,2.93,0,0,0,880.48,294.43Z"/><path class="cls-1" d="M895.24,297.57a1.27,1.27,0,0,1-1.27,1.25,1.26,1.26,0,1,1,1.27-1.25Z"/><path class="cls-1" d="M906.64,292.57a1.86,1.86,0,0,0-.68-.27c-.13,0-.16,0-.16-.1s.12-.18.23-.26a.68.68,0,0,1,.42-.13,3.33,3.33,0,0,1,1.2.3c.47.21.79.4.79.74a.55.55,0,0,1-.17.4c-.1.1-.15.28-.15.77a24.39,24.39,0,0,1-.35,4.82,5.18,5.18,0,0,1-1.41,2.57,8.11,8.11,0,0,1-4.18,2.06,2.2,2.2,0,0,1-.27,0c-.13,0-.18,0-.18-.13s0-.11.19-.17a7.14,7.14,0,0,0,4.15-3.23,7.64,7.64,0,0,0,.76-3.1c0-.6,0-1.55,0-3.43C906.88,292.92,906.85,292.71,906.64,292.57Zm-3.76,1c-.07-.19-.27-.34-.69-.54-.11-.05-.15-.07-.15-.14s.05-.11.15-.15a1.05,1.05,0,0,1,.45-.11,2.6,2.6,0,0,1,1.05.38c.46.25.73.56.73.81a.66.66,0,0,1-.17.39,1,1,0,0,0-.1.48c0,1.1-.07,2.28-.08,4,0,.42-.17.61-.49.61s-.45-.19-.63-.51a1.66,1.66,0,0,1-.19-.78,1.47,1.47,0,0,1,.07-.41,2.87,2.87,0,0,0,.07-.64c0-.54.05-1.11.05-2.23A4,4,0,0,0,902.88,293.58Z"/><path class="cls-1" d="M914.23,294.11c0-.1.07-.13.17-.13a2.29,2.29,0,0,1,.67.2,3.5,3.5,0,0,1,1.39.88,1.6,1.6,0,0,1,.46,1.11.82.82,0,0,1-.77.92.69.69,0,0,1-.69-.57,4.47,4.47,0,0,0-1.12-2.27C914.27,294.19,914.23,294.17,914.23,294.11ZM919,300.4a11.9,11.9,0,0,1-3.64,2.7,1.63,1.63,0,0,1-.59.2.11.11,0,0,1-.12-.11c0-.1.05-.13.25-.27a15.53,15.53,0,0,0,3.07-2.86,20.47,20.47,0,0,0,2.21-3.42,7.08,7.08,0,0,0,1-2.31.54.54,0,0,0-.26-.47,3.87,3.87,0,0,0-.48-.26c-.13-.05-.17-.07-.17-.16s.35-.28.66-.28a3,3,0,0,1,1.62.7c.38.29.47.49.47.67a.54.54,0,0,1-.24.46,2.58,2.58,0,0,0-.53.72A22.77,22.77,0,0,1,919,300.4Zm4.51-8.07a1,1,0,0,1,.52.84.47.47,0,0,1-.46.49.51.51,0,0,1-.48-.32,5.1,5.1,0,0,0-.88-1.23c-.06-.06-.15-.13-.15-.19s.07-.09.16-.09a1.65,1.65,0,0,1,.33.05A2.59,2.59,0,0,1,923.5,292.33Zm1.29-.95a.84.84,0,0,1,.51.71.47.47,0,0,1-.44.52.55.55,0,0,1-.52-.31,3.36,3.36,0,0,0-1-1.09c-.05,0-.17-.11-.17-.17a.11.11,0,0,1,.12-.11,1.71,1.71,0,0,1,.36,0A3.22,3.22,0,0,1,924.79,291.38Z"/><path class="cls-1" d="M939.78,298.21c-.43,0-1.38-.07-2.07-.07-1.1,0-3.51.06-5.24.21a3.89,3.89,0,0,0-1.38.27.61.61,0,0,1-.38.11c-.37,0-.69-.33-1.12-1a1.12,1.12,0,0,1-.27-.75c0-.23.09-.34.17-.34s.11.06.18.13a1.4,1.4,0,0,0,1.18.53c.38,0,.64,0,1.47-.07,1.74-.11,3.59-.2,5-.22a2.73,2.73,0,0,0,1.09-.2.93.93,0,0,1,.39-.11,1.57,1.57,0,0,1,.63.14c.54.22.9.43.9.78A.53.53,0,0,1,939.78,298.21Z"/><path class="cls-1" d="M950.3,296.83c.84.35,1.3.78,1.3,1.41a.69.69,0,0,1-.6.74.94.94,0,0,1-.77-.4,9,9,0,0,0-1-1,4.16,4.16,0,0,0-1.46-.79v2.43c0,.59,0,1.88.06,3.39,0,.54-.24.66-.52.66a.65.65,0,0,1-.59-.32,2.44,2.44,0,0,1-.31-1.11,1.46,1.46,0,0,1,.07-.4.47.47,0,0,0,.07-.24c0-.18.05-.58.06-3.14,0-1.33,0-2.52,0-3.84a6.91,6.91,0,0,0-.06-1.19.63.63,0,0,0-.29-.32,1.57,1.57,0,0,0-.49-.22c-.1,0-.14-.07-.14-.13s.1-.15.18-.21a.82.82,0,0,1,.39-.13,3.3,3.3,0,0,1,1.42.38c.38.17.56.39.56.66a.62.62,0,0,1-.24.45c-.06,0-.08.14-.1.28,0,.39-.07,1.22-.07,2.52A7.71,7.71,0,0,1,950.3,296.83Z"/><path class="cls-1" d="M958.74,294.3c0,.7,0,1.42-.09,2.12h.93c.43-.57.54-.66.66-.66s.25.09.72.52c.21.18.3.29.3.41s0,.14-.34.36a21.15,21.15,0,0,1-.78,5.8,1.61,1.61,0,0,1-.55.67,1.57,1.57,0,0,1-1,.3c-.17,0-.22-.06-.24-.23-.08-.57-.28-.8-1-1-.07,0,0-.17,0-.17.63.06,1,.07,1.15.07.42,0,.52-.07.66-.63a28.61,28.61,0,0,0,.49-5.1h-1.05c-.28,3.64-1.07,5.51-2.83,7.12-.06,0-.18-.07-.14-.13,1.27-2.17,1.81-4.77,1.81-9v-.41h-.37a5.34,5.34,0,0,0-.89.09l-.16-.52a4.66,4.66,0,0,0,1,.11h.84v-1.69c0-.23,0-.56-.06-1,1.57.16,1.71.31,1.71.45s-.12.21-.39.35V294h.45c.5-.63.67-.74.77-.74s.26.11.73.53c.18.17.29.3.29.4s0,.13-.18.13Zm4.06-.34a7.89,7.89,0,0,1-1.82,1.91c-.06.05-.2,0-.16-.09a10.48,10.48,0,0,0,1.29-2.78,9.32,9.32,0,0,0,.35-1.8c1.47.3,1.8.43,1.8.63s-.14.25-.51.3a8.36,8.36,0,0,1-.74,1.5h3.59c.68-.84.85-.95.95-.95s.26.11.89.66c.28.25.4.38.4.47s-.05.15-.19.15Zm.45,8.12c0,.48.08.56,1.87.56s2.1-.06,2.34-.21.34-.34.83-1.86c0-.07.18-.05.18,0,0,.42,0,1,0,1.28a.32.32,0,0,0,.21.36c.28.17.38.31.38.56s-.25.63-.9.77a13.05,13.05,0,0,1-2.67.19c-2.89,0-3.41-.21-3.41-1.32,0-.35,0-.7,0-2.16,0-.64,0-1.27,0-1.92a3.53,3.53,0,0,0-.83.33l-.27-.47a3.85,3.85,0,0,0,.9-.15l.2-.06c0-.88,0-1.76,0-2.66,1.49.16,1.67.21,1.67.42s-.1.23-.43.37v1.54l1.12-.33v-1a18.11,18.11,0,0,0-.07-1.85c1.23.11,1.64.23,1.64.44s-.13.22-.45.32V297l1.06-.31c.44-.65.58-.81.73-.81a2.22,2.22,0,0,1,1,.65.54.54,0,0,1,.17.28c0,.14-.1.23-.41.43a21,21,0,0,1-.22,2.9,1.62,1.62,0,0,1-.45.87,1.33,1.33,0,0,1-.86.31c-.18,0-.19,0-.19-.38s-.28-.62-.79-.83c0,.44,0,.76,0,.94,0,.36-.21.51-.72.51s-.49-.1-.49-.47,0-1.44.06-3.42l-1.12.33Zm2.24-4.72c0,.43,0,.85,0,1.29v1.27a3.56,3.56,0,0,0,.76.09c.22,0,.36-.12.4-.38a20.1,20.1,0,0,0,.16-2.65Z"/><path class="cls-1" d="M976.49,294.07c.6-.75.77-.86.87-.86s.28.11.89.6c.27.21.38.34.38.44s0,.14-.18.14H974a7.27,7.27,0,0,0-.95.08l-.15-.51a6.11,6.11,0,0,0,1.12.11Zm-1.74,9v.43c0,.36-.25.55-.71.55s-.59-.14-.59-.48,0-.88,0-2.67a19,19,0,0,0-.08-2,11.06,11.06,0,0,1,1.48.7h1.4c.49-.59.61-.68.72-.68s.25.09.75.49c.23.2.31.3.31.41s-.1.25-.4.46v.46c0,1.21.05,2,.05,2.3s-.25.55-.75.55-.56-.13-.56-.44v-.09Zm1.08-10.87c.62-.73.79-.84.88-.84s.28.11.87.58c.25.21.37.34.37.44s-.05.14-.19.14h-3.27a5.48,5.48,0,0,0-.83.08l-.15-.52a4.14,4.14,0,0,0,1,.12Zm.13,3.75c.53-.69.7-.8.8-.8s.28.11.81.56c.24.2.35.32.35.42s0,.14-.18.14h-3.23a4.83,4.83,0,0,0-.85.09l-.15-.52a4.9,4.9,0,0,0,1,.11Zm0,1.81c.54-.69.7-.8.8-.8s.28.11.83.56c.24.19.35.32.35.42s0,.14-.18.14h-3.23a5.72,5.72,0,0,0-.84.08l-.15-.51a4.81,4.81,0,0,0,1,.11Zm.47,2.17h-1.66v2.81h1.66Zm6.55-2.54c.57-.56.69-.64.8-.64s.27.08.84.54c.27.21.35.31.35.42s-.15.3-.52.44a10.93,10.93,0,0,1-1.86,2.87,8.13,8.13,0,0,0,3.36,1.26c.07,0,.07.13,0,.14-.48.14-.66.41-.81,1.07,0,.21-.1.29-.2.29a2,2,0,0,1-.53-.2,6.68,6.68,0,0,1-2.61-1.82,11.26,11.26,0,0,1-4.13,2.12c-.07,0-.14-.16-.07-.18a10.67,10.67,0,0,0,3.57-2.74,11.14,11.14,0,0,1-1.38-3.25h-.23a2.94,2.94,0,0,0-.81.12l-.15-.55a5,5,0,0,0,1,.11Zm2.47-2.74c0,.21.05.26.28.35a.44.44,0,0,1,.19.42c0,.29-.18.52-.56.64a4.33,4.33,0,0,1-1.36.17c-1.23,0-1.66-.31-1.66-1.19,0-.55,0-.69,0-1.23v-1.43h-1.64v.26a5.53,5.53,0,0,1-.45,2.5,4.34,4.34,0,0,1-2.1,1.68s-.18-.06-.12-.1a3.93,3.93,0,0,0,1.19-1.95,6.92,6.92,0,0,0,.16-1.69,15.19,15.19,0,0,0-.09-1.68,12.94,12.94,0,0,1,1.45.66h1.54c.45-.52.54-.59.69-.59s.25.05.72.45c.16.14.28.29.28.36s-.1.25-.37.41v2.17c0,.22.1.26.55.26s.52,0,.66-.16a3.12,3.12,0,0,0,.46-1.25c0-.07.17-.07.17,0Zm-5.4,3.06a7.28,7.28,0,0,0,1.66,2.58,8.39,8.39,0,0,0,1.31-2.58Z"/><path class="cls-1" d="M993.2,297.19c1.66.34,2.58,1.23,2.58,2.61a2.91,2.91,0,0,1-3.21,3,3.65,3.65,0,0,1-2.05-.55c-.45-.28-.91-.73-.91-1.18s.36-.6,1-.6.73.67.9,1.07a1.07,1.07,0,0,0,1.06.82c1,0,1.53-1,1.53-2.65,0-1-.43-2.38-1.83-2.28l-.63,0c-.13,0-.2,0-.14-.28s.11-.32.26-.32.37,0,.53,0c.78,0,1.56-.61,1.56-2.18,0-1.07-.41-2-1.18-2a1.09,1.09,0,0,0-1,.63,1.69,1.69,0,0,0-.11.7c0,.46-.45.73-1,.73-.43,0-.64-.14-.64-.45,0-.8,1.09-2.05,2.85-2.05,1.6,0,2.78.88,2.78,2.41s-1.05,2.06-2.25,2.34Z"/><path class="cls-1" d="M1006,297.58c0,3.22-1.16,5.26-3.11,5.26s-3.14-1.94-3.14-5.17,1.15-5.3,3.14-5.3S1006,294.39,1006,297.58Zm-4.61.05c0,2.91.29,4.77,1.5,4.77s1.47-1.86,1.47-4.77-.28-4.82-1.47-4.82S1001.38,294.7,1001.38,297.63Z"/><path class="cls-1" d="M1015.93,295.06c.91,0,1.6,1,1.6,2.44a9.51,9.51,0,0,1-.52,3.18,4.73,4.73,0,0,1-.83,1.5c-.49.52-.9.84-1.37.84s-.7-.18-.69-.63a1.12,1.12,0,0,0-.28-.75,8.54,8.54,0,0,0-.6-.75c-.07-.09-.1-.13-.1-.17a.1.1,0,0,1,.11-.11.3.3,0,0,1,.18.08,6.21,6.21,0,0,0,1,.55,1.53,1.53,0,0,0,.53.15.6.6,0,0,0,.53-.25,5.16,5.16,0,0,0,.73-1.6,8.56,8.56,0,0,0,.34-2.22c0-1.32-.2-1.71-.83-1.71a3.6,3.6,0,0,0-.73.11c-.63,1.33-1.38,3-2,4.17s-1,2-1.39,2.61a.68.68,0,0,1-.62.31.57.57,0,0,1-.53-.56,1.28,1.28,0,0,1,.27-.76,43.16,43.16,0,0,0,3.09-5.41c-.54.21-1.08.42-1.52.62a1.94,1.94,0,0,0-.41.2.6.6,0,0,1-.36.12,1.16,1.16,0,0,1-.79-.38,1.61,1.61,0,0,1-.53-.95c0-.29.08-.5.21-.5s.13.07.18.15a1.07,1.07,0,0,0,.72.49,5.43,5.43,0,0,0,1.2-.17c.52-.09,1-.25,1.63-.39a8,8,0,0,0,.65-2.24.42.42,0,0,0-.21-.41,3.64,3.64,0,0,0-.54-.23c-.11-.05-.21-.06-.21-.14s.1-.21.24-.26a2.19,2.19,0,0,1,.68-.11,2.27,2.27,0,0,1,1.47.8.56.56,0,0,1,.13.39.55.55,0,0,1-.32.45,1,1,0,0,0-.3.44c-.12.29-.32.68-.53,1.14A4.85,4.85,0,0,1,1015.93,295.06Zm3.4,4-.42,0c-.12,0-.15-.05-.15-.1s0-.07.12-.13c1.24-.49,1.7-.75,1.7-1a2.38,2.38,0,0,0-.42-1.15,3.39,3.39,0,0,0-1.61-1.43c-.14-.05-.25-.11-.25-.19s.07-.14.21-.14h.09a4.35,4.35,0,0,1,2.27,1.16,3.3,3.3,0,0,1,1.18,2.6.66.66,0,0,1-1.16.54.64.64,0,0,0-.48-.25C1019.92,299,1019.61,299.05,1019.33,299.07Z"/><path class="cls-1" d="M1028.4,298.17a13.1,13.1,0,0,1-.39,2.45,7.87,7.87,0,0,1-1.91,3.27c0,.05-.21-.09-.18-.14a9.29,9.29,0,0,0,1.07-3.44,33.85,33.85,0,0,0,.18-4.72c0-.81,0-1.17-.06-1.87a13.16,13.16,0,0,1,1.49.78h2c.52-.54.63-.63.74-.63s.25.09.77.53c.23.2.31.3.31.41s-.08.22-.41.43v.68c0,1.35,0,2.17,0,2.56s-.26.53-.75.53-.59-.12-.59-.46v-.38Zm2.31-5.92c.66-.76.83-.87.93-.87s.28.11.91.6c.28.24.39.35.39.45s0,.14-.18.14h-5a7.55,7.55,0,0,0-1,.08l-.16-.52a5.33,5.33,0,0,0,1.11.12Zm0,2.57h-2.22v.45c0,1,0,1.84-.07,2.58h2.29Zm3.7,1.45a14.49,14.49,0,0,1-.56,3.68,7.35,7.35,0,0,1-3.19,3.94c-.06,0-.2-.1-.16-.16a8.18,8.18,0,0,0,2.25-4,21.62,21.62,0,0,0,.39-4.74c0-.88,0-1.44-.1-2.31a10,10,0,0,1,1.47.63,8,8,0,0,0,2.34-1.42,7,7,0,0,0,.67-.66c1.28,1,1.36,1.1,1.36,1.26s-.1.19-.66.12a17.71,17.71,0,0,1-3.76,1.14v.64c0,.55,0,1.07,0,1.54h2.8c.59-.77.75-.88.85-.88s.28.11.93.62c.28.24.39.35.39.45s0,.14-.18.14h-1.94v2.35c0,1.69,0,3.82,0,4.52,0,.49-.2.66-.8.66-.41,0-.58-.15-.58-.5s0-1.29,0-3.25v-3.78Z"/><line class="cls-3" x1="782.81" y1="339.86" x2="782.81"/><line class="cls-3" x1="443.62" y1="339.86" x2="443.62"/><line class="cls-4" x1="88.56" y1="283.97" x2="407.83" y2="283.97"/><path class="cls-1" d="M80.29,282.42c0,3.22-1.17,5.25-3.11,5.25S74,285.74,74,282.5s1.15-5.29,3.14-5.29S80.29,279.22,80.29,282.42Zm-4.61,0c0,2.91.29,4.78,1.5,4.78s1.47-1.87,1.47-4.78-.28-4.82-1.47-4.82S75.68,279.53,75.68,282.46Z"/><line class="cls-4" x1="88.56" y1="245.3" x2="407.83" y2="245.3"/><path class="cls-1" d="M58.37,243.76a2.07,2.07,0,0,1,1.87-1.13c1.78,0,2.7,1.3,2.7,3.11a3,3,0,0,1-3,3.26c-1.87,0-3.21-1.51-3.21-3.94a6.46,6.46,0,0,1,2.84-5.29,9.36,9.36,0,0,1,2.34-1.3c.11,0,.18,0,.38.26s.11.42,0,.42a3.73,3.73,0,0,0-2.07.7,5.44,5.44,0,0,0-1.85,3.91Zm.1.58a1.78,1.78,0,0,0-.18.86c0,2.26.62,3.37,1.6,3.37s1.4-1.24,1.4-2.82c0-1.43-.41-2.58-1.44-2.58C59.23,243.17,58.77,243.62,58.47,244.34Z"/><path class="cls-1" d="M66.47,242.73c0,.21-.06.43-.09.72a3,3,0,0,1,5,2.18,3.08,3.08,0,0,1-3.2,3.37,4,4,0,0,1-2-.48c-.46-.26-.95-.72-.95-1.19,0-.29.35-.57,1-.57s.75.66.91,1a1.07,1.07,0,0,0,1,.77c1.09,0,1.54-1.26,1.54-2.93s-.79-2.52-1.66-2.52a1.9,1.9,0,0,0-1.76,1c-.08.14-.14.17-.38.07s-.19-.15-.17-.28.07-.27.09-.39l.33-4.47c0-.06,0-.1.09-.18a.23.23,0,0,1,.19-.09c.56,0,1.46,0,2.2,0,.58,0,1.46,0,2.38-.06.1,0,.14.06.13.11l-.46,1.26a.16.16,0,0,1-.14.1c-.56,0-.91,0-1.42,0H66.66Z"/><path class="cls-1" d="M80.29,243.75c0,3.22-1.17,5.25-3.11,5.25S74,247.07,74,243.83s1.15-5.29,3.14-5.29S80.29,240.55,80.29,243.75Zm-4.61,0c0,2.91.29,4.78,1.5,4.78s1.47-1.87,1.47-4.78S78.37,239,77.18,239,75.68,240.86,75.68,243.79Z"/><line class="cls-4" x1="88.56" y1="167.97" x2="407.83" y2="167.97"/><path class="cls-1" d="M44,162.8c-.14,0-.2,0-.24-.16s0-.19.13-.25c.81-.29,2-.81,3-1.26.1,0,.22.07.22.17,0,1.12-.05,2-.05,3.09v4.39c0,1.38,0,1.57.15,1.86s.6.31,1.19.36c.1,0,.13.06.13.21s0,.2-.13.2c-.64,0-1.41,0-2.07,0s-1.47,0-2.13,0c-.11,0-.14,0-.14-.2s0-.19.14-.21c.59,0,1.05-.05,1.19-.36a5.6,5.6,0,0,0,.14-1.86v-5a2.44,2.44,0,0,0-.14-1.08c-.1-.15-.39-.16-.83,0Z"/><path class="cls-1" d="M52.1,173.27c-.05.06-.15.06-.25-.05s-.08-.21,0-.27c.57-.42.88-.84.88-1.24,0-.19-.21-.36-.37-.44s-.5-.17-.5-.55a1.08,1.08,0,0,1,1-1,1.1,1.1,0,0,1,.89,1.14C53.75,171.45,53.52,172.29,52.1,173.27Z"/><path class="cls-1" d="M61.18,166.44a2.08,2.08,0,0,1-1.85,1,2.74,2.74,0,0,1-2.75-3,3,3,0,0,1,3.08-3.26c2,0,3.18,1.61,3.18,4a5.93,5.93,0,0,1-2.8,5.47,6.6,6.6,0,0,1-2.27,1c-.12,0-.22,0-.33-.26s-.1-.37.07-.38a4.07,4.07,0,0,0,1.93-.51c1.09-.65,1.65-1.89,1.81-4.07Zm-3-2.06c0,1.4.46,2.56,1.44,2.56.59,0,1.05-.36,1.45-1.23a2,2,0,0,0,.12-.9c0-1.86-.52-3.18-1.57-3.18S58.22,162.85,58.22,164.38Z"/><path class="cls-1" d="M66.47,165.39c0,.21-.06.43-.09.73a2.73,2.73,0,0,1,2.22-.87,2.76,2.76,0,0,1,2.82,3,3.08,3.08,0,0,1-3.2,3.37,4.16,4.16,0,0,1-2-.47c-.46-.27-.95-.73-.95-1.19,0-.3.35-.58,1-.58s.75.66.91,1a1.07,1.07,0,0,0,1,.77c1.09,0,1.54-1.26,1.54-2.93s-.79-2.52-1.66-2.52a1.9,1.9,0,0,0-1.76,1c-.08.14-.14.17-.38.07s-.19-.15-.17-.28a3.75,3.75,0,0,0,.09-.39l.33-4.47a.27.27,0,0,1,.09-.18.22.22,0,0,1,.19-.08h2.2c.58,0,1.46,0,2.38-.06.1,0,.14.06.13.12l-.46,1.26a.14.14,0,0,1-.14.09l-1.42,0H66.66Z"/><path class="cls-1" d="M80.29,166.41c0,3.22-1.17,5.25-3.11,5.25S74,169.73,74,166.49s1.15-5.29,3.14-5.29S80.29,163.22,80.29,166.41Zm-4.61,0c0,2.92.29,4.78,1.5,4.78s1.47-1.86,1.47-4.78-.28-4.82-1.47-4.82S75.68,163.52,75.68,166.45Z"/><path class="cls-1" d="M48.82,88.43s0,.06-.06.11a7.44,7.44,0,0,0,0,11.15c.09.08.11.11.11.15s0,.08-.06.08-.07,0-.16-.08a8.35,8.35,0,0,1-2.41-2.57,6.13,6.13,0,0,1,0-6.26,8.25,8.25,0,0,1,2.43-2.59c.06,0,.08-.06.12-.06A.07.07,0,0,1,48.82,88.43Z"/><path class="cls-1" d="M52,93.43a10.31,10.31,0,0,1-1.05,1.26s-.14-.07-.12-.12a17.9,17.9,0,0,0,1.67-4.13,11.07,11.07,0,0,0,.31-1.81c1.43.37,1.57.42,1.57.59s0,.17-.47.3a13.88,13.88,0,0,1-1.25,2.9c.67.1.76.13.76.26s-.08.18-.32.3v6.21c0,.34-.2.5-.65.5s-.53-.12-.53-.46S52,98,52,96.08Zm2.92,4.32c0,.78-.32,1.39-.92,1.39a.53.53,0,0,1-.56-.54c0-.29.12-.45.46-.6a1.12,1.12,0,0,0,.79-1c0-.06.12-.07.14,0A3.27,3.27,0,0,1,54.87,97.75Zm.64-7.4c.86.26,1.27.62,1.27,1.14a.51.51,0,0,1-.44.5h1.95a5.69,5.69,0,0,0,.25-.84,4.43,4.43,0,0,0,.13-.77c1,.31,1.34.42,1.34.54s-.08.16-.39.22a4.9,4.9,0,0,1-1,.85h1.65c.51-.62.66-.72.74-.72s.24.1.73.5c.22.18.31.29.31.38s0,.11-.15.11H54.48a6,6,0,0,0-.87.08l-.13-.45a5.31,5.31,0,0,0,1,.1h1.62a.39.39,0,0,1-.33-.35,2.49,2.49,0,0,0-.54-1.29h-.1a5.7,5.7,0,0,0-.86.07L54.1,90a4.64,4.64,0,0,0,1,.1H57v-.73c0-.23,0-.48,0-.73,1.4.12,1.52.24,1.52.36s-.12.19-.36.31v.79h1.74c.5-.61.65-.71.73-.71s.24.1.76.49c.22.2.32.29.32.38s0,.12-.15.12Zm0,5.65c0,.22-.24.33-.6.33s-.49-.13-.49-.43,0-.4,0-1.2,0-1.39-.08-2.1a9.76,9.76,0,0,1,1.26.56h3.75c.39-.44.49-.51.58-.51s.23.07.64.38c.19.15.26.23.26.33s-.07.18-.31.34v.36c0,1,0,1.62,0,1.84s-.22.48-.68.48c-.3,0-.43-.11-.43-.37h-4Zm4-2.56h-4v1h4Zm0,1.28h-4v1h4Zm.09,3.41c0,.16,0,.22.14.25.29.07.37.17.37.4s-.18.42-.56.54a7.33,7.33,0,0,1-1.92.18c-1.54,0-2-.21-2-.84,0-.25,0-.52,0-1.56a3.27,3.27,0,0,0,0-.53c1.22.13,1.33.16,1.33.32s-.11.21-.32.27v1c0,.34.16.41,1.14.41a3.5,3.5,0,0,0,1-.08c.33-.14.44-.42.71-1.23,0-.06.12,0,.12,0ZM58.05,98c-.28,0-.31,0-.49-.65a2.41,2.41,0,0,0-.49-.86s0-.1,0-.09c1,.18,1.48.51,1.48,1A.56.56,0,0,1,58.05,98Zm3.29,1c-.32,0-.42-.13-.54-.72A2.52,2.52,0,0,0,60.14,97a.07.07,0,0,1,.06-.11c1.19.38,1.7.8,1.7,1.44C61.9,98.72,61.66,99,61.34,99Z"/><path class="cls-1" d="M66.21,99.1c0,.3-.26.44-.73.44s-.51-.1-.51-.4c0-1.08.07-2.16.07-6.49,0-1.25,0-2.5-.07-3.76l1.35.66H73.1c.44-.5.54-.57.63-.57s.22.07.69.45c.2.18.27.27.27.36s-.07.18-.31.36v1.32c0,5.84,0,6.07,0,6.77s-.16.87-.57,1.06a2.39,2.39,0,0,1-.79.18c-.2,0-.25-.08-.29-.32-.06-.41-.3-.71-1.41-1-.06,0,0-.14,0-.14l1.61,0c.17,0,.2,0,.2-.22V94h-7ZM69,93.69V89.83H66.21v3.86Zm4.14-3.86h-3v3.86h3Z"/><path class="cls-1" d="M77.59,88.42A8.11,8.11,0,0,1,80,91a6.07,6.07,0,0,1,0,6.26,8.12,8.12,0,0,1-2.41,2.57c-.08.06-.12.08-.15.08s-.06,0-.06-.08,0-.07.1-.15a7.43,7.43,0,0,0,0-11.15c0-.05-.06-.08-.06-.11s0-.07.08-.07S77.53,88.38,77.59,88.42Z"/><path class="cls-1" d="M400.28,294.72s0,.06-.06.11a7.44,7.44,0,0,0,0,11.16c.08.08.1.1.1.15s0,.07-.06.07a.25.25,0,0,1-.15-.07,8.14,8.14,0,0,1-2.41-2.58,6.07,6.07,0,0,1,0-6.26,8.32,8.32,0,0,1,2.42-2.59c.06,0,.08-.06.12-.06A.07.07,0,0,1,400.28,294.72Z"/><path class="cls-1" d="M411.11,302.21c.66-.79.8-.89.89-.89s.24.1.87.61c.29.24.39.35.39.43s0,.12-.16.12h-4.17c0,1.29,0,2.45,0,3,0,.36-.24.51-.72.51s-.52-.11-.52-.42,0-1.23,0-3.06h-4.22a6.47,6.47,0,0,0-.89.08l-.13-.45a5.51,5.51,0,0,0,1,.1h1.05v-1.65c0-.59,0-1.19-.05-1.79a7.08,7.08,0,0,1,1.26.57h2v-2.21h-2.22a8,8,0,0,1-2.69,2.63c-.05,0-.17-.06-.12-.11a10.53,10.53,0,0,0,2.07-3.43,6.56,6.56,0,0,0,.38-1.38c1.28.38,1.6.52,1.6.72s-.14.22-.52.27c-.18.37-.36.71-.55,1h5.09c.62-.73.77-.83.85-.83s.24.1.85.58c.28.23.37.32.37.41s0,.11-.15.11h-3.81v2.21h1.42c.61-.69.71-.77.8-.77s.23.08.82.53c.27.22.35.3.35.4s-.05.12-.18.12h-3.21v.43c0,.7,0,1.44,0,2.16Zm-3.35-2.59h-2.07v2.59h2.07Z"/><path class="cls-1" d="M419.55,298.3V298a7.61,7.61,0,0,0-.05-1c1.27.12,1.4.15,1.4.3s-.07.15-.28.27v.7h2.09v-.4c0-.37,0-.51,0-.9,1.09.11,1.39.18,1.39.35s-.06.16-.3.29v.66h.79c.49-.61.64-.71.72-.71s.24.1.76.49c.22.19.32.29.32.37s0,.12-.16.12h-2.43c0,1,0,1.65,0,1.89s-.2.44-.64.44-.46-.11-.46-.47v-.06h-2.09v.12c0,.33-.18.47-.64.47s-.46-.13-.46-.43,0-.82,0-2h-1.69a18.81,18.81,0,0,1-.41,3.83,8.94,8.94,0,0,1-1.68,3.43c0,.05-.16,0-.13-.08a15.31,15.31,0,0,0,.9-4c.09-1,.14-2.11.14-3.45,0-.94,0-1.72-.11-2.59a9.36,9.36,0,0,1,1.37.64h3v-.74a4.38,4.38,0,0,0-.07-.71c1.45.14,1.6.27,1.6.41s-.15.24-.41.33v.71h2.61c.56-.65.7-.74.78-.74s.26.09.82.51c.26.21.36.3.36.39s0,.12-.16.12h-8.57v1c0,.22,0,.43,0,.64Zm3.72,3.28c.49-.49.58-.56.68-.56s.22.07.71.53c.23.2.3.3.3.39s-.17.26-.61.36a9.49,9.49,0,0,1-1.61,1.67,14.45,14.45,0,0,0,4,.79c.06,0,0,.12,0,.13-.43.14-.59.32-.77.88,0,.14-.1.19-.22.19a4.44,4.44,0,0,1-.75-.14,10,10,0,0,1-2.9-1.17,1.88,1.88,0,0,1-.18-.12A11.9,11.9,0,0,1,417,306c-.06,0-.11-.18-.05-.19a13.35,13.35,0,0,0,4.23-1.81,6.91,6.91,0,0,1-1.5-2.09h-.72a2.46,2.46,0,0,0-.71.1l-.13-.47a3.82,3.82,0,0,0,.84.09Zm-3.33.28a6.22,6.22,0,0,0,1.79,1.64,9,9,0,0,0,1.54-1.64Zm2.77-1.76v-1.53h-2.09v1.53Z"/><path class="cls-1" d="M429.05,294.71a8.47,8.47,0,0,1,2.43,2.59,6.13,6.13,0,0,1,0,6.26,8.38,8.38,0,0,1-2.41,2.58c-.09.06-.12.07-.16.07s-.06,0-.06-.07,0-.07.11-.15a7.45,7.45,0,0,0,0-11.16c-.05-.05-.06-.07-.06-.11a.08.08,0,0,1,.08-.07S429,294.68,429.05,294.71Z"/><line class="cls-4" x1="88.56" y1="129.3" x2="407.83" y2="129.3"/><path class="cls-1" d="M46.38,131.36c1.17,0,1.45-.09,1.73-.34a3.45,3.45,0,0,0,.78-1.08c0-.1.09-.11.22-.07s.15.08.14.18c-.17.72-.52,2-.76,2.69-1,0-1.69,0-2.7,0s-1.85,0-2.77,0c-.14,0-.19,0-.19-.24a.63.63,0,0,1,.09-.39,23.69,23.69,0,0,1,2.45-3.58c1.19-1.53,1.86-2.27,1.86-3.58,0-1.16-.4-2-1.2-2a1.16,1.16,0,0,0-1.17.81,3.27,3.27,0,0,0-.12,1c0,.39-.53.65-1.05.65s-.67-.11-.67-.53a2.92,2.92,0,0,1,3-2.38c1.89,0,2.9,1.12,2.9,2.48,0,1.79-1.29,2.47-2.71,3.78a10.06,10.06,0,0,0-2.32,2.57Z"/><path class="cls-1" d="M52.1,134.61c-.05,0-.15,0-.25-.06s-.08-.21,0-.27c.57-.42.88-.84.88-1.24,0-.19-.21-.35-.37-.44s-.5-.17-.5-.54a1,1,0,1,1,1.9.15C53.75,132.78,53.52,133.62,52.1,134.61Z"/><path class="cls-1" d="M58.37,127.76a2.06,2.06,0,0,1,1.87-1.14c1.78,0,2.7,1.3,2.7,3.11a3,3,0,0,1-3,3.26c-1.87,0-3.21-1.51-3.21-3.93a6.46,6.46,0,0,1,2.84-5.3,9.36,9.36,0,0,1,2.34-1.3c.11,0,.18,0,.38.27s.11.42,0,.42a3.58,3.58,0,0,0-2.07.7,5.42,5.42,0,0,0-1.85,3.91Zm.1.57a1.79,1.79,0,0,0-.18.87c0,2.25.62,3.36,1.6,3.36s1.4-1.23,1.4-2.82c0-1.42-.41-2.57-1.44-2.57C59.23,127.17,58.77,127.62,58.47,128.33Z"/><path class="cls-1" d="M71.58,127.74c0,3.22-1.16,5.25-3.11,5.25s-3.14-1.93-3.14-5.16,1.15-5.3,3.14-5.3S71.58,124.55,71.58,127.74Zm-4.61,0c0,2.92.29,4.78,1.5,4.78s1.47-1.86,1.47-4.78S69.66,123,68.47,123,67,124.86,67,127.78Z"/><path class="cls-1" d="M80.29,127.74c0,3.22-1.17,5.25-3.11,5.25S74,131.06,74,127.83s1.15-5.3,3.14-5.3S80.29,124.55,80.29,127.74Zm-4.61,0c0,2.92.29,4.78,1.5,4.78s1.47-1.86,1.47-4.78S78.37,123,77.18,123,75.68,124.86,75.68,127.78Z"/><line class="cls-4" x1="88.56" y1="206.63" x2="407.83" y2="206.63"/><path class="cls-1" d="M44,201.46c-.14,0-.2,0-.24-.15s0-.19.13-.25c.81-.3,2-.81,3-1.26.1,0,.22.07.22.17,0,1.12-.05,2-.05,3.09v4.39c0,1.38,0,1.57.15,1.86s.6.31,1.19.36c.1,0,.13.06.13.21s0,.2-.13.2c-.64,0-1.41,0-2.07,0s-1.47,0-2.13,0c-.11,0-.14,0-.14-.2s0-.19.14-.21c.59,0,1.05,0,1.19-.36a5.64,5.64,0,0,0,.14-1.86v-5a2.44,2.44,0,0,0-.14-1.08c-.1-.15-.39-.16-.83,0Z"/><path class="cls-1" d="M52.1,211.94c-.05.06-.15.06-.25-.05s-.08-.21,0-.27c.57-.42.88-.84.88-1.25,0-.18-.21-.35-.37-.43s-.5-.17-.5-.55a1.08,1.08,0,0,1,1-1,1.1,1.1,0,0,1,.89,1.14C53.75,210.12,53.52,211,52.1,211.94Z"/><path class="cls-1" d="M60.2,204.69c1.65.33,2.57,1.23,2.57,2.6a2.91,2.91,0,0,1-3.21,3,3.66,3.66,0,0,1-2.05-.54c-.45-.28-.91-.73-.91-1.18s.36-.6,1-.6.73.67.9,1.06a1.07,1.07,0,0,0,1.06.83c1,0,1.53-1,1.53-2.65,0-1-.43-2.38-1.83-2.28l-.63,0c-.13,0-.2,0-.14-.28s.11-.32.26-.32.37,0,.53,0c.78,0,1.56-.62,1.56-2.19,0-1.06-.41-2-1.18-2a1.09,1.09,0,0,0-1,.63,1.74,1.74,0,0,0-.11.7c0,.47-.45.73-1,.73-.43,0-.64-.14-.64-.45,0-.79,1.09-2,2.85-2,1.6,0,2.78.88,2.78,2.41s-1,2.06-2.24,2.34Z"/><path class="cls-1" d="M71.58,205.08c0,3.22-1.16,5.25-3.11,5.25s-3.14-1.93-3.14-5.17,1.15-5.29,3.14-5.29S71.58,201.89,71.58,205.08Zm-4.61,0c0,2.91.29,4.78,1.5,4.78s1.47-1.87,1.47-4.78-.28-4.82-1.47-4.82S67,202.19,67,205.12Z"/><path class="cls-1" d="M80.29,205.08c0,3.22-1.17,5.25-3.11,5.25S74,208.4,74,205.16s1.15-5.29,3.14-5.29S80.29,201.89,80.29,205.08Zm-4.61,0c0,2.91.29,4.78,1.5,4.78s1.47-1.87,1.47-4.78-.28-4.82-1.47-4.82S75.68,202.19,75.68,205.12Z"/><path class="cls-1" d="M174.41,304.35c1.18,0,1.46-.08,1.74-.33a3.73,3.73,0,0,0,.77-1.08c.06-.1.1-.11.23-.07s.15.08.14.18c-.17.71-.52,2-.76,2.69-.95,0-1.7,0-2.7,0s-1.85,0-2.78,0c-.14,0-.18,0-.18-.24a.63.63,0,0,1,.08-.39,24.38,24.38,0,0,1,2.46-3.59c1.19-1.52,1.86-2.27,1.86-3.57s-.41-2-1.21-2a1.16,1.16,0,0,0-1.16.81,3.15,3.15,0,0,0-.13,1c0,.39-.53.66-1.05.66s-.67-.11-.67-.53a2.92,2.92,0,0,1,3-2.38c1.89,0,2.9,1.12,2.9,2.48,0,1.79-1.29,2.46-2.7,3.78a10.2,10.2,0,0,0-2.33,2.56Z"/><path class="cls-1" d="M185.9,300.74c0,3.22-1.17,5.25-3.11,5.25s-3.14-1.93-3.14-5.17,1.15-5.29,3.14-5.29S185.9,297.54,185.9,300.74Zm-4.61,0c0,2.91.29,4.78,1.5,4.78s1.47-1.87,1.47-4.78S184,296,182.79,296,181.29,297.85,181.29,300.78Z"/><path class="cls-1" d="M189.42,297.12c-.14.05-.2,0-.24-.15s0-.2.13-.25c.81-.3,2-.81,3-1.26.1,0,.23.07.23.17,0,1.12-.06,2-.06,3.09v4.39c0,1.38,0,1.56.15,1.86s.61.31,1.2.36c.09,0,.12.06.12.21s0,.2-.12.2c-.65,0-1.42,0-2.08,0s-1.47,0-2.13,0c-.11,0-.14,0-.14-.2s0-.19.14-.21c.59,0,1.05-.05,1.19-.36a5.37,5.37,0,0,0,.14-1.86v-5a2.44,2.44,0,0,0-.14-1.08c-.1-.15-.39-.17-.82,0Z"/><path class="cls-1" d="M203.3,303.12a3.14,3.14,0,0,1-6.24.11c0-1.18.84-1.93,2.17-2.58a2.77,2.77,0,0,1-1.89-2.71,2.67,2.67,0,0,1,2.86-2.41c1.64,0,2.8,1,2.8,2.24,0,1.06-.59,1.62-1.83,2.23A3.12,3.12,0,0,1,203.3,303.12Zm-4.75.13c0,1.4.66,2.31,1.67,2.31s1.7-.89,1.7-2.24c0-1-.57-1.62-2.28-2.44A2.37,2.37,0,0,0,198.55,303.25Zm3.08-5.47c0-1.1-.62-1.82-1.43-1.82a1.55,1.55,0,0,0-1.51,1.75c0,.77.32,1.26,2.07,2.06A2.1,2.1,0,0,0,201.63,297.78Z"/><path class="cls-1" d="M110.77,304.35c1.17,0,1.45-.08,1.73-.33a3.39,3.39,0,0,0,.77-1.08c.06-.1.1-.11.23-.07s.15.08.14.18c-.17.71-.52,2-.76,2.69-.95,0-1.69,0-2.7,0s-1.85,0-2.77,0c-.15,0-.19,0-.19-.24a.63.63,0,0,1,.09-.39,24.24,24.24,0,0,1,2.45-3.59c1.19-1.52,1.86-2.27,1.86-3.57s-.4-2-1.2-2a1.16,1.16,0,0,0-1.17.81,3.2,3.2,0,0,0-.12,1c0,.39-.53.66-1,.66s-.67-.11-.67-.53a2.91,2.91,0,0,1,3-2.38c1.89,0,2.9,1.12,2.9,2.48,0,1.79-1.29,2.46-2.71,3.78a10.08,10.08,0,0,0-2.32,2.56Z"/><path class="cls-1" d="M122.25,300.74c0,3.22-1.16,5.25-3.11,5.25s-3.14-1.93-3.14-5.17,1.15-5.29,3.14-5.29S122.25,297.54,122.25,300.74Zm-4.61,0c0,2.91.29,4.78,1.5,4.78s1.47-1.87,1.47-4.78-.28-4.82-1.47-4.82S117.64,297.85,117.64,300.78Z"/><path class="cls-1" d="M125.77,297.12c-.14.05-.19,0-.24-.15s0-.2.13-.25c.81-.3,2-.81,3-1.26.1,0,.23.07.23.17,0,1.12-.06,2-.06,3.09v4.39c0,1.38,0,1.56.16,1.86s.6.31,1.19.36c.1,0,.12.06.12.21s0,.2-.12.2c-.65,0-1.42,0-2.08,0s-1.47,0-2.13,0c-.11,0-.14,0-.14-.2s0-.19.14-.21c.59,0,1.06-.05,1.2-.36a5.64,5.64,0,0,0,.14-1.86v-5a2.44,2.44,0,0,0-.14-1.08c-.1-.15-.4-.17-.83,0Z"/><path class="cls-1" d="M135.59,297.11c-.77,0-1,.11-1.15.31a2.6,2.6,0,0,0-.49.92c0,.1-.07.14-.25.1s-.17-.06-.16-.15c.11-.72.28-1.84.37-2.58.92,0,1.85,0,2.81,0s1.84,0,2.73,0c.09,0,.12,0,.12.29a.62.62,0,0,1-.06.37,21,21,0,0,0-2.45,6.08,8.63,8.63,0,0,0-.21,1.85c0,.39,0,.6,0,.93s-.54.76-1.07.76-.88-.17-.88-.62a8.77,8.77,0,0,1,1-3.55,36.77,36.77,0,0,1,2.69-4.71Z"/><path class="cls-1" d="M238.14,304.35c1.18,0,1.46-.08,1.74-.33a3.73,3.73,0,0,0,.77-1.08c.06-.1.1-.11.23-.07s.15.08.14.18c-.17.71-.52,2-.76,2.69-.95,0-1.7,0-2.7,0s-1.85,0-2.78,0c-.14,0-.18,0-.18-.24a.63.63,0,0,1,.08-.39,24.38,24.38,0,0,1,2.46-3.59C238.33,300,239,299.25,239,298s-.41-2-1.21-2a1.16,1.16,0,0,0-1.16.81,3.2,3.2,0,0,0-.12,1c0,.39-.54.66-1,.66s-.68-.11-.68-.53a2.92,2.92,0,0,1,3-2.38c1.9,0,2.9,1.12,2.9,2.48,0,1.79-1.28,2.46-2.7,3.78a10.08,10.08,0,0,0-2.32,2.56Z"/><path class="cls-1" d="M249.63,300.74c0,3.22-1.17,5.25-3.11,5.25s-3.14-1.93-3.14-5.17,1.15-5.29,3.14-5.29S249.63,297.54,249.63,300.74Zm-4.61,0c0,2.91.29,4.78,1.5,4.78s1.47-1.87,1.47-4.78-.28-4.82-1.47-4.82S245,297.85,245,300.78Z"/><path class="cls-1" d="M253.15,297.12c-.14.05-.19,0-.24-.15s0-.2.13-.25c.81-.3,2-.81,3-1.26.1,0,.23.07.23.17,0,1.12-.06,2-.06,3.09v4.39c0,1.38,0,1.56.16,1.86s.6.31,1.19.36c.09,0,.12.06.12.21s0,.2-.12.2c-.65,0-1.42,0-2.08,0s-1.47,0-2.13,0c-.11,0-.14,0-.14-.2s.05-.19.14-.21c.59,0,1-.05,1.19-.36a5.37,5.37,0,0,0,.14-1.86v-5a2.29,2.29,0,0,0-.14-1.08c-.09-.15-.39-.17-.82,0Z"/><path class="cls-1" d="M265.35,300.77a2.08,2.08,0,0,1-1.85,1,2.74,2.74,0,0,1-2.75-3,3,3,0,0,1,3.08-3.26c2,0,3.18,1.61,3.18,4a6,6,0,0,1-2.8,5.48,6.6,6.6,0,0,1-2.27,1c-.12,0-.22-.06-.33-.27s-.1-.36.07-.37a4.15,4.15,0,0,0,1.93-.51c1.09-.66,1.65-1.89,1.81-4.07Zm-3-2.06c0,1.4.46,2.56,1.44,2.56.59,0,1.06-.36,1.45-1.23a2,2,0,0,0,.12-.9c0-1.86-.51-3.18-1.57-3.18S262.39,297.18,262.39,298.71Z"/><path class="cls-1" d="M365.61,304.35c1.17,0,1.45-.08,1.73-.33a3.39,3.39,0,0,0,.77-1.08c.06-.1.1-.11.23-.07s.15.08.14.18c-.17.71-.52,2-.76,2.69-1,0-1.69,0-2.7,0s-1.85,0-2.77,0c-.14,0-.19,0-.19-.24a.63.63,0,0,1,.09-.39,24.24,24.24,0,0,1,2.45-3.59c1.19-1.52,1.86-2.27,1.86-3.57s-.4-2-1.2-2a1.16,1.16,0,0,0-1.17.81,3.2,3.2,0,0,0-.12,1c0,.39-.53.66-1.05.66s-.67-.11-.67-.53a2.91,2.91,0,0,1,3-2.38c1.89,0,2.9,1.12,2.9,2.48,0,1.79-1.29,2.46-2.71,3.78a10.08,10.08,0,0,0-2.32,2.56Z"/><path class="cls-1" d="M377.09,300.74c0,3.22-1.16,5.25-3.11,5.25s-3.14-1.93-3.14-5.17,1.15-5.29,3.14-5.29S377.09,297.54,377.09,300.74Zm-4.61,0c0,2.91.29,4.78,1.5,4.78s1.47-1.87,1.47-4.78S375.17,296,374,296,372.48,297.85,372.48,300.78Z"/><path class="cls-1" d="M383,304.35c1.18,0,1.46-.08,1.74-.33a3.73,3.73,0,0,0,.77-1.08c.06-.1.1-.11.22-.07s.16.08.14.18c-.16.71-.51,2-.75,2.69-.95,0-1.7,0-2.71,0s-1.84,0-2.77,0c-.14,0-.18,0-.18-.24a.63.63,0,0,1,.08-.39,25,25,0,0,1,2.45-3.59c1.19-1.52,1.87-2.27,1.87-3.57s-.41-2-1.21-2a1.16,1.16,0,0,0-1.16.81,3.15,3.15,0,0,0-.13,1c0,.39-.53.66-1.05.66s-.67-.11-.67-.53a2.92,2.92,0,0,1,3-2.38c1.89,0,2.9,1.12,2.9,2.48,0,1.79-1.29,2.46-2.7,3.78a10,10,0,0,0-2.33,2.56Z"/><path class="cls-1" d="M389.32,297.12c-.14.05-.19,0-.24-.15s0-.2.13-.25c.81-.3,2-.81,3-1.26.1,0,.23.07.23.17,0,1.12-.06,2-.06,3.09v4.39c0,1.38,0,1.56.15,1.86s.61.31,1.2.36c.09,0,.12.06.12.21s0,.2-.12.2c-.65,0-1.42,0-2.08,0s-1.47,0-2.13,0c-.11,0-.14,0-.14-.2s.05-.19.14-.21c.59,0,1.05-.05,1.19-.36a5.37,5.37,0,0,0,.14-1.86v-5a2.29,2.29,0,0,0-.14-1.08c-.09-.15-.39-.17-.82,0Z"/><path class="cls-1" d="M301.86,304.35c1.18,0,1.46-.08,1.74-.33a3.73,3.73,0,0,0,.77-1.08c.06-.1.1-.11.22-.07s.16.08.14.18c-.16.71-.51,2-.75,2.69-1,0-1.7,0-2.71,0s-1.85,0-2.77,0c-.14,0-.18,0-.18-.24a.63.63,0,0,1,.08-.39,25,25,0,0,1,2.45-3.59c1.19-1.52,1.87-2.27,1.87-3.57s-.41-2-1.21-2a1.16,1.16,0,0,0-1.16.81,2.89,2.89,0,0,0-.13,1c0,.39-.53.66-1.05.66s-.67-.11-.67-.53a2.91,2.91,0,0,1,3-2.38c1.89,0,2.9,1.12,2.9,2.48,0,1.79-1.29,2.46-2.7,3.78a10,10,0,0,0-2.33,2.56Z"/><path class="cls-1" d="M313.34,300.74c0,3.22-1.16,5.25-3.11,5.25s-3.13-1.93-3.13-5.17,1.14-5.29,3.13-5.29S313.34,297.54,313.34,300.74Zm-4.6,0c0,2.91.29,4.78,1.49,4.78s1.47-1.87,1.47-4.78-.28-4.82-1.47-4.82S308.74,297.85,308.74,300.78Z"/><path class="cls-1" d="M319.28,304.35c1.17,0,1.45-.08,1.73-.33a3.39,3.39,0,0,0,.77-1.08c.06-.1.1-.11.23-.07s.15.08.14.18c-.17.71-.52,2-.76,2.69-.95,0-1.69,0-2.7,0s-1.85,0-2.77,0c-.14,0-.19,0-.19-.24a.63.63,0,0,1,.09-.39,24.24,24.24,0,0,1,2.45-3.59c1.19-1.52,1.86-2.27,1.86-3.57s-.4-2-1.2-2a1.16,1.16,0,0,0-1.17.81,3.2,3.2,0,0,0-.12,1c0,.39-.53.66-1.05.66s-.67-.11-.67-.53a2.91,2.91,0,0,1,3-2.38c1.89,0,2.9,1.12,2.9,2.48,0,1.79-1.29,2.46-2.71,3.78a10.08,10.08,0,0,0-2.32,2.56Z"/><path class="cls-1" d="M330.76,300.74c0,3.22-1.16,5.25-3.11,5.25s-3.14-1.93-3.14-5.17,1.15-5.29,3.14-5.29S330.76,297.54,330.76,300.74Zm-4.61,0c0,2.91.29,4.78,1.5,4.78s1.47-1.87,1.47-4.78-.28-4.82-1.47-4.82S326.15,297.85,326.15,300.78Z"/><rect class="cls-5" x="94.31" y="158.4" width="57.5" height="23.42"/><rect class="cls-5" x="147.86" y="154.14" width="67.62" height="25.23"/><rect class="cls-5" x="209.53" y="123.6" width="67.62" height="25.23"/><path class="cls-2" d="M99.65,177.4l0-.2h.42a1,1,0,0,0,.78-.32,1,1,0,0,0,.32-.76V166a1.35,1.35,0,0,0-.36-1.08,1.45,1.45,0,0,0-1-.3h-.36v-.2c.28,0,.66-.05,1.13-.11s1-.14,1.53-.24a13.18,13.18,0,0,0,1.59-.38,5.32,5.32,0,0,0,1.31-.55h.2v13a1,1,0,0,0,.33.75,1.08,1.08,0,0,0,.77.31h.42v.2Z"/><path class="cls-2" d="M108.75,174.42a1.66,1.66,0,0,1,1-.33,2.27,2.27,0,0,1,1.07.3,1.78,1.78,0,0,1,.75.85,3.21,3.21,0,0,1,.28,1.79,3.61,3.61,0,0,1-.63,1.64,3.25,3.25,0,0,1-1.28,1.11,2.56,2.56,0,0,1-1.67.2l-.08-.26a1.6,1.6,0,0,0,.64-.53,1.35,1.35,0,0,0,.27-.89,1.76,1.76,0,0,0-.55-1.12,1.91,1.91,0,0,1-.45-1,2.12,2.12,0,0,1,.08-1A1.66,1.66,0,0,1,108.75,174.42Z"/><path class="cls-2" d="M123.77,162.72l.08.14a13.14,13.14,0,0,0-3.35,1.48,5.54,5.54,0,0,0-1.77,1.86,6.58,6.58,0,0,0-.7,2.35,29.32,29.32,0,0,0-.14,3c0,1.11,0,2,.08,2.77a4.1,4.1,0,0,0,.4,1.66,1.11,1.11,0,0,0,1,.55,1.31,1.31,0,0,0,1.12-.49,2.72,2.72,0,0,0,.52-1.28,9,9,0,0,0,.14-1.69,9.18,9.18,0,0,0-.13-1.78,2.46,2.46,0,0,0-.35-.95,1.18,1.18,0,0,0-.52-.43,1.23,1.23,0,0,0-.84-.06,3.44,3.44,0,0,0-.66.28l-.16-.16a2.39,2.39,0,0,1,.89-1,3.57,3.57,0,0,1,1.39-.51,4.22,4.22,0,0,1,1.58.07,3.74,3.74,0,0,1,1.47.72,3.68,3.68,0,0,1,1.07,1.42,4.94,4.94,0,0,1,.36,2.21,5,5,0,0,1-.67,2.44,4.38,4.38,0,0,1-1.9,1.75,7.39,7.39,0,0,1-3.25.69,7.06,7.06,0,0,1-3.32-.67,4.53,4.53,0,0,1-2.06-2.17,8.89,8.89,0,0,1-.7-3.76,11,11,0,0,1,.64-3.83,7,7,0,0,1,1.94-2.81,7.8,7.8,0,0,1,3.25-1.59A13,13,0,0,1,123.77,162.72Z"/><path class="cls-2" d="M126.83,177.4l0-.2h.42a1,1,0,0,0,.78-.32,1,1,0,0,0,.32-.76V166a1.35,1.35,0,0,0-.36-1.08,1.45,1.45,0,0,0-1-.3h-.36v-.2c.28,0,.66-.05,1.13-.11s1-.14,1.53-.24a13.18,13.18,0,0,0,1.59-.38,5.32,5.32,0,0,0,1.31-.55h.2v13a1,1,0,0,0,.33.75,1.08,1.08,0,0,0,.77.31H134v.2Z"/><path class="cls-2" d="M136.89,178.16l-.08-.14a12.51,12.51,0,0,0,3.35-1.48,5.19,5.19,0,0,0,1.77-1.86,6.09,6.09,0,0,0,.7-2.35,26.43,26.43,0,0,0,.14-3c0-1.1,0-2-.08-2.77a4,4,0,0,0-.39-1.66,1.09,1.09,0,0,0-1.05-.55,1.36,1.36,0,0,0-1.12.49,3,3,0,0,0-.52,1.27,11.27,11.27,0,0,0,0,3.48,2.48,2.48,0,0,0,.36.95,1.23,1.23,0,0,0,1.36.49,2.64,2.64,0,0,0,.65-.28l.14.16a2.34,2.34,0,0,1-.88,1,3.33,3.33,0,0,1-1.38.52,4,4,0,0,1-1.58-.07,3.61,3.61,0,0,1-1.47-.72,3.77,3.77,0,0,1-1.07-1.43,5.21,5.21,0,0,1-.36-2.2,5.32,5.32,0,0,1,.66-2.44,4.52,4.52,0,0,1,1.9-1.76,7.2,7.2,0,0,1,3.26-.68,6,6,0,0,1,4.51,1.56q1.58,1.6,1.57,5a10.68,10.68,0,0,1-.64,3.83,6.68,6.68,0,0,1-1.94,2.81,7.47,7.47,0,0,1-3.24,1.59A13,13,0,0,1,136.89,178.16Z"/><path class="cls-2" d="M156.77,172.57l0-.2h.42a1.09,1.09,0,0,0,1.1-1.08V161.15a1.35,1.35,0,0,0-.36-1.08,1.45,1.45,0,0,0-1-.3h-.36v-.2c.28,0,.66,0,1.13-.11s1-.14,1.53-.24a13.18,13.18,0,0,0,1.59-.38,5.49,5.49,0,0,0,1.31-.55h.2v13a1,1,0,0,0,.33.75,1.08,1.08,0,0,0,.77.31h.42v.2Z"/><path class="cls-2" d="M165.87,169.59a1.72,1.72,0,0,1,1-.33,2.3,2.3,0,0,1,1.07.3,1.78,1.78,0,0,1,.75.85,3.21,3.21,0,0,1,.28,1.79,3.61,3.61,0,0,1-.63,1.64,3.32,3.32,0,0,1-1.28,1.11,2.5,2.5,0,0,1-1.67.2l-.08-.26a1.58,1.58,0,0,0,.64-.53,1.33,1.33,0,0,0,.27-.89,1.83,1.83,0,0,0-.55-1.12,1.91,1.91,0,0,1-.45-.95,2.12,2.12,0,0,1,.08-1A1.59,1.59,0,0,1,165.87,169.59Z"/><path class="cls-2" d="M170.37,158.61l10.6,0-2.56,5.94c-.17.39-.36.86-.56,1.4s-.41,1.14-.62,1.76-.42,1.25-.62,1.86l-.55,1.71c-.17.53-.3,1-.39,1.33h-3.4c.24-.4.53-.88.86-1.45s.68-1.17,1-1.81.72-1.27,1.07-1.91.67-1.22.95-1.76.51-1,.68-1.35l1-2.22h-6.4a1.38,1.38,0,0,0-.94.3,2.17,2.17,0,0,0-.56.9h-.2Z"/><path class="cls-2" d="M191.17,158.29l.18,1.48-7.12,6.92h8a1.41,1.41,0,0,0,.84-.21,1.47,1.47,0,0,0,.46-.59h.2l-.62,2.9H180.85v-.2Zm.2,13a1,1,0,0,0,.33.76,1.05,1.05,0,0,0,.77.32h.22v.2h-6.76l0-.2h.2a1.09,1.09,0,0,0,.79-.31,1,1,0,0,0,.33-.77Zm-4.1-8.68,3.9-4.32h.2v14.26h-4.1Z"/><path class="cls-2" d="M196.33,173.33l-.08-.14a12.65,12.65,0,0,0,3.35-1.48,5.19,5.19,0,0,0,1.77-1.86,6.27,6.27,0,0,0,.7-2.35,29,29,0,0,0,.14-3c0-1.1,0-2-.08-2.77a4,4,0,0,0-.39-1.66,1.13,1.13,0,0,0-1.05-.55,1.35,1.35,0,0,0-1.12.49,2.88,2.88,0,0,0-.52,1.27,10,10,0,0,0-.14,1.7,9.11,9.11,0,0,0,.13,1.78,2.48,2.48,0,0,0,.36,1,1.2,1.2,0,0,0,.51.43,1.27,1.27,0,0,0,.85.06,2.64,2.64,0,0,0,.65-.28l.14.16a2.34,2.34,0,0,1-.88,1,3.33,3.33,0,0,1-1.38.52,4,4,0,0,1-1.58-.07,3.61,3.61,0,0,1-1.47-.72,3.67,3.67,0,0,1-1.07-1.43,4.92,4.92,0,0,1-.36-2.2,5.32,5.32,0,0,1,.66-2.44,4.46,4.46,0,0,1,1.9-1.76,7.33,7.33,0,0,1,3.26-.68,6,6,0,0,1,4.51,1.56q1.58,1.6,1.57,5a10.64,10.64,0,0,1-.64,3.83,6.77,6.77,0,0,1-1.94,2.81,7.58,7.58,0,0,1-3.24,1.59A12.55,12.55,0,0,1,196.33,173.33Z"/><path class="cls-2" d="M281.31,116.37l-1.34-3.6a5.25,5.25,0,0,1,1.45-.86,10.11,10.11,0,0,1,1.84-.52,10.89,10.89,0,0,1,1.95-.18,8.39,8.39,0,0,1,2.92.49,4.83,4.83,0,0,1,2.05,1.4,3.38,3.38,0,0,1,.75,2.21,4.09,4.09,0,0,1-.41,1.8,6.47,6.47,0,0,1-1.07,1.56A11.35,11.35,0,0,1,288,120a17.71,17.71,0,0,1-1.54,1.1l-1.36.87h3.8a2.45,2.45,0,0,0,1.09-.23,2.65,2.65,0,0,0,.9-.69,5,5,0,0,0,.75-1.18h.2l-1.36,5.62h-10.4v-.2c.57-.7,1.16-1.41,1.77-2.12s1.19-1.41,1.76-2.11a23.1,23.1,0,0,0,1.53-2.09,11.67,11.67,0,0,0,1.08-2.06,5.42,5.42,0,0,0,.4-2,2.9,2.9,0,0,0-.69-2,2.19,2.19,0,0,0-1.87-.64,2.35,2.35,0,0,0-1.91,1.15,5.8,5.8,0,0,0-.65,3Z"/><path class="cls-2" d="M293.89,122.51a1.72,1.72,0,0,1,1-.33,2.3,2.3,0,0,1,1.07.3,1.78,1.78,0,0,1,.75.85,3.21,3.21,0,0,1,.28,1.79,3.61,3.61,0,0,1-.63,1.64,3.32,3.32,0,0,1-1.28,1.11,2.5,2.5,0,0,1-1.67.2l-.08-.26a1.58,1.58,0,0,0,.64-.53,1.33,1.33,0,0,0,.27-.89,1.83,1.83,0,0,0-.55-1.12,1.91,1.91,0,0,1-.45-1,2.12,2.12,0,0,1,.08-1A1.59,1.59,0,0,1,293.89,122.51Z"/><path class="cls-2" d="M307.29,114.85l-6.14.5-.38,1.66a9.85,9.85,0,0,1,3.4-.28,5.69,5.69,0,0,1,2.48.85,4.12,4.12,0,0,1,1.48,1.71,4.93,4.93,0,0,1,.42,2.32,4.64,4.64,0,0,1-.82,2.56,5.7,5.7,0,0,1-2,1.73,8.13,8.13,0,0,1-2.59.9,8.9,8.9,0,0,1-2.77.07,7.46,7.46,0,0,1-2.49-.76l0-.2a6.26,6.26,0,0,0,1.28-.1,9.26,9.26,0,0,0,1.59-.4,6.66,6.66,0,0,0,1.57-.75,4.41,4.41,0,0,0,1.22-1.13,2.92,2.92,0,0,0,.54-1.56,2.11,2.11,0,0,0-.62-1.79,3,3,0,0,0-1.91-.72,6.47,6.47,0,0,0-2.73.55l-.18-.12,1.66-7.68,6-.5a1.57,1.57,0,0,0,1-.28,2,2,0,0,0,.58-.72h.2Z"/><path class="cls-2" d="M310.29,125.49l0-.2h.42a1.09,1.09,0,0,0,1.1-1.08V114.07a1.35,1.35,0,0,0-.36-1.08,1.45,1.45,0,0,0-1-.3h-.36v-.2c.28,0,.66,0,1.13-.11s1-.14,1.53-.24a13.18,13.18,0,0,0,1.59-.38,5.49,5.49,0,0,0,1.31-.55h.2v13a1,1,0,0,0,.33.75,1.08,1.08,0,0,0,.77.31h.42v.2Z"/><path class="cls-2" d="M328.05,111.21l.18,1.48-7.12,6.92h8a1.41,1.41,0,0,0,.84-.21,1.47,1.47,0,0,0,.46-.59h.2l-.62,2.9H317.73v-.2Zm.2,13a1,1,0,0,0,.33.76,1.05,1.05,0,0,0,.77.32h.22v.2h-6.76l0-.2h.2a1.09,1.09,0,0,0,.79-.31,1,1,0,0,0,.33-.77Zm-4.1-8.68,3.9-4.32h.2v14.26h-4.1Z"/><path class="cls-2" d="M345.55,107.6l-1.68-4.5a6.3,6.3,0,0,1,1.81-1.08,12.31,12.31,0,0,1,2.3-.65,13.66,13.66,0,0,1,2.44-.22,10.24,10.24,0,0,1,3.65.61,5.94,5.94,0,0,1,2.56,1.75,4.18,4.18,0,0,1,.94,2.76,5.08,5.08,0,0,1-.51,2.25,8.17,8.17,0,0,1-1.34,2,14.17,14.17,0,0,1-1.8,1.66q-1,.77-1.92,1.38l-1.7,1.09h4.75a3.19,3.19,0,0,0,1.36-.29,3.47,3.47,0,0,0,1.12-.86,6.28,6.28,0,0,0,.94-1.48h.25l-1.7,7H344v-.25c.72-.89,1.45-1.77,2.21-2.65s1.49-1.77,2.2-2.64,1.35-1.75,1.92-2.61a15.24,15.24,0,0,0,1.35-2.58,6.94,6.94,0,0,0,.5-2.52,3.55,3.55,0,0,0-.87-2.55,2.66,2.66,0,0,0-2.33-.8,2.93,2.93,0,0,0-2.39,1.43,7.23,7.23,0,0,0-.81,3.77Z"/><path class="cls-2" d="M361.27,115.27a2,2,0,0,1,1.28-.41,2.78,2.78,0,0,1,1.33.37,2.19,2.19,0,0,1,.94,1.07,4,4,0,0,1,.35,2.23,4.47,4.47,0,0,1-.79,2,4.19,4.19,0,0,1-1.6,1.39,3.14,3.14,0,0,1-2.08.25l-.1-.32a2.18,2.18,0,0,0,.8-.67,1.7,1.7,0,0,0,.33-1.11,2.25,2.25,0,0,0-.68-1.4,2.45,2.45,0,0,1-.57-1.19,2.64,2.64,0,0,1,.1-1.28A2,2,0,0,1,361.27,115.27Z"/><path class="cls-2" d="M378,105.7l-7.67.62-.48,2.08a12,12,0,0,1,4.25-.35,7,7,0,0,1,3.1,1.06,5.15,5.15,0,0,1,1.85,2.14,6.11,6.11,0,0,1,.53,2.9,5.88,5.88,0,0,1-1,3.2,7.06,7.06,0,0,1-2.44,2.16,10.4,10.4,0,0,1-3.23,1.12,11.25,11.25,0,0,1-3.47.09,9.42,9.42,0,0,1-3.11-1l.05-.25a8.14,8.14,0,0,0,1.6-.12,12.6,12.6,0,0,0,2-.5,9.55,9.55,0,0,0,2-.94,5.46,5.46,0,0,0,1.53-1.41,3.65,3.65,0,0,0,.67-2,2.63,2.63,0,0,0-.77-2.24,3.74,3.74,0,0,0-2.39-.9,7.83,7.83,0,0,0-3.41.69l-.23-.15,2.08-9.6,7.45-.63a2,2,0,0,0,1.25-.35,2.48,2.48,0,0,0,.72-.9h.25Z"/><path class="cls-2" d="M382.55,106.37a4.87,4.87,0,0,1,.81-2.84,5.19,5.19,0,0,1,2.21-1.77,7.7,7.7,0,0,1,3.13-.61,8.7,8.7,0,0,1,3.06.52,5.59,5.59,0,0,1,2.27,1.49,3.23,3.23,0,0,1,.86,2.24,2.74,2.74,0,0,1-.75,2,4.55,4.55,0,0,1-1.87,1.17,6.92,6.92,0,0,1-2.28.39h-.85a1.56,1.56,0,0,0,1-.89,5.25,5.25,0,0,0,.5-1.57,7.56,7.56,0,0,0,.11-1.49,3,3,0,0,0-.56-1.76,2,2,0,0,0-1.56-.79,1.67,1.67,0,0,0-1.44.56,2.33,2.33,0,0,0-.51,1.54,2.1,2.1,0,0,0,.34,1.21,3.75,3.75,0,0,0,1.13,1c.54.36,1.28.8,2.23,1.32s1.55.81,2.24,1.18a13.94,13.94,0,0,1,1.84,1.2,4.66,4.66,0,0,1,1.23,1.48,4.39,4.39,0,0,1,.44,2,4.49,4.49,0,0,1-1,3,5.85,5.85,0,0,1-2.73,1.8,12.8,12.8,0,0,1-4.11.6,16,16,0,0,1-2.38-.19,8.48,8.48,0,0,1-2.21-.65,4.07,4.07,0,0,1-1.63-1.31,3.65,3.65,0,0,1-.61-2.18,3.83,3.83,0,0,1,.49-2,4.2,4.2,0,0,1,1.24-1.34,7.29,7.29,0,0,1,1.54-.8,7.61,7.61,0,0,1,1.47-.38,6.67,6.67,0,0,1,.93-.1l1.21-.28a3.69,3.69,0,0,0-1.9,1.36,4.62,4.62,0,0,0-.75,2.79,4.39,4.39,0,0,0,.75,2.73,2.82,2.82,0,0,0,2,1.1,3.43,3.43,0,0,0,1.52-.18,2.43,2.43,0,0,0,1.1-.76,1.83,1.83,0,0,0,.41-1.16,1.8,1.8,0,0,0-.19-.82,3,3,0,0,0-.63-.8,8.86,8.86,0,0,0-1.22-.88,21.63,21.63,0,0,0-1.91-1c-.45-.24-1-.51-1.52-.83a9.78,9.78,0,0,1-1.66-1.16,5.75,5.75,0,0,1-1.32-1.7A5.14,5.14,0,0,1,382.55,106.37Z"/><path class="cls-2" d="M398.45,106.37a4.87,4.87,0,0,1,.81-2.84,5.19,5.19,0,0,1,2.21-1.77,7.7,7.7,0,0,1,3.13-.61,8.7,8.7,0,0,1,3.06.52,5.59,5.59,0,0,1,2.27,1.49,3.23,3.23,0,0,1,.86,2.24,2.74,2.74,0,0,1-.75,2,4.55,4.55,0,0,1-1.87,1.17,6.92,6.92,0,0,1-2.28.39H405a1.56,1.56,0,0,0,1-.89,5.25,5.25,0,0,0,.5-1.57,7.56,7.56,0,0,0,.11-1.49,3,3,0,0,0-.56-1.76,2,2,0,0,0-1.56-.79,1.67,1.67,0,0,0-1.44.56,2.33,2.33,0,0,0-.51,1.54,2.1,2.1,0,0,0,.34,1.21,3.75,3.75,0,0,0,1.13,1c.54.36,1.28.8,2.23,1.32s1.55.81,2.24,1.18a13.94,13.94,0,0,1,1.84,1.2,4.66,4.66,0,0,1,1.23,1.48,4.39,4.39,0,0,1,.44,2,4.49,4.49,0,0,1-1,3,5.85,5.85,0,0,1-2.73,1.8,12.8,12.8,0,0,1-4.11.6,16,16,0,0,1-2.38-.19,8.48,8.48,0,0,1-2.21-.65A4.07,4.07,0,0,1,398,117.2a3.65,3.65,0,0,1-.61-2.18,3.83,3.83,0,0,1,.49-2,4.2,4.2,0,0,1,1.24-1.34,7.29,7.29,0,0,1,1.54-.8,7.61,7.61,0,0,1,1.47-.38,6.67,6.67,0,0,1,.93-.1l1.2-.28a3.7,3.7,0,0,0-1.89,1.36,4.62,4.62,0,0,0-.75,2.79,4.39,4.39,0,0,0,.75,2.73,2.82,2.82,0,0,0,2,1.1,3.43,3.43,0,0,0,1.52-.18,2.43,2.43,0,0,0,1.1-.76,1.83,1.83,0,0,0,.41-1.16,1.8,1.8,0,0,0-.19-.82,3,3,0,0,0-.63-.8,8.86,8.86,0,0,0-1.22-.88,21.63,21.63,0,0,0-1.91-1c-.45-.24-1-.51-1.52-.83a9.78,9.78,0,0,1-1.66-1.16,5.75,5.75,0,0,1-1.32-1.7A5.14,5.14,0,0,1,398.45,106.37Z"/><circle class="cls-2" cx="122.85" cy="188.97" r="5.35"/><circle class="cls-2" cx="181.67" cy="184.75" r="5.35"/><circle class="cls-2" cx="377.95" cy="134.19" r="5.35"/><circle class="cls-2" cx="307.24" cy="142.19" r="5.35"/><path class="cls-2" d="M217.41,133.18l-1.34-3.6a5,5,0,0,1,1.45-.86,9.18,9.18,0,0,1,1.84-.52,10.89,10.89,0,0,1,1.95-.18,8.17,8.17,0,0,1,2.92.49,4.8,4.8,0,0,1,2.05,1.4,3.36,3.36,0,0,1,.75,2.21,4.09,4.09,0,0,1-.41,1.8,6.76,6.76,0,0,1-1.07,1.56,12.14,12.14,0,0,1-1.44,1.33c-.52.41-1,.77-1.54,1.1l-1.36.87H225a2.59,2.59,0,0,0,1.09-.23,2.86,2.86,0,0,0,.9-.69,5.22,5.22,0,0,0,.75-1.18h.2l-1.36,5.62h-10.4v-.2c.57-.71,1.16-1.41,1.77-2.12s1.19-1.41,1.76-2.11,1.07-1.4,1.53-2.09a11.67,11.67,0,0,0,1.08-2.06,5.63,5.63,0,0,0,.4-2,2.86,2.86,0,0,0-.69-2,2.17,2.17,0,0,0-1.87-.64,2.35,2.35,0,0,0-1.91,1.15,5.68,5.68,0,0,0-.65,3Z"/><path class="cls-2" d="M230,139.32a1.56,1.56,0,0,1,1-.33,2.3,2.3,0,0,1,1.07.3,1.73,1.73,0,0,1,.75.85,3.29,3.29,0,0,1,.28,1.79,3.65,3.65,0,0,1-.63,1.64,3.32,3.32,0,0,1-1.28,1.11,2.57,2.57,0,0,1-1.67.2l-.08-.26a1.67,1.67,0,0,0,.64-.53,1.47,1.47,0,0,0,.27-.89,1.81,1.81,0,0,0-.55-1.12,2,2,0,0,1-.45-1,2,2,0,0,1,.08-1A1.53,1.53,0,0,1,230,139.32Z"/><path class="cls-2" d="M239.41,128.06a8.17,8.17,0,0,1,2.73.41,3.83,3.83,0,0,1,1.74,1.17,3.21,3.21,0,0,1,.28,3.3,2.69,2.69,0,0,1-.87,1,3,3,0,0,1-1.17.47,2.73,2.73,0,0,1-1.21-.05,5,5,0,0,1,1.31.19,4.55,4.55,0,0,1,1.36.64,3.54,3.54,0,0,1,1.07,1.22,4,4,0,0,1,.42,1.93,4.69,4.69,0,0,1-.65,2.47,5.45,5.45,0,0,1-1.75,1.76,7.56,7.56,0,0,1-2.47,1,9.49,9.49,0,0,1-2.82.16,8.54,8.54,0,0,1-2.77-.73l0-.2a8.16,8.16,0,0,0,2.34-.3,6.11,6.11,0,0,0,1.95-.95,4.86,4.86,0,0,0,1.34-1.52,4.13,4.13,0,0,0,.49-2,3.1,3.1,0,0,0-.57-1.95,3.39,3.39,0,0,0-1.42-1.07,4.53,4.53,0,0,0-1.71-.34l0-.2a3.24,3.24,0,0,0,2.92-1.67,3,3,0,0,0,.34-1.75,2.15,2.15,0,0,0-.42-1.19,1.92,1.92,0,0,0-.89-.63,2.67,2.67,0,0,0-1.13-.12,2,2,0,0,0-1.7,1.05,5.86,5.86,0,0,0-.46,2.83h-.2l-1.14-3.46a5.59,5.59,0,0,1,2.06-1A10.12,10.12,0,0,1,239.41,128.06Z"/><path class="cls-2" d="M251.45,128.06a8.17,8.17,0,0,1,2.73.41,3.83,3.83,0,0,1,1.74,1.17,3.21,3.21,0,0,1,.28,3.3,2.69,2.69,0,0,1-.87,1,3,3,0,0,1-1.17.47,2.73,2.73,0,0,1-1.21-.05,5,5,0,0,1,1.31.19,4.55,4.55,0,0,1,1.36.64,3.54,3.54,0,0,1,1.07,1.22,4,4,0,0,1,.42,1.93,4.69,4.69,0,0,1-.65,2.47,5.45,5.45,0,0,1-1.75,1.76,7.56,7.56,0,0,1-2.47,1,9.49,9.49,0,0,1-2.82.16,8.54,8.54,0,0,1-2.77-.73l0-.2a8.16,8.16,0,0,0,2.34-.3,6.11,6.11,0,0,0,1.95-.95,4.86,4.86,0,0,0,1.34-1.52,4.13,4.13,0,0,0,.49-2,3.1,3.1,0,0,0-.57-1.95,3.39,3.39,0,0,0-1.42-1.07,4.53,4.53,0,0,0-1.71-.34l0-.2a3.24,3.24,0,0,0,2.92-1.67,3,3,0,0,0,.34-1.75,2.15,2.15,0,0,0-.42-1.19,1.92,1.92,0,0,0-.89-.63,2.67,2.67,0,0,0-1.13-.12,2,2,0,0,0-1.7,1.05,5.86,5.86,0,0,0-.46,2.83h-.2l-1.14-3.46a5.59,5.59,0,0,1,2.06-1A10.12,10.12,0,0,1,251.45,128.06Z"/><path class="cls-2" d="M269.09,127.62l.08.14a12.51,12.51,0,0,0-3.35,1.48,5.35,5.35,0,0,0-1.77,1.86,6.14,6.14,0,0,0-.7,2.35,26.43,26.43,0,0,0-.14,3c0,1.11,0,2,.08,2.77a3.83,3.83,0,0,0,.4,1.66,1.1,1.1,0,0,0,1,.55,1.33,1.33,0,0,0,1.12-.49,3,3,0,0,0,.52-1.28,11.2,11.2,0,0,0,0-3.47,2.75,2.75,0,0,0-.35-.95,1.17,1.17,0,0,0-.52-.43,1.24,1.24,0,0,0-.84-.06,2.56,2.56,0,0,0-.66.28l-.16-.16a2.22,2.22,0,0,1,.89-1,3.51,3.51,0,0,1,1.39-.51,4,4,0,0,1,1.58.07,3.88,3.88,0,0,1,1.47.72,3.81,3.81,0,0,1,1.07,1.42,5.6,5.6,0,0,1-.31,4.65,4.49,4.49,0,0,1-1.9,1.75,7.56,7.56,0,0,1-3.25.69,7.13,7.13,0,0,1-3.32-.67,4.45,4.45,0,0,1-2.06-2.17,8.76,8.76,0,0,1-.7-3.76,10.68,10.68,0,0,1,.64-3.83,6.74,6.74,0,0,1,1.94-2.81,7.51,7.51,0,0,1,3.25-1.59A13,13,0,0,1,269.09,127.62Z"/><circle class="cls-2" cx="243.34" cy="156.59" r="5.35"/><polyline class="cls-6" points="122.85 188.97 181.67 184.75 243.34 156.59 307.24 142.19 377.95 134.19"/><path class="cls-1" d="M864,93V86.68H843.67V93h-11v63.45h15.42V145h11.51v11.45H875V93Zm-21.54,44.62h-4.55v-7.39h4.55Zm0-14.92h-4.55v-7.39h4.55Zm0-14.93h-4.55v-7.38h4.55Zm9.1,29.85H847v-7.39h4.55Zm0-14.92H847v-7.39h4.55Zm0-14.93H847v-7.38h4.55Zm9.09,29.85h-4.55v-7.39h4.55Zm0-14.92h-4.55v-7.39h4.55Zm0-14.93h-4.55v-7.38h4.55Zm9.1,29.85h-4.55v-7.39h4.55Zm0-14.92h-4.55v-7.39h4.55Zm0-14.93h-4.55v-7.38h4.55Z"/><path class="cls-1" d="M1057,126.69c-1.14-4-4.45-5.7-8.25-5.06-3.5.6-5.33,5-6.18,7.61.25-3.51-.39-8.38-4.58-10.66-6.38-3.47-10.43,2.75-10.83,3.56s-.4,1,.73.89a17.2,17.2,0,0,1,6.16-.33l1.36-1.25.63,1.77a7.08,7.08,0,0,1,4.65,6.2,10.65,10.65,0,0,0-8.3-3.92,10.46,10.46,0,0,0-10.6,10.31c0,.46,0,.13,0,.13a.54.54,0,0,0,.36.48.55.55,0,0,0,.58-.14,4.68,4.68,0,0,1,.65-.66,18,18,0,0,1,3.07-2.26l1-1.88,1.36.73a17.73,17.73,0,0,1,11-.7c-3.28-.22-8.23,1.49-10.19,5.66-2.42,5.18,0,9.29.31,9.61s.63.06.72-.4a22.51,22.51,0,0,1,1.78-5l-.41-1.67,1.14.3a18.73,18.73,0,0,1,6.46-6.94c-2.28,5-4.16,12.38-1.3,22.15h7s-7.13-6.91-3.42-21.09a23.85,23.85,0,0,1,2.68,4.4l1.09.14-.49,1.29a16.35,16.35,0,0,1,1.08,5.25c0,.49.31.84.46.53,2.28-4.87,1.56-9.85-1.64-12.76a10.35,10.35,0,0,1,5,4.15l1.53.33-.29,1.72a21.25,21.25,0,0,1,2,5.24c.1.45.34.75.63.23,1.75-3.1,2-9-1.18-12.31-2.44-2.53-6.75-2.69-9.4-2,1.74-2.93,6.4-3.15,6.4-3.15s.74-1.7.9-1.94,1,1.65,1,1.65l4.69,1.92s.61.41.72-.29A3.72,3.72,0,0,0,1057,126.69Z"/><path class="cls-1" d="M947.5,133.38v23.09h42.08V145h11.52v11.45h15.42V133.38Z"/><path class="cls-1" d="M922.69,125.31H904.31V121.1h-4.79v4.21h-4.34l-8.09,13.48h5.76V156.7H925V138.79h5.76ZM905.45,146.2h-4.56v-4.56h4.56Zm11.64,0h-4.56v-4.56h4.56Z"/><path class="cls-1" d="M597,117.2h37a2,2,0,0,0,1.6-.82,2,2,0,0,0,.27-1.78l-6.42-19.24A2,2,0,0,0,627.59,94H603.38a2,2,0,0,0-1.87,1.35l-6.42,19.24a2,2,0,0,0,1.87,2.6Zm7.93-20.3h13.92l-17.19,9.81Z"/><path class="cls-1" d="M587.53,150.13a2,2,0,0,0-1.88-1.35h-24.2a2,2,0,0,0-1.88,1.35l-6.41,19.25A2,2,0,0,0,555,172h37a2,2,0,0,0,1.87-2.59Zm-27.84,11.35,3.27-9.8h13.92Z"/><path class="cls-1" d="M631,150.13a2,2,0,0,0-1.87-1.35H605a2,2,0,0,0-1.87,1.35l-6.42,19.25a2,2,0,0,0,1.87,2.59h37.05a2,2,0,0,0,1.6-.81,2,2,0,0,0,.26-1.78ZM603.2,161.48l3.26-9.8h13.92Z"/><path class="cls-1" d="M681,169.38l-6.41-19.25a2,2,0,0,0-1.87-1.35H648.46a2,2,0,0,0-1.87,1.35l-6.42,19.25A2,2,0,0,0,642,172h37a2,2,0,0,0,1.87-2.59Zm-34.25-7.9,3.27-9.8h13.92Z"/><path class="cls-1" d="M563.4,179a2,2,0,0,0-1.87-1.35H537.32a2,2,0,0,0-1.87,1.35L529,198.23a2,2,0,0,0,1.87,2.6H568a2,2,0,0,0,1.86-2.6Zm-27.84,11.35,3.27-9.81h13.92Z"/><path class="cls-1" d="M606.91,179a2,2,0,0,0-1.88-1.35h-24.2A2,2,0,0,0,579,179l-6.42,19.24a2,2,0,0,0,1.87,2.6h37a2,2,0,0,0,1.6-.82,2,2,0,0,0,.27-1.78Zm-27.84,11.35,3.27-9.81h13.92Z"/><path class="cls-1" d="M693.92,179a2,2,0,0,0-1.87-1.35H667.84A2,2,0,0,0,666,179l-6.42,19.24a2,2,0,0,0,1.87,2.6h37.05a2,2,0,0,0,1.87-2.6Zm-27.83,11.35,3.26-9.81h13.92Z"/><path class="cls-1" d="M656.83,198.23,650.41,179a2,2,0,0,0-1.87-1.35H624.33a2,2,0,0,0-1.87,1.35l-6.41,19.24a2,2,0,0,0,1.86,2.6H655a2,2,0,0,0,1.87-2.6Zm-34.25-7.89,3.27-9.81h13.92Z"/><path class="cls-1" d="M574.43,144.53h37a2,2,0,0,0,1.61-.82,2,2,0,0,0,.27-1.77l-6.42-19.25a2,2,0,0,0-1.87-1.35H580.85a2,2,0,0,0-1.87,1.35l-6.42,19.25a2,2,0,0,0,1.87,2.59Zm7.93-20.3h13.93L579.09,134Z"/><path class="cls-1" d="M622.46,122.69l-6.41,19.25a1.9,1.9,0,0,0,.27,1.77,1.94,1.94,0,0,0,1.6.82h37a2,2,0,0,0,1.87-2.59l-6.42-19.25a2,2,0,0,0-1.87-1.35H624.33A2,2,0,0,0,622.46,122.69Zm17.31,1.54L622.58,134l3.27-9.81Z"/></svg>