<svg xmlns="http://www.w3.org/2000/svg" viewBox="0 0 1014.33 339.86"><defs><style>.cls-1{fill:#333;}.cls-2{fill:#e8314b;}.cls-3,.cls-4,.cls-6{fill:none;stroke-miterlimit:10;}.cls-3,.cls-6{stroke:#e8314b;}.cls-3{stroke-width:1.76px;}.cls-4{stroke:#ccc;}.cls-5{fill:#fff;}</style></defs><g id="レイヤー_2" data-name="レイヤー 2"><g id="pc"><path class="cls-1" d="M678.22,283.56c0,3.57-2.13,5.7-4.78,5.7s-4.69-2-4.69-5.51,2.11-5.72,4.69-5.72S678.22,280.13,678.22,283.56Zm-6.94.11c0,3.14.8,4.89,2.16,4.89s2.23-1.75,2.23-4.89-.83-4.92-2.23-4.92S671.28,280.5,671.28,283.67Zm1.66,14.27,12.77-20.8.85.52-12.76,20.8Zm17.68-6.21c0,3.59-2.08,5.72-4.7,5.72s-4.76-2.06-4.76-5.54,2.15-5.69,4.76-5.69S690.62,288.3,690.62,291.73Zm-6.91.1c0,3.15.83,4.89,2.21,4.89s2.18-1.74,2.18-4.89-.81-4.91-2.18-4.91S683.71,288.69,683.71,291.83Z"/><path class="cls-2" d="M520.41,233.5l.81,6.66-32,31.14h36a6.27,6.27,0,0,0,3.78-.94A7,7,0,0,0,531,267.7h.9l-2.79,13.05H474v-.9Zm.9,58.5a4.58,4.58,0,0,0,1.48,3.42,4.83,4.83,0,0,0,3.47,1.44h1v.9H496.83l.09-.9h.9a5,5,0,0,0,3.56-1.39,4.59,4.59,0,0,0,1.48-3.47Zm-18.45-39.06,17.55-19.44h.9v64.17H502.86Z"/><path class="cls-2" d="M536.52,297.76l.09-.9h1.89a4.78,4.78,0,0,0,3.51-1.44,4.66,4.66,0,0,0,1.44-3.42V246.37q0-3.51-1.62-4.86a6.53,6.53,0,0,0-4.32-1.35h-1.62v-.9c1.26,0,3-.22,5.08-.49s4.43-.63,6.89-1.08A67.19,67.19,0,0,0,555,236a26.44,26.44,0,0,0,5.9-2.48h.9v58.59a4.47,4.47,0,0,0,1.48,3.38,4.91,4.91,0,0,0,3.47,1.39h1.89v.9Z"/><path class="cls-2" d="M582.6,299a8.12,8.12,0,0,1-5.72-13.86,8.12,8.12,0,0,1,11.48,11.48A7.75,7.75,0,0,1,582.6,299Z"/><path class="cls-2" d="M644.16,231.7l.36.63q-9.63,3-15.08,6.66a24.17,24.17,0,0,0-8,8.37,28.48,28.48,0,0,0-3.15,10.58,126.81,126.81,0,0,0-.63,13.36q0,7.47.36,12.47a17.84,17.84,0,0,0,1.8,7.47,5,5,0,0,0,4.68,2.47,6,6,0,0,0,5-2.2,12.94,12.94,0,0,0,2.34-5.76,43.65,43.65,0,0,0,.63-7.61,42.44,42.44,0,0,0-.59-8,11.49,11.49,0,0,0-1.57-4.27,5.3,5.3,0,0,0-2.34-1.94,5.54,5.54,0,0,0-3.78-.27,13,13,0,0,0-3,1.26l-.72-.72a10.3,10.3,0,0,1,4-4.63,16,16,0,0,1,6.26-2.3,18.4,18.4,0,0,1,7.11.32,16.54,16.54,0,0,1,11.43,9.63,22.53,22.53,0,0,1,1.62,9.94,23.1,23.1,0,0,1-3,11,20,20,0,0,1-8.55,7.88q-5.71,2.92-14.62,3.1t-14.94-3a20.28,20.28,0,0,1-9.27-9.77q-3.15-6.65-3.15-16.92a48.37,48.37,0,0,1,2.88-17.23,30.82,30.82,0,0,1,8.73-12.65,34.28,34.28,0,0,1,14.62-7.15A57.71,57.71,0,0,1,644.16,231.7Z"/><path class="cls-1" d="M9.46,43.49c0,.27-.08.56-.11.94a3.47,3.47,0,0,1,2.84-1.12c2.24,0,3.64,1.57,3.64,3.91s-1.42,4.34-4.12,4.34A5.22,5.22,0,0,1,9.17,51c-.6-.35-1.23-.94-1.23-1.53,0-.38.45-.74,1.3-.74.7,0,1,.84,1.17,1.33a1.37,1.37,0,0,0,1.3,1c1.4,0,2-1.62,2-3.76S12.68,44,11.56,44a2.45,2.45,0,0,0-2.27,1.31c-.1.18-.18.22-.48.09s-.25-.2-.22-.36a3.67,3.67,0,0,0,.11-.5l.43-5.75c0-.07,0-.12.11-.23a.29.29,0,0,1,.25-.11c.72,0,1.87,0,2.83,0,.74,0,1.87,0,3.06-.07.13,0,.18.07.16.14L15,40.16a.2.2,0,0,1-.18.13c-.72,0-1.17,0-1.82,0H9.71Z"/><path class="cls-1" d="M24.74,50.1A8.1,8.1,0,0,1,21,53.21c-.09,0-.21-.09-.14-.14a8.59,8.59,0,0,0,2-2.81,5.43,5.43,0,0,0,.45-1.44c1.55.58,2,.79,2,1S25.19,50.06,24.74,50.1Zm3.71-2.32c.54-.8.75-.94.88-.94s.32.14.83.65l.16.18a50.64,50.64,0,0,0,.27-6.21c0-2.2,0-3.42-.11-4.58a18.11,18.11,0,0,1,1.91,1H34.8c.63-.74.78-.85.92-.85s.33.11,1,.67c.3.25.41.38.41.52s0,.22-.47.52v2c0,9.45.06,9.9.06,10.37,0,.85-.16,1.22-.72,1.55a2.77,2.77,0,0,1-1.32.32c-.29,0-.34,0-.41-.47-.09-.61-.52-.9-1.71-1.18-.09,0-.09-.22,0-.22.77,0,1.53,0,2.14,0,.27,0,.33-.06.33-.29V46.5H31.9a13.92,13.92,0,0,1-.43,2.14A9.08,9.08,0,0,1,28.52,53c-.07,0-.22-.06-.16-.13a10.22,10.22,0,0,0,1.87-4.7H22a5,5,0,0,0-.94.11l-.19-.67a4.28,4.28,0,0,0,1.09.15h.8V40.21h-.47a4.85,4.85,0,0,0-.92.11l-.2-.66a4.63,4.63,0,0,0,1.08.14h.51v-1c0-.59,0-1.24-.07-2,2,.2,2.14.38,2.14.56s-.18.31-.52.41v2h2.5v-.9c0-.67,0-1.35-.07-2.09,1.94.18,2.12.34,2.12.51s-.18.32-.5.45v2h.2c.54-.77.75-.92.88-.92s.3.15.77.65a1.09,1.09,0,0,1,.31.5c0,.13-.06.18-.24.18H28.36v7.57Zm-4.14-7.57v2.2h2.5v-2.2Zm2.5,2.62h-2.5V45h2.5Zm-2.5,2.59v2.36h2.5V45.42Zm3.63,6.34c-.34,0-.61-.2-.81-.89a4,4,0,0,0-1.28-1.82c-.07,0,0-.17.11-.16,1.91.31,2.83.94,2.83,1.93A.9.9,0,0,1,27.94,51.76Zm4.22-9.47c0,1.26-.06,2.53-.2,3.79h3.1V42.29Zm2.9-4H32.17v3.55h2.89Z"/><path class="cls-1" d="M46.57,49.25a2.69,2.69,0,0,0,1.71,1.52,15.08,15.08,0,0,0,4.09.41,57.18,57.18,0,0,0,7-.45c.09,0,.09.16,0,.2a1.14,1.14,0,0,0-.71,1c0,.55-.09.61-.43.64-.95.13-3.1.17-4.43.17-2.93,0-4.72-.24-5.89-.94a4.31,4.31,0,0,1-1.83-2.65A13.08,13.08,0,0,1,44,51.86c0,.69,0,.83-.31.83S43,52,42.36,50.5a9.91,9.91,0,0,0,1.3-.47,8.43,8.43,0,0,0,1.24-.7V44.52H43.66a3.41,3.41,0,0,0-1,.14l-.2-.72a4.16,4.16,0,0,0,1.19.16h1.13c.63-.72.77-.82.92-.82s.32.1,1,.63c.3.25.41.37.41.52s0,.18-.54.57Zm-1-8.71c-.42,0-.63-.22-.88-1.12a5.32,5.32,0,0,0-1.16-2.1c-.07-.08.06-.18.15-.17,2.1.53,2.88,1.39,2.88,2.31A1,1,0,0,1,45.53,40.54Zm6.53-1.28h-3.6a5.13,5.13,0,0,0-1,.11l-.2-.67a4.84,4.84,0,0,0,1.15.15h3.6v-.6c0-1,0-1.11-.05-1.78,1.78.2,2.16.29,2.16.56s-.13.25-.52.43v1.39h2.52c.74-.89.95-1,1.08-1s.38.14,1.13.72c.35.27.49.41.49.54s0,.18-.23.18h-5V41H56c.53-.61.67-.72.81-.72s.35.11.94.58c.27.21.38.34.38.48s-.09.25-.43.53v.7c0,1.82.07,3.08.07,3.49s-.36.68-.92.68-.72-.19-.72-.55v-.08H53.67c0,.42,0,1.28,0,2h2.7c.89-1,1.1-1.1,1.23-1.1s.34.14,1.1.78c.32.26.47.43.47.55s-.06.18-.24.18H53.68c0,.74,0,1.3,0,1.66s-.32.68-.93.68S52,50.6,52,50.26s0-.95,0-1.82H48.48a6.91,6.91,0,0,0-1.1.11l-.2-.67a6,6,0,0,0,1.3.15H52c0-.65,0-1.3,0-2H49.69v.18c0,.45-.31.67-.92.67s-.69-.18-.69-.61.08-1,.08-3.15c0-1,0-2-.08-3a17.33,17.33,0,0,1,1.7.77h2.28Zm-2.37,2.12V43.2h2.36c0-.61,0-1.2,0-1.82Zm2.36,2.24H49.69v2.05h2.36Zm1.6-.42h2.43V41.38H53.65Zm2.43,2.47V43.62H53.67v2.05Z"/><path class="cls-1" d="M78.29,43.76c.6-.74.74-.84.88-.84s.33.1,1.21.86c.41.38.52.5.52.65s-.14.36-.74.36a.66.66,0,0,0-.57.2,8.37,8.37,0,0,1-1.41.95.1.1,0,0,1-.14-.13,7.21,7.21,0,0,0,.47-1.63H72.12v0c0,1.06-.4,2.07-1.3,2.07a.8.8,0,0,1-.79-.83,1.15,1.15,0,0,1,0-.18.51.51,0,0,1-.25.06c-.38,0-.47-.11-.54-.85l-.84.27v2.63c0,1.93,0,4.39,0,5.19,0,.45-.32.63-.92.63s-.72-.15-.72-.53.11-1.6.11-3.94v-1.3a.93.93,0,0,1-.5.22,12.62,12.62,0,0,1-2.16,4.16c-.06.07-.24,0-.2-.11a22,22,0,0,0,.77-3.44A12.34,12.34,0,0,0,65,46.44c1.39.42,1.82.58,1.93.74v-2c-.54.14-1.1.27-1.73.41-.11.34-.21.51-.38.51s-.39-.54-.57-2a18.2,18.2,0,0,0,1.83.07h0A31.1,31.1,0,0,0,67.78,41a10.77,10.77,0,0,0,.77-2.07c1.48.64,2,.93,2,1.11s-.16.29-.67.27a20.13,20.13,0,0,1-3.18,3.82c.73,0,1.45,0,2.17-.07h.33a4.33,4.33,0,0,0-.54-1.42c0-.08,0-.13.12-.09,1.14.59,1.73,1.26,1.73,2a1.15,1.15,0,0,1,0,.18,1.91,1.91,0,0,0,1.13-1.78.11.11,0,0,1,.2,0,3.71,3.71,0,0,1,.25.88ZM66.7,37.87a6.84,6.84,0,0,0,.21-1.37c1.5.47,2.22.8,2.22,1s-.22.31-.72.31a19.78,19.78,0,0,1-2.07,2.32,1.5,1.5,0,0,1,.79,1.29.89.89,0,0,1-.83,1c-.47,0-.52-.08-.77-1.08a3.61,3.61,0,0,0-1-1.8c-.06-.07,0-.18.08-.16A7.63,7.63,0,0,1,66,40,17.33,17.33,0,0,0,66.7,37.87ZM70,50.17c-.49,0-.56-.16-.63-1.35a6.45,6.45,0,0,0-.54-2.2c0-.07.09-.18.16-.12,1.33,1,1.91,1.78,1.91,2.63A1,1,0,0,1,70,50.17Zm4.34-3.87c0,.29,0,.56,0,.83a6.53,6.53,0,0,1-1.22,3.71A7.11,7.11,0,0,1,69.23,53c-.09,0-.21-.18-.14-.21a6.34,6.34,0,0,0,2.74-2.43,7.42,7.42,0,0,0,.81-3.86,10.79,10.79,0,0,0-.07-1.17c2,.22,2.23.29,2.23.53S74.67,46.16,74.33,46.3Zm1.51-4.63H77.3c.72-.86.94-1,1.06-1s.36.14,1.07.7c.3.25.45.41.45.54s-.06.18-.24.18H72.21a4.85,4.85,0,0,0-1,.11l-.2-.67a5.22,5.22,0,0,0,1.21.14h2V39.53h-2.4a6.68,6.68,0,0,0-1.08.11L70.5,39a5.78,5.78,0,0,0,1.27.15h2.4V38c0-.33,0-.79-.09-1.42,2.09.18,2.27.36,2.27.54s-.17.28-.51.45v1.53h1.8c.83-1,1-1.16,1.17-1.16s.36.15,1.16.8c.36.3.5.46.5.59s0,.18-.23.18h-4.4Zm1.33,9.08c0,.38.09.43.74.43s1,0,1.3-.25a4.86,4.86,0,0,0,.9-2c0-.09.2-.07.2,0,0,.51-.06,1.28-.06,1.51a.32.32,0,0,0,.22.36.69.69,0,0,1,.41.67,1,1,0,0,1-.64.9,6.09,6.09,0,0,1-2.22.31c-2,0-2.54-.35-2.54-1.75,0-.31,0-.61,0-1.95,0-1.18,0-2.37-.09-3.58,2,.24,2.21.27,2.21.52s-.14.29-.47.42Z"/><path class="cls-1" d="M93.23,45.31c0,.45-.27.67-1,.67-.44,0-.65-.15-.65-.49s0-1.4,0-3.37c0,.09-.07.15-.23.15H89.52v5.45c.74-.23,1.48-.48,2.13-.75.08,0,.16.16.08.21a21.4,21.4,0,0,1-4.62,2.9c0,.56-.15.78-.4.78s-.52-.49-1.1-2.2a13.86,13.86,0,0,0,1.52-.27c.25,0,.5-.13.77-.2V42.27H87a4.47,4.47,0,0,0-.95.11l-.2-.67a4,4,0,0,0,1.06.14h1V39a18.09,18.09,0,0,0-.09-2.2c2.14.22,2.36.42,2.36.62s-.15.28-.65.52v3.92h.16c.43-.83.65-1,.78-1s.32.14.86.68a1.2,1.2,0,0,1,.34.51v-.56a22.79,22.79,0,0,0-.11-2.61,13.74,13.74,0,0,1,1.84,1h4A11.42,11.42,0,0,0,98.27,38a11.06,11.06,0,0,0,.45-1.44c1.84.68,2.14.83,2.14,1.06s-.19.33-.81.34a14.43,14.43,0,0,1-2,1.89h1.83c.58-.7.72-.81.87-.81s.32.11,1,.69c.29.25.39.38.39.52s-.16.32-.54.59v.74c0,1.91,0,3.24,0,3.68s-.31.64-1,.64c-.41,0-.63-.16-.63-.59Zm1,6.73v.45c0,.49-.31.69-1,.69-.47,0-.69-.16-.69-.58,0-.59.08-1.33.08-3.89,0-.9,0-1.8-.08-2.72a10.14,10.14,0,0,1,1.82.87h4.49c.57-.67.71-.78.86-.78s.32.11,1,.63c.29.26.4.38.4.53s-.11.3-.5.55v.76c0,2,0,3.4,0,3.85s-.32.71-1,.71c-.47,0-.7-.15-.7-.56V52Zm.48-12.4c-.36,0-.57-.2-.72-.72a5.54,5.54,0,0,0-1-2.14.1.1,0,0,1,.12-.15c1.68.6,2.47,1.26,2.47,2A.9.9,0,0,1,94.72,39.64Zm1,2.65v-2H93.23v2ZM93.23,44.9H95.7V42.7H93.23Zm5.71,2.37h-4.7V49.2h4.7Zm0,2.34h-4.7v2h4.7ZM100,40.27H97.3v2H100Zm0,2.43H97.3v2.2H100Z"/><path class="cls-1" d="M113.91,40.12c0,9,.07,11.2.07,12.14,0,.52-.32.81-1,.81-.56,0-.79-.2-.79-.63,0-.59,0-2,.07-4.56A19.58,19.58,0,0,1,108.85,50c0,.55-.18.81-.41.81s-.25,0-1.14-2.36a6.37,6.37,0,0,0,1.19-.13l.29-.05V41.11a24.13,24.13,0,0,0-.14-2.41c2.12.2,2.32.38,2.32.56s-.18.34-.58.49V47.9c.61-.14,1.24-.3,1.84-.48,0-1.12,0-2.4,0-3.91a57,57,0,0,0-.15-6.79c2.2.18,2.45.25,2.45.52s-.05.22-.63.49Zm6.9-1.49c.74-.85.88-1,1-1s.33.1,1.1.79c.36.34.47.47.47.61s-.13.34-.59.58a20.3,20.3,0,0,1-3,8.13A12.7,12.7,0,0,0,124.26,51c.09,0,.06.21,0,.23-.54.16-.78.45-1,1.19-.12.34-.16.41-.32.41a1.59,1.59,0,0,1-.63-.29,12.76,12.76,0,0,1-3.39-3.44,14.14,14.14,0,0,1-4.53,3.68c-.07,0-.2-.16-.13-.22a17.72,17.72,0,0,0,4-4.59,20.69,20.69,0,0,1-2.41-8.86,7.63,7.63,0,0,0-1,.13l-.2-.7a9.76,9.76,0,0,0,1.58.14Zm-4.67.41a19.08,19.08,0,0,0,2.72,7.57A24.25,24.25,0,0,0,121,39Z"/><path class="cls-1" d="M450,51.76v.64c0,.51-.31.74-1,.74s-.77-.2-.77-.61c0-1.58.07-3.26.07-9.61,0-1.48,0-3-.07-4.45a18.38,18.38,0,0,1,2,1h1.62c.22-.61.42-1.24.56-1.8a5.56,5.56,0,0,0,.22-1.22c1.78.45,2.23.65,2.23.9s-.16.29-.67.38a10.45,10.45,0,0,1-1.73,1.74h5c.64-.68.78-.79.92-.79s.36.09,1.08.63c.35.25.47.43.47.58s-.09.28-.57.63v1.82c0,5.22.07,8.85.07,10,0,.52-.29.74-1,.74-.57,0-.77-.16-.77-.65v-.66Zm7.69-11.92H450v3.33h7.69Zm0,3.74H450V47h7.69Zm0,3.87H450v3.89h7.69Z"/><path class="cls-1" d="M479.38,38.34h-8.9a6.35,6.35,0,0,0-1.33.15l-.2-.72a7.47,7.47,0,0,0,1.51.16h8.83c.63-.72.77-.83.91-.83s.35.11,1,.63c.32.25.43.38.43.52s-.05.18-.56.61v.87c0,2.25.09,3.82.09,4.32s-.32.86-1.06.86c-.5,0-.75-.16-.75-.61v-.61h-8.63v6c0,.81.36,1,4.3,1,4.58,0,5.41-.13,5.87-.47s.8-1.06,1.3-2.88c0-.09.25-.07.25,0,0,.75-.07,1.87-.07,2.25s0,.38.23.47a.64.64,0,0,1,.44.68c0,.58-.42,1-1.52,1.21a31.56,31.56,0,0,1-5.9.34c-5.73,0-6.68-.33-6.68-2.38,0-.74,0-2.07,0-4,0-1.71,0-2.2-.09-3.57a20.57,20.57,0,0,1,2,1h8.47Z"/><path class="cls-1" d="M490.32,42.92c-.08.46-.18.64-.42.64s-.32-.1-.92-2.1a17.31,17.31,0,0,0,1.86-.09A31.35,31.35,0,0,0,495,40.7c.09,0,.16.2.09.23A24.09,24.09,0,0,1,490.32,42.92Zm4.53,8.93a14,14,0,0,1-5.74,1.22c-.09,0-.13-.22,0-.23a13.83,13.83,0,0,0,3.3-1.46,5.25,5.25,0,0,0,1.3-1.1c2,1.13,2,1.13,2,1.37S495.56,51.86,494.85,51.85Zm-3.35-7.48c-.57.08-1.17.15-1.81.2-.09,0-.15-.2-.06-.21a14.49,14.49,0,0,0,1.86-.42c0-.39,0-.79,0-1.19a14.84,14.84,0,0,1,1.62.63,8.28,8.28,0,0,0,3.22-2.27A5.29,5.29,0,0,0,497.37,39c1.59.24,2.25.45,2.25.69s-.19.27-.66.39a6.68,6.68,0,0,0,2.59,1.86,12,12,0,0,0,4,.74c.09,0,.06.18,0,.21a1.49,1.49,0,0,0-.94,1.33.26.26,0,0,1-.27.2,2.88,2.88,0,0,1-.77-.18c-.31-.11-.62-.23-.9-.36a2.16,2.16,0,0,1-.36.25V45c0,2.5.07,4.25.07,4.81s-.38.63-1.05.63c-.45,0-.68-.15-.68-.54h-7.47V50c0,.4-.33.59-.94.59s-.76-.16-.76-.59c0-.81.09-1.64.09-4.95Zm.54-4.55c-.41,0-.61-.16-.86-.74a4.47,4.47,0,0,0-1.39-1.87c-.07-.06,0-.15.08-.15,2.07.18,3.11.76,3.11,1.79A.92.92,0,0,1,492,39.82Zm1.07,5.6h7.47V43.85h-6.52l-.95.24Zm7.47.41h-7.47V47.4h7.47Zm0,2h-7.47v1.71h7.47Zm-4.65-9a9.45,9.45,0,0,1-2.41,1.68c-.07,0-.25-.11-.18-.16A8.68,8.68,0,0,0,495,37.93a8.35,8.35,0,0,0,.58-1.62c1.69.5,2.16.72,2.16.92s-.09.25-.8.37a3.87,3.87,0,0,1-.57.76h5.9c.67-.74.81-.85,1-.85s.3.11,1.06.81c.34.33.45.47.45.62,0,.32-.09.41-.76.45a1,1,0,0,0-.61.25,12.75,12.75,0,0,1-1.89,1c-.09,0-.21-.15-.16-.22a6.65,6.65,0,0,0,1-1.68Zm4.52,4.67a5.86,5.86,0,0,1,.47-.52,7.43,7.43,0,0,1-2.18-2.62,7.35,7.35,0,0,1-3.51,3.14Zm2.34,9.81a1.49,1.49,0,0,1-1.08-.52,8.89,8.89,0,0,0-3.65-1.89c-.09,0-.07-.18,0-.18,4.66,0,5.7.66,5.7,1.69A1,1,0,0,1,502.79,53.25Z"/><path class="cls-1" d="M517.43,48.59c0-1.86.09-3.71.09-5.57a17.38,17.38,0,0,1-7.37,6.88c-.09,0-.2-.12-.12-.18a21.53,21.53,0,0,0,6.55-8.7h-4.14a13.38,13.38,0,0,0-1.55.11l-.2-.66a11.38,11.38,0,0,0,1.71.14h5V39.08a20.65,20.65,0,0,0-.11-2.5c1.84.14,2.38.27,2.38.54s-.15.3-.56.52v3h4.23c.85-1.1,1.06-1.24,1.19-1.24s.36.14,1.29.86c.42.34.56.49.56.61s0,.18-.23.18h-6.88A11.41,11.41,0,0,0,522.07,45a13.4,13.4,0,0,0,5.06,2.81.09.09,0,0,1,0,.18,1.89,1.89,0,0,0-1.33,1.39c-.09.25-.18.34-.33.34a2.14,2.14,0,0,1-.81-.38,13.35,13.35,0,0,1-3.51-3.44A17.38,17.38,0,0,1,519,41.53c0,1.67.09,5.44.14,7.06h.92c.76-1,1-1.14,1.1-1.14s.34.15,1.11.8c.33.28.47.45.47.57s0,.18-.23.18h-3.37c0,1.64.06,2.85.06,3.39s-.4.73-1.1.73-.79-.16-.79-.61,0-1.74.07-3.51h-2.06a10.28,10.28,0,0,0-1.33.11l-.2-.67a7.24,7.24,0,0,0,1.43.15Z"/><path class="cls-1" d="M535.78,50a42.69,42.69,0,0,0,4.33-1.26c.09,0,.16.14.09.2a29.91,29.91,0,0,1-6.65,3.22c-.09.5-.21.7-.47.7s-.43-.36-1-2.23c.36,0,.73-.07,1.13-.14l.85-.15V39.24a13.07,13.07,0,0,0-.11-2.16c2.23.2,2.46.4,2.46.58s-.12.29-.63.52V42.9h1.75c.92-1,1.14-1.19,1.26-1.19s.34.14,1.15.83c.36.3.51.46.51.59s-.06.18-.24.18h-4.43Zm6.68-5.71a14.87,14.87,0,0,0,2.65-2.46,9.68,9.68,0,0,0,1.23-1.77c1.44.9,2,1.33,2,1.59s-.16.34-.86.25a17,17,0,0,1-5,2.93V50.3c0,.72.17.77,2.18.77a3.06,3.06,0,0,0,1.59-.21c.45-.26.77-1.07,1.33-2.85,0-.09.23-.07.23,0,0,.74-.14,2-.14,2.25a.36.36,0,0,0,.23.4c.4.19.53.34.53.66,0,.52-.35.85-1.12,1a13.31,13.31,0,0,1-2.75.21c-3.28,0-3.84-.29-3.84-2,0-.35,0-.69,0-2.06,0-3.78,0-7.56-.07-11.36,2,.2,2.29.27,2.29.56s-.09.32-.51.5Z"/><path class="cls-1" d="M562.35,49c0,1.89.06,3.19.06,3.64s-.4.61-1,.61-.75-.14-.75-.65.07-1.46.09-3.6h-5.57a9.74,9.74,0,0,0-1.31.11l-.2-.67a7.79,7.79,0,0,0,1.48.15h5.6v-.11a18.17,18.17,0,0,0-.09-2c2.1.22,2.34.29,2.34.56s-.09.23-.6.48v1.07h4.47c.9-1.12,1.12-1.26,1.24-1.26s.36.14,1.28.88c.41.32.56.49.56.61s-.06.18-.24.18Zm-7.11-2.52c0,.54-.07.72-.32.72s-.51-.45-1.19-1.94c.54-.15,1.06-.29,1.55-.45a18.45,18.45,0,0,0,3.22-1.34c.07,0,.23.15.18.22A13.33,13.33,0,0,1,555.24,46.48Zm5.49-7.27c1.26.48,1.66.7,1.66.91s0,.2-.63.22a9.72,9.72,0,0,1-1.58,1.37,1.46,1.46,0,0,1,.61,1.12.77.77,0,0,1-.74.84c-.43,0-.49-.07-.77-1a4,4,0,0,0-1.1-1.66.09.09,0,0,1,.07-.16,6.18,6.18,0,0,1,1.44.5c.16-.34.32-.68.47-1a7.4,7.4,0,0,0,.41-1.17h-5.36a8.8,8.8,0,0,0-1.26.1l-.2-.66a7.06,7.06,0,0,0,1.42.14h5.44V37.57a7.21,7.21,0,0,0-.09-1.07c2.23.2,2.45.4,2.45.6s-.2.36-.63.5v1.19h4.28c1-1.08,1.21-1.22,1.33-1.22s.35.14,1.19.84c.38.33.52.49.52.62s0,.18-.23.18Zm-4,4.07c-.49,0-.62-.17-.94-1.12a4.28,4.28,0,0,0-1.15-1.93.1.1,0,0,1,.09-.16c2,.58,2.9,1.26,2.9,2.2A1,1,0,0,1,556.74,43.28Zm6.77,1.8a5,5,0,0,0-.74-1.08c-.06-.08,0-.17.12-.13,1.53.5,2.51,1.33,2.51,2.18a.88.88,0,0,1-.85.92c-.41,0-.5-.13-.76-1.1a3.09,3.09,0,0,0-.14-.43,24.52,24.52,0,0,1-4.7,1.17c-.09.39-.14.48-.3.48s-.4-.3-.78-1.94c.81,0,1.24.05,1.84.05a22.65,22.65,0,0,0,2.3-3,11.68,11.68,0,0,0,.78-1.46c1.54.81,1.81,1,1.81,1.22s0,.2-.75.24a40,40,0,0,1-3.4,3C561.47,45.18,562.48,45.15,563.51,45.08ZM568,41.35a13.71,13.71,0,0,1-3.42,2.07c-.09,0-.24-.11-.16-.16a13.12,13.12,0,0,0,1.78-2.15,5.77,5.77,0,0,0,.68-1.27c1.39.72,1.84,1,1.84,1.24S568.57,41.37,568,41.35Zm-.09,5.42c-.45,0-.59-.15-1.1-1a4.78,4.78,0,0,0-1.71-1.8c-.07,0,0-.2.07-.18,2.42.36,3.6,1.06,3.6,2.11A.86.86,0,0,1,567.9,46.77Z"/><path class="cls-1" d="M931.38,231.07c0,1.3-.08,2.62-.16,3.92h1.72c.8-1.06,1-1.22,1.22-1.22s.47.16,1.35,1c.39.34.55.55.55.76s-.08.26-.63.67c-.28,5.46-.78,9.39-1.45,10.77a3.12,3.12,0,0,1-1,1.25,3,3,0,0,1-1.82.54c-.31,0-.41-.1-.44-.41-.15-1.07-.52-1.49-1.87-1.9-.13,0-.08-.31,0-.31,1.17.1,1.85.13,2.13.13.78,0,1-.13,1.23-1.17a53.78,53.78,0,0,0,.91-9.47H931.2c-.52,6.76-2,10.22-5.26,13.21-.1.08-.33-.13-.26-.23,2.37-4,3.36-8.87,3.36-16.75v-.75h-.68a11,11,0,0,0-1.66.15l-.29-1a9.1,9.1,0,0,0,1.93.21h1.56v-3.15c0-.41,0-1-.11-1.92,2.91.29,3.17.57,3.17.83s-.23.39-.72.65v3.59h.83c.93-1.17,1.25-1.38,1.43-1.38s.49.21,1.35,1c.34.31.55.54.55.73s-.08.26-.34.26Zm7.54-.65a14.88,14.88,0,0,1-3.38,3.56c-.11.08-.37-.08-.29-.18a19.27,19.27,0,0,0,2.39-5.15,16.51,16.51,0,0,0,.65-3.36c2.73.58,3.33.81,3.33,1.17s-.26.47-.93.58a17.13,17.13,0,0,1-1.38,2.78H946c1.28-1.56,1.59-1.77,1.77-1.77s.5.21,1.67,1.22c.52.47.72.71.72.89s-.07.26-.33.26Zm.83,15.08c0,.88.16,1,3.48,1s3.9-.11,4.35-.39.62-.63,1.53-3.46c0-.13.34-.08.34.05,0,.78-.08,1.87-.08,2.37a.61.61,0,0,0,.39.67c.52.32.7.58.7,1,0,.7-.46,1.17-1.66,1.43a24.66,24.66,0,0,1-5,.34c-5.35,0-6.32-.39-6.32-2.44,0-.65.06-1.3.06-4,0-1.19,0-2.36,0-3.56a6.28,6.28,0,0,0-1.53.6l-.5-.86a6.8,6.8,0,0,0,1.67-.29l.36-.1c0-1.64,0-3.28-.08-4.94,2.76.29,3.1.39,3.1.78s-.18.42-.81.68v2.86l2.08-.6v-1.85a31.5,31.5,0,0,0-.13-3.43c2.29.21,3,.42,3,.81s-.23.41-.83.59v3.28l2-.57c.8-1.22,1.06-1.51,1.35-1.51a4.17,4.17,0,0,1,1.79,1.2,1.06,1.06,0,0,1,.31.52c0,.26-.18.44-.75.8a37.56,37.56,0,0,1-.42,5.39,2.9,2.9,0,0,1-.83,1.61,2.37,2.37,0,0,1-1.58.57c-.34,0-.37-.05-.37-.7s-.52-1.15-1.45-1.54c0,.81,0,1.41,0,1.75,0,.67-.39.93-1.32.93-.71,0-.91-.18-.91-.86s.07-2.68.1-6.34l-2.08.6Zm4.16-8.77c0,.81,0,1.59,0,2.4v2.36a6.82,6.82,0,0,0,1.4.16.7.7,0,0,0,.75-.7,38,38,0,0,0,.29-4.92Z"/><path class="cls-1" d="M964.35,230.62c1.11-1.37,1.43-1.58,1.61-1.58s.52.21,1.66,1.12c.5.39.7.62.7.8s-.07.26-.33.26h-8.22a11.22,11.22,0,0,0-1.77.16l-.28-1a11.14,11.14,0,0,0,2.08.2Zm-3.23,16.67v.81c0,.67-.47,1-1.32,1s-1.1-.26-1.1-.88c0-.81.08-1.64.08-5a35.35,35.35,0,0,0-.15-3.69,22.15,22.15,0,0,1,2.75,1.3H964c.91-1.09,1.12-1.25,1.33-1.25s.47.16,1.4.91c.42.37.58.55.58.75s-.19.47-.76.86V243c0,2.24.1,3.77.1,4.27,0,.67-.46,1-1.4,1-.7,0-1-.23-1-.81v-.18Zm2-20.18c1.15-1.35,1.46-1.56,1.64-1.56s.52.21,1.62,1.1c.46.39.67.62.67.8s-.08.26-.34.26h-6.08a9.59,9.59,0,0,0-1.54.16l-.28-1a8.6,8.6,0,0,0,1.82.2Zm.24,7c1-1.27,1.3-1.48,1.48-1.48s.52.21,1.51,1c.44.37.65.6.65.78s-.08.26-.34.26h-6a9.07,9.07,0,0,0-1.59.16l-.28-1a8.47,8.47,0,0,0,1.87.21Zm0,3.36c1-1.28,1.3-1.49,1.48-1.49s.52.21,1.54,1c.44.37.65.6.65.78s-.08.26-.34.26h-6a9.7,9.7,0,0,0-1.56.16l-.29-1a8.31,8.31,0,0,0,1.85.21Zm.86,4h-3.07v5.22h3.07Zm12.17-4.71c1.06-1,1.27-1.2,1.48-1.2s.49.16,1.56,1c.5.39.65.57.65.78s-.28.54-1,.81a20.09,20.09,0,0,1-3.46,5.33,15.35,15.35,0,0,0,6.24,2.34.14.14,0,0,1,0,.26c-.88.26-1.22.75-1.51,2-.07.39-.18.55-.36.55a4.44,4.44,0,0,1-1-.37,12.54,12.54,0,0,1-4.84-3.38,20.87,20.87,0,0,1-7.67,3.93c-.12,0-.26-.29-.12-.34a20.09,20.09,0,0,0,6.62-5.07,20.26,20.26,0,0,1-2.57-6H970a5.54,5.54,0,0,0-1.5.21l-.29-1a8.72,8.72,0,0,0,1.9.21Zm4.58-5.1c0,.4.1.5.52.65a.84.84,0,0,1,.36.79c0,.54-.34,1-1,1.19a7.91,7.91,0,0,1-2.52.31c-2.29,0-3.1-.57-3.1-2.21,0-1,0-1.27,0-2.28v-2.66h-3v.5a10.23,10.23,0,0,1-.84,4.62c-.7,1.28-1.89,2.14-3.89,3.12-.11.06-.34-.1-.24-.18a7.14,7.14,0,0,0,2.21-3.61,12.56,12.56,0,0,0,.31-3.15,28.67,28.67,0,0,0-.18-3.12,29.52,29.52,0,0,1,2.7,1.23h2.86c.84-1,1-1.1,1.28-1.1s.47.11,1.33.83a1.45,1.45,0,0,1,.52.68c0,.26-.19.47-.68.75v4c0,.41.18.49,1,.49.63,0,1,0,1.23-.31a5.54,5.54,0,0,0,.85-2.32c0-.13.32-.13.32,0Zm-10,5.7a13.9,13.9,0,0,0,3.07,4.78,15.74,15.74,0,0,0,2.45-4.78Z"/><path class="cls-2" d="M826.83,250.64l-.36-.63q9.63-3,15.08-6.66a24.09,24.09,0,0,0,8-8.37,28.48,28.48,0,0,0,3.15-10.58,126.81,126.81,0,0,0,.63-13.36q0-7.47-.36-12.47a18.42,18.42,0,0,0-1.75-7.47,5,5,0,0,0-4.73-2.47,6,6,0,0,0-5,2.2,12.92,12.92,0,0,0-2.34,5.72,43.37,43.37,0,0,0-.63,7.65,42.37,42.37,0,0,0,.59,8,10.93,10.93,0,0,0,1.62,4.27,5.66,5.66,0,0,0,2.29,1.94,5.72,5.72,0,0,0,3.83.27,12.72,12.72,0,0,0,2.92-1.26l.63.72a10.79,10.79,0,0,1-4,4.59,15.21,15.21,0,0,1-6.21,2.34,18.4,18.4,0,0,1-7.11-.32,16.81,16.81,0,0,1-6.61-3.24,16.61,16.61,0,0,1-4.82-6.43,22.58,22.58,0,0,1-1.62-9.9,23.44,23.44,0,0,1,3-11,20,20,0,0,1,8.55-7.92q5.76-3,14.67-3.06,13.23-.18,20.3,7t7.06,22.68a48.37,48.37,0,0,1-2.88,17.23,30.76,30.76,0,0,1-8.73,12.65A34.29,34.29,0,0,1,847.35,250Q838.62,252.08,826.83,250.64Z"/><path class="cls-2" d="M880.47,247.22l.09-.9h1.89a4.78,4.78,0,0,0,3.51-1.44,4.67,4.67,0,0,0,1.44-3.42V195.83q0-3.51-1.62-4.86a6.53,6.53,0,0,0-4.32-1.35h-1.62v-.9c1.26-.06,2.95-.23,5.09-.5s4.42-.63,6.88-1.08a68,68,0,0,0,7.16-1.71,26.56,26.56,0,0,0,5.89-2.47h.9v58.59a4.46,4.46,0,0,0,1.49,3.37,4.89,4.89,0,0,0,3.46,1.4h1.89v.9Z"/><path class="cls-1" d="M778.76,44.19a22.69,22.69,0,0,0,1.71-3.06,14.22,14.22,0,0,0,.81-2c1.4.65,2,1,2,1.24s-.2.29-.7.27a23.72,23.72,0,0,1-3.19,3.58c.9,0,1.79,0,2.67-.09a4.51,4.51,0,0,0-.65-1.44c-.06-.07.07-.14.14-.1,1.39.75,2,1.45,2,2.34a.82.82,0,0,1-.74.91c-.41,0-.57-.25-.68-1.18v0c-.32.11-.67.22-1,.31v2.52c0,1.92,0,4.32,0,5.11,0,.49-.32.7-.93.7s-.74-.16-.74-.57.11-1.55.11-3.89V47.54a1.08,1.08,0,0,1-.47.18A12.42,12.42,0,0,1,777,51.83c0,.07-.21,0-.19-.11a23.31,23.31,0,0,0,.75-3.33,13.82,13.82,0,0,0,.15-1.87,6.26,6.26,0,0,1,1.89.7V45.27c-.44.09-1,.2-1.59.35-.11.36-.21.5-.38.5s-.36-.34-.66-2c.43,0,.63,0,.93,0Zm.68-6.53c.11-.42.18-.79.24-1.12,1.62.58,2.14.85,2.14,1.06s-.22.31-.72.31a19.7,19.7,0,0,1-2,2.32,1.51,1.51,0,0,1,.74,1.32.88.88,0,0,1-.79,1c-.47,0-.52-.08-.81-1.08a3.64,3.64,0,0,0-1.06-1.82c-.07-.07,0-.18.11-.16a7,7,0,0,1,1.47.54A17,17,0,0,0,779.44,37.66Zm3.1,11.45c-.43,0-.61-.16-.69-1a4.29,4.29,0,0,0-.48-1.8c-.06-.07,0-.12.13-.09,1.24.67,1.8,1.26,1.8,2A.79.79,0,0,1,782.54,49.11Zm1.73.27c0,1.21-.45,2.21-1.42,2.21a.83.83,0,0,1-.85-.84c0-.4.2-.65.7-.87.83-.34,1.1-.79,1.19-1.85,0-.09.18-.11.2,0A5.49,5.49,0,0,1,784.27,49.38Zm2.57-11.22a10.23,10.23,0,0,1-4,4.65c-.08,0-.22-.06-.17-.13A12,12,0,0,0,785,38.43c.15-.52.27-1.08.38-1.65,1.89.55,2.23.7,2.23,1S787.36,38.09,786.84,38.16ZM785.44,44a23.52,23.52,0,0,0,.86-2.51,10.23,10.23,0,0,0,.36-1.8c1.82.49,2.31.69,2.31.94s-.06.23-.72.39a19.35,19.35,0,0,1-2.2,3c1.26,0,2.52-.08,3.76-.17a5.54,5.54,0,0,0-1-1.65c-.06-.07,0-.2.09-.17,2,.71,2.91,1.59,2.91,2.65a1,1,0,0,1-.84,1.05c-.4,0-.63-.27-.79-.81-.06-.2-.11-.4-.17-.58a30.91,30.91,0,0,1-5.15,1.12c-.07.41-.21.59-.41.59s-.29-.29-.68-2.11a10.18,10.18,0,0,0,1.42.08Zm1.24,6.68c0,.5.2.59,1.35.59a2.68,2.68,0,0,0,1.3-.2c.3-.18.48-.48.9-1.94,0-.09.2-.08.2,0,0,.43,0,1,0,1.53,0,.23.06.28.24.36.39.16.57.27.57.66s-.27.67-.9.85a10.66,10.66,0,0,1-2.43.21c-2.27,0-2.9-.32-2.9-1.31,0-.58.08-1.12.08-3.53a7,7,0,0,0-.08-1.1c2.09.22,2.22.24,2.22.51s-.11.23-.56.43Zm2-2.17c-.4,0-.56-.16-.71-.68a3.7,3.7,0,0,0-1.15-1.91.08.08,0,0,1,.07-.14c1.68.23,2.67.92,2.67,1.78A.91.91,0,0,1,788.63,48.51Zm4.1-6c-.05.2-.11.27-.23.27a1.08,1.08,0,0,1-.51-.29,10.2,10.2,0,0,1-1.58-1.73,9.61,9.61,0,0,1-1.32-3.17.67.67,0,0,0-.25-.47c-.05-.07-.07-.1-.07-.14s.36-.25.63-.25a.14.14,0,0,1,.16.14c0,.06-.09.27-.09.34a1.08,1.08,0,0,0,.13.45,5.14,5.14,0,0,0,1.56,1.84,10,10,0,0,0,2.53,1.35c.08,0,.08.2,0,.23C793.15,41.35,793,41.6,792.73,42.54Zm-.14,8.84c-.51,0-.69-.24-.83-1.14a5.09,5.09,0,0,0-.94-2.36c-.05-.07.06-.16.15-.12,1.81.79,2.61,1.58,2.61,2.57A1,1,0,0,1,792.59,51.38Z"/><path class="cls-1" d="M801.91,40.59c0,.9-.06,1.82-.11,2.72H803c.56-.74.7-.85.84-.85s.33.11.94.67c.27.24.38.38.38.52s-.06.18-.43.47c-.2,3.78-.54,6.5-1,7.46a2.25,2.25,0,0,1-.7.86,2.1,2.1,0,0,1-1.27.38c-.21,0-.28-.07-.3-.29-.11-.74-.36-1-1.3-1.31-.09,0,0-.22,0-.22.81.07,1.28.09,1.47.09.54,0,.67-.09.85-.81a36.62,36.62,0,0,0,.63-6.55h-1.35c-.36,4.68-1.37,7.07-3.64,9.14-.07.06-.23-.09-.18-.16,1.64-2.79,2.33-6.14,2.33-11.6v-.52h-.47a7.6,7.6,0,0,0-1.15.11l-.2-.67a6.35,6.35,0,0,0,1.33.15h1.08V38c0-.29,0-.72-.07-1.33,2,.2,2.2.39,2.2.57s-.17.27-.51.45v2.49h.58c.65-.81.86-1,1-1s.34.15.93.69c.24.21.38.38.38.5s0,.18-.23.18Zm5.22-.45a10.2,10.2,0,0,1-2.34,2.47c-.07,0-.25,0-.2-.13a13.3,13.3,0,0,0,1.66-3.56,12.76,12.76,0,0,0,.45-2.32c1.89.39,2.3.55,2.3.81s-.18.32-.65.39a10.8,10.8,0,0,1-1,1.93H812c.88-1.08,1.1-1.23,1.22-1.23s.34.15,1.15.85c.36.32.51.49.51.61s-.06.18-.24.18Zm.57,10.45c0,.61.11.72,2.42.72s2.7-.08,3-.27.44-.44,1.07-2.4c0-.09.23,0,.23,0,0,.54,0,1.29,0,1.64a.41.41,0,0,0,.27.46c.36.22.48.4.48.72,0,.49-.32.81-1.15,1a16.74,16.74,0,0,1-3.44.24c-3.71,0-4.37-.27-4.37-1.69,0-.45,0-.9,0-2.78,0-.83,0-1.64,0-2.46a4.68,4.68,0,0,0-1.06.41l-.34-.59a5,5,0,0,0,1.15-.2l.25-.07c0-1.14,0-2.27,0-3.43,1.91.2,2.14.28,2.14.54s-.12.29-.56.47v2l1.45-.41V43.22a21.78,21.78,0,0,0-.09-2.38c1.58.15,2.1.29,2.1.56s-.16.29-.57.42v2.27l1.36-.4c.56-.85.74-1,.94-1a2.82,2.82,0,0,1,1.24.82c.13.15.22.27.22.36s-.13.31-.52.56a26.87,26.87,0,0,1-.29,3.73,2,2,0,0,1-.58,1.12,1.64,1.64,0,0,1-1.1.39c-.23,0-.25,0-.25-.48s-.36-.8-1-1.07c0,.56,0,1,0,1.21,0,.47-.27.65-.92.65-.48,0-.63-.13-.63-.6s.06-1.85.08-4.39l-1.45.41Zm2.89-6.07c0,.56,0,1.1,0,1.65v1.64a4.83,4.83,0,0,0,1,.11c.28,0,.46-.14.52-.49a27.26,27.26,0,0,0,.2-3.4Z"/><path class="cls-1" d="M824.73,40.29c.78-1,1-1.1,1.12-1.1s.36.14,1.15.77c.34.27.49.43.49.56s-.06.18-.24.18h-5.69a8.45,8.45,0,0,0-1.22.11l-.2-.67a7.41,7.41,0,0,0,1.44.15ZM822.5,51.83v.56c0,.46-.33.7-.92.7s-.76-.18-.76-.61.06-1.14.06-3.44a24.47,24.47,0,0,0-.11-2.56,16.54,16.54,0,0,1,1.91.9h1.8c.63-.76.77-.86.92-.86s.32.1,1,.63c.29.25.4.37.4.52s-.13.32-.53.59v.6c0,1.55.08,2.61.08,3s-.33.7-1,.7c-.48,0-.72-.16-.72-.56v-.12Zm1.39-14c.79-.94,1-1.08,1.13-1.08s.36.14,1.12.75c.32.27.46.43.46.56s-.05.18-.23.18h-4.21a6.57,6.57,0,0,0-1.07.11l-.19-.67a5.63,5.63,0,0,0,1.26.15Zm.16,4.82c.68-.88.9-1,1-1s.36.14,1,.72c.3.25.45.41.45.54s-.06.18-.24.18h-4.14a6.87,6.87,0,0,0-1.1.1l-.19-.66a5.87,5.87,0,0,0,1.29.14ZM824,45c.68-.88.9-1,1-1s.36.14,1.06.72c.3.25.45.41.45.54s-.06.18-.24.18h-4.14a5.71,5.71,0,0,0-1.08.11l-.2-.67a5.78,5.78,0,0,0,1.28.14Zm.59,2.79H822.5v3.62h2.12Zm8.43-3.25c.74-.72.88-.83,1-.83s.34.11,1.08.7c.34.27.45.4.45.54s-.2.38-.67.56a14.14,14.14,0,0,1-2.39,3.69,10.42,10.42,0,0,0,4.32,1.62.09.09,0,0,1,0,.18c-.61.18-.85.52-1,1.37-.05.27-.12.38-.25.38a2.83,2.83,0,0,1-.68-.26,8.59,8.59,0,0,1-3.35-2.34,14.54,14.54,0,0,1-5.31,2.72c-.09,0-.18-.2-.09-.23a14.09,14.09,0,0,0,4.59-3.51A14.09,14.09,0,0,1,828.94,45h-.28a4.4,4.4,0,0,0-1,.14l-.2-.7a6.2,6.2,0,0,0,1.32.15ZM836.22,41c0,.27.07.34.36.45a.56.56,0,0,1,.25.54c0,.38-.23.66-.72.83a5.65,5.65,0,0,1-1.75.21c-1.58,0-2.14-.39-2.14-1.53,0-.7,0-.88,0-1.58V38.09h-2.11v.34a7.35,7.35,0,0,1-.57,3.21,5.71,5.71,0,0,1-2.7,2.16c-.08,0-.24-.07-.17-.13a4.91,4.91,0,0,0,1.53-2.5,8.22,8.22,0,0,0,.22-2.18,20,20,0,0,0-.13-2.16,19.3,19.3,0,0,1,1.88.85h2c.57-.67.68-.76.88-.76s.32.07.92.58c.21.18.36.37.36.46s-.13.33-.47.53v2.79c0,.28.13.34.7.34s.67,0,.85-.22a3.81,3.81,0,0,0,.59-1.6c0-.09.22-.09.22,0ZM829.29,45a9.43,9.43,0,0,0,2.12,3.31A10.61,10.61,0,0,0,833.1,45Z"/><path class="cls-1" d="M846.85,42.45c0,.38,0,1.13,0,1.53s-.29.68-.92.68-.68-.11-.68-.65c0-.14,0-.7.12-1.62a9.05,9.05,0,0,1-4,3c-.09,0-.18-.13-.1-.18a11.39,11.39,0,0,0,3.18-3.88h-1.33a8.45,8.45,0,0,0-1.22.11l-.2-.66a7.22,7.22,0,0,0,1.37.14h2.19V38.52a13,13,0,0,0-.09-1.71c1.73.16,2.15.27,2.15.52s-.11.26-.53.44v3.11h1.61c.52-.77.73-.92.86-.92s.36.15,1,.65c.27.22.41.38.41.5s-.05.18-.23.18h-3.64v.65c1.71.31,2.52.83,2.52,1.66a.7.7,0,0,1-.7.74c-.32,0-.52-.16-.84-.72a3.63,3.63,0,0,0-1-1.3ZM849,47a10.33,10.33,0,0,1-1.24,2.7c.77.4,1.19.85,1.19,1.35a.78.78,0,0,1-.76.81c-.45,0-.5-.05-1.35-1.06A9,9,0,0,1,841.79,53c-.09,0-.14-.2,0-.24A9.15,9.15,0,0,0,846,49.87a10.54,10.54,0,0,0-1.32-.8l-.39.67a.75.75,0,0,1-.79.45c-.45,0-.8-.2-.8-.45a1,1,0,0,1,.17-.45A22.23,22.23,0,0,0,844.12,47h-1a7.21,7.21,0,0,0-1.21.11l-.19-.67a6.46,6.46,0,0,0,1.36.14h1.25l.09-.19a7.59,7.59,0,0,0,.5-1.57c1.82.34,1.87.36,1.87.61s-.12.27-.56.42c-.1.25-.21.5-.32.73h2.5c.65-.75.87-.9,1-.9s.35.15.9.63c.24.22.38.38.38.51s0,.18-.23.18Zm-5.13-6.57c-.47,0-.56-.13-.74-1.12a3.05,3.05,0,0,0-.68-1.53c-.06-.07,0-.14.09-.13,1.33.35,2.1,1,2.1,1.95A.79.79,0,0,1,843.9,40.38Zm.94,8.41a11.86,11.86,0,0,1,1.65.36,8.1,8.1,0,0,0,.9-2.2H845.7Zm4.71-10.18a9.27,9.27,0,0,1-2.16,1.87c-.07.06-.19,0-.14-.1a12.87,12.87,0,0,0,.85-1.8,6.39,6.39,0,0,0,.37-1.23c1.25.47,1.73.76,1.73,1S850.11,38.61,849.55,38.61Zm7.1,2.7a16.27,16.27,0,0,1-2.25,7A10.65,10.65,0,0,0,858.66,51a.11.11,0,0,1,0,.2c-.49.2-.62.41-.81,1.3-.13.45-.17.5-.36.5a2.52,2.52,0,0,1-.9-.49,12.86,12.86,0,0,1-3-3,11.94,11.94,0,0,1-5.45,3.62c-.09,0-.2-.16-.13-.22a14.75,14.75,0,0,0,4.83-4.64,17.63,17.63,0,0,1-1.54-4.84,10.81,10.81,0,0,1-1.69,1.9c-.07.06-.23-.05-.18-.12a20.24,20.24,0,0,0,2.29-6,13,13,0,0,0,.3-2.43c2,.45,2.36.56,2.36.83s-.16.33-.72.45a19.54,19.54,0,0,1-1,2.92h3.1c.79-1,1-1.12,1.13-1.12s.35.15,1.1.78c.33.28.47.45.47.57s0,.18-.23.18Zm-4.2,0a13.7,13.7,0,0,1-.92,1.68,12.93,12.93,0,0,0,1.88,4.12,17.18,17.18,0,0,0,1.53-5.8Z"/><path class="cls-1" d="M804.81,278.46a5.61,5.61,0,0,0,0,1,.6.6,0,0,0,.36.4,2.56,2.56,0,0,0,1.14.19,11.53,11.53,0,0,0,2.82-.31,2.75,2.75,0,0,1,.73-.12c.56,0,1,.26,1,.67s-.16.46-.43.57a4.38,4.38,0,0,1-1.27.21c-.79.06-1.53.1-2.2.1-1.54,0-2.46-.24-2.82-.71a1.84,1.84,0,0,1-.34-.65,4.68,4.68,0,0,1-.08-1.13c0-.86,0-1.74,0-2.61s0-1.54,0-2.25c0-.53,0-.65-.41-.84a2,2,0,0,0-.36-.14c-.1,0-.14-.07-.14-.13s.46-.36.75-.36a2.54,2.54,0,0,1,1.1.39c.49.28.64.49.64.74a.6.6,0,0,1-.21.48c-.11.11-.15.19-.18.66s-.09,1.23-.1,2a16.85,16.85,0,0,0,3.77-1.81c.14-.1.22-.16.22-.25a.66.66,0,0,0-.23-.37c-.14-.14-.21-.19-.21-.25s.13-.13.29-.13c.43,0,.64.09,1.22.61.38.35.57.64.56.88s-.16.38-.49.45a3.13,3.13,0,0,0-.51.15c-.75.27-1.47.48-2.17.66a22.84,22.84,0,0,1-2.46.5C804.83,277.42,804.81,278,804.81,278.46Zm5.86-6.18a1,1,0,0,1,.52.84.48.48,0,0,1-.47.49.49.49,0,0,1-.47-.32,5.46,5.46,0,0,0-.88-1.24c-.06-.05-.16-.12-.16-.18s.07-.1.17-.1a1.29,1.29,0,0,1,.32.06A2.48,2.48,0,0,1,810.67,272.28Zm1.3-1a.85.85,0,0,1,.51.71.47.47,0,0,1-.44.52.55.55,0,0,1-.52-.31,3.47,3.47,0,0,0-1-1.09s-.17-.11-.17-.17a.11.11,0,0,1,.12-.11,1.78,1.78,0,0,1,.36,0A3.22,3.22,0,0,1,812,271.3Z"/><path class="cls-1" d="M818.63,274.18c-.11,0-.18-.05-.18-.12s.26-.3.54-.3a3.3,3.3,0,0,1,1.49.55c.35.22.42.42.42.6a.43.43,0,0,1-.2.37,1,1,0,0,0-.23.47,11.22,11.22,0,0,1-1.15,2.61,7.26,7.26,0,0,1-2.83,2.6,1,1,0,0,1-.28.12c-.09,0-.13-.05-.13-.14s0-.1.14-.2a8.65,8.65,0,0,0,2-2.45,11.23,11.23,0,0,0,1-2.44,3.93,3.93,0,0,0,.17-1C819.33,274.56,819,274.34,818.63,274.18Zm3.19-.89a1.09,1.09,0,0,0-.64-.51c-.11,0-.17,0-.17-.15s.25-.31.59-.31a2.62,2.62,0,0,1,1.28.49c.25.15.56.39.56.72a.52.52,0,0,1-.2.39.45.45,0,0,0-.11.33c0,.94,0,1.8-.07,3.17v1c0,.12,0,.18.07.18a1,1,0,0,0,.33-.11,17.7,17.7,0,0,0,4.63-2.72c.16-.14.25-.22.35-.22s.14,0,.14.12-.06.13-.12.2a16.08,16.08,0,0,1-4.94,4,.65.65,0,0,0-.28.29.37.37,0,0,1-.32.2,1.14,1.14,0,0,1-.7-.45,1.55,1.55,0,0,1-.4-.84.93.93,0,0,1,0-.24,4.31,4.31,0,0,0,.07-.86c0-1.12,0-2.07,0-3.85A2.86,2.86,0,0,0,821.82,273.29Z"/><path class="cls-1" d="M836.58,276.42a1.26,1.26,0,1,1-1.26-1.26A1.25,1.25,0,0,1,836.58,276.42Z"/><path class="cls-1" d="M843.62,275.44a12.47,12.47,0,0,1-1.7,1.71c0,.05-.18-.07-.14-.12a15,15,0,0,0,2.46-4.89,13.71,13.71,0,0,0,.46-2.14c1.26.35,1.85.58,1.85.77s-.14.25-.48.32a17.45,17.45,0,0,1-1.68,3.3c.74.12.85.17.85.31s-.08.21-.37.34v7.25c0,.41-.24.59-.73.59-.32,0-.6-.11-.6-.5s.08-1.49.08-3.71Zm5.46,2.18h-1.89a5,5,0,0,0-.88.08l-.16-.52a4.72,4.72,0,0,0,1,.11h1.89v-3.43h-2.24a5.55,5.55,0,0,0-.9.09l-.15-.52a5.35,5.35,0,0,0,1.05.11h5.41c.67-.85.84-1,.94-1s.28.12,1,.68c.31.25.42.37.42.47s0,.14-.18.14h-4v3.43h1.5c.65-.87.82-1,.92-1s.27.11.9.68c.28.26.39.39.39.49s0,.14-.18.14h-3.53v4.2h2.08c.75-1,.91-1.14,1-1.14s.27.12,1,.79c.32.31.44.43.44.53s-.05.14-.19.14h-8.39a7.83,7.83,0,0,0-1,.08l-.16-.51a6.31,6.31,0,0,0,1.14.11h2.7Zm1-4.88c-.4,0-.54-.12-.8-.82a3,3,0,0,0-1.05-1.46s0-.14.07-.13c1.82.24,2.55.73,2.55,1.61A.79.79,0,0,1,850.13,272.74Z"/><path class="cls-1" d="M869.47,272.15c.57-.67.68-.75.8-.75s.25.08,1.08.82c.37.35.46.45.46.56s-.14.3-.6.3-.42,0-.59.12a7.93,7.93,0,0,1-1.26.76c-.06,0-.17,0-.14-.11a5.23,5.23,0,0,0,.43-1.38h-8.59c.06,1.11-.37,1.87-1.1,1.87a.7.7,0,0,1-.72-.74.66.66,0,0,1,.45-.68,1.56,1.56,0,0,0,1-1.55c0-.07.14-.09.16,0a5.23,5.23,0,0,1,.17.8h3.55v-.89c0-.47,0-.84,0-1.14,1.72.17,1.89.32,1.89.48s-.17.26-.47.39v1.16Zm-5.66,3.45a21.76,21.76,0,0,1-3.87.4c-.07,0-.07-.18,0-.19a23,23,0,0,0,5.82-1.89,4.71,4.71,0,0,0,1.52-1.11c1.18.76,1.5,1.07,1.5,1.28s-.14.21-.85.11a14.34,14.34,0,0,1-2.79,1.08v2.34l3.88-.54c.7-1,.81-1.1.92-1.1s.3.08,1,.54c.37.24.45.33.45.44s-.07.14-.17.15l-6.12.84v2.31c0,1.05.1,1.1,2.19,1.1,1.59,0,2.1-.1,2.36-.41a7.46,7.46,0,0,0,.79-1.88c0-.07.14-.07.14,0,0,.49-.06,1.11-.06,1.6,0,.17,0,.24.24.31a.51.51,0,0,1,.41.5c0,.42-.28.72-1,.88a14.17,14.17,0,0,1-3.23.26c-2.68,0-3.21-.44-3.21-1.81v-2.69l-3.35.46a6.35,6.35,0,0,0-.87.2l-.19-.49a8.46,8.46,0,0,0,1,0l3.4-.46Z"/><path class="cls-1" d="M880,276.42a1.26,1.26,0,1,1-1.26-1.26A1.25,1.25,0,0,1,880,276.42Z"/><path class="cls-1" d="M891.18,270.78a4.67,4.67,0,0,0-.07-.83c1.75.16,1.92.31,1.92.47s-.18.28-.49.39v1H896c.73-.84.9-1,1-1s.28.11,1,.65c.31.26.42.38.42.48s0,.14-.18.14H886.89a6.46,6.46,0,0,0-1,.09l-.15-.52a6.11,6.11,0,0,0,1.12.11h4.3Zm0,3.77c-.15,1.76-1,2.58-3.15,3-.07,0-.11-.11-.06-.16a3.29,3.29,0,0,0,2-2.88h-2.11v7.81c0,.35-.23.59-.8.59s-.59-.14-.59-.52c0-.84.09-1.68.09-5.07,0-1.27,0-2.55-.06-3.82a8,8,0,0,1,1.51.69h1.82c-.16-.09-.25-.3-.39-.86a2.42,2.42,0,0,0-.55-1.08.07.07,0,0,1,.06-.11c1.21.23,1.84.7,1.84,1.37a.73.73,0,0,1-.45.68h2.73a8.09,8.09,0,0,0,.45-1.27,5.88,5.88,0,0,0,.18-.81c1.47.54,1.58.59,1.58.8s-.12.24-.53.27a7.43,7.43,0,0,1-1.2,1h2.33c.54-.56.65-.65.76-.65s.27.09.81.52c.26.21.34.31.34.42s-.11.27-.48.48v1c0,4.26,0,5,0,5.53s-.16.95-.62,1.19a2.3,2.3,0,0,1-.95.21c-.16,0-.21,0-.23-.18-.15-.79-.26-.88-1.2-1.21-.07,0-.06-.18,0-.16a11.67,11.67,0,0,0,1.44.08c.17,0,.21,0,.21-.21v-6.68h-2.53v1.24c0,.29.11.34.71.34a1.46,1.46,0,0,0,.58-.07c.22-.11.32-.36.53-.95,0-.07.13-.07.13,0v.68c0,.14,0,.17.19.21a.42.42,0,0,1,.3.4c0,.26-.23.46-.68.57a4.34,4.34,0,0,1-1.2.13c-1.36,0-1.68-.24-1.68-1.19v-1.36Zm-.52,6.6c0,.33-.22.47-.72.47s-.49-.11-.49-.4,0-.8,0-2.13c0-.61,0-1.21-.07-1.81a7.85,7.85,0,0,1,1.38.59h2.23c.48-.52.59-.6.7-.6s.27.08.74.46c.23.18.31.28.31.39s-.1.21-.36.39v.38c0,1,0,1.64,0,1.85s-.24.5-.75.5c-.33,0-.49-.11-.49-.37v-.23H890.7Zm2.55-3H890.7v2.13h2.55Z"/><path class="cls-1" d="M909.35,278.76a8.57,8.57,0,0,0,2.29,1.38,11.74,11.74,0,0,0,3.68.81c.07,0,.07.13,0,.15-.52.2-.64.31-1,1.17a.23.23,0,0,1-.21.15,2.49,2.49,0,0,1-.66-.21,10.62,10.62,0,0,1-2.47-1.36,8.78,8.78,0,0,1-1.79-1.85c0,1.8.08,3.11.08,3.49s-.22.53-.82.53c-.38,0-.55-.15-.55-.46s.07-1.69.1-2.93a10.18,10.18,0,0,1-5.55,2.85c-.07,0-.14-.1-.07-.13a11.71,11.71,0,0,0,4.67-3.59h-3.31a6.35,6.35,0,0,0-1,.09l-.15-.52a5.64,5.64,0,0,0,1.08.11h4.27v-1.3h-2.75a7.83,7.83,0,0,0-1,.08l-.16-.51a6,6,0,0,0,1.11.11h2.79v-1.28h-3.48a6.58,6.58,0,0,0-1,.09l-.16-.52a6.19,6.19,0,0,0,1.12.11h2.3c-.18-.06-.28-.24-.39-.64a2.8,2.8,0,0,0-.7-1.21c-.06,0,0-.12.08-.11,1.26.2,1.91.63,1.91,1.27a.71.71,0,0,1-.49.69h2.25A8.69,8.69,0,0,0,910,274a6,6,0,0,0,.28-.89c1.13.44,1.6.66,1.6.83s-.1.21-.62.24a8.39,8.39,0,0,1-1.37,1h2.32c.66-.73.83-.84.93-.84s.28.11.89.59c.27.22.38.33.38.43s0,.14-.18.14h-5v1.28h2.18c.61-.68.77-.79.87-.79s.28.11.81.55c.24.2.36.32.36.42s0,.14-.19.14h-4v1.3h3.47c.72-.8.88-.91,1-.91s.27.11.91.63c.28.23.4.37.4.46s-.05.14-.19.14Zm-2.62-7.71a5,5,0,0,0-.07-1c1.59.16,1.74.27,1.74.44s-.11.19-.45.35v2h1.16v-1.75a5,5,0,0,0-.07-1c1.6.17,1.76.27,1.76.44s-.1.19-.47.35v2h.58a14.17,14.17,0,0,0,.78-1.57,6.42,6.42,0,0,0,.31-.94c1.23.52,1.67.74,1.67.91s-.1.25-.65.27a9.21,9.21,0,0,1-1.68,1.33H913c.63-.7.8-.82.9-.82s.28.12.87.56c.26.23.37.34.37.44s0,.14-.18.14H903.68a8.71,8.71,0,0,0-1,.08l-.15-.51a6.41,6.41,0,0,0,1.15.11h3.09Zm-1.5,1.49c-.32,0-.44-.12-.58-.54a2.78,2.78,0,0,0-.76-1.37c-.06-.05,0-.14.07-.13,1.32.22,2,.69,2,1.34A.72.72,0,0,1,905.23,272.54Z"/><path class="cls-1" d="M921.87,273.16c0,.7,0,1.42-.09,2.12h.93c.43-.58.54-.66.65-.66s.26.08.73.52c.21.18.3.29.3.4s0,.14-.34.37a21.22,21.22,0,0,1-.78,5.8,1.76,1.76,0,0,1-.55.67,1.65,1.65,0,0,1-1,.29c-.17,0-.22-.05-.24-.22-.08-.58-.28-.8-1-1-.07,0,0-.17,0-.17.63.05,1,.07,1.15.07.42,0,.52-.07.66-.63a28.71,28.71,0,0,0,.49-5.1h-1.05c-.28,3.64-1.07,5.5-2.83,7.11-.06.05-.18-.07-.14-.12,1.27-2.17,1.81-4.78,1.81-9v-.41h-.37a5.55,5.55,0,0,0-.9.09l-.15-.52a5.34,5.34,0,0,0,1,.11h.84v-1.7c0-.22,0-.56-.06-1,1.57.15,1.71.31,1.71.45s-.13.21-.39.35v1.93h.45c.5-.63.67-.74.77-.74s.26.11.73.53c.18.17.29.29.29.39s0,.14-.18.14Zm4.06-.35a8.12,8.12,0,0,1-1.82,1.92c-.06,0-.2,0-.16-.1a10.27,10.27,0,0,0,1.29-2.77,9.27,9.27,0,0,0,.35-1.81c1.47.31,1.8.44,1.8.63s-.14.25-.51.31a9.49,9.49,0,0,1-.74,1.5h3.58c.69-.84.86-.95,1-.95s.26.11.89.66c.28.25.4.37.4.47s-.05.14-.19.14Zm.45,8.13c0,.47.08.56,1.87.56s2.1-.06,2.34-.21.34-.34.83-1.87c0-.07.18,0,.18,0,0,.42,0,1,0,1.28a.32.32,0,0,0,.21.36c.28.17.38.31.38.56s-.25.63-.9.77a13.23,13.23,0,0,1-2.67.18c-2.89,0-3.41-.21-3.41-1.31,0-.35,0-.7,0-2.16,0-.65,0-1.28,0-1.92a4.12,4.12,0,0,0-.83.32l-.27-.46a3.85,3.85,0,0,0,.9-.15l.2-.06c0-.88,0-1.77-.05-2.66,1.49.15,1.67.21,1.67.42s-.1.22-.43.36v1.54l1.12-.32v-1a18,18,0,0,0-.07-1.85c1.23.11,1.64.22,1.64.43s-.13.23-.45.32v1.77l1.06-.31c.44-.66.58-.81.73-.81a2.24,2.24,0,0,1,1,.64.54.54,0,0,1,.17.28c0,.14-.1.24-.41.44a21.11,21.11,0,0,1-.22,2.9,1.59,1.59,0,0,1-.45.86,1.28,1.28,0,0,1-.86.31c-.18,0-.19,0-.19-.37s-.28-.62-.79-.83c0,.43,0,.76,0,.94,0,.36-.21.5-.72.5s-.49-.1-.49-.46,0-1.44.06-3.42l-1.12.32Zm2.24-4.73c0,.44,0,.86,0,1.29v1.28a4,4,0,0,0,.76.08c.22,0,.36-.11.4-.38a19.91,19.91,0,0,0,.16-2.64Z"/><path class="cls-1" d="M939.62,272.92c.6-.74.77-.85.87-.85s.28.11.89.6c.27.21.38.34.38.44s0,.14-.18.14h-4.43a5.86,5.86,0,0,0-.95.08l-.15-.52a5.34,5.34,0,0,0,1.12.11Zm-1.74,9v.44c0,.36-.25.54-.71.54s-.59-.14-.59-.47,0-.89,0-2.68a19,19,0,0,0-.08-2,14.24,14.24,0,0,1,1.48.7h1.4c.49-.59.6-.67.72-.67s.25.08.75.49c.23.2.31.29.31.41s-.1.25-.4.46v.46c0,1.21.05,2,.05,2.3s-.25.54-.75.54-.57-.12-.57-.43v-.1ZM939,271c.62-.73.79-.84.88-.84s.28.11.87.59c.25.21.37.34.37.43s-.05.14-.19.14h-3.27a4.54,4.54,0,0,0-.83.09l-.15-.52a4.65,4.65,0,0,0,1,.11Zm.13,3.76c.53-.69.7-.8.8-.8s.28.11.81.56c.24.19.35.32.35.42s0,.14-.18.14h-3.23a5.84,5.84,0,0,0-.85.08l-.15-.52a4.35,4.35,0,0,0,1,.12Zm0,1.8c.53-.68.7-.8.8-.8s.28.12.83.57c.24.19.35.32.35.42s0,.14-.18.14h-3.23a4.61,4.61,0,0,0-.84.08l-.15-.52a4.2,4.2,0,0,0,1,.11Zm.46,2.17h-1.65v2.82h1.65Zm6.56-2.53c.57-.56.69-.64.8-.64s.26.08.84.54c.27.21.35.31.35.42s-.15.3-.52.44a10.93,10.93,0,0,1-1.86,2.87,8.13,8.13,0,0,0,3.36,1.26c.07,0,.07.12,0,.14-.48.14-.66.4-.81,1.06,0,.21-.1.3-.2.3a2.52,2.52,0,0,1-.53-.2,6.78,6.78,0,0,1-2.61-1.82,11.25,11.25,0,0,1-4.13,2.11c-.07,0-.14-.15-.07-.18a10.77,10.77,0,0,0,3.57-2.73,10.87,10.87,0,0,1-1.38-3.25h-.23a3.24,3.24,0,0,0-.81.11l-.15-.54a5,5,0,0,0,1,.11Zm2.47-2.75c0,.21.05.27.28.35a.45.45,0,0,1,.19.42c0,.3-.18.52-.56.65a4.33,4.33,0,0,1-1.36.17c-1.23,0-1.66-.31-1.66-1.19,0-.55,0-.69,0-1.24v-1.43h-1.64v.27a5.48,5.48,0,0,1-.45,2.49,4.33,4.33,0,0,1-2.1,1.68s-.18,0-.12-.09a3.93,3.93,0,0,0,1.19-1.95,7,7,0,0,0,.16-1.69,15.36,15.36,0,0,0-.09-1.69c.7.3.82.34,1.45.66h1.54c.45-.52.54-.59.69-.59s.25.06.71.45a.74.74,0,0,1,.28.37c0,.14-.09.25-.36.4v2.17c0,.23.1.27.55.27s.52,0,.66-.17a3.12,3.12,0,0,0,.46-1.25c0-.07.17-.07.17,0Zm-5.4,3.07a7.37,7.37,0,0,0,1.66,2.58,8.51,8.51,0,0,0,1.31-2.58Z"/><path class="cls-1" d="M954.51,276.45a2.07,2.07,0,0,1,1.87-1.13c1.78,0,2.7,1.3,2.7,3.11a3,3,0,0,1-3.05,3.26c-1.87,0-3.21-1.51-3.21-3.93a6.46,6.46,0,0,1,2.84-5.3,9.36,9.36,0,0,1,2.34-1.3c.11,0,.18,0,.38.26s.11.42,0,.42a3.73,3.73,0,0,0-2.07.7,5.44,5.44,0,0,0-1.85,3.91Zm.1.58a1.79,1.79,0,0,0-.18.87c0,2.25.62,3.36,1.6,3.36s1.4-1.23,1.4-2.82c0-1.43-.41-2.57-1.45-2.57C955.37,275.87,954.91,276.31,954.61,277Z"/><path class="cls-1" d="M964,275.42c0,.21-.06.43-.09.72a3,3,0,0,1,5,2.18,3.08,3.08,0,0,1-3.2,3.37,4.16,4.16,0,0,1-2-.47c-.46-.27-.95-.73-.95-1.19,0-.3.35-.58,1-.58s.75.66.91,1a1.07,1.07,0,0,0,1,.77c1.09,0,1.54-1.26,1.54-2.93s-.79-2.52-1.66-2.52a1.9,1.9,0,0,0-1.76,1c-.08.14-.14.17-.38.07s-.2-.15-.17-.28a3.75,3.75,0,0,0,.09-.39l.33-4.47a.27.27,0,0,1,.09-.18.23.23,0,0,1,.19-.09c.56,0,1.46,0,2.2,0,.58,0,1.46,0,2.38-.06.1,0,.14.06.13.11l-.46,1.27a.14.14,0,0,1-.14.09l-1.42,0H964.2Z"/><path class="cls-1" d="M975.93,275c1,.38,1.52.9,1.52,1.54a.6.6,0,0,1-.52.67c-.27,0-.42-.17-.46-.5a2.62,2.62,0,0,0-.54-1.46c0,2.75.07,6.54.07,7.31,0,.31-.28.45-.74.45s-.54-.11-.54-.41c0-.71.09-3.65.11-6.31a8.48,8.48,0,0,1-2.05,3.29c0,.05-.15,0-.12-.09a20.74,20.74,0,0,0,1.93-5.85h-.51a7.41,7.41,0,0,0-1,.08l-.15-.51a5.34,5.34,0,0,0,1,.11h.72v-1.45a16,16,0,0,0-.07-1.79c1.52.16,1.78.21,1.78.45s-.15.27-.52.41v2.38h.16c.39-.72.56-.83.66-.83s.22.11.61.58a.93.93,0,0,1,.26.43c0,.1,0,.14-.19.14h-1.5Zm6.06,3a6.49,6.49,0,0,0,1.76,1.71,7.67,7.67,0,0,0,2.58,1c.07,0,0,.1,0,.14a1.38,1.38,0,0,0-.74.94c-.07.24-.1.26-.21.26a1.25,1.25,0,0,1-.55-.23,8.15,8.15,0,0,1-1.57-1.29,9.6,9.6,0,0,1-1.53-2.33c.06,1.84.14,3.7.14,4.27,0,.38-.25.54-.77.54-.36,0-.54-.13-.54-.44s.08-1.86.11-3.4A9.18,9.18,0,0,1,976.4,282c-.07,0-.13-.1-.07-.14A10.42,10.42,0,0,0,980,278h-1.09v0c0,.36-.24.5-.73.5s-.53-.1-.53-.43,0-1.29,0-3c0-.8,0-1.19,0-2a11.61,11.61,0,0,1,1.32.68h1.61v-1.37h-2.34a6.09,6.09,0,0,0-.88.08l-.16-.51a5.34,5.34,0,0,0,1,.11h2.34v-.41c0-.67,0-1-.07-1.6,1.44.12,1.71.21,1.71.44s-.11.22-.42.39V272h1.92c.65-.76.82-.87.92-.87s.28.11.87.6c.27.22.38.35.38.45s0,.14-.18.14h-3.91v1.37h1.76c.41-.53.52-.61.63-.61s.27.08.76.46c.22.18.31.28.31.39s-.11.27-.38.43V275c0,1.58.07,2.67.07,3s-.25.47-.73.47-.55-.11-.55-.36V278ZM980.6,274h-1.67v1.59h1.67Zm0,1.91h-1.67v1.71h1.67Zm3.09-.32V274h-1.87v1.59Zm0,2V276h-1.87v1.71Z"/><path class="cls-1" d="M990,279.58a.13.13,0,0,1,.13-.13,7.06,7.06,0,0,1,2.45,1,1.78,1.78,0,0,1,.9,1.41.82.82,0,0,1-.84.87.83.83,0,0,1-.74-.63,4.78,4.78,0,0,0-1.8-2.35S990,279.65,990,279.58Z"/><path class="cls-1" d="M809.88,295.36a1.68,1.68,0,0,0,.63-.21A1.26,1.26,0,0,1,811,295a2.49,2.49,0,0,1,1.16.35.62.62,0,0,1,.37.55.41.41,0,0,1-.41.43,4.1,4.1,0,0,1-.7-.07,8.72,8.72,0,0,0-.94-.08c-.53,0-1.51,0-2.72.07,0,1.09,0,2,0,2.62,0,1.4.07,2,.07,2.56a2.11,2.11,0,0,1-.19.89.92.92,0,0,1-.87.57c-.21,0-.37-.08-.44-.41a.79.79,0,0,0-.3-.53,7,7,0,0,0-1.08-.61c-.26-.12-.31-.16-.31-.26s.05-.07.14-.07a2.54,2.54,0,0,1,.34,0,10.52,10.52,0,0,0,1.27.11c.21,0,.21-.14.21-.32,0-.36,0-.82,0-1.85s0-1.8,0-2.68c-.85.1-1.58.21-2.63.38a1.65,1.65,0,0,0-.58.18.82.82,0,0,1-.5.17c-.2,0-.49-.13-.88-.62a1.12,1.12,0,0,1-.37-.77c0-.15.06-.4.16-.4s.21.14.42.32a1.07,1.07,0,0,0,.84.33l.57,0,3-.28V294a1,1,0,0,0-.06-.45.45.45,0,0,0-.36-.31l-.41-.08c-.14,0-.18-.06-.18-.13s.17-.28.42-.39a1.55,1.55,0,0,1,.64-.14,2.81,2.81,0,0,1,1.21.53.56.56,0,0,1,.28.49.67.67,0,0,1-.2.41c-.15.15-.18.21-.19.53s0,.62,0,1.12C808.47,295.5,809.17,295.44,809.88,295.36Zm-5.6,2.38c.1,0,.11.11.13.26a4.46,4.46,0,0,1-.12,1.57,2.53,2.53,0,0,1-.64,1.11,1.23,1.23,0,0,1-.83.36.62.62,0,0,1-.68-.66c0-.29.08-.51.56-.75a2.71,2.71,0,0,0,.85-.62,2.64,2.64,0,0,0,.56-1.05C804.15,297.82,804.2,297.74,804.28,297.74Zm5.09.17c0-.09,0-.12.16-.12l.2,0a4.74,4.74,0,0,1,1.79.84,1.74,1.74,0,0,1,.8,1.26c0,.49-.2.87-.67.87s-.56-.24-.73-.63a8.94,8.94,0,0,0-.73-1.32,3.46,3.46,0,0,0-.67-.72C809.42,298,809.37,298,809.37,297.91Z"/><path class="cls-1" d="M822.54,295.69c1.43-.11,1.93-.14,2.65-.22a2.24,2.24,0,0,0,.53-.16,1.59,1.59,0,0,1,.52-.12,2.73,2.73,0,0,1,1.33.38.61.61,0,0,1,.31.54.39.39,0,0,1-.33.42,4.12,4.12,0,0,1-.85,0,14.5,14.5,0,0,0-1.74-.1c-.47,0-1.26,0-1.89,0,.45.31.65.59.65.78a.48.48,0,0,1-.07.23,2.2,2.2,0,0,0-.29.63,9.34,9.34,0,0,1-1.52,2.76,8.67,8.67,0,0,1-2.86,2.37.62.62,0,0,1-.24.08c-.1,0-.14,0-.14-.14s.11-.17.35-.38a11.51,11.51,0,0,0,2.06-2.58,10.59,10.59,0,0,0,1-2.48,4.49,4.49,0,0,0,.12-.74.61.61,0,0,0-.15-.47c-1,.09-2,.22-2.68.35a1.67,1.67,0,0,0-.65.23.65.65,0,0,1-.42.13c-.26,0-.51-.14-.94-.63a1.24,1.24,0,0,1-.37-.77c0-.21.07-.34.16-.34s.12.09.21.16a1.49,1.49,0,0,0,.95.45c.34,0,.83-.05,1.23-.09C820.47,295.87,821.28,295.79,822.54,295.69Zm.9-3a1.37,1.37,0,0,0,.41-.15,1.71,1.71,0,0,1,.54-.16,2.58,2.58,0,0,1,1.2.28.49.49,0,0,1-.29.91c-.31,0-.67,0-1.12.06l-3.1.25a7.13,7.13,0,0,1-.73.06,1.2,1.2,0,0,1-1.12-.51,1,1,0,0,1-.32-.74c0-.12,0-.21.1-.21s.08.06.18.13a1.5,1.5,0,0,0,1.12.43c.28,0,.79,0,1.51-.11A16.3,16.3,0,0,0,823.44,292.72Z"/><path class="cls-1" d="M834.45,295.33c-.11,0-.18-.06-.18-.13s.26-.29.54-.29a3.31,3.31,0,0,1,1.49.54c.35.23.42.42.42.61a.42.42,0,0,1-.2.36,1,1,0,0,0-.23.48,11.33,11.33,0,0,1-1.15,2.6,7.36,7.36,0,0,1-2.83,2.61.87.87,0,0,1-.28.11c-.09,0-.13,0-.13-.14s0-.1.14-.2a8.38,8.38,0,0,0,2-2.45,11.23,11.23,0,0,0,1-2.44,3.93,3.93,0,0,0,.17-1C835.15,295.71,834.83,295.48,834.45,295.33Zm3.19-.9a1.08,1.08,0,0,0-.64-.5c-.11-.05-.17-.06-.17-.16s.25-.31.59-.31a2.49,2.49,0,0,1,1.27.5c.26.15.56.39.56.71a.48.48,0,0,1-.19.39.5.5,0,0,0-.11.34c0,.94-.05,1.79-.07,3.16v1c0,.13,0,.18.07.18a1,1,0,0,0,.33-.11,17.7,17.7,0,0,0,4.63-2.72c.16-.14.25-.22.35-.22s.14,0,.14.12-.06.13-.12.2a16.08,16.08,0,0,1-4.94,4.05.65.65,0,0,0-.28.29.37.37,0,0,1-.32.2,1.14,1.14,0,0,1-.7-.45,1.49,1.49,0,0,1-.4-.84.93.93,0,0,1,.05-.24,4.27,4.27,0,0,0,.07-.85c0-1.12,0-2.08,0-3.85A2.93,2.93,0,0,0,837.64,294.43Z"/><path class="cls-1" d="M852.4,297.57a1.26,1.26,0,1,1-1.26-1.26A1.26,1.26,0,0,1,852.4,297.57Z"/><path class="cls-1" d="M863.81,292.57a2,2,0,0,0-.69-.27c-.12,0-.15,0-.15-.1s.11-.18.22-.26a.72.72,0,0,1,.42-.13,3.38,3.38,0,0,1,1.21.3c.46.21.78.4.78.74a.57.57,0,0,1-.16.4c-.1.1-.16.28-.16.77a24.39,24.39,0,0,1-.35,4.82,5.17,5.17,0,0,1-1.4,2.57,8.17,8.17,0,0,1-4.19,2.06,2.1,2.1,0,0,1-.26,0c-.13,0-.19,0-.19-.13s.06-.11.2-.17a7.17,7.17,0,0,0,4.15-3.23,7.65,7.65,0,0,0,.75-3.1c0-.6.06-1.55.06-3.43C864.05,292.92,864,292.71,863.81,292.57Zm-3.77,1c-.07-.19-.26-.34-.68-.54-.12-.05-.16-.07-.16-.14s.06-.11.16-.15a1,1,0,0,1,.44-.11,2.58,2.58,0,0,1,1.06.38c.46.25.72.56.72.81a.65.65,0,0,1-.16.39.82.82,0,0,0-.1.48c0,1.1-.07,2.28-.09,4,0,.42-.16.61-.49.61s-.45-.19-.63-.51a1.78,1.78,0,0,1-.18-.78,1.47,1.47,0,0,1,.07-.41,2.87,2.87,0,0,0,.07-.64c0-.54,0-1.11,0-2.23A3.69,3.69,0,0,0,860,293.58Z"/><path class="cls-1" d="M871.4,294.11c0-.1.07-.13.16-.13a2.32,2.32,0,0,1,.68.2,3.46,3.46,0,0,1,1.38.88,1.66,1.66,0,0,1,.47,1.11.82.82,0,0,1-.77.92.69.69,0,0,1-.69-.57,4.55,4.55,0,0,0-1.12-2.27C871.44,294.19,871.4,294.17,871.4,294.11Zm4.76,6.29a12,12,0,0,1-3.64,2.7,1.69,1.69,0,0,1-.59.2.12.12,0,0,1-.13-.11c0-.1.06-.13.25-.27a15.53,15.53,0,0,0,3.07-2.86,20.51,20.51,0,0,0,2.22-3.42,7.34,7.34,0,0,0,.95-2.31.55.55,0,0,0-.27-.47,3.79,3.79,0,0,0-.47-.26c-.13-.05-.17-.07-.17-.16s.35-.28.66-.28a3,3,0,0,1,1.62.7c.38.29.46.49.46.67a.52.52,0,0,1-.24.46,2.58,2.58,0,0,0-.53.72A22.76,22.76,0,0,1,876.16,300.4Zm4.51-8.07a1,1,0,0,1,.52.84.48.48,0,0,1-.46.49.5.5,0,0,1-.48-.32,5.1,5.1,0,0,0-.88-1.23c-.06-.06-.16-.13-.16-.19s.07-.09.17-.09a1.42,1.42,0,0,1,.32.05A2.56,2.56,0,0,1,880.67,292.33Zm1.29-.95a.85.85,0,0,1,.5.71.47.47,0,0,1-.43.52.54.54,0,0,1-.52-.31,3.47,3.47,0,0,0-1-1.09c-.06,0-.17-.11-.17-.17a.11.11,0,0,1,.11-.11,1.8,1.8,0,0,1,.37,0A3.37,3.37,0,0,1,882,291.38Z"/><path class="cls-1" d="M897,298.21c-.43,0-1.39-.07-2.07-.07-1.11,0-3.52.06-5.24.21a4,4,0,0,0-1.39.27.61.61,0,0,1-.38.11c-.36,0-.68-.33-1.12-1a1.11,1.11,0,0,1-.26-.75c0-.23.08-.34.17-.34s.11.06.18.13a1.39,1.39,0,0,0,1.17.53c.38,0,.65,0,1.48-.07,1.73-.11,3.58-.2,5-.22a2.79,2.79,0,0,0,1.1-.2.93.93,0,0,1,.39-.11,1.61,1.61,0,0,1,.63.14c.53.22.9.43.9.78A.54.54,0,0,1,897,298.21Z"/><path class="cls-1" d="M907.46,296.83c.84.35,1.31.78,1.31,1.41a.7.7,0,0,1-.61.74,1,1,0,0,1-.77-.4,8.19,8.19,0,0,0-1-1,4.16,4.16,0,0,0-1.46-.79v2.43c0,.59,0,1.88.05,3.39,0,.54-.23.66-.51.66a.65.65,0,0,1-.59-.32,2.32,2.32,0,0,1-.31-1.11,1.46,1.46,0,0,1,.07-.4.59.59,0,0,0,.07-.24c0-.18,0-.58.06-3.14,0-1.33,0-2.52,0-3.84a6.91,6.91,0,0,0-.06-1.19.63.63,0,0,0-.29-.32,1.57,1.57,0,0,0-.49-.22c-.1,0-.14-.07-.14-.13s.09-.15.18-.21a.79.79,0,0,1,.39-.13,3.3,3.3,0,0,1,1.41.38c.38.17.56.39.56.66a.6.6,0,0,1-.23.45.39.39,0,0,0-.1.28c0,.39-.07,1.22-.07,2.52A7.6,7.6,0,0,1,907.46,296.83Z"/><path class="cls-1" d="M915.9,294.3c0,.7,0,1.42-.08,2.12h.92c.44-.57.55-.66.66-.66s.25.09.73.52c.21.18.29.29.29.41s0,.14-.33.36a21,21,0,0,1-.79,5.8,1.67,1.67,0,0,1-.54.67,1.59,1.59,0,0,1-1,.3c-.17,0-.23-.06-.24-.23-.09-.57-.28-.8-1-1-.07,0,0-.17,0-.17.63.06,1,.07,1.15.07.42,0,.52-.07.65-.63a28.38,28.38,0,0,0,.5-5.1H915.8c-.28,3.64-1.06,5.51-2.82,7.12-.06,0-.19-.07-.15-.13,1.28-2.17,1.81-4.77,1.81-9v-.41h-.36a5.45,5.45,0,0,0-.9.09l-.15-.52a4.63,4.63,0,0,0,1,.11h.84v-1.69c0-.23,0-.56-.05-1,1.57.16,1.71.31,1.71.45s-.13.21-.4.35V294h.45c.51-.63.68-.74.77-.74s.27.11.73.53c.18.17.3.3.3.4s-.05.13-.19.13ZM920,294a7.7,7.7,0,0,1-1.82,1.91c0,.05-.19,0-.15-.09a10.48,10.48,0,0,0,1.29-2.78,9.32,9.32,0,0,0,.35-1.8c1.47.3,1.79.43,1.79.63s-.14.25-.5.3a9.09,9.09,0,0,1-.74,1.5h3.58c.69-.84.86-.95,1-.95s.27.11.9.66c.28.25.39.38.39.47s0,.15-.18.15Zm.45,8.12c0,.48.09.56,1.88.56s2.1-.06,2.34-.21.34-.34.83-1.86c0-.07.18-.05.18,0,0,.42,0,1,0,1.28a.32.32,0,0,0,.21.36c.28.17.37.31.37.56s-.25.63-.89.77a13.17,13.17,0,0,1-2.68.19c-2.88,0-3.4-.21-3.4-1.32,0-.35,0-.7,0-2.16,0-.64,0-1.27,0-1.92a3.6,3.6,0,0,0-.82.33l-.27-.47a3.94,3.94,0,0,0,.9-.15l.19-.06c0-.88,0-1.76,0-2.66,1.49.16,1.67.21,1.67.42s-.1.23-.44.37v1.54l1.12-.33v-1a15.61,15.61,0,0,0-.07-1.85c1.24.11,1.64.23,1.64.44s-.12.22-.45.32V297l1.07-.31c.43-.65.57-.81.73-.81a2.26,2.26,0,0,1,1,.65.54.54,0,0,1,.17.28c0,.14-.1.23-.4.43a20.34,20.34,0,0,1-.23,2.9,1.55,1.55,0,0,1-.45.87,1.3,1.3,0,0,1-.85.31c-.18,0-.2,0-.2-.38s-.28-.62-.78-.83c0,.44,0,.76,0,.94,0,.36-.21.51-.71.51s-.49-.1-.49-.47,0-1.44,0-3.42l-1.12.33Zm2.24-4.72c0,.43,0,.85,0,1.29v1.27a3.56,3.56,0,0,0,.75.09.39.39,0,0,0,.41-.38A18.92,18.92,0,0,0,924,297Z"/><path class="cls-1" d="M933.66,294.07c.6-.75.77-.86.86-.86s.28.11.9.6c.27.21.38.34.38.44s0,.14-.18.14h-4.43a7.27,7.27,0,0,0-1,.08l-.16-.51a6.19,6.19,0,0,0,1.12.11Zm-1.74,9v.43c0,.36-.25.55-.72.55s-.58-.14-.58-.48,0-.88,0-2.67a19.05,19.05,0,0,0-.09-2,11.8,11.8,0,0,1,1.49.7h1.4c.49-.59.6-.68.71-.68s.26.09.76.49c.22.2.31.3.31.41s-.1.25-.41.46v.46c0,1.21.06,2,.06,2.3s-.25.55-.76.55-.56-.13-.56-.44v-.09ZM933,292.18c.61-.73.78-.84.88-.84s.28.11.87.58c.25.21.36.34.36.44s0,.14-.18.14h-3.28a5.36,5.36,0,0,0-.82.08l-.16-.52a4.2,4.2,0,0,0,1,.12Zm.12,3.75c.54-.69.7-.8.8-.8s.28.11.81.56c.24.2.35.32.35.42s0,.14-.18.14h-3.22a4.74,4.74,0,0,0-.85.09l-.16-.52a5,5,0,0,0,1,.11Zm0,1.81c.53-.69.7-.8.8-.8s.28.11.82.56c.24.19.35.32.35.42s0,.14-.18.14h-3.22a5.72,5.72,0,0,0-.84.08l-.15-.51a4.81,4.81,0,0,0,1,.11Zm.46,2.17h-1.65v2.81h1.65Zm6.56-2.54c.57-.56.68-.64.8-.64s.26.08.84.54c.26.21.35.31.35.42s-.16.3-.52.44a10.7,10.7,0,0,1-1.87,2.87,8.22,8.22,0,0,0,3.37,1.26c.07,0,.07.13,0,.14-.48.14-.66.41-.82,1.07,0,.21-.09.29-.19.29a2,2,0,0,1-.53-.2,6.6,6.6,0,0,1-2.61-1.82,11.26,11.26,0,0,1-4.13,2.12c-.07,0-.14-.16-.07-.18a10.77,10.77,0,0,0,3.57-2.74,10.9,10.9,0,0,1-1.39-3.25h-.22a2.89,2.89,0,0,0-.81.12l-.16-.55a5.17,5.17,0,0,0,1,.11Zm2.46-2.74c0,.21.06.26.28.35a.44.44,0,0,1,.2.42c0,.29-.18.52-.56.64a4.33,4.33,0,0,1-1.36.17c-1.23,0-1.67-.31-1.67-1.19,0-.55,0-.69,0-1.23v-1.43h-1.64v.26a5.67,5.67,0,0,1-.45,2.5,4.39,4.39,0,0,1-2.1,1.68c-.06,0-.18-.06-.13-.1a3.79,3.79,0,0,0,1.19-1.95,6.42,6.42,0,0,0,.17-1.69,15.43,15.43,0,0,0-.1-1.68,13.11,13.11,0,0,1,1.46.66h1.54c.45-.52.53-.59.69-.59s.25.05.71.45a.73.73,0,0,1,.28.36c0,.14-.1.25-.36.41v2.17c0,.22.1.26.54.26s.52,0,.66-.16a3,3,0,0,0,.46-1.25c0-.07.17-.07.17,0Zm-5.39,3.06a7.4,7.4,0,0,0,1.65,2.58,8.43,8.43,0,0,0,1.32-2.58Z"/><path class="cls-1" d="M950.37,297.19c1.65.34,2.58,1.23,2.58,2.61a2.92,2.92,0,0,1-3.21,3,3.66,3.66,0,0,1-2.06-.55c-.45-.28-.91-.73-.91-1.18s.37-.6,1-.6.73.67.9,1.07a1.06,1.06,0,0,0,1.06.82c1,0,1.53-1,1.53-2.65,0-1-.44-2.38-1.84-2.28l-.63,0c-.12,0-.19,0-.14-.28s.11-.32.27-.32.36,0,.53,0c.77,0,1.56-.61,1.56-2.18,0-1.07-.41-2-1.18-2a1.09,1.09,0,0,0-1.05.63,1.69,1.69,0,0,0-.11.7c0,.46-.45.73-1,.73-.44,0-.65-.14-.65-.45,0-.8,1.09-2.05,2.86-2.05,1.6,0,2.77.88,2.77,2.41s-1.05,2.06-2.24,2.34Z"/><path class="cls-1" d="M963.15,297.58c0,3.22-1.16,5.26-3.11,5.26s-3.13-1.94-3.13-5.17,1.15-5.3,3.13-5.3S963.15,294.39,963.15,297.58Zm-4.6.05c0,2.91.29,4.77,1.49,4.77s1.48-1.86,1.48-4.77-.28-4.82-1.48-4.82S958.55,294.7,958.55,297.63Z"/><path class="cls-1" d="M973.09,295.06c.91,0,1.6,1,1.6,2.44a9.26,9.26,0,0,1-.52,3.18,4.52,4.52,0,0,1-.82,1.5A2,2,0,0,1,972,303c-.42,0-.7-.18-.68-.63a1.17,1.17,0,0,0-.28-.75,8.79,8.79,0,0,0-.61-.75c-.07-.09-.09-.13-.09-.17a.1.1,0,0,1,.11-.11.33.33,0,0,1,.18.08,6.09,6.09,0,0,0,.95.55,1.64,1.64,0,0,0,.54.15.61.61,0,0,0,.53-.25,5.16,5.16,0,0,0,.73-1.6,8.53,8.53,0,0,0,.33-2.22c0-1.32-.19-1.71-.82-1.71a3.5,3.5,0,0,0-.73.11c-.63,1.33-1.39,3-2,4.17s-1,2-1.38,2.61a.69.69,0,0,1-.62.31.56.56,0,0,1-.53-.56,1.34,1.34,0,0,1,.26-.76,44.51,44.51,0,0,0,3.1-5.41c-.55.21-1.08.42-1.53.62a2.07,2.07,0,0,0-.4.2.6.6,0,0,1-.37.12,1.16,1.16,0,0,1-.78-.38,1.56,1.56,0,0,1-.53-.95c0-.29.08-.5.21-.5s.12.07.18.15a1.06,1.06,0,0,0,.71.49,5.52,5.52,0,0,0,1.21-.17c.51-.09,1.05-.25,1.62-.39A8.16,8.16,0,0,0,972,293a.42.42,0,0,0-.21-.41,3.38,3.38,0,0,0-.55-.23c-.11-.05-.21-.06-.21-.14s.1-.21.24-.26a2.33,2.33,0,0,1,.69-.11,2.29,2.29,0,0,1,1.47.8.54.54,0,0,1-.2.84,1.06,1.06,0,0,0-.29.44c-.13.29-.32.68-.53,1.14A4.79,4.79,0,0,1,973.09,295.06Zm3.41,4-.42,0c-.13,0-.16-.05-.16-.1s0-.07.13-.13c1.23-.49,1.7-.75,1.7-1a2.32,2.32,0,0,0-.43-1.15,3.39,3.39,0,0,0-1.61-1.43c-.14-.05-.25-.11-.25-.19s.07-.14.21-.14h.1a4.35,4.35,0,0,1,2.27,1.16,3.33,3.33,0,0,1,1.18,2.6.68.68,0,0,1-.59.77.69.69,0,0,1-.58-.23.62.62,0,0,0-.47-.25C977.09,299,976.78,299.05,976.5,299.07Z"/><path class="cls-1" d="M985.57,298.17a13,13,0,0,1-.4,2.45,7.84,7.84,0,0,1-1.9,3.27c0,.05-.21-.09-.18-.14a9.29,9.29,0,0,0,1.06-3.44,33.85,33.85,0,0,0,.18-4.72c0-.81,0-1.17-.05-1.87a13,13,0,0,1,1.48.78h2c.51-.54.63-.63.74-.63s.25.09.77.53c.22.2.31.3.31.41s-.09.22-.41.43v.68c0,1.35,0,2.17,0,2.56s-.25.53-.74.53-.59-.12-.59-.46v-.38Zm2.31-5.92c.66-.76.82-.87.92-.87s.28.11.91.6c.28.24.39.35.39.45s0,.14-.18.14h-5a7.83,7.83,0,0,0-1,.08l-.15-.52a5.33,5.33,0,0,0,1.11.12Zm0,2.57h-2.23v.45c0,1,0,1.84-.07,2.58h2.3Zm3.7,1.45A14.49,14.49,0,0,1,991,300a7.45,7.45,0,0,1-3.19,3.94c-.06,0-.2-.1-.16-.16a8.17,8.17,0,0,0,2.24-4,21.62,21.62,0,0,0,.39-4.74c0-.88,0-1.44-.09-2.31a10.48,10.48,0,0,1,1.47.63A8.25,8.25,0,0,0,994,291.9c.23-.21.47-.44.67-.66,1.27,1,1.36,1.1,1.36,1.26s-.1.19-.66.12a17.8,17.8,0,0,1-3.77,1.14v.64c0,.55,0,1.07,0,1.54h2.8c.59-.77.76-.88.86-.88s.28.11.92.62c.28.24.4.35.4.45s-.05.14-.19.14h-1.93v2.35c0,1.69,0,3.82,0,4.52,0,.49-.19.66-.8.66-.4,0-.57-.15-.57-.5s0-1.29,0-3.25v-3.78Z"/><line class="cls-3" x1="739.98" y1="339.86" x2="739.98"/><line class="cls-3" x1="400.78" y1="339.86" x2="400.78"/><line class="cls-4" x1="45.73" y1="283.97" x2="364.99" y2="283.97"/><path class="cls-1" d="M37.45,282.42c0,3.22-1.16,5.25-3.11,5.25s-3.13-1.93-3.13-5.17,1.14-5.29,3.13-5.29S37.45,279.22,37.45,282.42Zm-4.61,0c0,2.91.3,4.78,1.5,4.78s1.47-1.87,1.47-4.78-.28-4.82-1.47-4.82S32.84,279.53,32.84,282.46Z"/><line class="cls-4" x1="45.73" y1="245.3" x2="364.99" y2="245.3"/><path class="cls-1" d="M15.54,243.76a2.06,2.06,0,0,1,1.86-1.13c1.78,0,2.71,1.3,2.71,3.11A3,3,0,0,1,17.05,249c-1.86,0-3.2-1.51-3.2-3.94a6.43,6.43,0,0,1,2.84-5.29,9.19,9.19,0,0,1,2.34-1.3c.11,0,.18,0,.38.26s.11.42,0,.42a3.7,3.7,0,0,0-2.07.7,5.44,5.44,0,0,0-1.85,3.91Zm.1.58a1.78,1.78,0,0,0-.18.86c0,2.26.61,3.37,1.59,3.37s1.4-1.24,1.4-2.82c0-1.43-.4-2.58-1.44-2.58C16.4,243.17,15.93,243.62,15.64,244.34Z"/><path class="cls-1" d="M23.63,242.73c0,.21-.05.43-.08.72a2.73,2.73,0,0,1,2.21-.86,2.75,2.75,0,0,1,2.83,3A3.09,3.09,0,0,1,25.38,249a4,4,0,0,1-2-.48c-.46-.26-.95-.72-.95-1.19,0-.29.35-.57,1-.57s.76.66.91,1a1.07,1.07,0,0,0,1,.77c1.1,0,1.54-1.26,1.54-2.93s-.78-2.52-1.65-2.52a1.88,1.88,0,0,0-1.76,1c-.09.14-.14.17-.38.07s-.2-.15-.17-.28a2.45,2.45,0,0,0,.08-.39l.34-4.47a.24.24,0,0,1,.08-.18.25.25,0,0,1,.2-.09c.56,0,1.46,0,2.2,0,.57,0,1.46,0,2.38-.06.1,0,.14.06.13.11l-.47,1.26a.14.14,0,0,1-.14.1c-.56,0-.91,0-1.41,0H23.83Z"/><path class="cls-1" d="M37.45,243.75c0,3.22-1.16,5.25-3.11,5.25s-3.13-1.93-3.13-5.17,1.14-5.29,3.13-5.29S37.45,240.55,37.45,243.75Zm-4.61,0c0,2.91.3,4.78,1.5,4.78s1.47-1.87,1.47-4.78S35.53,239,34.34,239,32.84,240.86,32.84,243.79Z"/><line class="cls-4" x1="45.73" y1="167.97" x2="364.99" y2="167.97"/><path class="cls-1" d="M1.13,162.8c-.14,0-.19,0-.23-.16s-.05-.19.12-.25c.81-.29,2.05-.81,3-1.26.09,0,.22.07.22.17,0,1.12-.06,2-.06,3.09v4.39c0,1.38,0,1.57.16,1.86s.6.31,1.19.36c.1,0,.13.06.13.21s0,.2-.13.2c-.65,0-1.42,0-2.07,0s-1.47,0-2.13,0c-.12,0-.14,0-.14-.2s0-.19.14-.21c.58,0,1.05-.05,1.19-.36a5.6,5.6,0,0,0,.14-1.86v-5a2.44,2.44,0,0,0-.14-1.08c-.1-.15-.4-.16-.83,0Z"/><path class="cls-1" d="M9.27,173.27c-.06.06-.16.06-.25-.05S8.93,173,9,173c.58-.42.88-.84.88-1.24,0-.19-.21-.36-.36-.44s-.5-.17-.5-.55a1.08,1.08,0,0,1,1-1,1.1,1.1,0,0,1,.9,1.14C10.92,171.45,10.68,172.29,9.27,173.27Z"/><path class="cls-1" d="M18.34,166.44a2.08,2.08,0,0,1-1.85,1,2.73,2.73,0,0,1-2.74-3,3,3,0,0,1,3.08-3.26c2,0,3.18,1.61,3.18,4a5.93,5.93,0,0,1-2.8,5.47,6.69,6.69,0,0,1-2.27,1c-.13,0-.23,0-.34-.26s-.1-.37.07-.38a4,4,0,0,0,1.93-.51c1.1-.65,1.66-1.89,1.81-4.07Zm-2.95-2.06c0,1.4.46,2.56,1.44,2.56.59,0,1.05-.36,1.44-1.23a1.82,1.82,0,0,0,.13-.9c0-1.86-.52-3.18-1.57-3.18S15.39,162.85,15.39,164.38Z"/><path class="cls-1" d="M23.63,165.39c0,.21-.05.43-.08.73a2.7,2.7,0,0,1,2.21-.87,2.76,2.76,0,0,1,2.83,3,3.09,3.09,0,0,1-3.21,3.37,4.11,4.11,0,0,1-2-.47c-.46-.27-.95-.73-.95-1.19,0-.3.35-.58,1-.58s.76.66.91,1a1.07,1.07,0,0,0,1,.77c1.1,0,1.54-1.26,1.54-2.93s-.78-2.52-1.65-2.52a1.88,1.88,0,0,0-1.76,1c-.09.14-.14.17-.38.07s-.2-.15-.17-.28a2.24,2.24,0,0,0,.08-.39l.34-4.47a.25.25,0,0,1,.08-.18.24.24,0,0,1,.2-.08h2.2c.57,0,1.46,0,2.38-.06.1,0,.14.06.13.12l-.47,1.26a.13.13,0,0,1-.14.09l-1.41,0H23.83Z"/><path class="cls-1" d="M37.45,166.41c0,3.22-1.16,5.25-3.11,5.25s-3.13-1.93-3.13-5.17,1.14-5.29,3.13-5.29S37.45,163.22,37.45,166.41Zm-4.61,0c0,2.92.3,4.78,1.5,4.78s1.47-1.86,1.47-4.78-.28-4.82-1.47-4.82S32.84,163.52,32.84,166.45Z"/><path class="cls-1" d="M6,88.43s0,.06-.06.11a7.42,7.42,0,0,0,0,11.15c.08.08.11.11.11.15s0,.08-.06.08-.08,0-.16-.08a8.23,8.23,0,0,1-2.41-2.57,6.13,6.13,0,0,1,0-6.26,8.22,8.22,0,0,1,2.42-2.59c.06,0,.09-.06.12-.06S6,88.38,6,88.43Z"/><path class="cls-1" d="M9.11,93.43a9.43,9.43,0,0,1-1,1.26c-.05,0-.14-.07-.12-.12a18.35,18.35,0,0,0,1.67-4.13,12.25,12.25,0,0,0,.31-1.81c1.42.37,1.57.42,1.57.59s0,.17-.47.3a13.93,13.93,0,0,1-1.26,2.9c.67.1.77.13.77.26s-.08.18-.32.3v6.21c0,.34-.21.5-.65.5S9,99.57,9,99.23s.07-1.26.07-3.15ZM12,97.75c0,.78-.32,1.39-.93,1.39a.53.53,0,0,1-.56-.54c0-.29.12-.45.47-.6a1.13,1.13,0,0,0,.79-1c0-.06.12-.07.13,0A3.29,3.29,0,0,1,12,97.75Zm.63-7.4c.87.26,1.28.62,1.28,1.14a.51.51,0,0,1-.45.5h2a7.22,7.22,0,0,0,.25-.84,4.43,4.43,0,0,0,.13-.77c1,.31,1.33.42,1.33.54s-.07.16-.38.22a5.2,5.2,0,0,1-1,.85h1.64c.52-.62.66-.72.75-.72s.24.1.73.5c.21.18.31.29.31.38s0,.11-.16.11H11.64a6,6,0,0,0-.86.08l-.13-.45a5.23,5.23,0,0,0,1,.1h1.62a.41.41,0,0,1-.34-.35,2.41,2.41,0,0,0-.54-1.29h-.09a5.83,5.83,0,0,0-.87.07L11.27,90a4.49,4.49,0,0,0,1,.1h1.92v-.73a6.25,6.25,0,0,0-.05-.73c1.41.12,1.53.24,1.53.36s-.12.19-.36.31v.79H17c.5-.61.64-.71.73-.71s.24.1.75.49c.23.2.33.29.33.38s0,.12-.16.12Zm0,5.65q-.06.33-.6.33c-.34,0-.49-.13-.49-.43s0-.4,0-1.2,0-1.39-.07-2.1a10.41,10.41,0,0,1,1.26.56h3.74c.4-.44.49-.51.59-.51s.23.07.64.38c.19.15.26.23.26.33s-.07.18-.31.34v.36c0,1,0,1.62,0,1.84s-.21.48-.67.48c-.3,0-.43-.11-.43-.37h-4Zm4-2.56h-4v1h4Zm0,1.28h-4v1h4Zm.08,3.41c0,.16,0,.22.15.25.28.07.37.17.37.4s-.18.42-.57.54a7.24,7.24,0,0,1-1.91.18c-1.54,0-2-.21-2-.84,0-.25,0-.52,0-1.56a2.44,2.44,0,0,0,0-.53c1.23.13,1.34.16,1.34.32s-.11.21-.33.27v1c0,.34.17.41,1.14.41a3.43,3.43,0,0,0,1-.08c.34-.14.45-.42.71-1.23,0-.06.12,0,.12,0ZM15.22,98c-.28,0-.32,0-.49-.65a2.31,2.31,0,0,0-.5-.86s0-.1,0-.09c1,.18,1.49.51,1.49,1A.56.56,0,0,1,15.22,98Zm3.28,1c-.31,0-.42-.13-.54-.72A2.38,2.38,0,0,0,17.3,97s0-.13.06-.11c1.19.38,1.71.8,1.71,1.44A.6.6,0,0,1,18.5,99Z"/><path class="cls-1" d="M23.38,99.1c0,.3-.26.44-.73.44s-.52-.1-.52-.4c0-1.08.07-2.16.07-6.49,0-1.25,0-2.5-.07-3.76l1.36.66h6.77c.45-.5.54-.57.64-.57s.21.07.68.45c.21.18.28.27.28.36s-.07.18-.31.36v1.32c0,5.84,0,6.07,0,6.77s-.15.87-.56,1.06a2.39,2.39,0,0,1-.79.18c-.21,0-.25-.08-.29-.32-.06-.41-.3-.71-1.42-1-.06,0,0-.14,0-.14l1.6,0c.17,0,.21,0,.21-.22V94h-7Zm2.83-5.41V89.83H23.38v3.86Zm4.14-3.86h-3v3.86h3Z"/><path class="cls-1" d="M34.76,88.42A8.22,8.22,0,0,1,37.18,91a6.13,6.13,0,0,1,0,6.26,8.23,8.23,0,0,1-2.41,2.57c-.08.06-.12.08-.16.08s-.06,0-.06-.08,0-.07.11-.15a7.42,7.42,0,0,0,0-11.15c0-.05-.06-.08-.06-.11s0-.07.09-.07S34.7,88.38,34.76,88.42Z"/><path class="cls-1" d="M357.45,294.72s0,.06-.06.11a7.45,7.45,0,0,0-.05,11.16c.09.08.11.1.11.15s0,.07-.06.07-.07,0-.16-.07a8.38,8.38,0,0,1-2.41-2.58,6.13,6.13,0,0,1,0-6.26,8.47,8.47,0,0,1,2.43-2.59c.06,0,.08-.06.12-.06A.08.08,0,0,1,357.45,294.72Z"/><path class="cls-1" d="M368.28,302.21c.66-.79.8-.89.88-.89s.24.1.88.61c.29.24.38.35.38.43s0,.12-.15.12h-4.18c0,1.29,0,2.45,0,3,0,.36-.24.51-.72.51s-.53-.11-.53-.42.05-1.23.05-3.06h-4.22a6.34,6.34,0,0,0-.89.08l-.13-.45a5.33,5.33,0,0,0,1,.1h1.06v-1.65c0-.59,0-1.19-.05-1.79a7.42,7.42,0,0,1,1.26.57h2v-2.21h-2.22a8,8,0,0,1-2.7,2.63c-.05,0-.17-.06-.12-.11a10.55,10.55,0,0,0,2.08-3.43,6.56,6.56,0,0,0,.38-1.38c1.27.38,1.6.52,1.6.72s-.15.22-.52.27c-.18.37-.36.71-.55,1H368c.63-.73.77-.83.86-.83s.24.1.85.58c.27.23.37.32.37.41s0,.11-.16.11h-3.8v2.21h1.42c.61-.69.7-.77.8-.77s.23.08.82.53c.27.22.34.3.34.4s0,.12-.18.12h-3.2v.43c0,.7,0,1.44,0,2.16Zm-3.35-2.59h-2.08v2.59h2.08Z"/><path class="cls-1" d="M376.71,298.3V298a6.91,6.91,0,0,0,0-1c1.27.12,1.4.15,1.4.3s-.07.15-.29.27v.7h2.1v-.4c0-.37,0-.51,0-.9,1.1.11,1.4.18,1.4.35s-.06.16-.3.29v.66h.79c.49-.61.63-.71.72-.71s.24.1.75.49c.23.19.33.29.33.37s0,.12-.16.12h-2.43c0,1,0,1.65,0,1.89s-.19.44-.63.44-.46-.11-.46-.47v-.06h-2.1v.12c0,.33-.18.47-.63.47s-.46-.13-.46-.43,0-.82,0-2H375a18.9,18.9,0,0,1-.4,3.83,9.23,9.23,0,0,1-1.68,3.43c0,.05-.16,0-.14-.08a14.91,14.91,0,0,0,.9-4,34.5,34.5,0,0,0,.15-3.45c0-.94,0-1.72-.11-2.59a9.36,9.36,0,0,1,1.37.64h3v-.74a4.38,4.38,0,0,0-.07-.71c1.45.14,1.59.27,1.59.41s-.14.24-.4.33v.71h2.61c.55-.65.7-.74.78-.74s.25.09.82.51c.26.21.36.3.36.39s0,.12-.16.12H375v1c0,.22,0,.43,0,.64Zm3.72,3.28c.49-.49.59-.56.69-.56s.21.07.7.53c.23.2.3.3.3.39s-.16.26-.61.36A9.14,9.14,0,0,1,379.9,304a14.61,14.61,0,0,0,4,.79c.06,0,0,.12,0,.13-.43.14-.59.32-.77.88-.05.14-.11.19-.23.19a4.37,4.37,0,0,1-.74-.14,9.76,9.76,0,0,1-2.9-1.17,1.88,1.88,0,0,1-.18-.12,12,12,0,0,1-4.93,1.42c-.06,0-.11-.18,0-.19a13.18,13.18,0,0,0,4.22-1.81,7.09,7.09,0,0,1-1.5-2.09h-.72a2.51,2.51,0,0,0-.71.1l-.13-.47a4,4,0,0,0,.84.09Zm-3.32.28a6.1,6.1,0,0,0,1.79,1.64,8.92,8.92,0,0,0,1.53-1.64Zm2.77-1.76v-1.53h-2.1v1.53Z"/><path class="cls-1" d="M386.22,294.71a8.32,8.32,0,0,1,2.42,2.59,6.07,6.07,0,0,1,0,6.26,8.14,8.14,0,0,1-2.41,2.58.25.25,0,0,1-.15.07s-.06,0-.06-.07,0-.07.1-.15a7.44,7.44,0,0,0,0-11.16c-.05-.05-.06-.07-.06-.11a.07.07,0,0,1,.08-.07S386.16,294.68,386.22,294.71Z"/><line class="cls-4" x1="45.73" y1="129.3" x2="364.99" y2="129.3"/><path class="cls-1" d="M3.54,131.36c1.18,0,1.46-.09,1.74-.34a3.6,3.6,0,0,0,.77-1.08c.06-.1.1-.11.23-.07s.15.08.14.18c-.17.72-.52,2-.76,2.69-1,0-1.7,0-2.7,0s-1.85,0-2.78,0c-.14,0-.18,0-.18-.24a.63.63,0,0,1,.08-.39,23.82,23.82,0,0,1,2.46-3.58C3.73,127,4.4,126.26,4.4,125c0-1.16-.41-2-1.21-2a1.16,1.16,0,0,0-1.16.81,3.22,3.22,0,0,0-.13,1c0,.39-.53.65-1,.65s-.67-.11-.67-.53a2.93,2.93,0,0,1,3-2.38c1.89,0,2.9,1.12,2.9,2.48,0,1.79-1.29,2.47-2.7,3.78a10,10,0,0,0-2.33,2.57Z"/><path class="cls-1" d="M9.27,134.61c-.06,0-.16,0-.25-.06s-.09-.21,0-.27c.58-.42.88-.84.88-1.24,0-.19-.21-.35-.36-.44s-.5-.17-.5-.54a1.07,1.07,0,0,1,1-1,1.09,1.09,0,0,1,.9,1.13C10.92,132.78,10.68,133.62,9.27,134.61Z"/><path class="cls-1" d="M15.54,127.76a2,2,0,0,1,1.86-1.14c1.78,0,2.71,1.3,2.71,3.11A3,3,0,0,1,17.05,133c-1.86,0-3.2-1.51-3.2-3.93a6.44,6.44,0,0,1,2.84-5.3,9.19,9.19,0,0,1,2.34-1.3c.11,0,.18,0,.38.27s.11.42,0,.42a3.55,3.55,0,0,0-2.07.7,5.42,5.42,0,0,0-1.85,3.91Zm.1.57a1.79,1.79,0,0,0-.18.87c0,2.25.61,3.36,1.59,3.36s1.4-1.23,1.4-2.82c0-1.42-.4-2.57-1.44-2.57A1.57,1.57,0,0,0,15.64,128.33Z"/><path class="cls-1" d="M28.75,127.74c0,3.22-1.17,5.25-3.11,5.25s-3.14-1.93-3.14-5.16,1.15-5.3,3.14-5.3S28.75,124.55,28.75,127.74Zm-4.61,0c0,2.92.29,4.78,1.5,4.78s1.47-1.86,1.47-4.78S26.83,123,25.64,123,24.14,124.86,24.14,127.78Z"/><path class="cls-1" d="M37.45,127.74c0,3.22-1.16,5.25-3.11,5.25s-3.13-1.93-3.13-5.16,1.14-5.3,3.13-5.3S37.45,124.55,37.45,127.74Zm-4.61,0c0,2.92.3,4.78,1.5,4.78s1.47-1.86,1.47-4.78S35.53,123,34.34,123,32.84,124.86,32.84,127.78Z"/><line class="cls-4" x1="45.73" y1="206.63" x2="364.99" y2="206.63"/><path class="cls-1" d="M1.13,201.46c-.14,0-.19,0-.23-.15s-.05-.19.12-.25c.81-.3,2.05-.81,3-1.26.09,0,.22.07.22.17,0,1.12-.06,2-.06,3.09v4.39c0,1.38,0,1.57.16,1.86s.6.31,1.19.36c.1,0,.13.06.13.21s0,.2-.13.2c-.65,0-1.42,0-2.07,0s-1.47,0-2.13,0c-.12,0-.14,0-.14-.2s0-.19.14-.21c.58,0,1.05,0,1.19-.36a5.64,5.64,0,0,0,.14-1.86v-5a2.44,2.44,0,0,0-.14-1.08c-.1-.15-.4-.16-.83,0Z"/><path class="cls-1" d="M9.27,211.94c-.06.06-.16.06-.25-.05s-.09-.21,0-.27c.58-.42.88-.84.88-1.25,0-.18-.21-.35-.36-.43s-.5-.17-.5-.55a1.08,1.08,0,0,1,1-1,1.1,1.1,0,0,1,.9,1.14C10.92,210.12,10.68,211,9.27,211.94Z"/><path class="cls-1" d="M17.36,204.69c1.65.33,2.58,1.23,2.58,2.6a2.91,2.91,0,0,1-3.21,3,3.67,3.67,0,0,1-2.06-.54c-.45-.28-.91-.73-.91-1.18s.37-.6,1-.6.73.67.9,1.06a1.06,1.06,0,0,0,1.06.83c1,0,1.53-1,1.53-2.65,0-1-.44-2.38-1.84-2.28l-.63,0c-.12,0-.19,0-.14-.28s.11-.32.27-.32.36,0,.53,0c.77,0,1.56-.62,1.56-2.19,0-1.06-.41-2-1.18-2a1.09,1.09,0,0,0-1,.63,1.74,1.74,0,0,0-.11.7c0,.47-.45.73-1.05.73-.44,0-.65-.14-.65-.45,0-.79,1.09-2,2.86-2,1.6,0,2.77.88,2.77,2.41s-1.05,2.06-2.24,2.34Z"/><path class="cls-1" d="M28.75,205.08c0,3.22-1.17,5.25-3.11,5.25s-3.14-1.93-3.14-5.17,1.15-5.29,3.14-5.29S28.75,201.89,28.75,205.08Zm-4.61,0c0,2.91.29,4.78,1.5,4.78s1.47-1.87,1.47-4.78-.28-4.82-1.47-4.82S24.14,202.19,24.14,205.12Z"/><path class="cls-1" d="M37.45,205.08c0,3.22-1.16,5.25-3.11,5.25s-3.13-1.93-3.13-5.17,1.14-5.29,3.13-5.29S37.45,201.89,37.45,205.08Zm-4.61,0c0,2.91.3,4.78,1.5,4.78s1.47-1.87,1.47-4.78-.28-4.82-1.47-4.82S32.84,202.19,32.84,205.12Z"/><path class="cls-1" d="M131.58,304.35c1.18,0,1.46-.08,1.74-.33a3.73,3.73,0,0,0,.77-1.08c0-.1.1-.11.22-.07s.16.08.14.18c-.17.71-.52,2-.76,2.69-.95,0-1.69,0-2.7,0s-1.85,0-2.77,0c-.14,0-.18,0-.18-.24a.63.63,0,0,1,.08-.39,25,25,0,0,1,2.45-3.59c1.19-1.52,1.87-2.27,1.87-3.57s-.41-2-1.21-2a1.16,1.16,0,0,0-1.16.81,2.89,2.89,0,0,0-.13,1c0,.39-.53.66-1.05.66s-.67-.11-.67-.53a2.91,2.91,0,0,1,3-2.38c1.89,0,2.9,1.12,2.9,2.48,0,1.79-1.29,2.46-2.7,3.78a10,10,0,0,0-2.33,2.56Z"/><path class="cls-1" d="M143.06,300.74c0,3.22-1.16,5.25-3.11,5.25s-3.14-1.93-3.14-5.17,1.15-5.29,3.14-5.29S143.06,297.54,143.06,300.74Zm-4.61,0c0,2.91.3,4.78,1.5,4.78s1.47-1.87,1.47-4.78S141.14,296,140,296,138.45,297.85,138.45,300.78Z"/><path class="cls-1" d="M146.59,297.12c-.14.05-.2,0-.24-.15s0-.2.12-.25c.82-.3,2.05-.81,3-1.26.1,0,.22.07.22.17,0,1.12-.05,2-.05,3.09v4.39c0,1.38,0,1.56.15,1.86s.6.31,1.19.36c.1,0,.13.06.13.21s0,.2-.13.2c-.64,0-1.41,0-2.07,0s-1.47,0-2.13,0c-.11,0-.14,0-.14-.2s0-.19.14-.21c.59,0,1-.05,1.19-.36a5.64,5.64,0,0,0,.14-1.86v-5A2.44,2.44,0,0,0,148,297c-.1-.15-.39-.17-.83,0Z"/><path class="cls-1" d="M160.46,303.12a3.13,3.13,0,0,1-6.23.11c0-1.18.84-1.93,2.17-2.58a2.75,2.75,0,0,1-1.89-2.71,2.67,2.67,0,0,1,2.86-2.41c1.64,0,2.8,1,2.8,2.24,0,1.06-.59,1.62-1.84,2.23A3.12,3.12,0,0,1,160.46,303.12Zm-4.75.13c0,1.4.66,2.31,1.67,2.31s1.71-.89,1.71-2.24c0-1-.57-1.62-2.28-2.44A2.36,2.36,0,0,0,155.71,303.25Zm3.09-5.47c0-1.1-.62-1.82-1.43-1.82a1.56,1.56,0,0,0-1.52,1.75c0,.77.33,1.26,2.08,2.06A2.1,2.1,0,0,0,158.8,297.78Z"/><path class="cls-1" d="M67.93,304.35c1.18,0,1.46-.08,1.74-.33a3.73,3.73,0,0,0,.77-1.08c.06-.1.1-.11.22-.07s.16.08.14.18c-.16.71-.51,2-.75,2.69-1,0-1.7,0-2.71,0s-1.84,0-2.77,0c-.14,0-.18,0-.18-.24a.63.63,0,0,1,.08-.39,25,25,0,0,1,2.45-3.59c1.2-1.52,1.87-2.27,1.87-3.57s-.41-2-1.21-2a1.16,1.16,0,0,0-1.16.81,3.15,3.15,0,0,0-.13,1c0,.39-.53.66-1.05.66s-.67-.11-.67-.53a2.92,2.92,0,0,1,3-2.38c1.89,0,2.9,1.12,2.9,2.48,0,1.79-1.29,2.46-2.7,3.78a10,10,0,0,0-2.33,2.56Z"/><path class="cls-1" d="M79.41,300.74c0,3.22-1.16,5.25-3.11,5.25s-3.13-1.93-3.13-5.17,1.15-5.29,3.13-5.29S79.41,297.54,79.41,300.74Zm-4.6,0c0,2.91.29,4.78,1.49,4.78s1.48-1.87,1.48-4.78S77.5,296,76.3,296,74.81,297.85,74.81,300.78Z"/><path class="cls-1" d="M82.94,297.12c-.14.05-.2,0-.24-.15s0-.2.13-.25c.81-.3,2-.81,3-1.26.1,0,.22.07.22.17,0,1.12,0,2,0,3.09v4.39c0,1.38,0,1.56.15,1.86s.61.31,1.19.36c.1,0,.13.06.13.21s0,.2-.13.2c-.64,0-1.41,0-2.07,0s-1.47,0-2.13,0c-.11,0-.14,0-.14-.2s0-.19.14-.21c.59,0,1-.05,1.19-.36a5.37,5.37,0,0,0,.14-1.86v-5a2.44,2.44,0,0,0-.14-1.08c-.1-.15-.39-.17-.82,0Z"/><path class="cls-1" d="M92.75,297.11c-.77,0-1,.11-1.15.31a3,3,0,0,0-.49.92c0,.1-.07.14-.25.1s-.17-.06-.15-.15c.11-.72.28-1.84.36-2.58.93,0,1.85,0,2.82,0s1.83,0,2.73,0c.08,0,.11,0,.11.29a.73.73,0,0,1,0,.37,21.39,21.39,0,0,0-2.46,6.08A9.32,9.32,0,0,0,94,304.3c0,.39,0,.6,0,.93s-.53.76-1.06.76-.88-.17-.88-.62a8.9,8.9,0,0,1,1-3.55,36.77,36.77,0,0,1,2.69-4.71Z"/><path class="cls-1" d="M195.31,304.35c1.18,0,1.46-.08,1.74-.33a3.73,3.73,0,0,0,.77-1.08c.05-.1.1-.11.22-.07s.16.08.14.18c-.17.71-.52,2-.75,2.69-1,0-1.7,0-2.71,0s-1.85,0-2.77,0c-.14,0-.18,0-.18-.24a.63.63,0,0,1,.08-.39,25,25,0,0,1,2.45-3.59c1.19-1.52,1.87-2.27,1.87-3.57s-.41-2-1.21-2a1.16,1.16,0,0,0-1.16.81,2.89,2.89,0,0,0-.13,1c0,.39-.53.66-1,.66s-.67-.11-.67-.53a2.91,2.91,0,0,1,3-2.38c1.89,0,2.9,1.12,2.9,2.48,0,1.79-1.29,2.46-2.7,3.78a10,10,0,0,0-2.33,2.56Z"/><path class="cls-1" d="M206.79,300.74c0,3.22-1.16,5.25-3.11,5.25s-3.13-1.93-3.13-5.17,1.14-5.29,3.13-5.29S206.79,297.54,206.79,300.74Zm-4.61,0c0,2.91.3,4.78,1.5,4.78s1.47-1.87,1.47-4.78-.28-4.82-1.47-4.82S202.18,297.85,202.18,300.78Z"/><path class="cls-1" d="M210.32,297.12c-.14.05-.2,0-.24-.15s0-.2.13-.25c.81-.3,2-.81,3-1.26.1,0,.22.07.22.17,0,1.12,0,2,0,3.09v4.39c0,1.38,0,1.56.15,1.86s.6.31,1.19.36c.1,0,.13.06.13.21s0,.2-.13.2c-.64,0-1.41,0-2.07,0s-1.47,0-2.13,0c-.11,0-.14,0-.14-.2s0-.19.14-.21c.59,0,1.05-.05,1.19-.36a5.64,5.64,0,0,0,.14-1.86v-5a2.44,2.44,0,0,0-.14-1.08c-.1-.15-.39-.17-.83,0Z"/><path class="cls-1" d="M222.51,300.77a2.08,2.08,0,0,1-1.85,1,2.74,2.74,0,0,1-2.74-3,3,3,0,0,1,3.08-3.26c2,0,3.18,1.61,3.18,4a6,6,0,0,1-2.8,5.48,6.6,6.6,0,0,1-2.27,1c-.13,0-.22-.06-.34-.27s-.09-.36.07-.37a4.19,4.19,0,0,0,1.94-.51c1.09-.66,1.65-1.89,1.8-4.07Zm-2.95-2.06c0,1.4.46,2.56,1.44,2.56.59,0,1.05-.36,1.44-1.23a1.82,1.82,0,0,0,.13-.9c0-1.86-.52-3.18-1.57-3.18S219.56,297.18,219.56,298.71Z"/><path class="cls-1" d="M322.77,304.35c1.18,0,1.46-.08,1.74-.33a3.73,3.73,0,0,0,.77-1.08c.06-.1.1-.11.22-.07s.16.08.15.18c-.17.71-.52,2-.76,2.69-.95,0-1.7,0-2.7,0s-1.85,0-2.78,0c-.14,0-.18,0-.18-.24a.63.63,0,0,1,.08-.39,25,25,0,0,1,2.45-3.59c1.2-1.52,1.87-2.27,1.87-3.57s-.41-2-1.21-2a1.16,1.16,0,0,0-1.16.81,3.15,3.15,0,0,0-.13,1c0,.39-.53.66-1.05.66s-.67-.11-.67-.53a2.92,2.92,0,0,1,3-2.38c1.89,0,2.9,1.12,2.9,2.48,0,1.79-1.29,2.46-2.7,3.78a10,10,0,0,0-2.33,2.56Z"/><path class="cls-1" d="M334.25,300.74c0,3.22-1.16,5.25-3.1,5.25s-3.14-1.93-3.14-5.17,1.15-5.29,3.14-5.29S334.25,297.54,334.25,300.74Zm-4.6,0c0,2.91.29,4.78,1.5,4.78s1.47-1.87,1.47-4.78-.28-4.82-1.47-4.82S329.65,297.85,329.65,300.78Z"/><path class="cls-1" d="M340.19,304.35c1.18,0,1.46-.08,1.74-.33a3.73,3.73,0,0,0,.77-1.08c.05-.1.09-.11.22-.07s.15.08.14.18c-.17.71-.52,2-.76,2.69-.95,0-1.69,0-2.7,0s-1.85,0-2.77,0c-.14,0-.18,0-.18-.24a.63.63,0,0,1,.08-.39,24.24,24.24,0,0,1,2.45-3.59C340.37,300,341,299.25,341,298s-.4-2-1.2-2a1.15,1.15,0,0,0-1.16.81,2.89,2.89,0,0,0-.13,1c0,.39-.53.66-1.05.66s-.67-.11-.67-.53a2.91,2.91,0,0,1,3-2.38c1.89,0,2.9,1.12,2.9,2.48,0,1.79-1.29,2.46-2.71,3.78a10.08,10.08,0,0,0-2.32,2.56Z"/><path class="cls-1" d="M346.49,297.12c-.14.05-.2,0-.24-.15s0-.2.13-.25c.81-.3,2-.81,3-1.26.1,0,.22.07.22.17,0,1.12-.05,2-.05,3.09v4.39c0,1.38,0,1.56.15,1.86s.6.31,1.19.36c.1,0,.13.06.13.21s0,.2-.13.2c-.64,0-1.41,0-2.07,0s-1.47,0-2.13,0c-.11,0-.14,0-.14-.2s0-.19.14-.21c.59,0,1.05-.05,1.19-.36a5.64,5.64,0,0,0,.14-1.86v-5a2.44,2.44,0,0,0-.14-1.08c-.1-.15-.39-.17-.83,0Z"/><path class="cls-1" d="M259,304.35c1.17,0,1.45-.08,1.74-.33a3.73,3.73,0,0,0,.77-1.08c0-.1.09-.11.22-.07s.15.08.14.18c-.17.71-.52,2-.76,2.69-.95,0-1.69,0-2.7,0s-1.85,0-2.77,0c-.14,0-.19,0-.19-.24a.63.63,0,0,1,.09-.39,24.24,24.24,0,0,1,2.45-3.59c1.19-1.52,1.86-2.27,1.86-3.57s-.4-2-1.2-2a1.15,1.15,0,0,0-1.16.81,2.89,2.89,0,0,0-.13,1c0,.39-.53.66-1.05.66s-.67-.11-.67-.53a2.91,2.91,0,0,1,3-2.38c1.89,0,2.9,1.12,2.9,2.48,0,1.79-1.29,2.46-2.71,3.78a10.08,10.08,0,0,0-2.32,2.56Z"/><path class="cls-1" d="M270.51,300.74c0,3.22-1.16,5.25-3.11,5.25s-3.14-1.93-3.14-5.17,1.15-5.29,3.14-5.29S270.51,297.54,270.51,300.74Zm-4.61,0c0,2.91.3,4.78,1.5,4.78s1.47-1.87,1.47-4.78-.28-4.82-1.47-4.82S265.9,297.85,265.9,300.78Z"/><path class="cls-1" d="M276.44,304.35c1.18,0,1.46-.08,1.74-.33a3.73,3.73,0,0,0,.77-1.08c.06-.1.1-.11.23-.07s.15.08.14.18c-.17.71-.52,2-.76,2.69-.95,0-1.7,0-2.7,0s-1.85,0-2.78,0c-.14,0-.18,0-.18-.24a.63.63,0,0,1,.08-.39,24.38,24.38,0,0,1,2.46-3.59c1.19-1.52,1.86-2.27,1.86-3.57s-.41-2-1.21-2a1.16,1.16,0,0,0-1.16.81,3.15,3.15,0,0,0-.13,1c0,.39-.53.66-1.05.66s-.67-.11-.67-.53a2.92,2.92,0,0,1,3-2.38c1.89,0,2.9,1.12,2.9,2.48,0,1.79-1.29,2.46-2.7,3.78a10,10,0,0,0-2.33,2.56Z"/><path class="cls-1" d="M287.93,300.74c0,3.22-1.17,5.25-3.11,5.25s-3.14-1.93-3.14-5.17,1.15-5.29,3.14-5.29S287.93,297.54,287.93,300.74Zm-4.61,0c0,2.91.29,4.78,1.5,4.78s1.47-1.87,1.47-4.78S286,296,284.82,296,283.32,297.85,283.32,300.78Z"/><rect class="cls-5" x="51.48" y="158.4" width="57.5" height="23.42"/><rect class="cls-5" x="105.03" y="154.14" width="67.62" height="25.23"/><rect class="cls-5" x="166.7" y="123.6" width="67.62" height="25.23"/><path class="cls-2" d="M56.82,177.4l0-.2h.42a1.09,1.09,0,0,0,1.1-1.08V166A1.35,1.35,0,0,0,58,164.9a1.45,1.45,0,0,0-1-.3h-.36v-.2c.28,0,.65-.05,1.13-.11s1-.14,1.53-.24a13.18,13.18,0,0,0,1.59-.38,5.49,5.49,0,0,0,1.31-.55h.2v13a1,1,0,0,0,.33.75,1.08,1.08,0,0,0,.77.31H64v.2Z"/><path class="cls-2" d="M65.92,174.42a1.64,1.64,0,0,1,1-.33,2.3,2.3,0,0,1,1.07.3,1.78,1.78,0,0,1,.75.85A3.21,3.21,0,0,1,69,177a3.61,3.61,0,0,1-.63,1.64,3.32,3.32,0,0,1-1.28,1.11,2.56,2.56,0,0,1-1.67.2l-.08-.26a1.67,1.67,0,0,0,.64-.53,1.41,1.41,0,0,0,.27-.89,1.81,1.81,0,0,0-.55-1.12,1.91,1.91,0,0,1-.45-1,2.12,2.12,0,0,1,.08-1A1.59,1.59,0,0,1,65.92,174.42Z"/><path class="cls-2" d="M80.94,162.72l.08.14a13,13,0,0,0-3.35,1.48,5.35,5.35,0,0,0-1.77,1.86,6.2,6.2,0,0,0-.7,2.35,26.67,26.67,0,0,0-.14,3c0,1.11,0,2,.08,2.77a3.79,3.79,0,0,0,.4,1.66,1.1,1.1,0,0,0,1,.55A1.33,1.33,0,0,0,77.7,176a2.94,2.94,0,0,0,.52-1.28,11.2,11.2,0,0,0,0-3.47,2.83,2.83,0,0,0-.35-.95,1.24,1.24,0,0,0-1.36-.49,3,3,0,0,0-.66.28l-.16-.16a2.27,2.27,0,0,1,.89-1A3.51,3.51,0,0,1,78,168.4a4.23,4.23,0,0,1,1.58.07,3.88,3.88,0,0,1,1.47.72,3.78,3.78,0,0,1,1.07,1.42,5.23,5.23,0,0,1,.36,2.21,5.15,5.15,0,0,1-.67,2.44,4.43,4.43,0,0,1-1.9,1.75,7.42,7.42,0,0,1-3.25.69,7,7,0,0,1-3.32-.67,4.49,4.49,0,0,1-2.06-2.17,8.73,8.73,0,0,1-.7-3.76,10.72,10.72,0,0,1,.64-3.83,6.8,6.8,0,0,1,1.94-2.81,7.74,7.74,0,0,1,3.25-1.59A13,13,0,0,1,80.94,162.72Z"/><path class="cls-2" d="M84,177.4l0-.2h.42a1.06,1.06,0,0,0,.78-.32,1,1,0,0,0,.32-.76V166a1.35,1.35,0,0,0-.36-1.08,1.45,1.45,0,0,0-1-.3h-.36v-.2c.28,0,.65-.05,1.13-.11s1-.14,1.53-.24a14.15,14.15,0,0,0,1.59-.38,5.49,5.49,0,0,0,1.31-.55h.2v13a1,1,0,0,0,.33.75,1.06,1.06,0,0,0,.77.31h.42v.2Z"/><path class="cls-2" d="M94.06,178.16,94,178a12.8,12.8,0,0,0,3.35-1.48,5.37,5.37,0,0,0,1.77-1.86,6.27,6.27,0,0,0,.7-2.35,29,29,0,0,0,.14-3c0-1.1,0-2-.08-2.77a4.34,4.34,0,0,0-.39-1.66,1.11,1.11,0,0,0-1-.55,1.34,1.34,0,0,0-1.12.49,2.77,2.77,0,0,0-.52,1.27,10,10,0,0,0-.14,1.7,9.18,9.18,0,0,0,.13,1.78,2.19,2.19,0,0,0,.36.95,1.2,1.2,0,0,0,.51.43,1.26,1.26,0,0,0,.85.06,2.82,2.82,0,0,0,.65-.28l.14.16a2.4,2.4,0,0,1-.88,1,3.33,3.33,0,0,1-1.38.52,4,4,0,0,1-1.58-.07,3.55,3.55,0,0,1-1.47-.72,3.67,3.67,0,0,1-1.07-1.43,4.92,4.92,0,0,1-.36-2.2,5.09,5.09,0,0,1,.66-2.44,4.4,4.4,0,0,1,1.9-1.76,7.2,7.2,0,0,1,3.26-.68,6,6,0,0,1,4.51,1.56q1.57,1.6,1.57,5a10.91,10.91,0,0,1-.64,3.83,6.86,6.86,0,0,1-1.94,2.81A7.58,7.58,0,0,1,98.62,178,13,13,0,0,1,94.06,178.16Z"/><path class="cls-2" d="M113.94,172.57l0-.2h.42a1.06,1.06,0,0,0,.78-.32,1,1,0,0,0,.32-.76V161.15a1.35,1.35,0,0,0-.36-1.08,1.45,1.45,0,0,0-1-.3h-.36v-.2c.28,0,.65,0,1.13-.11s1-.14,1.53-.24a14.15,14.15,0,0,0,1.59-.38,5.49,5.49,0,0,0,1.31-.55h.2v13a1,1,0,0,0,.33.75,1.06,1.06,0,0,0,.77.31h.42v.2Z"/><path class="cls-2" d="M123,169.59a1.68,1.68,0,0,1,1-.33,2.3,2.3,0,0,1,1.07.3,1.78,1.78,0,0,1,.75.85,3.3,3.3,0,0,1,.28,1.79,3.61,3.61,0,0,1-.63,1.64,3.32,3.32,0,0,1-1.28,1.11,2.51,2.51,0,0,1-1.67.2l-.08-.26a1.58,1.58,0,0,0,.64-.53,1.45,1.45,0,0,0,.27-.89,1.83,1.83,0,0,0-.55-1.12,1.91,1.91,0,0,1-.45-.95,2,2,0,0,1,.08-1A1.53,1.53,0,0,1,123,169.59Z"/><path class="cls-2" d="M127.54,158.61l10.6,0-2.56,5.94c-.18.39-.36.86-.56,1.4s-.41,1.14-.62,1.76-.42,1.25-.62,1.86-.39,1.19-.55,1.71-.3,1-.39,1.33h-3.4l.86-1.45c.33-.56.68-1.17,1-1.81l1.07-1.91c.35-.63.67-1.22,1-1.76s.5-1,.68-1.35l1-2.22h-6.4a1.36,1.36,0,0,0-.94.3,2.08,2.08,0,0,0-.56.9H127Z"/><path class="cls-2" d="M148.34,158.29l.18,1.48-7.12,6.92h8a1.41,1.41,0,0,0,.84-.21,1.56,1.56,0,0,0,.46-.59h.2l-.62,2.9H138v-.2Zm.2,13a1,1,0,0,0,.33.76,1,1,0,0,0,.77.32h.22v.2H143.1l0-.2h.2a1.11,1.11,0,0,0,.79-.31,1,1,0,0,0,.33-.77Zm-4.1-8.68,3.9-4.32h.2v14.26h-4.1Z"/><path class="cls-2" d="M153.5,173.33l-.08-.14a12.8,12.8,0,0,0,3.35-1.48,5.37,5.37,0,0,0,1.77-1.86,6.46,6.46,0,0,0,.7-2.35,29,29,0,0,0,.14-3c0-1.1,0-2-.08-2.77a4.34,4.34,0,0,0-.39-1.66,1.13,1.13,0,0,0-1-.55,1.34,1.34,0,0,0-1.12.49,2.77,2.77,0,0,0-.52,1.27,11.27,11.27,0,0,0,0,3.48,2.19,2.19,0,0,0,.36,1,1.2,1.2,0,0,0,.51.43,1.26,1.26,0,0,0,.85.06,2.82,2.82,0,0,0,.65-.28l.14.16a2.34,2.34,0,0,1-.88,1,3.33,3.33,0,0,1-1.38.52,4,4,0,0,1-1.58-.07,3.49,3.49,0,0,1-1.47-.72,3.57,3.57,0,0,1-1.07-1.43,4.92,4.92,0,0,1-.36-2.2,5.09,5.09,0,0,1,.66-2.44,4.4,4.4,0,0,1,1.9-1.76,7.33,7.33,0,0,1,3.26-.68,6,6,0,0,1,4.51,1.56c1,1.07,1.57,2.75,1.57,5a10.87,10.87,0,0,1-.64,3.83,6.86,6.86,0,0,1-1.94,2.81,7.58,7.58,0,0,1-3.24,1.59A12.57,12.57,0,0,1,153.5,173.33Z"/><path class="cls-2" d="M238.48,116.37l-1.34-3.6a5.25,5.25,0,0,1,1.45-.86,9.89,9.89,0,0,1,1.84-.52,10.89,10.89,0,0,1,1.95-.18,8.39,8.39,0,0,1,2.92.49,4.89,4.89,0,0,1,2,1.4,3.38,3.38,0,0,1,.75,2.21,4.09,4.09,0,0,1-.41,1.8,6.76,6.76,0,0,1-1.07,1.56,11.35,11.35,0,0,1-1.44,1.33c-.52.41-1,.78-1.54,1.1l-1.36.87h3.8a2.45,2.45,0,0,0,1.09-.23,2.86,2.86,0,0,0,.9-.69,5,5,0,0,0,.75-1.18h.2l-1.36,5.62h-10.4v-.2c.57-.7,1.16-1.41,1.77-2.12s1.19-1.41,1.76-2.11,1.07-1.39,1.53-2.09a11.67,11.67,0,0,0,1.08-2.06,5.63,5.63,0,0,0,.4-2,2.9,2.9,0,0,0-.69-2,2.2,2.2,0,0,0-1.87-.64,2.35,2.35,0,0,0-1.91,1.15,5.7,5.7,0,0,0-.65,3Z"/><path class="cls-2" d="M251.06,122.51a1.68,1.68,0,0,1,1-.33,2.3,2.3,0,0,1,1.07.3,1.78,1.78,0,0,1,.75.85,3.3,3.3,0,0,1,.28,1.79,3.61,3.61,0,0,1-.63,1.64,3.32,3.32,0,0,1-1.28,1.11,2.51,2.51,0,0,1-1.67.2l-.08-.26a1.58,1.58,0,0,0,.64-.53,1.45,1.45,0,0,0,.27-.89,1.83,1.83,0,0,0-.55-1.12,1.91,1.91,0,0,1-.45-1,2,2,0,0,1,.08-1A1.53,1.53,0,0,1,251.06,122.51Z"/><path class="cls-2" d="M264.46,114.85l-6.14.5-.38,1.66a9.85,9.85,0,0,1,3.4-.28,5.74,5.74,0,0,1,2.48.85,4.19,4.19,0,0,1,1.48,1.71,4.93,4.93,0,0,1,.42,2.32,4.72,4.72,0,0,1-.82,2.56A5.7,5.7,0,0,1,263,125.9a8.22,8.22,0,0,1-2.59.9,8.9,8.9,0,0,1-2.77.07,7.32,7.32,0,0,1-2.49-.76l0-.2a6.3,6.3,0,0,0,1.28-.1,9.74,9.74,0,0,0,1.59-.4,6.85,6.85,0,0,0,1.57-.75,4.41,4.41,0,0,0,1.22-1.13,2.92,2.92,0,0,0,.54-1.56,2.14,2.14,0,0,0-.62-1.79,3,3,0,0,0-1.91-.72,6.47,6.47,0,0,0-2.73.55l-.18-.12,1.66-7.68,6-.5a1.58,1.58,0,0,0,1-.28,2,2,0,0,0,.58-.72h.2Z"/><path class="cls-2" d="M267.46,125.49l0-.2h.42a1.06,1.06,0,0,0,.78-.32,1,1,0,0,0,.32-.76V114.07a1.35,1.35,0,0,0-.36-1.08,1.45,1.45,0,0,0-1-.3h-.36v-.2c.28,0,.65,0,1.13-.11s1-.14,1.53-.24a14.15,14.15,0,0,0,1.59-.38,5.49,5.49,0,0,0,1.31-.55h.2v13a1,1,0,0,0,.33.75,1.06,1.06,0,0,0,.77.31h.42v.2Z"/><path class="cls-2" d="M285.22,111.21l.18,1.48-7.12,6.92h8a1.41,1.41,0,0,0,.84-.21,1.56,1.56,0,0,0,.46-.59h.2l-.62,2.9H274.9v-.2Zm.2,13a1,1,0,0,0,.33.76,1,1,0,0,0,.77.32h.22v.2H280l0-.2h.2A1.11,1.11,0,0,0,281,125a1,1,0,0,0,.33-.77Zm-4.1-8.68,3.9-4.32h.2v14.26h-4.1Z"/><path class="cls-2" d="M302.71,107.6,301,103.1a6.3,6.3,0,0,1,1.81-1.08,12.09,12.09,0,0,1,2.3-.65,13.58,13.58,0,0,1,2.44-.22,10.28,10.28,0,0,1,3.65.61,6,6,0,0,1,2.56,1.75,4.23,4.23,0,0,1,.94,2.76,5,5,0,0,1-.52,2.25,8.12,8.12,0,0,1-1.33,2,14.17,14.17,0,0,1-1.8,1.66c-.65.51-1.29,1-1.93,1.38l-1.7,1.09h4.75a3.15,3.15,0,0,0,1.36-.29,3.51,3.51,0,0,0,1.13-.86,6.62,6.62,0,0,0,.94-1.48h.25l-1.7,7h-13v-.25c.71-.89,1.45-1.77,2.21-2.65s1.49-1.77,2.2-2.64a31.92,31.92,0,0,0,1.91-2.61,13.92,13.92,0,0,0,1.35-2.58,6.73,6.73,0,0,0,.5-2.52,3.59,3.59,0,0,0-.86-2.55,2.68,2.68,0,0,0-2.34-.8,2.94,2.94,0,0,0-2.39,1.43,7.23,7.23,0,0,0-.81,3.77Z"/><path class="cls-2" d="M318.44,115.27a2,2,0,0,1,1.27-.41,2.82,2.82,0,0,1,1.34.37,2.24,2.24,0,0,1,.94,1.07,4,4,0,0,1,.35,2.23,4.58,4.58,0,0,1-.79,2A4.26,4.26,0,0,1,320,122a3.17,3.17,0,0,1-2.09.25l-.1-.32a2.1,2.1,0,0,0,.8-.67,1.71,1.71,0,0,0,.34-1.11,2.27,2.27,0,0,0-.69-1.4,2.35,2.35,0,0,1-.56-1.19,2.52,2.52,0,0,1,.1-1.28A2,2,0,0,1,318.44,115.27Z"/><path class="cls-2" d="M335.19,105.7l-7.68.62L327,108.4a12,12,0,0,1,4.25-.35,7,7,0,0,1,3.1,1.06,5.15,5.15,0,0,1,1.85,2.14,6.11,6.11,0,0,1,.52,2.9,5.88,5.88,0,0,1-1,3.2,7.15,7.15,0,0,1-2.44,2.16,10.37,10.37,0,0,1-3.24,1.12,11.18,11.18,0,0,1-3.46.09,9.42,9.42,0,0,1-3.11-1l.05-.25a8.19,8.19,0,0,0,1.6-.12,12.49,12.49,0,0,0,2-.5,9.38,9.38,0,0,0,2-.94,5.56,5.56,0,0,0,1.52-1.41,3.66,3.66,0,0,0,.68-2,2.64,2.64,0,0,0-.78-2.24,3.72,3.72,0,0,0-2.39-.9,7.88,7.88,0,0,0-3.41.69l-.22-.15,2.07-9.6,7.45-.63a2,2,0,0,0,1.25-.35,2.61,2.61,0,0,0,.73-.9h.25Z"/><path class="cls-2" d="M339.71,106.37a4.87,4.87,0,0,1,.81-2.84,5.16,5.16,0,0,1,2.22-1.77,7.65,7.65,0,0,1,3.12-.61,8.7,8.7,0,0,1,3.06.52,5.63,5.63,0,0,1,2.28,1.49,3.27,3.27,0,0,1,.86,2.24,2.74,2.74,0,0,1-.75,2,4.55,4.55,0,0,1-1.87,1.17,6.92,6.92,0,0,1-2.28.39h-.85a1.56,1.56,0,0,0,1-.89,5.25,5.25,0,0,0,.5-1.57,7.56,7.56,0,0,0,.11-1.49,3,3,0,0,0-.56-1.76,2,2,0,0,0-1.56-.79,1.67,1.67,0,0,0-1.44.56,2.33,2.33,0,0,0-.51,1.54,2.17,2.17,0,0,0,.33,1.21,3.93,3.93,0,0,0,1.14,1c.53.36,1.28.8,2.23,1.32.8.41,1.54.81,2.23,1.18a12.73,12.73,0,0,1,1.84,1.2,4.69,4.69,0,0,1,1.24,1.48,4.39,4.39,0,0,1,.44,2,4.54,4.54,0,0,1-1,3,5.83,5.83,0,0,1-2.74,1.8,12.72,12.72,0,0,1-4.11.6,16,16,0,0,1-2.37-.19,8.67,8.67,0,0,1-2.22-.65,4.11,4.11,0,0,1-1.62-1.31,3.65,3.65,0,0,1-.61-2.18,3.92,3.92,0,0,1,.48-2,4.31,4.31,0,0,1,1.24-1.34,7.35,7.35,0,0,1,3-1.18,6.77,6.77,0,0,1,.94-.1l1.2-.28a3.69,3.69,0,0,0-1.9,1.36,4.62,4.62,0,0,0-.75,2.79,4.39,4.39,0,0,0,.75,2.73,2.82,2.82,0,0,0,2.05,1.1,3.39,3.39,0,0,0,1.51-.18,2.37,2.37,0,0,0,1.1-.76,1.78,1.78,0,0,0,.42-1.16,1.93,1.93,0,0,0-.19-.82,3.06,3.06,0,0,0-.64-.8,8.13,8.13,0,0,0-1.21-.88c-.51-.32-1.15-.67-1.91-1-.45-.24-1-.51-1.53-.83a9.33,9.33,0,0,1-1.65-1.16,5.75,5.75,0,0,1-1.32-1.7A5.14,5.14,0,0,1,339.71,106.37Z"/><path class="cls-2" d="M355.61,106.37a4.87,4.87,0,0,1,.81-2.84,5.16,5.16,0,0,1,2.22-1.77,7.65,7.65,0,0,1,3.12-.61,8.7,8.7,0,0,1,3.06.52,5.63,5.63,0,0,1,2.28,1.49,3.27,3.27,0,0,1,.86,2.24,2.74,2.74,0,0,1-.75,2,4.55,4.55,0,0,1-1.87,1.17,6.92,6.92,0,0,1-2.28.39h-.85a1.56,1.56,0,0,0,1-.89,5.25,5.25,0,0,0,.5-1.57,7.56,7.56,0,0,0,.11-1.49,3,3,0,0,0-.56-1.76,2,2,0,0,0-1.56-.79,1.67,1.67,0,0,0-1.44.56,2.33,2.33,0,0,0-.51,1.54,2.17,2.17,0,0,0,.33,1.21,3.93,3.93,0,0,0,1.14,1c.53.36,1.28.8,2.23,1.32s1.54.81,2.23,1.18a12.73,12.73,0,0,1,1.84,1.2,4.69,4.69,0,0,1,1.24,1.48,4.39,4.39,0,0,1,.44,2,4.54,4.54,0,0,1-1,3,5.83,5.83,0,0,1-2.74,1.8,12.72,12.72,0,0,1-4.11.6,16,16,0,0,1-2.37-.19,8.67,8.67,0,0,1-2.22-.65,4.11,4.11,0,0,1-1.62-1.31,3.65,3.65,0,0,1-.61-2.18,3.92,3.92,0,0,1,.48-2,4.31,4.31,0,0,1,1.24-1.34,7.35,7.35,0,0,1,3-1.18,6.77,6.77,0,0,1,.94-.1l1.2-.28a3.69,3.69,0,0,0-1.9,1.36,4.62,4.62,0,0,0-.75,2.79,4.39,4.39,0,0,0,.75,2.73,2.82,2.82,0,0,0,2.05,1.1,3.39,3.39,0,0,0,1.51-.18,2.37,2.37,0,0,0,1.1-.76,1.78,1.78,0,0,0,.42-1.16,1.93,1.93,0,0,0-.19-.82,3.06,3.06,0,0,0-.64-.8,8.13,8.13,0,0,0-1.21-.88c-.51-.32-1.15-.67-1.91-1-.45-.24-1-.51-1.53-.83a9.33,9.33,0,0,1-1.65-1.16,5.75,5.75,0,0,1-1.32-1.7A5.14,5.14,0,0,1,355.61,106.37Z"/><circle class="cls-2" cx="80.02" cy="188.97" r="5.35"/><circle class="cls-2" cx="138.84" cy="184.75" r="5.35"/><circle class="cls-2" cx="335.11" cy="134.19" r="5.35"/><circle class="cls-2" cx="264.41" cy="142.19" r="5.35"/><path class="cls-2" d="M174.57,133.18l-1.34-3.6a5.15,5.15,0,0,1,1.45-.86,9.37,9.37,0,0,1,1.84-.52,10.89,10.89,0,0,1,1.95-.18,8.13,8.13,0,0,1,2.92.49,4.74,4.74,0,0,1,2.05,1.4,3.36,3.36,0,0,1,.75,2.21,4,4,0,0,1-.41,1.8,6.47,6.47,0,0,1-1.07,1.56,12.14,12.14,0,0,1-1.44,1.33c-.52.41-1,.77-1.54,1.1s-1,.62-1.36.87h3.8a2.56,2.56,0,0,0,1.09-.23,2.65,2.65,0,0,0,.9-.69,4.6,4.6,0,0,0,.75-1.18h.2l-1.36,5.62h-10.4v-.2c.58-.71,1.17-1.41,1.77-2.12s1.2-1.41,1.76-2.11a24.6,24.6,0,0,0,1.53-2.09,10.48,10.48,0,0,0,1.08-2.06,5.42,5.42,0,0,0,.4-2,2.86,2.86,0,0,0-.69-2,2.16,2.16,0,0,0-1.87-.64,2.36,2.36,0,0,0-1.91,1.15,5.78,5.78,0,0,0-.65,3Z"/><path class="cls-2" d="M187.15,139.32a1.6,1.6,0,0,1,1-.33,2.27,2.27,0,0,1,1.07.3,1.73,1.73,0,0,1,.75.85,3.2,3.2,0,0,1,.28,1.79,3.65,3.65,0,0,1-.63,1.64,3.25,3.25,0,0,1-1.28,1.11,2.56,2.56,0,0,1-1.67.2l-.08-.26a1.6,1.6,0,0,0,.64-.53,1.35,1.35,0,0,0,.27-.89,1.76,1.76,0,0,0-.55-1.12,2,2,0,0,1-.45-1,2.11,2.11,0,0,1,.08-1A1.66,1.66,0,0,1,187.15,139.32Z"/><path class="cls-2" d="M196.57,128.06a8.09,8.09,0,0,1,2.73.41,3.73,3.73,0,0,1,1.74,1.17,2.87,2.87,0,0,1,.61,1.86,3,3,0,0,1-.33,1.44,2.69,2.69,0,0,1-.87,1,3,3,0,0,1-1.17.47,2.73,2.73,0,0,1-1.21-.05,4.93,4.93,0,0,1,1.31.19,4.33,4.33,0,0,1,1.36.64,3.44,3.44,0,0,1,1.07,1.22,4,4,0,0,1,.42,1.93,4.6,4.6,0,0,1-.65,2.47,5.26,5.26,0,0,1-1.75,1.76,7.39,7.39,0,0,1-2.47,1,9.45,9.45,0,0,1-2.82.16,8.6,8.6,0,0,1-2.77-.73l0-.2a8.07,8.07,0,0,0,2.34-.3,5.91,5.91,0,0,0,1.95-.95,4.62,4.62,0,0,0,1.34-1.52,4,4,0,0,0,.49-2,3.1,3.1,0,0,0-.57-1.95,3.33,3.33,0,0,0-1.42-1.07,4.46,4.46,0,0,0-1.71-.34l0-.2A3.21,3.21,0,0,0,196,134a3.16,3.16,0,0,0,1.22-1.24,2.83,2.83,0,0,0,.34-1.75,2.15,2.15,0,0,0-.42-1.19,1.87,1.87,0,0,0-.89-.63,2.65,2.65,0,0,0-1.13-.12,2,2,0,0,0-1.7,1.05,6.12,6.12,0,0,0-.46,2.83h-.2l-1.14-3.46a5.75,5.75,0,0,1,2.06-1A10.17,10.17,0,0,1,196.57,128.06Z"/><path class="cls-2" d="M208.61,128.06a8.09,8.09,0,0,1,2.73.41,3.73,3.73,0,0,1,1.74,1.17,2.87,2.87,0,0,1,.61,1.86,3,3,0,0,1-.33,1.44,2.69,2.69,0,0,1-.87,1,3,3,0,0,1-1.17.47,2.73,2.73,0,0,1-1.21-.05,4.93,4.93,0,0,1,1.31.19,4.33,4.33,0,0,1,1.36.64,3.44,3.44,0,0,1,1.07,1.22,4,4,0,0,1,.42,1.93,4.6,4.6,0,0,1-.65,2.47,5.26,5.26,0,0,1-1.75,1.76,7.39,7.39,0,0,1-2.47,1,9.45,9.45,0,0,1-2.82.16,8.6,8.6,0,0,1-2.77-.73l0-.2a8.07,8.07,0,0,0,2.34-.3,5.91,5.91,0,0,0,1.95-.95,4.62,4.62,0,0,0,1.34-1.52,4,4,0,0,0,.49-2,3.1,3.1,0,0,0-.57-1.95A3.33,3.33,0,0,0,208,135a4.46,4.46,0,0,0-1.71-.34l0-.2A3.21,3.21,0,0,0,208,134a3.16,3.16,0,0,0,1.22-1.24,2.83,2.83,0,0,0,.34-1.75,2.15,2.15,0,0,0-.42-1.19,1.87,1.87,0,0,0-.89-.63,2.65,2.65,0,0,0-1.13-.12,2,2,0,0,0-1.7,1.05,6.12,6.12,0,0,0-.46,2.83h-.2l-1.14-3.46a5.75,5.75,0,0,1,2.06-1A10.17,10.17,0,0,1,208.61,128.06Z"/><path class="cls-2" d="M226.25,127.62l.08.14a12.8,12.8,0,0,0-3.35,1.48,5.54,5.54,0,0,0-1.77,1.86,6.51,6.51,0,0,0-.7,2.35,29,29,0,0,0-.14,3c0,1.11,0,2,.08,2.77a4.14,4.14,0,0,0,.4,1.66,1.11,1.11,0,0,0,1,.55,1.31,1.31,0,0,0,1.12-.49,2.77,2.77,0,0,0,.52-1.28,11.2,11.2,0,0,0,0-3.47,2.39,2.39,0,0,0-.35-.95,1.12,1.12,0,0,0-.52-.43,1.23,1.23,0,0,0-.84-.06,2.91,2.91,0,0,0-.66.28l-.16-.16a2.34,2.34,0,0,1,.89-1,3.57,3.57,0,0,1,1.39-.51,4,4,0,0,1,1.58.07,3.74,3.74,0,0,1,1.47.72,3.61,3.61,0,0,1,1.07,1.42,4.91,4.91,0,0,1,.36,2.21,5.06,5.06,0,0,1-.67,2.44,4.44,4.44,0,0,1-1.9,1.75,7.53,7.53,0,0,1-3.25.69,7.18,7.18,0,0,1-3.32-.67,4.53,4.53,0,0,1-2.06-2.17,8.92,8.92,0,0,1-.7-3.76,10.91,10.91,0,0,1,.64-3.83,6.93,6.93,0,0,1,1.94-2.81,7.57,7.57,0,0,1,3.25-1.59A13,13,0,0,1,226.25,127.62Z"/><circle class="cls-2" cx="200.51" cy="156.59" r="5.35"/><polyline class="cls-6" points="80.02 188.97 138.84 184.75 200.51 156.59 264.41 142.19 335.11 134.19"/><path class="cls-1" d="M821.18,93V86.68H800.84V93h-11v63.45h15.42V145h11.51v11.45h15.42V93Zm-21.54,44.62h-4.55v-7.39h4.55Zm0-14.92h-4.55v-7.39h4.55Zm0-14.93h-4.55v-7.38h4.55Zm9.09,29.85h-4.54v-7.39h4.54Zm0-14.92h-4.54v-7.39h4.54Zm0-14.93h-4.54v-7.38h4.54Zm9.1,29.85h-4.55v-7.39h4.55Zm0-14.92h-4.55v-7.39h4.55Zm0-14.93h-4.55v-7.38h4.55Zm9.09,29.85h-4.55v-7.39h4.55Zm0-14.92h-4.55v-7.39h4.55Zm0-14.93h-4.55v-7.38h4.55Z"/><path class="cls-1" d="M1014.12,126.69c-1.13-4-4.45-5.7-8.25-5.06-3.5.6-5.32,5-6.17,7.61.25-3.51-.4-8.38-4.58-10.66-6.39-3.47-10.43,2.75-10.83,3.56s-.41,1,.72.89a17.23,17.23,0,0,1,6.17-.33l1.35-1.25.63,1.77a7.09,7.09,0,0,1,4.66,6.2,10.65,10.65,0,0,0-8.3-3.92,10.46,10.46,0,0,0-10.6,10.31v.13a.55.55,0,0,0,1,.34,4.68,4.68,0,0,1,.65-.66,17.92,17.92,0,0,1,3.06-2.26l1-1.88,1.36.73a17.73,17.73,0,0,1,11-.7c-3.29-.22-8.23,1.49-10.19,5.66-2.43,5.18,0,9.29.31,9.61s.62.06.71-.4a22.67,22.67,0,0,1,1.79-5l-.42-1.67,1.14.3a18.84,18.84,0,0,1,6.47-6.94c-2.28,5-4.16,12.38-1.3,22.15h7s-7.14-6.91-3.43-21.09a23.82,23.82,0,0,1,2.69,4.4l1.08.14-.48,1.29a16.62,16.62,0,0,1,1.08,5.25c0,.49.3.84.45.53,2.29-4.87,1.57-9.85-1.63-12.76a10.28,10.28,0,0,1,5,4.15l1.53.33-.28,1.72a21.25,21.25,0,0,1,2,5.24c.09.45.34.75.63.23,1.74-3.1,2-9-1.18-12.31-2.45-2.53-6.75-2.69-9.41-2,1.74-2.93,6.41-3.15,6.41-3.15s.73-1.7.89-1.94,1.06,1.65,1.06,1.65l4.69,1.92s.6.41.72-.29A3.75,3.75,0,0,0,1014.12,126.69Z"/><path class="cls-1" d="M904.67,133.38v23.09h42.08V145h11.51v11.45h15.42V133.38Z"/><path class="cls-1" d="M879.86,125.31H861.48V121.1h-4.79v4.21h-4.35l-8.08,13.48H850V156.7h32.18V138.79h5.75ZM862.62,146.2h-4.56v-4.56h4.56Zm11.64,0h-4.57v-4.56h4.57Z"/><path class="cls-1" d="M554.12,117.2h37a2,2,0,0,0,1.87-2.6l-6.42-19.24A2,2,0,0,0,584.75,94H560.54a2,2,0,0,0-1.87,1.35l-6.41,19.24a2,2,0,0,0,.27,1.78A1.93,1.93,0,0,0,554.12,117.2Zm7.93-20.3H576l-17.19,9.81Z"/><path class="cls-1" d="M544.69,150.13a2,2,0,0,0-1.87-1.35H518.61a2,2,0,0,0-1.87,1.35l-6.42,19.25a2,2,0,0,0,1.87,2.59h37a2,2,0,0,0,1.87-2.59Zm-27.83,11.35,3.26-9.8H534Z"/><path class="cls-1" d="M588.2,150.13a2,2,0,0,0-1.88-1.35h-24.2a2,2,0,0,0-1.87,1.35l-6.42,19.25A2,2,0,0,0,555.7,172h37a2,2,0,0,0,1.87-2.59Zm-27.84,11.35,3.27-9.8h13.92Z"/><path class="cls-1" d="M638.12,169.38l-6.42-19.25a2,2,0,0,0-1.87-1.35H605.62a2,2,0,0,0-1.87,1.35l-6.41,19.25A2,2,0,0,0,599.2,172h37a2,2,0,0,0,1.87-2.59Zm-34.25-7.9,3.27-9.8h13.92Z"/><path class="cls-1" d="M520.57,179a2,2,0,0,0-1.87-1.35H494.49a2,2,0,0,0-1.87,1.35l-6.42,19.24a2,2,0,0,0,1.87,2.6h37a2,2,0,0,0,1.6-.82,2,2,0,0,0,.27-1.78Zm-27.84,11.35,3.27-9.81h13.92Z"/><path class="cls-1" d="M564.07,179a2,2,0,0,0-1.87-1.35H538a2,2,0,0,0-1.87,1.35l-6.41,19.24a2,2,0,0,0,1.86,2.6h37a2,2,0,0,0,1.87-2.6Zm-27.83,11.35,3.26-9.81h13.93Z"/><path class="cls-1" d="M651.09,179a2,2,0,0,0-1.88-1.35H625a2,2,0,0,0-1.87,1.35l-6.42,19.24a2,2,0,0,0,1.87,2.6h37a2,2,0,0,0,1.87-2.6Zm-27.84,11.35,3.27-9.81h13.92Z"/><path class="cls-1" d="M614,198.23,607.58,179a2,2,0,0,0-1.87-1.35H581.5a2,2,0,0,0-1.87,1.35l-6.42,19.24a2,2,0,0,0,1.87,2.6h37a2,2,0,0,0,1.87-2.6Zm-34.25-7.89,3.27-9.81h13.92Z"/><path class="cls-1" d="M531.6,144.53h37a2,2,0,0,0,1.87-2.59l-6.41-19.25a2,2,0,0,0-1.88-1.35H538a2,2,0,0,0-1.88,1.35l-6.41,19.25a2,2,0,0,0,1.87,2.59Zm7.93-20.3h13.92L536.26,134Z"/><path class="cls-1" d="M579.63,122.69l-6.42,19.25a2,2,0,0,0,1.87,2.59h37a2,2,0,0,0,1.6-.82,1.9,1.9,0,0,0,.27-1.77l-6.41-19.25a2,2,0,0,0-1.87-1.35H581.5A2,2,0,0,0,579.63,122.69Zm17.3,1.54L579.74,134l3.27-9.81Z"/></g></g></svg>