<svg id="pc" xmlns="http://www.w3.org/2000/svg" viewBox="0 0 1100 308.93"><defs><style>.cls-1,.cls-4{fill:none;stroke-miterlimit:10;}.cls-1{stroke:#e8314b;stroke-width:1.76px;}.cls-2{fill:#333;}.cls-3{fill:#e8314b;}.cls-4{stroke:#333;}</style></defs><line class="cls-1" x1="780.66" y1="308.93" x2="780.66"/><path class="cls-2" d="M348.33,252.06a20.76,20.76,0,0,1-2.26,2.73c-.11.11-.32-.15-.26-.26a39,39,0,0,0,3.61-8.94,25.32,25.32,0,0,0,.68-3.93c3.09.81,3.4.91,3.4,1.28s-.08.36-1,.65a30.42,30.42,0,0,1-2.73,6.29c1.45.21,1.66.29,1.66.57s-.18.39-.7.65v13.45c0,.75-.44,1.09-1.4,1.09s-1.15-.26-1.15-1,.16-2.73.16-6.84Zm6.34,9.37c0,1.68-.7,3-2,3a1.14,1.14,0,0,1-1.22-1.17c0-.62.26-1,1-1.3a2.45,2.45,0,0,0,1.72-2.13c0-.13.26-.16.29,0A7,7,0,0,1,354.67,261.43Zm1.38-16.05c1.87.57,2.76,1.35,2.76,2.47a1.11,1.11,0,0,1-1,1.09h4.23a12.12,12.12,0,0,0,.55-1.82,10.54,10.54,0,0,0,.29-1.66c2.21.68,2.88.91,2.88,1.17s-.15.34-.83.47a10.28,10.28,0,0,1-2.08,1.84h3.56c1.12-1.35,1.43-1.56,1.61-1.56s.52.21,1.59,1.1c.47.39.68.62.68.8s-.08.26-.34.26H353.82a12.53,12.53,0,0,0-1.88.16l-.28-1a11.41,11.41,0,0,0,2.1.2h3.51a.86.86,0,0,1-.72-.75,5.29,5.29,0,0,0-1.18-2.81h-.2a12.63,12.63,0,0,0-1.88.16l-.28-1a11.44,11.44,0,0,0,2.11.2h4.16V243.2c0-.5-.06-1-.11-1.59,3,.26,3.3.52,3.3.78s-.26.42-.78.68v1.71h3.77c1.1-1.32,1.41-1.53,1.59-1.53s.52.21,1.64,1.07c.49.41.7.62.7.8s-.08.26-.34.26Zm.05,12.25c-.07.49-.52.73-1.3.73s-1.06-.29-1.06-.94c0-.42.08-.86.08-2.6,0-1.51,0-3-.16-4.55a20.67,20.67,0,0,1,2.73,1.22h8.11c.86-1,1.07-1.12,1.28-1.12s.49.16,1.37.84c.42.31.58.49.58.7s-.16.39-.68.75v.78c0,2.08.05,3.51.05,4,0,.7-.47,1-1.45,1-.65,0-.94-.23-.94-.81v0Zm8.61-5.54h-8.58v2.18h8.58Zm0,2.78h-8.58V257h8.58Zm.18,7.39c0,.33.08.46.31.54.63.16.81.37.81.86s-.39.91-1.22,1.17a15.93,15.93,0,0,1-4.16.39c-3.33,0-4.4-.44-4.4-1.82,0-.55.06-1.12.06-3.38a5.71,5.71,0,0,0-.11-1.14c2.65.28,2.89.34,2.89.7s-.24.44-.7.57v2.26c0,.73.36.89,2.47.89a7,7,0,0,0,2.26-.19c.73-.28,1-.91,1.53-2.65.05-.13.26-.1.26,0Zm-3.33-.29c-.59,0-.67-.1-1.06-1.4a4.77,4.77,0,0,0-1.07-1.88c-.08-.1,0-.2.11-.18,2.21.39,3.22,1.09,3.22,2.21A1.2,1.2,0,0,1,361.56,262Zm7.13,2.16c-.68,0-.91-.29-1.17-1.56a5.42,5.42,0,0,0-1.43-2.81c-.11-.08,0-.29.13-.23,2.57.83,3.69,1.74,3.69,3.12A1.31,1.31,0,0,1,368.69,264.13Z"/><path class="cls-2" d="M381.84,264.36c0,.65-.57,1-1.58,1-.81,0-1.12-.23-1.12-.88,0-2.34.15-4.68.15-14.07,0-2.7,0-5.4-.15-8.13l2.94,1.43h14.69c1-1.1,1.17-1.25,1.38-1.25s.46.15,1.48,1c.44.39.6.57.6.78s-.16.39-.68.78v2.86c0,12.66.08,13.15.08,14.66,0,1.3-.34,1.9-1.22,2.31a5.32,5.32,0,0,1-1.72.39c-.44,0-.55-.18-.62-.7-.13-.88-.65-1.53-3.07-2.05-.13,0-.11-.31,0-.31,1.38.05,2.66.07,3.49.07.36,0,.44-.1.44-.46v-8.51H381.84ZM388,252.64v-8.38h-6.14v8.38Zm9-8.38h-6.4v8.38H397Z"/><path class="cls-3" d="M63.75,218.09l-6.7-18a25.44,25.44,0,0,1,7.25-4.3,47.86,47.86,0,0,1,9.2-2.6,54.43,54.43,0,0,1,9.75-.9,41.21,41.21,0,0,1,14.6,2.45,23.92,23.92,0,0,1,10.25,7,16.83,16.83,0,0,1,3.75,11,20.34,20.34,0,0,1-2,9,32.91,32.91,0,0,1-5.35,7.8,59,59,0,0,1-7.2,6.65q-3.9,3.06-7.7,5.5t-6.8,4.35h19a12.64,12.64,0,0,0,5.45-1.15,13.92,13.92,0,0,0,4.5-3.45,25,25,0,0,0,3.75-5.9h1l-6.8,28.1h-52v-1q4.31-5.29,8.85-10.6t8.8-10.55A128.81,128.81,0,0,0,83,231.09a56.75,56.75,0,0,0,5.4-10.3,27.56,27.56,0,0,0,2-10.1q0-6.49-3.45-10.2t-9.35-3.2A11.72,11.72,0,0,0,68,203q-3.25,5.25-3.25,15.05Z"/><path class="cls-3" d="M126.65,248.79a8.15,8.15,0,0,1,5.1-1.65,11.25,11.25,0,0,1,5.35,1.5,8.71,8.71,0,0,1,3.75,4.25,16.19,16.19,0,0,1,1.4,8.95,18.27,18.27,0,0,1-3.15,8.2,16.88,16.88,0,0,1-6.4,5.55,12.71,12.71,0,0,1-8.35,1l-.4-1.3a8.28,8.28,0,0,0,3.2-2.65,7,7,0,0,0,1.35-4.45c0-1.73-1-3.6-2.75-5.6a9.66,9.66,0,0,1-2.25-4.75,10.34,10.34,0,0,1,.4-5.15A7.81,7.81,0,0,1,126.65,248.79Z"/><path class="cls-3" d="M193.65,210.49,163,213l-1.9,8.3a48.55,48.55,0,0,1,17-1.4,28.14,28.14,0,0,1,12.4,4.25,20.62,20.62,0,0,1,7.4,8.55,24.57,24.57,0,0,1,2.1,11.6,23.39,23.39,0,0,1-4.1,12.8,28.42,28.42,0,0,1-9.75,8.65,42.26,42.26,0,0,1-12.95,4.5,45.11,45.11,0,0,1-13.85.35,37.49,37.49,0,0,1-12.45-3.8l.2-1a33.63,33.63,0,0,0,6.4-.5,49.22,49.22,0,0,0,8-2,36,36,0,0,0,7.85-3.75,22.06,22.06,0,0,0,6.1-5.65,14.62,14.62,0,0,0,2.7-7.8q.39-5.7-3.1-9t-9.55-3.6a31.82,31.82,0,0,0-13.65,2.75l-.9-.6,8.3-38.4,29.8-2.5a7.93,7.93,0,0,0,5-1.4,10.35,10.35,0,0,0,2.9-3.6h1Z"/><path class="cls-3" d="M211.75,213.19A19.31,19.31,0,0,1,215,201.84a20.56,20.56,0,0,1,8.85-7.1,30.91,30.91,0,0,1,12.5-2.45,34.9,34.9,0,0,1,12.25,2.1,22.56,22.56,0,0,1,9.1,6,13,13,0,0,1,3.45,8.95,10.93,10.93,0,0,1-3,7.85,18.42,18.42,0,0,1-7.5,4.7,27.63,27.63,0,0,1-9.1,1.55h-3.4a6.4,6.4,0,0,0,3.95-3.55,21.43,21.43,0,0,0,2-6.3,31.82,31.82,0,0,0,.45-5.95,12.23,12.23,0,0,0-2.25-7.05,7.81,7.81,0,0,0-6.25-3.15,6.59,6.59,0,0,0-5.75,2.25,9.26,9.26,0,0,0-2.05,6.15,8.59,8.59,0,0,0,1.35,4.85,16,16,0,0,0,4.55,4.2q3.19,2.16,8.9,5.25,4.8,2.5,8.95,4.75a50.75,50.75,0,0,1,7.35,4.8,18.57,18.57,0,0,1,4.95,5.9,17.53,17.53,0,0,1,1.75,8.15,18.1,18.1,0,0,1-3.9,11.8,23.4,23.4,0,0,1-10.95,7.2,51.1,51.1,0,0,1-16.45,2.4,61.4,61.4,0,0,1-9.5-.75,33.47,33.47,0,0,1-8.85-2.6,16,16,0,0,1-6.5-5.25,14.45,14.45,0,0,1-2.45-8.7,15.47,15.47,0,0,1,2-8,16.63,16.63,0,0,1,4.95-5.35,27.68,27.68,0,0,1,6.2-3.2,32,32,0,0,1,5.85-1.55,30.21,30.21,0,0,1,3.75-.4l4.8-1.1a14.58,14.58,0,0,0-7.6,5.45q-3,4.05-3,11.15t3,10.9a11.21,11.21,0,0,0,8.2,4.4,13.81,13.81,0,0,0,6-.7,9.74,9.74,0,0,0,4.4-3.05,7.19,7.19,0,0,0,1.65-4.65,7.4,7.4,0,0,0-.75-3.25,11.08,11.08,0,0,0-2.55-3.2,33.86,33.86,0,0,0-4.85-3.55q-3.06-1.89-7.65-4.2c-1.8-.93-3.84-2-6.1-3.3a39.25,39.25,0,0,1-6.6-4.65,22.35,22.35,0,0,1-5.3-6.8A20.47,20.47,0,0,1,211.75,213.19Z"/><path class="cls-3" d="M275.35,213.19a19.31,19.31,0,0,1,3.25-11.35,20.56,20.56,0,0,1,8.85-7.1,30.91,30.91,0,0,1,12.5-2.45,34.9,34.9,0,0,1,12.25,2.1,22.56,22.56,0,0,1,9.1,6,13,13,0,0,1,3.45,8.95,10.93,10.93,0,0,1-3,7.85,18.42,18.42,0,0,1-7.5,4.7,27.63,27.63,0,0,1-9.1,1.55h-3.4a6.4,6.4,0,0,0,3.95-3.55,21.43,21.43,0,0,0,2-6.3,31.82,31.82,0,0,0,.45-5.95,12.23,12.23,0,0,0-2.25-7.05,7.81,7.81,0,0,0-6.25-3.15,6.59,6.59,0,0,0-5.75,2.25,9.26,9.26,0,0,0-2,6.15,8.59,8.59,0,0,0,1.35,4.85,16,16,0,0,0,4.55,4.2q3.19,2.16,8.9,5.25,4.8,2.5,9,4.75a50.75,50.75,0,0,1,7.35,4.8,18.57,18.57,0,0,1,4.95,5.9,17.53,17.53,0,0,1,1.75,8.15,18.1,18.1,0,0,1-3.9,11.8,23.4,23.4,0,0,1-10.95,7.2,51.1,51.1,0,0,1-16.45,2.4,61.4,61.4,0,0,1-9.5-.75,33.47,33.47,0,0,1-8.85-2.6,16,16,0,0,1-6.5-5.25,14.45,14.45,0,0,1-2.45-8.7,15.47,15.47,0,0,1,1.95-8,16.63,16.63,0,0,1,4.95-5.35,27.68,27.68,0,0,1,6.2-3.2,32,32,0,0,1,5.85-1.55,30.21,30.21,0,0,1,3.75-.4l4.8-1.1a14.58,14.58,0,0,0-7.6,5.45q-3,4.05-3,11.15t3,10.9a11.21,11.21,0,0,0,8.2,4.4,13.81,13.81,0,0,0,6.05-.7,9.74,9.74,0,0,0,4.4-3.05,7.19,7.19,0,0,0,1.65-4.65,7.4,7.4,0,0,0-.75-3.25,11.08,11.08,0,0,0-2.55-3.2,33.86,33.86,0,0,0-4.85-3.55q-3.06-1.89-7.65-4.2c-1.8-.93-3.84-2-6.1-3.3a39.25,39.25,0,0,1-6.6-4.65,22.35,22.35,0,0,1-5.3-6.8A20.47,20.47,0,0,1,275.35,213.19Z"/><path class="cls-2" d="M53.54,61.75c0,1.22,0,1.91,0,2.52,0,.43-.31.61-1,.61-.41,0-.65-.14-.65-.48s.09-2.38.11-3.93a10.57,10.57,0,0,1-3.58,2.86c-.07,0-.2-.14-.13-.19a13.82,13.82,0,0,0,3.42-5H50.12a5.43,5.43,0,0,0-1,.11l-.19-.67a4.75,4.75,0,0,0,1.17.14h2v-.57A17.43,17.43,0,0,0,52,55.38c1.46.09,2.13.23,2.13.46s-.13.33-.56.51v1.38h.83c.57-.72.79-.86.92-.86s.36.14,1,.61c.25.2.4.36.4.49s-.06.18-.24.18H53.54v1.06c1.62.2,2.66.87,2.66,1.73a.74.74,0,0,1-.73.81.66.66,0,0,1-.67-.52,3.45,3.45,0,0,0-1.26-1.71Zm4.25-10.46a8.81,8.81,0,0,0,2.72,1.65,16.27,16.27,0,0,0,4.44,1c.09,0,.08.18,0,.21a1.88,1.88,0,0,0-1.08,1c-.2.5-.33.63-.47.63a2.74,2.74,0,0,1-.92-.29A18,18,0,0,1,59.86,54a11.24,11.24,0,0,1-2.2-2.25c0,1.55.07,2.9.07,3.69,0,.47-.39.63-1,.63s-.72-.18-.72-.54.06-1.74.08-3A16,16,0,0,1,49.31,56c-.09,0-.16-.14-.09-.18a16.57,16.57,0,0,0,5.85-4.55H51.22A7.21,7.21,0,0,0,50,51.4l-.2-.67a6.33,6.33,0,0,0,1.33.14H56v-.82c0-.65,0-1.12-.07-1.68,2.11.22,2.29.31,2.29.58s-.17.34-.6.52v1.4h3.73c.92-1.11,1.13-1.26,1.26-1.26s.36.13,1.22.87c.42.34.58.5.58.63s0,.18-.23.18Zm3.06,10.5c0,1,0,1.81,0,2.41,0,.45-.3.65-.91.65s-.69-.17-.69-.53.05-2.3.09-4a12.84,12.84,0,0,1-4.46,3.41c-.08,0-.2-.17-.13-.22a13.43,13.43,0,0,0,4.12-5.31H58a4.85,4.85,0,0,0-1,.11l-.2-.67a5.22,5.22,0,0,0,1.21.14h1.33V57c0-.53,0-1.08-.07-1.7,1.56.11,2.14.24,2.14.49s-.14.31-.54.5v1.44H62.4c.68-.84.9-1,1-1s.36.15,1.08.69c.33.27.47.41.47.54s0,.18-.23.18H61a7.79,7.79,0,0,0,1.84,2.25,7.92,7.92,0,0,0,2.66,1.44.1.1,0,0,1,0,.18,1.86,1.86,0,0,0-1,1.15c-.08.22-.15.29-.29.29s-.22-.07-.45-.27a10.63,10.63,0,0,1-1.53-1.73,11.21,11.21,0,0,1-1.37-2.88Z"/><path class="cls-2" d="M77.73,55.63c1.08.45,1.68,1,1.68,1.82a.9.9,0,0,1-.78.95,1.24,1.24,0,0,1-1-.52,9.54,9.54,0,0,0-1.29-1.32,5.48,5.48,0,0,0-1.88-1v3.13c0,.76,0,2.41.08,4.36,0,.68-.31.84-.67.84a.84.84,0,0,1-.76-.41A3.14,3.14,0,0,1,72.73,62a1.63,1.63,0,0,1,.09-.52.73.73,0,0,0,.09-.31c0-.24,0-.74.07-4,0-1.71,0-3.25,0-4.94a9.68,9.68,0,0,0-.07-1.53.87.87,0,0,0-.38-.41A2.85,2.85,0,0,0,71.9,50c-.13,0-.18-.09-.18-.16s.13-.2.23-.27a1.09,1.09,0,0,1,.51-.16,4.39,4.39,0,0,1,1.82.48c.48.22.72.51.72.85a.77.77,0,0,1-.31.57.61.61,0,0,0-.13.36c0,.51-.09,1.57-.09,3.25A9.86,9.86,0,0,1,77.73,55.63Z"/><path class="cls-2" d="M89.32,53.93c1.08-.12,2.58-.26,4.87-.52a1.23,1.23,0,0,0,.63-.25,1,1,0,0,1,.52-.16,3,3,0,0,1,1.4.84c.4.37.43.53.43.74s-.19.33-.37.42-.36.23-.65.77a19.39,19.39,0,0,1-2.81,4,16.68,16.68,0,0,1-5.91,4.18A1.37,1.37,0,0,1,87,64a.17.17,0,0,1-.18-.18c0-.09.14-.16.25-.25a20.79,20.79,0,0,0,5.2-5,16.86,16.86,0,0,0,2.25-3.78,1.88,1.88,0,0,0,.13-.38c0-.06,0-.06-.13-.06l-.28,0c-1.93.18-3.35.42-5.15.72a3.46,3.46,0,0,0-1.08.31,1.25,1.25,0,0,1-.58.18c-.29,0-.5-.09-1-.58a2.16,2.16,0,0,1-.7-1.31c0-.31.09-.51.18-.51s.1,0,.27.18a1.74,1.74,0,0,0,1.46.67C87.92,54.08,88.69,54,89.32,53.93Zm.87-3.43c.66-.09,1.4-.22,2.19-.4a4.57,4.57,0,0,0,.82-.29,2.13,2.13,0,0,1,.7-.16c.79,0,1.56.41,1.56.81a.53.53,0,0,1-.36.59,6.36,6.36,0,0,1-1.09.2c-.76.11-2.71.33-4.13.49-.36,0-.65,0-.86,0-.65,0-1-.25-1.55-1a1.12,1.12,0,0,1-.25-.77c0-.13,0-.2.11-.2s.1.06.19.13a2.21,2.21,0,0,0,1.7.63C89.5,50.57,89.85,50.53,90.19,50.5Z"/><path class="cls-2" d="M113.66,58.13a11.27,11.27,0,0,1,1.73,1.1c1.08.83,1.51,1.53,1.51,2.05a.9.9,0,0,1-.83,1,1.17,1.17,0,0,1-1.11-.61A15.08,15.08,0,0,0,112.87,59a10.83,10.83,0,0,0-1.8-1.39,20.42,20.42,0,0,1-4.41,3.53,15.84,15.84,0,0,1-3.08,1.42,1,1,0,0,1-.4.09c-.09,0-.18,0-.18-.16a.27.27,0,0,1,.13-.2,21.85,21.85,0,0,0,5.63-4.35,27,27,0,0,0,3.66-4.77.68.68,0,0,0,.11-.22c0-.06-.06-.07-.24-.06-1.26.15-2.88.42-4.3.73a2.59,2.59,0,0,0-.83.28,1.06,1.06,0,0,1-.63.2c-.34,0-.7-.22-1.2-.84a1.54,1.54,0,0,1-.38-1.16c0-.34.12-.47.23-.47s.13.08.25.22c.51.56.71.68,1.25.68.21,0,.66,0,1.36-.1,1.48-.17,2.69-.33,4-.51a1.3,1.3,0,0,0,.72-.27.68.68,0,0,1,.52-.2c.34,0,.57.17,1,.49.54.47.76.76.76,1s-.06.36-.6.54c-.16,0-.27.2-.43.43a27.87,27.87,0,0,1-2.45,3.24A23.15,23.15,0,0,1,113.66,58.13Z"/><path class="cls-2" d="M130.13,55.63c1.08.45,1.68,1,1.68,1.82a.9.9,0,0,1-.78.95,1.22,1.22,0,0,1-1-.52,9.54,9.54,0,0,0-1.29-1.32,5.48,5.48,0,0,0-1.88-1v3.13c0,.76,0,2.41.07,4.36,0,.68-.3.84-.66.84a.84.84,0,0,1-.76-.41,3,3,0,0,1-.39-1.42,1.63,1.63,0,0,1,.09-.52.73.73,0,0,0,.09-.31c0-.24,0-.74.07-4,0-1.71,0-3.25,0-4.94a9.68,9.68,0,0,0-.07-1.53.87.87,0,0,0-.38-.41,2.85,2.85,0,0,0-.63-.29c-.13,0-.18-.09-.18-.16s.12-.2.23-.27a1.05,1.05,0,0,1,.51-.16,4.32,4.32,0,0,1,1.81.48c.49.22.72.51.72.85a.76.76,0,0,1-.3.57.61.61,0,0,0-.13.36c0,.51-.09,1.57-.09,3.25A9.91,9.91,0,0,1,130.13,55.63Z"/><path class="cls-2" d="M149.54,53.38a.65.65,0,0,1-.47.61c-.29.13-.38.32-.56.61a30.7,30.7,0,0,1-4.16,5.4,15.71,15.71,0,0,1-5.83,3.93,1.31,1.31,0,0,1-.42.11c-.1,0-.18,0-.18-.17s.09-.18.31-.32a22.77,22.77,0,0,0,5.26-4.61A24.52,24.52,0,0,0,147,53.5a.52.52,0,0,0,.06-.18.09.09,0,0,0-.09-.07c-.43,0-1,.2-1.82.34a7.57,7.57,0,0,1-1,.18,2.87,2.87,0,0,1-1-.3,20.42,20.42,0,0,1-2.15,2.41,17.07,17.07,0,0,1-2.61,2c-.32.2-.46.27-.57.27s-.22-.07-.22-.2.25-.32.68-.76a24.3,24.3,0,0,0,2.24-2.61c.5-.66,1-1.38,1.46-2.14a3.72,3.72,0,0,0,.59-1.39c0-.3-.31-.52-.65-.7-.16-.09-.21-.14-.21-.21s.23-.29.59-.29a3.72,3.72,0,0,1,1.76.65c.56.34.67.57.67.84a.81.81,0,0,1-.4.56,3.77,3.77,0,0,0-.73.9,1.06,1.06,0,0,0,.27,0,12.18,12.18,0,0,0,1.4-.2c.74-.13,1.21-.23,1.44-.29a.73.73,0,0,0,.38-.21.75.75,0,0,1,.47-.26c.43,0,.83.22,1.46.8A1.14,1.14,0,0,1,149.54,53.38Zm.91-2.45a1.34,1.34,0,0,1,.67,1.08.6.6,0,0,1-.59.63.65.65,0,0,1-.62-.42,6.58,6.58,0,0,0-1.13-1.58c-.07-.07-.2-.16-.2-.23s.09-.13.22-.13a1.46,1.46,0,0,1,.41.07A3.31,3.31,0,0,1,150.45,50.93Zm1.66-1.24a1.08,1.08,0,0,1,.65.91.6.6,0,0,1-.56.67.67.67,0,0,1-.66-.4,4.55,4.55,0,0,0-1.27-1.4c-.07,0-.21-.14-.21-.22a.14.14,0,0,1,.14-.14,3,3,0,0,1,.47,0A4.25,4.25,0,0,1,152.11,49.69Z"/><path class="cls-2" d="M160.68,53.7c-.15-.05-.24-.07-.24-.16s.34-.38.7-.38a4.28,4.28,0,0,1,1.91.7c.45.29.54.54.54.78a.53.53,0,0,1-.25.47,1.2,1.2,0,0,0-.31.61,14.17,14.17,0,0,1-1.47,3.35,9.36,9.36,0,0,1-3.64,3.35,1.06,1.06,0,0,1-.36.14c-.11,0-.16-.05-.16-.18s0-.13.18-.25A10.88,10.88,0,0,0,160.12,59a14.63,14.63,0,0,0,1.24-3.14,5.11,5.11,0,0,0,.22-1.27C161.58,54.19,161.16,53.9,160.68,53.7Zm4.1-1.15a1.39,1.39,0,0,0-.83-.65c-.14,0-.21-.07-.21-.2s.32-.39.75-.39a3.27,3.27,0,0,1,1.64.63c.33.19.72.5.72.91a.66.66,0,0,1-.25.51.63.63,0,0,0-.14.43c0,1.21-.06,2.31-.09,4.07v1.33c0,.16,0,.24.09.24a1.3,1.3,0,0,0,.43-.15,22.65,22.65,0,0,0,5.94-3.49c.22-.18.32-.29.45-.29a.16.16,0,0,1,.18.16.52.52,0,0,1-.14.26,21.07,21.07,0,0,1-6.36,5.2.87.87,0,0,0-.36.38.48.48,0,0,1-.41.25,1.48,1.48,0,0,1-.9-.58,1.9,1.9,0,0,1-.51-1.08,1.42,1.42,0,0,1,.05-.3,4.94,4.94,0,0,0,.09-1.1c0-1.44,0-2.67,0-4.95A3.69,3.69,0,0,0,164.78,52.55Z"/><path class="cls-2" d="M192.23,57.41c-.56,0-1.78-.09-2.66-.09-1.42,0-4.52.07-6.74.27a5.13,5.13,0,0,0-1.78.34.76.76,0,0,1-.48.15c-.47,0-.89-.44-1.45-1.25a1.44,1.44,0,0,1-.34-1c0-.29.11-.43.22-.43a.5.5,0,0,1,.23.16,1.79,1.79,0,0,0,1.52.69c.48,0,.82,0,1.89-.09,2.23-.15,4.61-.26,6.37-.29a3.56,3.56,0,0,0,1.4-.25,1.22,1.22,0,0,1,.51-.15,2.21,2.21,0,0,1,.81.18c.68.29,1.15.56,1.15,1A.68.68,0,0,1,192.23,57.41Z"/><path class="cls-2" d="M201.79,54a1.61,1.61,0,0,0-.63.25,1,1,0,0,1-.52.13c-.31,0-.65-.24-1.08-.78s-.6-.84-.6-1.26.09-.54.2-.54.16.07.31.22a1.68,1.68,0,0,0,1.56.72l1.33-.07c1.77-.17,3.57-.33,5.21-.53a1.49,1.49,0,0,0,.81-.25.8.8,0,0,1,.47-.21,1.72,1.72,0,0,1,1.17.52c.65.49.81.74.81,1.15a.6.6,0,0,1-.38.47,1.72,1.72,0,0,0-.78.86,19.54,19.54,0,0,1-3.42,4.79,15.74,15.74,0,0,1-5.94,3.89.89.89,0,0,1-.27.06c-.16,0-.23,0-.23-.2s.09-.16.29-.29a18.5,18.5,0,0,0,5.09-4.47A26.83,26.83,0,0,0,208,53.86a1.45,1.45,0,0,0,.23-.61c0-.07-.09-.09-.18-.09s-.36,0-.75.07C205.5,53.43,203.39,53.68,201.79,54Zm11.43-3.48A1.5,1.5,0,1,1,211.73,49,1.49,1.49,0,0,1,213.22,50.51Zm-2.48,0a1,1,0,1,0,1-1A1,1,0,0,0,210.74,50.51Z"/><path class="cls-2" d="M55.41,83.4c-.09,4.12-1.78,6-6.57,6.86-.09,0-.16-.23-.07-.27,3.73-1.44,4.86-3,4.86-6.86,0-.2,0-.4,0-.77,2,.18,2.4.28,2.4.61S55.86,83.26,55.41,83.4Zm6.93-2.18c.69-.83.83-.93,1-.93s.3.1,1.17.93c.37.36.48.51.48.65,0,.32-.11.43-.81.43a.6.6,0,0,0-.5.18A13,13,0,0,1,62,83.62c-.07,0-.22-.06-.18-.13a7.3,7.3,0,0,0,.75-1.86H51.23c0,1.39-.63,2.42-1.71,2.42a.77.77,0,0,1-.79-.79c0-.4.18-.67.69-1a2.34,2.34,0,0,0,1.4-2.18c0-.09.18-.11.2,0a5.08,5.08,0,0,1,.2,1.12Zm-4.8-2.29h3.17c.84-1,1.06-1.13,1.18-1.13s.36.14,1.16.79c.34.29.48.45.48.58s-.05.18-.23.18H52a7.43,7.43,0,0,0-1.23.11l-.2-.67a6.55,6.55,0,0,0,1.37.14h3.84V76.79H50.44a9.34,9.34,0,0,0-1.28.11L49,76.23a7,7,0,0,0,1.4.15h5.44v-.76a14.85,14.85,0,0,0-.11-1.76c2.25.19,2.47.39,2.47.59s-.2.31-.63.45v1.48H62c.87-1,1.08-1.17,1.21-1.17s.36.14,1.22.81c.4.32.54.47.54.59s0,.18-.23.18H57.54ZM59.3,87.7c0,.51.16.65,1.66.65a5.28,5.28,0,0,0,1.76-.16c.54-.16.85-.85,1.39-2.63,0-.09.21-.09.21,0,0,.65,0,1.44,0,2,0,.23,0,.28.14.34.49.23.62.47.62.77s-.24.78-.85,1a13.26,13.26,0,0,1-3.42.29c-2.61,0-3.17-.25-3.17-1.6v-3c0-1,0-2-.05-3,2.3.33,2.3.33,2.3.6s-.12.29-.54.45Z"/><path class="cls-2" d="M78.83,88.8h4.38c1-1.31,1.26-1.46,1.38-1.46s.36.15,1.42,1c.49.4.63.56.63.69s0,.18-.23.18H72.53a11.82,11.82,0,0,0-1.73.1l-.2-.66a12.61,12.61,0,0,0,1.91.14H77v-12a23.17,23.17,0,0,0-.11-2.54c2.37.2,2.59.4,2.59.59s-.22.36-.63.51v5.42h2.94c1-1.28,1.18-1.43,1.31-1.43s.36.15,1.37,1c.45.37.59.54.59.66s-.05.18-.23.18h-6Z"/><path class="cls-2" d="M99.17,74.76a6.46,6.46,0,0,0-.09-1.06c2.25.19,2.47.39,2.47.59s-.24.34-.63.5v1.08h4.39c1-1.08,1.21-1.22,1.33-1.22s.34.14,1.19.85c.38.32.52.48.52.61s0,.18-.23.18H93.68a7.67,7.67,0,0,0-1.26.11l-.2-.67a7.31,7.31,0,0,0,1.44.14h5.51Zm6.27,7.72c.61-.66.75-.77.9-.77s.32.11,1,.65c.31.27.42.39.42.54s-.15.34-.58.55v.89c0,2.88.06,3.58.06,4.43a1.25,1.25,0,0,1-.69,1.31,2.28,2.28,0,0,1-1.15.31c-.23,0-.32-.06-.41-.51s-.35-.79-1.59-1.2c-.09,0-.09-.22,0-.22.83.07,1.33.11,1.93.11.18,0,.23-.06.23-.24V82.9H94.78v6.68c0,.55-.29.77-1,.77-.54,0-.72-.18-.72-.68,0-1,0-2,0-6,0-.7,0-1.41,0-2.11a10.9,10.9,0,0,1,1.85.9Zm-8.3-1.55v.15c0,.47-.33.66-1,.66-.48,0-.68-.16-.68-.63s0-.9,0-2.7c0-.48,0-1,0-1.46a14,14,0,0,1,1.78.87h5.66c.55-.69.7-.79.84-.79s.34.1,1,.61c.31.23.42.36.42.5s-.13.29-.49.49V79c0,1,0,1.71,0,1.92,0,.56-.27.78-1,.78-.51,0-.69-.16-.69-.63v-.15Zm1.08,6.52v.43c0,.51-.26.69-1,.69-.5,0-.65-.15-.65-.6s0-.81,0-2.46c0-.6,0-1.21-.07-1.82.81.34.93.39,1.76.79h3.48c.54-.58.68-.68.83-.68s.32.1.95.63c.27.23.38.36.38.5s-.09.29-.47.54v.34c0,.92,0,1.55,0,1.75,0,.47-.27.67-.91.67s-.71-.13-.71-.53v-.25ZM103,78.23h-5.9v2.29H103Zm-1.1,6.66H98.22V87h3.72Z"/><path class="cls-2" d="M922.11,198.7c1.43-1.72,1.74-1.93,1.92-1.93s.52.21,1.9,1.33c.62.52.83.75.83.94s-.08.26-.34.26h-9c0,2.78.08,5.3.08,6.42,0,.78-.52,1.12-1.56,1.12-.75,0-1.14-.24-1.14-.91s.1-2.68.1-6.63H905.7a14.74,14.74,0,0,0-1.92.15l-.29-1a11,11,0,0,0,2.13.21h2.29v-3.57c0-1.29,0-2.59-.1-3.89a17.44,17.44,0,0,1,2.73,1.24h4.31V187.7H910a17.48,17.48,0,0,1-5.85,5.69c-.1.08-.36-.13-.26-.23a22.68,22.68,0,0,0,4.5-7.44,13.72,13.72,0,0,0,.83-3c2.76.81,3.46,1.12,3.46,1.56s-.31.47-1.12.57c-.39.81-.78,1.54-1.19,2.24h11c1.35-1.59,1.66-1.79,1.85-1.79s.52.2,1.84,1.24c.6.5.81.71.81.89s-.08.26-.34.26h-8.24v4.78h3.07c1.32-1.51,1.53-1.66,1.74-1.66s.49.15,1.77,1.14c.59.47.75.65.75.86s-.1.26-.39.26h-6.94V194c0,1.51,0,3.12,0,4.68Zm-7.26-5.62h-4.5v5.62h4.5Z"/><path class="cls-2" d="M860.7,242.2c.54-1,.93-1.9,1.25-2.68a14.31,14.31,0,0,0,.57-2c2.21.68,3.33,1.2,3.33,1.54s-.34.52-1.17.52a22.16,22.16,0,0,1-2.94,2.65h4.86c1.33-1.51,1.64-1.72,1.82-1.72s.52.21,1.77,1.2c.57.47.78.68.78.86s-.08.26-.34.26H849.91a14.1,14.1,0,0,0-1.9.15l-.29-1a11.07,11.07,0,0,0,2.14.21ZM851.65,254c0,3.15.05,4.76.05,6.37,0,.7-.44,1-1.4,1-.81,0-1.12-.21-1.12-.83,0-1.43.13-2.89.13-8.68,0-2.5,0-5-.08-7.52a11.9,11.9,0,0,1,2.6,1.2H856c.86-1,1.07-1.15,1.28-1.15s.47.16,1.38.89c.39.34.54.52.54.73s-.15.36-.7.72v2c0,8.35.08,9.52.08,10.32a2.1,2.1,0,0,1-.65,1.67,2.8,2.8,0,0,1-1.87.54c-.29,0-.39-.13-.45-.49-.15-.88-.41-1.3-2.41-1.9-.13,0-.11-.31,0-.31,1,.05,1.82.1,2.68.1.21,0,.26-.07.26-.41V254Zm4.55-7.9h-4.55v3.27h4.55Zm0,3.87h-4.55v3.43h4.55Zm-.49-8.09c-.68,0-.94-.28-1.15-1.19a6.52,6.52,0,0,0-1.25-2.76c-.07-.1.06-.28.19-.26,2.41.63,3.53,1.51,3.53,2.78A1.33,1.33,0,0,1,855.71,241.91Zm8,6.32c0,3.72.06,6.27.06,7.1s-.47,1.07-1.49,1.07c-.8,0-1-.16-1-1s.05-3.12.05-7.8a21.87,21.87,0,0,0-.11-2.32c2.86.37,3.36.5,3.36.84s-.29.46-.89.7Zm2.81-1.45a15.08,15.08,0,0,0-.13-2.27c3.12.37,3.38.45,3.38.89,0,.26-.26.44-.86.67v6.84c0,1.35.11,4.45.11,5.93a2.38,2.38,0,0,1-.39,1.4,2.44,2.44,0,0,1-2.21,1c-.6,0-.63-.05-.76-.65-.18-.8-.65-1.25-2.8-1.84-.13,0-.13-.32,0-.32,1.11.08,2.36.13,3,.13s.65-.05.65-.39Z"/><path class="cls-2" d="M880.28,248.05a23.66,23.66,0,0,1-2.27,2.68c-.1.1-.31-.16-.26-.26a37.44,37.44,0,0,0,3.7-9,25.52,25.52,0,0,0,.67-3.9c3,.78,3.36.91,3.36,1.27s-.08.37-1,.65a28.4,28.4,0,0,1-2.73,6.24c1.35.21,1.53.31,1.53.57s-.18.39-.7.65v13.45c0,.75-.47,1.09-1.38,1.09s-1.09-.26-1.09-1,.16-2.73.16-6.84Zm9.77,8.27a36.14,36.14,0,0,0,4.19-.89c.13,0,.23.26.13.32a41,41,0,0,1-8.76,3.35c-.08.7-.24,1-.55,1s-.52-.37-1.35-3.07a12.87,12.87,0,0,0,1.64-.08c.72-.05,1.58-.15,2.49-.28v-4.58h-2.08a7.22,7.22,0,0,0-1.4.16l-.29-1a6.94,6.94,0,0,0,1.69.21h2.08v-.91c0-1.06-.05-2.08-.1-3,2.81.26,3.07.52,3.07.78s-.26.5-.76.65v2.47h1.15c.8-1.12,1.11-1.32,1.3-1.32s.49.2,1.32.93c.34.31.55.55.55.73s-.08.26-.34.26h-4Zm-.18-15.73a25,25,0,0,1-2.86,5c1.66,0,3.33-.1,5-.26a8.13,8.13,0,0,0-1.23-2.78c-.07-.11.13-.26.24-.21,2.34,1.3,3.53,2.6,3.53,3.87a1.38,1.38,0,0,1-1.27,1.49c-.62,0-.86-.34-1.07-1.51l0-.16a33.1,33.1,0,0,1-6.55,1.74c-.16.5-.32.71-.6.71s-.5-.39-1.15-2.89c.58,0,1,0,1.28,0h1.06a45.69,45.69,0,0,0,.94-5h-.65a8,8,0,0,0-1.43.15l-.29-1a7.16,7.16,0,0,0,1.72.21h4.81c.88-1.22,1.2-1.43,1.38-1.43s.49.21,1.45,1c.42.36.63.6.63.78s-.08.26-.34.26Zm9.18-.39a13.21,13.21,0,0,0-.16-2.19c2.91.39,3.12.47,3.12.86s-.13.42-.7.7v9.21c0,4.73.13,8.11.13,9.64,0,1.17-.21,1.62-.83,2.06a3.36,3.36,0,0,1-1.9.62c-.57,0-.78-.15-.86-.65-.13-1-.62-1.35-2.68-1.95-.13,0-.13-.36,0-.36,1.15.08,2.6.18,3.49.18.31,0,.39-.08.39-.36ZM897.33,244c0,5.48.13,9.25.13,10.5,0,.73-.41,1.07-1.35,1.07-.73,0-1-.29-1-.94s.1-3.12.1-7.8c0-3.69-.05-5.82-.1-6.34,2.75.31,2.94.36,2.94.78,0,.23-.21.44-.71.67Z"/><path class="cls-2" d="M915.4,243.29a33.56,33.56,0,0,0-.44,4.58c-.21,2.73-.31,5.09-.31,6.73,0,1.35.21,2.11.6,2.47a4,4,0,0,0,2.49.6,12.69,12.69,0,0,0,5.67-1.59,15,15,0,0,0,4.55-3.51c.16-.18.31-.33.47-.33a.24.24,0,0,1,.26.26,2.32,2.32,0,0,1-.34.72,15,15,0,0,1-4.52,4.63,11.68,11.68,0,0,1-7,2.11c-2.73,0-4.39-1.87-4.31-5.07.1-4.34.28-8.61.39-12.56,0-1-.16-1.38-1-1.72s-.81-.28-.81-.44.19-.34.45-.47a3.57,3.57,0,0,1,1.19-.23,4,4,0,0,1,2.5,1.17,1.81,1.81,0,0,1,.75,1.33,1.31,1.31,0,0,1-.36.88C915.58,243,915.46,243.08,915.4,243.29Z"/><path class="cls-2" d="M948.53,243.84a58.27,58.27,0,0,0-7.57,2.42,4,4,0,0,0-1,.59,1,1,0,0,1-.75.29c-.52,0-1.12-.31-2-1.27a3.25,3.25,0,0,1-1-1.88c0-.41.1-.8.26-.8s.18,0,.42.26c.91.93,1.11,1,1.89,1a31.93,31.93,0,0,0,4.35-.86c3.33-.78,5.92-1.48,7.9-2a8.07,8.07,0,0,0,1.43-.49,1.84,1.84,0,0,1,1-.24,6.23,6.23,0,0,1,2.39.42c.44.21.83.47.83,1s-.23.91-1,.94c-.54.05-1.12,0-2.57.13a8.5,8.5,0,0,0-6,2.81,7.14,7.14,0,0,0-1.87,5,4.59,4.59,0,0,0,1.9,3.87,8.16,8.16,0,0,0,4.16,1.36,4.74,4.74,0,0,1,2,.36,1.51,1.51,0,0,1,1,1.33c0,.7-.47,1.24-1.69,1.24a12.45,12.45,0,0,1-5-1.22,6.78,6.78,0,0,1-3.82-6,9.36,9.36,0,0,1,1-4.37,12,12,0,0,1,3.62-3.79Zm7.09,3.59a1.93,1.93,0,0,1,1,1.56.88.88,0,0,1-.86.91.92.92,0,0,1-.88-.6,10,10,0,0,0-1.64-2.29c-.11-.1-.29-.23-.29-.34s.05-.13.13-.15a1,1,0,0,1,.42,0A4.87,4.87,0,0,1,955.62,247.43Zm2.42-1.69a1.66,1.66,0,0,1,.94,1.32.87.87,0,0,1-.81,1,1,1,0,0,1-1-.57,6.68,6.68,0,0,0-1.82-2c-.1-.07-.31-.2-.31-.31a.14.14,0,0,1,.08-.15.58.58,0,0,1,.41,0A5.28,5.28,0,0,1,958,245.74Z"/><path class="cls-2" d="M971.59,255.72a3.92,3.92,0,0,0,2.47,2.18,21.54,21.54,0,0,0,5.9.6,80.55,80.55,0,0,0,10-.65c.13,0,.13.24,0,.29a1.64,1.64,0,0,0-1,1.45c-.08.81-.13.89-.63.94-1.37.18-4.47.23-6.34.23-4.42,0-7-.36-8.71-1.5a6.46,6.46,0,0,1-2.42-3.7,18.19,18.19,0,0,1-3,3.93c.08,1,0,1.2-.44,1.2s-1-.94-1.93-3.18a9.79,9.79,0,0,0,1.8-.65,10.91,10.91,0,0,0,1.87-1v-6.89h-1.79a5.31,5.31,0,0,0-1.43.21l-.29-1a6.43,6.43,0,0,0,1.72.24H969c.91-1,1.12-1.2,1.33-1.2s.47.16,1.43.91c.44.36.6.55.6.75s-.08.26-.78.84Zm-1.38-12.56c-.6,0-.91-.31-1.27-1.61a7.66,7.66,0,0,0-1.67-3c-.1-.11.08-.26.21-.24,3,.76,4.16,2,4.16,3.33A1.41,1.41,0,0,1,970.21,243.16Zm11.31.57H986c1-1.19,1.35-1.4,1.53-1.4s.52.21,1.49,1c.41.34.62.57.62.75s-.08.26-.34.26h-6c1.82.63,2.26.89,2.26,1.2s-.21.34-1,.39c-.94.83-1.33,1.19-1.95,1.66h2.8c1-1.14,1.31-1.35,1.49-1.35s.52.21,1.43,1c.39.31.6.55.6.73s-.08.26-.34.26h-7v2.6h3c.81-1,1.12-1.25,1.3-1.25s.49.21,1.3.89c.34.28.55.52.55.7s-.08.26-.34.26h-5.77c0,.86,0,1.71.05,2.57h4.21c1-1.19,1.33-1.4,1.51-1.4s.52.21,1.48,1c.42.33.62.57.62.75s-.07.26-.33.26H981.6c0,1,0,1.87,0,2.31,0,.78-.42,1.07-1.46,1.07-.72,0-1.06-.23-1.06-.7,0-.31.08-1.15.1-2.68h-4.76a8.08,8.08,0,0,0-1.5.16l-.29-1a7.43,7.43,0,0,0,1.74.21h4.81v-2.57h-3.38a8,8,0,0,0-1.4.15l-.29-1a6.35,6.35,0,0,0,1.61.21h3.46v-2.6H974.6a7.33,7.33,0,0,0-1.43.16l-.28-1a6.83,6.83,0,0,0,1.66.21h2.76c-.24-.13-.34-.44-.44-1a4.71,4.71,0,0,0-.76-2.05c-.08-.1,0-.21.13-.18,1.8.44,2.73,1.19,2.73,2.13a1.14,1.14,0,0,1-.7,1.09h3.56a19.52,19.52,0,0,0,.71-1.82c.12-.49.25-1,.36-1.43h-8.53a8.38,8.38,0,0,0-1.53.16l-.29-1a8.18,8.18,0,0,0,1.77.2h4.91V241h-3.69a8.8,8.8,0,0,0-1.48.15l-.29-1a7.16,7.16,0,0,0,1.72.21h3.74v-.88a18.09,18.09,0,0,0-.13-2.06c2.81.26,3.1.52,3.1.76s-.24.44-.68.62v1.56h3.12c.94-1.09,1.25-1.3,1.43-1.3s.52.21,1.43.91c.39.34.6.55.6.73s-.08.26-.34.26h-6.24Z"/><path class="cls-2" d="M1009.78,242.93c0-.39,0-.78,0-1.2a28.13,28.13,0,0,0-.26-3.77c3.2.42,3.33.44,3.33.83s-.24.45-.78.6c0,1.28,0,2.45.08,3.54h4.31c1.38-1.56,1.59-1.72,1.8-1.72s.44.16,1.5,1.17c.47.47.63.68.63.89s-.1.26-.39.26h-7.83a29.94,29.94,0,0,0,1.43,8.24c.29-.52.52-1,.76-1.56a17.42,17.42,0,0,0,1.24-4.29c2.22.65,3,1,3,1.43,0,.26-.18.36-.89.57a23.48,23.48,0,0,1-3,6.08,11.87,11.87,0,0,0,2.16,2.71c.67.6,1.12.93,1.32.93.37,0,.73-.59,1.75-2.75,0-.13.26,0,.26.08-.21,2.44-.24,2.91-.24,3.25a1.39,1.39,0,0,0,.37,1,1.45,1.45,0,0,1,.26.85,1,1,0,0,1-1.12,1.15,5.8,5.8,0,0,1-3.15-1.54A16.15,16.15,0,0,1,1013,256a19.73,19.73,0,0,1-7.9,4.94c-.13.05-.26-.18-.16-.26a25,25,0,0,0,7.07-6.45c-1.3-2.78-1.87-5.67-2.16-10.68h-8c0,1.71,0,2.91-.1,4.42h3.82c.86-1.07,1.07-1.23,1.27-1.23s.47.16,1.46,1c.44.42.6.6.6.81s-.08.26-.86.78c-.26,4.13-.39,5.25-.81,6.58a2.44,2.44,0,0,1-1.11,1.45,3.83,3.83,0,0,1-1.93.42c-.34,0-.39-.1-.52-.7-.28-1-.44-1.09-2.13-1.74-.13-.06,0-.34.1-.32a12.84,12.84,0,0,0,2.21.29c1,0,1.17-.16,1.46-1.61a33,33,0,0,0,.44-5.18h-4a30.08,30.08,0,0,1-.93,7,12.38,12.38,0,0,1-3.57,5.59c-.1.08-.31-.12-.26-.23a20.37,20.37,0,0,0,1.93-6,51.41,51.41,0,0,0,.49-8.21c0-2,0-3.46-.15-5.31,1.43.71,1.63.81,3,1.54Zm6.19-.78c-.34,0-.42-.08-.68-.5a6.45,6.45,0,0,0-2.15-2.65c-.11-.08-.08-.28.05-.28,2.65.2,3.87,1,3.87,2.18A1.13,1.13,0,0,1,1016,242.15Z"/><path class="cls-3" d="M845.27,121.18l63.6-.24-15.36,35.64q-1.56,3.48-3.36,8.4t-3.72,10.56q-1.92,5.64-3.72,11.16T879.41,197q-1.5,4.74-2.34,8h-20.4q2.16-3.6,5.16-8.7t6.24-10.86q3.24-5.76,6.42-11.46t5.7-10.56q2.52-4.86,4.08-8.1l6.24-13.32h-38.4a8.23,8.23,0,0,0-5.64,1.8,13,13,0,0,0-3.36,5.4h-1.2Z"/><path class="cls-2" d="M832.1,58.08c-.59,0-1.37-.08-2.05-.08s-1.48,0-2.23.08L827.13,60a2.66,2.66,0,0,0-.19,2c.16.38.75.51,1.4.58.11,0,.16,0,.16.23s0,.24-.2.24c-.66,0-1.58,0-2.25,0s-1.29,0-1.89,0c-.16,0-.2,0-.2-.24s0-.23.2-.23a1.93,1.93,0,0,0,1.07-.56,6.16,6.16,0,0,0,1.09-2.11l2.16-5.83c.85-2.27,1-2.83,1.3-3.78l1.42-.65a.21.21,0,0,1,.24.16c.36,1.12.68,2,1.49,4.38L835,60a7.35,7.35,0,0,0,.9,2.05c.3.38.48.42,1.17.47.19,0,.23,0,.23.23s0,.24-.23.24c-.78,0-1.79,0-2.56,0s-1.76,0-2.54,0c-.13,0-.14,0-.14-.24s0-.23.14-.23c.68,0,1.14-.11,1.24-.47a3.22,3.22,0,0,0-.32-1.89Zm-1.33-3.87c-.41-1.19-.56-1.72-.76-2.36-.25.7-.39,1.17-.81,2.32l-1.15,3.19c.6,0,1.32,0,2,0s1.28,0,1.8,0Z"/><path class="cls-2" d="M847.64,52.26a7.39,7.39,0,0,0-.08-1.55c-.07-.29-.34-.38-.64-.36l-.44,0c-.21,0-.25,0-.27-.2s0-.23.22-.27a26.58,26.58,0,0,0,3-.81c.09,0,.22.09.22.18-.07,1.24-.11,2.63-.11,4.38v6.75a5.38,5.38,0,0,0,.13,1.87c.12.27.32.27.56.29l.41,0c.13,0,.16,0,.16.19s0,.22-.16.24a26.67,26.67,0,0,0-2.81.3c-.13,0-.18,0-.18-.21,0-.43,0-.78,0-1.23a2.74,2.74,0,0,1-2.36,1.44c-2.47,0-3.89-1.78-3.89-4.32s1.58-4.48,4.12-4.48a2.91,2.91,0,0,1,2.13.92Zm0,5.47a2.65,2.65,0,0,0-.35-1.58,1.84,1.84,0,0,0-1.54-1c-1.41,0-2.24,1.55-2.24,3.82s.9,3.53,2.22,3.53a1.93,1.93,0,0,0,1.55-.95,2.14,2.14,0,0,0,.36-1.46Z"/><path class="cls-2" d="M859,59.86c.2.56.29.88.47,1.49.23-.63.36-.93.56-1.58l.75-2.36a3,3,0,0,0,.24-1.78c-.13-.24-.45-.31-.94-.36-.09,0-.13,0-.13-.22s0-.21.15-.21c.52,0,1.2,0,1.69,0s1,0,1.51,0c.15,0,.18,0,.18.21s0,.2-.18.22a1.63,1.63,0,0,0-.92.43,5.5,5.5,0,0,0-.9,1.71l-1.2,3.35c-.34.94-.47,1.33-.76,2.11a5.39,5.39,0,0,1-1.1.41.18.18,0,0,1-.16-.11c-.25-.75-.47-1.37-.83-2.36l-1.28-3.4a7.76,7.76,0,0,0-.84-1.85c-.24-.24-.43-.26-1-.29-.1,0-.14,0-.14-.22s0-.21.14-.21c.69,0,1.48,0,2.07,0s1.5,0,2.18,0c.13,0,.15,0,.15.21s0,.22-.13.22c-.5,0-.9,0-1,.3s.13.83.51,1.84Z"/><path class="cls-2" d="M874.26,61c0,1.16.23,1.59.65,1.59a.9.9,0,0,0,.52-.13.17.17,0,0,1,.23.09c.07.13.07.18,0,.27a2.52,2.52,0,0,1-1.53.42,1.52,1.52,0,0,1-1.53-1A3.15,3.15,0,0,1,870,63.32c-1.77,0-2.31-1.1-2.31-1.91a2.14,2.14,0,0,1,.61-1.61,6,6,0,0,1,2.31-1,3.81,3.81,0,0,0,1.4-.64,1,1,0,0,0,.42-.71V57c0-1.35-.34-1.91-1.08-1.91a1.28,1.28,0,0,0-.94.36,1.26,1.26,0,0,0-.32,1c0,.49-.45.86-1.39.86-.56,0-.7-.21-.7-.57,0-.85,1.38-2.16,3.6-2.16,2.65,0,2.68,1.28,2.66,2.68Zm-1.8-2.54c-.18.27-.43.42-1.44.8a1.82,1.82,0,0,0-1.32,1.89,1.34,1.34,0,0,0,1.14,1.47,1.56,1.56,0,0,0,1.6-1.56Z"/><path class="cls-2" d="M880,55.84c-.18,0-.23,0-.25-.19s0-.24.22-.27a25.66,25.66,0,0,0,2.84-.8c.11,0,.22.08.22.15,0,.5,0,1.06,0,1.53a3.21,3.21,0,0,1,2.79-1.71,2.53,2.53,0,0,1,2.63,2.57c0,.67,0,1.57,0,2v1.24a5.77,5.77,0,0,0,.15,1.91c.12.27.41.29.93.34.11,0,.15.06.15.22s0,.2-.15.2c-.66,0-1.35-.06-2-.06s-1.37,0-2.05.06c-.13,0-.15,0-.15-.2s0-.22.15-.22c.48,0,.77,0,.92-.34a5.77,5.77,0,0,0,.14-1.91V57.91a3.23,3.23,0,0,0-.22-1.54,1.32,1.32,0,0,0-1.31-.9,2,2,0,0,0-1.62,1,2.39,2.39,0,0,0-.38,1.44v2.43a6.28,6.28,0,0,0,.11,1.91c.14.29.43.29,1,.34.13,0,.16,0,.16.22s0,.2-.16.2c-.63,0-1.33-.06-1.93-.06s-1.38,0-2.07.06c-.11,0-.12,0-.12-.2s0-.2.12-.22c.52,0,.81,0,1-.34a6,6,0,0,0,.12-1.91V57.7a5.07,5.07,0,0,0-.12-1.51.47.47,0,0,0-.56-.38Z"/><path class="cls-2" d="M900.5,55a1,1,0,0,1,.72.85c0,.65-.2,1.19-.79,1.19s-.86-.69-1.08-1.12-.49-.76-1-.76c-1.39,0-2.09,1.57-2.09,3.78s1.31,3.53,2.5,3.53a2.51,2.51,0,0,0,2.29-1.26c.09-.14.18-.12.32,0s.16.16.11.27a3.53,3.53,0,0,1-3.26,1.89A4,4,0,0,1,894.18,59a4.24,4.24,0,0,1,4.13-4.44A5.18,5.18,0,0,1,900.5,55Z"/><path class="cls-2" d="M908.08,58.9c0,2.38,1.46,3.57,2.57,3.57a2.78,2.78,0,0,0,2.51-1.3.21.21,0,0,1,.18-.09.34.34,0,0,1,.16.08c.07.05.14.12.14.18a.48.48,0,0,1-.09.19,3.57,3.57,0,0,1-3.33,1.79A4.08,4.08,0,0,1,906.06,59a4.24,4.24,0,0,1,4.18-4.44,3.55,3.55,0,0,1,3.51,3.35.37.37,0,0,1-.09.3c-.09.11-.16.09-.27.09-1.82,0-3.64-.07-5.24,0A2.46,2.46,0,0,0,908.08,58.9Zm3.53-1.35c.14,0,.16-.12.16-.28,0-1-.49-2.18-1.53-2.18s-1.73,1-2,2.52A31.58,31.58,0,0,0,911.61,57.55Z"/><path class="cls-2" d="M923,61.25c1.52,0,1.88-.11,2.24-.44a4.75,4.75,0,0,0,1-1.38c.07-.13.12-.15.28-.09s.2.1.18.23c-.21.92-.66,2.52-1,3.46-1.22,0-2.18,0-3.47,0s-2.38,0-3.57,0c-.18,0-.23,0-.23-.31a.79.79,0,0,1,.11-.5,29.93,29.93,0,0,1,3.15-4.61c1.53-2,2.39-2.92,2.39-4.59,0-1.5-.52-2.58-1.55-2.58A1.48,1.48,0,0,0,921,51.49a3.87,3.87,0,0,0-.16,1.31c0,.5-.69.85-1.35.85-.51,0-.87-.15-.87-.69,0-1.15,1.46-3.06,3.87-3.06s3.73,1.44,3.73,3.19c0,2.3-1.66,3.17-3.47,4.86a12.88,12.88,0,0,0-3,3.3Z"/><path class="cls-2" d="M939.54,56.6c0,4.14-1.49,6.75-4,6.75s-4-2.48-4-6.64,1.48-6.81,4-6.81S939.54,52.49,939.54,56.6Zm-5.92,0c0,3.75.38,6.14,1.93,6.14s1.89-2.39,1.89-6.14-.36-6.19-1.89-6.19S933.62,52.89,933.62,56.65Z"/><path class="cls-2" d="M949,61.25c1.52,0,1.88-.11,2.24-.44a4.75,4.75,0,0,0,1-1.38c.07-.13.12-.15.29-.09s.19.1.18.23c-.22.92-.67,2.52-1,3.46-1.22,0-2.17,0-3.47,0s-2.38,0-3.57,0c-.18,0-.23,0-.23-.31a.79.79,0,0,1,.11-.5,30.66,30.66,0,0,1,3.15-4.61c1.53-2,2.39-2.92,2.39-4.59,0-1.5-.52-2.58-1.55-2.58A1.49,1.49,0,0,0,947,51.49a3.87,3.87,0,0,0-.16,1.31c0,.5-.69.85-1.35.85s-.87-.15-.87-.69c0-1.15,1.46-3.06,3.87-3.06s3.73,1.44,3.73,3.19c0,2.3-1.65,3.17-3.47,4.86a12.88,12.88,0,0,0-3,3.3Z"/><path class="cls-2" d="M960.3,51.94c-1,0-1.26.14-1.48.39a3.54,3.54,0,0,0-.63,1.19c-.05.13-.09.18-.32.13s-.22-.07-.2-.2c.14-.92.36-2.36.47-3.31,1.18,0,2.37,0,3.61,0s2.36,0,3.52,0c.1,0,.14,0,.14.37a.82.82,0,0,1-.07.47,27.34,27.34,0,0,0-3.15,7.82,11.5,11.5,0,0,0-.27,2.37c0,.51,0,.78,0,1.21s-.68,1-1.37,1-1.13-.21-1.13-.79a11.25,11.25,0,0,1,1.3-4.57,47.92,47.92,0,0,1,3.45-6.05Z"/><path class="cls-2" d="M977.23,58c-.09,4.13-1.78,6-6.57,6.86-.09,0-.16-.23-.07-.27,3.73-1.44,4.86-3,4.86-6.86,0-.19,0-.39,0-.77,2,.18,2.4.29,2.4.61S977.69,57.86,977.23,58Zm6.94-2.17c.68-.83.83-.94,1-.94s.31.11,1.17.94c.38.36.49.5.49.64,0,.33-.11.44-.81.44a.64.64,0,0,0-.51.18,11.62,11.62,0,0,1-1.71,1.13c-.07,0-.21,0-.18-.13a7.61,7.61,0,0,0,.76-1.85H973.06c0,1.39-.63,2.41-1.71,2.41a.76.76,0,0,1-.79-.79c0-.4.18-.67.68-1a2.34,2.34,0,0,0,1.4-2.18c0-.09.18-.11.2,0a5.08,5.08,0,0,1,.2,1.12Zm-4.81-2.29h3.17c.84-1,1.06-1.14,1.19-1.14s.36.15,1.15.8c.34.28.49.45.49.57s-.06.18-.24.18H973.85a8.45,8.45,0,0,0-1.22.11l-.2-.67a6.56,6.56,0,0,0,1.37.15h3.83V51.4h-5.36a9.05,9.05,0,0,0-1.28.1l-.2-.66a7,7,0,0,0,1.4.14h5.44v-.75a13.14,13.14,0,0,0-.11-1.77c2.25.2,2.47.4,2.47.6s-.2.3-.63.45V51h4.45c.86-1,1.08-1.17,1.2-1.17s.36.15,1.23.81c.39.33.54.47.54.6s-.06.18-.24.18h-7.18Zm1.76,8.77c0,.5.17.65,1.66.65a5.32,5.32,0,0,0,1.77-.17c.54-.16.84-.84,1.38-2.62,0-.09.22-.09.22,0,0,.64-.06,1.44-.06,1.94,0,.23,0,.29.15.34.48.24.61.47.61.78s-.23.77-.85,1a13.16,13.16,0,0,1-3.42.29c-2.61,0-3.17-.26-3.17-1.61v-3c0-1,0-2,0-3,2.3.32,2.3.32,2.3.59s-.12.29-.54.45Z"/><path class="cls-2" d="M1000.65,63.41H1005c1-1.32,1.26-1.46,1.38-1.46s.36.14,1.43,1c.48.39.63.55.63.68s-.06.18-.24.18H994.35a11.9,11.9,0,0,0-1.73.11l-.2-.67a12.85,12.85,0,0,0,1.91.15h4.47v-12a23.3,23.3,0,0,0-.11-2.54c2.38.2,2.59.4,2.59.6s-.21.36-.63.5v5.42h2.94c1-1.28,1.19-1.42,1.31-1.42s.36.14,1.37,1c.45.38.6.54.6.67s-.06.18-.24.18h-6Z"/><path class="cls-2" d="M1018,63.23V64c0,.48-.38.73-1.1.73-.54,0-.79-.18-.79-.61,0-1.8.12-3.64.12-10.91,0-1.49,0-3-.12-4.48a9.18,9.18,0,0,1,2.14,1.15h7.35c.68-.79.82-.9,1-.9s.34.11,1.08.68c.34.27.45.4.45.54s-.11.36-.56.65v2.14c0,5.69.11,9.64.11,10.93,0,.54-.4.78-1.1.78s-.79-.18-.79-.58v-.84Zm7.76-13H1018V54h7.76Zm0,4.18H1018V58.2h7.76Zm0,4.2H1018v4.19h7.76Z"/><path class="cls-2" d="M1038.6,54.71c1.15.38,1.9,1.1,1.9,1.93,0,.54-.3.91-.75.91-.29,0-.42-.18-.51-.66a3.74,3.74,0,0,0-.64-1.82c0,3.24.07,7.74.07,9.31,0,.41-.36.59-.94.59s-.7-.14-.7-.52c0-.94.13-4.82.14-8.08a10.54,10.54,0,0,1-2.5,4.08c-.05.08-.2,0-.16-.11a26.32,26.32,0,0,0,2.36-7.45h-.74A7.37,7.37,0,0,0,1035,53l-.19-.67a6.35,6.35,0,0,0,1.33.15h.94V50.62c0-.86,0-1.56-.09-2.3,1.92.21,2.25.3,2.25.61s-.17.32-.63.5v3h0c.38-.81.6-1,.72-1s.31.15.79.69a1,1,0,0,1,.31.5c0,.13,0,.18-.23.18h-1.62Zm4.35,6.77a9.9,9.9,0,0,1-3.71,2.48c-.09,0-.19-.12-.12-.18a10.27,10.27,0,0,0,2.09-2.55,11.71,11.71,0,0,0,.57-1.25c1.57.76,1.91,1,1.91,1.21S1043.48,61.48,1043,61.48Zm3.35-.76c0,.44.06,1.91.06,2.69a1.33,1.33,0,0,1-.38,1,2.16,2.16,0,0,1-1.57.49c-.16,0-.21-.07-.27-.36-.12-.63-.45-1-1.85-1.28-.09,0-.08-.23,0-.23.71,0,1.49,0,2.1,0,.24,0,.27,0,.27-.29v-3.4h-3.58a6.8,6.8,0,0,0-1.1.11l-.2-.67a6,6,0,0,0,1.3.15h7.51c.83-1,1-1.14,1.17-1.14s.36.15,1.15.79c.36.29.5.46.5.58s0,.18-.23.18h-4.9Zm-4.09-5.31c0,.43-.25.63-.9.63-.43,0-.64-.14-.64-.5s0-.76,0-2.13c0-.79,0-1.58-.07-2.39a14.33,14.33,0,0,1,1.69.77h1.15V49.85h-1.83a9.91,9.91,0,0,0-1.44.11l-.2-.67a9.48,9.48,0,0,0,1.65.14h7.12c.81-1,1-1.15,1.15-1.15s.38.15,1.17.81c.38.33.54.45.54.58s-.05.18-.23.18h-3.75v1.94h1.3c.5-.57.65-.68.79-.68s.34.11,1,.59c.29.24.4.36.4.51s-.14.32-.5.54v.43c0,1.15.05,1.89.05,2.14s-.29.56-.94.56c-.43,0-.65-.16-.65-.5v-.11h-6.86Zm5,1.5c.72-.89.93-1,1.06-1s.36.14,1.08.72c.31.25.45.41.45.54s0,.18-.23.18h-7.08a5.53,5.53,0,0,0-1,.11l-.2-.67a5,5,0,0,0,1.19.15Zm-3.75-4.7h-1.28v2.64h1.28Zm2.78-2.36h-1.35v1.94h1.35Zm0,5V52.21h-1.35v2.64Zm3.81,9c-.45,0-.66-.19-.9-.82a6.58,6.58,0,0,0-2-2.83c-.07,0,.06-.16.15-.14,2.28.66,3.65,1.6,3.65,2.75A.93.93,0,0,1,1050.08,63.87Zm-1-11.66h-1.4v2.64h1.4Z"/><path class="cls-2" d="M588.61,247a22.16,22.16,0,0,1-2.26,2.73c-.1.1-.31-.16-.26-.26a39.23,39.23,0,0,0,3.61-8.95,24.26,24.26,0,0,0,.68-3.92c3.1.8,3.41.91,3.41,1.27s-.08.36-1,.65a29.89,29.89,0,0,1-2.73,6.29c1.46.21,1.67.29,1.67.57s-.19.39-.7.65v13.45c0,.75-.45,1.09-1.41,1.09s-1.14-.26-1.14-1,.15-2.73.15-6.84Zm6.35,9.36c0,1.69-.7,3-2,3a1.15,1.15,0,0,1-1.22-1.17c0-.62.26-1,1-1.3a2.45,2.45,0,0,0,1.71-2.13c0-.13.26-.16.29,0A7.13,7.13,0,0,1,595,256.33Zm1.38-16c1.87.58,2.75,1.36,2.75,2.47a1.12,1.12,0,0,1-1,1.1h4.24a14.22,14.22,0,0,0,.54-1.82,10.85,10.85,0,0,0,.29-1.67c2.21.68,2.89.91,2.89,1.17s-.16.34-.84.47a10.13,10.13,0,0,1-2.08,1.85h3.57c1.11-1.36,1.43-1.57,1.61-1.57s.52.21,1.58,1.1c.47.39.68.62.68.8s-.08.26-.34.26H594.1a12.4,12.4,0,0,0-1.87.16l-.29-1a11.54,11.54,0,0,0,2.11.21h3.51a.88.88,0,0,1-.73-.76,5.29,5.29,0,0,0-1.17-2.81h-.21a12.4,12.4,0,0,0-1.87.16l-.29-1a11.54,11.54,0,0,0,2.11.21h4.16V238.1c0-.49,0-1-.1-1.59,3,.26,3.3.52,3.3.78s-.26.42-.78.68v1.72h3.77c1.09-1.33,1.4-1.54,1.58-1.54s.52.21,1.64,1.07c.5.41.7.62.7.8s-.07.26-.33.26Zm0,12.25c-.08.49-.52.73-1.3.73S594,253,594,252.32c0-.42.08-.86.08-2.6,0-1.51,0-3-.16-4.55a20.1,20.1,0,0,1,2.73,1.22h8.12c.85-1,1.06-1.11,1.27-1.11s.49.15,1.38.83c.41.31.57.49.57.7s-.16.39-.68.75v.78c0,2.08.06,3.51.06,4,0,.7-.47,1-1.46,1-.65,0-.94-.23-.94-.8v0ZM605,247h-8.58v2.19H605Zm0,2.78h-8.58v2.16H605Zm.19,7.39c0,.34.07.47.31.54.62.16.8.37.8.86s-.39.91-1.22,1.17a15.83,15.83,0,0,1-4.16.39c-3.33,0-4.39-.44-4.39-1.82,0-.54.05-1.12.05-3.38a6.51,6.51,0,0,0-.1-1.14c2.65.28,2.88.34,2.88.7s-.23.44-.7.57v2.26c0,.73.36.89,2.47.89a7.31,7.31,0,0,0,2.26-.18c.73-.29,1-.91,1.54-2.66.05-.13.26-.1.26,0Zm-3.33-.29c-.6,0-.68-.1-1.07-1.4a4.83,4.83,0,0,0-1.06-1.87c-.08-.11,0-.21.1-.19,2.21.39,3.22,1.1,3.22,2.21A1.2,1.2,0,0,1,601.85,256.87ZM609,259c-.67,0-.91-.29-1.17-1.56a5.35,5.35,0,0,0-1.43-2.81c-.1-.08,0-.28.13-.23,2.58.83,3.69,1.74,3.69,3.12A1.31,1.31,0,0,1,609,259Z"/><path class="cls-2" d="M622.13,259.26c0,.65-.57,1-1.59,1-.81,0-1.12-.24-1.12-.89,0-2.34.16-4.68.16-14.06,0-2.71,0-5.41-.16-8.14l2.94,1.43h14.69c1-1.09,1.17-1.25,1.38-1.25s.47.16,1.48,1c.44.39.6.57.6.78s-.16.39-.68.78v2.86c0,12.66.08,13.15.08,14.66,0,1.3-.34,1.9-1.22,2.32a5.53,5.53,0,0,1-1.72.39c-.44,0-.54-.19-.62-.71-.13-.88-.65-1.53-3.07-2.05-.13,0-.1-.31,0-.31,1.38.05,2.65.08,3.48.08.37,0,.44-.11.44-.47v-8.5h-15.1Zm6.13-11.72v-8.38h-6.13v8.38Zm9-8.38h-6.39v8.38h6.39Z"/><path class="cls-2" d="M690.32,262.88c-.13.05-.29-.21-.18-.28,7.1-5.05,9.82-10.59,9.82-20.1a16,16,0,0,0-.13-2.19c3.41.32,3.78.39,3.78.89,0,.26-.13.36-.91.73,0,.8-.06,1.58-.11,2.39a20.56,20.56,0,0,0,3,8.92,17.38,17.38,0,0,0,8.48,6.81c.13.05.13.28,0,.31a2.37,2.37,0,0,0-1.72,1.87c-.15.44-.26.55-.49.55a3.37,3.37,0,0,1-1.35-.76,20.74,20.74,0,0,1-6.45-8.37,25.26,25.26,0,0,1-1.61-7C701.47,255,698,259.37,690.32,262.88Z"/><path class="cls-3" d="M538.34,178.14a48.29,48.29,0,0,1,16.38,2.46,23.1,23.1,0,0,1,10.43,7,17.26,17.26,0,0,1,3.66,11.16,17.79,17.79,0,0,1-2,8.64,16.16,16.16,0,0,1-5.23,5.76,18.12,18.12,0,0,1-7,2.82,16.38,16.38,0,0,1-7.26-.3,30.56,30.56,0,0,1,7.85,1.14,26.17,26.17,0,0,1,8.16,3.84,20.75,20.75,0,0,1,6.42,7.32,23.85,23.85,0,0,1,2.53,11.58,28,28,0,0,1-3.91,14.82A31.92,31.92,0,0,1,557.89,265a45.31,45.31,0,0,1-14.81,5.88,56.87,56.87,0,0,1-16.93,1,50.73,50.73,0,0,1-16.61-4.38l.23-1.2a47.27,47.27,0,0,0,14-1.8,36.79,36.79,0,0,0,11.71-5.7,28.43,28.43,0,0,0,8-9.12,24.45,24.45,0,0,0,2.94-11.94c0-4.88-1.15-8.78-3.42-11.7a20.18,20.18,0,0,0-8.52-6.42,27.51,27.51,0,0,0-10.26-2l.24-1.2a19.47,19.47,0,0,0,17.52-10,17.51,17.51,0,0,0,2-10.5,12.9,12.9,0,0,0-2.52-7.14,11.46,11.46,0,0,0-5.35-3.78,15.89,15.89,0,0,0-6.77-.72q-7.22.6-10.2,6.3t-2.76,17h-1.2l-6.84-20.76a34.21,34.21,0,0,1,12.35-6.18A60.92,60.92,0,0,1,538.34,178.14Z"/><path class="cls-2" d="M489.82,57.18a14.35,14.35,0,0,1-2.09,1.44c-.07,0-.18-.13-.13-.2a20.11,20.11,0,0,0,3-3.94,10.1,10.1,0,0,0,.92-2.11c1.83.9,1.9.93,1.9,1.15s-.14.29-.66.36a12.78,12.78,0,0,1-1.57,2c.65.12.76.18.76.36s-.13.27-.49.43V64.2c0,.52-.3.75-.93.75-.42,0-.78-.14-.78-.63s.11-1.9.11-4.78Zm2.68-7.35A12.93,12.93,0,0,1,488,53.59c-.07,0-.2-.12-.13-.18a15,15,0,0,0,2.42-3.22,8.22,8.22,0,0,0,.79-1.87c1.42.52,2.18.92,2.18,1.19S493,49.81,492.5,49.83Zm6.63,12.87a9.91,9.91,0,0,0,2.21.2,26.18,26.18,0,0,0,3.24-.2c.09,0,.08.18,0,.24a1.54,1.54,0,0,0-.81,1.17c-.07.39-.14.48-.3.5a4.52,4.52,0,0,1-.51,0c-2.63,0-4-.27-5.36-1.06A6.35,6.35,0,0,1,495,60.26a9.52,9.52,0,0,1-3.22,4.33c-.08.06-.2-.12-.15-.19A12.72,12.72,0,0,0,494,56.47c0-.19,0-.52,0-.9,1.83.29,2.21.38,2.21.63s-.12.27-.48.42a17,17,0,0,1-.58,3,5.66,5.66,0,0,0,2.38,2.5V53.39h-2.8a6.79,6.79,0,0,0-1.08.11l-.19-.66a5.67,5.67,0,0,0,1.2.14h4a19.31,19.31,0,0,0,1.24-3.17c.11-.43.22-.84.31-1.26,1.74.65,2.28.92,2.28,1.14s-.16.28-.7.28a17.16,17.16,0,0,1-2.48,3h2.21c.79-1,1-1.13,1.14-1.13s.36.14,1.13.79c.34.29.49.45.49.58s-.06.17-.24.17h-4.91v4h1.65c.8-1,1-1.1,1.14-1.1s.34.14,1.1.77c.32.27.46.44.46.56s-.05.18-.23.18h-4.12Zm-2.72-10.3c-.51,0-.58-.1-.79-1.38a5.32,5.32,0,0,0-.94-2.07c-.05-.07.05-.2.14-.16,1.75.7,2.65,1.51,2.65,2.41A1.11,1.11,0,0,1,496.41,52.4Z"/><path class="cls-2" d="M518.55,59.59a11.24,11.24,0,0,0,2.93,1.76,15,15,0,0,0,4.74,1c.09,0,.09.16,0,.2-.67.25-.83.39-1.31,1.49-.08.14-.17.2-.27.2a3.51,3.51,0,0,1-.85-.27,13.07,13.07,0,0,1-3.17-1.75,11.15,11.15,0,0,1-2.31-2.38c.06,2.31.11,4,.11,4.49s-.28.68-1.06.68c-.49,0-.7-.2-.7-.59s.09-2.18.12-3.76a13,13,0,0,1-7.13,3.65c-.09,0-.17-.13-.09-.16a15,15,0,0,0,6-4.61h-4.25a9.08,9.08,0,0,0-1.26.11l-.2-.67a6.88,6.88,0,0,0,1.39.15h5.49V57.5H513.2a9.34,9.34,0,0,0-1.28.11l-.19-.67a7.15,7.15,0,0,0,1.42.15h3.58V55.45h-4.46a8.12,8.12,0,0,0-1.3.11l-.2-.67a7.31,7.31,0,0,0,1.44.14h2.95c-.23-.07-.36-.3-.5-.82a3.35,3.35,0,0,0-.9-1.55c-.07-.06,0-.17.11-.15,1.62.25,2.45.81,2.45,1.64a.9.9,0,0,1-.63.88h2.9a11.83,11.83,0,0,0,.75-1.55,8.14,8.14,0,0,0,.36-1.13c1.46.56,2,.85,2,1.06s-.12.27-.79.31A10.39,10.39,0,0,1,519.2,55h3c.84-.93,1.06-1.08,1.18-1.08s.36.15,1.16.76c.34.29.48.43.48.56s0,.18-.23.18h-6.43v1.64h2.81c.77-.87,1-1,1.12-1s.36.14,1,.7c.31.25.45.41.45.54s0,.18-.23.18h-5.19v1.68h4.47c.91-1,1.13-1.18,1.26-1.18s.34.15,1.17.81c.36.29.5.47.5.6s0,.18-.23.18Zm-3.37-9.92a7.54,7.54,0,0,0-.09-1.32c2,.2,2.23.35,2.23.56s-.14.25-.57.45v2.56h1.49V49.67a6,6,0,0,0-.09-1.32c2.06.22,2.25.35,2.25.56s-.12.25-.59.45v2.56h.74a18.94,18.94,0,0,0,1-2,7.91,7.91,0,0,0,.39-1.2c1.59.66,2.15.95,2.15,1.17s-.13.32-.83.34a11.59,11.59,0,0,1-2.16,1.71h2.1c.81-.9,1-1.05,1.15-1.05s.37.15,1.12.72c.34.29.49.44.49.56s-.06.18-.24.18H511.26a10.14,10.14,0,0,0-1.33.11l-.2-.67a7.62,7.62,0,0,0,1.47.15h4Zm-1.92,1.92c-.42,0-.58-.16-.76-.7a3.67,3.67,0,0,0-1-1.76c-.07-.06,0-.18.09-.16,1.69.28,2.57.88,2.57,1.72A.93.93,0,0,1,513.26,51.59Z"/><path class="cls-2" d="M537.52,63.19a16.43,16.43,0,0,1-5.91,1.58c-.09,0-.14-.18-.05-.21a19,19,0,0,0,3.58-1.8,5.1,5.1,0,0,0,1.23-1.14c1.62.78,2.11,1.07,2.11,1.26S538.28,63.23,537.52,63.19Zm-2.27-1.93c0,.51-.3.74-1,.74-.55,0-.79-.18-.79-.59,0-.72.09-1.68.09-4.59,0-1.14,0-2.45-.09-3.6a14.35,14.35,0,0,1,2,1h8.12c.63-.67.78-.78.92-.78s.34.11,1,.62c.32.25.43.37.43.52s-.13.29-.54.56v1.13c0,2.54.07,4.4.07,5s-.31.72-1,.72-.76-.16-.76-.63v-.05h-8.46Zm.85-8.62c0,.5-.34.66-1,.66-.42,0-.74-.1-.74-.5s0-1.13,0-2.21c0-.8,0-1.1-.06-1.89a18.65,18.65,0,0,1,1.95.91h6.48c.65-.7.79-.81.93-.81s.33.11,1,.65c.31.25.42.38.42.52s-.09.24-.53.49v.34c0,.87.06,1.53.06,1.79,0,.48-.34.68-1,.68s-.76-.18-.76-.63Zm7.61,1.94h-8.46v1.77h8.46Zm-8.46,4h8.46V56.76h-8.46Zm0,2.27h8.46V59h-8.46ZM542.9,50h-6.8v2.19h6.8Zm2.72,14.87c-.36,0-.54-.11-1-.56a8.93,8.93,0,0,0-3.81-2.23c-.09,0,0-.2.07-.2,4,.16,5.58.81,5.58,2.05A.85.85,0,0,1,545.62,64.9Z"/><path class="cls-2" d="M565.84,56.29c1-1.29,1.26-1.44,1.38-1.44s.36.15,1.41,1c.48.4.63.56.63.69s-.06.18-.24.18H554.91a14.87,14.87,0,0,0-1.75.11l-.2-.67a12.7,12.7,0,0,0,1.91.14Z"/><path class="cls-2" d="M574.62,64.63c-.09,0-.2-.14-.13-.2,4.92-3.49,6.81-7.33,6.81-13.92a12.12,12.12,0,0,0-.09-1.51c2.35.22,2.61.27,2.61.61,0,.18-.09.26-.63.51,0,.56,0,1.1-.08,1.65A14.21,14.21,0,0,0,585.19,58a11.85,11.85,0,0,0,5.87,4.72c.09,0,.09.2,0,.21a1.65,1.65,0,0,0-1.19,1.3c-.11.31-.18.38-.35.38a2.4,2.4,0,0,1-.93-.52,14.49,14.49,0,0,1-4.47-5.8A17.8,17.8,0,0,1,583,53.41C582.34,59.14,580,62.2,574.62,64.63Z"/><path class="cls-2" d="M608.62,55.93c.65-.7.79-.81.94-.81s.34.11,1,.65c.3.24.41.36.41.51s-.06.18-.54.52V58c0,3.21.07,5.37.07,6.09,0,.49-.34.74-1.08.74-.47,0-.68-.18-.68-.6v-.48H598.63a6.39,6.39,0,0,0-1.21.12l-.19-.66a7.91,7.91,0,0,0,1.36.12h10.18V59.86h-9.42a6.39,6.39,0,0,0-1.21.12l-.2-.66a8.1,8.1,0,0,0,1.37.12h9.46V56.35H599a5.31,5.31,0,0,0-1.33.16l-.2-.72a7.5,7.5,0,0,0,1.46.14h4.18V50.28a14.81,14.81,0,0,0-.1-1.66c2.22.2,2.44.38,2.44.56s-.2.33-.62.47v6.28Zm-8.28-1.27c-.54,0-.74-.26-.92-1.12a7.41,7.41,0,0,0-1.51-3.37c-.06-.07,0-.2.13-.16,2.17.88,3.27,2.23,3.27,3.42C601.31,54.17,600.93,54.66,600.34,54.66Zm9.9-3.28a15.94,15.94,0,0,1-3.58,3.91c-.07.05-.27-.09-.22-.17a20.7,20.7,0,0,0,1.82-3.76,11.41,11.41,0,0,0,.49-1.6c1.67.68,2.18,1,2.18,1.2S610.89,51.23,610.24,51.38Z"/><path class="cls-2" d="M625.74,51.88a1.52,1.52,0,0,1,.81.17.58.58,0,0,1,.4.54c0,.26-.18.5-.56.64a29.56,29.56,0,0,1-3,.92c-.29.76-.87,2.38-1.26,3.46s-1.06,2.79-2,5.22c-.27.68-.59.92-1,.92a.88.88,0,0,1-.52-.27.8.8,0,0,1-.2-.65,3.2,3.2,0,0,1,.48-1.26,62.16,62.16,0,0,0,3.21-7.19,10.43,10.43,0,0,1-2,.26,2,2,0,0,1-1.73-.71,1.66,1.66,0,0,1-.49-.93c0-.11,0-.16.09-.16s.18.07.31.16a2.21,2.21,0,0,0,1.47.47A11.72,11.72,0,0,0,622.5,53a12.84,12.84,0,0,0,.56-2.36.62.62,0,0,0-.38-.63,4,4,0,0,0-.67-.22c-.12,0-.2-.07-.2-.14s.06-.2.26-.31a1.75,1.75,0,0,1,.84-.22,3.49,3.49,0,0,1,1.86.72.7.7,0,0,1,.27.51.93.93,0,0,1-.25.54c-.33.32-.45.66-.87,1.76a4,4,0,0,0,1.1-.52A1.6,1.6,0,0,1,625.74,51.88Zm-.34,7.51a3.3,3.3,0,0,0-.16,1.1c0,1,.84,1.71,2.73,1.71a7.32,7.32,0,0,0,1.82-.14,2.65,2.65,0,0,1,.94-.13,2.35,2.35,0,0,1,.9.23.87.87,0,0,1,.45.76c0,.47-.44.68-1,.77a14,14,0,0,1-2,.09,9.24,9.24,0,0,1-2.39-.3,2.69,2.69,0,0,1-2.16-2.56,3.26,3.26,0,0,1,.5-1.74c.09-.17.24-.31.33-.31s.11.05.11.14A2.93,2.93,0,0,1,625.4,59.39Zm1.91-3.82a6.51,6.51,0,0,0-2.06.71.28.28,0,0,1-.16,0,.14.14,0,0,1-.16-.16.41.41,0,0,1,.13-.24,6.07,6.07,0,0,1,1.65-1.09A6.31,6.31,0,0,1,629,54.4a5.06,5.06,0,0,1,2,.4.92.92,0,0,1,.61.88.57.57,0,0,1-.63.54,2.74,2.74,0,0,1-.7-.09,5,5,0,0,0-.67-.05,6.42,6.42,0,0,0-2.54,1,.37.37,0,0,1-.27.09c-.09,0-.07-.07-.07-.12a16.69,16.69,0,0,1,1.73-1.51A4.94,4.94,0,0,0,627.31,55.57Z"/><path class="cls-2" d="M642,53.83a7.83,7.83,0,0,1,1-2A1.86,1.86,0,0,1,644.5,51a2.37,2.37,0,0,1,2,1.28,7.56,7.56,0,0,1,.88,3.73,8,8,0,0,1-1.24,4.79A6.89,6.89,0,0,1,643.81,63a10.88,10.88,0,0,1-3.1,1.26,1.86,1.86,0,0,1-.52.09c-.14,0-.23,0-.23-.18s.11-.15.32-.24a8.44,8.44,0,0,0,4.27-3.27,8.23,8.23,0,0,0,1.13-4.92,9.45,9.45,0,0,0-.36-3c-.27-.77-.64-1-1.11-1-.85,0-1.48.68-2.34,4.34a9.64,9.64,0,0,0-.35,1.92c0,.62.09.92.09,1.21,0,.49-.17.67-.63.67s-1-.58-1.17-1.32a7.87,7.87,0,0,1-.25-2.41,25.43,25.43,0,0,1,.43-3.93,8.93,8.93,0,0,0,.15-1.54,1.61,1.61,0,0,0-.47-1.1c-.07-.09-.14-.15-.14-.24s.16-.21.39-.21a1,1,0,0,1,.52.21,3.47,3.47,0,0,1,1.19,1.39,1.75,1.75,0,0,1,.22.77.7.7,0,0,1-.24.58,1.94,1.94,0,0,0-.3.54,10,10,0,0,0-.65,3.13,5.67,5.67,0,0,0,.05,1c0,.14.18.12.24,0C641.4,55.32,641.67,54.62,642,53.83Z"/><path class="cls-2" d="M662.3,53.27a7.15,7.15,0,0,1-.4,1.91,12.91,12.91,0,0,1-1.13,2.59,15.14,15.14,0,0,1-2,3,2,2,0,0,1-1.5.74,1.8,1.8,0,0,1-1.36-.71,4.45,4.45,0,0,1-1-3.27,5.56,5.56,0,0,1,.77-2.74,6.93,6.93,0,0,1,2.43-2.52,8,8,0,0,1,4.36-1.17,6.91,6.91,0,0,1,4.46,1.4,5.53,5.53,0,0,1,2.11,4.58,4.92,4.92,0,0,1-1.66,3.71,7.77,7.77,0,0,1-2.66,1.6,12.75,12.75,0,0,1-3.69.68c-.27,0-.4,0-.4-.18s.11-.18.34-.23a8.94,8.94,0,0,0,4.63-2.36,5.34,5.34,0,0,0,1.62-4.18,3.92,3.92,0,0,0-1.58-3.38,5.77,5.77,0,0,0-2.88-1,11.12,11.12,0,0,0-1.14,0A2.49,2.49,0,0,1,662.3,53.27Zm-4.38.07a5.5,5.5,0,0,0-1.53,2.22,4.68,4.68,0,0,0-.3,1.71,3.51,3.51,0,0,0,.45,1.94,1.13,1.13,0,0,0,.79.59c.29,0,.56-.17,1.24-1.15A21.59,21.59,0,0,0,661,54.24a4.24,4.24,0,0,0,.38-1.53.94.94,0,0,0-.32-.81A6.06,6.06,0,0,0,657.92,53.34Z"/><path class="cls-2" d="M681.56,58c-.09,4.13-1.79,6-6.58,6.86-.09,0-.16-.23-.07-.27,3.73-1.44,4.86-3,4.86-6.86,0-.19,0-.39,0-.77,1.94.18,2.39.29,2.39.61S682,57.86,681.56,58Zm6.93-2.17c.68-.83.83-.94,1-.94s.31.11,1.17.94c.38.36.49.5.49.64,0,.33-.11.44-.81.44a.64.64,0,0,0-.51.18,11.62,11.62,0,0,1-1.71,1.13c-.07,0-.21,0-.18-.13a7.24,7.24,0,0,0,.76-1.85H677.38c0,1.39-.63,2.41-1.71,2.41a.76.76,0,0,1-.79-.79c0-.4.18-.67.68-1A2.35,2.35,0,0,0,677,54.73c0-.09.18-.11.19,0a5.08,5.08,0,0,1,.2,1.12Zm-4.81-2.29h3.17c.85-1,1.06-1.14,1.19-1.14s.36.15,1.15.8c.34.28.49.45.49.57s-.06.18-.24.18H678.17a8.45,8.45,0,0,0-1.22.11l-.2-.67a6.56,6.56,0,0,0,1.37.15H682V51.4h-5.36a9.05,9.05,0,0,0-1.28.1l-.2-.66a7,7,0,0,0,1.41.14H682v-.75a15,15,0,0,0-.1-1.77c2.25.2,2.46.4,2.46.6s-.2.3-.63.45V51h4.45c.86-1,1.08-1.17,1.21-1.17s.36.15,1.22.81c.4.33.54.47.54.6s-.05.18-.23.18h-7.19Zm1.77,8.77c0,.5.16.65,1.65.65a5.32,5.32,0,0,0,1.77-.17c.54-.16.84-.84,1.38-2.62,0-.09.22-.09.22,0,0,.64-.05,1.44-.05,1.94,0,.23,0,.29.14.34.49.24.61.47.61.78s-.23.77-.84,1a13.3,13.3,0,0,1-3.43.29c-2.61,0-3.16-.26-3.16-1.61v-3c0-1,0-2-.06-3,2.31.32,2.31.32,2.31.59s-.13.29-.54.45Z"/><path class="cls-2" d="M705,63.41h4.37c1-1.32,1.26-1.46,1.39-1.46s.36.14,1.42,1c.49.39.63.55.63.68s0,.18-.23.18H698.67a12,12,0,0,0-1.73.11l-.19-.67a12.66,12.66,0,0,0,1.91.15h4.46v-12a23.3,23.3,0,0,0-.11-2.54c2.38.2,2.59.4,2.59.6s-.21.36-.62.5v5.42h2.93c1-1.28,1.19-1.42,1.31-1.42s.36.14,1.37,1c.45.38.6.54.6.67s-.06.18-.24.18h-6Z"/><path class="cls-2" d="M725.31,49.36a6.3,6.3,0,0,0-.08-1.06c2.25.2,2.46.4,2.46.59s-.23.35-.63.51v1.08h4.39c1-1.08,1.21-1.23,1.34-1.23s.34.15,1.19.85c.37.32.52.49.52.61s-.06.18-.24.18H719.82a9.08,9.08,0,0,0-1.26.11l-.2-.67a7.43,7.43,0,0,0,1.45.15h5.5Zm6.27,7.73c.61-.67.76-.78.9-.78s.33.11,1,.65c.31.27.41.4.41.54s-.14.34-.57.56v.88c0,2.88,0,3.58,0,4.43a1.25,1.25,0,0,1-.68,1.31,2.31,2.31,0,0,1-1.16.31c-.23,0-.32,0-.41-.5s-.34-.8-1.58-1.21c-.09,0-.09-.22,0-.22a18.34,18.34,0,0,0,1.92.11c.18,0,.24-.05.24-.23V57.5H720.92v6.68c0,.56-.29.77-1,.77-.54,0-.72-.18-.72-.68,0-1,.06-2,.06-6q0-1-.06-2.1a10,10,0,0,1,1.86.9Zm-8.3-1.55v.14c0,.47-.32.67-1,.67-.49,0-.69-.16-.69-.63s0-.9,0-2.7c0-.49,0-1,0-1.46a14.09,14.09,0,0,1,1.79.86h5.65c.56-.68.7-.79.85-.79s.34.11,1,.61c.3.24.41.36.41.51s-.12.29-.49.48v.38c0,1,0,1.71,0,1.93,0,.56-.27.77-1,.77-.5,0-.68-.16-.68-.63v-.14Zm1.08,6.52v.43c0,.5-.25.68-1,.68-.51,0-.65-.14-.65-.59s0-.81,0-2.47c0-.59,0-1.21-.07-1.82.81.34.94.4,1.77.8H728c.54-.58.69-.69.83-.69s.32.11,1,.63c.27.23.38.36.38.51s-.09.28-.47.54v.34c0,.92.06,1.55.06,1.74,0,.47-.27.67-.92.67-.49,0-.7-.13-.7-.52v-.25Zm4.83-9.22h-5.91v2.28h5.91Zm-1.1,6.66h-3.73v2.14h3.73Z"/><line class="cls-4" x1="681.35" y1="237.16" x2="656.75" y2="261.76"/><polygon class="cls-2" points="1009.48 183.57 1009.47 183.57 1009.47 183.57 1009.48 183.57"/><polygon class="cls-2" points="1011.49 181.77 1011.49 181.77 1011.49 181.77 1011.49 181.77"/><polygon class="cls-2" points="964.95 181.77 964.96 181.78 964.96 181.78 964.95 181.77 964.95 181.77"/><polygon class="cls-2" points="980.04 177.36 980.01 177.35 980.01 177.35 980.02 177.35 980.04 177.36"/><path class="cls-2" d="M1029.46,142.71a27.35,27.35,0,0,0-3.14-3.75,13.59,13.59,0,0,1-1.1-1.32,2.44,2.44,0,0,1-.38-.7,1.8,1.8,0,0,1,0-.5,14.72,14.72,0,0,1,.5-3,19.66,19.66,0,0,0,.65-4.33,7.2,7.2,0,0,0-.9-3.64,6.81,6.81,0,0,0-1.46-1.74,10.15,10.15,0,0,0-2.88-1.65c-1.42-.56-2.76-.9-3.82-1.26a11.36,11.36,0,0,1-1.29-.52,2.44,2.44,0,0,1-.57-.37h0a3.42,3.42,0,0,1-.64-1.16c-.41-1-.78-2.51-1.35-4.11a12.62,12.62,0,0,0-1.2-2.46,7,7,0,0,0-2.35-2.28,7.22,7.22,0,0,0-3.64-.9,19.85,19.85,0,0,0-4.34.65,14.55,14.55,0,0,1-3,.5,2.23,2.23,0,0,1-.5-.05,3.46,3.46,0,0,1-1.09-.68c-.86-.67-1.93-1.79-3.24-2.88a12,12,0,0,0-2.29-1.54,7.09,7.09,0,0,0-3.19-.79,7.48,7.48,0,0,0-4,1.27,27.35,27.35,0,0,0-3.75,3.14,13.59,13.59,0,0,1-1.32,1.1,2.75,2.75,0,0,1-.7.38,2.31,2.31,0,0,1-.5.05,14.55,14.55,0,0,1-3-.5,19.85,19.85,0,0,0-4.34-.65,7.2,7.2,0,0,0-3.64.9l0,0,0,0a6.73,6.73,0,0,0-1.73,1.46,10,10,0,0,0-1.65,2.88c-.56,1.41-.9,2.76-1.26,3.82a9.75,9.75,0,0,1-.52,1.29,2.35,2.35,0,0,1-.37.57,3.72,3.72,0,0,1-1.17.64c-1,.41-2.51.77-4.1,1.35a12.42,12.42,0,0,0-2.47,1.2,7,7,0,0,0-2.28,2.35,7.2,7.2,0,0,0-.9,3.64,19.85,19.85,0,0,0,.65,4.34,14.55,14.55,0,0,1,.5,3,1.75,1.75,0,0,1,0,.5h0a3.71,3.71,0,0,1-.68,1.09c-.66.86-1.79,1.92-2.88,3.23a11.81,11.81,0,0,0-1.54,2.3,7.06,7.06,0,0,0-.79,3.19,7.44,7.44,0,0,0,1.27,4,26.9,26.9,0,0,0,3.14,3.76,12.48,12.48,0,0,1,1.1,1.32,2.44,2.44,0,0,1,.38.7l0,.06,0-.06a1.75,1.75,0,0,1,0,.5,14.55,14.55,0,0,1-.5,3,19.85,19.85,0,0,0-.65,4.34,7.2,7.2,0,0,0,.9,3.64,6.57,6.57,0,0,0,1.46,1.73,9.71,9.71,0,0,0,2.88,1.66c1.41.56,2.76.9,3.82,1.26a8.14,8.14,0,0,1,1.29.52,2.35,2.35,0,0,1,.57.37,3.19,3.19,0,0,1,.57,1c.25.58.49,1.37.76,2.24h0c.23.75.48,1.56.81,2.4a10.27,10.27,0,0,0,1.4,2.58,7.07,7.07,0,0,0,1,1l-9.65,20.85,13.36-.4L978,213.71l9.47-20.45,9.47,20.45,8.34-10.46,13.37.4-9.28-20,.13-.06a7,7,0,0,0,2-1.8A11.18,11.18,0,0,0,1013,179c.51-1.36.84-2.65,1.19-3.65a8.32,8.32,0,0,1,.5-1.23,2,2,0,0,1,.36-.54,3.52,3.52,0,0,1,1.17-.64c1-.41,2.51-.78,4.1-1.35a12.42,12.42,0,0,0,2.47-1.2,6.73,6.73,0,0,0,3.18-6,19.85,19.85,0,0,0-.65-4.34,14.55,14.55,0,0,1-.5-3,1.75,1.75,0,0,1,0-.5,3.66,3.66,0,0,1,.67-1.1c.67-.85,1.8-1.92,2.89-3.23a12.52,12.52,0,0,0,1.54-2.29,7.22,7.22,0,0,0,.79-3.19A7.65,7.65,0,0,0,1029.46,142.71Zm-5.27,4.76a24.49,24.49,0,0,1-2.47,2.86,20.83,20.83,0,0,0-1.61,2,8.67,8.67,0,0,0-1.29,2.66,8,8,0,0,0-.26,2.11,19.86,19.86,0,0,0,.65,4.36,14.84,14.84,0,0,1,.5,3,1.93,1.93,0,0,1,0,.43l0,.09-.11.12a4.35,4.35,0,0,1-1.13.6c-.89.36-2.16.69-3.52,1.15a16.44,16.44,0,0,0-2.11.86,8.25,8.25,0,0,0-2.16,1.53,8.92,8.92,0,0,0-1.82,2.78,38.69,38.69,0,0,0-1.3,3.83,8.26,8.26,0,0,1-1,2.24h0l-.12.13,0,0h0l-.1,0a3.05,3.05,0,0,1-.42,0,15.18,15.18,0,0,1-3-.49,19.33,19.33,0,0,0-4.36-.66,8.45,8.45,0,0,0-2.11.26l-.06,0-.19.06h0a10.9,10.9,0,0,0-3.89,2.4c-1,.9-1.9,1.78-2.64,2.38h0a5.19,5.19,0,0,1-1,.7.86.86,0,0,1-.38.13.88.88,0,0,1-.39-.13,5.5,5.5,0,0,1-1-.69c-.76-.61-1.65-1.52-2.7-2.44a10.5,10.5,0,0,0-4.09-2.42,8.32,8.32,0,0,0-2.1-.26,19.16,19.16,0,0,0-4.36.66,15.42,15.42,0,0,1-2.95.49,3.1,3.1,0,0,1-.43,0l-.1,0h0l-.16-.16h0a4.92,4.92,0,0,1-.56-1.09c-.21-.52-.42-1.19-.64-1.92h0c-.27-.86-.55-1.82-1-2.82a9.07,9.07,0,0,0-1.92-3,9.4,9.4,0,0,0-3.27-2c-1.61-.63-3.15-1-4.25-1.41a6.45,6.45,0,0,1-1.21-.56,1,1,0,0,1-.3-.26h0l0-.1a3.05,3.05,0,0,1,0-.42,15.42,15.42,0,0,1,.49-3,19.24,19.24,0,0,0,.66-4.36,8.45,8.45,0,0,0-.26-2.11h0a9.47,9.47,0,0,0-1.82-3.37c-1.08-1.33-2.22-2.4-3-3.31a5.64,5.64,0,0,1-.76-1.11.9.9,0,0,1-.14-.41s0-.25.31-.72a22.81,22.81,0,0,1,2.47-2.86,19.34,19.34,0,0,0,1.6-2,8.46,8.46,0,0,0,1.3-2.66h0a8.32,8.32,0,0,0,.26-2.1,19.16,19.16,0,0,0-.66-4.36,15.42,15.42,0,0,1-.49-3,3.1,3.1,0,0,1,0-.43l0-.09h0l.12-.12a4.1,4.1,0,0,1,1.13-.61c.89-.35,2.16-.69,3.52-1.14a15.21,15.21,0,0,0,2.11-.87,8.62,8.62,0,0,0,2.16-1.52,9.61,9.61,0,0,0,2-3.27c.63-1.61,1-3.15,1.4-4.25a6.68,6.68,0,0,1,.57-1.21,1.16,1.16,0,0,1,.25-.3l.1,0a1.86,1.86,0,0,1,.43,0,15.63,15.63,0,0,1,2.95.5,19.73,19.73,0,0,0,4.36.66,7.91,7.91,0,0,0,2.1-.27,9,9,0,0,0,3.37-1.82c1.34-1.07,2.41-2.21,3.32-2.95a6.5,6.5,0,0,1,1.1-.76,1,1,0,0,1,.42-.14,1.54,1.54,0,0,1,.72.31,23.55,23.55,0,0,1,2.86,2.47,19.34,19.34,0,0,0,2,1.6,7.7,7.7,0,0,0,4.77,1.56,19.92,19.92,0,0,0,4.36-.66,14.65,14.65,0,0,1,3-.49,1.44,1.44,0,0,1,.42,0l.1,0,.12.11a4.47,4.47,0,0,1,.6,1.14c.36.89.69,2.15,1.15,3.51a16,16,0,0,0,.86,2.12,8.21,8.21,0,0,0,1.53,2.15l0,.05-.06-.05a9.53,9.53,0,0,0,3.28,2c1.61.63,3.14,1,4.24,1.4a6.06,6.06,0,0,1,1.21.57,1.25,1.25,0,0,1,.31.26l0,.09a1.86,1.86,0,0,1,0,.43,14.84,14.84,0,0,1-.5,3,19.76,19.76,0,0,0-.65,4.36,8,8,0,0,0,.26,2.11,9.47,9.47,0,0,0,1.82,3.37c1.08,1.33,2.22,2.4,3,3.31a6.5,6.5,0,0,1,.76,1.1,1.16,1.16,0,0,1,.14.42A1.7,1.7,0,0,1,1024.19,147.47Z"/><path class="cls-2" d="M988.22,120.85a25.9,25.9,0,0,0-1.51,51.75h0c.51,0,1,.05,1.51.05a25.9,25.9,0,0,0,0-51.8Zm15,40.91a21.21,21.21,0,0,1-15,6.22c-.42,0-.82,0-1.22,0h0a21.23,21.23,0,1,1,16.24-6.18Z"/><path class="cls-2" d="M660.27,122.58a5.73,5.73,0,1,0-5.73,5.73A5.72,5.72,0,0,0,660.27,122.58Z"/><path class="cls-2" d="M641.68,135.73V155a2.52,2.52,0,1,0,5,0V139.16h1.16v43a3.31,3.31,0,0,0,6.61,0v-25h1.07v25a3.31,3.31,0,0,0,6.61,0v-43h1.16V155a2.52,2.52,0,1,0,5,0V135.73c0-2.77-3-5.8-5.8-5.8H647.48A6.45,6.45,0,0,0,641.68,135.73Z"/><path class="cls-2" d="M710.19,164.13a28,28,0,0,1-3.86,1.06,11.32,11.32,0,0,1-1.84.15l.06-.2c.4-1.36.74-2.78,1-3.93s.4-2.05.46-2.38a11.6,11.6,0,0,1,.53-2.1,1.55,1.55,0,0,1,1.05-.93,8.89,8.89,0,0,0,5.32-3.91,12.41,12.41,0,0,0,1.88-7.66c-.14-1.82-.54-2.62-1.07-2.77s-1.22.33-2.07,1a28.6,28.6,0,0,1-3,2.28,11.09,11.09,0,0,1-1.58.79c-.12-1.26-.29-2.52-.46-3.56s-.35-2-.4-2.26c-.32-1.8-.45-2.59.37-3.21a8.53,8.53,0,0,0,3.41-5.26,11.75,11.75,0,0,0-.88-7.41c-.72-1.57-1.34-2.14-1.86-2.09s-1,.69-1.51,1.58a25.34,25.34,0,0,1-2,3,10.25,10.25,0,0,1-1.14,1.23c-.46-.94-.94-1.86-1.37-2.63-.51-.93-.94-1.63-1.08-1.88-.86-1.51-1.23-2.17-.69-3a8.14,8.14,0,0,0,1.42-5.77,11.21,11.21,0,0,0-3-6.34c-1.13-1.18-1.85-1.5-2.3-1.3s-.68.92-.88,1.88a26.94,26.94,0,0,1-.84,3.32,9.61,9.61,0,0,1-.64,1.43c-.51-.52-1-1-1.46-1.42-.77-.73-1.39-1.26-1.61-1.46-1.28-1.17-1.83-1.69-1.57-2.64a8.12,8.12,0,0,0-.41-5.92,11.15,11.15,0,0,0-4.85-5.1c-1.43-.78-2.21-.87-2.59-.54s-.36,1.09-.26,2.06a28,28,0,0,1,.23,3.25,8.85,8.85,0,0,0-3-2.15,11.3,11.3,0,0,0-5.25-.93c-1.8.13-3.28.8-3.62,2s.49,2.55,1.63,3.7a14.17,14.17,0,0,0,3.78,2.71,9,9,0,0,0,3.18.91l-.15.12c-1,.72-1.92,1.33-2.65,1.88s-1.26,1-1.34,1.53.26.92,1.25,1.46a9.41,9.41,0,0,0,5,1.11,11.29,11.29,0,0,0,5.25-1.57c.84-.46,1.43-.06,2.61,1,.2.19.73.72,1.4,1.44.38.41.8.88,1.22,1.38a12.32,12.32,0,0,1-1.37.56c-1.13.4-2.24.68-3.11,1a3.1,3.1,0,0,0-1.74,1c-.22.43,0,1,.74,1.77a9.51,9.51,0,0,0,4.47,2.62,11.38,11.38,0,0,0,5.48.11c.94-.18,1.39.38,2.17,1.77.13.24.48.91.89,1.8.34.73.72,1.62,1.07,2.52a16,16,0,0,1-1.69.11c-1.26,0-2.45-.08-3.42-.07a3.24,3.24,0,0,0-2.08.46c-.37.35-.36.94.12,2a9.89,9.89,0,0,0,3.53,4.06,12.18,12.18,0,0,0,5.4,2c1,.15,1.24.87,1.52,2.52,0,.28.16,1.06.25,2.09s.15,2.12.16,3.27a14.53,14.53,0,0,1-1.66-.5c-1.25-.45-2.4-1-3.36-1.32a3.54,3.54,0,0,0-2.22-.31c-.49.21-.7.79-.61,2a10.35,10.35,0,0,0,2,5.28,12.94,12.94,0,0,0,4.56,4,1.3,1.3,0,0,1,.75,1.06,6.42,6.42,0,0,1-.19,2c-.06.29-.25,1.1-.56,2.13s-.71,2.29-1.17,3.49a1.34,1.34,0,0,1-.07.18,17.53,17.53,0,0,1-1.41-1.14c-1-.92-2-1.88-2.76-2.58a3.68,3.68,0,0,0-2-1.17c-.57,0-1,.49-1.37,1.68a10.72,10.72,0,0,0-.15,5.84,13.8,13.8,0,0,0,2.84,5.67c.68.88.34,1.64-.7,3.17-.18.26-.69,1-1.41,1.84s-1.63,1.92-2.57,2.88c-.15.16-.31.31-.46.46-.32-.54-.61-1.11-.87-1.67-.61-1.33-1.09-2.64-1.57-3.66a3.89,3.89,0,0,0-1.49-2c-.55-.23-1.16,0-2,1a11.18,11.18,0,0,0-2.59,5.52,14.68,14.68,0,0,0,.3,6.66c.28,1.13-.38,1.71-2,2.72-.28.17-1.08.62-2.15,1.14s-2.4,1.12-3.72,1.62-3.11,1.28-4.07,1.61c-12.49,4.39-27.51,6.28-36.81,13.12-1.45,1.07,1.43,5.17,2.7,4.85s10.42-5.8,33.31-12.06c1-.34,5.6-1.86,7-2.54s2.85-1.44,4-2.11,2-1.21,2.3-1.4a12.18,12.18,0,0,1,2.12-1.16,1.72,1.72,0,0,1,1.54.15,9.07,9.07,0,0,0,3.36,1.33,10.61,10.61,0,0,0,3.89,0,12.54,12.54,0,0,0,4-1.51,14.57,14.57,0,0,0,3.65-3c1.37-1.55,1.69-2.5,1.4-3s-1.21-.7-2.42-.83a28.42,28.42,0,0,1-4.18-.62,10.45,10.45,0,0,1-1.81-.62c.15-.18.3-.37.46-.55.95-1.15,1.87-2.38,2.58-3.4s1.24-1.83,1.43-2.12c1.14-1.68,1.63-2.42,2.77-2.3a9.36,9.36,0,0,0,6.78-1.67,12.14,12.14,0,0,0,2.89-2.84,13.82,13.82,0,0,0,2-4c.59-1.86.51-2.8,0-3.16S711.29,163.79,710.19,164.13Z"/><path class="cls-2" d="M641.17,199.27c2.88-1.12,5.92-2.06,9-2.94-3.31-.9-6.59-1.84-9.71-2.94-1-.33-2.76-1.11-4.08-1.61s-2.65-1.09-3.71-1.62-1.87-1-2.15-1.14c-1.66-1-2.32-1.59-2-2.72a14.69,14.69,0,0,0,.31-6.66,11.18,11.18,0,0,0-2.59-5.52c-.86-1-1.47-1.25-2-1a3.89,3.89,0,0,0-1.49,2c-.48,1-1,2.33-1.57,3.66a16.68,16.68,0,0,1-.88,1.67l-.45-.46c-.94-1-1.86-2-2.57-2.88s-1.24-1.58-1.41-1.84c-1-1.53-1.39-2.29-.71-3.17a13.71,13.71,0,0,0,2.85-5.67,10.82,10.82,0,0,0-.15-5.84c-.38-1.19-.8-1.67-1.37-1.68a3.68,3.68,0,0,0-2,1.17c-.81.7-1.72,1.66-2.76,2.58a17.7,17.7,0,0,1-1.42,1.14l-.06-.18c-.47-1.2-.88-2.45-1.18-3.49s-.49-1.84-.55-2.13a6.49,6.49,0,0,1-.2-2,1.34,1.34,0,0,1,.75-1.06,12.89,12.89,0,0,0,4.57-4,10.35,10.35,0,0,0,2-5.28c.09-1.21-.12-1.79-.61-2a3.54,3.54,0,0,0-2.22.31c-1,.34-2.11.87-3.36,1.32a15.17,15.17,0,0,1-1.66.5c0-1.15.08-2.31.16-3.27s.2-1.81.25-2.09c.28-1.65.53-2.37,1.52-2.52a12.18,12.18,0,0,0,5.4-2,9.94,9.94,0,0,0,3.52-4.06c.49-1.06.5-1.65.13-2a3.26,3.26,0,0,0-2.08-.46c-1,0-2.17.08-3.42.07a16,16,0,0,1-1.69-.11c.35-.9.73-1.79,1.07-2.52.41-.89.75-1.56.89-1.8.78-1.39,1.23-2,2.17-1.77a11.38,11.38,0,0,0,5.48-.11,9.51,9.51,0,0,0,4.47-2.62c.77-.81,1-1.34.74-1.77a3.1,3.1,0,0,0-1.74-1c-.88-.3-2-.58-3.11-1a12.32,12.32,0,0,1-1.37-.56c.42-.5.84-1,1.22-1.38.66-.72,1.2-1.25,1.4-1.44,1.17-1.08,1.77-1.48,2.61-1a11.26,11.26,0,0,0,5.25,1.57,9.41,9.41,0,0,0,5-1.11c1-.54,1.33-1,1.25-1.46s-.6-1-1.34-1.53-1.7-1.16-2.66-1.88l-.14-.12a9.07,9.07,0,0,0,3.18-.91,14.33,14.33,0,0,0,3.78-2.71c1.14-1.15,2-2.45,1.63-3.7s-1.83-1.92-3.62-2a11.34,11.34,0,0,0-5.26.93,8.81,8.81,0,0,0-3,2.15,28,28,0,0,1,.23-3.25c.09-1,.11-1.73-.26-2.06s-1.16-.24-2.6.54a11.17,11.17,0,0,0-4.84,5.1,8.12,8.12,0,0,0-.41,5.92c.26,1-.3,1.47-1.58,2.64-.21.2-.83.73-1.6,1.46-.45.42-.95.9-1.46,1.42a9.61,9.61,0,0,1-.64-1.43,25.25,25.25,0,0,1-.84-3.32c-.21-1-.42-1.68-.88-1.88s-1.18.12-2.3,1.3a11.21,11.21,0,0,0-3,6.34,8.14,8.14,0,0,0,1.42,5.77c.53.82.17,1.48-.69,3-.15.25-.57,1-1.08,1.88-.43.77-.91,1.69-1.37,2.63a8.84,8.84,0,0,1-1.14-1.23,25.34,25.34,0,0,1-1.95-3c-.53-.89-1-1.54-1.51-1.58s-1.14.52-1.86,2.09a11.75,11.75,0,0,0-.88,7.41,8.53,8.53,0,0,0,3.41,5.26c.82.62.69,1.41.37,3.21-.06.31-.22,1.15-.41,2.26s-.33,2.3-.45,3.56a11.21,11.21,0,0,1-1.59-.79,29.46,29.46,0,0,1-3-2.28c-.85-.69-1.54-1.17-2.07-1s-.93.95-1.07,2.77a12.41,12.41,0,0,0,1.88,7.66,8.89,8.89,0,0,0,5.32,3.91,1.52,1.52,0,0,1,1,.93,10.69,10.69,0,0,1,.54,2.1c.06.33.21,1.22.46,2.38s.59,2.57,1,3.93l.06.2a11.23,11.23,0,0,1-1.84-.15,28.11,28.11,0,0,1-3.87-1.06c-1.1-.34-2-.55-2.42-.19s-.54,1.3.05,3.16a14.06,14.06,0,0,0,2,4,12.36,12.36,0,0,0,2.9,2.84,9.35,9.35,0,0,0,6.77,1.67c1.15-.12,1.64.62,2.77,2.3.2.29.72,1.1,1.43,2.12s1.64,2.25,2.59,3.4l.46.55a10.55,10.55,0,0,1-1.82.62,28.11,28.11,0,0,1-4.17.62c-1.21.13-2.13.29-2.42.83s0,1.49,1.4,3a14.53,14.53,0,0,0,3.64,3,12.68,12.68,0,0,0,4,1.51,10.61,10.61,0,0,0,3.89,0,9,9,0,0,0,3.35-1.33,1.72,1.72,0,0,1,1.54-.15,12.2,12.2,0,0,1,2.13,1.16c.31.19,1.16.74,2.3,1.4s2.56,1.44,4,2.11S640,198.87,641.17,199.27Z"/><path class="cls-2" d="M668.73,202c-3.59,1-6.83,2-9.75,2.89,10.15,3.66,14.72,6.3,15.59,6.52,1.27.32,4.15-3.78,2.7-4.85A38.53,38.53,0,0,0,668.73,202Z"/><line class="cls-1" x1="441.46" y1="308.93" x2="441.46"/><rect class="cls-2" x="191.52" y="121.12" width="23.83" height="42.12"/><rect class="cls-2" x="224.88" y="103.35" width="23.83" height="59.9"/><rect class="cls-2" x="158.17" y="138.13" width="23.83" height="25.12"/><path class="cls-2" d="M291.21,80.62,271.62,46.89a1.69,1.69,0,0,0-2.92,0L249.11,80.62a1.7,1.7,0,0,0,0,1.69,1.68,1.68,0,0,0,1.46.85h7.67v80.09h23.83V83.16h7.67a1.68,1.68,0,0,0,1.47-.85A1.7,1.7,0,0,0,291.21,80.62Z"/></svg>