<svg xmlns="http://www.w3.org/2000/svg" viewBox="0 0 650.41 33.48"><defs><style>.cls-1{fill:#fff;}.cls-2,.cls-3{fill:none;}.cls-3{stroke:#000;stroke-miterlimit:10;}</style></defs><g id="レイヤー_2" data-name="レイヤー 2"><g id="pc"><path d="M18.83,31.53c0,.79-1.16,1.12-2.24,1.12-.82,0-1.26-.25-1.26-.76v0c0-.15,0-.8,0-1.3v-.14H9.43v.39c0,.25,0,.83,0,1.08S9.47,33,7.42,33c-.91,0-1.3-.29-1.3-.68v-.11c.14-1.15.21-4.1.21-4.32V24.3C4.39,28.72.83,31.46.4,31.46c-.08,0-.15,0-.15-.11A.67.67,0,0,1,.43,31c3.46-4.39,4.14-9,4.18-14.5a39.23,39.23,0,0,0-.33-5.62c-.82.58-3.56,2.38-4.06,2.38-.15,0-.22,0-.22-.15s.11-.25.29-.39C6,8.28,8.75,2.52,9.14,0c.69.11,4.79.9,4.79,1.84,0,.32-.5.54-1.08.54h-.32c5,1.29,8,3,8,5.29A1.69,1.69,0,0,1,18.9,9.5c-.65,0-1.23-.5-1.84-1.58A14.73,14.73,0,0,0,12.2,3,25.4,25.4,0,0,1,7.81,8.13c1.12.11,2.48.18,3.28.18h.79a8.58,8.58,0,0,1,1.94-2.44.28.28,0,0,1,.22.07c.75.47,2.81,2,2.81,2.73,0,.29-.26.47-.62.47H11.84c-1.11,0-3.09,0-4.17.15a1.85,1.85,0,0,1-.44-.65c-.79.68-1.58,1.29-2.44,1.91a18.14,18.14,0,0,1,3.34,1.36h6.74c.82-1,1.18-1.4,1.44-1.4.1,0,3.13,1.3,3.13,2.3,0,.33-.33.65-1,.83a9.54,9.54,0,0,0,0,1.19c0,1,0,2.09,0,2.09,0,.36,0,1.62.07,2s.07,1,.07,1.3v0c0,.76-1.11,1.19-2.3,1.19-.76,0-1.12-.29-1.12-.76v-.36H7.52A19.91,19.91,0,0,1,7,22.46a18,18,0,0,1,2.66,1.22h5.4c.25-.28,1.23-1.51,1.62-1.51a.21.21,0,0,1,.15,0c.82.32,2.95,1.69,2.95,2.45,0,.32-.33.64-1.12.86a8.76,8.76,0,0,0,0,1c0,.72,0,1.55,0,1.55,0,.54,0,1.69.07,2.12s.08,1.08.08,1.34ZM15.19,19.4c0-.5,0-1.55,0-2.23v-.72H7.88c0,.43,0,.79,0,1,0,.69-.08,1.37-.18,2h7.52Zm0-6.62H7.88v2.77h7.35Zm.18,11.77h-6v5h6ZM22.28,7.7A39.55,39.55,0,0,0,22,2.84c1.44,0,4.68.33,4.68,1.19,0,.29-.39.65-1.26.79,0,.58-.07,3.1-.07,5.83,0,3.64,0,7.56,0,7.56,0,1.62.07,3.14.1,4.47,0,.32.08,1.33.08,1.72,0,1.16-2.09,1.16-2.23,1.16-.94,0-1.27-.36-1.27-.9v-.18c.19-1.37.22-6.34.22-6.55ZM28.51,6c0-.43,0-4.1-.25-5.36,1.22,0,5,.21,5,1.15,0,.32-.43.68-1.26.86-.07,1.3-.07,5.73-.07,10.3,0,9.07,0,11.12.14,15.33v.33c0,4.06-4.25,4.6-4.68,4.6a.77.77,0,0,1-.68-.46c-.25-.65-1-1.84-4.11-2.88-.18-.08-.28-.18-.28-.26s.1-.18.32-.18h.11a32.2,32.2,0,0,0,3.63.29,2,2,0,0,0,2.13-2Z"/><path d="M79.23,21.38a5,5,0,0,0-5.29-4.89c-3.71,0-7.27,2.3-9.68,5-.86,1-1.3,1.84-2.56,2.09a5.53,5.53,0,0,1-1,.11c-1.8,0-2-1.37-2-1.58A1.45,1.45,0,0,1,59.4,21c2.12-1.58,4.57-3.49,5-4C68.51,12.81,73,6.88,73,6.52a.35.35,0,0,0-.32-.33.21.21,0,0,0-.15,0c-.86.39-2.55,1.58-3.38,2a5,5,0,0,1-2.45.86c-1.8,0-4-1.65-4-3,0-.47.25-.83.43-.83s.11,0,.14,0a3.45,3.45,0,0,0,2.23.76c1.91,0,5.84-1.58,6.45-1.84s.9-.79,1.65-.79c1,0,4.18,1.66,4.18,2.81,0,.93-1.66,1.51-2.38,2.16a90.46,90.46,0,0,0-8.35,8.35s0,0,0,0a1.1,1.1,0,0,0,.25-.11,18,18,0,0,1,6.73-1.48c5,0,8.82,2.88,8.82,6.63,0,5.5-6.3,9.28-12.38,9.28-4.83,0-7.7-2.27-7.7-4.53s2.33-3.17,4.71-3.17c3,0,5.72,1.65,5.83,4.61C76.14,27.25,79.23,24.8,79.23,21.38ZM66.74,25.09c-.36,0-2.37.07-2.37,1.4s1.94,2.16,4.64,2.23a12.15,12.15,0,0,0,1.62-.1C70.63,26.38,68.83,25.09,66.74,25.09Z"/><path d="M125.46,12.71c0,5-3.38,10.72-6,13.64A4.21,4.21,0,0,1,116.39,28c-2.56,0-5.29-3.53-5.29-7.56,0-6.66,6.37-14.72,15.69-14.72,7.2,0,12.78,5.32,12.78,11.59a12.49,12.49,0,0,1-5.33,10c-4.93,3.6-11.7,4-12.13,4s-.57,0-.57-.11.43-.36,1.51-.65c12.38-3.38,12.6-12.2,12.6-13.67,0-5.58-4.18-9.51-9.83-9.51a12.89,12.89,0,0,0-2.34.22A6.82,6.82,0,0,1,125.46,12.71Zm-12,6.15c0,2.67,1.62,5.11,2.74,5.11,1.91,0,7-8.64,7-13.57a4.74,4.74,0,0,0-.65-2.63C116.75,9.32,113.47,14.61,113.47,18.86Z"/><path d="M174.49,16c.07,0,.11.07.11.25a4.74,4.74,0,0,1-.22,1.19,30.48,30.48,0,0,0-1.29,7.77,12.43,12.43,0,0,0,.25,2.59,4.46,4.46,0,0,1,.18,1.19,1.67,1.67,0,0,1-1.69,1.62c-2.34,0-3.35-5.15-3.35-8.35,0-.83,0-1.66.11-2.41.32-3.46,1.19-6.77,1.73-9.83a15.22,15.22,0,0,0,.28-2.74,3.32,3.32,0,0,0-.86-2.69c-.29-.22-.54-.36-.54-.51a1,1,0,0,1,.94-.47c1.69,0,3.63,3.21,3.63,4.83a8.72,8.72,0,0,1-.72,2.84c-.61,1.69-2.27,6.44-2.27,9.29a12.31,12.31,0,0,0,.18,2s0,.1,0,.1a.29.29,0,0,0,.14,0h.08a.13.13,0,0,0,.14-.11C172.48,19.83,174.2,16,174.49,16Zm12.6-9.47c0-1.48-.5-2.27-1.91-2.45-.39,0-.65-.14-.65-.36a1.94,1.94,0,0,1,1.91-1.11c.94,0,4.32,1.26,4.32,2.55,0,.51-.29,1.12-.47,2.12-.1.65-.25,1.37-.32,2.13a5.32,5.32,0,0,1,2-.69c.1,0,3.2,0,3.2,1.62,0,1-1.05,1.48-2.7,1.48a18,18,0,0,0-2.74.14c-.07,1.12-.1,2.24-.1,3.35a30.78,30.78,0,0,0,.32,4.79,29.53,29.53,0,0,1,.36,3.2c.93.33,6,2,6,4.9a1.55,1.55,0,0,1-1.51,1.65c-.57,0-1.33-.25-2.27-1.58A9.13,9.13,0,0,0,190,25.81c-1.37,4.46-5.9,4.61-6.44,4.61-3.28,0-5.87-2.13-5.87-4.14,0-3.1,5.18-3.82,7.42-3.82a15.65,15.65,0,0,1,2.34.18c0-.43,0-.9,0-1.33,0-.94-.11-5.47-.25-9-1.48.32-3,.72-4.46,1a8.91,8.91,0,0,1-1.88.25c-1.9,0-4.14-1.44-4.14-2.52a.73.73,0,0,1,.22-.61c.11,0,.22.11.4.22a5.22,5.22,0,0,0,2.77.72c1.22,0,3.2-.47,7-1.37Zm-3.78,17.71c-3.1,0-4.46,1-4.46,1.87,0,1.44,2.88,1.91,3.52,1.91a4.75,4.75,0,0,0,4.76-3.24A13.26,13.26,0,0,0,183.31,24.19Z"/><path d="M228,31.78a17.21,17.21,0,0,0-5.58-6.44c-.36-.22-.54-.43-.54-.58s.21-.25.57-.25c1.05,0,9.62,1.84,9.62,6.37a2.25,2.25,0,0,1-2,2.52C229.32,33.4,228.6,32.94,228,31.78Z"/><path d="M264.71,18.36c-1.37,1.33-3.42,3.13-4,3.13-.15,0-.25-.07-.25-.22a.39.39,0,0,1,.14-.28c3.64-4,6.55-10.88,6.91-13.25,1.84.43,4.5,1.62,4.5,2.52,0,.32-.36.54-1,.54a2.64,2.64,0,0,1-.54,0,38.27,38.27,0,0,1-2.95,4.39c1.33.29,1.77.4,1.77.9s-.47.76-1.23.87c-.07.72-.07,2.09-.07,3.49,0,2.05,0,4.17,0,4.17,0,.9,0,3.89.07,5.48,0,.32,0,1.69,0,2.08s-.1,1.34-2.44,1.34c-1,0-1.34-.33-1.34-1v-.18c.15-1.59.33-6.95.33-7.71Zm-3.46-6.66c-.18,0-.29-.07-.29-.22s0-.14.15-.25a26.93,26.93,0,0,0,5.72-11c2.05.54,4.57,1.76,4.57,2.59,0,.36-.36.61-1,.61a3.05,3.05,0,0,1-.57-.07C267,8.13,261.76,11.7,261.25,11.7Zm17.35,8.89v5A63.63,63.63,0,0,0,285,23.83l.14,0a.33.33,0,0,1,.36.33.39.39,0,0,1-.21.32,86.1,86.1,0,0,1-13,5.87,2.64,2.64,0,0,1,0,.47c0,.54-.18.93-.5.93-1.05,0-2.52-4.57-2.56-4.75.72,0,1.77-.11,2.45-.18,1.12-.14,2.3-.32,3.56-.54l0-5.65c-1.22,0-3.31,0-4.54.18a2.44,2.44,0,0,1-.57-1.44c1.11.14,3.35.29,5.11.32V18.43a30.94,30.94,0,0,0-.29-3.82h.33c4.35,0,4.5,1,4.5,1.23s-.36.65-1.16.83c0,.57-.07,1.72-.07,3h.9A15.07,15.07,0,0,1,281.27,17a.17.17,0,0,1,.18-.11c.43,0,2.84,2.41,2.84,3.2,0,.29-.22.47-.58.47Zm-2.88-7.09a47.82,47.82,0,0,0-5,.25,2.52,2.52,0,0,1-.58-1.44c1.05.11,3.28.25,5.11.29V7.13c-1.18,0-2.77.07-3.81.18a2.52,2.52,0,0,1-.58-1.44,41.51,41.51,0,0,0,4.39.32V4.54A30.5,30.5,0,0,0,275,.61h.25c1.08,0,4.58.18,4.58,1.26,0,.33-.4.65-1.19.83,0,.61-.07,2-.07,3.53h.64a12.5,12.5,0,0,1,1.7-2.52.19.19,0,0,1,.18-.11c.21,0,2.7,2.05,2.7,3,0,.33-.26.51-.62.51h-4.6V12.6h1.11c1.19-2.16,1.91-2.81,2.05-2.81s2.85,2.2,2.85,3.28c0,.25-.18.43-.51.43Zm12.1-2.05c-1.05,0-2.59.1-3.46.21a2.76,2.76,0,0,1-.61-1.47,47.56,47.56,0,0,0,4.79.28h.61c.21-.32,1.91-2.91,2.37-2.91.69,0,3.35,2.77,3.35,3.38,0,.25-.18.47-.57.47h-3V23.83c0,1.11.11,3.2.14,4.21v.25c0,4.5-4.42,5.08-5,5.08a.63.63,0,0,1-.65-.47c-.68-1.66-1.87-2-3.92-2.7a.42.42,0,0,1-.29-.36.3.3,0,0,1,.33-.29H282c1.8.22,3.46.29,3.85.29a1.82,1.82,0,0,0,2-2.09Zm.47-7.31c-.69,0-2.78.07-3.93.22a2.92,2.92,0,0,1-.57-1.48,38.73,38.73,0,0,0,4.28.29h.43c.5-.87,1.91-2.88,2.3-2.88s3.39,2.7,3.39,3.35c0,.28-.22.5-.61.5Z"/><path class="cls-1" d="M324.5,11.84c-.86,0-4.06-.93-4.06-3.06,0,0,0-.9.28-.9.11,0,.22.07.4.22a3.63,3.63,0,0,0,2.56,1,25.18,25.18,0,0,0,5.65-1.22,25.34,25.34,0,0,0,.5-2.95c0-.72-.29-1.26-1.15-1.26h-.25a2.5,2.5,0,0,1-.43,0c-.26,0-.33-.07-.33-.14a2.45,2.45,0,0,1,2.38-1.59c1.33,0,3.45,1.34,3.45,2.6a4.26,4.26,0,0,1-.65,1.72,5.65,5.65,0,0,0-.28.62,7.73,7.73,0,0,1,1.29-.65,8.24,8.24,0,0,1,1.41-.15c1.18,0,1.58.4,1.58.94,0,.86-.4,1.19-5.4,2.91a84.92,84.92,0,0,0-5.83,17.86c-.11.5-.36,1.58-.47,1.94a2.76,2.76,0,0,1-2.23,1.91c-1.62,0-1.66-3.13-1.66-3.28a2.71,2.71,0,0,1,.4-1.62,13.67,13.67,0,0,0,1.8-2.95c1.62-4,3.85-8.71,5.22-13.17C326,11.66,325.15,11.84,324.5,11.84Zm17.89,19.51c-5.76,0-8.85-4.07-8.85-6.08a2.91,2.91,0,0,1,1.65-2.67c.11,0,.15.08.15.22a1.69,1.69,0,0,1-.29.83,1.53,1.53,0,0,0-.22.72c0,1.62,3.35,3.42,5.94,3.42a4.88,4.88,0,0,0,1.3-.15,6.31,6.31,0,0,1,1.3-.36c.5,0,3.85.15,3.85,2.06C347.22,31,344.12,31.35,342.39,31.35Zm3.71-15.91a16.92,16.92,0,0,0-5.79,1.87,1.68,1.68,0,0,1-.72.22c-.11,0-.18,0-.18-.11s.14-.29.43-.61c.11-.14,2.37-2.48,2.37-3.06s-2.34-.9-3.16-.9a5.54,5.54,0,0,0-1.55.18,1.38,1.38,0,0,1-.47.07c-.22,0-.32-.07-.32-.18,0-.57,1.9-1.73,4.64-1.73,5.54,0,6.26,2.45,6.26,3.06S347.22,15.33,346.1,15.44Zm-2.34-7.67a9,9,0,0,0-3.67-3.16c-.43-.18-.61-.33-.61-.51s.32-.32.93-.32c.94,0,5.76.5,5.76,3.24,0,.83-.54,1.58-1.18,1.58A1.58,1.58,0,0,1,343.76,7.77Zm3.49-2.51a9.43,9.43,0,0,0-3.81-3c-.43-.18-.61-.36-.61-.5s.36-.33.82-.33c1,0,5.91.33,5.91,3.1,0,.83-.51,1.55-1.12,1.55A1.63,1.63,0,0,1,347.25,5.26Z"/><path class="cls-1" d="M377.17,20.59c0-.72,0-1.48.11-2.27.4-3.81.83-5.65,1.33-9.07a15.86,15.86,0,0,0,.18-2.3c0-1.26-.21-2.38-.9-2.7-.32-.15-.65-.33-.65-.51s.47-.5,1.08-.5c1.37,0,3.75,2.41,3.75,4.39a8.57,8.57,0,0,1-.58,2.59c-1.15,3.82-2,6.77-2,9.07,0,.51.07,2.56.46,2.56.11,0,.26-.14.44-.54,1.79-4.25,3.09-7.38,3.59-7.38.11,0,.15.11.15.29a3.91,3.91,0,0,1-.25,1.19c-1.55,4.82-1.7,7-1.7,8.35a30.83,30.83,0,0,0,.26,3.6c0,.1,0,.18,0,.25a1.59,1.59,0,0,1-1.58,1.65C379,29.26,377.17,25.81,377.17,20.59Zm21.06-2.16V19c0,12.09-12.38,13.89-12.42,13.89s-.22,0-.22-.1.44-.47,1.26-.87c3.82-1.83,7.74-6.41,8.28-13.06.11-1.3.18-2.81.18-4.29,0-.54,0-1.08,0-1.58a30.37,30.37,0,0,1-4.36.5c-3.49,0-5-2.16-5-3.45,0-.65.32-1,.39-1s.29.15.47.4a4.31,4.31,0,0,0,3.6,1.48,34.32,34.32,0,0,0,4.71-.58c-.43-5.61-.54-6.44-2.05-6.44-.61,0-.9-.11-.9-.33a2.09,2.09,0,0,1,2-1.15c1,0,4.39,1.15,4.39,2.74,0,.57-.32,1.22-.43,2,0,.26-.15,1.3-.22,2.49a9.9,9.9,0,0,0,1.44-.51,10.25,10.25,0,0,1,2.05-1.08c.07,0,.15,0,.25,0,.69,0,2.49.46,2.49,1.65s-.51,1.44-6.3,2.77C397.91,14.47,398.19,17.42,398.23,18.43Z"/><path class="cls-1" d="M441.25,31.68c-7.41,0-7.92-6.52-7.92-10.3s.54-8.35.61-11.84V8.82c0-1.84-.18-4.07-1.87-4.18-.47,0-.68-.18-.68-.36,0-.54,1.11-1,1.76-1,1.44,0,4.79,2.05,4.79,4.53a15.72,15.72,0,0,1-.54,3,54.77,54.77,0,0,0-1.33,11.34c0,3.81.75,6.08,5,6.08,6.41,0,12.28-5.4,13.22-6.3.71-.65,1.15-1,1.33-1s.07,0,.07.11C455.65,21.92,450,31.68,441.25,31.68Zm4.68-18.4a10.21,10.21,0,0,0-3.38-4.35c-.4-.26-.58-.51-.58-.65s.18-.25.47-.25c1.19,0,6.3,1.83,6.3,4.5,0,1-.72,1.94-1.48,1.94C446.79,14.47,446.29,14.15,445.93,13.28Zm4.43-2.09A11.24,11.24,0,0,0,446.61,7c-.43-.29-.57-.5-.57-.65s.18-.25.5-.25c.87,0,6.48,1.26,6.48,4.25,0,1-.65,1.9-1.37,1.9C451.22,12.27,450.75,12,450.36,11.19Z"/><path class="cls-1" d="M487.91,21.38a4.43,4.43,0,0,1-2.67,1.22c-1.62,0-4-1.15-4-2.48,0-.5.33-1,.51-1s.29.11.5.29a2.43,2.43,0,0,0,1.44.43,8.41,8.41,0,0,0,3.13-.9,5.35,5.35,0,0,1-1.18-3.17c0-2.3,1.54-2.52,1.83-2.52a2.28,2.28,0,0,1,1,.22,3.11,3.11,0,0,0,1.12.14c1.29,0,3.2-.36,3.2-.72,0-.21-.57-.86-1.8-1.44-.39-.18-.57-.36-.57-.54,0-.36.61-.47,1.11-.47,1.73,0,4.93,1.3,4.93,3.57v.25a2.06,2.06,0,0,1-.21.65,18.74,18.74,0,0,1,2.7-.33h.18c2.73,0,5.69,1.48,5.69,3.93,0,2.66-3,4.86-6.48,4.86-3.71,0-7.24-2.49-7.24-2.81,0-.07.07-.11.25-.11a7.34,7.34,0,0,1,1.51.29,11.84,11.84,0,0,0,3.21.43c4,0,5.54-2,5.54-3.17,0-1-.79-2.08-2.59-2.08-3.42,0-6.84,2.41-8.93,4.06,1.55,2.31,3.64,5,4.29,6a7,7,0,0,1,1.54,4c0,2.63-1.44,2.7-1.69,2.7-.5,0-1-.32-1.15-1.18A26.12,26.12,0,0,0,488.45,21C488.27,21.13,488.09,21.27,487.91,21.38Zm4-6.84c-3.39,0-3.49,1.19-3.49,2.05a3.17,3.17,0,0,0,.46,1.37A51.82,51.82,0,0,1,494,15.55,4.18,4.18,0,0,0,491.87,14.54Z"/><path class="cls-1" d="M545.18,5.65a4.76,4.76,0,0,1,2.13-.47c1.33,0,1.62.44,1.62,1s-.33.93-1.19,1.29-2.38.79-3.92,1.37a110.13,110.13,0,0,0-6.09,12.89,3.16,3.16,0,0,1-2.84,2.08c-.76,0-1.3-.5-1.3-1.54a3.61,3.61,0,0,1,.87-2.42,45.12,45.12,0,0,0,6.66-10.29c-.62.21-1.12.43-1.77.68a6.2,6.2,0,0,1-2.3.54c-.76,0-4.21-.75-4.21-2.91,0-.29,0-.8.28-.8a1.9,1.9,0,0,1,.62.29,4.45,4.45,0,0,0,2.44.69,35.67,35.67,0,0,0,5.76-1.26,15.83,15.83,0,0,0,.47-2.41c0-.72-.32-1.23-1.29-1.23h-.36c-.26,0-.36-.11-.36-.25a2.23,2.23,0,0,1,2.16-1.33c1.29,0,3.34,1.22,3.34,2.45a2.64,2.64,0,0,1-.61,1.44Zm6.05,18.79c4.1,1,6.26,2.92,6.26,4.9,0,.68-.21,1.69-1.36,1.69a3.38,3.38,0,0,1-2.27-1.59,9.31,9.31,0,0,0-3.06-2.7,6.77,6.77,0,0,1-6.37,4.83c-3.31,0-5.94-2.27-5.94-4.18s2.7-3.81,7.23-3.81a19.53,19.53,0,0,1,2.56.18c0-.65,0-1.33,0-2,0-3.92.29-6,3.93-8.85.57-.47.79-.69.79-1,0-.1-.07-.61-2.2-.61a4.89,4.89,0,0,0-1.15.11,1.8,1.8,0,0,1-.57.07c-.26,0-.36-.07-.36-.18,0-.43,1.65-1.62,4.42-1.62s5.8,1.15,5.8,3c0,1-.68,1.41-2.3,1.41-.72,0-1.44-.07-1.95-.07-3.89,0-4.46,2.37-4.46,4.21,0,.32,0,.65,0,1,.18,1.84.62,3.6.72,5.22Zm-6.87.83c-2,0-4.76.43-4.76,1.91,0,1,1.66,1.9,3.75,1.9A4.44,4.44,0,0,0,548,25.74,12.78,12.78,0,0,0,544.36,25.27Z"/><path class="cls-1" d="M595.84,28.83a8.63,8.63,0,0,1-6.12-3.45c-2-2.78-2.56-5.8-2.56-10.44V13.21c0-2.27-.25-4.07-1-4.36-.32-.14-.47-.25-.47-.39s.65-.54,1.12-.54c1.44,0,3.85,2.37,3.85,4.17a12.86,12.86,0,0,1-.33,2.24,22.16,22.16,0,0,0-.36,3.6c0,6.11,3.53,6.44,3.86,6.44a1.51,1.51,0,0,0,1.36-1c.87-1.76,1.77-4.28,2.63-5.94.33-.65.58-1,.72-1s.11.11.11.32a5.5,5.5,0,0,1-.11.9A27.79,27.79,0,0,0,598,22.5a11.7,11.7,0,0,0,.47,3.31,2.78,2.78,0,0,1,.11.75A2.47,2.47,0,0,1,595.84,28.83Zm16.77-5.94a1.35,1.35,0,0,1-1.15-.72c-.61-1-.79-3.06-1.19-4.28a12.68,12.68,0,0,0-6.12-7.06c-.47-.21-.72-.46-.72-.64s.22-.29.61-.29a3.6,3.6,0,0,1,.58.07c5.51.86,10.15,6.12,10.15,9.58,0,2-.72,2.62-1,2.88A1.83,1.83,0,0,1,612.61,22.89Z"/><path class="cls-1" d="M645.63,33.12a4.81,4.81,0,1,1,4.78-4.79A4.8,4.8,0,0,1,645.63,33.12Zm0-8.14A3.33,3.33,0,1,0,649,28.33,3.36,3.36,0,0,0,645.63,25Z"/><path class="cls-2" d="M18.83,31.53c0,.79-1.16,1.12-2.24,1.12-.82,0-1.26-.25-1.26-.76v0c0-.15,0-.8,0-1.3v-.14H9.43v.39c0,.25,0,.83,0,1.08S9.47,33,7.42,33c-.91,0-1.3-.29-1.3-.68v-.11c.14-1.15.21-4.1.21-4.32V24.3C4.39,28.72.83,31.46.4,31.46c-.08,0-.15,0-.15-.11A.67.67,0,0,1,.43,31c3.46-4.39,4.14-9,4.18-14.5a39.23,39.23,0,0,0-.33-5.62c-.82.58-3.56,2.38-4.06,2.38-.15,0-.22,0-.22-.15s.11-.25.29-.39C6,8.28,8.75,2.52,9.14,0c.69.11,4.79.9,4.79,1.84,0,.32-.5.54-1.08.54h-.32c5,1.29,8,3,8,5.29A1.69,1.69,0,0,1,18.9,9.5c-.65,0-1.23-.5-1.84-1.58A14.73,14.73,0,0,0,12.2,3,25.4,25.4,0,0,1,7.81,8.13c1.12.11,2.48.18,3.28.18h.79a8.58,8.58,0,0,1,1.94-2.44.28.28,0,0,1,.22.07c.75.47,2.81,2,2.81,2.73,0,.29-.26.47-.62.47H11.84c-1.11,0-3.09,0-4.17.15a1.85,1.85,0,0,1-.44-.65c-.79.68-1.58,1.29-2.44,1.91a18.14,18.14,0,0,1,3.34,1.36h6.74c.82-1,1.18-1.4,1.44-1.4.1,0,3.13,1.3,3.13,2.3,0,.33-.33.65-1,.83a9.54,9.54,0,0,0,0,1.19c0,1,0,2.09,0,2.09,0,.36,0,1.62.07,2s.07,1,.07,1.3v0c0,.76-1.11,1.19-2.3,1.19-.76,0-1.12-.29-1.12-.76v-.36H7.52A19.91,19.91,0,0,1,7,22.46a18,18,0,0,1,2.66,1.22h5.4c.25-.28,1.23-1.51,1.62-1.51a.21.21,0,0,1,.15,0c.82.32,2.95,1.69,2.95,2.45,0,.32-.33.64-1.12.86a8.76,8.76,0,0,0,0,1c0,.72,0,1.55,0,1.55,0,.54,0,1.69.07,2.12s.08,1.08.08,1.34ZM15.19,19.4c0-.5,0-1.55,0-2.23v-.72H7.88c0,.43,0,.79,0,1,0,.69-.08,1.37-.18,2h7.52Zm0-6.62H7.88v2.77h7.35Zm.18,11.77h-6v5h6ZM22.28,7.7A39.55,39.55,0,0,0,22,2.84c1.44,0,4.68.33,4.68,1.19,0,.29-.39.65-1.26.79,0,.58-.07,3.1-.07,5.83,0,3.64,0,7.56,0,7.56,0,1.62.07,3.14.1,4.47,0,.32.08,1.33.08,1.72,0,1.16-2.09,1.16-2.23,1.16-.94,0-1.27-.36-1.27-.9v-.18c.19-1.37.22-6.34.22-6.55ZM28.51,6c0-.43,0-4.1-.25-5.36,1.22,0,5,.21,5,1.15,0,.32-.43.68-1.26.86-.07,1.3-.07,5.73-.07,10.3,0,9.07,0,11.12.14,15.33v.33c0,4.06-4.25,4.6-4.68,4.6a.77.77,0,0,1-.68-.46c-.25-.65-1-1.84-4.11-2.88-.18-.08-.28-.18-.28-.26s.1-.18.32-.18h.11a32.2,32.2,0,0,0,3.63.29,2,2,0,0,0,2.13-2Z"/><path class="cls-2" d="M79.23,21.38a5,5,0,0,0-5.29-4.89c-3.71,0-7.27,2.3-9.68,5-.86,1-1.3,1.84-2.56,2.09a5.53,5.53,0,0,1-1,.11c-1.8,0-2-1.37-2-1.58A1.45,1.45,0,0,1,59.4,21c2.12-1.58,4.57-3.49,5-4C68.51,12.81,73,6.88,73,6.52a.35.35,0,0,0-.32-.33.21.21,0,0,0-.15,0c-.86.39-2.55,1.58-3.38,2a5,5,0,0,1-2.45.86c-1.8,0-4-1.65-4-3,0-.47.25-.83.43-.83s.11,0,.14,0a3.45,3.45,0,0,0,2.23.76c1.91,0,5.84-1.58,6.45-1.84s.9-.79,1.65-.79c1,0,4.18,1.66,4.18,2.81,0,.93-1.66,1.51-2.38,2.16a90.46,90.46,0,0,0-8.35,8.35s0,0,0,0a1.1,1.1,0,0,0,.25-.11,18,18,0,0,1,6.73-1.48c5,0,8.82,2.88,8.82,6.63,0,5.5-6.3,9.28-12.38,9.28-4.83,0-7.7-2.27-7.7-4.53s2.33-3.17,4.71-3.17c3,0,5.72,1.65,5.83,4.61C76.14,27.25,79.23,24.8,79.23,21.38ZM66.74,25.09c-.36,0-2.37.07-2.37,1.4s1.94,2.16,4.64,2.23a12.15,12.15,0,0,0,1.62-.1C70.63,26.38,68.83,25.09,66.74,25.09Z"/><path class="cls-2" d="M125.46,12.71c0,5-3.38,10.72-6,13.64A4.21,4.21,0,0,1,116.39,28c-2.56,0-5.29-3.53-5.29-7.56,0-6.66,6.37-14.72,15.69-14.72,7.2,0,12.78,5.32,12.78,11.59a12.49,12.49,0,0,1-5.33,10c-4.93,3.6-11.7,4-12.13,4s-.57,0-.57-.11.43-.36,1.51-.65c12.38-3.38,12.6-12.2,12.6-13.67,0-5.58-4.18-9.51-9.83-9.51a12.89,12.89,0,0,0-2.34.22A6.82,6.82,0,0,1,125.46,12.71Zm-12,6.15c0,2.67,1.62,5.11,2.74,5.11,1.91,0,7-8.64,7-13.57a4.74,4.74,0,0,0-.65-2.63C116.75,9.32,113.47,14.61,113.47,18.86Z"/><path class="cls-2" d="M174.49,16c.07,0,.11.07.11.25a4.74,4.74,0,0,1-.22,1.19,30.48,30.48,0,0,0-1.29,7.77,12.43,12.43,0,0,0,.25,2.59,4.46,4.46,0,0,1,.18,1.19,1.67,1.67,0,0,1-1.69,1.62c-2.34,0-3.35-5.15-3.35-8.35,0-.83,0-1.66.11-2.41.32-3.46,1.19-6.77,1.73-9.83a15.22,15.22,0,0,0,.28-2.74,3.32,3.32,0,0,0-.86-2.69c-.29-.22-.54-.36-.54-.51a1,1,0,0,1,.94-.47c1.69,0,3.63,3.21,3.63,4.83a8.72,8.72,0,0,1-.72,2.84c-.61,1.69-2.27,6.44-2.27,9.29a12.31,12.31,0,0,0,.18,2s0,.1,0,.1a.29.29,0,0,0,.14,0h.08a.13.13,0,0,0,.14-.11C172.48,19.83,174.2,16,174.49,16Zm12.6-9.47c0-1.48-.5-2.27-1.91-2.45-.39,0-.65-.14-.65-.36a1.94,1.94,0,0,1,1.91-1.11c.94,0,4.32,1.26,4.32,2.55,0,.51-.29,1.12-.47,2.12-.1.65-.25,1.37-.32,2.13a5.32,5.32,0,0,1,2-.69c.1,0,3.2,0,3.2,1.62,0,1-1.05,1.48-2.7,1.48a18,18,0,0,0-2.74.14c-.07,1.12-.1,2.24-.1,3.35a30.78,30.78,0,0,0,.32,4.79,29.53,29.53,0,0,1,.36,3.2c.93.33,6,2,6,4.9a1.55,1.55,0,0,1-1.51,1.65c-.57,0-1.33-.25-2.27-1.58A9.13,9.13,0,0,0,190,25.81c-1.37,4.46-5.9,4.61-6.44,4.61-3.28,0-5.87-2.13-5.87-4.14,0-3.1,5.18-3.82,7.42-3.82a15.65,15.65,0,0,1,2.34.18c0-.43,0-.9,0-1.33,0-.94-.11-5.47-.25-9-1.48.32-3,.72-4.46,1a8.91,8.91,0,0,1-1.88.25c-1.9,0-4.14-1.44-4.14-2.52a.73.73,0,0,1,.22-.61c.11,0,.22.11.4.22a5.22,5.22,0,0,0,2.77.72c1.22,0,3.2-.47,7-1.37Zm-3.78,17.71c-3.1,0-4.46,1-4.46,1.87,0,1.44,2.88,1.91,3.52,1.91a4.75,4.75,0,0,0,4.76-3.24A13.26,13.26,0,0,0,183.31,24.19Z"/><path class="cls-2" d="M228,31.78a17.21,17.21,0,0,0-5.58-6.44c-.36-.22-.54-.43-.54-.58s.21-.25.57-.25c1.05,0,9.62,1.84,9.62,6.37a2.25,2.25,0,0,1-2,2.52C229.32,33.4,228.6,32.94,228,31.78Z"/><path class="cls-2" d="M264.71,18.36c-1.37,1.33-3.42,3.13-4,3.13-.15,0-.25-.07-.25-.22a.39.39,0,0,1,.14-.28c3.64-4,6.55-10.88,6.91-13.25,1.84.43,4.5,1.62,4.5,2.52,0,.32-.36.54-1,.54a2.64,2.64,0,0,1-.54,0,38.27,38.27,0,0,1-2.95,4.39c1.33.29,1.77.4,1.77.9s-.47.76-1.23.87c-.07.72-.07,2.09-.07,3.49,0,2.05,0,4.17,0,4.17,0,.9,0,3.89.07,5.48,0,.32,0,1.69,0,2.08s-.1,1.34-2.44,1.34c-1,0-1.34-.33-1.34-1v-.18c.15-1.59.33-6.95.33-7.71Zm-3.46-6.66c-.18,0-.29-.07-.29-.22s0-.14.15-.25a26.93,26.93,0,0,0,5.72-11c2.05.54,4.57,1.76,4.57,2.59,0,.36-.36.61-1,.61a3.05,3.05,0,0,1-.57-.07C267,8.13,261.76,11.7,261.25,11.7Zm17.35,8.89v5A63.63,63.63,0,0,0,285,23.83l.14,0a.33.33,0,0,1,.36.33.39.39,0,0,1-.21.32,86.1,86.1,0,0,1-13,5.87,2.64,2.64,0,0,1,0,.47c0,.54-.18.93-.5.93-1.05,0-2.52-4.57-2.56-4.75.72,0,1.77-.11,2.45-.18,1.12-.14,2.3-.32,3.56-.54l0-5.65c-1.22,0-3.31,0-4.54.18a2.44,2.44,0,0,1-.57-1.44c1.11.14,3.35.29,5.11.32V18.43a30.94,30.94,0,0,0-.29-3.82h.33c4.35,0,4.5,1,4.5,1.23s-.36.65-1.16.83c0,.57-.07,1.72-.07,3h.9A15.07,15.07,0,0,1,281.27,17a.17.17,0,0,1,.18-.11c.43,0,2.84,2.41,2.84,3.2,0,.29-.22.47-.58.47Zm-2.88-7.09a47.82,47.82,0,0,0-5,.25,2.52,2.52,0,0,1-.58-1.44c1.05.11,3.28.25,5.11.29V7.13c-1.18,0-2.77.07-3.81.18a2.52,2.52,0,0,1-.58-1.44,41.51,41.51,0,0,0,4.39.32V4.54A30.5,30.5,0,0,0,275,.61h.25c1.08,0,4.58.18,4.58,1.26,0,.33-.4.65-1.19.83,0,.61-.07,2-.07,3.53h.64a12.5,12.5,0,0,1,1.7-2.52.19.19,0,0,1,.18-.11c.21,0,2.7,2.05,2.7,3,0,.33-.26.51-.62.51h-4.6V12.6h1.11c1.19-2.16,1.91-2.81,2.05-2.81s2.85,2.2,2.85,3.28c0,.25-.18.43-.51.43Zm12.1-2.05c-1.05,0-2.59.1-3.46.21a2.76,2.76,0,0,1-.61-1.47,47.56,47.56,0,0,0,4.79.28h.61c.21-.32,1.91-2.91,2.37-2.91.69,0,3.35,2.77,3.35,3.38,0,.25-.18.47-.57.47h-3V23.83c0,1.11.11,3.2.14,4.21v.25c0,4.5-4.42,5.08-5,5.08a.63.63,0,0,1-.65-.47c-.68-1.66-1.87-2-3.92-2.7a.42.42,0,0,1-.29-.36.3.3,0,0,1,.33-.29H282c1.8.22,3.46.29,3.85.29a1.82,1.82,0,0,0,2-2.09Zm.47-7.31c-.69,0-2.78.07-3.93.22a2.92,2.92,0,0,1-.57-1.48,38.73,38.73,0,0,0,4.28.29h.43c.5-.87,1.91-2.88,2.3-2.88s3.39,2.7,3.39,3.35c0,.28-.22.5-.61.5Z"/><path class="cls-3" d="M324.5,11.84c-.86,0-4.06-.93-4.06-3.06,0,0,0-.9.28-.9.11,0,.22.07.4.22a3.63,3.63,0,0,0,2.56,1,25.18,25.18,0,0,0,5.65-1.22,25.34,25.34,0,0,0,.5-2.95c0-.72-.29-1.26-1.15-1.26h-.25a2.5,2.5,0,0,1-.43,0c-.26,0-.33-.07-.33-.14a2.45,2.45,0,0,1,2.38-1.59c1.33,0,3.45,1.34,3.45,2.6a4.26,4.26,0,0,1-.65,1.72,5.65,5.65,0,0,0-.28.62,7.73,7.73,0,0,1,1.29-.65,8.24,8.24,0,0,1,1.41-.15c1.18,0,1.58.4,1.58.94,0,.86-.4,1.19-5.4,2.91a84.92,84.92,0,0,0-5.83,17.86c-.11.5-.36,1.58-.47,1.94a2.76,2.76,0,0,1-2.23,1.91c-1.62,0-1.66-3.13-1.66-3.28a2.71,2.71,0,0,1,.4-1.62,13.67,13.67,0,0,0,1.8-2.95c1.62-4,3.85-8.71,5.22-13.17C326,11.66,325.15,11.84,324.5,11.84Zm17.89,19.51c-5.76,0-8.85-4.07-8.85-6.08a2.91,2.91,0,0,1,1.65-2.67c.11,0,.15.08.15.22a1.69,1.69,0,0,1-.29.83,1.53,1.53,0,0,0-.22.72c0,1.62,3.35,3.42,5.94,3.42a4.88,4.88,0,0,0,1.3-.15,6.31,6.31,0,0,1,1.3-.36c.5,0,3.85.15,3.85,2.06C347.22,31,344.12,31.35,342.39,31.35Zm3.71-15.91a16.92,16.92,0,0,0-5.79,1.87,1.68,1.68,0,0,1-.72.22c-.11,0-.18,0-.18-.11s.14-.29.43-.61c.11-.14,2.37-2.48,2.37-3.06s-2.34-.9-3.16-.9a5.54,5.54,0,0,0-1.55.18,1.38,1.38,0,0,1-.47.07c-.22,0-.32-.07-.32-.18,0-.57,1.9-1.73,4.64-1.73,5.54,0,6.26,2.45,6.26,3.06S347.22,15.33,346.1,15.44Zm-2.34-7.67a9,9,0,0,0-3.67-3.16c-.43-.18-.61-.33-.61-.51s.32-.32.93-.32c.94,0,5.76.5,5.76,3.24,0,.83-.54,1.58-1.18,1.58A1.58,1.58,0,0,1,343.76,7.77Zm3.49-2.51a9.43,9.43,0,0,0-3.81-3c-.43-.18-.61-.36-.61-.5s.36-.33.82-.33c1,0,5.91.33,5.91,3.1,0,.83-.51,1.55-1.12,1.55A1.63,1.63,0,0,1,347.25,5.26Z"/><path class="cls-3" d="M377.17,20.59c0-.72,0-1.48.11-2.27.4-3.81.83-5.65,1.33-9.07a15.86,15.86,0,0,0,.18-2.3c0-1.26-.21-2.38-.9-2.7-.32-.15-.65-.33-.65-.51s.47-.5,1.08-.5c1.37,0,3.75,2.41,3.75,4.39a8.57,8.57,0,0,1-.58,2.59c-1.15,3.82-2,6.77-2,9.07,0,.51.07,2.56.46,2.56.11,0,.26-.14.44-.54,1.79-4.25,3.09-7.38,3.59-7.38.11,0,.15.11.15.29a3.91,3.91,0,0,1-.25,1.19c-1.55,4.82-1.7,7-1.7,8.35a30.83,30.83,0,0,0,.26,3.6c0,.1,0,.18,0,.25a1.59,1.59,0,0,1-1.58,1.65C379,29.26,377.17,25.81,377.17,20.59Zm21.06-2.16V19c0,12.09-12.38,13.89-12.42,13.89s-.22,0-.22-.1.44-.47,1.26-.87c3.82-1.83,7.74-6.41,8.28-13.06.11-1.3.18-2.81.18-4.29,0-.54,0-1.08,0-1.58a30.37,30.37,0,0,1-4.36.5c-3.49,0-5-2.16-5-3.45,0-.65.32-1,.39-1s.29.15.47.4a4.31,4.31,0,0,0,3.6,1.48,34.32,34.32,0,0,0,4.71-.58c-.43-5.61-.54-6.44-2.05-6.44-.61,0-.9-.11-.9-.33a2.09,2.09,0,0,1,2-1.15c1,0,4.39,1.15,4.39,2.74,0,.57-.32,1.22-.43,2,0,.26-.15,1.3-.22,2.49a9.9,9.9,0,0,0,1.44-.51,10.25,10.25,0,0,1,2.05-1.08c.07,0,.15,0,.25,0,.69,0,2.49.46,2.49,1.65s-.51,1.44-6.3,2.77C397.91,14.47,398.19,17.42,398.23,18.43Z"/><path class="cls-3" d="M441.25,31.68c-7.41,0-7.92-6.52-7.92-10.3s.54-8.35.61-11.84V8.82c0-1.84-.18-4.07-1.87-4.18-.47,0-.68-.18-.68-.36,0-.54,1.11-1,1.76-1,1.44,0,4.79,2.05,4.79,4.53a15.72,15.72,0,0,1-.54,3,54.77,54.77,0,0,0-1.33,11.34c0,3.81.75,6.08,5,6.08,6.41,0,12.28-5.4,13.22-6.3.71-.65,1.15-1,1.33-1s.07,0,.07.11C455.65,21.92,450,31.68,441.25,31.68Zm4.68-18.4a10.21,10.21,0,0,0-3.38-4.35c-.4-.26-.58-.51-.58-.65s.18-.25.47-.25c1.19,0,6.3,1.83,6.3,4.5,0,1-.72,1.94-1.48,1.94C446.79,14.47,446.29,14.15,445.93,13.28Zm4.43-2.09A11.24,11.24,0,0,0,446.61,7c-.43-.29-.57-.5-.57-.65s.18-.25.5-.25c.87,0,6.48,1.26,6.48,4.25,0,1-.65,1.9-1.37,1.9C451.22,12.27,450.75,12,450.36,11.19Z"/><path class="cls-3" d="M487.91,21.38a4.43,4.43,0,0,1-2.67,1.22c-1.62,0-4-1.15-4-2.48,0-.5.33-1,.51-1s.29.11.5.29a2.43,2.43,0,0,0,1.44.43,8.41,8.41,0,0,0,3.13-.9,5.35,5.35,0,0,1-1.18-3.17c0-2.3,1.54-2.52,1.83-2.52a2.28,2.28,0,0,1,1,.22,3.11,3.11,0,0,0,1.12.14c1.29,0,3.2-.36,3.2-.72,0-.21-.57-.86-1.8-1.44-.39-.18-.57-.36-.57-.54,0-.36.61-.47,1.11-.47,1.73,0,4.93,1.3,4.93,3.57v.25a2.06,2.06,0,0,1-.21.65,18.74,18.74,0,0,1,2.7-.33h.18c2.73,0,5.69,1.48,5.69,3.93,0,2.66-3,4.86-6.48,4.86-3.71,0-7.24-2.49-7.24-2.81,0-.07.07-.11.25-.11a7.34,7.34,0,0,1,1.51.29,11.84,11.84,0,0,0,3.21.43c4,0,5.54-2,5.54-3.17,0-1-.79-2.08-2.59-2.08-3.42,0-6.84,2.41-8.93,4.06,1.55,2.31,3.64,5,4.29,6a7,7,0,0,1,1.54,4c0,2.63-1.44,2.7-1.69,2.7-.5,0-1-.32-1.15-1.18A26.12,26.12,0,0,0,488.45,21C488.27,21.13,488.09,21.27,487.91,21.38Zm4-6.84c-3.39,0-3.49,1.19-3.49,2.05a3.17,3.17,0,0,0,.46,1.37A51.82,51.82,0,0,1,494,15.55,4.18,4.18,0,0,0,491.87,14.54Z"/><path class="cls-3" d="M545.18,5.65a4.76,4.76,0,0,1,2.13-.47c1.33,0,1.62.44,1.62,1s-.33.93-1.19,1.29-2.38.79-3.92,1.37a110.13,110.13,0,0,0-6.09,12.89,3.16,3.16,0,0,1-2.84,2.08c-.76,0-1.3-.5-1.3-1.54a3.61,3.61,0,0,1,.87-2.42,45.12,45.12,0,0,0,6.66-10.29c-.62.21-1.12.43-1.77.68a6.2,6.2,0,0,1-2.3.54c-.76,0-4.21-.75-4.21-2.91,0-.29,0-.8.28-.8a1.9,1.9,0,0,1,.62.29,4.45,4.45,0,0,0,2.44.69,35.67,35.67,0,0,0,5.76-1.26,15.83,15.83,0,0,0,.47-2.41c0-.72-.32-1.23-1.29-1.23h-.36c-.26,0-.36-.11-.36-.25a2.23,2.23,0,0,1,2.16-1.33c1.29,0,3.34,1.22,3.34,2.45a2.64,2.64,0,0,1-.61,1.44Zm6.05,18.79c4.1,1,6.26,2.92,6.26,4.9,0,.68-.21,1.69-1.36,1.69a3.38,3.38,0,0,1-2.27-1.59,9.31,9.31,0,0,0-3.06-2.7,6.77,6.77,0,0,1-6.37,4.83c-3.31,0-5.94-2.27-5.94-4.18s2.7-3.81,7.23-3.81a19.53,19.53,0,0,1,2.56.18c0-.65,0-1.33,0-2,0-3.92.29-6,3.93-8.85.57-.47.79-.69.79-1,0-.1-.07-.61-2.2-.61a4.89,4.89,0,0,0-1.15.11,1.8,1.8,0,0,1-.57.07c-.26,0-.36-.07-.36-.18,0-.43,1.65-1.62,4.42-1.62s5.8,1.15,5.8,3c0,1-.68,1.41-2.3,1.41-.72,0-1.44-.07-1.95-.07-3.89,0-4.46,2.37-4.46,4.21,0,.32,0,.65,0,1,.18,1.84.62,3.6.72,5.22Zm-6.87.83c-2,0-4.76.43-4.76,1.91,0,1,1.66,1.9,3.75,1.9A4.44,4.44,0,0,0,548,25.74,12.78,12.78,0,0,0,544.36,25.27Z"/><path class="cls-3" d="M595.84,28.83a8.63,8.63,0,0,1-6.12-3.45c-2-2.78-2.56-5.8-2.56-10.44V13.21c0-2.27-.25-4.07-1-4.36-.32-.14-.47-.25-.47-.39s.65-.54,1.12-.54c1.44,0,3.85,2.37,3.85,4.17a12.86,12.86,0,0,1-.33,2.24,22.16,22.16,0,0,0-.36,3.6c0,6.11,3.53,6.44,3.86,6.44a1.51,1.51,0,0,0,1.36-1c.87-1.76,1.77-4.28,2.63-5.94.33-.65.58-1,.72-1s.11.11.11.32a5.5,5.5,0,0,1-.11.9A27.79,27.79,0,0,0,598,22.5a11.7,11.7,0,0,0,.47,3.31,2.78,2.78,0,0,1,.11.75A2.47,2.47,0,0,1,595.84,28.83Zm16.77-5.94a1.35,1.35,0,0,1-1.15-.72c-.61-1-.79-3.06-1.19-4.28a12.68,12.68,0,0,0-6.12-7.06c-.47-.21-.72-.46-.72-.64s.22-.29.61-.29a3.6,3.6,0,0,1,.58.07c5.51.86,10.15,6.12,10.15,9.58,0,2-.72,2.62-1,2.88A1.83,1.83,0,0,1,612.61,22.89Z"/><path d="M645.63,33.12a4.81,4.81,0,1,1,4.78-4.79A4.8,4.8,0,0,1,645.63,33.12Zm0-8.14A3.33,3.33,0,1,0,649,28.33,3.36,3.36,0,0,0,645.63,25Z"/></g></g></svg>