<svg xmlns="http://www.w3.org/2000/svg" viewBox="0 0 335 542.11"><defs><style>.cls-1{fill:#fff;}.cls-2,.cls-4{fill:#e8314b;}.cls-3{fill:none;stroke:#e8314b;stroke-miterlimit:10;stroke-width:1.76px;}.cls-4,.cls-5{fill-rule:evenodd;}.cls-5,.cls-6{fill:#333;}</style></defs><g id="レイヤー_2" data-name="レイヤー 2"><g id="pc"><rect class="cls-1" x="2.5" y="2.5" width="330" height="537.11"/><path class="cls-2" d="M330,5V537.11H5V5H330m5-5H0V542.11H335V0Z"/><line class="cls-3" y1="385.75" x2="335" y2="385.75"/><path class="cls-4" d="M108.76,277.18,25.37,288.9A84.21,84.21,0,0,1,97,193.79a90,90,0,0,1,11.72-.81Z"/><path class="cls-5" d="M108.76,277.18V193a84.21,84.21,0,1,1,0,168.41c-42.79,0-77.44-30.11-83.39-72.49Z"/><path class="cls-1" d="M88.22,253.41a2.33,2.33,0,0,1,1.89.75,2.73,2.73,0,0,1,.48,2.08,3,3,0,0,1-1,2.07,3.59,3.59,0,0,1-2.35.74,2.26,2.26,0,0,1-1.89-.78,2.85,2.85,0,0,1-.4-2.19,3,3,0,0,1,1.07-2A3.42,3.42,0,0,1,88.22,253.41Zm-.06.63c-.23,0-.43.2-.61.58a5.85,5.85,0,0,0-.42,1.62,6,6,0,0,0,0,1.6c.07.38.2.57.4.57s.48-.2.67-.58a5,5,0,0,0,.39-1.58,5.52,5.52,0,0,0,0-1.62C88.5,254.24,88.36,254,88.16,254Zm-.23,11.09-.72-.3,5.54-10.45a2.42,2.42,0,0,1-.87.34,3.08,3.08,0,0,1-.8,0,3.11,3.11,0,0,1-1-.28l-.79-.36a1.91,1.91,0,0,0-.84-.13l-.22-.55a4.18,4.18,0,0,1,1,.1,2.86,2.86,0,0,1,.67.25,4.07,4.07,0,0,0,.55.28,2,2,0,0,0,.62.15,2.11,2.11,0,0,0,.84-.1,4.3,4.3,0,0,0,.73-.3l.59-.31.62.28ZM94,259.41a2.29,2.29,0,0,1,1.86.75,2.69,2.69,0,0,1,.5,2.08,2.9,2.9,0,0,1-1,2.07,3.63,3.63,0,0,1-2.37.74,2.26,2.26,0,0,1-1.89-.78,2.81,2.81,0,0,1-.4-2.19,3,3,0,0,1,1.06-2A3.47,3.47,0,0,1,94,259.41Zm-.18.63c-.22,0-.42.2-.6.58a5.89,5.89,0,0,0-.41,1.62,5.3,5.3,0,0,0-.06,1.6c.06.38.2.57.4.57s.48-.19.66-.57a4.78,4.78,0,0,0,.41-1.59,5.52,5.52,0,0,0,0-1.62C94.18,260.24,94,260,93.82,260Z"/><path class="cls-1" d="M51.71,252.44,50,247.76a6.56,6.56,0,0,1,1.88-1.12,12.52,12.52,0,0,1,2.39-.68,14.81,14.81,0,0,1,2.54-.23,10.63,10.63,0,0,1,3.8.64,6.16,6.16,0,0,1,2.66,1.82,4.34,4.34,0,0,1,1,2.87,5.22,5.22,0,0,1-.54,2.34,8.52,8.52,0,0,1-1.39,2,15.39,15.39,0,0,1-1.87,1.73c-.68.52-1.34,1-2,1.42l-1.77,1.14h4.94a3.31,3.31,0,0,0,1.42-.3,3.75,3.75,0,0,0,1.17-.9,6.5,6.5,0,0,0,1-1.53h.26l-1.77,7.3H50.12V264c.75-.92,1.52-1.83,2.3-2.75s1.56-1.84,2.29-2.75a32.78,32.78,0,0,0,2-2.71,15.42,15.42,0,0,0,1.41-2.68,7.33,7.33,0,0,0,.52-2.63,3.73,3.73,0,0,0-.9-2.65A2.81,2.81,0,0,0,55.3,247a3.07,3.07,0,0,0-2.49,1.49,7.54,7.54,0,0,0-.84,3.92Z"/><path class="cls-1" d="M67.15,246.14l13.78,0-3.32,7.72c-.23.51-.47,1.11-.73,1.82s-.53,1.48-.81,2.29-.54,1.62-.8,2.42l-.72,2.22c-.22.69-.39,1.26-.51,1.73H69.62c.32-.52.69-1.15,1.12-1.88s.89-1.52,1.35-2.36l1.39-2.48c.46-.82.88-1.58,1.24-2.29s.66-1.28.88-1.75L77,250.64H68.64a1.81,1.81,0,0,0-1.23.39,2.86,2.86,0,0,0-.72,1.17h-.26Z"/><path class="cls-1" d="M159.48,300.72a2.33,2.33,0,0,1,1.89.75,2.74,2.74,0,0,1,.48,2.08,3,3,0,0,1-1,2.07,3.54,3.54,0,0,1-2.35.75,2.24,2.24,0,0,1-1.89-.79,2.81,2.81,0,0,1-.4-2.19,3,3,0,0,1,1.07-2A3.48,3.48,0,0,1,159.48,300.72Zm-.06.64c-.23,0-.43.19-.61.58a5.86,5.86,0,0,0-.42,1.61,6,6,0,0,0,0,1.6c.07.39.2.58.4.58s.48-.21.67-.59a5.1,5.1,0,0,0,.39-1.57,6,6,0,0,0,0-1.63C159.75,301.56,159.62,301.36,159.42,301.36Zm-.23,11.09-.72-.31L164,301.7a2.23,2.23,0,0,1-.87.33,2.71,2.71,0,0,1-.8,0,3.4,3.4,0,0,1-1-.28l-.79-.36a1.77,1.77,0,0,0-.84-.13l-.22-.56a4.12,4.12,0,0,1,1,.11,2.47,2.47,0,0,1,.67.25,5.6,5.6,0,0,0,.55.27,1.88,1.88,0,0,0,.62.15,2.11,2.11,0,0,0,.84-.09,5.34,5.34,0,0,0,.73-.31l.59-.3.62.27Zm6.07-5.73a2.29,2.29,0,0,1,1.86.75,2.7,2.7,0,0,1,.5,2.08,2.86,2.86,0,0,1-1,2.07,3.58,3.58,0,0,1-2.37.75,2.21,2.21,0,0,1-1.89-.79,2.77,2.77,0,0,1-.4-2.19,3,3,0,0,1,1.06-2A3.51,3.51,0,0,1,165.26,306.72Zm-.18.64c-.22,0-.42.19-.6.58a5.91,5.91,0,0,0-.41,1.61,5,5,0,0,0-.06,1.6c.06.39.19.58.4.58s.47-.19.66-.57a5.19,5.19,0,0,0,.41-1.59,6,6,0,0,0,0-1.63C165.43,307.56,165.29,307.36,165.08,307.36Z"/><path class="cls-1" d="M123,293.46l13.78,0-3.32,7.72c-.23.5-.47,1.11-.73,1.82s-.53,1.47-.81,2.29-.54,1.62-.8,2.42-.5,1.53-.72,2.22-.38,1.26-.51,1.73h-4.42c.32-.52.69-1.15,1.12-1.89s.89-1.52,1.35-2.35l1.4-2.48c.45-.83.87-1.59,1.23-2.29s.66-1.29.88-1.76l1.36-2.88H124.5a1.81,1.81,0,0,0-1.23.39,2.86,2.86,0,0,0-.72,1.17h-.26Z"/><path class="cls-1" d="M144.28,293.1a10.33,10.33,0,0,1,3.55.53,4.94,4.94,0,0,1,2.26,1.52,3.75,3.75,0,0,1,.8,2.42,3.88,3.88,0,0,1-.43,1.87,3.59,3.59,0,0,1-1.13,1.25,4.07,4.07,0,0,1-1.53.61,3.6,3.6,0,0,1-1.57-.07,6.93,6.93,0,0,1,1.71.25,5.77,5.77,0,0,1,1.76.83,4.4,4.4,0,0,1,1.39,1.59,5.12,5.12,0,0,1,.55,2.51,6,6,0,0,1-.85,3.21,6.9,6.9,0,0,1-2.27,2.29,9.89,9.89,0,0,1-3.21,1.27,12.46,12.46,0,0,1-3.67.21,11,11,0,0,1-3.6-.95l.05-.26a10.13,10.13,0,0,0,3-.39,8,8,0,0,0,2.53-1.24,6,6,0,0,0,1.74-2,5.21,5.21,0,0,0,.64-2.59,4,4,0,0,0-.74-2.53,4.29,4.29,0,0,0-1.85-1.39,5.83,5.83,0,0,0-2.22-.45l0-.26a4,4,0,0,0,2.21-.56,4.1,4.1,0,0,0,1.59-1.61,3.73,3.73,0,0,0,.44-2.27,2.72,2.72,0,0,0-.55-1.55,2.48,2.48,0,0,0-1.15-.82,3.42,3.42,0,0,0-1.47-.15,2.54,2.54,0,0,0-2.21,1.36,7.75,7.75,0,0,0-.6,3.68h-.26l-1.48-4.5a7.54,7.54,0,0,1,2.68-1.34A13.43,13.43,0,0,1,144.28,293.1Z"/><path class="cls-1" d="M69.25,227.13a10.11,10.11,0,0,1-1.82,4.05c1.95.82,3.12,1.69,3.12,2.44,0,.49-.21.77-.56.77s-.38-.09-.67-.37a17.35,17.35,0,0,0-2.5-2.14,9.41,9.41,0,0,1-6,2.49c-.06,0-.1-.18,0-.19a10.26,10.26,0,0,0,5.12-2.88,21,21,0,0,0-2-1l-.3.52c-.17.24-.27.3-.5.3-.44,0-.73-.14-.73-.34a1.36,1.36,0,0,1,.19-.44,20.22,20.22,0,0,0,1.56-3.19h-2a10.32,10.32,0,0,0-1.15.07l-.13-.45a7.74,7.74,0,0,0,1.27.1h2.1c.09-.23.17-.44.24-.66a12.11,12.11,0,0,0,.65-2.59c1.43.29,1.56.35,1.56.53s-.1.21-.46.33c-.26.86-.52,1.66-.79,2.39H69.8c.63-.77.77-.86.85-.86s.24.09.84.6c.27.22.36.33.36.42s0,.12-.15.12Zm-3.9,0A23.56,23.56,0,0,1,64.07,230a21.62,21.62,0,0,1,2.33.72A9.92,9.92,0,0,0,68,227.13Z"/><path class="cls-1" d="M76.42,227.28c0,.77-.28,1.42-.88,1.42a.54.54,0,0,1-.52-.6.63.63,0,0,1,.33-.6,1.44,1.44,0,0,0,.73-1.45c0-.06.1-.09.12,0A3.72,3.72,0,0,1,76.42,227.28Zm1.41-1.49c0,4.3,0,7.25,0,8.22,0,.36-.2.52-.65.52s-.54-.11-.54-.42c0-.9.06-3.63.06-9.06a12,12,0,0,0-.06-1.52c1.53.17,1.53.17,1.53.35s-.1.2-.38.31Zm.77,1.84c-.3,0-.38-.16-.38-.71a2.26,2.26,0,0,0-.3-1.18.05.05,0,0,1,.06-.08c.74.42,1.09.89,1.09,1.42A.5.5,0,0,1,78.6,227.63ZM82.87,230h.84c.58-.76.72-.86.8-.86s.23.1.82.59c.26.23.36.34.36.42s0,.12-.16.12H82.87v3.35H84.2c.64-.76.78-.85.87-.85s.24.09.86.58c.29.25.38.34.38.42s0,.12-.15.12H79.51a8,8,0,0,0-1,.08l-.14-.45a5.59,5.59,0,0,0,1.07.1h2.24v-3.35H80.25a4.79,4.79,0,0,0-.77.08l-.13-.45a4.22,4.22,0,0,0,.87.1h1.46v-2.77H80.26a6.84,6.84,0,0,1-1.83,2.35s-.14-.06-.1-.11a11.35,11.35,0,0,0,1.2-3.08,11.14,11.14,0,0,0,.25-1.72c1.51.4,1.51.4,1.51.58s0,.15-.4.3a11.89,11.89,0,0,1-.5,1.4h1.29v-1.63a15.28,15.28,0,0,0-.07-1.72c1.55.15,1.69.29,1.69.42s-.14.23-.43.33V227h1.24c.52-.73.67-.83.75-.83s.23.1.78.58c.25.21.35.32.35.41s0,.12-.16.12h-3Z"/><path class="cls-1" d="M137.11,278.19a5,5,0,0,1-1.1,2A6.45,6.45,0,0,1,131.8,282c-.06,0-.09-.12,0-.13a6.83,6.83,0,0,0,3.1-1.78,4.83,4.83,0,0,0,1.09-1.89h-2.75a5.33,5.33,0,0,0-1,.09l-.14-.47a5.91,5.91,0,0,0,1.11.1H136a5.9,5.9,0,0,0,.17-1.43c1.25.13,1.51.21,1.51.4s-.1.19-.37.3c0,.25-.09.5-.15.73h3.06c.42-.46.52-.53.61-.53s.22.07.65.46c.19.17.26.25.26.35s0,.12-.32.32a7.39,7.39,0,0,1-.72,2.78,1.41,1.41,0,0,1-.65.52,2.24,2.24,0,0,1-.8.14c-.23,0-.3-.06-.35-.25-.09-.47-.27-.65-1.35-1-.06,0-.05-.18,0-.17.95.1,1.47.12,1.69.12a.68.68,0,0,0,.71-.45,9.36,9.36,0,0,0,.39-2.06h-3.26Zm-3-1.84c0,.34-.2.46-.64.46s-.48-.09-.48-.42,0-.94,0-2.81c0-.75,0-1.49-.06-2.25a8.88,8.88,0,0,1,1.29.6h5.54c.43-.47.52-.54.62-.54s.23.07.67.41c.21.16.28.24.28.34s-.05.18-.35.39v.63c0,1.63.06,2.77.06,3.14s-.23.51-.66.51-.5-.1-.5-.43v-.27h-5.8Zm2.31-2.51v-1.63h-2.31v1.63Zm-2.31,2h2.31v-1.71h-2.31Zm5.8-3.62h-2.39v1.63h2.39Zm0,1.91h-2.39v1.71h2.39Z"/><path class="cls-1" d="M147.11,274.88c0,.77-.28,1.42-.88,1.42a.55.55,0,0,1-.53-.6.64.64,0,0,1,.34-.6,1.43,1.43,0,0,0,.73-1.45c0-.06.1-.09.12,0A3.76,3.76,0,0,1,147.11,274.88Zm1.41-1.48c0,4.29,0,7.24,0,8.21,0,.36-.2.52-.65.52s-.54-.11-.54-.42c0-.9.06-3.63.06-9.06a12.13,12.13,0,0,0-.06-1.52c1.52.17,1.52.17,1.52.35s-.09.2-.37.31Zm.77,1.83c-.3,0-.38-.15-.38-.71a2.26,2.26,0,0,0-.3-1.18.05.05,0,0,1,.06-.08c.74.42,1.09.89,1.09,1.42A.5.5,0,0,1,149.29,275.23Zm4.27,2.39h.84c.58-.76.72-.85.8-.85s.23.09.82.58c.26.23.36.34.36.42s0,.12-.16.12h-2.66v3.35h1.33c.64-.76.78-.85.87-.85s.24.09.86.59c.29.24.38.33.38.42s0,.12-.15.12H150.2a8,8,0,0,0-1,.07l-.13-.45a5.52,5.52,0,0,0,1.07.1h2.24v-3.35h-1.44a4.8,4.8,0,0,0-.76.08l-.14-.45a4.38,4.38,0,0,0,.88.1h1.46v-2.77H151a6.84,6.84,0,0,1-1.83,2.35c-.05,0-.14-.06-.1-.11a11.33,11.33,0,0,0,1.19-3.08,10.07,10.07,0,0,0,.26-1.72c1.51.4,1.51.4,1.51.58s0,.15-.4.3a11.28,11.28,0,0,1-.5,1.4h1.29v-1.63a15.28,15.28,0,0,0-.07-1.72c1.55.15,1.69.29,1.69.42s-.14.23-.43.33v2.6h1.24c.52-.73.67-.83.75-.83s.23.1.78.58c.25.22.35.32.35.41s0,.12-.16.12h-3Z"/><path class="cls-6" d="M294.44,257.26c-.07,0-.15-.11-.1-.15,3.83-2.72,5.3-5.71,5.3-10.83a8.43,8.43,0,0,0-.07-1.18c1.83.17,2,.21,2,.48s-.07.19-.49.39c0,.43,0,.85-.06,1.29a11,11,0,0,0,1.62,4.8,9.21,9.21,0,0,0,4.56,3.67c.07,0,.07.16,0,.17a1.26,1.26,0,0,0-.92,1c-.09.24-.14.29-.27.29a1.9,1.9,0,0,1-.73-.4,11.24,11.24,0,0,1-3.47-4.51,13.51,13.51,0,0,1-.87-3.76C300.45,253,298.59,255.37,294.44,257.26Z"/><path class="cls-2" d="M219.84,239l-2.67-7.2a9.81,9.81,0,0,1,2.9-1.72,18.64,18.64,0,0,1,3.67-1,21.88,21.88,0,0,1,3.91-.36,16.37,16.37,0,0,1,5.84,1,9.46,9.46,0,0,1,4.1,2.8,6.7,6.7,0,0,1,1.5,4.42,8.06,8.06,0,0,1-.83,3.6,12.89,12.89,0,0,1-2.13,3.12,25.17,25.17,0,0,1-2.89,2.66c-1,.81-2.06,1.54-3.07,2.2l-2.72,1.74h7.6a5.14,5.14,0,0,0,2.17-.46,5.71,5.71,0,0,0,1.81-1.38,10.43,10.43,0,0,0,1.5-2.36h.4l-2.72,11.24H217.4v-.4q1.72-2.13,3.55-4.24c1.21-1.42,2.38-2.82,3.52-4.22s2.15-2.8,3.06-4.18a23.69,23.69,0,0,0,2.16-4.12,11.09,11.09,0,0,0,.8-4,5.73,5.73,0,0,0-1.38-4.08,4.31,4.31,0,0,0-3.75-1.28,4.67,4.67,0,0,0-3.81,2.3,11.45,11.45,0,0,0-1.31,6Z"/><path class="cls-2" d="M246.92,258.74l-.16-.28a25.48,25.48,0,0,0,6.7-3,10.7,10.7,0,0,0,3.54-3.72,12.52,12.52,0,0,0,1.4-4.7,55.61,55.61,0,0,0,.28-5.94c0-2.22-.05-4.06-.16-5.54a8,8,0,0,0-.78-3.32,2.19,2.19,0,0,0-2.1-1.1,2.66,2.66,0,0,0-2.24,1,5.83,5.83,0,0,0-1,2.54,19.9,19.9,0,0,0-.28,3.4,19.2,19.2,0,0,0,.26,3.56,5.16,5.16,0,0,0,.72,1.9,2.61,2.61,0,0,0,1,.86,2.54,2.54,0,0,0,1.7.12,5.69,5.69,0,0,0,1.3-.56l.28.32a4.85,4.85,0,0,1-1.76,2,6.81,6.81,0,0,1-2.76,1,8.24,8.24,0,0,1-3.16-.14,7.76,7.76,0,0,1-2.94-1.44,7.51,7.51,0,0,1-2.14-2.86,10.14,10.14,0,0,1-.72-4.4,10.54,10.54,0,0,1,1.32-4.88,8.92,8.92,0,0,1,3.8-3.52,14.43,14.43,0,0,1,6.52-1.36q5.88-.09,9,3.12T267.68,242a21.4,21.4,0,0,1-1.28,7.66,13.63,13.63,0,0,1-3.88,5.62,15.28,15.28,0,0,1-6.48,3.18A26,26,0,0,1,246.92,258.74Z"/><path class="cls-2" d="M270.76,257.22l0-.4h.84a2.13,2.13,0,0,0,1.56-.64,2.08,2.08,0,0,0,.64-1.52V234.38a2.7,2.7,0,0,0-.72-2.16,2.9,2.9,0,0,0-1.92-.6h-.72v-.4c.56,0,1.32-.1,2.26-.22s2-.28,3.06-.48a30.77,30.77,0,0,0,3.18-.76,12.15,12.15,0,0,0,2.62-1.1h.4v26a2,2,0,0,0,.66,1.5,2.2,2.2,0,0,0,1.54.62H285v.4Z"/><polygon class="cls-6" points="264.14 215.52 266.85 191.21 221.43 191.21 218.73 215.52 264.14 215.52"/><path class="cls-1" d="M235.8,205.6a4.71,4.71,0,0,1-1.05,1.89,6.11,6.11,0,0,1-4,1.68c-.06,0-.08-.12,0-.13a6.44,6.44,0,0,0,2.94-1.69,4.51,4.51,0,0,0,1-1.8H232.1a5.9,5.9,0,0,0-.95.09l-.12-.44a5.92,5.92,0,0,0,1,.09h2.71a5.9,5.9,0,0,0,.15-1.36c1.19.13,1.44.2,1.44.38s-.09.18-.35.29c0,.23-.08.47-.14.69h2.91c.4-.43.49-.5.58-.5s.2.07.61.43c.19.16.26.24.26.33s0,.12-.31.31a7.06,7.06,0,0,1-.69,2.64,1.44,1.44,0,0,1-.61.5,2.07,2.07,0,0,1-.77.13c-.21,0-.28-.06-.33-.24-.09-.44-.26-.61-1.28-.9-.06,0-.05-.17,0-.16.9.09,1.4.12,1.6.12a.67.67,0,0,0,.68-.44,8.69,8.69,0,0,0,.37-2h-3.1ZM233,203.84c0,.33-.19.45-.61.45s-.46-.09-.46-.4,0-.9,0-2.68c0-.71,0-1.41-.06-2.13a8,8,0,0,1,1.22.57h5.26c.41-.45.51-.51.6-.51s.21.06.64.38c.19.15.26.23.26.32s0,.17-.33.38v.59c0,1.55,0,2.63,0,3s-.21.49-.62.49-.48-.11-.48-.41v-.26H233Zm2.19-2.38v-1.55H233v1.55ZM233,203.35h2.19v-1.63H233Zm5.51-3.44H236.2v1.55h2.27Zm0,1.81H236.2v1.63h2.27Z"/><path class="cls-1" d="M245.29,202.45c0,.73-.26,1.35-.83,1.35a.52.52,0,0,1-.5-.57.62.62,0,0,1,.32-.57,1.38,1.38,0,0,0,.69-1.38.06.06,0,0,1,.12,0A3.5,3.5,0,0,1,245.29,202.45Zm1.35-1.41c0,4.08,0,6.88,0,7.81,0,.34-.19.49-.61.49s-.52-.11-.52-.4c0-.86.06-3.44.06-8.61a11.09,11.09,0,0,0-.06-1.45c1.45.16,1.45.16,1.45.34s-.09.19-.35.29Zm.73,1.74c-.29,0-.37-.15-.37-.67a2.19,2.19,0,0,0-.28-1.13s0-.09.06-.07c.7.4,1,.85,1,1.35A.47.47,0,0,1,247.37,202.78Zm4.06,2.27h.79c.55-.72.69-.81.77-.81s.21.09.77.56c.25.22.34.32.34.4s0,.11-.14.11h-2.53v3.18h1.26c.61-.71.74-.81.82-.81s.23.1.82.56c.28.23.37.32.37.4s0,.12-.15.12h-6.32a8.93,8.93,0,0,0-.95.06l-.13-.42a5.71,5.71,0,0,0,1,.09h2.13v-3.18h-1.37a5.54,5.54,0,0,0-.73.07l-.13-.42a4,4,0,0,0,.84.09h1.39v-2.63h-1.36a6.37,6.37,0,0,1-1.73,2.23c-.05,0-.14-.05-.1-.1a10.7,10.7,0,0,0,1.14-2.93,11.24,11.24,0,0,0,.24-1.63c1.43.38,1.43.38,1.43.55s0,.15-.37.28a12.83,12.83,0,0,1-.48,1.34h1.23v-1.55a16,16,0,0,0-.07-1.63c1.47.13,1.61.27,1.61.39s-.14.22-.41.31v2.48h1.17c.5-.7.64-.79.72-.79s.21.09.74.55c.24.2.33.3.33.38s0,.12-.15.12h-2.81Z"/><path class="cls-6" d="M307.86,211a6.42,6.42,0,0,0-.68-1.67,7,7,0,0,0-1.91-2.08,11,11,0,0,0-1.75-1c-.9-.42-1.82-.74-2.67-1.06a13.49,13.49,0,0,1-2.23-1,5.68,5.68,0,0,1-.6-.4,3,3,0,0,1-.6-.7,2.43,2.43,0,0,1-.28-.91c0-.25,0-.5,0-.73a8.55,8.55,0,0,1,.23-1.87,8.23,8.23,0,0,0,1.06-1.55,18.72,18.72,0,0,0,1-2.19,3.84,3.84,0,0,0,.59-.33,4.35,4.35,0,0,0,1.24-1.28,6.7,6.7,0,0,0,.83-2.12,2.92,2.92,0,0,0,.08-.71,3.13,3.13,0,0,0-.31-1.37,3.47,3.47,0,0,0-.5-.8c.1-.37.22-.88.33-1.47a15.87,15.87,0,0,0,.28-2.84,10.13,10.13,0,0,0-.19-2,7.31,7.31,0,0,0-.46-1.51,5.58,5.58,0,0,0-1.42-2,5.82,5.82,0,0,0-2.24-1.22,8.51,8.51,0,0,0-1.17-1.16,6.42,6.42,0,0,0-2.14-1.13,7.6,7.6,0,0,0-2.21-.3,11.46,11.46,0,0,0-1.17.06c-.37,0-.67.07-.94.11a7,7,0,0,0-1.07.27l-1.05.41c-.15.06-.36.15-.6.27a11.13,11.13,0,0,0-1.58,1,10.2,10.2,0,0,0-2.64,2.88,9,9,0,0,0-.94,2.15,9.6,9.6,0,0,0-.37,2.66,11.87,11.87,0,0,0,.17,1.91v.13a2.46,2.46,0,0,1,0,.26c0,.14,0,.28.05.39s0,.11,0,.15v.05h0v.07l.16.73a3.91,3.91,0,0,0-.6.86,3.27,3.27,0,0,0-.35,1.46,3.51,3.51,0,0,0,.08.71,7.86,7.86,0,0,0,.5,1.51,4.71,4.71,0,0,0,1.13,1.55,4.32,4.32,0,0,0,1,.68,17.7,17.7,0,0,0,.95,2.18,8.23,8.23,0,0,0,1.06,1.55,8.55,8.55,0,0,1,.23,1.87,6.18,6.18,0,0,1,0,.73,2.55,2.55,0,0,1-.16.66,2.4,2.4,0,0,1-.52.76,4.17,4.17,0,0,1-.88.64,10.72,10.72,0,0,1-1.22.58c-.78.31-1.68.61-2.59,1a14.45,14.45,0,0,0-2,1,8.47,8.47,0,0,0-1.4,1,6.48,6.48,0,0,0-1.61,2.27,8.44,8.44,0,0,0-.6,3.31,1.25,1.25,0,0,0,.1.51,2.13,2.13,0,0,0,.23.42,3,3,0,0,0,.7.68,8.46,8.46,0,0,0,2,1,25,25,0,0,0,5.24,1.24,60,60,0,0,0,8.24.51,63.29,63.29,0,0,0,7.33-.39,36,36,0,0,0,4-.7,17,17,0,0,0,2.19-.67,9.74,9.74,0,0,0,1.24-.55,5.12,5.12,0,0,0,.71-.44,3.1,3.1,0,0,0,.76-.72,1.63,1.63,0,0,0,.23-.43,1.34,1.34,0,0,0,.1-.49A9.05,9.05,0,0,0,307.86,211Zm-17.67.62-4.86-6.22a7,7,0,0,0,.72-.49,4.5,4.5,0,0,0,.66-.65l3.54,1.64-.76,1.26,1.17,1.24Zm-3-8.19a3.88,3.88,0,0,0,.28-1.09c0-.31,0-.6,0-.88a10.53,10.53,0,0,0-.29-2.34l0-.19-.14-.14a6.4,6.4,0,0,1-1-1.4,15.82,15.82,0,0,1-1-2.29l-.11-.3-.3-.11a2.92,2.92,0,0,1-.61-.31,2.85,2.85,0,0,1-.84-.88,5.25,5.25,0,0,1-.66-1.69,1.91,1.91,0,0,1,.16-1.24,2.32,2.32,0,0,1,.46-.63,9.33,9.33,0,0,0,.67,1c.31.31.21.21.32.06,0,0,.35-.5,2.21-4.11,3.72.82,10.21-4.76,10.21-4.76a6.9,6.9,0,0,0,1.32,3.46c1.18,1.56,1.85,5.24,1.85,5.24s.16-.3.4-.71a2.22,2.22,0,0,1,.34.54,1.79,1.79,0,0,1,.18.79,1.87,1.87,0,0,1,0,.4,6,6,0,0,1-.41,1.24,3.43,3.43,0,0,1-.79,1.1,2.77,2.77,0,0,1-.91.54l-.3.11-.11.3a16.58,16.58,0,0,1-1,2.29,6.76,6.76,0,0,1-1,1.4l-.13.14-.05.19a11.15,11.15,0,0,0-.29,2.34,8.71,8.71,0,0,0,0,.87,4,4,0,0,0,.24,1,.05.05,0,0,1,0,0l-4.18,2.2Zm6.2,8.41-.5-3.44,1.17-1.24-.76-1.27,3.2-1.68a3,3,0,0,0,.28.33,5.53,5.53,0,0,0,1.08.83Z"/><path class="cls-6" d="M294.44,356c-.07,0-.15-.11-.1-.15,3.83-2.72,5.3-5.7,5.3-10.83a8.52,8.52,0,0,0-.07-1.18c1.83.17,2,.21,2,.48s-.07.19-.49.39c0,.44,0,.86-.06,1.29a11,11,0,0,0,1.62,4.8,9.21,9.21,0,0,0,4.56,3.67c.07,0,.07.16,0,.17a1.26,1.26,0,0,0-.92,1c-.09.24-.14.29-.27.29a1.9,1.9,0,0,1-.73-.4,11.24,11.24,0,0,1-3.47-4.51,13.51,13.51,0,0,1-.87-3.76C300.45,351.68,298.59,354.06,294.44,356Z"/><path class="cls-2" d="M220.64,355.91l0-.4h.84a2.16,2.16,0,0,0,1.56-.64,2.08,2.08,0,0,0,.64-1.52V333.07a2.7,2.7,0,0,0-.72-2.16,2.9,2.9,0,0,0-1.92-.6h-.72v-.4c.56,0,1.31-.1,2.26-.22s2-.28,3.06-.48a32.06,32.06,0,0,0,3.18-.76,12.15,12.15,0,0,0,2.62-1.1h.4v26a2,2,0,0,0,.66,1.5,2.19,2.19,0,0,0,1.54.62h.84v.4Z"/><path class="cls-2" d="M249.92,327.35a11.9,11.9,0,0,1,6.68,1.82,11.75,11.75,0,0,1,4.24,5.08,20.51,20.51,0,0,1,0,15.3,11.93,11.93,0,0,1-21.84,0,20.51,20.51,0,0,1,0-15.3,11.72,11.72,0,0,1,4.26-5.08A11.9,11.9,0,0,1,249.92,327.35Zm0,2q-2.08,0-3,3.06a47.49,47.49,0,0,0,0,19q1,3.06,3,3.06t3-3.06a47.49,47.49,0,0,0,0-19Q252,329.35,249.92,329.35Z"/><path class="cls-2" d="M282.84,334.63l-12.28,1L269.8,339a19.24,19.24,0,0,1,6.8-.56,11.26,11.26,0,0,1,5,1.7,8.19,8.19,0,0,1,3,3.42,9.79,9.79,0,0,1,.84,4.64,9.39,9.39,0,0,1-1.64,5.12,11.41,11.41,0,0,1-3.9,3.46,17.3,17.3,0,0,1-5.18,1.8,18.1,18.1,0,0,1-5.54.14,15,15,0,0,1-5-1.52l.08-.4a14.12,14.12,0,0,0,2.56-.2,20,20,0,0,0,3.18-.8,15.1,15.1,0,0,0,3.14-1.5,8.83,8.83,0,0,0,2.44-2.26,5.85,5.85,0,0,0,1.08-3.12,4.22,4.22,0,0,0-1.24-3.58,5.89,5.89,0,0,0-3.82-1.44,12.55,12.55,0,0,0-5.46,1.1l-.36-.24L269,329.35l11.92-1a3.21,3.21,0,0,0,2-.56,4.22,4.22,0,0,0,1.16-1.44h.4Z"/><polygon class="cls-2" points="264.14 314.21 266.85 289.91 221.43 289.91 218.73 314.21 264.14 314.21"/><path class="cls-6" d="M306.93,307.38a8.2,8.2,0,0,0-4.08-2.95,21.52,21.52,0,0,0-2.1-.66c-.64-.17-1.19-.32-1.56-.46a8,8,0,0,1-1.81-.89,2.15,2.15,0,0,1-.53-.49.56.56,0,0,1-.14-.34v-2.43a9.84,9.84,0,0,0,2.51-4.63,4.29,4.29,0,0,0,.51-.28,3.42,3.42,0,0,0,1-1.24,10.92,10.92,0,0,0,.83-2.25,4.79,4.79,0,0,0,.21-1.3,2.33,2.33,0,0,0-.26-1.13,1.81,1.81,0,0,0-.86-.8c1.36-7.33-2.93-12.91-8.62-12.63-5.21-1.15-8.54-.86-9,3.77a5.11,5.11,0,0,0,.11,3.76,10.53,10.53,0,0,0-.42,2.85v2.17a1.77,1.77,0,0,0-1.08.88,2.33,2.33,0,0,0-.26,1.13,4.79,4.79,0,0,0,.21,1.3,9.08,9.08,0,0,0,1.14,2.75,3,3,0,0,0,.73.74,4.29,4.29,0,0,0,.51.28,9.84,9.84,0,0,0,2.51,4.63v2.43a.6.6,0,0,1-.15.35,3.23,3.23,0,0,1-1,.76,10.16,10.16,0,0,1-1.36.61c-.5.18-1.32.36-2.24.63a11.3,11.3,0,0,0-4.32,2.1,6.38,6.38,0,0,0-1.65,2.17,7.41,7.41,0,0,0-.64,3.16c0,.29,0,.58,0,.89a1.08,1.08,0,0,0,.19.53,2.49,2.49,0,0,0,.73.67,10.65,10.65,0,0,0,2.2,1,41.43,41.43,0,0,0,13.24,1.92A44.69,44.69,0,0,0,303.1,315a17.64,17.64,0,0,0,3.36-1.22,5.09,5.09,0,0,0,1-.65,1.78,1.78,0,0,0,.34-.38,1.08,1.08,0,0,0,.19-.53c0-.3,0-.6,0-.88A7.06,7.06,0,0,0,306.93,307.38Zm-20.36-3.89a3.73,3.73,0,0,0,.85-.78,1.89,1.89,0,0,0,.41-1.12v-2.92l-.17-.18a8.71,8.71,0,0,1-2.45-4.54l-.06-.36-.35-.13a2.47,2.47,0,0,1-.54-.26,2,2,0,0,1-.64-.79,11,11,0,0,1-.74-2,3.93,3.93,0,0,1-.16-1,1.28,1.28,0,0,1,.11-.53.53.53,0,0,1,.3-.26,1.1,1.1,0,0,1,.27-.05l.66,0v-3.38a9.8,9.8,0,0,1,.08-1.08c1.48,2.1,4.27,4.09,8.95,4.89a47.76,47.76,0,0,1-1.74-6.22s3.13,4.56,7.85,5v.75l.66,0a.92.92,0,0,1,.38.11.46.46,0,0,1,.19.2,1.13,1.13,0,0,1,.11.53,3.85,3.85,0,0,1-.16,1,7.91,7.91,0,0,1-1,2.35,1.57,1.57,0,0,1-.42.43,2.47,2.47,0,0,1-.54.26l-.35.13-.06.36a8.64,8.64,0,0,1-2.45,4.54l-.17.18v2.92a1.88,1.88,0,0,0,.39,1.1,4.23,4.23,0,0,0,1.32,1.08,7.54,7.54,0,0,0,.75.38l-2.45,2.45a8.16,8.16,0,0,1-7.45,0l-2.52-2.51A7.94,7.94,0,0,0,286.57,303.49Z"/><path class="cls-6" d="M283.05,294s.72,8.15-2.29,10.59c0,0,8.86-1.1,6.22-5.57L284.41,294l-1.54-1.09Z"/><path class="cls-6" d="M300.19,294s-.71,8.15,2.29,10.59c0,0-8.86-1.1-6.22-5.57l2.57-5.05,1.54-1.09Z"/><path class="cls-1" d="M238.49,301a9.6,9.6,0,0,1-1.73,3.85c1.86.77,3,1.61,3,2.31,0,.47-.19.74-.52.74s-.37-.09-.64-.35a16.89,16.89,0,0,0-2.38-2,9,9,0,0,1-5.67,2.37s-.09-.17,0-.18a9.75,9.75,0,0,0,4.86-2.74,20.1,20.1,0,0,0-1.91-1c-.09.17-.19.35-.28.49s-.26.29-.47.29c-.42,0-.7-.13-.7-.32a1.15,1.15,0,0,1,.18-.42,20.9,20.9,0,0,0,1.49-3h-1.88c-.33,0-.67,0-1.1.06l-.12-.42a7.9,7.9,0,0,0,1.2.09h2c.08-.21.16-.42.23-.62a11,11,0,0,0,.61-2.47c1.36.28,1.48.34,1.48.51s-.09.2-.43.32c-.25.8-.5,1.57-.75,2.26H239c.59-.73.72-.82.8-.82s.23.09.8.57c.25.22.34.32.34.4s0,.12-.14.12Zm-3.7,0a25.3,25.3,0,0,1-1.22,2.77,21.65,21.65,0,0,1,2.21.68,9.35,9.35,0,0,0,1.51-3.45Z"/><path class="cls-1" d="M245.29,301.14c0,.73-.26,1.35-.83,1.35a.52.52,0,0,1-.5-.57.62.62,0,0,1,.32-.57A1.37,1.37,0,0,0,245,300a.06.06,0,0,1,.12,0A3.54,3.54,0,0,1,245.29,301.14Zm1.35-1.41c0,4.08,0,6.89,0,7.81,0,.34-.19.49-.61.49s-.52-.1-.52-.4c0-.86.06-3.44.06-8.61a10.92,10.92,0,0,0-.06-1.44c1.45.16,1.45.16,1.45.33s-.09.19-.35.29Zm.73,1.75c-.29,0-.37-.15-.37-.68a2.19,2.19,0,0,0-.28-1.13s0-.09.06-.06c.7.39,1,.84,1,1.34A.48.48,0,0,1,247.37,301.48Zm4.06,2.26h.79c.55-.72.69-.81.77-.81s.21.09.77.56c.25.22.34.32.34.4s0,.12-.14.12h-2.53v3.18h1.26c.61-.72.74-.81.82-.81s.23.09.82.55c.28.23.37.32.37.4s0,.12-.15.12h-6.32a7.08,7.08,0,0,0-.95.07l-.13-.43a5.82,5.82,0,0,0,1,.1h2.13V304h-1.37a5.34,5.34,0,0,0-.73.06l-.13-.42a4,4,0,0,0,.84.09h1.39v-2.63h-1.36a6.37,6.37,0,0,1-1.73,2.23c-.05,0-.14,0-.1-.1a10.7,10.7,0,0,0,1.14-2.93,11,11,0,0,0,.24-1.63c1.43.38,1.43.38,1.43.55s0,.15-.37.28a12.06,12.06,0,0,1-.48,1.34h1.23V299.3a16.18,16.18,0,0,0-.07-1.63c1.47.13,1.61.27,1.61.4s-.14.21-.41.3v2.48h1.17c.5-.7.64-.79.72-.79s.21.09.74.55c.24.2.33.31.33.39s0,.11-.15.11h-2.81Z"/><path class="cls-6" d="M118.68,158.69a11.94,11.94,0,0,1-2.13,4.73c2.28,1,3.64,2,3.64,2.84,0,.58-.24.91-.65.91s-.44-.11-.78-.43a20.82,20.82,0,0,0-2.93-2.51,11,11,0,0,1-7,2.92c-.07,0-.11-.21,0-.23a12,12,0,0,0,6-3.36,24.63,24.63,0,0,0-2.35-1.19l-.35.6c-.2.28-.31.35-.58.35-.52,0-.85-.15-.85-.39a1.42,1.42,0,0,1,.22-.52,23.93,23.93,0,0,0,1.82-3.72h-2.31a11.46,11.46,0,0,0-1.34.08l-.16-.52a9.33,9.33,0,0,0,1.49.11h2.45c.1-.26.19-.52.28-.77a13.92,13.92,0,0,0,.75-3c1.67.33,1.83.4,1.83.61s-.12.26-.54.4c-.3,1-.61,1.93-.92,2.78h5.07c.73-.89.9-1,1-1s.28.12,1,.71c.3.26.42.39.42.49s0,.14-.19.14Zm-4.56,0a26.39,26.39,0,0,1-1.5,3.4,27,27,0,0,1,2.72.84,11.43,11.43,0,0,0,1.86-4.24Z"/><path class="cls-6" d="M127,158.87c0,.89-.32,1.65-1,1.65a.63.63,0,0,1-.62-.7.75.75,0,0,1,.39-.7,1.71,1.71,0,0,0,.86-1.7.07.07,0,0,1,.14,0A4.68,4.68,0,0,1,127,158.87Zm1.65-1.74c0,5,0,8.46,0,9.6,0,.42-.23.6-.75.6s-.63-.13-.63-.49c0-1.05.07-4.23.07-10.58a16.26,16.26,0,0,0-.07-1.78c1.78.2,1.78.2,1.78.41s-.12.24-.44.36Zm.9,2.14c-.35,0-.45-.18-.45-.82a2.66,2.66,0,0,0-.35-1.39c0-.06,0-.11.07-.08.87.49,1.27,1,1.27,1.65A.58.58,0,0,1,129.58,159.27Zm5,2.79h1c.67-.88.84-1,.93-1s.27.11,1,.68c.3.27.42.4.42.49s-.05.14-.19.14h-3.11v3.91h1.56c.74-.88.91-1,1-1s.28.11,1,.68c.33.28.45.4.45.49s-.05.14-.19.14h-7.76a9,9,0,0,0-1.17.09l-.16-.52a7.65,7.65,0,0,0,1.25.11h2.62v-3.91H131.5a5.45,5.45,0,0,0-.9.09l-.15-.52a5,5,0,0,0,1,.11h1.71v-3.23h-1.67a7.88,7.88,0,0,1-2.13,2.74s-.17-.07-.12-.12a13.22,13.22,0,0,0,1.4-3.61,12.21,12.21,0,0,0,.29-2c1.77.46,1.77.46,1.77.67s0,.19-.47.35a14.06,14.06,0,0,1-.58,1.64h1.51v-1.9a16.78,16.78,0,0,0-.09-2c1.81.16,2,.33,2,.49s-.17.26-.51.37v3H136c.61-.85.78-1,.88-1s.27.11.91.67c.29.25.41.38.41.48s-.05.14-.19.14h-3.46Z"/><path class="cls-6" d="M143.86,161.28a10.7,10.7,0,0,1-1.63,1.12s-.14-.1-.1-.16a15.32,15.32,0,0,0,2.3-3.06,8.06,8.06,0,0,0,.72-1.64c1.42.7,1.48.73,1.48.89s-.11.23-.52.28a9.36,9.36,0,0,1-1.22,1.59c.51.09.59.14.59.28s-.1.21-.38.33v5.83c0,.41-.23.59-.72.59-.33,0-.61-.11-.61-.49s.09-1.49.09-3.73Zm2.08-5.72a10,10,0,0,1-3.48,2.93c-.06,0-.16-.1-.1-.14a12.19,12.19,0,0,0,1.88-2.51,6.21,6.21,0,0,0,.61-1.45c1.11.4,1.7.71,1.7.92S146.36,155.55,145.94,155.56Zm5.16,10a8.16,8.16,0,0,0,1.72.15,22.94,22.94,0,0,0,2.52-.15c.07,0,.06.14,0,.18a1.21,1.21,0,0,0-.63.91c-.05.31-.11.38-.24.39a2.61,2.61,0,0,1-.39,0,7.49,7.49,0,0,1-4.17-.83,5,5,0,0,1-2-2.58,7.43,7.43,0,0,1-2.5,3.38c-.06,0-.16-.1-.12-.16a9.85,9.85,0,0,0,1.89-6.16c0-.15,0-.41,0-.7,1.43.22,1.72.29,1.72.49s-.1.21-.38.32a13.16,13.16,0,0,1-.45,2.37,4.49,4.49,0,0,0,1.85,1.95v-6.82h-2.17a4.61,4.61,0,0,0-.84.08l-.15-.52a3.72,3.72,0,0,0,.94.11h3.1a14.14,14.14,0,0,0,1-2.46c.09-.34.17-.66.24-1,1.36.5,1.78.71,1.78.88s-.13.22-.55.22a13.68,13.68,0,0,1-1.93,2.34H153c.62-.77.79-.88.88-.88s.28.11.89.62c.26.22.38.35.38.45s-.05.14-.19.14H151.1v3.13h1.29c.61-.74.78-.85.88-.85s.27.11.85.6c.26.21.37.34.37.44s0,.13-.18.13H151.1Zm-2.12-8c-.39,0-.44-.09-.61-1.08a4.18,4.18,0,0,0-.73-1.61c0-.06,0-.16.11-.13,1.36.55,2.06,1.18,2.06,1.88A.87.87,0,0,1,149,157.57Z"/><path class="cls-6" d="M166.2,163.15a8.83,8.83,0,0,0,2.29,1.38,11.74,11.74,0,0,0,3.68.81c.07,0,.07.13,0,.15-.52.2-.64.31-1,1.17a.23.23,0,0,1-.21.15,2.49,2.49,0,0,1-.66-.21,10.62,10.62,0,0,1-2.47-1.36,9,9,0,0,1-1.79-1.85c0,1.8.09,3.11.09,3.49s-.23.53-.83.53c-.38,0-.55-.15-.55-.46s.07-1.7.1-2.93a10.14,10.14,0,0,1-5.55,2.85c-.07,0-.14-.1-.07-.13a11.73,11.73,0,0,0,4.67-3.59h-3.31a6.35,6.35,0,0,0-1,.09l-.15-.52a5.64,5.64,0,0,0,1.08.11h4.27v-1.3H162a7.83,7.83,0,0,0-1,.08l-.15-.52a5.24,5.24,0,0,0,1.1.12h2.79v-1.28h-3.47a6.6,6.6,0,0,0-1,.09l-.16-.52a6.19,6.19,0,0,0,1.12.11h2.3c-.18-.06-.28-.24-.39-.64a2.62,2.62,0,0,0-.7-1.21c-.06,0,0-.13.08-.11,1.26.19,1.91.63,1.91,1.27a.71.71,0,0,1-.49.69h2.25a8.69,8.69,0,0,0,.59-1.2,6,6,0,0,0,.28-.89c1.14.44,1.6.66,1.6.83s-.1.21-.62.24a8.39,8.39,0,0,1-1.37,1H169c.66-.73.83-.84.93-.84s.28.11.89.59c.27.22.38.33.38.43s0,.14-.18.14h-5v1.28h2.19c.6-.68.77-.79.86-.79s.28.11.82.55c.23.19.35.32.35.42s-.05.14-.19.14h-4v1.3h3.47c.72-.8.89-.91,1-.91s.27.11.91.63c.29.23.4.37.4.46s-.05.14-.19.14Zm-2.62-7.71a5,5,0,0,0-.07-1c1.59.16,1.74.27,1.74.44s-.11.19-.45.35v2H166v-1.75a7,7,0,0,0-.07-1c1.59.17,1.75.27,1.75.44s-.1.19-.47.35v2h.58a14.17,14.17,0,0,0,.78-1.57,6.42,6.42,0,0,0,.31-.94c1.23.52,1.67.74,1.67.91s-.1.25-.65.27a8.89,8.89,0,0,1-1.68,1.33h1.64c.63-.7.8-.82.9-.82s.28.12.87.56c.26.23.37.34.37.44s0,.14-.18.14H160.53a8.71,8.71,0,0,0-1,.08l-.15-.51a6.41,6.41,0,0,0,1.15.11h3.09Zm-1.49,1.49c-.33,0-.45-.12-.59-.54a2.78,2.78,0,0,0-.76-1.37c-.06-.05,0-.14.07-.13,1.32.22,2,.69,2,1.34A.72.72,0,0,1,162.09,156.93Z"/><path class="cls-6" d="M181,166a13,13,0,0,1-4.6,1.23c-.07,0-.11-.14,0-.17a15.76,15.76,0,0,0,2.79-1.4,3.91,3.91,0,0,0,.95-.88c1.26.6,1.64.82,1.64,1S181.55,166,181,166Zm-1.77-1.5c0,.39-.23.57-.78.57s-.62-.14-.62-.46c0-.56.07-1.3.07-3.57,0-.89,0-1.91-.07-2.8a10.36,10.36,0,0,1,1.54.74h6.32c.49-.52.6-.6.72-.6s.26.08.81.47c.25.2.33.3.33.41s-.09.22-.42.43v.88c0,2,.06,3.42.06,3.87s-.24.56-.78.56-.59-.13-.59-.49v0h-6.59Zm.66-6.71c0,.39-.26.52-.75.52-.33,0-.58-.09-.58-.4s0-.88,0-1.72a14.44,14.44,0,0,0,0-1.47,16.68,16.68,0,0,1,1.52.71h5c.5-.54.62-.63.73-.63s.25.09.78.51c.24.19.32.29.32.4s-.07.19-.4.38v.27c0,.67,0,1.19,0,1.39,0,.37-.27.53-.78.53s-.59-.14-.59-.49Zm5.93,1.51h-6.59v1.37h6.59Zm-6.59,3.08h6.59V161h-6.59Zm0,1.77h6.59v-1.45h-6.59Zm6-8.39h-5.3v1.7h5.3Zm2.11,11.57c-.28,0-.42-.09-.77-.44a6.9,6.9,0,0,0-3-1.73c-.07,0,0-.16.06-.16,3.11.13,4.34.63,4.34,1.6A.67.67,0,0,1,187.26,167.29Z"/><path class="cls-6" d="M195.9,164.88c1.07-.26,2.24-.59,3.36-1,.07,0,.12.11.07.15a23.3,23.3,0,0,1-5.17,2.51c-.07.39-.17.54-.37.54s-.33-.28-.78-1.73c.28,0,.57-.06.88-.12a5.34,5.34,0,0,0,.66-.11V156.5a10.22,10.22,0,0,0-.08-1.68c1.73.15,1.92.31,1.92.45s-.1.22-.49.4v3.67h1.35c.72-.81.89-.92,1-.92s.26.11.89.64c.28.24.39.37.39.47s0,.14-.18.14H195.9Zm5.19-4.44a11.83,11.83,0,0,0,2.06-1.92,6.85,6.85,0,0,0,.95-1.38c1.12.7,1.56,1,1.56,1.24s-.13.26-.67.19a13.34,13.34,0,0,1-3.9,2.29v4.24c0,.56.13.6,1.7.6a2.42,2.42,0,0,0,1.23-.16c.35-.2.6-.83,1-2.22,0-.07.18,0,.18,0,0,.57-.11,1.52-.11,1.75a.29.29,0,0,0,.18.31c.31.15.41.26.41.51,0,.41-.27.66-.87.82a10.4,10.4,0,0,1-2.15.16c-2.55,0-3-.22-3-1.56,0-.27,0-.54,0-1.6,0-2.94,0-5.89,0-8.84,1.54.15,1.78.21,1.78.43s-.08.26-.4.4Z"/><path class="cls-6" d="M216.56,164.09c0,1.47,0,2.48,0,2.83s-.3.48-.81.48-.59-.11-.59-.51.06-1.13.07-2.8h-4.33a6.94,6.94,0,0,0-1,.09l-.15-.52a6.41,6.41,0,0,0,1.15.11h4.35v-.08a13,13,0,0,0-.07-1.56c1.64.17,1.82.23,1.82.44s-.07.18-.46.37v.83H220c.7-.87.86-1,1-1s.28.11,1,.69c.32.25.43.37.43.47s0,.14-.18.14Zm-5.53-2c0,.42-.06.56-.25.56s-.4-.35-.93-1.51c.42-.11.83-.22,1.21-.35a14.58,14.58,0,0,0,2.5-1c.06,0,.19.11.14.17A10.25,10.25,0,0,1,211,162.13Zm4.27-5.66c1,.38,1.29.55,1.29.72s0,.15-.49.16a8,8,0,0,1-1.23,1.07,1.12,1.12,0,0,1,.47.87.6.6,0,0,1-.57.66c-.34,0-.38-.06-.6-.75a3.12,3.12,0,0,0-.86-1.29.07.07,0,0,1,.06-.12,5,5,0,0,1,1.12.39c.12-.27.25-.53.36-.8a5.81,5.81,0,0,0,.33-.91H211a6.35,6.35,0,0,0-1,.09l-.15-.52a5.91,5.91,0,0,0,1.1.11h4.23v-1a4.82,4.82,0,0,0-.07-.83c1.74.16,1.91.31,1.91.46s-.16.28-.49.4v.92h3.33c.77-.84.94-1,1-1s.26.11.92.66c.3.25.41.37.41.47s0,.14-.18.14Zm-3.11,3.17c-.38,0-.47-.13-.73-.87a3.41,3.41,0,0,0-.89-1.5.08.08,0,0,1,.07-.13c1.54.45,2.25,1,2.25,1.71A.74.74,0,0,1,212.19,159.64Zm5.27,1.4a3.86,3.86,0,0,0-.58-.84c0-.06,0-.13.1-.1,1.19.39,2,1,2,1.69a.69.69,0,0,1-.66.72c-.32,0-.39-.1-.59-.85a3.38,3.38,0,0,0-.11-.34,18.56,18.56,0,0,1-3.66.91c-.07.31-.11.38-.23.38s-.31-.24-.61-1.52c.63,0,1,0,1.43,0a17,17,0,0,0,1.8-2.36,11.42,11.42,0,0,0,.6-1.13c1.2.63,1.41.77,1.41.95s0,.16-.59.18a32.73,32.73,0,0,1-2.64,2.36C215.88,161.12,216.66,161.09,217.46,161Zm3.49-2.9a10.61,10.61,0,0,1-2.67,1.61c-.07,0-.18-.08-.12-.13a10.13,10.13,0,0,0,1.39-1.66,5.24,5.24,0,0,0,.53-1c1.08.56,1.43.8,1.43,1S221.39,158.15,221,158.14Zm-.07,4.22c-.35,0-.47-.12-.86-.8a3.66,3.66,0,0,0-1.33-1.4c-.06,0,0-.16.06-.14,1.87.28,2.8.82,2.8,1.64A.67.67,0,0,1,220.88,162.36Z"/><path class="cls-6" d="M139.06,34.11a10.7,10.7,0,0,1-1.63,1.12c-.06,0-.14-.1-.1-.16a15.32,15.32,0,0,0,2.3-3.06,8,8,0,0,0,.71-1.64c1.43.7,1.49.73,1.49.89s-.11.23-.52.28a9.36,9.36,0,0,1-1.22,1.59c.51.1.59.14.59.28s-.1.21-.38.33v5.83c0,.41-.24.59-.73.59-.32,0-.6-.11-.6-.49s.09-1.49.09-3.73Zm2.08-5.72a10,10,0,0,1-3.48,2.93c-.06,0-.16-.1-.1-.14a11.56,11.56,0,0,0,1.87-2.51,5.88,5.88,0,0,0,.62-1.45c1.11.4,1.7.71,1.7.92S141.56,28.38,141.14,28.39Zm5.16,10a8.16,8.16,0,0,0,1.72.15,22.94,22.94,0,0,0,2.52-.15c.07,0,.06.14,0,.18a1.21,1.21,0,0,0-.63.91c0,.31-.11.38-.24.39a2.61,2.61,0,0,1-.39,0,7.47,7.47,0,0,1-4.17-.83,5,5,0,0,1-2.05-2.58,7.34,7.34,0,0,1-2.51,3.38c-.05,0-.15-.1-.11-.15a9.88,9.88,0,0,0,1.89-6.17c0-.15,0-.4,0-.7,1.42.23,1.72.3,1.72.49s-.1.21-.38.32A13.16,13.16,0,0,1,143.2,36a4.44,4.44,0,0,0,1.85,2V31.17h-2.17a4.61,4.61,0,0,0-.84.08l-.15-.52a3.7,3.7,0,0,0,.93.11h3.11a14.14,14.14,0,0,0,1-2.46c.08-.34.17-.66.24-1,1.36.5,1.78.71,1.78.88s-.13.22-.55.22a13.68,13.68,0,0,1-1.93,2.34h1.72c.62-.77.79-.88.88-.88s.28.11.89.62c.26.22.37.35.37.45s0,.14-.18.14H146.3V34.3h1.29c.61-.74.78-.85.88-.85s.27.11.85.6c.26.21.37.34.37.44s0,.14-.18.14H146.3Zm-2.12-8c-.39,0-.45-.09-.61-1.08a4.18,4.18,0,0,0-.73-1.61c0-.06,0-.16.11-.13,1.36.55,2.06,1.18,2.06,1.88A.87.87,0,0,1,144.18,30.4Z"/><path class="cls-6" d="M161.4,36a8.81,8.81,0,0,0,2.29,1.37,11.74,11.74,0,0,0,3.68.81c.07,0,.07.13,0,.15-.52.2-.64.31-1,1.17a.23.23,0,0,1-.21.15,2.49,2.49,0,0,1-.66-.21A10.62,10.62,0,0,1,163,38.07a8.78,8.78,0,0,1-1.79-1.85c0,1.8.08,3.11.08,3.49s-.22.53-.82.53c-.38,0-.55-.15-.55-.46s.07-1.69.1-2.93a10.18,10.18,0,0,1-5.55,2.85c-.07,0-.14-.1-.07-.13A11.79,11.79,0,0,0,159.08,36h-3.31a6.21,6.21,0,0,0-1,.08l-.15-.52a5.64,5.64,0,0,0,1.08.11H160v-1.3h-2.75a7.83,7.83,0,0,0-1,.08l-.16-.51a6,6,0,0,0,1.11.11H160V32.76h-3.48a6.58,6.58,0,0,0-1,.09l-.16-.52a6.19,6.19,0,0,0,1.12.11h2.3c-.18,0-.28-.24-.39-.64a2.71,2.71,0,0,0-.7-1.21c-.06,0,0-.12.08-.11,1.26.2,1.91.63,1.91,1.27a.71.71,0,0,1-.49.69h2.25a8.69,8.69,0,0,0,.59-1.2,6,6,0,0,0,.28-.89c1.13.44,1.6.66,1.6.83s-.1.21-.62.24a8.39,8.39,0,0,1-1.37,1h2.32c.66-.73.83-.84.93-.84s.28.11.89.59c.27.22.38.34.38.43s0,.14-.18.14h-5V34h2.18c.61-.67.77-.79.87-.79s.28.12.81.55c.24.2.36.32.36.42s-.05.14-.19.14h-4v1.3h3.47c.72-.8.88-.91,1-.91s.27.11.91.63c.28.23.4.37.4.47s0,.14-.19.14Zm-2.62-7.72a5,5,0,0,0-.07-1c1.59.16,1.74.27,1.74.44s-.11.19-.45.35v2h1.17V28.27a5.56,5.56,0,0,0-.08-1c1.6.17,1.76.27,1.76.44s-.1.19-.47.35v2H163a14.17,14.17,0,0,0,.78-1.57,6.42,6.42,0,0,0,.31-.94c1.23.52,1.67.74,1.67.91s-.1.25-.65.27A9.21,9.21,0,0,1,163.39,30H165c.63-.7.8-.81.9-.81s.28.11.87.56c.26.22.37.33.37.43s0,.14-.18.14H155.73a8.71,8.71,0,0,0-1,.08l-.15-.51a6.41,6.41,0,0,0,1.15.11h3.09Zm-1.5,1.5c-.32,0-.44-.13-.58-.55a2.78,2.78,0,0,0-.76-1.37c-.06-.05,0-.14.07-.13,1.32.22,2,.69,2,1.35A.73.73,0,0,1,157.28,29.77Z"/><path class="cls-6" d="M176.16,38.79a13,13,0,0,1-4.6,1.23c-.07,0-.11-.14,0-.17a15.76,15.76,0,0,0,2.79-1.4,3.91,3.91,0,0,0,.95-.88c1.26.6,1.64.82,1.64,1S176.75,38.81,176.16,38.79Zm-1.77-1.5c0,.39-.23.57-.78.57s-.62-.14-.62-.46c0-.56.07-1.3.07-3.57,0-.88,0-1.91-.07-2.8a11.4,11.4,0,0,1,1.54.74h6.32c.49-.52.6-.6.71-.6s.27.08.82.47c.25.2.33.3.33.41s-.09.22-.42.43v.89c0,2,.06,3.41.06,3.86s-.24.56-.79.56-.58-.12-.58-.49v0h-6.59Zm.66-6.71c0,.39-.26.52-.76.52-.32,0-.57-.09-.57-.4s0-.88,0-1.72c0-.61,0-.85,0-1.47a14.36,14.36,0,0,1,1.52.72h5c.5-.55.61-.64.73-.64s.25.09.78.51c.24.19.32.29.32.4s-.07.19-.4.38v.27c0,.67,0,1.19,0,1.39,0,.37-.27.53-.79.53s-.58-.14-.58-.49ZM181,32.09h-6.59v1.37H181Zm-6.59,3.08H181V33.79h-6.59Zm0,1.77H181V35.49h-6.59Zm6-8.39h-5.3v1.71h5.3Zm2.11,11.57c-.28,0-.42-.09-.77-.44a7,7,0,0,0-3-1.73c-.07,0,0-.16.06-.16,3.11.13,4.34.63,4.34,1.6A.67.67,0,0,1,182.46,40.12Z"/><path class="cls-6" d="M192.08,31.82c0,.3,0,.89,0,1.2s-.22.53-.71.53-.53-.09-.53-.51a11.14,11.14,0,0,1,.1-1.26,7.11,7.11,0,0,1-3.1,2.3c-.07,0-.14-.1-.09-.14a8.71,8.71,0,0,0,2.48-3h-1a7.14,7.14,0,0,0-.95.08l-.16-.52a4.86,4.86,0,0,0,1.07.12h1.7V28.77a10.51,10.51,0,0,0-.07-1.33c1.35.13,1.67.21,1.67.41s-.08.19-.4.33v2.43h1.24c.41-.61.58-.72.67-.72s.28.11.77.51q.33.24.33.39c0,.1-.05.14-.19.14h-2.82v.5c1.33.24,2,.65,2,1.29a.55.55,0,0,1-.55.58c-.25,0-.41-.13-.66-.56a2.8,2.8,0,0,0-.75-1Zm1.69,3.51a8.17,8.17,0,0,1-1,2.1c.61.31.93.66.93,1a.6.6,0,0,1-.59.63c-.35,0-.39,0-1-.83a7,7,0,0,1-4,1.77c-.07,0-.11-.16,0-.18a7.15,7.15,0,0,0,3.3-2.27,7.12,7.12,0,0,0-1-.62l-.31.52a.58.58,0,0,1-.61.35c-.35,0-.62-.16-.62-.35a.69.69,0,0,1,.13-.35,20,20,0,0,0,1-1.82h-.8a5.75,5.75,0,0,0-.94.08l-.15-.52a4.77,4.77,0,0,0,1.06.11h1l.07-.15a6.07,6.07,0,0,0,.39-1.22c1.41.27,1.46.28,1.46.48s-.1.21-.44.32c-.08.2-.17.39-.25.57h2c.5-.58.67-.7.77-.7s.26.12.7.49c.18.17.29.3.29.4s0,.14-.18.14Zm-4-5.12c-.37,0-.44-.09-.58-.86a2.42,2.42,0,0,0-.53-1.2s0-.11.07-.09c1,.26,1.64.81,1.64,1.51A.61.61,0,0,1,189.78,30.21Zm.73,6.55a10.29,10.29,0,0,1,1.29.28,6.69,6.69,0,0,0,.7-1.71h-1.32Zm3.67-7.92a7.61,7.61,0,0,1-1.68,1.46c-.06,0-.16,0-.12-.09a7.71,7.71,0,0,0,.66-1.4,4.64,4.64,0,0,0,.3-.95c1,.37,1.34.59,1.34.77S194.61,28.84,194.18,28.84Zm5.52,2.1a12.61,12.61,0,0,1-1.76,5.44,8.31,8.31,0,0,0,3.32,2.08.09.09,0,0,1,0,.16c-.38.15-.48.32-.63,1-.1.35-.13.39-.28.39a1.94,1.94,0,0,1-.7-.38,10,10,0,0,1-2.35-2.37A9.26,9.26,0,0,1,193,40.09c-.07,0-.15-.13-.1-.17a11.45,11.45,0,0,0,3.76-3.61,13.57,13.57,0,0,1-1.19-3.77A8.8,8.8,0,0,1,194.19,34c-.06,0-.18,0-.14-.09a15.65,15.65,0,0,0,1.78-4.68,11.36,11.36,0,0,0,.24-1.89c1.57.35,1.83.43,1.83.64s-.12.25-.56.35a14.69,14.69,0,0,1-.77,2.27H199c.62-.76.79-.87.88-.87s.27.11.86.6c.25.23.36.35.36.45s0,.14-.18.14Zm-3.27,0a13.85,13.85,0,0,1-.71,1.31,10.28,10.28,0,0,0,1.45,3.2,13,13,0,0,0,1.19-4.51Z"/><path class="cls-6" d="M139.78,420.29h3.33c.81-1,1-1.13,1.08-1.13s.28.11,1.11.78c.37.31.49.43.49.53s0,.14-.19.14h-5.82v.18c0,2.67.05,3.8.05,4.91,0,.44-.28.61-.88.61-.45,0-.62-.14-.62-.54s.07-2.65.07-5v-.2h-4.06a11.56,11.56,0,0,0-1.34.09l-.16-.52a10.67,10.67,0,0,0,1.49.11h4.07v-5.52H135c-.39,0-.77,0-1.29.08l-.16-.51a10.14,10.14,0,0,0,1.45.11h7.76c.73-.87.89-1,1-1s.28.11,1,.68c.33.27.45.38.45.48s0,.14-.19.14h-5.23Zm-3.55-.87c-.42,0-.53-.18-.66-1a6.58,6.58,0,0,0-1-2.75s.05-.14.11-.11c1.55.88,2.36,1.88,2.36,2.86C137,419,136.71,419.42,136.23,419.42Zm7.48-2.86a9.69,9.69,0,0,1-3.11,3.27s-.18-.09-.14-.14a11.73,11.73,0,0,0,1.7-3.07,8.92,8.92,0,0,0,.4-1.34c1.24.51,1.71.79,1.71,1S144.13,416.51,143.71,416.56Z"/><path class="cls-6" d="M154.49,417.78a17,17,0,0,0,1-2.46,7.42,7.42,0,0,0,.33-1.75c1.57.36,1.92.47,1.92.7s-.12.26-.53.33a13,13,0,0,1-.84,1.71h4.06c.53-.64.65-.73.76-.73s.25.09.8.59c.25.23.33.34.33.45s0,.14-.43.43c-.07,4.15-.23,6-.65,7.51a2.38,2.38,0,0,1-.71,1.21,1.91,1.91,0,0,1-1.27.46c-.3,0-.33,0-.41-.39s-.49-.77-1.58-1.08c-.07,0-.07-.23,0-.21a15.74,15.74,0,0,0,1.61.12c.63,0,.8,0,.92-.26.46-.9.67-2.89.77-7.78h-4.4a9.58,9.58,0,0,1-2.5,2.82c-.06,0-.19,0-.14-.1a10.58,10.58,0,0,0,.92-1.51.21.21,0,0,1-.15,0h-1.56v3.84c.65-.21,1.28-.44,1.79-.65.07,0,.14.1.09.14a20.4,20.4,0,0,1-3.91,2.46c0,.44-.1.6-.29.6s-.49-.49-.93-1.7a8.85,8.85,0,0,0,1.19-.25l.79-.21v-4.23h-.91a3.85,3.85,0,0,0-.69.08l-.15-.51a3.16,3.16,0,0,0,.79.11h1v-2.22c0-.67,0-1.21-.07-1.69,1.68.15,1.85.31,1.85.46s-.17.25-.51.42v3h.11c.4-.67.56-.79.66-.79s.25.12.69.55c.17.18.28.32.28.42Zm.78,5.77c0,.44-.09.59-.29.59s-.39-.28-.94-1.73c.32,0,.74-.09,1.21-.17a34.78,34.78,0,0,0,4.31-1.07c.07,0,.14.1.08.14A18.88,18.88,0,0,1,155.27,423.55Zm2.24-4.42c.56-.73.73-.84.83-.84s.27.11.8.58c.22.21.34.34.34.44s0,.14-.19.14h-3.65a3.37,3.37,0,0,0-.65.08l-.15-.52a2.41,2.41,0,0,0,.74.12Z"/><path class="cls-6" d="M176.56,421.94c.77-.92.93-1,1-1s.28.11,1,.71c.34.28.45.41.45.5s0,.14-.18.14H174c0,1.5,0,2.86,0,3.46,0,.42-.28.61-.84.61-.41,0-.62-.13-.62-.49s.06-1.45.06-3.58h-4.93a7.18,7.18,0,0,0-1,.09l-.15-.52a6.33,6.33,0,0,0,1.15.11h1.23V420q0-1-.06-2.1a9.66,9.66,0,0,1,1.47.67h2.33V416h-2.59a9.34,9.34,0,0,1-3.16,3.06c-.05.05-.19-.07-.14-.12a12.31,12.31,0,0,0,2.43-4,7.75,7.75,0,0,0,.45-1.61c1.48.44,1.86.6,1.86.84s-.17.25-.6.31c-.21.43-.42.83-.65,1.21h5.94c.73-.86.9-1,1-1s.28.11,1,.67c.32.27.43.38.43.48s0,.14-.18.14H174v2.57h1.66c.71-.81.82-.89.93-.89s.27.08,1,.61c.32.26.4.35.4.47s-.05.14-.21.14H174v.5c0,.81,0,1.68,0,2.52Zm-3.91-3h-2.43v3h2.43Z"/><path class="cls-6" d="M187.39,417h1c.48-.59.65-.7.74-.7s.27.11.73.51c.18.15.3.28.3.37s-.05.14-.19.14h-5.61a5.35,5.35,0,0,0-.9.09l-.15-.52a5,5,0,0,0,1,.11V415.6a9.71,9.71,0,0,0-.06-1.18c1.46.15,1.61.29,1.61.43s-.14.23-.44.34V417h.85v-2.2a12.45,12.45,0,0,0-.06-1.34c1.49.14,1.63.26,1.63.39s-.14.24-.42.35v1.09h.6c.45-.56.62-.67.72-.67s.26.11.68.48c.17.15.28.28.28.38s0,.13-.18.13h-2.1Zm1,1.85a.66.66,0,0,1-.24.09,11,11,0,0,1-.95,1.42c0,.06-.11,0-.08-.05.12-.39.23-.84.32-1.26a6.47,6.47,0,0,0,.11-.79,3,3,0,0,1,.84.41,6.85,6.85,0,0,0,0-.91c1.34.18,1.43.19,1.43.35s-.07.17-.32.28v1.2c0,3.2,0,5.45,0,6.18,0,.31-.24.45-.65.45s-.46-.09-.46-.41v-.46H184.8v.52c0,.36-.21.5-.63.5s-.51-.09-.51-.4c0-.65.06-2.61.06-6.49,0-.74,0-1.2,0-1.72,1.27.15,1.41.19,1.41.35s-.07.15-.29.28V425h3.61ZM187,421.51c.87.67,1.18,1.16,1.18,1.66,0,.29-.14.45-.35.45s-.37-.11-.44-.72a3.37,3.37,0,0,0-.39-1.08c0,.84,0,1.94,0,2.57,0,.27-.19.41-.51.41s-.4-.11-.4-.36,0-1.11.07-2.05a5.36,5.36,0,0,1-1.17,1.46c-.05,0-.15,0-.11-.09A7.93,7.93,0,0,0,186,421h-.37a2,2,0,0,0-.55.09l-.15-.52a2.45,2.45,0,0,0,.7.11h.54v-2a7.83,7.83,0,0,0,0-1c1.06.09,1.24.14,1.24.28s0,.12-.35.28v2.49h.34c.17-.29.29-.41.39-.41s.22.09.42.3.18.19.18.29,0,.14-.18.14H187Zm-1.47-1.23c-.22,0-.26-.09-.28-.49a3.11,3.11,0,0,0-.31-1.35c0-.07,0-.1.09-.06a2,2,0,0,1,.94,1.45A.42.42,0,0,1,185.51,420.28Zm4.18-1.35c-.06,0-.16-.07-.12-.13a11.39,11.39,0,0,0,2-3.68,10.57,10.57,0,0,0,.44-1.67c1.62.45,1.65.45,1.65.61s-.06.19-.38.26a6.41,6.41,0,0,0,1.27,1.94,5.71,5.71,0,0,0,2,1.48c.07,0,0,.14,0,.17a1.44,1.44,0,0,0-.75.84c-.08.18-.11.21-.21.21a1,1,0,0,1-.36-.28,6.9,6.9,0,0,1-1.16-1.63,12.64,12.64,0,0,1-1-2.5A8.75,8.75,0,0,1,189.69,418.93Zm1.23,1.72a3.28,3.28,0,0,0-.87.12l-.15-.56a5.35,5.35,0,0,0,1.12.12h3.06c.42-.49.54-.57.65-.57s.25.08.7.45c.19.18.28.28.28.39s0,.14-.3.4v.91c0,.84,0,1.29,0,1.85a1.17,1.17,0,0,1-.32.9,1.24,1.24,0,0,1-.91.31c-.18,0-.22-.06-.27-.32-.08-.47-.25-.61-1.05-.87-.07,0,0-.17,0-.17a8.63,8.63,0,0,0,1.15.06c.16,0,.18,0,.18-.23v-2.79h-1.57v1.82c0,1.28,0,2.88,0,3.41s-.26.56-.8.56c-.38,0-.52-.15-.52-.45s.05-1.32.05-3.32v-2Zm2.09-2.36c.35-.52.51-.63.61-.63s.27.11.66.44c.15.15.27.27.27.37s-.05.14-.19.14H192a6.47,6.47,0,0,0-.89.08l-.16-.52a4.76,4.76,0,0,0,1,.12Z"/><path class="cls-6" d="M67.55,471.65a5.31,5.31,0,0,0-2.1-3,8.75,8.75,0,0,0-1.41-.82c-.73-.34-1.48-.6-2.17-.85A12.41,12.41,0,0,1,60,466.2l-.06,0a2.89,2.89,0,0,1-.48-.33,2,2,0,0,1-.49-.56,1.79,1.79,0,0,1-.23-.73,2.56,2.56,0,0,1,0-.39,8.69,8.69,0,0,1,.18-1.7,5.85,5.85,0,0,0,.87-1.25,14.1,14.1,0,0,0,.78-1.75,4,4,0,0,0,.49-.27,3.29,3.29,0,0,0,1-1,5.27,5.27,0,0,0,.69-1.71,2.76,2.76,0,0,0,.06-.57,2.54,2.54,0,0,0-.25-1.1,3.31,3.31,0,0,0-.41-.64c.08-.3.18-.71.27-1.18a12,12,0,0,0,.23-2.29,8.34,8.34,0,0,0-.15-1.64,6.53,6.53,0,0,0-.38-1.21,4.59,4.59,0,0,0-1.16-1.6,4.85,4.85,0,0,0-1.83-1,5.89,5.89,0,0,0-.79-.79,4.43,4.43,0,0,0-.71-.48,4,4,0,0,0-1.12-.41,5.86,5.86,0,0,0-1.19-.11,17,17,0,0,0-1.8.12c-.25,0-.46.05-.64.08l-.63.13-.22,0h-.21l-.38,0a8.08,8.08,0,0,1-1.25-.28l-.43-.14-.15-.06-.09,0-.15-.05h-.12l-.16,0-.1,0-.14.07-.23.16c-.13.1-.28.23-.44.38a7.12,7.12,0,0,0-.72.8,3.83,3.83,0,0,0-.33.46,3.89,3.89,0,0,0-.25.5A13.8,13.8,0,0,0,46.2,448a10.61,10.61,0,0,0-.19,2,13.08,13.08,0,0,0,.28,2.56v.1c0,.07,0,.14,0,.21s0,.21,0,.31,0,.09,0,.12v0h0v.06l.13.59a3,3,0,0,0-.48.69,2.56,2.56,0,0,0-.29,1.17,2.22,2.22,0,0,0,.07.57h0a5.45,5.45,0,0,0,.41,1.22,3.56,3.56,0,0,0,.92,1.24,3.33,3.33,0,0,0,.85.55,12.76,12.76,0,0,0,.78,1.75,6.51,6.51,0,0,0,.86,1.25,8.66,8.66,0,0,1,.19,1.7,2.56,2.56,0,0,1,0,.39,2.42,2.42,0,0,1-.13.53,1.83,1.83,0,0,1-.43.61,3.18,3.18,0,0,1-.72.52l-.22.12c-.24.12-.5.23-.78.34-.64.26-1.37.5-2.11.79a12.48,12.48,0,0,0-1.66.78,6.43,6.43,0,0,0-1.15.83,5.26,5.26,0,0,0-1.31,1.82,6.64,6.64,0,0,0-.5,2.66,1.11,1.11,0,0,0,.08.41,1.45,1.45,0,0,0,.2.34,2.28,2.28,0,0,0,.57.54,6.54,6.54,0,0,0,1.64.83,21.07,21.07,0,0,0,4.28,1,49.87,49.87,0,0,0,6.74.41,53.26,53.26,0,0,0,6-.31,28.09,28.09,0,0,0,3.25-.56,16.32,16.32,0,0,0,1.79-.54,6.9,6.9,0,0,0,1-.45,4.6,4.6,0,0,0,.59-.35,2.89,2.89,0,0,0,.62-.58,2,2,0,0,0,.19-.35,1.23,1.23,0,0,0,.07-.39A7.33,7.33,0,0,0,67.55,471.65ZM49.37,449c3,.67,9-.6,9-.6a5.52,5.52,0,0,0,1.08,2.78,6.13,6.13,0,0,1,.8,1.6s-.18,0-.3,0-.16-.1-.18-.18-.19-.21-.44-.24a10.44,10.44,0,0,0-2-.07c-2.35.11-2.18.33-3.1.33s-.75-.22-3.1-.33a10.59,10.59,0,0,0-2,.07c-.24,0-.4.08-.43.24s0,.16-.18.18h-.12A11.37,11.37,0,0,0,49.37,449Zm9.91,5s0,1.36-.93,1.82a2.58,2.58,0,0,1-1.1.24,2.2,2.2,0,0,1-1.11-.27,1.54,1.54,0,0,1-.68-.88c0-.09-.05-.17-.07-.26-.07-.26-.27-1,.15-1.31a4,4,0,0,1,1.89-.34,3,3,0,0,1,1.67.32A.93.93,0,0,1,59.28,454Zm-6.17.65-.08.26a1.47,1.47,0,0,1-.68.88,2.17,2.17,0,0,1-1.11.27,2.65,2.65,0,0,1-1.1-.24c-.91-.46-.92-1.81-.92-1.82a.89.89,0,0,1,.18-.68,3,3,0,0,1,1.67-.32,4,4,0,0,1,1.89.34C53.37,453.64,53.18,454.37,53.11,454.63Zm0,17.07-3.59-4.86.14-.1a3.86,3.86,0,0,0,.54-.53l2.89,1.32-.62,1,1,1Zm-2.5-6.15a3.56,3.56,0,0,0,.23-.88,4.49,4.49,0,0,0,0-.51,9.52,9.52,0,0,0-.24-2.08l0-.15-.11-.11a5.06,5.06,0,0,1-.8-1.13,12.38,12.38,0,0,1-.8-1.84l-.09-.24-.25-.09a2.13,2.13,0,0,1-.5-.25,2.33,2.33,0,0,1-.68-.71,4.24,4.24,0,0,1-.54-1.35,1.84,1.84,0,0,1,0-.33,1.44,1.44,0,0,1,.16-.67,2,2,0,0,1,.37-.5c.26.38.48.68.55.76.26.25.29-.34.17-1a2.47,2.47,0,0,1,.15-1.17v.23a.17.17,0,0,0,.16.15c.1,0,.17.05.17.12a2.83,2.83,0,0,0,1.24,2.4,2.67,2.67,0,0,0,3.71-1.05c.29-.66.29-1.31.72-1.31s.43.65.71,1.31a2.67,2.67,0,0,0,3.71,1.05,2.8,2.8,0,0,0,1.24-2.4c0-.07.07-.12.17-.12a.17.17,0,0,0,.17-.15v-.72a18.75,18.75,0,0,1,.69,2.58s.13-.25.32-.57a1.71,1.71,0,0,1,.29.43,1.39,1.39,0,0,1,.15.63,1.24,1.24,0,0,1,0,.33,5.45,5.45,0,0,1-.33,1,3,3,0,0,1-.65.89,2.24,2.24,0,0,1-.74.43l-.25.09-.09.24a13.63,13.63,0,0,1-.79,1.84,5.16,5.16,0,0,1-.81,1.13l-.1.11,0,.15a10.18,10.18,0,0,0-.24,2.08,3,3,0,0,0,0,.51,2.84,2.84,0,0,0,.19.8l0,0-3.42,1.77Zm5,6.38-.35-2.39,1-1-.62-1,2.62-1.35a2.85,2.85,0,0,0,.23.26,4.72,4.72,0,0,0,.48.41Z"/><path class="cls-6" d="M58.77,459.17a3.14,3.14,0,0,1-1.16-1A2.47,2.47,0,0,0,54.28,457,2.48,2.48,0,0,0,51,458.13a3.08,3.08,0,0,1-1.15,1,2.47,2.47,0,0,0,2.68.41,2.76,2.76,0,0,0,1.8-1.46,2.8,2.8,0,0,0,1.81,1.46A2.48,2.48,0,0,0,58.77,459.17Z"/><path class="cls-6" d="M102,470.65a5.36,5.36,0,0,0-2.48-2.24,23.54,23.54,0,0,0-2.46-.94,13.56,13.56,0,0,0-1.55-.38.85.85,0,0,1-.32-.13h0v-.46A7.47,7.47,0,0,0,97.13,463a2.82,2.82,0,0,0,.38-.21,2.74,2.74,0,0,0,.81-1,8.52,8.52,0,0,0,.64-1.72,3.62,3.62,0,0,0,.16-1,2,2,0,0,0-.05-.43,2.27,2.27,0,0,0,.45-.47,4.08,4.08,0,0,0,.67-2.45,9.21,9.21,0,0,0-.27-2.1,8.91,8.91,0,0,0-2.85-4.8,7.42,7.42,0,0,0-2.29-1.37,3.71,3.71,0,0,0,.07-.67,3.56,3.56,0,0,0-7.11,0,3.71,3.71,0,0,0,.07.67,7.46,7.46,0,0,0-2.3,1.37,9,9,0,0,0-2.85,4.8,9.21,9.21,0,0,0-.27,2.1,4.15,4.15,0,0,0,.67,2.45,3,3,0,0,0,.45.47,2,2,0,0,0,0,.43,3.62,3.62,0,0,0,.16,1,6.79,6.79,0,0,0,.88,2.12,2.37,2.37,0,0,0,.57.57,2.71,2.71,0,0,0,.37.21,7.64,7.64,0,0,0,1.92,3.53V467s-.05.05-.15.09a3.2,3.2,0,0,1-.73.18,8.84,8.84,0,0,0-1,.25c-.41.15-1,.3-1.56.53a6.82,6.82,0,0,0-2.7,1.67,5.24,5.24,0,0,0-1.34,3.75q0,.34,0,.72a.84.84,0,0,0,.15.41,1.88,1.88,0,0,0,.52.49,7.78,7.78,0,0,0,1.54.71,28.37,28.37,0,0,0,9.14,1.33,30.92,30.92,0,0,0,7.92-.95,12.1,12.1,0,0,0,2.33-.84,4.16,4.16,0,0,0,.71-.46,1.72,1.72,0,0,0,.25-.28,1,1,0,0,0,.15-.41c0-.25,0-.48,0-.71A5.66,5.66,0,0,0,102,470.65Zm-7.79-1.19a4.92,4.92,0,0,1-5.89,0A2.62,2.62,0,0,1,87.6,468a1.86,1.86,0,0,0,.41-.23.93.93,0,0,0,.3-.37,1,1,0,0,0,.11-.49v-.64a.56.56,0,0,0-.13-.35,6.51,6.51,0,0,1-1.87-3.45.51.51,0,0,0-.34-.4,1.49,1.49,0,0,1-.4-.2,1.45,1.45,0,0,1-.48-.59,7.33,7.33,0,0,1-.56-1.52c0-.1,0-.19-.07-.28L86,461.27l.3-3.16a14,14,0,0,0,5-4.5,14.12,14.12,0,0,0,5,4.5l.3,3.16L98,459.5c0,.09,0,.18-.06.28a5.93,5.93,0,0,1-.73,1.79,1.19,1.19,0,0,1-.31.32,1.57,1.57,0,0,1-.41.2.55.55,0,0,0-.34.4,6.57,6.57,0,0,1-1.86,3.45.52.52,0,0,0-.14.35v.64a1,1,0,0,0,.11.48,1.15,1.15,0,0,0,.55.54L95,468A2.63,2.63,0,0,1,94.24,469.46Z"/><path class="cls-6" d="M48.58,512.38A5.18,5.18,0,0,0,48,511a5.51,5.51,0,0,0-1.56-1.69,8.43,8.43,0,0,0-1.42-.82c-.73-.35-1.48-.61-2.18-.87a11.66,11.66,0,0,1-1.82-.79,3.69,3.69,0,0,1-.48-.34,2,2,0,0,1-.49-.57,1.79,1.79,0,0,1-.23-.74c0-.2,0-.4,0-.59a6.89,6.89,0,0,1,.19-1.53,6.6,6.6,0,0,0,.86-1.26,14.69,14.69,0,0,0,.78-1.78,4.86,4.86,0,0,0,.49-.27,3.61,3.61,0,0,0,1-1,5.43,5.43,0,0,0,.68-1.73,2.87,2.87,0,0,0,.07-.58,2.62,2.62,0,0,0-.26-1.11,3.11,3.11,0,0,0-.41-.65c.08-.31.19-.72.27-1.2a12.31,12.31,0,0,0,.23-2.32,8.61,8.61,0,0,0-.15-1.66,6.72,6.72,0,0,0-.38-1.23A4.62,4.62,0,0,0,42,486.62a4.76,4.76,0,0,0-1.82-1,6.51,6.51,0,0,0-1-.94,5,5,0,0,0-1.74-.92,6.16,6.16,0,0,0-1.8-.25c-.32,0-.64,0-1,.05a6.92,6.92,0,0,0-.76.09,5.8,5.8,0,0,0-.87.22c-.27.09-.52.2-.86.33l-.49.23a8.67,8.67,0,0,0-1.29.8,8.21,8.21,0,0,0-2.15,2.34,7.35,7.35,0,0,0-.77,1.75,8.19,8.19,0,0,0-.29,2.17,9.65,9.65,0,0,0,.13,1.56v.11a1.49,1.49,0,0,1,0,.21c0,.11,0,.22,0,.31s0,.09,0,.13v0h0v.06l.14.6a2.81,2.81,0,0,0-.78,1.89,2.28,2.28,0,0,0,.07.57,5.64,5.64,0,0,0,.41,1.24,3.86,3.86,0,0,0,.91,1.26,3.51,3.51,0,0,0,.85.55,14.69,14.69,0,0,0,.78,1.78,6.6,6.6,0,0,0,.86,1.26,6.82,6.82,0,0,1,.19,1.53q0,.28,0,.6a2.06,2.06,0,0,1-.13.53,2,2,0,0,1-.43.62,3.75,3.75,0,0,1-.71.53,9.49,9.49,0,0,1-1,.46c-.64.26-1.37.51-2.11.8a11.82,11.82,0,0,0-1.65.79,7,7,0,0,0-1.15.84,5.2,5.2,0,0,0-1.31,1.85,7,7,0,0,0-.49,2.69,1.16,1.16,0,0,0,.08.42,1.58,1.58,0,0,0,.19.34,2.72,2.72,0,0,0,.57.55,7.28,7.28,0,0,0,1.64.85,21,21,0,0,0,4.27,1,49.55,49.55,0,0,0,6.72.41,50.53,50.53,0,0,0,6-.32,28.27,28.27,0,0,0,3.24-.56,16.18,16.18,0,0,0,1.79-.55,8,8,0,0,0,1-.45,5.25,5.25,0,0,0,.58-.36,2.46,2.46,0,0,0,.61-.59,1.19,1.19,0,0,0,.19-.35,1.06,1.06,0,0,0,.08-.4A7.26,7.26,0,0,0,48.58,512.38Zm-14.4.51-4-5.07a4.7,4.7,0,0,0,.59-.4,3.38,3.38,0,0,0,.54-.53l2.88,1.34-.62,1,1,1Zm-2.43-6.68a3.14,3.14,0,0,0,.22-.89,5.85,5.85,0,0,0,0-.71,8.8,8.8,0,0,0-.24-1.91l0-.15-.1-.12a5.24,5.24,0,0,1-.8-1.14,13.91,13.91,0,0,1-.8-1.86l-.08-.25-.25-.09a2.6,2.6,0,0,1-.5-.25,2.49,2.49,0,0,1-.68-.72,4.38,4.38,0,0,1-.54-1.37,2,2,0,0,1,0-.33,1.52,1.52,0,0,1,.16-.69,2.2,2.2,0,0,1,.37-.51A8.88,8.88,0,0,0,29,496c.25.25.17.17.26.05s.28-.4,1.8-3.35c3,.67,8.33-3.88,8.33-3.88a5.58,5.58,0,0,0,1.07,2.82A13.4,13.4,0,0,1,42,495.91l.32-.57a1.71,1.71,0,0,1,.29.43,1.61,1.61,0,0,1,.14.64,2,2,0,0,1,0,.34,5.27,5.27,0,0,1-.34,1,2.74,2.74,0,0,1-.64.9,2.38,2.38,0,0,1-.74.44l-.25.09-.09.25a14,14,0,0,1-.79,1.86,5,5,0,0,1-.8,1.14l-.11.12,0,.15a8.8,8.8,0,0,0-.24,1.91c0,.23,0,.46,0,.71a3.08,3.08,0,0,0,.2.82l0,0L35.53,508Zm5,6.86-.41-2.81,1-1-.62-1,2.61-1.37.23.27a4.45,4.45,0,0,0,.88.67Z"/><path class="cls-6" d="M86.44,510.5a6.59,6.59,0,0,0-3.28-2.38c-.59-.22-1.17-.39-1.68-.53s-1-.25-1.26-.36a7.36,7.36,0,0,1-1.46-.72,1.87,1.87,0,0,1-.43-.39.5.5,0,0,1-.11-.28v-2a7.87,7.87,0,0,0,2-3.72,2.65,2.65,0,0,0,.4-.22,2.72,2.72,0,0,0,.84-1,9,9,0,0,0,.67-1.81,3.56,3.56,0,0,0,.17-1,1.8,1.8,0,0,0-.21-.91,1.46,1.46,0,0,0-.69-.65c1.09-5.89-2.36-10.38-6.93-10.15-4.2-.94-6.87-.7-7.22,3a4.13,4.13,0,0,0,.08,3,8.67,8.67,0,0,0-.33,2.29v1.75a1.43,1.43,0,0,0-.87.71,1.8,1.8,0,0,0-.21.91,3.56,3.56,0,0,0,.17,1,7.18,7.18,0,0,0,.92,2.21,2.24,2.24,0,0,0,1,.82,7.87,7.87,0,0,0,2,3.72v2a.54.54,0,0,1-.12.28,2.64,2.64,0,0,1-.78.61,6.54,6.54,0,0,1-1.09.49c-.41.15-1.07.3-1.8.51a9.12,9.12,0,0,0-3.48,1.69,5.2,5.2,0,0,0-1.33,1.74,5.89,5.89,0,0,0-.51,2.55c0,.23,0,.47,0,.71a.88.88,0,0,0,.15.43,1.93,1.93,0,0,0,.59.54,8.22,8.22,0,0,0,1.77.83,33.14,33.14,0,0,0,10.65,1.55,36,36,0,0,0,9.23-1.11,14.44,14.44,0,0,0,2.7-1,4.43,4.43,0,0,0,.8-.52,1.38,1.38,0,0,0,.28-.31.88.88,0,0,0,.15-.43c0-.24,0-.48,0-.71A5.54,5.54,0,0,0,86.44,510.5Zm-16.37-3.13a2.91,2.91,0,0,0,.68-.63,1.46,1.46,0,0,0,.33-.9v-2.35l-.13-.14a6.92,6.92,0,0,1-2-3.65l-.06-.29-.28-.1a1.92,1.92,0,0,1-.43-.22,1.76,1.76,0,0,1-.52-.63,8.72,8.72,0,0,1-.59-1.61,2.89,2.89,0,0,1-.12-.76,1,1,0,0,1,.08-.43.42.42,0,0,1,.25-.21.55.55,0,0,1,.21,0l.53,0v-2.72a6.25,6.25,0,0,1,.07-.87c1.18,1.69,3.43,3.29,7.19,3.94a38.25,38.25,0,0,1-1.4-5s2.52,3.67,6.32,4.06v.6l.53,0a.64.64,0,0,1,.31.09.39.39,0,0,1,.15.16,1,1,0,0,1,.08.43,2.89,2.89,0,0,1-.12.76,6.65,6.65,0,0,1-.77,1.9,1.36,1.36,0,0,1-.34.34,1.8,1.8,0,0,1-.44.22l-.28.1,0,.29a7,7,0,0,1-2,3.65l-.13.14v2.35a1.52,1.52,0,0,0,.31.89,3.49,3.49,0,0,0,1.06.87c.2.11.4.21.61.3l-2,2a6.61,6.61,0,0,1-6,0l-2-2A6.41,6.41,0,0,0,70.07,507.37Z"/><path class="cls-6" d="M67.24,499.72s.58,6.56-1.84,8.52c0,0,7.13-.89,5-4.48l-2.07-4.06-1.23-.88Z"/><path class="cls-6" d="M81,499.72s-.58,6.56,1.84,8.52c0,0-7.13-.89-5-4.48l2.06-4.06,1.24-.88Z"/><path class="cls-6" d="M122.66,510.92a5.92,5.92,0,0,0-2.76-2.34c-1-.47-2-.72-2.63-.95a5.42,5.42,0,0,1-1.38-.76,2.11,2.11,0,0,1-.42-.44.58.58,0,0,1-.12-.31v-1.43a7.61,7.61,0,0,0,1.94-3.58,1.87,1.87,0,0,0,.39-.22,2.53,2.53,0,0,0,.81-1,8.64,8.64,0,0,0,.64-1.73,3.63,3.63,0,0,0,.16-1,1.84,1.84,0,0,0,0-.41c4.51-5.81-2.25-13.41-7.25-12.52-3.92-1-7.45,2.44-8.84,5.48-1.13,2.46-.75,5.86.44,7a2.12,2.12,0,0,0,0,.44,3.63,3.63,0,0,0,.16,1,6.87,6.87,0,0,0,.88,2.13,2.32,2.32,0,0,0,.57.56,1.87,1.87,0,0,0,.39.22,7.61,7.61,0,0,0,1.94,3.58v1.43a.64.64,0,0,1-.13.32,2.9,2.9,0,0,1-.76.68,5.11,5.11,0,0,1-1,.51c-.41.14-1,.3-1.64.53a7.72,7.72,0,0,0-3,1.73,5.37,5.37,0,0,0-1.52,4c0,.23,0,.47,0,.71a.9.9,0,0,0,.13.38,1.73,1.73,0,0,0,.5.51,6.88,6.88,0,0,0,1.53.8,27.43,27.43,0,0,0,9.78,1.52,30.37,30.37,0,0,0,8.52-1.09,11,11,0,0,0,2.35-.95,3.33,3.33,0,0,0,.69-.5,1.68,1.68,0,0,0,.24-.29.9.9,0,0,0,.13-.38c0-.24,0-.48,0-.7A5.62,5.62,0,0,0,122.66,510.92Zm-7-3,.07,0L114,512.15l-2.07-2.59,3-2.21A4,4,0,0,0,115.66,507.92Zm-9.2-7.25,0-.28-.26-.1a1.5,1.5,0,0,1-.42-.2,1.6,1.6,0,0,1-.5-.62,8.16,8.16,0,0,1-.57-1.54,2.66,2.66,0,0,1-.12-.74.88.88,0,0,1,.08-.41.46.46,0,0,1,.24-.2l.18,0,.22.05.59,1.75.33-1.56,1.72-2.46a11.69,11.69,0,0,1-.44,2.23c3.29-1.06,4.15-2.29,4.32-2.61l-1.08,2.17s3.76-1.12,4.43-2.69l-.72,2.41s2-.56,2.34-1.46c.2-.51.22.17.21.85h0v3.13l.84-1.8h0a.5.5,0,0,1,.29.08.43.43,0,0,1,.15.15.88.88,0,0,1,.08.41,2.66,2.66,0,0,1-.12.74,6.16,6.16,0,0,1-.74,1.82,1.19,1.19,0,0,1-.33.34,1.57,1.57,0,0,1-.41.2l-.27.1,0,.28a6.73,6.73,0,0,1-1.9,3.5l-.13.14v1.81a1.4,1.4,0,0,0,.17.65l-3.1,2.28-3.11-2.28a1.43,1.43,0,0,0,.17-.65v-1.81l-.13-.14A6.73,6.73,0,0,1,106.46,500.67Zm1.08,7a3.49,3.49,0,0,0,.35-.32l3,2.22-2.07,2.59L107.12,508A4.5,4.5,0,0,0,107.54,507.66Z"/><path class="cls-6" d="M308.05,505.82a14.77,14.77,0,0,0,.82,4.2,9.57,9.57,0,0,0,.46-.9,11.35,11.35,0,0,0,.78-2.42c1.58.64,2.18,1,2.18,1.32s-.18.28-.74.34a19,19,0,0,1-1.84,3.28,7.85,7.85,0,0,0,1.72,1.92c.52.4.6.44.7.44s.66-.78,1.12-2c0-.1.24,0,.22.08a14.71,14.71,0,0,0-.2,2c0,.28,0,.38.22.52a1,1,0,0,1,.38.76.85.85,0,0,1-.92.86,4.71,4.71,0,0,1-2.78-1.46,12.43,12.43,0,0,1-1.58-1.82,14.46,14.46,0,0,1-5.38,3.22c-.1,0-.26-.2-.18-.24a15.4,15.4,0,0,0,4.8-4.28,15.77,15.77,0,0,1-1.4-5.86h-7.5c0,.36,0,.72,0,1.08a18.73,18.73,0,0,1-.58,5,9.13,9.13,0,0,1-2.84,4.4c-.08.06-.24-.12-.2-.2a11.86,11.86,0,0,0,1.56-4.72,44,44,0,0,0,.22-5.14,11.11,11.11,0,0,0-.12-1.9,13.88,13.88,0,0,1,2.2,1.06h7.22a4.9,4.9,0,0,0,0-.54,6.88,6.88,0,0,0-.24-1.44c2.16.22,2.4.28,2.4.58s-.08.24-.54.44q0,.51.06,1H311c.66-1,.82-1.1,1-1.1s.36.12,1.12.76c.34.3.46.44.46.6s-.08.2-.3.2Zm-2.14-3.1h4.62c.92-1.08,1.16-1.24,1.3-1.24s.42.16,1.36.88c.42.32.58.48.58.62s-.06.2-.26.2H297.69a10.43,10.43,0,0,0-1.46.12l-.22-.74a8.68,8.68,0,0,0,1.64.16h2.1v-1.78a13,13,0,0,0-.12-2.1c2.44.22,2.66.42,2.66.62s-.22.42-.66.56v2.7H304V500a16.43,16.43,0,0,0-.12-2.1c2.42.22,2.64.42,2.64.62s-.2.38-.62.54v1.26h2.62c.88-1,1.12-1.16,1.26-1.16s.4.16,1.26.82c.38.3.54.46.54.6s-.06.2-.26.2h-5.42Zm-4.7,7.84a7.79,7.79,0,0,1-2.76,3.78c-.08.06-.26-.08-.2-.16a10.32,10.32,0,0,0,1.26-3,11.46,11.46,0,0,0,.34-1.84c1.76.56,2,.66,2,.86S301.69,510.5,301.21,510.56Zm2.48-1.56c0,1.12.08,4.16.08,4.74a1.5,1.5,0,0,1-.38,1,1.85,1.85,0,0,1-1.34.62c-.4,0-.44,0-.5-.46-.1-.6-.34-.76-1.5-1.14-.1,0-.06-.28,0-.26.54.06,1.22.12,1.6.12s.32-.08.32-.36v-5h-1.18a10.17,10.17,0,0,0-1.44.12l-.22-.74a8.3,8.3,0,0,0,1.6.16h3.12c.6-.84.84-1,1-1s.4.16,1.1.7c.3.26.46.42.46.56s-.06.2-.26.2h-2.48Zm2.18,3.74c-.48,0-.64-.2-.78-.92a4.43,4.43,0,0,0-.82-2.22.09.09,0,0,1,.12-.14c1.5.58,2.36,1.44,2.36,2.32A.92.92,0,0,1,305.87,512.74Zm4.42-7.58c-.32,0-.44-.1-.62-.48a2.25,2.25,0,0,0-1-1.12.08.08,0,0,1,0-.16c1.52,0,2.3.36,2.3,1.08A.68.68,0,0,1,310.29,505.16Z"/><path class="cls-2" d="M156.26,464.92a28.29,28.29,0,0,1,9.55,1.43,13.49,13.49,0,0,1,6.09,4.1A10.08,10.08,0,0,1,174,477a10.31,10.31,0,0,1-1.16,5,9.4,9.4,0,0,1-3,3.36,10.5,10.5,0,0,1-4.1,1.64,9.53,9.53,0,0,1-4.23-.17,17.94,17.94,0,0,1,4.58.66,15.42,15.42,0,0,1,4.76,2.24A12.2,12.2,0,0,1,174.6,494a14,14,0,0,1,1.47,6.76,16.25,16.25,0,0,1-2.28,8.64,18.67,18.67,0,0,1-6.12,6.16A26.29,26.29,0,0,1,159,519a32.81,32.81,0,0,1-9.87.56,29.57,29.57,0,0,1-9.69-2.55l.14-.7a27.71,27.71,0,0,0,8.19-1,21.46,21.46,0,0,0,6.82-3.33,16.41,16.41,0,0,0,4.69-5.32,14.19,14.19,0,0,0,1.72-7,10.82,10.82,0,0,0-2-6.83,11.74,11.74,0,0,0-5-3.74,16.06,16.06,0,0,0-6-1.19l.14-.7a11.36,11.36,0,0,0,10.22-5.85,10.18,10.18,0,0,0,1.19-6.12,7.49,7.49,0,0,0-1.47-4.17,6.66,6.66,0,0,0-3.12-2.2,9.27,9.27,0,0,0-3.95-.42,6.87,6.87,0,0,0-6,3.67q-1.75,3.33-1.61,9.91h-.7l-4-12.11a20,20,0,0,1,7.21-3.61A35.51,35.51,0,0,1,156.26,464.92Z"/><path class="cls-2" d="M187,517.42l-.28-.49a44.67,44.67,0,0,0,11.73-5.18,18.64,18.64,0,0,0,6.19-6.51,22,22,0,0,0,2.45-8.23,97.67,97.67,0,0,0,.49-10.39c0-3.87-.09-7.11-.28-9.7a14.3,14.3,0,0,0-1.36-5.81,3.88,3.88,0,0,0-3.68-1.92,4.68,4.68,0,0,0-3.92,1.71,10.2,10.2,0,0,0-1.82,4.45,34.35,34.35,0,0,0-.49,5.95,33.2,33.2,0,0,0,.46,6.23,8.39,8.39,0,0,0,1.26,3.32,4.28,4.28,0,0,0,4.76,1.72,9.9,9.9,0,0,0,2.27-1l.49.56a8.33,8.33,0,0,1-3.08,3.57,11.88,11.88,0,0,1-4.83,1.82,14.18,14.18,0,0,1-5.53-.25,12.82,12.82,0,0,1-8.89-7.52,17.67,17.67,0,0,1-1.26-7.7,18.39,18.39,0,0,1,2.31-8.54,15.57,15.57,0,0,1,6.65-6.16A25.44,25.44,0,0,1,202,465q10.29-.14,15.79,5.46t5.49,17.64a37.47,37.47,0,0,1-2.24,13.4,23.77,23.77,0,0,1-6.79,9.84,26.59,26.59,0,0,1-11.34,5.56A45,45,0,0,1,187,517.42Z"/><path class="cls-2" d="M234.86,515.74A6.31,6.31,0,0,1,230.42,505a6.37,6.37,0,0,1,8.92,0,6.32,6.32,0,0,1-4.48,10.78Z"/><path class="cls-2" d="M278.68,464.78l.63,5.18-24.92,24.22h28a4.86,4.86,0,0,0,2.94-.74,5.3,5.3,0,0,0,1.61-2.06h.7l-2.17,10.15H242.56v-.7Zm.7,45.5a3.59,3.59,0,0,0,1.16,2.66,3.74,3.74,0,0,0,2.69,1.12H284v.7H260.34l.07-.7h.7a3.87,3.87,0,0,0,2.77-1.09,3.53,3.53,0,0,0,1.15-2.69ZM265,479.9l13.65-15.12h.7v49.91H265Z"/><path class="cls-6" d="M257.09,120.32c-.1,0-.22-.16-.14-.22,5.46-3.88,7.56-8.14,7.56-15.46a13,13,0,0,0-.1-1.68c2.62.24,2.9.3,2.9.68,0,.2-.1.28-.7.56,0,.62,0,1.22-.08,1.84a15.68,15.68,0,0,0,2.3,6.86,13.29,13.29,0,0,0,6.52,5.24c.1,0,.1.22,0,.24a1.82,1.82,0,0,0-1.32,1.44c-.12.34-.2.42-.38.42a2.63,2.63,0,0,1-1-.58,16,16,0,0,1-5-6.44,19.75,19.75,0,0,1-1.24-5.36C265.67,114.22,263,117.62,257.09,120.32Z"/><path class="cls-2" d="M136.57,69.32a28.09,28.09,0,0,1,9.56,1.44,13.5,13.5,0,0,1,6.09,4.09,10.09,10.09,0,0,1,2.13,6.51,10.31,10.31,0,0,1-1.15,5,9.42,9.42,0,0,1-3,3.36,10.63,10.63,0,0,1-4.09,1.65,9.73,9.73,0,0,1-4.24-.18,17.62,17.62,0,0,1,4.59.67,15.3,15.3,0,0,1,4.76,2.24,12.19,12.19,0,0,1,3.74,4.27,13.93,13.93,0,0,1,1.47,6.75,16.39,16.39,0,0,1-2.27,8.65A18.7,18.7,0,0,1,148,120a26.55,26.55,0,0,1-8.64,3.43,33.47,33.47,0,0,1-9.87.56,29.82,29.82,0,0,1-9.7-2.56l.14-.7a27.39,27.39,0,0,0,8.19-1,21.28,21.28,0,0,0,6.83-3.32,16.64,16.64,0,0,0,4.69-5.32,14.25,14.25,0,0,0,1.71-7,10.78,10.78,0,0,0-2-6.82,11.69,11.69,0,0,0-5-3.75,16.11,16.11,0,0,0-6-1.19l.14-.7a11.15,11.15,0,0,0,5.95-1.5,11.27,11.27,0,0,0,4.27-4.34,10.16,10.16,0,0,0,1.19-6.13,7.48,7.48,0,0,0-1.47-4.16,6.7,6.7,0,0,0-3.11-2.21,9.32,9.32,0,0,0-4-.42,6.87,6.87,0,0,0-5.95,3.68c-1.17,2.21-1.7,5.51-1.61,9.9h-.7l-4-12.11a20.09,20.09,0,0,1,7.21-3.6A35.5,35.5,0,0,1,136.57,69.32Z"/><path class="cls-2" d="M167.3,121.82l-.28-.49a44.64,44.64,0,0,0,11.73-5.18,18.73,18.73,0,0,0,6.19-6.51,22.11,22.11,0,0,0,2.45-8.22,98,98,0,0,0,.49-10.4q0-5.8-.28-9.69a14.42,14.42,0,0,0-1.36-5.81,3.88,3.88,0,0,0-3.68-1.93,4.64,4.64,0,0,0-3.92,1.72,10,10,0,0,0-1.82,4.44,33.39,33.39,0,0,0-.49,6,32.36,32.36,0,0,0,.46,6.23,8.45,8.45,0,0,0,1.26,3.33A4.29,4.29,0,0,0,182.81,97a9.66,9.66,0,0,0,2.27-1l.49.56a8.33,8.33,0,0,1-3.08,3.57,11.88,11.88,0,0,1-4.83,1.82,14.37,14.37,0,0,1-5.53-.24A13.21,13.21,0,0,1,167,99.18a12.88,12.88,0,0,1-3.75-5,17.64,17.64,0,0,1-1.26-7.7,18.18,18.18,0,0,1,2.31-8.54,15.58,15.58,0,0,1,6.65-6.16,25.44,25.44,0,0,1,11.41-2.38q10.29-.14,15.79,5.46t5.49,17.64a37.75,37.75,0,0,1-2.24,13.41,23.89,23.89,0,0,1-6.79,9.83,26.61,26.61,0,0,1-11.34,5.57A45.09,45.09,0,0,1,167.3,121.82Z"/><path class="cls-2" d="M245.56,67.78l.28.49a45,45,0,0,0-11.73,5.18A18.82,18.82,0,0,0,227.92,80a22.16,22.16,0,0,0-2.45,8.23A97.67,97.67,0,0,0,225,98.58c0,3.87.09,7.11.28,9.7a13.91,13.91,0,0,0,1.4,5.81A3.89,3.89,0,0,0,230.3,116a4.66,4.66,0,0,0,3.92-1.71,10.11,10.11,0,0,0,1.82-4.48,33.69,33.69,0,0,0,.49-5.92,32.36,32.36,0,0,0-.46-6.23,8.93,8.93,0,0,0-1.22-3.32A4.07,4.07,0,0,0,233,92.84a4.31,4.31,0,0,0-2.94-.21,10.08,10.08,0,0,0-2.31,1l-.56-.56a8,8,0,0,1,3.11-3.6,12.49,12.49,0,0,1,4.87-1.79,14.18,14.18,0,0,1,5.53.25,12.94,12.94,0,0,1,5.14,2.52,12.81,12.81,0,0,1,3.75,5,17.6,17.6,0,0,1,1.26,7.73,17.84,17.84,0,0,1-2.35,8.54,15.56,15.56,0,0,1-6.65,6.13,26.12,26.12,0,0,1-11.37,2.41,24.85,24.85,0,0,1-11.62-2.34,15.79,15.79,0,0,1-7.21-7.6q-2.44-5.17-2.45-13.16a37.69,37.69,0,0,1,2.24-13.4,23.93,23.93,0,0,1,6.79-9.84,26.6,26.6,0,0,1,11.37-5.56A44.73,44.73,0,0,1,245.56,67.78Z"/><path class="cls-6" d="M71.93,76.41a5.51,5.51,0,1,1,5.51-5.51A5.51,5.51,0,0,1,71.93,76.41ZM59.58,83.54v18.52a2.42,2.42,0,1,0,4.83,0V86.84h1.11v41.33a3.18,3.18,0,0,0,6.36,0v-24h1v24a3.18,3.18,0,1,0,6.35,0V86.84h1.12v15.22a2.42,2.42,0,1,0,4.83,0V83.54A6.19,6.19,0,0,0,79.63,78H65.15A6.19,6.19,0,0,0,59.58,83.54Z"/></g></g></svg>