<?xml version="1.0" encoding="utf-8"?>
<!-- Generator: Adobe Illustrator 25.4.1, SVG Export Plug-In . SVG Version: 6.00 Build 0)  -->
<svg version="1.1" id="レイヤー_1" xmlns="http://www.w3.org/2000/svg" xmlns:xlink="http://www.w3.org/1999/xlink" x="0px"
	 y="0px" viewBox="0 0 1440 830" style="enable-background:new 0 0 1440 830;" xml:space="preserve">
<style type="text/css">
	.st0{fill:#FFFFFF;}
</style>
<g id="レイヤー_2_00000160186936416277588940000006253222950312030884_">
	<g id="pc">
		<path class="st0" d="M0,0v830h1440V0H0z M629,232.7c23.8-6.2,55.5-9.6,89.3-9.6s65.6,3.4,89.4,9.6c2.5,0.6,4.8,1.3,7,2
			c-8.6,6.6-15.6,21.5-20.9,41c-18.3,3.4-36.8,5.4-55.3,6.1c-5.4-10.5-11.9-16.7-19.4-16.7s-14,6.2-19.5,16.8
			c-26.7-1-51.2-4.2-70.6-9.3c-25.5-6.6-34.6-14.7-34.6-20S603.5,239.3,629,232.7z M620.6,538.9c-5,0-12.5-8.6-18.8-32.8
			c-5.9-22.7-9.2-52.9-9.2-85.1c0-73.1,16.3-117.9,28-117.9c5,0,12.5,8.6,18.8,32.8c5.9,22.7,9.2,52.9,9.2,85.1
			C648.6,494,632.3,538.9,620.6,538.9L620.6,538.9z M740.7,501.8c-7.2,27.5-15.9,37.3-21.7,37.3s-14.5-9.8-21.6-37.3
			c-6.7-25.6-10.3-59.6-10.3-95.9s3.7-70.4,10.3-95.9c1.7-7,4-13.8,6.9-20.5c0.6-1.3,1.2-2.5,1.7-3.7c0.7-1.4,1.3-2.6,2-3.7
			c4-6.7,8-9.5,11-9.5s6.9,2.8,11,9.5c0.7,1.1,1.4,2.4,2,3.7c0.6,1.1,1.2,2.4,1.7,3.7c2.8,6.6,5.1,13.5,6.9,20.5
			c6.7,25.6,10.3,59.6,10.3,95.9S747.4,476.2,740.7,501.8z M825.1,539.4c-17.3,0-36.5-61.8-36.5-150.5c0-43.4,4.6-80.4,11.3-106.8
			c0.3-1.4,0.7-2.7,1-4s0.8-2.8,1.2-4.1c6.7-22.5,14.9-35.5,22.8-35.6h0.1c2.4,0,4.9,1.2,7.4,3.6c3,2.9,6,7.6,8.9,13.8
			c0.6,1.3,1.2,2.6,1.8,4c0.5,1.2,1,2.5,1.5,3.8c9.7,26.1,17,70.6,17,125.3C861.6,477.6,842.4,539.4,825.1,539.4L825.1,539.4z"/>
	</g>
</g>
</svg>
