<svg xmlns="http://www.w3.org/2000/svg" viewBox="0 0 1440 830"><defs><style>.cls-1{fill:#fff;}</style></defs><g id="レイヤー_2" data-name="レイヤー 2"><g id="pc"><path class="cls-1" d="M0,0V830H1440V0ZM629,232.66c23.83-6.21,55.55-9.63,89.35-9.63s65.56,3.42,89.39,9.63c2.49.65,4.83,1.32,7,2-8.57,6.65-15.58,21.46-20.94,41a374.51,374.51,0,0,1-55.32,6.1c-5.43-10.5-11.93-16.7-19.43-16.7s-14,6.23-19.45,16.76c-26.68-1-51.25-4.24-70.61-9.29-25.51-6.65-34.6-14.68-34.6-20S603.46,239.31,629,232.66Zm-8.37,306.2c-5,0-12.49-8.63-18.81-32.82-5.9-22.68-9.17-52.9-9.17-85.1,0-73.06,16.3-117.91,28-117.91,5,0,12.51,8.62,18.84,32.83,5.91,22.68,9.17,52.89,9.17,85.08C648.61,494,632.29,538.86,620.6,538.86ZM740.69,501.8c-7.18,27.52-15.91,37.32-21.66,37.32s-14.46-9.8-21.63-37.32c-6.66-25.58-10.33-59.65-10.33-95.94s3.67-70.37,10.33-95.94a135.38,135.38,0,0,1,6.86-20.46c.57-1.31,1.15-2.55,1.74-3.69.67-1.35,1.34-2.58,2-3.69,4-6.73,8-9.5,11-9.5s6.94,2.76,11,9.46c.67,1.12,1.36,2.35,2,3.7.59,1.13,1.16,2.36,1.74,3.68a136,136,0,0,1,6.9,20.5c6.68,25.59,10.34,59.65,10.34,95.94S747.37,476.21,740.69,501.8Zm84.4,37.6c-17.27,0-36.51-61.84-36.51-150.55,0-43.42,4.61-80.4,11.34-106.84.34-1.37.69-2.7,1.05-4s.77-2.77,1.18-4.12c6.66-22.51,14.94-35.47,22.82-35.61h.12c2.44,0,4.92,1.23,7.38,3.6,3,2.92,6,7.57,8.91,13.79.58,1.27,1.17,2.63,1.75,4,.5,1.23,1,2.51,1.49,3.84,9.66,26.07,17,70.56,17,125.3C861.61,477.56,842.37,539.4,825.09,539.4Z"/></g></g></svg>