<svg xmlns="http://www.w3.org/2000/svg" viewBox="0 0 164.27 193.21"><g id="レイヤー_2" data-name="レイヤー 2"><g id="pc"><path d="M22.2,30.23C34,33.32,49,35.28,65.32,35.91c3.32-6.43,7.29-10.23,11.88-10.23s8.55,3.78,11.87,10.2a230.88,230.88,0,0,0,33.78-3.73c3.27-11.95,7.55-21,12.79-25-1.34-.41-2.76-.82-4.29-1.22C116.8,2.09,97.41,0,76.76,0s-40,2.09-54.56,5.88C6.62,9.94,1.07,14.83,1.07,18S6.62,26.17,22.2,30.23Zm64,10.31c-.35-.8-.7-1.55-1.06-2.24s-.83-1.58-1.24-2.26c-2.47-4.1-4.85-5.78-6.71-5.78S73,32,70.48,36.06c-.42.68-.83,1.43-1.24,2.25s-.71,1.46-1.06,2.26A82.08,82.08,0,0,0,64,53.06c-4.07,15.62-6.31,36.43-6.31,58.59s2.24,43,6.31,58.6C68.37,187.06,73.68,193,77.2,193s8.84-6,13.22-22.79c4.08-15.63,6.32-36.43,6.32-58.6s-2.24-43-6.32-58.59A83.11,83.11,0,0,0,86.21,40.54ZM17.08,48.85C10,48.85,0,76.25,0,120.86c0,19.67,2,38.13,5.6,52,3.86,14.77,8.46,20,11.48,20,7.14,0,17.11-27.39,17.11-72,0-19.65-2-38.1-5.6-52C24.73,54.12,20.12,48.85,17.08,48.85ZM153.9,24.74c-.3-.81-.61-1.59-.91-2.34s-.71-1.69-1.07-2.47a28.51,28.51,0,0,0-5.44-8.42A6.67,6.67,0,0,0,142,9.31h-.07c-4.82.09-9.87,8-13.94,21.75q-.37,1.23-.72,2.52c-.22.79-.43,1.6-.64,2.44-4.11,16.14-6.93,38.73-6.93,65.25,0,54.18,11.75,91.94,22.3,91.94s22.3-37.76,22.3-91.94C164.27,67.84,159.8,40.66,153.9,24.74Z"/></g></g></svg>