<svg xmlns="http://www.w3.org/2000/svg" xmlns:xlink="http://www.w3.org/1999/xlink" viewBox="0 0 335 542.11"><defs><style>.cls-1,.cls-4{fill:none;}.cls-2{fill:#fff;}.cls-3,.cls-6{fill:#e8314b;}.cls-4{stroke:#e8314b;stroke-miterlimit:10;stroke-width:1.76px;}.cls-5,.cls-7{fill:#333;}.cls-6,.cls-7{fill-rule:evenodd;}.cls-8{fill:#e1e3e8;}.cls-9{clip-path:url(#clip-path);}</style><clipPath id="clip-path"><path class="cls-1" d="M35.41,78a4.74,4.74,0,1,1,4.73-4.74A4.74,4.74,0,0,1,35.41,78ZM24.79,84.15v15.91a2.08,2.08,0,1,0,4.15,0V87h1V122.5a2.73,2.73,0,1,0,5.46,0V101.88h.88V122.5a2.73,2.73,0,0,0,5.46,0V87h1v13.08a2.08,2.08,0,1,0,4.15,0V84.15A5.32,5.32,0,0,0,42,79.36H29.58A5.32,5.32,0,0,0,24.79,84.15ZM73.62,73.28A4.74,4.74,0,1,0,68.89,78,4.73,4.73,0,0,0,73.62,73.28ZM58.27,84.15v15.91a2.08,2.08,0,1,0,4.15,0V87h1V122.5a2.73,2.73,0,0,0,5.46,0V101.88h.88V122.5a2.73,2.73,0,1,0,5.46,0V87h.95v13.08a2.08,2.08,0,0,0,4.16,0V84.15a5.32,5.32,0,0,0-4.79-4.79H63.06A5.31,5.31,0,0,0,58.27,84.15ZM107.1,73.28A4.74,4.74,0,1,0,102.36,78,4.74,4.74,0,0,0,107.1,73.28ZM91.74,84.15v15.91a2.08,2.08,0,0,0,4.16,0V87h1V122.5a2.73,2.73,0,1,0,5.45,0V101.88h.89V122.5a2.73,2.73,0,1,0,5.46,0V87h1v13.08a2.08,2.08,0,0,0,4.16,0V84.15A5.32,5.32,0,0,0,109,79.36H96.53A5.32,5.32,0,0,0,91.74,84.15Zm48.84-10.87A4.74,4.74,0,1,0,135.84,78,4.74,4.74,0,0,0,140.58,73.28ZM125.22,84.15v15.91a2.08,2.08,0,0,0,4.16,0V87h1V122.5a2.73,2.73,0,0,0,5.46,0V101.88h.88V122.5a2.73,2.73,0,1,0,5.46,0V87h1v13.08a2.08,2.08,0,1,0,4.15,0V84.15a5.31,5.31,0,0,0-4.79-4.79H130A5.32,5.32,0,0,0,125.22,84.15Z"/></clipPath></defs><g id="レイヤー_2" data-name="レイヤー 2"><g id="pc"><rect class="cls-2" x="2.5" y="2.5" width="330" height="537.11"/><path class="cls-3" d="M330,5V537.11H5V5H330m5-5H0V542.11H335V0Z"/><line class="cls-4" y1="385.75" x2="335" y2="385.75"/><path class="cls-5" d="M112.18,159.62a13.55,13.55,0,0,1-2.44,5.41c2.61,1.09,4.17,2.26,4.17,3.25,0,.65-.28,1-.74,1-.3,0-.51-.13-.9-.5a23.42,23.42,0,0,0-3.34-2.86c-1.89,1.87-4.45,3-8,3.33-.08,0-.12-.25,0-.26a13.66,13.66,0,0,0,6.83-3.84,25.09,25.09,0,0,0-2.69-1.36c-.13.24-.27.48-.4.69s-.35.4-.66.4c-.59,0-1-.18-1-.45a1.56,1.56,0,0,1,.25-.6,28.56,28.56,0,0,0,2.09-4.25h-2.65a15.25,15.25,0,0,0-1.53.09l-.18-.59a11,11,0,0,0,1.7.13h2.8c.11-.3.22-.59.32-.88a16.06,16.06,0,0,0,.86-3.46c1.91.39,2.08.47,2.08.71s-.12.28-.6.44c-.36,1.14-.71,2.21-1.06,3.19h5.79c.84-1,1-1.15,1.14-1.15s.32.12,1.12.8c.35.3.48.45.48.56s-.05.16-.21.16Zm-5.2,0a30.65,30.65,0,0,1-1.72,3.89,28.41,28.41,0,0,1,3.11,1,13.27,13.27,0,0,0,2.13-4.85Z"/><path class="cls-5" d="M121.73,159.83c0,1-.37,1.88-1.17,1.88a.73.73,0,0,1-.71-.8.87.87,0,0,1,.45-.8,1.93,1.93,0,0,0,1-1.93c0-.08.13-.12.16,0A5.27,5.27,0,0,1,121.73,159.83Zm1.88-2c0,5.73,0,9.67,0,11,0,.49-.27.69-.86.69s-.72-.14-.72-.56c0-1.2.08-4.83.08-12.08a17.46,17.46,0,0,0-.08-2c2,.22,2,.22,2,.46s-.13.27-.5.42Zm1,2.45c-.4,0-.51-.21-.51-.94a3.06,3.06,0,0,0-.4-1.59c0-.06,0-.13.08-.09,1,.55,1.45,1.18,1.45,1.88A.66.66,0,0,1,124.64,160.29Zm5.7,3.18h1.12c.77-1,1-1.13,1.07-1.13s.3.13,1.09.78c.35.31.48.45.48.56s0,.16-.21.16h-3.55v4.47h1.77c.85-1,1-1.14,1.16-1.14s.32.13,1.15.79c.38.32.51.45.51.56s-.05.16-.21.16h-8.86a12.15,12.15,0,0,0-1.35.09l-.17-.59a7.78,7.78,0,0,0,1.42.13h3v-4.47h-1.92a5.91,5.91,0,0,0-1,.1l-.18-.59a5.94,5.94,0,0,0,1.17.12h2v-3.69h-1.9a9.05,9.05,0,0,1-2.43,3.14c-.07,0-.2-.08-.15-.15a14.71,14.71,0,0,0,1.6-4.11,13.76,13.76,0,0,0,.34-2.29c2,.53,2,.53,2,.77s0,.21-.52.4a17.33,17.33,0,0,1-.68,1.87h1.73v-2.18a22.22,22.22,0,0,0-.09-2.29c2.06.2,2.25.39,2.25.56s-.19.31-.57.44v3.47H132c.7-1,.89-1.11,1-1.11s.31.13,1,.77c.34.29.47.44.47.55s-.05.16-.21.16h-3.95Z"/><path class="cls-5" d="M141,162.58a12.52,12.52,0,0,1-1.86,1.28c-.06,0-.16-.11-.11-.18a17.18,17.18,0,0,0,2.62-3.5,8.74,8.74,0,0,0,.82-1.88c1.63.81,1.7.84,1.7,1s-.13.26-.6.32a10.93,10.93,0,0,1-1.39,1.81c.58.11.67.16.67.32s-.11.24-.43.38v6.66c0,.47-.27.67-.83.67-.37,0-.69-.12-.69-.56s.1-1.69.1-4.25Zm2.38-6.53a11.45,11.45,0,0,1-4,3.34c-.07,0-.18-.11-.11-.16a13.35,13.35,0,0,0,2.14-2.86,6.73,6.73,0,0,0,.7-1.67c1.27.47,1.94.82,1.94,1.06S143.82,156,143.34,156.05Zm5.89,11.44a9.12,9.12,0,0,0,2,.18,23.68,23.68,0,0,0,2.88-.18c.08,0,.07.16,0,.21a1.38,1.38,0,0,0-.72,1c-.06.35-.13.43-.27.45a3.54,3.54,0,0,1-.45,0,8.65,8.65,0,0,1-4.77-1,5.63,5.63,0,0,1-2.33-2.94,8.49,8.49,0,0,1-2.87,3.85c-.06.05-.18-.11-.13-.17a11.33,11.33,0,0,0,2.16-7c0-.18,0-.47,0-.81,1.63.26,2,.34,2,.56s-.11.25-.43.37a14.71,14.71,0,0,1-.51,2.71,5.05,5.05,0,0,0,2.11,2.22v-7.79h-2.48a6,6,0,0,0-1,.09l-.18-.59a4.49,4.49,0,0,0,1.07.13h3.56a17.18,17.18,0,0,0,1.1-2.82c.1-.38.19-.75.27-1.12,1.56.58,2,.82,2,1s-.15.26-.63.26a15.53,15.53,0,0,1-2.21,2.67h2c.71-.88.9-1,1-1s.32.13,1,.7c.3.26.43.41.43.52s-.05.16-.21.16h-4.37v3.58h1.48c.7-.84.89-1,1-1s.31.13,1,.69c.29.24.42.38.42.49s-.05.16-.21.16h-3.67Zm-2.41-9.15c-.45,0-.52-.1-.71-1.23a4.68,4.68,0,0,0-.83-1.85c-.05-.06.05-.17.13-.14,1.55.62,2.35,1.34,2.35,2.15A1,1,0,0,1,146.82,158.34Z"/><path class="cls-5" d="M166.5,164.72a9.54,9.54,0,0,0,2.61,1.57,13.12,13.12,0,0,0,4.21.93c.08,0,.08.15,0,.18-.6.22-.74.35-1.17,1.32-.07.13-.15.18-.24.18a3.25,3.25,0,0,1-.76-.24,11.68,11.68,0,0,1-2.81-1.55,10.05,10.05,0,0,1-2.05-2.11c.05,2,.09,3.55.09,4s-.25.61-.94.61c-.43,0-.62-.18-.62-.53s.08-1.94.11-3.34a11.58,11.58,0,0,1-6.34,3.24c-.08,0-.16-.11-.08-.14a13.47,13.47,0,0,0,5.33-4.1h-3.78a8.54,8.54,0,0,0-1.12.1l-.17-.59a6.61,6.61,0,0,0,1.23.13h4.88v-1.49h-3.14a8.35,8.35,0,0,0-1.13.09l-.18-.59a6.18,6.18,0,0,0,1.26.13h3.19V161h-4a7.35,7.35,0,0,0-1.15.1l-.18-.59a7.08,7.08,0,0,0,1.28.12h2.63c-.21-.06-.32-.27-.45-.73a3.07,3.07,0,0,0-.8-1.38c-.06-.05,0-.14.09-.13,1.45.23,2.18.72,2.18,1.46a.8.8,0,0,1-.56.78h2.58a10.55,10.55,0,0,0,.67-1.37,7.77,7.77,0,0,0,.32-1c1.3.5,1.83.75,1.83.94s-.12.24-.71.28a9.4,9.4,0,0,1-1.57,1.16h2.66c.75-.83.94-1,1.06-1s.32.13,1,.68c.3.25.43.38.43.49s0,.16-.21.16h-5.71v1.46h2.5c.69-.77.88-.9,1-.9s.32.13.93.63c.27.22.4.37.4.48s0,.16-.21.16h-4.61v1.49h4c.82-.92,1-1.05,1.12-1.05s.3.13,1,.73c.32.25.45.41.45.52s-.05.16-.21.16Zm-3-8.82a5.29,5.29,0,0,0-.08-1.16c1.81.17,2,.3,2,.49s-.13.23-.51.4v2.27h1.32v-2a5.29,5.29,0,0,0-.08-1.16c1.83.19,2,.3,2,.49s-.12.23-.53.4v2.27h.65a13.61,13.61,0,0,0,.9-1.79,6.64,6.64,0,0,0,.35-1.07c1.41.59,1.91.85,1.91,1s-.12.29-.74.3a9.65,9.65,0,0,1-1.92,1.52h1.87c.72-.79.91-.92,1-.92s.32.13,1,.64c.3.25.43.38.43.49s-.05.16-.21.16H160a7.91,7.91,0,0,0-1.18.1l-.18-.59a7.49,7.49,0,0,0,1.32.12h3.53Zm-1.71,1.72c-.37,0-.51-.15-.67-.63a3.13,3.13,0,0,0-.87-1.57c-.06,0,0-.16.08-.14,1.51.26,2.29.78,2.29,1.54A.83.83,0,0,1,161.79,157.62Z"/><path class="cls-5" d="M183.36,167.93a14.72,14.72,0,0,1-5.25,1.4c-.08,0-.13-.16-.05-.19a16.94,16.94,0,0,0,3.19-1.6,4.26,4.26,0,0,0,1.08-1c1.45.69,1.88.95,1.88,1.12S184,168,183.36,167.93Zm-2-1.72c0,.45-.27.66-.89.66s-.71-.16-.71-.53c0-.64.08-1.49.08-4.08,0-1,0-2.18-.08-3.2a12.91,12.91,0,0,1,1.76.85h7.22c.56-.6.69-.69.82-.69s.3.09.93.54c.28.23.38.34.38.47s-.11.25-.48.49v1c0,2.26.06,3.91.06,4.42s-.27.64-.89.64-.67-.15-.67-.56v0h-7.53Zm.75-7.67c0,.45-.3.6-.86.6-.37,0-.66-.1-.66-.45s0-1,0-2c0-.7,0-1-.05-1.68a15.47,15.47,0,0,1,1.73.82H188c.58-.63.71-.72.84-.72s.28.09.89.57c.27.23.37.34.37.47s-.08.2-.46.43v.3c0,.77,0,1.36,0,1.59,0,.43-.3.61-.89.61s-.67-.16-.67-.57Zm6.78,1.73h-7.53v1.57h7.53Zm-7.53,3.52h7.53v-1.58h-7.53Zm0,2h7.53v-1.65h-7.53Zm6.81-9.59h-6.06v2h6.06Zm2.41,13.23c-.32,0-.48-.1-.88-.5a8,8,0,0,0-3.39-2c-.08,0,0-.17.06-.17,3.56.14,5,.72,5,1.82A.76.76,0,0,1,190.56,169.45Z"/><path class="cls-5" d="M200.43,166.69a38.22,38.22,0,0,0,3.84-1.12c.08,0,.15.13.08.18a26.19,26.19,0,0,1-5.9,2.86c-.08.45-.2.63-.42.63s-.38-.32-.9-2a9.64,9.64,0,0,0,1-.13l.75-.12v-9.88a11.78,11.78,0,0,0-.09-1.92c2,.18,2.19.35,2.19.51s-.11.26-.56.47v4.19H202c.82-.93,1-1.06,1.12-1.06s.31.13,1,.74c.32.27.45.42.45.53s-.05.16-.21.16h-3.94Zm5.94-5.07a14.08,14.08,0,0,0,2.35-2.19,8.16,8.16,0,0,0,1.09-1.57c1.28.8,1.78,1.18,1.78,1.41s-.15.3-.77.22a15.36,15.36,0,0,1-4.45,2.61V167c0,.64.14.69,1.94.69a2.63,2.63,0,0,0,1.4-.19c.4-.23.69-.95,1.19-2.53,0-.08.21-.07.21,0-.05.66-.13,1.75-.13,2a.34.34,0,0,0,.21.36c.35.17.46.3.46.59,0,.46-.3.75-1,.92a11.34,11.34,0,0,1-2.45.2c-2.91,0-3.41-.26-3.41-1.79,0-.31,0-.61,0-1.83,0-3.36,0-6.72-.07-10.1,1.77.18,2,.24,2,.5s-.08.28-.45.44Z"/><path class="cls-5" d="M224.05,165.8c0,1.68,0,2.83,0,3.23s-.36.54-.93.54-.67-.12-.67-.57.06-1.3.08-3.2h-5a9,9,0,0,0-1.17.09l-.17-.59a6.57,6.57,0,0,0,1.31.13h5v-.1a16.9,16.9,0,0,0-.08-1.78c1.87.2,2.08.26,2.08.5s-.08.21-.53.43v1h4c.8-1,1-1.12,1.1-1.12s.32.13,1.14.78c.37.29.5.43.5.55s0,.16-.21.16Zm-6.32-2.25c0,.49-.07.65-.29.65s-.45-.41-1.06-1.73c.48-.13,1-.26,1.38-.4a16.51,16.51,0,0,0,2.86-1.19c.07,0,.21.13.16.19A11.62,11.62,0,0,1,217.73,163.55Zm4.88-6.46c1.12.43,1.47.62,1.47.81s0,.18-.56.2a7.74,7.74,0,0,1-1.41,1.21,1.32,1.32,0,0,1,.55,1,.69.69,0,0,1-.66.75c-.38,0-.43-.07-.69-.85a3.51,3.51,0,0,0-1-1.47.08.08,0,0,1,.06-.15,6.11,6.11,0,0,1,1.28.45c.14-.3.29-.61.42-.91a5.83,5.83,0,0,0,.36-1h-4.77a7.1,7.1,0,0,0-1.12.1l-.17-.6a6.18,6.18,0,0,0,1.26.13h4.84v-1.09a6.53,6.53,0,0,0-.08-.94c2,.17,2.17.35,2.17.53s-.17.32-.56.44v1.06h3.81c.88-1,1.07-1.09,1.19-1.09s.3.13,1.05.75c.34.29.47.44.47.55s-.05.16-.21.16Zm-3.56,3.62c-.43,0-.54-.15-.83-1a3.85,3.85,0,0,0-1-1.71.08.08,0,0,1,.08-.14c1.76.51,2.58,1.12,2.58,1.95A.85.85,0,0,1,219.05,160.71Zm6,1.6a4.52,4.52,0,0,0-.65-1c0-.07,0-.15.11-.12,1.36.45,2.22,1.19,2.22,1.94a.78.78,0,0,1-.75.82c-.37,0-.45-.12-.67-1a2.84,2.84,0,0,0-.13-.38,21.91,21.91,0,0,1-4.18,1c-.08.35-.12.43-.27.43s-.35-.27-.69-1.73c.72,0,1.11,0,1.64,0a20.55,20.55,0,0,0,2-2.69,8.69,8.69,0,0,0,.69-1.3c1.38.72,1.62.88,1.62,1.09s0,.18-.67.21a35.33,35.33,0,0,1-3,2.69C223.26,162.4,224.16,162.37,225.07,162.31Zm4-3.32a11.93,11.93,0,0,1-3,1.84c-.08,0-.21-.09-.15-.14a11.79,11.79,0,0,0,1.59-1.9,5.68,5.68,0,0,0,.61-1.14c1.23.64,1.63.91,1.63,1.1S229.57,159,229.06,159Zm-.08,4.82c-.4,0-.53-.13-1-.91a4.26,4.26,0,0,0-1.52-1.6c-.06-.05,0-.18.07-.16,2.14.32,3.2.94,3.2,1.87A.77.77,0,0,1,229,163.81Z"/><path class="cls-6" d="M108.76,277.18,25.37,288.9A84.21,84.21,0,0,1,97,193.79a90,90,0,0,1,11.72-.81Z"/><path class="cls-7" d="M108.76,277.18V193a84.21,84.21,0,1,1,0,168.41c-42.79,0-77.44-30.11-83.39-72.49Z"/><path class="cls-2" d="M88.22,253.41a2.33,2.33,0,0,1,1.89.75,2.73,2.73,0,0,1,.48,2.08,3,3,0,0,1-1,2.07,3.59,3.59,0,0,1-2.35.74,2.26,2.26,0,0,1-1.89-.78,2.85,2.85,0,0,1-.4-2.19,3,3,0,0,1,1.07-2A3.42,3.42,0,0,1,88.22,253.41Zm-.06.63c-.23,0-.43.2-.61.58a5.85,5.85,0,0,0-.42,1.62,6,6,0,0,0,0,1.6c.07.38.2.57.4.57s.48-.2.67-.58a5,5,0,0,0,.39-1.58,5.52,5.52,0,0,0,0-1.62C88.5,254.24,88.36,254,88.16,254Zm-.23,11.09-.72-.3,5.54-10.45a2.42,2.42,0,0,1-.87.34,3.08,3.08,0,0,1-.8,0,3.11,3.11,0,0,1-1-.28l-.79-.36a1.91,1.91,0,0,0-.84-.13l-.22-.55a4.18,4.18,0,0,1,1,.1,2.86,2.86,0,0,1,.67.25,4.07,4.07,0,0,0,.55.28,2,2,0,0,0,.62.15,2.11,2.11,0,0,0,.84-.1,4.3,4.3,0,0,0,.73-.3l.59-.31.62.28ZM94,259.41a2.29,2.29,0,0,1,1.86.75,2.69,2.69,0,0,1,.5,2.08,2.9,2.9,0,0,1-1,2.07,3.63,3.63,0,0,1-2.37.74,2.26,2.26,0,0,1-1.89-.78,2.81,2.81,0,0,1-.4-2.19,3,3,0,0,1,1.06-2A3.47,3.47,0,0,1,94,259.41Zm-.18.63c-.22,0-.42.2-.6.58a5.89,5.89,0,0,0-.41,1.62,5.3,5.3,0,0,0-.06,1.6c.06.38.2.57.4.57s.48-.19.66-.57a4.78,4.78,0,0,0,.41-1.59,5.52,5.52,0,0,0,0-1.62C94.18,260.24,94,260,93.82,260Z"/><path class="cls-2" d="M51.71,252.44,50,247.76a6.56,6.56,0,0,1,1.88-1.12,12.52,12.52,0,0,1,2.39-.68,14.81,14.81,0,0,1,2.54-.23,10.63,10.63,0,0,1,3.8.64,6.16,6.16,0,0,1,2.66,1.82,4.34,4.34,0,0,1,1,2.87,5.22,5.22,0,0,1-.54,2.34,8.52,8.52,0,0,1-1.39,2,15.39,15.39,0,0,1-1.87,1.73c-.68.52-1.34,1-2,1.42l-1.77,1.14h4.94a3.31,3.31,0,0,0,1.42-.3,3.75,3.75,0,0,0,1.17-.9,6.5,6.5,0,0,0,1-1.53h.26l-1.77,7.3H50.12V264c.75-.92,1.52-1.83,2.3-2.75s1.56-1.84,2.29-2.75a32.78,32.78,0,0,0,2-2.71,15.42,15.42,0,0,0,1.41-2.68,7.33,7.33,0,0,0,.52-2.63,3.73,3.73,0,0,0-.9-2.65A2.81,2.81,0,0,0,55.3,247a3.07,3.07,0,0,0-2.49,1.49,7.54,7.54,0,0,0-.84,3.92Z"/><path class="cls-2" d="M67.15,246.14l13.78,0-3.32,7.72c-.23.51-.47,1.11-.73,1.82s-.53,1.48-.81,2.29-.54,1.62-.8,2.42l-.72,2.22c-.22.69-.39,1.26-.51,1.73H69.62c.32-.52.69-1.15,1.12-1.88s.89-1.52,1.35-2.36l1.39-2.48c.46-.82.88-1.58,1.24-2.29s.66-1.28.88-1.75L77,250.64H68.64a1.81,1.81,0,0,0-1.23.39,2.86,2.86,0,0,0-.72,1.17h-.26Z"/><path class="cls-2" d="M159.48,300.72a2.33,2.33,0,0,1,1.89.75,2.74,2.74,0,0,1,.48,2.08,3,3,0,0,1-1,2.07,3.54,3.54,0,0,1-2.35.75,2.24,2.24,0,0,1-1.89-.79,2.81,2.81,0,0,1-.4-2.19,3,3,0,0,1,1.07-2A3.48,3.48,0,0,1,159.48,300.72Zm-.06.64c-.23,0-.43.19-.61.58a5.86,5.86,0,0,0-.42,1.61,6,6,0,0,0,0,1.6c.07.39.2.58.4.58s.48-.21.67-.59a5.1,5.1,0,0,0,.39-1.57,6,6,0,0,0,0-1.63C159.75,301.56,159.62,301.36,159.42,301.36Zm-.23,11.09-.72-.31L164,301.7a2.23,2.23,0,0,1-.87.33,2.71,2.71,0,0,1-.8,0,3.4,3.4,0,0,1-1-.28l-.79-.36a1.77,1.77,0,0,0-.84-.13l-.22-.56a4.12,4.12,0,0,1,1,.11,2.47,2.47,0,0,1,.67.25,5.6,5.6,0,0,0,.55.27,1.88,1.88,0,0,0,.62.15,2.11,2.11,0,0,0,.84-.09,5.34,5.34,0,0,0,.73-.31l.59-.3.62.27Zm6.07-5.73a2.29,2.29,0,0,1,1.86.75,2.7,2.7,0,0,1,.5,2.08,2.86,2.86,0,0,1-1,2.07,3.58,3.58,0,0,1-2.37.75,2.21,2.21,0,0,1-1.89-.79,2.77,2.77,0,0,1-.4-2.19,3,3,0,0,1,1.06-2A3.51,3.51,0,0,1,165.26,306.72Zm-.18.64c-.22,0-.42.19-.6.58a5.91,5.91,0,0,0-.41,1.61,5,5,0,0,0-.06,1.6c.06.39.19.58.4.58s.47-.19.66-.57a5.19,5.19,0,0,0,.41-1.59,6,6,0,0,0,0-1.63C165.43,307.56,165.29,307.36,165.08,307.36Z"/><path class="cls-2" d="M123,293.46l13.78,0-3.32,7.72c-.23.5-.47,1.11-.73,1.82s-.53,1.47-.81,2.29-.54,1.62-.8,2.42-.5,1.53-.72,2.22-.38,1.26-.51,1.73h-4.42c.32-.52.69-1.15,1.12-1.89s.89-1.52,1.35-2.35l1.4-2.48c.45-.83.87-1.59,1.23-2.29s.66-1.29.88-1.76l1.36-2.88H124.5a1.81,1.81,0,0,0-1.23.39,2.86,2.86,0,0,0-.72,1.17h-.26Z"/><path class="cls-2" d="M144.28,293.1a10.33,10.33,0,0,1,3.55.53,4.94,4.94,0,0,1,2.26,1.52,3.75,3.75,0,0,1,.8,2.42,3.88,3.88,0,0,1-.43,1.87,3.59,3.59,0,0,1-1.13,1.25,4.07,4.07,0,0,1-1.53.61,3.6,3.6,0,0,1-1.57-.07,6.93,6.93,0,0,1,1.71.25,5.77,5.77,0,0,1,1.76.83,4.4,4.4,0,0,1,1.39,1.59,5.12,5.12,0,0,1,.55,2.51,6,6,0,0,1-.85,3.21,6.9,6.9,0,0,1-2.27,2.29,9.89,9.89,0,0,1-3.21,1.27,12.46,12.46,0,0,1-3.67.21,11,11,0,0,1-3.6-.95l.05-.26a10.13,10.13,0,0,0,3-.39,8,8,0,0,0,2.53-1.24,6,6,0,0,0,1.74-2,5.21,5.21,0,0,0,.64-2.59,4,4,0,0,0-.74-2.53,4.29,4.29,0,0,0-1.85-1.39,5.83,5.83,0,0,0-2.22-.45l0-.26a4,4,0,0,0,2.21-.56,4.1,4.1,0,0,0,1.59-1.61,3.73,3.73,0,0,0,.44-2.27,2.72,2.72,0,0,0-.55-1.55,2.48,2.48,0,0,0-1.15-.82,3.42,3.42,0,0,0-1.47-.15,2.54,2.54,0,0,0-2.21,1.36,7.75,7.75,0,0,0-.6,3.68h-.26l-1.48-4.5a7.54,7.54,0,0,1,2.68-1.34A13.43,13.43,0,0,1,144.28,293.1Z"/><path class="cls-2" d="M69.25,227.13a10.11,10.11,0,0,1-1.82,4.05c1.95.82,3.12,1.69,3.12,2.44,0,.49-.21.77-.56.77s-.38-.09-.67-.37a17.35,17.35,0,0,0-2.5-2.14,9.41,9.41,0,0,1-6,2.49c-.06,0-.1-.18,0-.19a10.26,10.26,0,0,0,5.12-2.88,21,21,0,0,0-2-1l-.3.52c-.17.24-.27.3-.5.3-.44,0-.73-.14-.73-.34a1.36,1.36,0,0,1,.19-.44,20.22,20.22,0,0,0,1.56-3.19h-2a10.32,10.32,0,0,0-1.15.07l-.13-.45a7.74,7.74,0,0,0,1.27.1h2.1c.09-.23.17-.44.24-.66a12.11,12.11,0,0,0,.65-2.59c1.43.29,1.56.35,1.56.53s-.1.21-.46.33c-.26.86-.52,1.66-.79,2.39H69.8c.63-.77.77-.86.85-.86s.24.09.84.6c.27.22.36.33.36.42s0,.12-.15.12Zm-3.9,0A23.56,23.56,0,0,1,64.07,230a21.62,21.62,0,0,1,2.33.72A9.92,9.92,0,0,0,68,227.13Z"/><path class="cls-2" d="M76.42,227.28c0,.77-.28,1.42-.88,1.42a.54.54,0,0,1-.52-.6.63.63,0,0,1,.33-.6,1.44,1.44,0,0,0,.73-1.45c0-.06.1-.09.12,0A3.72,3.72,0,0,1,76.42,227.28Zm1.41-1.49c0,4.3,0,7.25,0,8.22,0,.36-.2.52-.65.52s-.54-.11-.54-.42c0-.9.06-3.63.06-9.06a12,12,0,0,0-.06-1.52c1.53.17,1.53.17,1.53.35s-.1.2-.38.31Zm.77,1.84c-.3,0-.38-.16-.38-.71a2.26,2.26,0,0,0-.3-1.18.05.05,0,0,1,.06-.08c.74.42,1.09.89,1.09,1.42A.5.5,0,0,1,78.6,227.63ZM82.87,230h.84c.58-.76.72-.86.8-.86s.23.1.82.59c.26.23.36.34.36.42s0,.12-.16.12H82.87v3.35H84.2c.64-.76.78-.85.87-.85s.24.09.86.58c.29.25.38.34.38.42s0,.12-.15.12H79.51a8,8,0,0,0-1,.08l-.14-.45a5.59,5.59,0,0,0,1.07.1h2.24v-3.35H80.25a4.79,4.79,0,0,0-.77.08l-.13-.45a4.22,4.22,0,0,0,.87.1h1.46v-2.77H80.26a6.84,6.84,0,0,1-1.83,2.35s-.14-.06-.1-.11a11.35,11.35,0,0,0,1.2-3.08,11.14,11.14,0,0,0,.25-1.72c1.51.4,1.51.4,1.51.58s0,.15-.4.3a11.89,11.89,0,0,1-.5,1.4h1.29v-1.63a15.28,15.28,0,0,0-.07-1.72c1.55.15,1.69.29,1.69.42s-.14.23-.43.33V227h1.24c.52-.73.67-.83.75-.83s.23.1.78.58c.25.21.35.32.35.41s0,.12-.16.12h-3Z"/><path class="cls-2" d="M137.11,278.19a5,5,0,0,1-1.1,2A6.45,6.45,0,0,1,131.8,282c-.06,0-.09-.12,0-.13a6.83,6.83,0,0,0,3.1-1.78,4.83,4.83,0,0,0,1.09-1.89h-2.75a5.33,5.33,0,0,0-1,.09l-.14-.47a5.91,5.91,0,0,0,1.11.1H136a5.9,5.9,0,0,0,.17-1.43c1.25.13,1.51.21,1.51.4s-.1.19-.37.3c0,.25-.09.5-.15.73h3.06c.42-.46.52-.53.61-.53s.22.07.65.46c.19.17.26.25.26.35s0,.12-.32.32a7.39,7.39,0,0,1-.72,2.78,1.41,1.41,0,0,1-.65.52,2.24,2.24,0,0,1-.8.14c-.23,0-.3-.06-.35-.25-.09-.47-.27-.65-1.35-1-.06,0-.05-.18,0-.17.95.1,1.47.12,1.69.12a.68.68,0,0,0,.71-.45,9.36,9.36,0,0,0,.39-2.06h-3.26Zm-3-1.84c0,.34-.2.46-.64.46s-.48-.09-.48-.42,0-.94,0-2.81c0-.75,0-1.49-.06-2.25a8.88,8.88,0,0,1,1.29.6h5.54c.43-.47.52-.54.62-.54s.23.07.67.41c.21.16.28.24.28.34s-.05.18-.35.39v.63c0,1.63.06,2.77.06,3.14s-.23.51-.66.51-.5-.1-.5-.43v-.27h-5.8Zm2.31-2.51v-1.63h-2.31v1.63Zm-2.31,2h2.31v-1.71h-2.31Zm5.8-3.62h-2.39v1.63h2.39Zm0,1.91h-2.39v1.71h2.39Z"/><path class="cls-2" d="M147.11,274.88c0,.77-.28,1.42-.88,1.42a.55.55,0,0,1-.53-.6.64.64,0,0,1,.34-.6,1.43,1.43,0,0,0,.73-1.45c0-.06.1-.09.12,0A3.76,3.76,0,0,1,147.11,274.88Zm1.41-1.48c0,4.29,0,7.24,0,8.21,0,.36-.2.52-.65.52s-.54-.11-.54-.42c0-.9.06-3.63.06-9.06a12.13,12.13,0,0,0-.06-1.52c1.52.17,1.52.17,1.52.35s-.09.2-.37.31Zm.77,1.83c-.3,0-.38-.15-.38-.71a2.26,2.26,0,0,0-.3-1.18.05.05,0,0,1,.06-.08c.74.42,1.09.89,1.09,1.42A.5.5,0,0,1,149.29,275.23Zm4.27,2.39h.84c.58-.76.72-.85.8-.85s.23.09.82.58c.26.23.36.34.36.42s0,.12-.16.12h-2.66v3.35h1.33c.64-.76.78-.85.87-.85s.24.09.86.59c.29.24.38.33.38.42s0,.12-.15.12H150.2a8,8,0,0,0-1,.07l-.13-.45a5.52,5.52,0,0,0,1.07.1h2.24v-3.35h-1.44a4.8,4.8,0,0,0-.76.08l-.14-.45a4.38,4.38,0,0,0,.88.1h1.46v-2.77H151a6.84,6.84,0,0,1-1.83,2.35c-.05,0-.14-.06-.1-.11a11.33,11.33,0,0,0,1.19-3.08,10.07,10.07,0,0,0,.26-1.72c1.51.4,1.51.4,1.51.58s0,.15-.4.3a11.28,11.28,0,0,1-.5,1.4h1.29v-1.63a15.28,15.28,0,0,0-.07-1.72c1.55.15,1.69.29,1.69.42s-.14.23-.43.33v2.6h1.24c.52-.73.67-.83.75-.83s.23.1.78.58c.25.22.35.32.35.41s0,.12-.16.12h-3Z"/><path class="cls-5" d="M290.8,122.17c-.1,0-.22-.16-.14-.22,5.46-3.88,7.56-8.14,7.56-15.46a13,13,0,0,0-.1-1.68c2.62.24,2.9.3,2.9.68,0,.2-.09.28-.7.56,0,.62,0,1.22-.08,1.84a15.57,15.57,0,0,0,2.31,6.86,13.29,13.29,0,0,0,6.52,5.24c.1,0,.1.22,0,.24a1.82,1.82,0,0,0-1.32,1.44c-.12.34-.2.42-.38.42a2.63,2.63,0,0,1-1-.58,16.06,16.06,0,0,1-5-6.44,19.75,19.75,0,0,1-1.24-5.36C299.38,116.07,296.72,119.47,290.8,122.17Z"/><path class="cls-3" d="M176.27,71.17a28.06,28.06,0,0,1,9.56,1.43,13.52,13.52,0,0,1,6.09,4.1,10.07,10.07,0,0,1,2.13,6.51,10.31,10.31,0,0,1-1.15,5,9.42,9.42,0,0,1-3.05,3.36,10.46,10.46,0,0,1-4.09,1.64,9.59,9.59,0,0,1-4.24-.17,18,18,0,0,1,4.59.66A15.53,15.53,0,0,1,190.87,96a12.28,12.28,0,0,1,3.74,4.27,14,14,0,0,1,1.47,6.76,16.38,16.38,0,0,1-2.27,8.64,18.6,18.6,0,0,1-6.13,6.16,26.46,26.46,0,0,1-8.64,3.43,33.13,33.13,0,0,1-9.87.56,29.56,29.56,0,0,1-9.7-2.55l.14-.7a28,28,0,0,0,8.19-1,21.51,21.51,0,0,0,6.83-3.33,16.41,16.41,0,0,0,4.69-5.32,14.21,14.21,0,0,0,1.71-7,10.81,10.81,0,0,0-2-6.83,11.74,11.74,0,0,0-5-3.74,15.91,15.91,0,0,0-6-1.19l.14-.7a11.36,11.36,0,0,0,10.22-5.85,10,10,0,0,0,1.19-6.12,7.49,7.49,0,0,0-1.47-4.17,6.68,6.68,0,0,0-3.11-2.2,9.32,9.32,0,0,0-4-.42,6.86,6.86,0,0,0-6,3.67q-1.74,3.33-1.61,9.91h-.7l-4-12.11a20,20,0,0,1,7.21-3.61A35.56,35.56,0,0,1,176.27,71.17Z"/><path class="cls-3" d="M207,123.67l-.28-.49A44.82,44.82,0,0,0,218.45,118a18.81,18.81,0,0,0,6.19-6.51,22,22,0,0,0,2.45-8.23,97.67,97.67,0,0,0,.49-10.39q0-5.82-.28-9.7a14.26,14.26,0,0,0-1.36-5.81,3.89,3.89,0,0,0-3.68-1.92,4.68,4.68,0,0,0-3.92,1.71,10.15,10.15,0,0,0-1.82,4.45,34.35,34.35,0,0,0-.49,6,32.43,32.43,0,0,0,.46,6.23,8.39,8.39,0,0,0,1.26,3.32,4.28,4.28,0,0,0,4.76,1.72,9.9,9.9,0,0,0,2.27-1l.49.56a8.45,8.45,0,0,1-3.08,3.57,11.88,11.88,0,0,1-4.83,1.82,14.38,14.38,0,0,1-5.53-.25,13,13,0,0,1-5.14-2.52,12.87,12.87,0,0,1-3.75-5,17.67,17.67,0,0,1-1.26-7.7A18.35,18.35,0,0,1,204,79.78a15.57,15.57,0,0,1,6.65-6.16,25.31,25.31,0,0,1,11.41-2.38q10.29-.15,15.79,5.46t5.49,17.64a37.47,37.47,0,0,1-2.24,13.4,23.83,23.83,0,0,1-6.79,9.84A26.71,26.71,0,0,1,223,123.14,45,45,0,0,1,207,123.67Z"/><path class="cls-3" d="M285.26,69.63l.28.49a44.41,44.41,0,0,0-11.72,5.18,18.68,18.68,0,0,0-6.2,6.51A22.24,22.24,0,0,0,265.17,90a97.87,97.87,0,0,0-.49,10.4c0,3.87.1,7.1.28,9.69a13.86,13.86,0,0,0,1.4,5.81,3.9,3.9,0,0,0,3.64,1.93,4.64,4.64,0,0,0,3.92-1.72,10,10,0,0,0,1.82-4.48,39.36,39.36,0,0,0,0-12.14,8.91,8.91,0,0,0-1.23-3.33,4.11,4.11,0,0,0-1.82-1.5,4.31,4.31,0,0,0-2.94-.21,9.66,9.66,0,0,0-2.31,1l-.56-.56A8,8,0,0,1,270,91.29a12.38,12.38,0,0,1,4.86-1.78,14.37,14.37,0,0,1,5.53.24,13.32,13.32,0,0,1,5.15,2.52,13,13,0,0,1,3.74,5,17.39,17.39,0,0,1,1.26,7.74,18,18,0,0,1-2.34,8.54,15.66,15.66,0,0,1-6.65,6.12,26.19,26.19,0,0,1-11.38,2.42,25,25,0,0,1-11.62-2.35,15.77,15.77,0,0,1-7.21-7.59q-2.44-5.19-2.45-13.16a37.75,37.75,0,0,1,2.24-13.41A24,24,0,0,1,258,75.72a26.65,26.65,0,0,1,11.38-5.57A44.7,44.7,0,0,1,285.26,69.63Z"/><path class="cls-5" d="M131.36,35.41a12.52,12.52,0,0,1-1.86,1.28c-.06,0-.16-.11-.11-.18A17.18,17.18,0,0,0,132,33a8.89,8.89,0,0,0,.82-1.87c1.63.8,1.7.83,1.7,1s-.13.26-.6.32a10.93,10.93,0,0,1-1.39,1.81c.58.11.67.16.67.32s-.11.24-.43.38v6.66c0,.47-.27.67-.83.67-.37,0-.69-.12-.69-.56s.1-1.69.1-4.25Zm2.38-6.53a11.45,11.45,0,0,1-4,3.34c-.07,0-.18-.11-.12-.16a12.83,12.83,0,0,0,2.15-2.86,6.84,6.84,0,0,0,.7-1.66c1.27.46,1.94.81,1.94,1.05S134.22,28.86,133.74,28.88Zm5.89,11.44a9.06,9.06,0,0,0,2,.18,23.68,23.68,0,0,0,2.88-.18c.08,0,.07.16,0,.21a1.38,1.38,0,0,0-.72,1c-.06.35-.13.43-.27.45a3.54,3.54,0,0,1-.45,0c-2.34,0-3.58-.24-4.77-.95a5.63,5.63,0,0,1-2.33-2.94A8.49,8.49,0,0,1,133.07,42c-.06,0-.18-.11-.13-.17a11.33,11.33,0,0,0,2.16-7c0-.18,0-.47,0-.81,1.63.26,2,.34,2,.56s-.11.25-.43.37a14.66,14.66,0,0,1-.52,2.71,5.12,5.12,0,0,0,2.12,2.22V32.05h-2.48a6,6,0,0,0-1,.09l-.18-.59a4.49,4.49,0,0,0,1.07.13h3.56a18.12,18.12,0,0,0,1.1-2.82c.1-.38.19-.75.27-1.12,1.56.58,2,.82,2,1s-.15.26-.63.26a15.53,15.53,0,0,1-2.21,2.67h2c.71-.88.9-1,1-1s.32.13,1,.71c.3.25.43.4.43.51s-.05.16-.21.16h-4.37v3.58h1.47c.71-.84.9-1,1-1s.31.13,1,.69c.29.24.42.38.42.49s0,.16-.21.16h-3.67Zm-2.41-9.15c-.45,0-.52-.1-.71-1.23a4.83,4.83,0,0,0-.83-1.85c-.05-.06,0-.17.13-.14,1.55.62,2.35,1.34,2.35,2.15A1,1,0,0,1,137.22,31.17Z"/><path class="cls-5" d="M156.9,37.55a9.39,9.39,0,0,0,2.6,1.57,13.24,13.24,0,0,0,4.21.93c.08,0,.08.15,0,.18-.59.22-.73.35-1.16,1.33a.28.28,0,0,1-.24.17,2.81,2.81,0,0,1-.76-.24,11.49,11.49,0,0,1-2.81-1.55,9.81,9.81,0,0,1-2.05-2.11c.05,2,.09,3.55.09,4s-.25.61-.94.61c-.43,0-.62-.18-.62-.53s.07-1.93.11-3.34A11.65,11.65,0,0,1,149,41.8c-.08,0-.16-.12-.08-.15a13.38,13.38,0,0,0,5.33-4.1h-3.78a8.39,8.39,0,0,0-1.12.1l-.18-.59a6.79,6.79,0,0,0,1.24.13h4.88V35.7h-3.14a8.35,8.35,0,0,0-1.13.09l-.18-.59a6.18,6.18,0,0,0,1.26.13h3.19V33.87h-4a7.35,7.35,0,0,0-1.15.1l-.18-.59a7.08,7.08,0,0,0,1.28.12h2.63c-.21-.06-.32-.27-.45-.73a3.07,3.07,0,0,0-.8-1.38c-.07-.05,0-.14.09-.13,1.44.23,2.18.72,2.18,1.46a.8.8,0,0,1-.56.78h2.58a10.55,10.55,0,0,0,.67-1.37,7.77,7.77,0,0,0,.32-1c1.3.5,1.83.75,1.83.94s-.12.24-.71.28a8.87,8.87,0,0,1-1.57,1.16h2.66c.75-.83.94-1,1.06-1s.32.13,1,.68c.3.25.43.38.43.49s0,.16-.21.16h-5.71v1.46h2.5c.68-.77.88-.9,1-.9s.32.13.93.63c.27.22.4.37.4.48s0,.16-.21.16h-4.61v1.49h4c.82-.92,1-1,1.12-1s.3.12,1,.72c.32.25.45.41.45.52s-.05.16-.21.16Zm-3-8.82a5.29,5.29,0,0,0-.08-1.16c1.81.17,2,.3,2,.49s-.13.23-.52.4v2.28h1.33v-2a5.29,5.29,0,0,0-.08-1.16c1.83.19,2,.3,2,.49s-.11.23-.52.4v2.28h.65a15.83,15.83,0,0,0,.9-1.8,6.64,6.64,0,0,0,.35-1.07c1.41.59,1.91.85,1.91,1s-.12.29-.74.3a10.13,10.13,0,0,1-1.92,1.53H161c.72-.8.91-.93,1-.93s.32.13,1,.64c.3.25.43.38.43.49s-.05.16-.21.16H150.41a9.52,9.52,0,0,0-1.18.1l-.18-.59a7.51,7.51,0,0,0,1.32.13h3.53Zm-1.71,1.72c-.37,0-.51-.15-.67-.63a3.13,3.13,0,0,0-.87-1.57c-.06,0,0-.16.08-.14,1.51.26,2.29.78,2.29,1.54A.83.83,0,0,1,152.19,30.45Z"/><path class="cls-5" d="M173.76,40.76a14.72,14.72,0,0,1-5.25,1.4c-.08,0-.13-.16,0-.19a16.94,16.94,0,0,0,3.19-1.6,4.26,4.26,0,0,0,1.08-1c1.44.69,1.88,1,1.88,1.12S174.43,40.79,173.76,40.76Zm-2-1.72c0,.45-.27.66-.89.66s-.71-.16-.71-.53c0-.64.08-1.49.08-4.08,0-1,0-2.18-.08-3.2a12.91,12.91,0,0,1,1.76.85h7.22c.56-.6.69-.69.82-.69s.3.09.93.54c.28.23.38.34.38.47s-.11.25-.48.49v1c0,2.26.06,3.91.06,4.42s-.27.64-.89.64-.68-.15-.68-.56V39h-7.52Zm.75-7.66c0,.44-.3.59-.86.59-.37,0-.66-.1-.66-.45s0-1,0-2c0-.7,0-1-.05-1.68a15.47,15.47,0,0,1,1.73.82h5.76c.58-.63.71-.72.83-.72s.29.09.9.57c.27.23.37.34.37.47s-.08.2-.47.43v.3c0,.77.05,1.36.05,1.59,0,.43-.3.61-.89.61s-.68-.16-.68-.56Zm6.77,1.72h-7.52v1.57h7.52Zm-7.52,3.53h7.52V35h-7.52Zm0,2h7.52V37h-7.52Zm6.8-9.59h-6v2h6ZM181,42.28c-.32,0-.48-.1-.88-.5a8,8,0,0,0-3.39-2c-.08,0,0-.17.06-.17,3.56.14,5,.72,5,1.82A.76.76,0,0,1,181,42.28Z"/><path class="cls-5" d="M192,32.8c0,.34,0,1,0,1.36s-.25.61-.81.61-.61-.1-.61-.58a12.83,12.83,0,0,1,.11-1.44,8,8,0,0,1-3.54,2.63c-.08,0-.16-.11-.09-.16a10.24,10.24,0,0,0,2.83-3.44h-1.18a7.7,7.7,0,0,0-1.09.09l-.18-.59a5.7,5.7,0,0,0,1.22.13h2v-2.1a13.85,13.85,0,0,0-.08-1.52c1.54.14,1.9.24,1.9.46s-.09.23-.46.39v2.77h1.42c.47-.69.66-.82.77-.82s.32.13.88.58c.24.19.37.33.37.45s0,.16-.21.16H192v.57c1.52.27,2.24.74,2.24,1.48a.62.62,0,0,1-.62.65c-.29,0-.47-.14-.76-.64a3.13,3.13,0,0,0-.86-1.15Zm1.94,4a9.37,9.37,0,0,1-1.11,2.4c.69.35,1.06.76,1.06,1.2a.69.69,0,0,1-.67.72c-.4,0-.45,0-1.2-.94a8,8,0,0,1-4.52,2c-.08,0-.13-.18,0-.21a8.08,8.08,0,0,0,3.78-2.6,9.28,9.28,0,0,0-1.17-.7l-.35.59a.67.67,0,0,1-.7.4c-.4,0-.71-.17-.71-.4a.87.87,0,0,1,.15-.4,18.16,18.16,0,0,0,1.12-2.08h-.92a6.44,6.44,0,0,0-1.07.1l-.17-.59a6.24,6.24,0,0,0,1.21.12h1.11l.08-.17a6.93,6.93,0,0,0,.45-1.39c1.61.3,1.66.32,1.66.54s-.11.24-.5.37c-.09.22-.19.45-.28.65h2.22c.58-.67.77-.8.88-.8s.31.13.8.56c.21.2.34.34.34.45s-.05.16-.21.16ZM189.33,31c-.42,0-.5-.11-.66-1a2.72,2.72,0,0,0-.61-1.36c-.05-.07,0-.13.08-.12,1.19.31,1.87.93,1.87,1.73A.69.69,0,0,1,189.33,31Zm.83,7.48a11.34,11.34,0,0,1,1.47.31,7.09,7.09,0,0,0,.8-2h-1.5Zm4.19-9a8.58,8.58,0,0,1-1.92,1.67c-.06,0-.18,0-.13-.1a9.33,9.33,0,0,0,.75-1.6,5.26,5.26,0,0,0,.34-1.09c1.11.42,1.54.67,1.54.88S194.85,29.39,194.35,29.39Zm6.31,2.4a14.43,14.43,0,0,1-2,6.21,9.41,9.41,0,0,0,3.79,2.39c.08,0,.06.14,0,.17-.43.18-.54.37-.72,1.16-.11.4-.14.44-.32.44a2.31,2.31,0,0,1-.8-.43A11.88,11.88,0,0,1,197.9,39a10.55,10.55,0,0,1-4.85,3.21c-.08,0-.17-.14-.11-.19a13.09,13.09,0,0,0,4.29-4.13,15.84,15.84,0,0,1-1.36-4.3,10,10,0,0,1-1.5,1.69c-.07,0-.21,0-.16-.11a18.12,18.12,0,0,0,2-5.34,11.79,11.79,0,0,0,.27-2.17c1.79.4,2.1.5,2.1.74s-.15.29-.64.4a19.08,19.08,0,0,1-.88,2.59h2.75c.71-.86.9-1,1-1s.3.13,1,.69c.28.26.41.4.41.51s-.05.16-.21.16Zm-3.73,0a12.74,12.74,0,0,1-.82,1.49A11.4,11.4,0,0,0,197.78,37a15.4,15.4,0,0,0,1.36-5.16Z"/><path class="cls-8" d="M35.41,78a4.74,4.74,0,1,1,4.73-4.74A4.74,4.74,0,0,1,35.41,78Z"/><path class="cls-8" d="M29.58,79.36H42a5.32,5.32,0,0,1,4.79,4.79v15.91a2.08,2.08,0,1,1-4.15,0V87h-1V122.5a2.73,2.73,0,0,1-5.46,0V101.88h-.88V122.5a2.73,2.73,0,1,1-5.46,0V87h-1v13.08a2.08,2.08,0,1,1-4.15,0V84.15A5.32,5.32,0,0,1,29.58,79.36Z"/><path class="cls-8" d="M68.89,78a4.74,4.74,0,1,1,4.73-4.74A4.74,4.74,0,0,1,68.89,78Z"/><path class="cls-8" d="M63.06,79.36H75.5a5.32,5.32,0,0,1,4.79,4.79v15.91a2.08,2.08,0,0,1-4.16,0V87h-.95V122.5a2.73,2.73,0,1,1-5.46,0V101.88h-.88V122.5a2.73,2.73,0,0,1-5.46,0V87h-1v13.08a2.08,2.08,0,1,1-4.15,0V84.15A5.31,5.31,0,0,1,63.06,79.36Z"/><path class="cls-8" d="M102.36,78a4.74,4.74,0,1,1,4.74-4.74A4.74,4.74,0,0,1,102.36,78Z"/><path class="cls-8" d="M96.53,79.36H109a5.32,5.32,0,0,1,4.79,4.79v15.91a2.08,2.08,0,0,1-4.16,0V87h-1V122.5a2.73,2.73,0,1,1-5.46,0V101.88h-.89V122.5a2.73,2.73,0,1,1-5.45,0V87h-1v13.08a2.08,2.08,0,0,1-4.16,0V84.15A5.32,5.32,0,0,1,96.53,79.36Z"/><path class="cls-8" d="M135.84,78a4.74,4.74,0,1,1,4.74-4.74A4.74,4.74,0,0,1,135.84,78Z"/><path class="cls-8" d="M130,79.36h12.44a5.31,5.31,0,0,1,4.79,4.79v15.91a2.08,2.08,0,1,1-4.15,0V87h-1V122.5a2.73,2.73,0,1,1-5.46,0V101.88h-.88V122.5a2.73,2.73,0,0,1-5.46,0V87h-1v13.08a2.08,2.08,0,0,1-4.16,0V84.15A5.32,5.32,0,0,1,130,79.36Z"/><g class="cls-9"><rect class="cls-5" x="12.51" y="61.96" width="108.08" height="69.86"/><rect class="cls-5" x="121.92" y="71.71" width="41.52" height="62.08"/></g><path class="cls-5" d="M294.44,257.26c-.07,0-.15-.11-.1-.15,3.83-2.72,5.3-5.71,5.3-10.83a8.43,8.43,0,0,0-.07-1.18c1.83.17,2,.21,2,.48s-.07.19-.49.39c0,.43,0,.85-.06,1.29a11,11,0,0,0,1.62,4.8,9.21,9.21,0,0,0,4.56,3.67c.07,0,.07.16,0,.17a1.26,1.26,0,0,0-.92,1c-.09.24-.14.29-.27.29a1.9,1.9,0,0,1-.73-.4,11.24,11.24,0,0,1-3.47-4.51,13.51,13.51,0,0,1-.87-3.76C300.45,253,298.59,255.37,294.44,257.26Z"/><path class="cls-3" d="M219.84,239l-2.67-7.2a9.81,9.81,0,0,1,2.9-1.72,18.64,18.64,0,0,1,3.67-1,21.88,21.88,0,0,1,3.91-.36,16.37,16.37,0,0,1,5.84,1,9.46,9.46,0,0,1,4.1,2.8,6.7,6.7,0,0,1,1.5,4.42,8.06,8.06,0,0,1-.83,3.6,12.89,12.89,0,0,1-2.13,3.12,25.17,25.17,0,0,1-2.89,2.66c-1,.81-2.06,1.54-3.07,2.2l-2.72,1.74h7.6a5.14,5.14,0,0,0,2.17-.46,5.71,5.71,0,0,0,1.81-1.38,10.43,10.43,0,0,0,1.5-2.36h.4l-2.72,11.24H217.4v-.4q1.72-2.13,3.55-4.24c1.21-1.42,2.38-2.82,3.52-4.22s2.15-2.8,3.06-4.18a23.69,23.69,0,0,0,2.16-4.12,11.09,11.09,0,0,0,.8-4,5.73,5.73,0,0,0-1.38-4.08,4.31,4.31,0,0,0-3.75-1.28,4.67,4.67,0,0,0-3.81,2.3,11.45,11.45,0,0,0-1.31,6Z"/><path class="cls-3" d="M246.92,258.74l-.16-.28a25.48,25.48,0,0,0,6.7-3,10.7,10.7,0,0,0,3.54-3.72,12.52,12.52,0,0,0,1.4-4.7,55.61,55.61,0,0,0,.28-5.94c0-2.22-.05-4.06-.16-5.54a8,8,0,0,0-.78-3.32,2.19,2.19,0,0,0-2.1-1.1,2.66,2.66,0,0,0-2.24,1,5.83,5.83,0,0,0-1,2.54,19.9,19.9,0,0,0-.28,3.4,19.2,19.2,0,0,0,.26,3.56,5.16,5.16,0,0,0,.72,1.9,2.61,2.61,0,0,0,1,.86,2.54,2.54,0,0,0,1.7.12,5.69,5.69,0,0,0,1.3-.56l.28.32a4.85,4.85,0,0,1-1.76,2,6.81,6.81,0,0,1-2.76,1,8.24,8.24,0,0,1-3.16-.14,7.76,7.76,0,0,1-2.94-1.44,7.51,7.51,0,0,1-2.14-2.86,10.14,10.14,0,0,1-.72-4.4,10.54,10.54,0,0,1,1.32-4.88,8.92,8.92,0,0,1,3.8-3.52,14.43,14.43,0,0,1,6.52-1.36q5.88-.09,9,3.12T267.68,242a21.4,21.4,0,0,1-1.28,7.66,13.63,13.63,0,0,1-3.88,5.62,15.28,15.28,0,0,1-6.48,3.18A26,26,0,0,1,246.92,258.74Z"/><path class="cls-3" d="M270.76,257.22l0-.4h.84a2.13,2.13,0,0,0,1.56-.64,2.08,2.08,0,0,0,.64-1.52V234.38a2.7,2.7,0,0,0-.72-2.16,2.9,2.9,0,0,0-1.92-.6h-.72v-.4c.56,0,1.32-.1,2.26-.22s2-.28,3.06-.48a30.77,30.77,0,0,0,3.18-.76,12.15,12.15,0,0,0,2.62-1.1h.4v26a2,2,0,0,0,.66,1.5,2.2,2.2,0,0,0,1.54.62H285v.4Z"/><polygon class="cls-5" points="264.14 215.52 266.85 191.21 221.43 191.21 218.73 215.52 264.14 215.52"/><path class="cls-2" d="M235.8,205.6a4.71,4.71,0,0,1-1.05,1.89,6.11,6.11,0,0,1-4,1.68c-.06,0-.08-.12,0-.13a6.44,6.44,0,0,0,2.94-1.69,4.51,4.51,0,0,0,1-1.8H232.1a5.9,5.9,0,0,0-.95.09l-.12-.44a5.92,5.92,0,0,0,1,.09h2.71a5.9,5.9,0,0,0,.15-1.36c1.19.13,1.44.2,1.44.38s-.09.18-.35.29c0,.23-.08.47-.14.69h2.91c.4-.43.49-.5.58-.5s.2.07.61.43c.19.16.26.24.26.33s0,.12-.31.31a7.06,7.06,0,0,1-.69,2.64,1.44,1.44,0,0,1-.61.5,2.07,2.07,0,0,1-.77.13c-.21,0-.28-.06-.33-.24-.09-.44-.26-.61-1.28-.9-.06,0-.05-.17,0-.16.9.09,1.4.12,1.6.12a.67.67,0,0,0,.68-.44,8.69,8.69,0,0,0,.37-2h-3.1ZM233,203.84c0,.33-.19.45-.61.45s-.46-.09-.46-.4,0-.9,0-2.68c0-.71,0-1.41-.06-2.13a8,8,0,0,1,1.22.57h5.26c.41-.45.51-.51.6-.51s.21.06.64.38c.19.15.26.23.26.32s0,.17-.33.38v.59c0,1.55,0,2.63,0,3s-.21.49-.62.49-.48-.1-.48-.41v-.26H233Zm2.19-2.38v-1.55H233v1.55ZM233,203.35h2.19v-1.63H233Zm5.51-3.44H236.2v1.55h2.27Zm0,1.81H236.2v1.63h2.27Z"/><path class="cls-2" d="M245.29,202.45c0,.73-.26,1.35-.83,1.35a.52.52,0,0,1-.5-.57.62.62,0,0,1,.32-.57,1.38,1.38,0,0,0,.69-1.38.06.06,0,0,1,.12,0A3.5,3.5,0,0,1,245.29,202.45Zm1.35-1.41c0,4.08,0,6.88,0,7.81,0,.34-.19.49-.61.49s-.52-.11-.52-.4c0-.86.06-3.44.06-8.61a11.09,11.09,0,0,0-.06-1.45c1.45.16,1.45.16,1.45.33s-.09.2-.35.3Zm.73,1.74c-.29,0-.37-.15-.37-.67a2.19,2.19,0,0,0-.28-1.13s0-.09.06-.07c.7.4,1,.85,1,1.35A.47.47,0,0,1,247.37,202.78Zm4.06,2.27h.79c.55-.72.69-.81.77-.81s.21.09.77.56c.25.22.34.32.34.4s0,.11-.14.11h-2.53v3.18h1.26c.61-.71.74-.81.82-.81s.23.1.82.56c.28.23.37.32.37.4s0,.12-.15.12h-6.32a8.93,8.93,0,0,0-.95.06l-.13-.42a5.71,5.71,0,0,0,1,.09h2.13v-3.18h-1.37a5.54,5.54,0,0,0-.73.07l-.13-.42a4,4,0,0,0,.84.09h1.39v-2.63h-1.36a6.37,6.37,0,0,1-1.73,2.23c-.05,0-.14-.05-.1-.1a10.7,10.7,0,0,0,1.14-2.93,11.24,11.24,0,0,0,.24-1.63c1.43.38,1.43.38,1.43.55s0,.15-.37.28a12.83,12.83,0,0,1-.48,1.34h1.23v-1.55a16,16,0,0,0-.07-1.63c1.47.13,1.61.27,1.61.39s-.14.22-.41.31v2.48h1.17c.5-.7.64-.79.72-.79s.21.09.74.55c.24.2.33.3.33.38s0,.12-.15.12h-2.81Z"/><path class="cls-5" d="M307.86,211a6.42,6.42,0,0,0-.68-1.67,7,7,0,0,0-1.91-2.08,11,11,0,0,0-1.75-1c-.9-.42-1.82-.74-2.67-1.06a13.49,13.49,0,0,1-2.23-1,5.68,5.68,0,0,1-.6-.4,3,3,0,0,1-.6-.7,2.43,2.43,0,0,1-.28-.91c0-.25,0-.5,0-.73a8.55,8.55,0,0,1,.23-1.87,8.23,8.23,0,0,0,1.06-1.55,18.72,18.72,0,0,0,1-2.19,3.84,3.84,0,0,0,.59-.33,4.35,4.35,0,0,0,1.24-1.28,6.7,6.7,0,0,0,.83-2.12,2.92,2.92,0,0,0,.08-.71,3.13,3.13,0,0,0-.31-1.37,3.47,3.47,0,0,0-.5-.8c.1-.37.22-.88.33-1.47a15.87,15.87,0,0,0,.28-2.84,10.13,10.13,0,0,0-.19-2,7.31,7.31,0,0,0-.46-1.51,5.58,5.58,0,0,0-1.42-2,5.82,5.82,0,0,0-2.24-1.22,8.51,8.51,0,0,0-1.17-1.16,6.42,6.42,0,0,0-2.14-1.13,7.6,7.6,0,0,0-2.21-.3,11.46,11.46,0,0,0-1.17.06c-.37,0-.67.07-.94.11a7,7,0,0,0-1.07.27l-1.05.41c-.15.06-.36.15-.6.27a11.13,11.13,0,0,0-1.58,1,10.2,10.2,0,0,0-2.64,2.88,9,9,0,0,0-.94,2.15,9.6,9.6,0,0,0-.37,2.66,11.87,11.87,0,0,0,.17,1.91v.13a2.46,2.46,0,0,1,0,.26c0,.14,0,.28.05.39s0,.11,0,.15v.05h0v.07l.16.73a3.91,3.91,0,0,0-.6.86,3.27,3.27,0,0,0-.35,1.46,3.51,3.51,0,0,0,.08.71,7.86,7.86,0,0,0,.5,1.51,4.71,4.71,0,0,0,1.13,1.55,4.32,4.32,0,0,0,1,.68,17.7,17.7,0,0,0,.95,2.18,8.23,8.23,0,0,0,1.06,1.55,8.55,8.55,0,0,1,.23,1.87,6.18,6.18,0,0,1,0,.73,2.55,2.55,0,0,1-.16.66,2.4,2.4,0,0,1-.52.76,4.17,4.17,0,0,1-.88.64,10.72,10.72,0,0,1-1.22.58c-.78.31-1.68.61-2.59,1a14.45,14.45,0,0,0-2,1,8.47,8.47,0,0,0-1.4,1,6.48,6.48,0,0,0-1.61,2.27,8.44,8.44,0,0,0-.6,3.31,1.25,1.25,0,0,0,.1.51,2.13,2.13,0,0,0,.23.42,3,3,0,0,0,.7.68,8.46,8.46,0,0,0,2,1,25,25,0,0,0,5.24,1.24,60,60,0,0,0,8.24.51,63.29,63.29,0,0,0,7.33-.39,36,36,0,0,0,4-.7,17,17,0,0,0,2.19-.67,9.74,9.74,0,0,0,1.24-.55,5.12,5.12,0,0,0,.71-.44,3.1,3.1,0,0,0,.76-.72,1.63,1.63,0,0,0,.23-.43,1.34,1.34,0,0,0,.1-.49A9.05,9.05,0,0,0,307.86,211Zm-17.67.62-4.86-6.22a7,7,0,0,0,.72-.49,4.5,4.5,0,0,0,.66-.65l3.54,1.64-.76,1.26,1.17,1.24Zm-3-8.19a3.88,3.88,0,0,0,.28-1.09c0-.31,0-.6,0-.88a10.53,10.53,0,0,0-.29-2.34l0-.19-.14-.14a6.4,6.4,0,0,1-1-1.4,15.82,15.82,0,0,1-1-2.29l-.11-.3-.3-.11a2.92,2.92,0,0,1-.61-.31,2.85,2.85,0,0,1-.84-.88,5.25,5.25,0,0,1-.66-1.69,1.91,1.91,0,0,1,.16-1.24,2.32,2.32,0,0,1,.46-.63,9.33,9.33,0,0,0,.67,1c.31.31.21.21.32.06,0,0,.35-.5,2.21-4.11,3.72.82,10.21-4.76,10.21-4.76a6.9,6.9,0,0,0,1.32,3.46c1.18,1.56,1.85,5.24,1.85,5.24s.16-.3.4-.71a2.22,2.22,0,0,1,.34.54,1.79,1.79,0,0,1,.18.79,1.87,1.87,0,0,1,0,.4,6,6,0,0,1-.41,1.24,3.43,3.43,0,0,1-.79,1.1,2.77,2.77,0,0,1-.91.54l-.3.11-.11.3a16.58,16.58,0,0,1-1,2.29,6.76,6.76,0,0,1-1,1.4l-.13.14-.05.19a11.15,11.15,0,0,0-.29,2.34,8.71,8.71,0,0,0,0,.87,4,4,0,0,0,.24,1,.05.05,0,0,1,0,0l-4.18,2.2Zm6.2,8.41-.5-3.44,1.17-1.24-.76-1.27,3.2-1.68a3,3,0,0,0,.28.33,5.53,5.53,0,0,0,1.08.83Z"/><path class="cls-5" d="M294.44,356c-.07,0-.15-.11-.1-.15,3.83-2.72,5.3-5.7,5.3-10.83a8.52,8.52,0,0,0-.07-1.18c1.83.17,2,.21,2,.48s-.07.19-.49.39c0,.44,0,.86-.06,1.29a10.94,10.94,0,0,0,1.62,4.8,9.21,9.21,0,0,0,4.56,3.67c.07,0,.07.16,0,.17a1.26,1.26,0,0,0-.92,1c-.09.24-.14.29-.27.29a1.9,1.9,0,0,1-.73-.4,11.24,11.24,0,0,1-3.47-4.51,13.51,13.51,0,0,1-.87-3.76C300.45,351.68,298.59,354.06,294.44,356Z"/><path class="cls-3" d="M220.64,355.91l0-.4h.84a2.16,2.16,0,0,0,1.56-.64,2.06,2.06,0,0,0,.64-1.52V333.07a2.7,2.7,0,0,0-.72-2.16,2.9,2.9,0,0,0-1.92-.6h-.72v-.4c.56,0,1.31-.1,2.26-.22s2-.28,3.06-.48a32.06,32.06,0,0,0,3.18-.76,11.67,11.67,0,0,0,2.62-1.1h.4v26a2,2,0,0,0,.66,1.5,2.19,2.19,0,0,0,1.54.62h.84v.4Z"/><path class="cls-3" d="M249.92,327.35a11.9,11.9,0,0,1,6.68,1.82,11.75,11.75,0,0,1,4.24,5.08,20.51,20.51,0,0,1,0,15.3,11.74,11.74,0,0,1-4.24,5.1,13.13,13.13,0,0,1-13.34,0,11.72,11.72,0,0,1-4.26-5.1,20.51,20.51,0,0,1,0-15.3,11.72,11.72,0,0,1,4.26-5.08A11.9,11.9,0,0,1,249.92,327.35Zm0,2q-2.08,0-3,3.06a47.49,47.49,0,0,0,0,19q1,3.06,3,3.06t3-3.06a47.49,47.49,0,0,0,0-19Q252,329.35,249.92,329.35Z"/><path class="cls-3" d="M282.84,334.63l-12.28,1L269.8,339a19.24,19.24,0,0,1,6.8-.56,11.26,11.26,0,0,1,5,1.7,8.19,8.19,0,0,1,3,3.42,9.79,9.79,0,0,1,.84,4.64,9.39,9.39,0,0,1-1.64,5.12,11.41,11.41,0,0,1-3.9,3.46,17.3,17.3,0,0,1-5.18,1.8,18.1,18.1,0,0,1-5.54.14,15,15,0,0,1-5-1.52l.08-.4a14.12,14.12,0,0,0,2.56-.2,20,20,0,0,0,3.18-.8,15.1,15.1,0,0,0,3.14-1.5,8.83,8.83,0,0,0,2.44-2.26,5.85,5.85,0,0,0,1.08-3.12,4.22,4.22,0,0,0-1.24-3.58,5.89,5.89,0,0,0-3.82-1.44,12.55,12.55,0,0,0-5.46,1.1l-.36-.24L269,329.35l11.92-1a3.21,3.21,0,0,0,2-.56,4.13,4.13,0,0,0,1.16-1.44h.4Z"/><polygon class="cls-3" points="264.14 314.21 266.85 289.91 221.43 289.91 218.73 314.21 264.14 314.21"/><path class="cls-5" d="M306.93,307.38a8.2,8.2,0,0,0-4.08-2.95,21.52,21.52,0,0,0-2.1-.66c-.64-.17-1.19-.32-1.56-.46a8,8,0,0,1-1.81-.89,2.15,2.15,0,0,1-.53-.49.56.56,0,0,1-.14-.34v-2.43a9.84,9.84,0,0,0,2.51-4.63,4.29,4.29,0,0,0,.51-.28,3.42,3.42,0,0,0,1-1.24,10.92,10.92,0,0,0,.83-2.25,4.79,4.79,0,0,0,.21-1.3,2.33,2.33,0,0,0-.26-1.13,1.81,1.81,0,0,0-.86-.8c1.36-7.33-2.93-12.91-8.62-12.63-5.21-1.15-8.54-.86-9,3.77a5.11,5.11,0,0,0,.11,3.76,10.53,10.53,0,0,0-.42,2.85v2.17a1.77,1.77,0,0,0-1.08.88,2.33,2.33,0,0,0-.26,1.13,4.79,4.79,0,0,0,.21,1.3,9.08,9.08,0,0,0,1.14,2.75,3,3,0,0,0,.73.74,4.29,4.29,0,0,0,.51.28,9.84,9.84,0,0,0,2.51,4.63v2.43a.6.6,0,0,1-.15.35,3.23,3.23,0,0,1-1,.76,10.16,10.16,0,0,1-1.36.61c-.5.18-1.32.36-2.24.63a11.3,11.3,0,0,0-4.32,2.1,6.38,6.38,0,0,0-1.65,2.17,7.41,7.41,0,0,0-.64,3.16c0,.29,0,.58,0,.89a1.08,1.08,0,0,0,.19.53,2.49,2.49,0,0,0,.73.67,10.65,10.65,0,0,0,2.2,1,41.43,41.43,0,0,0,13.24,1.92A44.69,44.69,0,0,0,303.1,315a17.64,17.64,0,0,0,3.36-1.22,5.09,5.09,0,0,0,1-.65,1.78,1.78,0,0,0,.34-.38,1.08,1.08,0,0,0,.19-.53c0-.3,0-.6,0-.88A7.06,7.06,0,0,0,306.93,307.38Zm-20.36-3.89a3.73,3.73,0,0,0,.85-.78,1.89,1.89,0,0,0,.41-1.12v-2.92l-.17-.18a8.71,8.71,0,0,1-2.45-4.54l-.06-.36-.35-.13a2.47,2.47,0,0,1-.54-.26,2,2,0,0,1-.64-.79,11,11,0,0,1-.74-2,3.93,3.93,0,0,1-.16-1,1.28,1.28,0,0,1,.11-.53.53.53,0,0,1,.3-.26,1.1,1.1,0,0,1,.27-.05l.66,0v-3.38a9.8,9.8,0,0,1,.08-1.08c1.48,2.1,4.27,4.09,8.95,4.89a47.76,47.76,0,0,1-1.74-6.22s3.13,4.56,7.85,5v.75l.66,0a.92.92,0,0,1,.38.11.46.46,0,0,1,.19.2,1.13,1.13,0,0,1,.11.53,3.85,3.85,0,0,1-.16,1,7.91,7.91,0,0,1-1,2.35,1.57,1.57,0,0,1-.42.43,2.47,2.47,0,0,1-.54.26l-.35.13-.06.36a8.64,8.64,0,0,1-2.45,4.54l-.17.18v2.92a1.88,1.88,0,0,0,.39,1.1,4.23,4.23,0,0,0,1.32,1.08,7.54,7.54,0,0,0,.75.38l-2.45,2.45a8.16,8.16,0,0,1-7.45,0l-2.52-2.51A7.94,7.94,0,0,0,286.57,303.49Z"/><path class="cls-5" d="M283.05,294s.72,8.15-2.29,10.59c0,0,8.86-1.1,6.22-5.57L284.41,294l-1.54-1.09Z"/><path class="cls-5" d="M300.19,294s-.71,8.15,2.29,10.59c0,0-8.86-1.1-6.22-5.57l2.57-5.05,1.54-1.09Z"/><path class="cls-2" d="M238.49,301a9.66,9.66,0,0,1-1.73,3.85c1.86.77,3,1.61,3,2.31,0,.47-.19.74-.52.74s-.37-.09-.64-.35a16.89,16.89,0,0,0-2.38-2,9,9,0,0,1-5.67,2.37s-.09-.17,0-.18a9.75,9.75,0,0,0,4.86-2.74,20.1,20.1,0,0,0-1.91-1c-.09.17-.19.35-.28.49s-.26.29-.47.29c-.42,0-.7-.13-.7-.32a1.15,1.15,0,0,1,.18-.42,20.9,20.9,0,0,0,1.49-3h-1.88c-.33,0-.67,0-1.1.06l-.12-.42a7.9,7.9,0,0,0,1.2.09h2c.08-.21.16-.42.23-.62a11,11,0,0,0,.61-2.47c1.36.28,1.48.34,1.48.51s-.09.2-.43.32c-.25.81-.5,1.57-.75,2.26H239c.59-.73.72-.82.8-.82s.23.09.8.57c.25.22.34.32.34.4s0,.12-.14.12Zm-3.7,0a25.3,25.3,0,0,1-1.22,2.77,21.65,21.65,0,0,1,2.21.68,9.35,9.35,0,0,0,1.51-3.45Z"/><path class="cls-2" d="M245.29,301.14c0,.73-.26,1.35-.83,1.35a.52.52,0,0,1-.5-.57.62.62,0,0,1,.32-.57A1.37,1.37,0,0,0,245,300a.06.06,0,0,1,.12,0A3.54,3.54,0,0,1,245.29,301.14Zm1.35-1.41c0,4.08,0,6.89,0,7.81,0,.34-.19.49-.61.49s-.52-.1-.52-.4c0-.85.06-3.44.06-8.61a10.92,10.92,0,0,0-.06-1.44c1.45.16,1.45.16,1.45.33s-.09.19-.35.29Zm.73,1.74c-.29,0-.37-.14-.37-.67a2.19,2.19,0,0,0-.28-1.13s0-.09.06-.06c.7.39,1,.84,1,1.34A.47.47,0,0,1,247.37,301.47Zm4.06,2.27h.79c.55-.71.69-.81.77-.81s.21.1.77.56c.25.22.34.32.34.4s0,.12-.14.12h-2.53v3.18h1.26c.61-.72.74-.81.82-.81s.23.09.82.55c.28.23.37.32.37.4s0,.12-.15.12h-6.32a7.08,7.08,0,0,0-.95.07l-.13-.43a5.82,5.82,0,0,0,1,.1h2.13V304h-1.37a5.34,5.34,0,0,0-.73.06l-.13-.42a4,4,0,0,0,.84.09h1.39v-2.63h-1.36a6.37,6.37,0,0,1-1.73,2.23c-.05,0-.14,0-.1-.1a10.7,10.7,0,0,0,1.14-2.93,11,11,0,0,0,.24-1.63c1.43.38,1.43.38,1.43.55s0,.15-.37.28a12.06,12.06,0,0,1-.48,1.34h1.23V299.3a16,16,0,0,0-.07-1.63c1.47.13,1.61.27,1.61.4s-.14.21-.41.3v2.48h1.17c.5-.7.64-.79.72-.79s.21.09.74.55c.24.2.33.31.33.39s0,.11-.15.11h-2.81Z"/><path class="cls-5" d="M133.93,420.89h4.29c1-1.32,1.26-1.46,1.39-1.46s.36.14,1.42,1c.48.39.63.55.63.68s-.06.18-.24.18h-7.49v.23c0,3.43.08,4.88.08,6.31,0,.57-.36.79-1.14.79-.57,0-.79-.18-.79-.7s.09-3.41.09-6.38v-.25H127a16.7,16.7,0,0,0-1.73.11l-.2-.67a12.75,12.75,0,0,0,1.91.15h5.24v-7.1h-4.43a15.66,15.66,0,0,0-1.66.11l-.19-.67a11.93,11.93,0,0,0,1.85.15h10c.93-1.12,1.15-1.26,1.27-1.26s.36.14,1.34.88c.43.34.57.49.57.61s-.05.18-.23.18h-6.74Zm-4.55-1.12c-.54,0-.69-.23-.85-1.31a8.41,8.41,0,0,0-1.29-3.53c-.06-.08.07-.18.14-.15,2,1.14,3,2.41,3,3.68C130.42,419.21,130,419.77,129.38,419.77ZM139,416.1a12.38,12.38,0,0,1-4,4.19c-.08.06-.24-.11-.18-.18a15.62,15.62,0,0,0,2.17-3.94,11.13,11.13,0,0,0,.53-1.73c1.58.67,2.19,1,2.19,1.28S139.53,416,139,416.1Z"/><path class="cls-5" d="M152.85,417.66a21.82,21.82,0,0,0,1.3-3.17,9.44,9.44,0,0,0,.43-2.25c2,.47,2.47.62,2.47.9s-.17.35-.69.44a16.52,16.52,0,0,1-1.08,2.19h5.22c.69-.83.83-.93,1-.93s.32.1,1,.75c.33.29.43.43.43.58s-.05.18-.55.56c-.09,5.33-.29,7.68-.83,9.65a3.13,3.13,0,0,1-.92,1.55,2.47,2.47,0,0,1-1.64.59c-.38,0-.41,0-.52-.5s-.63-1-2-1.39c-.09,0-.09-.29,0-.27,1.37.14,1.8.16,2.07.16.82,0,1,0,1.19-.34.6-1.15.87-3.71,1-10H155a12.53,12.53,0,0,1-3.22,3.62c-.07.05-.24-.06-.18-.13a14,14,0,0,0,1.19-1.95.28.28,0,0,1-.2.06h-2v4.93c.83-.27,1.64-.56,2.3-.83.09,0,.18.13.11.18a25.89,25.89,0,0,1-5,3.15c0,.58-.13.78-.38.78s-.63-.63-1.19-2.18a12.86,12.86,0,0,0,1.53-.32l1-.27v-5.44h-1.17a3.83,3.83,0,0,0-.88.11l-.2-.67a3.76,3.76,0,0,0,1,.14H149v-2.84c0-.87,0-1.57-.09-2.18,2.16.2,2.38.4,2.38.6s-.22.32-.65.54v3.88h.14c.51-.86.72-1,.85-1s.32.14.88.7c.22.23.36.41.36.54Zm1,7.42c0,.56-.13.76-.38.76s-.5-.36-1.2-2.24a14.54,14.54,0,0,0,1.54-.21,43.22,43.22,0,0,0,5.55-1.37c.09,0,.18.13.11.18A24.67,24.67,0,0,1,153.86,425.08Zm2.88-5.69c.72-.93.94-1.08,1.06-1.08s.34.15,1,.76c.29.27.43.43.43.55s0,.19-.23.19h-4.7a3.8,3.8,0,0,0-.83.1l-.2-.66a3.27,3.27,0,0,0,1,.14Z"/><path class="cls-5" d="M181.22,423c1-1.19,1.21-1.33,1.33-1.33s.36.14,1.32.92c.43.36.57.52.57.64s-.05.18-.23.18h-6.27c0,1.93.06,3.68.06,4.45,0,.54-.36.78-1.08.78-.52,0-.79-.17-.79-.63s.07-1.86.07-4.6h-6.34a10.14,10.14,0,0,0-1.33.11l-.2-.66a8.5,8.5,0,0,0,1.48.14h1.58v-2.47c0-.9,0-1.8-.07-2.7a11.82,11.82,0,0,1,1.89.87h3v-3.32h-3.33a12.13,12.13,0,0,1-4.05,3.95c-.08.05-.26-.09-.18-.17a15.78,15.78,0,0,0,3.11-5.14,9.77,9.77,0,0,0,.58-2.07c1.91.55,2.39.77,2.39,1.08s-.21.32-.77.39c-.27.56-.54,1.06-.83,1.55h7.63c.94-1.1,1.16-1.24,1.28-1.24s.36.14,1.28.86c.41.34.56.49.56.61s-.06.18-.24.18h-5.7v3.32h2.12c.92-1,1.06-1.16,1.21-1.16s.34.11,1.22.8c.42.32.52.45.52.59s-.07.18-.27.18h-4.8v.65c0,1,0,2.16,0,3.24Zm-5-3.89h-3.12V423h3.12Z"/><path class="cls-5" d="M195.15,416.67h1.22c.62-.75.83-.9,1-.9s.34.15.94.65c.23.2.37.36.37.49s0,.18-.23.18h-7.22a7.55,7.55,0,0,0-1.15.1l-.2-.66a6,6,0,0,0,1.31.14v-1.82a11.17,11.17,0,0,0-.07-1.51c1.87.2,2.07.38,2.07.56s-.18.29-.57.43v2.34h1.09v-2.82a17.25,17.25,0,0,0-.07-1.73c1.91.18,2.09.34,2.09.5s-.18.31-.54.45v1.41h.78c.57-.72.79-.87.91-.87s.35.15.89.61c.21.2.36.36.36.49s-.06.18-.24.18h-2.7Zm1.32,2.38a1.43,1.43,0,0,1-.31.11,13,13,0,0,1-1.23,1.83c-.05.08-.14,0-.1-.07a16,16,0,0,0,.41-1.62,6.94,6.94,0,0,0,.14-1,4.26,4.26,0,0,1,1.09.53,7.65,7.65,0,0,0-.06-1.18c1.73.24,1.84.26,1.84.45s-.09.22-.42.37V420c0,4.11.06,7,.06,7.94,0,.4-.31.58-.83.58s-.59-.11-.59-.52v-.6h-4.65v.67c0,.47-.27.65-.81.65s-.65-.13-.65-.52c0-.83.07-3.35.07-8.34,0-.95,0-1.55-.05-2.22,1.64.2,1.82.26,1.82.45s-.09.2-.38.37V427h4.65Zm-1.84,3.4c1.11.87,1.51,1.5,1.51,2.14,0,.37-.18.58-.45.58s-.47-.14-.56-.94a4.84,4.84,0,0,0-.5-1.38c0,1.08,0,2.5,0,3.31,0,.34-.24.52-.65.52s-.52-.14-.52-.47.05-1.42.09-2.62a6.91,6.91,0,0,1-1.5,1.87c-.07.05-.2,0-.14-.11a10.58,10.58,0,0,0,1.4-3.51h-.48a2.93,2.93,0,0,0-.71.11l-.19-.67a3,3,0,0,0,.9.15h.7v-2.58a10.39,10.39,0,0,0-.07-1.35c1.36.13,1.6.18,1.6.36s-.06.16-.45.36v3.21h.43c.22-.38.38-.53.5-.53s.29.11.54.38.24.25.24.38-.06.18-.24.18h-1.47Zm-1.89-1.58c-.29,0-.34-.11-.36-.63a4.07,4.07,0,0,0-.4-1.73c0-.09,0-.13.11-.07a2.5,2.5,0,0,1,1.21,1.85A.54.54,0,0,1,192.74,420.87Zm5.36-1.73c-.07.05-.19-.09-.14-.16a15,15,0,0,0,2.59-4.74,14.71,14.71,0,0,0,.56-2.14c2.09.57,2.13.57,2.13.77s-.08.25-.49.34a8.13,8.13,0,0,0,1.64,2.49,7.33,7.33,0,0,0,2.57,1.91c.09,0,0,.18-.05.21a1.83,1.83,0,0,0-1,1.09c-.1.23-.14.26-.27.26a1.24,1.24,0,0,1-.46-.35,9.37,9.37,0,0,1-1.5-2.09,17.43,17.43,0,0,1-1.26-3.23A11.26,11.26,0,0,1,198.1,419.14Zm1.59,2.21a4.5,4.5,0,0,0-1.12.15l-.2-.72a6.78,6.78,0,0,0,1.44.16h3.95c.54-.63.68-.74.83-.74s.32.11.9.58c.25.23.36.36.36.5s-.06.18-.38.52V423c0,1.08,0,1.66,0,2.38a1.49,1.49,0,0,1-.41,1.15,1.6,1.6,0,0,1-1.17.4c-.23,0-.29-.07-.34-.41-.11-.6-.33-.78-1.35-1.12-.09,0-.08-.22,0-.22a12.31,12.31,0,0,0,1.48.07c.22,0,.24,0,.24-.28v-3.59h-2v2.34c0,1.64.05,3.7.05,4.38,0,.49-.34.72-1,.72-.49,0-.67-.2-.67-.58s0-1.69,0-4.26v-2.6Zm2.68-3c.45-.67.67-.81.79-.81s.35.14.85.58c.2.18.34.34.34.46s0,.18-.23.18H201a7.71,7.71,0,0,0-1.15.11l-.2-.66a7.11,7.11,0,0,0,1.35.14Z"/><path class="cls-5" d="M67.55,471.65a5.31,5.31,0,0,0-2.1-3,8.75,8.75,0,0,0-1.41-.82c-.73-.34-1.48-.6-2.17-.85A12.41,12.41,0,0,1,60,466.2l-.06,0a2.89,2.89,0,0,1-.48-.33,2,2,0,0,1-.49-.56,1.79,1.79,0,0,1-.23-.73,2.56,2.56,0,0,1,0-.39,8.69,8.69,0,0,1,.18-1.7,5.85,5.85,0,0,0,.87-1.25,14.1,14.1,0,0,0,.78-1.75,4,4,0,0,0,.49-.27,3.29,3.29,0,0,0,1-1,5.27,5.27,0,0,0,.69-1.71,2.76,2.76,0,0,0,.06-.57,2.54,2.54,0,0,0-.25-1.1,3.31,3.31,0,0,0-.41-.64c.08-.3.18-.71.27-1.18a12,12,0,0,0,.23-2.29,8.34,8.34,0,0,0-.15-1.64,6.53,6.53,0,0,0-.38-1.21,4.59,4.59,0,0,0-1.16-1.6,4.85,4.85,0,0,0-1.83-1,5.89,5.89,0,0,0-.79-.79,4.43,4.43,0,0,0-.71-.48,4,4,0,0,0-1.12-.41,5.86,5.86,0,0,0-1.19-.11,17,17,0,0,0-1.8.12c-.25,0-.46.05-.64.08l-.63.13-.22,0h-.21l-.38,0a8.08,8.08,0,0,1-1.25-.28l-.43-.14-.15-.06-.09,0-.15-.05h-.12l-.16,0-.1,0-.14.07-.23.16c-.13.1-.28.23-.44.38a7.12,7.12,0,0,0-.72.8,3.83,3.83,0,0,0-.33.46,3.89,3.89,0,0,0-.25.5A13.8,13.8,0,0,0,46.2,448a10.61,10.61,0,0,0-.19,2,13.08,13.08,0,0,0,.28,2.56v.1c0,.07,0,.14,0,.21s0,.21,0,.31,0,.09,0,.12v0h0v.06l.13.59a3,3,0,0,0-.48.69,2.56,2.56,0,0,0-.29,1.17,2.22,2.22,0,0,0,.07.57h0a5.45,5.45,0,0,0,.41,1.22,3.56,3.56,0,0,0,.92,1.24,3.33,3.33,0,0,0,.85.55,12.76,12.76,0,0,0,.78,1.75,6.51,6.51,0,0,0,.86,1.25,8.66,8.66,0,0,1,.19,1.7,2.56,2.56,0,0,1,0,.39,2.42,2.42,0,0,1-.13.53,1.83,1.83,0,0,1-.43.61,3.18,3.18,0,0,1-.72.52l-.22.12c-.24.12-.5.23-.78.34-.64.26-1.37.5-2.11.79a12.48,12.48,0,0,0-1.66.78,6.43,6.43,0,0,0-1.15.83,5.26,5.26,0,0,0-1.31,1.82,6.64,6.64,0,0,0-.5,2.66,1.11,1.11,0,0,0,.08.41,1.45,1.45,0,0,0,.2.34,2.28,2.28,0,0,0,.57.54,6.54,6.54,0,0,0,1.64.83,21.07,21.07,0,0,0,4.28,1,49.87,49.87,0,0,0,6.74.41,53.26,53.26,0,0,0,6-.31,28.09,28.09,0,0,0,3.25-.56,16.32,16.32,0,0,0,1.79-.54,6.9,6.9,0,0,0,1-.45,4.6,4.6,0,0,0,.59-.35,2.89,2.89,0,0,0,.62-.58,2,2,0,0,0,.19-.35,1.23,1.23,0,0,0,.07-.39A7.33,7.33,0,0,0,67.55,471.65ZM49.37,449c3,.67,9-.6,9-.6a5.52,5.52,0,0,0,1.08,2.78,6.13,6.13,0,0,1,.8,1.6s-.18,0-.3,0-.16-.1-.18-.18-.19-.21-.44-.24a10.44,10.44,0,0,0-2-.07c-2.35.11-2.18.33-3.1.33s-.75-.22-3.1-.33a10.59,10.59,0,0,0-2,.07c-.24,0-.4.08-.43.24s0,.16-.18.18h-.12A11.37,11.37,0,0,0,49.37,449Zm9.91,5s0,1.36-.93,1.82a2.58,2.58,0,0,1-1.1.24,2.2,2.2,0,0,1-1.11-.27,1.54,1.54,0,0,1-.68-.88c0-.09-.05-.17-.07-.26-.07-.26-.27-1,.15-1.31a4,4,0,0,1,1.89-.34,3,3,0,0,1,1.67.32A.93.93,0,0,1,59.28,454Zm-6.17.65-.08.26a1.47,1.47,0,0,1-.68.88,2.17,2.17,0,0,1-1.11.27,2.65,2.65,0,0,1-1.1-.24c-.91-.46-.92-1.81-.92-1.82a.89.89,0,0,1,.18-.68,3,3,0,0,1,1.67-.32,4,4,0,0,1,1.89.34C53.37,453.64,53.18,454.37,53.11,454.63Zm0,17.07-3.59-4.86.14-.1a3.86,3.86,0,0,0,.54-.53l2.89,1.32-.62,1,1,1Zm-2.5-6.15a3.56,3.56,0,0,0,.23-.88,4.49,4.49,0,0,0,0-.51,9.52,9.52,0,0,0-.24-2.08l0-.15-.11-.11a5.06,5.06,0,0,1-.8-1.13,12.38,12.38,0,0,1-.8-1.84l-.09-.24-.25-.09a2.13,2.13,0,0,1-.5-.25,2.33,2.33,0,0,1-.68-.71,4.24,4.24,0,0,1-.54-1.35,1.84,1.84,0,0,1,0-.33,1.44,1.44,0,0,1,.16-.67,2,2,0,0,1,.37-.5c.26.38.48.68.55.76.26.25.29-.34.17-1a2.47,2.47,0,0,1,.15-1.17v.23a.17.17,0,0,0,.16.15c.1,0,.17.05.17.12a2.83,2.83,0,0,0,1.24,2.4,2.67,2.67,0,0,0,3.71-1.05c.29-.66.29-1.31.72-1.31s.43.65.71,1.31a2.67,2.67,0,0,0,3.71,1.05,2.8,2.8,0,0,0,1.24-2.4c0-.07.07-.12.17-.12a.17.17,0,0,0,.17-.15v-.72a18.75,18.75,0,0,1,.69,2.58s.13-.25.32-.57a1.71,1.71,0,0,1,.29.43,1.39,1.39,0,0,1,.15.63,1.24,1.24,0,0,1,0,.33,5.45,5.45,0,0,1-.33,1,3,3,0,0,1-.65.89,2.24,2.24,0,0,1-.74.43l-.25.09-.09.24a13.63,13.63,0,0,1-.79,1.84,5.16,5.16,0,0,1-.81,1.13l-.1.11,0,.15a10.18,10.18,0,0,0-.24,2.08,3,3,0,0,0,0,.51,2.84,2.84,0,0,0,.19.8l0,0-3.42,1.77Zm5,6.38-.35-2.39,1-1-.62-1,2.62-1.35a2.85,2.85,0,0,0,.23.26,4.72,4.72,0,0,0,.48.41Z"/><path class="cls-5" d="M58.77,459.17a3.14,3.14,0,0,1-1.16-1A2.47,2.47,0,0,0,54.28,457,2.48,2.48,0,0,0,51,458.13a3.08,3.08,0,0,1-1.15,1,2.47,2.47,0,0,0,2.68.41,2.76,2.76,0,0,0,1.8-1.46,2.8,2.8,0,0,0,1.81,1.46A2.48,2.48,0,0,0,58.77,459.17Z"/><path class="cls-5" d="M102,470.65a5.36,5.36,0,0,0-2.48-2.24,23.54,23.54,0,0,0-2.46-.94,13.56,13.56,0,0,0-1.55-.38.85.85,0,0,1-.32-.13h0v-.46A7.47,7.47,0,0,0,97.13,463a2.82,2.82,0,0,0,.38-.21,2.74,2.74,0,0,0,.81-1,8.52,8.52,0,0,0,.64-1.72,3.62,3.62,0,0,0,.16-1,2,2,0,0,0-.05-.43,2.27,2.27,0,0,0,.45-.47,4.08,4.08,0,0,0,.67-2.45,9.21,9.21,0,0,0-.27-2.1,8.91,8.91,0,0,0-2.85-4.8,7.42,7.42,0,0,0-2.29-1.37,3.71,3.71,0,0,0,.07-.67,3.56,3.56,0,0,0-7.11,0,3.71,3.71,0,0,0,.07.67,7.46,7.46,0,0,0-2.3,1.37,9,9,0,0,0-2.85,4.8,9.21,9.21,0,0,0-.27,2.1,4.15,4.15,0,0,0,.67,2.45,3,3,0,0,0,.45.47,2,2,0,0,0,0,.43,3.62,3.62,0,0,0,.16,1,6.79,6.79,0,0,0,.88,2.12,2.37,2.37,0,0,0,.57.57,2.71,2.71,0,0,0,.37.21,7.64,7.64,0,0,0,1.92,3.53V467s-.05.05-.15.09a3.2,3.2,0,0,1-.73.18,8.84,8.84,0,0,0-1,.25c-.41.15-1,.3-1.56.53a6.82,6.82,0,0,0-2.7,1.67,5.24,5.24,0,0,0-1.34,3.75q0,.34,0,.72a.84.84,0,0,0,.15.41,1.88,1.88,0,0,0,.52.49,7.78,7.78,0,0,0,1.54.71,28.37,28.37,0,0,0,9.14,1.33,30.92,30.92,0,0,0,7.92-.95,12.1,12.1,0,0,0,2.33-.84,4.16,4.16,0,0,0,.71-.46,1.72,1.72,0,0,0,.25-.28,1,1,0,0,0,.15-.41c0-.25,0-.48,0-.71A5.66,5.66,0,0,0,102,470.65Zm-7.79-1.19a4.92,4.92,0,0,1-5.89,0A2.62,2.62,0,0,1,87.6,468a1.86,1.86,0,0,0,.41-.23.93.93,0,0,0,.3-.37,1,1,0,0,0,.11-.49v-.64a.56.56,0,0,0-.13-.35,6.51,6.51,0,0,1-1.87-3.45.51.51,0,0,0-.34-.4,1.49,1.49,0,0,1-.4-.2,1.45,1.45,0,0,1-.48-.59,7.33,7.33,0,0,1-.56-1.52c0-.1,0-.19-.07-.28L86,461.27l.3-3.16a14,14,0,0,0,5-4.5,14.12,14.12,0,0,0,5,4.5l.3,3.16L98,459.5c0,.09,0,.18-.06.28a5.93,5.93,0,0,1-.73,1.79,1.19,1.19,0,0,1-.31.32,1.57,1.57,0,0,1-.41.2.55.55,0,0,0-.34.4,6.57,6.57,0,0,1-1.86,3.45.52.52,0,0,0-.14.35v.64a1,1,0,0,0,.11.48,1.15,1.15,0,0,0,.55.54L95,468A2.63,2.63,0,0,1,94.24,469.46Z"/><path class="cls-5" d="M48.58,512.38A5.18,5.18,0,0,0,48,511a5.51,5.51,0,0,0-1.56-1.69,8.43,8.43,0,0,0-1.42-.82c-.73-.35-1.48-.61-2.18-.87a11.66,11.66,0,0,1-1.82-.79,3.69,3.69,0,0,1-.48-.34,2,2,0,0,1-.49-.57,1.79,1.79,0,0,1-.23-.74c0-.2,0-.4,0-.59a6.89,6.89,0,0,1,.19-1.53,6.6,6.6,0,0,0,.86-1.26,14.69,14.69,0,0,0,.78-1.78,4.86,4.86,0,0,0,.49-.27,3.61,3.61,0,0,0,1-1,5.43,5.43,0,0,0,.68-1.73,2.87,2.87,0,0,0,.07-.58,2.62,2.62,0,0,0-.26-1.11,3.11,3.11,0,0,0-.41-.65c.08-.31.19-.72.27-1.2a12.31,12.31,0,0,0,.23-2.32,8.61,8.61,0,0,0-.15-1.66,6.72,6.72,0,0,0-.38-1.23A4.62,4.62,0,0,0,42,486.62a4.76,4.76,0,0,0-1.82-1,6.51,6.51,0,0,0-1-.94,5,5,0,0,0-1.74-.92,6.16,6.16,0,0,0-1.8-.25c-.32,0-.64,0-1,.05a6.92,6.92,0,0,0-.76.09,5.8,5.8,0,0,0-.87.22c-.27.09-.52.2-.86.33l-.49.23a8.67,8.67,0,0,0-1.29.8,8.21,8.21,0,0,0-2.15,2.34,7.35,7.35,0,0,0-.77,1.75,8.19,8.19,0,0,0-.29,2.17,9.65,9.65,0,0,0,.13,1.56v.11a1.49,1.49,0,0,1,0,.21c0,.11,0,.22,0,.31s0,.09,0,.13v0h0v.06l.14.6a2.81,2.81,0,0,0-.78,1.89,2.28,2.28,0,0,0,.07.57,5.64,5.64,0,0,0,.41,1.24,3.86,3.86,0,0,0,.91,1.26,3.51,3.51,0,0,0,.85.55,14.69,14.69,0,0,0,.78,1.78,6.6,6.6,0,0,0,.86,1.26,6.82,6.82,0,0,1,.19,1.53q0,.28,0,.6a2.06,2.06,0,0,1-.13.53,2,2,0,0,1-.43.62,3.75,3.75,0,0,1-.71.53,9.49,9.49,0,0,1-1,.46c-.64.26-1.37.51-2.11.8a11.82,11.82,0,0,0-1.65.79,7,7,0,0,0-1.15.84,5.2,5.2,0,0,0-1.31,1.85,7,7,0,0,0-.49,2.69,1.16,1.16,0,0,0,.08.42,1.58,1.58,0,0,0,.19.34,2.72,2.72,0,0,0,.57.55,7.28,7.28,0,0,0,1.64.85,21,21,0,0,0,4.27,1,49.55,49.55,0,0,0,6.72.41,50.53,50.53,0,0,0,6-.32,28.27,28.27,0,0,0,3.24-.56,16.18,16.18,0,0,0,1.79-.55,8,8,0,0,0,1-.45,5.25,5.25,0,0,0,.58-.36,2.46,2.46,0,0,0,.61-.59,1.19,1.19,0,0,0,.19-.35,1.06,1.06,0,0,0,.08-.4A7.26,7.26,0,0,0,48.58,512.38Zm-14.4.51-4-5.07a4.7,4.7,0,0,0,.59-.4,3.38,3.38,0,0,0,.54-.53l2.88,1.34-.62,1,1,1Zm-2.43-6.68a3.14,3.14,0,0,0,.22-.89,5.85,5.85,0,0,0,0-.71,8.8,8.8,0,0,0-.24-1.91l0-.15-.1-.12a5.24,5.24,0,0,1-.8-1.14,13.91,13.91,0,0,1-.8-1.86l-.08-.25-.25-.09a2.6,2.6,0,0,1-.5-.25,2.49,2.49,0,0,1-.68-.72,4.38,4.38,0,0,1-.54-1.37,2,2,0,0,1,0-.33,1.52,1.52,0,0,1,.16-.69,2.2,2.2,0,0,1,.37-.51A8.88,8.88,0,0,0,29,496c.25.25.17.17.26.05s.28-.4,1.8-3.35c3,.67,8.33-3.88,8.33-3.88a5.58,5.58,0,0,0,1.07,2.82A13.4,13.4,0,0,1,42,495.91l.32-.57a1.71,1.71,0,0,1,.29.43,1.61,1.61,0,0,1,.14.64,2,2,0,0,1,0,.34,5.27,5.27,0,0,1-.34,1,2.74,2.74,0,0,1-.64.9,2.38,2.38,0,0,1-.74.44l-.25.09-.09.25a14,14,0,0,1-.79,1.86,5,5,0,0,1-.8,1.14l-.11.12,0,.15a8.8,8.8,0,0,0-.24,1.91c0,.23,0,.46,0,.71a3.08,3.08,0,0,0,.2.82l0,0L35.53,508Zm5,6.86-.41-2.81,1-1-.62-1,2.61-1.37.23.27a4.45,4.45,0,0,0,.88.67Z"/><path class="cls-5" d="M86.44,510.5a6.59,6.59,0,0,0-3.28-2.38c-.59-.22-1.17-.39-1.68-.53s-1-.25-1.26-.36a7.36,7.36,0,0,1-1.46-.72,1.87,1.87,0,0,1-.43-.39.5.5,0,0,1-.11-.28v-2a7.87,7.87,0,0,0,2-3.72,2.65,2.65,0,0,0,.4-.22,2.72,2.72,0,0,0,.84-1,9,9,0,0,0,.67-1.81,3.56,3.56,0,0,0,.17-1,1.8,1.8,0,0,0-.21-.91,1.46,1.46,0,0,0-.69-.65c1.09-5.89-2.36-10.38-6.93-10.15-4.2-.94-6.87-.7-7.22,3a4.13,4.13,0,0,0,.08,3,8.67,8.67,0,0,0-.33,2.29v1.75a1.43,1.43,0,0,0-.87.71,1.8,1.8,0,0,0-.21.91,3.56,3.56,0,0,0,.17,1,7.18,7.18,0,0,0,.92,2.21,2.24,2.24,0,0,0,1,.82,7.87,7.87,0,0,0,2,3.72v2a.54.54,0,0,1-.12.28,2.64,2.64,0,0,1-.78.61,6.54,6.54,0,0,1-1.09.49c-.41.15-1.07.3-1.8.51a9.12,9.12,0,0,0-3.48,1.69,5.2,5.2,0,0,0-1.33,1.74,5.89,5.89,0,0,0-.51,2.55c0,.23,0,.47,0,.71a.88.88,0,0,0,.15.43,1.93,1.93,0,0,0,.59.54,8.22,8.22,0,0,0,1.77.83,33.14,33.14,0,0,0,10.65,1.55,36,36,0,0,0,9.23-1.11,14.44,14.44,0,0,0,2.7-1,4.43,4.43,0,0,0,.8-.52,1.38,1.38,0,0,0,.28-.31.88.88,0,0,0,.15-.43c0-.24,0-.48,0-.71A5.54,5.54,0,0,0,86.44,510.5Zm-16.37-3.13a2.91,2.91,0,0,0,.68-.63,1.46,1.46,0,0,0,.33-.9v-2.35l-.13-.14a6.92,6.92,0,0,1-2-3.65l-.06-.29-.28-.1a1.92,1.92,0,0,1-.43-.22,1.76,1.76,0,0,1-.52-.63,8.72,8.72,0,0,1-.59-1.61,2.89,2.89,0,0,1-.12-.76,1,1,0,0,1,.08-.43.42.42,0,0,1,.25-.21.55.55,0,0,1,.21,0l.53,0v-2.72a6.25,6.25,0,0,1,.07-.87c1.18,1.69,3.43,3.29,7.19,3.94a38.25,38.25,0,0,1-1.4-5s2.52,3.67,6.32,4.06v.6l.53,0a.64.64,0,0,1,.31.09.39.39,0,0,1,.15.16,1,1,0,0,1,.08.43,2.89,2.89,0,0,1-.12.76,6.65,6.65,0,0,1-.77,1.9,1.36,1.36,0,0,1-.34.34,1.8,1.8,0,0,1-.44.22l-.28.1,0,.29a7,7,0,0,1-2,3.65l-.13.14v2.35a1.52,1.52,0,0,0,.31.89,3.49,3.49,0,0,0,1.06.87c.2.11.4.21.61.3l-2,2a6.61,6.61,0,0,1-6,0l-2-2A6.41,6.41,0,0,0,70.07,507.37Z"/><path class="cls-5" d="M67.24,499.72s.58,6.56-1.84,8.52c0,0,7.13-.89,5-4.48l-2.07-4.06-1.23-.88Z"/><path class="cls-5" d="M81,499.72s-.58,6.56,1.84,8.52c0,0-7.13-.89-5-4.48l2.06-4.06,1.24-.88Z"/><path class="cls-5" d="M122.66,510.92a5.92,5.92,0,0,0-2.76-2.34c-1-.47-2-.72-2.63-.95a5.42,5.42,0,0,1-1.38-.76,2.11,2.11,0,0,1-.42-.44.58.58,0,0,1-.12-.31v-1.43a7.61,7.61,0,0,0,1.94-3.58,1.87,1.87,0,0,0,.39-.22,2.53,2.53,0,0,0,.81-1,8.64,8.64,0,0,0,.64-1.73,3.63,3.63,0,0,0,.16-1,1.84,1.84,0,0,0,0-.41c4.51-5.81-2.25-13.41-7.25-12.52-3.92-1-7.45,2.44-8.84,5.48-1.13,2.46-.75,5.86.44,7a2.12,2.12,0,0,0,0,.44,3.63,3.63,0,0,0,.16,1,6.87,6.87,0,0,0,.88,2.13,2.32,2.32,0,0,0,.57.56,1.87,1.87,0,0,0,.39.22,7.61,7.61,0,0,0,1.94,3.58v1.43a.64.64,0,0,1-.13.32,2.9,2.9,0,0,1-.76.68,5.11,5.11,0,0,1-1,.51c-.41.14-1,.3-1.64.53a7.72,7.72,0,0,0-3,1.73,5.37,5.37,0,0,0-1.52,4c0,.23,0,.47,0,.71a.9.9,0,0,0,.13.38,1.73,1.73,0,0,0,.5.51,6.88,6.88,0,0,0,1.53.8,27.43,27.43,0,0,0,9.78,1.52,30.37,30.37,0,0,0,8.52-1.09,11,11,0,0,0,2.35-.95,3.33,3.33,0,0,0,.69-.5,1.68,1.68,0,0,0,.24-.29.9.9,0,0,0,.13-.38c0-.24,0-.48,0-.7A5.62,5.62,0,0,0,122.66,510.92Zm-7-3,.07,0L114,512.15l-2.07-2.59,3-2.21A4,4,0,0,0,115.66,507.92Zm-9.2-7.25,0-.28-.26-.1a1.5,1.5,0,0,1-.42-.2,1.6,1.6,0,0,1-.5-.62,8.16,8.16,0,0,1-.57-1.54,2.66,2.66,0,0,1-.12-.74.88.88,0,0,1,.08-.41.46.46,0,0,1,.24-.2l.18,0,.22.05.59,1.75.33-1.56,1.72-2.46a11.69,11.69,0,0,1-.44,2.23c3.29-1.06,4.15-2.29,4.32-2.61l-1.08,2.17s3.76-1.12,4.43-2.69l-.72,2.41s2-.56,2.34-1.46c.2-.51.22.17.21.85h0v3.13l.84-1.8h0a.5.5,0,0,1,.29.08.43.43,0,0,1,.15.15.88.88,0,0,1,.08.41,2.66,2.66,0,0,1-.12.74,6.16,6.16,0,0,1-.74,1.82,1.19,1.19,0,0,1-.33.34,1.57,1.57,0,0,1-.41.2l-.27.1,0,.28a6.73,6.73,0,0,1-1.9,3.5l-.13.14v1.81a1.4,1.4,0,0,0,.17.65l-3.1,2.28-3.11-2.28a1.43,1.43,0,0,0,.17-.65v-1.81l-.13-.14A6.73,6.73,0,0,1,106.46,500.67Zm1.08,7a3.49,3.49,0,0,0,.35-.32l3,2.22-2.07,2.59L107.12,508A4.5,4.5,0,0,0,107.54,507.66Z"/><path class="cls-5" d="M308.05,505.82a14.77,14.77,0,0,0,.82,4.2,9.57,9.57,0,0,0,.46-.9,11.35,11.35,0,0,0,.78-2.42c1.58.64,2.18,1,2.18,1.32s-.18.28-.74.34a19,19,0,0,1-1.84,3.28,7.85,7.85,0,0,0,1.72,1.92c.52.4.6.44.7.44s.66-.78,1.12-2c0-.1.24,0,.22.08a14.71,14.71,0,0,0-.2,2c0,.28,0,.38.22.52a1,1,0,0,1,.38.76.85.85,0,0,1-.92.86,4.71,4.71,0,0,1-2.78-1.46,12.43,12.43,0,0,1-1.58-1.82,14.46,14.46,0,0,1-5.38,3.22c-.1,0-.26-.2-.18-.24a15.4,15.4,0,0,0,4.8-4.28,15.77,15.77,0,0,1-1.4-5.86h-7.5c0,.36,0,.72,0,1.08a18.73,18.73,0,0,1-.58,5,9.13,9.13,0,0,1-2.84,4.4c-.08.06-.24-.12-.2-.2a11.86,11.86,0,0,0,1.56-4.72,44,44,0,0,0,.22-5.14,11.11,11.11,0,0,0-.12-1.9,13.88,13.88,0,0,1,2.2,1.06h7.22a4.9,4.9,0,0,0,0-.54,6.88,6.88,0,0,0-.24-1.44c2.16.22,2.4.28,2.4.58s-.08.24-.54.44q0,.51.06,1H311c.66-1,.82-1.1,1-1.1s.36.12,1.12.76c.34.3.46.44.46.6s-.08.2-.3.2Zm-2.14-3.1h4.62c.92-1.08,1.16-1.24,1.3-1.24s.42.16,1.36.88c.42.32.58.48.58.62s-.06.2-.26.2H297.69a10.43,10.43,0,0,0-1.46.12l-.22-.74a8.68,8.68,0,0,0,1.64.16h2.1v-1.78a13,13,0,0,0-.12-2.1c2.44.22,2.66.42,2.66.62s-.22.42-.66.56v2.7H304V500a16.43,16.43,0,0,0-.12-2.1c2.42.22,2.64.42,2.64.62s-.2.38-.62.54v1.26h2.62c.88-1,1.12-1.16,1.26-1.16s.4.16,1.26.82c.38.3.54.46.54.6s-.06.2-.26.2h-5.42Zm-4.7,7.84a7.79,7.79,0,0,1-2.76,3.78c-.08.06-.26-.08-.2-.16a10.32,10.32,0,0,0,1.26-3,11.46,11.46,0,0,0,.34-1.84c1.76.56,2,.66,2,.86S301.69,510.5,301.21,510.56Zm2.48-1.56c0,1.12.08,4.16.08,4.74a1.5,1.5,0,0,1-.38,1,1.85,1.85,0,0,1-1.34.62c-.4,0-.44,0-.5-.46-.1-.6-.34-.76-1.5-1.14-.1,0-.06-.28,0-.26.54.06,1.22.12,1.6.12s.32-.08.32-.36v-5h-1.18a10.17,10.17,0,0,0-1.44.12l-.22-.74a8.3,8.3,0,0,0,1.6.16h3.12c.6-.84.84-1,1-1s.4.16,1.1.7c.3.26.46.42.46.56s-.06.2-.26.2h-2.48Zm2.18,3.74c-.48,0-.64-.2-.78-.92a4.43,4.43,0,0,0-.82-2.22.09.09,0,0,1,.12-.14c1.5.58,2.36,1.44,2.36,2.32A.92.92,0,0,1,305.87,512.74Zm4.42-7.58c-.32,0-.44-.1-.62-.48a2.25,2.25,0,0,0-1-1.12.08.08,0,0,1,0-.16c1.52,0,2.3.36,2.3,1.08A.68.68,0,0,1,310.29,505.16Z"/><path class="cls-3" d="M156.26,464.92a28.29,28.29,0,0,1,9.55,1.43,13.49,13.49,0,0,1,6.09,4.1A10.08,10.08,0,0,1,174,477a10.31,10.31,0,0,1-1.16,5,9.4,9.4,0,0,1-3,3.36,10.5,10.5,0,0,1-4.1,1.64,9.53,9.53,0,0,1-4.23-.17,17.94,17.94,0,0,1,4.58.66,15.42,15.42,0,0,1,4.76,2.24A12.2,12.2,0,0,1,174.6,494a14,14,0,0,1,1.47,6.76,16.25,16.25,0,0,1-2.28,8.64,18.67,18.67,0,0,1-6.12,6.16A26.29,26.29,0,0,1,159,519a32.81,32.81,0,0,1-9.87.56,29.57,29.57,0,0,1-9.69-2.55l.14-.7a27.71,27.71,0,0,0,8.19-1,21.46,21.46,0,0,0,6.82-3.33,16.41,16.41,0,0,0,4.69-5.32,14.19,14.19,0,0,0,1.72-7,10.82,10.82,0,0,0-2-6.83,11.74,11.74,0,0,0-5-3.74,16.06,16.06,0,0,0-6-1.19l.14-.7a11.36,11.36,0,0,0,10.22-5.85,10.18,10.18,0,0,0,1.19-6.12,7.49,7.49,0,0,0-1.47-4.17,6.66,6.66,0,0,0-3.12-2.2,9.27,9.27,0,0,0-3.95-.42,6.87,6.87,0,0,0-6,3.67q-1.75,3.33-1.61,9.91h-.7l-4-12.11a20,20,0,0,1,7.21-3.61A35.51,35.51,0,0,1,156.26,464.92Z"/><path class="cls-3" d="M187,517.42l-.28-.49a44.67,44.67,0,0,0,11.73-5.18,18.64,18.64,0,0,0,6.19-6.51,22,22,0,0,0,2.45-8.23,97.67,97.67,0,0,0,.49-10.39c0-3.87-.09-7.11-.28-9.7a14.3,14.3,0,0,0-1.36-5.81,3.88,3.88,0,0,0-3.68-1.92,4.68,4.68,0,0,0-3.92,1.71,10.2,10.2,0,0,0-1.82,4.45,34.35,34.35,0,0,0-.49,5.95,33.2,33.2,0,0,0,.46,6.23,8.39,8.39,0,0,0,1.26,3.32,4.28,4.28,0,0,0,4.76,1.72,9.9,9.9,0,0,0,2.27-1l.49.56a8.33,8.33,0,0,1-3.08,3.57,11.88,11.88,0,0,1-4.83,1.82,14.18,14.18,0,0,1-5.53-.25,12.82,12.82,0,0,1-8.89-7.52,17.67,17.67,0,0,1-1.26-7.7,18.39,18.39,0,0,1,2.31-8.54,15.57,15.57,0,0,1,6.65-6.16A25.44,25.44,0,0,1,202,465q10.29-.14,15.79,5.46t5.49,17.64a37.47,37.47,0,0,1-2.24,13.4,23.77,23.77,0,0,1-6.79,9.84,26.59,26.59,0,0,1-11.34,5.56A45,45,0,0,1,187,517.42Z"/><path class="cls-3" d="M234.86,515.74A6.31,6.31,0,0,1,230.42,505a6.37,6.37,0,0,1,8.92,0,6.32,6.32,0,0,1-4.48,10.78Z"/><path class="cls-3" d="M278.68,464.78l.63,5.18-24.92,24.22h28a4.86,4.86,0,0,0,2.94-.74,5.3,5.3,0,0,0,1.61-2.06h.7l-2.17,10.15H242.56v-.7Zm.7,45.5a3.59,3.59,0,0,0,1.16,2.66,3.74,3.74,0,0,0,2.69,1.12H284v.7H260.34l.07-.7h.7a3.87,3.87,0,0,0,2.77-1.09,3.53,3.53,0,0,0,1.15-2.69ZM265,479.9l13.65-15.12h.7v49.91H265Z"/></g></g></svg>