<svg xmlns="http://www.w3.org/2000/svg" viewBox="0 0 335 570.93"><defs><style>.cls-1,.cls-6,.cls-9{fill:#fff;}.cls-2,.cls-4{fill:#4aa064;}.cls-3{fill:none;stroke:#4aa064;stroke-miterlimit:10;stroke-width:1.76px;}.cls-4,.cls-5{fill-rule:evenodd;}.cls-10,.cls-11,.cls-5,.cls-7,.cls-8{fill:#333;}.cls-6{font-size:12px;letter-spacing:0.2em;}.cls-10,.cls-11,.cls-6,.cls-7,.cls-9{font-family:YuMin-Demibold-83pv-RKSJ-H, YuMincho;}.cls-11,.cls-7{font-size:14px;}.cls-7{letter-spacing:0.2em;}.cls-9{font-size:11.4px;letter-spacing:0.2em;}.cls-10{font-size:20px;letter-spacing:0.2em;}.cls-11{letter-spacing:0.1em;}</style></defs><g id="レイヤー_2" data-name="レイヤー 2"><g id="pc"><rect class="cls-1" x="2.5" y="2.5" width="330" height="565.93"/><path class="cls-2" d="M330,5V565.93H5V5H330m5-5H0V570.93H335V0Z"/><line class="cls-3" y1="384.57" x2="335" y2="384.57"/><path class="cls-4" d="M108.76,276,25.37,287.72A84.21,84.21,0,0,1,97,192.61a88.32,88.32,0,0,1,11.72-.82Z"/><path class="cls-5" d="M108.76,276V191.79a84.21,84.21,0,0,1,0,168.42c-42.79,0-77.44-30.12-83.39-72.49Z"/><path class="cls-1" d="M88.22,252.22a2.33,2.33,0,0,1,1.89.75,2.75,2.75,0,0,1,.48,2.08,3,3,0,0,1-1,2.08,3.59,3.59,0,0,1-2.35.74,2.26,2.26,0,0,1-1.89-.78,2.89,2.89,0,0,1-.4-2.2,3,3,0,0,1,1.07-2A3.42,3.42,0,0,1,88.22,252.22Zm-.06.64c-.23,0-.43.19-.61.58a5.86,5.86,0,0,0-.42,1.61,6,6,0,0,0,0,1.6c.07.39.2.58.4.58s.48-.2.67-.58a5,5,0,0,0,.39-1.58,5.52,5.52,0,0,0,0-1.62C88.49,253.06,88.36,252.86,88.16,252.86ZM87.93,264l-.72-.3,5.54-10.45a2.23,2.23,0,0,1-.87.33,2.71,2.71,0,0,1-.8,0,3.4,3.4,0,0,1-1-.28l-.79-.36a1.77,1.77,0,0,0-.84-.13l-.22-.56a4.12,4.12,0,0,1,1,.11,2.86,2.86,0,0,1,.67.25,5.6,5.6,0,0,0,.55.27,2,2,0,0,0,.62.16,2.11,2.11,0,0,0,.84-.1,5.31,5.31,0,0,0,.73-.3l.59-.31.62.27ZM94,258.22a2.29,2.29,0,0,1,1.86.75,2.71,2.71,0,0,1,.5,2.08,2.9,2.9,0,0,1-1,2.08,3.63,3.63,0,0,1-2.37.74,2.26,2.26,0,0,1-1.89-.78,2.84,2.84,0,0,1-.4-2.2,3,3,0,0,1,1.06-2A3.47,3.47,0,0,1,94,258.22Zm-.18.64c-.22,0-.42.19-.6.58a5.91,5.91,0,0,0-.41,1.61,5.31,5.31,0,0,0-.06,1.6c.06.39.2.58.4.58s.48-.19.66-.57a4.92,4.92,0,0,0,.41-1.59,5.52,5.52,0,0,0,0-1.62C94.18,259.06,94,258.86,93.82,258.86Z"/><path class="cls-1" d="M51.71,251.25,50,246.57a6.54,6.54,0,0,1,1.88-1.11,12.52,12.52,0,0,1,2.39-.68,13.87,13.87,0,0,1,2.54-.23,10.86,10.86,0,0,1,3.8.63A6.25,6.25,0,0,1,63.24,247a4.39,4.39,0,0,1,1,2.88,5.22,5.22,0,0,1-.54,2.34,8.47,8.47,0,0,1-1.39,2A14.63,14.63,0,0,1,60.42,256c-.68.53-1.34,1-2,1.43l-1.77,1.13h4.94a3.31,3.31,0,0,0,1.42-.3,3.57,3.57,0,0,0,1.17-.89,6.37,6.37,0,0,0,1-1.54h.26l-1.77,7.31H50.12v-.26c.75-.92,1.52-1.84,2.3-2.76s1.56-1.83,2.29-2.74a31.29,31.29,0,0,0,2-2.72A15,15,0,0,0,58.11,252a7.33,7.33,0,0,0,.52-2.63,3.72,3.72,0,0,0-.9-2.65,2.81,2.81,0,0,0-2.43-.83,3,3,0,0,0-2.49,1.49,7.52,7.52,0,0,0-.84,3.91Z"/><path class="cls-1" d="M67.15,245l13.78-.05-3.32,7.72c-.23.5-.47,1.11-.73,1.82s-.53,1.48-.81,2.29-.54,1.62-.8,2.42l-.72,2.22c-.22.69-.39,1.26-.51,1.73H69.62c.32-.52.69-1.15,1.12-1.88s.89-1.53,1.35-2.36l1.39-2.48c.46-.82.88-1.59,1.24-2.29s.66-1.29.88-1.75L77,249.46H68.64a1.81,1.81,0,0,0-1.23.39,2.86,2.86,0,0,0-.72,1.17h-.26Z"/><path class="cls-1" d="M159.48,299.54a2.33,2.33,0,0,1,1.89.75,2.74,2.74,0,0,1,.48,2.08,3,3,0,0,1-1,2.07,3.54,3.54,0,0,1-2.35.75,2.24,2.24,0,0,1-1.89-.79,2.81,2.81,0,0,1-.4-2.19,3,3,0,0,1,1.07-2A3.42,3.42,0,0,1,159.48,299.54Zm-.06.64c-.23,0-.43.19-.61.57a6.05,6.05,0,0,0-.42,1.62,6,6,0,0,0,0,1.6c.07.38.2.58.4.58s.48-.21.67-.59a5.18,5.18,0,0,0,.39-1.57,6,6,0,0,0,0-1.63C159.75,300.37,159.62,300.18,159.42,300.18Zm-.23,11.09-.72-.31L164,300.51a2.1,2.1,0,0,1-.87.34,3.09,3.09,0,0,1-.8,0,3.74,3.74,0,0,1-1-.28c-.28-.14-.54-.26-.79-.36a1.77,1.77,0,0,0-.84-.13l-.22-.56a4.18,4.18,0,0,1,1,.1,2.84,2.84,0,0,1,.67.26,5.6,5.6,0,0,0,.55.27,1.88,1.88,0,0,0,.62.15,2.31,2.31,0,0,0,.84-.09,5.34,5.34,0,0,0,.73-.31l.59-.3.62.27Zm6.07-5.73a2.29,2.29,0,0,1,1.86.75,2.7,2.7,0,0,1,.5,2.08,2.86,2.86,0,0,1-1,2.07,3.58,3.58,0,0,1-2.37.75,2.21,2.21,0,0,1-1.89-.79,2.77,2.77,0,0,1-.4-2.19,3,3,0,0,1,1.06-2A3.45,3.45,0,0,1,165.26,305.54Zm-.18.64q-.33,0-.6.57a6.1,6.1,0,0,0-.41,1.62A5,5,0,0,0,164,310c.06.38.19.58.4.58s.47-.19.66-.57a5.19,5.19,0,0,0,.41-1.59,6,6,0,0,0,0-1.63C165.43,306.37,165.29,306.18,165.08,306.18Z"/><path class="cls-1" d="M123,292.28l13.78,0L133.47,300c-.23.5-.47,1.11-.73,1.82s-.53,1.47-.81,2.29-.54,1.62-.8,2.41l-.72,2.23c-.22.68-.38,1.26-.51,1.73h-4.42c.32-.52.69-1.15,1.12-1.89s.89-1.52,1.35-2.35.94-1.66,1.4-2.49.87-1.58,1.23-2.28.66-1.29.88-1.76l1.36-2.88H124.5a1.81,1.81,0,0,0-1.23.39,2.86,2.86,0,0,0-.72,1.17h-.26Z"/><path class="cls-1" d="M144.28,291.91a10.32,10.32,0,0,1,3.55.54,4.94,4.94,0,0,1,2.26,1.52,3.73,3.73,0,0,1,.8,2.42,3.91,3.91,0,0,1-.43,1.87,3.69,3.69,0,0,1-1.13,1.25,4.07,4.07,0,0,1-1.53.61,3.6,3.6,0,0,1-1.57-.07,6.36,6.36,0,0,1,1.7.25,5.49,5.49,0,0,1,1.77.83,4.4,4.4,0,0,1,1.39,1.59,5.1,5.1,0,0,1,.55,2.51,6,6,0,0,1-.85,3.21,6.87,6.87,0,0,1-2.27,2.28,9.69,9.69,0,0,1-3.21,1.28,12.46,12.46,0,0,1-3.67.21,11.29,11.29,0,0,1-3.6-.95l.05-.26a10.81,10.81,0,0,0,3-.39,8,8,0,0,0,2.53-1.24,6,6,0,0,0,1.74-2,5.24,5.24,0,0,0,.64-2.59,4.06,4.06,0,0,0-.74-2.54,4.45,4.45,0,0,0-1.85-1.39,6,6,0,0,0-2.22-.44l0-.26a4.23,4.23,0,0,0,3.8-2.17,3.73,3.73,0,0,0,.44-2.27,2.69,2.69,0,0,0-.55-1.55,2.48,2.48,0,0,0-1.15-.82,3.43,3.43,0,0,0-1.47-.16,2.57,2.57,0,0,0-2.21,1.37,7.63,7.63,0,0,0-.6,3.68h-.26l-1.48-4.5a7.54,7.54,0,0,1,2.68-1.34A13.07,13.07,0,0,1,144.28,291.91Z"/><text class="cls-6" transform="translate(60.35 232.32)">女性</text><text class="cls-6" transform="translate(131.04 279.93)">男性</text><text class="cls-7" transform="translate(293.71 255.14)">人</text><path class="cls-2" d="M219.84,237.79l-2.67-7.2a10.12,10.12,0,0,1,2.9-1.72,19.14,19.14,0,0,1,3.67-1,21.88,21.88,0,0,1,3.91-.36,16.5,16.5,0,0,1,5.83,1,9.61,9.61,0,0,1,4.11,2.8,6.74,6.74,0,0,1,1.5,4.42,8.06,8.06,0,0,1-.83,3.6,13.18,13.18,0,0,1-2.13,3.12,24.3,24.3,0,0,1-2.89,2.66,37.58,37.58,0,0,1-3.07,2.2L227.44,249h7.61a5,5,0,0,0,2.17-.46,5.43,5.43,0,0,0,1.81-1.38,10.21,10.21,0,0,0,1.5-2.36h.39L238.21,256H217.4v-.4q1.72-2.12,3.54-4.24t3.52-4.22a50,50,0,0,0,3.07-4.18,23.34,23.34,0,0,0,2.16-4.12,11,11,0,0,0,.79-4,5.76,5.76,0,0,0-1.37-4.08,4.37,4.37,0,0,0-3.75-1.28,4.69,4.69,0,0,0-3.81,2.3,11.47,11.47,0,0,0-1.31,6Z"/><path class="cls-2" d="M246.92,257.55l-.16-.28a25.16,25.16,0,0,0,6.7-3,10.54,10.54,0,0,0,3.54-3.72,12.41,12.41,0,0,0,1.4-4.7,55.34,55.34,0,0,0,.28-5.94c0-2.21-.05-4.06-.16-5.54a8,8,0,0,0-.78-3.32,2.21,2.21,0,0,0-2.1-1.1,2.68,2.68,0,0,0-2.24,1,5.89,5.89,0,0,0-1,2.54,20,20,0,0,0-.28,3.4,19.12,19.12,0,0,0,.26,3.56,5,5,0,0,0,.72,1.9,2.45,2.45,0,0,0,2.72,1,5.28,5.28,0,0,0,1.3-.56l.28.32a4.74,4.74,0,0,1-1.76,2,6.67,6.67,0,0,1-2.76,1,8.05,8.05,0,0,1-3.16-.14,7.31,7.31,0,0,1-5.08-4.3,10.12,10.12,0,0,1-.72-4.4,10.61,10.61,0,0,1,1.32-4.88A9,9,0,0,1,249,229a14.56,14.56,0,0,1,6.52-1.36q5.88-.08,9,3.12t3.14,10.08a21.33,21.33,0,0,1-1.28,7.66,13.51,13.51,0,0,1-3.88,5.62,15.05,15.05,0,0,1-6.48,3.18A25.54,25.54,0,0,1,246.92,257.55Z"/><path class="cls-2" d="M270.76,256l0-.4h.84a2.09,2.09,0,0,0,1.56-.64,2,2,0,0,0,.64-1.52V233.19a2.7,2.7,0,0,0-.72-2.16,2.9,2.9,0,0,0-1.92-.6h-.72V230c.56,0,1.32-.1,2.26-.22s2-.28,3.06-.48a28.39,28.39,0,0,0,3.18-.76,11.22,11.22,0,0,0,2.62-1.1h.4v26a2,2,0,0,0,.66,1.5,2.16,2.16,0,0,0,1.54.62H285v.4Z"/><polygon class="cls-8" points="264.14 214.34 266.85 190.03 221.43 190.03 218.73 214.34 264.14 214.34"/><text class="cls-9" transform="translate(230.03 207.19)">男性</text><path class="cls-8" d="M307.86,209.76a6.35,6.35,0,0,0-.68-1.66,7,7,0,0,0-1.91-2.08,11,11,0,0,0-1.75-1c-.9-.42-1.82-.75-2.67-1.06a13.49,13.49,0,0,1-2.23-1,4.51,4.51,0,0,1-.6-.41,2.63,2.63,0,0,1-.6-.7,2.33,2.33,0,0,1-.28-.9c0-.26,0-.5,0-.73a8.55,8.55,0,0,1,.23-1.87,8.23,8.23,0,0,0,1.06-1.55,18.72,18.72,0,0,0,1-2.19,3.84,3.84,0,0,0,.59-.33,4.27,4.27,0,0,0,1.24-1.29,6.61,6.61,0,0,0,.83-2.12,2.79,2.79,0,0,0,.08-.7,3.21,3.21,0,0,0-.31-1.38,3.63,3.63,0,0,0-.5-.79c.1-.37.22-.88.33-1.47a16,16,0,0,0,.28-2.84,10.3,10.3,0,0,0-.19-2,7.41,7.41,0,0,0-.46-1.5,5.7,5.7,0,0,0-1.42-2,5.94,5.94,0,0,0-2.24-1.21,8.51,8.51,0,0,0-1.17-1.16,6.25,6.25,0,0,0-2.14-1.13,7.6,7.6,0,0,0-2.21-.3c-.39,0-.78,0-1.17,0s-.67.07-.94.12a7,7,0,0,0-1.07.27c-.32.11-.64.24-1.05.41-.15.06-.36.15-.6.27a11.13,11.13,0,0,0-1.58,1,10.15,10.15,0,0,0-2.64,2.87,9.22,9.22,0,0,0-.94,2.16,9.6,9.6,0,0,0-.37,2.66,11.87,11.87,0,0,0,.17,1.91v.13a2.28,2.28,0,0,1,0,.26c0,.14,0,.27.05.39s0,.11,0,.15v0h0v.08l.17.73a3.49,3.49,0,0,0-.6.86,3.24,3.24,0,0,0-.35,1.46,3.34,3.34,0,0,0,.08.7,7.74,7.74,0,0,0,.5,1.52,4.94,4.94,0,0,0,1.13,1.55,4.27,4.27,0,0,0,1,.67,17.24,17.24,0,0,0,.95,2.19,8.23,8.23,0,0,0,1.06,1.55,8.55,8.55,0,0,1,.23,1.87,6.29,6.29,0,0,1,0,.73,2.38,2.38,0,0,1-.16.65,2.33,2.33,0,0,1-.52.77,4.17,4.17,0,0,1-.88.64,10.74,10.74,0,0,1-1.22.57c-.78.32-1.68.62-2.59,1a15.66,15.66,0,0,0-2,1,8.54,8.54,0,0,0-1.4,1,6.48,6.48,0,0,0-1.61,2.27,8.4,8.4,0,0,0-.6,3.31,1.25,1.25,0,0,0,.1.51,2.13,2.13,0,0,0,.23.42,3,3,0,0,0,.7.67,8.1,8.1,0,0,0,2,1,25.65,25.65,0,0,0,5.24,1.24,60,60,0,0,0,8.24.51,60.92,60.92,0,0,0,7.33-.4,33.92,33.92,0,0,0,4-.69,18.73,18.73,0,0,0,2.19-.67,11.39,11.39,0,0,0,1.24-.55,5.12,5.12,0,0,0,.71-.44,3.13,3.13,0,0,0,.76-.73,1.44,1.44,0,0,0,.23-.42,1.38,1.38,0,0,0,.1-.49A9.19,9.19,0,0,0,307.86,209.76Zm-17.67.62-4.86-6.21a7,7,0,0,0,.72-.49,4.57,4.57,0,0,0,.66-.66l3.54,1.65-.76,1.25,1.17,1.24Zm-3-8.19a3.71,3.71,0,0,0,.28-1.09,8.71,8.71,0,0,0,0-.87,10.7,10.7,0,0,0-.29-2.35l0-.18-.14-.14a6.49,6.49,0,0,1-1-1.41,15.18,15.18,0,0,1-1-2.28l-.11-.3-.3-.11a2.92,2.92,0,0,1-.61-.31,3,3,0,0,1-.84-.88,5.35,5.35,0,0,1-.66-1.69,1.87,1.87,0,0,1,0-.4,1.93,1.93,0,0,1,.2-.85,2.43,2.43,0,0,1,.46-.62,7.8,7.8,0,0,0,.67.95c.31.31.21.22.32.07,0,0,.35-.5,2.21-4.11,3.72.82,10.21-4.76,10.21-4.76a6.85,6.85,0,0,0,1.32,3.45c1.18,1.57,1.85,5.25,1.85,5.25s.16-.3.4-.71a2.22,2.22,0,0,1,.34.54,1.79,1.79,0,0,1,.18.79,1.87,1.87,0,0,1,0,.4,5.7,5.7,0,0,1-.41,1.23,3.48,3.48,0,0,1-.79,1.11,3,3,0,0,1-.91.54l-.3.11-.11.3a16.39,16.39,0,0,1-1,2.28,6.59,6.59,0,0,1-1,1.41l-.13.14-.05.19a11.15,11.15,0,0,0-.29,2.34,8.71,8.71,0,0,0,0,.87,4,4,0,0,0,.24,1s0,0,0,.05l-4.18,2.2Zm6.2,8.42-.5-3.45,1.17-1.24-.76-1.26,3.2-1.68c.09.11.18.22.28.32a4.85,4.85,0,0,0,1.08.83Z"/><text class="cls-7" transform="translate(293.71 353.83)">人</text><path class="cls-2" d="M220.64,354.73l0-.4h.84a2.16,2.16,0,0,0,1.56-.64,2.08,2.08,0,0,0,.64-1.52V331.89a2.7,2.7,0,0,0-.72-2.16,2.9,2.9,0,0,0-1.92-.6h-.72v-.4c.56,0,1.31-.1,2.26-.22s2-.28,3.06-.48a32.06,32.06,0,0,0,3.18-.76,12.15,12.15,0,0,0,2.62-1.1h.4v26a2,2,0,0,0,.66,1.5,2.19,2.19,0,0,0,1.54.62h.84v.4Z"/><path class="cls-2" d="M249.92,326.17A11.82,11.82,0,0,1,256.6,328a11.69,11.69,0,0,1,4.24,5.08,20.51,20.51,0,0,1,0,15.3,11.93,11.93,0,0,1-21.84,0,20.51,20.51,0,0,1,0-15.3,11.66,11.66,0,0,1,4.26-5.08A11.82,11.82,0,0,1,249.92,326.17Zm0,2q-2.08,0-3,3.06a47.49,47.49,0,0,0,0,19q1,3.06,3,3.06t3-3.06a47.49,47.49,0,0,0,0-19Q252,328.17,249.92,328.17Z"/><path class="cls-2" d="M282.84,333.45l-12.28,1-.76,3.32a19.24,19.24,0,0,1,6.8-.56,11.14,11.14,0,0,1,5,1.7,8.19,8.19,0,0,1,3,3.42,9.79,9.79,0,0,1,.84,4.64,9.39,9.39,0,0,1-1.64,5.12,11.41,11.41,0,0,1-3.9,3.46,17.39,17.39,0,0,1-5.18,1.8,18.11,18.11,0,0,1-5.54.14,15,15,0,0,1-5-1.52l.08-.4a14.12,14.12,0,0,0,2.56-.2,20,20,0,0,0,3.18-.8,15.1,15.1,0,0,0,3.14-1.5,8.83,8.83,0,0,0,2.44-2.26,5.85,5.85,0,0,0,1.08-3.12,4.2,4.2,0,0,0-1.24-3.58,5.91,5.91,0,0,0-3.82-1.44,12.53,12.53,0,0,0-5.46,1.1l-.36-.24L269,328.17l11.92-1a3.21,3.21,0,0,0,2-.56,4.22,4.22,0,0,0,1.16-1.44h.4Z"/><polygon class="cls-2" points="264.14 313.03 266.85 288.72 221.43 288.72 218.73 313.03 264.14 313.03"/><path class="cls-8" d="M306.93,306.2a8.29,8.29,0,0,0-4.08-3c-.74-.27-1.46-.48-2.1-.65s-1.19-.32-1.56-.46a8.48,8.48,0,0,1-1.81-.89,2.15,2.15,0,0,1-.53-.49.56.56,0,0,1-.14-.34V298a9.74,9.74,0,0,0,2.51-4.63,3.14,3.14,0,0,0,.51-.27,3.38,3.38,0,0,0,1-1.25,10.59,10.59,0,0,0,.83-2.24,4.79,4.79,0,0,0,.21-1.3,2.33,2.33,0,0,0-.26-1.13,1.76,1.76,0,0,0-.86-.8c1.36-7.33-2.93-12.91-8.62-12.63-5.21-1.16-8.54-.87-9,3.77a5.11,5.11,0,0,0,.11,3.76,10.53,10.53,0,0,0-.42,2.85v2.17a1.77,1.77,0,0,0-1.08.88,2.33,2.33,0,0,0-.26,1.13,4.79,4.79,0,0,0,.21,1.3,9.08,9.08,0,0,0,1.14,2.75,3.21,3.21,0,0,0,.73.74,3.14,3.14,0,0,0,.51.27,9.74,9.74,0,0,0,2.51,4.63v2.44a.55.55,0,0,1-.15.34,3.09,3.09,0,0,1-1,.77,9,9,0,0,1-1.36.6c-.5.18-1.32.37-2.24.63a11.33,11.33,0,0,0-4.32,2.11,6.43,6.43,0,0,0-1.65,2.16,7.49,7.49,0,0,0-.64,3.17c0,.29,0,.58,0,.89a1.12,1.12,0,0,0,.19.53,2.49,2.49,0,0,0,.73.67,10.65,10.65,0,0,0,2.2,1,41.43,41.43,0,0,0,13.24,1.92,45.14,45.14,0,0,0,11.47-1.37,17.64,17.64,0,0,0,3.36-1.22,5.09,5.09,0,0,0,1-.65,2.43,2.43,0,0,0,.34-.38,1.12,1.12,0,0,0,.19-.53c0-.31,0-.6,0-.89A7,7,0,0,0,306.93,306.2Zm-20.36-3.89a3.77,3.77,0,0,0,.85-.79,1.84,1.84,0,0,0,.41-1.11v-2.92l-.17-.19a8.67,8.67,0,0,1-2.45-4.53l-.06-.36-.35-.13a2.47,2.47,0,0,1-.54-.26,2,2,0,0,1-.64-.79,10.85,10.85,0,0,1-.74-2,3.79,3.79,0,0,1-.16-1,1.28,1.28,0,0,1,.11-.53.53.53,0,0,1,.3-.26,1.1,1.1,0,0,1,.27-.05l.66,0V284.1a9.8,9.8,0,0,1,.08-1.08c1.48,2.1,4.27,4.08,8.95,4.89a48.27,48.27,0,0,1-1.74-6.23s3.13,4.57,7.85,5.05v.74l.66,0a.78.78,0,0,1,.38.11.41.41,0,0,1,.19.2,1.13,1.13,0,0,1,.11.53,3.79,3.79,0,0,1-.16,1,7.89,7.89,0,0,1-1,2.36,1.57,1.57,0,0,1-.42.43,2.47,2.47,0,0,1-.54.26l-.35.13-.06.36a8.6,8.6,0,0,1-2.45,4.53l-.17.19v2.92a1.88,1.88,0,0,0,.39,1.1,4.23,4.23,0,0,0,1.32,1.08c.24.14.5.26.75.38l-2.45,2.45a7.65,7.65,0,0,1-3.75.9,7.75,7.75,0,0,1-3.7-.88l-2.52-2.51A7.94,7.94,0,0,0,286.57,302.31Z"/><path class="cls-8" d="M283.05,292.8s.72,8.15-2.29,10.58c0,0,8.86-1.1,6.22-5.56l-2.57-5.05-1.54-1.09Z"/><path class="cls-8" d="M300.19,292.8s-.71,8.15,2.29,10.58c0,0-8.86-1.1-6.22-5.56l2.57-5.05,1.54-1.09Z"/><text class="cls-9" transform="translate(230.03 305.88)">女性</text><text class="cls-7" transform="translate(108.28 164.96)">女性従業員比率</text><text class="cls-7" transform="translate(132.28 424.01)">平均年齢</text><path class="cls-8" d="M67.55,470.46a5.39,5.39,0,0,0-2.1-3,9.5,9.5,0,0,0-1.41-.81c-.73-.34-1.48-.6-2.17-.85A12.41,12.41,0,0,1,60,465L60,465a3.66,3.66,0,0,1-.48-.33,2.12,2.12,0,0,1-.49-.56,1.79,1.79,0,0,1-.23-.73,1.71,1.71,0,0,1,0-.39,8.69,8.69,0,0,1,.18-1.7A6.4,6.4,0,0,0,59.8,460a13.65,13.65,0,0,0,.78-1.76,3.87,3.87,0,0,0,.49-.26,3.33,3.33,0,0,0,1-1,5.12,5.12,0,0,0,.69-1.7,2.76,2.76,0,0,0,.06-.57,2.54,2.54,0,0,0-.25-1.1,3,3,0,0,0-.41-.64c.08-.3.18-.71.27-1.18a12.06,12.06,0,0,0,.23-2.29,8.34,8.34,0,0,0-.15-1.64,6.53,6.53,0,0,0-.38-1.21A4.59,4.59,0,0,0,61,445a5,5,0,0,0-1.83-1,6.43,6.43,0,0,0-.79-.78,4.43,4.43,0,0,0-.71-.48,4,4,0,0,0-1.12-.41,5.86,5.86,0,0,0-1.19-.11,17,17,0,0,0-1.8.12c-.25,0-.46.05-.64.08l-.63.13-.22,0h-.21l-.38,0a9.44,9.44,0,0,1-1.25-.28l-.43-.14-.15-.06-.09,0a.44.44,0,0,0-.15-.05h-.12l-.16,0-.1,0-.14.07-.23.16c-.13.1-.28.23-.44.38a7,7,0,0,0-.72.79,5,5,0,0,0-.33.47,4.52,4.52,0,0,0-.25.49,14.15,14.15,0,0,0-.69,2.37,10.51,10.51,0,0,0-.19,2,13.1,13.1,0,0,0,.28,2.57v.1c0,.06,0,.13,0,.21s0,.21,0,.31,0,.08,0,.12v0h0v.06l.13.59a2.83,2.83,0,0,0-.48.69,2.56,2.56,0,0,0-.29,1.17,2.22,2.22,0,0,0,.07.57h0a5.63,5.63,0,0,0,.41,1.22,3.75,3.75,0,0,0,.92,1.24,3.33,3.33,0,0,0,.85.55,12.76,12.76,0,0,0,.78,1.75,6.84,6.84,0,0,0,.86,1.25,8.66,8.66,0,0,1,.19,1.7,2.86,2.86,0,0,1-.16.92,1.83,1.83,0,0,1-.43.61,3.18,3.18,0,0,1-.72.52l-.22.12c-.24.12-.5.23-.78.34-.64.26-1.37.5-2.11.79a12.48,12.48,0,0,0-1.66.78,6.91,6.91,0,0,0-1.15.82,5.2,5.2,0,0,0-1.31,1.83,6.64,6.64,0,0,0-.5,2.66,1.15,1.15,0,0,0,.08.41,1.68,1.68,0,0,0,.2.34,2.28,2.28,0,0,0,.57.54,6.54,6.54,0,0,0,1.64.83,21.07,21.07,0,0,0,4.28,1,49.87,49.87,0,0,0,6.74.41,50.76,50.76,0,0,0,6-.32,28.09,28.09,0,0,0,3.25-.56,14.5,14.5,0,0,0,1.79-.53,8.16,8.16,0,0,0,1-.45,4.6,4.6,0,0,0,.59-.35,2.89,2.89,0,0,0,.62-.58,2,2,0,0,0,.19-.35,1.28,1.28,0,0,0,.07-.39A7.46,7.46,0,0,0,67.55,470.46ZM49.37,447.81c3,.66,9-.61,9-.61A5.49,5.49,0,0,0,59.43,450a6.46,6.46,0,0,1,.8,1.6l-.3,0c-.14,0-.16-.11-.18-.18s-.19-.21-.44-.25a11.53,11.53,0,0,0-2-.06c-2.35.11-2.18.33-3.1.33s-.75-.22-3.1-.33a11.7,11.7,0,0,0-2,.06c-.24,0-.4.09-.43.25s0,.16-.18.18h-.12A11.43,11.43,0,0,0,49.37,447.81Zm9.91,5s0,1.36-.93,1.82a2.44,2.44,0,0,1-1.1.25,2.2,2.2,0,0,1-1.11-.28,1.49,1.49,0,0,1-.68-.87c0-.09-.05-.18-.07-.26-.07-.26-.27-1,.15-1.31a4,4,0,0,1,1.89-.34,3,3,0,0,1,1.67.32A.91.91,0,0,1,59.28,452.79Zm-6.18.66c0,.08,0,.17-.07.26a1.42,1.42,0,0,1-.68.87,2.18,2.18,0,0,1-1.11.28,2.5,2.5,0,0,1-1.1-.25c-.91-.46-.92-1.8-.92-1.82a.87.87,0,0,1,.18-.67,2.94,2.94,0,0,1,1.67-.32,4,4,0,0,1,1.89.34C53.37,452.46,53.18,453.19,53.1,453.45Zm.06,17.07-3.59-4.86.14-.1a3.86,3.86,0,0,0,.54-.53l2.89,1.32-.62,1,1,1Zm-2.5-6.16a3.37,3.37,0,0,0,.23-.87,4.49,4.49,0,0,0,0-.51,9.52,9.52,0,0,0-.24-2.08l0-.15-.11-.11a5.06,5.06,0,0,1-.8-1.13,12.86,12.86,0,0,1-.8-1.84l-.09-.24-.25-.09a2.6,2.6,0,0,1-.5-.25,2.33,2.33,0,0,1-.68-.71,4.24,4.24,0,0,1-.54-1.35,1.93,1.93,0,0,1,0-.33A1.48,1.48,0,0,1,47,454a2,2,0,0,1,.37-.5c.26.39.48.69.55.77.26.25.29-.34.17-1a2.47,2.47,0,0,1,.15-1.17v.23a.17.17,0,0,0,.16.15c.1,0,.17.05.17.12A2.81,2.81,0,0,0,49.82,455,2.66,2.66,0,0,0,53.53,454c.29-.66.29-1.3.72-1.3s.43.64.71,1.3A2.66,2.66,0,0,0,58.67,455a2.78,2.78,0,0,0,1.24-2.39c0-.07.07-.12.17-.12a.17.17,0,0,0,.17-.15v-.72a18.42,18.42,0,0,1,.69,2.57l.32-.57a1.91,1.91,0,0,1,.29.43,1.46,1.46,0,0,1,.15.64,1.29,1.29,0,0,1,0,.33,5.45,5.45,0,0,1-.33,1,3,3,0,0,1-.65.89,2.42,2.42,0,0,1-.74.43l-.25.09-.09.24a14.21,14.21,0,0,1-.79,1.84,5.41,5.41,0,0,1-.81,1.13l-.1.11,0,.15a10.18,10.18,0,0,0-.24,2.08,4.31,4.31,0,0,0,.23,1.31l0,0-3.42,1.76Zm5,6.39-.35-2.39,1-1-.62-1L58.27,465c.07.09.15.17.23.26a4.72,4.72,0,0,0,.48.41Z"/><path class="cls-8" d="M58.77,458a3.06,3.06,0,0,1-1.16-1,2.47,2.47,0,0,0-3.33-1.12A2.48,2.48,0,0,0,51,457a3,3,0,0,1-1.15,1,2.46,2.46,0,0,0,2.68.42,2.79,2.79,0,0,0,1.8-1.46,2.83,2.83,0,0,0,1.81,1.46A2.47,2.47,0,0,0,58.77,458Z"/><path class="cls-8" d="M102,469.47a5.44,5.44,0,0,0-2.48-2.25,25.58,25.58,0,0,0-2.46-.93,13.56,13.56,0,0,0-1.55-.38,1.09,1.09,0,0,1-.32-.13h0v-.47a7.37,7.37,0,0,0,1.92-3.53,2,2,0,0,0,.38-.2,2.74,2.74,0,0,0,.81-1,8.52,8.52,0,0,0,.64-1.72,3.62,3.62,0,0,0,.16-1,1.88,1.88,0,0,0-.05-.43,2.12,2.12,0,0,0,.45-.48,4,4,0,0,0,.67-2.44,9.21,9.21,0,0,0-.27-2.1,8.94,8.94,0,0,0-2.85-4.81,7.58,7.58,0,0,0-2.29-1.36,3.71,3.71,0,0,0,.07-.67,3.56,3.56,0,0,0-7.11,0,3.71,3.71,0,0,0,.07.67,7.63,7.63,0,0,0-2.3,1.36,9,9,0,0,0-2.85,4.81,9.21,9.21,0,0,0-.27,2.1,4.09,4.09,0,0,0,.67,2.44,2.68,2.68,0,0,0,.45.48,1.91,1.91,0,0,0,0,.43,3.62,3.62,0,0,0,.16,1,6.71,6.71,0,0,0,.88,2.11,2.25,2.25,0,0,0,.57.58,1.9,1.9,0,0,0,.37.2,7.54,7.54,0,0,0,1.92,3.53v.46s-.05.05-.15.09a4.81,4.81,0,0,1-.73.18,7.06,7.06,0,0,0-1,.25c-.41.14-1,.3-1.56.53a6.82,6.82,0,0,0-2.7,1.67,5.24,5.24,0,0,0-1.34,3.75q0,.35,0,.72a.84.84,0,0,0,.15.41,1.72,1.72,0,0,0,.52.48,7.22,7.22,0,0,0,1.54.72,28.37,28.37,0,0,0,9.14,1.33,30.92,30.92,0,0,0,7.92-.95,11.4,11.4,0,0,0,2.33-.85,3.25,3.25,0,0,0,.7-.45,2.27,2.27,0,0,0,.26-.28,1,1,0,0,0,.15-.41q0-.37,0-.72A5.64,5.64,0,0,0,102,469.47Zm-7.79-1.2a4.88,4.88,0,0,1-5.89,0,2.6,2.6,0,0,1-.75-1.43,1.86,1.86,0,0,0,.41-.23,1,1,0,0,0,.3-.37,1,1,0,0,0,.11-.49v-.64a.56.56,0,0,0-.13-.35,6.51,6.51,0,0,1-1.87-3.45.5.5,0,0,0-.34-.4,1.49,1.49,0,0,1-.4-.2,1.53,1.53,0,0,1-.48-.59,7.57,7.57,0,0,1-.56-1.52l-.07-.28L86,460.08l.3-3.15a14.12,14.12,0,0,0,5-4.5,14.22,14.22,0,0,0,5,4.5l.3,3.15L98,458.32c0,.09,0,.17-.06.28a5.93,5.93,0,0,1-.73,1.79,1.19,1.19,0,0,1-.31.32,1.57,1.57,0,0,1-.41.2.54.54,0,0,0-.34.4,6.57,6.57,0,0,1-1.86,3.45.52.52,0,0,0-.14.35v.64a1,1,0,0,0,.11.48,1.12,1.12,0,0,0,.55.53l.16.07A2.6,2.6,0,0,1,94.24,468.27Z"/><path class="cls-8" d="M48.58,511.2a5,5,0,0,0-.56-1.36,5.41,5.41,0,0,0-1.56-1.69,8.49,8.49,0,0,0-1.42-.83c-.73-.34-1.48-.6-2.18-.86a12.65,12.65,0,0,1-1.82-.8,2.89,2.89,0,0,1-.48-.33,2.16,2.16,0,0,1-.49-.57,1.79,1.79,0,0,1-.23-.74c0-.21,0-.4,0-.59A6.74,6.74,0,0,1,40,501.9a6.6,6.6,0,0,0,.86-1.26,14.69,14.69,0,0,0,.78-1.78l.49-.27a3.61,3.61,0,0,0,1-1,5.53,5.53,0,0,0,.68-1.73,2.87,2.87,0,0,0,.07-.58,2.63,2.63,0,0,0-.26-1.12,3,3,0,0,0-.41-.64c.08-.31.19-.72.27-1.2a12.31,12.31,0,0,0,.23-2.32,8.54,8.54,0,0,0-.15-1.66,6.72,6.72,0,0,0-.38-1.23A4.45,4.45,0,0,0,42,485.44a4.76,4.76,0,0,0-1.82-1,7.15,7.15,0,0,0-1-.95,5.14,5.14,0,0,0-1.74-.92,6.15,6.15,0,0,0-1.8-.24c-.32,0-.64,0-1,0s-.54.06-.76.1a5.8,5.8,0,0,0-.87.22c-.27.09-.52.2-.86.33a4.72,4.72,0,0,0-.49.23,8.49,8.49,0,0,0-1.29.79,8.4,8.4,0,0,0-2.15,2.35,7.35,7.35,0,0,0-.77,1.75,8.19,8.19,0,0,0-.29,2.17,9.44,9.44,0,0,0,.13,1.55V492a1.25,1.25,0,0,1,0,.21c0,.11,0,.22,0,.31s0,.09,0,.12v0h0v.06l.14.59a2.9,2.9,0,0,0-.49.71,2.61,2.61,0,0,0-.29,1.18,2.3,2.3,0,0,0,.07.58A5.37,5.37,0,0,0,27.3,497a3.91,3.91,0,0,0,.91,1.27,3.33,3.33,0,0,0,.85.55,14.69,14.69,0,0,0,.78,1.78,6.6,6.6,0,0,0,.86,1.26,6.74,6.74,0,0,1,.19,1.53c0,.19,0,.38,0,.59a2.14,2.14,0,0,1-.13.54,2,2,0,0,1-.43.62,3.34,3.34,0,0,1-.71.52,7.8,7.8,0,0,1-1,.47c-.64.26-1.37.5-2.11.8a11.82,11.82,0,0,0-1.65.79,7,7,0,0,0-1.15.83,5.38,5.38,0,0,0-1.31,1.85,7.07,7.07,0,0,0-.49,2.7,1.16,1.16,0,0,0,.08.42,1.86,1.86,0,0,0,.19.34,2.72,2.72,0,0,0,.57.55,7.28,7.28,0,0,0,1.64.85,21,21,0,0,0,4.27,1,47.79,47.79,0,0,0,6.72.42,50.53,50.53,0,0,0,6-.32,26.08,26.08,0,0,0,3.24-.57,16.32,16.32,0,0,0,1.79-.54c.38-.15.71-.3,1-.45s.41-.24.58-.36a2.46,2.46,0,0,0,.61-.59,1.19,1.19,0,0,0,.19-.35,1.06,1.06,0,0,0,.08-.4A7.2,7.2,0,0,0,48.58,511.2Zm-14.4.5-4-5.06a4.7,4.7,0,0,0,.59-.4,3.87,3.87,0,0,0,.54-.53L34.22,507l-.62,1,1,1ZM31.75,505a3.14,3.14,0,0,0,.22-.89,6,6,0,0,0,0-.71,8.8,8.8,0,0,0-.24-1.91l0-.16-.1-.11a5,5,0,0,1-.8-1.15,13.18,13.18,0,0,1-.8-1.85L30,498l-.25-.09a2.65,2.65,0,0,1-.5-.26,2.33,2.33,0,0,1-.68-.71,4.45,4.45,0,0,1-.54-1.38,1.84,1.84,0,0,1,0-.33,1.48,1.48,0,0,1,.16-.68,2,2,0,0,1,.37-.51,8.88,8.88,0,0,0,.55.78c.25.25.17.17.26.05s.28-.41,1.8-3.35c3,.67,8.33-3.88,8.33-3.88a5.53,5.53,0,0,0,1.07,2.81A13.51,13.51,0,0,1,42,494.73s.13-.25.32-.58a1.63,1.63,0,0,1,.28.44,1.43,1.43,0,0,1,.15.64,1.84,1.84,0,0,1,0,.33,5.66,5.66,0,0,1-.34,1,2.74,2.74,0,0,1-.64.9,2.38,2.38,0,0,1-.74.44l-.25.09-.09.24a13.66,13.66,0,0,1-.79,1.87,5.24,5.24,0,0,1-.8,1.14l-.11.11,0,.16a8.8,8.8,0,0,0-.24,1.91c0,.22,0,.46,0,.71a3,3,0,0,0,.2.81l0,0-3.42,1.79Zm5,6.86-.41-2.81,1-1-.62-1,2.61-1.37a2.85,2.85,0,0,0,.23.26,4.14,4.14,0,0,0,.88.68Z"/><path class="cls-8" d="M86.44,509.32a6.59,6.59,0,0,0-3.28-2.38c-.59-.22-1.17-.39-1.68-.53s-1-.25-1.26-.37a6.84,6.84,0,0,1-1.46-.71,2.13,2.13,0,0,1-.43-.39.53.53,0,0,1-.11-.28v-2a7.87,7.87,0,0,0,2-3.72,2.73,2.73,0,0,0,.4-.23,2.56,2.56,0,0,0,.84-1,8.85,8.85,0,0,0,.67-1.8,3.62,3.62,0,0,0,.17-1.05,1.85,1.85,0,0,0-.21-.91,1.49,1.49,0,0,0-.69-.64c1.09-5.9-2.36-10.39-6.93-10.16-4.2-.93-6.88-.7-7.22,3a4.13,4.13,0,0,0,.08,3,8.67,8.67,0,0,0-.33,2.29v1.74a2.68,2.68,0,0,0-.36.16,1.44,1.44,0,0,0-.51.55,1.85,1.85,0,0,0-.21.91,3.62,3.62,0,0,0,.17,1.05,7.29,7.29,0,0,0,.92,2.21,2.21,2.21,0,0,0,.59.59,2.3,2.3,0,0,0,.4.23,7.87,7.87,0,0,0,2,3.72v2a.54.54,0,0,1-.12.28,2.64,2.64,0,0,1-.78.61,6.54,6.54,0,0,1-1.09.49c-.41.14-1.07.3-1.8.51a9.12,9.12,0,0,0-3.48,1.69A5.2,5.2,0,0,0,61.46,510a6,6,0,0,0-.52,2.55c0,.23,0,.47,0,.71a1,1,0,0,0,.15.43,1.93,1.93,0,0,0,.59.54,8.22,8.22,0,0,0,1.77.83,33.48,33.48,0,0,0,10.65,1.54,36.5,36.5,0,0,0,9.23-1.1,15.19,15.19,0,0,0,2.7-1,4.43,4.43,0,0,0,.8-.52,1.64,1.64,0,0,0,.28-.31,1,1,0,0,0,.15-.43c0-.24,0-.48,0-.71A5.54,5.54,0,0,0,86.44,509.32Zm-16.37-3.13a2.91,2.91,0,0,0,.68-.63,1.48,1.48,0,0,0,.33-.9v-2.35l-.13-.15a6.85,6.85,0,0,1-2-3.64l-.06-.3-.28-.1a1.91,1.91,0,0,1-.43-.21,1.72,1.72,0,0,1-.52-.64,8.29,8.29,0,0,1-.59-1.6,3,3,0,0,1-.12-.77.9.9,0,0,1,.08-.42.42.42,0,0,1,.25-.21.55.55,0,0,1,.21,0l.53,0v-2.72a6.14,6.14,0,0,1,.07-.87c1.18,1.69,3.43,3.29,7.19,3.93a37.76,37.76,0,0,1-1.4-5s2.52,3.67,6.32,4.06v.6l.53,0a.59.59,0,0,1,.31.08.51.51,0,0,1,.15.17.9.9,0,0,1,.08.42,3,3,0,0,1-.12.77,6.79,6.79,0,0,1-.77,1.9,1.36,1.36,0,0,1-.34.34,1.8,1.8,0,0,1-.44.21l-.28.1,0,.3a6.91,6.91,0,0,1-2,3.64l-.13.15v2.35a1.47,1.47,0,0,0,.31.88,3.37,3.37,0,0,0,1.06.88c.2.11.4.21.61.3l-2,2a6.27,6.27,0,0,1-3,.73,6.37,6.37,0,0,1-3-.71l-2-2A6,6,0,0,0,70.07,506.19Z"/><path class="cls-8" d="M67.24,498.54s.58,6.56-1.84,8.51c0,0,7.13-.88,5-4.47l-2.07-4.07-1.23-.87Z"/><path class="cls-8" d="M81,498.54s-.58,6.56,1.84,8.51c0,0-7.13-.88-5-4.47l2.06-4.07,1.24-.87Z"/><path class="cls-8" d="M122.66,509.73a6,6,0,0,0-2.76-2.33c-1-.47-2-.72-2.63-.95a5.42,5.42,0,0,1-1.38-.76,2.11,2.11,0,0,1-.42-.44.58.58,0,0,1-.12-.31v-1.43a7.66,7.66,0,0,0,1.94-3.58,1.87,1.87,0,0,0,.39-.22,2.53,2.53,0,0,0,.81-1,8.64,8.64,0,0,0,.64-1.73,3.63,3.63,0,0,0,.16-1,1.87,1.87,0,0,0,0-.42c4.51-5.8-2.25-13.4-7.25-12.52-3.92-1-7.45,2.45-8.84,5.49-1.13,2.46-.75,5.85.44,7a2.06,2.06,0,0,0,0,.44,3.63,3.63,0,0,0,.16,1,6.68,6.68,0,0,0,.88,2.12,2.2,2.2,0,0,0,.57.57,1.87,1.87,0,0,0,.39.22,7.66,7.66,0,0,0,1.94,3.58v1.43a.59.59,0,0,1-.13.31,2.75,2.75,0,0,1-.76.69,5.71,5.71,0,0,1-1,.51c-.41.14-1,.3-1.64.53a7.82,7.82,0,0,0-3,1.72,5.39,5.39,0,0,0-1.52,4c0,.23,0,.46,0,.71a.9.9,0,0,0,.13.38,1.86,1.86,0,0,0,.5.51,6.88,6.88,0,0,0,1.53.8,27.43,27.43,0,0,0,9.78,1.52,30.37,30.37,0,0,0,8.52-1.09,11.55,11.55,0,0,0,2.35-1,3.74,3.74,0,0,0,.69-.5,1.68,1.68,0,0,0,.24-.29.9.9,0,0,0,.13-.38c0-.25,0-.48,0-.71A5.67,5.67,0,0,0,122.66,509.73Zm-7-3,.07,0L114,511l-2.07-2.59,3-2.22A3.56,3.56,0,0,0,115.66,506.73Zm-9.2-7.25,0-.28-.26-.09a1.49,1.49,0,0,1-.42-.21,1.56,1.56,0,0,1-.5-.61,8.16,8.16,0,0,1-.57-1.54,2.71,2.71,0,0,1-.12-.74.88.88,0,0,1,.08-.41.46.46,0,0,1,.24-.2l.18,0,.22.05.59,1.76.33-1.56,1.72-2.47a11.87,11.87,0,0,1-.44,2.24c3.29-1.06,4.15-2.29,4.32-2.61l-1.08,2.16s3.76-1.12,4.43-2.68l-.72,2.4s2-.56,2.34-1.45c.2-.51.22.17.21.85h0v3.13l.84-1.8h0a.64.64,0,0,1,.29.09.36.36,0,0,1,.15.15.88.88,0,0,1,.08.41,2.71,2.71,0,0,1-.12.74,6.16,6.16,0,0,1-.74,1.82,1.28,1.28,0,0,1-.33.33,1.57,1.57,0,0,1-.41.21l-.27.09,0,.28a6.72,6.72,0,0,1-1.9,3.51l-.13.14v1.81a1.43,1.43,0,0,0,.17.65l-3.1,2.28-3.11-2.28a1.43,1.43,0,0,0,.17-.65v-1.81l-.13-.14A6.72,6.72,0,0,1,106.46,499.48Zm1.08,7,.35-.32,3,2.22L108.84,511l-1.72-4.19Z"/><text class="cls-10" transform="translate(294.75 513.4)">歳</text><path class="cls-2" d="M156.25,463.74a28.31,28.31,0,0,1,9.56,1.43,13.41,13.41,0,0,1,6.09,4.1,10.08,10.08,0,0,1,2.14,6.51,10.31,10.31,0,0,1-1.16,5,9.4,9.4,0,0,1-3,3.36,10.5,10.5,0,0,1-4.1,1.64,9.59,9.59,0,0,1-4.24-.17,18,18,0,0,1,4.59.66,15.42,15.42,0,0,1,4.76,2.24,12.2,12.2,0,0,1,3.75,4.27,14,14,0,0,1,1.47,6.76,16.27,16.27,0,0,1-2.28,8.64,18.67,18.67,0,0,1-6.12,6.16,26.51,26.51,0,0,1-8.65,3.43,33.13,33.13,0,0,1-9.87.56,29.57,29.57,0,0,1-9.69-2.55l.14-.7a28,28,0,0,0,8.19-1,21.46,21.46,0,0,0,6.82-3.33,16.41,16.41,0,0,0,4.69-5.32,14.22,14.22,0,0,0,1.72-7,10.82,10.82,0,0,0-2-6.83,11.74,11.74,0,0,0-5-3.74,15.86,15.86,0,0,0-6-1.19l.14-.7a11.36,11.36,0,0,0,10.22-5.85,10.18,10.18,0,0,0,1.19-6.12,7.56,7.56,0,0,0-1.47-4.17,6.66,6.66,0,0,0-3.12-2.2,9.27,9.27,0,0,0-3.95-.42,6.87,6.87,0,0,0-6,3.67q-1.75,3.33-1.61,9.91h-.7l-4-12.11A19.85,19.85,0,0,1,146,465.1,35.49,35.49,0,0,1,156.25,463.74Z"/><path class="cls-2" d="M187,516.24l-.28-.49a44.67,44.67,0,0,0,11.73-5.18,18.81,18.81,0,0,0,6.19-6.51,22,22,0,0,0,2.45-8.23,97.67,97.67,0,0,0,.49-10.39q0-5.82-.28-9.7a14.3,14.3,0,0,0-1.36-5.81,3.88,3.88,0,0,0-3.68-1.92,4.68,4.68,0,0,0-3.92,1.71,10.2,10.2,0,0,0-1.82,4.45,34.35,34.35,0,0,0-.49,5.95,33.27,33.27,0,0,0,.46,6.23,8.39,8.39,0,0,0,1.26,3.32,4.28,4.28,0,0,0,4.76,1.72,9.9,9.9,0,0,0,2.27-1l.49.56a8.45,8.45,0,0,1-3.08,3.57,11.88,11.88,0,0,1-4.83,1.82,14.18,14.18,0,0,1-5.53-.25,12.82,12.82,0,0,1-8.89-7.52,17.67,17.67,0,0,1-1.26-7.7,18.35,18.35,0,0,1,2.31-8.54,15.57,15.57,0,0,1,6.65-6.16A25.31,25.31,0,0,1,202,463.81q10.29-.15,15.79,5.46t5.49,17.64a37.47,37.47,0,0,1-2.24,13.4,23.83,23.83,0,0,1-6.79,9.84,26.71,26.71,0,0,1-11.34,5.56A45,45,0,0,1,187,516.24Z"/><path class="cls-2" d="M234.86,514.56a6.28,6.28,0,1,1,4.48-1.86A6,6,0,0,1,234.86,514.56Z"/><path class="cls-2" d="M278.68,463.6l.63,5.18L254.39,493h28a4.86,4.86,0,0,0,2.94-.74,5.38,5.38,0,0,0,1.61-2.06h.7l-2.17,10.15H242.56v-.7Zm.7,45.5a3.6,3.6,0,0,0,1.16,2.66,3.78,3.78,0,0,0,2.69,1.12H284v.7H260.34l.07-.7h.7a3.87,3.87,0,0,0,2.77-1.09A3.53,3.53,0,0,0,265,509.1ZM265,478.72l13.65-15.12h.7v49.91H265Z"/><text class="cls-10" transform="translate(253.85 119.65)">人</text><path class="cls-2" d="M134.37,70a28,28,0,0,1,9.56,1.44A13.58,13.58,0,0,1,150,75.51,10.11,10.11,0,0,1,152.15,82a10.31,10.31,0,0,1-1.15,5A9.42,9.42,0,0,1,148,90.42a10.63,10.63,0,0,1-4.09,1.65,9.44,9.44,0,0,1-4.24-.18,18.06,18.06,0,0,1,4.59.67A15.3,15.3,0,0,1,149,94.8a12.19,12.19,0,0,1,3.74,4.27,14,14,0,0,1,1.47,6.75,16.39,16.39,0,0,1-2.27,8.65,18.6,18.6,0,0,1-6.13,6.16,26.46,26.46,0,0,1-8.64,3.43,33.47,33.47,0,0,1-9.87.56,29.82,29.82,0,0,1-9.7-2.56l.14-.7a27.3,27.3,0,0,0,8.19-1,21.28,21.28,0,0,0,6.83-3.32,16.53,16.53,0,0,0,4.69-5.32,14.25,14.25,0,0,0,1.71-7,10.78,10.78,0,0,0-2-6.82,11.85,11.85,0,0,0-5-3.75,16.11,16.11,0,0,0-6-1.19l.14-.7a11.32,11.32,0,0,0,10.22-5.84,10.07,10.07,0,0,0,1.19-6.13,7.48,7.48,0,0,0-1.47-4.16,6.7,6.7,0,0,0-3.11-2.21,9.32,9.32,0,0,0-4-.42,6.89,6.89,0,0,0-6,3.68q-1.74,3.33-1.61,9.9h-.7l-4-12.11a20.17,20.17,0,0,1,7.21-3.6A35.55,35.55,0,0,1,134.37,70Z"/><path class="cls-2" d="M165.1,122.48l-.28-.49a44.49,44.49,0,0,0,11.73-5.18,18.64,18.64,0,0,0,6.19-6.51,21.87,21.87,0,0,0,2.45-8.22,97.87,97.87,0,0,0,.49-10.4q0-5.81-.28-9.69A14.26,14.26,0,0,0,184,76.18a3.89,3.89,0,0,0-3.68-1.93A4.68,4.68,0,0,0,176.44,76a10.11,10.11,0,0,0-1.82,4.44,34.44,34.44,0,0,0-.49,6,32.36,32.36,0,0,0,.46,6.23,8.38,8.38,0,0,0,1.26,3.33,4.29,4.29,0,0,0,4.76,1.71,9.48,9.48,0,0,0,2.27-1l.49.56a8.33,8.33,0,0,1-3.08,3.57,11.74,11.74,0,0,1-4.83,1.82,14.37,14.37,0,0,1-5.53-.24A12.8,12.8,0,0,1,161,94.83a17.64,17.64,0,0,1-1.26-7.7,18.42,18.42,0,0,1,2.31-8.54,15.64,15.64,0,0,1,6.65-6.16,25.44,25.44,0,0,1,11.41-2.38q10.29-.14,15.79,5.46t5.49,17.64a37.49,37.49,0,0,1-2.24,13.41,23.8,23.8,0,0,1-6.79,9.83A26.61,26.61,0,0,1,181.06,122,45.07,45.07,0,0,1,165.1,122.48Z"/><path class="cls-2" d="M243.36,68.44l.28.49a44.74,44.74,0,0,0-11.72,5.18,18.85,18.85,0,0,0-6.2,6.51,22.16,22.16,0,0,0-2.45,8.23,97.8,97.8,0,0,0-.49,10.39q0,5.82.28,9.7a13.86,13.86,0,0,0,1.4,5.81,3.89,3.89,0,0,0,3.64,1.92A4.66,4.66,0,0,0,232,115a10.07,10.07,0,0,0,1.82-4.48,39.43,39.43,0,0,0,0-12.15A9.1,9.1,0,0,0,232.65,95a4.13,4.13,0,0,0-1.82-1.51,4.31,4.31,0,0,0-2.94-.21,10.08,10.08,0,0,0-2.31,1l-.56-.56a8,8,0,0,1,3.12-3.6A12.39,12.39,0,0,1,233,88.32a14.38,14.38,0,0,1,5.53.25,12.82,12.82,0,0,1,8.89,7.49,17.62,17.62,0,0,1,1.26,7.73,17.91,17.91,0,0,1-2.34,8.54,15.62,15.62,0,0,1-6.65,6.13,26.2,26.2,0,0,1-11.38,2.41,24.85,24.85,0,0,1-11.62-2.34,15.75,15.75,0,0,1-7.21-7.6Q207,105.76,207,97.77a37.69,37.69,0,0,1,2.24-13.4,24,24,0,0,1,6.79-9.84A26.75,26.75,0,0,1,227.44,69,44.91,44.91,0,0,1,243.36,68.44Z"/><text class="cls-11" transform="translate(137.37 39.78)">従業員数</text><path class="cls-8" d="M69.74,77.07a5.51,5.51,0,1,1,5.51-5.51A5.5,5.5,0,0,1,69.74,77.07ZM57.38,84.21v18.51a2.42,2.42,0,1,0,4.83,0V87.5h1.12v41.33a3.18,3.18,0,1,0,6.35,0v-24h1v24a3.18,3.18,0,1,0,6.36,0V87.5h1.11v15.22a2.42,2.42,0,1,0,4.83,0V84.21a6.2,6.2,0,0,0-5.57-5.58H63A6.2,6.2,0,0,0,57.38,84.21Z"/></g></g></svg>