<svg xmlns="http://www.w3.org/2000/svg" viewBox="0 0 335 570.9"><defs><style>.cls-1{fill:#fff;}.cls-2,.cls-4{fill:#4aa064;}.cls-3,.cls-5{fill:#333;}.cls-4,.cls-5{fill-rule:evenodd;}.cls-6{isolation:isolate;}</style></defs><g id="レイヤー_2" data-name="レイヤー 2"><g id="pc"><path class="cls-1" d="M2.5,2.5h330V568.4H2.5Z"/><path class="cls-2" d="M330,5V565.9H5V5Zm5-5H0V570.9H335Z"/><path class="cls-3" d="M295.58,255.21c-.07,0-.16-.11-.1-.15,3.82-2.72,5.29-5.7,5.29-10.83a8.52,8.52,0,0,0-.07-1.18c1.84.17,2,.21,2,.48s-.07.2-.49.39c0,.44,0,.86-.06,1.29A11,11,0,0,0,303.8,250a9.38,9.38,0,0,0,4.57,3.67c.07,0,.07.15,0,.16a1.29,1.29,0,0,0-.93,1c-.08.24-.14.3-.26.3a1.83,1.83,0,0,1-.73-.41,11.26,11.26,0,0,1-3.48-4.51,13.89,13.89,0,0,1-.86-3.75C301.59,250.94,299.72,253.32,295.58,255.21Z"/><path class="cls-2" d="M228.26,226.69a16,16,0,0,1,5.46.82,7.71,7.71,0,0,1,3.48,2.34,5.76,5.76,0,0,1,1.22,3.72,5.89,5.89,0,0,1-.66,2.88,5.38,5.38,0,0,1-1.74,1.92,6.11,6.11,0,0,1-2.34.94,5.46,5.46,0,0,1-2.42-.1,10.36,10.36,0,0,1,2.62.38,8.65,8.65,0,0,1,2.72,1.28,6.89,6.89,0,0,1,2.14,2.44,8,8,0,0,1,.84,3.86,9.29,9.29,0,0,1-1.3,4.94,10.61,10.61,0,0,1-3.5,3.52,15.17,15.17,0,0,1-4.94,2,18.94,18.94,0,0,1-5.64.32,16.89,16.89,0,0,1-5.54-1.46l.08-.4a15.57,15.57,0,0,0,4.68-.6,12.21,12.21,0,0,0,3.9-1.9,9.37,9.37,0,0,0,2.68-3,8.15,8.15,0,0,0,1-4,6.15,6.15,0,0,0-1.14-3.9,6.73,6.73,0,0,0-2.84-2.14,9.18,9.18,0,0,0-3.42-.68l.08-.4a6.36,6.36,0,0,0,3.4-.86,6.46,6.46,0,0,0,2.44-2.48,5.78,5.78,0,0,0,.68-3.5,4.26,4.26,0,0,0-.84-2.38,3.8,3.8,0,0,0-1.78-1.26,5.31,5.31,0,0,0-2.26-.24,3.92,3.92,0,0,0-3.4,2.1,12,12,0,0,0-.92,5.66h-.4l-2.28-6.92a11.5,11.5,0,0,1,4.12-2.06A20.28,20.28,0,0,1,228.26,226.69Z"/><path class="cls-2" d="M255,226.61a11.9,11.9,0,0,1,6.68,1.82,11.75,11.75,0,0,1,4.24,5.08,20.51,20.51,0,0,1,0,15.3,11.69,11.69,0,0,1-4.24,5.1,13.13,13.13,0,0,1-13.34,0,11.66,11.66,0,0,1-4.26-5.1,20.51,20.51,0,0,1,0-15.3,11.72,11.72,0,0,1,4.26-5.08A11.9,11.9,0,0,1,255,226.61Zm0,2q-2.08,0-3,3.06a34.36,34.36,0,0,0-1,9.5,34.36,34.36,0,0,0,1,9.5q1,3.06,3,3.06t3-3.06a34.36,34.36,0,0,0,1-9.5,34.36,34.36,0,0,0-1-9.5Q257.06,228.61,255,228.61Z"/><path class="cls-2" d="M279.94,226.69a16,16,0,0,1,5.46.82,7.71,7.71,0,0,1,3.48,2.34,5.76,5.76,0,0,1,1.22,3.72,5.89,5.89,0,0,1-.66,2.88,5.38,5.38,0,0,1-1.74,1.92,6.11,6.11,0,0,1-2.34.94,5.46,5.46,0,0,1-2.42-.1,10.36,10.36,0,0,1,2.62.38,8.65,8.65,0,0,1,2.72,1.28,6.89,6.89,0,0,1,2.14,2.44,8,8,0,0,1,.84,3.86,9.29,9.29,0,0,1-1.3,4.94,10.61,10.61,0,0,1-3.5,3.52,15.17,15.17,0,0,1-4.94,2,18.94,18.94,0,0,1-5.64.32,16.89,16.89,0,0,1-5.54-1.46l.08-.4a15.57,15.57,0,0,0,4.68-.6,12.21,12.21,0,0,0,3.9-1.9,9.37,9.37,0,0,0,2.68-3,8.15,8.15,0,0,0,1-4,6.15,6.15,0,0,0-1.14-3.9,6.73,6.73,0,0,0-2.84-2.14,9.18,9.18,0,0,0-3.42-.68l.08-.4a6.36,6.36,0,0,0,3.4-.86,6.46,6.46,0,0,0,2.44-2.48,5.78,5.78,0,0,0,.68-3.5,4.26,4.26,0,0,0-.84-2.38,3.8,3.8,0,0,0-1.78-1.26,5.31,5.31,0,0,0-2.26-.24,3.92,3.92,0,0,0-3.4,2.1,12,12,0,0,0-.92,5.66h-.4L270,229.53a11.5,11.5,0,0,1,4.12-2.06A20.28,20.28,0,0,1,279.94,226.69Z"/><path class="cls-3" d="M295.58,354.94c-.07,0-.16-.11-.1-.15,3.82-2.72,5.29-5.7,5.29-10.83a8.52,8.52,0,0,0-.07-1.18c1.84.17,2,.21,2,.48s-.07.2-.49.39c0,.44,0,.86-.06,1.29a11,11,0,0,0,1.61,4.81,9.38,9.38,0,0,0,4.57,3.67c.07,0,.07.15,0,.16a1.29,1.29,0,0,0-.93,1c-.08.24-.14.3-.26.3a1.83,1.83,0,0,1-.73-.41A11.26,11.26,0,0,1,303,350a13.89,13.89,0,0,1-.86-3.75C301.59,350.67,299.72,353.05,295.58,354.94Z"/><path class="cls-2" d="M222.78,354.9l0-.4h.84a2.12,2.12,0,0,0,1.56-.64,2.06,2.06,0,0,0,.64-1.52V332.06a2.7,2.7,0,0,0-.72-2.16,2.9,2.9,0,0,0-1.92-.6h-.72v-.4c.56,0,1.31-.1,2.26-.22s2-.28,3.06-.48a29.49,29.49,0,0,0,3.18-.76,11.67,11.67,0,0,0,2.62-1.1h.4v26a2,2,0,0,0,.66,1.5,2.19,2.19,0,0,0,1.54.62h.84v.4Z"/><path class="cls-2" d="M242.94,354.9l0-.4h.84a2.12,2.12,0,0,0,1.56-.64,2.06,2.06,0,0,0,.64-1.52V332.06a2.7,2.7,0,0,0-.72-2.16,2.9,2.9,0,0,0-1.92-.6h-.72v-.4c.56,0,1.31-.1,2.26-.22s2-.28,3.06-.48a29.49,29.49,0,0,0,3.18-.76,11.67,11.67,0,0,0,2.62-1.1h.4v26a2,2,0,0,0,.66,1.5,2.19,2.19,0,0,0,1.54.62h.84v.4Z"/><path class="cls-2" d="M263.1,354.9l0-.4H264a2.12,2.12,0,0,0,1.56-.64,2.06,2.06,0,0,0,.64-1.52V332.06a2.7,2.7,0,0,0-.72-2.16,2.9,2.9,0,0,0-1.92-.6h-.72v-.4c.56,0,1.31-.1,2.26-.22s2-.28,3.06-.48a29.49,29.49,0,0,0,3.18-.76,11.67,11.67,0,0,0,2.62-1.1h.4v26a2,2,0,0,0,.66,1.5,2.19,2.19,0,0,0,1.54.62h.84v.4Z"/><path class="cls-2" d="M158.57,463.63a28,28,0,0,1,9.55,1.44,13.4,13.4,0,0,1,6.09,4.09,10.08,10.08,0,0,1,2.14,6.51,10.31,10.31,0,0,1-1.16,5,9.4,9.4,0,0,1-3,3.36,10.68,10.68,0,0,1-4.1,1.65,9.68,9.68,0,0,1-4.23-.18,17.94,17.94,0,0,1,4.58.66,15.22,15.22,0,0,1,4.76,2.25,12,12,0,0,1,3.75,4.27,13.93,13.93,0,0,1,1.47,6.75,16.25,16.25,0,0,1-2.28,8.64,18.79,18.79,0,0,1-6.12,6.17,26.28,26.28,0,0,1-8.65,3.42,32.81,32.81,0,0,1-9.87.56,29.57,29.57,0,0,1-9.69-2.55l.14-.7a27.39,27.39,0,0,0,8.19-1,21.65,21.65,0,0,0,6.82-3.32,16.62,16.62,0,0,0,4.69-5.32,14.26,14.26,0,0,0,1.72-7,10.77,10.77,0,0,0-2-6.82,11.69,11.69,0,0,0-5-3.75,16.06,16.06,0,0,0-6-1.19l.14-.7a11.32,11.32,0,0,0,10.22-5.84,10.23,10.23,0,0,0,1.19-6.13,7.42,7.42,0,0,0-1.47-4.16,6.61,6.61,0,0,0-3.12-2.21,9.27,9.27,0,0,0-4-.42,6.87,6.87,0,0,0-5.95,3.67q-1.75,3.33-1.61,9.91h-.7l-4-12.11a20.17,20.17,0,0,1,7.21-3.61A35.86,35.86,0,0,1,158.57,463.63Z"/><path class="cls-2" d="M189.29,516.13l-.28-.49a44.67,44.67,0,0,0,11.73-5.18,18.64,18.64,0,0,0,6.19-6.51,22,22,0,0,0,2.45-8.23,97.48,97.48,0,0,0,.5-10.39c0-3.87-.1-7.11-.29-9.69a14.35,14.35,0,0,0-1.36-5.82,3.88,3.88,0,0,0-3.68-1.92,4.68,4.68,0,0,0-3.92,1.71,10.2,10.2,0,0,0-1.82,4.45,34.35,34.35,0,0,0-.49,5.95,33.2,33.2,0,0,0,.46,6.23,8.51,8.51,0,0,0,1.26,3.33,4.29,4.29,0,0,0,4.76,1.71,9.9,9.9,0,0,0,2.27-1l.49.56a8.33,8.33,0,0,1-3.08,3.57,11.88,11.88,0,0,1-4.83,1.82,14.31,14.31,0,0,1-5.52-.24,13.25,13.25,0,0,1-5.15-2.52,13.07,13.07,0,0,1-3.75-5,17.67,17.67,0,0,1-1.26-7.7,18.39,18.39,0,0,1,2.31-8.54,15.57,15.57,0,0,1,6.65-6.16,25.44,25.44,0,0,1,11.41-2.38q10.29-.13,15.79,5.46t5.5,17.64a37.47,37.47,0,0,1-2.25,13.4,23.77,23.77,0,0,1-6.79,9.84,26.59,26.59,0,0,1-11.34,5.56A44.82,44.82,0,0,1,189.29,516.13Z"/><path class="cls-2" d="M237.17,514.45a6.31,6.31,0,0,1-4.44-10.78,6.37,6.37,0,0,1,8.92,0,6.32,6.32,0,0,1-4.48,10.78Z"/><path class="cls-2" d="M265.45,463.63a28,28,0,0,1,9.56,1.44,13.4,13.4,0,0,1,6.09,4.09,10.07,10.07,0,0,1,2.13,6.51,10.31,10.31,0,0,1-1.15,5,9.42,9.42,0,0,1-3.05,3.36,10.63,10.63,0,0,1-4.09,1.65,9.73,9.73,0,0,1-4.24-.18,18,18,0,0,1,4.59.66,15.22,15.22,0,0,1,4.76,2.25,12,12,0,0,1,3.74,4.27,13.93,13.93,0,0,1,1.47,6.75,16.24,16.24,0,0,1-2.27,8.64,18.73,18.73,0,0,1-6.13,6.17,26.14,26.14,0,0,1-8.64,3.42,32.81,32.81,0,0,1-9.87.56,29.62,29.62,0,0,1-9.7-2.55l.14-.7a27.3,27.3,0,0,0,8.19-1,21.6,21.6,0,0,0,6.83-3.32,16.62,16.62,0,0,0,4.69-5.32,14.25,14.25,0,0,0,1.71-7,10.76,10.76,0,0,0-2-6.82,11.69,11.69,0,0,0-5-3.75,16.07,16.07,0,0,0-6-1.19l.14-.7a11.32,11.32,0,0,0,10.22-5.84,10.08,10.08,0,0,0,1.19-6.13,7.42,7.42,0,0,0-1.47-4.16,6.58,6.58,0,0,0-3.11-2.21,9.32,9.32,0,0,0-4-.42,6.88,6.88,0,0,0-5.95,3.67q-1.74,3.33-1.61,9.91H252l-4-12.11a20.34,20.34,0,0,1,7.21-3.61A35.91,35.91,0,0,1,265.45,463.63Z"/><path class="cls-2" d="M0,383.7H335v1.8H0Z"/><path class="cls-4" d="M108.8,276,25.4,287.7A84.21,84.21,0,0,1,97,192.6a92,92,0,0,1,11.7-.8Z"/><path class="cls-5" d="M108.8,276V191.8a84.2,84.2,0,1,1,0,168.4c-42.8,0-77.4-30.1-83.4-72.5Z"/><path class="cls-1" d="M88.2,252.2a2.09,2.09,0,0,1,1.9.8,3.14,3.14,0,0,1,.5,2.1,3,3,0,0,1-1,2.1,3.31,3.31,0,0,1-2.3.7,2.09,2.09,0,0,1-1.9-.8,2.78,2.78,0,0,1-.4-2.2,3.09,3.09,0,0,1,1.1-2,3.14,3.14,0,0,1,2.1-.7Zm0,.7q-.3,0-.6.6a4.71,4.71,0,0,0-.4,1.6,4.3,4.3,0,0,0,0,1.6c.1.4.2.6.4.6a1,1,0,0,0,.7-.6,7.49,7.49,0,0,0,.4-1.6,4.3,4.3,0,0,0,0-1.6C88.5,253.1,88.4,252.9,88.2,252.9ZM87.9,264l-.7-.3,5.5-10.4a1.61,1.61,0,0,1-.9.3H91a1.93,1.93,0,0,1-1-.3l-.8-.4a1.18,1.18,0,0,0-.8-.1l-.2-.6a3.4,3.4,0,0,1,1,.1c.2.1.5.1.7.2l.6.3c.2.1.4.1.6.2a2,2,0,0,0,.8-.1,4.88,4.88,0,0,0,.7-.3l.6-.3.6.3Zm6.1-5.8a2.36,2.36,0,0,1,1.9.8,3,3,0,0,1,.5,2.1,2.81,2.81,0,0,1-1,2.1,3.41,3.41,0,0,1-2.4.7,2.09,2.09,0,0,1-1.9-.8,2.78,2.78,0,0,1-.4-2.2,3.09,3.09,0,0,1,1.1-2A3.41,3.41,0,0,1,94,258.2Zm-.2.7q-.3,0-.6.6a9.36,9.36,0,0,0-.4,1.6,8.6,8.6,0,0,0-.1,1.6c.1.4.2.6.4.6a1,1,0,0,0,.7-.6,4.19,4.19,0,0,0,.4-1.6,4.3,4.3,0,0,0,0-1.6C94.2,259.1,94,258.9,93.8,258.9Z"/><path class="cls-1" d="M51.7,251.2,50,246.5a7.24,7.24,0,0,1,1.9-1.1,21.72,21.72,0,0,1,2.4-.7,10.55,10.55,0,0,1,2.5-.2,12.09,12.09,0,0,1,3.8.6,6.77,6.77,0,0,1,2.6,1.8,4.27,4.27,0,0,1,1,2.9,5.93,5.93,0,0,1-.5,2.3,9,9,0,0,1-1.4,2c-.6.6-1.2,1.2-1.9,1.8a24.26,24.26,0,0,1-2,1.4l-1.8,1.1h4.9a3.19,3.19,0,0,0,1.4-.3,4.7,4.7,0,0,0,1.2-.9,13,13,0,0,0,1-1.5h.3L63.6,263H50.1v-.3c.8-.9,1.5-1.8,2.3-2.8s1.6-1.8,2.3-2.7,1.4-1.8,2-2.7a11.48,11.48,0,0,0,1.4-2.7,7.51,7.51,0,0,0,.5-2.6,3.46,3.46,0,0,0-.9-2.6,2.43,2.43,0,0,0-2.4-.8,3,3,0,0,0-2.5,1.5,7.62,7.62,0,0,0-.8,3.9Z"/><path class="cls-1" d="M67.2,245l13.8-.1-3.3,7.7a17.08,17.08,0,0,0-.7,1.8c-.2.7-.5,1.5-.8,2.3s-.5,1.6-.8,2.4l-.7,2.2c-.2.7-.4,1.3-.5,1.7H69.8c.3-.5.7-1.1,1.1-1.9s.9-1.5,1.3-2.4l1.4-2.5a17.09,17.09,0,0,0,1.2-2.3c.3-.7.7-1.3.9-1.8l1.4-2.9H68.7a1.75,1.75,0,0,0-1.2.4,2.4,2.4,0,0,0-.7,1.2h-.3Z"/><path class="cls-1" d="M159.5,299.5a2.09,2.09,0,0,1,1.9.8,3.14,3.14,0,0,1,.5,2.1,3,3,0,0,1-1,2.1,4.07,4.07,0,0,1-2.4.8,2.09,2.09,0,0,1-1.9-.8,2.78,2.78,0,0,1-.4-2.2,3.09,3.09,0,0,1,1.1-2,3,3,0,0,1,2.2-.8Zm-.1.7q-.3,0-.6.6a4.71,4.71,0,0,0-.4,1.6,4.3,4.3,0,0,0,0,1.6c.1.4.2.6.4.6a1,1,0,0,0,.7-.6,7.49,7.49,0,0,0,.4-1.6,4.3,4.3,0,0,0,0-1.6c-.1-.4-.3-.6-.5-.6Zm-.2,11.1-.7-.3,5.5-10.5a1.61,1.61,0,0,1-.9.3h-.8a1.93,1.93,0,0,1-1-.3c-.3-.1-.5-.3-.8-.4a1.18,1.18,0,0,0-.8-.1l-.2-.6a3.4,3.4,0,0,1,1,.1c.2.1.5.1.7.3l.6.3a1.27,1.27,0,0,0,.6.1,2,2,0,0,0,.8-.1,4.88,4.88,0,0,0,.7-.3l.6-.3.6.3Zm6.1-5.8a2.36,2.36,0,0,1,1.9.8,3,3,0,0,1,.5,2.1,2.81,2.81,0,0,1-1,2.1,4.07,4.07,0,0,1-2.4.8,2.09,2.09,0,0,1-1.9-.8,2.78,2.78,0,0,1-.4-2.2,3.09,3.09,0,0,1,1.1-2,3,3,0,0,1,2.2-.8Zm-.2.7q-.3,0-.6.6a9.36,9.36,0,0,0-.4,1.6,8.6,8.6,0,0,0-.1,1.6c.1.4.2.6.4.6a1,1,0,0,0,.7-.6,4.19,4.19,0,0,0,.4-1.6,4.3,4.3,0,0,0,0-1.6c-.1-.4-.2-.6-.4-.6Z"/><path class="cls-1" d="M123,292.3h13.8l-3.3,7.7a17.08,17.08,0,0,0-.7,1.8c-.2.7-.5,1.5-.8,2.3s-.5,1.6-.8,2.4l-.7,2.2c-.2.7-.4,1.3-.5,1.7h-4.4c.3-.5.7-1.1,1.1-1.9s.9-1.5,1.3-2.4.9-1.7,1.4-2.5a17.09,17.09,0,0,0,1.2-2.3c.3-.7.7-1.3.9-1.8l1.4-2.9h-8.3a1.75,1.75,0,0,0-1.2.4,2.4,2.4,0,0,0-.7,1.2h-.3Z"/><path class="cls-1" d="M144.3,291.9a14.87,14.87,0,0,1,3.6.5,5.13,5.13,0,0,1,2.3,1.5,4.07,4.07,0,0,1,.8,2.4,4.33,4.33,0,0,1-.4,1.9,4.26,4.26,0,0,1-1.1,1.2,4.71,4.71,0,0,1-1.5.6,2.92,2.92,0,0,1-1.6-.1,9.85,9.85,0,0,1,1.7.2,7.1,7.1,0,0,1,1.8.8,4.28,4.28,0,0,1,1.4,1.6,5.42,5.42,0,0,1,.6,2.5,6.2,6.2,0,0,1-.9,3.2,7.22,7.22,0,0,1-2.3,2.3,12.66,12.66,0,0,1-3.2,1.3,11.38,11.38,0,0,1-3.7.2,9.25,9.25,0,0,1-3.6-1l.1-.3a10.32,10.32,0,0,0,3-.4,9.65,9.65,0,0,0,2.5-1.2,5.51,5.51,0,0,0,1.7-2,4.75,4.75,0,0,0,.6-2.6,4.3,4.3,0,0,0-.7-2.5,4.5,4.5,0,0,0-1.9-1.4,5.7,5.7,0,0,0-2.2-.4v-.3a4.29,4.29,0,0,0,3.8-2.2,3.66,3.66,0,0,0,.4-2.3,2,2,0,0,0-.6-1.5,2.1,2.1,0,0,0-1.1-.8,3.89,3.89,0,0,0-1.5-.2,2.4,2.4,0,0,0-2.2,1.4,7.81,7.81,0,0,0-.6,3.7h-.3l-1.5-4.5a6.78,6.78,0,0,1,2.7-1.3,25.61,25.61,0,0,1,3.9-.3Z"/><g class="cls-6"><path class="cls-1" d="M69.2,225.9a10.1,10.1,0,0,1-1.8,4.1c2,.8,3.1,1.7,3.1,2.4,0,.5-.2.8-.6.8-.2,0-.4-.1-.7-.4a16.38,16.38,0,0,0-2.5-2.1,9.51,9.51,0,0,1-6,2.5c-.1,0-.1-.2,0-.2a9.83,9.83,0,0,0,5.1-2.9,12.44,12.44,0,0,0-2-1,2.19,2.19,0,0,1-.3.5c-.2.2-.3.3-.5.3-.4,0-.7-.1-.7-.3a.76.76,0,0,1,.2-.4,23.75,23.75,0,0,0,1.6-3.2h-2a5.74,5.74,0,0,0-1.2.1l-.1-.4a6.15,6.15,0,0,0,1.3.1h2.1a1.45,1.45,0,0,0,.2-.7,11.57,11.57,0,0,0,.6-2.6c1.4.3,1.6.3,1.6.5s-.1.2-.5.3c-.3.9-.5,1.7-.8,2.4h4.3c.6-.8.8-.9.9-.9s.2.1.8.6c.3.2.4.3.4.4s0,.1-.2.1Zm-3.8,0a25.5,25.5,0,0,1-1.3,2.9c1,.3,1.7.5,2.3.7a9.71,9.71,0,0,0,1.6-3.6Z"/><path class="cls-1" d="M76.4,226.1c0,.8-.3,1.4-.9,1.4a.56.56,0,0,1-.5-.6.71.71,0,0,1,.3-.6,1.49,1.49,0,0,0,.7-1.5c0-.1.1-.1.1,0a3.08,3.08,0,0,1,.3,1.3Zm1.4-1.5v8.2c0,.4-.2.5-.6.5s-.5-.1-.5-.4c0-.9.1-3.6.1-9.1a6.18,6.18,0,0,0-.1-1.5c1.5.2,1.5.2,1.5.3s-.1.2-.4.3Zm.8,1.8c-.3,0-.4-.2-.4-.7a2.13,2.13,0,0,0-.3-1.2.1.1,0,0,1,.1-.1c.7.4,1.1.9,1.1,1.4S78.9,226.4,78.6,226.4Zm4.3,2.4h.8c.6-.8.7-.9.8-.9s.2.1.8.6c.3.2.4.3.4.4s0,.1-.2.1H82.8v3.3h1.3c.6-.8.8-.9.9-.9s.2.1.9.6c.3.2.4.3.4.4s0,.1-.2.1H79.5a3.75,3.75,0,0,0-1,.1l-.1-.4a4.1,4.1,0,0,0,1.1.1h2.2V229H80.3a2.49,2.49,0,0,0-.8.1l-.1-.4a2.77,2.77,0,0,0,.9.1h1.5V226H80.4a6.9,6.9,0,0,1-1.8,2.4l-.1-.1a14.28,14.28,0,0,0,1.2-3.1c.1-.6.2-1.1.3-1.7,1.5.4,1.5.4,1.5.6s0,.2-.4.3c-.2.5-.3,1-.5,1.4h1.3v-1.6a8.12,8.12,0,0,0-.1-1.7c1.5.1,1.7.3,1.7.4s-.1.2-.4.3v2.6h1.2c.5-.7.7-.8.8-.8s.2.1.8.6c.3.2.3.3.3.4s0,.1-.2.1H83v2.7Z"/></g><g class="cls-6"><path class="cls-1" d="M137.1,277a4.33,4.33,0,0,1-1.1,2,6.32,6.32,0,0,1-4.2,1.8c-.1,0-.1-.1,0-.1a6.71,6.71,0,0,0,3.1-1.8A4.53,4.53,0,0,0,136,277h-2.7a3.75,3.75,0,0,0-1,.1l-.1-.5a4.48,4.48,0,0,0,1.1.1h2.8a5.9,5.9,0,0,0,.2-1.4c1.2.1,1.5.2,1.5.4s-.1.2-.4.3c0,.3-.1.5-.1.7h3.1c.4-.5.5-.5.6-.5s.2.1.6.5l.3.3c0,.1,0,.1-.3.3a7.93,7.93,0,0,1-.7,2.8,2.65,2.65,0,0,1-.6.5,2,2,0,0,1-.8.1.27.27,0,0,1-.3-.3c-.1-.5-.3-.6-1.4-.9-.1,0,0-.2,0-.2a14.89,14.89,0,0,0,1.7.1c.3,0,.5-.1.7-.5a6.33,6.33,0,0,0,.4-2.1Zm-3-1.8c0,.3-.2.5-.6.5s-.5-.1-.5-.4v-2.8a16.2,16.2,0,0,0-.1-2.2,7.54,7.54,0,0,1,1.3.6h5.5c.4-.5.5-.5.6-.5s.2.1.7.4c.2.2.3.2.3.3s0,.2-.3.4v.6c0,1.6.1,2.8.1,3.1s-.2.5-.7.5c-.3,0-.5-.1-.5-.4V275h-5.8Zm2.3-2.5V271h-2.3v1.6h2.3Zm-2.3,2h2.3V273h-2.3Zm5.8-3.7h-2.4v1.6h2.4Zm0,1.9h-2.4v1.7h2.4Z"/><path class="cls-1" d="M147.1,273.7c0,.8-.3,1.4-.9,1.4a.56.56,0,0,1-.5-.6.71.71,0,0,1,.3-.6,1.49,1.49,0,0,0,.7-1.5c0-.1.1-.1.1,0a3.45,3.45,0,0,1,.3,1.3Zm1.4-1.5v8.2c0,.4-.2.5-.6.5s-.5-.1-.5-.4c0-.9.1-3.6.1-9.1a6.18,6.18,0,0,0-.1-1.5c1.5.2,1.5.2,1.5.3s-.1.2-.4.3Zm.8,1.9c-.3,0-.4-.2-.4-.7a2.13,2.13,0,0,0-.3-1.2.1.1,0,0,1,.1-.1c.7.4,1.1.9,1.1,1.4a.56.56,0,0,1-.5.6Zm4.3,2.3h.8c.6-.8.7-.9.8-.9s.2.1.8.6c.3.2.4.3.4.4s0,.1-.2.1h-2.7v3.3h1.3c.6-.8.8-.9.9-.9s.2.1.9.6c.3.2.4.3.4.4s0,.1-.2.1h-6.6a3.75,3.75,0,0,0-1,.1l-.1-.4a4.1,4.1,0,0,0,1.1.1h2.2v-3.3H151a2.49,2.49,0,0,0-.8.1l-.1-.4a2.77,2.77,0,0,0,.9.1h1.5v-2.8h-1.4a6.9,6.9,0,0,1-1.8,2.4l-.1-.1a14.28,14.28,0,0,0,1.2-3.1c.1-.6.2-1.1.3-1.7,1.5.4,1.5.4,1.5.6s0,.2-.4.3c-.2.5-.3,1-.5,1.4h1.3v-1.6a8.12,8.12,0,0,0-.1-1.7c1.5.1,1.7.3,1.7.4s-.1.2-.4.3v2.6H155c.5-.7.7-.8.8-.8s.2.1.8.6c.3.2.3.3.3.4s0,.1-.2.1h-3v2.7Z"/></g><path class="cls-3" d="M264.1,214.3l2.8-24.3H221.4l-2.7,24.3Z"/><g class="cls-6"><path class="cls-1" d="M235.8,204.4a4.89,4.89,0,0,1-1,1.9,6.45,6.45,0,0,1-4,1.7c-.1,0-.1-.1,0-.1a5.9,5.9,0,0,0,2.9-1.7,4,4,0,0,0,1-1.8h-2.6a2.77,2.77,0,0,0-.9.1l-.2-.5a3.75,3.75,0,0,0,1,.1h2.7a5.9,5.9,0,0,0,.2-1.4c1.2.1,1.4.2,1.4.4s-.1.2-.4.3c0,.2-.1.5-.1.7h2.9c.4-.4.5-.5.6-.5s.2.1.6.4c.2.2.3.2.3.3s0,.1-.3.3c-.3,1.6-.4,2.3-.7,2.6a1.47,1.47,0,0,1-.6.5,2,2,0,0,1-.8.1c-.2,0-.3-.1-.3-.2-.1-.4-.3-.6-1.3-.9-.1,0,0-.2,0-.2a13.61,13.61,0,0,0,1.6.1.75.75,0,0,0,.7-.4,9.49,9.49,0,0,0,.4-2Zm-2.8-1.7c0,.3-.2.4-.6.4s-.5-.1-.5-.4V200a14.77,14.77,0,0,0-.1-2.1,4.49,4.49,0,0,1,1.2.6h5.3c.4-.4.5-.5.6-.5s.2.1.6.4q.3.15.3.3c0,.1,0,.2-.3.4v.6c0,1.5.1,2.6.1,3s-.2.5-.6.5-.5-.1-.5-.4v-.3H233Zm2.1-2.4v-1.6H233v1.6Zm-2.1,1.9h2.2v-1.6H233Zm5.5-3.5h-2.3v1.6h2.3Zm0,1.8h-2.3v1.6h2.3Z"/><path class="cls-1" d="M245.3,201.3c0,.7-.3,1.3-.8,1.3-.3,0-.5-.2-.5-.6a.71.71,0,0,1,.3-.6,1.33,1.33,0,0,0,.7-1.4c0-.1.1-.1.1,0A6.88,6.88,0,0,1,245.3,201.3Zm1.3-1.4v7.8c0,.3-.2.5-.6.5s-.5-.1-.5-.4c0-.9.1-3.4.1-8.6a4.92,4.92,0,0,0-.1-1.4c1.4.2,1.4.2,1.4.3s-.1.2-.4.3v1.5Zm.8,1.7c-.3,0-.4-.1-.4-.7a1.8,1.8,0,0,0-.3-1.1.1.1,0,0,1,.1-.1c.7.4,1,.8,1,1.3s-.2.6-.4.6Zm4,2.3h.8c.5-.7.7-.8.8-.8s.2.1.8.6c.3.2.3.3.3.4s0,.1-.1.1h-2.5v3.2h1.3c.6-.7.7-.8.8-.8s.2.1.8.6c.3.2.4.3.4.4s0,.1-.1.1h-6.3a3.75,3.75,0,0,0-1,.1l-.1-.4a3.75,3.75,0,0,0,1,.1h2.1v-3.2H249a2,2,0,0,0-.7.1l-.1-.4a2.49,2.49,0,0,0,.8.1h1.4v-2.6H249a6.2,6.2,0,0,1-1.7,2.2l-.1-.1a10.21,10.21,0,0,0,1.1-2.9,8.75,8.75,0,0,0,.2-1.6c1.4.4,1.4.4,1.4.5s0,.1-.4.3a5,5,0,0,1-.5,1.3h1.2v-1.6a7.12,7.12,0,0,0-.1-1.6c1.5.1,1.6.3,1.6.4s-.1.2-.4.3v2.5h1.2c.5-.7.6-.8.7-.8s.2.1.7.5c.2.2.3.3.3.4s0,.1-.1.1h-2.8v2.5Z"/></g><path class="cls-3" d="M307.9,209.8a6.12,6.12,0,0,0-.7-1.7,7.56,7.56,0,0,0-1.9-2.1,10.42,10.42,0,0,0-1.8-1c-.9-.4-1.8-.8-2.7-1.1a14.72,14.72,0,0,1-2.2-1c-.2-.1-.4-.3-.6-.4a4.35,4.35,0,0,1-.6-.7,3.18,3.18,0,0,1-.3-.9v-.7a12.25,12.25,0,0,1,.2-1.9,9.06,9.06,0,0,0,1.1-1.6,14.72,14.72,0,0,0,1-2.2l.6-.3a3.74,3.74,0,0,0,1.2-1.3,6,6,0,0,0,.8-2.1,1.7,1.7,0,0,0,.1-.7,3.44,3.44,0,0,0-.8-2.2q.15-.6.3-1.5a13.33,13.33,0,0,0,.3-2.8,13.55,13.55,0,0,0-.2-2,8.8,8.8,0,0,0-.5-1.5,5.58,5.58,0,0,0-1.4-2,5.32,5.32,0,0,0-2.2-1.2,13.58,13.58,0,0,0-1.2-1.2,6.06,6.06,0,0,0-2.1-1.1,8.33,8.33,0,0,0-2.2-.3h-1.2c-.4,0-.7.1-.9.1l-1.1.3a6.89,6.89,0,0,0-1,.4c-.1.1-.4.1-.6.3a8.64,8.64,0,0,0-1.6,1,8.94,8.94,0,0,0-2.6,2.9,8.49,8.49,0,0,0-.9,2.2,12.59,12.59,0,0,0-.4,2.7,12.25,12.25,0,0,0,.2,1.9v1l.2.7a7,7,0,0,0-.6.9,8.33,8.33,0,0,0-.4,1.5,1.7,1.7,0,0,0,.1.7,8.8,8.8,0,0,0,.5,1.5,9.06,9.06,0,0,0,1.1,1.6,3.59,3.59,0,0,0,1,.7,14.72,14.72,0,0,0,1,2.2,5.72,5.72,0,0,0,1.1,1.6,11.08,11.08,0,0,1,.2,1.9v.7a1.42,1.42,0,0,1-.2.6,2.18,2.18,0,0,1-.5.8,2.36,2.36,0,0,1-.9.6l-1.2.6c-.8.3-1.7.6-2.6,1a12.44,12.44,0,0,0-2,1,7.1,7.1,0,0,0-1.4,1,6.34,6.34,0,0,0-1.6,2.3,9.6,9.6,0,0,0-.6,3.3.9.9,0,0,0,.1.5c.1.1.1.3.2.4a2.34,2.34,0,0,0,.7.7,7.5,7.5,0,0,0,2,1,24.43,24.43,0,0,0,5.2,1.2,56.42,56.42,0,0,0,8.2.5,59.53,59.53,0,0,0,7.3-.4,27.94,27.94,0,0,0,4-.7,18.66,18.66,0,0,0,2.2-.7,6.72,6.72,0,0,0,1.2-.6c.2-.1.5-.3.7-.4a5,5,0,0,0,.8-.7.76.76,0,0,0,.2-.4.9.9,0,0,0,.1-.5,6.17,6.17,0,0,0-.2-2.4Zm-17.7.6-4.9-6.2a3,3,0,0,0,.7-.5,4.62,4.62,0,0,0,.7-.7l3.5,1.6-.8,1.2,1.2,1.2Zm-3-8.2c.1-.3.2-.7.3-1.1v-.9a9.86,9.86,0,0,0-.3-2.4v-.2l-.1-.1a7.1,7.1,0,0,1-1-1.4,16,16,0,0,1-1-2.3l-.1-.3-.3-.1-.6-.3a2.36,2.36,0,0,1-.8-.9,8.65,8.65,0,0,1-.7-1.7v-.4a2.92,2.92,0,0,1,.2-.9,2.65,2.65,0,0,1,.5-.6,3.11,3.11,0,0,0,.7.9c.3.3.2.2.3.1a36.09,36.09,0,0,0,2.2-4.1c3.7.8,10.2-4.8,10.2-4.8a7.11,7.11,0,0,0,1.3,3.4c1.2,1.6,1.9,5.2,1.9,5.2a7.23,7.23,0,0,0,.4-.7c.1.2.3.3.3.5a1.88,1.88,0,0,1,.2.8v.4a5.64,5.64,0,0,1-.4,1.2,4.44,4.44,0,0,1-.8,1.1,4.05,4.05,0,0,1-.9.5l-.3.1-.1.3a22.88,22.88,0,0,1-1,2.3,7.1,7.1,0,0,1-1,1.4l-.1.1v.2a9.69,9.69,0,0,0-.3,2.3v.9a3.55,3.55,0,0,0,.2,1v.1l-4.2,2.2Zm6.2,8.4-.5-3.4,1.2-1.2-.8-1.3,3.2-1.7.3.3a4.44,4.44,0,0,0,1.1.8Z"/><path class="cls-2" d="M264.1,313l2.8-24.3H221.4L218.7,313Z"/><path class="cls-3" d="M306.9,306.2a7.76,7.76,0,0,0-4.1-3,9.65,9.65,0,0,0-2.1-.6,6,6,0,0,1-1.6-.5,7.57,7.57,0,0,1-1.8-.9,1.21,1.21,0,0,1-.5-.5.37.37,0,0,1-.1-.3V298a10.39,10.39,0,0,0,2.5-4.6c.2-.1.3-.2.5-.3a3.78,3.78,0,0,0,1-1.2,9.75,9.75,0,0,0,.8-2.2,5.85,5.85,0,0,0,.2-1.3,2,2,0,0,0-.3-1.1,1.76,1.76,0,0,0-.9-.8c1.4-7.3-2.9-12.9-8.6-12.6-5.2-1.2-8.5-.9-9,3.8a5.52,5.52,0,0,0,.1,3.8,9.25,9.25,0,0,0-.4,2.9v2.2a1.67,1.67,0,0,0-1.1.9,2,2,0,0,0-.3,1.1,5.85,5.85,0,0,0,.2,1.3,9.61,9.61,0,0,0,1.1,2.8,2.34,2.34,0,0,0,.7.7c.2.1.3.2.5.3a10.39,10.39,0,0,0,2.5,4.6v2.4c0,.1-.1.2-.1.3a3.92,3.92,0,0,1-1,.8c-.4.2-.9.4-1.4.6a16.22,16.22,0,0,1-2.2.6,11.51,11.51,0,0,0-4.3,2.1,5,5,0,0,0-1.6,2.2,7,7,0,0,0-.6,3.2v.9a.76.76,0,0,0,.2.5,2.34,2.34,0,0,0,.7.7,8.75,8.75,0,0,0,2.2,1,39.83,39.83,0,0,0,13.2,1.9,44.71,44.71,0,0,0,11.5-1.4,19.57,19.57,0,0,0,3.4-1.2,8.79,8.79,0,0,0,1-.6,1.38,1.38,0,0,0,.3-.4c.1-.2.2-.3.2-.5v-.9a6.7,6.7,0,0,0-.8-4.3Zm-20.3-3.9a6.47,6.47,0,0,0,.9-.8,1.5,1.5,0,0,0,.4-1.1v-2.9l-.2-.2a8.77,8.77,0,0,1-2.5-4.5l-.1-.4-.4-.1a2.19,2.19,0,0,1-.5-.3,1.56,1.56,0,0,1-.6-.8,6.79,6.79,0,0,1-.7-2,3.55,3.55,0,0,1-.2-1,.75.75,0,0,1,.1-.5l.3-.3h1v-3.3a4.1,4.1,0,0,1,.1-1.1c1.5,2.1,4.3,4.1,9,4.9a43.69,43.69,0,0,1-1.7-6.2s3.1,4.6,7.9,5v.7h.7a.6.6,0,0,1,.4.1.22.22,0,0,1,.2.2.9.9,0,0,1,.1.5,3.55,3.55,0,0,1-.2,1,8.18,8.18,0,0,1-1,2.4c-.1.2-.3.3-.4.4a2.19,2.19,0,0,0-.5.3l-.4.1-.1.4a8.12,8.12,0,0,1-2.5,4.5l-.2.2v2.9a1.5,1.5,0,0,0,.4,1.1,6.89,6.89,0,0,0,1.3,1.1,5.94,5.94,0,0,0,.8.4l-2.5,2.5a8.19,8.19,0,0,1-3.8.9,7.79,7.79,0,0,1-3.7-.9l-2.5-2.5c.3-.2.7-.4,1.1-.7Z"/><path class="cls-3" d="M283,292.8s.7,8.1-2.3,10.6c0,0,8.9-1.1,6.2-5.6l-2.6-5-1.5-1.1Z"/><path class="cls-3" d="M300.2,292.8s-.7,8.1,2.3,10.6c0,0-8.9-1.1-6.2-5.6l2.6-5,1.5-1.1Z"/><g class="cls-6"><path class="cls-1" d="M238.5,299.8a9.69,9.69,0,0,1-1.7,3.9c1.9.8,3,1.6,3,2.3,0,.5-.2.7-.5.7a.72.72,0,0,1-.6-.4,14.13,14.13,0,0,0-2.4-2,9.38,9.38,0,0,1-5.7,2.4c-.1,0-.1-.2,0-.2a10.12,10.12,0,0,0,4.9-2.7,17.38,17.38,0,0,0-1.9-1c-.1.2-.2.3-.3.5s-.3.3-.5.3c-.4,0-.7-.1-.7-.3s.1-.2.2-.4a20.86,20.86,0,0,0,1.5-3h-1.9a4.48,4.48,0,0,0-1.1.1l-.1-.4a5.28,5.28,0,0,0,1.2.1h2a1.42,1.42,0,0,0,.2-.6,11,11,0,0,0,.6-2.5c1.4.3,1.5.3,1.5.5s-.1.2-.4.3a15.55,15.55,0,0,1-.8,2.3h4.1c.6-.7.7-.8.8-.8s.2.1.8.6c.3.2.3.3.3.4s0,.1-.1.1h-2.4Zm-3.7,0c-.3.9-.8,1.9-1.2,2.8a19.38,19.38,0,0,1,2.2.7,8.47,8.47,0,0,0,1.5-3.5Z"/><path class="cls-1" d="M245.3,300c0,.7-.3,1.3-.8,1.3-.3,0-.5-.2-.5-.6a.71.71,0,0,1,.3-.6,1.33,1.33,0,0,0,.7-1.4c0-.1.1-.1.1,0a6.88,6.88,0,0,1,.2,1.3Zm1.3-1.4v7.8c0,.3-.2.5-.6.5s-.5-.1-.5-.4c0-.9.1-3.4.1-8.6a4.92,4.92,0,0,0-.1-1.4c1.4.2,1.4.2,1.4.3s-.1.2-.4.3v1.5Zm.8,1.7c-.3,0-.4-.1-.4-.7a1.8,1.8,0,0,0-.3-1.1.1.1,0,0,1,.1-.1c.7.4,1,.8,1,1.3s-.2.6-.4.6Zm4,2.3h.8c.5-.7.7-.8.8-.8s.2.1.8.6c.3.2.3.3.3.4s0,.1-.1.1h-2.5v3.2h1.3c.6-.7.7-.8.8-.8s.2.1.8.6c.3.2.4.3.4.4s0,.1-.1.1h-6.3a3.75,3.75,0,0,0-1,.1l-.1-.4a3.75,3.75,0,0,0,1,.1h2.1V303H249a2,2,0,0,0-.7.1l-.1-.4a2.49,2.49,0,0,0,.8.1h1.4v-2.6H249a6.2,6.2,0,0,1-1.7,2.2l-.1-.1a10.21,10.21,0,0,0,1.1-2.9,8.75,8.75,0,0,0,.2-1.6c1.4.4,1.4.4,1.4.5s0,.1-.4.3a5,5,0,0,1-.5,1.3h1.2v-1.6a7.12,7.12,0,0,0-.1-1.6c1.5.1,1.6.3,1.6.4s-.1.2-.4.3v2.5h1.2c.5-.7.6-.8.7-.8s.2.1.7.5c.2.2.3.3.3.4s0,.1-.1.1h-2.8v2.5Z"/></g><g class="cls-6"><path class="cls-3" d="M118.7,157.5a11.16,11.16,0,0,1-2.1,4.7c2.3,1,3.6,2,3.6,2.8q0,.9-.6.9c-.3,0-.4-.1-.8-.4a21.52,21.52,0,0,0-2.9-2.5,11.28,11.28,0,0,1-7,2.9c-.1,0-.1-.2,0-.2a12.17,12.17,0,0,0,6-3.4c-.8-.4-1.5-.8-2.4-1.2a2.09,2.09,0,0,1-.4.6c-.2.3-.3.4-.6.4-.5,0-.9-.2-.9-.4a1.69,1.69,0,0,1,.2-.5,21.28,21.28,0,0,0,1.8-3.7h-2.3a6.15,6.15,0,0,0-1.3.1l-.2-.5a8.08,8.08,0,0,0,1.5.1h2.5c.1-.3.2-.5.3-.8a19.62,19.62,0,0,0,.8-3c1.7.3,1.8.4,1.8.6s-.1.3-.5.4c-.3,1-.6,1.9-.9,2.8h5.1c.7-.9.9-1,1-1s.3.1,1,.7c.3.3.4.4.4.5s0,.1-.2.1Zm-4.6,0a20.65,20.65,0,0,1-1.5,3.4,23,23,0,0,1,2.7.8,13.27,13.27,0,0,0,1.9-4.2Z"/><path class="cls-3" d="M127,157.7c0,.9-.3,1.7-1,1.7-.4,0-.6-.3-.6-.7a.75.75,0,0,1,.4-.7c.6-.4.8-.7.9-1.7,0-.1.1-.1.1,0A5.9,5.9,0,0,1,127,157.7Zm1.7-1.7v9.6c0,.4-.2.6-.8.6-.4,0-.6-.1-.6-.5,0-1.1.1-4.2.1-10.6a8.66,8.66,0,0,0-.1-1.8c1.8.2,1.8.2,1.8.4s-.1.2-.4.4Zm.9,2.1c-.4,0-.4-.2-.4-.8a2.12,2.12,0,0,0-.4-1.4c0-.1,0-.1.1-.1.9.5,1.3,1,1.3,1.7-.1.3-.3.6-.6.6Zm5,2.8h1c.7-.9.8-1,.9-1s.3.1,1,.7c.3.3.4.4.4.5s0,.1-.2.1h-3.1v3.9h1.6c.7-.9.9-1,1-1s.3.1,1,.7c.3.3.4.4.4.5s0,.1-.2.1h-7.8a5.28,5.28,0,0,0-1.2.1l-.2-.5a5.74,5.74,0,0,0,1.2.1H133v-3.9h-1.7a3.08,3.08,0,0,0-.9.1l-.2-.5a3.75,3.75,0,0,0,1,.1h1.7v-3.2h-1.7a7.89,7.89,0,0,1-2.1,2.7c-.1,0-.2-.1-.1-.1a14.19,14.19,0,0,0,1.4-3.6,6.93,6.93,0,0,0,.3-2c1.8.5,1.8.5,1.8.7s0,.2-.5.3c-.2.6-.4,1.1-.6,1.6h1.5v-1.9a10.93,10.93,0,0,0-.1-2c1.8.2,2,.3,2,.5s-.2.3-.5.4v3h1.4c.6-.9.8-1,.9-1s.3.1.9.7c.3.3.4.4.4.5s0,.1-.2.1h-3.5v3.3Z"/><path class="cls-3" d="M143.9,160.1a15.26,15.26,0,0,1-1.6,1.1c-.1,0-.1-.1-.1-.2a16.58,16.58,0,0,0,2.3-3.1,7.09,7.09,0,0,0,.7-1.6c1.4.7,1.5.7,1.5.9s-.1.2-.5.3a8.35,8.35,0,0,1-1.2,1.6c.5.1.6.1.6.3s-.1.2-.4.3v5.8c0,.4-.2.6-.7.6-.3,0-.6-.1-.6-.5s.1-1.5.1-3.7v-1.8Zm2-5.7a9.37,9.37,0,0,1-3.5,2.9c-.1,0-.2-.1-.1-.1a11.78,11.78,0,0,0,1.9-2.5,4.71,4.71,0,0,0,.6-1.5c1.1.4,1.7.7,1.7.9s-.1.3-.6.3Zm5.2,10a8.81,8.81,0,0,0,1.7.2,12.87,12.87,0,0,0,2.5-.2c.1,0,.1.1,0,.2-.4.2-.5.4-.6.9-.1.3-.1.4-.2.4h-.4a8,8,0,0,1-4.2-.8,4.64,4.64,0,0,1-2-2.6,7.56,7.56,0,0,1-2.5,3.4c-.1,0-.2-.1-.1-.2a10.17,10.17,0,0,0,1.9-6.2v-.7c1.4.2,1.7.3,1.7.5s-.1.2-.4.3a15,15,0,0,1-.4,2.4,4.14,4.14,0,0,0,1.8,1.9v-6.8h-2.2a2.2,2.2,0,0,0-.8.1l-.2-.5a3.44,3.44,0,0,0,.9.1h3.1a18.61,18.61,0,0,0,1-2.5,3.55,3.55,0,0,0,.2-1c1.4.5,1.8.7,1.8.9s-.1.2-.5.2a11.62,11.62,0,0,1-1.9,2.3H153c.6-.8.8-.9.9-.9s.3.1.9.6a1.2,1.2,0,0,1,.4.4c0,.1,0,.1-.2.1h-3.8V160h1.3c.6-.7.8-.9.9-.9s.3.1.9.6c.3.2.4.3.4.4s0,.1-.2.1h-3.2v4.2Zm-2.1-8c-.4,0-.4-.1-.6-1.1a5.93,5.93,0,0,0-.7-1.6c0-.1,0-.2.1-.1,1.4.5,2.1,1.2,2.1,1.9-.1.5-.4.9-.9.9Z"/><path class="cls-3" d="M166.2,162a7.44,7.44,0,0,0,2.3,1.4,10.58,10.58,0,0,0,3.7.8c.1,0,.1.1,0,.2-.5.2-.6.3-1,1.2-.1.1-.1.2-.2.2a4.08,4.08,0,0,1-.7-.2,8.87,8.87,0,0,1-2.5-1.4,10.22,10.22,0,0,1-1.8-1.8c0,1.8.1,3.1.1,3.5s-.2.5-.8.5c-.4,0-.5-.2-.5-.5s.1-1.7.1-2.9a10.26,10.26,0,0,1-5.5,2.8.1.1,0,0,1-.1-.1,11.77,11.77,0,0,0,4.7-3.6h-3.3a3.75,3.75,0,0,0-1,.1l-.2-.5a4.48,4.48,0,0,0,1.1.1h4.3v-1.3H162a3.75,3.75,0,0,0-1,.1l-.2-.5a4.48,4.48,0,0,0,1.1.1h2.8v-1.3h-3.5a3.75,3.75,0,0,0-1,.1l-.2-.5a4.48,4.48,0,0,0,1.1.1h2.3c-.2-.1-.3-.2-.4-.6a2.92,2.92,0,0,0-.7-1.2c-.1,0,0-.1.1-.1,1.3.2,1.9.6,1.9,1.3a.75.75,0,0,1-.5.7h2.3c.3-.5.4-.9.6-1.2l.3-.9c1.1.4,1.6.7,1.6.8s-.1.2-.6.2a5.27,5.27,0,0,1-1.4,1h2.3c.7-.7.8-.8.9-.8s.3.1.9.6c.3.2.4.3.4.4s0,.1-.2.1h-5v1.3h2.2c.6-.7.8-.8.9-.8s.3.1.8.5c.2.2.3.3.3.4s0,.1-.2.1h-4v1.3h3.5c.7-.8.9-.9,1-.9s.3.1.9.6c.3.2.4.4.4.5s0,.1-.2.1Zm-2.6-7.7a2.51,2.51,0,0,0-.1-1c1.6.2,1.7.3,1.7.4s-.1.2-.4.4v2H166v-1.8a2.51,2.51,0,0,0-.1-1c1.6.2,1.8.3,1.8.4s-.1.2-.5.4v2h.6c.3-.6.6-1.1.8-1.6l.3-.9c1.2.5,1.7.7,1.7.9s-.1.3-.6.3a5.91,5.91,0,0,1-1.7,1.3h1.6c.6-.7.8-.8.9-.8s.3.1.9.6c.3.2.4.3.4.4s0,.1-.2.1H160.6a3.75,3.75,0,0,0-1,.1l-.2-.5a4.91,4.91,0,0,0,1.1.1h3.1Zm-1.5,1.5c-.3,0-.4-.1-.6-.5a3.22,3.22,0,0,0-.8-1.4c-.1,0,0-.1.1-.1,1.3.2,2,.7,2,1.3A.75.75,0,0,1,162.1,155.8Z"/><path class="cls-3" d="M181,164.8a11.92,11.92,0,0,1-4.6,1.2c-.1,0-.1-.1,0-.2a18.28,18.28,0,0,0,2.8-1.4,9,9,0,0,0,1-.9c1.3.6,1.6.8,1.6,1s-.3.3-.8.3Zm-1.8-1.5c0,.4-.2.6-.8.6-.4,0-.6-.1-.6-.5,0-.6.1-1.3.1-3.6a26.2,26.2,0,0,0-.1-2.8c.7.3.8.4,1.5.7h6.3c.5-.5.6-.6.7-.6s.3.1.8.5c.3.2.3.3.3.4s-.1.2-.4.4v.9c0,2,.1,3.4.1,3.9s-.2.6-.8.6c-.4,0-.6-.1-.6-.5Zm.7-6.7c0,.4-.3.5-.8.5-.3,0-.6-.1-.6-.4v-3.2c.7.3.9.4,1.5.7h5c.5-.5.6-.6.7-.6s.3.1.8.5c.2.2.3.3.3.4s-.1.2-.4.4v1.7c0,.4-.3.5-.8.5s-.6-.1-.6-.5Zm5.9,1.5h-6.6v1.4h6.6Zm-6.6,3.1h6.6v-1.4h-6.6Zm0,1.7h6.6v-1.4h-6.6Zm5.9-8.4h-5.3v1.7h5.3Zm2.2,11.6c-.3,0-.4-.1-.8-.4a6.59,6.59,0,0,0-3-1.7c-.1,0,0-.2.1-.2,3.1.1,4.3.6,4.3,1.6,0,.4-.2.7-.6.7Z"/><path class="cls-3" d="M195.9,163.7c1.1-.3,2.2-.6,3.4-1,.1,0,.1.1.1.2a19.4,19.4,0,0,1-5.2,2.5c-.1.4-.2.5-.4.5s-.3-.3-.8-1.7c.3,0,.6-.1.9-.1s.4-.1.7-.1v-8.6a7.63,7.63,0,0,0-.1-1.7c1.7.2,1.9.3,1.9.4s-.1.2-.5.4v3.7h1.4c.7-.8.9-.9,1-.9s.3.1.9.6c.3.2.4.4.4.5s0,.1-.2.1H196v5.2Zm5.2-4.4a9.52,9.52,0,0,0,2.1-1.9c.4-.5.7-1,1-1.4,1.1.7,1.6,1,1.6,1.2s-.1.3-.7.2a15.4,15.4,0,0,1-3.9,2.3v4.2c0,.6.1.6,1.7.6.7,0,.9,0,1.2-.2s.6-.8,1-2.2c0-.1.2-.1.2,0,0,.6-.1,1.5-.1,1.8s0,.2.2.3.4.3.4.5c0,.4-.3.7-.9.8a10.61,10.61,0,0,1-2.1.2c-2.5,0-3-.2-3-1.6v-1.6c0-2.9,0-5.9-.1-8.8,1.5.2,1.8.2,1.8.4s-.1.3-.4.4Z"/><path class="cls-3" d="M216.6,162.9v2.8c0,.3-.3.5-.8.5s-.6-.1-.6-.5.1-1.1.1-2.8H211a3.75,3.75,0,0,0-1,.1l-.2-.5a4.91,4.91,0,0,0,1.1.1h4.4v-.1a8.08,8.08,0,0,0-.1-1.6c1.6.2,1.8.2,1.8.4s-.1.2-.5.4v.8H220c.7-.9.9-1,1-1s.3.1,1,.7c.3.3.4.4.4.5s0,.1-.2.1h-5.6ZM211,161q0,.6-.3.6c-.2,0-.4-.3-.9-1.5l1.2-.3a14.47,14.47,0,0,0,2.5-1c.1,0,.2.1.1.2A10.63,10.63,0,0,1,211,161Zm4.3-5.7c1,.4,1.3.5,1.3.7s0,.2-.5.2a11,11,0,0,1-1.2,1.1c.3.3.5.5.5.9s-.2.7-.6.7-.4-.1-.6-.7a2.8,2.8,0,0,0-.9-1.3c-.1,0,0-.1.1-.1a3.58,3.58,0,0,1,1.1.4c.1-.3.3-.5.4-.8l.3-.9H211a3.75,3.75,0,0,0-1,.1l-.2-.5a4.48,4.48,0,0,0,1.1.1h4.2v-1a2.49,2.49,0,0,0-.1-.8c1.7.2,1.9.3,1.9.5s-.2.3-.5.4v.9h3.3c.8-.8.9-1,1-1s.3.1.9.7c.3.3.4.4.4.5s0,.1-.2.1h-6.5Zm-3.1,3.2c-.4,0-.5-.1-.7-.9a3.18,3.18,0,0,0-.9-1.5c-.1-.1,0-.1.1-.1,1.5.4,2.3,1,2.3,1.7-.1.4-.4.8-.8.8Zm5.3,1.4a2.1,2.1,0,0,0-.6-.8c0-.1,0-.1.1-.1,1.2.4,1.9,1,1.9,1.7a.68.68,0,0,1-.7.7c-.3,0-.4-.1-.6-.9,0-.1-.1-.2-.1-.3a15.41,15.41,0,0,1-3.7.9c-.1.3-.1.4-.2.4s-.3-.2-.6-1.5h1.4a18.76,18.76,0,0,0,1.8-2.4,10.91,10.91,0,0,1,.6-1.1c1.2.6,1.4.8,1.4,1s0,.2-.6.2c-1.3,1.2-2,1.9-2.6,2.4a11,11,0,0,1,2.5-.2Zm3.4-2.9a10.68,10.68,0,0,1-2.7,1.6c-.1,0-.2-.1-.1-.1a12.7,12.7,0,0,0,1.4-1.7,3.09,3.09,0,0,0,.5-1c1.1.6,1.4.8,1.4,1s0,.2-.5.2Zm0,4.2c-.3,0-.5-.1-.9-.8a4.36,4.36,0,0,0-1.3-1.4c-.1,0,0-.2.1-.1,1.9.3,2.8.8,2.8,1.6-.1.4-.3.7-.7.7Z"/></g><g class="cls-6"><path class="cls-3" d="M139.8,419.1h3.3c.8-1,1-1.1,1.1-1.1s.3.1,1.1.8c.4.3.5.4.5.5s0,.1-.2.1h-5.8v.2c0,2.7.1,3.8.1,4.9q0,.6-.9.6c-.4,0-.6-.1-.6-.5s.1-2.6.1-5v-.2h-4.1a6.15,6.15,0,0,0-1.3.1l-.2-.5a8.08,8.08,0,0,0,1.5.1h4.1v-5.5H135a6.15,6.15,0,0,0-1.3.1l-.2-.5a7.6,7.6,0,0,0,1.4.1h7.8c.7-.9.9-1,1-1s.3.1,1,.7c.3.3.4.4.4.5s0,.1-.2.1h-5.2v5.5Zm-3.6-.9c-.4,0-.5-.2-.7-1a6.3,6.3,0,0,0-1-2.7.1.1,0,0,1,.1-.1c1.6.9,2.4,1.9,2.4,2.9a.82.82,0,0,1-.8.9Zm7.5-2.8a9,9,0,0,1-3.1,3.3c-.1,0-.2-.1-.1-.1a13.08,13.08,0,0,0,1.7-3.1,9.29,9.29,0,0,0,.4-1.3c1.2.5,1.7.8,1.7,1s-.2.1-.6.2Z"/><path class="cls-3" d="M154.5,416.6a13,13,0,0,0,1-2.5,6.72,6.72,0,0,0,.3-1.8c1.6.4,1.9.5,1.9.7s-.1.3-.5.3c-.3.6-.5,1.2-.8,1.7h4.1c.5-.6.6-.7.8-.7s.3.1.8.6c.3.2.3.3.3.4s0,.1-.4.4c-.1,4.1-.2,6-.6,7.5a3.46,3.46,0,0,1-.7,1.2,2.11,2.11,0,0,1-1.3.5c-.3,0-.3,0-.4-.4s-.5-.8-1.6-1.1c-.1,0-.1-.2,0-.2,1.1.1,1.4.1,1.6.1.6,0,.8,0,.9-.3.5-.9.7-2.9.8-7.8h-4.4a9.81,9.81,0,0,1-2.5,2.8c-.1,0-.2,0-.1-.1a6,6,0,0,0,.8-1.3c-.1.1-.1.1-.2.1h-1.6v3.8c.6-.2,1.3-.4,1.8-.6a.1.1,0,0,1,.1.1,21.71,21.71,0,0,1-3.9,2.5q0,.6-.3.6c-.2,0-.5-.5-.9-1.7a3.46,3.46,0,0,0,1.2-.3c.3-.1.5-.1.8-.2v-4.2h-.9a2,2,0,0,0-.7.1l-.2-.5a2.49,2.49,0,0,0,.8.1h1v-2.2a8.62,8.62,0,0,0-.1-1.7c1.7.2,1.8.3,1.8.5s-.2.3-.5.4v3h.1c.4-.7.6-.8.7-.8s.3.1.7.5a.91.91,0,0,1,.3.5Zm.8,5.8q0,.6-.3.6c-.2,0-.4-.3-.9-1.7a7.38,7.38,0,0,0,1.2-.2,22.64,22.64,0,0,0,4.3-1.1.1.1,0,0,1,.1.1,20.12,20.12,0,0,1-4.4,2.3Zm2.2-4.5c.6-.7.7-.8.8-.8s.3.1.8.6c.2.2.3.3.3.4s0,.1-.2.1h-3.7a1.27,1.27,0,0,0-.6.1l-.2-.5a2,2,0,0,0,.7.1Z"/><path class="cls-3" d="M176.6,420.8c.8-.9.9-1,1-1s.3.1,1,.7c.3.3.4.4.4.5s0,.1-.2.1H174v3.5c0,.4-.3.6-.8.6s-.6-.1-.6-.5.1-1.4.1-3.6h-4.9a3.75,3.75,0,0,0-1,.1l-.2-.5a4.91,4.91,0,0,0,1.1.1h1.2v-1.9a14.77,14.77,0,0,0-.1-2.1,10.09,10.09,0,0,1,1.5.7h2.3v-2.6H170a8.66,8.66,0,0,1-3.2,3.1c-.1,0-.2-.1-.1-.1a11.23,11.23,0,0,0,2.4-4,5.35,5.35,0,0,0,.4-1.6c1.5.4,1.9.6,1.9.8s-.2.3-.6.3l-.6,1.2h5.9c.7-.9.9-1,1-1s.3.1,1,.7c.3.3.4.4.4.5s0,.1-.2.1H174v2.6h1.7c.7-.8.8-.9.9-.9s.3.1,1,.6c.3.3.4.4.4.5s-.1.1-.2.1H174v3Zm-4-3.1h-2.4v3h2.4Z"/><path class="cls-3" d="M187.4,415.8h1c.5-.6.6-.7.7-.7s.3.1.7.5c.2.2.3.3.3.4s0,.1-.2.1h-5.6a3.08,3.08,0,0,0-.9.1l-.2-.5a3.75,3.75,0,0,0,1,.1v-1.4a4.12,4.12,0,0,0-.1-1.2c1.5.2,1.6.3,1.6.4s-.1.2-.4.3v1.8h.9v-2.2a5.7,5.7,0,0,0-.1-1.3c1.5.1,1.6.3,1.6.4s-.1.2-.4.3V414h.6c.4-.6.6-.7.7-.7s.3.1.7.5c.2.2.3.3.3.4s0,.1-.2.1h-2.1v1.5Zm1,1.9a.35.35,0,0,1-.2.1,7.1,7.1,0,0,1-1,1.4c0,.1-.1,0-.1-.1.1-.4.2-.8.3-1.3a2.49,2.49,0,0,0,.1-.8c.5.2.8.3.8.4v-.9c1.3.2,1.4.2,1.4.3s-.1.2-.3.3v7.4c0,.3-.2.4-.6.4s-.5-.1-.5-.4V424h-3.6v.5c0,.4-.2.5-.6.5s-.5-.1-.5-.4c0-.6.1-2.6.1-6.5v-1.7c1.3.2,1.4.2,1.4.3s-.1.2-.3.3v6.6h3.6Zm-1.4,2.6c.9.7,1.2,1.2,1.2,1.7,0,.3-.1.4-.3.4s-.4-.1-.4-.7a7.6,7.6,0,0,0-.4-1.1v2.6c0,.3-.2.4-.5.4s-.4-.1-.4-.4a19.17,19.17,0,0,1,.1-2,6.09,6.09,0,0,1-1.2,1.5c-.1,0-.2,0-.1-.1a8.08,8.08,0,0,0,1.1-2.7h-.4a.9.9,0,0,0-.5.1l-.2-.5a2,2,0,0,0,.7.1h.5v-2a4.1,4.1,0,0,0-.1-1.1c1.1.1,1.2.1,1.2.3s0,.1-.3.3v2.5h.3c.2-.3.3-.4.4-.4s.2.1.4.3.2.2.2.3,0,.1-.2.1H187Zm-1.5-1.2c-.2,0-.3-.1-.3-.5a2.77,2.77,0,0,0-.3-1.3c0-.1,0-.1.1-.1a1.89,1.89,0,0,1,.9,1.4C185.9,418.9,185.8,419.1,185.5,419.1Zm4.2-1.4c-.1,0-.2-.1-.1-.1a11.82,11.82,0,0,0,2-3.7,10.46,10.46,0,0,0,.4-1.7c1.6.4,1.7.4,1.7.6s-.1.2-.4.3a7.16,7.16,0,0,0,1.3,1.9,6.54,6.54,0,0,0,2,1.5c.1,0,0,.1,0,.2-.3.1-.5.4-.7.8-.1.2-.1.2-.2.2s-.2-.1-.4-.3a5.92,5.92,0,0,1-1.2-1.6,16.12,16.12,0,0,1-1-2.5,8.8,8.8,0,0,1-3.4,4.4Zm1.2,1.8a3.08,3.08,0,0,0-.9.1l-.2-.6a4.48,4.48,0,0,0,1.1.1H194c.4-.5.5-.6.6-.6s.3.1.7.4c.2.2.3.3.3.4s0,.1-.3.4v2.7a1.06,1.06,0,0,1-1.2,1.2c-.2,0-.2-.1-.3-.3-.1-.5-.3-.6-1-.9-.1,0-.1-.2,0-.2a4.91,4.91,0,0,0,1.1.1c.2,0,.2,0,.2-.2v-2.8h-1.6v5.2c0,.4-.3.6-.8.6s-.5-.2-.5-.4v-5.3h-.3Zm2.1-2.4c.4-.5.5-.6.6-.6s.3.1.7.4a.54.54,0,0,1,.3.4c0,.1,0,.1-.2.1H192a3.08,3.08,0,0,0-.9.1l-.2-.5a4.1,4.1,0,0,0,1.1.1Z"/></g><path class="cls-3" d="M67.6,470.5a5.36,5.36,0,0,0-2.1-3,6.38,6.38,0,0,0-1.4-.8c-.7-.3-1.5-.6-2.2-.9A15.39,15.39,0,0,1,60,465c-.2-.1-.3-.2-.5-.3s-.4-.3-.5-.6a1.85,1.85,0,0,1-.2-.7V463a9.85,9.85,0,0,1,.2-1.7,5.67,5.67,0,0,0,.8-1.3,14.17,14.17,0,0,0,.8-1.8c.2-.1.3-.2.5-.3a4.74,4.74,0,0,0,1-1,5.09,5.09,0,0,0,.7-1.7c0-.2.1-.4.1-.6a3.59,3.59,0,0,0-.2-1.1,2.09,2.09,0,0,0-.4-.6,10.38,10.38,0,0,0,.3-1.2,17.85,17.85,0,0,0,.2-2.3,4.14,4.14,0,0,0-.2-1.6,5.64,5.64,0,0,0-.4-1.2,4.37,4.37,0,0,0-2.9-2.6,6,6,0,0,0-.8-.8c-.2-.2-.5-.3-.7-.5a4.48,4.48,0,0,0-2.3-.5,10.87,10.87,0,0,0-1.8.1c-.2,0-.5,0-.6.1l-.6.1h-.8l-1.2-.3-.4-.1-.2-.1H49l-.1.1-.2.2c-.1.1-.3.2-.4.4a2.7,2.7,0,0,0-.7.8c-.1.2-.2.3-.3.5s-.2.3-.2.5a21.72,21.72,0,0,0-.7,2.4,13.55,13.55,0,0,0-.2,2,11.53,11.53,0,0,0,.3,2.6v.8l.1.6a1.79,1.79,0,0,0-.5.7,2.66,2.66,0,0,0-.3,1.2,1.27,1.27,0,0,0,.1.6,5.64,5.64,0,0,0,.4,1.2,2.73,2.73,0,0,0,.9,1.2,3.51,3.51,0,0,0,.8.5,14.17,14.17,0,0,0,.8,1.8,3.45,3.45,0,0,0,.9,1.2,9.85,9.85,0,0,1,.2,1.7,2.92,2.92,0,0,1-.2.9,2.09,2.09,0,0,1-.4.6,3,3,0,0,1-.7.5l-.2.1a6.89,6.89,0,0,1-.8.3c-.6.3-1.4.5-2.1.8a13,13,0,0,0-1.7.8,8.34,8.34,0,0,0-1.2.8,4.63,4.63,0,0,0-1.3,1.8,7.63,7.63,0,0,0-.5,2.7.6.6,0,0,0,.1.4c.1.1.1.2.2.3a2.65,2.65,0,0,0,.6.5,6,6,0,0,0,1.6.8,20.69,20.69,0,0,0,4.3,1,50.2,50.2,0,0,0,6.7.4q3,0,6-.3a16.47,16.47,0,0,0,3.2-.6,12.09,12.09,0,0,0,1.8-.5,4.67,4.67,0,0,0,1-.5,2.09,2.09,0,0,0,.6-.4l.6-.6c.1-.1.1-.2.2-.4s.1-.3.1-.4c-.1-.4-.1-1-.2-1.5ZM49.4,447.8c3,.7,9-.6,9-.6a5.7,5.7,0,0,0,1.1,2.8,8,8,0,0,1,.8,1.6H60a.22.22,0,0,1-.2-.2c0-.1-.2-.2-.4-.2a13.4,13.4,0,0,0-2-.1c-2.3.1-2.2.3-3.1.3s-.8-.2-3.1-.3a13.4,13.4,0,0,0-2,.1c-.2,0-.4.1-.4.2s0,.2-.2.2h-.1A16.2,16.2,0,0,0,49.4,447.8Zm9.9,5s0,1.4-.9,1.8a1.39,1.39,0,0,1-1.1.2,2,2,0,0,1-1.1-.3,1.6,1.6,0,0,1-.7-.9.37.37,0,0,0-.1-.3c-.1-.3-.3-1,.2-1.3a3.08,3.08,0,0,1,1.9-.3,3.23,3.23,0,0,1,1.7.3c0,.3.1.6.1.8Zm-6.2.7a.37.37,0,0,1-.1.3,1.27,1.27,0,0,1-.7.9,2,2,0,0,1-1.1.3,3.59,3.59,0,0,1-1.1-.2,2.22,2.22,0,0,1-.9-1.8,1,1,0,0,1,.2-.7,2.49,2.49,0,0,1,1.7-.3,6.28,6.28,0,0,1,1.9.3c.4.2.2.9.1,1.2Zm.1,17-3.6-4.9.1-.1c.2-.2.4-.3.5-.5l2.9,1.3-.6,1,1,1Zm-2.5-6.1a2.92,2.92,0,0,0,.2-.9V463a14.92,14.92,0,0,0-.2-2.1v-.1l-.1-.1a4.44,4.44,0,0,1-.8-1.1,14.17,14.17,0,0,1-.8-1.8l-.1-.2-.2-.1c-.2-.1-.3-.1-.5-.2a2.34,2.34,0,0,1-.7-.7,3.36,3.36,0,0,1-.5-1.4v-.3a1.7,1.7,0,0,1,.1-.7,1,1,0,0,1,.4-.5,2.8,2.8,0,0,1,.5.8c.3.2.3-.3.2-1a2.54,2.54,0,0,1,.2-1.2v.2c0,.1.1.1.2.1s.2,0,.2.1a2.81,2.81,0,0,0,1.3,2.4,2.64,2.64,0,0,0,3.7-.9.1.1,0,0,1,.1-.1c.3-.7.3-1.3.7-1.3s.4.6.7,1.3a2.65,2.65,0,0,0,3.6,1.1.1.1,0,0,0,.1-.1,2.53,2.53,0,0,0,1.2-2.4c0-.1.1-.1.2-.1a.35.35,0,0,0,.2-.1v-.7a19.73,19.73,0,0,1,.7,2.6l.3-.6c.1.1.2.3.3.4s.1.4.2.6v.3c-.1.3-.2.7-.3,1a5.5,5.5,0,0,1-.7.9,2.51,2.51,0,0,1-.7.4l-.2.1-.1.2a14.17,14.17,0,0,1-.8,1.8,4.44,4.44,0,0,1-.8,1.1l-.1.1v.1a7.49,7.49,0,0,0-.2,2.1,5.85,5.85,0,0,0,.2,1.3L55,466Zm5,6.4-.3-2.4,1-1-.6-1,2.6-1.4c.1.1.2.2.2.3.2.1.3.3.5.4Z"/><path class="cls-3" d="M58.8,458a2.94,2.94,0,0,1-1.2-1,2.48,2.48,0,0,0-3.3-1.1A2.48,2.48,0,0,0,51,457a2.94,2.94,0,0,1-1.2,1,2.43,2.43,0,0,0,2.7.4,2.69,2.69,0,0,0,1.8-1.5,3,3,0,0,0,1.8,1.5A2.63,2.63,0,0,0,58.8,458Z"/><path class="cls-3" d="M102,469.5a4.88,4.88,0,0,0-2.5-2.2,10.64,10.64,0,0,0-2.5-.9,7.49,7.49,0,0,0-1.6-.4c-.1,0-.2-.1-.3-.1v-.5a7.11,7.11,0,0,0,1.9-3.5c.1-.1.3-.1.4-.2a3.92,3.92,0,0,0,.8-1,4.92,4.92,0,0,0,.6-1.7,3.55,3.55,0,0,0,.2-1,.6.6,0,0,0-.1-.4,1,1,0,0,0,.4-.5,4.2,4.2,0,0,0,.7-2.4,7.61,7.61,0,0,0-.3-2.1,8.69,8.69,0,0,0-2.8-4.8,10.89,10.89,0,0,0-2.3-1.4c0-.2.1-.4.1-.7a3.55,3.55,0,0,0-7.1,0,2,2,0,0,0,.1.7,7.89,7.89,0,0,0-2.3,1.4,9,9,0,0,0-2.8,4.8,7.61,7.61,0,0,0-.3,2.1,4,4,0,0,0,.7,2.4c.1.2.3.3.4.5v.4a3.55,3.55,0,0,0,.2,1,7.84,7.84,0,0,0,.9,2.1,3.39,3.39,0,0,0,.6.6c.1.1.2.1.4.2a8,8,0,0,0,1.9,3.5v.5a.31.31,0,0,0-.2.1c-.2.1-.5.1-.7.2s-.7.1-1,.2-1,.3-1.6.5a6.5,6.5,0,0,0-2.7,1.7,5.2,5.2,0,0,0-1.3,3.8v.7a.76.76,0,0,0,.2.4,1.21,1.21,0,0,0,.5.5,10.09,10.09,0,0,0,1.5.7,28.24,28.24,0,0,0,9.1,1.3,30,30,0,0,0,7.9-1,9.17,9.17,0,0,0,2.3-.9,1.79,1.79,0,0,0,.7-.5l.3-.3c.1-.1.1-.3.2-.4v-.7a6.26,6.26,0,0,0-.6-2.7Zm-7.8-1.2a5,5,0,0,1-5.9,0,2.85,2.85,0,0,1-.8-1.4c.1-.1.3-.1.4-.2a1.38,1.38,0,0,0,.3-.4.9.9,0,0,0,.1-.5v-.6a.6.6,0,0,0-.1-.4,6.35,6.35,0,0,1-1.9-3.5c0-.2-.2-.3-.3-.4a.76.76,0,0,1-.4-.2,2.65,2.65,0,0,1-.5-.6l-.6-1.5-.1-.3,1.5,1.8.3-3.1a14.39,14.39,0,0,0,5-4.5,14.39,14.39,0,0,0,5,4.5l.3,3.1,1.4-1.8a.37.37,0,0,1-.1.3,6.7,6.7,0,0,1-.7,1.8l-.3.3a.76.76,0,0,1-.4.2c-.2.1-.3.2-.3.4a7.11,7.11,0,0,1-1.9,3.5c-.1.1-.1.2-.1.4v.6a.9.9,0,0,0,.1.5,1,1,0,0,0,.6.5l.2.1a2.85,2.85,0,0,1-.8,1.4Z"/><path class="cls-3" d="M48.6,511.2a4.24,4.24,0,0,0-.6-1.4,5.17,5.17,0,0,0-1.6-1.7,6.38,6.38,0,0,0-1.4-.8c-.7-.3-1.5-.6-2.2-.9a14.17,14.17,0,0,1-1.8-.8c-.2-.1-.3-.2-.5-.3a2.65,2.65,0,0,1-.5-.6,1.85,1.85,0,0,1-.2-.7v-.6a3.89,3.89,0,0,1,.2-1.5,14.63,14.63,0,0,0,.9-1.3,14.17,14.17,0,0,0,.8-1.8l.5-.3a4.74,4.74,0,0,0,1-1,5.09,5.09,0,0,0,.7-1.7c0-.2.1-.4.1-.6a2,2,0,0,0-.3-1.1,2.09,2.09,0,0,0-.4-.6,10.38,10.38,0,0,0,.3-1.2,17.85,17.85,0,0,0,.2-2.3,5,5,0,0,0-.2-1.7,5.64,5.64,0,0,0-.4-1.2,6.57,6.57,0,0,0-1.2-1.7,4,4,0,0,0-1.8-1,9.43,9.43,0,0,0-1-1,5,5,0,0,0-3.5-1.1h-1c-.4,0-.5.1-.8.1s-.6.1-.9.2a9.44,9.44,0,0,1-.9.3c-.2.1-.3.1-.5.2a5.67,5.67,0,0,0-1.3.8,6.11,6.11,0,0,0-2.1,2.4,7.5,7.5,0,0,0-.8,1.8,7.8,7.8,0,0,0-.3,2.2,7.57,7.57,0,0,0,.1,1.5v.9l.1.6a3,3,0,0,0-.5.7,2.66,2.66,0,0,0-.3,1.2,1.27,1.27,0,0,0,.1.6,2.73,2.73,0,0,0,.6,1.2,3.81,3.81,0,0,0,.9,1.3,2.62,2.62,0,0,0,.9.5,14.17,14.17,0,0,0,.8,1.8,3.81,3.81,0,0,0,.9,1.3,7.72,7.72,0,0,1,.2,1.5v.6a4.33,4.33,0,0,1-.1.5,2.09,2.09,0,0,1-.4.6,3,3,0,0,1-.7.5c-.3.2-.7.3-1,.5-.6.3-1.4.5-2.1.8a8,8,0,0,0-1.6.8,4.44,4.44,0,0,0-1.1.8,4.31,4.31,0,0,0-1.3,1.9,8.57,8.57,0,0,0-.5,2.7.6.6,0,0,0,.1.4c.1.1.1.2.2.3a2.65,2.65,0,0,0,.6.5,6,6,0,0,0,1.6.8,20.69,20.69,0,0,0,4.3,1,50.2,50.2,0,0,0,6.7.4q3,0,6-.3a16.47,16.47,0,0,0,3.2-.6,12.09,12.09,0,0,0,1.8-.5,9.29,9.29,0,0,0,1-.5,3.11,3.11,0,0,0,.6-.4l.6-.6c.1-.1.1-.2.2-.3a.6.6,0,0,0,.1-.4C48.9,512.5,48.8,511.8,48.6,511.2Zm-14.4.5-4-5.1c.2-.1.4-.3.6-.4s.4-.3.5-.5l2.9,1.3-.6,1,1,1ZM31.8,505a2.92,2.92,0,0,0,.2-.9v-.7a12.25,12.25,0,0,0-.2-1.9v-.2l-.1-.1a4.44,4.44,0,0,1-.8-1.1,10.84,10.84,0,0,1-.8-1.9V498l-.2-.1c-.2-.1-.3-.2-.5-.3a2.34,2.34,0,0,1-.7-.7,3.36,3.36,0,0,1-.5-1.4v-.3a1.85,1.85,0,0,1,.2-.7,1,1,0,0,1,.4-.5,3.51,3.51,0,0,1,.5.8c.2.2.2.2.3,0s.3-.4,1.8-3.4c3,.7,8.3-3.9,8.3-3.9a5.7,5.7,0,0,0,1.1,2.8,12.79,12.79,0,0,1,1.4,4.3l.3-.6c.1.1.2.3.3.4a1.42,1.42,0,0,1,.2.6v.3c-.1.3-.2.7-.3,1l-.6.9a2.51,2.51,0,0,1-.7.4l-.2.1-.1.2a15.39,15.39,0,0,1-.8,1.9,4.44,4.44,0,0,1-.8,1.1l-.1.1v.2a12.25,12.25,0,0,0-.2,1.9v.7a1.88,1.88,0,0,0,.2.8L36,506.4Zm5,6.9-.4-2.8,1-1-.6-1,2.6-1.4c.1.1.1.2.2.3a5.5,5.5,0,0,0,.9.7Z"/><path class="cls-3" d="M86.4,509.3a6.61,6.61,0,0,0-3.3-2.4,15.43,15.43,0,0,0-1.7-.5,4,4,0,0,1-1.3-.4,10.09,10.09,0,0,1-1.5-.7.78.78,0,0,1-.4-.4.37.37,0,0,1-.1-.3v-2a7.47,7.47,0,0,0,2-3.7c.1-.1.3-.1.4-.2a1.89,1.89,0,0,0,.8-1,13.36,13.36,0,0,0,.7-1.8,3.55,3.55,0,0,0,.2-1,2.92,2.92,0,0,0-.2-.9,1.34,1.34,0,0,0-.7-.6c1.1-5.9-2.4-10.4-6.9-10.2-4.2-.9-6.9-.7-7.2,3a3.91,3.91,0,0,0,.1,3,8.52,8.52,0,0,0-.3,2.3v1.7c-.1,0-.2.1-.4.2a1.21,1.21,0,0,0-.5.5,2.92,2.92,0,0,0-.2.9,3,3,0,0,0,.2,1A8.49,8.49,0,0,0,67,498l.6.6a.76.76,0,0,0,.4.2,7.47,7.47,0,0,0,2,3.7v2c0,.1-.1.2-.1.3a1.56,1.56,0,0,1-.8.6,3.7,3.7,0,0,1-1.1.5c-.4.1-1.1.3-1.8.5a8.8,8.8,0,0,0-3.5,1.7,5.94,5.94,0,0,0-1.3,1.8,5.59,5.59,0,0,0-.5,2.5v.7a.52.52,0,0,0,.2.4,2.65,2.65,0,0,0,.6.5,9.82,9.82,0,0,0,1.8.8,31.64,31.64,0,0,0,10.6,1.5,35.65,35.65,0,0,0,9.2-1.1,14.76,14.76,0,0,0,2.7-1,2.18,2.18,0,0,0,.8-.5l.3-.3c.1-.1.1-.3.2-.4v-.7a6.07,6.07,0,0,0-.9-3Zm-16.3-3.1a4.35,4.35,0,0,0,.7-.6,1.61,1.61,0,0,0,.3-.9v-2.4l-.1-.1a7.16,7.16,0,0,1-2-3.6l-.1-.3-.3-.1c-.2-.1-.3-.1-.4-.2a2.65,2.65,0,0,1-.5-.6,7.58,7.58,0,0,1-.6-1.6,2.2,2.2,0,0,1-.1-.8.6.6,0,0,1,.1-.4c.1-.1.1-.2.2-.2H68v-2.7a2.77,2.77,0,0,1,.1-.9c1.2,1.7,3.4,3.3,7.2,3.9a41,41,0,0,1-1.4-5s2.5,3.7,6.3,4.1v.6h.5a.37.37,0,0,1,.3.1c.1,0,.1.1.2.2a.6.6,0,0,1,.1.4,2.2,2.2,0,0,1-.1.8,6.39,6.39,0,0,1-.8,1.9l-.3.3a.76.76,0,0,1-.4.2l-.3.1v.3a6.77,6.77,0,0,1-2,3.6l-.1.1v2.4a1.61,1.61,0,0,0,.3.9,2.44,2.44,0,0,0,1.1.9l.6.3-2,2a6.78,6.78,0,0,1-6,0l-2-2a2.7,2.7,0,0,1,.8-.7Z"/><path class="cls-3" d="M67.2,498.5s.6,6.6-1.8,8.5c0,0,7.1-.9,5-4.5l-2.1-4.1-1.2-.9Z"/><path class="cls-3" d="M81,498.5s-.6,6.6,1.8,8.5c0,0-7.1-.9-5-4.5l2.1-4.1,1.2-.9Z"/><path class="cls-3" d="M122.7,509.7a5.75,5.75,0,0,0-2.8-2.3c-1-.5-2-.7-2.6-1a3.92,3.92,0,0,1-1.4-.8c-.2-.1-.3-.3-.4-.4a.37.37,0,0,1-.1-.3v-1.4a7,7,0,0,0,1.9-3.6c.1-.1.3-.1.4-.2a2.54,2.54,0,0,0,.8-1,5.78,5.78,0,0,0,.6-1.7,3.55,3.55,0,0,0,.2-1v-.4c4.5-5.8-2.2-13.4-7.2-12.5-3.9-1-7.4,2.5-8.8,5.5-1.1,2.5-.8,5.9.4,7v.4a3.55,3.55,0,0,0,.2,1,6.67,6.67,0,0,0,.9,2.1,3.39,3.39,0,0,0,.6.6.76.76,0,0,0,.4.2,8.36,8.36,0,0,0,1.9,3.6v1.4c0,.1-.1.2-.1.3a2.7,2.7,0,0,1-.8.7,4.67,4.67,0,0,1-1,.5c-.4.1-1,.3-1.6.5a7.53,7.53,0,0,0-3,1.7,5.42,5.42,0,0,0-1.5,4v.7c0,.1.1.3.1.4a1.21,1.21,0,0,0,.5.5,10.93,10.93,0,0,0,1.5.8,27.16,27.16,0,0,0,9.8,1.5,30.52,30.52,0,0,0,8.5-1.1,9.43,9.43,0,0,0,2.3-1,3,3,0,0,0,.7-.5c.1-.1.2-.2.2-.3s.1-.2.1-.4v-.7a5.81,5.81,0,0,0-.7-2.8Zm-7-3L114,511l-2.1-2.6,3-2.2a2.18,2.18,0,0,0,.8.5Zm-9.2-7.2v-.3l-.3-.1a.52.52,0,0,1-.4-.2,2.65,2.65,0,0,1-.5-.6l-.6-1.5a1.7,1.7,0,0,1-.1-.7.6.6,0,0,1,.1-.4c.1-.1.1-.2.2-.2h.4l.6,1.8.3-1.6,1.7-2.5a14.35,14.35,0,0,1-.4,2.2c3.3-1.1,4.2-2.3,4.3-2.6l-1.1,2.2s3.8-1.1,4.4-2.7l-.7,2.4s2-.6,2.3-1.5c.2-.5.2.2.2.9v3.1l.8-1.8a.37.37,0,0,1,.3.1c.1,0,.1.1.2.1a.6.6,0,0,1,.1.4,1.48,1.48,0,0,1-.1.7,5.63,5.63,0,0,1-.7,1.8l-.3.3a.76.76,0,0,1-.4.2l-.3.1v.3a6.71,6.71,0,0,1-1.9,3.5l-.1.1v1.8a1.42,1.42,0,0,0,.2.6l-3.1,2.3-3.1-2.3a1.42,1.42,0,0,0,.2-.6V503l-.1-.1a4.78,4.78,0,0,1-2.1-3.4Zm1,7,.3-.3,3,2.2-2.1,2.6-1.7-4.2Z"/><path class="cls-3" d="M308.1,504.6a13.07,13.07,0,0,0,.8,4.2c.2-.3.3-.6.5-.9a11.28,11.28,0,0,0,.8-2.4c1.6.6,2.2,1,2.2,1.3s-.2.3-.7.3a24.51,24.51,0,0,1-1.8,3.3,7.72,7.72,0,0,0,1.7,1.9c.5.4.6.4.7.4s.7-.8,1.1-2c0-.1.2,0,.2.1a14.71,14.71,0,0,0-.2,2c0,.3,0,.4.2.5a1.23,1.23,0,0,1,.4.8.84.84,0,0,1-.9.9,4.85,4.85,0,0,1-2.8-1.5c-.6-.6-1.1-1.2-1.6-1.8a13.35,13.35,0,0,1-5.4,3.2c-.1,0-.3-.2-.2-.2a16.5,16.5,0,0,0,4.8-4.3,16.72,16.72,0,0,1-1.4-5.9H299v1.1a18,18,0,0,1-.6,5,9,9,0,0,1-2.8,4.4c-.1.1-.2-.1-.2-.2a13.74,13.74,0,0,0,1.6-4.7,36.34,36.34,0,0,0,.2-5.1,11.48,11.48,0,0,0-.1-1.9,11.3,11.3,0,0,1,2.2,1.1h7.2v-.5c-.1-.8-.1-.9-.2-1.4,2.2.2,2.4.3,2.4.6s-.1.2-.5.4a3.4,3.4,0,0,0,.1,1h2.9c.7-1,.8-1.1,1-1.1s.4.1,1.1.8c.3.3.5.4.5.6s-.1.2-.3.2h-5.4Zm-2.2-3.1h4.6c.9-1.1,1.2-1.2,1.3-1.2s.4.2,1.4.9q.6.45.6.6c0,.1-.1.2-.3.2H297.7a8.64,8.64,0,0,0-1.5.1l-.2-.7a11.55,11.55,0,0,0,1.6.2h2.1v-1.8a11,11,0,0,0-.1-2.1c2.4.2,2.7.4,2.7.6s-.2.4-.7.6v2.7H304v-2.7c0-.9-.1-1.6-.1-2.1,2.4.2,2.6.4,2.6.6s-.2.4-.6.5v1.3h2.6c.9-1,1.1-1.2,1.3-1.2s.4.2,1.3.8c.4.3.5.5.5.6s-.1.2-.3.2h-5.4Zm-4.7,7.9a8.25,8.25,0,0,1-2.8,3.8c-.1.1-.3-.1-.2-.2a9.09,9.09,0,0,0,1.3-3,5.66,5.66,0,0,0,.3-1.8c1.8.6,2,.7,2,.9s-.1.2-.6.3Zm2.5-1.6c0,1.1.1,4.2.1,4.7a1.28,1.28,0,0,1-.4,1,1.61,1.61,0,0,1-1.3.6c-.4,0-.4,0-.5-.5s-.3-.8-1.5-1.1c-.1,0-.1-.3,0-.3a9.15,9.15,0,0,0,1.6.1c.3,0,.3-.1.3-.4v-5h-1.2a7.08,7.08,0,0,0-1.4.1l-.2-.7a10,10,0,0,0,1.6.2h3.1c.6-.8.8-1,1-1s.4.2,1.1.7c.3.3.5.4.5.6s-.1.2-.3.2h-2.5Zm2.2,3.8c-.5,0-.6-.2-.8-.9a4.61,4.61,0,0,0-.8-2.2c-.1-.1,0-.2.1-.1,1.5.6,2.4,1.4,2.4,2.3a1,1,0,0,1-.9.9Zm4.4-7.6c-.3,0-.4-.1-.6-.5a1.82,1.82,0,0,0-1-1.1c-.1,0-.1-.2,0-.2,1.5,0,2.3.4,2.3,1.1a.68.68,0,0,1-.7.7Z"/><path class="cls-3" d="M254.9,121c-.1,0-.2-.2-.1-.2,5.5-3.9,7.6-8.1,7.6-15.5a10.9,10.9,0,0,0-.1-1.7c2.6.2,2.9.3,2.9.7,0,.2-.1.3-.7.6a10.87,10.87,0,0,1-.1,1.8,17.08,17.08,0,0,0,2.3,6.9,12.48,12.48,0,0,0,6.5,5.2c.1,0,.1.2,0,.2-.7.2-1,.6-1.3,1.4-.1.3-.2.4-.4.4a1.83,1.83,0,0,1-1-.6,17.41,17.41,0,0,1-5-6.4,19.6,19.6,0,0,1-1.2-5.4c-.8,6.5-3.5,9.9-9.4,12.6Z"/><g class="cls-6"><path class="cls-3" d="M139.3,34.9a15.26,15.26,0,0,1-1.6,1.1c-.1,0-.1-.1-.1-.2a16.58,16.58,0,0,0,2.3-3.1,7.09,7.09,0,0,0,.7-1.6c1.4.7,1.5.7,1.5.9s-.1.2-.5.3a8.35,8.35,0,0,1-1.2,1.6c.5.1.6.1.6.3s-.1.2-.4.3v5.8c0,.4-.2.6-.7.6-.3,0-.6-.1-.6-.5s.1-1.5.1-3.7V34.9Zm2.1-5.7a9.37,9.37,0,0,1-3.5,2.9c-.1,0-.2-.1-.1-.1a11.78,11.78,0,0,0,1.9-2.5,4.71,4.71,0,0,0,.6-1.5c1.1.4,1.7.7,1.7.9s-.1.3-.6.3Zm5.2,10a8.81,8.81,0,0,0,1.7.2,12.87,12.87,0,0,0,2.5-.2c.1,0,.1.1,0,.2-.4.2-.5.4-.6.9-.1.3-.1.4-.2.4h-.4a8,8,0,0,1-4.2-.8,4.64,4.64,0,0,1-2-2.6,7.56,7.56,0,0,1-2.5,3.4c-.1,0-.2-.1-.1-.2a10.17,10.17,0,0,0,1.9-6.2v-.7c1.4.2,1.7.3,1.7.5s-.1.2-.4.3a15,15,0,0,1-.4,2.4,4.14,4.14,0,0,0,1.8,1.9V32h-2.2a2.2,2.2,0,0,0-.8.1l-.2-.5a3.44,3.44,0,0,0,.9.1h3.1a18.61,18.61,0,0,0,1-2.5,3.55,3.55,0,0,0,.2-1c1.4.5,1.8.7,1.8.9s-.1.2-.5.2a11.62,11.62,0,0,1-1.9,2.3h1.7c.6-.8.8-.9.9-.9s.3.1.9.6a1.2,1.2,0,0,1,.4.4c0,.1,0,.1-.2.1h-3.8v3.1H148c.6-.7.8-.9.9-.9s.3.1.9.6c.3.2.4.3.4.4s0,.1-.2.1h-3.2v4.1Zm-2.1-8c-.4,0-.4-.1-.6-1.1a5.93,5.93,0,0,0-.7-1.6c0-.1,0-.2.1-.1,1.4.5,2.1,1.2,2.1,1.9a1.06,1.06,0,0,1-.9.9Z"/><path class="cls-3" d="M160.3,36.8a7.44,7.44,0,0,0,2.3,1.4,10.58,10.58,0,0,0,3.7.8c.1,0,.1.1,0,.2-.5.2-.6.3-1,1.2-.1.1-.1.2-.2.2a4.08,4.08,0,0,1-.7-.2,8.87,8.87,0,0,1-2.5-1.4,10.22,10.22,0,0,1-1.8-1.8c0,1.8.1,3.1.1,3.5s-.2.5-.8.5c-.4,0-.5-.2-.5-.5s.1-1.7.1-2.9a10.26,10.26,0,0,1-5.5,2.8.1.1,0,0,1-.1-.1,11.77,11.77,0,0,0,4.7-3.6h-3.3a3.75,3.75,0,0,0-1,.1l-.2-.5a4.48,4.48,0,0,0,1.1.1H159V35.3h-2.7a3.75,3.75,0,0,0-1,.1l-.2-.5a4.48,4.48,0,0,0,1.1.1H159V33.7h-3.5a3.75,3.75,0,0,0-1,.1l-.2-.5a4.48,4.48,0,0,0,1.1.1h2.3c-.2-.1-.3-.2-.4-.6a2.92,2.92,0,0,0-.7-1.2c-.1,0,0-.1.1-.1,1.3.2,1.9.6,1.9,1.3a.75.75,0,0,1-.5.7h2.3c.3-.5.4-.9.6-1.2l.3-.9c1.1.4,1.6.7,1.6.8s-.1.2-.6.2a5.27,5.27,0,0,1-1.4,1h2.3c.7-.7.8-.8.9-.8s.3.1.9.6c.3.2.4.3.4.4s0,.1-.2.1h-5V35h2.2c.6-.7.8-.8.9-.8s.3.1.8.5c.2.2.4.3.4.4s0,.1-.2.1h-4v1.3h3.5c.7-.8.9-.9,1-.9s.3.1.9.6c.3.2.4.4.4.5s0,.1-.2.1Zm-2.6-7.7a2.51,2.51,0,0,0-.1-1c1.6.2,1.7.3,1.7.4s-.1.2-.4.4v2h1.2V29.1a2.51,2.51,0,0,0-.1-1c1.6.2,1.8.3,1.8.4s-.1.2-.5.4v2h.6c.3-.6.6-1.1.8-1.6l.3-.9c1.2.5,1.7.7,1.7.9s-.1.3-.6.3a5.91,5.91,0,0,1-1.7,1.3H164c.6-.7.8-.8.9-.8s.3.1.9.6c.3.2.4.3.4.4s0,.1-.2.1H154.7a3.75,3.75,0,0,0-1,.1l-.2-.5a4.91,4.91,0,0,0,1.1.1h3.1Zm-1.5,1.5c-.3,0-.4-.1-.6-.5a3.22,3.22,0,0,0-.8-1.4c-.1,0,0-.1.1-.1,1.3.2,2,.7,2,1.3A.68.68,0,0,1,156.2,30.6Z"/><path class="cls-3" d="M173.6,39.6a11.92,11.92,0,0,1-4.6,1.2c-.1,0-.1-.1,0-.2a18.28,18.28,0,0,0,2.8-1.4,9,9,0,0,0,1-.9c1.3.6,1.6.8,1.6,1S174.2,39.6,173.6,39.6Zm-1.7-1.5c0,.4-.2.6-.8.6-.4,0-.6-.1-.6-.5,0-.6.1-1.3.1-3.6a26.2,26.2,0,0,0-.1-2.8c.7.3.8.4,1.5.7h6.3c.5-.5.6-.6.7-.6s.3.1.8.5c.3.2.3.3.3.4s-.1.2-.4.4v.9c0,2,.1,3.4.1,3.9s-.2.6-.8.6c-.4,0-.6-.1-.6-.5Zm.6-6.7c0,.4-.3.5-.8.5-.3,0-.6-.1-.6-.4V28.3c.7.3.9.4,1.5.7h5c.5-.5.6-.6.7-.6s.3.1.8.5c.2.2.3.3.3.4s-.1.2-.4.4v1.7c0,.4-.3.5-.8.5s-.6-.1-.6-.5Zm6,1.5h-6.6v1.4h6.6ZM171.9,36h6.6V34.6h-6.6Zm0,1.7h6.6V36.3h-6.6Zm5.9-8.3h-5.3v1.7h5.3ZM180,40.9c-.3,0-.4-.1-.8-.4a6.59,6.59,0,0,0-3-1.7c-.1,0,0-.2.1-.2,3.1.1,4.3.6,4.3,1.6A.67.67,0,0,1,180,40.9Z"/><path class="cls-3" d="M188.2,32.6v1.2c0,.4-.2.5-.7.5s-.5-.1-.5-.5a10.3,10.3,0,0,1,.1-1.3,7.64,7.64,0,0,1-3.1,2.3.1.1,0,0,1-.1-.1,8.06,8.06,0,0,0,2.5-3h-1a3.75,3.75,0,0,0-1,.1l-.2-.5a4.1,4.1,0,0,0,1.1.1H187V29.6a5.7,5.7,0,0,0-.1-1.3c1.3.1,1.7.2,1.7.4s-.1.2-.4.3v2.4h1.2c.4-.6.6-.7.7-.7s.3.1.8.5c.2.2.3.3.3.4s0,.1-.2.1h-2.8v.5c1.3.2,2,.6,2,1.3a.56.56,0,0,1-.5.6c-.3,0-.4-.1-.7-.6S188.4,32.7,188.2,32.6Zm1.7,3.5a5.8,5.8,0,0,1-1,2.1c.6.3.9.7.9,1.1a.58.58,0,0,1-.6.6c-.4,0-.4,0-1.1-.8a7.11,7.11,0,0,1-4,1.8c-.1,0-.1-.2,0-.2a7.29,7.29,0,0,0,3.3-2.3c-.3-.2-.7-.4-1-.6l-.3.5c-.2.3-.3.3-.6.3s-.6-.2-.6-.3a.76.76,0,0,1,.1-.4c.4-.6.7-1.3,1-1.8h-.8a2.77,2.77,0,0,0-.9.1l-.2-.5a4.1,4.1,0,0,0,1.1.1h1l.1-.2a8.4,8.4,0,0,0,.4-1.2c1.4.3,1.5.3,1.5.5s-.1.2-.4.3l-.3.6h1.9c.5-.6.7-.7.8-.7s.3.1.7.5c.2.2.3.3.3.4s0,.1-.2.1Zm-4-5.1c-.4,0-.4-.1-.6-.9a3.34,3.34,0,0,0-.5-1.2c0-.1,0-.1.1-.1,1,.3,1.6.8,1.6,1.5C186.5,30.8,186.2,31,185.9,31Zm.7,6.6,1.3.3a5.09,5.09,0,0,0,.7-1.7h-1.3Zm3.7-7.9a12.17,12.17,0,0,1-1.7,1.5c-.1,0-.2,0-.1-.1a9.08,9.08,0,0,0,.7-1.4,2.24,2.24,0,0,0,.3-1c1,.4,1.3.6,1.3.8S190.7,29.7,190.3,29.7Zm5.5,2.1a11.56,11.56,0,0,1-1.8,5.4,9.33,9.33,0,0,0,3.3,2.1c.1,0,.1.1,0,.2-.4.2-.5.3-.6,1-.1.4-.1.4-.3.4a2.74,2.74,0,0,1-.7-.4,10.92,10.92,0,0,1-2.4-2.4,9.45,9.45,0,0,1-4.2,2.8c-.1,0-.2-.1-.1-.2a12,12,0,0,0,3.8-3.6,16.8,16.8,0,0,1-1.2-3.8,17.38,17.38,0,0,1-1.3,1.5c-.1,0-.2,0-.1-.1A14.81,14.81,0,0,0,192,30a13.66,13.66,0,0,0,.2-1.9c1.6.4,1.8.4,1.8.6s-.1.3-.6.3a15.55,15.55,0,0,1-.8,2.3H195c.6-.8.8-.9.9-.9s.3.1.9.6c.3.2.4.3.4.4s0,.1-.2.1h-1.2Zm-3.3,0a8.26,8.26,0,0,1-.7,1.3,10.36,10.36,0,0,0,1.5,3.2,14.3,14.3,0,0,0,1.2-4.5Z"/></g><path class="cls-3" d="M69.7,77.1a5.5,5.5,0,1,1,5.5-5.5A5.42,5.42,0,0,1,69.7,77.1ZM57.4,84.2v18.5a2.45,2.45,0,1,0,4.9.3V87.5h1.1v41.3a3.21,3.21,0,0,0,6.4.4V104.8h1v24a3.2,3.2,0,1,0,6.4,0V87.5h1.1v15.2a2.45,2.45,0,0,0,4.9.3V84.2a6.19,6.19,0,0,0-5.6-5.6H63a6.19,6.19,0,0,0-5.6,5.6Z"/><path class="cls-2" d="M159,71.46l.63,5.18-24.92,24.22h28a4.86,4.86,0,0,0,2.94-.73,5.34,5.34,0,0,0,1.61-2.07h.7l-2.17,10.15H122.92v-.7Zm.7,45.5a3.57,3.57,0,0,0,1.16,2.66,3.74,3.74,0,0,0,2.69,1.12h.77v.7H140.7l.07-.7h.7a3.91,3.91,0,0,0,2.77-1.08,3.54,3.54,0,0,0,1.15-2.7ZM145.39,86.58,159,71.46h.7v49.91H145.39Z"/><path class="cls-2" d="M171.57,121.44l.07-.7h1.47a3.7,3.7,0,0,0,2.73-1.12A3.61,3.61,0,0,0,177,117V81.47q0-2.73-1.26-3.78a5.08,5.08,0,0,0-3.36-1h-1.26v-.7c1,0,2.3-.17,4-.38s3.44-.49,5.35-.84A52,52,0,0,0,186,73.39a20.62,20.62,0,0,0,4.58-1.93h.7V117a3.48,3.48,0,0,0,1.16,2.63,3.82,3.82,0,0,0,2.69,1.08h1.47v.7Z"/><path class="cls-2" d="M233.73,71.46l.63,5.18-24.92,24.22h28a4.86,4.86,0,0,0,2.94-.73A5.43,5.43,0,0,0,242,98.06h.7l-2.17,10.15H197.61v-.7Zm.7,45.5a3.57,3.57,0,0,0,1.16,2.66,3.72,3.72,0,0,0,2.69,1.12h.77v.7H215.39l.07-.7h.7a3.92,3.92,0,0,0,2.77-1.08,3.54,3.54,0,0,0,1.15-2.7ZM220.08,86.58l13.65-15.12h.7v49.91H220.08Z"/></g></g></svg>