<svg enable-background="new 0 0 1100 700" viewBox="0 0 1100 700" xmlns="http://www.w3.org/2000/svg"><path d="m3.9 3.4h1091.2v691.2h-1091.2z" fill="#fff"/><path d="m1090.7 7.8v682.4h-1082.4v-682.4zm8.8-8.8h-1100v700h1100z" fill="#4aa064"/><path d="m789 339.3v-333.8" fill="none" stroke="#4aa064" stroke-miterlimit="10" stroke-width="1.76"/><path d="m1099.5 338h-1100" fill="none" stroke="#4aa064" stroke-miterlimit="10" stroke-width="1.76"/><path d="m211.6 291.2c-.1.1-.3-.2-.2-.3 7.1-5 9.8-10.6 9.8-20.1 0-.8 0-1.2-.1-2.2 3.4.3 3.8.4 3.8.9 0 .3-.1.4-.9.7 0 .8-.1 1.6-.1 2.4.4 3.4 1.4 6.4 3 8.9 2 3.1 4.8 5.4 8.5 6.8.1.1.1.3 0 .3-.9.3-1.4.8-1.7 1.9-.2.4-.3.5-.5.5s-.7-.3-1.4-.8c-2.8-2.2-5.1-5-6.4-8.4-.8-2-1.3-4.3-1.6-7-1.1 8.4-4.5 12.8-12.2 16.4z" fill="#333"/><path d="m64 225.5c4.8 0 8.9.6 12.3 1.8s6 3 7.8 5.3 2.7 5.1 2.7 8.4c0 2.5-.5 4.7-1.5 6.5s-2.3 3.2-3.9 4.3-3.4 1.8-5.3 2.1-3.7.3-5.4-.2c1.8 0 3.8.3 5.9.9s4.2 1.5 6.1 2.9c1.9 1.3 3.6 3.2 4.8 5.5 1.3 2.3 1.9 5.2 1.9 8.7 0 4.2-1 7.9-2.9 11.1-2 3.2-4.6 5.8-7.9 7.9s-7 3.5-11.1 4.4-8.3 1.1-12.7.7-8.5-1.5-12.5-3.3l.2-.9c3.7.1 7.2-.4 10.5-1.4s6.2-2.4 8.8-4.3c2.5-1.9 4.6-4.2 6-6.8 1.5-2.7 2.2-5.7 2.2-9 0-3.7-.9-6.6-2.6-8.8s-3.8-3.8-6.4-4.8-5.1-1.5-7.7-1.5l.2-.9c2.8.1 5.3-.6 7.7-1.9 2.3-1.4 4.2-3.2 5.5-5.6s1.8-5 1.5-7.9c-.2-2.2-.8-4-1.9-5.4s-2.4-2.3-4-2.8-3.3-.7-5.1-.5c-3.6.3-6.2 1.9-7.7 4.7-1.5 2.9-2.2 7.1-2.1 12.7h-.9l-5.1-15.6c2.3-1.9 5.4-3.5 9.3-4.6 4.1-1.1 8.4-1.7 13.3-1.7z" fill="#4aa064"/><path d="m103.5 293-.4-.6c6.4-2 11.4-4.2 15.1-6.7 3.6-2.5 6.3-5.2 8-8.4 1.7-3.1 2.7-6.6 3.1-10.6.4-3.9.6-8.4.6-13.4s-.1-9.1-.4-12.5c-.2-3.3-.8-5.8-1.8-7.5-.9-1.6-2.5-2.5-4.7-2.5s-3.9.7-5 2.2-1.9 3.4-2.3 5.7-.6 4.9-.6 7.7c0 3.4.2 6.1.6 8s.9 3.3 1.6 4.3c.7.9 1.5 1.6 2.3 1.9 1.4.5 2.7.6 3.8.3 1.2-.4 2.1-.8 2.9-1.3l.6.7c-.8 1.9-2.2 3.4-4 4.6s-3.9 2-6.2 2.3c-2.3.4-4.7.3-7.1-.3s-4.6-1.6-6.6-3.2-3.6-3.7-4.8-6.4-1.7-6-1.6-9.9c.1-4 1.1-7.7 3-11s4.7-5.9 8.6-7.9c3.8-2 8.7-3 14.7-3.1 8.8-.1 15.6 2.2 20.3 7s7.1 12.4 7.1 22.7c0 6.4-1 12.2-2.9 17.2-1.9 5.1-4.8 9.3-8.7 12.6-3.9 3.4-8.8 5.7-14.6 7.2-5.9 1.7-12.7 1.9-20.6.9z" fill="#4aa064"/><path d="m204.1 223.6.4.6c-6.4 2-11.4 4.2-15.1 6.7-3.6 2.5-6.3 5.2-8 8.4-1.7 3.1-2.7 6.6-3.1 10.6-.4 3.9-.6 8.4-.6 13.4s.1 9.1.4 12.5c.2 3.3.8 5.8 1.8 7.5s2.5 2.5 4.7 2.5 3.9-.7 5-2.2 1.9-3.4 2.3-5.8.6-4.9.6-7.6c0-3.4-.2-6.1-.6-8s-.9-3.3-1.6-4.3c-.7-.9-1.4-1.6-2.3-1.9-1.3-.5-2.6-.6-3.8-.3-1.2.4-2.2.8-3 1.3l-.7-.7c.8-1.9 2.2-3.5 4-4.6 1.8-1.2 3.9-1.9 6.3-2.3 2.3-.4 4.7-.3 7.1.3s4.6 1.7 6.6 3.2c2 1.6 3.6 3.7 4.8 6.4s1.7 6 1.6 9.9c-.1 4-1.1 7.7-3 11s-4.7 5.9-8.5 7.9c-3.8 1.9-8.7 3-14.6 3.1s-10.9-.9-14.9-3c-4.1-2.1-7.2-5.3-9.3-9.8-2.1-4.4-3.1-10.1-3.1-16.9 0-6.4 1-12.2 2.9-17.2 1.9-5.1 4.8-9.3 8.7-12.6 3.9-3.4 8.8-5.7 14.6-7.2 5.8-1.7 12.6-1.9 20.4-.9z" fill="#4aa064"/><path d="m125.7 101.5c-5.5 0-9.9-4.4-9.9-9.9s4.4-9.9 9.9-9.9 9.9 4.4 9.9 9.9c.1 5.5-4.4 9.9-9.9 9.9z" fill="#333"/><path d="m113.5 104.3h26.1c4.8 0 10 5.2 10 10v33.4c0 2.4-1.9 4.4-4.4 4.4-2.4 0-4.4-1.9-4.4-4.4v-27.4h-2v74.4c0 3.2-2.6 5.7-5.7 5.7-3.2 0-5.7-2.6-5.7-5.7v-43.2h-1.8v43.2c0 3.2-2.6 5.7-5.7 5.7-3.2 0-5.7-2.6-5.7-5.7v-74.4h-2v27.4c0 2.4-1.9 4.4-4.4 4.4-2.4 0-4.4-1.9-4.4-4.4v-33.4c.1-4.7 5.3-10 10.1-10z" fill="#333"/><path d="m1057.2 278c.2 2 .4 3.8 1.1 5.5.2-.4.4-.8.6-1.2.5-1 .8-2.1 1-3.1 2.1.8 2.8 1.3 2.8 1.7 0 .3-.2.4-1 .4-.8 1.7-1.5 3.1-2.4 4.3.6.9 1.4 1.8 2.2 2.5.7.5.8.6.9.6.3 0 .9-1 1.5-2.5.1-.1.3 0 .3.1-.3 2.1-.3 2.2-.3 2.6s0 .5.3.7.5.6.5 1c0 .7-.5 1.1-1.2 1.1-1 0-2.3-.7-3.6-1.9-.8-.7-1.5-1.5-2.1-2.4-1.7 1.8-3.9 3-7 4.2-.1.1-.3-.3-.2-.3 2.4-1.4 4.6-3.3 6.2-5.6-.8-1.6-1.5-3.8-1.8-7.6h-9.8v1.4c0 2.7-.3 4.7-.8 6.4-.7 2.3-1.8 4-3.7 5.7-.1.1-.3-.2-.3-.3 1.1-2 1.7-3.6 2-6.1.2-1.7.3-3.8.3-6.7 0-1.1 0-1.6-.2-2.5 1.4.5 1.6.6 2.9 1.4h9.4c0-.2 0-.5-.1-.7-.1-1-.1-1.2-.3-1.9 2.8.3 3.1.4 3.1.8 0 .2-.1.3-.7.6 0 .4.1.9.1 1.2h3.8c.9-1.3 1.1-1.4 1.3-1.4.3 0 .5.2 1.5 1 .4.4.6.6.6.8s-.1.3-.4.3h-6.5zm-2.8-4h6c1.2-1.4 1.5-1.6 1.7-1.6s.5.2 1.8 1.1c.5.4.8.6.8.8s-.1.3-.3.3h-20.6c-.6 0-1.1.1-1.9.2l-.3-1c.9.2 1.5.2 2.1.2h2.7v-2.3c0-1.2-.1-2.2-.2-2.7 3.2.3 3.5.5 3.5.8s-.3.5-.9.7v3.5h3.1v-3.5c0-1.2-.1-2.1-.2-2.7 3.1.3 3.4.5 3.4.8s-.3.5-.8.7v1.6h3.4c1.1-1.3 1.5-1.5 1.6-1.5.2 0 .5.2 1.6 1.1.5.4.7.6.7.8s-.1.3-.3.3h-7v2.4zm-6.1 10.2c-.8 2.1-1.9 3.7-3.6 4.9-.1.1-.3-.1-.3-.2.7-1.1 1.2-2.5 1.6-3.9.2-.8.4-1.6.4-2.4 2.3.7 2.6.9 2.6 1.1.1.3-.1.4-.7.5zm3.2-2c0 1.5.1 5.4.1 6.2 0 .5-.2.9-.5 1.3-.4.5-1.1.8-1.7.8-.5 0-.6 0-.6-.6-.1-.8-.4-1-2-1.5-.1-.1-.1-.4.1-.3.7.1 1.6.2 2.1.2.3 0 .4-.1.4-.5v-6.5h-1.5c-.6 0-1.1.1-1.9.2l-.3-1c.8.2 1.5.2 2.1.2h4.1c.8-1.1 1.1-1.3 1.3-1.3s.5.2 1.4.9c.4.3.6.5.6.7s-.1.3-.3.3h-3.2v.9zm2.9 4.8c-.6 0-.8-.3-1-1.2-.3-1.5-.5-2.3-1.1-2.9-.1-.1 0-.2.2-.2 2 .8 3.1 1.9 3.1 3-.1.8-.6 1.3-1.2 1.3zm5.7-9.8c-.4 0-.6-.1-.8-.6-.3-.7-.7-1.1-1.3-1.5-.1-.1-.1-.2.1-.2 2 0 3 .5 3 1.4 0 .5-.5.9-1 .9z" fill="#333"/><path d="m865.1 225.5c4.8 0 8.9.6 12.3 1.8s6 3 7.8 5.3 2.7 5.1 2.7 8.4c0 2.5-.5 4.7-1.5 6.5s-2.3 3.2-3.9 4.3-3.4 1.8-5.3 2.1-3.7.3-5.4-.2c1.8 0 3.8.3 5.9.9s4.2 1.5 6.1 2.9c1.9 1.3 3.6 3.2 4.8 5.5s1.9 5.2 1.9 8.7c0 4.2-1 7.9-2.9 11.1-2 3.2-4.6 5.8-7.9 7.9s-7 3.5-11.1 4.4-8.3 1.1-12.7.7-8.5-1.5-12.5-3.3l.2-.9c3.7.1 7.2-.4 10.5-1.4s6.2-2.4 8.8-4.3c2.5-1.9 4.6-4.2 6-6.8 1.5-2.7 2.2-5.7 2.2-9 0-3.7-.9-6.6-2.6-8.8s-3.8-3.8-6.4-4.8-5.1-1.5-7.7-1.5l.2-.9c2.8.1 5.3-.6 7.7-1.9 2.3-1.4 4.2-3.2 5.5-5.6s1.8-5 1.5-7.9c-.2-2.2-.8-4-1.9-5.4s-2.4-2.3-4-2.8-3.3-.7-5.1-.5c-3.6.3-6.2 1.9-7.7 4.7-1.5 2.9-2.2 7.1-2.1 12.7h-.9l-5.1-15.6c2.3-1.9 5.4-3.5 9.3-4.6 4.1-1.1 8.4-1.7 13.3-1.7z" fill="#4aa064"/><path d="m904.6 293-.4-.6c6.4-2 11.4-4.2 15.1-6.7 3.6-2.5 6.3-5.2 8-8.4 1.7-3.1 2.7-6.6 3.1-10.6.4-3.9.6-8.4.6-13.4s-.1-9.1-.4-12.5c-.2-3.3-.8-5.8-1.8-7.5-.9-1.6-2.5-2.5-4.7-2.5s-3.9.7-5 2.2-1.9 3.4-2.3 5.7-.6 4.9-.6 7.7c0 3.4.2 6.1.6 8s.9 3.3 1.6 4.3c.7.9 1.5 1.6 2.3 1.9 1.4.5 2.7.6 3.8.3 1.2-.4 2.1-.8 2.9-1.3l.6.7c-.8 1.9-2.2 3.4-4 4.6s-3.9 2-6.2 2.3c-2.3.4-4.7.3-7.1-.3s-4.6-1.6-6.6-3.2-3.6-3.7-4.8-6.4-1.7-6-1.6-9.9c.1-4 1.1-7.7 3-11s4.7-5.9 8.6-7.9c3.8-2 8.7-3 14.7-3.1 8.8-.1 15.6 2.2 20.3 7s7.1 12.4 7.1 22.7c0 6.4-1 12.2-2.9 17.2-1.9 5.1-4.8 9.3-8.7 12.6-3.9 3.4-8.8 5.7-14.6 7.2-5.9 1.7-12.7 1.9-20.6.9z" fill="#4aa064"/><path d="m966.2 290.9c-2.2 0-4.1-.8-5.7-2.4s-2.4-3.5-2.4-5.7c0-2.3.8-4.2 2.4-5.8s3.5-2.3 5.7-2.3c2.3 0 4.2.8 5.8 2.3 1.6 1.6 2.3 3.5 2.3 5.8 0 2.2-.8 4.1-2.3 5.7-1.6 1.6-3.6 2.4-5.8 2.4z" fill="#4aa064"/><path d="m1022.5 225.4.8 6.7-32 31.1h36c1.7 0 2.9-.3 3.8-.9.8-.6 1.5-1.5 2.1-2.7h.9l-2.8 13h-55.2v-.9zm.9 58.5c0 1.3.5 2.5 1.5 3.4 1 1 2.1 1.4 3.5 1.4h1v.9h-30.4l.1-.9h.9c1.4 0 2.6-.5 3.6-1.4s1.5-2.1 1.5-3.5h18.3zm-18.4-39.1 17.5-19.4h.9v64.2h-18.4z" fill="#4aa064"/><path d="m601.8 292c-.1 0-.2-.1-.1-.2 4.9-3.5 6.8-7.3 6.8-13.9 0-.6 0-.8-.1-1.5 2.4.2 2.6.3 2.6.6 0 .2-.1.3-.6.5 0 .6 0 1.1-.1 1.7.3 2.4 1 4.4 2.1 6.2 1.4 2.1 3.3 3.7 5.9 4.7.1 0 .1.2 0 .2-.6.2-.9.5-1.2 1.3-.1.3-.2.4-.3.4s-.5-.2-.9-.5c-1.9-1.5-3.5-3.5-4.5-5.8-.6-1.4-.9-3-1.1-4.8-.7 5.6-3.1 8.6-8.5 11.1z" fill="#333"/><path d="m510.2 269.1-3.4-9c1-.9 2.2-1.6 3.6-2.2s3-1 4.6-1.3 3.3-.5 4.9-.5c2.7 0 5.1.4 7.3 1.2s3.9 2 5.1 3.5 1.9 3.4 1.9 5.5c0 1.6-.3 3.1-1 4.5s-1.6 2.7-2.7 3.9-2.3 2.3-3.6 3.3-2.6 1.9-3.9 2.8-2.4 1.5-3.4 2.2h9.5c1 0 1.9-.2 2.7-.6s1.6-1 2.2-1.7c.7-.8 1.3-1.8 1.9-3h.5l-3.4 14h-26v-.5c1.4-1.8 2.9-3.5 4.4-5.3s3-3.5 4.4-5.3 2.7-3.5 3.8-5.2 2-3.5 2.7-5.2 1-3.4 1-5c0-2.2-.6-3.9-1.7-5.1s-2.7-1.8-4.7-1.6c-2.1.2-3.7 1.1-4.8 2.9s-1.6 4.3-1.6 7.5h-.3z" fill="#4aa064"/><path d="m544.1 293.8-.2-.4c3.6-1.1 6.4-2.3 8.4-3.7s3.5-2.9 4.4-4.6 1.5-3.7 1.8-5.9c.2-2.2.3-4.7.3-7.4s-.1-5.1-.2-6.9-.5-3.2-1-4.1-1.4-1.4-2.6-1.4-2.2.4-2.8 1.2-1.1 1.9-1.3 3.2-.4 2.7-.4 4.2c0 1.9.1 3.4.3 4.5s.5 1.9.9 2.4.8.9 1.3 1.1c.8.3 1.5.3 2.1.2.7-.2 1.2-.4 1.6-.7l.4.4c-.5 1-1.2 1.9-2.2 2.6s-2.2 1.1-3.5 1.3-2.6.1-4-.2-2.6-.9-3.7-1.8-2-2.1-2.7-3.6-1-3.3-.9-5.5.6-4.3 1.7-6.1c1-1.8 2.6-3.3 4.8-4.4 2.1-1.1 4.8-1.7 8.1-1.7 4.9-.1 8.7 1.2 11.3 3.9s3.9 6.9 3.9 12.6c0 3.6-.5 6.8-1.6 9.6s-2.7 5.2-4.9 7c-2.2 1.9-4.9 3.2-8.1 4-3.1.6-6.9.7-11.2.2z" fill="#4aa064"/><path d="m573.9 291.9v-.5h1.1c.8 0 1.4-.3 1.9-.8s.8-1.2.8-1.9v-25.3c0-1.3-.3-2.2-.9-2.7s-1.4-.8-2.4-.8h-.9v-.5c.7 0 1.6-.1 2.8-.3 1.2-.1 2.5-.3 3.8-.6s2.7-.6 4-1 2.4-.8 3.3-1.4h.5v32.5c0 .7.3 1.4.8 1.9s1.2.8 1.9.8h1.1v.5h-17.8z" fill="#4aa064"/><path d="m736 292.9c-.1 0-.2-.1-.1-.2 4.9-3.5 6.8-7.3 6.8-13.9 0-.6 0-.8-.1-1.5 2.4.2 2.6.3 2.6.6 0 .2-.1.3-.6.5 0 .6 0 1.1-.1 1.7.3 2.4 1 4.4 2.1 6.2 1.4 2.1 3.3 3.7 5.9 4.7.1 0 .1.2 0 .2-.6.2-.9.5-1.2 1.3-.1.3-.2.4-.3.4s-.5-.2-.9-.5c-1.9-1.5-3.5-3.5-4.5-5.8-.6-1.4-.9-3-1.1-4.8-.8 5.6-3.2 8.7-8.5 11.1z" fill="#333"/><path d="m649.3 292.8v-.5h1c.8 0 1.4-.3 2-.8.5-.5.8-1.2.8-1.9v-25.3c0-1.3-.3-2.2-.9-2.7s-1.4-.8-2.4-.8h-.9v-.5c.7 0 1.6-.1 2.8-.3 1.2-.1 2.5-.3 3.8-.6 1.4-.2 2.7-.6 4-1s2.4-.8 3.3-1.4h.5v32.5c0 .7.3 1.4.8 1.9s1.2.8 1.9.8h1v.5h-17.7z" fill="#4aa064"/><path d="m685.9 257.1c3.3 0 6 .8 8.3 2.3s4.1 3.6 5.3 6.3 1.9 5.9 1.9 9.6c0 3.6-.6 6.8-1.9 9.5-1.2 2.7-3 4.9-5.3 6.4s-5.1 2.3-8.3 2.3-6-.8-8.3-2.3-4.1-3.6-5.3-6.4c-1.2-2.7-1.8-5.9-1.8-9.5 0-3.7.6-6.9 1.8-9.6s3-4.8 5.3-6.3 5.1-2.3 8.3-2.3zm0 2.5c-1.7 0-3 1.3-3.8 3.8s-1.2 6.5-1.2 11.9.4 9.3 1.2 11.9c.8 2.5 2.1 3.8 3.8 3.8s3-1.3 3.8-3.8 1.2-6.5 1.2-11.9-.4-9.3-1.2-11.9-2.1-3.8-3.8-3.8z" fill="#4aa064"/><path d="m727 266.2-15.4 1.2-.9 4.1c3.2-.8 6-1 8.5-.7s4.5 1 6.2 2.1 2.9 2.5 3.7 4.3c.8 1.7 1.2 3.7 1 5.8-.1 2.5-.8 4.6-2 6.4s-2.9 3.2-4.9 4.3-4.1 1.8-6.5 2.2c-2.3.4-4.6.5-6.9.2s-4.4-.9-6.2-1.9l.1-.5c.9 0 1.9 0 3.2-.2s2.6-.5 4-1 2.7-1.1 3.9-1.9 2.2-1.7 3-2.8 1.2-2.4 1.4-3.9c.1-1.9-.4-3.4-1.6-4.5s-2.8-1.7-4.8-1.8-4.3.3-6.8 1.4l-.5-.3 4.2-19.2 14.9-1.2c1.1 0 1.9-.2 2.5-.7s1.1-1.1 1.5-1.8h.5z" fill="#4aa064"/><path d="m53.9 51.9c-.6.5-1.4 1-2.1 1.4-.1 0-.2-.1-.1-.2 1.2-1.2 2.2-2.6 3-3.9.4-.7.7-1.5.9-2.1 1.8.9 1.9.9 1.9 1.2 0 .2-.1.3-.7.4-.4.7-1 1.4-1.6 2 .6.1.8.2.8.4s-.1.3-.5.4v7.5c0 .5-.3.8-.9.8-.4 0-.8-.1-.8-.6s.1-1.9.1-4.8zm2.6-7.4c-1.5 1.9-2.7 2.9-4.5 3.8-.1 0-.2-.1-.1-.2.9-.9 1.8-2.1 2.4-3.2.4-.7.7-1.3.8-1.9 1.4.5 2.2.9 2.2 1.2 0 .2-.2.3-.8.3zm6.7 12.9c.6.1 1.4.2 2.2.2.9 0 1.7 0 3.2-.2.1 0 .1.2 0 .2-.5.3-.7.6-.8 1.2-.1.4-.1.5-.3.5s-.3 0-.5 0c-2.6 0-4-.3-5.4-1.1-1.2-.7-1.8-1.5-2.6-3.3-.6 1.8-1.7 3.1-3.2 4.3-.1.1-.2-.1-.1-.2 1.6-2 2.4-4.8 2.4-7.9 0-.2 0-.5 0-.9 1.8.3 2.2.4 2.2.6s-.1.3-.5.4c-.1 1.2-.3 2.2-.6 3 .8 1.4 1.5 2.1 2.4 2.5v-8.8h-2.8c-.3 0-.6 0-1.1.1l-.2-.7c.5.1.8.1 1.2.1h4c.5-1 .9-2.1 1.2-3.2.1-.4.2-.8.3-1.3 1.7.6 2.3.9 2.3 1.1s-.2.3-.7.3c-.8 1.2-1.7 2.3-2.5 3h2.2c.8-1 1-1.1 1.1-1.1.2 0 .4.1 1.1.8.3.3.5.5.5.6s-.1.2-.2.2h-4.9v4h1.7c.8-1 1-1.1 1.1-1.1.2 0 .3.1 1.1.8.3.3.5.4.5.6s-.1.2-.2.2h-4.1zm-2.7-10.3c-.5 0-.6-.1-.8-1.4-.2-.8-.5-1.5-.9-2.1-.1-.1.1-.2.1-.2 1.7.7 2.6 1.5 2.6 2.4 0 .8-.4 1.3-1 1.3z" fill="#333"/><path d="m82.6 54.3c.8.7 1.8 1.3 2.9 1.8 1.4.6 3 .9 4.7 1 .1 0 .1.2 0 .2-.7.3-.8.4-1.3 1.5-.1.1-.2.2-.3.2s-.5-.1-.8-.3c-1.1-.4-2.2-1-3.2-1.7-.8-.6-1.6-1.4-2.3-2.4.1 2.3.1 4 .1 4.5s-.3.7-1.1.7c-.5 0-.7-.2-.7-.6s.1-2.2.1-3.8c-1.5 1.7-4 3-7.1 3.7-.1 0-.2-.1-.1-.2 2.7-1.3 4.6-2.7 6-4.6h-4.2c-.4 0-.8 0-1.3.1l-.2-.7c.6.1 1 .1 1.4.1h5.5v-1.7h-3.5c-.4 0-.8 0-1.3.1l-.2-.7c.6.1 1 .1 1.4.1h3.6v-1.6h-4.5c-.4 0-.8 0-1.3.1l-.2-.7c.6.1 1 .1 1.4.1h3c-.2-.1-.4-.3-.5-.8-.1-.6-.5-1.2-.9-1.5-.1-.1 0-.2.1-.1 1.6.3 2.4.8 2.4 1.6 0 .4-.3.8-.6.9h2.9c.3-.6.6-1.1.8-1.5s.3-.8.4-1.1c1.5.6 2.1.8 2.1 1.1s-.1.3-.8.3c-.7.6-1.3 1-1.8 1.3h3c.8-.9 1.1-1.1 1.2-1.1.2 0 .4.1 1.2.8.3.3.5.4.5.6s-.1.2-.2.2h-6.4v1.6h2.8c.8-.9 1-1 1.1-1 .2 0 .4.1 1 .7.3.3.5.4.5.5s-.1.2-.2.2h-5.2v1.7h4.5c.9-1 1.1-1.2 1.3-1.2s.3.1 1.2.8c.4.3.5.5.5.6s-.1.2-.2.2zm-3.4-10c0-.8 0-.9-.1-1.3 2 .2 2.2.3 2.2.6 0 .1-.1.3-.6.5v2.6h1.5v-2.2c0-.8 0-.9-.1-1.3 2.1.2 2.3.3 2.3.6 0 .1-.1.3-.6.5v2.6h.7c.4-.7.8-1.4 1-2 .2-.4.3-.8.4-1.2 1.6.7 2.1 1 2.1 1.2 0 .3-.1.3-.8.3-.7.7-1.6 1.4-2.2 1.7h2.1c.8-.9 1-1 1.2-1s.4.1 1.1.7c.3.3.5.4.5.6s.1-.2-.1-.2h-14.5c-.4 0-.8 0-1.3.1l-.2-.7c.6.1 1 .1 1.5.1h4v-2.2zm-1.9 2c-.4 0-.6-.2-.8-.7-.2-.8-.5-1.3-1-1.8-.1-.1 0-.2.1-.2 1.7.3 2.6.9 2.6 1.7 0 .6-.4 1-.9 1z" fill="#333"/><path d="m101.6 57.9c-1.8.9-3.4 1.3-5.9 1.6-.1 0-.1-.2-.1-.2 1.3-.5 2.6-1.2 3.6-1.8.5-.4 1-.8 1.2-1.1 1.6.8 2.1 1.1 2.1 1.3s-.2.2-.9.2zm-2.3-2c0 .5-.3.7-1 .7-.6 0-.8-.2-.8-.6 0-.7.1-1.7.1-4.6 0-1.1 0-2.4-.1-3.6 1 .4 1 .5 2 1h8.1c.6-.7.8-.8.9-.8.2 0 .3.1 1 .6.3.3.4.4.4.5 0 .2-.1.3-.5.6v1.1c0 2.5.1 4.4.1 5 0 .5-.3.7-1 .7-.6 0-.8-.2-.8-.6v-.1zm.8-8.6c0 .5-.3.7-1 .7-.4 0-.7-.1-.7-.5s0-1.1 0-2.2c0-.8 0-1.1-.1-1.9 1 .4 1.1.5 1.9.9h6.5c.6-.7.8-.8.9-.8.2 0 .3.1 1 .6.3.3.4.4.4.5 0 .2-.1.2-.5.5v.3c0 .9.1 1.5.1 1.8 0 .5-.3.7-1 .7-.5 0-.8-.2-.8-.6zm7.7 2h-8.5v1.7h8.5zm-8.5 3.9h8.5v-1.8h-8.5zm0 2.3h8.5v-1.9h-8.5zm7.6-10.8h-6.8v2.2h6.8zm2.8 14.9c-.4 0-.5-.1-1-.6-.9-.9-2.1-1.7-3.8-2.2-.1 0 0-.2.1-.2 4 .2 5.6.8 5.6 2.1-.1.5-.4.9-.9.9z" fill="#333"/><path d="m122 48.9v1.5c0 .5-.3.7-.9.7-.5 0-.7-.1-.7-.6 0-.1 0-.7.1-1.6-1.1 1.4-2.5 2.4-4 3-.1 0-.2-.1-.1-.2 1.4-1.1 2.4-2.4 3.2-3.9h-1.3c-.4 0-.7 0-1.2.1l-.2-.7c.5.1 1 .1 1.4.1h2.2v-2.3c0-.6 0-1-.1-1.7 1.7.2 2.1.3 2.1.5s-.1.3-.5.4v3.1h1.6c.5-.8.7-.9.9-.9s.4.1 1 .6c.3.2.4.4.4.5s-.1.2-.2.2h-3.7v.6c1.7.3 2.5.8 2.5 1.7 0 .4-.3.7-.7.7-.3 0-.5-.2-.8-.7-.4-.7-.6-1-1-1.3zm2.2 4.5c-.3 1-.7 1.9-1.2 2.7.8.4 1.2.8 1.2 1.4 0 .5-.3.8-.8.8-.4 0-.5-.1-1.4-1.1-1.2 1.2-2.9 1.9-5.1 2.3-.1 0-.1-.2-.1-.2 1.8-.7 3.3-1.6 4.2-2.9-.4-.3-.9-.6-1.3-.8l-.4.7c-.2.4-.4.5-.8.5-.5 0-.8-.2-.8-.5 0-.1.1-.3.2-.5.5-.8.9-1.6 1.3-2.3h-1c-.4 0-.7 0-1.2.1l-.2-.7c.5.1 1 .1 1.4.1h1.2l.1-.2c.3-.6.4-1.1.5-1.6 1.8.3 1.9.4 1.9.6s-.1.3-.6.4c-.1.3-.2.5-.3.7h2.5c.6-.8.9-.9 1-.9.2 0 .3.1.9.6.2.2.4.4.4.5s-.1.2-.2.2h-1.4zm-5.1-6.6c-.5 0-.6-.1-.7-1.1-.1-.7-.3-1.1-.7-1.5-.1-.1 0-.1.1-.1 1.3.3 2.1 1 2.1 1.9 0 .5-.4.8-.8.8zm.9 8.5c.6.1 1.1.2 1.7.4.4-.7.7-1.4.9-2.2h-1.7zm4.7-10.2c-.7.8-1.2 1.3-2.2 1.9-.1.1-.2 0-.1-.1.3-.4.6-1.1.8-1.8.2-.5.3-1 .4-1.2 1.2.5 1.7.8 1.7 1s0 .2-.6.2zm7.1 2.7c-.3 2.4-.9 4.9-2.3 7 1.2 1.2 2.6 2.1 4.3 2.7.1 0 .1.2 0 .2-.5.2-.6.4-.8 1.3-.1.5-.2.5-.4.5-.1 0-.5-.2-.9-.5-1.2-.8-2.2-1.9-3-3-1.4 1.6-3.2 2.8-5.5 3.6-.1 0-.2-.2-.1-.2 2.1-1.3 3.7-2.8 4.8-4.6-.8-1.5-1.2-3.2-1.5-4.8-.5.7-1 1.3-1.7 1.9-.1.1-.2-.1-.2-.1 1-1.7 1.9-4 2.3-6 .2-.9.3-1.7.3-2.4 2 .5 2.4.6 2.4.8s-.2.3-.7.5c-.3 1.1-.6 2.1-1 2.9h3.1c.8-1 1-1.1 1.1-1.1.2 0 .3.1 1.1.8.3.3.5.5.5.6s-.1.2-.2.2h-1.6zm-4.2 0c-.3.6-.6 1.1-.9 1.7.4 1.5 1 2.9 1.9 4.1.9-1.8 1.3-3.8 1.5-5.8z" fill="#333"/><path d="m851.1 51.8h4.3c1-1.3 1.3-1.5 1.4-1.5.2 0 .4.1 1.4 1 .5.4.6.6.6.7s-.1.2-.2.2h-7.5v.2c0 3.4.1 4.9.1 6.3 0 .6-.4.8-1.1.8-.6 0-.8-.2-.8-.7s.1-3.4.1-6.4v-.3h-5.2c-.5 0-1 0-1.7.1l-.2-.7c.8.1 1.3.1 1.9.1h5.2v-7.1h-4.4c-.5 0-1 0-1.7.1l-.2-.7c.7.1 1.3.1 1.9.1h10c.9-1.1 1.2-1.3 1.3-1.3.2 0 .4.1 1.3.9.4.3.6.5.6.6s-.1.2-.2.2h-6.7v7.4zm-4.6-1.1c-.5 0-.7-.2-.8-1.3-.2-1.5-.6-2.4-1.3-3.5-.1-.1.1-.2.1-.1 2 1.1 3 2.4 3 3.7.1.6-.4 1.2-1 1.2zm9.6-3.7c-1.2 1.9-2.4 3.2-4 4.2-.1.1-.2-.1-.2-.2.8-1 1.6-2.5 2.2-3.9.2-.6.4-1.2.5-1.7 1.6.7 2.2 1 2.2 1.3.1.1-.1.2-.7.3z" fill="#333"/><path d="m870 48.6c.5-1 1-2.1 1.3-3.2.3-.8.4-1.6.4-2.3 2 .5 2.5.6 2.5.9 0 .2-.2.3-.7.4-.3.8-.7 1.5-1.1 2.2h5.2c.7-.8.8-.9 1-.9s.3.1 1 .8c.3.3.4.4.4.6 0 .1-.1.2-.6.6-.1 5.3-.3 7.7-.8 9.7-.2.7-.5 1.2-.9 1.5-.5.4-1.1.6-1.6.6-.4 0-.4-.1-.5-.5-.1-.6-.6-1-2-1.4-.1 0-.1-.3 0-.3 1.4.1 1.8.2 2.1.2.8 0 1-.1 1.2-.3.6-1.2.9-3.7 1-10h-5.7c-.9 1.5-2 2.7-3.2 3.6-.1.1-.2-.1-.2-.1.4-.6.8-1.3 1.2-2.1-.1.1-.1.1-.2.1h-2v4.9c.8-.3 1.6-.6 2.3-.8.1 0 .2.1.1.2-1.8 1.4-2.8 2-5 3.2 0 .6-.1.8-.4.8s-.6-.6-1.2-2.2c.4 0 .9-.2 1.5-.3.3-.1.6-.2 1-.3v-5.4h-1.1c-.3 0-.5 0-.9.1l-.2-.7c.4.1.7.1 1 .1h1.2v-2.8c0-.9 0-1.6-.1-2.2 2.2.2 2.4.4 2.4.6s-.2.3-.6.5v3.9h.1c.5-.9.7-1 .8-1 .2 0 .3.1.9.7.2.2.4.4.4.6zm1 7.4c0 .6-.1.8-.4.8s-.5-.4-1.2-2.2c.4 0 1-.1 1.5-.2 1.7-.3 3.9-.8 5.5-1.4.1 0 .2.1.1.2-1.7 1.2-2.9 1.7-5.5 2.8zm2.9-5.7c.7-.9.9-1.1 1.1-1.1s.3.1 1 .8c.3.3.4.4.4.6s-.1.2-.2.2h-4.7c-.3 0-.5 0-.8.1l-.2-.7c.4.1.7.1 1 .1z" fill="#333"/><path d="m898.4 53.9c1-1.2 1.2-1.3 1.3-1.3.2 0 .4.1 1.3.9.4.4.6.5.6.6s-.1.2-.2.2h-6.3c0 1.9.1 3.7.1 4.4 0 .5-.4.8-1.1.8-.5 0-.8-.2-.8-.6 0-.5.1-1.9.1-4.6h-6.4c-.4 0-.8 0-1.3.1l-.2-.7c.6.1 1 .1 1.5.1h1.6v-2.5c0-.9 0-1.8-.1-2.7.9.3 1 .4 1.9.9h3v-3.3h-3.4c-1.1 1.7-2.4 2.9-4.1 3.9-.1.1-.3-.1-.2-.2 1.2-1.2 2.4-3.3 3.1-5.1.3-.7.5-1.5.6-2.1 1.9.6 2.4.8 2.4 1.1 0 .2-.2.3-.8.4-.3.6-.5 1.1-.8 1.5h7.6c.9-1.1 1.2-1.2 1.3-1.2.2 0 .4.1 1.3.9.4.3.6.5.6.6s-.1.2-.2.2h-5.7v3.3h2.1c.9-1 1.1-1.2 1.2-1.2.2 0 .3.1 1.2.8.4.3.5.5.5.6s-.1.2-.3.2h-4.8v.6 3.2h3.4zm-5.1-3.9h-3.1v3.9h3.1z" fill="#333"/><path d="m912.3 47.6h1.2c.6-.8.8-.9 1-.9s.3.1.9.6c.2.2.4.4.4.5s-.1.2-.2.2h-7.2c-.3 0-.7 0-1.2.1l-.2-.7c.5.1.9.1 1.3.1v-1.8c0-.6 0-1.1-.1-1.5 1.9.2 2.1.4 2.1.6 0 .1-.2.3-.6.4v2.3h1.1v-2.8c0-.6 0-1.1-.1-1.7 1.9.2 2.1.3 2.1.5s-.2.3-.5.5v1.4h.8c.6-.7.8-.9.9-.9.2 0 .3.1.9.6.2.2.4.4.4.5s-.1.2-.2.2h-2.7v1.8zm1.3 2.4c-.1 0-.1.1-.3.1-.4.6-.8 1.2-1.2 1.8-.1.1-.1 0-.1-.1.2-.5.3-1.1.4-1.6.1-.4.1-.7.1-1 .7.3 1 .4 1.1.5 0-.4 0-.8-.1-1.2 1.7.2 1.8.3 1.8.5 0 .1-.1.2-.4.4v1.5c0 4.1.1 7 .1 7.9 0 .4-.3.6-.8.6-.4 0-.6-.1-.6-.5v-.6h-4.6v.7c0 .5-.3.6-.8.6-.4 0-.6-.1-.6-.5 0-.8.1-3.3.1-8.3 0-1 0-1.5-.1-2.2 1.6.2 1.8.3 1.8.5 0 .1-.1.2-.4.4v8.5h4.6zm-1.8 3.4c1.1.9 1.5 1.5 1.5 2.1 0 .4-.2.6-.5.6-.4 0-.5-.1-.6-.9-.1-.4-.3-.9-.5-1.4v3.3c0 .3-.2.5-.6.5-.3 0-.5-.1-.5-.5 0-.3.1-1.4.1-2.6-.5.9-.9 1.3-1.5 1.9-.1.1-.2 0-.1-.1.6-.9 1.2-2.3 1.4-3.5h-.5c-.2 0-.4 0-.7.1l-.2-.7c.4.1.6.1.9.1h.7v-2.6c0-.7 0-.8-.1-1.3 1.4.1 1.6.2 1.6.4 0 .1-.1.2-.5.4v3.2h.4c.2-.4.4-.5.5-.5.2 0 .3.1.5.4.2.2.2.3.2.4s-.1.2-.2.2h-1.5v.5zm-1.9-1.6c-.3 0-.3-.1-.4-.6 0-.7-.1-1.1-.4-1.7 0-.1 0-.1.1-.1.8.6 1.2 1.2 1.2 1.9 0 .2-.2.5-.5.5zm5.3-1.7c-.1.1-.2-.1-.1-.2 1-1.2 2-3 2.6-4.7.3-.7.4-1.4.6-2.1 2.1.6 2.1.6 2.1.8 0 .1-.1.3-.5.3.3.8.9 1.7 1.6 2.5.8.9 1.7 1.6 2.6 1.9.1 0 0 .2-.1.2-.4.1-.7.5-1 1.1-.1.2-.1.3-.3.3-.1 0-.3-.1-.5-.4-.5-.5-.9-1.1-1.5-2.1-.5-.9-.8-1.8-1.3-3.2-.9 2.6-2.4 4.5-4.2 5.6zm1.6 2.2c-.3 0-.7 0-1.1.1l-.2-.7c.6.1 1 .2 1.4.2h3.9c.5-.6.7-.7.8-.7.2 0 .3.1.9.6.3.2.4.4.4.5s-.1.2-.4.5v1.2 2.4c0 .5-.1.9-.4 1.2s-.7.4-1.2.4c-.2 0-.3-.1-.3-.4-.1-.6-.3-.8-1.4-1.1-.1 0-.1-.2 0-.2.8.1 1 .1 1.5.1.2 0 .2 0 .2-.3v-3.6h-2v2.3c0 1.6.1 3.7.1 4.4 0 .5-.3.7-1 .7-.5 0-.7-.2-.7-.6s.1-1.7.1-4.3v-2.6h-.6zm2.7-3.1c.5-.7.7-.8.8-.8.2 0 .3.1.8.6.2.2.3.3.3.5s-.1.2-.2.2h-3.1c-.3 0-.7 0-1.2.1l-.2-.7c.5.1.9.1 1.4.1z" fill="#333"/><path d="m298.8 47.5c-.5 2.2-1.3 4.3-2.7 6.1 2.9 1.2 4.7 2.5 4.7 3.7 0 .7-.3 1.2-.8 1.2-.3 0-.6-.1-1-.6-1.2-1.3-2.5-2.3-3.8-3.2-2.1 2.1-5 3.3-8.9 3.7-.1 0-.1-.3-.1-.3 3.3-.9 5.9-2.3 7.7-4.3-1-.6-2-1.1-3-1.5-.1.3-.3.5-.5.8-.3.4-.4.5-.7.5-.7 0-1.1-.2-1.1-.5 0-.1.1-.4.3-.7.7-1.2 1.6-3 2.3-4.8h-3c-.5 0-1 0-1.7.1l-.2-.7c.8.1 1.3.1 1.9.1h3.2c.1-.3.3-.7.4-1 .5-1.5.9-3 1-3.9 2.1.4 2.3.5 2.3.8 0 .2-.1.3-.7.5-.4 1.3-.8 2.5-1.2 3.6h6.5c.9-1.2 1.2-1.3 1.3-1.3.2 0 .4.1 1.3.9.4.3.5.5.5.6s-.1.2-.2.2zm-5.9 0c-.5 1.5-1.2 3-1.9 4.4 1.5.4 2.5.7 3.5 1.1 1.2-1.6 1.9-3.5 2.4-5.5z" fill="#333"/><path d="m309.5 47.7c0 1.2-.4 2.1-1.3 2.1-.5 0-.8-.4-.8-.9 0-.4.1-.7.5-.9.8-.5 1-.9 1.1-2.2 0-.1.1-.1.2 0 .2.7.3 1.3.3 1.9zm2.2-2.2c0 6.4.1 10.9.1 12.3 0 .5-.3.8-1 .8-.6 0-.8-.2-.8-.6 0-1.4.1-5.4.1-13.6 0-1.2 0-1.5-.1-2.3 2.3.3 2.3.3 2.3.5s-.1.3-.6.5zm1.1 2.8c-.5 0-.6-.2-.6-1.1 0-.7-.2-1.4-.5-1.8-.1-.1 0-.1.1-.1 1.1.6 1.6 1.3 1.6 2.1.1.5-.2.9-.6.9zm6.4 3.5h1.3c.9-1.1 1.1-1.3 1.2-1.3.2 0 .3.1 1.2.9.4.3.5.5.5.6s-.1.2-.2.2h-4v5h2c1-1.1 1.2-1.3 1.3-1.3.2 0 .4.1 1.3.9.4.4.6.5.6.6s-.1.2-.2.2h-10c-.4 0-.9 0-1.5.1l-.2-.7c.6.1 1.1.1 1.6.1h3.4v-5h-2.2c-.3 0-.7 0-1.2.1l-.2-.7c.5.1.9.1 1.3.1h2.2v-4.2h-2.1c-.7 1.4-1.5 2.5-2.7 3.5-.1.1-.2-.1-.2-.2.8-1.4 1.4-3 1.8-4.6.2-.8.3-1.7.4-2.6 2.3.6 2.3.6 2.3.9 0 .2 0 .2-.6.5-.2.8-.5 1.5-.8 2.1h1.9v-2.4c0-1.1 0-2-.1-2.6 2.3.2 2.5.4 2.5.6s-.2.3-.6.5v3.9h1.9c.8-1.1 1-1.2 1.1-1.2.2 0 .3.1 1.2.9.4.3.5.5.5.6s-.1.2-.2.2h-4.4v4.3z" fill="#333"/><path d="m331.2 50.8c-.6.5-1.4 1-2.1 1.4-.1 0-.2-.1-.1-.2 1.2-1.2 2.2-2.6 3-3.9.4-.7.7-1.5.9-2.1 1.8.9 1.9.9 1.9 1.2 0 .2-.1.3-.7.4-.4.7-1 1.4-1.6 2 .6.1.8.2.8.4s-.1.3-.5.4v7.5c0 .5-.3.8-.9.8-.4 0-.8-.1-.8-.6s.1-1.9.1-4.8zm2.7-7.3c-1.5 1.9-2.7 2.9-4.5 3.8-.1 0-.2-.1-.1-.2.9-.9 1.8-2.1 2.4-3.2.4-.7.7-1.3.8-1.9 1.4.5 2.2.9 2.2 1.2-.1.2-.3.3-.8.3zm6.6 12.9c.6.1 1.4.2 2.2.2.9 0 1.7 0 3.2-.2.1 0 .1.2 0 .2-.5.3-.7.6-.8 1.2-.1.4-.1.5-.3.5s-.3 0-.5 0c-2.6 0-4-.3-5.4-1.1-1.2-.7-1.8-1.5-2.6-3.3-.6 1.8-1.7 3.1-3.2 4.3-.1.1-.2-.1-.1-.2 1.6-2 2.4-4.8 2.4-7.9 0-.2 0-.5 0-.9 1.8.3 2.2.4 2.2.6s-.1.3-.5.4c-.1 1.2-.3 2.2-.6 3 .8 1.4 1.5 2.1 2.4 2.5v-8.7h-2.8c-.3 0-.6 0-1.1.1l-.2-.7c.5.1.8.1 1.2.1h4c.5-1 .9-2.1 1.2-3.2.1-.4.2-.8.3-1.3 1.7.6 2.3.9 2.3 1.1s-.2.3-.7.3c-.8 1.2-1.7 2.3-2.5 3h2.2c.8-1 1-1.1 1.1-1.1.2 0 .4.1 1.1.8.3.3.5.5.5.6s-.1.2-.2.2h-4.9v4h1.7c.8-1 1-1.1 1.1-1.1.2 0 .3.1 1.1.8.3.3.5.4.5.6s-.1.2-.2.2h-4.1zm-2.7-10.3c-.5 0-.6-.1-.8-1.4-.2-.8-.5-1.5-.9-2.1-.1-.1.1-.2.1-.2 1.7.7 2.6 1.5 2.6 2.4 0 .7-.4 1.3-1 1.3z" fill="#333"/><path d="m359.9 53.2c.8.7 1.8 1.3 2.9 1.8 1.4.6 3 .9 4.7 1 .1 0 .1.2 0 .2-.7.3-.8.4-1.3 1.5-.1.1-.2.2-.3.2s-.5-.1-.8-.3c-1.1-.4-2.2-1-3.2-1.7-.8-.6-1.6-1.4-2.3-2.4.1 2.3.1 4 .1 4.5s-.3.7-1.1.7c-.5 0-.7-.2-.7-.6s.1-2.2.1-3.8c-1.5 1.7-4 3-7.1 3.7-.1 0-.2-.1-.1-.2 2.7-1.3 4.6-2.7 6-4.6h-4.2c-.4 0-.8 0-1.3.1l-.2-.7c.6.1 1 .1 1.4.1h5.5v-1.7h-3.5c-.4 0-.8 0-1.3.1l-.2-.7c.6.1 1 .1 1.4.1h3.6v-1.6h-4.5c-.4 0-.8 0-1.3.1l-.2-.7c.6.1 1 .1 1.4.1h3c-.2-.1-.4-.3-.5-.8-.1-.6-.5-1.2-.9-1.5-.1-.1 0-.2.1-.1 1.6.3 2.4.8 2.4 1.6 0 .4-.3.8-.6.9h2.9c.3-.6.6-1.1.8-1.5s.3-.8.4-1.1c1.5.6 2.1.8 2.1 1.1s-.1.3-.8.3c-.7.6-1.3 1-1.8 1.3h3c.8-.9 1.1-1.1 1.2-1.1.2 0 .4.1 1.2.8.3.3.5.4.5.6s-.1.2-.2.2h-6.4v1.6h2.8c.8-.9 1-1 1.1-1 .2 0 .4.1 1 .7.3.3.5.4.5.5s-.1.2-.2.2h-5.2v1.7h4.5c.9-1 1.1-1.2 1.3-1.2s.3.1 1.2.8c.4.3.5.5.5.6s-.1.2-.2.2zm-3.4-9.9c0-.8 0-.9-.1-1.3 2 .2 2.2.3 2.2.6 0 .1-.1.3-.6.5v2.6h1.5v-2.2c0-.8 0-.9-.1-1.3 2.1.2 2.3.3 2.3.6 0 .1-.1.3-.6.5v2.6h.7c.4-.7.8-1.4 1-2 .2-.4.3-.8.4-1.2 1.6.7 2.1 1 2.1 1.2 0 .3-.1.3-.8.3-.7.7-1.6 1.4-2.2 1.7h2.1c.8-.9 1-1 1.2-1s.4.1 1.1.7c.3.3.5.4.5.6s-.1.2-.2.2h-14.5c-.4 0-.8 0-1.3.1l-.2-.7c.6.1 1 .1 1.5.1h4zm-1.9 1.9c-.4 0-.6-.2-.8-.7-.2-.8-.5-1.3-1-1.8-.1-.1 0-.2.1-.2 1.7.3 2.6.9 2.6 1.7 0 .6-.4 1-.9 1z" fill="#333"/><path d="m378.9 56.8c-1.8.9-3.4 1.3-5.9 1.6-.1 0-.1-.2-.1-.2 1.3-.5 2.6-1.2 3.6-1.8.5-.4 1-.8 1.2-1.1 1.6.8 2.1 1.1 2.1 1.3s-.2.3-.9.2zm-2.3-1.9c0 .5-.3.7-1 .7-.6 0-.8-.2-.8-.6 0-.7.1-1.7.1-4.6 0-1.1 0-2.4-.1-3.6 1 .4 1 .5 2 1h8.1c.6-.7.8-.8.9-.8.2 0 .3.1 1 .6.3.3.4.4.4.5 0 .2-.1.3-.5.6v1.1c0 2.5.1 4.4.1 5 0 .5-.3.7-1 .7-.6 0-.8-.2-.8-.6v-.1zm.9-8.6c0 .5-.3.7-1 .7-.4 0-.7-.1-.7-.5s0-1.1 0-2.2c0-.8 0-1.1-.1-1.9 1 .4 1.1.5 1.9.9h6.5c.6-.7.8-.8.9-.8.2 0 .3.1 1 .6.3.3.4.4.4.5 0 .2-.1.2-.5.5v.3c0 .9.1 1.5.1 1.8 0 .5-.3.7-1 .7-.5 0-.8-.2-.8-.6zm7.6 1.9h-8.5v1.8h8.5zm-8.5 4h8.5v-1.8h-8.5zm0 2.3h8.5v-1.9h-8.5zm7.7-10.8h-6.8v2.2h6.8zm2.7 14.9c-.4 0-.5-.1-1-.6-.9-.9-2.1-1.7-3.8-2.2-.1 0 0-.2.1-.2 4 .2 5.6.8 5.6 2.1-.1.5-.4.9-.9.9z" fill="#333"/><path d="m398.1 55.5c1.4-.3 2.9-.8 4.3-1.3.1 0 .2.1.1.2-1.8 1.2-3.7 2.1-6.6 3.2-.1.5-.2.7-.5.7s-.4-.4-1-2.2c.4 0 .7-.1 1.1-.1.3 0 .6-.1.8-.1v-11.2c0-1.3 0-1.4-.1-2.2 2.2.2 2.5.4 2.5.6s-.1.3-.6.5v4.7h1.7c.9-1 1.1-1.2 1.3-1.2s.3.1 1.2.8c.4.3.5.5.5.6s-.1.2-.2.2h-4.4v6.8zm6.7-5.8c1-.7 1.9-1.6 2.6-2.5.5-.6 1-1.2 1.2-1.8 1.4.9 2 1.3 2 1.6 0 .2-.2.3-.9.3-1.5 1.3-3.2 2.2-5 2.9v5.5c0 .7.2.8 2.2.8.9 0 1.2 0 1.6-.2.5-.3.8-1.1 1.3-2.8 0-.1.2-.1.2 0-.1.7-.1 2-.1 2.3 0 .2.1.3.2.4.4.2.5.3.5.7 0 .5-.3.8-1.1 1-.6.1-1.5.2-2.8.2-3.3 0-3.8-.3-3.8-2 0-.3.1-.7.1-2.1 0-3.8 0-7.6-.1-11.4 2 .2 2.3.3 2.3.6 0 .2-.1.3-.5.5v6z" fill="#333"/><path d="m424.6 54.4c0 1.9.1 3.2.1 3.6s-.4.6-1 .6-.8-.1-.8-.6c0-.4.1-1.5.1-3.6h-5.6c-.4 0-.8 0-1.3.1l-.2-.7c.6.1 1 .1 1.5.1h5.6v-.1c0-.8 0-1.2-.1-2 2.1.2 2.3.3 2.3.6 0 .2-.1.2-.6.5v1.1h4.5c.9-1.1 1.1-1.3 1.2-1.3.2 0 .4.1 1.3.9.4.3.6.5.6.6s-.1.2-.2.2zm-7.1-2.5c0 .5-.1.7-.3.7s-.5-.5-1.2-1.9c.5-.1 1.1-.3 1.5-.5 1.2-.4 2.3-.8 3.2-1.3.1 0 .2.1.2.2-.6.9-1.9 1.9-3.4 2.8zm5.5-7.2c1.3.5 1.7.7 1.7.9s0 .2-.6.2c-.6.6-1 1-1.6 1.4.4.3.6.7.6 1.1 0 .5-.3.8-.7.8s-.5-.1-.8-1c-.3-.7-.6-1.2-1.1-1.7-.1-.1 0-.2.1-.2.6.1 1 .3 1.4.5.2-.3.3-.7.5-1 .2-.4.3-.8.4-1.2h-5.4c-.4 0-.8 0-1.3.1l-.2-.7c.6.1 1 .1 1.4.1h5.4v-1c0-.3 0-.6-.1-1.1 2.2.2 2.4.4 2.4.6s-.2.4-.6.5v1.2h4.3c1-1.1 1.2-1.2 1.3-1.2.2 0 .3.1 1.2.8.4.3.5.5.5.6s-.1.2-.2.2h-8.6zm-4 4c-.5 0-.6-.2-.9-1.1s-.6-1.4-1.2-1.9c-.1-.1 0-.2.1-.2 2 .6 2.9 1.3 2.9 2.2 0 .6-.4 1-.9 1zm6.8 1.8c-.2-.4-.4-.7-.7-1.1-.1-.1 0-.2.1-.1 1.5.5 2.5 1.3 2.5 2.2 0 .5-.4.9-.8.9s-.5-.1-.8-1.1c0-.1-.1-.3-.1-.4-1.3.5-2.8.9-4.7 1.2-.1.4-.1.5-.3.5-.3 0-.4-.3-.8-1.9.8 0 1.2.1 1.8.1 1-1.1 1.7-2.1 2.3-3 .3-.5.6-1 .8-1.5 1.5.8 1.8 1 1.8 1.2s0 .2-.8.2c-1.7 1.6-2.6 2.4-3.4 3 1.1-.1 2.1-.1 3.1-.2zm4.5-3.7c-1 .9-2.3 1.6-3.4 2.1-.1 0-.2-.1-.2-.2.5-.5 1.2-1.4 1.8-2.1.3-.5.6-1 .7-1.3 1.4.7 1.8 1 1.8 1.2s-.1.3-.7.3zm-.1 5.4c-.5 0-.6-.1-1.1-1-.5-.8-1-1.3-1.7-1.8-.1-.1 0-.2.1-.2 2.4.4 3.6 1.1 3.6 2.1 0 .5-.4.9-.9.9z" fill="#333"/><path d="m572.5 127.2 3.3-29.8h-61.6l-3.3 29.8z" fill="#333"/><path d="m534.6 115.1c-.3.9-.7 1.7-1.3 2.3-1.1 1.2-2.7 1.8-4.9 2.1-.1 0-.1-.1 0-.2 1.5-.5 2.8-1.1 3.6-2.1.6-.6 1-1.4 1.3-2.2h-3.2c-.3 0-.7 0-1.2.1l-.2-.5c.5.1.9.1 1.3.1h3.3c.1-.5.2-1.1.2-1.7 1.5.2 1.8.2 1.8.5 0 .1-.1.2-.4.3 0 .3-.1.6-.2.9h3.6c.5-.5.6-.6.7-.6s.3.1.8.5c.2.2.3.3.3.4s0 .1-.4.4c-.3 2-.5 2.8-.8 3.2-.2.3-.4.5-.8.6-.3.1-.6.2-.9.2s-.3-.1-.4-.3c-.1-.5-.3-.8-1.6-1.1-.1 0-.1-.2 0-.2 1.1.1 1.7.1 2 .1.4 0 .6-.1.8-.5s.3-1.2.5-2.4zm-3.5-2.2c0 .4-.2.5-.8.5-.4 0-.6-.1-.6-.5 0-.5 0-1.1 0-3.3 0-.9 0-1.7-.1-2.6.7.3.8.3 1.5.7h6.5c.5-.5.6-.6.7-.6s.3.1.8.5c.2.2.3.3.3.4s-.1.2-.4.5v.7c0 1.9.1 3.2.1 3.7 0 .4-.3.6-.8.6-.4 0-.6-.1-.6-.5v-.3h-6.8v.2zm2.7-2.9v-1.9h-2.7v1.9zm-2.7 2.3h2.7v-2h-2.7zm6.8-4.2h-2.8v1.9h2.8zm0 2.2h-2.8v2h2.8z" fill="#fff"/><path d="m546.3 111.2c0 .9-.3 1.7-1 1.7-.4 0-.6-.3-.6-.7 0-.3.1-.5.4-.7.6-.4.8-.7.9-1.7 0-.1.1-.1.1 0 .1.4.2.9.2 1.4zm1.6-1.7v9.6c0 .4-.2.6-.8.6-.4 0-.6-.1-.6-.5 0-1.1.1-4.2.1-10.6 0-1 0-1.2-.1-1.8 1.8.2 1.8.2 1.8.4 0 .1-.1.2-.4.4zm.9 2.1c-.4 0-.4-.2-.4-.8 0-.5-.1-1.1-.4-1.4 0-.1 0-.1.1-.1.9.5 1.3 1 1.3 1.7 0 .3-.3.6-.6.6zm5 2.8h1c.7-.9.8-1 .9-1s.3.1 1 .7c.3.3.4.4.4.5s0 .1-.2.1h-3.1v3.9h1.6c.7-.9.9-1 1-1s.3.1 1 .7c.3.3.4.4.4.5s0 .1-.2.1h-7.8c-.4 0-.7 0-1.2.1l-.2-.5c.5.1.9.1 1.2.1h2.6v-3.9h-1.7c-.3 0-.5 0-.9.1l-.2-.5c.4.1.7.1 1 .1h1.7v-3.2h-1.7c-.5 1.1-1.2 1.9-2.1 2.7-.1 0-.2-.1-.1-.1.6-1.1 1.1-2.3 1.4-3.6.2-.7.3-1.3.3-2 1.8.5 1.8.5 1.8.7s0 .2-.5.3c-.2.6-.4 1.1-.6 1.6h1.5v-1.9c0-.9 0-1.5-.1-2 1.8.2 2 .3 2 .5 0 .1-.2.3-.5.4v3h1.4c.6-.9.8-1 .9-1s.3.1.9.7c.3.3.4.4.4.5s0 .1-.2.1h-3.5v3.3z" fill="#fff"/><path d="m714.6 127.2 3.3-29.8h-61.6l-3.3 29.8z" fill="#4aa064"/><path d="m680 111c-.4 1.7-1 3.4-2.1 4.7 2.3 1 3.6 2 3.6 2.8 0 .6-.2.9-.6.9-.3 0-.4-.1-.8-.4-1-1-1.9-1.8-2.9-2.5-1.7 1.6-3.9 2.6-7 2.9-.1 0-.1-.2 0-.2 2.5-.7 4.6-1.8 6-3.4-.8-.4-1.5-.8-2.4-1.2-.1.2-.2.4-.4.6-.2.3-.3.4-.6.4-.5 0-.9-.2-.9-.4 0-.1.1-.3.2-.5.6-.9 1.3-2.4 1.8-3.7h-2.3c-.4 0-.8 0-1.3.1l-.2-.5c.6.1 1 .1 1.5.1h2.5c.1-.3.2-.5.3-.8.4-1.2.7-2.3.8-3 1.7.3 1.8.4 1.8.6s-.1.3-.5.4c-.3 1-.6 1.9-.9 2.8h5.1c.7-.9.9-1 1-1s.3.1 1 .7c.3.3.4.4.4.5s0 .1-.2.1zm-4.6 0c-.4 1.2-.9 2.3-1.5 3.4 1.2.3 1.9.5 2.7.8.9-1.3 1.5-2.7 1.9-4.2z" fill="#fff"/><path d="m688.4 111.2c0 .9-.3 1.7-1 1.7-.4 0-.6-.3-.6-.7 0-.3.1-.5.4-.7.6-.4.8-.7.9-1.7 0-.1.1-.1.1 0 .1.4.2.9.2 1.4zm1.6-1.7v9.6c0 .4-.2.6-.8.6-.4 0-.6-.1-.6-.5 0-1.1.1-4.2.1-10.6 0-1 0-1.2-.1-1.8 1.8.2 1.8.2 1.8.4 0 .1-.1.2-.4.4zm.9 2.1c-.4 0-.4-.2-.4-.8 0-.5-.1-1.1-.4-1.4 0-.1 0-.1.1-.1.9.5 1.3 1 1.3 1.7-.1.3-.3.6-.6.6zm5 2.8h1c.7-.9.8-1 .9-1s.3.1 1 .7c.3.3.4.4.4.5s0 .1-.2.1h-3.1v3.9h1.6c.7-.9.9-1 1-1s.3.1 1 .7c.3.3.4.4.4.5s0 .1-.2.1h-7.7c-.4 0-.7 0-1.2.1l-.2-.5c.5.1.9.1 1.2.1h2.6v-3.9h-1.7c-.3 0-.5 0-.9.1l-.2-.5c.4.1.7.1 1 .1h1.7v-3.2h-1.7c-.5 1.1-1.2 1.9-2.1 2.7-.1 0-.2-.1-.1-.1.6-1.1 1.1-2.3 1.4-3.6.2-.7.3-1.3.3-2 1.8.5 1.8.5 1.8.7s0 .2-.5.3c-.2.6-.4 1.1-.6 1.6h1.5v-1.9c0-.9 0-1.5-.1-2 1.8.2 2 .3 2 .5 0 .1-.2.3-.5.4v3h1.4c.6-.9.8-1 .9-1s.3.1.9.7c.3.3.4.4.4.5s0 .1-.2.1h-3.5v3.3z" fill="#fff"/><path clip-rule="evenodd" d="m377.1 196.4-97.2 13.6c-7.6-53.7 29.9-103.4 83.6-111 4.3-.6 9.3-1 13.7-1v98.4z" fill="#4aa064" fill-rule="evenodd"/><path clip-rule="evenodd" d="m377.1 196.4v-98.3c54.3 0 98.2 44 98.2 98.2s-44 98.2-98.2 98.2c-49.9 0-90.3-35.1-97.3-84.6z" fill="#333" fill-rule="evenodd"/><path d="m353.5 167.7c1.1 0 1.8.3 2.4.9s.7 1.5.6 2.6-.5 2-1.3 2.6c-.7.6-1.7.9-2.9.9-1.1 0-1.9-.3-2.4-1s-.7-1.6-.5-2.7.6-1.9 1.3-2.5c.7-.5 1.7-.8 2.8-.8zm-.1.8c-.3 0-.5.2-.8.7-.2.5-.4 1.2-.5 2-.1.9-.1 1.5-.1 2 .1.5.2.7.5.7s.6-.3.8-.7c.2-.5.4-1.1.5-2s.1-1.5 0-2c0-.5-.1-.7-.4-.7zm-.3 13.8-.9-.4 6.9-13.1c-.4.2-.7.4-1.1.4-.4.1-.7.1-1 0-.5-.1-.9-.2-1.2-.3s-.7-.3-1-.5c-.3-.1-.7-.2-1.1-.2l-.3-.7c.5 0 .9 0 1.3.1.3.1.6.2.8.3s.5.2.7.3.5.2.8.2c.4 0 .7 0 1-.1s.6-.2.9-.4c.3-.1.5-.3.7-.4l.8.3zm7.6-7.1c1 0 1.8.3 2.3.9s.7 1.5.6 2.6-.5 2-1.3 2.6c-.7.6-1.7.9-3 .9-1.1 0-1.9-.3-2.4-1s-.7-1.6-.5-2.7.6-1.9 1.3-2.5c.9-.5 1.9-.8 3-.8zm-.2.8c-.3 0-.5.2-.8.7-.2.5-.4 1.2-.5 2-.1.9-.2 1.5-.1 2s.2.7.5.7.6-.2.8-.7.4-1.1.5-2 .1-1.5 0-2c0-.5-.1-.7-.4-.7z" fill="#fff"/><path d="m310.6 167.6-2-5.4c.6-.5 1.3-1 2.2-1.3.8-.3 1.8-.6 2.8-.8s2-.3 2.9-.3c1.6 0 3.1.2 4.4.7s2.3 1.2 3.1 2.1 1.1 2 1.1 3.3c0 1-.2 1.9-.6 2.7s-.9 1.6-1.6 2.3-1.4 1.4-2.2 2-1.6 1.2-2.3 1.6c-.8.5-1.4.9-2 1.3h5.7c.6 0 1.1-.1 1.6-.3s.9-.6 1.4-1c.4-.5.8-1.1 1.1-1.8h.3l-2 8.4h-15.6v-.1c.9-1.1 1.7-2.1 2.7-3.2.9-1.1 1.8-2.1 2.6-3.2.8-1 1.6-2.1 2.3-3.1s1.2-2.1 1.6-3.1.6-2 .6-3c0-1.3-.3-2.3-1-3.1-.7-.7-1.6-1.1-2.8-1-1.3.1-2.2.7-2.9 1.7s-1 2.6-1 4.5h-.4z" fill="#fff"/><path d="m328.4 160.4 15.9-.1-3.8 8.9c-.3.6-.5 1.3-.8 2.1s-.6 1.7-.9 2.6-.6 1.9-.9 2.8-.6 1.8-.8 2.6-.4 1.5-.6 2h-5.1c.4-.6.8-1.3 1.3-2.2.5-.8 1-1.8 1.6-2.7s1.1-1.9 1.6-2.9c.5-.9 1-1.8 1.4-2.6s.8-1.5 1-2l1.6-3.3h-9.6c-.6 0-1.1.1-1.4.4s-.6.8-.8 1.4h-.3z" fill="#fff"/><path d="m436.6 222.9c1.1 0 1.8.3 2.4.9.5.6.7 1.5.6 2.6s-.5 2-1.3 2.6c-.7.6-1.7.9-2.9.9-1.1 0-1.9-.3-2.4-1s-.7-1.6-.5-2.7.6-1.9 1.3-2.5c.8-.5 1.7-.8 2.8-.8zm-.1.8c-.3 0-.5.2-.8.7-.2.5-.4 1.2-.5 2-.1.9-.1 1.5-.1 2 .1.5.2.7.5.7s.6-.3.8-.7c.2-.5.4-1.1.5-2s.1-1.5 0-2c.1-.5-.1-.7-.4-.7zm-.2 13.8-.9-.4 6.9-13.1c-.4.2-.7.4-1.1.4-.4.1-.7.1-1 0-.5-.1-.9-.2-1.2-.3s-.7-.3-1-.5c-.3-.1-.7-.2-1.1-.2l-.3-.7c.5 0 .9 0 1.3.1.3.1.6.2.8.3s.5.2.7.3.5.2.8.2c.4 0 .7 0 1-.1s.6-.2.9-.4c.3-.1.5-.3.7-.4l.8.3zm7.5-7.1c1 0 1.8.3 2.3.9s.7 1.5.6 2.6-.5 2-1.3 2.6c-.7.6-1.7.9-3 .9-1.1 0-1.9-.3-2.4-1s-.7-1.6-.5-2.7.6-1.9 1.3-2.5c1-.5 1.9-.8 3-.8zm-.2.8c-.3 0-.5.2-.8.7-.2.5-.4 1.2-.5 2-.1.9-.2 1.5-.1 2s.2.7.5.7.6-.2.8-.7.4-1.1.5-2 .1-1.5 0-2c.1-.5-.1-.7-.4-.7z" fill="#fff"/><path d="m393.8 215.6 15.9-.1-3.8 8.9c-.3.6-.5 1.3-.8 2.1s-.6 1.7-.9 2.6-.6 1.9-.9 2.8-.6 1.8-.8 2.6-.4 1.5-.6 2h-5.1c.4-.6.8-1.3 1.3-2.2.5-.8 1-1.8 1.6-2.7.5-1 1.1-1.9 1.6-2.9s1-1.8 1.4-2.6.8-1.5 1-2l1.6-3.3h-9.6c-.6 0-1.1.2-1.4.5s-.6.8-.8 1.4h-.3z" fill="#fff"/><path d="m418.3 215.2c1.6 0 3 .2 4.1.6s2 1 2.6 1.8.9 1.7.9 2.8c0 .8-.2 1.6-.5 2.2s-.8 1.1-1.3 1.4c-.5.4-1.1.6-1.8.7-.6.1-1.2.1-1.8-.1.6 0 1.3.1 2 .3s1.4.5 2 1 1.2 1.1 1.6 1.8c.4.8.6 1.7.6 2.9 0 1.4-.3 2.6-1 3.7-.6 1.1-1.5 2-2.6 2.6-1.1.7-2.3 1.2-3.7 1.5s-2.8.4-4.2.2-2.8-.5-4.2-1.1l.1-.3c1.2 0 2.4-.1 3.5-.4s2.1-.8 2.9-1.4 1.5-1.4 2-2.3.7-1.9.7-3c0-1.2-.3-2.2-.9-2.9s-1.3-1.3-2.1-1.6-1.7-.5-2.6-.5l.1-.3c.9 0 1.8-.2 2.6-.6s1.4-1.1 1.8-1.9.6-1.7.5-2.6c-.1-.7-.3-1.3-.6-1.8-.4-.5-.8-.8-1.3-.9-.5-.2-1.1-.2-1.7-.2-1.2.1-2.1.6-2.5 1.6-.5 1-.7 2.4-.7 4.2h-.3l-1.7-5.2c.8-.6 1.8-1.2 3.1-1.5 1.3-.6 2.8-.7 4.4-.7z" fill="#fff"/><path d="m331.1 137.9c-.4 1.7-1 3.4-2.1 4.7 2.3 1 3.6 2 3.6 2.8 0 .6-.2.9-.6.9-.3 0-.4-.1-.8-.4-1-1-1.9-1.8-2.9-2.5-1.7 1.6-3.9 2.6-7 2.9-.1 0-.1-.2 0-.2 2.5-.7 4.6-1.8 6-3.4-.8-.4-1.5-.8-2.4-1.2-.1.2-.2.4-.4.6-.2.3-.3.4-.6.4-.5 0-.9-.2-.9-.4 0-.1.1-.3.2-.5.6-.9 1.3-2.4 1.8-3.7h-2.3c-.4 0-.8 0-1.3.1l-.2-.5c.6.1 1 .1 1.5.1h2.5c.1-.3.2-.5.3-.8.4-1.2.7-2.3.8-3 1.7.3 1.8.4 1.8.6s-.1.3-.5.4c-.3 1-.6 1.9-.9 2.8h5.1c.7-.9.9-1 1-1s.3.1 1 .7c.3.3.4.4.4.5s0 .1-.2.1zm-4.6 0c-.4 1.2-.9 2.3-1.5 3.4 1.2.3 1.9.5 2.7.8.9-1.3 1.5-2.7 1.9-4.2z" fill="#fff"/><path d="m339.4 138.1c0 .9-.3 1.7-1 1.7-.4 0-.6-.3-.6-.7 0-.3.1-.5.4-.7.6-.4.8-.7.9-1.7 0-.1.1-.1.1 0 .1.4.2.9.2 1.4zm1.7-1.7v9.6c0 .4-.2.6-.8.6-.4 0-.6-.1-.6-.5 0-1.1.1-4.2.1-10.6 0-1 0-1.2-.1-1.8 1.8.2 1.8.2 1.8.4 0 .1-.1.2-.4.4zm.9 2.1c-.4 0-.4-.2-.4-.8 0-.5-.1-1.1-.4-1.4 0-.1 0-.1.1-.1.9.5 1.3 1 1.3 1.7-.1.4-.3.6-.6.6zm5 2.8h1c.7-.9.8-1 .9-1s.3.1 1 .7c.3.3.4.4.4.5s0 .1-.2.1h-3.1v3.9h1.6c.7-.9.9-1 1-1s.3.1 1 .7c.3.3.4.4.4.5s0 .1-.2.1h-7.8c-.4 0-.7 0-1.2.1l-.2-.5c.5.1.9.1 1.2.1h2.6v-3.9h-1.7c-.3 0-.5 0-.9.1l-.2-.5c.4.1.7.1 1 .1h1.7v-3.2h-1.7c-.5 1.1-1.2 1.9-2.1 2.7-.1 0-.2-.1-.1-.1.6-1.1 1.1-2.3 1.4-3.6.2-.7.3-1.3.3-2 1.8.5 1.8.5 1.8.7s0 .2-.5.3c-.2.6-.4 1.1-.6 1.6h1.5v-1.9c0-.9 0-1.5-.1-2 1.8.2 2 .3 2 .5 0 .1-.2.3-.5.4v3h1.4c.6-.9.8-1 .9-1s.3.1.9.7c.3.3.4.4.4.5s0 .1-.2.1h-3.1z" fill="#fff"/><path d="m410.2 197.5c-.3.9-.7 1.7-1.3 2.3-1.1 1.2-2.7 1.8-4.9 2.1-.1 0-.1-.1 0-.2 1.5-.5 2.8-1.1 3.6-2.1.6-.6 1-1.4 1.3-2.2h-3.2c-.4 0-.7 0-1.2.1l-.2-.5c.5.1.9.1 1.3.1h3.3c.1-.5.2-1.1.2-1.7 1.5.2 1.8.2 1.8.5 0 .1-.1.2-.4.3 0 .3-.1.6-.2.9h3.6c.5-.5.6-.6.7-.6s.3.1.8.5c.2.2.3.3.3.4s0 .1-.4.4c-.3 2-.5 2.8-.8 3.2-.2.3-.4.5-.8.6-.3.1-.6.2-.9.2s-.4-.1-.4-.3c-.1-.5-.3-.8-1.6-1.1-.1 0-.1-.2 0-.2 1.1.1 1.7.1 2 .1.4 0 .6-.1.8-.5s.3-1.2.5-2.4zm-3.5-2.1c0 .4-.2.5-.8.5-.4 0-.6-.1-.6-.5 0-.5 0-1.1 0-3.3 0-.9 0-1.7-.1-2.6.7.3.8.3 1.5.7h6.5c.5-.5.6-.6.7-.6s.3.1.8.5c.2.2.3.3.3.4s-.1.2-.4.5v.7c0 1.9.1 3.2.1 3.7 0 .4-.3.6-.8.6-.4 0-.6-.1-.6-.5v-.3h-6.8v.2zm2.7-3v-1.9h-2.7v1.9zm-2.7 2.4h2.7v-2h-2.7zm6.8-4.3h-2.8v1.9h2.8zm0 2.3h-2.8v2h2.8z" fill="#fff"/><path d="m421.9 193.7c0 .9-.3 1.7-1 1.7-.4 0-.6-.3-.6-.7 0-.3.1-.5.4-.7.6-.4.8-.7.9-1.7 0-.1.1-.1.1 0 .1.4.2.9.2 1.4zm1.6-1.8v9.6c0 .4-.2.6-.8.6-.4 0-.6-.1-.6-.5 0-1.1.1-4.2.1-10.6 0-1 0-1.2-.1-1.8 1.8.2 1.8.2 1.8.4 0 .1-.1.2-.4.4zm.9 2.2c-.4 0-.4-.2-.4-.8 0-.5-.1-1.1-.4-1.4 0-.1 0-.1.1-.1.9.5 1.3 1 1.3 1.7 0 .3-.2.6-.6.6zm5 2.8h1c.7-.9.8-1 .9-1s.3.1 1 .7c.3.3.4.4.4.5s0 .1-.2.1h-3.1v3.9h1.6c.7-.9.9-1 1-1s.3.1 1 .7c.3.3.4.4.4.5s0 .1-.2.1h-7.8c-.3 0-.7 0-1.2.1l-.2-.5c.5.1.9.1 1.2.1h2.6v-3.9h-1.7c-.3 0-.5 0-.9.1l-.2-.5c.4.1.7.1 1 .1h1.7v-3.2h-1.7c-.5 1.1-1.2 1.9-2.1 2.7-.1 0-.2-.1-.1-.1.6-1.1 1.1-2.3 1.4-3.6.2-.7.3-1.3.3-2 1.8.5 1.8.5 1.8.7s0 .2-.5.3c-.2.6-.4 1.1-.6 1.6h1.5v-1.9c0-.9 0-1.5-.1-2 1.8.2 2 .3 2 .5 0 .1-.2.3-.5.4v3h1.4c.6-.9.8-1 .9-1s.3.1.9.7c.3.3.4.4.4.5s0 .1-.2.1h-3.5v3.3z" fill="#fff"/><path d="m936.7 127.7c-.2-.8-.5-1.5-.9-2.1-.6-1.1-1.5-2-2.4-2.6-.7-.5-1.5-.9-2.2-1.3-1.2-.5-2.3-1-3.4-1.4s-2.1-.8-2.9-1.2h-.1c-.3-.2-.5-.3-.8-.5-.3-.3-.6-.6-.8-.9s-.3-.7-.4-1.2c0-.3 0-.3 0-.6 0-1 .1-1.9.3-2.7.5-.5.9-1.2 1.4-2 .4-.8.8-1.7 1.2-2.8.3-.1.5-.3.8-.4.6-.4 1.1-.9 1.6-1.6s.8-1.6 1.1-2.7c.1-.3.1-.6.1-.9 0-.6-.2-1.2-.4-1.7-.2-.4-.4-.7-.7-1 .1-.5.3-1.1.4-1.9.2-1 .4-2.3.4-3.6 0-.9-.1-1.7-.2-2.6-.1-.7-.3-1.3-.6-1.9-.4-.9-1-1.8-1.8-2.5s-1.7-1.2-2.9-1.5c-.4-.5-.8-.9-1.2-1.2s-.7-.6-1.1-.8c-.6-.3-1.2-.5-1.8-.6s-1.2-.2-1.9-.2c-.9 0-1.8.1-2.9.2-.4 0-.7.1-1 .1-.4.1-.7.2-1 .2-.1 0-.2 0-.3.1-.1 0-.2 0-.3 0-.2 0-.4 0-.6 0-.8-.1-1.4-.3-2-.4-.3-.1-.5-.2-.7-.2-.1 0-.2-.1-.2-.1-.1 0-.1 0-.1-.1-.1 0-.2-.1-.2-.1-.1 0-.1 0-.2 0s-.2 0-.3 0-.1 0-.2.1c-.1 0-.2.1-.2.1-.1.1-.2.2-.4.2-.2.2-.5.4-.7.6-.4.4-.8.8-1.1 1.3-.2.2-.4.5-.5.7-.2.3-.3.5-.4.8-.5 1.4-.9 2.6-1.1 3.8s-.3 2.2-.3 3.2c0 1.6.2 2.9.4 4.1v.2.3c0 .2 0 .3.1.5v.2.1.1l.2.9c-.3.3-.6.7-.8 1.1-.3.6-.5 1.2-.5 1.9 0 .3 0 .6.1.9.2.7.4 1.4.7 1.9.4.8.9 1.5 1.5 2 .4.4.9.7 1.3.9.4 1.1.8 2 1.2 2.8s.9 1.4 1.4 2c.2.8.3 1.7.3 2.7v.6c0 .3-.1.6-.2.8-.2.4-.4.7-.7 1s-.7.6-1.1.8l-.4.2c-.4.2-.8.4-1.2.5-1 .4-2.2.8-3.4 1.3-.9.3-1.8.7-2.6 1.2-.6.4-1.3.8-1.8 1.3-.8.8-1.6 1.7-2.1 2.9s-.8 2.6-.8 4.2c0 .2 0 .5.1.7s.2.4.3.5c.2.3.5.6.9.9.6.5 1.5.9 2.6 1.3 1.7.6 3.9 1.2 6.8 1.6s6.4.7 10.7.7c3.7 0 6.8-.2 9.5-.5 2-.2 3.7-.5 5.2-.9 1.1-.3 2-.5 2.8-.9.6-.2 1.1-.5 1.6-.7.3-.2.7-.4.9-.6.4-.3.7-.6 1-.9.1-.2.2-.4.3-.5.1-.2.1-.4.1-.6-.1-1.7-.2-2.7-.5-3.6zm-28.8-35.9c4.8 1.1 14.2-1 14.2-1s.1 2.3 1.7 4.4c.5.6.9 1.6 1.3 2.5-.1 0-.3 0-.5-.1-.2 0-.3-.2-.3-.3-.1-.3-.3-.3-.7-.4-.8-.1-1.9-.2-3.1-.1-3.7.2-3.5.5-4.9.5-1.5 0-1.2-.3-4.9-.5-1.3-.1-2.4 0-3.1.1-.4.1-.6.1-.7.4 0 .1-.1.3-.3.3-.1 0-.1 0-.2 0 .6-1.4 1.4-3.2 1.5-5.8zm15.7 7.9s0 2.2-1.5 2.9c-.5.2-1.1.4-1.7.4-.7 0-1.3-.2-1.8-.4-.5-.3-.9-.8-1.1-1.4 0-.1-.1-.3-.1-.4-.1-.4-.4-1.6.2-2.1.4-.3 1.7-.5 3-.5 1.1 0 2.3.2 2.7.5.3.1.4.5.3 1zm-9.8 1c0 .1-.1.3-.1.4-.2.6-.5 1.1-1.1 1.4-.5.3-1.1.4-1.8.4-.6 0-1.2-.1-1.7-.4-1.5-.7-1.5-2.9-1.5-2.9 0-.4.1-.8.3-1.1.3-.4 1.5-.5 2.7-.5 1.3 0 2.6.2 3 .5.7.6.4 1.8.2 2.2zm.1 27.1-5.7-7.7c.1-.1.1-.1.2-.2.3-.2.6-.5.9-.8l4.6 2.1-1 1.6 1.5 1.6zm-3.9-9.8c.2-.4.3-.9.4-1.4 0-.4.1-.4.1-.8 0-1.2-.2-2.4-.4-3.3l-.1-.2-.2-.2c-.4-.5-.9-1-1.3-1.8s-.8-1.7-1.3-2.9l-.1-.4-.4-.1c-.3-.1-.5-.2-.8-.4-.4-.3-.8-.6-1.1-1.1s-.6-1.2-.8-2.2c0-.2-.1-.3-.1-.5 0-.4.1-.7.3-1.1.1-.3.3-.6.6-.8.4.6.8 1.1.9 1.2.4.4.5-.5.3-1.6-.1-.6 0-1.2.2-1.9v.4c0 .1.1.2.3.2s.3.1.3.2c0 .2 0 2.8 2 3.8s4.9.7 5.9-1.7c.4-1 .5-2.1 1.1-2.1.7 0 .7 1 1.1 2.1 1 2.3 3.9 2.7 5.9 1.7s2-3.6 2-3.8c0-.1.1-.2.3-.2s.3-.1.3-.2 0-.9 0-1.1c.7 2 1.1 4.1 1.1 4.1s.2-.4.5-.9c.2.2.3.4.5.7s.2.7.2 1c0 .2 0 .3-.1.5-.1.6-.3 1.1-.5 1.6-.3.6-.7 1.1-1 1.4-.4.3-.8.5-1.2.7l-.4.1-.1.4c-.4 1.2-.8 2.1-1.3 2.9-.4.8-.8 1.3-1.3 1.8l-.2.2-.1.2c-.2.9-.4 2.1-.4 3.3 0 .4 0 .4.1.8 0 .5.2.9.3 1.3v.1l-5.4 2.8zm7.9 10.1-.6-3.8 1.5-1.6-1-1.6 4.1-2.1c.1.1.2.3.4.4.2.2.5.5.8.7z" fill="#333"/><path d="m922.8 107.9s-1.1-.5-1.8-1.6c-.9-1.4-2.9-3.1-5.3-1.8-2.4-1.3-4.4.3-5.3 1.8-.7 1.1-1.8 1.6-1.8 1.6s1.4 1.6 4.2.7c2.3-.8 2.9-2.3 2.9-2.3s.6 1.5 2.9 2.3c2.8.9 4.2-.7 4.2-.7z" fill="#333"/><path d="m991.4 126.1c-1-1.8-2.5-2.8-3.9-3.6-1.5-.7-2.9-1.1-3.9-1.5-.9-.3-1.9-.5-2.5-.6-.3-.1-.5-.2-.5-.2 0-.2 0-.2 0-.3s0-.2 0-.4c1-1.1 2.4-2.9 3-5.6.2-.1.4-.2.6-.3.5-.3.9-.9 1.3-1.5.4-.7.7-1.5 1-2.7.2-.6.3-1.1.3-1.6 0-.2 0-.5-.1-.7.2-.2.5-.4.7-.8.6-.8 1.1-2 1.1-3.9 0-.9-.1-2-.4-3.3-.7-3.2-2.4-5.8-4.5-7.6-1.1-1-2.4-1.7-3.6-2.2.1-.3.1-.7.1-1.1 0-3.1-2.5-5.6-5.6-5.6s-5.6 2.5-5.6 5.6c0 .4 0 .7.1 1.1-1.3.5-2.5 1.2-3.6 2.2-2.1 1.8-3.8 4.4-4.5 7.6-.3 1.3-.4 2.4-.4 3.3 0 1.9.5 3.1 1.1 3.9.2.3.5.6.7.8 0 .2-.1.4-.1.7 0 .5.1 1 .3 1.6.5 1.6.9 2.6 1.4 3.3.3.4.6.7.9.9.2.1.4.2.6.3.6 2.7 2 4.5 3 5.6v.4.3s-.1.1-.2.1c-.2.1-.7.2-1.2.3s-1 .2-1.6.4-1.5.5-2.5.8c-1.4.5-3 1.3-4.3 2.6s-2.1 3.3-2.1 6v1.1c0 .3.1.5.2.6.2.3.5.5.8.8.6.4 1.4.8 2.4 1.1 3.1 1.1 8.2 2.1 14.5 2.1 5.1 0 9.5-.7 12.6-1.5 1.5-.4 2.8-.9 3.7-1.3.5-.2.8-.5 1.1-.7.1-.1.3-.3.4-.4.1-.2.2-.4.2-.6 0-.4 0-.8 0-1.1 0-1.8-.3-3.2-1-4.4zm-12.3-1.9c-.9.9-2.3 1.6-4.7 1.6-2.3 0-3.8-.7-4.7-1.6-.7-.7-1-1.5-1.2-2.3.2-.1.4-.2.7-.4.2-.1.4-.3.5-.6.1-.2.2-.5.2-.8 0-.2 0-.2 0-.3 0-.1 0-.2 0-.7 0-.2-.1-.4-.2-.6-1.1-1.2-2.5-2.7-3-5.5-.1-.3-.3-.5-.5-.6-.3-.1-.5-.2-.6-.3-.3-.2-.5-.4-.8-.9s-.6-1.3-.9-2.4c0-.2-.1-.3-.1-.5l2.3 2.8.5-5c4.7-2.8 6.9-5.6 7.9-7.1 1 1.6 3.2 4.4 7.9 7.1l.5 5 2.3-2.8c0 .1-.1.3-.1.5-.4 1.5-.8 2.4-1.1 2.8-.2.2-.3.4-.5.5s-.4.2-.6.3c-.3.1-.5.3-.5.6-.5 2.8-1.9 4.3-3 5.5-.1.2-.2.4-.2.6v.7.3c0 .3.1.5.2.8.2.4.6.7.9.8.1 0 .2.1.3.1-.5.9-.9 1.7-1.5 2.4z" fill="#333"/><path d="m906.7 192.3c-.2-.8-.5-1.5-.9-2.2-.7-1.1-1.5-2-2.5-2.7-.7-.5-1.5-.9-2.3-1.3-1.2-.5-2.4-1-3.5-1.4s-2.1-.8-2.9-1.3c-.3-.2-.5-.3-.8-.5-.3-.3-.6-.6-.8-.9s-.3-.7-.4-1.2c0-.3-.1-.6-.1-.9 0-.9.1-1.6.3-2.4.5-.6.9-1.2 1.4-2 .4-.8.8-1.7 1.2-2.8.3-.1.5-.3.8-.4.6-.4 1.1-.9 1.6-1.7.5-.7.8-1.6 1.1-2.7.1-.3.1-.6.1-.9 0-.6-.1-1.2-.4-1.8-.2-.4-.4-.7-.7-1 .1-.5.3-1.1.4-1.9.2-1.1.4-2.3.4-3.7 0-.9-.1-1.8-.2-2.6-.1-.7-.3-1.3-.6-1.9-.4-.9-1-1.8-1.8-2.6-.8-.7-1.7-1.2-2.9-1.6-.5-.6-1-1.1-1.5-1.5-.9-.7-1.8-1.2-2.8-1.5-.9-.3-1.9-.4-2.9-.4-.5 0-1 0-1.5.1-.5 0-.9.1-1.2.2-.5.1-1 .2-1.4.3s-.8.3-1.4.5c-.2.1-.5.2-.8.4-.6.3-1.3.7-2 1.3-1.2.9-2.4 2.1-3.4 3.7-.5.8-.9 1.7-1.2 2.8-.3 1-.5 2.2-.5 3.4 0 .8.1 1.6.2 2.5v.2.3c0 .2 0 .4.1.5v.2.1.1l.2.9c-.3.3-.6.7-.8 1.1-.3.6-.5 1.2-.5 1.9 0 .3 0 .6.1.9.2.7.4 1.4.7 2 .4.8.9 1.5 1.5 2 .4.4.9.7 1.3.9.4 1.1.8 2 1.2 2.8s.9 1.4 1.4 2c.2.8.3 1.5.3 2.4v.9c0 .3-.1.6-.2.8-.2.4-.4.7-.7 1s-.7.6-1.1.8c-.5.3-1 .5-1.6.7-1 .4-2.2.8-3.3 1.3-.9.4-1.8.8-2.6 1.3-.6.4-1.3.8-1.8 1.3-.8.8-1.6 1.7-2.1 2.9s-.8 2.6-.8 4.3c0 .2 0 .5.1.7s.2.4.3.5c.2.3.5.6.9.9.6.5 1.5.9 2.6 1.3 1.7.6 3.9 1.2 6.8 1.6s6.4.7 10.7.7c3.7 0 6.8-.2 9.5-.5 2-.2 3.7-.5 5.1-.9 1.1-.3 2-.6 2.8-.9.6-.2 1.1-.5 1.6-.7.3-.2.7-.4.9-.6.4-.3.7-.6 1-.9.1-.2.2-.4.3-.6s.1-.4.1-.6c.2-1.1.1-2.1-.1-3zm-22.9.8-6.3-8c.3-.2.6-.4.9-.6.3-.3.6-.5.9-.8l4.6 2.1-1 1.6 1.5 1.6zm-3.8-10.6c.2-.4.3-.9.4-1.4 0-.4.1-.8.1-1.1 0-1.2-.2-2.1-.4-3l-.1-.2-.2-.2c-.4-.5-.8-1-1.3-1.8-.4-.8-.8-1.7-1.3-2.9l-.1-.4-.4-.1c-.3-.1-.5-.2-.8-.4-.4-.3-.7-.6-1.1-1.1-.3-.5-.6-1.2-.8-2.2 0-.2-.1-.4-.1-.5 0-.4.1-.7.3-1.1.1-.3.3-.6.6-.8.4.6.7 1.1.9 1.2.4.4.3.3.4.1 0 0 .5-.6 2.9-5.3 4.8 1.1 13.2-6.2 13.2-6.2s.1 2.3 1.7 4.5c1.5 2 2.4 6.8 2.4 6.8s.2-.4.5-.9c.2.2.3.4.4.7.2.3.2.7.2 1 0 .2 0 .3-.1.5-.1.6-.3 1.2-.5 1.6-.3.7-.7 1.1-1 1.4-.4.3-.8.5-1.2.7l-.4.1-.1.4c-.4 1.2-.8 2.2-1.3 2.9-.4.8-.8 1.4-1.3 1.8l-.2.2-.1.2c-.2.9-.4 1.9-.4 3 0 .4 0 .7.1 1.1 0 .5.2.9.3 1.3v.1l-5.4 2.8zm8 10.8-.6-4.5 1.5-1.6-1-1.6 4.1-2.2c.1.1.2.3.4.4.4.4.9.8 1.4 1.1z" fill="#333"/><path d="m966.7 189.3c-1.3-2-3.3-3.1-5.2-3.8-.9-.4-1.9-.6-2.7-.8s-1.5-.4-2-.6c-.8-.3-1.7-.7-2.3-1.1-.3-.2-.5-.4-.7-.6-.1-.2-.2-.3-.2-.4 0-.8 0-1.8 0-3.1 1.1-1.2 2.6-3 3.2-5.9.2-.1.4-.2.6-.4.5-.4 1-.9 1.3-1.6.4-.7.7-1.6 1.1-2.9.2-.6.3-1.2.3-1.7 0-.6-.1-1-.3-1.4-.3-.5-.7-.8-1.1-1 1.7-9.3-3.7-16.5-11-16.1-6.6-1.5-10.9-1.1-11.4 4.8-.5 1.2-.6 2.9.1 4.8-.4 1.5-.5 2.8-.5 3.6v2.8c-.2.1-.4.1-.6.3-.3.2-.6.5-.8.9s-.3.9-.3 1.4.1 1 .3 1.7c.5 1.7.9 2.7 1.5 3.5.3.4.6.7.9.9.2.1.4.3.6.4.6 2.9 2.1 4.7 3.2 5.9v3.1c0 .1 0 .2-.2.4-.2.3-.7.7-1.2 1s-1.2.6-1.7.8c-.6.2-1.7.5-2.9.8-1.8.5-3.8 1.2-5.5 2.7-.8.7-1.6 1.6-2.1 2.8-.5 1.1-.8 2.5-.8 4v1.1c0 .3.1.5.2.7.2.3.5.6.9.9.7.4 1.6.9 2.8 1.3 3.6 1.3 9.5 2.5 16.9 2.5 6 0 11-.8 14.6-1.8 1.8-.5 3.2-1 4.3-1.6.5-.3.9-.5 1.3-.8.2-.1.3-.3.4-.5s.2-.4.2-.7c0-.4 0-.8 0-1.1.2-2.2-.3-3.9-1.2-5.2zm-26-5c.4-.3.8-.6 1.1-1s.5-.9.5-1.4c0-.9 0-1.9 0-3.4v-.3l-.2-.2c-1.1-1.2-2.6-2.9-3.1-5.8l-.1-.5-.4-.2c-.3-.1-.5-.2-.7-.3-.3-.2-.5-.5-.8-1s-.6-1.4-.9-2.5c-.1-.5-.2-.9-.2-1.2s.1-.5.1-.7c.1-.2.2-.3.4-.3.1-.1.3-.1.3-.1l.8.1v-.9s0-1.8 0-3.4c0-.4 0-.8.1-1.4 1.9 2.7 5.4 5.2 11.4 6.2-.7-1.3-2.2-7.9-2.2-7.9s4 5.8 10 6.4v.1.9h.8s.3 0 .5.1c.1.1.2.1.2.3.1.1.1.3.1.7 0 .3-.1.7-.2 1.2-.4 1.6-.8 2.5-1.2 3-.2.3-.4.4-.5.5-.2.1-.4.2-.7.3l-.4.2-.1.5c-.5 2.9-2 4.5-3.1 5.8l-.2.2v.3 3.4c0 .5.2 1 .5 1.4.4.6 1 1 1.7 1.4.3.2.6.3 1 .5l-3.1 3.1c-1.3.7-2.9 1.2-4.8 1.2-1.8 0-3.5-.4-4.7-1.1l-3.2-3.2c.4-.4.9-.7 1.3-1z" fill="#333"/><path d="m936.3 172.2s.9 10.4-2.9 13.5c0 0 11.3-1.4 7.9-7.1l-3.3-6.4-2-1.4z" fill="#333"/><path d="m958.1 172.2s-.9 10.4 2.9 13.5c0 0-11.3-1.4-7.9-7.1l3.3-6.4 2-1.4z" fill="#333"/><path d="m1024.1 189.9c-1.1-1.8-2.8-3-4.4-3.7s-3.2-1.1-4.2-1.5c-.8-.3-1.6-.7-2.2-1.2-.3-.2-.5-.5-.7-.7-.1-.2-.2-.4-.2-.5 0-.8 0-1.1 0-2.3 1-1.1 2.5-2.9 3.1-5.7.2-.1.4-.2.6-.3.5-.3.9-.8 1.3-1.5s.7-1.6 1-2.7c.2-.6.3-1.1.3-1.6 0-.2 0-.5-.1-.7 7.1-9.2-3.6-21.3-11.5-19.8-6.2-1.6-11.8 3.9-14 8.7-1.8 3.9-1.2 9.3.7 11.1 0 .2-.1.5-.1.7 0 .5.1 1 .3 1.6.5 1.6.9 2.6 1.4 3.4.3.4.6.7.9.9.2.1.4.2.6.3.6 2.8 2.1 4.5 3.1 5.7v2.3c0 .1 0 .3-.2.5-.2.3-.7.7-1.2 1.1-.5.3-1.1.6-1.6.8-.6.2-1.6.5-2.6.8-1.5.5-3.3 1.3-4.7 2.7s-2.4 3.5-2.4 6.3v1.1c0 .2.1.4.2.6.2.3.5.6.8.8.6.4 1.4.9 2.4 1.3 3.1 1.2 8.4 2.4 15.5 2.4 5.7 0 10.3-.8 13.5-1.7 1.6-.5 2.8-1 3.7-1.5.4-.3.8-.5 1.1-.8.1-.1.3-.3.4-.5s.2-.4.2-.6c0-.4 0-.8 0-1.1.2-1.9-.3-3.4-1-4.7zm-11.1-4.7s.1 0 .1.1l-2.7 6.7-3.3-4.1 4.8-3.5c.3.2.7.5 1.1.8zm-14.6-11.5-.1-.4-.4-.2c-.3-.1-.5-.2-.7-.3-.3-.2-.5-.4-.8-1-.3-.5-.6-1.3-.9-2.4-.1-.5-.2-.9-.2-1.2s.1-.5.1-.7c.1-.2.2-.3.4-.3.1 0 .2-.1.3-.1l.4.1.9 2.8.5-2.5 2.7-3.9s-.2 2-.7 3.5c5.2-1.7 6.6-3.6 6.9-4.1l-1.7 3.4s6-1.8 7-4.3l-1.2 3.8s3.2-.9 3.7-2.3c.3-.8.3.3.3 1.3h-.1v5l1.3-2.9h.1s.3 0 .5.1c.1.1.2.1.2.2.1.1.1.3.1.7 0 .3-.1.7-.2 1.2-.4 1.5-.8 2.4-1.2 2.9-.2.2-.3.4-.5.5s-.4.2-.7.3l-.4.2-.1.4c-.5 2.8-1.9 4.4-3 5.6l-.2.2v.3 2.6c0 .4.1.7.3 1l-4.9 3.6-4.9-3.6c.2-.3.3-.6.3-1 0-.8 0-1.2 0-2.6v-.3l-.2-.2c-.9-1-2.4-2.6-2.9-5.4zm1.7 11.1c.2-.2.4-.3.6-.5l4.8 3.5-3.3 4.1-2.7-6.7c.2-.1.4-.3.6-.4z" fill="#333"/><path d="m592.4 221.5c-.3-1.2-.8-2.3-1.3-3.2-1-1.7-2.3-3-3.7-4-1.1-.8-2.2-1.4-3.4-1.9-1.7-.8-3.5-1.4-5.2-2-1.6-.6-3.1-1.2-4.3-1.9-.4-.3-.8-.5-1.1-.8-.5-.4-.9-.9-1.2-1.3-.3-.5-.5-1-.5-1.7-.1-.5-.1-1-.1-1.4 0-1.3.2-2.5.4-3.6.7-.8 1.4-1.8 2-3s1.2-2.6 1.8-4.2c.4-.2.8-.4 1.2-.6.9-.6 1.7-1.4 2.4-2.5s1.2-2.4 1.6-4.1c.1-.5.2-.9.2-1.4 0-.9-.2-1.8-.6-2.6-.3-.6-.6-1.1-1-1.5.2-.7.4-1.7.6-2.8.3-1.6.5-3.5.5-5.5 0-1.3-.1-2.6-.4-3.9-.2-1-.5-2-.9-2.9-.6-1.4-1.5-2.7-2.7-3.8-1.1-1-2.6-1.8-4.3-2.3-.7-.9-1.5-1.6-2.3-2.2-1.3-1-2.7-1.8-4.1-2.2s-2.8-.6-4.3-.6c-.8 0-1.5 0-2.3.1-.7.1-1.3.1-1.8.2-.8.1-1.4.3-2.1.5-.6.2-1.2.5-2 .8-.3.1-.7.3-1.2.5-.8.4-1.9 1-3 1.9-1.7 1.3-3.6 3.1-5.1 5.5-.7 1.2-1.4 2.6-1.8 4.2s-.7 3.3-.7 5.1c0 1.2.1 2.4.3 3.7v.3.5c0 .3.1.5.1.7v.3.1.1l.3 1.4c-.5.5-.8 1.1-1.2 1.7-.4.8-.7 1.8-.7 2.8 0 .4 0 .9.2 1.4.2 1.1.6 2.1 1 2.9.6 1.3 1.3 2.3 2.2 3 .6.6 1.3 1 2 1.3.6 1.6 1.2 3 1.8 4.2s1.3 2.2 2 3c.2 1.2.4 2.3.4 3.6 0 .4 0 .9-.1 1.4 0 .5-.2.9-.3 1.3-.2.6-.6 1-1 1.5-.4.4-1 .9-1.7 1.2-.7.4-1.5.8-2.3 1.1-1.5.6-3.2 1.2-5 1.9-1.3.5-2.6 1.1-3.9 1.9-1 .6-1.9 1.2-2.7 2-1.3 1.2-2.3 2.6-3.1 4.4s-1.2 3.9-1.2 6.4c0 .4.1.7.2 1s.3.6.5.8c.3.5.8.9 1.3 1.3 1 .7 2.2 1.4 3.9 2 2.5.9 5.8 1.8 10.1 2.4s9.6 1 15.9 1c5.5 0 10.2-.3 14.1-.8 3-.4 5.5-.8 7.7-1.3 1.6-.4 3-.8 4.2-1.3.9-.3 1.7-.7 2.4-1.1.5-.3 1-.6 1.4-.8.6-.4 1.1-.9 1.5-1.4.2-.3.3-.5.4-.8s.2-.6.2-.9c.4-2.2.2-3.8-.2-5.1zm-34.1 1.2-9.4-12c.5-.3 1-.6 1.4-.9.5-.4.9-.8 1.3-1.3l6.8 3.2-1.5 2.4 2.3 2.4zm-5.7-15.8c.3-.6.5-1.3.5-2.1.1-.6.1-1.1.1-1.7 0-1.7-.3-3.2-.6-4.5l-.1-.4-.3-.3c-.6-.7-1.3-1.6-1.9-2.7-.6-1.2-1.2-2.6-1.9-4.4l-.2-.6-.6-.2c-.4-.1-.8-.3-1.2-.6-.6-.4-1.1-.9-1.6-1.7s-.9-1.8-1.3-3.3c-.1-.3-.1-.5-.1-.8 0-.6.1-1.1.4-1.6.2-.4.5-.8.9-1.2.6.9 1.1 1.7 1.3 1.8.6.6.4.4.6.1 0 0 .7-1 4.3-7.9 7.2 1.6 19.7-9.2 19.7-9.2s.2 3.5 2.5 6.7c2.3 3 3.6 10.1 3.6 10.1s.3-.6.8-1.4c.3.3.5.7.7 1 .2.5.3 1 .3 1.5 0 .3 0 .5-.1.8-.2.9-.5 1.7-.8 2.4-.5 1-1 1.6-1.5 2.1-.6.5-1.1.8-1.7 1l-.6.2-.2.6c-.6 1.8-1.3 3.2-1.9 4.4s-1.2 2-1.9 2.7l-.3.3-.1.4c-.3 1.3-.6 2.8-.6 4.5 0 .5 0 1.1.1 1.7.1.7.2 1.3.5 1.9v.1l-8.1 4.2zm11.9 16.2-1-6.6 2.3-2.4-1.5-2.4 6.2-3.2c.2.2.3.4.5.6.6.6 1.3 1.1 2.1 1.6z" fill="#333"/><path d="m719 217c-2-2.9-5-4.6-7.8-5.6-1.4-.5-2.8-.9-4-1.3-1.2-.3-2.3-.6-3-.9-1.2-.5-2.5-1.1-3.5-1.7-.5-.3-.8-.6-1-.9s-.3-.5-.3-.7c0-1.2 0-2.7 0-4.6 1.6-1.8 3.9-4.5 4.8-8.8.3-.1.6-.3 1-.5.8-.5 1.4-1.3 2-2.4s1.1-2.4 1.6-4.3c.3-.9.4-1.8.4-2.5 0-.8-.2-1.6-.5-2.2-.4-.8-1.1-1.3-1.6-1.5 2.6-14-5.6-24.6-16.4-24-9.9-2.2-16.3-1.7-17.1 7.2-.8 1.8-.8 4.4.2 7.2-.6 2.2-.8 4.1-.8 5.4v4.1c-.3.1-.6.2-.9.4-.4.3-.9.7-1.2 1.3s-.5 1.3-.5 2.2c0 .7.1 1.5.4 2.5.7 2.5 1.3 4.1 2.2 5.2.4.6.9 1 1.4 1.4.3.2.6.4 1 .5.9 4.3 3.2 7.1 4.8 8.8v4.6c0 .1-.1.4-.3.7-.3.4-1 1-1.8 1.4-.8.5-1.8.9-2.6 1.2-1 .3-2.5.7-4.3 1.2-2.6.8-5.7 1.8-8.2 4-1.3 1.1-2.4 2.4-3.1 4.1-.8 1.7-1.2 3.7-1.2 6 0 .5 0 1.1.1 1.7 0 .4.2.7.4 1 .3.5.8.9 1.4 1.3 1 .7 2.4 1.3 4.2 2 5.4 1.9 14.2 3.7 25.2 3.7 8.9 0 16.5-1.2 21.8-2.6 2.7-.7 4.8-1.5 6.4-2.3.8-.4 1.4-.8 1.9-1.2.3-.2.5-.5.7-.7.2-.3.3-.6.4-1 0-.6.1-1.1.1-1.7-.2-3.2-1-5.7-2.3-7.7zm-38.8-7.4c.6-.4 1.2-.9 1.6-1.5s.8-1.3.8-2.1c0-1.3 0-2.9 0-5.1v-.5l-.3-.3c-1.7-1.8-3.9-4.3-4.7-8.6l-.1-.7-.7-.2c-.4-.2-.7-.3-1-.5-.4-.3-.8-.7-1.2-1.5s-.9-2-1.4-3.8c-.2-.8-.3-1.4-.3-1.8 0-.5.1-.8.2-1 .2-.3.3-.4.6-.5.2-.1.5-.1.5-.1l1.3.1v-1.3s0-2.8 0-5.1c0-.5 0-1.3.1-2.1 2.8 4 8.1 7.8 17 9.3-1.1-1.9-3.3-11.9-3.3-11.9s6 8.7 14.9 9.6v.1 1.3l1.3-.1s.5 0 .7.2c.1.1.3.2.4.4s.2.5.2 1c0 .4-.1 1-.3 1.8-.7 2.4-1.3 3.7-1.8 4.5-.3.4-.5.6-.8.8s-.6.3-1 .5l-.7.2-.1.7c-.8 4.3-3 6.8-4.7 8.6l-.3.3v.5 5.1c0 .8.3 1.5.7 2.1.6.9 1.5 1.5 2.5 2.1.5.3.9.5 1.4.7l-4.7 4.7c-1.9 1.1-4.4 1.7-7.1 1.7s-5.2-.7-7.1-1.7l-4.8-4.8c.8-.2 1.5-.6 2.2-1.1z" fill="#333"/><path d="m673.5 191.5s1.4 15.5-4.4 20.2c0 0 16.9-2.1 11.8-10.6l-4.9-9.6-2.9-2.1z" fill="#333"/><path d="m706.1 191.5s-1.4 15.5 4.4 20.2c0 0-16.9-2.1-11.8-10.6l4.9-9.6 2.9-2.1z" fill="#333"/><path d="m166.1 443.1h363.5" fill="none" stroke="#ccc" stroke-miterlimit="10"/><path d="m299.6 421.2h81.5v27.3h-81.5z" fill="#fff"/><path d="m190.4 430.8h81.5v27.3h-81.5z" fill="#fff"/><path d="m354.2 444.2c-.1 0-.2-.1-.1-.2 4.9-3.5 6.8-7.3 6.8-13.9 0-.6 0-.8-.1-1.5 2.4.2 2.6.3 2.6.6 0 .2-.1.3-.6.5 0 .6 0 1.1-.1 1.7.3 2.4 1 4.4 2.1 6.2 1.4 2.1 3.3 3.7 5.9 4.7.1 0 .1.2 0 .2-.6.2-.9.5-1.2 1.3-.1.3-.2.4-.3.4s-.5-.2-.9-.5c-1.9-1.5-3.5-3.5-4.5-5.8-.6-1.4-.9-3-1.1-4.8-.7 5.6-3.1 8.7-8.5 11.1z" fill="#333"/><path d="m324 446-.2-.4c3.6-1.1 6.4-2.3 8.4-3.7s3.5-2.9 4.4-4.6 1.5-3.7 1.8-5.9c.2-2.2.4-4.7.4-7.4s-.1-5.1-.2-6.9-.5-3.2-1-4.1-1.4-1.4-2.6-1.4-2.2.4-2.8 1.2-1.1 1.9-1.3 3.2-.4 2.7-.4 4.2c0 1.9.1 3.4.3 4.5s.5 1.9.9 2.4.8.9 1.3 1.1c.8.3 1.5.3 2.1.2.6-.2 1.2-.4 1.6-.7l.4.4c-.5 1-1.2 1.9-2.2 2.6s-2.1 1.1-3.4 1.3-2.6.1-4-.2c-1.3-.3-2.6-.9-3.7-1.8s-2-2.1-2.7-3.6-1-3.3-.9-5.5.6-4.3 1.6-6.1 2.6-3.3 4.8-4.4c2.1-1.1 4.9-1.7 8.1-1.7 4.9-.1 8.7 1.2 11.3 3.9s3.9 6.9 3.9 12.6c0 3.6-.5 6.8-1.6 9.6s-2.7 5.2-4.9 7c-2.2 1.9-4.9 3.2-8.1 4-3.1.6-6.9.8-11.3.2z" fill="#4aa064"/><path d="m633.6 482.1-12.3 1-.8 3.3c2.6-.6 4.8-.8 6.8-.6s3.6.8 5 1.7c1.3.9 2.3 2 3 3.4.6 1.4.9 2.9.8 4.6-.1 2-.6 3.7-1.6 5.1s-2.3 2.6-3.9 3.5-3.3 1.5-5.2 1.8-3.7.4-5.5.1c-1.8-.2-3.5-.7-5-1.5l.1-.4c.7 0 1.5 0 2.6-.2 1-.2 2.1-.4 3.2-.8s2.2-.9 3.1-1.5c1-.6 1.8-1.4 2.4-2.3s1-1.9 1.1-3.1c.1-1.5-.3-2.7-1.2-3.6s-2.2-1.3-3.8-1.4-3.4.3-5.5 1.1l-.4-.2 3.3-15.4 11.9-1c.9 0 1.5-.2 2-.6s.9-.9 1.2-1.4h.4z" fill="#4aa064"/><path d="m153.4 385.4c0 3.3.1 5 .1 5.9 0 .6-.3.8-1.2.8-.6 0-.8-.2-.8-.6 0-.7.1-2.7.1-6.1h-4.2v.8c0 .5-.3.7-1.1.7-.5 0-.7-.2-.7-.6 0-.8.1-2.1.1-4.6 0-.9 0-1.9-.1-2.8 1 .5 1.1.5 2 1h4c0-2.9-.1-3.5-.2-4.2 2.3.2 2.5.2 2.5.6 0 .2-.1.2-.6.5v3.1h4.2c.7-.8.9-.9 1-.9.2 0 .3.1 1.1.8.3.3.4.4.4.6s-.1.3-.6.6v.8c0 2.2.1 3.7.1 4.2s-.4.7-1.1.7c-.5 0-.7-.1-.7-.6v-.7zm-1.8-.4c0-1.1 0-2.4 0-3.8v-.9h-4.2v4.7zm6.2 0v-4.7h-4.4v4.7z" fill="#333"/><path d="m169.7 388.2c.5.9.9 1.2 1.7 1.5.9.3 2.3.4 4.2.4 2.4 0 3.6-.1 7.1-.5.1 0 .1.2 0 .2-.5.3-.6.5-.7 1.4 0 .2-.1.3-.4.3-1.1.1-3.1.1-4.6.1-3.2 0-5.1-.3-6.2-1.1-.8-.5-1.2-1.3-1.6-2.5-.5 1-1.2 2-1.9 2.8.1.7-.1.9-.3.9-.3 0-.6-.7-1.3-2.3.3-.1.7-.3 1.1-.5s.8-.5 1.2-.8v-4.7h-1.2c-.3 0-.6 0-1 .1l-.2-.7c.5.1.8.2 1.2.2h1.2c.6-.7.8-.8.9-.8.2 0 .3.1 1 .6.3.3.4.4.4.5s-.1.2-.5.6v4.3zm-1-8.6c-.4 0-.6-.2-.9-1.1-.2-.7-.6-1.6-1.2-2.1-.1-.1.1-.2.1-.2 2.1.5 2.9 1.4 2.9 2.3.1.6-.2 1.1-.9 1.1zm1.4 2.2c-.1 0-.2-.1-.1-.2 1.8-1.2 3.4-2.8 4.4-4.4.4-.6.7-1.3.9-1.9 1.6.5 2.1.8 2.1 1s-.2.3-.7.4c.8 1 1.7 1.7 2.9 2.2.9.4 2 .7 3.4 1 .1 0 .1.2 0 .2-.5.2-.7.5-.9 1.1-.1.4-.2.5-.3.5s-.3-.1-.5-.2c-.5-.2-1.1-.6-1.6-1-1.4-1-2.1-1.8-3.1-3.5-1.6 2.2-3.6 3.7-6.5 4.8zm3.6 3.6c-.8 1.3-1.9 2.4-3.2 3.1-.1.1-.2-.1-.2-.2.6-.7 1.2-1.6 1.5-2.6.2-.5.3-1 .4-1.5 1.9.6 2 .7 2 .9.1.2 0 .2-.5.3zm3.1-2.3h2.4c.7-.9.9-1 1.1-1s.4.1 1.1.7c.3.2.5.4.5.5s-.1.2-.2.2h-4.7v1.8c0 .5.1 1.9.1 2.8 0 .4-.1.7-.3 1-.3.4-.8.6-1.5.6-.2 0-.2-.1-.3-.4-.2-.7-.4-.9-1.7-1.2-.1 0-.1-.2 0-.2.7 0 1.4.1 1.9.1.2 0 .3-.1.3-.3v-4.1h-3.3c-.3 0-.6 0-1 .1l-.2-.7c.5.1.8.1 1.2.1h3.3v-2.1h-1c-.3 0-.6 0-1 .1l-.2-.7c.5.1.8.1 1.2.1h2.7c.6-.7.8-.9.9-.9.2 0 .3.1.9.6.2.2.4.4.4.5s-.1.2-.2.2h-2.1v2.2zm3.4 5.3c-.3 0-.5-.2-.7-.8-.4-1.2-.8-2-1.7-2.9-.1-.1 0-.2.1-.1 2.3.7 3.3 1.5 3.3 2.7-.1.7-.5 1.1-1 1.1z" fill="#333"/><path d="m190 385c-.8.6-1.7 1.1-2.7 1.5-.1 0-.2-.2-.2-.2 2.3-1.6 4.2-4 5.3-6.5h-3.5c-.3 0-.7 0-1.1.1l-.2-.7c.5.1.9.1 1.3.1h1.1v-2.2c0-.5 0-1-.1-1.6 2.1.2 2.3.4 2.3.6s-.2.3-.6.5v2.6h.8c.5-.6.7-.7.8-.7.2 0 .3.1.9.7.3.3.4.4.4.6s-.1.3-.6.5c-.6 1.2-1.4 2.2-2.3 3.2 1.9.5 2.9 1.2 2.9 2.2 0 .5-.4.9-.9.9-.4 0-.6-.2-.8-.8-.4-.9-.7-1.4-1.3-2v2.1c0 2.8.1 4.9.1 5.4s-.3.8-1.1.8c-.5 0-.7-.2-.7-.7 0-.3.1-1.3.1-4v-2.4zm9.1 5.7h1.8c1-1.2 1.2-1.4 1.3-1.4.2 0 .3.1 1.3 1 .4.4.6.5.6.7s-.1.2-.2.2h-9.5c-.5 0-.9 0-1.5.1l-.2-.7c.6.1 1.1.1 1.6.1h3.1v-8.1h-2.1c-.4 0-.7 0-1.2.1l-.2-.7c.5.1.9.1 1.3.1h2.1v-3.9c0-1.1 0-2-.1-2.6 2.3.2 2.5.4 2.5.6s-.2.4-.6.5v5.3h1.6c.9-1.1 1.2-1.2 1.3-1.2.2 0 .3.1 1.2.9.4.3.5.5.5.6s-.1.2-.2.2h-4.3v8.2z" fill="#333"/><path d="m215.5 390.4c-1.8.9-3.4 1.3-5.9 1.6-.1 0-.1-.2-.1-.2 1.3-.5 2.6-1.2 3.6-1.8.5-.4 1-.8 1.2-1.1 1.6.8 2.1 1.1 2.1 1.3s-.2.2-.9.2zm-2.3-1.9c0 .5-.3.7-1 .7-.6 0-.8-.2-.8-.6 0-.7.1-1.7.1-4.6 0-1.1 0-2.4-.1-3.6 1 .4 1 .5 2 1h8.1c.6-.7.8-.8.9-.8.2 0 .3.1 1 .6.3.3.4.4.4.5 0 .2-.1.3-.5.6v1.1c0 2.5.1 4.4.1 5 0 .5-.3.7-1 .7-.6 0-.8-.2-.8-.6v-.1zm.9-8.6c0 .5-.3.7-1 .7-.4 0-.7-.1-.7-.5s0-1.1 0-2.2c0-.8 0-1.1-.1-1.9 1 .4 1.1.5 1.9.9h6.5c.6-.7.8-.8.9-.8.2 0 .3.1 1 .6.3.3.4.4.4.5 0 .2-.1.2-.5.5v.3c0 .9.1 1.5.1 1.8 0 .5-.3.7-1 .7-.5 0-.8-.2-.8-.6zm7.6 1.9h-8.5v1.8h8.5zm-8.5 4h8.5v-1.8h-8.5zm0 2.2h8.5v-1.9h-8.5zm7.7-10.8h-6.8v2.2h6.8zm2.7 14.9c-.4 0-.5-.1-1-.6-.9-.9-2.1-1.7-3.8-2.2-.1 0 0-.2.1-.2 4 .2 5.6.8 5.6 2.1-.1.5-.4.9-.9.9z" fill="#333"/><path d="m234.6 383.8c.7-.2 1.4-.5 1.9-.6.1 0 .1.2.1.2-.6.5-1.2.9-1.9 1.3v1.7 4.1c0 .6-.1 1-.4 1.3-.3.4-.8.5-1.5.5-.1 0-.3-.1-.3-.3 0-.7-.3-1-1.5-1.4-.1 0-.1-.2 0-.2.7.1 1.3.1 1.8.1.3 0 .3 0 .3-.3v-4.5c-.3.2-.7.3-1 .5-.1.5-.2.6-.4.6s-.3-.2-.9-2.1c.3 0 .9-.1 1.5-.2.3-.1.5-.1.8-.2v-3.9h-1c-.3 0-.6 0-.9.1l-.2-.7c.5.1.8.1 1.1.1h1v-2.2c0-1.1 0-1.5-.1-2.1 2.1.2 2.3.3 2.3.5s-.1.3-.6.5v3.3h.1c.5-.8.7-1 .8-1 .2 0 .3.1.8.7.2.2.3.4.3.5s-.1.2-.2.2h-1.8v3.5zm7.3 1.5c.5.8 1 1.5 1.8 2 1 .8 2.4 1.4 3.9 1.7.1 0 .1.2 0 .2-.6.3-.8.7-1 1.5 0 .1-.1.2-.2.2-.2 0-.4-.1-.7-.3-.8-.5-1.5-1.1-2.1-1.9-.7-.9-1.3-1.8-1.7-3.1 0 2.6.1 5.1.1 5.8 0 .5-.3.7-1 .7-.6 0-.8-.2-.8-.6 0-.5.1-2.6.1-4.5-1.4 1.8-3.1 3-5.3 3.8-.1 0-.2-.2-.1-.2 2-1.3 3.6-3 4.7-5.3h-2.6c-.3 0-.6 0-1 .1l-.2-.7c.5.1.8.1 1.2.1h3.3v-.3c0-.8 0-1.2-.1-1.8 1.8.2 2.1.2 2.1.4s-.1.3-.5.4v1.3h2.6c.8-1 1-1.1 1.1-1.1.2 0 .4.1 1.1.8.3.3.5.5.5.6s-.1.2-.2.2zm3.5-8.2c-2.4.7-6.3 1.3-9 1.3-.1 0-.1-.2 0-.3 2.1-.4 4.5-1.1 6.3-1.8.9-.3 1.6-.7 2-1 1.3.9 1.7 1.2 1.7 1.5-.1.3-.2.4-1 .3zm-7.3 5.5c-.4 0-.6-.3-.6-.8-.1-1.3-.3-1.8-.7-2.4-.1-.1 0-.1.1-.1 1.5.6 2.3 1.4 2.3 2.3-.2.6-.5 1-1.1 1zm3.3-.4c-.4 0-.7-.3-.7-.8-.1-1.5-.4-2.1-.7-2.6-.1-.1 0-.1.1-.1 1.5.6 2.3 1.4 2.3 2.4 0 .7-.4 1.1-1 1.1zm4.9-2.4c-1 1.5-2.1 2.6-3.1 3.4-.1.1-.3-.1-.2-.2.6-1 1.1-2 1.4-3.1.2-.5.3-1 .4-1.6 2.1.8 2.1.8 2.1 1.1.1.2 0 .3-.6.4z" fill="#333"/><path d="m255.6 385.3c-.1.7-.2 1.3-.3 1.9-.5 2.1-1.4 3.4-2.9 4.8-.1.1-.2-.1-.2-.1.8-1.4 1.3-2.7 1.5-4.7.2-1.6.3-3.6.3-6.5 0-2.2-.1-3.4-.1-4.6 1 .4 1.1.5 2 1h9.5c.7-.7.9-.8 1-.8.2 0 .3.1 1 .6.3.3.4.4.4.5 0 .2-.1.2-.5.5v2c0 8.3.1 8.9.1 10.1 0 .9-.2 1.2-.6 1.5s-1 .4-1.4.4c-.3 0-.4-.2-.4-.5-.1-.8-.7-1-2-1.4-.1 0-.1-.2 0-.2.8.1 1.6.1 2.3.1.3 0 .3-.1.3-.3v-4.3h-4.2v5.4c0 .5-.3.7-1 .7-.6 0-.8-.2-.8-.7 0-.3.1-1.1.1-2.7v-2.7zm.2-4.1c0 1.2-.1 2.4-.2 3.6h4.1v-3.6zm4-.4v-3.4h-3.9v.8 2.5h3.9zm5.9-3.4h-4.2v3.4h4.2zm0 3.8h-4.2v3.6h4.2z" fill="#333"/><path d="m279.1 381.5v1.5c0 .5-.3.7-.9.7-.5 0-.7-.1-.7-.6 0-.1 0-.7.1-1.6-1.1 1.4-2.5 2.4-4 3-.1 0-.2-.1-.1-.2 1.4-1.1 2.4-2.4 3.2-3.9h-1.3c-.4 0-.7 0-1.2.1l-.2-.7c.5.1 1 .1 1.4.1h2.2v-2.4c0-.6 0-1-.1-1.7 1.7.2 2.1.3 2.1.5s-.1.3-.5.4v3.1h1.6c.5-.8.7-.9.9-.9s.4.1 1 .6c.3.2.4.4.4.5s-.1.2-.2.2h-3.6v.6c1.7.3 2.5.8 2.5 1.7 0 .4-.3.7-.7.7-.3 0-.5-.2-.8-.7-.4-.7-.6-1-1-1.3v.3zm2.2 4.5c-.3 1-.7 1.9-1.2 2.7.8.4 1.2.8 1.2 1.4 0 .5-.3.8-.8.8s-.5-.1-1.4-1.1c-1.2 1.2-2.9 1.9-5.1 2.3-.1 0-.1-.2-.1-.2 1.8-.7 3.3-1.6 4.2-2.9-.4-.3-.9-.6-1.3-.8l-.4.7c-.2.4-.4.5-.8.5s-.8-.2-.8-.5c0-.1.1-.3.2-.5.5-.8.9-1.6 1.3-2.3h-1c-.4 0-.7 0-1.2.1l-.2-.7c.5.1 1 .1 1.4.1h1.2l.1-.2c.3-.6.4-1.1.5-1.6 1.8.3 1.9.4 1.9.6s-.1.3-.6.4c-.1.3-.2.5-.3.7h2.5c.6-.8.9-.9 1-.9.2 0 .3.1.9.6.2.2.4.4.4.5s-.1.2-.2.2h-1.4zm-5.1-6.6c-.5 0-.6-.1-.7-1.1-.1-.7-.3-1.1-.7-1.5-.1-.1 0-.1.1-.1 1.3.3 2.1 1 2.1 1.9 0 .4-.4.8-.8.8zm.9 8.4c.6.1 1.1.2 1.7.4.4-.7.7-1.4.9-2.2h-1.7zm4.7-10.2c-.7.8-1.2 1.3-2.2 1.9-.1.1-.2 0-.1-.1.3-.4.6-1.1.8-1.8.2-.5.3-1 .4-1.2 1.2.5 1.7.8 1.7 1s0 .2-.6.2zm7.1 2.7c-.3 2.4-.9 4.9-2.3 7 1.2 1.2 2.6 2.1 4.3 2.7.1 0 .1.2 0 .2-.5.2-.6.4-.8 1.3-.1.5-.2.5-.4.5-.1 0-.5-.2-.9-.5-1.2-.8-2.2-1.9-3-3-1.4 1.6-3.2 2.8-5.5 3.6-.1 0-.2-.2-.1-.2 2.1-1.3 3.7-2.8 4.8-4.6-.8-1.5-1.2-3.2-1.5-4.8-.5.7-1 1.3-1.7 1.9-.1.1-.2-.1-.2-.1 1-1.7 1.9-4 2.3-6 .2-.9.3-1.7.3-2.4 2 .5 2.4.6 2.4.8s-.2.3-.7.5c-.3 1.1-.6 2.1-1 2.9h3.1c.8-1 1-1.1 1.1-1.1.2 0 .3.1 1.1.8.3.3.5.5.5.6s-.1.2-.2.2h-1.6zm-4.2 0c-.3.6-.6 1.1-.9 1.7.4 1.5 1 2.9 1.9 4.1.9-1.8 1.3-3.8 1.5-5.8z" fill="#333"/><path d="m303.1 375.2c0 .1 0 .1-.1.2-2.6 2.5-3.8 5.2-3.8 8.4s1.2 5.9 3.7 8.3c.1.1.2.2.2.2s0 .1-.1.1-.1 0-.2-.1c-1.6-1.1-2.8-2.4-3.6-3.9-.9-1.5-1.3-3.1-1.3-4.7s.4-3.2 1.3-4.7c.8-1.5 2.1-2.8 3.6-3.9.1-.1.1-.1.2-.1.1.1.1.2.1.2z" fill="#333"/><path d="m315.6 377.1c.5-.6.7-.7.8-.7.2 0 .3.1.8.6.2.2.3.3.3.5s-.1.2-.9.6c.4 3.7 1.6 6.7 3.7 8.8 1.2 1.2 2.7 2.1 4.5 2.9.1 0 .1.2 0 .2-.5.2-.9.7-1.2 1.4-.1.3-.2.3-.3.3s-.5-.2-.9-.5c-1.4-1-2.5-2.1-3.5-3.7-1-1.7-1.6-3.3-2-5.3-1.3 4.4-4.5 8-8.5 9.7-.1 0-.2-.2-.1-.2 2.2-1.5 4.1-3.7 5.4-6.3 1.2-2.3 2-5 2.3-7.8h-2.5c-.4 0-.7.1-1.2.1l-.2-.7c.3.1.7.1 1.3.2h2.2z" fill="#333"/><path d="m332.2 385c-.8.6-1.7 1.1-2.7 1.5-.1 0-.2-.2-.2-.2 2.3-1.6 4.2-4 5.3-6.5h-3.5c-.3 0-.7 0-1.1.1l-.2-.7c.5.1.9.1 1.3.1h1.1v-2.2c0-.5 0-1-.1-1.6 2.1.2 2.3.4 2.3.6s-.2.3-.6.5v2.6h.8c.5-.6.7-.7.8-.7.2 0 .3.1.9.7.3.3.4.4.4.6s-.1.3-.6.5c-.6 1.2-1.4 2.2-2.3 3.2 1.9.5 2.9 1.2 2.9 2.2 0 .5-.4.9-.9.9-.4 0-.6-.2-.8-.8-.4-.9-.7-1.4-1.3-2v2.1c0 2.8.1 4.9.1 5.4s-.3.8-1.1.8c-.5 0-.7-.2-.7-.7 0-.3.1-1.3.1-4v-2.4zm9.1 5.7h1.8c1-1.2 1.2-1.4 1.3-1.4.2 0 .3.1 1.3 1 .4.4.6.5.6.7s-.1.2-.2.2h-9.5c-.5 0-.9 0-1.5.1l-.2-.7c.6.1 1.1.1 1.6.1h3.1v-8.1h-2.1c-.4 0-.7 0-1.2.1l-.2-.7c.5.1.9.1 1.3.1h2.1v-3.9c0-1.1 0-2-.1-2.6 2.3.2 2.5.4 2.5.6s-.2.4-.6.5v5.3h1.6c.9-1.1 1.2-1.2 1.3-1.2.2 0 .3.1 1.2.9.4.3.5.5.5.6s-.1.2-.2.2h-4.3v8.2z" fill="#333"/><path d="m355.6 390.1v.8c0 .5-.4.7-1.1.7-.6 0-.8-.2-.8-.6 0-1.5.1-3 .1-8.9 0-1.9 0-3.9-.1-5.8 1 .4 1.1.5 2.1 1h7c.8-.8.9-.9 1-.9.2 0 .3.1 1.1.7.3.3.4.4.4.6s-.1.3-.5.6v2.1c0 5.4.1 9.2.1 10.4 0 .5-.4.7-1.1.7-.6 0-.8-.2-.8-.6v-.8zm7.4-12.4h-7.4v5.6h7.4zm0 6h-7.4v5.9h7.4z" fill="#333"/><path d="m383 385.1c.8.8 1.7 1.4 2.7 1.8s2.2.7 3.5.9c.1 0 .1.2 0 .3-.6.2-.7.4-1 1.1-.1.4-.2.4-.3.4s-.3-.1-.5-.2c-.8-.4-1.6-.9-2.4-1.5-.9-.7-1.6-1.5-2.5-2.8h-3.9c-1.2 2.2-3.3 3.7-6.4 4.6-.1 0-.2-.2-.1-.2 2.1-1.1 3.7-2.7 4.5-4.4h-2.6c-.4 0-.8 0-1.3.1l-.2-.7c.6.1 1 .1 1.4.1h2.4v-6.3h-1.7c-.4 0-.8 0-1.3.1l-.2-.7c.6.1 1 .1 1.4.1h1.8v-.5c0-.6 0-1.2-.1-1.8 2.1.2 2.3.4 2.3.5s-.2.3-.6.5v1.2h4.7v-.5c0-.6 0-1.2-.1-1.7 2.1.2 2.3.4 2.3.5s-.2.3-.5.5v1.2h1.2c.8-.9 1.1-1 1.2-1 .2 0 .4.1 1.1.7.3.3.5.4.5.5s-.1.2-.2.2h-3.7v6.3h1.4c1-1.1 1.2-1.2 1.3-1.2.2 0 .4.1 1.2.9.4.3.5.5.5.6s-.1.2-.2.2h-5.6zm-2 6h3.7c1-1.1 1.2-1.2 1.3-1.2.2 0 .4.1 1.2.9.4.3.5.5.5.6s-.1.2-.2.2h-12.8c-.4 0-.7 0-1.2.1l-.2-.7c.5.1.9.1 1.3.1h4.8v-2.6h-1.8c-.4 0-.8 0-1.3.1l-.2-.7c.6.1 1 .1 1.4.1h1.9v-.7c0-.5 0-1-.1-1.6 2 .2 2.2.4 2.2.5s-.2.3-.5.5v1.4h1c.7-.8.9-.9 1.1-.9s.4.1 1 .7c.3.2.4.4.4.5s-.1.2-.2.2h-3.3zm1.6-11v-1.8h-4.6v1.8zm-4.6.4v1.8h4.7v-1.8zm0 2.3v1.9h4.7v-1.9z" fill="#333"/><path d="m401.7 385.6c0 .2-.1.3-.2.4 1.7.2 1.9.3 1.9.5s-.2.3-.5.4v1h4.7c.9-1.1 1.1-1.2 1.2-1.2.2 0 .4.1 1.2.8.4.3.5.5.5.6s-.1.2-.2.2h-7.4c0 1.7.1 2.9.1 3.3 0 .5-.3.7-1 .7-.6 0-.8-.2-.8-.6 0-.3.1-1.3.1-3.3h-5.6c-.4 0-.8 0-1.3.1l-.2-.7c.6.1 1 .1 1.4.1h5.7c0-.6 0-1.2-.1-1.7-.1 0-.2 0-.3 0-.5 0-.7-.1-.7-.5s.1-1.8.1-4.3v-.9c-.5.5-1 1-1.6 1.4-.1.1-.2-.1-.1-.1 1-1.4 1.9-2.8 2.5-4.3.3-.6.5-1.3.6-1.9 1.4.5 2 .7 2 .9s-.1.3-.7.4c-.3.5-.6 1-.9 1.5h2.7c.3-.6.5-1.1.6-1.6.1-.4.2-.7.3-1.1 1.5.5 1.9.7 1.9.9s-.1.3-.7.3c-.9.9-1.1 1.1-1.5 1.5h2.2c.7-.8.9-1 1-1 .2 0 .4.1 1 .6.3.3.5.4.5.5s-.1.2-.2.2h-3.9v1.7h1.2c.6-.8.9-.9 1-.9.2 0 .4.1 1 .6.3.2.4.4.4.5s-.1.2-.2.2h-3.3v1.7h1.2c.6-.8.8-.9 1-.9s.4.1 1 .6c.3.2.4.4.4.5s-.1.2-.2.2h-3.3v1.9h1.7c.7-.9 1-1 1.1-1 .2 0 .4.1 1.1.7.3.3.5.4.5.5s-.1.2-.2.2h-8.2v.4zm-5.4-4.5c-.3 0-.4-.1-.7-.6-.5-.8-.8-1.3-1.3-1.6-.1 0 0-.1.1-.1 1.8.1 2.7.6 2.7 1.4 0 .5-.3.9-.8.9zm1.1 1.9c-.2.5-.3.6-.3.9 0 .5.3 1 .3 1.5 0 .7-.4 1.1-.9 1.1s-.8-.4-.8-.9.3-1 .3-1.6-.1-.8-1.5-1.3c-.1 0-.1-.2 0-.2.8.1.9.1 1.2.1.5 0 .7-.1 1-.6.5-.7 1.4-2 2.3-3.6.1-.1.2 0 .2.1-.6 1.7-1.2 3.1-1.8 4.5zm.1-4.7c-.3 0-.5-.1-.7-.6-.3-.7-.7-1.1-1.3-1.6-.1-.1 0-.1.1-.1 1.7.1 2.7.6 2.7 1.5 0 .5-.4.8-.8.8zm4.2.4v1.7h2.5v-1.7zm0 3.9h2.5v-1.7h-2.5zm2.5 2.3v-1.9h-2.5v1.9z" fill="#333"/><path d="m415.9 375.2c1.6 1.1 2.8 2.4 3.6 3.9.9 1.5 1.3 3.1 1.3 4.7s-.4 3.2-1.3 4.7c-.8 1.5-2 2.7-3.6 3.9-.1.1-.2.1-.2.1-.1 0-.1 0-.1-.1s0-.1.2-.2c2.6-2.4 3.7-5.2 3.7-8.3 0-3.2-1.2-5.9-3.8-8.4-.1-.1-.1-.1-.1-.2s.1-.1.1-.1c0-.1.1 0 .2 0z" fill="#333"/><path d="m567.5 377.3h389.2v260h-389.2z" fill="none" stroke="#333" stroke-miterlimit="10"/><path d="m827 377.3v260" fill="none" stroke="#333" stroke-miterlimit="10"/><path d="m697.2 377.3v260" fill="none" stroke="#333" stroke-miterlimit="10"/><path d="m166.1 636.8h363.5" fill="none" stroke="#ccc" stroke-miterlimit="10"/><path d="m166.1 540h363.5" fill="none" stroke="#ccc" stroke-miterlimit="10"/><g fill="#333"><path d="m157.8 635.3c0 3.2-1.2 5.3-3.1 5.3-2 0-3.1-1.9-3.1-5.2s1.1-5.3 3.1-5.3c1.9 0 3.1 2 3.1 5.2zm-4.6 0c0 2.9.3 4.8 1.5 4.8s1.5-1.9 1.5-4.8-.3-4.8-1.5-4.8-1.5 1.9-1.5 4.8z"/><path d="m152.7 538.1c0 .2-.1.4-.1.7.5-.6 1.2-.9 2.2-.9 1.7 0 2.8 1.2 2.8 3 0 1.9-1.1 3.4-3.2 3.4-.8 0-1.5-.2-2-.5s-1-.7-1-1.2c0-.3.4-.6 1-.6.5 0 .8.7.9 1 .2.4.4.8 1 .8 1.1 0 1.5-1.3 1.5-2.9s-.8-2.5-1.7-2.5-1.4.4-1.8 1c-.1.1-.1.2-.4.1-.2-.1-.2-.2-.2-.3s.1-.3.1-.4l.3-4.5c0-.1 0-.1.1-.2s.1-.1.2-.1h2.2c.6 0 1.5 0 2.4-.1.1 0 .1.1.1.1l-.5 1.3c0 .1-.1.1-.1.1-.6 0-.9 0-1.4 0h-2.5z"/><path d="m143.9 437.9c-.1 0-.2 0-.2-.2s0-.2.1-.3c.8-.3 2-.8 3-1.3.1 0 .2.1.2.2 0 1.1-.1 2-.1 3.1v4.4c0 1.4 0 1.6.2 1.9.1.3.6.3 1.2.4.1 0 .1.1.1.2 0 .2 0 .2-.1.2-.6 0-1.4 0-2.1 0s-1.5 0-2.1 0c-.1 0-.1 0-.1-.2s0-.2.1-.2c.6 0 1.1-.1 1.2-.4.2-.3.1-.9.1-1.9v-5c0-.5 0-.9-.1-1.1s-.4-.2-.8 0z"/><path d="m157.8 441.5c0 3.2-1.2 5.3-3.1 5.3-2 0-3.1-1.9-3.1-5.2s1.1-5.3 3.1-5.3c1.9 0 3.1 2 3.1 5.2zm-4.6.1c0 2.9.3 4.8 1.5 4.8s1.5-1.9 1.5-4.8-.3-4.8-1.5-4.8-1.5 1.8-1.5 4.8z"/><path d="m208.9 657.2c1.2 0 1.5-.1 1.7-.3.3-.3.5-.6.8-1.1.1-.1.1-.1.2-.1s.2.1.1.2c-.2.7-.5 2-.8 2.7-1 0-1.7 0-2.7 0s-1.8 0-2.8 0c-.1 0-.2 0-.2-.2s0-.3.1-.4c.7-1.3 1.3-2.1 2.5-3.6s1.9-2.3 1.9-3.6c0-1.2-.4-2-1.2-2-.7 0-1 .4-1.2.8-.1.2-.1.6-.1 1s-.5.7-1.1.7c-.4 0-.7-.1-.7-.5 0-.9 1.1-2.4 3-2.4s2.9 1.1 2.9 2.5c0 1.8-1.3 2.5-2.7 3.8-1.6 1.4-1.9 1.8-2.3 2.6h2.6z"/><path d="m220.3 653.6c0 3.2-1.2 5.3-3.1 5.3-2 0-3.1-1.9-3.1-5.2s1.1-5.3 3.1-5.3 3.1 2 3.1 5.2zm-4.6 0c0 2.9.3 4.8 1.5 4.8s1.5-1.9 1.5-4.8-.3-4.8-1.5-4.8-1.5 1.9-1.5 4.8z"/><path d="m223.9 650c-.1 0-.2 0-.2-.2s0-.2.1-.3c.8-.3 2-.8 3-1.3.1 0 .2.1.2.2 0 1.1-.1 2-.1 3.1v4.4c0 1.4 0 1.6.2 1.9.1.3.6.3 1.2.4.1 0 .1.1.1.2 0 .2 0 .2-.1.2-.6 0-1.4 0-2.1 0s-1.5 0-2.1 0c-.1 0-.1 0-.1-.2s0-.2.1-.2c.6 0 1.1-.1 1.2-.4.2-.3.1-.9.1-1.9v-5c0-.5 0-.9-.1-1.1s-.4-.2-.8 0z"/><path d="m237.7 656c0 1.6-1.1 2.9-3.1 2.9-1.9 0-3.1-1.3-3.1-2.8 0-1.2.8-1.9 2.2-2.6-1.4-.7-1.9-1.5-1.9-2.7s1.2-2.4 2.9-2.4c1.6 0 2.8 1 2.8 2.2 0 1.1-.6 1.6-1.8 2.2 1.5.8 2 1.7 2 3.2zm-4.7.1c0 1.4.7 2.3 1.7 2.3 1.1 0 1.7-.9 1.7-2.2 0-1-.6-1.6-2.3-2.4-.9.5-1.1 1.3-1.1 2.3zm3.1-5.5c0-1.1-.6-1.8-1.4-1.8-.9 0-1.5.7-1.5 1.8 0 .8.3 1.3 2.1 2.1.6-.5.8-1.2.8-2.1z"/><path d="m250.4 655.6c.8-.9.9-1 1-1s.3.1 1 .7c.3.3.4.4.4.5s0 .1-.2.1h-4.9v3.5c0 .4-.3.6-.8.6-.4 0-.6-.1-.6-.5s.1-1.4.1-3.6h-4.9c-.3 0-.6 0-1 .1l-.2-.5c.5.1.8.1 1.1.1h1.2v-1.9c0-.7 0-1.4-.1-2.1.7.3.8.3 1.5.7h2.3v-2.6h-2.6c-.8 1.3-1.8 2.3-3.2 3.1-.1 0-.2-.1-.1-.1.9-.9 1.9-2.5 2.4-4 .2-.6.4-1.1.4-1.6 1.5.4 1.9.6 1.9.8s-.2.3-.6.3c-.2.4-.4.8-.6 1.2h5.9c.7-.9.9-1 1-1s.3.1 1 .7c.3.3.4.4.4.5s0 .1-.2.1h-4.4v2.6h1.7c.7-.8.8-.9.9-.9s.3.1 1 .6c.3.3.4.3.4.5 0 .1-.1.1-.2.1h-3.7v.5 2.5zm-3.9-3h-2.5v3h2.4v-3z"/><path d="m320 657.2c1.2 0 1.5-.1 1.7-.3.3-.3.5-.6.8-1.1.1-.1.1-.1.2-.1s.2.1.1.2c-.2.7-.5 2-.8 2.7-1 0-1.7 0-2.7 0s-1.8 0-2.8 0c-.1 0-.2 0-.2-.2s0-.3.1-.4c.7-1.3 1.3-2.1 2.5-3.6s1.9-2.3 1.9-3.6c0-1.2-.4-2-1.2-2-.7 0-1 .4-1.2.8-.1.2-.1.6-.1 1s-.5.7-1.1.7c-.4 0-.7-.1-.7-.5 0-.9 1.1-2.4 3-2.4s2.9 1.1 2.9 2.5c0 1.8-1.3 2.5-2.7 3.8-1.6 1.4-1.9 1.8-2.3 2.6h2.6z"/><path d="m331.5 653.6c0 3.2-1.2 5.3-3.1 5.3-2 0-3.1-1.9-3.1-5.2s1.1-5.3 3.1-5.3c1.9 0 3.1 2 3.1 5.2zm-4.7 0c0 2.9.3 4.8 1.5 4.8s1.5-1.9 1.5-4.8-.3-4.8-1.5-4.8-1.5 1.9-1.5 4.8z"/><path d="m335 650c-.1 0-.2 0-.2-.2s0-.2.1-.3c.8-.3 2-.8 3-1.3.1 0 .2.1.2.2 0 1.1-.1 2-.1 3.1v4.4c0 1.4 0 1.6.2 1.9.1.3.6.3 1.2.4.1 0 .1.1.1.2 0 .2 0 .2-.1.2-.6 0-1.4 0-2.1 0s-1.5 0-2.1 0c-.1 0-.1 0-.1-.2s0-.2.1-.2c.6 0 1.1-.1 1.2-.4.2-.3.1-.9.1-1.9v-5c0-.5 0-.9-.1-1.1s-.4-.2-.8 0z"/><path d="m347.2 653.6c-.4.7-1.1 1-1.8 1-1.6 0-2.7-1.2-2.7-3s1.2-3.3 3.1-3.3c2 0 3.2 1.6 3.2 4 0 2.9-1.2 4.4-2.8 5.5-.7.4-1.4.8-2.3 1-.1 0-.2-.1-.3-.3s-.1-.4.1-.4c.8 0 1.4-.2 1.9-.5.9-.6 1.5-1.8 1.6-4zm-3-2c0 1.4.5 2.6 1.4 2.6.6 0 1.1-.4 1.4-1.2.1-.3.1-.5.1-.9 0-1.9-.5-3.2-1.6-3.2-.8-.1-1.3 1.1-1.3 2.7z"/><path d="m361.5 655.6c.8-.9.9-1 1-1s.3.1 1 .7c.3.3.4.4.4.5s0 .1-.2.1h-4.9v3.5c0 .4-.3.6-.8.6-.4 0-.6-.1-.6-.5s.1-1.4.1-3.6h-4.9c-.3 0-.6 0-1 .1l-.2-.5c.5.1.8.1 1.1.1h1.2v-1.9c0-.7 0-1.4-.1-2.1.7.3.8.3 1.5.7h2.3v-2.6h-2.4c-.8 1.3-1.8 2.3-3.2 3.1-.1 0-.2-.1-.1-.1.9-.9 1.9-2.5 2.4-4 .2-.6.4-1.1.4-1.6 1.5.4 1.9.6 1.9.8s-.2.3-.6.3c-.2.4-.4.8-.6 1.2h5.9c.7-.9.9-1 1-1s.3.1 1 .7c.3.3.4.4.4.5s0 .1-.2.1h-4.4v2.6h1.7c.7-.8.8-.9.9-.9s.3.1 1 .6c.3.3.4.3.4.5 0 .1-.1.1-.2.1h-3.7v.5 2.5zm-3.9-3h-2.4v3h2.4z"/><path d="m428.3 657.2c1.2 0 1.5-.1 1.7-.3.3-.3.5-.6.8-1.1.1-.1.1-.1.2-.1s.2.1.1.2c-.2.7-.5 2-.8 2.7-1 0-1.7 0-2.7 0s-1.8 0-2.8 0c-.1 0-.2 0-.2-.2s0-.3.1-.4c.7-1.3 1.3-2.1 2.5-3.6s1.9-2.3 1.9-3.6c0-1.2-.4-2-1.2-2-.7 0-1 .4-1.2.8-.1.2-.1.6-.1 1s-.5.7-1.1.7c-.4 0-.7-.1-.7-.5 0-.9 1.1-2.4 3-2.4s2.9 1.1 2.9 2.5c0 1.8-1.3 2.5-2.7 3.8-1.6 1.4-1.9 1.8-2.3 2.6h2.6z"/><path d="m439.8 653.6c0 3.2-1.2 5.3-3.1 5.3-2 0-3.1-1.9-3.1-5.2s1.1-5.3 3.1-5.3 3.1 2 3.1 5.2zm-4.6 0c0 2.9.3 4.8 1.5 4.8s1.5-1.9 1.5-4.8-.3-4.8-1.5-4.8-1.5 1.9-1.5 4.8z"/><path d="m445.8 657.2c1.2 0 1.5-.1 1.7-.3.3-.3.5-.6.8-1.1.1-.1.1-.1.2-.1s.2.1.1.2c-.2.7-.5 2-.8 2.7-1 0-1.7 0-2.7 0s-1.8 0-2.8 0c-.1 0-.2 0-.2-.2s0-.3.1-.4c.7-1.3 1.3-2.1 2.5-3.6s1.9-2.3 1.9-3.6c0-1.2-.4-2-1.2-2-.7 0-1 .4-1.2.8-.1.2-.1.6-.1 1s-.5.7-1 .7c-.4 0-.7-.1-.7-.5 0-.9 1.1-2.4 3-2.4s2.9 1.1 2.9 2.5c0 1.8-1.3 2.5-2.7 3.8-1.6 1.4-1.9 1.8-2.3 2.6h2.5z"/><path d="m457.2 653.6c0 3.2-1.2 5.3-3.1 5.3-2 0-3.1-1.9-3.1-5.2s1.1-5.3 3.1-5.3 3.1 2 3.1 5.2zm-4.6 0c0 2.9.3 4.8 1.5 4.8s1.5-1.9 1.5-4.8-.3-4.8-1.5-4.8-1.5 1.9-1.5 4.8z"/><path d="m469.8 655.6c.8-.9.9-1 1-1s.3.1 1 .7c.3.3.4.4.4.5s0 .1-.2.1h-4.9v3.5c0 .4-.3.6-.8.6-.4 0-.6-.1-.6-.5s.1-1.4.1-3.6h-4.8c-.3 0-.6 0-1 .1l-.2-.5c.5.1.8.1 1.1.1h1.2v-1.9c0-.7 0-1.4-.1-2.1.7.3.8.3 1.5.7h2.3v-2.6h-2.6c-.8 1.3-1.8 2.3-3.2 3.1-.1 0-.2-.1-.1-.1.9-.9 1.9-2.5 2.4-4 .2-.6.4-1.1.4-1.6 1.5.4 1.9.6 1.9.8s-.2.3-.6.3c-.2.4-.4.8-.6 1.2h5.9c.7-.9.9-1 1-1s.3.1 1 .7c.3.3.4.4.4.5s0 .1-.2.1h-4.4v2.6h1.7c.7-.8.8-.9.9-.9s.3.1 1 .6c.3.3.4.3.4.5 0 .1-.1.1-.2.1h-3.7v.5 2.5zm-3.9-3h-2.4v3h2.4z"/></g><path d="m388.7 442.3h81.5v27.3h-81.5z" fill="#fff"/><path d="m247.7 464.1c-.1 0-.2-.1-.1-.2 4.9-3.5 6.8-7.3 6.8-13.9 0-.6 0-.8-.1-1.5 2.4.2 2.6.3 2.6.6 0 .2-.1.3-.6.5 0 .6 0 1.1-.1 1.7.3 2.4 1 4.4 2.1 6.2 1.4 2.1 3.3 3.7 5.9 4.7.1 0 .1.2 0 .2-.6.2-.9.5-1.2 1.3-.1.3-.2.4-.3.4s-.5-.2-.9-.5c-1.9-1.5-3.5-3.5-4.5-5.8-.6-1.4-.9-3-1.1-4.8-.7 5.6-3.1 8.6-8.5 11.1z" fill="#333"/><path d="m214.2 438.7c0-2.2.5-4.1 1.6-5.7 1.1-1.5 2.6-2.7 4.4-3.5 1.9-.8 3.9-1.2 6.2-1.2 2.2 0 4.2.4 6.1 1 1.9.7 3.4 1.7 4.5 3s1.7 2.8 1.7 4.5c0 1.6-.5 2.9-1.5 3.9-1 1.1-2.2 1.8-3.8 2.4s-3 .8-4.6.8h-1.7c.8-.2 1.5-.8 2-1.8s.8-2 1-3.2c.2-1.1.3-2.1.2-3 0-1.4-.4-2.5-1.1-3.5s-1.8-1.5-3.1-1.6c-1.2-.1-2.2.3-2.9 1.1s-1 1.8-1 3.1c0 .9.2 1.7.7 2.4.4.7 1.2 1.4 2.3 2.1s2.5 1.6 4.4 2.6c1.6.8 3.1 1.6 4.5 2.4s2.6 1.5 3.7 2.4 1.9 1.8 2.5 3c.6 1.1.9 2.5.9 4.1 0 2.3-.6 4.3-1.9 5.9s-3.1 2.8-5.5 3.6-5.1 1.2-8.2 1.2c-1.6 0-3.1-.1-4.8-.4s-3.1-.7-4.4-1.3-2.4-1.5-3.2-2.6-1.2-2.6-1.2-4.4c0-1.6.3-2.9 1-4 .6-1.1 1.5-2 2.5-2.7s2-1.2 3.1-1.6 2-.6 2.9-.8c.9-.1 1.5-.2 1.9-.2l2.4-.5c-1.5.5-2.8 1.4-3.8 2.7-1 1.4-1.5 3.2-1.5 5.6 0 2.3.5 4.2 1.5 5.5s2.4 2 4.1 2.2c1.1.1 2.1 0 3-.4.9-.3 1.6-.8 2.2-1.5s.8-1.5.8-2.3c0-.6-.1-1.1-.4-1.6-.2-.5-.7-1-1.3-1.6s-1.4-1.1-2.4-1.8c-1-.6-2.3-1.3-3.8-2.1-.9-.5-1.9-1-3.1-1.7-1.1-.6-2.2-1.4-3.3-2.3s-2-2-2.6-3.4c-.7-1.4-1-3-1-4.8z" fill="#4aa064"/><path d="m462 462.9c-.1 0-.2-.1-.1-.2 4.9-3.5 6.8-7.3 6.8-13.9 0-.6 0-.8-.1-1.5 2.4.2 2.6.3 2.6.6 0 .2-.1.3-.6.5 0 .6 0 1.1-.1 1.7.3 2.4 1 4.4 2.1 6.2 1.4 2.1 3.3 3.7 5.9 4.7.1 0 .1.2 0 .2-.6.2-.9.5-1.2 1.3-.1.3-.2.4-.3.4s-.5-.2-.9-.5c-1.9-1.5-3.5-3.5-4.5-5.8-.6-1.4-.9-3-1.1-4.8-.8 5.6-3.2 8.7-8.5 11.1z" fill="#333"/><path d="m431.3 436.2c0-2.2.5-4.1 1.6-5.7 1.1-1.5 2.6-2.7 4.4-3.5 1.9-.8 4-1.2 6.2-1.2s4.2.4 6.1 1c1.9.7 3.4 1.7 4.5 3 1.2 1.3 1.7 2.8 1.7 4.5 0 1.6-.5 2.9-1.5 3.9-1 1.1-2.2 1.8-3.8 2.4s-3 .8-4.6.8h-1.7c.8-.2 1.5-.8 2-1.8s.8-2 1-3.2c.2-1.1.3-2.1.2-3 0-1.4-.4-2.5-1.1-3.5s-1.8-1.5-3.1-1.6c-1.2-.1-2.2.3-2.9 1.1s-1 1.8-1 3.1c0 .9.2 1.7.7 2.4s1.2 1.4 2.3 2.1 2.5 1.6 4.4 2.6c1.6.8 3.1 1.6 4.5 2.4s2.6 1.5 3.7 2.4 1.9 1.8 2.5 3c.6 1.1.9 2.5.9 4.1 0 2.3-.6 4.3-1.9 5.9s-3.1 2.8-5.5 3.6c-2.3.8-5.1 1.2-8.2 1.2-1.6 0-3.2-.1-4.8-.4-1.6-.2-3.1-.7-4.4-1.3-1.4-.6-2.4-1.5-3.2-2.6s-1.2-2.6-1.2-4.4c0-1.6.3-2.9 1-4 .6-1.1 1.5-2 2.5-2.7s2-1.2 3.1-1.6 2-.6 2.9-.8c.9-.1 1.5-.2 1.9-.2l2.4-.5c-1.5.5-2.8 1.4-3.8 2.7-1 1.4-1.5 3.2-1.5 5.6 0 2.3.5 4.2 1.5 5.5s2.4 2 4.1 2.2c1.1.1 2.1 0 3-.4.9-.3 1.7-.8 2.2-1.5s.8-1.5.8-2.3c0-.6-.1-1.1-.4-1.6-.2-.5-.7-1-1.3-1.6s-1.4-1.1-2.4-1.8c-1-.6-2.3-1.3-3.8-2.1-.9-.5-1.9-1-3-1.7-1.1-.6-2.2-1.4-3.3-2.3s-2-2-2.7-3.4c-.6-1.4-1-2.9-1-4.8z" fill="#4aa064"/><path d="m641.5 506.6c-.1 0-.2-.1-.1-.2 3.8-2.7 5.3-5.7 5.3-10.8 0-.4 0-.7-.1-1.2 1.8.2 2 .2 2 .5 0 .1-.1.2-.5.4 0 .4 0 .9-.1 1.3.2 1.8.7 3.4 1.6 4.8 1.1 1.7 2.6 2.9 4.6 3.7.1 0 .1.2 0 .2-.5.1-.7.4-.9 1-.1.2-.1.3-.3.3s-.4-.2-.7-.4c-1.5-1.2-2.8-2.7-3.5-4.5-.4-1.1-.7-2.3-.9-3.8-.4 4.4-2.3 6.8-6.4 8.7z" fill="#333"/><path d="m637.8 619.9c-.1 0-.2-.1-.1-.2 3.8-2.7 5.3-5.7 5.3-10.8 0-.4 0-.7-.1-1.2 1.8.2 2 .2 2 .5 0 .1-.1.2-.5.4 0 .4 0 .9-.1 1.3.2 1.8.7 3.4 1.6 4.8 1.1 1.7 2.6 2.9 4.6 3.7.1 0 .1.2 0 .2-.5.1-.7.4-.9 1-.1.2-.1.3-.3.3s-.4-.2-.7-.4c-1.5-1.2-2.8-2.7-3.5-4.5-.4-1.1-.7-2.3-.9-3.8-.3 4.5-2.2 6.9-6.4 8.7z" fill="#333"/><path d="m622 588.2c2.1 0 4 .3 5.5.8s2.7 1.3 3.5 2.3 1.2 2.3 1.2 3.7c0 1.1-.2 2.1-.7 2.9-.4.8-1 1.4-1.7 1.9s-1.5.8-2.3.9-1.6.1-2.4-.1c.8 0 1.7.1 2.6.4s1.9.7 2.7 1.3c.9.6 1.6 1.4 2.1 2.4.6 1 .8 2.3.8 3.9 0 1.9-.4 3.5-1.3 4.9s-2 2.6-3.5 3.5-3.1 1.6-4.9 2-3.7.5-5.6.3-3.8-.7-5.5-1.5l.1-.4c1.7 0 3.2-.2 4.7-.6s2.8-1.1 3.9-1.9 2-1.9 2.7-3c.7-1.2 1-2.5 1-4 0-1.6-.4-2.9-1.1-3.9-.8-1-1.7-1.7-2.8-2.1s-2.3-.7-3.4-.7l.1-.4c1.2 0 2.4-.3 3.4-.9s1.9-1.4 2.4-2.5.8-2.2.7-3.5c-.1-1-.4-1.8-.8-2.4-.5-.6-1.1-1-1.8-1.3-.7-.2-1.5-.3-2.3-.2-1.6.1-2.7.8-3.4 2.1s-1 3.2-.9 5.7h-.4l-2.3-6.9c1-.9 2.4-1.5 4.1-2.1 1.5-.3 3.4-.6 5.6-.6z" fill="#4aa064"/><path d="m660.9 460.7 3.3-29.9h-61.6l-3.4 29.9z" fill="#4aa064"/><path d="m620 441.2c.5-.6.6-.7.7-.7s.3.1.8.5c.2.2.3.3.3.4s-.1.2-.4.4v1.6 8c0 .7-.2 1-.5 1.2s-.8.3-1 .3-.3-.1-.3-.4c0-.5-.3-.7-1.7-1.1-.1 0-.1-.2 0-.2.8 0 1.3.1 1.9.1.2 0 .2-.1.2-.3v-9.5h-8.5v10.9c0 .4-.3.5-.8.5-.4 0-.6-.1-.6-.5 0-1.3.1-2.5.1-7.6 0-1.5 0-2.9-.1-4.4.7.3.8.4 1.6.8zm-2.4 2.2c.6-.7.7-.8.8-.8s.3.1.8.6c.2.2.3.3.3.4s0 .1-.2.1h-6c-.3 0-.5 0-.9.1l-.2-.5c.4.1.7.1 1 .1zm-3.1 5.7v.7c0 .3-.3.4-.8.4-.3 0-.5-.1-.5-.4 0-.4 0-.8 0-2.4 0-.9 0-1.7 0-2.6.6.3.7.3 1.4.7h2.6c.4-.5.5-.6.6-.6s.3.1.7.5c.2.2.3.3.3.4s-.1.2-.3.4v.5 2.8c0 .3-.3.4-.7.4-.3 0-.5-.1-.5-.3v-.6h-2.8zm2.8-3.2h-2.8v2.9h2.8z" fill="#fff"/><path d="m631.8 448.9c.6.6 1.4 1 2.3 1.4 1.1.5 2.3.7 3.7.8.1 0 .1.1 0 .2-.5.2-.6.3-1 1.2-.1.1-.1.2-.2.2s-.4-.1-.7-.2c-.9-.3-1.7-.8-2.5-1.4-.7-.5-1.2-1.1-1.8-1.8 0 1.8.1 3.1.1 3.5s-.2.5-.8.5c-.4 0-.5-.2-.5-.5s.1-1.7.1-2.9c-1.2 1.3-3.1 2.3-5.5 2.8-.1 0-.1-.1-.1-.1 2.1-1 3.6-2.1 4.7-3.6h-3.3c-.3 0-.6 0-1 .1l-.2-.5c.4.1.8.1 1.1.1h4.3v-1.3h-2.7c-.3 0-.6 0-1 .1l-.2-.5c.4.1.8.1 1.1.1h2.8v-1.3h-3.5c-.3 0-.6 0-1 .1l-.2-.5c.4.1.8.1 1.1.1h2.3c-.2-.1-.3-.2-.4-.6s-.4-.9-.7-1.2c-.1 0 0-.1.1-.1 1.3.2 1.9.6 1.9 1.3 0 .3-.2.6-.5.7h2.3c.3-.5.4-.9.6-1.2.1-.3.2-.6.3-.9 1.1.4 1.6.7 1.6.8s-.1.2-.6.2c-.5.5-1 .8-1.4 1h2.3c.7-.7.8-.8.9-.8s.3.1.9.6c.3.2.4.3.4.4s0 .1-.2.1h-5v1.3h2.2c.6-.7.8-.8.9-.8s.3.1.8.5c.2.2.4.3.4.4s0 .1-.2.1h-4v1.3h3.5c.7-.8.9-.9 1-.9s.3.1.9.6c.3.2.4.4.4.5s0 .1-.2.1zm-2.6-7.7c0-.6 0-.7-.1-1 1.6.2 1.7.3 1.7.4s-.1.2-.4.4v2h1.2v-1.8c0-.6 0-.7-.1-1 1.6.2 1.8.3 1.8.4s-.1.2-.5.4v2h.6c.3-.6.6-1.1.8-1.6.1-.3.2-.6.3-.9 1.2.5 1.7.7 1.7.9s-.1.3-.6.3c-.6.6-1.2 1.1-1.7 1.3h1.6c.6-.7.8-.8.9-.8s.3.1.9.6c.3.2.4.3.4.4s0 .1-.2.1h-11.3c-.3 0-.6 0-1 .1l-.2-.5c.5.1.8.1 1.1.1h3.1zm-1.5 1.5c-.3 0-.4-.1-.6-.5-.2-.6-.4-1-.8-1.4-.1 0 0-.1.1-.1 1.3.2 2 .7 2 1.3 0 .4-.3.7-.7.7z" fill="#fff"/><path d="m643.2 447.2v5.4c0 .4-.3.5-.8.5-.4 0-.6-.1-.6-.5 0-.6.2-3.3.2-5.4-.6 1.3-1.2 2.2-1.9 2.8-.1 0-.1-.1-.1-.1.8-1.4 1.4-3.2 1.8-5.3h-.8c-.2 0-.4 0-.6.1l-.2-.5c.3.1.5.1.8.1h1.1v-2.4c-.5.1-1.1.1-1.7.2-.1 0-.1-.1 0-.1 1-.3 1.9-.7 2.6-1.1.4-.2.7-.5 1-.7 1 .7 1.2.9 1.2 1.1 0 .1-.1.2-.6.2-.4.1-.8.3-1.2.4v2.6h.2c.4-.5.6-.7.7-.7s.3.1.7.5c.2.1.3.3.3.4s0 .1-.2.1h-1.7v1.2c1 .3 1.6.8 1.6 1.5 0 .4-.2.7-.6.7-.3 0-.4-.1-.5-.7-.1-.4-.2-.9-.5-1.2v.9zm6.1 3.1h1.6c.5-.6.7-.7.8-.7s.3.1.8.5c.2.2.3.3.3.4s0 .1-.2.1h-3.2v1.5h2c.6-.7.8-.8.9-.8s.3.1.8.6c.2.2.3.3.3.4s0 .1-.2.1h-8c-.3 0-.5 0-.9.1l-.2-.5c.4.1.7.1 1 .1h2.9v-1.5h-2.4c-.2 0-.4 0-.8.1l-.2-.5c.4.1.6.1.9.1h2.4v-1.5h-1.6v.1c0 .3-.3.5-.7.5s-.5-.1-.5-.5.1-.8.1-2.5c0-.8 0-1.5-.1-2.3.6.3.7.3 1.3.6h1.5v-1.3h-2.6c-.2 0-.4 0-.8.1l-.2-.5c.4.1.6.1.9.1h2.6v-1.1c-.9.1-1.8.1-3 .1-.1 0-.1-.2 0-.2 1.4-.2 3-.5 4.2-1 .7-.2 1.2-.5 1.6-.7 1 .7 1.3 1 1.3 1.1s-.2.2-.7.1c-.7.2-1.5.3-2.2.4v1.2h1.9c.6-.7.8-.8.9-.8s.3.1.9.6c.3.2.4.3.4.4s0 .1-.2.1h-3.8v1.3h1.7c.4-.5.5-.5.7-.5.1 0 .3.1.7.4.2.2.3.3.3.4s-.1.2-.3.4v.5c0 1.5.1 2.5.1 2.8 0 .4-.3.5-.7.5s-.5-.1-.5-.4v-.1h-1.8v1.7zm-1.3-3.8v-1.5h-1.6v1.5zm0 2v-1.6h-1.6v1.6zm3-2v-1.5h-1.8v1.5zm0 2v-1.6h-1.8v1.6z" fill="#fff"/><path d="m660.9 574 3.3-29.8h-61.6l-3.4 29.8z" fill="#333"/><path d="m618.3 562.9h1.7c.7-.8.8-.9.9-.9s.3.1 1 .6c.3.3.4.4.4.5s0 .1-.2.1h-11.2c-.3 0-.6 0-1.1.1l-.2-.5c.5.1.8.1 1.1.1h2.5v-1.8h-1.8c-.3 0-.5 0-.9.1l-.2-.5c.4.1.7.1 1 .1h1.8c0-.7 0-1.2-.1-1.6 1.7.2 1.8.3 1.8.5 0 .1-.2.3-.5.4v.7h2.3c0-.7 0-1.2-.1-1.6 1.7.2 1.8.3 1.8.5 0 .1-.2.2-.5.4v.8h1c.6-.7.8-.8.9-.8s.3.1.9.6c.3.2.4.3.4.4s0 .1-.2.1h-3v1.7zm-3.9 1.9c-1.4.9-2.5 1.3-4.4 1.6-.1 0-.1-.1 0-.2 1.1-.5 2-1.1 2.7-1.7.3-.3.6-.6.8-.9 1.3.6 1.6.8 1.6.9 0 .2-.1.3-.7.3zm-2-5.9c0 .4-.2.6-.7.6-.4 0-.6-.1-.6-.5 0-.5 0-1.1 0-3.2 0-.7 0-1.4-.1-2.1.7.3.8.4 1.5.7h6.4c.6-.6.7-.6.8-.6s.3.1.8.5c.2.2.3.3.3.4 0 .2-.1.2-.4.5v.6c0 1.6.1 2.8.1 3.1 0 .4-.3.6-.7.6s-.6-.1-.6-.5v-.1zm2.7-2.4v-1.7h-2.7v1.7zm-2.7 2.1h2.7v-1.8h-2.7zm2.2 2.5v1.8h2.3v-1.8zm4.6-6.3h-2.8v1.7h2.8zm0 2h-2.8v1.8h2.8zm1.2 9.6c-.3 0-.5-.1-.8-.5-.6-.8-1.4-1.4-2.5-2-.1 0 0-.2 0-.1 2.8.4 3.9 1 3.9 1.9.1.4-.2.7-.6.7z" fill="#fff"/><path d="m631.8 562.3c.6.6 1.4 1 2.3 1.4 1.1.5 2.3.7 3.7.8.1 0 .1.1 0 .2-.5.2-.6.3-1 1.2-.1.1-.1.2-.2.2s-.4-.1-.7-.2c-.9-.3-1.7-.8-2.5-1.4-.7-.5-1.2-1.1-1.8-1.8 0 1.8.1 3.1.1 3.5s-.2.5-.8.5c-.4 0-.5-.2-.5-.5s.1-1.7.1-2.9c-1.2 1.3-3.1 2.3-5.5 2.8-.1 0-.1-.1-.1-.1 2.1-1 3.6-2.1 4.7-3.6h-3.3c-.3 0-.6 0-1 .1l-.2-.5c.4.1.8.1 1.1.1h4.3v-1.3h-2.7c-.3 0-.6 0-1 .1l-.2-.5c.4.1.8.1 1.1.1h2.8v-1.3h-3.5c-.3 0-.6 0-1 .1l-.2-.5c.4.1.8.1 1.1.1h2.3c-.2-.1-.3-.2-.4-.6s-.4-.9-.7-1.2c-.1 0 0-.1.1-.1 1.3.2 1.9.6 1.9 1.3 0 .3-.2.6-.5.7h2.3c.3-.5.4-.9.6-1.2.1-.3.2-.6.3-.9 1.1.4 1.6.7 1.6.8s-.1.2-.6.2c-.5.5-1 .8-1.4 1h2.3c.7-.7.8-.8.9-.8s.3.1.9.6c.3.2.4.3.4.4s0 .1-.2.1h-5v1.3h2.2c.6-.7.8-.8.9-.8s.3.1.8.5c.2.2.4.3.4.4s0 .1-.2.1h-4v1.3h3.5c.7-.8.9-.9 1-.9s.3.1.9.6c.3.2.4.4.4.5s0 .1-.2.1zm-2.6-7.7c0-.6 0-.7-.1-1 1.6.2 1.7.3 1.7.4s-.1.2-.4.4v2h1.2v-1.8c0-.6 0-.7-.1-1 1.6.2 1.8.3 1.8.4s-.1.2-.5.4v2h.6c.3-.6.6-1.1.8-1.6.1-.3.2-.6.3-.9 1.2.5 1.7.7 1.7.9s-.1.3-.6.3c-.6.6-1.2 1.1-1.7 1.3h1.6c.6-.7.8-.8.9-.8s.3.1.9.6c.3.2.4.3.4.4s0 .1-.2.1h-11.3c-.3 0-.6 0-1 .1l-.2-.5c.5.1.8.1 1.1.1h3.1zm-1.5 1.5c-.3 0-.4-.1-.6-.5-.2-.6-.4-1-.8-1.4-.1 0 0-.1.1-.1 1.3.2 2 .7 2 1.3 0 .3-.3.7-.7.7z" fill="#fff"/><path d="m643.2 560.5v5.4c0 .4-.3.5-.8.5-.4 0-.6-.1-.6-.5 0-.6.2-3.3.2-5.4-.6 1.3-1.2 2.2-1.9 2.8-.1 0-.1-.1-.1-.1.8-1.4 1.4-3.2 1.8-5.3h-.8c-.2 0-.4 0-.6.1l-.2-.5c.3.1.5.1.8.1h1.1v-2.4c-.5.1-1.1.1-1.7.2-.1 0-.1-.1 0-.1 1-.3 1.9-.7 2.6-1.1.4-.2.7-.5 1-.7 1 .7 1.2.9 1.2 1.1 0 .1-.1.2-.6.2-.4.1-.8.3-1.2.4v2.6h.2c.4-.5.6-.7.7-.7s.3.1.7.5c.2.1.3.3.3.4s0 .1-.2.1h-1.7v1.2c1 .3 1.6.8 1.6 1.5 0 .4-.2.7-.6.7-.3 0-.4-.1-.5-.7-.1-.4-.2-.9-.5-1.2v.9zm6.1 3.1h1.6c.5-.6.7-.7.8-.7s.3.1.8.5c.2.2.3.3.3.4s0 .1-.2.1h-3.2v1.5h2c.6-.7.8-.8.9-.8s.3.1.8.6c.2.2.3.3.3.4s0 .1-.2.1h-8c-.3 0-.5 0-.9.1l-.2-.5c.4.1.7.1 1 .1h2.9v-1.5h-2.4c-.2 0-.4 0-.8.1l-.2-.5c.4.1.6.1.9.1h2.4v-1.5h-1.6v.1c0 .3-.3.5-.7.5s-.5-.1-.5-.5.1-.8.1-2.5c0-.8 0-1.5-.1-2.3.6.3.7.3 1.3.6h1.5v-1.3h-2.6c-.2 0-.4 0-.8.1l-.2-.5c.4.1.6.1.9.1h2.6v-1.1c-.9.1-1.8.1-3 .1-.1 0-.1-.2 0-.2 1.4-.2 3-.5 4.2-1 .7-.2 1.2-.5 1.6-.7 1 .7 1.3 1 1.3 1.1s-.2.2-.7.1c-.7.2-1.5.3-2.2.4v1.2h1.9c.6-.7.8-.8.9-.8s.3.1.9.6c.3.2.4.3.4.4s0 .1-.2.1h-3.8v1.3h1.7c.4-.5.5-.5.7-.5.1 0 .3.1.7.4.2.2.3.3.3.4s-.1.2-.3.4v.5c0 1.5.1 2.5.1 2.8 0 .4-.3.5-.7.5s-.5-.1-.5-.4v-.1h-1.8v1.7zm-1.3-3.7v-1.5h-1.6v1.5zm0 1.9v-1.6h-1.6v1.6zm3-1.9v-1.5h-1.8v1.5zm0 1.9v-1.6h-1.8v1.6z" fill="#fff"/><path d="m789 460.7 3.3-29.9h-61.6l-3.3 29.9z" fill="#4aa064"/><path d="m748.2 441.2c.5-.6.6-.7.7-.7s.3.1.8.5c.2.2.3.3.3.4s-.1.2-.4.4v1.6 8c0 .7-.2 1-.5 1.2s-.8.3-1 .3-.3-.1-.3-.4c0-.5-.3-.7-1.7-1.1-.1 0-.1-.2 0-.2.8 0 1.3.1 1.9.1.2 0 .2-.1.2-.3v-9.5h-8.5v10.9c0 .4-.3.5-.8.5-.4 0-.6-.1-.6-.5 0-1.3.1-2.5.1-7.6 0-1.5 0-2.9-.1-4.4.7.3.8.4 1.6.8zm-2.4 2.2c.6-.7.7-.8.8-.8s.3.1.8.6c.2.2.3.3.3.4s0 .1-.2.1h-6c-.3 0-.5 0-.9.1l-.2-.5c.4.1.7.1 1 .1zm-3.2 5.7v.7c0 .3-.3.4-.8.4-.3 0-.5-.1-.5-.4 0-.4 0-.8 0-2.4 0-.9 0-1.7 0-2.6.6.3.7.3 1.4.7h2.6c.4-.5.5-.6.6-.6s.3.1.7.5c.2.2.3.3.3.4s-.1.2-.3.4v.5 2.8c0 .3-.3.4-.7.4-.3 0-.5-.1-.5-.3v-.6h-2.8zm2.8-3.2h-2.8v2.9h2.8z" fill="#fff"/><path d="m760 448.9c.6.6 1.4 1 2.3 1.4 1.1.5 2.3.7 3.7.8.1 0 .1.1 0 .2-.5.2-.6.3-1 1.2-.1.1-.1.2-.2.2s-.4-.1-.7-.2c-.9-.3-1.7-.8-2.5-1.4-.7-.5-1.2-1.1-1.8-1.8 0 1.8.1 3.1.1 3.5s-.2.5-.8.5c-.4 0-.5-.2-.5-.5s.1-1.7.1-2.9c-1.2 1.3-3.1 2.3-5.5 2.8-.1 0-.1-.1-.1-.1 2.1-1 3.6-2.1 4.7-3.6h-3.3c-.3 0-.6 0-1 .1l-.2-.5c.4.1.8.1 1.1.1h4.3v-1.3h-2.7c-.3 0-.6 0-1 .1l-.2-.5c.4.1.8.1 1.1.1h2.8v-1.3h-3.5c-.3 0-.6 0-1 .1l-.2-.5c.4.1.8.1 1.1.1h2.3c-.2-.1-.3-.2-.4-.6s-.4-.9-.7-1.2c-.1 0 0-.1.1-.1 1.3.2 1.9.6 1.9 1.3 0 .3-.2.6-.5.7h2.3c.3-.5.4-.9.6-1.2.1-.3.2-.6.3-.9 1.1.4 1.6.7 1.6.8s-.1.2-.6.2c-.5.5-1 .8-1.4 1h2.3c.7-.7.8-.8.9-.8s.3.1.9.6c.3.2.4.3.4.4s0 .1-.2.1h-5v1.3h2.2c.6-.7.8-.8.9-.8s.3.1.8.5c.2.2.4.3.4.4s0 .1-.2.1h-4v1.3h3.5c.7-.8.9-.9 1-.9s.3.1.9.6c.3.2.4.4.4.5s0 .1-.2.1zm-2.7-7.7c0-.6 0-.7-.1-1 1.6.2 1.7.3 1.7.4s-.1.2-.4.4v2h1.2v-1.8c0-.6 0-.7-.1-1 1.6.2 1.8.3 1.8.4s-.1.2-.5.4v2h.6c.3-.6.6-1.1.8-1.6.1-.3.2-.6.3-.9 1.2.5 1.7.7 1.7.9s-.1.3-.6.3c-.6.6-1.2 1.1-1.7 1.3h1.6c.6-.7.8-.8.9-.8s.3.1.9.6c.3.2.4.3.4.4s0 .1-.2.1h-11.3c-.3 0-.6 0-1 .1l-.2-.5c.5.1.8.1 1.1.1h3.1zm-1.5 1.5c-.3 0-.4-.1-.6-.5-.2-.6-.4-1-.8-1.4-.1 0 0-.1.1-.1 1.3.2 2 .7 2 1.3.1.4-.3.7-.7.7z" fill="#fff"/><path d="m771.3 447.2v5.4c0 .4-.3.5-.8.5-.4 0-.6-.1-.6-.5 0-.6.2-3.3.2-5.4-.6 1.3-1.2 2.2-1.9 2.8-.1 0-.1-.1-.1-.1.8-1.4 1.4-3.2 1.8-5.3h-.9c-.2 0-.4 0-.6.1l-.2-.5c.3.1.5.1.8.1h1.1v-2.4c-.5.1-1.1.1-1.7.2-.1 0-.1-.1 0-.1 1-.3 1.9-.7 2.6-1.1.4-.2.7-.5 1-.7 1 .7 1.2.9 1.2 1.1 0 .1-.1.2-.6.2-.4.1-.8.3-1.2.4v2.6h.2c.4-.5.6-.7.7-.7s.3.1.7.5c.2.1.3.3.3.4s0 .1-.2.1h-1.7v1.2c1 .3 1.6.8 1.6 1.5 0 .4-.2.7-.6.7-.3 0-.4-.1-.5-.7-.1-.4-.2-.9-.5-1.2v.9zm6.1 3.1h1.6c.5-.6.7-.7.8-.7s.3.1.8.5c.2.2.3.3.3.4s0 .1-.2.1h-3.2v1.5h2c.6-.7.8-.8.9-.8s.3.1.8.6c.2.2.3.3.3.4s0 .1-.2.1h-8c-.3 0-.5 0-.9.1l-.2-.5c.4.1.7.1 1 .1h2.9v-1.5h-2.4c-.2 0-.4 0-.8.1l-.2-.5c.4.1.6.1.9.1h2.4v-1.5h-1.6v.1c0 .3-.3.5-.7.5s-.5-.1-.5-.5.1-.8.1-2.5c0-.8 0-1.5-.1-2.3.6.3.7.3 1.3.6h1.5v-1.3h-2.6c-.2 0-.4 0-.8.1l-.2-.5c.4.1.6.1.9.1h2.6v-1.1c-.9.1-1.8.1-3 .1-.1 0-.1-.2 0-.2 1.4-.2 3-.5 4.2-1 .7-.2 1.2-.5 1.6-.7 1 .7 1.3 1 1.3 1.1s-.2.2-.7.1c-.7.2-1.5.3-2.2.4v1.2h1.9c.6-.7.8-.8.9-.8s.3.1.9.6c.3.2.4.3.4.4s0 .1-.2.1h-3.8v1.3h1.7c.4-.5.5-.5.7-.5.1 0 .3.1.7.4.2.2.3.3.3.4s-.1.2-.3.4v.5c0 1.5.1 2.5.1 2.8 0 .4-.3.5-.7.5s-.5-.1-.5-.4v-.1h-1.8v1.7zm-1.2-3.8v-1.5h-1.6v1.5zm0 2v-1.6h-1.6v1.6zm2.9-2v-1.5h-1.8v1.5zm0 2v-1.6h-1.8v1.6z" fill="#fff"/><path d="m789 574 3.3-29.8h-61.6l-3.3 29.8z" fill="#333"/><path d="m746.4 562.9h1.7c.7-.8.8-.9.9-.9s.3.1 1 .6c.3.3.4.4.4.5s0 .1-.2.1h-11.2c-.3 0-.6 0-1.1.1l-.2-.5c.5.1.8.1 1.1.1h2.5v-1.8h-1.8c-.3 0-.5 0-.9.1l-.2-.5c.4.1.7.1 1 .1h1.8c0-.7 0-1.2-.1-1.6 1.7.2 1.8.3 1.8.5 0 .1-.2.3-.5.4v.7h2.3c0-.7 0-1.2-.1-1.6 1.7.2 1.8.3 1.8.5 0 .1-.2.2-.5.4v.8h1c.6-.7.8-.8.9-.8s.3.1.9.6c.3.2.4.3.4.4s0 .1-.2.1h-3v1.7zm-3.8 1.9c-1.4.9-2.5 1.3-4.4 1.6-.1 0-.1-.1 0-.2 1.1-.5 2-1.1 2.7-1.7.3-.3.6-.6.8-.9 1.3.6 1.6.8 1.6.9-.1.2-.2.3-.7.3zm-2-5.9c0 .4-.2.6-.7.6-.4 0-.6-.1-.6-.5 0-.5 0-1.1 0-3.2 0-.7 0-1.4-.1-2.1.7.3.8.4 1.5.7h6.4c.6-.6.7-.6.8-.6s.3.1.8.5c.2.2.3.3.3.4 0 .2-.1.2-.4.5v.6c0 1.6.1 2.8.1 3.1 0 .4-.3.6-.7.6s-.6-.1-.6-.5v-.1zm2.6-2.4v-1.7h-2.7v1.7zm-2.6 2.1h2.7v-1.8h-2.7zm2.2 2.5v1.8h2.3v-1.8zm4.6-6.3h-2.8v1.7h2.8zm0 2h-2.8v1.8h2.8zm1.1 9.6c-.3 0-.5-.1-.8-.5-.6-.8-1.4-1.4-2.5-2-.1 0 0-.2 0-.1 2.8.4 3.9 1 3.9 1.9.1.4-.2.7-.6.7z" fill="#fff"/><path d="m760 562.3c.6.6 1.4 1 2.3 1.4 1.1.5 2.3.7 3.7.8.1 0 .1.1 0 .2-.5.2-.6.3-1 1.2-.1.1-.1.2-.2.2s-.4-.1-.7-.2c-.9-.3-1.7-.8-2.5-1.4-.7-.5-1.2-1.1-1.8-1.8 0 1.8.1 3.1.1 3.5s-.2.5-.8.5c-.4 0-.5-.2-.5-.5s.1-1.7.1-2.9c-1.2 1.3-3.1 2.3-5.5 2.8-.1 0-.1-.1-.1-.1 2.1-1 3.6-2.1 4.7-3.6h-3.3c-.3 0-.6 0-1 .1l-.2-.5c.4.1.8.1 1.1.1h4.3v-1.3h-2.7c-.3 0-.6 0-1 .1l-.2-.5c.4.1.8.1 1.1.1h2.8v-1.3h-3.5c-.3 0-.6 0-1 .1l-.2-.5c.4.1.8.1 1.1.1h2.3c-.2-.1-.3-.2-.4-.6s-.4-.9-.7-1.2c-.1 0 0-.1.1-.1 1.3.2 1.9.6 1.9 1.3 0 .3-.2.6-.5.7h2.3c.3-.5.4-.9.6-1.2.1-.3.2-.6.3-.9 1.1.4 1.6.7 1.6.8s-.1.2-.6.2c-.5.5-1 .8-1.4 1h2.3c.7-.7.8-.8.9-.8s.3.1.9.6c.3.2.4.3.4.4s0 .1-.2.1h-5v1.3h2.2c.6-.7.8-.8.9-.8s.3.1.8.5c.2.2.4.3.4.4s0 .1-.2.1h-4v1.3h3.5c.7-.8.9-.9 1-.9s.3.1.9.6c.3.2.4.4.4.5s0 .1-.2.1zm-2.7-7.7c0-.6 0-.7-.1-1 1.6.2 1.7.3 1.7.4s-.1.2-.4.4v2h1.2v-1.8c0-.6 0-.7-.1-1 1.6.2 1.8.3 1.8.4s-.1.2-.5.4v2h.6c.3-.6.6-1.1.8-1.6.1-.3.2-.6.3-.9 1.2.5 1.7.7 1.7.9s-.1.3-.6.3c-.6.6-1.2 1.1-1.7 1.3h1.6c.6-.7.8-.8.9-.8s.3.1.9.6c.3.2.4.3.4.4s0 .1-.2.1h-11.3c-.3 0-.6 0-1 .1l-.2-.5c.5.1.8.1 1.1.1h3.1zm-1.5 1.5c-.3 0-.4-.1-.6-.5-.2-.6-.4-1-.8-1.4-.1 0 0-.1.1-.1 1.3.2 2 .7 2 1.3.1.3-.3.7-.7.7z" fill="#fff"/><path d="m771.3 560.5v5.4c0 .4-.3.5-.8.5-.4 0-.6-.1-.6-.5 0-.6.2-3.3.2-5.4-.6 1.3-1.2 2.2-1.9 2.8-.1 0-.1-.1-.1-.1.8-1.4 1.4-3.2 1.8-5.3h-.9c-.2 0-.4 0-.6.1l-.2-.5c.3.1.5.1.8.1h1.1v-2.4c-.5.1-1.1.1-1.7.2-.1 0-.1-.1 0-.1 1-.3 1.9-.7 2.6-1.1.4-.2.7-.5 1-.7 1 .7 1.2.9 1.2 1.1 0 .1-.1.2-.6.2-.4.1-.8.3-1.2.4v2.6h.2c.4-.5.6-.7.7-.7s.3.1.7.5c.2.1.3.3.3.4s0 .1-.2.1h-1.7v1.2c1 .3 1.6.8 1.6 1.5 0 .4-.2.7-.6.7-.3 0-.4-.1-.5-.7-.1-.4-.2-.9-.5-1.2v.9zm6.1 3.1h1.6c.5-.6.7-.7.8-.7s.3.1.8.5c.2.2.3.3.3.4s0 .1-.2.1h-3.2v1.5h2c.6-.7.8-.8.9-.8s.3.1.8.6c.2.2.3.3.3.4s0 .1-.2.1h-8c-.3 0-.5 0-.9.1l-.2-.5c.4.1.7.1 1 .1h2.9v-1.5h-2.4c-.2 0-.4 0-.8.1l-.2-.5c.4.1.6.1.9.1h2.4v-1.5h-1.6v.1c0 .3-.3.5-.7.5s-.5-.1-.5-.5.1-.8.1-2.5c0-.8 0-1.5-.1-2.3.6.3.7.3 1.3.6h1.5v-1.3h-2.6c-.2 0-.4 0-.8.1l-.2-.5c.4.1.6.1.9.1h2.6v-1.1c-.9.1-1.8.1-3 .1-.1 0-.1-.2 0-.2 1.4-.2 3-.5 4.2-1 .7-.2 1.2-.5 1.6-.7 1 .7 1.3 1 1.3 1.1s-.2.2-.7.1c-.7.2-1.5.3-2.2.4v1.2h1.9c.6-.7.8-.8.9-.8s.3.1.9.6c.3.2.4.3.4.4s0 .1-.2.1h-3.8v1.3h1.7c.4-.5.5-.5.7-.5.1 0 .3.1.7.4.2.2.3.3.3.4s-.1.2-.3.4v.5c0 1.5.1 2.5.1 2.8 0 .4-.3.5-.7.5s-.5-.1-.5-.4v-.1h-1.8v1.7zm-1.2-3.7v-1.5h-1.6v1.5zm0 1.9v-1.6h-1.6v1.6zm2.9-1.9v-1.5h-1.8v1.5zm0 1.9v-1.6h-1.8v1.6z" fill="#fff"/><path d="m921.3 460.7 3.4-29.9h-61.7l-3.3 29.9z" fill="#4aa064"/><path d="m880.5 441.2c.5-.6.6-.7.7-.7s.3.1.8.5c.2.2.3.3.3.4s-.1.2-.4.4v1.6 8c0 .7-.2 1-.5 1.2s-.8.3-1 .3-.3-.1-.3-.4c0-.5-.3-.7-1.7-1.1-.1 0-.1-.2 0-.2.8 0 1.3.1 1.9.1.2 0 .2-.1.2-.3v-9.5h-8.5v10.9c0 .4-.3.5-.8.5-.4 0-.6-.1-.6-.5 0-1.3.1-2.5.1-7.6 0-1.5 0-2.9-.1-4.4.7.3.8.4 1.6.8zm-2.4 2.2c.6-.7.7-.8.8-.8s.3.1.8.6c.2.2.4.3.4.4s0 .1-.2.1h-6c-.3 0-.5 0-.9.1l-.2-.5c.4.1.7.1 1 .1zm-3.2 5.7v.7c0 .3-.3.4-.8.4-.3 0-.5-.1-.5-.4 0-.4 0-.8 0-2.4 0-.9 0-1.7 0-2.6.6.3.7.3 1.4.7h2.6c.4-.5.5-.6.6-.6s.3.1.7.5c.2.2.3.3.3.4s-.1.2-.3.4v.5 2.8c0 .3-.3.4-.7.4-.3 0-.5-.1-.5-.3v-.6h-2.8zm2.9-3.2h-2.8v2.9h2.8z" fill="#fff"/><path d="m892.3 448.9c.6.6 1.4 1 2.3 1.4 1.1.5 2.3.7 3.7.8.1 0 .1.1 0 .2-.5.2-.6.3-1 1.2-.1.1-.1.2-.2.2s-.4-.1-.7-.2c-.9-.3-1.7-.8-2.5-1.4-.7-.5-1.2-1.1-1.8-1.8 0 1.8.1 3.1.1 3.5s-.2.5-.8.5c-.4 0-.5-.2-.5-.5s.1-1.7.1-2.9c-1.2 1.3-3.1 2.3-5.5 2.8-.1 0-.1-.1-.1-.1 2.1-1 3.6-2.1 4.7-3.6h-3.3c-.3 0-.6 0-1 .1l-.2-.5c.4.1.8.1 1.1.1h4.3v-1.3h-2.7c-.3 0-.6 0-1 .1l-.2-.5c.4.1.8.1 1.1.1h2.8v-1.3h-3.5c-.3 0-.6 0-1 .1l-.2-.5c.4.1.8.1 1.1.1h2.3c-.2-.1-.3-.2-.4-.6s-.4-.9-.7-1.2c-.1 0 0-.1.1-.1 1.3.2 1.9.6 1.9 1.3 0 .3-.2.6-.5.7h2.3c.3-.5.4-.9.6-1.2.1-.3.2-.6.3-.9 1.1.4 1.6.7 1.6.8s-.1.2-.6.2c-.5.5-1 .8-1.4 1h2.3c.7-.7.8-.8.9-.8s.3.1.9.6c.3.2.4.3.4.4s0 .1-.2.1h-5v1.3h2.2c.6-.7.8-.8.9-.8s.3.1.8.5c.2.2.4.3.4.4s0 .1-.2.1h-4v1.3h3.5c.7-.8.9-.9 1-.9s.3.1.9.6c.3.2.4.4.4.5s0 .1-.2.1zm-2.6-7.7c0-.6 0-.7-.1-1 1.6.2 1.7.3 1.7.4s-.1.2-.4.4v2h1.2v-1.8c0-.6 0-.7-.1-1 1.6.2 1.8.3 1.8.4s-.1.2-.5.4v2h.6c.3-.6.6-1.1.8-1.6.1-.3.2-.6.3-.9 1.2.5 1.7.7 1.7.9s-.1.3-.6.3c-.6.6-1.2 1.1-1.7 1.3h1.6c.6-.7.8-.8.9-.8s.3.1.9.6c.3.2.4.3.4.4s0 .1-.2.1h-11.3c-.3 0-.6 0-1 .1l-.2-.5c.5.1.8.1 1.1.1h3.1zm-1.5 1.5c-.3 0-.4-.1-.6-.5-.2-.6-.4-1-.8-1.4-.1 0 0-.1.1-.1 1.3.2 2 .7 2 1.3 0 .4-.3.7-.7.7z" fill="#fff"/><path d="m903.7 447.2v5.4c0 .4-.3.5-.8.5-.4 0-.6-.1-.6-.5 0-.6.2-3.3.2-5.4-.6 1.3-1.2 2.2-1.9 2.8-.1 0-.1-.1-.1-.1.8-1.4 1.4-3.2 1.8-5.3h-.9c-.2 0-.4 0-.6.1l-.2-.5c.3.1.5.1.8.1h1.1v-2.4c-.5.1-1.1.1-1.7.2-.1 0-.1-.1 0-.1 1-.3 1.9-.7 2.6-1.1.4-.2.7-.5 1-.7 1 .7 1.2.9 1.2 1.1 0 .1-.1.2-.6.2-.4.1-.8.3-1.2.4v2.6h.2c.4-.5.6-.7.7-.7s.3.1.7.5c.2.1.3.3.3.4s0 .1-.2.1h-1.7v1.2c1 .3 1.6.8 1.6 1.5 0 .4-.2.7-.6.7-.3 0-.4-.1-.5-.7-.1-.4-.2-.9-.5-1.2v.9zm6 3.1h1.6c.5-.6.7-.7.8-.7s.3.1.8.5c.2.2.3.3.3.4s0 .1-.2.1h-3.2v1.5h2c.6-.7.8-.8.9-.8s.3.1.8.6c.2.2.4.3.4.4s0 .1-.2.1h-8c-.3 0-.5 0-.9.1l-.2-.5c.4.1.7.1 1 .1h2.9v-1.5h-2.4c-.2 0-.4 0-.8.1l-.2-.5c.4.1.6.1.9.1h2.4v-1.5h-1.6v.1c0 .3-.3.5-.7.5s-.5-.1-.5-.5.1-.8.1-2.5c0-.8 0-1.5-.1-2.3.6.3.7.3 1.3.6h1.5v-1.3h-2.6c-.2 0-.4 0-.8.1l-.2-.5c.4.1.6.1.9.1h2.6v-1.1c-.9.1-1.8.1-3 .1-.1 0-.1-.2 0-.2 1.4-.2 3-.5 4.2-1 .7-.2 1.2-.5 1.6-.7 1 .7 1.3 1 1.3 1.1s-.2.2-.7.1c-.7.2-1.5.3-2.2.4v1.2h1.9c.6-.7.8-.8.9-.8s.3.1.9.6c.3.2.4.3.4.4s0 .1-.2.1h-3.8v1.3h1.7c.4-.5.5-.5.7-.5.1 0 .3.1.7.4.2.2.3.3.3.4s-.1.2-.3.4v.5c0 1.5.1 2.5.1 2.8 0 .4-.3.5-.7.5s-.5-.1-.5-.4v-.1h-1.8v1.7zm-1.2-3.8v-1.5h-1.6v1.5zm0 2v-1.6h-1.6v1.6zm3-2v-1.5h-1.8v1.5zm0 2v-1.6h-1.8v1.6z" fill="#fff"/><path d="m921.3 574 3.4-29.8h-61.7l-3.3 29.8z" fill="#333"/><path d="m878.7 562.9h1.7c.7-.8.8-.9.9-.9s.3.1 1 .6c.3.3.4.4.4.5s0 .1-.2.1h-11.2c-.3 0-.6 0-1 .1l-.2-.5c.5.1.8.1 1.1.1h2.5v-1.8h-1.7c-.3 0-.5 0-.9.1l-.2-.5c.4.1.7.1 1 .1h1.8c0-.7 0-1.2-.1-1.6 1.7.2 1.8.3 1.8.5 0 .1-.2.3-.5.4v.7h2.3c0-.7 0-1.2-.1-1.6 1.7.2 1.8.3 1.8.5 0 .1-.2.2-.5.4v.8h1c.6-.7.8-.8.9-.8s.3.1.9.6c.3.2.4.3.4.4s0 .1-.2.1h-3v1.7zm-3.8 1.9c-1.4.9-2.5 1.3-4.4 1.6-.1 0-.1-.1 0-.2 1.1-.5 2-1.1 2.7-1.7.3-.3.6-.6.8-.9 1.3.6 1.6.8 1.6.9 0 .2-.2.3-.7.3zm-2-5.9c0 .4-.2.6-.7.6-.4 0-.6-.1-.6-.5 0-.5 0-1.1 0-3.2 0-.7 0-1.4-.1-2.1.7.3.8.4 1.5.7h6.4c.6-.6.7-.6.8-.6s.3.1.8.5c.2.2.3.3.3.4 0 .2-.1.2-.4.5v.6c0 1.6.1 2.8.1 3.1 0 .4-.3.6-.7.6s-.6-.1-.6-.5v-.1zm2.7-2.4v-1.7h-2.7v1.7zm-2.7 2.1h2.7v-1.8h-2.7zm2.2 2.5v1.8h2.3v-1.8zm4.6-6.3h-2.8v1.7h2.8zm0 2h-2.8v1.8h2.8zm1.2 9.6c-.3 0-.5-.1-.8-.5-.6-.8-1.4-1.4-2.5-2-.1 0 0-.2 0-.1 2.8.4 4 1 4 1.9-.1.4-.3.7-.7.7z" fill="#fff"/><path d="m892.3 562.3c.6.6 1.4 1 2.3 1.4 1.1.5 2.3.7 3.7.8.1 0 .1.1 0 .2-.5.2-.6.3-1 1.2-.1.1-.1.2-.2.2s-.4-.1-.7-.2c-.9-.3-1.7-.8-2.5-1.4-.7-.5-1.2-1.1-1.8-1.8 0 1.8.1 3.1.1 3.5s-.2.5-.8.5c-.4 0-.5-.2-.5-.5s.1-1.7.1-2.9c-1.2 1.3-3.1 2.3-5.5 2.8-.1 0-.1-.1-.1-.1 2.1-1 3.6-2.1 4.7-3.6h-3.3c-.3 0-.6 0-1 .1l-.2-.5c.4.1.8.1 1.1.1h4.3v-1.3h-2.7c-.3 0-.6 0-1 .1l-.2-.5c.4.1.8.1 1.1.1h2.8v-1.3h-3.5c-.3 0-.6 0-1 .1l-.2-.5c.4.1.8.1 1.1.1h2.3c-.2-.1-.3-.2-.4-.6s-.4-.9-.7-1.2c-.1 0 0-.1.1-.1 1.3.2 1.9.6 1.9 1.3 0 .3-.2.6-.5.7h2.3c.3-.5.4-.9.6-1.2.1-.3.2-.6.3-.9 1.1.4 1.6.7 1.6.8s-.1.2-.6.2c-.5.5-1 .8-1.4 1h2.3c.7-.7.8-.8.9-.8s.3.1.9.6c.3.2.4.3.4.4s0 .1-.2.1h-5v1.3h2.2c.6-.7.8-.8.9-.8s.3.1.8.5c.2.2.4.3.4.4s0 .1-.2.1h-4v1.3h3.5c.7-.8.9-.9 1-.9s.3.1.9.6c.3.2.4.4.4.5s0 .1-.2.1zm-2.6-7.7c0-.6 0-.7-.1-1 1.6.2 1.7.3 1.7.4s-.1.2-.4.4v2h1.2v-1.8c0-.6 0-.7-.1-1 1.6.2 1.8.3 1.8.4s-.1.2-.5.4v2h.6c.3-.6.6-1.1.8-1.6.1-.3.2-.6.3-.9 1.2.5 1.7.7 1.7.9s-.1.3-.6.3c-.6.6-1.2 1.1-1.7 1.3h1.6c.6-.7.8-.8.9-.8s.3.1.9.6c.3.2.4.3.4.4s0 .1-.2.1h-11.3c-.3 0-.6 0-1 .1l-.2-.5c.5.1.8.1 1.1.1h3.1zm-1.5 1.5c-.3 0-.4-.1-.6-.5-.2-.6-.4-1-.8-1.4-.1 0 0-.1.1-.1 1.3.2 2 .7 2 1.3 0 .3-.3.7-.7.7z" fill="#fff"/><path d="m903.7 560.5v5.4c0 .4-.3.5-.8.5-.4 0-.6-.1-.6-.5 0-.6.2-3.3.2-5.4-.6 1.3-1.2 2.2-1.9 2.8-.1 0-.1-.1-.1-.1.8-1.4 1.4-3.2 1.8-5.3h-.9c-.2 0-.4 0-.6.1l-.2-.5c.3.1.5.1.8.1h1.1v-2.4c-.5.1-1.1.1-1.7.2-.1 0-.1-.1 0-.1 1-.3 1.9-.7 2.6-1.1.4-.2.7-.5 1-.7 1 .7 1.2.9 1.2 1.1 0 .1-.1.2-.6.2-.4.1-.8.3-1.2.4v2.6h.2c.4-.5.6-.7.7-.7s.3.1.7.5c.2.1.3.3.3.4s0 .1-.2.1h-1.7v1.2c1 .3 1.6.8 1.6 1.5 0 .4-.2.7-.6.7-.3 0-.4-.1-.5-.7-.1-.4-.2-.9-.5-1.2v.9zm6 3.1h1.6c.5-.6.7-.7.8-.7s.3.1.8.5c.2.2.3.3.3.4s0 .1-.2.1h-3.2v1.5h2c.6-.7.8-.8.9-.8s.3.1.8.6c.2.2.4.3.4.4s0 .1-.2.1h-8c-.3 0-.5 0-.9.1l-.2-.5c.4.1.7.1 1 .1h2.9v-1.5h-2.4c-.2 0-.4 0-.8.1l-.2-.5c.4.1.6.1.9.1h2.4v-1.5h-1.6v.1c0 .3-.3.5-.7.5s-.5-.1-.5-.5.1-.8.1-2.5c0-.8 0-1.5-.1-2.3.6.3.7.3 1.3.6h1.5v-1.3h-2.6c-.2 0-.4 0-.8.1l-.2-.5c.4.1.6.1.9.1h2.6v-1.1c-.9.1-1.8.1-3 .1-.1 0-.1-.2 0-.2 1.4-.2 3-.5 4.2-1 .7-.2 1.2-.5 1.6-.7 1 .7 1.3 1 1.3 1.1s-.2.2-.7.1c-.7.2-1.5.3-2.2.4v1.2h1.9c.6-.7.8-.8.9-.8s.3.1.9.6c.3.2.4.3.4.4s0 .1-.2.1h-3.8v1.3h1.7c.4-.5.5-.5.7-.5.1 0 .3.1.7.4.2.2.3.3.3.4s-.1.2-.3.4v.5c0 1.5.1 2.5.1 2.8 0 .4-.3.5-.7.5s-.5-.1-.5-.4v-.1h-1.8v1.7zm-1.2-3.7v-1.5h-1.6v1.5zm0 1.9v-1.6h-1.6v1.6zm3-1.9v-1.5h-1.8v1.5zm0 1.9v-1.6h-1.8v1.6z" fill="#fff"/><path d="m756 474.9c2.1 0 4 .3 5.5.8s2.7 1.3 3.5 2.3 1.2 2.3 1.2 3.7c0 1.1-.2 2.1-.7 2.9-.4.8-1 1.4-1.7 1.9s-1.5.8-2.3.9-1.6.1-2.4-.1c.8 0 1.7.1 2.6.4s1.9.7 2.7 1.3c.9.6 1.6 1.4 2.1 2.4.6 1 .8 2.3.8 3.9 0 1.9-.4 3.5-1.3 4.9s-2 2.6-3.5 3.5-3.1 1.6-4.9 2-3.7.5-5.6.3-3.8-.7-5.5-1.5l.1-.4c1.7 0 3.2-.2 4.7-.6s2.8-1.1 3.9-1.9 2-1.9 2.7-3c.7-1.2 1-2.5 1-4 0-1.6-.4-2.9-1.1-3.9-.8-1-1.7-1.7-2.8-2.1s-2.3-.7-3.4-.7l.1-.4c1.2 0 2.4-.3 3.4-.9s1.9-1.4 2.4-2.5.8-2.2.7-3.5c-.1-1-.4-1.8-.8-2.4-.5-.6-1.1-1-1.8-1.3-.7-.2-1.5-.3-2.3-.2-1.6.1-2.7.8-3.4 2.1s-1 3.2-.9 5.7h-.4l-2.3-6.9c1-.9 2.4-1.5 4.1-2.1 1.5-.4 3.5-.6 5.6-.6z" fill="#4aa064"/><path d="m771.9 506.6c-.1 0-.2-.1-.1-.2 3.8-2.7 5.3-5.7 5.3-10.8 0-.4 0-.7-.1-1.2 1.8.2 2 .2 2 .5 0 .1-.1.2-.5.4 0 .4 0 .9-.1 1.3.2 1.8.7 3.4 1.6 4.8 1.1 1.7 2.6 2.9 4.6 3.7.1 0 .1.2 0 .2-.5.1-.7.4-.9 1-.1.2-.1.3-.3.3s-.4-.2-.7-.4c-1.5-1.2-2.8-2.7-3.5-4.5-.4-1.1-.7-2.3-.9-3.8-.4 4.4-2.2 6.8-6.4 8.7z" fill="#333"/><path d="m771.2 619.9c-.1 0-.2-.1-.1-.2 3.8-2.7 5.3-5.7 5.3-10.8 0-.4 0-.7-.1-1.2 1.8.2 2 .2 2 .5 0 .1-.1.2-.5.4 0 .4 0 .9-.1 1.3.2 1.8.7 3.4 1.6 4.8 1.1 1.7 2.6 2.9 4.6 3.7.1 0 .1.2 0 .2-.5.1-.7.4-.9 1-.1.2-.1.3-.3.3s-.4-.2-.7-.4c-1.5-1.2-2.8-2.7-3.5-4.5-.4-1.1-.7-2.3-.9-3.8-.4 4.5-2.3 6.9-6.4 8.7z" fill="#333"/><path d="m763.6 587.3.2.3c-2.9.9-5.1 1.9-6.7 3s-2.8 2.3-3.5 3.7-1.2 3-1.4 4.7-.3 3.7-.3 5.9.1 4.1.2 5.5c.1 1.5.4 2.6.8 3.3s1.1 1.1 2.1 1.1 1.7-.3 2.2-1 .9-1.5 1-2.6c.2-1.1.3-2.2.3-3.4 0-1.5-.1-2.7-.3-3.6s-.4-1.5-.7-1.9-.6-.7-1-.9c-.6-.2-1.1-.3-1.7-.1s-1 .3-1.3.6l-.3-.3c.4-.9 1-1.5 1.8-2.1.8-.5 1.7-.9 2.8-1s2.1-.1 3.2.1c1.1.3 2 .7 2.9 1.4s1.6 1.7 2.1 2.8.8 2.7.7 4.4c-.1 1.8-.5 3.4-1.3 4.9s-2.1 2.6-3.8 3.5-3.9 1.3-6.5 1.4c-2.6 0-4.8-.4-6.6-1.3s-3.2-2.4-4.1-4.3c-.9-2-1.4-4.5-1.4-7.5 0-2.9.4-5.4 1.3-7.7s2.1-4.1 3.9-5.6 3.9-2.6 6.5-3.2c2.4-.4 5.4-.5 8.9-.1z" fill="#4aa064"/><path d="m890.7 474.9c2.1 0 4 .3 5.5.8s2.7 1.3 3.5 2.3 1.2 2.3 1.2 3.7c0 1.1-.2 2.1-.7 2.9-.4.8-1 1.4-1.7 1.9s-1.5.8-2.3.9-1.6.1-2.4-.1c.8 0 1.7.1 2.6.4s1.9.7 2.7 1.3c.9.6 1.6 1.4 2.1 2.4.6 1 .8 2.3.8 3.9 0 1.9-.4 3.5-1.3 4.9s-2 2.6-3.5 3.5-3.1 1.6-4.9 2-3.7.5-5.6.3-3.8-.7-5.5-1.5l.1-.4c1.7 0 3.2-.2 4.7-.6s2.8-1.1 3.9-1.9 2-1.9 2.7-3c.7-1.2 1-2.5 1-4 0-1.6-.4-2.9-1.1-3.9-.8-1-1.7-1.7-2.8-2.1-1.1-.5-2.3-.7-3.4-.7l.1-.4c1.2 0 2.4-.3 3.4-.9s1.9-1.4 2.4-2.5c.6-1.1.8-2.2.7-3.5-.1-1-.4-1.8-.8-2.4-.5-.6-1.1-1-1.8-1.3-.7-.2-1.5-.3-2.3-.2-1.6.1-2.7.8-3.4 2.1s-1 3.2-.9 5.7h-.7l-2.3-6.9c1-.9 2.4-1.5 4.1-2.1 1.8-.4 3.7-.6 5.9-.6z" fill="#4aa064"/><path d="m906.6 506.6c-.1 0-.2-.1-.1-.2 3.8-2.7 5.3-5.7 5.3-10.8 0-.4 0-.7-.1-1.2 1.8.2 2 .2 2 .5 0 .1-.1.2-.5.4 0 .4 0 .9-.1 1.3.2 1.8.7 3.4 1.6 4.8 1.1 1.7 2.6 2.9 4.6 3.7.1 0 .1.2 0 .2-.5.1-.7.4-.9 1-.1.2-.1.3-.3.3s-.4-.2-.7-.4c-1.5-1.2-2.8-2.7-3.5-4.5-.4-1.1-.7-2.3-.9-3.8-.4 4.4-2.3 6.8-6.4 8.7z" fill="#333"/><path d="m902.9 619.9c-.1 0-.2-.1-.1-.2 3.8-2.7 5.3-5.7 5.3-10.8 0-.4 0-.7-.1-1.2 1.8.2 2 .2 2 .5 0 .1-.1.2-.5.4 0 .4 0 .9-.1 1.3.2 1.8.7 3.4 1.6 4.8 1.1 1.7 2.6 2.9 4.6 3.7.1 0 .1.2 0 .2-.5.1-.7.4-.9 1-.1.2-.1.3-.3.3s-.4-.2-.7-.4c-1.5-1.2-2.8-2.7-3.5-4.5-.4-1.1-.7-2.3-.9-3.8-.4 4.5-2.2 6.9-6.4 8.7z" fill="#333"/><path d="m895 595.4-12.3 1-.8 3.3c2.6-.6 4.8-.8 6.8-.6s3.6.8 5 1.7c1.3.9 2.3 2 3 3.4.6 1.4.9 2.9.8 4.6-.1 2-.6 3.7-1.6 5.1s-2.3 2.6-3.9 3.5-3.3 1.5-5.2 1.8-3.7.4-5.5.1c-1.8-.2-3.5-.7-5-1.5l.1-.4c.7 0 1.5 0 2.6-.2 1-.2 2.1-.4 3.2-.8s2.2-.9 3.1-1.5c1-.6 1.8-1.4 2.4-2.3s1-1.9 1.1-3.1c.1-1.5-.3-2.7-1.2-3.6s-2.2-1.3-3.8-1.4-3.4.3-5.5 1.1l-.4-.2 3.3-15.4 11.9-1c.9 0 1.5-.2 2-.6s.9-.9 1.2-1.4h.4z" fill="#4aa064"/><path d="m956.7 525.5h-389.2" fill="none" stroke="#333" stroke-miterlimit="10"/><path d="m956.7 409.9h-389.2" fill="none" stroke="#333" stroke-miterlimit="10"/><path d="m569.3 599.6-18.8 8.8 19 9.9" fill="#fff" stroke="#333" stroke-miterlimit="10"/><path d="m416.4 476.3h66.2v160.5h-66.2z" fill="#333"/><path d="m306.7 459.1h66.2v177.8h-66.2z" fill="#808080"/><path d="m197 476.3h66.2v160.5h-66.2z" fill="#bfbfbf"/><path d="m614.4 397.2c1.2 0 1.5-.1 1.7-.3.3-.3.5-.6.8-1.1.1-.1.1-.1.2-.1s.2.1.1.2c-.2.7-.5 2-.8 2.7-1 0-1.7 0-2.7 0s-1.8 0-2.8 0c-.1 0-.2 0-.2-.2s0-.3.1-.4c.7-1.3 1.3-2.1 2.5-3.6s1.9-2.3 1.9-3.6c0-1.2-.4-2-1.2-2-.7 0-1 .4-1.2.8-.1.2-.1.6-.1 1s-.5.7-1.1.7c-.4 0-.7-.1-.7-.5 0-.9 1.1-2.4 3-2.4s2.9 1.1 2.9 2.5c0 1.8-1.3 2.5-2.7 3.8-1.6 1.4-1.9 1.8-2.3 2.6h2.6z" fill="#333"/><path d="m625.9 393.6c0 3.2-1.2 5.3-3.1 5.3-2 0-3.1-1.9-3.1-5.2s1.1-5.3 3.1-5.3 3.1 2 3.1 5.2zm-4.6.1c0 2.9.3 4.8 1.5 4.8s1.5-1.9 1.5-4.8-.3-4.8-1.5-4.8c-1.2-.1-1.5 1.8-1.5 4.8z" fill="#333"/><path d="m629.4 390c-.1 0-.2 0-.2-.2s0-.2.1-.3c.8-.3 2-.8 3-1.3.1 0 .2.1.2.2 0 1.1-.1 2-.1 3.1v4.4c0 1.4 0 1.6.2 1.9.1.3.6.3 1.2.4.1 0 .1.1.1.2 0 .2 0 .2-.1.2-.6 0-1.4 0-2.1 0s-1.5 0-2.1 0c-.1 0-.1 0-.1-.2s0-.2.1-.2c.6 0 1.1-.1 1.2-.4.2-.3.1-.9.1-1.9v-5c0-.5 0-.9-.1-1.1s-.4-.2-.8 0z" fill="#333"/><path d="m643.3 396c0 1.6-1.1 2.9-3.1 2.9-1.9 0-3.1-1.3-3.1-2.8 0-1.2.8-1.9 2.2-2.6-1.4-.7-1.9-1.5-1.9-2.7s1.2-2.4 2.9-2.4c1.6 0 2.8 1 2.8 2.2 0 1.1-.6 1.6-1.8 2.2 1.5.9 2 1.7 2 3.2zm-4.7.1c0 1.4.7 2.3 1.7 2.3s1.7-.9 1.7-2.2c0-1-.6-1.6-2.3-2.4-1 .5-1.1 1.3-1.1 2.3zm3.1-5.4c0-1.1-.6-1.8-1.4-1.8-.9 0-1.5.7-1.5 1.8 0 .8.3 1.3 2.1 2.1.5-.5.8-1.2.8-2.1z" fill="#333"/><path d="m655.9 395.7c.8-.9.9-1 1-1s.3.1 1 .7c.3.3.4.4.4.5s0 .1-.2.1h-4.9v3.5c0 .4-.3.6-.8.6-.4 0-.6-.1-.6-.5s.1-1.4.1-3.6h-4.9c-.3 0-.6 0-1 .1l-.2-.5c.5.1.8.1 1.1.1h1.2v-1.9c0-.7 0-1.4-.1-2.1.7.3.8.3 1.5.7h2.3v-2.6h-2.6c-.8 1.3-1.8 2.3-3.2 3.1-.1 0-.2-.1-.1-.1.9-.9 1.9-2.5 2.4-4 .2-.6.4-1.1.4-1.6 1.5.4 1.9.6 1.9.8s-.2.3-.6.3c-.2.4-.4.8-.6 1.2h5.9c.7-.9.9-1 1-1s.3.1 1 .7c.3.3.4.4.4.5s0 .1-.2.1h-4.4v2.6h1.7c.7-.8.8-.9.9-.9s.3.1 1 .6c.3.3.4.4.4.5s-.1.1-.2.1h-3.7v.5 2.5zm-3.9-3h-2.4v3h2.4z" fill="#333"/><path d="m743.4 397.2c1.2 0 1.5-.1 1.7-.3.3-.3.5-.6.8-1.1.1-.1.1-.1.2-.1s.2.1.1.2c-.2.7-.5 2-.8 2.7-1 0-1.7 0-2.7 0s-1.8 0-2.8 0c-.1 0-.2 0-.2-.2s0-.3.1-.4c.7-1.3 1.3-2.1 2.5-3.6s1.9-2.3 1.9-3.6c0-1.2-.4-2-1.2-2-.7 0-1 .4-1.2.8-.1.2-.1.6-.1 1s-.5.7-1 .7c-.4 0-.7-.1-.7-.5 0-.9 1.1-2.4 3-2.4s2.9 1.1 2.9 2.5c0 1.8-1.3 2.5-2.7 3.8-1.6 1.4-1.9 1.8-2.3 2.6h2.5z" fill="#333"/><path d="m754.9 393.6c0 3.2-1.2 5.3-3.1 5.3-2 0-3.1-1.9-3.1-5.2s1.1-5.3 3.1-5.3c1.9 0 3.1 2 3.1 5.2zm-4.6.1c0 2.9.3 4.8 1.5 4.8s1.5-1.9 1.5-4.8-.3-4.8-1.5-4.8c-1.2-.1-1.5 1.8-1.5 4.8z" fill="#333"/><path d="m758.4 390c-.1 0-.2 0-.2-.2s0-.2.1-.3c.8-.3 2-.8 3-1.3.1 0 .2.1.2.2 0 1.1-.1 2-.1 3.1v4.4c0 1.4 0 1.6.2 1.9.1.3.6.3 1.2.4.1 0 .1.1.1.2 0 .2 0 .2-.1.2-.6 0-1.4 0-2.1 0s-1.5 0-2.1 0c-.1 0-.1 0-.1-.2s0-.2.1-.2c.6 0 1.1-.1 1.2-.4.2-.3.1-.9.1-1.9v-5c0-.5 0-.9-.1-1.1s-.4-.2-.8 0z" fill="#333"/><path d="m770.6 393.7c-.4.7-1.1 1-1.8 1-1.6 0-2.7-1.2-2.7-3s1.2-3.3 3.1-3.3c2 0 3.2 1.6 3.2 4 0 2.9-1.2 4.4-2.8 5.5-.7.4-1.4.8-2.3 1-.1 0-.2-.1-.3-.3s-.1-.4.1-.4c.8 0 1.4-.2 1.9-.5 1-.6 1.5-1.9 1.6-4zm-2.9-2.1c0 1.4.5 2.6 1.4 2.6.6 0 1.1-.4 1.4-1.2.1-.3.1-.5.1-.9 0-1.9-.5-3.2-1.6-3.2-.9-.1-1.3 1.2-1.3 2.7z" fill="#333"/><path d="m784.9 395.7c.8-.9.9-1 1-1s.3.1 1 .7c.3.3.4.4.4.5s0 .1-.2.1h-4.9v3.5c0 .4-.3.6-.8.6-.4 0-.6-.1-.6-.5s.1-1.4.1-3.6h-4.9c-.3 0-.6 0-1 .1l-.2-.5c.5.1.8.1 1.1.1h1.2v-1.9c0-.7 0-1.4-.1-2.1.7.3.8.3 1.5.7h2.3v-2.6h-2.6c-.8 1.3-1.8 2.3-3.2 3.1-.1 0-.2-.1-.1-.1.9-.9 1.9-2.5 2.4-4 .2-.6.4-1.1.4-1.6 1.5.4 1.9.6 1.9.8s-.2.3-.6.3c-.2.4-.4.8-.6 1.2h5.9c.7-.9.9-1 1-1s.3.1 1 .7c.3.3.4.4.4.5s0 .1-.2.1h-4.4v2.6h1.7c.7-.8.8-.9.9-.9s.3.1 1 .6c.3.3.4.4.4.5s-.1.1-.2.1h-3.7v.5 2.5zm-3.9-3h-2.4v3h2.4z" fill="#333"/><path d="m874.5 397.2c1.2 0 1.5-.1 1.7-.3.3-.3.5-.6.8-1.1.1-.1.1-.1.2-.1s.2.1.1.2c-.2.7-.5 2-.8 2.7-1 0-1.7 0-2.7 0s-1.8 0-2.8 0c-.1 0-.2 0-.2-.2s0-.3.1-.4c.7-1.3 1.3-2.1 2.5-3.6s1.9-2.3 1.9-3.6c0-1.2-.4-2-1.2-2-.7 0-1 .4-1.2.8-.1.2-.1.6-.1 1s-.5.7-1 .7c-.4 0-.7-.1-.7-.5 0-.9 1.1-2.4 3-2.4s2.9 1.1 2.9 2.5c0 1.8-1.3 2.5-2.7 3.8-1.6 1.4-1.9 1.8-2.3 2.6h2.5z" fill="#333"/><path d="m885.9 393.6c0 3.2-1.2 5.3-3.1 5.3-2 0-3.1-1.9-3.1-5.2s1.1-5.3 3.1-5.3 3.1 2 3.1 5.2zm-4.6.1c0 2.9.3 4.8 1.5 4.8s1.5-1.9 1.5-4.8-.3-4.8-1.5-4.8c-1.2-.1-1.5 1.8-1.5 4.8z" fill="#333"/><path d="m891.9 397.2c1.2 0 1.5-.1 1.7-.3.3-.3.5-.6.8-1.1.1-.1.1-.1.2-.1s.2.1.1.2c-.2.7-.5 2-.8 2.7-1 0-1.7 0-2.7 0s-1.8 0-2.8 0c-.1 0-.2 0-.2-.2s0-.3.1-.4c.7-1.3 1.3-2.1 2.5-3.6s1.9-2.3 1.9-3.6c0-1.2-.4-2-1.2-2-.7 0-1 .4-1.2.8-.1.2-.1.6-.1 1s-.5.7-1.1.7c-.4 0-.7-.1-.7-.5 0-.9 1.1-2.4 3-2.4s2.9 1.1 2.9 2.5c0 1.8-1.3 2.5-2.7 3.8-1.6 1.4-1.9 1.8-2.3 2.6h2.6z" fill="#333"/><path d="m903.4 393.6c0 3.2-1.2 5.3-3.1 5.3-2 0-3.1-1.9-3.1-5.2s1.1-5.3 3.1-5.3c1.9 0 3.1 2 3.1 5.2zm-4.7.1c0 2.9.3 4.8 1.5 4.8s1.5-1.9 1.5-4.8-.3-4.8-1.5-4.8c-1.2-.1-1.5 1.8-1.5 4.8z" fill="#333"/><path d="m916 395.7c.8-.9.9-1 1-1s.3.1 1 .7c.3.3.4.4.4.5s0 .1-.2.1h-4.9v3.5c0 .4-.3.6-.8.6-.4 0-.6-.1-.6-.5s.1-1.4.1-3.6h-4.9c-.3 0-.6 0-1 .1l-.2-.5c.5.1.8.1 1.1.1h1.2v-1.9c0-.7 0-1.4-.1-2.1.7.3.8.3 1.5.7h2.3v-2.6h-2.6c-.8 1.3-1.8 2.3-3.2 3.1-.1 0-.2-.1-.1-.1.9-.9 1.9-2.5 2.4-4 .2-.6.4-1.1.4-1.6 1.5.4 1.9.6 1.9.8s-.2.3-.6.3c-.2.4-.4.8-.6 1.2h5.9c.7-.9.9-1 1-1s.3.1 1 .7c.3.3.4.4.4.5s0 .1-.2.1h-4.4v2.6h1.7c.7-.8.8-.9.9-.9s.3.1 1 .6c.3.3.4.4.4.5s-.1.1-.2.1h-3.7v.5 2.5zm-4-3h-2.4v3h2.4z" fill="#333"/></svg>