<?xml version="1.0" encoding="utf-8"?>
<!-- Generator: Adobe Illustrator 25.4.1, SVG Export Plug-In . SVG Version: 6.00 Build 0)  -->
<svg version="1.1" id="レイヤー_1" xmlns="http://www.w3.org/2000/svg" xmlns:xlink="http://www.w3.org/1999/xlink" x="0px"
	 y="0px" viewBox="0 0 335 570.9" style="enable-background:new 0 0 335 570.9;" xml:space="preserve">
<style type="text/css">
	.st0{fill:#FFFFFF;}
	.st1{fill:#4AA064;}
	.st2{fill-rule:evenodd;clip-rule:evenodd;fill:#4AA064;}
	.st3{fill-rule:evenodd;clip-rule:evenodd;fill:#333333;}
	.st4{enable-background:new    ;}
	.st5{fill:#333333;}
</style>
<g id="レイヤー_2_00000140714299642492575340000013854184076090135220_">
	<g id="pc">
		<rect x="2.5" y="2.5" class="st0" width="330" height="565.9"/>
		<path class="st1" d="M330,5v560.9H5V5H330 M335,0H0v570.9h335V0z"/>
		<rect y="383.7" class="st1" width="335" height="1.8"/>
		<path class="st2" d="M108.8,276l-83.4,11.7c-6.5-46,25.6-88.6,71.6-95.1c3.9-0.5,7.8-0.8,11.7-0.8L108.8,276z"/>
		<path class="st3" d="M108.8,276v-84.2c46.5,0,84.2,37.7,84.2,84.2s-37.7,84.2-84.2,84.2c-42.8,0-77.4-30.1-83.4-72.5L108.8,276z"
			/>
		<path class="st0" d="M88.2,252.2c0.7-0.1,1.4,0.2,1.9,0.8c0.4,0.6,0.6,1.4,0.5,2.1c0,0.8-0.4,1.5-1,2.1c-0.7,0.5-1.5,0.8-2.3,0.7
			c-0.7,0.1-1.4-0.2-1.9-0.8c-0.4-0.6-0.6-1.4-0.4-2.2c0.1-0.8,0.5-1.5,1.1-2C86.7,252.4,87.4,252.2,88.2,252.2z M88.2,252.9
			c-0.2,0-0.4,0.2-0.6,0.6c-0.2,0.5-0.4,1.1-0.4,1.6c-0.1,0.5-0.1,1.1,0,1.6c0.1,0.4,0.2,0.6,0.4,0.6s0.5-0.2,0.7-0.6
			c0.2-0.5,0.3-1,0.4-1.6c0.1-0.5,0.1-1.1,0-1.6C88.5,253.1,88.4,252.9,88.2,252.9z M87.9,264l-0.7-0.3l5.5-10.4
			c-0.3,0.2-0.6,0.3-0.9,0.3c-0.3,0-0.5,0-0.8,0c-0.3,0-0.7-0.1-1-0.3l-0.8-0.4c-0.3-0.1-0.6-0.2-0.8-0.1l-0.2-0.6
			c0.3,0,0.7,0,1,0.1c0.2,0.1,0.5,0.1,0.7,0.2c0.2,0.1,0.4,0.2,0.6,0.3c0.2,0.1,0.4,0.1,0.6,0.2c0.3,0,0.6,0,0.8-0.1
			c0.3-0.1,0.5-0.2,0.7-0.3l0.6-0.3l0.6,0.3L87.9,264z M94,258.2c0.7,0,1.4,0.2,1.9,0.8c0.4,0.6,0.6,1.3,0.5,2.1
			c0,0.8-0.4,1.6-1,2.1c-0.7,0.5-1.5,0.8-2.4,0.7c-0.7,0.1-1.4-0.2-1.9-0.8c-0.4-0.6-0.6-1.4-0.4-2.2c0.1-0.8,0.5-1.5,1.1-2
			C92.4,258.4,93.2,258.2,94,258.2z M93.8,258.9c-0.2,0-0.4,0.2-0.6,0.6c-0.2,0.5-0.3,1.1-0.4,1.6c-0.1,0.5-0.1,1.1-0.1,1.6
			c0.1,0.4,0.2,0.6,0.4,0.6s0.5-0.2,0.7-0.6c0.2-0.5,0.4-1,0.4-1.6c0.1-0.5,0.1-1.1,0-1.6C94.2,259.1,94,258.9,93.8,258.9
			L93.8,258.9z"/>
		<path class="st0" d="M51.7,251.2l-1.7-4.7c0.6-0.5,1.2-0.8,1.9-1.1c0.8-0.3,1.6-0.5,2.4-0.7c0.8-0.2,1.7-0.2,2.5-0.2
			c1.3,0,2.6,0.2,3.8,0.6c1,0.4,1.9,1,2.6,1.8c0.7,0.8,1,1.8,1,2.9c0,0.8-0.2,1.6-0.5,2.3c-0.4,0.7-0.8,1.4-1.4,2
			c-0.6,0.6-1.2,1.2-1.9,1.8c-0.7,0.5-1.3,1-2,1.4l-1.8,1.1h4.9c0.5,0,1-0.1,1.4-0.3c0.4-0.2,0.8-0.5,1.2-0.9c0.4-0.5,0.7-1,1-1.5
			h0.3l-1.8,7.3H50.1v-0.3c0.8-0.9,1.5-1.8,2.3-2.8s1.6-1.8,2.3-2.7c0.7-0.9,1.4-1.8,2-2.7c0.6-0.8,1-1.7,1.4-2.7
			c0.3-0.8,0.5-1.7,0.5-2.6c0.1-1-0.3-1.9-0.9-2.6c-0.6-0.7-1.5-1-2.4-0.8c-1,0-2,0.6-2.5,1.5c-0.6,1.2-0.9,2.6-0.8,3.9L51.7,251.2z
			"/>
		<path class="st0" d="M67.2,245l13.8-0.1l-3.3,7.7c-0.2,0.5-0.5,1.1-0.7,1.8s-0.5,1.5-0.8,2.3s-0.5,1.6-0.8,2.4l-0.7,2.2
			c-0.2,0.7-0.4,1.3-0.5,1.7h-4.4c0.3-0.5,0.7-1.1,1.1-1.9s0.9-1.5,1.3-2.4l1.4-2.5c0.5-0.8,0.9-1.6,1.2-2.3s0.7-1.3,0.9-1.8
			l1.4-2.9h-8.4c-0.4,0-0.9,0.1-1.2,0.4c-0.3,0.3-0.6,0.7-0.7,1.2h-0.3L67.2,245z"/>
		<path class="st0" d="M159.5,299.5c0.7-0.1,1.4,0.2,1.9,0.8c0.4,0.6,0.6,1.4,0.5,2.1c0,0.8-0.4,1.5-1,2.1c-0.7,0.5-1.5,0.8-2.4,0.8
			c-0.7,0.1-1.4-0.2-1.9-0.8c-0.4-0.6-0.6-1.4-0.4-2.2c0.1-0.8,0.5-1.5,1.1-2C157.9,299.7,158.7,299.5,159.5,299.5z M159.4,300.2
			c-0.2,0-0.4,0.2-0.6,0.6c-0.2,0.5-0.4,1.1-0.4,1.6c-0.1,0.5-0.1,1.1,0,1.6c0.1,0.4,0.2,0.6,0.4,0.6s0.5-0.2,0.7-0.6
			c0.2-0.5,0.3-1,0.4-1.6c0.1-0.5,0.1-1.1,0-1.6C159.8,300.4,159.6,300.2,159.4,300.2L159.4,300.2z M159.2,311.3l-0.7-0.3l5.5-10.5
			c-0.3,0.2-0.6,0.3-0.9,0.3c-0.3,0-0.5,0-0.8,0c-0.3,0-0.7-0.1-1-0.3c-0.3-0.1-0.5-0.3-0.8-0.4c-0.3-0.1-0.6-0.2-0.8-0.1l-0.2-0.6
			c0.3,0,0.7,0,1,0.1c0.2,0.1,0.5,0.1,0.7,0.3c0.2,0.1,0.4,0.2,0.6,0.3c0.2,0.1,0.4,0.1,0.6,0.1c0.3,0,0.6,0,0.8-0.1
			c0.3-0.1,0.5-0.2,0.7-0.3l0.6-0.3l0.6,0.3L159.2,311.3z M165.3,305.5c0.7,0,1.4,0.2,1.9,0.8c0.4,0.6,0.6,1.3,0.5,2.1
			c0,0.8-0.4,1.6-1,2.1c-0.7,0.5-1.5,0.8-2.4,0.8c-0.7,0.1-1.4-0.2-1.9-0.8c-0.4-0.6-0.6-1.4-0.4-2.2c0.1-0.8,0.5-1.5,1.1-2
			C163.7,305.7,164.5,305.5,165.3,305.5L165.3,305.5z M165.1,306.2c-0.2,0-0.4,0.2-0.6,0.6c-0.2,0.5-0.3,1.1-0.4,1.6
			c-0.1,0.5-0.1,1.1-0.1,1.6c0.1,0.4,0.2,0.6,0.4,0.6s0.5-0.2,0.7-0.6c0.2-0.5,0.4-1,0.4-1.6c0.1-0.5,0.1-1.1,0-1.6
			C165.4,306.4,165.3,306.2,165.1,306.2L165.1,306.2z"/>
		<path class="st0" d="M123,292.3h13.8l-3.3,7.7c-0.2,0.5-0.5,1.1-0.7,1.8s-0.5,1.5-0.8,2.3s-0.5,1.6-0.8,2.4l-0.7,2.2
			c-0.2,0.7-0.4,1.3-0.5,1.7h-4.4c0.3-0.5,0.7-1.1,1.1-1.9s0.9-1.5,1.3-2.4c0.5-0.8,0.9-1.7,1.4-2.5s0.9-1.6,1.2-2.3
			s0.7-1.3,0.9-1.8l1.4-2.9h-8.3c-0.4,0-0.9,0.1-1.2,0.4c-0.3,0.3-0.6,0.7-0.7,1.2h-0.3L123,292.3z"/>
		<path class="st0" d="M144.3,291.9c1.2,0,2.4,0.2,3.6,0.5c0.9,0.3,1.7,0.8,2.3,1.5c0.5,0.7,0.8,1.5,0.8,2.4c0,0.6-0.1,1.3-0.4,1.9
			c-0.3,0.5-0.7,0.9-1.1,1.2c-0.5,0.3-1,0.5-1.5,0.6c-0.5,0.1-1.1,0.1-1.6-0.1c0.6,0,1.1,0.1,1.7,0.2c0.6,0.2,1.2,0.4,1.8,0.8
			c0.6,0.4,1.1,1,1.4,1.6c0.4,0.8,0.6,1.6,0.6,2.5c0,1.1-0.3,2.2-0.9,3.2c-0.6,0.9-1.3,1.7-2.3,2.3c-1,0.6-2.1,1-3.2,1.3
			c-1.2,0.3-2.4,0.3-3.7,0.2c-1.2-0.1-2.5-0.4-3.6-1l0.1-0.3c1,0,2-0.1,3-0.4c0.9-0.3,1.8-0.7,2.5-1.2c0.7-0.5,1.3-1.2,1.7-2
			c0.4-0.8,0.7-1.7,0.6-2.6c0-0.9-0.2-1.8-0.7-2.5c-0.5-0.6-1.1-1.1-1.9-1.4c-0.7-0.3-1.5-0.4-2.2-0.4v-0.3c1.6,0,3-0.8,3.8-2.2
			c0.4-0.7,0.5-1.5,0.4-2.3c0-0.6-0.2-1.1-0.6-1.5c-0.3-0.4-0.7-0.7-1.1-0.8c-0.5-0.2-1-0.2-1.5-0.2c-0.9,0-1.8,0.5-2.2,1.4
			c-0.5,1.2-0.7,2.4-0.6,3.7h-0.3l-1.5-4.5c0.8-0.6,1.7-1.1,2.7-1.3C141.7,292,143,291.9,144.3,291.9z"/>
		<g class="st4">
			<path class="st0" d="M69.2,225.9c-0.3,1.5-0.9,2.9-1.8,4.1c2,0.8,3.1,1.7,3.1,2.4c0,0.5-0.2,0.8-0.6,0.8c-0.2,0-0.4-0.1-0.7-0.4
				c-0.8-0.8-1.6-1.5-2.5-2.1c-1.4,1.4-3.3,2.2-6,2.5c-0.1,0-0.1-0.2,0-0.2c2.2-0.6,3.9-1.5,5.1-2.9c-0.6-0.4-1.3-0.7-2-1
				c-0.1,0.2-0.2,0.4-0.3,0.5c-0.2,0.2-0.3,0.3-0.5,0.3c-0.4,0-0.7-0.1-0.7-0.3c0-0.1,0.1-0.3,0.2-0.4c0.5-0.8,1.1-2,1.6-3.2h-2
				c-0.3,0-0.7,0-1.2,0.1l-0.1-0.4c0.5,0.1,0.9,0.1,1.3,0.1h2.1c0.1-0.2,0.2-0.4,0.2-0.7c0.3-1,0.6-2,0.6-2.6
				c1.4,0.3,1.6,0.3,1.6,0.5c0,0.1-0.1,0.2-0.5,0.3c-0.3,0.9-0.5,1.7-0.8,2.4h4.3c0.6-0.8,0.8-0.9,0.9-0.9c0.1,0,0.2,0.1,0.8,0.6
				c0.3,0.2,0.4,0.3,0.4,0.4s0,0.1-0.2,0.1H69.2z M65.4,225.9c-0.4,1-0.8,2-1.3,2.9c1,0.3,1.7,0.5,2.3,0.7c0.8-1.1,1.3-2.3,1.6-3.6
				H65.4z"/>
			<path class="st0" d="M76.4,226.1c0,0.8-0.3,1.4-0.9,1.4c-0.3,0-0.5-0.3-0.5-0.6c0-0.3,0.1-0.4,0.3-0.6c0.5-0.4,0.7-0.6,0.7-1.5
				c0-0.1,0.1-0.1,0.1,0C76.3,225.2,76.4,225.7,76.4,226.1z M77.8,224.6c0,4.3,0,7.2,0,8.2c0,0.4-0.2,0.5-0.6,0.5
				c-0.4,0-0.5-0.1-0.5-0.4c0-0.9,0.1-3.6,0.1-9.1c0-0.8,0-1-0.1-1.5c1.5,0.2,1.5,0.2,1.5,0.3c0,0.1-0.1,0.2-0.4,0.3V224.6z
				 M78.6,226.4c-0.3,0-0.4-0.2-0.4-0.7c0-0.5-0.1-0.9-0.3-1.2c0,0,0-0.1,0.1-0.1c0.7,0.4,1.1,0.9,1.1,1.4
				C79.1,226.2,78.9,226.4,78.6,226.4z M82.9,228.8h0.8c0.6-0.8,0.7-0.9,0.8-0.9c0.1,0,0.2,0.1,0.8,0.6c0.3,0.2,0.4,0.3,0.4,0.4
				s0,0.1-0.2,0.1h-2.7v3.3h1.3c0.6-0.8,0.8-0.9,0.9-0.9c0.1,0,0.2,0.1,0.9,0.6c0.3,0.2,0.4,0.3,0.4,0.4s0,0.1-0.2,0.1h-6.6
				c-0.3,0-0.6,0-1,0.1l-0.1-0.4c0.4,0.1,0.7,0.1,1.1,0.1h2.2v-3.3h-1.4c-0.2,0-0.5,0-0.8,0.1l-0.1-0.4c0.3,0.1,0.6,0.1,0.9,0.1h1.5
				v-2.8h-1.4c-0.4,0.9-1,1.7-1.8,2.4c0,0-0.1-0.1-0.1-0.1c0.5-0.9,0.9-2,1.2-3.1c0.1-0.6,0.2-1.1,0.3-1.7c1.5,0.4,1.5,0.4,1.5,0.6
				c0,0.1,0,0.2-0.4,0.3c-0.2,0.5-0.3,1-0.5,1.4h1.3v-1.6c0-0.7,0-1.3-0.1-1.7c1.5,0.1,1.7,0.3,1.7,0.4c0,0.1-0.1,0.2-0.4,0.3v2.6
				h1.2c0.5-0.7,0.7-0.8,0.8-0.8c0.1,0,0.2,0.1,0.8,0.6c0.3,0.2,0.3,0.3,0.3,0.4s0,0.1-0.2,0.1h-3V228.8z"/>
		</g>
		<g class="st4">
			<path class="st0" d="M137.1,277c-0.2,0.8-0.6,1.5-1.1,2c-0.9,1-2.3,1.6-4.2,1.8c-0.1,0-0.1-0.1,0-0.1c1.3-0.4,2.4-1,3.1-1.8
				c0.5-0.5,0.9-1.2,1.1-1.9h-2.7c-0.3,0-0.6,0-1,0.1l-0.1-0.5c0.4,0.1,0.8,0.1,1.1,0.1h2.8c0.1-0.4,0.2-0.9,0.2-1.4
				c1.2,0.1,1.5,0.2,1.5,0.4c0,0.1-0.1,0.2-0.4,0.3c0,0.3-0.1,0.5-0.1,0.7h3.1c0.4-0.5,0.5-0.5,0.6-0.5c0.1,0,0.2,0.1,0.6,0.5
				c0.2,0.2,0.3,0.3,0.3,0.3c0,0.1,0,0.1-0.3,0.3c-0.3,1.7-0.4,2.4-0.7,2.8c-0.2,0.2-0.4,0.4-0.6,0.5c-0.2,0.1-0.5,0.1-0.8,0.1
				c-0.2,0-0.3-0.1-0.3-0.3c-0.1-0.5-0.3-0.6-1.4-0.9c-0.1,0,0-0.2,0-0.2c0.9,0.1,1.5,0.1,1.7,0.1c0.3,0,0.5-0.1,0.7-0.5
				c0.2-0.4,0.3-1,0.4-2.1L137.1,277L137.1,277z M134.1,275.2c0,0.3-0.2,0.5-0.6,0.5c-0.3,0-0.5-0.1-0.5-0.4c0-0.5,0-0.9,0-2.8
				c0-0.7,0-1.5-0.1-2.2c0.6,0.2,0.7,0.3,1.3,0.6h5.5c0.4-0.5,0.5-0.5,0.6-0.5c0.1,0,0.2,0.1,0.7,0.4c0.2,0.2,0.3,0.2,0.3,0.3
				c0,0.1,0,0.2-0.3,0.4v0.6c0,1.6,0.1,2.8,0.1,3.1s-0.2,0.5-0.7,0.5c-0.3,0-0.5-0.1-0.5-0.4v-0.3h-5.8V275.2z M136.4,272.7V271
				h-2.3v1.6H136.4z M134.1,274.7h2.3v-1.7h-2.3V274.7z M139.9,271h-2.4v1.6h2.4V271z M139.9,272.9h-2.4v1.7h2.4V272.9z"/>
			<path class="st0" d="M147.1,273.7c0,0.8-0.3,1.4-0.9,1.4c-0.3,0-0.5-0.3-0.5-0.6c0-0.3,0.1-0.4,0.3-0.6c0.5-0.4,0.7-0.6,0.7-1.5
				c0-0.1,0.1-0.1,0.1,0C147,272.9,147.1,273.3,147.1,273.7z M148.5,272.2c0,4.3,0,7.2,0,8.2c0,0.4-0.2,0.5-0.6,0.5
				c-0.4,0-0.5-0.1-0.5-0.4c0-0.9,0.1-3.6,0.1-9.1c0-0.8,0-1-0.1-1.5c1.5,0.2,1.5,0.2,1.5,0.3c0,0.1-0.1,0.2-0.4,0.3V272.2z
				 M149.3,274.1c-0.3,0-0.4-0.2-0.4-0.7c0-0.5-0.1-0.9-0.3-1.2c0,0,0-0.1,0.1-0.1c0.7,0.4,1.1,0.9,1.1,1.4
				C149.8,273.8,149.6,274.1,149.3,274.1z M153.6,276.4h0.8c0.6-0.8,0.7-0.9,0.8-0.9c0.1,0,0.2,0.1,0.8,0.6c0.3,0.2,0.4,0.3,0.4,0.4
				s0,0.1-0.2,0.1h-2.7v3.3h1.3c0.6-0.8,0.8-0.9,0.9-0.9c0.1,0,0.2,0.1,0.9,0.6c0.3,0.2,0.4,0.3,0.4,0.4s0,0.1-0.2,0.1h-6.6
				c-0.3,0-0.6,0-1,0.1l-0.1-0.4c0.4,0.1,0.7,0.1,1.1,0.1h2.2v-3.3h-1.4c-0.2,0-0.5,0-0.8,0.1l-0.1-0.4c0.3,0.1,0.6,0.1,0.9,0.1h1.5
				v-2.8h-1.4c-0.4,0.9-1,1.7-1.8,2.4c0,0-0.1-0.1-0.1-0.1c0.5-0.9,0.9-2,1.2-3.1c0.1-0.6,0.2-1.1,0.3-1.7c1.5,0.4,1.5,0.4,1.5,0.6
				c0,0.1,0,0.2-0.4,0.3c-0.2,0.5-0.3,1-0.5,1.4h1.3v-1.6c0-0.7,0-1.3-0.1-1.7c1.5,0.1,1.7,0.3,1.7,0.4c0,0.1-0.1,0.2-0.4,0.3v2.6
				h1.2c0.5-0.7,0.7-0.8,0.8-0.8c0.1,0,0.2,0.1,0.8,0.6c0.3,0.2,0.3,0.3,0.3,0.4s0,0.1-0.2,0.1h-3V276.4z"/>
		</g>
		<g class="st4">
			<path class="st5" d="M294.4,256.1c-0.1,0-0.2-0.1-0.1-0.2c3.8-2.7,5.3-5.7,5.3-10.8c0-0.4,0-0.7-0.1-1.2c1.8,0.2,2,0.2,2,0.5
				c0,0.1-0.1,0.2-0.5,0.4c0,0.4,0,0.9-0.1,1.3c0.2,1.8,0.7,3.4,1.6,4.8c1.1,1.7,2.6,2.9,4.6,3.7c0.1,0,0.1,0.2,0,0.2
				c-0.5,0.1-0.7,0.4-0.9,1c-0.1,0.2-0.1,0.3-0.3,0.3s-0.4-0.2-0.7-0.4c-1.5-1.2-2.8-2.7-3.5-4.5c-0.4-1.1-0.7-2.3-0.9-3.8
				C300.4,251.8,298.6,254.2,294.4,256.1z"/>
		</g>
		<path class="st1" d="M219.8,237.8l-2.7-7.2c0.9-0.7,1.8-1.3,2.9-1.7c1.2-0.5,2.4-0.8,3.7-1c1.3-0.2,2.6-0.4,3.9-0.4
			c2,0,4,0.3,5.8,1c1.6,0.6,3,1.5,4.1,2.8c1,1.2,1.5,2.8,1.5,4.4c0,1.2-0.3,2.5-0.8,3.6c-0.6,1.1-1.3,2.2-2.1,3.1
			c-0.9,1-1.9,1.9-2.9,2.7c-1,0.8-2,1.5-3.1,2.2l-2.7,1.7h7.6c0.7,0,1.5-0.1,2.2-0.5c0.7-0.3,1.3-0.8,1.8-1.4
			c0.6-0.7,1.1-1.5,1.5-2.4h0.4l-2.7,11.2h-20.8v-0.4c1.1-1.4,2.3-2.8,3.5-4.2c1.2-1.4,2.4-2.8,3.5-4.2c1.1-1.3,2.1-2.7,3.1-4.2
			c0.9-1.3,1.6-2.7,2.2-4.1c0.5-1.3,0.8-2.6,0.8-4c0.1-1.5-0.4-2.9-1.4-4.1c-1-1-2.4-1.5-3.8-1.3c-1.6,0.1-3,0.9-3.8,2.3
			c-1,1.8-1.4,3.9-1.3,6L219.8,237.8z"/>
		<path class="st1" d="M246.9,257.5l-0.2-0.3c2.4-0.7,4.6-1.7,6.7-3c1.5-0.9,2.7-2.2,3.5-3.7c0.8-1.5,1.3-3.1,1.4-4.7
			c0.2-2,0.3-4,0.3-5.9c0-2.2,0-4.1-0.2-5.5c0-1.1-0.3-2.3-0.8-3.3c-0.4-0.7-1.2-1.2-2.1-1.1c-0.9,0-1.7,0.3-2.2,1
			c-0.5,0.8-0.9,1.6-1,2.5c-0.2,1.1-0.3,2.3-0.3,3.4c0,1.2,0.1,2.4,0.3,3.6c0.1,0.7,0.4,1.3,0.7,1.9c0.6,0.9,1.7,1.3,2.7,1
			c0.5-0.1,0.9-0.3,1.3-0.6l0.3,0.3c-0.4,0.8-1,1.5-1.8,2c-0.8,0.5-1.8,0.9-2.8,1c-1.1,0.2-2.1,0.1-3.2-0.1
			c-2.3-0.5-4.2-2.1-5.1-4.3c-0.6-1.4-0.8-2.9-0.7-4.4c0-1.7,0.5-3.4,1.3-4.9c0.9-1.5,2.2-2.6,3.8-3.4c2-1,4.3-1.4,6.5-1.4
			c3.9-0.1,6.9,1,9,3.1s3.1,5.5,3.1,10.1c0,2.6-0.4,5.2-1.3,7.7c-0.8,2.2-2.1,4.1-3.9,5.6c-1.9,1.6-4.1,2.7-6.5,3.2
			C253,257.9,249.9,258,246.9,257.5z"/>
		<path class="st1" d="M270.8,256v-0.4h0.8c0.6,0,1.2-0.2,1.6-0.6c0.4-0.4,0.7-0.9,0.6-1.5v-20.2c0.1-0.8-0.2-1.6-0.7-2.2
			c-0.5-0.4-1.2-0.6-1.9-0.6h-0.7V230c0.6,0,1.3-0.1,2.3-0.2s2-0.3,3.1-0.5c1.1-0.2,2.1-0.4,3.2-0.8c0.9-0.3,1.8-0.6,2.6-1.1h0.4v26
			c0,0.6,0.2,1.1,0.7,1.5c0.4,0.4,1,0.6,1.5,0.6h0.8v0.4L270.8,256z"/>
		<polygon class="st5" points="264.1,214.3 266.9,190 221.4,190 218.7,214.3 		"/>
		<g class="st4">
			<path class="st0" d="M235.8,204.4c-0.2,0.8-0.6,1.4-1,1.9c-0.9,0.9-2.2,1.5-4,1.7c-0.1,0-0.1-0.1,0-0.1c1.3-0.4,2.2-0.9,2.9-1.7
				c0.5-0.5,0.8-1.1,1-1.8h-2.6c-0.3,0-0.6,0-0.9,0.1L231,204c0.4,0.1,0.7,0.1,1,0.1h2.7c0.1-0.4,0.2-0.9,0.2-1.4
				c1.2,0.1,1.4,0.2,1.4,0.4c0,0.1-0.1,0.2-0.4,0.3c0,0.2-0.1,0.5-0.1,0.7h2.9c0.4-0.4,0.5-0.5,0.6-0.5c0.1,0,0.2,0.1,0.6,0.4
				c0.2,0.2,0.3,0.2,0.3,0.3c0,0.1,0,0.1-0.3,0.3c-0.3,1.6-0.4,2.3-0.7,2.6c-0.1,0.2-0.4,0.4-0.6,0.5c-0.2,0.1-0.5,0.1-0.8,0.1
				c-0.2,0-0.3-0.1-0.3-0.2c-0.1-0.4-0.3-0.6-1.3-0.9c-0.1,0,0-0.2,0-0.2c0.9,0.1,1.4,0.1,1.6,0.1c0.3,0,0.5-0.1,0.7-0.4
				c0.1-0.3,0.3-1,0.4-2L235.8,204.4L235.8,204.4z M233,202.7c0,0.3-0.2,0.4-0.6,0.4c-0.3,0-0.5-0.1-0.5-0.4c0-0.4,0-0.9,0-2.7
				c0-0.7,0-1.4-0.1-2.1c0.6,0.2,0.7,0.3,1.2,0.6h5.3c0.4-0.4,0.5-0.5,0.6-0.5c0.1,0,0.2,0.1,0.6,0.4c0.2,0.1,0.3,0.2,0.3,0.3
				c0,0.1,0,0.2-0.3,0.4v0.6c0,1.5,0.1,2.6,0.1,3c0,0.4-0.2,0.5-0.6,0.5c-0.3,0-0.5-0.1-0.5-0.4v-0.3H233V202.7z M235.1,200.3v-1.6
				H233v1.6H235.1z M233,202.2h2.2v-1.6H233V202.2z M238.5,198.7h-2.3v1.6h2.3V198.7z M238.5,200.5h-2.3v1.6h2.3V200.5z"/>
			<path class="st0" d="M245.3,201.3c0,0.7-0.3,1.3-0.8,1.3c-0.3,0-0.5-0.2-0.5-0.6c0-0.3,0.1-0.4,0.3-0.6c0.5-0.3,0.7-0.6,0.7-1.4
				c0-0.1,0.1-0.1,0.1,0C245.2,200.5,245.3,200.9,245.3,201.3z M246.6,199.9c0,4.1,0,6.9,0,7.8c0,0.3-0.2,0.5-0.6,0.5
				c-0.4,0-0.5-0.1-0.5-0.4c0-0.9,0.1-3.4,0.1-8.6c0-0.8,0-1-0.1-1.4c1.4,0.2,1.4,0.2,1.4,0.3c0,0.1-0.1,0.2-0.4,0.3V199.9z
				 M247.4,201.6c-0.3,0-0.4-0.1-0.4-0.7c0-0.4-0.1-0.9-0.3-1.1c0,0,0-0.1,0.1-0.1c0.7,0.4,1,0.8,1,1.3
				C247.8,201.4,247.6,201.6,247.4,201.6z M251.4,203.9h0.8c0.5-0.7,0.7-0.8,0.8-0.8c0.1,0,0.2,0.1,0.8,0.6c0.3,0.2,0.3,0.3,0.3,0.4
				c0,0.1,0,0.1-0.1,0.1h-2.5v3.2h1.3c0.6-0.7,0.7-0.8,0.8-0.8c0.1,0,0.2,0.1,0.8,0.6c0.3,0.2,0.4,0.3,0.4,0.4s0,0.1-0.1,0.1h-6.3
				c-0.3,0-0.6,0-1,0.1l-0.1-0.4c0.4,0.1,0.7,0.1,1,0.1h2.1v-3.2h-1.4c-0.2,0-0.4,0-0.7,0.1l-0.1-0.4c0.3,0.1,0.6,0.1,0.8,0.1h1.4
				v-2.6h-1.4c-0.4,0.9-1,1.6-1.7,2.2c0,0-0.1-0.1-0.1-0.1c0.5-0.9,0.9-1.9,1.1-2.9c0.1-0.5,0.2-1.1,0.2-1.6
				c1.4,0.4,1.4,0.4,1.4,0.5c0,0.1,0,0.1-0.4,0.3c-0.1,0.5-0.3,0.9-0.5,1.3h1.2v-1.6c0-0.7,0-1.2-0.1-1.6c1.5,0.1,1.6,0.3,1.6,0.4
				c0,0.1-0.1,0.2-0.4,0.3v2.5h1.2c0.5-0.7,0.6-0.8,0.7-0.8c0.1,0,0.2,0.1,0.7,0.5c0.2,0.2,0.3,0.3,0.3,0.4c0,0.1,0,0.1-0.1,0.1
				h-2.8V203.9z"/>
		</g>
		<path class="st5" d="M307.9,209.8c-0.1-0.6-0.4-1.1-0.7-1.7c-0.5-0.8-1.1-1.5-1.9-2.1c-0.6-0.4-1.1-0.7-1.8-1
			c-0.9-0.4-1.8-0.8-2.7-1.1c-0.8-0.3-1.5-0.6-2.2-1c-0.2-0.1-0.4-0.3-0.6-0.4c-0.2-0.2-0.4-0.4-0.6-0.7c-0.2-0.3-0.2-0.6-0.3-0.9
			c0-0.3,0-0.5,0-0.7c0-0.6,0.1-1.3,0.2-1.9c0.4-0.5,0.8-1,1.1-1.6c0.4-0.7,0.7-1.4,1-2.2c0.2-0.1,0.4-0.2,0.6-0.3
			c0.5-0.3,0.9-0.8,1.2-1.3c0.4-0.7,0.7-1.4,0.8-2.1c0.1-0.2,0.1-0.5,0.1-0.7c0-0.5-0.1-0.9-0.3-1.4c-0.1-0.3-0.3-0.5-0.5-0.8
			c0.1-0.4,0.2-0.9,0.3-1.5c0.2-0.9,0.3-1.9,0.3-2.8c0-0.7-0.1-1.3-0.2-2c-0.1-0.5-0.3-1-0.5-1.5c-0.3-0.8-0.8-1.4-1.4-2
			c-0.7-0.6-1.4-1-2.2-1.2c-0.4-0.4-0.7-0.8-1.2-1.2c-0.6-0.5-1.4-0.9-2.1-1.1c-0.7-0.2-1.5-0.3-2.2-0.3c-0.4,0-0.8,0-1.2,0
			s-0.7,0.1-0.9,0.1c-0.4,0.1-0.7,0.2-1.1,0.3c-0.3,0.1-0.6,0.2-1,0.4c-0.1,0.1-0.4,0.1-0.6,0.3c-0.6,0.3-1.1,0.6-1.6,1
			c-1.1,0.8-2,1.8-2.6,2.9c-0.4,0.7-0.7,1.4-0.9,2.2c-0.2,0.9-0.4,1.8-0.4,2.7c0,0.6,0.1,1.3,0.2,1.9v0.1c0,0.1,0,0.2,0,0.3
			c0,0.1,0,0.3,0,0.4s0,0.1,0,0.1l0,0l0,0v0.1l0.2,0.7c-0.2,0.3-0.4,0.5-0.6,0.9c-0.2,0.5-0.3,1-0.4,1.5c0,0.2,0,0.5,0.1,0.7
			c0.1,0.5,0.3,1,0.5,1.5c0.3,0.6,0.7,1.1,1.1,1.6c0.3,0.3,0.6,0.5,1,0.7c0.3,0.8,0.6,1.5,1,2.2c0.3,0.6,0.6,1.1,1.1,1.6
			c0.1,0.6,0.2,1.2,0.2,1.9c0,0.2,0,0.5,0,0.7c0,0.2-0.1,0.4-0.2,0.6c-0.1,0.3-0.3,0.6-0.5,0.8c-0.3,0.3-0.6,0.5-0.9,0.6
			c-0.4,0.2-0.8,0.4-1.2,0.6c-0.8,0.3-1.7,0.6-2.6,1c-0.7,0.3-1.4,0.6-2,1c-0.5,0.3-1,0.6-1.4,1c-0.7,0.6-1.2,1.4-1.6,2.3
			c-0.4,1.1-0.6,2.2-0.6,3.3c0,0.2,0,0.3,0.1,0.5c0.1,0.1,0.1,0.3,0.2,0.4c0.2,0.3,0.4,0.5,0.7,0.7c0.6,0.4,1.3,0.8,2,1
			c1.7,0.6,3.5,1,5.2,1.2c2.7,0.4,5.5,0.5,8.2,0.5c2.4,0,4.9-0.1,7.3-0.4c1.3-0.1,2.7-0.4,4-0.7c0.7-0.2,1.5-0.4,2.2-0.7
			c0.4-0.2,0.8-0.3,1.2-0.6c0.2-0.1,0.5-0.3,0.7-0.4c0.3-0.2,0.5-0.4,0.8-0.7c0.1-0.1,0.2-0.3,0.2-0.4c0.1-0.2,0.1-0.3,0.1-0.5
			C308.2,211.3,308.1,210.5,307.9,209.8z M290.2,210.4l-4.9-6.2c0.2-0.1,0.5-0.3,0.7-0.5c0.2-0.2,0.5-0.4,0.7-0.7l3.5,1.6l-0.8,1.2
			l1.2,1.2L290.2,210.4z M287.2,202.2c0.1-0.3,0.2-0.7,0.3-1.1c0-0.3,0-0.6,0-0.9c0-0.8-0.1-1.6-0.3-2.4v-0.2l-0.1-0.1
			c-0.4-0.4-0.7-0.9-1-1.4c-0.4-0.7-0.7-1.5-1-2.3l-0.1-0.3l-0.3-0.1c-0.2-0.1-0.4-0.2-0.6-0.3c-0.3-0.2-0.6-0.5-0.8-0.9
			c-0.3-0.5-0.5-1.1-0.7-1.7c0-0.1,0-0.3,0-0.4c0-0.3,0.1-0.6,0.2-0.9c0.1-0.2,0.3-0.4,0.5-0.6c0.2,0.3,0.4,0.7,0.7,0.9
			c0.3,0.3,0.2,0.2,0.3,0.1c0,0,0.4-0.5,2.2-4.1c3.7,0.8,10.2-4.8,10.2-4.8c0.1,1.2,0.6,2.4,1.3,3.4c1.2,1.6,1.9,5.2,1.9,5.2
			s0.2-0.3,0.4-0.7c0.1,0.2,0.3,0.3,0.3,0.5c0.1,0.2,0.2,0.5,0.2,0.8c0,0.1,0,0.3,0,0.4c-0.1,0.4-0.2,0.8-0.4,1.2
			c-0.2,0.4-0.5,0.8-0.8,1.1c-0.3,0.2-0.6,0.4-0.9,0.5l-0.3,0.1l-0.1,0.3c-0.3,0.8-0.6,1.5-1,2.3c-0.3,0.5-0.6,1-1,1.4l-0.1,0.1
			l0,0.2c-0.2,0.8-0.3,1.6-0.3,2.3c0,0.3,0,0.6,0,0.9c0,0.3,0.1,0.7,0.2,1c0,0,0,0,0,0.1l-4.2,2.2L287.2,202.2z M293.4,210.6
			l-0.5-3.4l1.2-1.2l-0.8-1.3l3.2-1.7c0.1,0.1,0.2,0.2,0.3,0.3c0.3,0.3,0.7,0.6,1.1,0.8L293.4,210.6z"/>
		<g class="st4">
			<path class="st5" d="M294.4,354.8c-0.1,0-0.2-0.1-0.1-0.2c3.8-2.7,5.3-5.7,5.3-10.8c0-0.4,0-0.7-0.1-1.2c1.8,0.2,2,0.2,2,0.5
				c0,0.1-0.1,0.2-0.5,0.4c0,0.4,0,0.9-0.1,1.3c0.2,1.8,0.7,3.4,1.6,4.8c1.1,1.7,2.6,2.9,4.6,3.7c0.1,0,0.1,0.2,0,0.2
				c-0.5,0.1-0.7,0.4-0.9,1c-0.1,0.2-0.1,0.3-0.3,0.3s-0.4-0.2-0.7-0.4c-1.5-1.2-2.8-2.7-3.5-4.5c-0.4-1.1-0.7-2.3-0.9-3.8
				C300.4,350.5,298.6,352.9,294.4,354.8z"/>
		</g>
		<path class="st1" d="M220.6,354.7v-0.4h0.8c0.6,0,1.1-0.2,1.6-0.6c0.4-0.4,0.6-0.9,0.6-1.5v-20.3c0.1-0.8-0.2-1.6-0.7-2.2
			c-0.5-0.4-1.2-0.6-1.9-0.6h-0.7v-0.4c0.6,0,1.3-0.1,2.3-0.2s2-0.3,3.1-0.5c1.1-0.2,2.1-0.5,3.2-0.8c0.9-0.3,1.8-0.6,2.6-1.1h0.4
			v26c0,0.6,0.2,1.1,0.7,1.5c0.4,0.4,1,0.6,1.5,0.6h0.8v0.4L220.6,354.7z"/>
		<path class="st1" d="M249.9,326.2c2.4-0.1,4.7,0.6,6.7,1.8c1.9,1.2,3.3,3,4.2,5.1c2,4.9,2,10.4,0,15.3c-2.7,6-9.7,8.8-15.7,6.1
			c-2.7-1.2-4.9-3.4-6.1-6.1c-2-4.9-2-10.4,0-15.3c0.9-2.1,2.4-3.8,4.3-5.1C245.2,326.7,247.6,326.1,249.9,326.2z M249.9,328.2
			c-1.4,0-2.4,1-3,3.1c-1.3,6.3-1.3,12.7,0,19c0.7,2,1.7,3.1,3,3.1c1.3,0,2.3-1,3-3.1c1.3-6.3,1.3-12.7,0-19
			C252.3,329.2,251.3,328.2,249.9,328.2z"/>
		<path class="st1" d="M282.8,333.5l-12.3,1l-0.8,3.3c2.2-0.6,4.5-0.8,6.8-0.6c1.8,0.2,3.5,0.7,5,1.7c1.3,0.8,2.3,2,3,3.4
			c0.7,1.5,0.9,3,0.8,4.6c0,1.8-0.6,3.6-1.6,5.1c-1,1.4-2.4,2.6-3.9,3.5c-1.6,0.9-3.4,1.5-5.2,1.8c-1.8,0.3-3.7,0.4-5.5,0.1
			c-1.7-0.2-3.4-0.7-5-1.5l0.1-0.4c0.9,0,1.7-0.1,2.6-0.2c1.1-0.2,2.1-0.4,3.2-0.8c1.1-0.4,2.2-0.9,3.1-1.5c0.9-0.6,1.8-1.4,2.4-2.3
			c0.7-0.9,1-2,1.1-3.1c0.2-1.3-0.3-2.7-1.2-3.6c-1.1-0.9-2.4-1.4-3.8-1.4c-1.9,0-3.7,0.3-5.5,1.1l-0.4-0.2l3.2-15.4l11.9-1
			c0.7,0,1.4-0.2,2-0.6c0.5-0.4,0.9-0.9,1.2-1.4h0.4L282.8,333.5z"/>
		<polygon class="st1" points="264.1,313 266.9,288.7 221.4,288.7 218.7,313 		"/>
		<path class="st5" d="M306.9,306.2c-1-1.4-2.4-2.5-4.1-3c-0.7-0.3-1.5-0.5-2.1-0.6s-1.2-0.3-1.6-0.5c-0.6-0.2-1.2-0.5-1.8-0.9
			c-0.2-0.1-0.4-0.3-0.5-0.5c-0.1-0.1-0.1-0.2-0.1-0.3V298c1.2-1.3,2.1-2.9,2.5-4.6c0.2-0.1,0.3-0.2,0.5-0.3c0.4-0.3,0.8-0.8,1-1.2
			c0.4-0.7,0.6-1.5,0.8-2.2c0.1-0.4,0.2-0.9,0.2-1.3c0-0.4-0.1-0.8-0.3-1.1c-0.2-0.4-0.5-0.6-0.9-0.8c1.4-7.3-2.9-12.9-8.6-12.6
			c-5.2-1.2-8.5-0.9-9,3.8c-0.4,1.2-0.4,2.6,0.1,3.8c-0.3,0.9-0.4,1.9-0.4,2.9v2.2c-0.5,0.1-0.9,0.5-1.1,0.9
			c-0.2,0.3-0.3,0.7-0.3,1.1c0,0.4,0.1,0.9,0.2,1.3c0.2,1,0.6,1.9,1.1,2.8c0.2,0.3,0.4,0.5,0.7,0.7c0.2,0.1,0.3,0.2,0.5,0.3
			c0.4,1.7,1.3,3.3,2.5,4.6v2.4c0,0.1-0.1,0.2-0.1,0.3c-0.3,0.3-0.6,0.6-1,0.8c-0.4,0.2-0.9,0.4-1.4,0.6c-0.5,0.2-1.3,0.4-2.2,0.6
			c-1.6,0.4-3,1.1-4.3,2.1c-0.7,0.6-1.3,1.3-1.6,2.2c-0.4,1-0.7,2.1-0.6,3.2c0,0.3,0,0.6,0,0.9c0,0.2,0.1,0.4,0.2,0.5
			c0.2,0.3,0.4,0.5,0.7,0.7c0.7,0.4,1.4,0.8,2.2,1c4.3,1.4,8.8,2,13.2,1.9c3.9,0,7.7-0.4,11.5-1.4c1.2-0.3,2.3-0.7,3.4-1.2
			c0.4-0.2,0.7-0.4,1-0.6c0.1-0.1,0.2-0.2,0.3-0.4c0.1-0.2,0.2-0.3,0.2-0.5c0-0.3,0-0.6,0-0.9C307.9,308.8,307.6,307.4,306.9,306.2z
			 M286.6,302.3c0.3-0.2,0.6-0.5,0.9-0.8c0.3-0.3,0.4-0.7,0.4-1.1v-2.9l-0.2-0.2c-1.3-1.2-2.1-2.8-2.5-4.5l-0.1-0.4l-0.4-0.1
			c-0.2-0.1-0.4-0.2-0.5-0.3c-0.3-0.2-0.5-0.5-0.6-0.8c-0.3-0.6-0.6-1.3-0.7-2c-0.1-0.3-0.2-0.7-0.2-1c0-0.2,0-0.4,0.1-0.5
			c0.1-0.1,0.2-0.2,0.3-0.3c0.1,0,0.2,0,0.3,0h0.7v-3.3c0-0.4,0-0.7,0.1-1.1c1.5,2.1,4.3,4.1,9,4.9c-0.7-2-1.3-4.1-1.7-6.2
			c0,0,3.1,4.6,7.9,5v0.7h0.7c0.1,0,0.3,0,0.4,0.1c0.1,0,0.2,0.1,0.2,0.2c0.1,0.2,0.1,0.3,0.1,0.5c0,0.3-0.1,0.7-0.2,1
			c-0.2,0.8-0.5,1.6-1,2.4c-0.1,0.2-0.3,0.3-0.4,0.4c-0.2,0.1-0.4,0.2-0.5,0.3l-0.4,0.1l-0.1,0.4c-0.3,1.7-1.2,3.3-2.5,4.5l-0.2,0.2
			v2.9c0,0.4,0.1,0.8,0.4,1.1c0.4,0.4,0.8,0.8,1.3,1.1c0.2,0.1,0.5,0.3,0.8,0.4l-2.5,2.5c-1.2,0.6-2.4,0.9-3.8,0.9
			c-1.3,0-2.6-0.3-3.7-0.9l-2.5-2.5C285.8,302.8,286.2,302.6,286.6,302.3z"/>
		<path class="st5" d="M283,292.8c0,0,0.7,8.1-2.3,10.6c0,0,8.9-1.1,6.2-5.6l-2.6-5l-1.5-1.1L283,292.8z"/>
		<path class="st5" d="M300.2,292.8c0,0-0.7,8.1,2.3,10.6c0,0-8.9-1.1-6.2-5.6l2.6-5l1.5-1.1L300.2,292.8z"/>
		<g class="st4">
			<path class="st0" d="M238.5,299.8c-0.3,1.4-0.8,2.7-1.7,3.9c1.9,0.8,3,1.6,3,2.3c0,0.5-0.2,0.7-0.5,0.7c-0.2,0-0.4-0.1-0.6-0.4
				c-0.8-0.8-1.6-1.5-2.4-2c-1.3,1.3-3.2,2.1-5.7,2.4c-0.1,0-0.1-0.2,0-0.2c2.1-0.6,3.7-1.4,4.9-2.7c-0.6-0.4-1.3-0.7-1.9-1
				c-0.1,0.2-0.2,0.3-0.3,0.5c-0.2,0.2-0.3,0.3-0.5,0.3c-0.4,0-0.7-0.1-0.7-0.3c0-0.1,0.1-0.2,0.2-0.4c0.5-0.7,1-1.9,1.5-3h-1.9
				c-0.3,0-0.7,0-1.1,0.1l-0.1-0.4c0.5,0.1,0.8,0.1,1.2,0.1h2c0.1-0.2,0.2-0.4,0.2-0.6c0.3-1,0.6-1.9,0.6-2.5
				c1.4,0.3,1.5,0.3,1.5,0.5c0,0.1-0.1,0.2-0.4,0.3c-0.2,0.8-0.5,1.6-0.8,2.3h4.1c0.6-0.7,0.7-0.8,0.8-0.8c0.1,0,0.2,0.1,0.8,0.6
				c0.3,0.2,0.3,0.3,0.3,0.4s0,0.1-0.1,0.1H238.5z M234.8,299.8c-0.3,0.9-0.8,1.9-1.2,2.8c0.9,0.3,1.6,0.4,2.2,0.7
				c0.8-1,1.2-2.2,1.5-3.5H234.8z"/>
			<path class="st0" d="M245.3,300c0,0.7-0.3,1.3-0.8,1.3c-0.3,0-0.5-0.2-0.5-0.6c0-0.3,0.1-0.4,0.3-0.6c0.5-0.3,0.7-0.6,0.7-1.4
				c0-0.1,0.1-0.1,0.1,0C245.2,299.2,245.3,299.6,245.3,300z M246.6,298.6c0,4.1,0,6.9,0,7.8c0,0.3-0.2,0.5-0.6,0.5
				c-0.4,0-0.5-0.1-0.5-0.4c0-0.9,0.1-3.4,0.1-8.6c0-0.8,0-1-0.1-1.4c1.4,0.2,1.4,0.2,1.4,0.3c0,0.1-0.1,0.2-0.4,0.3V298.6z
				 M247.4,300.3c-0.3,0-0.4-0.1-0.4-0.7c0-0.4-0.1-0.9-0.3-1.1c0,0,0-0.1,0.1-0.1c0.7,0.4,1,0.8,1,1.3
				C247.8,300.1,247.6,300.3,247.4,300.3z M251.4,302.6h0.8c0.5-0.7,0.7-0.8,0.8-0.8c0.1,0,0.2,0.1,0.8,0.6c0.3,0.2,0.3,0.3,0.3,0.4
				c0,0.1,0,0.1-0.1,0.1h-2.5v3.2h1.3c0.6-0.7,0.7-0.8,0.8-0.8c0.1,0,0.2,0.1,0.8,0.6c0.3,0.2,0.4,0.3,0.4,0.4s0,0.1-0.1,0.1h-6.3
				c-0.3,0-0.6,0-1,0.1l-0.1-0.4c0.4,0.1,0.7,0.1,1,0.1h2.1v-3.2h-1.4c-0.2,0-0.4,0-0.7,0.1l-0.1-0.4c0.3,0.1,0.6,0.1,0.8,0.1h1.4
				v-2.6h-1.4c-0.4,0.9-1,1.6-1.7,2.2c0,0-0.1-0.1-0.1-0.1c0.5-0.9,0.9-1.9,1.1-2.9c0.1-0.5,0.2-1.1,0.2-1.6
				c1.4,0.4,1.4,0.4,1.4,0.5c0,0.1,0,0.1-0.4,0.3c-0.1,0.5-0.3,0.9-0.5,1.3h1.2v-1.6c0-0.7,0-1.2-0.1-1.6c1.5,0.1,1.6,0.3,1.6,0.4
				c0,0.1-0.1,0.2-0.4,0.3v2.5h1.2c0.5-0.7,0.6-0.8,0.7-0.8c0.1,0,0.2,0.1,0.7,0.5c0.2,0.2,0.3,0.3,0.3,0.4c0,0.1,0,0.1-0.1,0.1
				h-2.8V302.6z"/>
		</g>
		<g class="st4">
			<path class="st5" d="M118.7,157.5c-0.4,1.7-1,3.4-2.1,4.7c2.3,1,3.6,2,3.6,2.8c0,0.6-0.2,0.9-0.6,0.9c-0.3,0-0.4-0.1-0.8-0.4
				c-1-1-1.9-1.8-2.9-2.5c-1.7,1.6-3.9,2.6-7,2.9c-0.1,0-0.1-0.2,0-0.2c2.5-0.7,4.6-1.8,6-3.4c-0.8-0.4-1.5-0.8-2.4-1.2
				c-0.1,0.2-0.2,0.4-0.4,0.6c-0.2,0.3-0.3,0.4-0.6,0.4c-0.5,0-0.9-0.2-0.9-0.4c0-0.1,0.1-0.3,0.2-0.5c0.6-0.9,1.3-2.4,1.8-3.7h-2.3
				c-0.4,0-0.8,0-1.3,0.1l-0.2-0.5c0.6,0.1,1,0.1,1.5,0.1h2.5c0.1-0.3,0.2-0.5,0.3-0.8c0.4-1.2,0.7-2.3,0.8-3
				c1.7,0.3,1.8,0.4,1.8,0.6c0,0.2-0.1,0.3-0.5,0.4c-0.3,1-0.6,1.9-0.9,2.8h5.1c0.7-0.9,0.9-1,1-1c0.1,0,0.3,0.1,1,0.7
				c0.3,0.3,0.4,0.4,0.4,0.5c0,0.1,0,0.1-0.2,0.1H118.7z M114.1,157.5c-0.4,1.2-0.9,2.3-1.5,3.4c1.2,0.3,1.9,0.5,2.7,0.8
				c0.9-1.3,1.5-2.7,1.9-4.2H114.1z"/>
			<path class="st5" d="M127,157.7c0,0.9-0.3,1.7-1,1.7c-0.4,0-0.6-0.3-0.6-0.7c0-0.3,0.1-0.5,0.4-0.7c0.6-0.4,0.8-0.7,0.9-1.7
				c0-0.1,0.1-0.1,0.1,0C126.9,156.7,127,157.2,127,157.7z M128.7,156c0,5,0,8.5,0,9.6c0,0.4-0.2,0.6-0.8,0.6
				c-0.4,0-0.6-0.1-0.6-0.5c0-1.1,0.1-4.2,0.1-10.6c0-1,0-1.2-0.1-1.8c1.8,0.2,1.8,0.2,1.8,0.4c0,0.1-0.1,0.2-0.4,0.4V156z
				 M129.6,158.1c-0.4,0-0.4-0.2-0.4-0.8c0-0.5-0.1-1.1-0.4-1.4c0-0.1,0-0.1,0.1-0.1c0.9,0.5,1.3,1,1.3,1.7
				C130.1,157.8,129.9,158.1,129.6,158.1z M134.6,160.9h1c0.7-0.9,0.8-1,0.9-1c0.1,0,0.3,0.1,1,0.7c0.3,0.3,0.4,0.4,0.4,0.5
				c0,0.1,0,0.1-0.2,0.1h-3.1v3.9h1.6c0.7-0.9,0.9-1,1-1c0.1,0,0.3,0.1,1,0.7c0.3,0.3,0.4,0.4,0.4,0.5c0,0.1,0,0.1-0.2,0.1h-7.8
				c-0.4,0-0.7,0-1.2,0.1l-0.2-0.5c0.5,0.1,0.9,0.1,1.2,0.1h2.6v-3.9h-1.7c-0.3,0-0.5,0-0.9,0.1l-0.2-0.5c0.4,0.1,0.7,0.1,1,0.1h1.7
				v-3.2h-1.7c-0.5,1.1-1.2,1.9-2.1,2.7c-0.1,0-0.2-0.1-0.1-0.1c0.6-1.1,1.1-2.3,1.4-3.6c0.2-0.7,0.3-1.3,0.3-2
				c1.8,0.5,1.8,0.5,1.8,0.7c0,0.2,0,0.2-0.5,0.3c-0.2,0.6-0.4,1.1-0.6,1.6h1.5v-1.9c0-0.9,0-1.5-0.1-2c1.8,0.2,2,0.3,2,0.5
				c0,0.1-0.2,0.3-0.5,0.4v3h1.4c0.6-0.9,0.8-1,0.9-1c0.1,0,0.3,0.1,0.9,0.7c0.3,0.3,0.4,0.4,0.4,0.5c0,0.1,0,0.1-0.2,0.1h-3.5
				V160.9z"/>
			<path class="st5" d="M143.9,160.1c-0.5,0.4-1.1,0.8-1.6,1.1c-0.1,0-0.1-0.1-0.1-0.2c0.9-1,1.7-2,2.3-3.1c0.3-0.6,0.6-1.1,0.7-1.6
				c1.4,0.7,1.5,0.7,1.5,0.9c0,0.2-0.1,0.2-0.5,0.3c-0.3,0.5-0.7,1.1-1.2,1.6c0.5,0.1,0.6,0.1,0.6,0.3c0,0.1-0.1,0.2-0.4,0.3v5.8
				c0,0.4-0.2,0.6-0.7,0.6c-0.3,0-0.6-0.1-0.6-0.5c0-0.4,0.1-1.5,0.1-3.7V160.1z M145.9,154.4c-1.2,1.5-2.1,2.2-3.5,2.9
				c-0.1,0-0.2-0.1-0.1-0.1c0.7-0.7,1.4-1.6,1.9-2.5c0.3-0.5,0.5-1,0.6-1.5c1.1,0.4,1.7,0.7,1.7,0.9
				C146.5,154.3,146.4,154.4,145.9,154.4z M151.1,164.4c0.5,0.1,1.1,0.2,1.7,0.2c0.7,0,1.3,0,2.5-0.2c0.1,0,0.1,0.1,0,0.2
				c-0.4,0.2-0.5,0.4-0.6,0.9c-0.1,0.3-0.1,0.4-0.2,0.4c-0.2,0-0.3,0-0.4,0c-2,0-3.1-0.2-4.2-0.8c-0.9-0.5-1.4-1.2-2-2.6
				c-0.5,1.4-1.3,2.4-2.5,3.4c-0.1,0-0.2-0.1-0.1-0.2c1.2-1.6,1.9-3.7,1.9-6.2c0-0.2,0-0.4,0-0.7c1.4,0.2,1.7,0.3,1.7,0.5
				c0,0.1-0.1,0.2-0.4,0.3c-0.1,0.9-0.2,1.7-0.4,2.4c0.6,1.1,1.2,1.6,1.8,1.9v-6.8h-2.2c-0.3,0-0.5,0-0.8,0.1l-0.2-0.5
				c0.4,0.1,0.7,0.1,0.9,0.1h3.1c0.4-0.8,0.7-1.6,1-2.5c0.1-0.3,0.2-0.7,0.2-1c1.4,0.5,1.8,0.7,1.8,0.9s-0.1,0.2-0.5,0.2
				c-0.6,0.9-1.3,1.8-1.9,2.3h1.7c0.6-0.8,0.8-0.9,0.9-0.9c0.1,0,0.3,0.1,0.9,0.6c0.3,0.2,0.4,0.4,0.4,0.4c0,0.1,0,0.1-0.2,0.1h-3.8
				v3.1h1.3c0.6-0.7,0.8-0.9,0.9-0.9c0.1,0,0.3,0.1,0.9,0.6c0.3,0.2,0.4,0.3,0.4,0.4s0,0.1-0.2,0.1h-3.2V164.4z M149,156.4
				c-0.4,0-0.4-0.1-0.6-1.1c-0.2-0.6-0.4-1.2-0.7-1.6c0-0.1,0-0.2,0.1-0.1c1.4,0.5,2.1,1.2,2.1,1.9C149.8,156,149.5,156.4,149,156.4
				z"/>
			<path class="st5" d="M166.2,162c0.6,0.6,1.4,1,2.3,1.4c1.1,0.5,2.3,0.7,3.7,0.8c0.1,0,0.1,0.1,0,0.2c-0.5,0.2-0.6,0.3-1,1.2
				c-0.1,0.1-0.1,0.2-0.2,0.2c-0.1,0-0.4-0.1-0.7-0.2c-0.9-0.3-1.7-0.8-2.5-1.4c-0.7-0.5-1.2-1.1-1.8-1.8c0,1.8,0.1,3.1,0.1,3.5
				c0,0.4-0.2,0.5-0.8,0.5c-0.4,0-0.5-0.2-0.5-0.5c0-0.3,0.1-1.7,0.1-2.9c-1.2,1.3-3.1,2.3-5.5,2.8c-0.1,0-0.1-0.1-0.1-0.1
				c2.1-1,3.6-2.1,4.7-3.6h-3.3c-0.3,0-0.6,0-1,0.1l-0.2-0.5c0.4,0.1,0.8,0.1,1.1,0.1h4.3v-1.3H162c-0.3,0-0.6,0-1,0.1l-0.2-0.5
				c0.4,0.1,0.8,0.1,1.1,0.1h2.8v-1.3h-3.5c-0.3,0-0.6,0-1,0.1l-0.2-0.5c0.4,0.1,0.8,0.1,1.1,0.1h2.3c-0.2-0.1-0.3-0.2-0.4-0.6
				c-0.1-0.4-0.4-0.9-0.7-1.2c-0.1,0,0-0.1,0.1-0.1c1.3,0.2,1.9,0.6,1.9,1.3c0,0.3-0.2,0.6-0.5,0.7h2.3c0.3-0.5,0.4-0.9,0.6-1.2
				c0.1-0.3,0.2-0.6,0.3-0.9c1.1,0.4,1.6,0.7,1.6,0.8s-0.1,0.2-0.6,0.2c-0.5,0.5-1,0.8-1.4,1h2.3c0.7-0.7,0.8-0.8,0.9-0.8
				c0.1,0,0.3,0.1,0.9,0.6c0.3,0.2,0.4,0.3,0.4,0.4c0,0.1,0,0.1-0.2,0.1h-5v1.3h2.2c0.6-0.7,0.8-0.8,0.9-0.8c0.1,0,0.3,0.1,0.8,0.5
				c0.2,0.2,0.3,0.3,0.3,0.4c0,0.1,0,0.1-0.2,0.1h-4v1.3h3.5c0.7-0.8,0.9-0.9,1-0.9c0.1,0,0.3,0.1,0.9,0.6c0.3,0.2,0.4,0.4,0.4,0.5
				c0,0.1,0,0.1-0.2,0.1H166.2z M163.6,154.3c0-0.6,0-0.7-0.1-1c1.6,0.2,1.7,0.3,1.7,0.4c0,0.1-0.1,0.2-0.4,0.4v2h1.2v-1.8
				c0-0.6,0-0.7-0.1-1c1.6,0.2,1.8,0.3,1.8,0.4c0,0.1-0.1,0.2-0.5,0.4v2h0.6c0.3-0.6,0.6-1.1,0.8-1.6c0.1-0.3,0.2-0.6,0.3-0.9
				c1.2,0.5,1.7,0.7,1.7,0.9c0,0.2-0.1,0.3-0.6,0.3c-0.6,0.6-1.2,1.1-1.7,1.3h1.6c0.6-0.7,0.8-0.8,0.9-0.8c0.1,0,0.3,0.1,0.9,0.6
				c0.3,0.2,0.4,0.3,0.4,0.4c0,0.1,0,0.1-0.2,0.1h-11.3c-0.3,0-0.6,0-1,0.1l-0.2-0.5c0.5,0.1,0.8,0.1,1.1,0.1h3.1V154.3z
				 M162.1,155.8c-0.3,0-0.4-0.1-0.6-0.5c-0.2-0.6-0.4-1-0.8-1.4c-0.1,0,0-0.1,0.1-0.1c1.3,0.2,2,0.7,2,1.3
				C162.8,155.4,162.5,155.8,162.1,155.8z"/>
			<path class="st5" d="M181,164.8c-1.4,0.7-2.6,1-4.6,1.2c-0.1,0-0.1-0.1,0-0.2c1-0.4,2-0.9,2.8-1.4c0.4-0.3,0.7-0.6,1-0.9
				c1.3,0.6,1.6,0.8,1.6,1C181.7,164.7,181.5,164.8,181,164.8z M179.2,163.3c0,0.4-0.2,0.6-0.8,0.6c-0.4,0-0.6-0.1-0.6-0.5
				c0-0.6,0.1-1.3,0.1-3.6c0-0.9,0-1.9-0.1-2.8c0.7,0.3,0.8,0.4,1.5,0.7h6.3c0.5-0.5,0.6-0.6,0.7-0.6c0.1,0,0.3,0.1,0.8,0.5
				c0.3,0.2,0.3,0.3,0.3,0.4c0,0.1-0.1,0.2-0.4,0.4v0.9c0,2,0.1,3.4,0.1,3.9c0,0.4-0.2,0.6-0.8,0.6c-0.4,0-0.6-0.1-0.6-0.5v0
				L179.2,163.3L179.2,163.3z M179.9,156.6c0,0.4-0.3,0.5-0.8,0.5c-0.3,0-0.6-0.1-0.6-0.4c0-0.3,0-0.9,0-1.7c0-0.6,0-0.9,0-1.5
				c0.7,0.3,0.9,0.4,1.5,0.7h5c0.5-0.5,0.6-0.6,0.7-0.6c0.1,0,0.3,0.1,0.8,0.5c0.2,0.2,0.3,0.3,0.3,0.4c0,0.1-0.1,0.2-0.4,0.4v0.3
				c0,0.7,0,1.2,0,1.4c0,0.4-0.3,0.5-0.8,0.5c-0.4,0-0.6-0.1-0.6-0.5H179.9z M185.8,158.1h-6.6v1.4h6.6V158.1z M179.2,161.2h6.6
				v-1.4h-6.6V161.2z M179.2,162.9h6.6v-1.4h-6.6V162.9z M185.1,154.5h-5.3v1.7h5.3V154.5z M187.3,166.1c-0.3,0-0.4-0.1-0.8-0.4
				c-0.7-0.7-1.6-1.3-3-1.7c-0.1,0,0-0.2,0.1-0.2c3.1,0.1,4.3,0.6,4.3,1.6C187.9,165.8,187.7,166.1,187.3,166.1z"/>
			<path class="st5" d="M195.9,163.7c1.1-0.3,2.2-0.6,3.4-1c0.1,0,0.1,0.1,0.1,0.2c-1.4,1-2.9,1.7-5.2,2.5c-0.1,0.4-0.2,0.5-0.4,0.5
				s-0.3-0.3-0.8-1.7c0.3,0,0.6-0.1,0.9-0.1c0.2,0,0.4-0.1,0.7-0.1v-8.6c0-1,0-1.1-0.1-1.7c1.7,0.2,1.9,0.3,1.9,0.4
				c0,0.1-0.1,0.2-0.5,0.4v3.7h1.4c0.7-0.8,0.9-0.9,1-0.9c0.1,0,0.3,0.1,0.9,0.6c0.3,0.2,0.4,0.4,0.4,0.5c0,0.1,0,0.1-0.2,0.1h-3.4
				V163.7z M201.1,159.3c0.8-0.5,1.5-1.2,2.1-1.9c0.4-0.5,0.7-1,1-1.4c1.1,0.7,1.6,1,1.6,1.2c0,0.1-0.1,0.3-0.7,0.2
				c-1.2,1-2.5,1.7-3.9,2.3v4.2c0,0.6,0.1,0.6,1.7,0.6c0.7,0,0.9,0,1.2-0.2c0.4-0.2,0.6-0.8,1-2.2c0-0.1,0.2-0.1,0.2,0
				c0,0.6-0.1,1.5-0.1,1.8c0,0.2,0,0.2,0.2,0.3c0.3,0.2,0.4,0.3,0.4,0.5c0,0.4-0.3,0.7-0.9,0.8c-0.5,0.1-1.2,0.2-2.1,0.2
				c-2.5,0-3-0.2-3-1.6c0-0.3,0-0.5,0-1.6c0-2.9,0-5.9-0.1-8.8c1.5,0.2,1.8,0.2,1.8,0.4c0,0.2-0.1,0.3-0.4,0.4V159.3z"/>
			<path class="st5" d="M216.6,162.9c0,1.5,0,2.5,0,2.8c0,0.3-0.3,0.5-0.8,0.5c-0.4,0-0.6-0.1-0.6-0.5c0-0.3,0.1-1.1,0.1-2.8h-4.3
				c-0.3,0-0.6,0-1,0.1l-0.2-0.5c0.5,0.1,0.8,0.1,1.1,0.1h4.4v-0.1c0-0.7,0-1-0.1-1.6c1.6,0.2,1.8,0.2,1.8,0.4
				c0,0.1-0.1,0.2-0.5,0.4v0.8h3.5c0.7-0.9,0.9-1,1-1c0.1,0,0.3,0.1,1,0.7c0.3,0.3,0.4,0.4,0.4,0.5c0,0.1,0,0.1-0.2,0.1H216.6z
				 M211,161c0,0.4-0.1,0.6-0.3,0.6c-0.2,0-0.4-0.3-0.9-1.5c0.4-0.1,0.8-0.2,1.2-0.3c0.9-0.3,1.8-0.6,2.5-1c0.1,0,0.2,0.1,0.1,0.2
				C213.2,159.5,212.2,160.3,211,161z M215.3,155.3c1,0.4,1.3,0.5,1.3,0.7c0,0.2,0,0.2-0.5,0.2c-0.5,0.5-0.8,0.8-1.2,1.1
				c0.3,0.3,0.5,0.5,0.5,0.9c0,0.4-0.2,0.7-0.6,0.7c-0.3,0-0.4-0.1-0.6-0.7c-0.2-0.5-0.4-0.9-0.9-1.3c-0.1,0,0-0.1,0.1-0.1
				c0.4,0.1,0.8,0.2,1.1,0.4c0.1-0.3,0.3-0.5,0.4-0.8c0.1-0.3,0.2-0.6,0.3-0.9H211c-0.3,0-0.6,0-1,0.1l-0.2-0.5
				c0.4,0.1,0.8,0.1,1.1,0.1h4.2v-1c0-0.2,0-0.5-0.1-0.8c1.7,0.2,1.9,0.3,1.9,0.5c0,0.1-0.2,0.3-0.5,0.4v0.9h3.3c0.8-0.8,0.9-1,1-1
				c0.1,0,0.3,0.1,0.9,0.7c0.3,0.3,0.4,0.4,0.4,0.5c0,0.1,0,0.1-0.2,0.1H215.3z M212.2,158.5c-0.4,0-0.5-0.1-0.7-0.9
				c-0.2-0.7-0.5-1.1-0.9-1.5c-0.1-0.1,0-0.1,0.1-0.1c1.5,0.4,2.3,1,2.3,1.7C212.9,158.1,212.6,158.5,212.2,158.5z M217.5,159.9
				c-0.1-0.3-0.3-0.5-0.6-0.8c0-0.1,0-0.1,0.1-0.1c1.2,0.4,1.9,1,1.9,1.7c0,0.4-0.3,0.7-0.7,0.7c-0.3,0-0.4-0.1-0.6-0.9
				c0-0.1-0.1-0.2-0.1-0.3c-1,0.4-2.2,0.7-3.7,0.9c-0.1,0.3-0.1,0.4-0.2,0.4c-0.2,0-0.3-0.2-0.6-1.5c0.6,0,1,0,1.4,0
				c0.7-0.8,1.3-1.6,1.8-2.4c0.2-0.4,0.4-0.8,0.6-1.1c1.2,0.6,1.4,0.8,1.4,1c0,0.2,0,0.2-0.6,0.2c-1.3,1.2-2,1.9-2.6,2.4
				C215.9,159.9,216.7,159.9,217.5,159.9z M220.9,157c-0.8,0.7-1.8,1.2-2.7,1.6c-0.1,0-0.2-0.1-0.1-0.1c0.4-0.4,1-1.1,1.4-1.7
				c0.3-0.4,0.4-0.7,0.5-1c1.1,0.6,1.4,0.8,1.4,1C221.5,156.9,221.4,157,220.9,157z M220.9,161.2c-0.3,0-0.5-0.1-0.9-0.8
				c-0.4-0.6-0.7-1-1.3-1.4c-0.1,0,0-0.2,0.1-0.1c1.9,0.3,2.8,0.8,2.8,1.6C221.5,160.9,221.3,161.2,220.9,161.2z"/>
		</g>
		<g class="st4">
			<path class="st5" d="M139.8,419.1h3.3c0.8-1,1-1.1,1.1-1.1c0.1,0,0.3,0.1,1.1,0.8c0.4,0.3,0.5,0.4,0.5,0.5c0,0.1,0,0.1-0.2,0.1
				h-5.8v0.2c0,2.7,0.1,3.8,0.1,4.9c0,0.4-0.3,0.6-0.9,0.6c-0.4,0-0.6-0.1-0.6-0.5c0-0.4,0.1-2.6,0.1-5v-0.2h-4.1
				c-0.4,0-0.8,0-1.3,0.1l-0.2-0.5c0.6,0.1,1,0.1,1.5,0.1h4.1v-5.5H135c-0.4,0-0.8,0-1.3,0.1l-0.2-0.5c0.6,0.1,1,0.1,1.4,0.1h7.8
				c0.7-0.9,0.9-1,1-1c0.1,0,0.3,0.1,1,0.7c0.3,0.3,0.4,0.4,0.4,0.5c0,0.1,0,0.1-0.2,0.1h-5.2V419.1z M136.2,418.2
				c-0.4,0-0.5-0.2-0.7-1c-0.2-1.1-0.4-1.8-1-2.7c0-0.1,0.1-0.1,0.1-0.1c1.6,0.9,2.4,1.9,2.4,2.9C137,417.8,136.7,418.2,136.2,418.2
				z M143.7,415.4c-0.9,1.5-1.8,2.5-3.1,3.3c-0.1,0-0.2-0.1-0.1-0.1c0.6-0.8,1.3-2,1.7-3.1c0.2-0.5,0.3-0.9,0.4-1.3
				c1.2,0.5,1.7,0.8,1.7,1C144.3,415.3,144.1,415.3,143.7,415.4z"/>
			<path class="st5" d="M154.5,416.6c0.4-0.8,0.8-1.7,1-2.5c0.2-0.7,0.3-1.3,0.3-1.8c1.6,0.4,1.9,0.5,1.9,0.7c0,0.2-0.1,0.3-0.5,0.3
				c-0.3,0.6-0.5,1.2-0.8,1.7h4.1c0.5-0.6,0.6-0.7,0.8-0.7c0.1,0,0.3,0.1,0.8,0.6c0.3,0.2,0.3,0.3,0.3,0.4c0,0.1,0,0.1-0.4,0.4
				c-0.1,4.1-0.2,6-0.6,7.5c-0.2,0.5-0.4,0.9-0.7,1.2c-0.4,0.3-0.8,0.5-1.3,0.5c-0.3,0-0.3,0-0.4-0.4c-0.1-0.4-0.5-0.8-1.6-1.1
				c-0.1,0-0.1-0.2,0-0.2c1.1,0.1,1.4,0.1,1.6,0.1c0.6,0,0.8,0,0.9-0.3c0.5-0.9,0.7-2.9,0.8-7.8h-4.4c-0.7,1.2-1.6,2.1-2.5,2.8
				c-0.1,0-0.2,0-0.1-0.1C153.9,417.7,154.2,417.2,154.5,416.6c-0.1,0.1-0.1,0.1-0.2,0.1h-1.6v3.8c0.6-0.2,1.3-0.4,1.8-0.6
				c0.1,0,0.1,0.1,0.1,0.1c-1.4,1.1-2.2,1.6-3.9,2.5c0,0.4-0.1,0.6-0.3,0.6c-0.2,0-0.5-0.5-0.9-1.7c0.3,0,0.7-0.1,1.2-0.3
				c0.3-0.1,0.5-0.1,0.8-0.2v-4.2h-0.9c-0.2,0-0.4,0-0.7,0.1l-0.2-0.5c0.3,0.1,0.6,0.1,0.8,0.1h1v-2.2c0-0.7,0-1.2-0.1-1.7
				c1.7,0.2,1.8,0.3,1.8,0.5c0,0.1-0.2,0.3-0.5,0.4v3h0.1c0.4-0.7,0.6-0.8,0.7-0.8c0.1,0,0.3,0.1,0.7,0.5
				C154.4,416.3,154.5,416.5,154.5,416.6L154.5,416.6z M155.3,422.4c0,0.4-0.1,0.6-0.3,0.6c-0.2,0-0.4-0.3-0.9-1.7
				c0.3,0,0.7-0.1,1.2-0.2c1.3-0.2,3-0.6,4.3-1.1c0.1,0,0.1,0.1,0.1,0.1C158.2,421.1,157.3,421.6,155.3,422.4z M157.5,417.9
				c0.6-0.7,0.7-0.8,0.8-0.8c0.1,0,0.3,0.1,0.8,0.6c0.2,0.2,0.3,0.3,0.3,0.4c0,0.1,0,0.1-0.2,0.1h-3.7c-0.2,0-0.4,0-0.6,0.1
				l-0.2-0.5c0.3,0.1,0.5,0.1,0.7,0.1H157.5z"/>
			<path class="st5" d="M176.6,420.8c0.8-0.9,0.9-1,1-1c0.1,0,0.3,0.1,1,0.7c0.3,0.3,0.4,0.4,0.4,0.5c0,0.1,0,0.1-0.2,0.1H174
				c0,1.5,0,2.9,0,3.5c0,0.4-0.3,0.6-0.8,0.6c-0.4,0-0.6-0.1-0.6-0.5s0.1-1.4,0.1-3.6h-4.9c-0.3,0-0.6,0-1,0.1l-0.2-0.5
				c0.5,0.1,0.8,0.1,1.1,0.1h1.2v-1.9c0-0.7,0-1.4-0.1-2.1c0.7,0.3,0.8,0.3,1.5,0.7h2.3v-2.6h-2.6c-0.8,1.3-1.8,2.3-3.2,3.1
				c-0.1,0-0.2-0.1-0.1-0.1c0.9-0.9,1.9-2.5,2.4-4c0.2-0.6,0.4-1.1,0.4-1.6c1.5,0.4,1.9,0.6,1.9,0.8c0,0.2-0.2,0.3-0.6,0.3
				c-0.2,0.4-0.4,0.8-0.6,1.2h5.9c0.7-0.9,0.9-1,1-1c0.1,0,0.3,0.1,1,0.7c0.3,0.3,0.4,0.4,0.4,0.5c0,0.1,0,0.1-0.2,0.1H174v2.6h1.7
				c0.7-0.8,0.8-0.9,0.9-0.9c0.1,0,0.3,0.1,1,0.6c0.3,0.3,0.4,0.4,0.4,0.5c0,0.1-0.1,0.1-0.2,0.1H174v0.5c0,0.8,0,1.7,0,2.5H176.6z
				 M172.6,417.7h-2.4v3h2.4V417.7z"/>
			<path class="st5" d="M187.4,415.8h1c0.5-0.6,0.6-0.7,0.7-0.7c0.1,0,0.3,0.1,0.7,0.5c0.2,0.2,0.3,0.3,0.3,0.4c0,0.1,0,0.1-0.2,0.1
				h-5.6c-0.3,0-0.5,0-0.9,0.1l-0.2-0.5c0.4,0.1,0.7,0.1,1,0.1v-1.4c0-0.5,0-0.9-0.1-1.2c1.5,0.2,1.6,0.3,1.6,0.4
				c0,0.1-0.1,0.2-0.4,0.3v1.8h0.9v-2.2c0-0.4,0-0.9-0.1-1.3c1.5,0.1,1.6,0.3,1.6,0.4s-0.1,0.2-0.4,0.3v1.1h0.6
				c0.4-0.6,0.6-0.7,0.7-0.7c0.1,0,0.3,0.1,0.7,0.5c0.2,0.2,0.3,0.3,0.3,0.4c0,0.1,0,0.1-0.2,0.1h-2.1V415.8z M188.4,417.7
				c0,0-0.1,0.1-0.2,0.1c-0.3,0.5-0.6,1-1,1.4c0,0.1-0.1,0-0.1-0.1c0.1-0.4,0.2-0.8,0.3-1.3c0.1-0.3,0.1-0.6,0.1-0.8
				c0.5,0.2,0.8,0.3,0.8,0.4c0-0.3,0-0.6,0-0.9c1.3,0.2,1.4,0.2,1.4,0.3c0,0.1-0.1,0.2-0.3,0.3v1.2c0,3.2,0,5.4,0,6.2
				c0,0.3-0.2,0.4-0.6,0.4c-0.3,0-0.5-0.1-0.5-0.4v-0.5h-3.6v0.5c0,0.4-0.2,0.5-0.6,0.5c-0.3,0-0.5-0.1-0.5-0.4
				c0-0.6,0.1-2.6,0.1-6.5c0-0.7,0-1.2,0-1.7c1.3,0.2,1.4,0.2,1.4,0.3c0,0.1-0.1,0.2-0.3,0.3v6.6h3.6V417.7z M187,420.3
				c0.9,0.7,1.2,1.2,1.2,1.7c0,0.3-0.1,0.4-0.3,0.4c-0.3,0-0.4-0.1-0.4-0.7c-0.1-0.3-0.2-0.7-0.4-1.1c0,0.8,0,1.9,0,2.6
				c0,0.3-0.2,0.4-0.5,0.4c-0.3,0-0.4-0.1-0.4-0.4c0-0.2,0-1.1,0.1-2c-0.4,0.7-0.7,1-1.2,1.5c-0.1,0-0.2,0-0.1-0.1
				c0.5-0.7,0.9-1.8,1.1-2.7h-0.4c-0.2,0-0.3,0-0.5,0.1l-0.2-0.5c0.3,0.1,0.5,0.1,0.7,0.1h0.5v-2c0-0.5,0-0.6-0.1-1.1
				c1.1,0.1,1.2,0.1,1.2,0.3c0,0.1,0,0.1-0.3,0.3v2.5h0.3c0.2-0.3,0.3-0.4,0.4-0.4c0.1,0,0.2,0.1,0.4,0.3c0.1,0.1,0.2,0.2,0.2,0.3
				c0,0.1,0,0.1-0.2,0.1H187V420.3z M185.5,419.1c-0.2,0-0.3-0.1-0.3-0.5c0-0.6-0.1-0.8-0.3-1.3c0-0.1,0-0.1,0.1-0.1
				c0.6,0.4,0.9,1,0.9,1.4C185.9,418.9,185.8,419.1,185.5,419.1z M189.7,417.7c-0.1,0-0.2-0.1-0.1-0.1c0.8-0.9,1.5-2.3,2-3.7
				c0.2-0.6,0.3-1.1,0.4-1.7c1.6,0.4,1.7,0.4,1.7,0.6c0,0.1-0.1,0.2-0.4,0.3c0.3,0.6,0.7,1.3,1.3,1.9c0.6,0.7,1.4,1.2,2,1.5
				c0.1,0,0,0.1,0,0.2c-0.3,0.1-0.5,0.4-0.7,0.8c-0.1,0.2-0.1,0.2-0.2,0.2c-0.1,0-0.2-0.1-0.4-0.3c-0.4-0.3-0.7-0.8-1.2-1.6
				c-0.4-0.7-0.6-1.4-1-2.5C192.2,415.4,191.1,416.9,189.7,417.7z M190.9,419.5c-0.3,0-0.5,0-0.9,0.1l-0.2-0.6
				c0.4,0.1,0.8,0.1,1.1,0.1h3.1c0.4-0.5,0.5-0.6,0.6-0.6c0.1,0,0.3,0.1,0.7,0.4c0.2,0.2,0.3,0.3,0.3,0.4c0,0.1,0,0.1-0.3,0.4v0.9
				c0,0.8,0,1.3,0,1.8c0,0.4-0.1,0.7-0.3,0.9c-0.2,0.2-0.5,0.3-0.9,0.3c-0.2,0-0.2-0.1-0.3-0.3c-0.1-0.5-0.3-0.6-1-0.9
				c-0.1,0-0.1-0.2,0-0.2c0.6,0.1,0.7,0.1,1.1,0.1c0.2,0,0.2,0,0.2-0.2v-2.8h-1.6v1.8c0,1.3,0,2.9,0,3.4c0,0.4-0.3,0.6-0.8,0.6
				c-0.4,0-0.5-0.2-0.5-0.4c0-0.3,0-1.3,0-3.3v-2H190.9z M193,417.1c0.4-0.5,0.5-0.6,0.6-0.6c0.1,0,0.3,0.1,0.7,0.4
				c0.2,0.1,0.3,0.3,0.3,0.4s0,0.1-0.2,0.1H192c-0.3,0-0.5,0-0.9,0.1l-0.2-0.5c0.4,0.1,0.7,0.1,1.1,0.1H193z"/>
		</g>
		<path class="st5" d="M67.6,470.5c-0.3-1.2-1.1-2.3-2.1-3c-0.4-0.3-0.9-0.6-1.4-0.8c-0.7-0.3-1.5-0.6-2.2-0.9
			c-0.6-0.2-1.3-0.5-1.9-0.8l0,0c-0.2-0.1-0.3-0.2-0.5-0.3c-0.2-0.2-0.4-0.3-0.5-0.6c-0.1-0.2-0.2-0.5-0.2-0.7c0-0.1,0-0.3,0-0.4
			c0-0.6,0.1-1.1,0.2-1.7c0.3-0.4,0.6-0.8,0.8-1.3c0.3-0.6,0.6-1.2,0.8-1.8c0.2-0.1,0.3-0.2,0.5-0.3c0.4-0.3,0.7-0.6,1-1
			c0.3-0.5,0.6-1.1,0.7-1.7c0-0.2,0.1-0.4,0.1-0.6c0-0.4-0.1-0.8-0.2-1.1c-0.1-0.2-0.2-0.4-0.4-0.6c0.1-0.3,0.2-0.7,0.3-1.2
			c0.1-0.8,0.2-1.5,0.2-2.3c0-0.6,0-1.1-0.2-1.6c-0.1-0.4-0.2-0.8-0.4-1.2c-0.3-0.6-0.6-1.2-1.1-1.6c-0.5-0.5-1.2-0.8-1.8-1
			c-0.2-0.3-0.5-0.5-0.8-0.8c-0.2-0.2-0.5-0.3-0.7-0.5c-0.4-0.2-0.7-0.3-1.1-0.4c-0.4-0.1-0.8-0.1-1.2-0.1c-0.6,0-1.2,0-1.8,0.1
			c-0.2,0-0.5,0-0.6,0.1l-0.6,0.1h-0.2h-0.2h-0.4c-0.4-0.1-0.8-0.2-1.2-0.3l-0.4-0.1l-0.2-0.1h-0.1c0,0-0.1,0-0.2,0h-0.1h-0.2H49
			l-0.1,0.1l-0.2,0.2c-0.1,0.1-0.3,0.2-0.4,0.4c-0.3,0.2-0.5,0.5-0.7,0.8c-0.1,0.2-0.2,0.3-0.3,0.5c-0.1,0.2-0.2,0.3-0.2,0.5
			c-0.3,0.8-0.5,1.6-0.7,2.4c-0.1,0.7-0.2,1.3-0.2,2c0,0.9,0.1,1.7,0.3,2.6v0.1c0,0.1,0,0.1,0,0.2s0,0.2,0,0.3s0,0.1,0,0.1l0,0l0,0
			v0.1l0.1,0.6c-0.2,0.2-0.4,0.4-0.5,0.7c-0.2,0.4-0.3,0.8-0.3,1.2c0,0.2,0,0.4,0.1,0.6l0,0c0.1,0.4,0.2,0.8,0.4,1.2
			c0.2,0.5,0.5,0.9,0.9,1.2c0.3,0.2,0.5,0.4,0.8,0.5c0.2,0.6,0.5,1.2,0.8,1.8c0.2,0.4,0.5,0.9,0.9,1.2c0.1,0.6,0.2,1.1,0.2,1.7
			c0,0.3-0.1,0.6-0.2,0.9c-0.1,0.2-0.2,0.4-0.4,0.6c-0.2,0.2-0.5,0.4-0.7,0.5l-0.2,0.1c-0.2,0.1-0.5,0.2-0.8,0.3
			c-0.6,0.3-1.4,0.5-2.1,0.8c-0.6,0.2-1.1,0.5-1.7,0.8c-0.4,0.2-0.8,0.5-1.2,0.8c-0.6,0.5-1,1.1-1.3,1.8c-0.3,0.8-0.5,1.7-0.5,2.7
			c0,0.1,0,0.3,0.1,0.4c0.1,0.1,0.1,0.2,0.2,0.3c0.2,0.2,0.4,0.4,0.6,0.5c0.5,0.4,1.1,0.6,1.6,0.8c1.4,0.5,2.8,0.8,4.3,1
			c2.2,0.3,4.5,0.4,6.7,0.4c2,0,4-0.1,6-0.3c1.1-0.1,2.2-0.3,3.2-0.6c0.6-0.1,1.2-0.3,1.8-0.5c0.3-0.1,0.7-0.3,1-0.5
			c0.2-0.1,0.4-0.2,0.6-0.4c0.2-0.2,0.4-0.4,0.6-0.6c0.1-0.1,0.1-0.2,0.2-0.4c0-0.1,0.1-0.3,0.1-0.4C67.7,471.6,67.7,471,67.6,470.5
			z M49.4,447.8c3,0.7,9-0.6,9-0.6c0.1,1,0.5,2,1.1,2.8c0.3,0.5,0.6,1,0.8,1.6h-0.3c-0.1,0-0.2-0.1-0.2-0.2s-0.2-0.2-0.4-0.2
			c-0.7-0.1-1.3-0.1-2-0.1c-2.3,0.1-2.2,0.3-3.1,0.3s-0.8-0.2-3.1-0.3c-0.7,0-1.3,0-2,0.1c-0.2,0-0.4,0.1-0.4,0.2s0,0.2-0.2,0.2
			h-0.1C48.9,450.4,49.3,449.1,49.4,447.8z M59.3,452.8c0,0,0,1.4-0.9,1.8c-0.3,0.2-0.7,0.3-1.1,0.2c-0.4,0-0.8-0.1-1.1-0.3
			c-0.3-0.2-0.6-0.5-0.7-0.9c0-0.1,0-0.2-0.1-0.3c-0.1-0.3-0.3-1,0.2-1.3c0.6-0.3,1.2-0.4,1.9-0.3c0.6-0.1,1.2,0.1,1.7,0.3
			C59.2,452.3,59.3,452.6,59.3,452.8L59.3,452.8z M53.1,453.5c0,0.1,0,0.2-0.1,0.3c-0.1,0.4-0.3,0.7-0.7,0.9
			c-0.3,0.2-0.7,0.3-1.1,0.3c-0.4,0-0.8-0.1-1.1-0.2c-0.9-0.5-0.9-1.8-0.9-1.8c0-0.2,0-0.5,0.2-0.7c0.5-0.3,1.1-0.4,1.7-0.3
			c0.6,0,1.3,0.1,1.9,0.3C53.4,452.5,53.2,453.2,53.1,453.5L53.1,453.5z M53.2,470.5l-3.6-4.9l0.1-0.1c0.2-0.2,0.4-0.3,0.5-0.5
			l2.9,1.3l-0.6,1l1,1L53.2,470.5z M50.7,464.4c0.1-0.3,0.2-0.6,0.2-0.9c0-0.2,0-0.3,0-0.5c0-0.7-0.1-1.4-0.2-2.1v-0.1l-0.1-0.1
			c-0.3-0.3-0.6-0.7-0.8-1.1c-0.3-0.6-0.6-1.2-0.8-1.8l-0.1-0.2l-0.2-0.1c-0.2-0.1-0.3-0.1-0.5-0.2c-0.3-0.2-0.5-0.4-0.7-0.7
			c-0.3-0.4-0.4-0.9-0.5-1.4c0-0.1,0-0.2,0-0.3c0-0.2,0-0.5,0.1-0.7c0.1-0.2,0.2-0.4,0.4-0.5c0.3,0.4,0.5,0.7,0.5,0.8
			c0.3,0.2,0.3-0.3,0.2-1c0-0.4,0-0.8,0.2-1.2v0.2c0,0.1,0.1,0.1,0.2,0.1c0.1,0,0.2,0,0.2,0.1c0,1,0.5,1.9,1.3,2.4
			c1.3,0.8,2.9,0.4,3.7-0.9c0,0,0-0.1,0.1-0.1c0.3-0.7,0.3-1.3,0.7-1.3s0.4,0.6,0.7,1.3c0.7,1.3,2.3,1.8,3.6,1.1c0,0,0.1,0,0.1-0.1
			c0.8-0.5,1.3-1.4,1.2-2.4c0-0.1,0.1-0.1,0.2-0.1c0.1,0,0.2-0.1,0.2-0.1v-0.7c0.3,0.8,0.5,1.7,0.7,2.6l0.3-0.6
			c0.1,0.1,0.2,0.3,0.3,0.4c0.1,0.2,0.1,0.4,0.2,0.6c0,0.1,0,0.2,0,0.3c-0.1,0.3-0.2,0.7-0.3,1c-0.2,0.3-0.4,0.6-0.7,0.9
			c-0.2,0.2-0.5,0.3-0.7,0.4l-0.2,0.1l-0.1,0.2c-0.2,0.6-0.5,1.2-0.8,1.8c-0.2,0.4-0.5,0.8-0.8,1.1l-0.1,0.1v0.1
			c-0.2,0.7-0.2,1.4-0.2,2.1c0,0.4,0.1,0.9,0.2,1.3l0,0l-3.4,1.8L50.7,464.4z M55.7,470.8l-0.3-2.4l1-1l-0.6-1l2.6-1.4
			c0.1,0.1,0.2,0.2,0.2,0.3c0.2,0.1,0.3,0.3,0.5,0.4L55.7,470.8z"/>
		<path class="st5" d="M58.8,458c-0.5-0.2-0.9-0.6-1.2-1c-0.6-1.2-2.1-1.7-3.3-1.1c0,0,0,0,0,0c-1.2-0.6-2.7-0.1-3.3,1.1
			c-0.3,0.4-0.7,0.8-1.2,1c0.7,0.7,1.8,0.8,2.7,0.4c0.8-0.2,1.4-0.7,1.8-1.5c0.4,0.7,1,1.3,1.8,1.5C57,458.8,58.1,458.6,58.8,458z"
			/>
		<path class="st5" d="M102,469.5c-0.6-1-1.4-1.8-2.5-2.2c-0.8-0.4-1.6-0.7-2.5-0.9c-0.5-0.2-1-0.3-1.6-0.4c-0.1,0-0.2-0.1-0.3-0.1
			l0,0v-0.5c1-1,1.6-2.2,1.9-3.5c0.1-0.1,0.3-0.1,0.4-0.2c0.3-0.3,0.6-0.6,0.8-1c0.3-0.5,0.5-1.1,0.6-1.7c0.1-0.3,0.2-0.7,0.2-1
			c0-0.1,0-0.3-0.1-0.4c0.2-0.1,0.3-0.3,0.4-0.5c0.5-0.7,0.7-1.6,0.7-2.4c0-0.7-0.1-1.4-0.3-2.1c-0.4-1.9-1.4-3.6-2.8-4.8
			c-0.7-0.6-1.5-1-2.3-1.4c0-0.2,0.1-0.4,0.1-0.7c-0.1-2-1.8-3.5-3.7-3.4c-1.8,0.1-3.3,1.5-3.4,3.4c0,0.2,0,0.4,0.1,0.7
			c-0.8,0.3-1.6,0.8-2.3,1.4c-1.4,1.3-2.4,2.9-2.8,4.8c-0.2,0.7-0.3,1.4-0.3,2.1c0,0.9,0.2,1.7,0.7,2.4c0.1,0.2,0.3,0.3,0.4,0.5
			c0,0.1,0,0.3,0,0.4c0,0.3,0.1,0.7,0.2,1c0.2,0.7,0.5,1.5,0.9,2.1c0.2,0.2,0.3,0.4,0.6,0.6c0.1,0.1,0.2,0.1,0.4,0.2
			c0.3,1.3,1,2.5,1.9,3.5v0.5c0,0-0.1,0-0.2,0.1c-0.2,0.1-0.5,0.1-0.7,0.2c-0.3,0.1-0.7,0.1-1,0.2c-0.4,0.1-1,0.3-1.6,0.5
			c-1,0.3-1.9,0.9-2.7,1.7c-0.9,1-1.4,2.4-1.3,3.8c0,0.2,0,0.5,0,0.7c0,0.1,0.1,0.3,0.2,0.4c0.1,0.2,0.3,0.4,0.5,0.5
			c0.5,0.3,1,0.5,1.5,0.7c3,0.9,6,1.4,9.1,1.3c2.7,0,5.3-0.3,7.9-1c0.8-0.2,1.6-0.5,2.3-0.9c0.3-0.1,0.5-0.3,0.7-0.5
			c0.1-0.1,0.2-0.2,0.3-0.3c0.1-0.1,0.1-0.3,0.2-0.4c0-0.2,0-0.5,0-0.7C102.6,471.3,102.4,470.3,102,469.5z M94.2,468.3
			c-1.7,1.3-4.1,1.3-5.9,0c-0.4-0.4-0.7-0.9-0.8-1.4c0.1-0.1,0.3-0.1,0.4-0.2c0.1-0.1,0.2-0.2,0.3-0.4c0.1-0.2,0.1-0.3,0.1-0.5v-0.6
			c0-0.1,0-0.3-0.1-0.4c-1-0.9-1.6-2.1-1.9-3.5c0-0.2-0.2-0.3-0.3-0.4c-0.1,0-0.3-0.1-0.4-0.2c-0.2-0.2-0.4-0.4-0.5-0.6
			c-0.2-0.5-0.4-1-0.6-1.5l-0.1-0.3l1.5,1.8l0.3-3.1c2-1.1,3.7-2.6,5-4.5c1.3,1.9,3,3.4,5,4.5l0.3,3.1l1.4-1.8c0,0.1,0,0.2-0.1,0.3
			c-0.1,0.6-0.4,1.2-0.7,1.8c-0.1,0.1-0.2,0.2-0.3,0.3c-0.1,0.1-0.3,0.2-0.4,0.2c-0.2,0.1-0.3,0.2-0.3,0.4c-0.3,1.3-0.9,2.5-1.9,3.5
			c-0.1,0.1-0.1,0.2-0.1,0.4v0.6c0,0.2,0,0.3,0.1,0.5c0.1,0.2,0.3,0.4,0.6,0.5l0.2,0.1C94.9,467.4,94.6,467.9,94.2,468.3L94.2,468.3
			z"/>
		<path class="st5" d="M48.6,511.2c-0.1-0.5-0.3-0.9-0.6-1.4c-0.4-0.7-0.9-1.2-1.6-1.7c-0.4-0.3-0.9-0.6-1.4-0.8
			c-0.7-0.3-1.5-0.6-2.2-0.9c-0.6-0.2-1.2-0.5-1.8-0.8c-0.2-0.1-0.3-0.2-0.5-0.3c-0.2-0.2-0.4-0.4-0.5-0.6c-0.1-0.2-0.2-0.5-0.2-0.7
			c0-0.2,0-0.4,0-0.6c0-0.5,0-1,0.2-1.5c0.3-0.4,0.6-0.8,0.9-1.3c0.3-0.6,0.6-1.2,0.8-1.8l0.5-0.3c0.4-0.3,0.7-0.6,1-1
			c0.3-0.5,0.6-1.1,0.7-1.7c0-0.2,0.1-0.4,0.1-0.6c0-0.4-0.1-0.8-0.3-1.1c-0.1-0.2-0.2-0.4-0.4-0.6c0.1-0.3,0.2-0.7,0.3-1.2
			c0.1-0.8,0.2-1.5,0.2-2.3c0-0.6,0-1.1-0.2-1.7c-0.1-0.4-0.2-0.8-0.4-1.2c-0.3-0.6-0.7-1.2-1.2-1.7c-0.5-0.5-1.1-0.8-1.8-1
			c-0.3-0.3-0.6-0.7-1-1c-0.5-0.4-1.1-0.7-1.7-0.9c-0.6-0.2-1.2-0.2-1.8-0.2c-0.3,0-0.6,0-1,0s-0.5,0.1-0.8,0.1
			c-0.3,0.1-0.6,0.1-0.9,0.2c-0.3,0.1-0.5,0.2-0.9,0.3c-0.2,0.1-0.3,0.1-0.5,0.2c-0.5,0.2-0.9,0.5-1.3,0.8c-0.9,0.6-1.6,1.4-2.1,2.4
			c-0.3,0.5-0.6,1.1-0.8,1.8c-0.2,0.7-0.3,1.4-0.3,2.2c0,0.5,0,1,0.1,1.5v0.2c0,0.1,0,0.1,0,0.2c0,0.1,0,0.2,0,0.3s0,0.1,0,0.1l0,0
			l0,0v0.1l0.1,0.6c-0.2,0.2-0.4,0.5-0.5,0.7c-0.2,0.4-0.3,0.8-0.3,1.2c0,0.2,0,0.4,0.1,0.6c0.1,0.4,0.3,0.9,0.6,1.2
			c0.2,0.5,0.5,0.9,0.9,1.3c0.3,0.2,0.5,0.4,0.9,0.5c0.2,0.6,0.5,1.2,0.8,1.8c0.2,0.5,0.5,0.9,0.9,1.3c0.1,0.5,0.2,1,0.2,1.5
			c0,0.2,0,0.4,0,0.6c0,0.2-0.1,0.4-0.1,0.5c-0.1,0.2-0.2,0.4-0.4,0.6c-0.2,0.2-0.5,0.4-0.7,0.5c-0.3,0.2-0.7,0.3-1,0.5
			c-0.6,0.3-1.4,0.5-2.1,0.8c-0.6,0.2-1.1,0.5-1.6,0.8c-0.4,0.2-0.8,0.5-1.1,0.8c-0.6,0.5-1,1.1-1.3,1.9c-0.3,0.9-0.5,1.8-0.5,2.7
			c0,0.1,0,0.3,0.1,0.4c0.1,0.1,0.1,0.2,0.2,0.3c0.2,0.2,0.4,0.4,0.6,0.5c0.5,0.4,1.1,0.6,1.6,0.8c1.4,0.5,2.8,0.8,4.3,1
			c2.2,0.3,4.5,0.4,6.7,0.4c2,0,4-0.1,6-0.3c1.1-0.1,2.2-0.3,3.2-0.6c0.6-0.1,1.2-0.3,1.8-0.5c0.4-0.2,0.7-0.3,1-0.5
			s0.4-0.2,0.6-0.4c0.2-0.2,0.4-0.4,0.6-0.6c0.1-0.1,0.1-0.2,0.2-0.3c0.1-0.1,0.1-0.3,0.1-0.4C48.9,512.5,48.8,511.8,48.6,511.2z
			 M34.2,511.7l-4-5.1c0.2-0.1,0.4-0.3,0.6-0.4c0.2-0.2,0.4-0.3,0.5-0.5l2.9,1.3l-0.6,1l1,1L34.2,511.7z M31.8,505
			c0.1-0.3,0.2-0.6,0.2-0.9c0-0.2,0-0.5,0-0.7c0-0.6-0.1-1.3-0.2-1.9v-0.2l-0.1-0.1c-0.3-0.3-0.6-0.7-0.8-1.1
			c-0.3-0.6-0.6-1.2-0.8-1.9l0-0.2l-0.2-0.1c-0.2-0.1-0.3-0.2-0.5-0.3c-0.3-0.2-0.5-0.4-0.7-0.7c-0.3-0.4-0.4-0.9-0.5-1.4
			c0-0.1,0-0.2,0-0.3c0-0.2,0.1-0.5,0.2-0.7c0.1-0.2,0.2-0.4,0.4-0.5c0.2,0.3,0.4,0.5,0.5,0.8c0.2,0.2,0.2,0.2,0.3,0
			s0.3-0.4,1.8-3.4c3,0.7,8.3-3.9,8.3-3.9c0.1,1,0.5,2,1.1,2.8c0.7,1.3,1.2,2.8,1.4,4.3c0,0,0.1-0.2,0.3-0.6
			c0.1,0.1,0.2,0.3,0.3,0.4c0.1,0.2,0.2,0.4,0.2,0.6c0,0.1,0,0.2,0,0.3c-0.1,0.3-0.2,0.7-0.3,1c-0.2,0.3-0.4,0.6-0.6,0.9
			c-0.2,0.2-0.5,0.3-0.7,0.4l-0.2,0.1l-0.1,0.2c-0.2,0.6-0.5,1.3-0.8,1.9c-0.2,0.4-0.5,0.8-0.8,1.1l-0.1,0.1v0.2
			c-0.1,0.6-0.2,1.3-0.2,1.9c0,0.2,0,0.5,0,0.7c0,0.3,0.1,0.6,0.2,0.8l0,0l-3.4,1.8L31.8,505z M36.8,511.9l-0.4-2.8l1-1l-0.6-1
			l2.6-1.4c0.1,0.1,0.1,0.2,0.2,0.3c0.3,0.3,0.6,0.5,0.9,0.7L36.8,511.9z"/>
		<path class="st5" d="M86.4,509.3c-0.8-1.1-2-2-3.3-2.4c-0.6-0.2-1.2-0.4-1.7-0.5s-1-0.2-1.3-0.4c-0.5-0.2-1-0.4-1.5-0.7
			c-0.2-0.1-0.3-0.2-0.4-0.4c-0.1-0.1-0.1-0.2-0.1-0.3v-2c1-1,1.7-2.3,2-3.7c0.1-0.1,0.3-0.1,0.4-0.2c0.4-0.3,0.7-0.6,0.8-1
			c0.3-0.6,0.5-1.2,0.7-1.8c0.1-0.3,0.2-0.7,0.2-1c0-0.3-0.1-0.6-0.2-0.9c-0.2-0.3-0.4-0.5-0.7-0.6c1.1-5.9-2.4-10.4-6.9-10.2
			c-4.2-0.9-6.9-0.7-7.2,3c-0.4,1-0.3,2,0.1,3c-0.2,0.7-0.3,1.5-0.3,2.3v1.7c-0.1,0-0.2,0.1-0.4,0.2c-0.2,0.1-0.4,0.3-0.5,0.5
			c-0.1,0.3-0.2,0.6-0.2,0.9c0,0.4,0.1,0.7,0.2,1c0.2,0.8,0.5,1.5,0.9,2.2c0.2,0.2,0.4,0.4,0.6,0.6c0.1,0.1,0.3,0.2,0.4,0.2
			c0.3,1.4,1,2.7,2,3.7v2c0,0.1-0.1,0.2-0.1,0.3c-0.2,0.3-0.5,0.5-0.8,0.6c-0.3,0.2-0.7,0.4-1.1,0.5c-0.4,0.1-1.1,0.3-1.8,0.5
			c-1.3,0.3-2.5,0.9-3.5,1.7c-0.5,0.5-1,1.1-1.3,1.8c-0.4,0.8-0.5,1.7-0.5,2.5c0,0.2,0,0.5,0,0.7c0,0.2,0.1,0.3,0.2,0.4
			c0.2,0.2,0.4,0.4,0.6,0.5c0.6,0.3,1.1,0.6,1.8,0.8c3.4,1.1,7,1.6,10.6,1.5c3.1,0,6.2-0.3,9.2-1.1c0.9-0.2,1.8-0.6,2.7-1
			c0.3-0.1,0.6-0.3,0.8-0.5c0.1-0.1,0.2-0.2,0.3-0.3c0.1-0.1,0.1-0.3,0.2-0.4c0-0.2,0-0.5,0-0.7C87.3,511.4,87,510.3,86.4,509.3z
			 M70.1,506.2c0.3-0.2,0.5-0.4,0.7-0.6c0.2-0.3,0.3-0.6,0.3-0.9v-2.4l-0.1-0.1c-1-1-1.7-2.2-2-3.6l-0.1-0.3l-0.3-0.1
			c-0.2-0.1-0.3-0.1-0.4-0.2c-0.2-0.2-0.4-0.4-0.5-0.6c-0.3-0.5-0.4-1-0.6-1.6c-0.1-0.3-0.1-0.5-0.1-0.8c0-0.1,0-0.3,0.1-0.4
			c0.1-0.1,0.1-0.2,0.2-0.2c0.1,0,0.1,0,0.2,0H68v-2.7c0-0.3,0-0.6,0.1-0.9c1.2,1.7,3.4,3.3,7.2,3.9c-0.6-1.6-1-3.3-1.4-5
			c0,0,2.5,3.7,6.3,4.1v0.6h0.5c0.1,0,0.2,0,0.3,0.1c0.1,0,0.1,0.1,0.2,0.2c0.1,0.1,0.1,0.3,0.1,0.4c0,0.3,0,0.5-0.1,0.8
			c-0.2,0.7-0.4,1.3-0.8,1.9c-0.1,0.1-0.2,0.2-0.3,0.3c-0.1,0.1-0.3,0.2-0.4,0.2l-0.3,0.1v0.3c-0.3,1.4-1,2.7-2,3.6l-0.1,0.1v2.4
			c0,0.3,0.1,0.6,0.3,0.9c0.3,0.4,0.6,0.7,1.1,0.9c0.2,0.1,0.4,0.2,0.6,0.3l-2,2c-0.9,0.5-2,0.7-3,0.7c-1,0-2.1-0.2-3-0.7l-2-2
			C69.5,506.6,69.8,506.4,70.1,506.2z"/>
		<path class="st5" d="M67.2,498.5c0,0,0.6,6.6-1.8,8.5c0,0,7.1-0.9,5-4.5l-2.1-4.1l-1.2-0.9L67.2,498.5z"/>
		<path class="st5" d="M81,498.5c0,0-0.6,6.6,1.8,8.5c0,0-7.1-0.9-5-4.5l2.1-4.1l1.2-0.9L81,498.5z"/>
		<path class="st5" d="M122.7,509.7c-0.7-1-1.6-1.9-2.8-2.3c-1-0.5-2-0.7-2.6-1c-0.5-0.2-1-0.4-1.4-0.8c-0.2-0.1-0.3-0.3-0.4-0.4
			c-0.1-0.1-0.1-0.2-0.1-0.3v-1.4c1-1,1.6-2.2,1.9-3.6c0.1-0.1,0.3-0.1,0.4-0.2c0.4-0.3,0.6-0.6,0.8-1c0.3-0.6,0.5-1.1,0.6-1.7
			c0.1-0.3,0.2-0.7,0.2-1c0-0.1,0-0.3,0-0.4c4.5-5.8-2.2-13.4-7.2-12.5c-3.9-1-7.4,2.5-8.8,5.5c-1.1,2.5-0.8,5.9,0.4,7
			c0,0.1,0,0.3,0,0.4c0,0.3,0.1,0.7,0.2,1c0.2,0.8,0.5,1.5,0.9,2.1c0.2,0.2,0.3,0.4,0.6,0.6c0.1,0.1,0.3,0.2,0.4,0.2
			c0.3,1.3,1,2.6,1.9,3.6v1.4c0,0.1-0.1,0.2-0.1,0.3c-0.2,0.3-0.5,0.5-0.8,0.7c-0.3,0.2-0.7,0.4-1,0.5c-0.4,0.1-1,0.3-1.6,0.5
			c-1.1,0.3-2.1,0.9-3,1.7c-1,1.1-1.6,2.5-1.5,4c0,0.2,0,0.5,0,0.7c0,0.1,0.1,0.3,0.1,0.4c0.1,0.2,0.3,0.4,0.5,0.5
			c0.5,0.3,1,0.6,1.5,0.8c3.1,1.1,6.5,1.6,9.8,1.5c2.9,0,5.7-0.3,8.5-1.1c0.8-0.2,1.6-0.6,2.3-1c0.2-0.1,0.5-0.3,0.7-0.5
			c0.1-0.1,0.2-0.2,0.2-0.3c0.1-0.1,0.1-0.2,0.1-0.4c0-0.2,0-0.5,0-0.7C123.4,511.6,123.2,510.6,122.7,509.7z M115.7,506.7
			L115.7,506.7L114,511l-2.1-2.6l3-2.2C115.1,506.4,115.4,506.6,115.7,506.7z M106.5,499.5v-0.3l-0.3-0.1c-0.2,0-0.3-0.1-0.4-0.2
			c-0.2-0.2-0.4-0.4-0.5-0.6c-0.2-0.5-0.4-1-0.6-1.5c-0.1-0.2-0.1-0.5-0.1-0.7c0-0.1,0-0.3,0.1-0.4c0.1-0.1,0.1-0.2,0.2-0.2h0.2
			l0.2,0l0.6,1.8l0.3-1.6l1.7-2.5c-0.1,0.8-0.2,1.5-0.4,2.2c3.3-1.1,4.2-2.3,4.3-2.6l-1.1,2.2c0,0,3.8-1.1,4.4-2.7l-0.7,2.4
			c0,0,2-0.6,2.3-1.5c0.2-0.5,0.2,0.2,0.2,0.9l0,0v3.1l0.8-1.8l0,0c0.1,0,0.2,0,0.3,0.1c0.1,0,0.1,0.1,0.2,0.1
			c0.1,0.1,0.1,0.3,0.1,0.4c0,0.3,0,0.5-0.1,0.7c-0.1,0.6-0.4,1.3-0.7,1.8c-0.1,0.1-0.2,0.2-0.3,0.3c-0.1,0.1-0.3,0.2-0.4,0.2
			l-0.3,0.1v0.3c-0.3,1.3-0.9,2.6-1.9,3.5l-0.1,0.1v1.8c0,0.2,0.1,0.4,0.2,0.6l-3.1,2.3l-3.1-2.3c0.1-0.2,0.2-0.4,0.2-0.6v-1.8
			l-0.1-0.1C107.4,502.1,106.7,500.9,106.5,499.5z M107.5,506.5l0.3-0.3l3,2.2l-2.1,2.6l-1.7-4.2L107.5,506.5z"/>
		<g class="st4">
			<path class="st5" d="M308.1,504.6c0.1,1.6,0.3,3,0.8,4.2c0.2-0.3,0.3-0.6,0.5-0.9c0.4-0.8,0.6-1.6,0.8-2.4c1.6,0.6,2.2,1,2.2,1.3
				c0,0.2-0.2,0.3-0.7,0.3c-0.6,1.3-1.2,2.4-1.8,3.3c0.5,0.7,1,1.4,1.7,1.9c0.5,0.4,0.6,0.4,0.7,0.4c0.2,0,0.7-0.8,1.1-2
				c0-0.1,0.2,0,0.2,0.1c-0.2,1.6-0.2,1.7-0.2,2c0,0.3,0,0.4,0.2,0.5c0.2,0.2,0.4,0.5,0.4,0.8c0,0.6-0.4,0.9-0.9,0.9
				c-0.8,0-1.8-0.6-2.8-1.5c-0.6-0.6-1.1-1.2-1.6-1.8c-1.3,1.4-3,2.3-5.4,3.2c-0.1,0-0.3-0.2-0.2-0.2c1.9-1.1,3.5-2.6,4.8-4.3
				c-0.6-1.2-1.1-2.9-1.4-5.9h-7.5c0,0.4,0,0.7,0,1.1c0,2-0.2,3.6-0.6,5c-0.5,1.8-1.4,3.1-2.8,4.4c-0.1,0.1-0.2-0.1-0.2-0.2
				c0.8-1.5,1.3-2.8,1.6-4.7c0.2-1.3,0.2-2.9,0.2-5.1c0-0.8,0-1.2-0.1-1.9c1,0.4,1.2,0.5,2.2,1.1h7.2c0-0.2,0-0.4,0-0.5
				c-0.1-0.8-0.1-0.9-0.2-1.4c2.2,0.2,2.4,0.3,2.4,0.6c0,0.2-0.1,0.2-0.5,0.4c0,0.3,0,0.7,0.1,1h2.9c0.7-1,0.8-1.1,1-1.1
				c0.2,0,0.4,0.1,1.1,0.8c0.3,0.3,0.5,0.4,0.5,0.6c0,0.1-0.1,0.2-0.3,0.2H308.1z M305.9,501.5h4.6c0.9-1.1,1.2-1.2,1.3-1.2
				c0.2,0,0.4,0.2,1.4,0.9c0.4,0.3,0.6,0.5,0.6,0.6s-0.1,0.2-0.3,0.2h-15.8c-0.4,0-0.9,0-1.5,0.1l-0.2-0.7c0.7,0.1,1.1,0.2,1.6,0.2
				h2.1v-1.8c0-1,0-1.7-0.1-2.1c2.4,0.2,2.7,0.4,2.7,0.6c0,0.2-0.2,0.4-0.7,0.6v2.7h2.4v-2.7c0-0.9-0.1-1.6-0.1-2.1
				c2.4,0.2,2.6,0.4,2.6,0.6c0,0.2-0.2,0.4-0.6,0.5v1.3h2.6c0.9-1,1.1-1.2,1.3-1.2c0.2,0,0.4,0.2,1.3,0.8c0.4,0.3,0.5,0.5,0.5,0.6
				s-0.1,0.2-0.3,0.2h-5.4V501.5z M301.2,509.4c-0.6,1.6-1.5,2.8-2.8,3.8c-0.1,0.1-0.3-0.1-0.2-0.2c0.6-0.8,1-1.9,1.3-3
				c0.2-0.6,0.3-1.2,0.3-1.8c1.8,0.6,2,0.7,2,0.9C301.9,509.2,301.7,509.3,301.2,509.4z M303.7,507.8c0,1.1,0.1,4.2,0.1,4.7
				c0,0.4-0.1,0.7-0.4,1c-0.3,0.4-0.8,0.6-1.3,0.6c-0.4,0-0.4,0-0.5-0.5c-0.1-0.6-0.3-0.8-1.5-1.1c-0.1,0-0.1-0.3,0-0.3
				c0.5,0.1,1.2,0.1,1.6,0.1c0.3,0,0.3-0.1,0.3-0.4v-5h-1.2c-0.4,0-0.9,0-1.4,0.1l-0.2-0.7c0.6,0.1,1.1,0.2,1.6,0.2h3.1
				c0.6-0.8,0.8-1,1-1c0.2,0,0.4,0.2,1.1,0.7c0.3,0.3,0.5,0.4,0.5,0.6c0,0.1-0.1,0.2-0.3,0.2h-2.5V507.8z M305.9,511.6
				c-0.5,0-0.6-0.2-0.8-0.9c-0.2-1.1-0.4-1.7-0.8-2.2c-0.1-0.1,0-0.2,0.1-0.1c1.5,0.6,2.4,1.4,2.4,2.3
				C306.8,511.1,306.4,511.6,305.9,511.6z M310.3,504c-0.3,0-0.4-0.1-0.6-0.5c-0.2-0.5-0.5-0.9-1-1.1c-0.1,0-0.1-0.2,0-0.2
				c1.5,0,2.3,0.4,2.3,1.1C311,503.7,310.7,504,310.3,504z"/>
		</g>
		<path class="st1" d="M156.2,463.7c3.2-0.1,6.5,0.4,9.6,1.4c2.4,0.8,4.5,2.2,6.1,4.1c1.5,1.9,2.2,4.2,2.1,6.5c0,1.7-0.4,3.5-1.2,5
			c-0.7,1.3-1.7,2.5-3,3.4c-1.2,0.8-2.6,1.4-4.1,1.6c-1.4,0.3-2.9,0.2-4.2-0.2c1.6,0,3.1,0.2,4.6,0.7c1.7,0.5,3.3,1.2,4.8,2.2
			c1.6,1.1,2.9,2.6,3.8,4.3c1,2.1,1.6,4.4,1.5,6.8c0.1,3-0.7,6-2.3,8.6c-1.5,2.5-3.6,4.6-6.1,6.2c-2.7,1.6-5.6,2.8-8.6,3.4
			c-3.2,0.7-6.6,0.9-9.9,0.6c-3.4-0.3-6.6-1.2-9.7-2.5l0.1-0.7c2.8,0.1,5.5-0.3,8.2-1c2.5-0.7,4.8-1.8,6.8-3.3
			c1.9-1.4,3.5-3.2,4.7-5.3c1.2-2.1,1.8-4.6,1.7-7c0.1-2.4-0.6-4.8-2-6.8c-1.3-1.7-3-3-5-3.7c-1.9-0.8-3.9-1.2-6-1.2l0.1-0.7
			c4.2,0.1,8.2-2.1,10.2-5.9c1-1.9,1.4-4,1.2-6.1c-0.1-1.5-0.6-3-1.5-4.2c-0.8-1-1.9-1.8-3.1-2.2c-1.3-0.4-2.6-0.6-3.9-0.4
			c-2.5,0-4.8,1.4-6,3.7c-1.2,2.2-1.7,5.5-1.6,9.9h-0.7l-4-12.1c2.1-1.7,4.6-2.9,7.2-3.6C149.3,464.1,152.8,463.7,156.2,463.7z"/>
		<path class="st1" d="M187,516.2l-0.3-0.5c4.1-1.2,8.1-2.9,11.7-5.2c2.6-1.6,4.7-3.9,6.2-6.5c1.3-2.6,2.2-5.4,2.4-8.2
			c0.3-3.5,0.5-6.9,0.5-10.4c0-3.9-0.1-7.1-0.3-9.7c0-2-0.5-4-1.4-5.8c-0.8-1.3-2.2-2-3.7-1.9c-1.5-0.1-3,0.5-3.9,1.7
			c-1,1.3-1.6,2.8-1.8,4.5c-0.3,2-0.5,4-0.5,6c0,2.1,0.1,4.2,0.5,6.2c0.2,1.2,0.6,2.3,1.3,3.3c1,1.6,3,2.2,4.8,1.7
			c0.8-0.2,1.6-0.6,2.3-1l0.5,0.6c-0.7,1.5-1.7,2.7-3.1,3.6c-1.5,1-3.1,1.6-4.8,1.8c-1.8,0.3-3.7,0.2-5.5-0.2
			c-4-0.9-7.3-3.7-8.9-7.5c-1-2.4-1.4-5.1-1.3-7.7c0.1-3,0.9-5.9,2.3-8.5c1.6-2.7,3.9-4.8,6.6-6.2c3.6-1.7,7.4-2.5,11.4-2.4
			c6.9-0.1,12.1,1.7,15.8,5.5c3.7,3.7,5.5,9.6,5.5,17.6c0.1,4.6-0.7,9.1-2.2,13.4c-1.4,3.8-3.7,7.2-6.8,9.8
			c-3.3,2.7-7.2,4.6-11.3,5.6C197.7,516.8,192.3,517,187,516.2z"/>
		<path class="st1" d="M234.9,514.6c-3.5,0-6.3-2.8-6.3-6.3c0-3.5,2.8-6.3,6.3-6.3c3.5,0,6.3,2.8,6.3,6.3c0,1.6-0.7,3.2-1.8,4.4
			C238.2,513.9,236.5,514.6,234.9,514.6z"/>
		<path class="st1" d="M278.7,463.6l0.6,5.2L254.4,493h28c1,0.1,2.1-0.2,2.9-0.7c0.7-0.5,1.3-1.3,1.6-2.1h0.7l-2.2,10.1h-42.9v-0.7
			L278.7,463.6z M279.4,509.1c0,1,0.4,2,1.2,2.7c0.7,0.7,1.7,1.1,2.7,1.1h0.8v0.7h-23.7l0.1-0.7h0.7c1,0,2-0.4,2.8-1.1
			c0.7-0.7,1.2-1.7,1.1-2.7H279.4z M265,478.7l13.6-15.1h0.7v49.9H265V478.7z"/>
		<g class="st4">
			<path class="st5" d="M254.9,121c-0.1,0-0.2-0.2-0.1-0.2c5.5-3.9,7.6-8.1,7.6-15.5c0-0.6,0-0.9-0.1-1.7c2.6,0.2,2.9,0.3,2.9,0.7
				c0,0.2-0.1,0.3-0.7,0.6c0,0.6,0,1.2-0.1,1.8c0.3,2.6,1.1,4.9,2.3,6.9c1.5,2.4,3.7,4.2,6.5,5.2c0.1,0,0.1,0.2,0,0.2
				c-0.7,0.2-1,0.6-1.3,1.4c-0.1,0.3-0.2,0.4-0.4,0.4c-0.2,0-0.6-0.2-1-0.6c-2.1-1.7-3.9-3.9-5-6.4c-0.6-1.5-1-3.3-1.2-5.4
				C263.5,114.9,260.8,118.3,254.9,121z"/>
		</g>
		<path class="st1" d="M134.4,70c3.2-0.1,6.5,0.4,9.6,1.4c2.4,0.8,4.5,2.2,6.1,4.1c1.4,1.8,2.2,4.1,2.1,6.5c0,1.7-0.4,3.5-1.1,5
			c-0.7,1.4-1.7,2.5-3,3.4c-1.2,0.8-2.6,1.4-4.1,1.7c-1.4,0.3-2.9,0.2-4.2-0.2c1.6,0,3.1,0.3,4.6,0.7c1.7,0.5,3.3,1.2,4.7,2.2
			c1.6,1.1,2.8,2.6,3.7,4.3c1,2.1,1.6,4.4,1.5,6.8c0.1,3-0.7,6-2.3,8.7c-1.5,2.5-3.6,4.6-6.1,6.2c-2.7,1.6-5.6,2.8-8.6,3.4
			c-3.2,0.7-6.6,0.9-9.9,0.6c-3.4-0.3-6.6-1.2-9.7-2.6l0.1-0.7c2.8,0.1,5.5-0.3,8.2-1c2.5-0.7,4.8-1.8,6.8-3.3
			c1.9-1.4,3.5-3.2,4.7-5.3c1.2-2.1,1.7-4.6,1.7-7c0.1-2.4-0.6-4.8-2-6.8c-1.3-1.7-3-3-5-3.8c-1.9-0.8-3.9-1.2-6-1.2l0.1-0.7
			c4.2,0.1,8.2-2.1,10.2-5.8c1-1.9,1.5-4,1.2-6.1c-0.1-1.5-0.6-3-1.5-4.2c-0.8-1-1.9-1.8-3.1-2.2c-1.3-0.4-2.7-0.6-4-0.4
			c-2.5,0-4.8,1.4-6,3.7c-1.2,2.2-1.7,5.5-1.6,9.9h-0.7l-4-12.1c2.1-1.7,4.6-2.9,7.2-3.6C127.4,70.4,130.9,69.9,134.4,70z"/>
		<path class="st1" d="M165.1,122.5l-0.3-0.5c4.1-1.2,8.1-2.9,11.7-5.2c2.6-1.6,4.7-3.9,6.2-6.5c1.4-2.6,2.2-5.3,2.4-8.2
			c0.3-3.5,0.5-6.9,0.5-10.4c0-3.9-0.1-7.1-0.3-9.7c-0.1-2-0.5-4-1.4-5.8c-0.8-1.3-2.2-2.1-3.7-1.9c-1.5-0.1-2.9,0.6-3.9,1.8
			c-1,1.3-1.6,2.8-1.8,4.4c-0.3,2-0.5,4-0.5,6c0,2.1,0.1,4.2,0.5,6.2c0.2,1.2,0.6,2.3,1.3,3.3c1,1.5,3,2.2,4.8,1.7
			c0.8-0.2,1.6-0.6,2.3-1l0.5,0.6c-0.7,1.5-1.7,2.7-3.1,3.6c-1.5,1-3.1,1.6-4.8,1.8c-1.8,0.3-3.7,0.2-5.5-0.2
			c-4-0.9-7.4-3.8-8.9-7.6c-1-2.4-1.4-5.1-1.3-7.7c0.1-3,0.9-5.9,2.3-8.5c1.6-2.7,3.9-4.8,6.6-6.2c3.6-1.7,7.5-2.5,11.4-2.4
			c6.9-0.1,12.1,1.7,15.8,5.5c3.7,3.7,5.5,9.6,5.5,17.6c0.1,4.6-0.7,9.1-2.2,13.4c-1.4,3.8-3.7,7.2-6.8,9.8
			c-3.3,2.7-7.1,4.7-11.3,5.6C175.8,123.1,170.4,123.3,165.1,122.5z"/>
		<path class="st1" d="M243.4,68.4l0.3,0.5c-4.1,1.2-8.1,2.9-11.7,5.2c-2.6,1.6-4.7,3.9-6.2,6.5c-1.3,2.6-2.2,5.4-2.4,8.2
			c-0.3,3.5-0.5,6.9-0.5,10.4c0,3.9,0.1,7.1,0.3,9.7c0,2,0.5,4,1.4,5.8c0.7,1.3,2.2,2,3.6,1.9c1.5,0.1,2.9-0.5,3.9-1.7
			c1-1.3,1.6-2.9,1.8-4.5c0.6-4,0.6-8.1,0-12.2c-0.2-1.2-0.6-2.3-1.2-3.4c-0.4-0.7-1.1-1.2-1.8-1.5c-0.9-0.4-2-0.5-2.9-0.2
			c-0.8,0.2-1.6,0.6-2.3,1l-0.6-0.6c0.7-1.5,1.7-2.7,3.1-3.6c1.5-0.9,3.1-1.5,4.9-1.8c1.8-0.3,3.7-0.2,5.5,0.2
			c4,0.9,7.3,3.7,8.9,7.5c1,2.4,1.4,5.1,1.3,7.7c-0.1,3-0.9,5.9-2.3,8.5c-1.6,2.7-3.9,4.8-6.6,6.1c-3.6,1.6-7.5,2.5-11.4,2.4
			c-4,0.2-8-0.6-11.6-2.3c-3.2-1.6-5.7-4.3-7.2-7.6c-1.7-3.4-2.5-7.8-2.5-13.2c-0.1-4.6,0.7-9.1,2.2-13.4c1.4-3.8,3.7-7.2,6.8-9.8
			c3.3-2.7,7.2-4.6,11.4-5.5C232.7,67.9,238.1,67.7,243.4,68.4z"/>
		<g class="st4">
			<path class="st5" d="M139.3,34.9c-0.5,0.4-1.1,0.8-1.6,1.1c-0.1,0-0.1-0.1-0.1-0.2c0.9-1,1.7-2,2.3-3.1c0.3-0.6,0.6-1.1,0.7-1.6
				c1.4,0.7,1.5,0.7,1.5,0.9c0,0.2-0.1,0.2-0.5,0.3c-0.3,0.5-0.7,1.1-1.2,1.6c0.5,0.1,0.6,0.1,0.6,0.3c0,0.1-0.1,0.2-0.4,0.3v5.8
				c0,0.4-0.2,0.6-0.7,0.6c-0.3,0-0.6-0.1-0.6-0.5c0-0.4,0.1-1.5,0.1-3.7V34.9z M141.4,29.2c-1.2,1.5-2.1,2.2-3.5,2.9
				c-0.1,0-0.2-0.1-0.1-0.1c0.7-0.7,1.4-1.6,1.9-2.5c0.3-0.5,0.5-1,0.6-1.5c1.1,0.4,1.7,0.7,1.7,0.9C142,29.1,141.9,29.2,141.4,29.2
				z M146.6,39.2c0.5,0.1,1.1,0.2,1.7,0.2c0.7,0,1.3,0,2.5-0.2c0.1,0,0.1,0.1,0,0.2c-0.4,0.2-0.5,0.4-0.6,0.9
				c-0.1,0.3-0.1,0.4-0.2,0.4c-0.2,0-0.3,0-0.4,0c-2,0-3.1-0.2-4.2-0.8c-0.9-0.5-1.4-1.2-2-2.6c-0.5,1.4-1.3,2.4-2.5,3.4
				c-0.1,0-0.2-0.1-0.1-0.2c1.2-1.6,1.9-3.7,1.9-6.2c0-0.2,0-0.4,0-0.7c1.4,0.2,1.7,0.3,1.7,0.5c0,0.1-0.1,0.2-0.4,0.3
				c-0.1,0.9-0.2,1.7-0.4,2.4c0.6,1.1,1.2,1.6,1.8,1.9V32h-2.2c-0.3,0-0.5,0-0.8,0.1l-0.2-0.5c0.4,0.1,0.7,0.1,0.9,0.1h3.1
				c0.4-0.8,0.7-1.6,1-2.5c0.1-0.3,0.2-0.7,0.2-1c1.4,0.5,1.8,0.7,1.8,0.9s-0.1,0.2-0.5,0.2c-0.6,0.9-1.3,1.8-1.9,2.3h1.7
				c0.6-0.8,0.8-0.9,0.9-0.9c0.1,0,0.3,0.1,0.9,0.6c0.3,0.2,0.4,0.4,0.4,0.4c0,0.1,0,0.1-0.2,0.1h-3.8v3.1h1.3
				c0.6-0.7,0.8-0.9,0.9-0.9c0.1,0,0.3,0.1,0.9,0.6c0.3,0.2,0.4,0.3,0.4,0.4s0,0.1-0.2,0.1h-3.2V39.2z M144.5,31.2
				c-0.4,0-0.4-0.1-0.6-1.1c-0.2-0.6-0.4-1.2-0.7-1.6c0-0.1,0-0.2,0.1-0.1c1.4,0.5,2.1,1.2,2.1,1.9
				C145.3,30.8,144.9,31.2,144.5,31.2z"/>
			<path class="st5" d="M160.3,36.8c0.6,0.6,1.4,1,2.3,1.4c1.1,0.5,2.3,0.7,3.7,0.8c0.1,0,0.1,0.1,0,0.2c-0.5,0.2-0.6,0.3-1,1.2
				c-0.1,0.1-0.1,0.2-0.2,0.2c-0.1,0-0.4-0.1-0.7-0.2c-0.9-0.3-1.7-0.8-2.5-1.4c-0.7-0.5-1.2-1.1-1.8-1.8c0,1.8,0.1,3.1,0.1,3.5
				c0,0.4-0.2,0.5-0.8,0.5c-0.4,0-0.5-0.2-0.5-0.5c0-0.3,0.1-1.7,0.1-2.9c-1.2,1.3-3.1,2.3-5.5,2.8c-0.1,0-0.1-0.1-0.1-0.1
				c2.1-1,3.6-2.1,4.7-3.6h-3.3c-0.3,0-0.6,0-1,0.1l-0.2-0.5c0.4,0.1,0.8,0.1,1.1,0.1h4.3v-1.3h-2.7c-0.3,0-0.6,0-1,0.1l-0.2-0.5
				c0.4,0.1,0.8,0.1,1.1,0.1h2.8v-1.3h-3.5c-0.3,0-0.6,0-1,0.1l-0.2-0.5c0.4,0.1,0.8,0.1,1.1,0.1h2.3c-0.2-0.1-0.3-0.2-0.4-0.6
				c-0.1-0.4-0.4-0.9-0.7-1.2c-0.1,0,0-0.1,0.1-0.1c1.3,0.2,1.9,0.6,1.9,1.3c0,0.3-0.2,0.6-0.5,0.7h2.3c0.3-0.5,0.4-0.9,0.6-1.2
				c0.1-0.3,0.2-0.6,0.3-0.9c1.1,0.4,1.6,0.7,1.6,0.8s-0.1,0.2-0.6,0.2c-0.5,0.5-1,0.8-1.4,1h2.3c0.7-0.7,0.8-0.8,0.9-0.8
				c0.1,0,0.3,0.1,0.9,0.6c0.3,0.2,0.4,0.3,0.4,0.4c0,0.1,0,0.1-0.2,0.1h-5v1.3h2.2c0.6-0.7,0.8-0.8,0.9-0.8c0.1,0,0.3,0.1,0.8,0.5
				c0.2,0.2,0.4,0.3,0.4,0.4c0,0.1,0,0.1-0.2,0.1h-4v1.3h3.5c0.7-0.8,0.9-0.9,1-0.9c0.1,0,0.3,0.1,0.9,0.6c0.3,0.2,0.4,0.4,0.4,0.5
				c0,0.1,0,0.1-0.2,0.1H160.3z M157.7,29.1c0-0.6,0-0.7-0.1-1c1.6,0.2,1.7,0.3,1.7,0.4c0,0.1-0.1,0.2-0.4,0.4v2h1.2v-1.8
				c0-0.6,0-0.7-0.1-1c1.6,0.2,1.8,0.3,1.8,0.4c0,0.1-0.1,0.2-0.5,0.4v2h0.6c0.3-0.6,0.6-1.1,0.8-1.6c0.1-0.3,0.2-0.6,0.3-0.9
				c1.2,0.5,1.7,0.7,1.7,0.9c0,0.2-0.1,0.3-0.6,0.3c-0.6,0.6-1.2,1.1-1.7,1.3h1.6c0.6-0.7,0.8-0.8,0.9-0.8c0.1,0,0.3,0.1,0.9,0.6
				c0.3,0.2,0.4,0.3,0.4,0.4c0,0.1,0,0.1-0.2,0.1h-11.3c-0.3,0-0.6,0-1,0.1l-0.2-0.5c0.5,0.1,0.8,0.1,1.1,0.1h3.1V29.1z M156.2,30.6
				c-0.3,0-0.4-0.1-0.6-0.5c-0.2-0.6-0.4-1-0.8-1.4c-0.1,0,0-0.1,0.1-0.1c1.3,0.2,2,0.7,2,1.3C156.9,30.3,156.6,30.6,156.2,30.6z"/>
			<path class="st5" d="M173.6,39.6c-1.4,0.7-2.6,1-4.6,1.2c-0.1,0-0.1-0.1,0-0.2c1-0.4,2-0.9,2.8-1.4c0.4-0.3,0.7-0.6,1-0.9
				c1.3,0.6,1.6,0.8,1.6,1C174.4,39.5,174.2,39.6,173.6,39.6z M171.9,38.1c0,0.4-0.2,0.6-0.8,0.6c-0.4,0-0.6-0.1-0.6-0.5
				c0-0.6,0.1-1.3,0.1-3.6c0-0.9,0-1.9-0.1-2.8c0.7,0.3,0.8,0.4,1.5,0.7h6.3c0.5-0.5,0.6-0.6,0.7-0.6c0.1,0,0.3,0.1,0.8,0.5
				c0.3,0.2,0.3,0.3,0.3,0.4c0,0.1-0.1,0.2-0.4,0.4v0.9c0,2,0.1,3.4,0.1,3.9c0,0.4-0.2,0.6-0.8,0.6c-0.4,0-0.6-0.1-0.6-0.5v0
				L171.9,38.1L171.9,38.1z M172.5,31.4c0,0.4-0.3,0.5-0.8,0.5c-0.3,0-0.6-0.1-0.6-0.4c0-0.3,0-0.9,0-1.7c0-0.6,0-0.9,0-1.5
				c0.7,0.3,0.9,0.4,1.5,0.7h5c0.5-0.5,0.6-0.6,0.7-0.6c0.1,0,0.3,0.1,0.8,0.5c0.2,0.2,0.3,0.3,0.3,0.4c0,0.1-0.1,0.2-0.4,0.4V30
				c0,0.7,0,1.2,0,1.4c0,0.4-0.3,0.5-0.8,0.5c-0.4,0-0.6-0.1-0.6-0.5H172.5z M178.5,32.9h-6.6v1.4h6.6V32.9z M171.9,36h6.6v-1.4
				h-6.6V36z M171.9,37.7h6.6v-1.4h-6.6V37.7z M177.8,29.4h-5.3v1.7h5.3V29.4z M180,40.9c-0.3,0-0.4-0.1-0.8-0.4
				c-0.7-0.7-1.6-1.3-3-1.7c-0.1,0,0-0.2,0.1-0.2c3.1,0.1,4.3,0.6,4.3,1.6C180.6,40.6,180.3,40.9,180,40.9z"/>
			<path class="st5" d="M188.2,32.6c0,0.3,0,0.9,0,1.2c0,0.4-0.2,0.5-0.7,0.5c-0.4,0-0.5-0.1-0.5-0.5c0-0.1,0-0.5,0.1-1.3
				c-0.9,1.1-1.9,1.8-3.1,2.3c-0.1,0-0.1-0.1-0.1-0.1c1.1-0.8,1.9-1.8,2.5-3h-1c-0.3,0-0.6,0-1,0.1l-0.2-0.5
				c0.4,0.1,0.7,0.1,1.1,0.1h1.7v-1.8c0-0.5,0-0.8-0.1-1.3c1.3,0.1,1.7,0.2,1.7,0.4c0,0.1-0.1,0.2-0.4,0.3v2.4h1.2
				c0.4-0.6,0.6-0.7,0.7-0.7c0.1,0,0.3,0.1,0.8,0.5c0.2,0.2,0.3,0.3,0.3,0.4c0,0.1,0,0.1-0.2,0.1h-2.8v0.5c1.3,0.2,2,0.6,2,1.3
				c0,0.3-0.2,0.6-0.5,0.6c-0.3,0-0.4-0.1-0.7-0.6C188.6,33,188.4,32.7,188.2,32.6L188.2,32.6z M189.9,36.1c-0.2,0.7-0.5,1.5-1,2.1
				c0.6,0.3,0.9,0.7,0.9,1.1c0,0.4-0.3,0.6-0.6,0.6c-0.4,0-0.4,0-1.1-0.8c-0.9,0.9-2.2,1.5-4,1.8c-0.1,0-0.1-0.2,0-0.2
				c1.4-0.5,2.5-1.3,3.3-2.3c-0.3-0.2-0.7-0.4-1-0.6l-0.3,0.5c-0.2,0.3-0.3,0.3-0.6,0.3c-0.3,0-0.6-0.2-0.6-0.3c0-0.1,0-0.2,0.1-0.4
				c0.4-0.6,0.7-1.3,1-1.8h-0.8c-0.3,0-0.6,0-0.9,0.1l-0.2-0.5c0.4,0.1,0.7,0.1,1.1,0.1h1l0.1-0.2c0.2-0.5,0.3-0.8,0.4-1.2
				c1.4,0.3,1.5,0.3,1.5,0.5c0,0.1-0.1,0.2-0.4,0.3c-0.1,0.2-0.2,0.4-0.3,0.6h1.9c0.5-0.6,0.7-0.7,0.8-0.7c0.1,0,0.3,0.1,0.7,0.5
				c0.2,0.2,0.3,0.3,0.3,0.4c0,0.1,0,0.1-0.2,0.1H189.9z M185.9,31c-0.4,0-0.4-0.1-0.6-0.9c-0.1-0.5-0.3-0.9-0.5-1.2
				c0-0.1,0-0.1,0.1-0.1c1,0.3,1.6,0.8,1.6,1.5C186.5,30.8,186.2,31,185.9,31z M186.6,37.6c0.4,0.1,0.9,0.2,1.3,0.3
				c0.3-0.5,0.6-1.1,0.7-1.7h-1.3L186.6,37.6z M190.3,29.7c-0.6,0.6-1,1-1.7,1.5c-0.1,0-0.2,0-0.1-0.1c0.2-0.3,0.5-0.9,0.7-1.4
				c0.2-0.4,0.3-0.7,0.3-1c1,0.4,1.3,0.6,1.3,0.8C190.8,29.6,190.7,29.7,190.3,29.7z M195.8,31.8c-0.2,1.9-0.7,3.8-1.8,5.4
				c0.9,0.9,2,1.6,3.3,2.1c0.1,0,0.1,0.1,0,0.2c-0.4,0.2-0.5,0.3-0.6,1c-0.1,0.4-0.1,0.4-0.3,0.4c-0.1,0-0.4-0.2-0.7-0.4
				c-0.9-0.7-1.7-1.4-2.4-2.4c-1.1,1.3-2.5,2.2-4.2,2.8c-0.1,0-0.2-0.1-0.1-0.2c1.6-1,2.9-2.2,3.8-3.6c-0.6-1.2-0.9-2.5-1.2-3.8
				c-0.4,0.5-0.8,1-1.3,1.5c-0.1,0-0.2,0-0.1-0.1c0.8-1.3,1.5-3.1,1.8-4.7c0.1-0.7,0.2-1.3,0.2-1.9c1.6,0.4,1.8,0.4,1.8,0.6
				c0,0.2-0.1,0.3-0.6,0.3c-0.2,0.8-0.5,1.6-0.8,2.3h2.4c0.6-0.8,0.8-0.9,0.9-0.9c0.1,0,0.3,0.1,0.9,0.6c0.3,0.2,0.4,0.3,0.4,0.4
				c0,0.1,0,0.1-0.2,0.1H195.8z M192.5,31.8c-0.2,0.4-0.4,0.9-0.7,1.3c0.3,1.1,0.8,2.2,1.5,3.2c0.7-1.4,1-3,1.2-4.5H192.5z"/>
		</g>
		<path class="st5" d="M69.7,77.1c-3,0-5.5-2.5-5.5-5.5c0-3,2.5-5.5,5.5-5.5c3,0,5.5,2.5,5.5,5.5C75.3,74.6,72.8,77.1,69.7,77.1
			C69.8,77.1,69.7,77.1,69.7,77.1z M57.4,84.2v18.5c-0.1,1.3,0.9,2.5,2.3,2.6c1.3,0.1,2.5-0.9,2.6-2.3c0-0.1,0-0.2,0-0.3V87.5h1.1
			v41.3c-0.1,1.8,1.2,3.3,3,3.4c1.8,0.1,3.3-1.2,3.4-3c0-0.1,0-0.2,0-0.4v-24h1v24c0,1.8,1.4,3.2,3.2,3.2s3.2-1.4,3.2-3.2V87.5h1.1
			v15.2c-0.1,1.3,0.9,2.5,2.3,2.6c1.3,0.1,2.5-0.9,2.6-2.3c0-0.1,0-0.2,0-0.3V84.2c-0.3-3-2.6-5.3-5.6-5.6H63
			C60,78.9,57.7,81.2,57.4,84.2z"/>
	</g>
</g>
</svg>
