<svg enable-background="new 0 0 335 570.9" viewBox="0 0 335 570.9" xmlns="http://www.w3.org/2000/svg"><path d="m2.5 2.5h330v565.9h-330z" fill="#fff"/><path d="m330 5v560.9h-325v-560.9zm5-5h-335v570.9h335z" fill="#4aa064"/><path d="m0 383.7h335v1.8h-335z" fill="#4aa064"/><path clip-rule="evenodd" d="m108.8 276-83.4 11.7c-6.5-46 25.6-88.6 71.6-95.1 3.9-.5 7.8-.8 11.7-.8z" fill="#4aa064" fill-rule="evenodd"/><path clip-rule="evenodd" d="m108.8 276v-84.2c46.5 0 84.2 37.7 84.2 84.2s-37.7 84.2-84.2 84.2c-42.8 0-77.4-30.1-83.4-72.5z" fill="#333" fill-rule="evenodd"/><path d="m88.2 252.2c.7-.1 1.4.2 1.9.8.4.6.6 1.4.5 2.1 0 .8-.4 1.5-1 2.1-.7.5-1.5.8-2.3.7-.7.1-1.4-.2-1.9-.8-.4-.6-.6-1.4-.4-2.2.1-.8.5-1.5 1.1-2s1.3-.7 2.1-.7zm0 .7c-.2 0-.4.2-.6.6-.2.5-.4 1.1-.4 1.6-.1.5-.1 1.1 0 1.6.1.4.2.6.4.6s.5-.2.7-.6c.2-.5.3-1 .4-1.6.1-.5.1-1.1 0-1.6-.2-.4-.3-.6-.5-.6zm-.3 11.1-.7-.3 5.5-10.4c-.3.2-.6.3-.9.3s-.5 0-.8 0-.7-.1-1-.3l-.8-.4c-.3-.1-.6-.2-.8-.1l-.2-.6c.3 0 .7 0 1 .1.2.1.5.1.7.2s.4.2.6.3.4.1.6.2c.3 0 .6 0 .8-.1.3-.1.5-.2.7-.3l.6-.3.6.3zm6.1-5.8c.7 0 1.4.2 1.9.8.4.6.6 1.3.5 2.1 0 .8-.4 1.6-1 2.1-.7.5-1.5.8-2.4.7-.7.1-1.4-.2-1.9-.8-.4-.6-.6-1.4-.4-2.2.1-.8.5-1.5 1.1-2s1.4-.7 2.2-.7zm-.2.7c-.2 0-.4.2-.6.6-.2.5-.3 1.1-.4 1.6s-.1 1.1-.1 1.6c.1.4.2.6.4.6s.5-.2.7-.6c.2-.5.4-1 .4-1.6.1-.5.1-1.1 0-1.6 0-.4-.2-.6-.4-.6z" fill="#fff"/><path d="m51.7 251.2-1.7-4.7c.6-.5 1.2-.8 1.9-1.1.8-.3 1.6-.5 2.4-.7s1.7-.2 2.5-.2c1.3 0 2.6.2 3.8.6 1 .4 1.9 1 2.6 1.8s1 1.8 1 2.9c0 .8-.2 1.6-.5 2.3-.4.7-.8 1.4-1.4 2s-1.2 1.2-1.9 1.8c-.7.5-1.3 1-2 1.4l-1.8 1.1h4.9c.5 0 1-.1 1.4-.3s.8-.5 1.2-.9c.4-.5.7-1 1-1.5h.3l-1.8 7.3h-13.5v-.3c.8-.9 1.5-1.8 2.3-2.8s1.6-1.8 2.3-2.7 1.4-1.8 2-2.7c.6-.8 1-1.7 1.4-2.7.3-.8.5-1.7.5-2.6.1-1-.3-1.9-.9-2.6s-1.5-1-2.4-.8c-1 0-2 .6-2.5 1.5-.6 1.2-.9 2.6-.8 3.9z" fill="#fff"/><path d="m67.2 245 13.8-.1-3.3 7.7c-.2.5-.5 1.1-.7 1.8s-.5 1.5-.8 2.3-.5 1.6-.8 2.4l-.7 2.2c-.2.7-.4 1.3-.5 1.7h-4.4c.3-.5.7-1.1 1.1-1.9s.9-1.5 1.3-2.4l1.4-2.5c.5-.8.9-1.6 1.2-2.3s.7-1.3.9-1.8l1.4-2.9h-8.4c-.4 0-.9.1-1.2.4s-.6.7-.7 1.2h-.3z" fill="#fff"/><path d="m159.5 299.5c.7-.1 1.4.2 1.9.8.4.6.6 1.4.5 2.1 0 .8-.4 1.5-1 2.1-.7.5-1.5.8-2.4.8-.7.1-1.4-.2-1.9-.8-.4-.6-.6-1.4-.4-2.2.1-.8.5-1.5 1.1-2 .6-.6 1.4-.8 2.2-.8zm-.1.7c-.2 0-.4.2-.6.6-.2.5-.4 1.1-.4 1.6-.1.5-.1 1.1 0 1.6.1.4.2.6.4.6s.5-.2.7-.6c.2-.5.3-1 .4-1.6.1-.5.1-1.1 0-1.6-.1-.4-.3-.6-.5-.6zm-.2 11.1-.7-.3 5.5-10.5c-.3.2-.6.3-.9.3s-.5 0-.8 0-.7-.1-1-.3c-.3-.1-.5-.3-.8-.4s-.6-.2-.8-.1l-.2-.6c.3 0 .7 0 1 .1.2.1.5.1.7.3.2.1.4.2.6.3s.4.1.6.1c.3 0 .6 0 .8-.1.3-.1.5-.2.7-.3l.6-.3.6.3zm6.1-5.8c.7 0 1.4.2 1.9.8.4.6.6 1.3.5 2.1 0 .8-.4 1.6-1 2.1-.7.5-1.5.8-2.4.8-.7.1-1.4-.2-1.9-.8-.4-.6-.6-1.4-.4-2.2.1-.8.5-1.5 1.1-2 .6-.6 1.4-.8 2.2-.8zm-.2.7c-.2 0-.4.2-.6.6-.2.5-.3 1.1-.4 1.6s-.1 1.1-.1 1.6c.1.4.2.6.4.6s.5-.2.7-.6c.2-.5.4-1 .4-1.6.1-.5.1-1.1 0-1.6-.1-.4-.2-.6-.4-.6z" fill="#fff"/><path d="m123 292.3h13.8l-3.3 7.7c-.2.5-.5 1.1-.7 1.8s-.5 1.5-.8 2.3-.5 1.6-.8 2.4l-.7 2.2c-.2.7-.4 1.3-.5 1.7h-4.4c.3-.5.7-1.1 1.1-1.9s.9-1.5 1.3-2.4c.5-.8.9-1.7 1.4-2.5s.9-1.6 1.2-2.3.7-1.3.9-1.8l1.4-2.9h-8.3c-.4 0-.9.1-1.2.4s-.6.7-.7 1.2h-.3z" fill="#fff"/><path d="m144.3 291.9c1.2 0 2.4.2 3.6.5.9.3 1.7.8 2.3 1.5.5.7.8 1.5.8 2.4 0 .6-.1 1.3-.4 1.9-.3.5-.7.9-1.1 1.2-.5.3-1 .5-1.5.6s-1.1.1-1.6-.1c.6 0 1.1.1 1.7.2.6.2 1.2.4 1.8.8s1.1 1 1.4 1.6c.4.8.6 1.6.6 2.5 0 1.1-.3 2.2-.9 3.2-.6.9-1.3 1.7-2.3 2.3s-2.1 1-3.2 1.3c-1.2.3-2.4.3-3.7.2-1.2-.1-2.5-.4-3.6-1l.1-.3c1 0 2-.1 3-.4.9-.3 1.8-.7 2.5-1.2s1.3-1.2 1.7-2 .7-1.7.6-2.6c0-.9-.2-1.8-.7-2.5-.5-.6-1.1-1.1-1.9-1.4-.7-.3-1.5-.4-2.2-.4v-.3c1.6 0 3-.8 3.8-2.2.4-.7.5-1.5.4-2.3 0-.6-.2-1.1-.6-1.5-.3-.4-.7-.7-1.1-.8-.5-.2-1-.2-1.5-.2-.9 0-1.8.5-2.2 1.4-.5 1.2-.7 2.4-.6 3.7h-.3l-1.5-4.5c.8-.6 1.7-1.1 2.7-1.3 1.3-.2 2.6-.3 3.9-.3z" fill="#fff"/><g enable-background="new" fill="#fff"><path d="m69.2 225.9c-.3 1.5-.9 2.9-1.8 4.1 2 .8 3.1 1.7 3.1 2.4 0 .5-.2.8-.6.8-.2 0-.4-.1-.7-.4-.8-.8-1.6-1.5-2.5-2.1-1.4 1.4-3.3 2.2-6 2.5-.1 0-.1-.2 0-.2 2.2-.6 3.9-1.5 5.1-2.9-.6-.4-1.3-.7-2-1-.1.2-.2.4-.3.5-.2.2-.3.3-.5.3-.4 0-.7-.1-.7-.3 0-.1.1-.3.2-.4.5-.8 1.1-2 1.6-3.2h-2c-.3 0-.7 0-1.2.1l-.1-.4c.5.1.9.1 1.3.1h2.1c.1-.2.2-.4.2-.7.3-1 .6-2 .6-2.6 1.4.3 1.6.3 1.6.5 0 .1-.1.2-.5.3-.3.9-.5 1.7-.8 2.4h4.3c.6-.8.8-.9.9-.9s.2.1.8.6c.3.2.4.3.4.4s0 .1-.2.1zm-3.8 0c-.4 1-.8 2-1.3 2.9 1 .3 1.7.5 2.3.7.8-1.1 1.3-2.3 1.6-3.6z"/><path d="m76.4 226.1c0 .8-.3 1.4-.9 1.4-.3 0-.5-.3-.5-.6s.1-.4.3-.6c.5-.4.7-.6.7-1.5 0-.1.1-.1.1 0 .2.4.3.9.3 1.3zm1.4-1.5v8.2c0 .4-.2.5-.6.5s-.5-.1-.5-.4c0-.9.1-3.6.1-9.1 0-.8 0-1-.1-1.5 1.5.2 1.5.2 1.5.3s-.1.2-.4.3zm.8 1.8c-.3 0-.4-.2-.4-.7s-.1-.9-.3-1.2c0 0 0-.1.1-.1.7.4 1.1.9 1.1 1.4 0 .4-.2.6-.5.6zm4.3 2.4h.8c.6-.8.7-.9.8-.9s.2.1.8.6c.3.2.4.3.4.4s0 .1-.2.1h-2.7v3.3h1.3c.6-.8.8-.9.9-.9s.2.1.9.6c.3.2.4.3.4.4s0 .1-.2.1h-6.6c-.3 0-.6 0-1 .1l-.1-.4c.4.1.7.1 1.1.1h2.2v-3.3h-1.4c-.2 0-.5 0-.8.1l-.1-.4c.3.1.6.1.9.1h1.5v-2.8h-1.4c-.4.9-1 1.7-1.8 2.4 0 0-.1-.1-.1-.1.5-.9.9-2 1.2-3.1.1-.6.2-1.1.3-1.7 1.5.4 1.5.4 1.5.6 0 .1 0 .2-.4.3-.2.5-.3 1-.5 1.4h1.3v-1.6c0-.7 0-1.3-.1-1.7 1.5.1 1.7.3 1.7.4s-.1.2-.4.3v2.6h1.2c.5-.7.7-.8.8-.8s.2.1.8.6c.3.2.3.3.3.4s0 .1-.2.1h-3v2.7z"/></g><g enable-background="new" fill="#fff"><path d="m137.1 277c-.2.8-.6 1.5-1.1 2-.9 1-2.3 1.6-4.2 1.8-.1 0-.1-.1 0-.1 1.3-.4 2.4-1 3.1-1.8.5-.5.9-1.2 1.1-1.9h-2.7c-.3 0-.6 0-1 .1l-.1-.5c.4.1.8.1 1.1.1h2.8c.1-.4.2-.9.2-1.4 1.2.1 1.5.2 1.5.4 0 .1-.1.2-.4.3 0 .3-.1.5-.1.7h3.1c.4-.5.5-.5.6-.5s.2.1.6.5c.2.2.3.3.3.3 0 .1 0 .1-.3.3-.3 1.7-.4 2.4-.7 2.8-.2.2-.4.4-.6.5s-.5.1-.8.1c-.2 0-.3-.1-.3-.3-.1-.5-.3-.6-1.4-.9-.1 0 0-.2 0-.2.9.1 1.5.1 1.7.1.3 0 .5-.1.7-.5s.3-1 .4-2.1zm-3-1.8c0 .3-.2.5-.6.5-.3 0-.5-.1-.5-.4 0-.5 0-.9 0-2.8 0-.7 0-1.5-.1-2.2.6.2.7.3 1.3.6h5.5c.4-.5.5-.5.6-.5s.2.1.7.4c.2.2.3.2.3.3s0 .2-.3.4v.6c0 1.6.1 2.8.1 3.1s-.2.5-.7.5c-.3 0-.5-.1-.5-.4v-.3h-5.8zm2.3-2.5v-1.7h-2.3v1.6h2.3zm-2.3 2h2.3v-1.7h-2.3zm5.8-3.7h-2.4v1.6h2.4zm0 1.9h-2.4v1.7h2.4z"/><path d="m147.1 273.7c0 .8-.3 1.4-.9 1.4-.3 0-.5-.3-.5-.6s.1-.4.3-.6c.5-.4.7-.6.7-1.5 0-.1.1-.1.1 0 .2.5.3.9.3 1.3zm1.4-1.5v8.2c0 .4-.2.5-.6.5s-.5-.1-.5-.4c0-.9.1-3.6.1-9.1 0-.8 0-1-.1-1.5 1.5.2 1.5.2 1.5.3s-.1.2-.4.3zm.8 1.9c-.3 0-.4-.2-.4-.7s-.1-.9-.3-1.2c0 0 0-.1.1-.1.7.4 1.1.9 1.1 1.4 0 .3-.2.6-.5.6zm4.3 2.3h.8c.6-.8.7-.9.8-.9s.2.1.8.6c.3.2.4.3.4.4s0 .1-.2.1h-2.7v3.3h1.3c.6-.8.8-.9.9-.9s.2.1.9.6c.3.2.4.3.4.4s0 .1-.2.1h-6.6c-.3 0-.6 0-1 .1l-.1-.4c.4.1.7.1 1.1.1h2.2v-3.3h-1.4c-.2 0-.5 0-.8.1l-.1-.4c.3.1.6.1.9.1h1.5v-2.8h-1.4c-.4.9-1 1.7-1.8 2.4 0 0-.1-.1-.1-.1.5-.9.9-2 1.2-3.1.1-.6.2-1.1.3-1.7 1.5.4 1.5.4 1.5.6 0 .1 0 .2-.4.3-.2.5-.3 1-.5 1.4h1.3v-1.6c0-.7 0-1.3-.1-1.7 1.5.1 1.7.3 1.7.4s-.1.2-.4.3v2.6h1.2c.5-.7.7-.8.8-.8s.2.1.8.6c.3.2.3.3.3.4s0 .1-.2.1h-3v2.7z"/></g><path d="m294.4 256.1c-.1 0-.2-.1-.1-.2 3.8-2.7 5.3-5.7 5.3-10.8 0-.4 0-.7-.1-1.2 1.8.2 2 .2 2 .5 0 .1-.1.2-.5.4 0 .4 0 .9-.1 1.3.2 1.8.7 3.4 1.6 4.8 1.1 1.7 2.6 2.9 4.6 3.7.1 0 .1.2 0 .2-.5.1-.7.4-.9 1-.1.2-.1.3-.3.3s-.4-.2-.7-.4c-1.5-1.2-2.8-2.7-3.5-4.5-.4-1.1-.7-2.3-.9-3.8-.4 4.4-2.2 6.8-6.4 8.7z" fill="#333"/><path d="m219.8 237.8-2.7-7.2c.9-.7 1.8-1.3 2.9-1.7 1.2-.5 2.4-.8 3.7-1s2.6-.4 3.9-.4c2 0 4 .3 5.8 1 1.6.6 3 1.5 4.1 2.8 1 1.2 1.5 2.8 1.5 4.4 0 1.2-.3 2.5-.8 3.6-.6 1.1-1.3 2.2-2.1 3.1-.9 1-1.9 1.9-2.9 2.7s-2 1.5-3.1 2.2l-2.7 1.7h7.6c.7 0 1.5-.1 2.2-.5.7-.3 1.3-.8 1.8-1.4.6-.7 1.1-1.5 1.5-2.4h.4l-2.7 11.2h-20.8v-.4c1.1-1.4 2.3-2.8 3.5-4.2s2.4-2.8 3.5-4.2c1.1-1.3 2.1-2.7 3.1-4.2.9-1.3 1.6-2.7 2.2-4.1.5-1.3.8-2.6.8-4 .1-1.5-.4-2.9-1.4-4.1-1-1-2.4-1.5-3.8-1.3-1.6.1-3 .9-3.8 2.3-1 1.8-1.4 3.9-1.3 6z" fill="#4aa064"/><path d="m246.9 257.5-.2-.3c2.4-.7 4.6-1.7 6.7-3 1.5-.9 2.7-2.2 3.5-3.7s1.3-3.1 1.4-4.7c.2-2 .3-4 .3-5.9 0-2.2 0-4.1-.2-5.5 0-1.1-.3-2.3-.8-3.3-.4-.7-1.2-1.2-2.1-1.1-.9 0-1.7.3-2.2 1-.5.8-.9 1.6-1 2.5-.2 1.1-.3 2.3-.3 3.4 0 1.2.1 2.4.3 3.6.1.7.4 1.3.7 1.9.6.9 1.7 1.3 2.7 1 .5-.1.9-.3 1.3-.6l.3.3c-.4.8-1 1.5-1.8 2s-1.8.9-2.8 1c-1.1.2-2.1.1-3.2-.1-2.3-.5-4.2-2.1-5.1-4.3-.6-1.4-.8-2.9-.7-4.4 0-1.7.5-3.4 1.3-4.9.9-1.5 2.2-2.6 3.8-3.4 2-1 4.3-1.4 6.5-1.4 3.9-.1 6.9 1 9 3.1s3.1 5.5 3.1 10.1c0 2.6-.4 5.2-1.3 7.7-.8 2.2-2.1 4.1-3.9 5.6-1.9 1.6-4.1 2.7-6.5 3.2-2.7.6-5.8.7-8.8.2z" fill="#4aa064"/><path d="m270.8 256v-.4h.8c.6 0 1.2-.2 1.6-.6s.7-.9.6-1.5v-20.2c.1-.8-.2-1.6-.7-2.2-.5-.4-1.2-.6-1.9-.6h-.7v-.5c.6 0 1.3-.1 2.3-.2s2-.3 3.1-.5 2.1-.4 3.2-.8c.9-.3 1.8-.6 2.6-1.1h.4v26c0 .6.2 1.1.7 1.5.4.4 1 .6 1.5.6h.8v.4z" fill="#4aa064"/><path d="m264.1 214.3 2.8-24.3h-45.5l-2.7 24.3z" fill="#333"/><g enable-background="new" fill="#fff"><path d="m235.8 204.4c-.2.8-.6 1.4-1 1.9-.9.9-2.2 1.5-4 1.7-.1 0-.1-.1 0-.1 1.3-.4 2.2-.9 2.9-1.7.5-.5.8-1.1 1-1.8h-2.6c-.3 0-.6 0-.9.1l-.2-.5c.4.1.7.1 1 .1h2.7c.1-.4.2-.9.2-1.4 1.2.1 1.4.2 1.4.4 0 .1-.1.2-.4.3 0 .2-.1.5-.1.7h2.9c.4-.4.5-.5.6-.5s.2.1.6.4c.2.2.3.2.3.3s0 .1-.3.3c-.3 1.6-.4 2.3-.7 2.6-.1.2-.4.4-.6.5s-.5.1-.8.1c-.2 0-.3-.1-.3-.2-.1-.4-.3-.6-1.3-.9-.1 0 0-.2 0-.2.9.1 1.4.1 1.6.1.3 0 .5-.1.7-.4.1-.3.3-1 .4-2zm-2.8-1.7c0 .3-.2.4-.6.4-.3 0-.5-.1-.5-.4 0-.4 0-.9 0-2.7 0-.7 0-1.4-.1-2.1.6.2.7.3 1.2.6h5.3c.4-.4.5-.5.6-.5s.2.1.6.4c.2.1.3.2.3.3s0 .2-.3.4v.6c0 1.5.1 2.6.1 3s-.2.5-.6.5c-.3 0-.5-.1-.5-.4v-.3h-5.5zm2.1-2.4v-1.6h-2.1v1.6zm-2.1 1.9h2.2v-1.6h-2.2zm5.5-3.5h-2.3v1.6h2.3zm0 1.8h-2.3v1.6h2.3z"/><path d="m245.3 201.3c0 .7-.3 1.3-.8 1.3-.3 0-.5-.2-.5-.6 0-.3.1-.4.3-.6.5-.3.7-.6.7-1.4 0-.1.1-.1.1 0 .1.5.2.9.2 1.3zm1.3-1.4v7.8c0 .3-.2.5-.6.5s-.5-.1-.5-.4c0-.9.1-3.4.1-8.6 0-.8 0-1-.1-1.4 1.4.2 1.4.2 1.4.3s-.1.2-.4.3v1.5zm.8 1.7c-.3 0-.4-.1-.4-.7 0-.4-.1-.9-.3-1.1 0 0 0-.1.1-.1.7.4 1 .8 1 1.3 0 .4-.2.6-.4.6zm4 2.3h.8c.5-.7.7-.8.8-.8s.2.1.8.6c.3.2.3.3.3.4s0 .1-.1.1h-2.5v3.2h1.3c.6-.7.7-.8.8-.8s.2.1.8.6c.3.2.4.3.4.4s0 .1-.1.1h-6.3c-.3 0-.6 0-1 .1l-.1-.4c.4.1.7.1 1 .1h2.1v-3.2h-1.4c-.2 0-.4 0-.7.1l-.1-.4c.3.1.6.1.8.1h1.4v-2.6h-1.4c-.4.9-1 1.6-1.7 2.2 0 0-.1-.1-.1-.1.5-.9.9-1.9 1.1-2.9.1-.5.2-1.1.2-1.6 1.4.4 1.4.4 1.4.5s0 .1-.4.3c-.1.5-.3.9-.5 1.3h1.2v-1.6c0-.7 0-1.2-.1-1.6 1.5.1 1.6.3 1.6.4s-.1.2-.4.3v2.5h1.2c.5-.7.6-.8.7-.8s.2.1.7.5c.2.2.3.3.3.4s0 .1-.1.1h-2.8v2.5z"/></g><path d="m307.9 209.8c-.1-.6-.4-1.1-.7-1.7-.5-.8-1.1-1.5-1.9-2.1-.6-.4-1.1-.7-1.8-1-.9-.4-1.8-.8-2.7-1.1-.8-.3-1.5-.6-2.2-1-.2-.1-.4-.3-.6-.4-.2-.2-.4-.4-.6-.7s-.2-.6-.3-.9c0-.3 0-.5 0-.7 0-.6.1-1.3.2-1.9.4-.5.8-1 1.1-1.6.4-.7.7-1.4 1-2.2l.6-.3c.5-.3.9-.8 1.2-1.3.4-.7.7-1.4.8-2.1.1-.2.1-.5.1-.7 0-.5-.1-.9-.3-1.4-.1-.3-.3-.5-.5-.8.1-.4.2-.9.3-1.5.2-.9.3-1.9.3-2.8 0-.7-.1-1.3-.2-2-.1-.5-.3-1-.5-1.5-.3-.8-.8-1.4-1.4-2-.7-.6-1.4-1-2.2-1.2-.4-.4-.7-.8-1.2-1.2-.6-.5-1.4-.9-2.1-1.1s-1.5-.3-2.2-.3c-.4 0-.8 0-1.2 0s-.7.1-.9.1c-.4.1-.7.2-1.1.3-.3.1-.6.2-1 .4-.1.1-.4.1-.6.3-.6.3-1.1.6-1.6 1-1.1.8-2 1.8-2.6 2.9-.4.7-.7 1.4-.9 2.2-.2.9-.4 1.8-.4 2.7 0 .6.1 1.3.2 1.9v.1.3.4s0 .1 0 .1v.1l.2.7c-.2.3-.4.5-.6.9-.2.5-.3 1-.4 1.5 0 .2 0 .5.1.7.1.5.3 1 .5 1.5.3.6.7 1.1 1.1 1.6.3.3.6.5 1 .7.3.8.6 1.5 1 2.2.3.6.6 1.1 1.1 1.6.1.6.2 1.2.2 1.9v.7c0 .2-.1.4-.2.6-.1.3-.3.6-.5.8-.3.3-.6.5-.9.6-.4.2-.8.4-1.2.6-.8.3-1.7.6-2.6 1-.7.3-1.4.6-2 1-.5.3-1 .6-1.4 1-.7.6-1.2 1.4-1.6 2.3-.4 1.1-.6 2.2-.6 3.3 0 .2 0 .3.1.5.1.1.1.3.2.4.2.3.4.5.7.7.6.4 1.3.8 2 1 1.7.6 3.5 1 5.2 1.2 2.7.4 5.5.5 8.2.5 2.4 0 4.9-.1 7.3-.4 1.3-.1 2.7-.4 4-.7.7-.2 1.5-.4 2.2-.7.4-.2.8-.3 1.2-.6.2-.1.5-.3.7-.4.3-.2.5-.4.8-.7.1-.1.2-.3.2-.4.1-.2.1-.3.1-.5.1-.9 0-1.7-.2-2.4zm-17.7.6-4.9-6.2c.2-.1.5-.3.7-.5s.5-.4.7-.7l3.5 1.6-.8 1.2 1.2 1.2zm-3-8.2c.1-.3.2-.7.3-1.1 0-.3 0-.6 0-.9 0-.8-.1-1.6-.3-2.4v-.2l-.1-.1c-.4-.4-.7-.9-1-1.4-.4-.7-.7-1.5-1-2.3l-.1-.3-.3-.1c-.2-.1-.4-.2-.6-.3-.3-.2-.6-.5-.8-.9-.3-.5-.5-1.1-.7-1.7 0-.1 0-.3 0-.4 0-.3.1-.6.2-.9.1-.2.3-.4.5-.6.2.3.4.7.7.9.3.3.2.2.3.1 0 0 .4-.5 2.2-4.1 3.7.8 10.2-4.8 10.2-4.8.1 1.2.6 2.4 1.3 3.4 1.2 1.6 1.9 5.2 1.9 5.2s.2-.3.4-.7c.1.2.3.3.3.5.1.2.2.5.2.8v.4c-.1.4-.2.8-.4 1.2s-.5.8-.8 1.1c-.3.2-.6.4-.9.5l-.3.1-.1.3c-.3.8-.6 1.5-1 2.3-.3.5-.6 1-1 1.4l-.1.1v.2c-.2.8-.3 1.6-.3 2.3v.9c0 .3.1.7.2 1v.1l-4.2 2.2zm6.2 8.4-.5-3.4 1.2-1.2-.8-1.3 3.2-1.7c.1.1.2.2.3.3.3.3.7.6 1.1.8z" fill="#333"/><path d="m294.4 354.8c-.1 0-.2-.1-.1-.2 3.8-2.7 5.3-5.7 5.3-10.8 0-.4 0-.7-.1-1.2 1.8.2 2 .2 2 .5 0 .1-.1.2-.5.4 0 .4 0 .9-.1 1.3.2 1.8.7 3.4 1.6 4.8 1.1 1.7 2.6 2.9 4.6 3.7.1 0 .1.2 0 .2-.5.1-.7.4-.9 1-.1.2-.1.3-.3.3s-.4-.2-.7-.4c-1.5-1.2-2.8-2.7-3.5-4.5-.4-1.1-.7-2.3-.9-3.8-.4 4.4-2.2 6.8-6.4 8.7z" fill="#333"/><path d="m220.6 354.7v-.4h.8c.6 0 1.1-.2 1.6-.6.4-.4.6-.9.6-1.5v-20.3c.1-.8-.2-1.6-.7-2.2-.5-.4-1.2-.6-1.9-.6h-.7v-.4c.6 0 1.3-.1 2.3-.2s2-.3 3.1-.5 2.1-.5 3.2-.8c.9-.3 1.8-.6 2.6-1.1h.4v26c0 .6.2 1.1.7 1.5.4.4 1 .6 1.5.6h.8v.4z" fill="#4aa064"/><path d="m249.9 326.2c2.4-.1 4.7.6 6.7 1.8 1.9 1.2 3.3 3 4.2 5.1 2 4.9 2 10.4 0 15.3-2.7 6-9.7 8.8-15.7 6.1-2.7-1.2-4.9-3.4-6.1-6.1-2-4.9-2-10.4 0-15.3.9-2.1 2.4-3.8 4.3-5.1s4.3-1.9 6.6-1.8zm0 2c-1.4 0-2.4 1-3 3.1-1.3 6.3-1.3 12.7 0 19 .7 2 1.7 3.1 3 3.1s2.3-1 3-3.1c1.3-6.3 1.3-12.7 0-19-.6-2.1-1.6-3.1-3-3.1z" fill="#4aa064"/><path d="m282.8 333.5-12.3 1-.8 3.3c2.2-.6 4.5-.8 6.8-.6 1.8.2 3.5.7 5 1.7 1.3.8 2.3 2 3 3.4.7 1.5.9 3 .8 4.6 0 1.8-.6 3.6-1.6 5.1-1 1.4-2.4 2.6-3.9 3.5-1.6.9-3.4 1.5-5.2 1.8s-3.7.4-5.5.1c-1.7-.2-3.4-.7-5-1.5l.1-.4c.9 0 1.7-.1 2.6-.2 1.1-.2 2.1-.4 3.2-.8s2.2-.9 3.1-1.5 1.8-1.4 2.4-2.3c.7-.9 1-2 1.1-3.1.2-1.3-.3-2.7-1.2-3.6-1.1-.9-2.4-1.4-3.8-1.4-1.9 0-3.7.3-5.5 1.1l-.4-.2 3.2-15.4 11.9-1c.7 0 1.4-.2 2-.6.5-.4.9-.9 1.2-1.4h.4z" fill="#4aa064"/><path d="m264.1 313 2.8-24.3h-45.5l-2.7 24.3z" fill="#4aa064"/><path d="m306.9 306.2c-1-1.4-2.4-2.5-4.1-3-.7-.3-1.5-.5-2.1-.6s-1.2-.3-1.6-.5c-.6-.2-1.2-.5-1.8-.9-.2-.1-.4-.3-.5-.5-.1-.1-.1-.2-.1-.3v-2.4c1.2-1.3 2.1-2.9 2.5-4.6.2-.1.3-.2.5-.3.4-.3.8-.8 1-1.2.4-.7.6-1.5.8-2.2.1-.4.2-.9.2-1.3s-.1-.8-.3-1.1c-.2-.4-.5-.6-.9-.8 1.4-7.3-2.9-12.9-8.6-12.6-5.2-1.2-8.5-.9-9 3.8-.4 1.2-.4 2.6.1 3.8-.3.9-.4 1.9-.4 2.9v2.2c-.5.1-.9.5-1.1.9-.2.3-.3.7-.3 1.1s.1.9.2 1.3c.2 1 .6 1.9 1.1 2.8.2.3.4.5.7.7.2.1.3.2.5.3.4 1.7 1.3 3.3 2.5 4.6v2.4c0 .1-.1.2-.1.3-.3.3-.6.6-1 .8s-.9.4-1.4.6-1.3.4-2.2.6c-1.6.4-3 1.1-4.3 2.1-.7.6-1.3 1.3-1.6 2.2-.4 1-.7 2.1-.6 3.2v.9c0 .2.1.4.2.5.2.3.4.5.7.7.7.4 1.4.8 2.2 1 4.3 1.4 8.8 2 13.2 1.9 3.9 0 7.7-.4 11.5-1.4 1.2-.3 2.3-.7 3.4-1.2.4-.2.7-.4 1-.6.1-.1.2-.2.3-.4s.2-.3.2-.5c0-.3 0-.6 0-.9.2-1.7-.1-3.1-.8-4.3zm-20.3-3.9c.3-.2.6-.5.9-.8s.4-.7.4-1.1v-2.9l-.2-.2c-1.3-1.2-2.1-2.8-2.5-4.5l-.1-.4-.4-.1c-.2-.1-.4-.2-.5-.3-.3-.2-.5-.5-.6-.8-.3-.6-.6-1.3-.7-2-.1-.3-.2-.7-.2-1 0-.2 0-.4.1-.5l.3-.3h.3.7v-3.3c0-.4 0-.7.1-1.1 1.5 2.1 4.3 4.1 9 4.9-.7-2-1.3-4.1-1.7-6.2 0 0 3.1 4.6 7.9 5v.7h.7c.1 0 .3 0 .4.1.1 0 .2.1.2.2.1.2.1.3.1.5 0 .3-.1.7-.2 1-.2.8-.5 1.6-1 2.4-.1.2-.3.3-.4.4-.2.1-.4.2-.5.3l-.4.1-.1.4c-.3 1.7-1.2 3.3-2.5 4.5l-.2.2v2.9c0 .4.1.8.4 1.1.4.4.8.8 1.3 1.1.2.1.5.3.8.4l-2.5 2.5c-1.2.6-2.4.9-3.8.9-1.3 0-2.6-.3-3.7-.9l-2.5-2.5c.3-.2.7-.4 1.1-.7z" fill="#333"/><path d="m283 292.8s.7 8.1-2.3 10.6c0 0 8.9-1.1 6.2-5.6l-2.6-5-1.5-1.1z" fill="#333"/><path d="m300.2 292.8s-.7 8.1 2.3 10.6c0 0-8.9-1.1-6.2-5.6l2.6-5 1.5-1.1z" fill="#333"/><g enable-background="new" fill="#fff"><path d="m238.5 299.8c-.3 1.4-.8 2.7-1.7 3.9 1.9.8 3 1.6 3 2.3 0 .5-.2.7-.5.7-.2 0-.4-.1-.6-.4-.8-.8-1.6-1.5-2.4-2-1.3 1.3-3.2 2.1-5.7 2.4-.1 0-.1-.2 0-.2 2.1-.6 3.7-1.4 4.9-2.7-.6-.4-1.3-.7-1.9-1-.1.2-.2.3-.3.5-.2.2-.3.3-.5.3-.4 0-.7-.1-.7-.3 0-.1.1-.2.2-.4.5-.7 1-1.9 1.5-3h-1.9c-.3 0-.7 0-1.1.1l-.1-.4c.5.1.8.1 1.2.1h2c.1-.2.2-.4.2-.6.3-1 .6-1.9.6-2.5 1.4.3 1.5.3 1.5.5 0 .1-.1.2-.4.3-.2.8-.5 1.6-.8 2.3h4.1c.6-.7.7-.8.8-.8s.2.1.8.6c.3.2.3.3.3.4s0 .1-.1.1h-2.4zm-3.7 0c-.3.9-.8 1.9-1.2 2.8.9.3 1.6.4 2.2.7.8-1 1.2-2.2 1.5-3.5z"/><path d="m245.3 300c0 .7-.3 1.3-.8 1.3-.3 0-.5-.2-.5-.6 0-.3.1-.4.3-.6.5-.3.7-.6.7-1.4 0-.1.1-.1.1 0 .1.5.2.9.2 1.3zm1.3-1.4v7.8c0 .3-.2.5-.6.5s-.5-.1-.5-.4c0-.9.1-3.4.1-8.6 0-.8 0-1-.1-1.4 1.4.2 1.4.2 1.4.3s-.1.2-.4.3v1.5zm.8 1.7c-.3 0-.4-.1-.4-.7 0-.4-.1-.9-.3-1.1 0 0 0-.1.1-.1.7.4 1 .8 1 1.3 0 .4-.2.6-.4.6zm4 2.3h.8c.5-.7.7-.8.8-.8s.2.1.8.6c.3.2.3.3.3.4s0 .1-.1.1h-2.5v3.2h1.3c.6-.7.7-.8.8-.8s.2.1.8.6c.3.2.4.3.4.4s0 .1-.1.1h-6.3c-.3 0-.6 0-1 .1l-.1-.4c.4.1.7.1 1 .1h2.1v-3.2h-1.4c-.2 0-.4 0-.7.1l-.1-.4c.3.1.6.1.8.1h1.4v-2.6h-1.4c-.4.9-1 1.6-1.7 2.2 0 0-.1-.1-.1-.1.5-.9.9-1.9 1.1-2.9.1-.5.2-1.1.2-1.6 1.4.4 1.4.4 1.4.5s0 .1-.4.3c-.1.5-.3.9-.5 1.3h1.2v-1.6c0-.7 0-1.2-.1-1.6 1.5.1 1.6.3 1.6.4s-.1.2-.4.3v2.5h1.2c.5-.7.6-.8.7-.8s.2.1.7.5c.2.2.3.3.3.4s0 .1-.1.1h-2.8v2.5z"/></g><g fill="#333"><g enable-background="new"><path d="m118.7 157.5c-.4 1.7-1 3.4-2.1 4.7 2.3 1 3.6 2 3.6 2.8 0 .6-.2.9-.6.9-.3 0-.4-.1-.8-.4-1-1-1.9-1.8-2.9-2.5-1.7 1.6-3.9 2.6-7 2.9-.1 0-.1-.2 0-.2 2.5-.7 4.6-1.8 6-3.4-.8-.4-1.5-.8-2.4-1.2-.1.2-.2.4-.4.6-.2.3-.3.4-.6.4-.5 0-.9-.2-.9-.4 0-.1.1-.3.2-.5.6-.9 1.3-2.4 1.8-3.7h-2.3c-.4 0-.8 0-1.3.1l-.2-.5c.6.1 1 .1 1.5.1h2.5c.1-.3.2-.5.3-.8.4-1.2.7-2.3.8-3 1.7.3 1.8.4 1.8.6s-.1.3-.5.4c-.3 1-.6 1.9-.9 2.8h5.1c.7-.9.9-1 1-1s.3.1 1 .7c.3.3.4.4.4.5s0 .1-.2.1zm-4.6 0c-.4 1.2-.9 2.3-1.5 3.4 1.2.3 1.9.5 2.7.8.9-1.3 1.5-2.7 1.9-4.2z"/><path d="m127 157.7c0 .9-.3 1.7-1 1.7-.4 0-.6-.3-.6-.7 0-.3.1-.5.4-.7.6-.4.8-.7.9-1.7 0-.1.1-.1.1 0 .1.4.2.9.2 1.4zm1.7-1.7v9.6c0 .4-.2.6-.8.6-.4 0-.6-.1-.6-.5 0-1.1.1-4.2.1-10.6 0-1 0-1.2-.1-1.8 1.8.2 1.8.2 1.8.4 0 .1-.1.2-.4.4zm.9 2.1c-.4 0-.4-.2-.4-.8 0-.5-.1-1.1-.4-1.4 0-.1 0-.1.1-.1.9.5 1.3 1 1.3 1.7-.1.3-.3.6-.6.6zm5 2.8h1c.7-.9.8-1 .9-1s.3.1 1 .7c.3.3.4.4.4.5s0 .1-.2.1h-3.1v3.9h1.6c.7-.9.9-1 1-1s.3.1 1 .7c.3.3.4.4.4.5s0 .1-.2.1h-7.8c-.4 0-.7 0-1.2.1l-.2-.5c.5.1.9.1 1.2.1h2.6v-3.9h-1.7c-.3 0-.5 0-.9.1l-.2-.5c.4.1.7.1 1 .1h1.7v-3.2h-1.7c-.5 1.1-1.2 1.9-2.1 2.7-.1 0-.2-.1-.1-.1.6-1.1 1.1-2.3 1.4-3.6.2-.7.3-1.3.3-2 1.8.5 1.8.5 1.8.7s0 .2-.5.3c-.2.6-.4 1.1-.6 1.6h1.5v-1.9c0-.9 0-1.5-.1-2 1.8.2 2 .3 2 .5 0 .1-.2.3-.5.4v3h1.4c.6-.9.8-1 .9-1s.3.1.9.7c.3.3.4.4.4.5s0 .1-.2.1h-3.5v3.3z"/><path d="m143.9 160.1c-.5.4-1.1.8-1.6 1.1-.1 0-.1-.1-.1-.2.9-1 1.7-2 2.3-3.1.3-.6.6-1.1.7-1.6 1.4.7 1.5.7 1.5.9s-.1.2-.5.3c-.3.5-.7 1.1-1.2 1.6.5.1.6.1.6.3 0 .1-.1.2-.4.3v5.8c0 .4-.2.6-.7.6-.3 0-.6-.1-.6-.5s.1-1.5.1-3.7v-1.8zm2-5.7c-1.2 1.5-2.1 2.2-3.5 2.9-.1 0-.2-.1-.1-.1.7-.7 1.4-1.6 1.9-2.5.3-.5.5-1 .6-1.5 1.1.4 1.7.7 1.7.9s-.1.3-.6.3zm5.2 10c.5.1 1.1.2 1.7.2.7 0 1.3 0 2.5-.2.1 0 .1.1 0 .2-.4.2-.5.4-.6.9-.1.3-.1.4-.2.4-.2 0-.3 0-.4 0-2 0-3.1-.2-4.2-.8-.9-.5-1.4-1.2-2-2.6-.5 1.4-1.3 2.4-2.5 3.4-.1 0-.2-.1-.1-.2 1.2-1.6 1.9-3.7 1.9-6.2 0-.2 0-.4 0-.7 1.4.2 1.7.3 1.7.5 0 .1-.1.2-.4.3-.1.9-.2 1.7-.4 2.4.6 1.1 1.2 1.6 1.8 1.9v-6.8h-2.2c-.3 0-.5 0-.8.1l-.2-.5c.4.1.7.1.9.1h3.1c.4-.8.7-1.6 1-2.5.1-.3.2-.7.2-1 1.4.5 1.8.7 1.8.9s-.1.2-.5.2c-.6.9-1.3 1.8-1.9 2.3h1.7c.6-.8.8-.9.9-.9s.3.1.9.6c.3.2.4.4.4.4 0 .1 0 .1-.2.1h-3.8v3.1h1.3c.6-.7.8-.9.9-.9s.3.1.9.6c.3.2.4.3.4.4s0 .1-.2.1h-3.2v4.2zm-2.1-8c-.4 0-.4-.1-.6-1.1-.2-.6-.4-1.2-.7-1.6 0-.1 0-.2.1-.1 1.4.5 2.1 1.2 2.1 1.9-.1.5-.4.9-.9.9z"/><path d="m166.2 162c.6.6 1.4 1 2.3 1.4 1.1.5 2.3.7 3.7.8.1 0 .1.1 0 .2-.5.2-.6.3-1 1.2-.1.1-.1.2-.2.2s-.4-.1-.7-.2c-.9-.3-1.7-.8-2.5-1.4-.7-.5-1.2-1.1-1.8-1.8 0 1.8.1 3.1.1 3.5s-.2.5-.8.5c-.4 0-.5-.2-.5-.5s.1-1.7.1-2.9c-1.2 1.3-3.1 2.3-5.5 2.8-.1 0-.1-.1-.1-.1 2.1-1 3.6-2.1 4.7-3.6h-3.3c-.3 0-.6 0-1 .1l-.2-.5c.4.1.8.1 1.1.1h4.3v-1.3h-2.9c-.3 0-.6 0-1 .1l-.2-.5c.4.1.8.1 1.1.1h2.8v-1.3h-3.5c-.3 0-.6 0-1 .1l-.2-.5c.4.1.8.1 1.1.1h2.3c-.2-.1-.3-.2-.4-.6s-.4-.9-.7-1.2c-.1 0 0-.1.1-.1 1.3.2 1.9.6 1.9 1.3 0 .3-.2.6-.5.7h2.3c.3-.5.4-.9.6-1.2.1-.3.2-.6.3-.9 1.1.4 1.6.7 1.6.8s-.1.2-.6.2c-.5.5-1 .8-1.4 1h2.3c.7-.7.8-.8.9-.8s.3.1.9.6c.3.2.4.3.4.4s0 .1-.2.1h-5v1.3h2.2c.6-.7.8-.8.9-.8s.3.1.8.5c.2.2.3.3.3.4s0 .1-.2.1h-4v1.3h3.5c.7-.8.9-.9 1-.9s.3.1.9.6c.3.2.4.4.4.5s0 .1-.2.1zm-2.6-7.7c0-.6 0-.7-.1-1 1.6.2 1.7.3 1.7.4s-.1.2-.4.4v2h1.2v-1.8c0-.6 0-.7-.1-1 1.6.2 1.8.3 1.8.4s-.1.2-.5.4v2h.6c.3-.6.6-1.1.8-1.6.1-.3.2-.6.3-.9 1.2.5 1.7.7 1.7.9s-.1.3-.6.3c-.6.6-1.2 1.1-1.7 1.3h1.6c.6-.7.8-.8.9-.8s.3.1.9.6c.3.2.4.3.4.4s0 .1-.2.1h-11.3c-.3 0-.6 0-1 .1l-.2-.5c.5.1.8.1 1.1.1h3.1zm-1.5 1.5c-.3 0-.4-.1-.6-.5-.2-.6-.4-1-.8-1.4-.1 0 0-.1.1-.1 1.3.2 2 .7 2 1.3 0 .3-.3.7-.7.7z"/><path d="m181 164.8c-1.4.7-2.6 1-4.6 1.2-.1 0-.1-.1 0-.2 1-.4 2-.9 2.8-1.4.4-.3.7-.6 1-.9 1.3.6 1.6.8 1.6 1-.1.2-.3.3-.8.3zm-1.8-1.5c0 .4-.2.6-.8.6-.4 0-.6-.1-.6-.5 0-.6.1-1.3.1-3.6 0-.9 0-1.9-.1-2.8.7.3.8.4 1.5.7h6.3c.5-.5.6-.6.7-.6s.3.1.8.5c.3.2.3.3.3.4s-.1.2-.4.4v.9c0 2 .1 3.4.1 3.9 0 .4-.2.6-.8.6-.4 0-.6-.1-.6-.5zm.7-6.7c0 .4-.3.5-.8.5-.3 0-.6-.1-.6-.4s0-.9 0-1.7c0-.6 0-.9 0-1.5.7.3.9.4 1.5.7h5c.5-.5.6-.6.7-.6s.3.1.8.5c.2.2.3.3.3.4s-.1.2-.4.4v.3 1.4c0 .4-.3.5-.8.5-.4 0-.6-.1-.6-.5zm5.9 1.5h-6.6v1.4h6.6zm-6.6 3.1h6.6v-1.4h-6.6zm0 1.7h6.6v-1.4h-6.6zm5.9-8.4h-5.3v1.7h5.3zm2.2 11.6c-.3 0-.4-.1-.8-.4-.7-.7-1.6-1.3-3-1.7-.1 0 0-.2.1-.2 3.1.1 4.3.6 4.3 1.6 0 .4-.2.7-.6.7z"/><path d="m195.9 163.7c1.1-.3 2.2-.6 3.4-1 .1 0 .1.1.1.2-1.4 1-2.9 1.7-5.2 2.5-.1.4-.2.5-.4.5s-.3-.3-.8-1.7c.3 0 .6-.1.9-.1.2 0 .4-.1.7-.1v-8.6c0-1 0-1.1-.1-1.7 1.7.2 1.9.3 1.9.4s-.1.2-.5.4v3.7h1.4c.7-.8.9-.9 1-.9s.3.1.9.6c.3.2.4.4.4.5s0 .1-.2.1h-3.4v5.2zm5.2-4.4c.8-.5 1.5-1.2 2.1-1.9.4-.5.7-1 1-1.4 1.1.7 1.6 1 1.6 1.2 0 .1-.1.3-.7.2-1.2 1-2.5 1.7-3.9 2.3v4.2c0 .6.1.6 1.7.6.7 0 .9 0 1.2-.2.4-.2.6-.8 1-2.2 0-.1.2-.1.2 0 0 .6-.1 1.5-.1 1.8 0 .2 0 .2.2.3.3.2.4.3.4.5 0 .4-.3.7-.9.8-.5.1-1.2.2-2.1.2-2.5 0-3-.2-3-1.6 0-.3 0-.5 0-1.6 0-2.9 0-5.9-.1-8.8 1.5.2 1.8.2 1.8.4s-.1.3-.4.4z"/><path d="m216.6 162.9v2.8c0 .3-.3.5-.8.5-.4 0-.6-.1-.6-.5 0-.3.1-1.1.1-2.8h-4.3c-.3 0-.6 0-1 .1l-.2-.5c.5.1.8.1 1.1.1h4.4v-.1c0-.7 0-1-.1-1.6 1.6.2 1.8.2 1.8.4 0 .1-.1.2-.5.4v.8h3.5c.7-.9.9-1 1-1s.3.1 1 .7c.3.3.4.4.4.5s0 .1-.2.1h-5.6zm-5.6-1.9c0 .4-.1.6-.3.6s-.4-.3-.9-1.5c.4-.1.8-.2 1.2-.3.9-.3 1.8-.6 2.5-1 .1 0 .2.1.1.2-.4.5-1.4 1.3-2.6 2zm4.3-5.7c1 .4 1.3.5 1.3.7s0 .2-.5.2c-.5.5-.8.8-1.2 1.1.3.3.5.5.5.9s-.2.7-.6.7c-.3 0-.4-.1-.6-.7-.2-.5-.4-.9-.9-1.3-.1 0 0-.1.1-.1.4.1.8.2 1.1.4.1-.3.3-.5.4-.8s.2-.6.3-.9h-4.2c-.3 0-.6 0-1 .1l-.2-.5c.4.1.8.1 1.1.1h4.2v-1c0-.2 0-.5-.1-.8 1.7.2 1.9.3 1.9.5 0 .1-.2.3-.5.4v.9h3.3c.8-.8.9-1 1-1s.3.1.9.7c.3.3.4.4.4.5s0 .1-.2.1h-6.5zm-3.1 3.2c-.4 0-.5-.1-.7-.9-.2-.7-.5-1.1-.9-1.5-.1-.1 0-.1.1-.1 1.5.4 2.3 1 2.3 1.7-.1.4-.4.8-.8.8zm5.3 1.4c-.1-.3-.3-.5-.6-.8 0-.1 0-.1.1-.1 1.2.4 1.9 1 1.9 1.7 0 .4-.3.7-.7.7-.3 0-.4-.1-.6-.9 0-.1-.1-.2-.1-.3-1 .4-2.2.7-3.7.9-.1.3-.1.4-.2.4-.2 0-.3-.2-.6-1.5h1.4c.7-.8 1.3-1.6 1.8-2.4.2-.4.4-.8.6-1.1 1.2.6 1.4.8 1.4 1s0 .2-.6.2c-1.3 1.2-2 1.9-2.6 2.4.9-.2 1.7-.2 2.5-.2zm3.4-2.9c-.8.7-1.8 1.2-2.7 1.6-.1 0-.2-.1-.1-.1.4-.4 1-1.1 1.4-1.7.3-.4.4-.7.5-1 1.1.6 1.4.8 1.4 1 .1.1 0 .2-.5.2zm0 4.2c-.3 0-.5-.1-.9-.8-.4-.6-.7-1-1.3-1.4-.1 0 0-.2.1-.1 1.9.3 2.8.8 2.8 1.6-.1.4-.3.7-.7.7z"/></g><g enable-background="new"><path d="m139.8 419.1h3.3c.8-1 1-1.1 1.1-1.1s.3.1 1.1.8c.4.3.5.4.5.5s0 .1-.2.1h-5.8v.2c0 2.7.1 3.8.1 4.9 0 .4-.3.6-.9.6-.4 0-.6-.1-.6-.5s.1-2.6.1-5v-.2h-4.1c-.4 0-.8 0-1.3.1l-.2-.5c.6.1 1 .1 1.5.1h4.1v-5.5h-3.5c-.4 0-.8 0-1.3.1l-.2-.5c.6.1 1 .1 1.4.1h7.8c.7-.9.9-1 1-1s.3.1 1 .7c.3.3.4.4.4.5s0 .1-.2.1h-5.2v5.5zm-3.6-.9c-.4 0-.5-.2-.7-1-.2-1.1-.4-1.8-1-2.7 0-.1.1-.1.1-.1 1.6.9 2.4 1.9 2.4 2.9 0 .5-.3.9-.8.9zm7.5-2.8c-.9 1.5-1.8 2.5-3.1 3.3-.1 0-.2-.1-.1-.1.6-.8 1.3-2 1.7-3.1.2-.5.3-.9.4-1.3 1.2.5 1.7.8 1.7 1 0 .1-.2.1-.6.2z"/><path d="m154.5 416.6c.4-.8.8-1.7 1-2.5.2-.7.3-1.3.3-1.8 1.6.4 1.9.5 1.9.7s-.1.3-.5.3c-.3.6-.5 1.2-.8 1.7h4.1c.5-.6.6-.7.8-.7.1 0 .3.1.8.6.3.2.3.3.3.4s0 .1-.4.4c-.1 4.1-.2 6-.6 7.5-.2.5-.4.9-.7 1.2-.4.3-.8.5-1.3.5-.3 0-.3 0-.4-.4s-.5-.8-1.6-1.1c-.1 0-.1-.2 0-.2 1.1.1 1.4.1 1.6.1.6 0 .8 0 .9-.3.5-.9.7-2.9.8-7.8h-4.4c-.7 1.2-1.6 2.1-2.5 2.8-.1 0-.2 0-.1-.1.2-.2.5-.7.8-1.3-.1.1-.1.1-.2.1h-1.6v3.8c.6-.2 1.3-.4 1.8-.6.1 0 .1.1.1.1-1.4 1.1-2.2 1.6-3.9 2.5 0 .4-.1.6-.3.6s-.5-.5-.9-1.7c.3 0 .7-.1 1.2-.3.3-.1.5-.1.8-.2v-4.2h-.9c-.2 0-.4 0-.7.1l-.2-.5c.3.1.6.1.8.1h1v-2.2c0-.7 0-1.2-.1-1.7 1.7.2 1.8.3 1.8.5 0 .1-.2.3-.5.4v3h.1c.4-.7.6-.8.7-.8s.3.1.7.5c.2.2.3.4.3.5zm.8 5.8c0 .4-.1.6-.3.6s-.4-.3-.9-1.7c.3 0 .7-.1 1.2-.2 1.3-.2 3-.6 4.3-1.1.1 0 .1.1.1.1-1.5 1-2.4 1.5-4.4 2.3zm2.2-4.5c.6-.7.7-.8.8-.8s.3.1.8.6c.2.2.3.3.3.4s0 .1-.2.1h-3.7c-.2 0-.4 0-.6.1l-.2-.5c.3.1.5.1.7.1z"/><path d="m176.6 420.8c.8-.9.9-1 1-1s.3.1 1 .7c.3.3.4.4.4.5s0 .1-.2.1h-4.8v3.5c0 .4-.3.6-.8.6-.4 0-.6-.1-.6-.5s.1-1.4.1-3.6h-4.9c-.3 0-.6 0-1 .1l-.2-.5c.5.1.8.1 1.1.1h1.2v-1.9c0-.7 0-1.4-.1-2.1.7.3.8.3 1.5.7h2.3v-2.6h-2.6c-.8 1.3-1.8 2.3-3.2 3.1-.1 0-.2-.1-.1-.1.9-.9 1.9-2.5 2.4-4 .2-.6.4-1.1.4-1.6 1.5.4 1.9.6 1.9.8s-.2.3-.6.3c-.2.4-.4.8-.6 1.2h5.9c.7-.9.9-1 1-1s.3.1 1 .7c.3.3.4.4.4.5s0 .1-.2.1h-4.3v2.6h1.7c.7-.8.8-.9.9-.9s.3.1 1 .6c.3.3.4.4.4.5s-.1.1-.2.1h-3.8v.5 2.5zm-4-3.1h-2.4v3h2.4z"/><path d="m187.4 415.8h1c.5-.6.6-.7.7-.7s.3.1.7.5c.2.2.3.3.3.4s0 .1-.2.1h-5.6c-.3 0-.5 0-.9.1l-.2-.5c.4.1.7.1 1 .1v-1.4c0-.5 0-.9-.1-1.2 1.5.2 1.6.3 1.6.4s-.1.2-.4.3v1.8h.9v-2.2c0-.4 0-.9-.1-1.3 1.5.1 1.6.3 1.6.4s-.1.2-.4.3v1.1h.6c.4-.6.6-.7.7-.7s.3.1.7.5c.2.2.3.3.3.4s0 .1-.2.1h-2.1v1.5zm1 1.9s-.1.1-.2.1c-.3.5-.6 1-1 1.4 0 .1-.1 0-.1-.1.1-.4.2-.8.3-1.3.1-.3.1-.6.1-.8.5.2.8.3.8.4 0-.3 0-.6 0-.9 1.3.2 1.4.2 1.4.3s-.1.2-.3.3v1.2 6.2c0 .3-.2.4-.6.4-.3 0-.5-.1-.5-.4v-.5h-3.6v.5c0 .4-.2.5-.6.5-.3 0-.5-.1-.5-.4 0-.6.1-2.6.1-6.5 0-.7 0-1.2 0-1.7 1.3.2 1.4.2 1.4.3s-.1.2-.3.3v6.6h3.6zm-1.4 2.6c.9.7 1.2 1.2 1.2 1.7 0 .3-.1.4-.3.4-.3 0-.4-.1-.4-.7-.1-.3-.2-.7-.4-1.1v2.6c0 .3-.2.4-.5.4s-.4-.1-.4-.4c0-.2 0-1.1.1-2-.4.7-.7 1-1.2 1.5-.1 0-.2 0-.1-.1.5-.7.9-1.8 1.1-2.7h-.4c-.2 0-.3 0-.5.1l-.2-.5c.3.1.5.1.7.1h.5v-2c0-.5 0-.6-.1-1.1 1.1.1 1.2.1 1.2.3 0 .1 0 .1-.3.3v2.5h.3c.2-.3.3-.4.4-.4s.2.1.4.3c.1.1.2.2.2.3s0 .1-.2.1h-1.1zm-1.5-1.2c-.2 0-.3-.1-.3-.5 0-.6-.1-.8-.3-1.3 0-.1 0-.1.1-.1.6.4.9 1 .9 1.4 0 .3-.1.5-.4.5zm4.2-1.4c-.1 0-.2-.1-.1-.1.8-.9 1.5-2.3 2-3.7.2-.6.3-1.1.4-1.7 1.6.4 1.7.4 1.7.6 0 .1-.1.2-.4.3.3.6.7 1.3 1.3 1.9.6.7 1.4 1.2 2 1.5.1 0 0 .1 0 .2-.3.1-.5.4-.7.8-.1.2-.1.2-.2.2s-.2-.1-.4-.3c-.4-.3-.7-.8-1.2-1.6-.4-.7-.6-1.4-1-2.5-.9 2.1-2 3.6-3.4 4.4zm1.2 1.8c-.3 0-.5 0-.9.1l-.2-.6c.4.1.8.1 1.1.1h3.1c.4-.5.5-.6.6-.6s.3.1.7.4c.2.2.3.3.3.4s0 .1-.3.4v.9 1.8c0 .4-.1.7-.3.9s-.5.3-.9.3c-.2 0-.2-.1-.3-.3-.1-.5-.3-.6-1-.9-.1 0-.1-.2 0-.2.6.1.7.1 1.1.1.2 0 .2 0 .2-.2v-2.8h-1.6v1.8 3.4c0 .4-.3.6-.8.6-.4 0-.5-.2-.5-.4 0-.3 0-1.3 0-3.3v-2h-.3zm2.1-2.4c.4-.5.5-.6.6-.6s.3.1.7.4c.2.1.3.3.3.4s0 .1-.2.1h-2.4c-.3 0-.5 0-.9.1l-.2-.5c.4.1.7.1 1.1.1z"/></g><path d="m67.6 470.5c-.3-1.2-1.1-2.3-2.1-3-.4-.3-.9-.6-1.4-.8-.7-.3-1.5-.6-2.2-.9-.6-.2-1.3-.5-1.9-.8-.2-.1-.3-.2-.5-.3-.2-.2-.4-.3-.5-.6-.1-.2-.2-.5-.2-.7 0-.1 0-.3 0-.4 0-.6.1-1.1.2-1.7.3-.4.6-.8.8-1.3.3-.6.6-1.2.8-1.8.2-.1.3-.2.5-.3.4-.3.7-.6 1-1 .3-.5.6-1.1.7-1.7 0-.2.1-.4.1-.6 0-.4-.1-.8-.2-1.1-.1-.2-.2-.4-.4-.6.1-.3.2-.7.3-1.2.1-.8.2-1.5.2-2.3 0-.6 0-1.1-.2-1.6-.1-.4-.2-.8-.4-1.2-.3-.6-.6-1.2-1.1-1.6-.5-.5-1.2-.8-1.8-1-.2-.3-.5-.5-.8-.8-.2-.2-.5-.3-.7-.5-.4-.2-.7-.3-1.1-.4s-.8-.1-1.2-.1c-.6 0-1.2 0-1.8.1-.2 0-.5 0-.6.1l-.6.1h-.2-.2-.4c-.4-.1-.8-.2-1.2-.3l-.4-.1-.2-.1h-.1s-.1 0-.2 0h-.1-.2-.3l-.1.1-.2.2c-.1.1-.3.2-.4.4-.3.2-.5.5-.7.8-.1.2-.2.3-.3.5s-.2.3-.2.5c-.3.8-.5 1.6-.7 2.4-.1.7-.2 1.3-.2 2 0 .9.1 1.7.3 2.6v.1.2s0 .2 0 .3 0 .1 0 .1v.1l.1.6c-.2.2-.4.4-.5.7-.2.4-.3.8-.3 1.2 0 .2 0 .4.1.6.1.4.2.8.4 1.2.2.5.5.9.9 1.2.3.2.5.4.8.5.2.6.5 1.2.8 1.8.2.4.5.9.9 1.2.1.6.2 1.1.2 1.7 0 .3-.1.6-.2.9-.1.2-.2.4-.4.6s-.5.4-.7.5l-.2.1c-.2.1-.5.2-.8.3-.6.3-1.4.5-2.1.8-.6.2-1.1.5-1.7.8-.4.2-.8.5-1.2.8-.6.5-1 1.1-1.3 1.8-.3.8-.5 1.7-.5 2.7 0 .1 0 .3.1.4s.1.2.2.3c.2.2.4.4.6.5.5.4 1.1.6 1.6.8 1.4.5 2.8.8 4.3 1 2.2.3 4.5.4 6.7.4 2 0 4-.1 6-.3 1.1-.1 2.2-.3 3.2-.6.6-.1 1.2-.3 1.8-.5.3-.1.7-.3 1-.5.2-.1.4-.2.6-.4l.6-.6c.1-.1.1-.2.2-.4 0-.1.1-.3.1-.4-.1-.4-.1-1-.2-1.5zm-18.2-22.7c3 .7 9-.6 9-.6.1 1 .5 2 1.1 2.8.3.5.6 1 .8 1.6h-.3c-.1 0-.2-.1-.2-.2s-.2-.2-.4-.2c-.7-.1-1.3-.1-2-.1-2.3.1-2.2.3-3.1.3s-.8-.2-3.1-.3c-.7 0-1.3 0-2 .1-.2 0-.4.1-.4.2s0 .2-.2.2h-.1c.4-1.2.8-2.5.9-3.8zm9.9 5s0 1.4-.9 1.8c-.3.2-.7.3-1.1.2-.4 0-.8-.1-1.1-.3s-.6-.5-.7-.9c0-.1 0-.2-.1-.3-.1-.3-.3-1 .2-1.3.6-.3 1.2-.4 1.9-.3.6-.1 1.2.1 1.7.3 0 .3.1.6.1.8zm-6.2.7c0 .1 0 .2-.1.3-.1.4-.3.7-.7.9-.3.2-.7.3-1.1.3s-.8-.1-1.1-.2c-.9-.5-.9-1.8-.9-1.8 0-.2 0-.5.2-.7.5-.3 1.1-.4 1.7-.3.6 0 1.3.1 1.9.3.4.2.2.9.1 1.2zm.1 17-3.6-4.9.1-.1c.2-.2.4-.3.5-.5l2.9 1.3-.6 1 1 1zm-2.5-6.1c.1-.3.2-.6.2-.9 0-.2 0-.3 0-.5 0-.7-.1-1.4-.2-2.1v-.1l-.1-.1c-.3-.3-.6-.7-.8-1.1-.3-.6-.6-1.2-.8-1.8l-.1-.2-.2-.1c-.2-.1-.3-.1-.5-.2-.3-.2-.5-.4-.7-.7-.3-.4-.4-.9-.5-1.4 0-.1 0-.2 0-.3 0-.2 0-.5.1-.7s.2-.4.4-.5c.3.4.5.7.5.8.3.2.3-.3.2-1 0-.4 0-.8.2-1.2v.2c0 .1.1.1.2.1s.2 0 .2.1c0 1 .5 1.9 1.3 2.4 1.3.8 2.9.4 3.7-.9 0 0 0-.1.1-.1.3-.7.3-1.3.7-1.3s.4.6.7 1.3c.7 1.3 2.3 1.8 3.6 1.1 0 0 .1 0 .1-.1.8-.5 1.3-1.4 1.2-2.4 0-.1.1-.1.2-.1s.2-.1.2-.1v-.7c.3.8.5 1.7.7 2.6l.3-.6c.1.1.2.3.3.4.1.2.1.4.2.6v.3c-.1.3-.2.7-.3 1-.2.3-.4.6-.7.9-.2.2-.5.3-.7.4l-.2.1-.1.2c-.2.6-.5 1.2-.8 1.8-.2.4-.5.8-.8 1.1l-.1.1v.1c-.2.7-.2 1.4-.2 2.1 0 .4.1.9.2 1.3l-3.4 1.8zm5 6.4-.3-2.4 1-1-.6-1 2.6-1.4c.1.1.2.2.2.3.2.1.3.3.5.4z"/><path d="m58.8 458c-.5-.2-.9-.6-1.2-1-.6-1.2-2.1-1.7-3.3-1.1-1.2-.6-2.7-.1-3.3 1.1-.3.4-.7.8-1.2 1 .7.7 1.8.8 2.7.4.8-.2 1.4-.7 1.8-1.5.4.7 1 1.3 1.8 1.5.9.4 2 .2 2.7-.4z"/><path d="m102 469.5c-.6-1-1.4-1.8-2.5-2.2-.8-.4-1.6-.7-2.5-.9-.5-.2-1-.3-1.6-.4-.1 0-.2-.1-.3-.1v-.5c1-1 1.6-2.2 1.9-3.5.1-.1.3-.1.4-.2.3-.3.6-.6.8-1 .3-.5.5-1.1.6-1.7.1-.3.2-.7.2-1 0-.1 0-.3-.1-.4.2-.1.3-.3.4-.5.5-.7.7-1.6.7-2.4 0-.7-.1-1.4-.3-2.1-.4-1.9-1.4-3.6-2.8-4.8-.7-.6-1.5-1-2.3-1.4 0-.2.1-.4.1-.7-.1-2-1.8-3.5-3.7-3.4-1.8.1-3.3 1.5-3.4 3.4 0 .2 0 .4.1.7-.8.3-1.6.8-2.3 1.4-1.4 1.3-2.4 2.9-2.8 4.8-.2.7-.3 1.4-.3 2.1 0 .9.2 1.7.7 2.4.1.2.3.3.4.5v.4c0 .3.1.7.2 1 .2.7.5 1.5.9 2.1.2.2.3.4.6.6.1.1.2.1.4.2.3 1.3 1 2.5 1.9 3.5v.5s-.1 0-.2.1c-.2.1-.5.1-.7.2-.3.1-.7.1-1 .2-.4.1-1 .3-1.6.5-1 .3-1.9.9-2.7 1.7-.9 1-1.4 2.4-1.3 3.8v.7c0 .1.1.3.2.4.1.2.3.4.5.5.5.3 1 .5 1.5.7 3 .9 6 1.4 9.1 1.3 2.7 0 5.3-.3 7.9-1 .8-.2 1.6-.5 2.3-.9.3-.1.5-.3.7-.5.1-.1.2-.2.3-.3s.1-.3.2-.4c0-.2 0-.5 0-.7 0-.9-.2-1.9-.6-2.7zm-7.8-1.2c-1.7 1.3-4.1 1.3-5.9 0-.4-.4-.7-.9-.8-1.4.1-.1.3-.1.4-.2s.2-.2.3-.4.1-.3.1-.5v-.6c0-.1 0-.3-.1-.4-1-.9-1.6-2.1-1.9-3.5 0-.2-.2-.3-.3-.4-.1 0-.3-.1-.4-.2-.2-.2-.4-.4-.5-.6-.2-.5-.4-1-.6-1.5l-.1-.3 1.5 1.8.3-3.1c2-1.1 3.7-2.6 5-4.5 1.3 1.9 3 3.4 5 4.5l.3 3.1 1.4-1.8c0 .1 0 .2-.1.3-.1.6-.4 1.2-.7 1.8-.1.1-.2.2-.3.3s-.3.2-.4.2c-.2.1-.3.2-.3.4-.3 1.3-.9 2.5-1.9 3.5-.1.1-.1.2-.1.4v.6c0 .2 0 .3.1.5s.3.4.6.5l.2.1c-.1.5-.4 1-.8 1.4z"/><path d="m48.6 511.2c-.1-.5-.3-.9-.6-1.4-.4-.7-.9-1.2-1.6-1.7-.4-.3-.9-.6-1.4-.8-.7-.3-1.5-.6-2.2-.9-.6-.2-1.2-.5-1.8-.8-.2-.1-.3-.2-.5-.3-.2-.2-.4-.4-.5-.6s-.2-.5-.2-.7 0-.4 0-.6c0-.5 0-1 .2-1.5.3-.4.6-.8.9-1.3.3-.6.6-1.2.8-1.8l.5-.3c.4-.3.7-.6 1-1 .3-.5.6-1.1.7-1.7 0-.2.1-.4.1-.6 0-.4-.1-.8-.3-1.1-.1-.2-.2-.4-.4-.6.1-.3.2-.7.3-1.2.1-.8.2-1.5.2-2.3 0-.6 0-1.1-.2-1.7-.1-.4-.2-.8-.4-1.2-.3-.6-.7-1.2-1.2-1.7s-1.1-.8-1.8-1c-.3-.3-.6-.7-1-1-.5-.4-1.1-.7-1.7-.9s-1.2-.2-1.8-.2c-.3 0-.6 0-1 0s-.5.1-.8.1c-.3.1-.6.1-.9.2s-.5.2-.9.3c-.2.1-.3.1-.5.2-.5.2-.9.5-1.3.8-.9.6-1.6 1.4-2.1 2.4-.3.5-.6 1.1-.8 1.8s-.3 1.4-.3 2.2c0 .5 0 1 .1 1.5v.2.2.3s0 .1 0 .1v.1l.1.6c-.2.2-.4.5-.5.7-.2.4-.3.8-.3 1.2 0 .2 0 .4.1.6.1.4.3.9.6 1.2.2.5.5.9.9 1.3.3.2.5.4.9.5.2.6.5 1.2.8 1.8.2.5.5.9.9 1.3.1.5.2 1 .2 1.5v.6c0 .2-.1.4-.1.5-.1.2-.2.4-.4.6s-.5.4-.7.5c-.3.2-.7.3-1 .5-.6.3-1.4.5-2.1.8-.6.2-1.1.5-1.6.8-.4.2-.8.5-1.1.8-.6.5-1 1.1-1.3 1.9-.3.9-.5 1.8-.5 2.7 0 .1 0 .3.1.4s.1.2.2.3c.2.2.4.4.6.5.5.4 1.1.6 1.6.8 1.4.5 2.8.8 4.3 1 2.2.3 4.5.4 6.7.4 2 0 4-.1 6-.3 1.1-.1 2.2-.3 3.2-.6.6-.1 1.2-.3 1.8-.5.4-.2.7-.3 1-.5s.4-.2.6-.4.4-.4.6-.6c.1-.1.1-.2.2-.3s.1-.3.1-.4c-.2-.4-.3-1.1-.5-1.7zm-14.4.5-4-5.1c.2-.1.4-.3.6-.4.2-.2.4-.3.5-.5l2.9 1.3-.6 1 1 1zm-2.4-6.7c.1-.3.2-.6.2-.9 0-.2 0-.5 0-.7 0-.6-.1-1.3-.2-1.9v-.2l-.1-.1c-.3-.3-.6-.7-.8-1.1-.3-.6-.6-1.2-.8-1.9v-.2l-.2-.1c-.2-.1-.3-.2-.5-.3-.3-.2-.5-.4-.7-.7-.3-.4-.4-.9-.5-1.4 0-.1 0-.2 0-.3 0-.2.1-.5.2-.7s.2-.4.4-.5c.2.3.4.5.5.8.2.2.2.2.3 0s.3-.4 1.8-3.4c3 .7 8.3-3.9 8.3-3.9.1 1 .5 2 1.1 2.8.7 1.3 1.2 2.8 1.4 4.3 0 0 .1-.2.3-.6.1.1.2.3.3.4.1.2.2.4.2.6v.3c-.1.3-.2.7-.3 1-.2.3-.4.6-.6.9-.2.2-.5.3-.7.4l-.2.1-.1.2c-.2.6-.5 1.3-.8 1.9-.2.4-.5.8-.8 1.1l-.1.1v.2c-.1.6-.2 1.3-.2 1.9v.7c0 .3.1.6.2.8l-3.4 1.8zm5 6.9-.4-2.8 1-1-.6-1 2.6-1.4c.1.1.1.2.2.3.3.3.6.5.9.7z"/><path d="m86.4 509.3c-.8-1.1-2-2-3.3-2.4-.6-.2-1.2-.4-1.7-.5s-1-.2-1.3-.4c-.5-.2-1-.4-1.5-.7-.2-.1-.3-.2-.4-.4-.1-.1-.1-.2-.1-.3v-2c1-1 1.7-2.3 2-3.7.1-.1.3-.1.4-.2.4-.3.7-.6.8-1 .3-.6.5-1.2.7-1.8.1-.3.2-.7.2-1s-.1-.6-.2-.9c-.2-.3-.4-.5-.7-.6 1.1-5.9-2.4-10.4-6.9-10.2-4.2-.9-6.9-.7-7.2 3-.4 1-.3 2 .1 3-.2.7-.3 1.5-.3 2.3v1.7c-.1 0-.2.1-.4.2s-.4.3-.5.5c-.1.3-.2.6-.2.9 0 .4.1.7.2 1 .2.8.5 1.5.9 2.2.2.2.4.4.6.6.1.1.3.2.4.2.3 1.4 1 2.7 2 3.7v2c0 .1-.1.2-.1.3-.2.3-.5.5-.8.6-.3.2-.7.4-1.1.5s-1.1.3-1.8.5c-1.3.3-2.5.9-3.5 1.7-.5.5-1 1.1-1.3 1.8-.4.8-.5 1.7-.5 2.5v.7c0 .2.1.3.2.4.2.2.4.4.6.5.6.3 1.1.6 1.8.8 3.4 1.1 7 1.6 10.6 1.5 3.1 0 6.2-.3 9.2-1.1.9-.2 1.8-.6 2.7-1 .3-.1.6-.3.8-.5l.3-.3c.1-.1.1-.3.2-.4 0-.2 0-.5 0-.7 0-.9-.3-2-.9-3zm-16.3-3.1c.3-.2.5-.4.7-.6.2-.3.3-.6.3-.9v-2.4l-.1-.1c-1-1-1.7-2.2-2-3.6l-.1-.3-.3-.1c-.2-.1-.3-.1-.4-.2-.2-.2-.4-.4-.5-.6-.3-.5-.4-1-.6-1.6-.1-.3-.1-.5-.1-.8 0-.1 0-.3.1-.4s.1-.2.2-.2h.2.5v-2.7c0-.3 0-.6.1-.9 1.2 1.7 3.4 3.3 7.2 3.9-.6-1.6-1-3.3-1.4-5 0 0 2.5 3.7 6.3 4.1v.6h.5c.1 0 .2 0 .3.1.1 0 .1.1.2.2s.1.3.1.4c0 .3 0 .5-.1.8-.2.7-.4 1.3-.8 1.9-.1.1-.2.2-.3.3s-.3.2-.4.2l-.3.1v.3c-.3 1.4-1 2.7-2 3.6l-.1.1v2.4c0 .3.1.6.3.9.3.4.6.7 1.1.9.2.1.4.2.6.3l-2 2c-.9.5-2 .7-3 .7s-2.1-.2-3-.7l-2-2c.2-.3.5-.5.8-.7z"/><path d="m67.2 498.5s.6 6.6-1.8 8.5c0 0 7.1-.9 5-4.5l-2.1-4.1-1.2-.9z"/><path d="m81 498.5s-.6 6.6 1.8 8.5c0 0-7.1-.9-5-4.5l2.1-4.1 1.2-.9z"/><path d="m122.7 509.7c-.7-1-1.6-1.9-2.8-2.3-1-.5-2-.7-2.6-1-.5-.2-1-.4-1.4-.8-.2-.1-.3-.3-.4-.4s-.1-.2-.1-.3v-1.4c1-1 1.6-2.2 1.9-3.6.1-.1.3-.1.4-.2.4-.3.6-.6.8-1 .3-.6.5-1.1.6-1.7.1-.3.2-.7.2-1 0-.1 0-.3 0-.4 4.5-5.8-2.2-13.4-7.2-12.5-3.9-1-7.4 2.5-8.8 5.5-1.1 2.5-.8 5.9.4 7v.4c0 .3.1.7.2 1 .2.8.5 1.5.9 2.1.2.2.3.4.6.6.1.1.3.2.4.2.3 1.3 1 2.6 1.9 3.6v1.4c0 .1-.1.2-.1.3-.2.3-.5.5-.8.7s-.7.4-1 .5c-.4.1-1 .3-1.6.5-1.1.3-2.1.9-3 1.7-1 1.1-1.6 2.5-1.5 4v.7c0 .1.1.3.1.4.1.2.3.4.5.5.5.3 1 .6 1.5.8 3.1 1.1 6.5 1.6 9.8 1.5 2.9 0 5.7-.3 8.5-1.1.8-.2 1.6-.6 2.3-1 .2-.1.5-.3.7-.5.1-.1.2-.2.2-.3.1-.1.1-.2.1-.4s0-.5 0-.7c0-.9-.2-1.9-.7-2.8zm-7-3-1.7 4.3-2.1-2.6 3-2.2c.2.2.5.4.8.5zm-9.2-7.2v-.3l-.3-.1c-.2 0-.3-.1-.4-.2-.2-.2-.4-.4-.5-.6-.2-.5-.4-1-.6-1.5-.1-.2-.1-.5-.1-.7 0-.1 0-.3.1-.4s.1-.2.2-.2h.2.2l.6 1.8.3-1.6 1.7-2.5c-.1.8-.2 1.5-.4 2.2 3.3-1.1 4.2-2.3 4.3-2.6l-1.1 2.2s3.8-1.1 4.4-2.7l-.7 2.4s2-.6 2.3-1.5c.2-.5.2.2.2.9v3.1l.8-1.8c.1 0 .2 0 .3.1.1 0 .1.1.2.1.1.1.1.3.1.4 0 .3 0 .5-.1.7-.1.6-.4 1.3-.7 1.8-.1.1-.2.2-.3.3s-.3.2-.4.2l-.3.1v.3c-.3 1.3-.9 2.6-1.9 3.5l-.1.1v1.8c0 .2.1.4.2.6l-3.1 2.3-3.1-2.3c.1-.2.2-.4.2-.6v-1.8l-.1-.1c-1.2-.8-1.9-2-2.1-3.4zm1 7 .3-.3 3 2.2-2.1 2.6-1.7-4.2z"/><path d="m308.1 504.6c.1 1.6.3 3 .8 4.2.2-.3.3-.6.5-.9.4-.8.6-1.6.8-2.4 1.6.6 2.2 1 2.2 1.3 0 .2-.2.3-.7.3-.6 1.3-1.2 2.4-1.8 3.3.5.7 1 1.4 1.7 1.9.5.4.6.4.7.4.2 0 .7-.8 1.1-2 0-.1.2 0 .2.1-.2 1.6-.2 1.7-.2 2s0 .4.2.5c.2.2.4.5.4.8 0 .6-.4.9-.9.9-.8 0-1.8-.6-2.8-1.5-.6-.6-1.1-1.2-1.6-1.8-1.3 1.4-3 2.3-5.4 3.2-.1 0-.3-.2-.2-.2 1.9-1.1 3.5-2.6 4.8-4.3-.6-1.2-1.1-2.9-1.4-5.9h-7.5v1.1c0 2-.2 3.6-.6 5-.5 1.8-1.4 3.1-2.8 4.4-.1.1-.2-.1-.2-.2.8-1.5 1.3-2.8 1.6-4.7.2-1.3.2-2.9.2-5.1 0-.8 0-1.2-.1-1.9 1 .4 1.2.5 2.2 1.1h7.2c0-.2 0-.4 0-.5-.1-.8-.1-.9-.2-1.4 2.2.2 2.4.3 2.4.6 0 .2-.1.2-.5.4 0 .3 0 .7.1 1h2.9c.7-1 .8-1.1 1-1.1s.4.1 1.1.8c.3.3.5.4.5.6 0 .1-.1.2-.3.2h-5.4zm-2.2-3.1h4.6c.9-1.1 1.2-1.2 1.3-1.2.2 0 .4.2 1.4.9.4.3.6.5.6.6s-.1.2-.3.2h-15.8c-.4 0-.9 0-1.5.1l-.2-.7c.7.1 1.1.2 1.6.2h2.1v-1.8c0-1 0-1.7-.1-2.1 2.4.2 2.7.4 2.7.6s-.2.4-.7.6v2.7h2.4v-2.7c0-.9-.1-1.6-.1-2.1 2.4.2 2.6.4 2.6.6s-.2.4-.6.5v1.3h2.6c.9-1 1.1-1.2 1.3-1.2s.4.2 1.3.8c.4.3.5.5.5.6s-.1.2-.3.2h-5.4zm-4.7 7.9c-.6 1.6-1.5 2.8-2.8 3.8-.1.1-.3-.1-.2-.2.6-.8 1-1.9 1.3-3 .2-.6.3-1.2.3-1.8 1.8.6 2 .7 2 .9.1.1-.1.2-.6.3zm2.5-1.6c0 1.1.1 4.2.1 4.7 0 .4-.1.7-.4 1-.3.4-.8.6-1.3.6-.4 0-.4 0-.5-.5-.1-.6-.3-.8-1.5-1.1-.1 0-.1-.3 0-.3.5.1 1.2.1 1.6.1.3 0 .3-.1.3-.4v-5h-1.2c-.4 0-.9 0-1.4.1l-.2-.7c.6.1 1.1.2 1.6.2h3.1c.6-.8.8-1 1-1s.4.2 1.1.7c.3.3.5.4.5.6 0 .1-.1.2-.3.2h-2.5zm2.2 3.8c-.5 0-.6-.2-.8-.9-.2-1.1-.4-1.7-.8-2.2-.1-.1 0-.2.1-.1 1.5.6 2.4 1.4 2.4 2.3 0 .4-.4.9-.9.9zm4.4-7.6c-.3 0-.4-.1-.6-.5-.2-.5-.5-.9-1-1.1-.1 0-.1-.2 0-.2 1.5 0 2.3.4 2.3 1.1 0 .4-.3.7-.7.7z"/></g><path d="m156.2 463.7c3.2-.1 6.5.4 9.6 1.4 2.4.8 4.5 2.2 6.1 4.1 1.5 1.9 2.2 4.2 2.1 6.5 0 1.7-.4 3.5-1.2 5-.7 1.3-1.7 2.5-3 3.4-1.2.8-2.6 1.4-4.1 1.6-1.4.3-2.9.2-4.2-.2 1.6 0 3.1.2 4.6.7 1.7.5 3.3 1.2 4.8 2.2 1.6 1.1 2.9 2.6 3.8 4.3 1 2.1 1.6 4.4 1.5 6.8.1 3-.7 6-2.3 8.6-1.5 2.5-3.6 4.6-6.1 6.2-2.7 1.6-5.6 2.8-8.6 3.4-3.2.7-6.6.9-9.9.6-3.4-.3-6.6-1.2-9.7-2.5l.1-.7c2.8.1 5.5-.3 8.2-1 2.5-.7 4.8-1.8 6.8-3.3 1.9-1.4 3.5-3.2 4.7-5.3s1.8-4.6 1.7-7c.1-2.4-.6-4.8-2-6.8-1.3-1.7-3-3-5-3.7-1.9-.8-3.9-1.2-6-1.2l.1-.7c4.2.1 8.2-2.1 10.2-5.9 1-1.9 1.4-4 1.2-6.1-.1-1.5-.6-3-1.5-4.2-.8-1-1.9-1.8-3.1-2.2-1.3-.4-2.6-.6-3.9-.4-2.5 0-4.8 1.4-6 3.7-1.2 2.2-1.7 5.5-1.6 9.9h-.7l-4-12.1c2.1-1.7 4.6-2.9 7.2-3.6 3.3-1.1 6.8-1.5 10.2-1.5z" fill="#4aa064"/><path d="m187 516.2-.3-.5c4.1-1.2 8.1-2.9 11.7-5.2 2.6-1.6 4.7-3.9 6.2-6.5 1.3-2.6 2.2-5.4 2.4-8.2.3-3.5.5-6.9.5-10.4 0-3.9-.1-7.1-.3-9.7 0-2-.5-4-1.4-5.8-.8-1.3-2.2-2-3.7-1.9-1.5-.1-3 .5-3.9 1.7-1 1.3-1.6 2.8-1.8 4.5-.3 2-.5 4-.5 6 0 2.1.1 4.2.5 6.2.2 1.2.6 2.3 1.3 3.3 1 1.6 3 2.2 4.8 1.7.8-.2 1.6-.6 2.3-1l.5.6c-.7 1.5-1.7 2.7-3.1 3.6-1.5 1-3.1 1.6-4.8 1.8-1.8.3-3.7.2-5.5-.2-4-.9-7.3-3.7-8.9-7.5-1-2.4-1.4-5.1-1.3-7.7.1-3 .9-5.9 2.3-8.5 1.6-2.7 3.9-4.8 6.6-6.2 3.6-1.7 7.4-2.5 11.4-2.4 6.9-.1 12.1 1.7 15.8 5.5 3.7 3.7 5.5 9.6 5.5 17.6.1 4.6-.7 9.1-2.2 13.4-1.4 3.8-3.7 7.2-6.8 9.8-3.3 2.7-7.2 4.6-11.3 5.6-5.3 1-10.7 1.2-16 .4z" fill="#4aa064"/><path d="m234.9 514.6c-3.5 0-6.3-2.8-6.3-6.3s2.8-6.3 6.3-6.3 6.3 2.8 6.3 6.3c0 1.6-.7 3.2-1.8 4.4-1.2 1.2-2.9 1.9-4.5 1.9z" fill="#4aa064"/><path d="m278.7 463.6.6 5.2-24.9 24.2h28c1 .1 2.1-.2 2.9-.7.7-.5 1.3-1.3 1.6-2.1h.7l-2.2 10.1h-42.9v-.7zm.7 45.5c0 1 .4 2 1.2 2.7.7.7 1.7 1.1 2.7 1.1h.8v.7h-23.7l.1-.7h.7c1 0 2-.4 2.8-1.1.7-.7 1.2-1.7 1.1-2.7zm-14.4-30.4 13.6-15.1h.7v49.9h-14.3z" fill="#4aa064"/><path d="m254.9 121c-.1 0-.2-.2-.1-.2 5.5-3.9 7.6-8.1 7.6-15.5 0-.6 0-.9-.1-1.7 2.6.2 2.9.3 2.9.7 0 .2-.1.3-.7.6 0 .6 0 1.2-.1 1.8.3 2.6 1.1 4.9 2.3 6.9 1.5 2.4 3.7 4.2 6.5 5.2.1 0 .1.2 0 .2-.7.2-1 .6-1.3 1.4-.1.3-.2.4-.4.4s-.6-.2-1-.6c-2.1-1.7-3.9-3.9-5-6.4-.6-1.5-1-3.3-1.2-5.4-.8 6.5-3.5 9.9-9.4 12.6z" fill="#333"/><path d="m134.4 70c3.2-.1 6.5.4 9.6 1.4 2.4.8 4.5 2.2 6.1 4.1 1.4 1.8 2.2 4.1 2.1 6.5 0 1.7-.4 3.5-1.1 5-.7 1.4-1.7 2.5-3 3.4-1.2.8-2.6 1.4-4.1 1.7-1.4.3-2.9.2-4.2-.2 1.6 0 3.1.3 4.6.7 1.7.5 3.3 1.2 4.7 2.2 1.6 1.1 2.8 2.6 3.7 4.3 1 2.1 1.6 4.4 1.5 6.8.1 3-.7 6-2.3 8.7-1.5 2.5-3.6 4.6-6.1 6.2-2.7 1.6-5.6 2.8-8.6 3.4-3.2.7-6.6.9-9.9.6-3.4-.3-6.6-1.2-9.7-2.6l.1-.7c2.8.1 5.5-.3 8.2-1 2.5-.7 4.8-1.8 6.8-3.3 1.9-1.4 3.5-3.2 4.7-5.3s1.7-4.6 1.7-7c.1-2.4-.6-4.8-2-6.8-1.3-1.7-3-3-5-3.8-1.9-.8-3.9-1.2-6-1.2l.1-.7c4.2.1 8.2-2.1 10.2-5.8 1-1.9 1.5-4 1.2-6.1-.1-1.5-.6-3-1.5-4.2-.8-1-1.9-1.8-3.1-2.2-1.3-.4-2.7-.6-4-.4-2.5 0-4.8 1.4-6 3.7-1.2 2.2-1.7 5.5-1.6 9.9h-.7l-4-12.1c2.1-1.7 4.6-2.9 7.2-3.6 3.4-1.2 6.9-1.7 10.4-1.6z" fill="#4aa064"/><path d="m165.1 122.5-.3-.5c4.1-1.2 8.1-2.9 11.7-5.2 2.6-1.6 4.7-3.9 6.2-6.5 1.4-2.6 2.2-5.3 2.4-8.2.3-3.5.5-6.9.5-10.4 0-3.9-.1-7.1-.3-9.7-.1-2-.5-4-1.4-5.8-.8-1.3-2.2-2.1-3.7-1.9-1.5-.1-2.9.6-3.9 1.8-1 1.3-1.6 2.8-1.8 4.4-.3 2-.5 4-.5 6 0 2.1.1 4.2.5 6.2.2 1.2.6 2.3 1.3 3.3 1 1.5 3 2.2 4.8 1.7.8-.2 1.6-.6 2.3-1l.5.6c-.7 1.5-1.7 2.7-3.1 3.6-1.5 1-3.1 1.6-4.8 1.8-1.8.3-3.7.2-5.5-.2-4-.9-7.4-3.8-8.9-7.6-1-2.4-1.4-5.1-1.3-7.7.1-3 .9-5.9 2.3-8.5 1.6-2.7 3.9-4.8 6.6-6.2 3.6-1.7 7.5-2.5 11.4-2.4 6.9-.1 12.1 1.7 15.8 5.5 3.7 3.7 5.5 9.6 5.5 17.6.1 4.6-.7 9.1-2.2 13.4-1.4 3.8-3.7 7.2-6.8 9.8-3.3 2.7-7.1 4.7-11.3 5.6-5.3 1.1-10.7 1.3-16 .5z" fill="#4aa064"/><path d="m243.4 68.4.3.5c-4.1 1.2-8.1 2.9-11.7 5.2-2.6 1.6-4.7 3.9-6.2 6.5-1.3 2.6-2.2 5.4-2.4 8.2-.3 3.5-.5 6.9-.5 10.4 0 3.9.1 7.1.3 9.7 0 2 .5 4 1.4 5.8.7 1.3 2.2 2 3.6 1.9 1.5.1 2.9-.5 3.9-1.7 1-1.3 1.6-2.9 1.8-4.5.6-4 .6-8.1 0-12.2-.2-1.2-.6-2.3-1.2-3.4-.4-.7-1.1-1.2-1.8-1.5-.9-.4-2-.5-2.9-.2-.8.2-1.6.6-2.3 1l-.6-.6c.7-1.5 1.7-2.7 3.1-3.6 1.5-.9 3.1-1.5 4.9-1.8s3.7-.2 5.5.2c4 .9 7.3 3.7 8.9 7.5 1 2.4 1.4 5.1 1.3 7.7-.1 3-.9 5.9-2.3 8.5-1.6 2.7-3.9 4.8-6.6 6.1-3.6 1.6-7.5 2.5-11.4 2.4-4 .2-8-.6-11.6-2.3-3.2-1.6-5.7-4.3-7.2-7.6-1.7-3.4-2.5-7.8-2.5-13.2-.1-4.6.7-9.1 2.2-13.4 1.4-3.8 3.7-7.2 6.8-9.8 3.3-2.7 7.2-4.6 11.4-5.5 5.1-.8 10.5-1 15.8-.3z" fill="#4aa064"/><g enable-background="new" fill="#333"><path d="m139.3 34.9c-.5.4-1.1.8-1.6 1.1-.1 0-.1-.1-.1-.2.9-1 1.7-2 2.3-3.1.3-.6.6-1.1.7-1.6 1.4.7 1.5.7 1.5.9s-.1.2-.5.3c-.3.5-.7 1.1-1.2 1.6.5.1.6.1.6.3 0 .1-.1.2-.4.3v5.8c0 .4-.2.6-.7.6-.3 0-.6-.1-.6-.5s.1-1.5.1-3.7v-1.8zm2.1-5.7c-1.2 1.5-2.1 2.2-3.5 2.9-.1 0-.2-.1-.1-.1.7-.7 1.4-1.6 1.9-2.5.3-.5.5-1 .6-1.5 1.1.4 1.7.7 1.7.9s-.1.3-.6.3zm5.2 10c.5.1 1.1.2 1.7.2.7 0 1.3 0 2.5-.2.1 0 .1.1 0 .2-.4.2-.5.4-.6.9-.1.3-.1.4-.2.4-.2 0-.3 0-.4 0-2 0-3.1-.2-4.2-.8-.9-.5-1.4-1.2-2-2.6-.5 1.4-1.3 2.4-2.5 3.4-.1 0-.2-.1-.1-.2 1.2-1.6 1.9-3.7 1.9-6.2 0-.2 0-.4 0-.7 1.4.2 1.7.3 1.7.5 0 .1-.1.2-.4.3-.1.9-.2 1.7-.4 2.4.6 1.1 1.2 1.6 1.8 1.9v-6.7h-2.2c-.3 0-.5 0-.8.1l-.2-.5c.4.1.7.1.9.1h3.1c.4-.8.7-1.6 1-2.5.1-.3.2-.7.2-1 1.4.5 1.8.7 1.8.9s-.1.2-.5.2c-.6.9-1.3 1.8-1.9 2.3h1.7c.6-.8.8-.9.9-.9s.3.1.9.6c.3.2.4.4.4.4 0 .1 0 .1-.2.1h-3.8v3.1h1.3c.6-.7.8-.9.9-.9s.3.1.9.6c.3.2.4.3.4.4s0 .1-.2.1h-3.2v4.1zm-2.1-8c-.4 0-.4-.1-.6-1.1-.2-.6-.4-1.2-.7-1.6 0-.1 0-.2.1-.1 1.4.5 2.1 1.2 2.1 1.9-.1.5-.5.9-.9.9z"/><path d="m160.3 36.8c.6.6 1.4 1 2.3 1.4 1.1.5 2.3.7 3.7.8.1 0 .1.1 0 .2-.5.2-.6.3-1 1.2-.1.1-.1.2-.2.2s-.4-.1-.7-.2c-.9-.3-1.7-.8-2.5-1.4-.7-.5-1.2-1.1-1.8-1.8 0 1.8.1 3.1.1 3.5s-.2.5-.8.5c-.4 0-.5-.2-.5-.5s.1-1.7.1-2.9c-1.2 1.3-3.1 2.3-5.5 2.8-.1 0-.1-.1-.1-.1 2.1-1 3.6-2.1 4.7-3.6h-3.3c-.3 0-.6 0-1 .1l-.2-.5c.4.1.8.1 1.1.1h4.3v-1.3h-2.7c-.3 0-.6 0-1 .1l-.2-.5c.4.1.8.1 1.1.1h2.8v-1.3h-3.5c-.3 0-.6 0-1 .1l-.2-.5c.4.1.8.1 1.1.1h2.3c-.2-.1-.3-.2-.4-.6s-.4-.9-.7-1.2c-.1 0 0-.1.1-.1 1.3.2 1.9.6 1.9 1.3 0 .3-.2.6-.5.7h2.3c.3-.5.4-.9.6-1.2.1-.3.2-.6.3-.9 1.1.4 1.6.7 1.6.8s-.1.2-.6.2c-.5.5-1 .8-1.4 1h2.3c.7-.7.8-.8.9-.8s.3.1.9.6c.3.2.4.3.4.4s0 .1-.2.1h-5v1.3h2.2c.6-.7.8-.8.9-.8s.3.1.8.5c.2.2.4.3.4.4s0 .1-.2.1h-4v1.3h3.5c.7-.8.9-.9 1-.9s.3.1.9.6c.3.2.4.4.4.5s0 .1-.2.1zm-2.6-7.7c0-.6 0-.7-.1-1 1.6.2 1.7.3 1.7.4s-.1.2-.4.4v2h1.2v-1.8c0-.6 0-.7-.1-1 1.6.2 1.8.3 1.8.4s-.1.2-.5.4v2h.6c.3-.6.6-1.1.8-1.6.1-.3.2-.6.3-.9 1.2.5 1.7.7 1.7.9s-.1.3-.6.3c-.6.6-1.2 1.1-1.7 1.3h1.6c.6-.7.8-.8.9-.8s.3.1.9.6c.3.2.4.3.4.4s0 .1-.2.1h-11.3c-.3 0-.6 0-1 .1l-.2-.5c.5.1.8.1 1.1.1h3.1zm-1.5 1.5c-.3 0-.4-.1-.6-.5-.2-.6-.4-1-.8-1.4-.1 0 0-.1.1-.1 1.3.2 2 .7 2 1.3 0 .4-.3.7-.7.7z"/><path d="m173.6 39.6c-1.4.7-2.6 1-4.6 1.2-.1 0-.1-.1 0-.2 1-.4 2-.9 2.8-1.4.4-.3.7-.6 1-.9 1.3.6 1.6.8 1.6 1s-.2.3-.8.3zm-1.7-1.5c0 .4-.2.6-.8.6-.4 0-.6-.1-.6-.5 0-.6.1-1.3.1-3.6 0-.9 0-1.9-.1-2.8.7.3.8.4 1.5.7h6.3c.5-.5.6-.6.7-.6s.3.1.8.5c.3.2.3.3.3.4s-.1.2-.4.4v.9c0 2 .1 3.4.1 3.9 0 .4-.2.6-.8.6-.4 0-.6-.1-.6-.5zm.6-6.7c0 .4-.3.5-.8.5-.3 0-.6-.1-.6-.4s0-.9 0-1.7c0-.6 0-.9 0-1.5.7.3.9.4 1.5.7h5c.5-.5.6-.6.7-.6s.3.1.8.5c.2.2.3.3.3.4s-.1.2-.4.4v.3 1.4c0 .4-.3.5-.8.5-.4 0-.6-.1-.6-.5zm6 1.5h-6.6v1.4h6.6zm-6.6 3.1h6.6v-1.4h-6.6zm0 1.7h6.6v-1.4h-6.6zm5.9-8.3h-5.3v1.7h5.3zm2.2 11.5c-.3 0-.4-.1-.8-.4-.7-.7-1.6-1.3-3-1.7-.1 0 0-.2.1-.2 3.1.1 4.3.6 4.3 1.6 0 .4-.3.7-.6.7z"/><path d="m188.2 32.6v1.2c0 .4-.2.5-.7.5-.4 0-.5-.1-.5-.5 0-.1 0-.5.1-1.3-.9 1.1-1.9 1.8-3.1 2.3-.1 0-.1-.1-.1-.1 1.1-.8 1.9-1.8 2.5-3h-1c-.3 0-.6 0-1 .1l-.2-.5c.4.1.7.1 1.1.1h1.7v-1.8c0-.5 0-.8-.1-1.3 1.3.1 1.7.2 1.7.4 0 .1-.1.2-.4.3v2.4h1.2c.4-.6.6-.7.7-.7s.3.1.8.5c.2.2.3.3.3.4s0 .1-.2.1h-2.8v.5c1.3.2 2 .6 2 1.3 0 .3-.2.6-.5.6s-.4-.1-.7-.6c-.4-.5-.6-.8-.8-.9zm1.7 3.5c-.2.7-.5 1.5-1 2.1.6.3.9.7.9 1.1s-.3.6-.6.6c-.4 0-.4 0-1.1-.8-.9.9-2.2 1.5-4 1.8-.1 0-.1-.2 0-.2 1.4-.5 2.5-1.3 3.3-2.3-.3-.2-.7-.4-1-.6l-.3.5c-.2.3-.3.3-.6.3s-.6-.2-.6-.3 0-.2.1-.4c.4-.6.7-1.3 1-1.8h-.8c-.3 0-.6 0-.9.1l-.2-.5c.4.1.7.1 1.1.1h1l.1-.2c.2-.5.3-.8.4-1.2 1.4.3 1.5.3 1.5.5 0 .1-.1.2-.4.3-.1.2-.2.4-.3.6h1.9c.5-.6.7-.7.8-.7s.3.1.7.5c.2.2.3.3.3.4s0 .1-.2.1zm-4-5.1c-.4 0-.4-.1-.6-.9-.1-.5-.3-.9-.5-1.2 0-.1 0-.1.1-.1 1 .3 1.6.8 1.6 1.5 0 .5-.3.7-.6.7zm.7 6.6c.4.1.9.2 1.3.3.3-.5.6-1.1.7-1.7h-1.3zm3.7-7.9c-.6.6-1 1-1.7 1.5-.1 0-.2 0-.1-.1.2-.3.5-.9.7-1.4.2-.4.3-.7.3-1 1 .4 1.3.6 1.3.8 0 .1-.1.2-.5.2zm5.5 2.1c-.2 1.9-.7 3.8-1.8 5.4.9.9 2 1.6 3.3 2.1.1 0 .1.1 0 .2-.4.2-.5.3-.6 1-.1.4-.1.4-.3.4-.1 0-.4-.2-.7-.4-.9-.7-1.7-1.4-2.4-2.4-1.1 1.3-2.5 2.2-4.2 2.8-.1 0-.2-.1-.1-.2 1.6-1 2.9-2.2 3.8-3.6-.6-1.2-.9-2.5-1.2-3.8-.4.5-.8 1-1.3 1.5-.1 0-.2 0-.1-.1.8-1.3 1.5-3.1 1.8-4.7.1-.7.2-1.3.2-1.9 1.6.4 1.8.4 1.8.6s-.1.3-.6.3c-.2.8-.5 1.6-.8 2.3h2.4c.6-.8.8-.9.9-.9s.3.1.9.6c.3.2.4.3.4.4s0 .1-.2.1h-1.2zm-3.3 0c-.2.4-.4.9-.7 1.3.3 1.1.8 2.2 1.5 3.2.7-1.4 1-3 1.2-4.5z"/></g><path d="m69.7 77.1c-3 0-5.5-2.5-5.5-5.5s2.5-5.5 5.5-5.5 5.5 2.5 5.5 5.5c.1 3-2.4 5.5-5.5 5.5zm-12.3 7.1v18.5c-.1 1.3.9 2.5 2.3 2.6 1.3.1 2.5-.9 2.6-2.3 0-.1 0-.2 0-.3v-15.2h1.1v41.3c-.1 1.8 1.2 3.3 3 3.4s3.3-1.2 3.4-3c0-.1 0-.2 0-.4v-24h1v24c0 1.8 1.4 3.2 3.2 3.2s3.2-1.4 3.2-3.2v-41.3h1.1v15.2c-.1 1.3.9 2.5 2.3 2.6 1.3.1 2.5-.9 2.6-2.3 0-.1 0-.2 0-.3v-18.5c-.3-3-2.6-5.3-5.6-5.6h-14.6c-3 .3-5.3 2.6-5.6 5.6z" fill="#333"/></svg>