<svg xmlns="http://www.w3.org/2000/svg" viewBox="0 0 1100 700"><defs><style>.cls-1,.cls-19,.cls-20,.cls-8{fill:#fff;}.cls-2,.cls-9{fill:#4aa064;}.cls-11,.cls-16,.cls-3{fill:none;}.cls-3{stroke:#4aa064;stroke-width:1.76px;}.cls-11,.cls-16,.cls-20,.cls-3{stroke-miterlimit:10;}.cls-4{font-size:26px;letter-spacing:0.2em;}.cls-10,.cls-17,.cls-18,.cls-4,.cls-5,.cls-6,.cls-7{fill:#333;}.cls-17,.cls-18,.cls-19,.cls-4,.cls-6,.cls-7,.cls-8{font-family:YuMin-Demibold-83pv-RKSJ-H, YuMincho;}.cls-6,.cls-7{font-size:18px;}.cls-13,.cls-6{letter-spacing:0.2em;}.cls-7{letter-spacing:0.2em;}.cls-17,.cls-18,.cls-19,.cls-8{font-size:14px;}.cls-8{letter-spacing:0.2em;}.cls-10,.cls-9{fill-rule:evenodd;}.cls-11{stroke:#ccc;}.cls-12{letter-spacing:-0.3em;}.cls-14{letter-spacing:0.18em;}.cls-15{letter-spacing:0.18em;}.cls-16,.cls-20{stroke:#333;}.cls-17{letter-spacing:0.1em;}.cls-18,.cls-19{letter-spacing:0.1em;}.cls-21{fill:gray;}.cls-22{fill:#bfbfbf;}</style></defs><g id="レイヤー_2" data-name="レイヤー 2"><g id="pc"><rect class="cls-1" x="4.4" y="4.4" width="1091.2" height="691.2"/><path class="cls-2" d="M1091.2,8.8V691.2H8.8V8.8H1091.2M1100,0H0V700H1100V0Z"/><line class="cls-3" x1="789.48" y1="340.34" x2="789.48" y2="6.47"/><line class="cls-3" x1="1100" y1="339.01" y2="339.01"/><text class="cls-4" transform="translate(210.71 290.41)">人</text><path class="cls-2" d="M64.51,226.55a36.13,36.13,0,0,1,12.28,1.84,17.32,17.32,0,0,1,7.83,5.27A13,13,0,0,1,87.37,242a13.26,13.26,0,0,1-1.49,6.48A12.09,12.09,0,0,1,82,252.83a13.63,13.63,0,0,1-5.27,2.11,12.27,12.27,0,0,1-5.44-.22,22.87,22.87,0,0,1,5.89.85,19.63,19.63,0,0,1,6.12,2.88,15.65,15.65,0,0,1,4.82,5.49A18,18,0,0,1,90,272.63a21,21,0,0,1-2.93,11.11,23.92,23.92,0,0,1-7.87,7.92,34,34,0,0,1-11.12,4.41,42.58,42.58,0,0,1-12.69.72,38.1,38.1,0,0,1-12.46-3.28l.18-.9a35.46,35.46,0,0,0,10.53-1.35A27.46,27.46,0,0,0,62.39,287a21.15,21.15,0,0,0,6-6.84,18.24,18.24,0,0,0,2.21-8.95,13.89,13.89,0,0,0-2.57-8.78,15.08,15.08,0,0,0-6.39-4.81A20.55,20.55,0,0,0,54,256.07l.18-.9a14.6,14.6,0,0,0,13.14-7.52,13,13,0,0,0,1.53-7.87,9.63,9.63,0,0,0-1.89-5.36,8.58,8.58,0,0,0-4-2.83,11.92,11.92,0,0,0-5.08-.54q-5.4.45-7.65,4.72t-2.07,12.74h-.9L42.1,232.94a25.76,25.76,0,0,1,9.27-4.64A45.68,45.68,0,0,1,64.51,226.55Z"/><path class="cls-2" d="M104,294.05l-.36-.63q9.63-3,15.07-6.66a24.12,24.12,0,0,0,8-8.37,28.48,28.48,0,0,0,3.15-10.58,126.81,126.81,0,0,0,.63-13.36q0-7.47-.36-12.47a18.4,18.4,0,0,0-1.76-7.47,5,5,0,0,0-4.72-2.47,6,6,0,0,0-5,2.2,12.92,12.92,0,0,0-2.34,5.72,43.37,43.37,0,0,0-.63,7.65,42.51,42.51,0,0,0,.58,8,10.93,10.93,0,0,0,1.62,4.27,5.75,5.75,0,0,0,2.3,1.94,5.69,5.69,0,0,0,3.82.27,12.81,12.81,0,0,0,2.93-1.26l.63.72a10.79,10.79,0,0,1-4,4.59,15.21,15.21,0,0,1-6.21,2.34,18.4,18.4,0,0,1-7.11-.32,16.85,16.85,0,0,1-6.62-3.24,16.59,16.59,0,0,1-4.81-6.43,22.58,22.58,0,0,1-1.62-9.9,23.44,23.44,0,0,1,3-11,20,20,0,0,1,8.55-7.92q5.76-3,14.67-3.06,13.23-.18,20.29,7t7.07,22.68a48.37,48.37,0,0,1-2.88,17.23,30.76,30.76,0,0,1-8.73,12.65,34.29,34.29,0,0,1-14.58,7.15Q115.81,295.48,104,294.05Z"/><path class="cls-2" d="M204.64,224.57l.36.63q-9.63,3-15.08,6.66a24.09,24.09,0,0,0-8,8.37,28.43,28.43,0,0,0-3.15,10.57,127,127,0,0,0-.63,13.37q0,7.47.36,12.46a17.84,17.84,0,0,0,1.8,7.47,5,5,0,0,0,4.68,2.48,6,6,0,0,0,5-2.21,12.94,12.94,0,0,0,2.34-5.76A43.53,43.53,0,0,0,193,271a42.37,42.37,0,0,0-.59-8,11.55,11.55,0,0,0-1.57-4.28,5.28,5.28,0,0,0-2.34-1.93,5.54,5.54,0,0,0-3.78-.27,12.61,12.61,0,0,0-3,1.26l-.72-.72a10.32,10.32,0,0,1,4-4.64,16,16,0,0,1,6.26-2.29,18.39,18.39,0,0,1,7.11.31,16.54,16.54,0,0,1,11.43,9.63,22.58,22.58,0,0,1,1.62,9.95,23.13,23.13,0,0,1-3,11,20,20,0,0,1-8.55,7.87q-5.72,2.92-14.62,3.11a32,32,0,0,1-14.94-3,20.26,20.26,0,0,1-9.27-9.76q-3.15-6.66-3.15-16.92A48.43,48.43,0,0,1,160.81,245a30.72,30.72,0,0,1,8.73-12.64,34.29,34.29,0,0,1,14.62-7.16Q192.94,223.13,204.64,224.57Z"/><path class="cls-5" d="M126.23,102.52a9.93,9.93,0,1,1,9.93-9.93A9.92,9.92,0,0,1,126.23,102.52Z"/><path class="cls-5" d="M114,105.32h26.07c4.81,0,10,5.23,10,10v33.36a4.36,4.36,0,0,1-8.71,0V121.29h-2v74.45a5.72,5.72,0,0,1-11.44,0V152.53h-1.85v43.21a5.72,5.72,0,1,1-11.44,0V121.29h-2v27.43a4.36,4.36,0,0,1-8.71,0V115.36C104,110.55,109.21,105.32,114,105.32Z"/><text class="cls-4" transform="translate(1040.4 290.41)">歳</text><path class="cls-2" d="M865.6,226.55a36.13,36.13,0,0,1,12.28,1.84,17.32,17.32,0,0,1,7.83,5.27,13,13,0,0,1,2.75,8.37,13.26,13.26,0,0,1-1.49,6.48,12.09,12.09,0,0,1-3.91,4.32,13.63,13.63,0,0,1-5.27,2.11,12.27,12.27,0,0,1-5.44-.22,22.87,22.87,0,0,1,5.89.85,19.63,19.63,0,0,1,6.12,2.88,15.65,15.65,0,0,1,4.82,5.49,18,18,0,0,1,1.89,8.69,21,21,0,0,1-2.93,11.11,23.92,23.92,0,0,1-7.87,7.92,34,34,0,0,1-11.12,4.41,42.58,42.58,0,0,1-12.69.72A38.1,38.1,0,0,1,844,293.51l.18-.9a35.46,35.46,0,0,0,10.53-1.35,27.46,27.46,0,0,0,8.77-4.28,21.15,21.15,0,0,0,6-6.84,18.24,18.24,0,0,0,2.21-8.95,13.89,13.89,0,0,0-2.57-8.78,15.08,15.08,0,0,0-6.39-4.81,20.55,20.55,0,0,0-7.69-1.53l.18-.9a14.6,14.6,0,0,0,13.14-7.52,13,13,0,0,0,1.53-7.87,9.63,9.63,0,0,0-1.89-5.36,8.58,8.58,0,0,0-4-2.83,11.92,11.92,0,0,0-5.08-.54q-5.4.45-7.65,4.72t-2.07,12.74h-.9l-5.13-15.57a25.76,25.76,0,0,1,9.27-4.64A45.68,45.68,0,0,1,865.6,226.55Z"/><path class="cls-2" d="M905.11,294.05l-.36-.63q9.63-3,15.07-6.66a24.12,24.12,0,0,0,8-8.37,28.48,28.48,0,0,0,3.15-10.58,126.81,126.81,0,0,0,.63-13.36q0-7.47-.36-12.47a18.4,18.4,0,0,0-1.76-7.47,5,5,0,0,0-4.72-2.47,6,6,0,0,0-5,2.2,12.92,12.92,0,0,0-2.34,5.72,43.37,43.37,0,0,0-.63,7.65,42.51,42.51,0,0,0,.58,8,10.93,10.93,0,0,0,1.62,4.27,5.75,5.75,0,0,0,2.3,1.94,5.69,5.69,0,0,0,3.82.27,12.81,12.81,0,0,0,2.93-1.26l.63.72a10.79,10.79,0,0,1-4,4.59,15.21,15.21,0,0,1-6.21,2.34,18.4,18.4,0,0,1-7.11-.32,16.85,16.85,0,0,1-6.62-3.24,16.59,16.59,0,0,1-4.81-6.43,22.58,22.58,0,0,1-1.62-9.9,23.44,23.44,0,0,1,3-11,20,20,0,0,1,8.55-7.92q5.76-3,14.67-3.06,13.23-.18,20.29,7t7.07,22.68a48.37,48.37,0,0,1-2.88,17.23,30.76,30.76,0,0,1-8.73,12.65,34.29,34.29,0,0,1-14.58,7.15Q916.9,295.48,905.11,294.05Z"/><path class="cls-2" d="M966.67,291.89a8.07,8.07,0,1,1,5.76-2.39A7.81,7.81,0,0,1,966.67,291.89Z"/><path class="cls-2" d="M1023,226.37l.81,6.66-32,31.14h36a6.26,6.26,0,0,0,3.78-.95,6.94,6.94,0,0,0,2.07-2.65h.9l-2.79,13.05H976.57v-.9Zm.9,58.5a4.6,4.6,0,0,0,1.48,3.42,4.83,4.83,0,0,0,3.47,1.44h1v.9H999.43l.09-.9h.9a5,5,0,0,0,3.55-1.4,4.55,4.55,0,0,0,1.49-3.46Zm-18.45-39.06L1023,226.37h.9v64.17h-18.45Z"/><text class="cls-6" transform="translate(601.39 291.77)">人</text><path class="cls-2" d="M510.73,270.07l-3.35-9a12.87,12.87,0,0,1,3.63-2.15,23.48,23.48,0,0,1,4.6-1.3,27.16,27.16,0,0,1,4.87-.45,20.47,20.47,0,0,1,7.3,1.23,11.82,11.82,0,0,1,5.13,3.5,8.37,8.37,0,0,1,1.87,5.52,10.16,10.16,0,0,1-1,4.5,16.63,16.63,0,0,1-2.68,3.9,30,30,0,0,1-3.6,3.33q-2,1.52-3.85,2.75l-3.4,2.17h9.5a6.41,6.41,0,0,0,2.73-.57,7.23,7.23,0,0,0,2.25-1.73,12.59,12.59,0,0,0,1.87-2.95h.5l-3.4,14.05h-26v-.5c1.44-1.77,2.91-3.53,4.43-5.3s3-3.52,4.4-5.27,2.69-3.5,3.82-5.23a28.06,28.06,0,0,0,2.7-5.15,13.68,13.68,0,0,0,1-5.05,7.19,7.19,0,0,0-1.72-5.1,5.42,5.42,0,0,0-4.68-1.6,5.86,5.86,0,0,0-4.77,2.88c-1.09,1.75-1.63,4.25-1.63,7.52Z"/><path class="cls-2" d="M544.58,294.77l-.2-.35a31.84,31.84,0,0,0,8.38-3.7,13.46,13.46,0,0,0,4.42-4.65,15.78,15.78,0,0,0,1.75-5.87,71.56,71.56,0,0,0,.35-7.43c0-2.77-.07-5.07-.2-6.92a10.26,10.26,0,0,0-1-4.15,2.78,2.78,0,0,0-2.63-1.38,3.32,3.32,0,0,0-2.8,1.23,7.11,7.11,0,0,0-1.3,3.17A24.45,24.45,0,0,0,551,269a23.25,23.25,0,0,0,.33,4.45,5.91,5.91,0,0,0,.9,2.38,3.07,3.07,0,0,0,3.4,1.22,6.84,6.84,0,0,0,1.62-.7l.35.4a6.06,6.06,0,0,1-2.2,2.55,8.4,8.4,0,0,1-3.45,1.3,10.35,10.35,0,0,1-4-.17,9.15,9.15,0,0,1-6.35-5.38,12.44,12.44,0,0,1-.9-5.5,13.1,13.1,0,0,1,1.65-6.1,11.12,11.12,0,0,1,4.75-4.4,18.08,18.08,0,0,1,8.15-1.7q7.35-.1,11.28,3.9t3.92,12.6a26.84,26.84,0,0,1-1.6,9.58,17.13,17.13,0,0,1-4.85,7,19.14,19.14,0,0,1-8.1,4A32.3,32.3,0,0,1,544.58,294.77Z"/><path class="cls-2" d="M574.38,292.87l0-.5h1.05a2.66,2.66,0,0,0,1.95-.8,2.61,2.61,0,0,0,.8-1.9V264.32a3.37,3.37,0,0,0-.9-2.7,3.63,3.63,0,0,0-2.4-.75H574v-.5c.7,0,1.64-.12,2.83-.27s2.45-.35,3.82-.6a38.51,38.51,0,0,0,4-.95,14.68,14.68,0,0,0,3.27-1.38h.5v32.55a2.49,2.49,0,0,0,.83,1.88,2.74,2.74,0,0,0,1.92.77h1.05v.5Z"/><text class="cls-6" transform="translate(735.58 292.73)">人</text><path class="cls-2" d="M649.8,293.83l.05-.5h1a2.69,2.69,0,0,0,2-.8,2.61,2.61,0,0,0,.8-1.9V265.28a3.37,3.37,0,0,0-.9-2.7,3.63,3.63,0,0,0-2.4-.75h-.9v-.5c.7,0,1.64-.13,2.82-.28s2.46-.35,3.83-.6a35.91,35.91,0,0,0,4-.95,14.58,14.58,0,0,0,3.28-1.37h.5v32.55a2.46,2.46,0,0,0,.82,1.87,2.71,2.71,0,0,0,1.93.78h1v.5Z"/><path class="cls-2" d="M686.4,258.13a14.09,14.09,0,0,1,13.65,8.62,25.65,25.65,0,0,1,0,19.13,14.64,14.64,0,0,1-5.3,6.37,16.39,16.39,0,0,1-16.68,0,14.48,14.48,0,0,1-5.32-6.37,25.65,25.65,0,0,1,0-19.13,14.59,14.59,0,0,1,5.32-6.35A14.92,14.92,0,0,1,686.4,258.13Zm0,2.5c-1.74,0-3,1.27-3.8,3.82s-1.2,6.51-1.2,11.88.4,9.32,1.2,11.87,2.06,3.83,3.8,3.83,3-1.28,3.8-3.83,1.2-6.5,1.2-11.87-.4-9.33-1.2-11.88S688.13,260.63,686.4,260.63Z"/><path class="cls-2" d="M727.55,267.23l-15.35,1.25-1,4.15a24.16,24.16,0,0,1,8.5-.7,14.15,14.15,0,0,1,6.2,2.12,10.36,10.36,0,0,1,3.7,4.28,12.27,12.27,0,0,1,1.05,5.8,11.73,11.73,0,0,1-2.05,6.4,14.21,14.21,0,0,1-4.88,4.32,20.79,20.79,0,0,1-6.47,2.25,22.44,22.44,0,0,1-6.93.18,18.6,18.6,0,0,1-6.22-1.9l.1-.5a17.26,17.26,0,0,0,3.2-.25,24,24,0,0,0,4-1,18.19,18.19,0,0,0,3.93-1.88,11,11,0,0,0,3-2.82,7.31,7.31,0,0,0,1.35-3.9,5.31,5.31,0,0,0-1.55-4.48,7.45,7.45,0,0,0-4.78-1.8,16,16,0,0,0-6.82,1.38l-.45-.3,4.15-19.2,14.9-1.25a4,4,0,0,0,2.5-.7,5.27,5.27,0,0,0,1.45-1.8h.5Z"/><text class="cls-7" transform="translate(51.83 59.1)">従業員数</text><text class="cls-7" transform="translate(841.94 59.1)">平均年齢</text><text class="cls-7" transform="translate(285.93 58.07)">女性従業員比率</text><polygon class="cls-5" points="573 128.24 576.32 98.39 514.69 98.39 511.37 128.24 573 128.24"/><text class="cls-8" transform="translate(528.02 119.46)">男性</text><polygon class="cls-2" points="715.09 128.24 718.41 98.39 656.78 98.39 653.46 128.24 715.09 128.24"/><text class="cls-8" transform="translate(670.11 119.46)">女性</text><path class="cls-9" d="M378.05,197.53,280.76,211.2a98.25,98.25,0,0,1,83.62-111,104.2,104.2,0,0,1,13.67-.95Z"/><path class="cls-10" d="M378.05,197.53V99.29a98.25,98.25,0,1,1,0,196.49c-49.91,0-90.34-35.14-97.29-84.58Z"/><path class="cls-1" d="M354,168.66a2.87,2.87,0,0,1,2.36.94,3.35,3.35,0,0,1,.6,2.6,3.77,3.77,0,0,1-1.29,2.59,4.4,4.4,0,0,1-2.93.93,2.82,2.82,0,0,1-2.36-1,3.55,3.55,0,0,1-.5-2.74,3.75,3.75,0,0,1,1.33-2.46A4.29,4.29,0,0,1,354,168.66Zm-.08.8c-.28,0-.53.24-.76.72a7.39,7.39,0,0,0-.52,2,7,7,0,0,0-.06,2c.08.48.25.72.5.72s.6-.26.83-.73a5.87,5.87,0,0,0,.49-2,7,7,0,0,0,0-2C354.34,169.7,354.17,169.46,353.91,169.46Zm-.28,13.86-.9-.38,6.92-13.06a3,3,0,0,1-1.08.42,3.76,3.76,0,0,1-1,0,4.55,4.55,0,0,1-1.24-.35q-.51-.25-1-.45a2.12,2.12,0,0,0-1-.16l-.28-.7a5,5,0,0,1,1.28.13,3,3,0,0,1,.84.32c.23.12.46.24.68.34a2.62,2.62,0,0,0,.78.19,3,3,0,0,0,1.05-.12,6.91,6.91,0,0,0,.91-.38l.74-.38.78.34Zm7.58-7.16a2.85,2.85,0,0,1,2.33.94,3.35,3.35,0,0,1,.63,2.6,3.59,3.59,0,0,1-1.26,2.59,4.47,4.47,0,0,1-3,.93,2.82,2.82,0,0,1-2.36-1,3.55,3.55,0,0,1-.5-2.74,3.75,3.75,0,0,1,1.33-2.46A4.29,4.29,0,0,1,361.21,176.16Zm-.22.8q-.42,0-.75.72a7.43,7.43,0,0,0-.51,2,6.75,6.75,0,0,0-.08,2c.08.48.25.72.5.72s.6-.24.83-.71a6.14,6.14,0,0,0,.51-2,7,7,0,0,0,0-2C361.44,177.2,361.26,177,361,177Z"/><path class="cls-1" d="M311.06,168.63l-2-5.4a7.56,7.56,0,0,1,2.17-1.29,14.31,14.31,0,0,1,2.76-.78,16.38,16.38,0,0,1,2.93-.27,12.57,12.57,0,0,1,4.38.73,7.23,7.23,0,0,1,3.07,2.11,5,5,0,0,1,1.13,3.31,6.08,6.08,0,0,1-.62,2.7,9.82,9.82,0,0,1-1.6,2.34,17.83,17.83,0,0,1-2.16,2q-1.17.91-2.31,1.65l-2,1.3h5.7a3.78,3.78,0,0,0,1.63-.34,4.23,4.23,0,0,0,1.35-1,7.4,7.4,0,0,0,1.13-1.77h.3l-2,8.43h-15.6V182c.86-1.06,1.74-2.12,2.65-3.18s1.79-2.11,2.64-3.16a38.49,38.49,0,0,0,2.3-3.14,17,17,0,0,0,1.62-3.09,8.25,8.25,0,0,0,.6-3,4.31,4.31,0,0,0-1-3.06,3.24,3.24,0,0,0-2.8-1,3.53,3.53,0,0,0-2.87,1.73,8.61,8.61,0,0,0-1,4.51Z"/><path class="cls-1" d="M328.88,161.37l15.9-.06-3.84,8.91q-.39.87-.84,2.1t-.93,2.64q-.48,1.41-.93,2.79c-.3.92-.58,1.78-.83,2.57s-.44,1.45-.58,2h-5.1l1.29-2.17c.5-.85,1-1.76,1.56-2.72l1.6-2.86c.53-.95,1-1.83,1.43-2.64s.76-1.49,1-2l1.56-3.33h-9.6a2.06,2.06,0,0,0-1.41.45,3.26,3.26,0,0,0-.84,1.35H328Z"/><path class="cls-1" d="M437.13,223.86a2.88,2.88,0,0,1,2.36.94,3.36,3.36,0,0,1,.6,2.6A3.75,3.75,0,0,1,438.8,230a4.42,4.42,0,0,1-2.93.93,2.81,2.81,0,0,1-2.36-1,3.46,3.46,0,0,1-.5-2.74,3.75,3.75,0,0,1,1.33-2.46A4.29,4.29,0,0,1,437.13,223.86Zm-.08.8c-.28,0-.53.24-.76.72a7,7,0,0,0-.52,2,7,7,0,0,0-.06,2c.08.48.25.72.5.72s.59-.26.83-.73a6.06,6.06,0,0,0,.49-2,7.34,7.34,0,0,0,0-2C437.47,224.9,437.3,224.66,437.05,224.66Zm-.28,13.86-.9-.38,6.92-13.06a2.69,2.69,0,0,1-1.08.42,3.76,3.76,0,0,1-1,0,4.22,4.22,0,0,1-1.24-.35q-.53-.25-1-.45a2.24,2.24,0,0,0-1.05-.16l-.28-.7a5.09,5.09,0,0,1,1.28.13,3.69,3.69,0,0,1,.84.32,7.18,7.18,0,0,0,.68.34,2.55,2.55,0,0,0,.78.19,2.62,2.62,0,0,0,1-.12,5.78,5.78,0,0,0,.91-.38l.74-.38.78.34Zm7.58-7.16a2.86,2.86,0,0,1,2.33.94,3.36,3.36,0,0,1,.63,2.6,3.64,3.64,0,0,1-1.26,2.59,4.48,4.48,0,0,1-3,.93,2.81,2.81,0,0,1-2.36-1,3.46,3.46,0,0,1-.5-2.74,3.75,3.75,0,0,1,1.33-2.46A4.28,4.28,0,0,1,444.35,231.36Zm-.22.8q-.42,0-.75.72a7.43,7.43,0,0,0-.51,2,6.75,6.75,0,0,0-.08,2c.08.48.25.72.5.72s.59-.24.83-.71a6.62,6.62,0,0,0,.51-2,7,7,0,0,0,0-2C444.57,232.4,444.4,232.16,444.13,232.16Z"/><path class="cls-1" d="M394.27,216.57l15.9-.06-3.84,8.91q-.39.87-.84,2.1t-.93,2.64q-.48,1.41-.93,2.79c-.3.92-.58,1.78-.83,2.57s-.44,1.45-.58,2h-5.1l1.29-2.17c.5-.85,1-1.76,1.56-2.72l1.6-2.86c.53-.95,1-1.83,1.43-2.64s.76-1.49,1-2l1.56-3.33H396a2.06,2.06,0,0,0-1.41.45,3.26,3.26,0,0,0-.84,1.35h-.3Z"/><path class="cls-1" d="M418.81,216.15a12,12,0,0,1,4.09.62,5.76,5.76,0,0,1,2.61,1.75,4.32,4.32,0,0,1,.92,2.79,4.42,4.42,0,0,1-.5,2.16,4,4,0,0,1-1.3,1.44,4.57,4.57,0,0,1-1.76.71,4.07,4.07,0,0,1-1.81-.08,7.63,7.63,0,0,1,2,.29,6.54,6.54,0,0,1,2,1,5.22,5.22,0,0,1,1.61,1.83,6,6,0,0,1,.63,2.89,7,7,0,0,1-1,3.71,8,8,0,0,1-2.62,2.64,11.35,11.35,0,0,1-3.71,1.47,14.19,14.19,0,0,1-4.23.24,12.69,12.69,0,0,1-4.15-1.1l.06-.3a11.82,11.82,0,0,0,3.51-.45,9.12,9.12,0,0,0,2.92-1.42,7,7,0,0,0,2-2.28,6.11,6.11,0,0,0,.74-3,4.61,4.61,0,0,0-.86-2.92,5,5,0,0,0-2.13-1.61,6.83,6.83,0,0,0-2.56-.51l.06-.3a4.84,4.84,0,0,0,4.38-2.5,4.36,4.36,0,0,0,.51-2.63,3.19,3.19,0,0,0-.63-1.78,2.88,2.88,0,0,0-1.34-.95,4,4,0,0,0-1.69-.18,3,3,0,0,0-2.55,1.58,9,9,0,0,0-.69,4.24h-.3l-1.71-5.19a8.58,8.58,0,0,1,3.09-1.54A15.22,15.22,0,0,1,418.81,216.15Z"/><text class="cls-8" transform="translate(321.17 146.39)">女性</text><text class="cls-8" transform="translate(403.64 201.93)">男性</text><path class="cls-5" d="M937.24,128.67a8.36,8.36,0,0,0-.88-2.11,8.77,8.77,0,0,0-2.44-2.65,14,14,0,0,0-2.24-1.29c-1.16-.53-2.35-1-3.45-1.35a19.6,19.6,0,0,1-2.9-1.23l-.08-.05a5.16,5.16,0,0,1-.77-.52,3.25,3.25,0,0,1-.78-.89,2.83,2.83,0,0,1-.36-1.15,3.35,3.35,0,0,1-.05-.63,13.69,13.69,0,0,1,.29-2.69,9.84,9.84,0,0,0,1.37-2,20.59,20.59,0,0,0,1.24-2.78,6,6,0,0,0,.78-.43,5.51,5.51,0,0,0,1.59-1.63,8.25,8.25,0,0,0,1.09-2.71,3.94,3.94,0,0,0,.1-.9,4.12,4.12,0,0,0-.4-1.75,5.12,5.12,0,0,0-.65-1c.13-.48.29-1.12.43-1.88a19.44,19.44,0,0,0,.36-3.62,13.6,13.6,0,0,0-.24-2.6,9.94,9.94,0,0,0-.6-1.92,7.25,7.25,0,0,0-1.84-2.53,7.53,7.53,0,0,0-2.9-1.55,9.83,9.83,0,0,0-1.25-1.25,7.14,7.14,0,0,0-1.12-.76,6.32,6.32,0,0,0-1.79-.65,9,9,0,0,0-1.88-.17c-.89,0-1.82.08-2.86.18-.39,0-.72.09-1,.14l-1,.2-.35.06-.34,0a3.5,3.5,0,0,1-.59,0,13,13,0,0,1-2-.44l-.69-.22-.23-.1a.69.69,0,0,1-.14-.06.85.85,0,0,0-.24-.08l-.19,0a.89.89,0,0,0-.26,0l-.16,0a1,1,0,0,0-.21.11,2.68,2.68,0,0,0-.37.25,8.13,8.13,0,0,0-.7.6,11.9,11.9,0,0,0-1.15,1.26c-.18.24-.35.48-.51.73a6.51,6.51,0,0,0-.4.79,22.22,22.22,0,0,0-1.09,3.76,16.73,16.73,0,0,0-.3,3.17,20.73,20.73,0,0,0,.44,4.06.81.81,0,0,0,0,.16c0,.11,0,.22,0,.33s0,.35.06.5,0,.13,0,.19v.08h0v.1l.21.93a4.67,4.67,0,0,0-.77,1.09,4.15,4.15,0,0,0-.45,1.86,4.09,4.09,0,0,0,.1.91h0a9.47,9.47,0,0,0,.65,1.93,6,6,0,0,0,1.46,2,5.38,5.38,0,0,0,1.35.86,22,22,0,0,0,1.23,2.78,10.73,10.73,0,0,0,1.37,2,13.65,13.65,0,0,1,.3,2.69,4.46,4.46,0,0,1-.05.63,2.92,2.92,0,0,1-.88,1.81,5.21,5.21,0,0,1-1.14.81l-.35.19c-.38.19-.79.37-1.23.55-1,.4-2.18.79-3.36,1.25a18.94,18.94,0,0,0-2.63,1.23,11.3,11.3,0,0,0-1.82,1.31,8.32,8.32,0,0,0-2.08,2.89,10.53,10.53,0,0,0-.78,4.22,1.85,1.85,0,0,0,.13.66,2.33,2.33,0,0,0,.3.53,4.13,4.13,0,0,0,.9.86,11,11,0,0,0,2.62,1.32,32.42,32.42,0,0,0,6.78,1.57,76.61,76.61,0,0,0,10.68.66,82.22,82.22,0,0,0,9.5-.5,45.24,45.24,0,0,0,5.15-.89,24.62,24.62,0,0,0,2.84-.85,12.93,12.93,0,0,0,1.6-.7,9.51,9.51,0,0,0,.93-.56,4.38,4.38,0,0,0,1-.93,2.39,2.39,0,0,0,.3-.54,1.68,1.68,0,0,0,.12-.63A11.67,11.67,0,0,0,937.24,128.67ZM908.42,92.76c4.82,1,14.24-1,14.24-1a8.75,8.75,0,0,0,1.71,4.41,9.64,9.64,0,0,1,1.27,2.53,3.19,3.19,0,0,0-.48,0,.3.3,0,0,1-.28-.29c-.06-.26-.3-.34-.69-.39a18.24,18.24,0,0,0-3.12-.1c-3.73.18-3.45.52-4.91.52s-1.19-.34-4.92-.52a18.24,18.24,0,0,0-3.12.1c-.39,0-.63.13-.69.39a.3.3,0,0,1-.28.29H907A18.08,18.08,0,0,0,908.42,92.76Zm15.71,7.9s0,2.16-1.47,2.89a3.9,3.9,0,0,1-1.74.38,3.5,3.5,0,0,1-1.76-.43,2.36,2.36,0,0,1-1.08-1.39c0-.14-.08-.28-.11-.42-.12-.41-.43-1.56.23-2.07a6.38,6.38,0,0,1,3-.54,4.74,4.74,0,0,1,2.66.51A1.47,1.47,0,0,1,924.13,100.66Zm-9.79,1c0,.14-.07.28-.11.42a2.32,2.32,0,0,1-1.08,1.39,3.5,3.5,0,0,1-1.76.43,3.9,3.9,0,0,1-1.74-.38c-1.46-.73-1.47-2.87-1.47-2.89a1.47,1.47,0,0,1,.28-1.07,4.74,4.74,0,0,1,2.66-.51,6.35,6.35,0,0,1,3,.54C914.77,100.13,914.46,101.28,914.34,101.69Zm.09,27.07-5.69-7.71.22-.16a5.13,5.13,0,0,0,.85-.83l4.59,2.09-1,1.61,1.51,1.58Zm-4-9.76a4.74,4.74,0,0,0,.37-1.39,5.59,5.59,0,0,0,0-.81,15.43,15.43,0,0,0-.38-3.29l-.06-.24-.17-.18A7.94,7.94,0,0,1,909,111.3a20.49,20.49,0,0,1-1.27-2.91l-.14-.39-.39-.14a3.61,3.61,0,0,1-1.88-1.51,7,7,0,0,1-.85-2.15,2.37,2.37,0,0,1-.06-.52,2.27,2.27,0,0,1,.27-1.07,3.09,3.09,0,0,1,.58-.79,14.4,14.4,0,0,0,.88,1.21c.4.39.46-.54.27-1.58a3.76,3.76,0,0,1,.22-1.86V100a.29.29,0,0,0,.27.25c.15,0,.26.07.26.18s0,2.76,2,3.8,4.89.65,5.88-1.67c.45-1,.46-2.07,1.14-2.07s.68,1,1.13,2.07c1,2.32,3.92,2.71,5.88,1.67s2-3.62,2-3.8.11-.18.26-.18a.29.29,0,0,0,.27-.25V98.82a29.32,29.32,0,0,1,1.09,4.08s.21-.39.52-.91a2.86,2.86,0,0,1,.45.68,2.41,2.41,0,0,1,.24,1,2.37,2.37,0,0,1-.06.52,8.44,8.44,0,0,1-.53,1.57,4.4,4.4,0,0,1-1,1.41,3.68,3.68,0,0,1-1.17.68l-.4.14-.13.39a20.49,20.49,0,0,1-1.27,2.91,8.28,8.28,0,0,1-1.27,1.79l-.17.18-.05.24a15.38,15.38,0,0,0-.39,3.29,5.62,5.62,0,0,0,.06.81,4.8,4.8,0,0,0,.31,1.28l0,0-5.43,2.8Zm7.95,10.13-.56-3.79,1.51-1.58-1-1.61,4.15-2.15a3.62,3.62,0,0,0,.36.42,8,8,0,0,0,.77.65Z"/><path class="cls-5" d="M923.32,108.89a4.91,4.91,0,0,1-1.83-1.64c-.93-1.43-2.85-3.1-5.28-1.78-2.42-1.32-4.35.35-5.28,1.78a4.91,4.91,0,0,1-1.83,1.64s1.42,1.61,4.25.66a2.92,2.92,0,0,1,5.72,0C921.91,110.5,923.32,108.89,923.32,108.89Z"/><path class="cls-5" d="M991.91,127.1a8.63,8.63,0,0,0-3.94-3.56,34.77,34.77,0,0,0-3.9-1.48,21.54,21.54,0,0,0-2.45-.61,1.65,1.65,0,0,1-.51-.2h0v-.73a11.83,11.83,0,0,0,3-5.6,3.22,3.22,0,0,0,.6-.33,4.11,4.11,0,0,0,1.28-1.53,14.18,14.18,0,0,0,1-2.73,5.84,5.84,0,0,0,.25-1.59,3.53,3.53,0,0,0-.07-.67,3.82,3.82,0,0,0,.71-.76,6.36,6.36,0,0,0,1.06-3.88,14.73,14.73,0,0,0-.42-3.33,14.25,14.25,0,0,0-4.52-7.61,12.2,12.2,0,0,0-3.64-2.17,6,6,0,0,0,.11-1.06,5.64,5.64,0,0,0-11.27,0,6,6,0,0,0,.11,1.06,12,12,0,0,0-3.64,2.17,14.25,14.25,0,0,0-4.52,7.61,14.81,14.81,0,0,0-.43,3.33,6.42,6.42,0,0,0,1.07,3.88,3.55,3.55,0,0,0,.71.76,3.53,3.53,0,0,0-.07.67,5.84,5.84,0,0,0,.25,1.59,11,11,0,0,0,1.39,3.35,3.74,3.74,0,0,0,.91.91,3.15,3.15,0,0,0,.59.33,11.92,11.92,0,0,0,3,5.6v.72a.6.6,0,0,1-.23.14,7,7,0,0,1-1.15.29,11.59,11.59,0,0,0-1.57.39c-.65.23-1.52.49-2.47.84a10.86,10.86,0,0,0-4.27,2.65,8.34,8.34,0,0,0-2.13,6c0,.37,0,.75,0,1.14a1.43,1.43,0,0,0,.24.64,3,3,0,0,0,.83.78,11.77,11.77,0,0,0,2.44,1.13,45,45,0,0,0,14.49,2.11,49.19,49.19,0,0,0,12.56-1.5,18.85,18.85,0,0,0,3.69-1.35,5.56,5.56,0,0,0,1.12-.72,2.41,2.41,0,0,0,.4-.44,1.4,1.4,0,0,0,.23-.65,11.11,11.11,0,0,0,0-1.14A9,9,0,0,0,991.91,127.1Zm-12.36-1.9a7.77,7.77,0,0,1-9.34,0,4.17,4.17,0,0,1-1.18-2.28,2.8,2.8,0,0,0,.65-.36,1.72,1.72,0,0,0,.48-.58,1.62,1.62,0,0,0,.17-.78v-1a.81.81,0,0,0-.21-.56,10.41,10.41,0,0,1-3-5.47.84.84,0,0,0-.54-.64,2.73,2.73,0,0,1-.64-.31,2.42,2.42,0,0,1-.76-.94,12.18,12.18,0,0,1-.89-2.4c0-.17-.07-.31-.1-.45l2.28,2.8.48-5c4.68-2.75,6.93-5.57,7.89-7.13a22.33,22.33,0,0,0,7.9,7.13l.48,5,2.27-2.8a3.1,3.1,0,0,1-.1.45,9.26,9.26,0,0,1-1.15,2.83,1.87,1.87,0,0,1-.5.51,2.47,2.47,0,0,1-.63.31.82.82,0,0,0-.54.64,10.48,10.48,0,0,1-3,5.47.82.82,0,0,0-.22.56v1a1.66,1.66,0,0,0,.17.76,1.85,1.85,0,0,0,.88.85l.26.1A4.18,4.18,0,0,1,979.55,125.2Z"/><path class="cls-5" d="M907.17,193.25a8.16,8.16,0,0,0-.89-2.15,8.75,8.75,0,0,0-2.46-2.69,13.47,13.47,0,0,0-2.26-1.3c-1.16-.55-2.36-1-3.45-1.37a19,19,0,0,1-2.89-1.26,6.73,6.73,0,0,1-.76-.53,3.29,3.29,0,0,1-.78-.91,2.88,2.88,0,0,1-.36-1.17,7.7,7.7,0,0,1-.05-.94,11.62,11.62,0,0,1,.29-2.42,10.59,10.59,0,0,0,1.37-2,23.43,23.43,0,0,0,1.23-2.82,5.12,5.12,0,0,0,.78-.44,5.59,5.59,0,0,0,1.59-1.65,8.66,8.66,0,0,0,1.08-2.74,4.17,4.17,0,0,0-.3-2.69,4.59,4.59,0,0,0-.65-1c.13-.48.29-1.14.43-1.9a20,20,0,0,0,.36-3.67,13.94,13.94,0,0,0-.24-2.64,10.45,10.45,0,0,0-.6-2,7.23,7.23,0,0,0-1.84-2.56,7.53,7.53,0,0,0-2.88-1.57,10.2,10.2,0,0,0-1.52-1.5,8,8,0,0,0-2.76-1.46,9.72,9.72,0,0,0-2.86-.39c-.51,0-1,0-1.51.07s-.87.09-1.22.15a8.94,8.94,0,0,0-1.38.35c-.42.15-.82.32-1.35.52-.2.08-.47.2-.79.36a14.67,14.67,0,0,0-2,1.27,13.17,13.17,0,0,0-3.41,3.71,11.91,11.91,0,0,0-1.21,2.78,12.38,12.38,0,0,0-.48,3.44,14.51,14.51,0,0,0,.22,2.47v.17l0,.34c0,.17,0,.35.06.5a1,1,0,0,0,0,.19v.08h0V164l.21.94a5.43,5.43,0,0,0-.77,1.12,4.19,4.19,0,0,0-.35,2.8,9.9,9.9,0,0,0,.65,1.95,6.15,6.15,0,0,0,1.45,2,5.2,5.2,0,0,0,1.35.88,21.94,21.94,0,0,0,1.23,2.82,10.14,10.14,0,0,0,1.37,2,11.62,11.62,0,0,1,.29,2.42,8,8,0,0,1,0,.95,3,3,0,0,1-.2.84,2.94,2.94,0,0,1-.67,1,5.89,5.89,0,0,1-1.14.83,13.84,13.84,0,0,1-1.58.74c-1,.41-2.17.8-3.34,1.26a20.27,20.27,0,0,0-2.62,1.26,10.94,10.94,0,0,0-1.82,1.32,8.34,8.34,0,0,0-2.07,2.93,10.83,10.83,0,0,0-.79,4.28,1.9,1.9,0,0,0,.13.67,2.43,2.43,0,0,0,.31.54,4.34,4.34,0,0,0,.89.87,11.21,11.21,0,0,0,2.61,1.34,32.82,32.82,0,0,0,6.76,1.59,76.06,76.06,0,0,0,10.65.67,81.43,81.43,0,0,0,9.47-.51,44.84,44.84,0,0,0,5.14-.9,27.11,27.11,0,0,0,2.83-.86,12.84,12.84,0,0,0,1.6-.72,7.25,7.25,0,0,0,.92-.57,4.17,4.17,0,0,0,1-.93,3,3,0,0,0,.3-.56,1.86,1.86,0,0,0,.12-.63A11.65,11.65,0,0,0,907.17,193.25Zm-22.83.8-6.29-8a7.58,7.58,0,0,0,.93-.63,5.26,5.26,0,0,0,.85-.85l4.57,2.12-1,1.63,1.51,1.6Zm-3.86-10.58a4.57,4.57,0,0,0,.36-1.41,11.13,11.13,0,0,0,.06-1.13,14,14,0,0,0-.38-3l-.06-.24-.17-.18a8.55,8.55,0,0,1-1.26-1.82,21.13,21.13,0,0,1-1.26-2.94l-.14-.4-.39-.14a3.45,3.45,0,0,1-.79-.4,3.74,3.74,0,0,1-1.09-1.14,6.69,6.69,0,0,1-.84-2.18,2.37,2.37,0,0,1-.06-.52,2.46,2.46,0,0,1,.26-1.09,3.44,3.44,0,0,1,.59-.8,11.58,11.58,0,0,0,.87,1.23c.4.4.27.28.41.08,0,0,.45-.64,2.85-5.31,4.81,1.06,13.21-6.15,13.21-6.15a8.83,8.83,0,0,0,1.7,4.46c1.52,2,2.38,6.79,2.38,6.79s.21-.4.52-.92a3,3,0,0,1,.45.69,2.41,2.41,0,0,1,.23,1,2.37,2.37,0,0,1-.06.52,7,7,0,0,1-.53,1.59,4.14,4.14,0,0,1-1,1.43,3.57,3.57,0,0,1-1.17.7l-.39.14-.14.39a20.8,20.8,0,0,1-1.26,2.95,8.55,8.55,0,0,1-1.26,1.82l-.17.18-.06.24a14,14,0,0,0-.38,3,8.83,8.83,0,0,0,.06,1.13,4.51,4.51,0,0,0,.31,1.29.14.14,0,0,0,0,.06l-5.41,2.84Zm8,10.87-.65-4.45,1.51-1.6-1-1.63,4.13-2.18a3.62,3.62,0,0,0,.36.42,7.06,7.06,0,0,0,1.4,1.08Z"/><path class="cls-5" d="M967.2,190.27a10.44,10.44,0,0,0-5.2-3.77c-.94-.35-1.87-.61-2.68-.84s-1.51-.4-2-.58a10.81,10.81,0,0,1-2.31-1.14,2.81,2.81,0,0,1-.68-.62.8.8,0,0,1-.18-.43v-3.11a12.47,12.47,0,0,0,3.21-5.9,3.8,3.8,0,0,0,.65-.36,4.51,4.51,0,0,0,1.33-1.58,15.1,15.1,0,0,0,1.06-2.86,6.08,6.08,0,0,0,.26-1.66,3.1,3.1,0,0,0-.32-1.45,2.3,2.3,0,0,0-1.11-1c1.73-9.35-3.73-16.47-11-16.11-6.64-1.47-10.89-1.11-11.44,4.8a6.56,6.56,0,0,0,.14,4.8,13.88,13.88,0,0,0-.53,3.64v2.76a2.37,2.37,0,0,0-.57.26,2.25,2.25,0,0,0-.81.86,3,3,0,0,0-.33,1.45,6.08,6.08,0,0,0,.26,1.66,11.79,11.79,0,0,0,1.46,3.5,3.81,3.81,0,0,0,.94.94,3.38,3.38,0,0,0,.64.36,12.47,12.47,0,0,0,3.21,5.9v3.11a.78.78,0,0,1-.19.44,4.34,4.34,0,0,1-1.24,1,10.44,10.44,0,0,1-1.72.77c-.65.23-1.69.47-2.86.81a14.32,14.32,0,0,0-5.52,2.68,8.16,8.16,0,0,0-2.1,2.76,9.57,9.57,0,0,0-.82,4c0,.37,0,.74.05,1.13a1.53,1.53,0,0,0,.25.68,3.2,3.2,0,0,0,.93.85,13.07,13.07,0,0,0,2.81,1.32,52.63,52.63,0,0,0,16.88,2.45A57.57,57.57,0,0,0,962.32,200a23,23,0,0,0,4.28-1.56,5.94,5.94,0,0,0,1.27-.83,2.22,2.22,0,0,0,.44-.48,1.42,1.42,0,0,0,.25-.68c0-.39.05-.76.05-1.13A9.06,9.06,0,0,0,967.2,190.27Zm-26-5a4.9,4.9,0,0,0,1.08-1,2.33,2.33,0,0,0,.52-1.42v-3.73l-.21-.23a11.08,11.08,0,0,1-3.12-5.78l-.09-.47-.44-.16a3,3,0,0,1-.69-.33,2.81,2.81,0,0,1-.82-1,14,14,0,0,1-.94-2.55,4.82,4.82,0,0,1-.2-1.21,1.38,1.38,0,0,1,.14-.68.69.69,0,0,1,.39-.33,1,1,0,0,1,.34-.07l.84.06v-4.31a11.41,11.41,0,0,1,.1-1.39c1.88,2.69,5.44,5.22,11.41,6.24-.74-1.29-2.22-7.93-2.22-7.93s4,5.82,10,6.43v.95l.84,0a.91.91,0,0,1,.49.13.61.61,0,0,1,.24.26,1.38,1.38,0,0,1,.14.68,4.34,4.34,0,0,1-.2,1.21,10.2,10.2,0,0,1-1.22,3,2.18,2.18,0,0,1-.54.55,2.77,2.77,0,0,1-.69.33l-.44.16-.08.47a11,11,0,0,1-3.13,5.78l-.21.23v3.73a2.42,2.42,0,0,0,.49,1.4,5.31,5.31,0,0,0,1.69,1.38c.31.18.63.33,1,.48l-3.13,3.12a10.45,10.45,0,0,1-9.51,0l-3.2-3.2A10.7,10.7,0,0,0,941.24,185.31Z"/><path class="cls-5" d="M936.75,173.18s.91,10.4-2.92,13.5c0,0,11.3-1.4,7.93-7.1l-3.28-6.44-2-1.39Z"/><path class="cls-5" d="M958.61,173.18s-.91,10.4,2.92,13.5c0,0-11.3-1.4-7.93-7.1l3.28-6.44,2-1.39Z"/><path class="cls-5" d="M1024.61,190.93a9.48,9.48,0,0,0-4.37-3.71c-1.62-.74-3.21-1.14-4.17-1.5a8.13,8.13,0,0,1-2.19-1.2,3.3,3.3,0,0,1-.67-.7,1,1,0,0,1-.19-.49v-2.27a12,12,0,0,0,3.08-5.68,3.43,3.43,0,0,0,.62-.34,4.08,4.08,0,0,0,1.28-1.52,14.19,14.19,0,0,0,1-2.75,5.53,5.53,0,0,0,.25-1.59,3.55,3.55,0,0,0-.06-.67c7.14-9.2-3.57-21.26-11.5-19.85-6.21-1.59-11.81,3.88-14,8.7-1.79,3.9-1.19,9.28.7,11.11a3.17,3.17,0,0,0-.07.71,5.9,5.9,0,0,0,.25,1.59,11.28,11.28,0,0,0,1.4,3.37,3.84,3.84,0,0,0,.9.9,3.43,3.43,0,0,0,.62.34,12,12,0,0,0,3.08,5.68v2.27a1,1,0,0,1-.2.5,4.54,4.54,0,0,1-1.21,1.08,8.16,8.16,0,0,1-1.62.81c-.65.22-1.58.48-2.6.84a12.37,12.37,0,0,0-4.71,2.74,8.52,8.52,0,0,0-2.41,6.27c0,.36,0,.73,0,1.12a1.42,1.42,0,0,0,.21.61,3,3,0,0,0,.79.81,11,11,0,0,0,2.43,1.27c3.13,1.24,8.42,2.39,15.49,2.4a48.23,48.23,0,0,0,13.51-1.72,18.5,18.5,0,0,0,3.74-1.51,5.6,5.6,0,0,0,1.09-.8,2.21,2.21,0,0,0,.37-.45,1.3,1.3,0,0,0,.21-.61c0-.39,0-.76,0-1.12A9,9,0,0,0,1024.61,190.93Zm-11.1-4.76a1.05,1.05,0,0,1,.11.07l-2.72,6.65-3.29-4.1,4.79-3.52A7,7,0,0,0,1013.51,186.17Zm-14.57-11.49-.08-.45-.43-.15a2.71,2.71,0,0,1-.66-.32,2.58,2.58,0,0,1-.79-1,13.67,13.67,0,0,1-.9-2.44,4.47,4.47,0,0,1-.19-1.17,1.27,1.27,0,0,1,.13-.65.67.67,0,0,1,.37-.32.94.94,0,0,1,.28-.06l.36.07L998,171l.53-2.48,2.73-3.9a18.72,18.72,0,0,1-.71,3.55c5.22-1.69,6.58-3.65,6.86-4.14l-1.72,3.43s6-1.78,7-4.26l-1.15,3.81s3.19-.88,3.72-2.3c.31-.82.35.27.33,1.34h-.06v5l1.32-2.86h0a.92.92,0,0,1,.47.13.55.55,0,0,1,.22.25,1.27,1.27,0,0,1,.13.65,4.47,4.47,0,0,1-.19,1.17,9.61,9.61,0,0,1-1.17,2.88,2.19,2.19,0,0,1-.52.53,2.71,2.71,0,0,1-.66.32l-.42.15-.08.45a10.56,10.56,0,0,1-3,5.56l-.2.22v2.87a2.38,2.38,0,0,0,.26,1L1006.8,188l-4.93-3.62a2.15,2.15,0,0,0,.27-1v-2.87l-.2-.22A10.63,10.63,0,0,1,998.94,174.68Zm1.7,11.09a6.85,6.85,0,0,0,.56-.5l4.79,3.52-3.29,4.1-2.72-6.65A7.85,7.85,0,0,0,1000.64,185.77Z"/><path class="cls-5" d="M592.91,222.48a13.26,13.26,0,0,0-1.32-3.21,13.09,13.09,0,0,0-3.69-4,20.74,20.74,0,0,0-3.37-1.95c-1.74-.81-3.51-1.44-5.15-2.05a26.41,26.41,0,0,1-4.31-1.88,8.58,8.58,0,0,1-1.15-.79,5,5,0,0,1-1.16-1.35,4.29,4.29,0,0,1-.54-1.74c-.05-.5-.07-1-.07-1.41a16.59,16.59,0,0,1,.44-3.61,16.19,16.19,0,0,0,2-3,32.35,32.35,0,0,0,1.84-4.21,7.9,7.9,0,0,0,1.16-.65,8.15,8.15,0,0,0,2.37-2.47,13,13,0,0,0,1.62-4.1,6.24,6.24,0,0,0-.44-4,6.76,6.76,0,0,0-1-1.53c.2-.72.44-1.7.65-2.84a30.7,30.7,0,0,0,.53-5.49,20.41,20.41,0,0,0-.36-3.94,14.28,14.28,0,0,0-.89-2.9,10.71,10.71,0,0,0-2.74-3.83,11.15,11.15,0,0,0-4.32-2.34,15.51,15.51,0,0,0-2.27-2.25,12.23,12.23,0,0,0-4.11-2.18,14.63,14.63,0,0,0-4.28-.58c-.75,0-1.5,0-2.26.11s-1.29.14-1.81.23a11.9,11.9,0,0,0-2.06.52c-.63.22-1.23.47-2,.78-.3.12-.7.29-1.17.53a21,21,0,0,0-3.05,1.89,19.43,19.43,0,0,0-5.09,5.54,17.5,17.5,0,0,0-1.82,4.16,18.71,18.71,0,0,0-.7,5.13,22,22,0,0,0,.32,3.69V177c0,.16,0,.33,0,.5s.06.52.08.75,0,.21,0,.28v.12h0v.15l.32,1.4a7.35,7.35,0,0,0-1.15,1.66,6.37,6.37,0,0,0-.68,2.82,5.8,5.8,0,0,0,.16,1.36,13.88,13.88,0,0,0,1,2.92,9.22,9.22,0,0,0,2.17,3,8,8,0,0,0,2,1.3,32.29,32.29,0,0,0,1.85,4.21,15.6,15.6,0,0,0,2,3,16.69,16.69,0,0,1,.44,3.62,14,14,0,0,1-.07,1.41,4.66,4.66,0,0,1-.3,1.26,4.4,4.4,0,0,1-1,1.47,7.7,7.7,0,0,1-1.7,1.24,19.18,19.18,0,0,1-2.35,1.11c-1.51.61-3.24,1.19-5,1.89a28.61,28.61,0,0,0-3.92,1.87,16.06,16.06,0,0,0-2.71,2,12.35,12.35,0,0,0-3.1,4.38,16.29,16.29,0,0,0-1.17,6.38,2.78,2.78,0,0,0,.19,1,3.6,3.6,0,0,0,.46.81,6.16,6.16,0,0,0,1.34,1.3,16.42,16.42,0,0,0,3.89,2,47.92,47.92,0,0,0,10.1,2.39,114.07,114.07,0,0,0,15.91,1,120.29,120.29,0,0,0,14.14-.76,67.91,67.91,0,0,0,7.66-1.34,37.49,37.49,0,0,0,4.23-1.29A19.45,19.45,0,0,0,590,231.1a10.52,10.52,0,0,0,1.38-.85,6.12,6.12,0,0,0,1.46-1.4,4.07,4.07,0,0,0,.45-.82,2.75,2.75,0,0,0,.17-.95A17.57,17.57,0,0,0,592.91,222.48Zm-34.1,1.2-9.39-12a11.35,11.35,0,0,0,1.39-.95,8,8,0,0,0,1.28-1.26l6.82,3.17-1.46,2.43,2.26,2.39Zm-5.75-15.8a7.18,7.18,0,0,0,.53-2.11,14.15,14.15,0,0,0,.09-1.68,20.49,20.49,0,0,0-.57-4.53l-.08-.36-.26-.27a12.46,12.46,0,0,1-1.88-2.71,30.14,30.14,0,0,1-1.88-4.4l-.21-.59-.59-.21a5.45,5.45,0,0,1-2.8-2.3,10.33,10.33,0,0,1-1.26-3.25,3.49,3.49,0,0,1,.31-2.41,4.7,4.7,0,0,1,.87-1.2,17.34,17.34,0,0,0,1.3,1.84c.6.6.41.42.61.12,0,0,.68-1,4.26-7.93,7.18,1.59,19.72-9.19,19.72-9.19a13.24,13.24,0,0,0,2.54,6.67c2.27,3,3.57,10.13,3.57,10.13s.3-.58.76-1.37a4.13,4.13,0,0,1,.67,1,3.57,3.57,0,0,1,.35,1.53,4.3,4.3,0,0,1-.08.78,12.26,12.26,0,0,1-.79,2.38,6.5,6.5,0,0,1-1.53,2.13,5.33,5.33,0,0,1-1.74,1l-.59.22-.21.59a32.5,32.5,0,0,1-1.88,4.4,12.82,12.82,0,0,1-1.89,2.71l-.26.27-.07.36a20.45,20.45,0,0,0-.58,4.53,16.64,16.64,0,0,0,.09,1.68,7.37,7.37,0,0,0,.46,1.93.59.59,0,0,0,0,.08L562,212Zm12,16.24-1-6.65,2.26-2.39-1.47-2.44,6.18-3.25a8.14,8.14,0,0,0,.54.63,9.85,9.85,0,0,0,2.08,1.6Z"/><path class="cls-5" d="M719.46,218a15.45,15.45,0,0,0-7.76-5.63c-1.41-.53-2.79-.92-4-1.26s-2.26-.6-3-.87a16.4,16.4,0,0,1-3.46-1.7,4.44,4.44,0,0,1-1-.92A1.12,1.12,0,0,1,700,207v-4.64a18.63,18.63,0,0,0,4.79-8.82,5.66,5.66,0,0,0,1-.53,6.38,6.38,0,0,0,2-2.36,22.51,22.51,0,0,0,1.59-4.27,9.42,9.42,0,0,0,.39-2.48,4.51,4.51,0,0,0-.49-2.16,3.44,3.44,0,0,0-1.65-1.52c2.59-14-5.58-24.59-16.41-24-9.92-2.2-16.26-1.65-17.09,7.17a9.81,9.81,0,0,0,.21,7.17,20.77,20.77,0,0,0-.79,5.43v4.12a4.14,4.14,0,0,0-.85.38,3.4,3.4,0,0,0-1.21,1.3,4.51,4.51,0,0,0-.49,2.16,9,9,0,0,0,.39,2.48,17.23,17.23,0,0,0,2.18,5.23,5.6,5.6,0,0,0,1.39,1.4,6.07,6.07,0,0,0,1,.53,18.64,18.64,0,0,0,4.8,8.82V207a1.17,1.17,0,0,1-.29.66,6.15,6.15,0,0,1-1.84,1.44,16.27,16.27,0,0,1-2.58,1.16c-1,.35-2.52.7-4.27,1.2a21.66,21.66,0,0,0-8.23,4,12,12,0,0,0-3.14,4.12,14.11,14.11,0,0,0-1.22,6c0,.54,0,1.1.07,1.68a2.15,2.15,0,0,0,.37,1,5,5,0,0,0,1.38,1.27,19.87,19.87,0,0,0,4.2,2c5.36,1.91,14.22,3.66,25.21,3.66a85.52,85.52,0,0,0,21.85-2.61,33.69,33.69,0,0,0,6.39-2.33,9.61,9.61,0,0,0,1.9-1.23,4.09,4.09,0,0,0,.66-.72,2.26,2.26,0,0,0,.37-1c0-.58.07-1.14.07-1.68A13.41,13.41,0,0,0,719.46,218Zm-38.77-7.41a6.82,6.82,0,0,0,1.62-1.5,3.52,3.52,0,0,0,.78-2.12v-5.57l-.31-.35a16.45,16.45,0,0,1-4.67-8.63l-.12-.69-.67-.24a4.41,4.41,0,0,1-1-.5,3.92,3.92,0,0,1-1.23-1.51,19.57,19.57,0,0,1-1.4-3.8,6.76,6.76,0,0,1-.3-1.81,2.19,2.19,0,0,1,.2-1,1.09,1.09,0,0,1,.58-.49,1.9,1.9,0,0,1,.51-.1l1.26.08V176a17.73,17.73,0,0,1,.15-2.07c2.81,4,8.13,7.79,17,9.32-1.1-1.93-3.3-11.86-3.3-11.86s6,8.71,14.94,9.62v1.41l1.26-.06a1.45,1.45,0,0,1,.73.2,1,1,0,0,1,.36.38,2.19,2.19,0,0,1,.2,1,6.76,6.76,0,0,1-.3,1.81,15.18,15.18,0,0,1-1.82,4.49,3.3,3.3,0,0,1-.8.82,4.49,4.49,0,0,1-1,.5l-.66.24-.12.69a16.45,16.45,0,0,1-4.67,8.63l-.32.35V207a3.51,3.51,0,0,0,.74,2.09,8.09,8.09,0,0,0,2.52,2.06,14.7,14.7,0,0,0,1.43.72l-4.67,4.66a15.6,15.6,0,0,1-14.2,0l-4.79-4.77A14.77,14.77,0,0,0,680.69,210.63Z"/><path class="cls-5" d="M674,192.51s1.36,15.53-4.36,20.16c0,0,16.87-2.09,11.84-10.59l-4.9-9.62-2.92-2.09Z"/><path class="cls-5" d="M706.64,192.51S705.27,208,711,212.67c0,0-16.87-2.09-11.83-10.59l4.89-9.62,2.93-2.09Z"/><line class="cls-11" x1="166.58" y1="444.09" x2="530.1" y2="444.09"/><rect class="cls-1" x="300.06" y="422.24" width="81.49" height="27.28"/><rect class="cls-1" x="190.89" y="431.82" width="81.49" height="27.28"/><text class="cls-6" transform="translate(353.81 444.03)">人</text><path class="cls-2" d="M324.51,447l-.2-.35a31.6,31.6,0,0,0,8.37-3.7,13.5,13.5,0,0,0,4.43-4.65,16,16,0,0,0,1.75-5.88,71.22,71.22,0,0,0,.35-7.42q0-4.15-.2-6.93a10.12,10.12,0,0,0-1-4.15,2.76,2.76,0,0,0-2.62-1.37,3.33,3.33,0,0,0-2.8,1.22,7.2,7.2,0,0,0-1.3,3.18,23.51,23.51,0,0,0-.35,4.25,24.26,24.26,0,0,0,.32,4.45,6.1,6.1,0,0,0,.9,2.37,3.2,3.2,0,0,0,1.28,1.08,3.15,3.15,0,0,0,2.12.15,7.12,7.12,0,0,0,1.63-.7l.35.4a6.06,6.06,0,0,1-2.2,2.55,8.4,8.4,0,0,1-3.45,1.3,10.16,10.16,0,0,1-4-.18,9.11,9.11,0,0,1-6.35-5.37,12.44,12.44,0,0,1-.9-5.5,12.87,12.87,0,0,1,1.65-6.1,11.12,11.12,0,0,1,4.75-4.4,18.08,18.08,0,0,1,8.15-1.7q7.35-.1,11.27,3.9t3.93,12.6a27,27,0,0,1-1.6,9.57,17.19,17.19,0,0,1-4.85,7,19,19,0,0,1-8.1,4A32.06,32.06,0,0,1,324.51,447Z"/><path class="cls-2" d="M634.07,483.07l-12.28,1-.76,3.32a19.46,19.46,0,0,1,6.8-.56,11.31,11.31,0,0,1,5,1.7,8.19,8.19,0,0,1,3,3.42,9.82,9.82,0,0,1,.84,4.64,9.39,9.39,0,0,1-1.64,5.12,11.5,11.5,0,0,1-3.9,3.46,17.12,17.12,0,0,1-5.18,1.8,18.11,18.11,0,0,1-5.54.14,15,15,0,0,1-5-1.52l.08-.4A14.18,14.18,0,0,0,618,505a20,20,0,0,0,3.18-.8,14.37,14.37,0,0,0,3.14-1.5,9,9,0,0,0,2.44-2.26,5.85,5.85,0,0,0,1.08-3.12,4.25,4.25,0,0,0-1.24-3.58,5.91,5.91,0,0,0-3.82-1.44,12.65,12.65,0,0,0-5.46,1.1l-.36-.24,3.32-15.36,11.92-1a3.21,3.21,0,0,0,2-.56,4.15,4.15,0,0,0,1.16-1.44h.4Z"/><text class="cls-7" transform="translate(144.13 391.64)">中途社員採用<tspan class="cls-12" x="129.6" y="0">数</tspan><tspan class="cls-13" x="142.2" y="0">（入</tspan><tspan class="cls-14" x="185.4" y="0">社</tspan><tspan class="cls-15" x="206.69" y="0">日</tspan><tspan class="cls-13" x="228.01" y="0">基準</tspan><tspan class="cls-12" x="271.21" y="0">）</tspan></text><rect class="cls-16" x="568.01" y="378.29" width="389.17" height="260.01"/><line class="cls-16" x1="827.45" y1="378.29" x2="827.45" y2="638.3"/><line class="cls-16" x1="697.73" y1="378.29" x2="697.73" y2="638.3"/><line class="cls-11" x1="166.58" y1="637.82" x2="530.1" y2="637.82"/><line class="cls-11" x1="166.58" y1="540.96" x2="530.1" y2="540.96"/><text class="cls-17" transform="translate(151.53 641.57)">0</text><text class="cls-17" transform="translate(151.53 545.39)">5</text><text class="cls-17" transform="translate(142.82 447.84)">10</text><text class="cls-17" transform="translate(205.36 659.89)">2018年</text><text class="cls-17" transform="translate(316.46 659.89)">2019年</text><text class="cls-17" transform="translate(424.83 659.89)">2020年</text><rect class="cls-1" x="389.2" y="443.33" width="81.49" height="27.28"/><text class="cls-6" transform="translate(247.31 463.86)">人</text><path class="cls-2" d="M214.68,439.71a9.71,9.71,0,0,1,1.63-5.68,10.32,10.32,0,0,1,4.42-3.55,15.56,15.56,0,0,1,6.25-1.22,17.46,17.46,0,0,1,6.13,1.05,11.27,11.27,0,0,1,4.55,3,6.52,6.52,0,0,1,1.72,4.48,5.45,5.45,0,0,1-1.5,3.92,9.16,9.16,0,0,1-3.75,2.35,13.78,13.78,0,0,1-4.55.78h-1.7a3.18,3.18,0,0,0,2-1.78,10.57,10.57,0,0,0,1-3.15,15,15,0,0,0,.22-3,6.06,6.06,0,0,0-1.12-3.53,3.9,3.9,0,0,0-3.13-1.57,3.29,3.29,0,0,0-2.87,1.12,4.62,4.62,0,0,0-1,3.08,4.29,4.29,0,0,0,.68,2.42,8,8,0,0,0,2.27,2.1q1.6,1.08,4.45,2.63c1.6.83,3.1,1.62,4.48,2.37a24.78,24.78,0,0,1,3.67,2.4,9.23,9.23,0,0,1,2.48,2.95,8.78,8.78,0,0,1,.87,4.08,9.06,9.06,0,0,1-2,5.9,11.68,11.68,0,0,1-5.47,3.6,25.54,25.54,0,0,1-8.23,1.2,30.81,30.81,0,0,1-4.75-.38A16.7,16.7,0,0,1,217,464a8,8,0,0,1-3.25-2.62,7.22,7.22,0,0,1-1.23-4.35,7.72,7.72,0,0,1,1-4,8.37,8.37,0,0,1,2.47-2.68,14.27,14.27,0,0,1,3.1-1.6A15.59,15.59,0,0,1,222,448a15.24,15.24,0,0,1,1.87-.2l2.4-.55a7.3,7.3,0,0,0-3.8,2.72,9.2,9.2,0,0,0-1.5,5.58,8.76,8.76,0,0,0,1.5,5.45,5.63,5.63,0,0,0,4.1,2.2,7,7,0,0,0,3-.35,4.87,4.87,0,0,0,2.2-1.53,3.58,3.58,0,0,0,.82-2.32,3.7,3.7,0,0,0-.37-1.63,5.64,5.64,0,0,0-1.28-1.6,16.22,16.22,0,0,0-2.42-1.77c-1-.63-2.29-1.33-3.83-2.1-.9-.47-1.91-1-3-1.65a20.08,20.08,0,0,1-3.3-2.33,11.27,11.27,0,0,1-2.65-3.4A10.23,10.23,0,0,1,214.68,439.71Z"/><text class="cls-6" transform="translate(461.56 462.73)">人</text><path class="cls-2" d="M431.84,437.22a9.69,9.69,0,0,1,1.63-5.68,10.32,10.32,0,0,1,4.42-3.55,15.56,15.56,0,0,1,6.25-1.22,17.46,17.46,0,0,1,6.13,1.05,11.27,11.27,0,0,1,4.55,3,6.52,6.52,0,0,1,1.72,4.48,5.47,5.47,0,0,1-1.5,3.92,9.16,9.16,0,0,1-3.75,2.35,13.78,13.78,0,0,1-4.55.78H445a3.21,3.21,0,0,0,2-1.78,10.57,10.57,0,0,0,1-3.15,15,15,0,0,0,.22-3,6.06,6.06,0,0,0-1.12-3.53,3.87,3.87,0,0,0-3.13-1.57,3.26,3.26,0,0,0-2.87,1.12,4.66,4.66,0,0,0-1,3.08,4.29,4.29,0,0,0,.68,2.42A8.1,8.1,0,0,0,443,438c1.07.72,2.55,1.59,4.45,2.63,1.6.83,3.1,1.62,4.48,2.37a24.78,24.78,0,0,1,3.67,2.4,9.23,9.23,0,0,1,2.48,2.95,8.78,8.78,0,0,1,.87,4.08,9.06,9.06,0,0,1-1.95,5.9,11.68,11.68,0,0,1-5.47,3.6,25.54,25.54,0,0,1-8.23,1.2,30.81,30.81,0,0,1-4.75-.38,16.7,16.7,0,0,1-4.42-1.3,8,8,0,0,1-3.25-2.62,7.27,7.27,0,0,1-1.23-4.35,7.72,7.72,0,0,1,1-4,8.37,8.37,0,0,1,2.47-2.68,13.84,13.84,0,0,1,3.1-1.6,15.79,15.79,0,0,1,2.93-.77,13.44,13.44,0,0,1,1.87-.2l2.4-.55a7.24,7.24,0,0,0-3.8,2.72,9.2,9.2,0,0,0-1.5,5.58,8.76,8.76,0,0,0,1.5,5.45,5.63,5.63,0,0,0,4.1,2.2,7,7,0,0,0,3-.35,4.89,4.89,0,0,0,2.2-1.53,3.6,3.6,0,0,0,.82-2.32,3.7,3.7,0,0,0-.37-1.63,5.64,5.64,0,0,0-1.28-1.6,16.22,16.22,0,0,0-2.42-1.77,43.61,43.61,0,0,0-3.83-2.1c-.9-.47-1.91-1-3.05-1.65a20.7,20.7,0,0,1-3.3-2.33,11.27,11.27,0,0,1-2.65-3.4A10.23,10.23,0,0,1,431.84,437.22Z"/><text class="cls-18" transform="translate(641.25 506.66)">人</text><text class="cls-18" transform="translate(637.62 620.01)">人</text><path class="cls-2" d="M622.47,589.21a16.18,16.18,0,0,1,5.46.82,7.71,7.71,0,0,1,3.48,2.34,5.74,5.74,0,0,1,1.22,3.72A5.89,5.89,0,0,1,632,599a5.38,5.38,0,0,1-1.74,1.92,6,6,0,0,1-2.34.94,5.32,5.32,0,0,1-2.42-.1,10.3,10.3,0,0,1,2.62.38,8.77,8.77,0,0,1,2.72,1.28,7,7,0,0,1,2.14,2.44,8,8,0,0,1,.84,3.86,9.27,9.27,0,0,1-1.3,4.94,10.61,10.61,0,0,1-3.5,3.52,14.86,14.86,0,0,1-4.94,2,18.58,18.58,0,0,1-5.64.32,16.89,16.89,0,0,1-5.54-1.46l.08-.4a15.49,15.49,0,0,0,4.68-.6,12,12,0,0,0,3.9-1.9,9.25,9.25,0,0,0,2.68-3,8,8,0,0,0,1-4,6.19,6.19,0,0,0-1.14-3.9,6.75,6.75,0,0,0-2.84-2.14,9.18,9.18,0,0,0-3.42-.68l.08-.4a6.48,6.48,0,0,0,5.84-3.34,5.71,5.71,0,0,0,.68-3.5,4.29,4.29,0,0,0-.84-2.38,3.8,3.8,0,0,0-1.78-1.26,5.3,5.3,0,0,0-2.26-.24,4,4,0,0,0-3.4,2.1,12.13,12.13,0,0,0-.92,5.66h-.4l-2.28-6.92a11.59,11.59,0,0,1,4.12-2.06A20.33,20.33,0,0,1,622.47,589.21Z"/><polygon class="cls-2" points="661.37 461.69 664.69 431.84 603.06 431.84 599.74 461.69 661.37 461.69"/><text class="cls-19" transform="translate(609.4 452.91)">同業種</text><polygon class="cls-5" points="661.37 575.04 664.69 545.18 603.06 545.18 599.74 575.04 661.37 575.04"/><text class="cls-19" transform="translate(609.4 566.26)">異業種</text><polygon class="cls-2" points="789.5 461.69 792.82 431.84 731.19 431.84 727.87 461.69 789.5 461.69"/><text class="cls-19" transform="translate(737.53 452.91)">同業種</text><polygon class="cls-5" points="789.5 575.04 792.82 545.18 731.19 545.18 727.87 575.04 789.5 575.04"/><text class="cls-19" transform="translate(737.53 566.26)">異業種</text><polygon class="cls-2" points="921.84 461.69 925.15 431.84 863.53 431.84 860.21 461.69 921.84 461.69"/><text class="cls-19" transform="translate(869.87 452.91)">同業種</text><polygon class="cls-5" points="921.84 575.04 925.15 545.18 863.53 545.18 860.21 575.04 921.84 575.04"/><text class="cls-19" transform="translate(869.87 566.26)">異業種</text><path class="cls-2" d="M756.54,475.87a16,16,0,0,1,5.46.82,7.82,7.82,0,0,1,3.48,2.34,5.76,5.76,0,0,1,1.22,3.72,5.89,5.89,0,0,1-.66,2.88,5.38,5.38,0,0,1-1.74,1.92,6.11,6.11,0,0,1-2.34.94,5.46,5.46,0,0,1-2.42-.1,10.36,10.36,0,0,1,2.62.38,8.75,8.75,0,0,1,2.72,1.28,7,7,0,0,1,2.14,2.44,8,8,0,0,1,.84,3.86,9.39,9.39,0,0,1-1.3,4.94,10.7,10.7,0,0,1-3.5,3.52,15.26,15.26,0,0,1-4.94,2,18.94,18.94,0,0,1-5.64.32,16.82,16.82,0,0,1-5.54-1.46l.08-.4a16.24,16.24,0,0,0,4.68-.6,12.42,12.42,0,0,0,3.9-1.9,9.48,9.48,0,0,0,2.68-3,8.15,8.15,0,0,0,1-4,6.15,6.15,0,0,0-1.14-3.9,6.73,6.73,0,0,0-2.84-2.14,9.26,9.26,0,0,0-3.42-.68l.08-.4a6.38,6.38,0,0,0,3.4-.86,6.46,6.46,0,0,0,2.44-2.48,5.86,5.86,0,0,0,.68-3.5,4.26,4.26,0,0,0-.84-2.38,3.84,3.84,0,0,0-1.78-1.26,5.31,5.31,0,0,0-2.26-.24,3.91,3.91,0,0,0-3.4,2.1,11.85,11.85,0,0,0-.92,5.66h-.4l-2.28-6.92a11.42,11.42,0,0,1,4.12-2.06A20.28,20.28,0,0,1,756.54,475.87Z"/><text class="cls-18" transform="translate(771.68 506.66)">人</text><text class="cls-18" transform="translate(770.93 620.01)">人</text><path class="cls-2" d="M764.1,588.33l.16.28a25.79,25.79,0,0,0-6.7,3,10.89,10.89,0,0,0-3.54,3.72,12.89,12.89,0,0,0-1.4,4.7,58.36,58.36,0,0,0-.28,5.94c0,2.22.06,4.06.16,5.54a8.07,8.07,0,0,0,.8,3.32,2.21,2.21,0,0,0,2.08,1.1,2.63,2.63,0,0,0,2.24-1,5.59,5.59,0,0,0,1-2.56,19,19,0,0,0,.28-3.38,18.36,18.36,0,0,0-.26-3.56,5,5,0,0,0-.7-1.9,2.36,2.36,0,0,0-1-.86,2.46,2.46,0,0,0-1.68-.12,5.88,5.88,0,0,0-1.32.56l-.32-.32a4.67,4.67,0,0,1,1.78-2.06,7.14,7.14,0,0,1,2.78-1,8.24,8.24,0,0,1,3.16.14,7.62,7.62,0,0,1,2.94,1.44,7.39,7.39,0,0,1,2.14,2.84,9.85,9.85,0,0,1,.72,4.42,10.21,10.21,0,0,1-1.34,4.88,8.81,8.81,0,0,1-3.8,3.5,14.81,14.81,0,0,1-6.5,1.38,14.21,14.21,0,0,1-6.64-1.34,9,9,0,0,1-4.12-4.34,17.65,17.65,0,0,1-1.4-7.52,21.63,21.63,0,0,1,1.28-7.66,13.82,13.82,0,0,1,3.88-5.62,15.36,15.36,0,0,1,6.5-3.18A26,26,0,0,1,764.1,588.33Z"/><path class="cls-2" d="M891.18,475.87a16,16,0,0,1,5.46.82,7.71,7.71,0,0,1,3.48,2.34,5.76,5.76,0,0,1,1.22,3.72,5.89,5.89,0,0,1-.66,2.88,5.38,5.38,0,0,1-1.74,1.92,6.11,6.11,0,0,1-2.34.94,5.46,5.46,0,0,1-2.42-.1,10.36,10.36,0,0,1,2.62.38,8.65,8.65,0,0,1,2.72,1.28,6.89,6.89,0,0,1,2.14,2.44,8,8,0,0,1,.84,3.86,9.29,9.29,0,0,1-1.3,4.94,10.61,10.61,0,0,1-3.5,3.52,15.17,15.17,0,0,1-4.94,2,18.94,18.94,0,0,1-5.64.32,16.89,16.89,0,0,1-5.54-1.46l.08-.4a16.24,16.24,0,0,0,4.68-.6,12.21,12.21,0,0,0,3.9-1.9,9.37,9.37,0,0,0,2.68-3,8.15,8.15,0,0,0,1-4,6.15,6.15,0,0,0-1.14-3.9,6.73,6.73,0,0,0-2.84-2.14,9.18,9.18,0,0,0-3.42-.68l.08-.4a6.36,6.36,0,0,0,3.4-.86,6.46,6.46,0,0,0,2.44-2.48,5.78,5.78,0,0,0,.68-3.5,4.26,4.26,0,0,0-.84-2.38,3.8,3.8,0,0,0-1.78-1.26,5.31,5.31,0,0,0-2.26-.24,3.92,3.92,0,0,0-3.4,2.1,12,12,0,0,0-.92,5.66h-.4l-2.28-6.92a11.5,11.5,0,0,1,4.12-2.06A20.28,20.28,0,0,1,891.18,475.87Z"/><text class="cls-18" transform="translate(906.32 506.66)">人</text><text class="cls-18" transform="translate(902.69 620.01)">人</text><path class="cls-2" d="M895.5,596.41l-12.28,1-.76,3.32a19.5,19.5,0,0,1,6.8-.56,11.22,11.22,0,0,1,5,1.7,8.24,8.24,0,0,1,3,3.42,9.72,9.72,0,0,1,.85,4.64,9.29,9.29,0,0,1-1.65,5.12,11.28,11.28,0,0,1-3.89,3.46,16.82,16.82,0,0,1-5.19,1.8,17.79,17.79,0,0,1-5.54.14,14.8,14.8,0,0,1-5-1.52l.08-.4a13.17,13.17,0,0,0,2.55-.2,18.84,18.84,0,0,0,3.19-.8,14.37,14.37,0,0,0,3.14-1.5,8.78,8.78,0,0,0,2.43-2.26,5.77,5.77,0,0,0,1.08-3.12,4.21,4.21,0,0,0-1.23-3.58,6,6,0,0,0-3.82-1.44,12.8,12.8,0,0,0-5.46,1.1l-.37-.24,3.33-15.36,11.91-1a3.13,3.13,0,0,0,2-.56,4.06,4.06,0,0,0,1.17-1.44h.39Z"/><line class="cls-16" x1="957.18" y1="526.55" x2="568.01" y2="526.55"/><line class="cls-16" x1="957.18" y1="410.89" x2="568.01" y2="410.89"/><polyline class="cls-20" points="569.82 600.59 551.05 609.37 570 619.35"/><rect class="cls-5" x="416.89" y="477.32" width="66.22" height="160.5"/><rect class="cls-21" x="307.22" y="460.06" width="66.22" height="177.76"/><rect class="cls-22" x="197.55" y="477.32" width="66.22" height="160.5"/><text class="cls-17" transform="translate(610.93 399.93)">2018年</text><text class="cls-17" transform="translate(739.91 399.93)">2019年</text><text class="cls-17" transform="translate(870.95 399.93)">2020年</text></g></g></svg>