<svg xmlns="http://www.w3.org/2000/svg" viewBox="0 0 420 270"><defs><style>.cls-1{fill:#fff;}.cls-2{fill:#e8314b;}.cls-3,.cls-4{fill:#333;}.cls-4{font-size:14px;font-family:YuMin-Demibold-83pv-RKSJ-H, YuMincho;letter-spacing:0.2em;}.cls-5{letter-spacing:0.18em;}.cls-6{letter-spacing:0.08em;}.cls-7{letter-spacing:-0.15em;}.cls-8{letter-spacing:0.04em;}.cls-9{letter-spacing:0.05em;}.cls-10{letter-spacing:0.02em;}.cls-11{letter-spacing:-0.01em;}.cls-12{letter-spacing:0.12em;}</style></defs><g id="レイヤー_2" data-name="レイヤー 2"><g id="pc"><rect class="cls-1" width="420" height="270"/><path class="cls-2" d="M72.61,84.81h-.13a2.75,2.75,0,0,0-.85-1.93,2.6,2.6,0,0,0-1.93-.81h-.56v-.43h3.47Zm0,24V112H69.14v-.44h.56a2.59,2.59,0,0,0,1.93-.8,2.77,2.77,0,0,0,.85-1.93Zm8.77-27.21V112h-8.9V81.64Zm12.15,0v2.21H81.25V81.64ZM91.23,96v2.17h-10V96Zm-10,12.89h.13a2.81,2.81,0,0,0,.84,1.93,2.63,2.63,0,0,0,1.94.8h.56V112H81.25ZM91.23,91v5H86.11V96a4.71,4.71,0,0,0,3.38-1.39,4.42,4.42,0,0,0,1.3-3.38V91Zm0,7v5h-.44v-.22a4.55,4.55,0,0,0-1.32-3.36,4.67,4.67,0,0,0-3.36-1.37V98Zm2.3-14.32V89.8h-.44v-.35a5.59,5.59,0,0,0-1.47-4.1,5.66,5.66,0,0,0-4.12-1.54v-.09Zm0-2.86v1.26l-5.3-.48a16,16,0,0,0,2-.13q1.06-.14,2-.3A7.43,7.43,0,0,0,93.53,80.86Z"/><path class="cls-2" d="M102.38,84.81h-.13a2.79,2.79,0,0,0-.84-1.93,2.64,2.64,0,0,0-1.94-.81h-.56v-.43h3.47Zm0,24V112H98.91v-.44h.56a2.63,2.63,0,0,0,1.94-.8,2.81,2.81,0,0,0,.84-1.93Zm8.81-27.21V112h-8.94V81.64Zm4.69,0a22.91,22.91,0,0,1,4,.35,12.4,12.4,0,0,1,3.73,1.23,7.32,7.32,0,0,1,2.74,2.5,7.47,7.47,0,0,1,1,4.12,10.29,10.29,0,0,1-.61,3.41,7.15,7.15,0,0,1-2.1,3.08,8.24,8.24,0,0,1-4.23,1.76,7.51,7.51,0,0,1,3.16,1.78,11.91,11.91,0,0,1,2.13,2.56c.06.08.2.33.43.73s.53.91.89,1.5l1.15,1.84c.41.64.81,1.24,1.22,1.78a15.18,15.18,0,0,0,1.73,2,4.21,4.21,0,0,0,1.5,1,6.62,6.62,0,0,0,1.8.3V112H129a34.36,34.36,0,0,1-4.82-.31,10.55,10.55,0,0,1-4-1.34,9.19,9.19,0,0,1-3.1-3.3,9.46,9.46,0,0,1-.78-1.56c-.21-.52-.38-1-.53-1.52s-.26-1-.36-1.41-.2-.88-.29-1.3a10.52,10.52,0,0,0-.3-1.2,4.65,4.65,0,0,0-1-2.12,3.67,3.67,0,0,0-1.22-.79v-.43h.7a4.25,4.25,0,0,0,2.17-.56,4.52,4.52,0,0,0,1.6-1.74,8,8,0,0,0,.87-3c0-.23.06-.48.09-.76a5.73,5.73,0,0,0,0-1q-.18-3.21-1.59-4.47a4.91,4.91,0,0,0-3.36-1.25h-2c-.14-.76-.29-1.51-.43-2.26Zm-4.82,27.21h.13a2.6,2.6,0,0,0,.83,1.93,2.68,2.68,0,0,0,2,.8h.52V112h-3.43Z"/><path class="cls-2" d="M138.75,84.81h-.13a2.75,2.75,0,0,0-.85-1.93,2.61,2.61,0,0,0-1.93-.81h-.56v-.43h3.47Zm0,24V112h-3.47v-.44h.56a2.6,2.6,0,0,0,1.93-.8,2.77,2.77,0,0,0,.85-1.93Zm8.76-27.21V112h-8.89V81.64Zm12.16,0v2.21H147.38V81.64ZM157.37,96v2.17h-10V96Zm1.43,13.84,1.73,2.22H147.38V109.8Zm3.51-7.85L160.66,112h-9.37l1.56-2.22a8.36,8.36,0,0,0,3.89-.93,9.31,9.31,0,0,0,3.14-2.69,11.68,11.68,0,0,0,2-4.23ZM157.37,91v5h-5.12V96a4.74,4.74,0,0,0,3.38-1.39,4.42,4.42,0,0,0,1.3-3.38V91Zm0,7v5h-.44v-.22a4.55,4.55,0,0,0-1.32-3.36,4.69,4.69,0,0,0-3.36-1.37V98Zm2.3-14.32V89.8h-.44v-.35a5.59,5.59,0,0,0-1.47-4.1,5.68,5.68,0,0,0-4.13-1.54v-.09Zm0-2.86v1.26l-5.3-.48a16,16,0,0,0,2-.13c.71-.09,1.37-.19,2-.3A7.34,7.34,0,0,0,159.67,80.86Z"/><path class="cls-2" d="M177.85,81c.63,0,1.49,0,2.56.09s2.18.14,3.34.24,2.17.2,3,.3a6.78,6.78,0,0,1,1.69.33l-.87,6.55h-.43a4.71,4.71,0,0,0-1.85-3.86,7.83,7.83,0,0,0-5.05-1.48,7.6,7.6,0,0,0-4.21,1,3.38,3.38,0,0,0-1.69,2.63,2.53,2.53,0,0,0,1.06,2.43,16.35,16.35,0,0,0,2.8,1.6l8.11,3.78a8.71,8.71,0,0,1,3.82,3.17,8.13,8.13,0,0,1,1.17,5.25,8.79,8.79,0,0,1-3.88,7.09q-3.59,2.46-9.74,2.45a24.38,24.38,0,0,1-4.56-.39,16.73,16.73,0,0,1-3.49-1,7.2,7.2,0,0,1-2.24-1.41,5.67,5.67,0,0,1-.39-2.64,12.47,12.47,0,0,1,.59-3.11,8.35,8.35,0,0,1,1.19-2.45h.39a8,8,0,0,0,1,4.3,8.24,8.24,0,0,0,3.25,3.3,10.2,10.2,0,0,0,5.21,1.25,6.91,6.91,0,0,0,4.62-1.3,3.84,3.84,0,0,0,1.5-3,3.65,3.65,0,0,0-1.06-2.52,11.5,11.5,0,0,0-3.54-2.25l-7.07-3.3a9.34,9.34,0,0,1-4.37-3.82,8.73,8.73,0,0,1-1-5.51,8.58,8.58,0,0,1,1.6-4.25,8.06,8.06,0,0,1,3.45-2.63A13.22,13.22,0,0,1,177.85,81Zm10.72.43-.13.92h-6.3v-.92Z"/><path class="cls-2" d="M200,84.81h-.13a2.74,2.74,0,0,0-.84-1.93,2.63,2.63,0,0,0-1.93-.81h-.57v-.43H200Zm0,24V112h-3.47v-.44h.57a2.62,2.62,0,0,0,1.93-.8,2.76,2.76,0,0,0,.84-1.93Zm8.77-27.21V112h-8.9V81.64Zm12.07,14.1v2.17h-12.5V95.74Zm-12.2-10.93V81.64h3.47v.43h-.56a2.61,2.61,0,0,0-1.93.81,2.75,2.75,0,0,0-.85,1.93Zm0,24h.13a2.77,2.77,0,0,0,.85,1.93,2.6,2.6,0,0,0,1.93.8h.56V112h-3.47Zm11.93-24h-.13a2.57,2.57,0,0,0-.82-1.93,2.69,2.69,0,0,0-1.95-.81h-.57v-.43h3.47Zm0,24V112h-3.47v-.44h.57a2.68,2.68,0,0,0,1.95-.8,2.59,2.59,0,0,0,.82-1.93Zm8.77-27.21V112h-8.9V81.64Zm-.13,3.17V81.64h3.47v.43h-.56a2.61,2.61,0,0,0-1.93.81,2.75,2.75,0,0,0-.85,1.93Zm0,24h.13a2.77,2.77,0,0,0,.85,1.93,2.6,2.6,0,0,0,1.93.8h.56V112h-3.47Z"/><path class="cls-2" d="M239.91,108.85V112h-4.82v-.44h.69a3.34,3.34,0,0,0,2.09-.71,3,3,0,0,0,1.08-2ZM242.77,81h.39l2,5.51L242,112h-3.43Zm.39,0,15.28,20.88-3.39,11.15L241.86,94.83Zm-.91,28.51v.22a2,2,0,0,0,.5,1.28,1.52,1.52,0,0,0,1.19.59h.7V112H242v-2.48ZM271.11,81l.35,5.9L257.26,108a20,20,0,0,0-1.41,2.72,5.69,5.69,0,0,0-.41,2.32h-.39l-2.43-4.47Zm-4.82,28.51h.3V112H263.9v-.39h.7a1.52,1.52,0,0,0,1.19-.59,1.9,1.9,0,0,0,.5-1.28v-.22ZM271.5,81l4.38,31h-9.29l-2.08-15.84L271.11,81Zm3,27.82h1a3.14,3.14,0,0,0,1.1,2,3.25,3.25,0,0,0,2.07.71h.69V112h-4.82Z"/><path class="cls-2" d="M286.25,108.85a1.94,1.94,0,0,0-.17,1.47,1.73,1.73,0,0,0,.76.94,2.12,2.12,0,0,0,1.06.32h.39V112h-9.67v-.44H279a4.06,4.06,0,0,0,2.06-.63,4.68,4.68,0,0,0,1.76-2.1Zm9.33-28.25v6.77l-10.67,24.52h-3.52l11.33-24.83c.14-.26.34-.67.59-1.23l.78-1.85c.27-.66.52-1.3.73-1.91a6,6,0,0,0,.37-1.47Zm3.56,22v2.17H286.86v-2.17Zm-3.56-22,15,31.16H300.18l-8.37-20.05Zm3.35,28.25h10.24A4.91,4.91,0,0,0,311,111a3.91,3.91,0,0,0,2,.63h.34V112H296.89v-.44h.39a2.1,2.1,0,0,0,1.54-.71A1.76,1.76,0,0,0,298.93,108.85Z"/><path class="cls-2" d="M318.24,108.94V112h-3.61v-.44h.83a2.58,2.58,0,0,0,1.87-.78,2.54,2.54,0,0,0,.78-1.86ZM318,81l9,9.37.05,21.66h-8.94V86.41a27.85,27.85,0,0,0-.57-5.42Zm0,0,29.29,26,.56,5.59-29.29-26Zm9.07,28a2.66,2.66,0,0,0,2.64,2.64h.83V112h-3.6v-3.08Zm8.2-27.3h3.6v3.08h-.09a2.72,2.72,0,0,0-.8-1.89,2.59,2.59,0,0,0-1.89-.76h-.82Zm12.41,0v25.43a26.2,26.2,0,0,0,.15,3c.1.84.24,1.68.41,2.51h-.39l-9.07-10.06V81.64Zm3.47,0v.43h-.78a2.62,2.62,0,0,0-1.87.76,2.7,2.7,0,0,0-.82,1.89h-.13V81.64Z"/><path class="cls-3" d="M72.61,133.22h-.13a2.79,2.79,0,0,0-.85-1.93,2.63,2.63,0,0,0-1.93-.8h-.56v-.44h3.47Zm0,24v3.17H69.14V160h.56a2.63,2.63,0,0,0,1.93-.8,2.8,2.8,0,0,0,.85-1.94Zm8.77-27.21v30.38h-8.9V130.05Zm-.13,3.17v-3.17h3.47v.44h-.56a2.67,2.67,0,0,0-1.94.8,2.83,2.83,0,0,0-.84,1.93Zm0,24h.13a2.83,2.83,0,0,0,.84,1.94,2.67,2.67,0,0,0,1.94.8h.56v.43H81.25Z"/><path class="cls-3" d="M92.62,157.35v3.08H89V160h.82a2.66,2.66,0,0,0,2.65-2.65Zm-.26-27.95,9,9.38.05,21.65H92.49v-25.6a27.87,27.87,0,0,0-.57-5.43Zm0,0,29.29,26,.56,5.6L92.92,135Zm9.07,27.95a2.66,2.66,0,0,0,2.64,2.65h.83v.43h-3.6v-3.08Zm8.2-27.3h3.6v3.09h-.09a2.64,2.64,0,0,0-.8-1.89,2.55,2.55,0,0,0-1.89-.76h-.82Zm12.41,0v25.44a26.13,26.13,0,0,0,.15,3c.1.84.24,1.68.41,2.52h-.39L113.14,151V130.05Zm3.47,0v.44h-.78a2.56,2.56,0,0,0-1.86.76,2.63,2.63,0,0,0-.83,1.89h-.13v-3.09Z"/><path class="cls-3" d="M129,129.23a7.79,7.79,0,0,0,1.33.35c.59.11,1.25.21,2,.3a16.18,16.18,0,0,0,2,.13l-5.3.48Zm29.47.78v2.17H129V130Zm-23.43,2v.13a5.68,5.68,0,0,0-4.13,1.54,5.61,5.61,0,0,0-1.47,4.1v.31l-.44,0v-6.12Zm4.38,25.21v3.17h-3.47V160h.56a2.64,2.64,0,0,0,1.93-.8,2.8,2.8,0,0,0,.85-1.94Zm8.77-27.08v30.25h-8.9V130.18ZM148,157.26h.13a2.79,2.79,0,0,0,.84,1.94,2.66,2.66,0,0,0,1.93.8h.57v.43H148Zm10.41-25.21v6.12l-.43,0v-.31a5.21,5.21,0,0,0-5.6-5.64v-.13Zm0-2.82v1.26l-5.29-.48a16,16,0,0,0,2-.13q1.07-.13,2-.3A6.42,6.42,0,0,0,158.45,129.23Z"/><path class="cls-3" d="M165.79,133.22h-.13a2.84,2.84,0,0,0-.85-1.93,2.66,2.66,0,0,0-1.93-.8h-.57v-.44h3.48Zm0,24v3.17h-3.48V160h.57a2.66,2.66,0,0,0,1.93-.8,2.84,2.84,0,0,0,.85-1.94Zm8.76-27.21v30.38h-8.89V130.05Zm12.15,0v2.22H174.42v-2.22Zm-2.3,14.33v2.17h-10v-2.17Zm1.43,13.84,1.74,2.21H174.42v-2.21Zm3.52-7.86-1.65,10.07h-9.37l1.56-2.21a8.32,8.32,0,0,0,3.88-.93,9.56,9.56,0,0,0,3.15-2.69,12,12,0,0,0,2-4.24Zm-4.95-10.93v5h-5.12v-.08a4.79,4.79,0,0,0,3.39-1.39,4.48,4.48,0,0,0,1.3-3.39v-.17Zm0,7v5H184v-.21a4.57,4.57,0,0,0-1.32-3.37,4.7,4.7,0,0,0-3.37-1.36v-.09Zm2.3-14.32v6.07h-.43v-.34a5.58,5.58,0,0,0-1.48-4.11,5.7,5.7,0,0,0-4.12-1.54v-.08Zm0-2.87v1.26l-5.29-.48a16.13,16.13,0,0,0,2-.13c.7-.08,1.36-.18,2-.3A5.81,5.81,0,0,0,186.7,129.27Z"/><path class="cls-3" d="M197.12,133.22H197a2.79,2.79,0,0,0-.85-1.93,2.64,2.64,0,0,0-1.93-.8h-.56v-.44h3.47Zm0,24v3.17h-3.47V160h.56a2.64,2.64,0,0,0,1.93-.8,2.8,2.8,0,0,0,.85-1.94Zm8.81-27.21v30.38H197V130.05Zm4.68,0a24,24,0,0,1,4,.35,12.51,12.51,0,0,1,3.73,1.24,7.11,7.11,0,0,1,2.73,2.49,7.44,7.44,0,0,1,1,4.13,10.47,10.47,0,0,1-.6,3.4,7.26,7.26,0,0,1-2.11,3.08,8.16,8.16,0,0,1-4.23,1.76,7.65,7.65,0,0,1,3.17,1.78,11.84,11.84,0,0,1,2.12,2.56c.06.09.21.33.44.74s.53.9.89,1.5.74,1.21,1.15,1.84.81,1.23,1.21,1.78a15.9,15.9,0,0,0,1.74,2,4.32,4.32,0,0,0,1.5,1,6.49,6.49,0,0,0,1.8.3v.43h-5.43a35.86,35.86,0,0,1-4.81-.3,10.33,10.33,0,0,1-4-1.35,9.1,9.1,0,0,1-3.11-3.29,10,10,0,0,1-.78-1.57c-.2-.52-.38-1-.52-1.52s-.27-1-.37-1.41-.19-.88-.28-1.3-.19-.81-.3-1.19a4.65,4.65,0,0,0-1.05-2.13,3.76,3.76,0,0,0-1.21-.78v-.43h.69a4.14,4.14,0,0,0,2.17-.57,4.37,4.37,0,0,0,1.61-1.73,8.43,8.43,0,0,0,.87-3c0-.23.05-.49.08-.76a5.73,5.73,0,0,0,0-1q-.17-3.21-1.58-4.47a4.87,4.87,0,0,0-3.36-1.26h-2c-.15-.75-.29-1.5-.44-2.26Zm-4.81,27.21h.13a2.61,2.61,0,0,0,.82,1.94,2.73,2.73,0,0,0,2,.8h.52v.43H205.8Z"/><path class="cls-3" d="M241.38,133.22H231.14a4.62,4.62,0,0,0-1.76-2.1,4,4,0,0,0-2.06-.63H227v-.44h16.45v.44H243a1.88,1.88,0,0,0-1.45.72A1.94,1.94,0,0,0,241.38,133.22Zm3.34,28.25-15-31.15h10.42l8.37,20Zm0,0V154.7l10.68-24.52h3.51L247.59,155l-.57,1.24c-.26.56-.52,1.17-.8,1.84s-.51,1.3-.72,1.91a10.28,10.28,0,0,0-.39,1.47Zm9.33-28.25c.41-.87.38-1.54-.08-2a2.14,2.14,0,0,0-1.56-.72H252v-.44h9.68v.44h-.39a4,4,0,0,0-2,.63,4.6,4.6,0,0,0-1.75,2.1Z"/><path class="cls-3" d="M266.9,133.22h-.13a2.79,2.79,0,0,0-.85-1.93,2.64,2.64,0,0,0-1.93-.8h-.56v-.44h3.47Zm0,24v3.17h-3.47V160H264a2.64,2.64,0,0,0,1.93-.8,2.8,2.8,0,0,0,.85-1.94Zm8.77-27.21v30.38h-8.9V130.05Zm-.13,3.17v-3.17H279v.44h-.57a2.66,2.66,0,0,0-1.93.8,2.78,2.78,0,0,0-.84,1.93Zm0,24h.13a2.79,2.79,0,0,0,.84,1.94,2.66,2.66,0,0,0,1.93.8H279v.43h-3.47Z"/><path class="cls-3" d="M287.21,133.22h-.13a2.79,2.79,0,0,0-.85-1.93,2.64,2.64,0,0,0-1.93-.8h-.56v-.44h3.47Zm0,24v3.17h-3.47V160h.56a2.64,2.64,0,0,0,1.93-.8,2.8,2.8,0,0,0,.85-1.94ZM296,130.05v30.38h-8.9V130.05Zm12.15,0v2.22H295.85v-2.22Zm-2.3,14.33v2.17h-10v-2.17Zm1.43,13.84,1.73,2.21H295.85v-2.21Zm3.51-7.86-1.64,10.07h-9.38l1.56-2.21a8.36,8.36,0,0,0,3.89-.93,9.43,9.43,0,0,0,3.14-2.69,11.81,11.81,0,0,0,2-4.24Zm-4.94-10.93v5h-5.12v-.08a4.77,4.77,0,0,0,3.38-1.39,4.45,4.45,0,0,0,1.3-3.39v-.17Zm0,7v5h-.44v-.21a4.57,4.57,0,0,0-1.32-3.37,4.66,4.66,0,0,0-3.36-1.36v-.09Zm2.3-14.32v6.07h-.44v-.34a5.62,5.62,0,0,0-1.47-4.11,5.72,5.72,0,0,0-4.13-1.54v-.08Zm0-2.87v1.26l-5.3-.48a16,16,0,0,0,2-.13q1.06-.12,2-.3A6,6,0,0,0,308.13,129.27Z"/><path class="cls-3" d="M325,133.18h-9.41a3.85,3.85,0,0,0-1.7-2.06,4.38,4.38,0,0,0-2.12-.63h-.35v-.44H327v.44h-.39a1.91,1.91,0,0,0-1.45.69A1.88,1.88,0,0,0,325,133.18Zm-10.5-2.86h9.33L330,145.85l-3.86,15.54Zm23.13-1,1.09,4.82-10.94,22.39a21.76,21.76,0,0,0-.84,2.52,10.54,10.54,0,0,0-.33,2.3h-.39l-1.48-6,12.5-26Zm0,0,9.85,18.19-2.82,13.8-11-20.75Zm16.28.92-8.2,26.25a19.06,19.06,0,0,0-.59,2.63,8.45,8.45,0,0,0,0,2.19h-.44l-1.69-4.3,7.6-26.77Zm-4.17,2.86a2.17,2.17,0,0,0-.22-2,1.76,1.76,0,0,0-1.43-.69h-.39v-.44h9.46v.44h-.35a4.68,4.68,0,0,0-2.17.63,3.41,3.41,0,0,0-1.64,2.06Z"/><text class="cls-4" transform="translate(96.53 220.52)">新卒採<tspan class="cls-5" x="50.4" y="0">用</tspan><tspan class="cls-6" x="66.89" y="0">サ</tspan><tspan class="cls-7" x="82.04" y="0">イ</tspan><tspan class="cls-8" x="93.98" y="0">ト</tspan><tspan x="108.5" y="0">社員紹</tspan><tspan class="cls-5" x="158.9" y="0">介</tspan><tspan class="cls-9" x="175.39" y="0">は</tspan><tspan class="cls-10" x="190.08" y="0">こ</tspan><tspan class="cls-11" x="204.32" y="0">ち</tspan><tspan class="cls-12" x="218.16" y="0">ら</tspan></text></g></g></svg>