<svg viewBox="0 0 420 270" xmlns="http://www.w3.org/2000/svg"><path d="m0 0h420v270h-420z" fill="#fff"/><path d="m72.61 84.81h-.13a2.75 2.75 0 0 0 -.85-1.93 2.6 2.6 0 0 0 -1.93-.81h-.56v-.43h3.47zm0 24v3.19h-3.47v-.44h.56a2.59 2.59 0 0 0 1.93-.8 2.77 2.77 0 0 0 .85-1.93zm8.77-27.21v30.4h-8.9v-30.36zm12.15 0v2.21h-12.28v-2.17zm-2.3 14.4v2.17h-10v-2.17zm-10 12.89h.13a2.81 2.81 0 0 0 .84 1.93 2.63 2.63 0 0 0 1.94.8h.56v.38h-3.45zm10-17.89v5h-5.12a4.71 4.71 0 0 0 3.38-1.39 4.42 4.42 0 0 0 1.3-3.38v-.23zm0 7v5h-.44v-.22a4.55 4.55 0 0 0 -1.32-3.36 4.67 4.67 0 0 0 -3.36-1.37v-.05zm2.3-14.32v6.12h-.44v-.35a5.59 5.59 0 0 0 -1.47-4.1 5.66 5.66 0 0 0 -4.12-1.54v-.09zm0-2.86v1.26l-5.3-.48a16 16 0 0 0 2-.13q1.06-.14 2-.3a7.43 7.43 0 0 0 1.3-.31z" fill="#e8314b"/><path d="m102.38 84.81h-.13a2.79 2.79 0 0 0 -.84-1.93 2.64 2.64 0 0 0 -1.94-.81h-.56v-.43h3.47zm0 24v3.19h-3.47v-.44h.56a2.63 2.63 0 0 0 1.94-.8 2.81 2.81 0 0 0 .84-1.93zm8.81-27.21v30.4h-8.94v-30.36zm4.69 0a22.91 22.91 0 0 1 4 .35 12.4 12.4 0 0 1 3.73 1.23 7.32 7.32 0 0 1 2.74 2.5 7.47 7.47 0 0 1 1 4.12 10.29 10.29 0 0 1 -.61 3.41 7.15 7.15 0 0 1 -2.1 3.08 8.24 8.24 0 0 1 -4.23 1.76 7.51 7.51 0 0 1 3.16 1.78 11.91 11.91 0 0 1 2.13 2.56c.06.08.2.33.43.73s.53.91.89 1.5l1.15 1.84c.41.64.81 1.24 1.22 1.78a15.18 15.18 0 0 0 1.73 2 4.21 4.21 0 0 0 1.5 1 6.62 6.62 0 0 0 1.8.3v.46h-5.42a34.36 34.36 0 0 1 -4.82-.31 10.55 10.55 0 0 1 -4-1.34 9.19 9.19 0 0 1 -3.1-3.3 9.46 9.46 0 0 1 -.78-1.56c-.21-.52-.38-1-.53-1.52s-.26-1-.36-1.41-.2-.88-.29-1.3a10.52 10.52 0 0 0 -.3-1.2 4.65 4.65 0 0 0 -1-2.12 3.67 3.67 0 0 0 -1.22-.79v-.43h.7a4.25 4.25 0 0 0 2.17-.56 4.52 4.52 0 0 0 1.6-1.74 8 8 0 0 0 .87-3c0-.23.06-.48.09-.76a5.73 5.73 0 0 0 0-1q-.18-3.21-1.59-4.47a4.91 4.91 0 0 0 -3.36-1.25h-2c-.14-.76-.29-1.51-.43-2.26zm-4.82 27.21h.13a2.6 2.6 0 0 0 .83 1.93 2.68 2.68 0 0 0 2 .8h.52v.46h-3.43z" fill="#e8314b"/><path d="m138.75 84.81h-.13a2.75 2.75 0 0 0 -.85-1.93 2.61 2.61 0 0 0 -1.93-.81h-.56v-.43h3.47zm0 24v3.19h-3.47v-.44h.56a2.6 2.6 0 0 0 1.93-.8 2.77 2.77 0 0 0 .85-1.93zm8.76-27.21v30.4h-8.89v-30.36zm12.16 0v2.21h-12.29v-2.17zm-2.3 14.4v2.17h-10v-2.17zm1.43 13.84 1.73 2.22h-13.15v-2.26zm3.51-7.85-1.65 10.01h-9.37l1.56-2.22a8.36 8.36 0 0 0 3.89-.93 9.31 9.31 0 0 0 3.14-2.69 11.68 11.68 0 0 0 2-4.23zm-4.94-10.99v5h-5.12a4.74 4.74 0 0 0 3.38-1.39 4.42 4.42 0 0 0 1.3-3.38v-.23zm0 7v5h-.44v-.22a4.55 4.55 0 0 0 -1.32-3.36 4.69 4.69 0 0 0 -3.36-1.37v-.05zm2.3-14.32v6.12h-.44v-.35a5.59 5.59 0 0 0 -1.47-4.1 5.68 5.68 0 0 0 -4.13-1.54v-.09zm0-2.86v1.26l-5.3-.48a16 16 0 0 0 2-.13c.71-.09 1.37-.19 2-.3a7.34 7.34 0 0 0 1.3-.31z" fill="#e8314b"/><path d="m177.85 81c.63 0 1.49 0 2.56.09s2.18.14 3.34.24 2.17.2 3 .3a6.78 6.78 0 0 1 1.69.33l-.87 6.55h-.43a4.71 4.71 0 0 0 -1.85-3.86 7.83 7.83 0 0 0 -5.05-1.48 7.6 7.6 0 0 0 -4.21 1 3.38 3.38 0 0 0 -1.69 2.63 2.53 2.53 0 0 0 1.06 2.43 16.35 16.35 0 0 0 2.8 1.6l8.11 3.78a8.71 8.71 0 0 1 3.82 3.17 8.13 8.13 0 0 1 1.17 5.25 8.79 8.79 0 0 1 -3.88 7.09q-3.59 2.46-9.74 2.45a24.38 24.38 0 0 1 -4.56-.39 16.73 16.73 0 0 1 -3.49-1 7.2 7.2 0 0 1 -2.24-1.41 5.67 5.67 0 0 1 -.39-2.64 12.47 12.47 0 0 1 .59-3.11 8.35 8.35 0 0 1 1.19-2.45h.39a8 8 0 0 0 1 4.3 8.24 8.24 0 0 0 3.25 3.3 10.2 10.2 0 0 0 5.21 1.25 6.91 6.91 0 0 0 4.62-1.3 3.84 3.84 0 0 0 1.5-3 3.65 3.65 0 0 0 -1.06-2.52 11.5 11.5 0 0 0 -3.54-2.25l-7.07-3.3a9.34 9.34 0 0 1 -4.37-3.82 8.73 8.73 0 0 1 -1-5.51 8.58 8.58 0 0 1 1.6-4.25 8.06 8.06 0 0 1 3.45-2.63 13.22 13.22 0 0 1 5.09-.84zm10.72.43-.13.92h-6.3v-.92z" fill="#e8314b"/><path d="m200 84.81h-.13a2.74 2.74 0 0 0 -.84-1.93 2.63 2.63 0 0 0 -1.93-.81h-.57v-.43h3.47zm0 24v3.19h-3.47v-.44h.57a2.62 2.62 0 0 0 1.93-.8 2.76 2.76 0 0 0 .84-1.93zm8.77-27.21v30.4h-8.9v-30.36zm12.07 14.1v2.17h-12.5v-2.13zm-12.2-10.93v-3.13h3.47v.43h-.56a2.61 2.61 0 0 0 -1.93.81 2.75 2.75 0 0 0 -.85 1.93zm0 24h.13a2.77 2.77 0 0 0 .85 1.93 2.6 2.6 0 0 0 1.93.8h.56v.5h-3.47zm11.93-24h-.13a2.57 2.57 0 0 0 -.82-1.93 2.69 2.69 0 0 0 -1.95-.81h-.57v-.43h3.47zm0 24v3.23h-3.47v-.44h.57a2.68 2.68 0 0 0 1.95-.8 2.59 2.59 0 0 0 .82-1.93zm8.77-27.21v30.44h-8.9v-30.36zm-.13 3.17v-3.09h3.47v.43h-.56a2.61 2.61 0 0 0 -1.93.81 2.75 2.75 0 0 0 -.85 1.93zm0 24h.13a2.77 2.77 0 0 0 .85 1.93 2.6 2.6 0 0 0 1.93.8h.56v.54h-3.47z" fill="#e8314b"/><path d="m239.91 108.85v3.15h-4.82v-.44h.69a3.34 3.34 0 0 0 2.09-.71 3 3 0 0 0 1.08-2zm2.86-27.85h.39l2 5.51-3.16 25.49h-3.43zm.39 0 15.28 20.88-3.39 11.15-13.19-18.2zm-.91 28.51v.22a2 2 0 0 0 .5 1.28 1.52 1.52 0 0 0 1.19.59h.7v.4h-2.64v-2.48zm28.86-28.51.35 5.9-14.2 21.1a20 20 0 0 0 -1.41 2.72 5.69 5.69 0 0 0 -.41 2.32h-.39l-2.43-4.47zm-4.82 28.51h.3v2.49h-2.69v-.39h.7a1.52 1.52 0 0 0 1.19-.59 1.9 1.9 0 0 0 .5-1.28v-.22zm5.21-28.51 4.38 31h-9.29l-2.08-15.84 6.6-15.16zm3 27.82h1a3.14 3.14 0 0 0 1.1 2 3.25 3.25 0 0 0 2.07.71h.69v.47h-4.82z" fill="#e8314b"/><path d="m286.25 108.85a1.94 1.94 0 0 0 -.17 1.47 1.73 1.73 0 0 0 .76.94 2.12 2.12 0 0 0 1.06.32h.39v.42h-9.67v-.44h.38a4.06 4.06 0 0 0 2.06-.63 4.68 4.68 0 0 0 1.76-2.1zm9.33-28.25v6.77l-10.67 24.52h-3.52l11.33-24.83c.14-.26.34-.67.59-1.23l.78-1.85c.27-.66.52-1.3.73-1.91a6 6 0 0 0 .37-1.47zm3.56 22v2.17h-12.28v-2.17zm-3.56-22 15 31.16h-10.4l-8.37-20.05zm3.35 28.25h10.24a4.91 4.91 0 0 0 1.83 2.15 3.91 3.91 0 0 0 2 .63h.34v.37h-16.45v-.44h.39a2.1 2.1 0 0 0 1.54-.71 1.76 1.76 0 0 0 .11-2z" fill="#e8314b"/><path d="m318.24 108.94v3.06h-3.61v-.44h.83a2.58 2.58 0 0 0 1.87-.78 2.54 2.54 0 0 0 .78-1.86zm-.24-27.94 9 9.37.05 21.66h-8.94v-25.62a27.85 27.85 0 0 0 -.57-5.42zm0 0 29.29 26 .56 5.59-29.29-26zm9.07 28a2.66 2.66 0 0 0 2.64 2.64h.83v.36h-3.6v-3.08zm8.2-27.3h3.6v3.08h-.09a2.72 2.72 0 0 0 -.8-1.89 2.59 2.59 0 0 0 -1.89-.76h-.82zm12.41 0v25.43a26.2 26.2 0 0 0 .15 3c.1.84.24 1.68.41 2.51h-.39l-9.07-10.06v-20.94zm3.47 0v.43h-.78a2.62 2.62 0 0 0 -1.87.76 2.7 2.7 0 0 0 -.82 1.89h-.13v-3.14z" fill="#e8314b"/><g fill="#333"><path d="m72.61 133.22h-.13a2.79 2.79 0 0 0 -.85-1.93 2.63 2.63 0 0 0 -1.93-.8h-.56v-.44h3.47zm0 24v3.17h-3.47v-.39h.56a2.63 2.63 0 0 0 1.93-.8 2.8 2.8 0 0 0 .85-1.94zm8.77-27.21v30.38h-8.9v-30.34zm-.13 3.17v-3.17h3.47v.44h-.56a2.67 2.67 0 0 0 -1.94.8 2.83 2.83 0 0 0 -.84 1.93zm0 24h.13a2.83 2.83 0 0 0 .84 1.94 2.67 2.67 0 0 0 1.94.8h.56v.43h-3.47z"/><path d="m92.62 157.35v3.08h-3.62v-.43h.82a2.66 2.66 0 0 0 2.65-2.65zm-.26-27.95 9 9.38.05 21.65h-8.92v-25.6a27.87 27.87 0 0 0 -.57-5.43zm0 0 29.29 26 .56 5.6-29.29-26zm9.07 27.95a2.66 2.66 0 0 0 2.64 2.65h.83v.43h-3.6v-3.08zm8.2-27.3h3.6v3.09h-.09a2.64 2.64 0 0 0 -.8-1.89 2.55 2.55 0 0 0 -1.89-.76h-.82zm12.41 0v25.44a26.13 26.13 0 0 0 .15 3c.1.84.24 1.68.41 2.52h-.39l-9.07-10.01v-20.95zm3.47 0v.44h-.78a2.56 2.56 0 0 0 -1.86.76 2.63 2.63 0 0 0 -.83 1.89h-.13v-3.09z"/><path d="m129 129.23a7.79 7.79 0 0 0 1.33.35c.59.11 1.25.21 2 .3a16.18 16.18 0 0 0 2 .13l-5.3.48zm29.47.78v2.17h-29.47v-2.18zm-23.43 2v.13a5.68 5.68 0 0 0 -4.13 1.54 5.61 5.61 0 0 0 -1.47 4.1v.31h-.44v-6.12zm4.38 25.21v3.17h-3.47v-.39h.56a2.64 2.64 0 0 0 1.93-.8 2.8 2.8 0 0 0 .85-1.94zm8.77-27.08v30.25h-8.9v-30.21zm-.19 27.12h.13a2.79 2.79 0 0 0 .84 1.94 2.66 2.66 0 0 0 1.93.8h.57v.43h-3.47zm10.41-25.21v6.12h-.43v-.31a5.21 5.21 0 0 0 -5.6-5.64v-.13zm0-2.82v1.26l-5.29-.48a16 16 0 0 0 2-.13q1.07-.13 2-.3a6.42 6.42 0 0 0 1.33-.35z"/><path d="m165.79 133.22h-.13a2.84 2.84 0 0 0 -.85-1.93 2.66 2.66 0 0 0 -1.93-.8h-.57v-.44h3.48zm0 24v3.17h-3.48v-.39h.57a2.66 2.66 0 0 0 1.93-.8 2.84 2.84 0 0 0 .85-1.94zm8.76-27.21v30.38h-8.89v-30.34zm12.15 0v2.22h-12.28v-2.22zm-2.3 14.33v2.17h-10v-2.17zm1.43 13.84 1.74 2.21h-13.15v-2.21zm3.52-7.86-1.65 10.07h-9.37l1.56-2.21a8.32 8.32 0 0 0 3.88-.93 9.56 9.56 0 0 0 3.15-2.69 12 12 0 0 0 2-4.24zm-4.95-10.93v5h-5.12v-.08a4.79 4.79 0 0 0 3.39-1.39 4.48 4.48 0 0 0 1.3-3.39v-.17zm0 7v5h-.4v-.21a4.57 4.57 0 0 0 -1.32-3.37 4.7 4.7 0 0 0 -3.37-1.36v-.09zm2.3-14.32v6.07h-.43v-.34a5.58 5.58 0 0 0 -1.48-4.11 5.7 5.7 0 0 0 -4.12-1.54v-.08zm0-2.87v1.26l-5.29-.48a16.13 16.13 0 0 0 2-.13c.7-.08 1.36-.18 2-.3a5.81 5.81 0 0 0 1.29-.28z"/><path d="m197.12 133.22h-.12a2.79 2.79 0 0 0 -.85-1.93 2.64 2.64 0 0 0 -1.93-.8h-.56v-.44h3.47zm0 24v3.17h-3.47v-.39h.56a2.64 2.64 0 0 0 1.93-.8 2.8 2.8 0 0 0 .85-1.94zm8.81-27.21v30.38h-8.93v-30.34zm4.68 0a24 24 0 0 1 4 .35 12.51 12.51 0 0 1 3.73 1.24 7.11 7.11 0 0 1 2.73 2.49 7.44 7.44 0 0 1 1 4.13 10.47 10.47 0 0 1 -.6 3.4 7.26 7.26 0 0 1 -2.11 3.08 8.16 8.16 0 0 1 -4.23 1.76 7.65 7.65 0 0 1 3.17 1.78 11.84 11.84 0 0 1 2.12 2.56c.06.09.21.33.44.74s.53.9.89 1.5.74 1.21 1.15 1.84.81 1.23 1.21 1.78a15.9 15.9 0 0 0 1.74 2 4.32 4.32 0 0 0 1.5 1 6.49 6.49 0 0 0 1.8.3v.43h-5.43a35.86 35.86 0 0 1 -4.81-.3 10.33 10.33 0 0 1 -4-1.35 9.1 9.1 0 0 1 -3.11-3.29 10 10 0 0 1 -.78-1.57c-.2-.52-.38-1-.52-1.52s-.27-1-.37-1.41-.19-.88-.28-1.3-.19-.81-.3-1.19a4.65 4.65 0 0 0 -1.05-2.13 3.76 3.76 0 0 0 -1.21-.78v-.43h.69a4.14 4.14 0 0 0 2.17-.57 4.37 4.37 0 0 0 1.61-1.73 8.43 8.43 0 0 0 .87-3c0-.23.05-.49.08-.76a5.73 5.73 0 0 0 0-1q-.17-3.21-1.58-4.47a4.87 4.87 0 0 0 -3.36-1.26h-2c-.15-.75-.29-1.5-.44-2.26zm-4.81 27.21h.13a2.61 2.61 0 0 0 .82 1.94 2.73 2.73 0 0 0 2 .8h.52v.43h-3.47z"/><path d="m241.38 133.22h-10.24a4.62 4.62 0 0 0 -1.76-2.1 4 4 0 0 0 -2.06-.63h-.32v-.44h16.45v.44h-.45a1.88 1.88 0 0 0 -1.45.72 1.94 1.94 0 0 0 -.17 2.01zm3.34 28.25-15-31.15h10.42l8.37 20zm0 0v-6.77l10.68-24.52h3.51l-11.32 24.82-.57 1.24c-.26.56-.52 1.17-.8 1.84s-.51 1.3-.72 1.91a10.28 10.28 0 0 0 -.39 1.47zm9.33-28.25c.41-.87.38-1.54-.08-2a2.14 2.14 0 0 0 -1.56-.72h-.41v-.44h9.68v.44h-.39a4 4 0 0 0 -2 .63 4.6 4.6 0 0 0 -1.75 2.1z"/><path d="m266.9 133.22h-.13a2.79 2.79 0 0 0 -.85-1.93 2.64 2.64 0 0 0 -1.93-.8h-.56v-.44h3.47zm0 24v3.17h-3.47v-.39h.57a2.64 2.64 0 0 0 1.93-.8 2.8 2.8 0 0 0 .85-1.94zm8.77-27.21v30.38h-8.9v-30.34zm-.13 3.17v-3.17h3.46v.44h-.57a2.66 2.66 0 0 0 -1.93.8 2.78 2.78 0 0 0 -.84 1.93zm0 24h.13a2.79 2.79 0 0 0 .84 1.94 2.66 2.66 0 0 0 1.93.8h.56v.43h-3.47z"/><path d="m287.21 133.22h-.13a2.79 2.79 0 0 0 -.85-1.93 2.64 2.64 0 0 0 -1.93-.8h-.56v-.44h3.47zm0 24v3.17h-3.47v-.39h.56a2.64 2.64 0 0 0 1.93-.8 2.8 2.8 0 0 0 .85-1.94zm8.79-27.17v30.38h-8.9v-30.38zm12.15 0v2.22h-12.3v-2.22zm-2.3 14.33v2.17h-10v-2.17zm1.43 13.84 1.73 2.21h-13.16v-2.21zm3.51-7.86-1.64 10.07h-9.38l1.56-2.21a8.36 8.36 0 0 0 3.89-.93 9.43 9.43 0 0 0 3.14-2.69 11.81 11.81 0 0 0 2-4.24zm-4.94-10.93v5h-5.12v-.08a4.77 4.77 0 0 0 3.38-1.39 4.45 4.45 0 0 0 1.3-3.39v-.17zm0 7v5h-.44v-.21a4.57 4.57 0 0 0 -1.32-3.37 4.66 4.66 0 0 0 -3.36-1.36v-.09zm2.3-14.32v6.07h-.44v-.34a5.62 5.62 0 0 0 -1.47-4.11 5.72 5.72 0 0 0 -4.13-1.54v-.08zm0-2.87v1.26l-5.3-.48a16 16 0 0 0 2-.13q1.06-.12 2-.3a6 6 0 0 0 1.28-.32z"/><path d="m325 133.18h-9.41a3.85 3.85 0 0 0 -1.7-2.06 4.38 4.38 0 0 0 -2.12-.63h-.35v-.44h15.58v.44h-.39a1.91 1.91 0 0 0 -1.45.69 1.88 1.88 0 0 0 -.16 2zm-10.5-2.86h9.33l6.17 15.53-3.86 15.54zm23.13-1 1.09 4.82-10.94 22.39a21.76 21.76 0 0 0 -.84 2.52 10.54 10.54 0 0 0 -.33 2.3h-.39l-1.48-6 12.5-26zm0 0 9.85 18.19-2.82 13.8-11-20.75zm16.28.92-8.2 26.25a19.06 19.06 0 0 0 -.59 2.63 8.45 8.45 0 0 0 0 2.19h-.44l-1.69-4.3 7.6-26.77zm-4.17 2.86a2.17 2.17 0 0 0 -.22-2 1.76 1.76 0 0 0 -1.43-.69h-.39v-.44h9.46v.44h-.35a4.68 4.68 0 0 0 -2.17.63 3.41 3.41 0 0 0 -1.64 2.06z"/><text font-family="YuMin-Demibold-83pv-RKSJ-H, YuMincho" font-size="14" letter-spacing=".2em" transform="translate(96.53 220.52)">新卒採<tspan letter-spacing=".18em" x="50.4" y="0">用</tspan><tspan letter-spacing=".08em" x="66.89" y="0">サ</tspan><tspan letter-spacing="-.15em" x="82.04" y="0">イ</tspan><tspan letter-spacing=".04em" x="93.98" y="0">ト</tspan><tspan x="108.5" y="0">社員紹</tspan><tspan letter-spacing=".18em" x="158.9" y="0">介</tspan><tspan letter-spacing=".05em" x="175.39" y="0">は</tspan><tspan letter-spacing=".02em" x="190.08" y="0">こ</tspan><tspan letter-spacing="-.01em" x="204.32" y="0">ち</tspan><tspan letter-spacing=".12em" x="218.16" y="0">ら</tspan></text></g></svg>