<?xml version="1.0" encoding="utf-8"?>
<!-- Generator: Adobe Illustrator 25.4.1, SVG Export Plug-In . SVG Version: 6.00 Build 0)  -->
<svg version="1.1" id="レイヤー_1" xmlns="http://www.w3.org/2000/svg" xmlns:xlink="http://www.w3.org/1999/xlink" x="0px"
	 y="0px" viewBox="0 0 420 270" style="enable-background:new 0 0 420 270;" xml:space="preserve">
<style type="text/css">
	.st0{fill:#FFFFFF;}
	.st1{fill:#E8314B;}
	.st2{fill:#333333;}
	.st3{enable-background:new    ;}
</style>
<path class="st0" d="M0,0h420v270H0V0z"/>
<path class="st1" d="M72.6,84.8h-0.1c0-0.7-0.3-1.4-0.8-1.9c-0.5-0.5-1.2-0.8-1.9-0.8h-0.6v-0.4h3.5L72.6,84.8z M72.6,108.8v3.2
	h-3.5v-0.4h0.6c0.7,0,1.4-0.3,1.9-0.8c0.5-0.5,0.8-1.2,0.8-1.9L72.6,108.8z M81.4,81.6V112h-8.9V81.6L81.4,81.6z M93.5,81.6v2.2
	H81.3v-2.2L93.5,81.6z M91.2,96v2.2h-10V96H91.2z M81.2,108.9h0.1c0,0.7,0.3,1.4,0.8,1.9c0.5,0.5,1.2,0.8,1.9,0.8h0.6v0.4h-3.4
	L81.2,108.9z M91.2,91v5h-5.1c1.3,0,2.5-0.5,3.4-1.4c0.9-0.9,1.4-2.1,1.3-3.4V91H91.2z M91.2,98v5h-0.4v-0.2c0-1.3-0.4-2.5-1.3-3.4
	c-0.9-0.9-2.1-1.4-3.4-1.4V98L91.2,98z M93.5,83.7v6.1h-0.4v-0.3c0.1-1.5-0.4-3-1.5-4.1c-1.1-1-2.6-1.6-4.1-1.5v-0.1L93.5,83.7z
	 M93.5,80.8v1.3l-5.3-0.5c0.7,0,1.3,0,2-0.1c0.7-0.1,1.4-0.2,2-0.3C92.7,81.1,93.1,81,93.5,80.8L93.5,80.8z"/>
<path class="st1" d="M102.4,84.8h-0.1c0-0.7-0.3-1.4-0.8-1.9c-0.5-0.5-1.2-0.8-1.9-0.8h-0.6v-0.4h3.5L102.4,84.8z M102.4,108.8v3.2
	h-3.5v-0.4h0.6c0.7,0,1.4-0.3,1.9-0.8c0.5-0.5,0.8-1.2,0.8-1.9L102.4,108.8z M111.2,81.6V112h-8.9V81.6L111.2,81.6z M115.9,81.6
	c1.3,0,2.7,0.1,4,0.3c1.3,0.2,2.6,0.6,3.7,1.2c1.1,0.6,2.1,1.4,2.7,2.5c0.7,1.2,1.1,2.7,1,4.1c0,1.2-0.2,2.3-0.6,3.4
	c-0.4,1.2-1.1,2.3-2.1,3.1c-1.2,1-2.7,1.6-4.2,1.8c1.2,0.3,2.3,0.9,3.2,1.8c0.8,0.7,1.5,1.6,2.1,2.6c0.1,0.1,0.2,0.3,0.4,0.7
	s0.5,0.9,0.9,1.5l1.2,1.8c0.4,0.6,0.8,1.2,1.2,1.8c0.5,0.7,1.1,1.4,1.7,2c0.4,0.4,0.9,0.8,1.5,1c0.6,0.2,1.2,0.3,1.8,0.3v0.5H129
	c-1.6,0-3.2-0.1-4.8-0.3c-1.4-0.2-2.8-0.6-4-1.3c-1.3-0.8-2.4-2-3.1-3.3c-0.3-0.5-0.6-1-0.8-1.6c-0.2-0.5-0.4-1-0.5-1.5
	s-0.3-1-0.4-1.4s-0.2-0.9-0.3-1.3c-0.1-0.4-0.2-0.8-0.3-1.2c-0.1-0.8-0.5-1.5-1-2.1c-0.3-0.3-0.8-0.6-1.2-0.8v-0.4h0.7
	c0.8,0,1.5-0.2,2.2-0.6c0.7-0.4,1.2-1,1.6-1.7c0.5-0.9,0.8-2,0.9-3c0-0.2,0.1-0.5,0.1-0.8c0-0.3,0-0.7,0-1c-0.1-2.1-0.6-3.6-1.6-4.5
	c-0.9-0.8-2.1-1.3-3.4-1.2h-2c-0.1-0.8-0.3-1.5-0.4-2.3L115.9,81.6z M111.1,108.8h0.1c0,0.7,0.3,1.4,0.8,1.9c0.5,0.5,1.3,0.8,2,0.8
	h0.5v0.5h-3.4L111.1,108.8z"/>
<path class="st1" d="M138.8,84.8h-0.1c0-0.7-0.3-1.4-0.9-1.9c-0.5-0.5-1.2-0.8-1.9-0.8h-0.6v-0.4h3.5V84.8z M138.8,108.8v3.2h-3.5
	v-0.4h0.6c0.7,0,1.4-0.3,1.9-0.8c0.5-0.5,0.8-1.2,0.9-1.9L138.8,108.8z M147.5,81.6V112h-8.9V81.6L147.5,81.6z M159.7,81.6v2.2
	h-12.3v-2.2L159.7,81.6z M157.4,96v2.2h-10V96H157.4z M158.8,109.8l1.7,2.2h-13.1v-2.3L158.8,109.8z M162.3,102l-1.6,10h-9.4
	l1.6-2.2c1.4,0,2.7-0.3,3.9-0.9c1.2-0.6,2.3-1.6,3.1-2.7c0.9-1.3,1.6-2.7,2-4.2L162.3,102z M157.4,91v5h-5.1c1.3,0,2.5-0.5,3.4-1.4
	c0.9-0.9,1.4-2.1,1.3-3.4V91H157.4z M157.4,98v5h-0.4v-0.2c0-1.3-0.4-2.5-1.3-3.4c-0.9-0.9-2.1-1.4-3.4-1.4V98L157.4,98z
	 M159.7,83.7v6.1h-0.4v-0.3c0.1-1.5-0.4-3-1.5-4.1c-1.1-1-2.6-1.6-4.1-1.5v-0.1L159.7,83.7z M159.7,80.8v1.3l-5.3-0.5
	c0.7,0,1.3,0,2-0.1c0.7-0.1,1.4-0.2,2-0.3C158.8,81.1,159.2,81,159.7,80.8L159.7,80.8z"/>
<path class="st1" d="M177.9,81c0.6,0,1.5,0,2.6,0.1s2.2,0.1,3.3,0.2s2.2,0.2,3,0.3c0.6,0,1.1,0.1,1.7,0.3l-0.9,6.6h-0.4
	c0-1.5-0.7-2.9-1.9-3.9c-1.5-1.1-3.2-1.6-5.1-1.5c-1.5-0.1-2.9,0.3-4.2,1c-1,0.5-1.6,1.5-1.7,2.6c-0.1,0.9,0.3,1.9,1.1,2.4
	c0.9,0.6,1.8,1.2,2.8,1.6l8.1,3.8c1.6,0.7,2.9,1.8,3.8,3.2c1,1.6,1.4,3.4,1.2,5.2c-0.1,2.9-1.5,5.5-3.9,7.1
	c-2.4,1.6-5.6,2.5-9.7,2.4c-1.5,0-3.1-0.1-4.6-0.4c-1.2-0.2-2.4-0.5-3.5-1c-0.8-0.3-1.6-0.8-2.2-1.4c-0.3-0.8-0.5-1.7-0.4-2.6
	c0.1-1.1,0.3-2.1,0.6-3.1c0.3-0.9,0.7-1.7,1.2-2.4h0.4c-0.1,1.5,0.3,3,1,4.3c0.7,1.4,1.9,2.5,3.2,3.3c1.6,0.9,3.4,1.3,5.2,1.2
	c1.6,0.1,3.3-0.3,4.6-1.3c0.9-0.7,1.5-1.8,1.5-3c0-0.9-0.4-1.8-1.1-2.5c-1-1-2.2-1.7-3.5-2.2l-7.1-3.3c-1.8-0.8-3.4-2.1-4.4-3.8
	c-0.9-1.7-1.3-3.6-1-5.5c0.1-1.5,0.7-3,1.6-4.2c0.9-1.2,2.1-2.1,3.4-2.6C174.4,81.2,176.1,80.9,177.9,81L177.9,81z M188.6,81.4
	l-0.1,0.9h-6.3v-0.9H188.6z"/>
<path class="st1" d="M200,84.8h-0.1c0-0.7-0.3-1.4-0.8-1.9c-0.5-0.5-1.2-0.8-1.9-0.8h-0.6v-0.4h3.5V84.8z M200,108.8v3.2h-3.5v-0.4
	h0.6c0.7,0,1.4-0.3,1.9-0.8c0.5-0.5,0.8-1.2,0.8-1.9L200,108.8z M208.8,81.6V112h-8.9V81.6L208.8,81.6z M220.8,95.7v2.2h-12.5v-2.1
	L220.8,95.7z M208.6,84.8v-3.1h3.5v0.4h-0.6c-0.7,0-1.4,0.3-1.9,0.8c-0.5,0.5-0.8,1.2-0.9,1.9L208.6,84.8z M208.6,108.8h0.1
	c0,0.7,0.3,1.4,0.9,1.9c0.5,0.5,1.2,0.8,1.9,0.8h0.6v0.5h-3.5V108.8z M220.6,84.8h-0.1c0-0.7-0.3-1.4-0.8-1.9
	c-0.5-0.5-1.2-0.8-1.9-0.8h-0.6v-0.4h3.5L220.6,84.8z M220.6,108.8v3.2h-3.5v-0.4h0.6c0.7,0,1.4-0.3,1.9-0.8
	c0.5-0.5,0.8-1.2,0.8-1.9L220.6,108.8z M229.3,81.6V112h-8.9V81.6L229.3,81.6z M229.2,84.7v-3.1h3.5v0.4h-0.6
	c-0.7,0-1.4,0.3-1.9,0.8c-0.5,0.5-0.8,1.2-0.9,1.9L229.2,84.7z M229.2,108.7h0.1c0,0.7,0.3,1.4,0.9,1.9c0.5,0.5,1.2,0.8,1.9,0.8h0.6
	v0.5h-3.5V108.7z"/>
<path class="st1" d="M239.9,108.8v3.2h-4.8v-0.4h0.7c0.8,0,1.5-0.2,2.1-0.7c0.6-0.5,1-1.2,1.1-2H239.9z M242.8,81h0.4l2,5.5L242,112
	h-3.4L242.8,81z M243.2,81l15.3,20.9l-3.4,11.2l-13.2-18.2L243.2,81z M242.2,109.5v0.2c0,0.5,0.2,0.9,0.5,1.3
	c0.3,0.4,0.7,0.6,1.2,0.6h0.7v0.4H242v-2.5L242.2,109.5z M271.1,81l0.4,5.9L257.3,108c-0.5,0.9-1,1.8-1.4,2.7
	c-0.3,0.7-0.4,1.5-0.4,2.3H255l-2.4-4.5L271.1,81z M266.3,109.5h0.3v2.5h-2.7v-0.4h0.7c0.5,0,0.9-0.2,1.2-0.6
	c0.3-0.3,0.5-0.8,0.5-1.3V109.5L266.3,109.5z M271.5,81l4.4,31h-9.3l-2.1-15.8l6.6-15.2H271.5z M274.5,108.8h1
	c0.1,0.8,0.5,1.5,1.1,2c0.6,0.5,1.3,0.7,2.1,0.7h0.7v0.5h-4.8L274.5,108.8z"/>
<path class="st1" d="M286.2,108.8c-0.2,0.4-0.3,1-0.2,1.5c0.1,0.4,0.4,0.7,0.8,0.9c0.3,0.2,0.7,0.3,1.1,0.3h0.4v0.4h-9.7v-0.4h0.4
	c0.7,0,1.4-0.2,2.1-0.6c0.8-0.5,1.4-1.2,1.8-2.1L286.2,108.8z M295.6,80.6v6.8l-10.7,24.5h-3.5l11.3-24.8c0.1-0.3,0.3-0.7,0.6-1.2
	l0.8-1.8c0.3-0.7,0.5-1.3,0.7-1.9c0.2-0.5,0.3-1,0.4-1.5L295.6,80.6z M299.1,102.6v2.2h-12.3v-2.2H299.1z M295.6,80.6l15,31.2h-10.4
	l-8.4-20.1L295.6,80.6z M298.9,108.8h10.2c0.4,0.9,1,1.6,1.8,2.2c0.6,0.4,1.3,0.6,2,0.6h0.3v0.4h-16.5v-0.4h0.4
	c0.6,0,1.1-0.3,1.5-0.7C299.3,110.3,299.3,109.5,298.9,108.8L298.9,108.8z"/>
<path class="st1" d="M318.2,108.9v3.1h-3.6v-0.4h0.8c0.7,0,1.4-0.3,1.9-0.8c0.5-0.5,0.8-1.2,0.8-1.9L318.2,108.9z M318,81l9,9.4
	l0,21.7h-8.9V86.4c0-1.8-0.2-3.6-0.6-5.4L318,81z M318,81l29.3,26l0.6,5.6l-29.3-26L318,81z M327.1,109c0,1.5,1.2,2.6,2.6,2.6h0.8
	v0.4h-3.6v-3.1L327.1,109z M335.3,81.7h3.6v3.1h-0.1c0-0.7-0.3-1.4-0.8-1.9c-0.5-0.5-1.2-0.8-1.9-0.8h-0.8V81.7z M347.7,81.7v25.4
	c0,1,0,2,0.1,3c0.1,0.8,0.2,1.7,0.4,2.5h-0.4l-9.1-10.1V81.6L347.7,81.7z M351.2,81.7v0.4h-0.8c-0.7,0-1.4,0.3-1.9,0.8
	c-0.5,0.5-0.8,1.2-0.8,1.9h-0.1v-3.1L351.2,81.7z"/>
<g>
	<path class="st2" d="M72.6,133.2h-0.1c0-0.7-0.3-1.4-0.8-1.9c-0.5-0.5-1.2-0.8-1.9-0.8h-0.6v-0.4h3.5L72.6,133.2z M72.6,157.2v3.2
		h-3.5V160h0.6c0.7,0,1.4-0.3,1.9-0.8c0.5-0.5,0.8-1.2,0.8-1.9L72.6,157.2z M81.4,130v30.4h-8.9v-30.3L81.4,130z M81.3,133.2V130
		h3.5v0.4h-0.6c-0.7,0-1.4,0.3-1.9,0.8c-0.5,0.5-0.8,1.2-0.8,1.9H81.3z M81.3,157.2h0.1c0,0.7,0.3,1.4,0.8,1.9
		c0.5,0.5,1.2,0.8,1.9,0.8h0.6v0.4h-3.5L81.3,157.2z"/>
	<path class="st2" d="M92.6,157.4v3.1H89V160h0.8c1.5,0,2.6-1.2,2.7-2.6L92.6,157.4z M92.4,129.4l9,9.4l0.1,21.6h-8.9v-25.6
		c0-1.8-0.2-3.6-0.6-5.4H92.4z M92.4,129.4l29.3,26l0.6,5.6l-29.3-26L92.4,129.4z M101.4,157.4c0,1.5,1.2,2.6,2.6,2.6h0.8v0.4h-3.6
		v-3.1L101.4,157.4z M109.6,130.1h3.6v3.1h-0.1c0-0.7-0.3-1.4-0.8-1.9c-0.5-0.5-1.2-0.8-1.9-0.8h-0.8V130.1z M122,130.1v25.4
		c0,1,0,2,0.2,3c0.1,0.8,0.2,1.7,0.4,2.5h-0.4l-9.1-10v-20.9L122,130.1z M125.5,130.1v0.4h-0.8c-0.7,0-1.4,0.3-1.9,0.8
		c-0.5,0.5-0.8,1.2-0.8,1.9h-0.1v-3.1H125.5z"/>
	<path class="st2" d="M129,129.2c0.4,0.2,0.9,0.3,1.3,0.4c0.6,0.1,1.2,0.2,2,0.3c0.7,0.1,1.3,0.1,2,0.1l-5.3,0.5L129,129.2z
		 M158.5,130v2.2H129V130L158.5,130z M135,132v0.1c-1.5-0.1-3,0.5-4.1,1.5c-1,1.1-1.6,2.6-1.5,4.1v0.3H129V132L135,132z
		 M139.4,157.2v3.2H136V160h0.6c0.7,0,1.4-0.3,1.9-0.8c0.5-0.5,0.8-1.2,0.9-1.9L139.4,157.2z M148.2,130.1v30.2h-8.9v-30.2
		L148.2,130.1z M148,157.3h0.1c0,0.7,0.3,1.4,0.8,1.9c0.5,0.5,1.2,0.8,1.9,0.8h0.6v0.4H148V157.3z M158.4,132v6.1H158v-0.3
		c0.2-2.9-1.9-5.4-4.7-5.6c-0.3,0-0.6,0-0.9,0v-0.1L158.4,132z M158.4,129.2v1.3l-5.3-0.5c0.7,0,1.3,0,2-0.1c0.7-0.1,1.4-0.2,2-0.3
		C157.6,129.5,158,129.4,158.4,129.2L158.4,129.2z"/>
	<path class="st2" d="M165.8,133.2h-0.1c0-0.7-0.3-1.4-0.9-1.9c-0.5-0.5-1.2-0.8-1.9-0.8h-0.6v-0.4h3.5L165.8,133.2z M165.8,157.2
		v3.2h-3.5V160h0.6c0.7,0,1.4-0.3,1.9-0.8c0.5-0.5,0.8-1.2,0.9-1.9L165.8,157.2z M174.5,130v30.4h-8.9v-30.3L174.5,130z M186.7,130
		v2.2h-12.3V130H186.7z M184.4,144.3v2.2h-10v-2.2H184.4z M185.8,158.2l1.7,2.2h-13.1v-2.2H185.8z M189.3,150.3l-1.6,10.1h-9.4
		l1.6-2.2c1.3,0,2.7-0.3,3.9-0.9c1.2-0.7,2.3-1.6,3.1-2.7c0.9-1.3,1.6-2.7,2-4.2H189.3z M184.4,139.4v5h-5.1v-0.1
		c1.3,0,2.5-0.5,3.4-1.4c0.9-0.9,1.4-2.1,1.3-3.4v-0.2L184.4,139.4z M184.4,146.4v5H184v-0.2c0-1.3-0.4-2.5-1.3-3.4
		c-0.9-0.9-2.1-1.4-3.4-1.4v-0.1L184.4,146.4z M186.7,132.1v6.1h-0.4v-0.3c0.1-1.5-0.4-3-1.5-4.1c-1.1-1-2.6-1.6-4.1-1.5v-0.1
		L186.7,132.1z M186.7,129.2v1.3l-5.3-0.5c0.7,0,1.3,0,2-0.1c0.7-0.1,1.4-0.2,2-0.3C185.8,129.5,186.3,129.4,186.7,129.2
		L186.7,129.2z"/>
	<path class="st2" d="M197.1,133.2H197c0-0.7-0.3-1.4-0.9-1.9c-0.5-0.5-1.2-0.8-1.9-0.8h-0.6v-0.4h3.5L197.1,133.2z M197.1,157.2
		v3.2h-3.5V160h0.6c0.7,0,1.4-0.3,1.9-0.8c0.5-0.5,0.8-1.2,0.9-1.9L197.1,157.2z M205.9,130v30.4H197v-30.3L205.9,130z M210.6,130
		c1.3,0,2.7,0.1,4,0.4c1.3,0.2,2.6,0.6,3.7,1.2c1.1,0.6,2.1,1.4,2.7,2.5c0.7,1.3,1.1,2.7,1,4.1c0,1.2-0.2,2.3-0.6,3.4
		c-0.4,1.2-1.2,2.3-2.1,3.1c-1.2,1-2.7,1.6-4.2,1.8c1.2,0.3,2.3,0.9,3.2,1.8c0.8,0.7,1.5,1.6,2.1,2.6c0.1,0.1,0.2,0.3,0.4,0.7
		s0.5,0.9,0.9,1.5s0.7,1.2,1.1,1.8s0.8,1.2,1.2,1.8c0.5,0.7,1.1,1.4,1.7,2c0.4,0.4,0.9,0.8,1.5,1c0.6,0.2,1.2,0.3,1.8,0.3v0.4h-5.4
		c-1.6,0-3.2-0.1-4.8-0.3c-1.4-0.2-2.8-0.6-4-1.4c-1.3-0.8-2.4-1.9-3.1-3.3c-0.3-0.5-0.6-1-0.8-1.6c-0.2-0.5-0.4-1-0.5-1.5
		s-0.3-1-0.4-1.4s-0.2-0.9-0.3-1.3s-0.2-0.8-0.3-1.2c-0.2-0.8-0.5-1.5-1.1-2.1c-0.3-0.3-0.8-0.6-1.2-0.8v-0.4h0.7
		c0.8,0,1.5-0.2,2.2-0.6c0.7-0.4,1.2-1,1.6-1.7c0.5-0.9,0.8-2,0.9-3c0-0.2,0.1-0.5,0.1-0.8c0-0.3,0-0.7,0-1
		c-0.1-2.1-0.6-3.6-1.6-4.5c-0.9-0.8-2.1-1.3-3.4-1.3h-2c-0.1-0.8-0.3-1.5-0.4-2.3L210.6,130z M205.8,157.2h0.1
		c0,0.7,0.3,1.4,0.8,1.9c0.5,0.5,1.3,0.8,2,0.8h0.5v0.4h-3.5L205.8,157.2z"/>
	<path class="st2" d="M241.4,133.2h-10.2c-0.4-0.9-1-1.6-1.8-2.1c-0.6-0.4-1.3-0.6-2.1-0.6H227V130h16.4v0.4H243
		c-0.6,0-1.1,0.3-1.4,0.7C241.1,131.8,241.1,132.6,241.4,133.2L241.4,133.2z M244.7,161.5l-15-31.1h10.4l8.4,20L244.7,161.5z
		 M244.7,161.5v-6.8l10.7-24.5h3.5L247.6,155l-0.6,1.2c-0.3,0.6-0.5,1.2-0.8,1.8s-0.5,1.3-0.7,1.9c-0.2,0.5-0.3,1-0.4,1.5
		L244.7,161.5z M254.1,133.2c0.4-0.9,0.4-1.5-0.1-2c-0.4-0.4-1-0.7-1.6-0.7H252v-0.4h9.7v0.4h-0.4c-0.7,0-1.4,0.2-2,0.6
		c-0.8,0.5-1.4,1.2-1.8,2.1L254.1,133.2z"/>
	<path class="st2" d="M266.9,133.2h-0.1c0-0.7-0.3-1.4-0.9-1.9c-0.5-0.5-1.2-0.8-1.9-0.8h-0.6v-0.4h3.5V133.2z M266.9,157.2v3.2
		h-3.5V160h0.6c0.7,0,1.4-0.3,1.9-0.8c0.5-0.5,0.8-1.2,0.9-1.9L266.9,157.2z M275.7,130v30.4h-8.9v-30.3L275.7,130z M275.5,133.2
		V130h3.5v0.4h-0.6c-0.7,0-1.4,0.3-1.9,0.8c-0.5,0.5-0.8,1.2-0.8,1.9H275.5z M275.5,157.2h0.1c0,0.7,0.3,1.4,0.8,1.9
		c0.5,0.5,1.2,0.8,1.9,0.8h0.6v0.4h-3.5L275.5,157.2z"/>
	<path class="st2" d="M287.2,133.2h-0.1c0-0.7-0.3-1.4-0.9-1.9c-0.5-0.5-1.2-0.8-1.9-0.8h-0.6v-0.4h3.5V133.2z M287.2,157.2v3.2
		h-3.5V160h0.6c0.7,0,1.4-0.3,1.9-0.8c0.5-0.5,0.8-1.2,0.9-1.9L287.2,157.2z M296,130.1v30.4h-8.9v-30.4H296z M308.1,130.1v2.2
		h-12.3v-2.2H308.1z M305.9,144.4v2.2h-10v-2.2H305.9z M307.3,158.2l1.7,2.2h-13.2v-2.2H307.3z M310.8,150.4l-1.6,10.1h-9.4l1.6-2.2
		c1.4,0,2.7-0.3,3.9-0.9c1.2-0.7,2.3-1.6,3.1-2.7c0.9-1.3,1.6-2.7,2-4.2L310.8,150.4z M305.9,139.4v5h-5.1v-0.1
		c1.3,0,2.5-0.5,3.4-1.4c0.9-0.9,1.4-2.1,1.3-3.4v-0.2L305.9,139.4z M305.9,146.4v5h-0.4v-0.2c0-1.3-0.4-2.5-1.3-3.4
		c-0.9-0.9-2.1-1.4-3.4-1.4v-0.1L305.9,146.4z M308.1,132.1v6.1h-0.4v-0.3c0.1-1.5-0.4-3-1.5-4.1c-1.1-1-2.6-1.6-4.1-1.5v-0.1
		L308.1,132.1z M308.1,129.2v1.3l-5.3-0.5c0.7,0,1.3,0,2-0.1c0.7-0.1,1.4-0.2,2-0.3C307.3,129.5,307.7,129.4,308.1,129.2
		L308.1,129.2z"/>
	<path class="st2" d="M325,133.2h-9.4c-0.3-0.9-0.9-1.6-1.7-2.1c-0.6-0.4-1.4-0.6-2.1-0.6h-0.4V130H327v0.4h-0.4
		c-0.6,0-1.1,0.3-1.5,0.7C324.7,131.8,324.7,132.5,325,133.2L325,133.2z M314.5,130.3h9.3l6.2,15.5l-3.9,15.5L314.5,130.3z
		 M337.6,129.3l1.1,4.8l-10.9,22.4c-0.3,0.8-0.6,1.7-0.8,2.5c-0.2,0.8-0.3,1.5-0.3,2.3h-0.4l-1.5-6l12.5-26L337.6,129.3z
		 M337.6,129.3l9.9,18.2l-2.8,13.8l-11-20.8L337.6,129.3z M353.9,130.2l-8.2,26.2c-0.3,0.9-0.5,1.7-0.6,2.6c-0.1,0.7-0.1,1.5,0,2.2
		h-0.4L343,157l7.6-26.8H353.9z M349.7,133.1c0.3-0.7,0.2-1.4-0.2-2c-0.3-0.4-0.9-0.7-1.4-0.7h-0.4V130h9.5v0.4h-0.4
		c-0.8,0-1.5,0.2-2.2,0.6c-0.8,0.4-1.4,1.2-1.6,2.1H349.7z"/>
	<g class="st3">
		<path class="st2" d="M100.9,217.8c0,2.5,0,3.1,0,3.4c0,0.4-0.2,0.5-0.8,0.5c-0.4,0-0.5-0.1-0.5-0.5c0-0.3,0.1-1.7,0.1-3
			c-1,1.2-1.6,1.7-2.8,2.4c-0.1,0-0.1-0.1-0.1-0.2c1.3-1.4,2-2.5,2.7-4.1h-1.3c-0.3,0-0.5,0-0.9,0.1l-0.2-0.5c0.4,0.1,0.7,0.1,1,0.1
			h1.6v-0.4c0-0.4,0-0.6-0.1-1.1c1.2,0.1,1.6,0.2,1.6,0.4c0,0.1-0.1,0.2-0.4,0.3v0.8h1c0.5-0.6,0.7-0.7,0.8-0.7
			c0.1,0,0.3,0.1,0.8,0.5c0.2,0.2,0.3,0.3,0.3,0.4c0,0.1,0,0.1-0.2,0.1h-2.6v0.7c1.3,0.3,2,0.8,2,1.4c0,0.4-0.3,0.7-0.6,0.7
			c-0.3,0-0.5-0.1-0.7-0.7c-0.2-0.5-0.4-0.9-0.8-1.2V217.8z M100.6,213.9c0.3-0.7,0.4-1.2,0.6-1.7c0.1-0.3,0.1-0.6,0.2-1
			c1.1,0.3,1.5,0.5,1.5,0.7c0,0.2-0.1,0.2-0.5,0.2c-0.5,0.8-0.8,1.1-1.4,1.7h0.9c0.6-0.7,0.7-0.8,0.8-0.8c0.1,0,0.3,0.1,0.8,0.6
			c0.2,0.2,0.4,0.3,0.4,0.4c0,0.1,0,0.1-0.2,0.1h-5.6c-0.3,0-0.5,0-0.8,0.1l-0.2-0.5c0.4,0.1,0.7,0.1,1,0.1H100.6z M99.7,209.9
			c0-0.4,0-0.7,0-1.1c1.5,0.1,1.7,0.3,1.7,0.4s-0.1,0.2-0.4,0.4v1.2h0.9c0.4-0.6,0.6-0.7,0.7-0.7c0.1,0,0.3,0.1,0.7,0.5
			c0.2,0.2,0.3,0.3,0.3,0.4s0,0.1-0.2,0.1h-5c-0.3,0-0.5,0-0.8,0.1l-0.2-0.5c0.4,0.1,0.7,0.1,1,0.1h1.3V209.9z M99.3,213.6
			c-0.4,0-0.5-0.1-0.6-1c-0.1-0.5-0.2-0.8-0.4-1.1c0-0.1,0-0.1,0.1-0.1c1,0.4,1.5,0.9,1.5,1.5C99.9,213.3,99.7,213.6,99.3,213.6z
			 M105.3,213.8c0,1.2-0.1,2.1-0.3,3c-0.4,2.4-1.3,3.6-2.9,4.7c-0.1,0-0.2-0.1-0.2-0.2c1.2-1.4,1.7-2.8,2-5.3
			c0.1-1.1,0.1-2.4,0.1-3.9c0-0.8,0-1.1-0.1-1.8c0.7,0.3,0.8,0.3,1.5,0.6c0.6-0.3,1.3-0.7,1.8-1.2c0.3-0.2,0.6-0.5,0.8-0.8
			c1,0.6,1.4,0.9,1.4,1.1c0,0.1-0.1,0.2-0.6,0.2c-1.1,0.5-2.6,1-3.5,1.1v0.3c0,0.7,0,1.4,0,1.9h2.8c0.6-0.7,0.7-0.8,0.8-0.8
			c0.1,0,0.3,0.1,0.8,0.6c0.3,0.2,0.4,0.3,0.4,0.4s0,0.1-0.2,0.1h-1.9v2.6c0,1.8,0,4,0,4.8c0,0.3-0.3,0.5-0.8,0.5
			c-0.4,0-0.6-0.1-0.6-0.4c0-0.4,0.1-1.4,0.1-3.6v-3.9H105.3z"/>
		<path class="st2" d="M120.8,217.8c0,1.8,0,3.1,0,3.5c0,0.4-0.3,0.5-0.8,0.5c-0.4,0-0.6-0.1-0.6-0.5c0-0.4,0.1-1.4,0.1-3.5h-4.4
			c-0.3,0-0.6,0-1,0.1l-0.2-0.5c0.5,0.1,0.8,0.1,1.1,0.1h4.4c0-0.5,0-1-0.1-1.5c-0.1,0.1-0.3,0.2-0.4,0.2c-0.3,0-0.4-0.1-0.6-0.7
			c-0.3-0.6-0.5-1-0.9-1.5c-0.8,1.3-1.7,2.1-3.2,2.9c-0.1,0-0.2-0.1-0.1-0.1c1.1-1,1.9-2.2,2.4-3.6c0.2-0.5,0.3-1,0.4-1.6
			c1.3,0.4,1.8,0.5,1.8,0.7c0,0.2-0.1,0.2-0.5,0.3c-0.2,0.4-0.3,0.7-0.5,1.1c1.4,0.5,2,1,2,1.6c0,0.2-0.1,0.4-0.2,0.5
			c1.5,0.2,1.7,0.2,1.7,0.4c0,0.1-0.1,0.2-0.5,0.4v0.8h3.6c0.7-0.8,0.9-0.9,1-0.9c0.1,0,0.3,0.1,1,0.6c0.3,0.3,0.4,0.4,0.4,0.5
			c0,0.1,0,0.1-0.2,0.1H120.8z M119.5,209.6c0-0.2,0-0.5-0.1-0.8c1.7,0.2,1.9,0.3,1.9,0.4c0,0.1-0.2,0.3-0.5,0.4v1.3h3.4
			c0.8-0.9,0.9-1,1-1c0.1,0,0.3,0.1,0.9,0.7c0.3,0.3,0.4,0.4,0.4,0.5c0,0.1,0,0.1-0.2,0.1h-11.1c-0.3,0-0.6,0-1,0.1l-0.2-0.5
			c0.4,0.1,0.8,0.1,1.1,0.1h4.2V209.6z M120.5,215.8c-0.1,0-0.2-0.1-0.1-0.2c0.6-0.7,1-1.5,1.3-2.4c0.2-0.5,0.3-1.1,0.4-1.6
			c1.6,0.4,1.8,0.5,1.8,0.7c0,0.2-0.2,0.3-0.6,0.3c-0.2,0.4-0.4,0.7-0.5,1c1.9,0.6,2.7,1.2,2.7,2c0,0.4-0.3,0.8-0.7,0.8
			c-0.3,0-0.4-0.1-0.8-0.8c-0.4-0.6-0.8-1.2-1.4-1.7C122,214.7,121.3,215.3,120.5,215.8z"/>
		<path class="st2" d="M133.7,215.2c0.6-0.2,1.1-0.4,1.4-0.5c0.1,0,0.1,0.1,0.1,0.2c-0.5,0.4-1,0.7-1.5,1v1.3c0,1.9,0,2.5,0,3.2
			c0,0.4-0.1,0.8-0.3,1c-0.2,0.3-0.6,0.4-1.2,0.4c-0.1,0-0.2-0.1-0.2-0.3c0-0.5-0.3-0.8-1.2-1c-0.1,0-0.1-0.2,0-0.2
			c0.6,0,1,0.1,1.4,0.1c0.2,0,0.2,0,0.2-0.2v-3.5c-0.3,0.1-0.5,0.3-0.8,0.4c0,0.3-0.1,0.5-0.3,0.5c-0.2,0-0.2-0.1-0.7-1.6
			c0.3,0,0.7-0.1,1.1-0.2c0.2,0,0.4-0.1,0.6-0.2v-3h-0.8c-0.2,0-0.4,0-0.7,0.1l-0.2-0.5c0.4,0.1,0.6,0.1,0.9,0.1h0.8v-1.7
			c0-0.9,0-1.1-0.1-1.7c1.6,0.2,1.8,0.2,1.8,0.4c0,0.1-0.1,0.2-0.4,0.4v2.5h0.1c0.4-0.7,0.6-0.8,0.7-0.8c0.1,0,0.2,0.1,0.6,0.5
			c0.1,0.2,0.3,0.3,0.3,0.4c0,0.1,0,0.1-0.2,0.1h-1.4V215.2z M139.4,216.3c0.4,0.6,0.8,1.1,1.4,1.6c0.8,0.6,1.8,1.1,3,1.3
			c0.1,0,0.1,0.1,0,0.2c-0.4,0.2-0.6,0.6-0.8,1.1c0,0.1-0.1,0.2-0.2,0.2c-0.1,0-0.3-0.1-0.6-0.2c-0.6-0.4-1.2-0.9-1.6-1.5
			c-0.6-0.7-1-1.4-1.4-2.4c0,2,0.1,3.9,0.1,4.5c0,0.4-0.2,0.6-0.7,0.6c-0.4,0-0.6-0.2-0.6-0.5c0-0.4,0.1-2,0.1-3.5
			c-1.1,1.4-2.4,2.3-4.1,2.9c-0.1,0-0.2-0.1-0.1-0.2c1.5-1,2.8-2.3,3.6-4.1h-2c-0.2,0-0.4,0-0.8,0.1l-0.2-0.5
			c0.4,0.1,0.6,0.1,0.9,0.1h2.5v-0.2c0-0.6,0-1,0-1.4c1.4,0.1,1.6,0.2,1.6,0.3c0,0.1-0.1,0.2-0.4,0.3v1h2.1c0.6-0.8,0.8-0.9,0.9-0.9
			c0.1,0,0.3,0.1,0.9,0.6c0.3,0.2,0.4,0.4,0.4,0.4c0,0.1,0,0.1-0.2,0.1H139.4z M142.1,210c-1.8,0.6-4.9,1-7,1.1
			c-0.1,0-0.1-0.2,0-0.2c1.6-0.3,3.5-0.8,4.9-1.4c0.7-0.3,1.2-0.5,1.5-0.8c1,0.7,1.4,1,1.4,1.1C142.8,210,142.7,210.1,142.1,210z
			 M136.4,214.3c-0.3,0-0.5-0.2-0.5-0.6c-0.1-1.1-0.2-1.4-0.6-1.9c0-0.1,0-0.1,0.1-0.1c1.2,0.5,1.8,1.1,1.8,1.8
			C137.1,214,136.9,214.3,136.4,214.3z M139,214c-0.3,0-0.5-0.2-0.5-0.6c0-1.2-0.3-1.6-0.5-2c0-0.1,0-0.1,0.1-0.1
			c1.2,0.5,1.8,1.1,1.8,1.9C139.7,213.7,139.4,214,139,214z M142.8,212.1c-0.8,1.1-1.6,2-2.4,2.6c-0.1,0-0.2-0.1-0.2-0.1
			c0.5-0.8,0.8-1.6,1.1-2.4c0.1-0.4,0.2-0.8,0.3-1.2c1.6,0.6,1.7,0.7,1.7,0.9C143.3,211.9,143.2,212,142.8,212.1z"/>
	</g>
	<g class="st3">
		<path class="st2" d="M150,216.3c-0.1,0.5-0.1,1-0.2,1.5c-0.4,1.7-1.1,2.6-2.2,3.7c-0.1,0-0.2-0.1-0.1-0.1c0.6-1.1,1-2.1,1.2-3.7
			c0.2-1.2,0.2-2.8,0.2-5.1c0-1.7,0-2.7-0.1-3.5c0.8,0.3,0.9,0.3,1.6,0.8h7.4c0.6-0.6,0.7-0.7,0.8-0.7c0.1,0,0.3,0.1,0.8,0.5
			c0.2,0.2,0.3,0.3,0.3,0.4c0,0.1,0,0.2-0.4,0.4v1.5c0,6.5,0.1,7,0.1,7.8c0,0.7-0.2,0.9-0.5,1.1c-0.3,0.2-0.7,0.3-1.1,0.3
			c-0.2,0-0.3-0.1-0.3-0.4c-0.1-0.6-0.5-0.8-1.6-1c-0.1,0-0.1-0.2,0-0.2c0.7,0.1,1.2,0.1,1.8,0.1c0.2,0,0.2-0.1,0.2-0.2v-3.3h-3.2
			c0,1.8,0,3.5,0,4.2c0,0.4-0.2,0.6-0.8,0.6c-0.4,0-0.6-0.2-0.6-0.6c0-0.2,0-0.8,0-2.1v-2.1H150z M150.2,213.2
			c0,0.9-0.1,1.9-0.1,2.8h3.2v-2.8H150.2z M153.3,212.9v-2.6h-3.1v0.7c0,0.7,0,1.3,0,2H153.3z M157.9,210.2h-3.2v2.6h3.2V210.2z
			 M157.9,213.2h-3.2v2.8h3.2V213.2z"/>
	</g>
	<g class="st3">
		<path class="st2" d="M173.9,213.2c0.1-0.1,0.3-0.1,0.5-0.1c0.3,0,0.9,0.2,1.3,0.4c0.2,0.1,0.3,0.3,0.3,0.5c0,0.2-0.1,0.4-0.4,0.4
			c-0.1,0-0.4,0-0.7-0.1c-0.4-0.1-0.8-0.1-1.4-0.1c-0.2,0-0.5,0-0.8,0c-0.1,1.7-0.3,3-0.9,4c-0.8,1.2-2.1,2.2-4,2.7
			c-0.2,0-0.4,0.1-0.4,0.1c-0.1,0-0.2,0-0.2-0.1c0,0,0-0.1,0.1-0.1c1.5-0.6,2.9-1.7,3.6-3.1c0.4-0.9,0.7-2,0.7-3.5
			c-0.8,0-1.6,0.1-2.6,0.2c0,0.8,0,1.5,0,2.3c0,0.6-0.4,0.8-0.6,0.8c-0.4,0-0.6-0.2-0.6-0.7c0-0.5,0.1-1.3,0.1-2.3
			c-0.4,0.1-0.7,0.1-1,0.2c-0.3,0.1-0.5,0.2-0.6,0.3c-0.2,0.1-0.4,0.2-0.5,0.2c-0.3,0-0.6-0.1-0.9-0.5c-0.4-0.4-0.4-0.7-0.4-0.9
			c0-0.2,0-0.2,0.1-0.2c0,0,0.1,0.1,0.2,0.1c0.4,0.3,0.7,0.4,1,0.4c0.2,0,0.6,0,1-0.1c0.4-0.1,0.7-0.1,1.1-0.2c0-0.5,0-0.9,0-1.4
			c0-0.3,0-0.5-0.1-0.6c-0.1-0.1-0.5-0.3-0.7-0.4c-0.1,0-0.1-0.1-0.1-0.1c0-0.1,0.1-0.1,0.2-0.2c0.2-0.1,0.4-0.1,0.6-0.1
			c0.3,0,0.9,0.2,1.2,0.4c0.3,0.2,0.4,0.4,0.4,0.5c0,0.2-0.1,0.3-0.1,0.4c-0.1,0.1-0.1,0.3-0.1,0.5c0,0.2,0,0.5,0,1
			c1.1-0.1,1.7-0.2,2.6-0.2c0-0.6,0-1.1,0-1.5c0-0.7,0-1-0.1-1.2c-0.1-0.1-0.2-0.2-0.4-0.3c-0.1-0.1-0.3-0.1-0.5-0.2
			c-0.1,0-0.2-0.1-0.2-0.1s0.1-0.1,0.2-0.3c0.1-0.1,0.3-0.1,0.5-0.1c0.3,0,0.7,0.1,1.1,0.2c0.5,0.2,0.7,0.4,0.7,0.7
			c0,0.2-0.1,0.3-0.2,0.4c-0.1,0.1-0.1,0.3-0.1,0.4c0,0.8,0,1.3-0.1,1.9c0.3,0,0.5,0,0.8-0.1C173.6,213.3,173.7,213.2,173.9,213.2z"
			/>
	</g>
	<g class="st3">
		<path class="st2" d="M179.4,217.7c-0.2,0.1-0.2,0.2-0.3,0.2c-0.1,0-0.2-0.1-0.2-0.2c0-0.1,0.1-0.1,0.2-0.3c1.7-1.2,3.3-3,4.5-4.3
			c1-1.2,1.5-1.9,1.7-2.2c0.2-0.3,0.2-0.4,0.2-0.6c0-0.1-0.2-0.3-0.5-0.5c-0.1-0.1-0.3-0.1-0.3-0.2c0-0.1,0.2-0.3,0.6-0.3
			c0.3,0,1,0.2,1.5,0.6c0.4,0.2,0.6,0.5,0.6,0.8c0,0.2-0.1,0.4-0.5,0.5c-0.1,0-0.2,0.1-0.3,0.2c-0.8,0.9-1.5,1.6-2,2.1
			c0.5,0.4,0.9,0.7,0.9,1c0,0.1,0,0.2-0.1,0.3c0,0.1,0,0.3,0,0.5c0,0.6,0,1.2,0,2c0,1.1,0,2.1,0,3.2c0,0.4-0.3,0.6-0.5,0.6
			c-0.3,0-0.5-0.1-0.6-0.3c-0.2-0.3-0.3-0.6-0.3-0.9c0-0.1,0-0.3,0.1-0.3c0.1-0.3,0.1-0.9,0.1-1.3c0-1,0-2.4,0-3.2
			c0-0.6,0-0.7-0.1-0.9C182.7,215.7,181,216.9,179.4,217.7z"/>
	</g>
	<g class="st3">
		<path class="st2" d="M196.8,214.5c0.8,0.4,1.3,0.8,1.3,1.4c0,0.4-0.3,0.7-0.6,0.7c-0.3,0-0.5-0.1-0.8-0.4c-0.3-0.4-0.7-0.7-1-1
			c-0.4-0.4-0.9-0.6-1.5-0.8c0,0.8,0,1.6,0,2.4c0,0.6,0,1.9,0.1,3.4c0,0.5-0.2,0.7-0.5,0.7c-0.2,0-0.4-0.1-0.6-0.3
			c-0.2-0.4-0.3-0.8-0.3-1.1c0-0.1,0-0.3,0.1-0.4c0-0.1,0.1-0.2,0.1-0.2c0-0.2,0-0.6,0.1-3.1c0-1.3,0-2.5,0-3.8c0-0.4,0-1-0.1-1.2
			c0-0.1-0.2-0.2-0.3-0.3c-0.2-0.1-0.4-0.2-0.5-0.2c-0.1,0-0.1-0.1-0.1-0.1c0-0.1,0.1-0.2,0.2-0.2c0.1-0.1,0.3-0.1,0.4-0.1
			c0.3,0,0.7,0.1,1.4,0.4c0.4,0.2,0.6,0.4,0.6,0.7c0,0.2-0.1,0.3-0.2,0.4c-0.1,0.1-0.1,0.1-0.1,0.3c0,0.4-0.1,1.2-0.1,2.5
			C195.1,214,196.1,214.1,196.8,214.5z"/>
	</g>
	<g class="st3">
		<path class="st2" d="M207.5,216.1c-0.6,0.5-1.4,0.9-2.1,1.2c-0.1,0-0.2-0.1-0.1-0.2c1.8-1.2,3.3-3.1,4.1-5.1h-2.7
			c-0.3,0-0.5,0-0.9,0.1l-0.2-0.6c0.4,0.1,0.7,0.1,1,0.1h0.8V210c0-0.4,0-0.7-0.1-1.2c1.6,0.2,1.8,0.3,1.8,0.5
			c0,0.1-0.2,0.3-0.4,0.4v2.1h0.6c0.4-0.5,0.5-0.5,0.6-0.5c0.1,0,0.2,0.1,0.7,0.6c0.2,0.2,0.3,0.3,0.3,0.4c0,0.1-0.1,0.2-0.4,0.4
			c-0.4,0.9-1.1,1.7-1.8,2.5c1.5,0.4,2.3,1,2.3,1.7c0,0.4-0.3,0.7-0.7,0.7c-0.3,0-0.5-0.1-0.6-0.6c-0.3-0.7-0.5-1.1-1-1.5v1.6
			c0,2.2,0.1,3.8,0.1,4.2c0,0.4-0.2,0.6-0.9,0.6c-0.4,0-0.5-0.2-0.5-0.5c0-0.2,0.1-1,0.1-3.1V216.1z M214.6,220.6h1.4
			c0.8-1,0.9-1.1,1-1.1c0.1,0,0.3,0.1,1,0.7c0.3,0.3,0.4,0.4,0.4,0.5c0,0.1,0,0.1-0.2,0.1h-7.4c-0.3,0-0.7,0-1.2,0.1l-0.2-0.5
			c0.5,0.1,0.9,0.1,1.2,0.1h2.4v-6.3h-1.6c-0.3,0-0.6,0-0.9,0.1l-0.2-0.5c0.4,0.1,0.7,0.1,1,0.1h1.7v-3.1c0-0.9,0-1.5-0.1-2
			c1.8,0.2,2,0.3,2,0.5c0,0.1-0.2,0.3-0.5,0.4v4.1h1.2c0.7-0.9,0.9-1,1-1c0.1,0,0.3,0.1,0.9,0.7c0.3,0.3,0.4,0.4,0.4,0.5
			c0,0.1,0,0.1-0.2,0.1h-3.4V220.6z"/>
		<path class="st2" d="M227.3,220.3c-1.4,0.7-2.6,1-4.6,1.2c-0.1,0-0.1-0.1,0-0.2c1-0.4,2-0.9,2.8-1.4c0.4-0.3,0.7-0.6,1-0.9
			c1.3,0.6,1.6,0.8,1.6,1C228,220.3,227.9,220.4,227.3,220.3z M225.5,218.8c0,0.4-0.2,0.6-0.8,0.6c-0.4,0-0.6-0.1-0.6-0.5
			c0-0.6,0.1-1.3,0.1-3.6c0-0.9,0-1.9-0.1-2.8c0.7,0.3,0.8,0.4,1.5,0.7h6.3c0.5-0.5,0.6-0.6,0.7-0.6c0.1,0,0.3,0.1,0.8,0.5
			c0.3,0.2,0.3,0.3,0.3,0.4c0,0.1-0.1,0.2-0.4,0.4v0.9c0,2,0.1,3.4,0.1,3.9c0,0.4-0.2,0.6-0.8,0.6c-0.4,0-0.6-0.1-0.6-0.5v0
			L225.5,218.8L225.5,218.8z M226.2,212.1c0,0.4-0.3,0.5-0.8,0.5c-0.3,0-0.6-0.1-0.6-0.4c0-0.3,0-0.9,0-1.7c0-0.6,0-0.9,0-1.5
			c0.7,0.3,0.9,0.4,1.5,0.7h5c0.5-0.5,0.6-0.6,0.7-0.6c0.1,0,0.3,0.1,0.8,0.5c0.2,0.2,0.3,0.3,0.3,0.4c0,0.1-0.1,0.2-0.4,0.4v0.3
			c0,0.7,0,1.2,0,1.4c0,0.4-0.3,0.5-0.8,0.5c-0.4,0-0.6-0.1-0.6-0.5H226.2z M232.1,213.6h-6.6v1.4h6.6V213.6z M225.5,216.7h6.6v-1.4
			h-6.6V216.7z M225.5,218.5h6.6V217h-6.6V218.5z M231.5,210.1h-5.3v1.7h5.3V210.1z M233.6,221.7c-0.3,0-0.4-0.1-0.8-0.4
			c-0.7-0.7-1.6-1.3-3-1.7c-0.1,0,0-0.2,0.1-0.2c3.1,0.1,4.3,0.6,4.3,1.6C234.3,221.4,234,221.7,233.6,221.7z"/>
		<path class="st2" d="M241,217.4c-0.5,1.4-1,2.4-1.7,3.3c0,0.1-0.2,0-0.2-0.1c0.2-0.6,0.4-1.5,0.6-2.3c0.1-0.7,0.2-1.4,0.2-1.8
			c1.3,0.4,1.5,0.5,1.5,0.7C241.4,217.3,241.3,217.4,241,217.4z M240.8,214.7c0.6-0.8,1.1-1.7,1.5-2.6c0.3-0.5,0.5-1,0.6-1.5
			c1.1,0.5,1.5,0.8,1.5,1c0,0.1-0.1,0.2-0.6,0.2c-1,1.2-1.5,1.8-2.7,2.9c1,0,1.6-0.1,2.2-0.1c-0.1-0.4-0.3-0.8-0.5-1.1
			c0-0.1,0.1-0.1,0.1-0.1c1.1,0.6,1.7,1.2,1.7,1.8c0,0.4-0.3,0.8-0.6,0.8c-0.3,0-0.4-0.2-0.5-0.9l0-0.2c-0.3,0.1-0.6,0.2-0.9,0.3v2
			c0,1.5,0,3.4,0,4c0,0.4-0.2,0.5-0.7,0.5c-0.4,0-0.6-0.1-0.6-0.4c0-0.3,0.1-1.2,0.1-3v-2.8c-0.4,0.1-0.8,0.2-1.4,0.3
			c-0.1,0.3-0.2,0.4-0.3,0.4c-0.2,0-0.3-0.3-0.5-1.5c0.4,0,0.5,0,0.7,0H240.8z M241.2,210.2c0.2-0.5,0.3-1,0.4-1.5
			c1.2,0.4,1.7,0.7,1.7,0.8s-0.2,0.2-0.6,0.2c-0.9,1.1-1.1,1.3-1.6,1.8c0.4,0.3,0.6,0.6,0.6,1c0,0.4-0.3,0.8-0.6,0.8
			s-0.4-0.1-0.6-0.8c-0.2-0.6-0.4-1-0.8-1.4c-0.1-0.1,0-0.1,0.1-0.1c0.5,0.1,0.8,0.3,1.1,0.4C240.9,211.1,241.1,210.6,241.2,210.2z
			 M243.9,219.5c-0.4,0-0.4-0.1-0.5-1.1c-0.1-0.7-0.2-1.4-0.5-1.8c0-0.1,0.1-0.1,0.1-0.1c1.1,0.8,1.5,1.4,1.5,2.1
			C244.6,219.2,244.3,219.5,243.9,219.5z M248.3,210.2c-0.2,2.6-1.3,4.2-3.4,5.2c-0.1,0-0.2-0.1-0.1-0.1c1.4-1.1,2-2.7,2.1-5h-1.2
			c-0.2,0-0.5,0-0.8,0.1l-0.2-0.6c0.4,0.1,0.6,0.1,0.9,0.1h4.4c0.5-0.5,0.6-0.6,0.7-0.6c0.1,0,0.3,0.1,0.8,0.5
			c0.2,0.2,0.3,0.3,0.3,0.4c0,0.1,0,0.1-0.4,0.4c-0.1,1.6-0.2,2.7-0.5,3.4c-0.2,0.4-0.4,0.7-0.6,1c-0.3,0.2-0.6,0.3-1,0.3
			c-0.2,0-0.3-0.1-0.3-0.3c-0.1-0.6-0.2-0.7-1.2-0.9c-0.1,0-0.1-0.2,0-0.2c0.7,0.1,1.2,0.1,1.4,0.1c0.4,0,0.5-0.1,0.7-0.8
			c0.2-0.8,0.3-1.5,0.3-2.9H248.3z M246.5,220.5v0.6c0,0.4-0.3,0.5-0.8,0.5c-0.4,0-0.6-0.1-0.6-0.5c0-0.6,0-1.2,0-3.6
			c0-0.7,0-1.4,0-2.1c0.7,0.3,0.8,0.3,1.4,0.7h3.1c0.5-0.5,0.6-0.6,0.7-0.6c0.1,0,0.3,0.1,0.8,0.5c0.3,0.2,0.3,0.3,0.3,0.4
			c0,0.2-0.1,0.3-0.4,0.5v0.7c0,1.8,0.1,3,0.1,3.4c0,0.4-0.3,0.6-0.8,0.6c-0.4,0-0.6-0.1-0.6-0.4v-0.6H246.5z M249.8,216.4h-3.3v3.7
			h3.3V216.4z"/>
	</g>
	<g class="st3">
		<path class="st2" d="M265.8,212.8c1,0.6,2.1,1,3.4,1.2c0.1,0,0.1,0.2,0,0.2c-0.5,0.1-0.8,0.4-1,1.1c-0.1,0.2-0.1,0.3-0.2,0.3
			c-0.1,0-0.3-0.1-0.5-0.2c-0.6-0.3-1.5-1-2.1-1.5c-1.1-1.1-1.9-2.2-2.8-3.8c-1.5,2.6-3.5,4.3-6.7,5.6c-0.1,0-0.2-0.1-0.1-0.2
			c1.9-1.1,3.7-3,4.7-4.8c0.4-0.7,0.7-1.3,0.8-1.9c1.9,0.5,2,0.5,2,0.7c0,0.1-0.1,0.2-0.6,0.3C263.7,211.1,264.6,212.1,265.8,212.8z
			 M260.9,214.7c-0.1,4.3-1,5.7-4.5,6.9c-0.1,0-0.1-0.1-0.1-0.2c1.4-0.9,2-1.4,2.5-2.2c0.5-1,0.8-2.2,0.8-3.9c0-0.6,0-0.9-0.1-1.3
			c1.6,0.1,1.8,0.2,1.8,0.3C261.4,214.5,261.3,214.6,260.9,214.7z M264.8,215.8c0,2.8,0.1,4.7,0.1,5.3c0,0.4-0.3,0.5-0.8,0.5
			c-0.4,0-0.6-0.1-0.6-0.5c0-0.4,0-1.6,0-4.1c0-1.4,0-2.5-0.1-3.1c1.6,0.1,1.8,0.2,1.8,0.3c0,0.1-0.1,0.2-0.4,0.4V215.8z"/>
	</g>
	<g class="st3">
		<path class="st2" d="M275.9,216c-0.5,1.6-0.7,2.5-0.7,2.8s0,0.4,0,0.6c0,0.3,0.1,0.6,0.1,1c0,0.3-0.3,0.5-0.5,0.5
			c-0.4,0-0.6-0.4-0.8-0.6c-0.3-0.7-0.5-1.4-0.5-3c0-1.4,0.3-3.2,0.6-4.8c0.1-0.6,0.2-0.9,0.2-1.3c0-0.4-0.1-0.7-0.3-1
			c-0.1-0.1-0.1-0.2-0.1-0.2c0-0.1,0.1-0.1,0.2-0.1c0.2,0,0.4,0.1,0.7,0.4c0.5,0.5,0.8,1.1,0.8,1.5c0,0.2-0.1,0.3-0.2,0.4
			c-0.2,0.2-0.3,0.4-0.5,1c-0.4,1.2-0.7,2.6-0.7,3.6c0,0.5,0,0.8,0.1,1.1c0,0.2,0.2,0.2,0.2,0c0.4-0.7,0.7-1.4,1-2.2
			c0-0.1,0.1-0.2,0.2-0.2s0.1,0.1,0.1,0.1C276,215.8,276,215.9,275.9,216z M283.7,219.1c0.1,0.2,0.3,0.4,0.3,0.6
			c0,0.2-0.1,0.3-0.2,0.5c-0.1,0.1-0.3,0.1-0.4,0.1c-0.1,0-0.3,0-0.5-0.3c-0.3-0.3-0.7-0.7-1.2-1c0,0.9-0.9,1.6-2.2,1.6
			c-0.6,0-1.2-0.1-1.5-0.3c-0.4-0.2-0.8-0.7-0.8-1.2c0-0.6,0.4-1,0.7-1.2c0.4-0.2,0.9-0.3,1.5-0.3c0.4,0,0.8,0.1,1.2,0.1
			c0-1.3,0-2.4-0.1-3.7c-0.8,0.1-1.3,0.1-1.9,0.1c-0.3,0-0.6,0-1-0.2c-0.3-0.2-0.6-0.4-0.7-0.6c-0.1-0.1-0.1-0.2-0.1-0.2
			c0-0.1,0-0.1,0.1-0.1c0.1,0,0.2,0.1,0.3,0.1c0.2,0.1,0.6,0.3,1.2,0.3c0.7,0,1.3-0.1,2.1-0.2c0-1.3,0-1.8-0.1-2.2
			c0-0.3-0.2-0.4-0.4-0.5c-0.1,0-0.2,0-0.3,0c-0.1,0-0.1,0-0.2,0c-0.1,0-0.1-0.1-0.1-0.1c0-0.1,0.2-0.2,0.4-0.3
			c0.2-0.1,0.4-0.2,0.6-0.2c0.3,0,0.6,0.1,1,0.3c0.4,0.2,0.6,0.4,0.6,0.7c0,0.2,0,0.2-0.1,0.3c-0.1,0.1-0.2,0.3-0.2,0.5
			c-0.1,0.4-0.1,0.7-0.1,1.3c0.3-0.1,0.4-0.1,0.5-0.1c0.1,0,0.2-0.1,0.3-0.2c0.2-0.1,0.4-0.2,0.5-0.2c0.6,0,0.9,0.3,0.9,0.5
			c0,0.2-0.1,0.4-0.4,0.5c-0.4,0.2-1,0.3-1.9,0.5c0,1.7,0.1,2.9,0.1,4C282.6,218.3,283.3,218.7,283.7,219.1z M279.2,218.3
			c-0.4,0-0.8,0.1-1,0.2c-0.2,0.1-0.4,0.3-0.4,0.6c0,0.3,0.1,0.5,0.4,0.6c0.3,0.2,0.6,0.2,1.1,0.2c0.4,0,0.9-0.1,1.1-0.3
			c0.2-0.2,0.3-0.3,0.4-0.6c0-0.1,0-0.3,0-0.4C280.2,218.4,279.6,218.3,279.2,218.3z"/>
	</g>
	<g class="st3">
		<path class="st2" d="M289,215.3c0,0.1,0,0.1,0,0.2c-0.2,0.5-0.2,0.9-0.2,1.3c0,0.5,0.3,1,0.7,1.3c0.7,0.4,1.7,0.5,2.7,0.5
			c1.3,0,1.9-0.2,2.5-0.3c0.2-0.1,0.6-0.1,0.9-0.1c0.8,0,1.1,0.4,1.1,0.7c0,0.3-0.4,0.6-0.8,0.7c-0.2,0-0.7,0.1-1.4,0.2
			c-0.7,0.1-1.4,0.1-1.8,0.1c-0.9,0-2-0.2-2.6-0.5c-0.6-0.2-1-0.6-1.3-1c-0.3-0.4-0.4-0.8-0.4-1.4c0-0.6,0.2-1.2,0.6-1.7
			c0.1-0.1,0.1-0.1,0.2-0.1C289,215.2,289,215.3,289,215.3z M289.1,210.8c0.3,0.4,0.9,0.6,2.2,0.6c0.8,0,1.5-0.1,2.4-0.4
			c0.1,0,0.4-0.1,0.5-0.1c0.1,0,0.3,0,0.6,0.1c0.4,0.1,0.7,0.3,0.7,0.6c0,0.3-0.1,0.4-0.4,0.5c-0.2,0.1-0.5,0.1-0.9,0.1
			c-0.8,0.1-1.5,0.2-2.1,0.4c-0.6,0.2-1,0.3-1.8,0.8c-0.2,0.1-0.4,0.2-0.4,0.2s-0.1,0-0.1-0.1c0-0.1,0.4-0.4,1.3-1.1
			c-0.6,0-1.1-0.3-1.5-0.5c-0.4-0.3-0.7-0.8-0.7-1.1c0-0.1,0-0.1,0.1-0.1C289,210.7,289.1,210.8,289.1,210.8z"/>
	</g>
	<g class="st3">
		<path class="st2" d="M308.7,215c0.8,0,1.3,0.2,1.8,0.6c0.6,0.4,0.9,1,0.9,1.8c0,1.1-0.7,1.9-1.5,2.4c-0.8,0.5-1.6,0.8-2.5,1
			c-0.9,0.2-2.1,0.3-2.9,0.3c-0.3,0-0.3-0.1-0.3-0.1s0.1-0.1,0.1-0.2c0.1,0,0.2,0,0.4-0.1c1.5-0.3,2.8-0.7,3.8-1.4
			c1.2-0.8,1.5-1.6,1.5-2.3c0-0.5-0.1-0.9-0.4-1.1c-0.3-0.3-0.7-0.5-1.2-0.5c-0.9,0-1.8,0.4-2.6,1.2c-0.6,0.6-0.8,1-1,1.4
			c-0.1,0.3-0.2,0.5-0.5,0.5c-0.2,0-0.4-0.1-0.6-0.4c-0.1-0.2-0.2-0.5-0.2-0.9c0-0.3,0.1-0.4,0.2-0.6c0.1-0.2,0.1-0.4,0.2-0.6
			c0.2-0.8,0.3-1.5,0.5-2.5c-0.7,0.1-1.2,0.1-1.4,0.1c-0.3,0-0.6,0-1-0.3c-0.4-0.3-0.5-0.6-0.7-0.8c-0.1-0.1,0-0.2,0.1-0.2
			c0.1,0,0.1,0.1,0.2,0.1c0.5,0.3,0.7,0.4,1.2,0.4c0.4,0,1.1-0.1,1.6-0.2c0.1-0.9,0.2-1.5,0.2-1.8c0-0.4-0.1-0.5-0.3-0.6
			c-0.2-0.1-0.4-0.1-0.5-0.1c-0.1,0-0.1,0-0.1-0.1s0.1-0.2,0.2-0.2c0.2-0.1,0.4-0.3,0.7-0.3c0.4,0,0.9,0.2,1.3,0.5
			c0.3,0.2,0.4,0.4,0.4,0.6c0,0.2-0.1,0.3-0.2,0.4c-0.1,0.1-0.2,0.2-0.3,0.5c-0.1,0.2-0.1,0.5-0.2,0.8c0.9-0.3,1.1-0.4,1.3-0.5
			c0.2-0.2,0.4-0.2,0.7-0.2c0.2,0,0.4,0,0.6,0.1c0.2,0.1,0.3,0.3,0.3,0.5c0,0.3-0.1,0.4-0.7,0.6c-0.6,0.2-1.6,0.4-2.5,0.6
			c-0.2,1-0.4,2.1-0.6,3.1C306.3,215.3,307.5,215,308.7,215z"/>
	</g>
	<g class="st3">
		<path class="st2" d="M321.7,214.7c1,0,1.8,0.3,2.3,0.8c0.4,0.5,0.7,1,0.7,1.8c0,1.1-0.8,2.2-2.4,2.8c-1.3,0.5-2.9,0.8-4.7,0.9
			c-0.2,0-0.3,0-0.3-0.2c0-0.1,0.1-0.1,0.3-0.2c1.5-0.2,2.8-0.6,3.8-1.2c1.3-0.8,1.8-1.8,1.8-2.6c0-0.5-0.2-0.9-0.5-1.2
			c-0.3-0.3-0.7-0.4-1.4-0.4c-0.7,0-1.9,0.5-3.1,2c-0.5,0.5-0.6,0.8-0.7,1.2c-0.1,0.3-0.3,0.4-0.4,0.4c-0.3,0-0.6-0.2-0.8-0.5
			c-0.2-0.3-0.3-0.6-0.3-1.1c0-0.5,0.2-2,0.3-2.8c0.1-0.4,0.1-0.7,0.1-1c0-0.1,0-0.3,0-0.4c0-0.3,0.2-0.6,0.5-0.9
			c0.3-0.2,0.9-0.5,1.8-0.7c-0.3-0.2-0.8-0.5-0.9-0.7c-0.3-0.4-0.6-0.8-0.6-1.3c0-0.2,0-0.3,0.1-0.3c0.1,0,0.1,0.1,0.2,0.2
			c0.3,0.5,1.1,0.9,2.1,1.1c0.6,0.2,1.1,0.6,1.2,1.1c0,0.3-0.2,0.7-0.5,0.7c-0.2,0-0.3,0-0.5,0c-0.3-0.1-0.4-0.1-0.6-0.1
			c-0.6-0.1-1.1,0-1.7,0.2c-0.3,0.1-0.4,0.4-0.4,0.5c0,0.1,0,0.2,0.1,0.4c0.1,0.2,0.2,0.6,0.2,1c0,0.2-0.1,0.5-0.1,0.7
			c-0.1,0.5-0.1,1.1-0.1,1.8c0,0.1,0.1,0.1,0.2,0c0.1-0.1,0.3-0.2,0.4-0.3c0.4-0.3,1-0.7,1.5-0.9C320,215,320.8,214.7,321.7,214.7z"
			/>
	</g>
</g>
</svg>
