<?xml version="1.0" encoding="utf-8"?>
<!-- Generator: Adobe Illustrator 25.4.1, SVG Export Plug-In . SVG Version: 6.00 Build 0)  -->
<svg version="1.1" id="レイヤー_1" xmlns="http://www.w3.org/2000/svg" xmlns:xlink="http://www.w3.org/1999/xlink" x="0px"
	 y="0px" viewBox="0 0 1440 830" style="enable-background:new 0 0 1440 830;" xml:space="preserve">
<style type="text/css">
	.st0{fill:#FFFFFF;}
</style>
<path class="st0" d="M0,0v830h1440V0H0z M661.5,261.8c15.9-4.2,37.2-6.4,59.8-6.4s43.9,2.3,59.8,6.4c1.7,0.4,3.2,0.9,4.7,1.3
	c-5.7,4.5-10.4,14.4-14,27.4c-12.2,2.3-24.6,3.6-37,4.1c-3.6-7-8-11.2-13-11.2s-9.4,4.2-13,11.2c-17.9-0.7-34.3-2.8-47.3-6.2
	c-17.1-4.5-23.2-9.8-23.2-13.4S644.4,266.2,661.5,261.8z M655.9,466.7c-3.3,0-8.4-5.8-12.6-22c-3.9-15.2-6.1-35.4-6.1-57
	c0-48.9,10.9-78.9,18.7-78.9c3.3,0,8.4,5.8,12.6,22c4,15.2,6.1,35.4,6.1,56.9C674.6,436.7,663.7,466.7,655.9,466.7L655.9,466.7z
	 M736.2,441.9c-4.8,18.4-10.6,25-14.5,25s-9.7-6.6-14.5-25c-4.5-17.1-6.9-39.9-6.9-64.2s2.5-47.1,6.9-64.2c1.2-4.7,2.7-9.3,4.6-13.7
	c0.4-0.9,0.8-1.7,1.2-2.5c0.4-0.9,0.9-1.7,1.3-2.5c2.7-4.5,5.4-6.4,7.4-6.4s4.6,1.8,7.4,6.3c0.4,0.7,0.9,1.6,1.3,2.5
	c0.4,0.8,0.8,1.6,1.2,2.5c1.9,4.4,3.4,9,4.6,13.7c4.5,17.1,6.9,39.9,6.9,64.2S740.7,424.8,736.2,441.9z M792.7,467.1
	c-11.6,0-24.4-41.4-24.4-100.8c0-29.1,3.1-53.8,7.6-71.5c0.2-0.9,0.5-1.8,0.7-2.7c0.2-0.9,0.5-1.9,0.8-2.8
	c4.5-15.1,10-23.7,15.3-23.8h0.1c1.6,0,3.3,0.8,4.9,2.4c2,2,4,5.1,6,9.2c0.4,0.8,0.8,1.8,1.2,2.7c0.3,0.8,0.7,1.7,1,2.6
	c6.5,17.4,11.4,47.2,11.4,83.9C817.1,425.7,804.3,467.1,792.7,467.1L792.7,467.1z"/>
</svg>
