<svg enable-background="new 0 0 375 667" viewBox="0 0 375 667" xmlns="http://www.w3.org/2000/svg"><path d="m150 282c8.9 2 17.8 3.2 26.9 3.6 2-4 4.5-6.5 7.5-6.5s5.3 2.4 7.3 6.5c7.1-.2 14.2-1 21-2.4 2-7.5 4.7-13.2 8.1-15.6-.8-.2-1.8-.6-2.6-.8-11.1-2.6-22.7-3.8-34.2-3.6-11.5-.2-22.9 1-34 3.6-9.7 2.6-13.2 5.7-13.2 7.7.1 2 3.3 4.8 13.2 7.5zm40.1 6.5c-.2-.6-.4-1-.6-1.4s-.6-1-.8-1.4c-1.6-2.6-3-3.6-4.2-3.6s-2.6 1-4.2 3.6c-.2.4-.6.8-.8 1.4s-.4.8-.6 1.4c-1 2.6-2 5.1-2.6 7.9-2.6 9.7-4 22.9-4 36.6s1.4 26.9 4 36.6c2.6 10.5 6.1 14.2 8.3 14.2s5.5-3.6 8.3-14.2c2.6-9.7 4-22.9 4-36.6s-1.4-26.9-4-36.6c-1-2.9-1.8-5.5-2.8-7.9zm-43.3 5.2c-4.5 0-10.7 17.2-10.7 45.1-.2 10.9 1 21.9 3.4 32.6 2.4 9.3 5.3 12.5 7.1 12.5 4.5 0 10.7-17.2 10.7-45.1.2-10.9-1-21.9-3.6-32.6-2.3-9.3-5.1-12.5-6.9-12.5zm85.6-15.2-.6-1.4c-.2-.6-.4-1-.6-1.6-.8-2-2-3.6-3.4-5.3-.8-.8-1.8-1.2-2.8-1.4-3 0-6.3 5.1-8.7 13.6-.2.6-.4 1-.4 1.6-.2.6-.2 1-.4 1.4-3 13.4-4.5 27.1-4.2 40.9 0 33.8 7.3 57.5 14 57.5s14-23.7 14-57.5c-.7-20.9-3.3-37.8-6.9-47.8zm-232.4-278.5h375v667h-375z" fill="#fff"/></svg>