<?xml version="1.0" encoding="utf-8"?>
<!-- Generator: Adobe Illustrator 25.4.1, SVG Export Plug-In . SVG Version: 6.00 Build 0)  -->
<svg version="1.1" id="レイヤー_1" xmlns="http://www.w3.org/2000/svg" xmlns:xlink="http://www.w3.org/1999/xlink" x="0px"
	 y="0px" viewBox="0 0 375 667" style="enable-background:new 0 0 375 667;" xml:space="preserve">
<style type="text/css">
	.st0{fill:#FFFFFF;}
</style>
<path class="st0" d="M169,313c4.4,1,8.8,1.6,13.3,1.8c1-2,2.2-3.2,3.7-3.2s2.6,1.2,3.6,3.2c3.5-0.1,7-0.5,10.4-1.2
	c1-3.7,2.3-6.5,4-7.7c-0.4-0.1-0.9-0.3-1.3-0.4c-5.5-1.3-11.2-1.9-16.9-1.8c-5.7-0.1-11.3,0.5-16.8,1.8c-4.8,1.3-6.5,2.8-6.5,3.8
	S164.1,311.7,169,313z M188.8,316.2c-0.1-0.3-0.2-0.5-0.3-0.7s-0.3-0.5-0.4-0.7c-0.8-1.3-1.5-1.8-2.1-1.8c-0.6,0-1.3,0.5-2.1,1.8
	c-0.1,0.2-0.3,0.4-0.4,0.7s-0.2,0.4-0.3,0.7c-0.5,1.3-1,2.5-1.3,3.9c-1.3,4.8-2,11.3-2,18.1s0.7,13.3,2,18.1c1.3,5.2,3,7,4.1,7
	s2.7-1.8,4.1-7c1.3-4.8,2-11.3,2-18.1s-0.7-13.3-2-18.1C189.7,318.7,189.3,317.4,188.8,316.2L188.8,316.2z M167.4,318.8
	c-2.2,0-5.3,8.5-5.3,22.3c-0.1,5.4,0.5,10.8,1.7,16.1c1.2,4.6,2.6,6.2,3.5,6.2c2.2,0,5.3-8.5,5.3-22.3c0.1-5.4-0.5-10.8-1.8-16.1
	C169.7,320.4,168.3,318.8,167.4,318.8L167.4,318.8z M209.7,311.3l-0.3-0.7c-0.1-0.3-0.2-0.5-0.3-0.8c-0.4-1-1-1.8-1.7-2.6
	c-0.4-0.4-0.9-0.6-1.4-0.7l0,0c-1.5,0-3.1,2.5-4.3,6.7c-0.1,0.3-0.2,0.5-0.2,0.8c-0.1,0.3-0.1,0.5-0.2,0.7
	c-1.5,6.6-2.2,13.4-2.1,20.2c0,16.7,3.6,28.4,6.9,28.4s6.9-11.7,6.9-28.4C212.8,324.6,211.5,316.2,209.7,311.3L209.7,311.3z M0,0
	h375v667H0V0z"/>
</svg>
