<svg enable-background="new 0 0 1440 830" viewBox="0 0 1440 830" xmlns="http://www.w3.org/2000/svg"><path d="m0 0v830h1440v-830zm661.5 261.8c15.9-4.2 37.2-6.4 59.8-6.4s43.9 2.3 59.8 6.4c1.7.4 3.2.9 4.7 1.3-5.7 4.5-10.4 14.4-14 27.4-12.2 2.3-24.6 3.6-37 4.1-3.6-7-8-11.2-13-11.2s-9.4 4.2-13 11.2c-17.9-.7-34.3-2.8-47.3-6.2-17.1-4.5-23.2-9.8-23.2-13.4s6.1-8.8 23.2-13.2zm-5.6 204.9c-3.3 0-8.4-5.8-12.6-22-3.9-15.2-6.1-35.4-6.1-57 0-48.9 10.9-78.9 18.7-78.9 3.3 0 8.4 5.8 12.6 22 4 15.2 6.1 35.4 6.1 56.9 0 49-10.9 79-18.7 79zm80.3-24.8c-4.8 18.4-10.6 25-14.5 25s-9.7-6.6-14.5-25c-4.5-17.1-6.9-39.9-6.9-64.2s2.5-47.1 6.9-64.2c1.2-4.7 2.7-9.3 4.6-13.7.4-.9.8-1.7 1.2-2.5.4-.9.9-1.7 1.3-2.5 2.7-4.5 5.4-6.4 7.4-6.4s4.6 1.8 7.4 6.3c.4.7.9 1.6 1.3 2.5.4.8.8 1.6 1.2 2.5 1.9 4.4 3.4 9 4.6 13.7 4.5 17.1 6.9 39.9 6.9 64.2s-2.4 47.2-6.9 64.3zm56.5 25.2c-11.6 0-24.4-41.4-24.4-100.8 0-29.1 3.1-53.8 7.6-71.5.2-.9.5-1.8.7-2.7s.5-1.9.8-2.8c4.5-15.1 10-23.7 15.3-23.8h.1c1.6 0 3.3.8 4.9 2.4 2 2 4 5.1 6 9.2.4.8.8 1.8 1.2 2.7.3.8.7 1.7 1 2.6 6.5 17.4 11.4 47.2 11.4 83.9-.2 59.4-13 100.8-24.6 100.8z" fill="#fff"/></svg>