<svg xmlns="http://www.w3.org/2000/svg" xmlns:xlink="http://www.w3.org/1999/xlink" viewBox="0 0 1082 309"><defs><style>.cls-1,.cls-4,.cls-7{fill:none;}.cls-2{fill:#fff;}.cls-3{clip-path:url(#clip-path);}.cls-4{stroke:#e8314b;stroke-width:1.76px;}.cls-4,.cls-7{stroke-miterlimit:10;}.cls-5{fill:#333;}.cls-6{fill:#e8314b;}.cls-7{stroke:#333;}</style><clipPath id="clip-path"><rect class="cls-1" width="1082" height="309"/></clipPath></defs><g id="レイヤー_2" data-name="レイヤー 2"><g id="pc"><rect class="cls-2" width="1082" height="309"/><g class="cls-3"><line class="cls-4" x1="775.4" y1="309" x2="775.4"/><path class="cls-5" d="M343.23,252.12a20.76,20.76,0,0,1-2.26,2.73c-.1.11-.31-.15-.26-.26a39.48,39.48,0,0,0,3.62-8.94,25.46,25.46,0,0,0,.67-3.93c3.09.8,3.41.91,3.41,1.27s-.08.37-1,.65a30,30,0,0,1-2.73,6.3c1.46.2,1.67.28,1.67.57s-.18.39-.7.65V264.6c0,.76-.45,1.1-1.41,1.1s-1.14-.26-1.14-1,.15-2.73.15-6.84Zm6.35,9.36c0,1.69-.71,3-2,3a1.15,1.15,0,0,1-1.22-1.17c0-.62.26-1,1-1.3a2.45,2.45,0,0,0,1.71-2.13c0-.13.26-.16.29,0A7,7,0,0,1,349.58,261.48Zm1.37-16c1.88.57,2.76,1.35,2.76,2.47a1.11,1.11,0,0,1-1,1.09H357a12.12,12.12,0,0,0,.55-1.82,10.74,10.74,0,0,0,.29-1.66c2.2.67,2.88.91,2.88,1.17s-.16.33-.83.46a10.68,10.68,0,0,1-2.08,1.85h3.56c1.12-1.35,1.43-1.56,1.61-1.56s.52.21,1.59,1.09c.47.39.67.63.67.81s-.08.26-.33.26H348.72a13.69,13.69,0,0,0-1.87.15l-.29-1a10.72,10.72,0,0,0,2.11.21h3.51a.88.88,0,0,1-.73-.75,5.37,5.37,0,0,0-1.17-2.81h-.21a13.69,13.69,0,0,0-1.87.15l-.29-1a10.72,10.72,0,0,0,2.11.21h4.16v-1.59c0-.49-.06-1-.11-1.58,3,.26,3.3.52,3.3.78s-.26.41-.78.67v1.72h3.77c1.09-1.33,1.41-1.54,1.59-1.54s.52.21,1.63,1.07c.5.42.71.62.71.81s-.08.26-.34.26Zm.06,12.25c-.08.49-.52.72-1.3.72s-1.07-.28-1.07-.93c0-.42.08-.86.08-2.6,0-1.51,0-3-.16-4.55a18.94,18.94,0,0,1,2.73,1.22h8.11c.86-1,1.07-1.12,1.27-1.12s.5.16,1.38.83c.42.31.57.5.57.7s-.15.39-.67.76v.78c0,2.08.05,3.51.05,4,0,.7-.47,1-1.46,1-.65,0-.93-.24-.93-.81v0Zm8.6-5.54H351v2.18h8.58Zm0,2.78H351v2.16h8.58Zm.18,7.39c0,.33.08.46.31.54.63.16.81.37.81.86s-.39.91-1.22,1.17a15.93,15.93,0,0,1-4.16.39c-3.33,0-4.39-.44-4.39-1.82,0-.55.05-1.12.05-3.38a5.81,5.81,0,0,0-.11-1.15c2.65.29,2.89.34,2.89.71s-.24.44-.7.57v2.26c0,.73.36.89,2.47.89a7,7,0,0,0,2.26-.19c.72-.28,1-.91,1.53-2.65.05-.13.26-.1.26,0Zm-3.33-.29c-.59,0-.67-.1-1.06-1.4a4.71,4.71,0,0,0-1.07-1.88c-.08-.1,0-.21.11-.18,2.21.39,3.22,1.09,3.22,2.21A1.21,1.21,0,0,1,356.46,262Zm7.12,2.16c-.67,0-.9-.29-1.16-1.56a5.42,5.42,0,0,0-1.43-2.81c-.11-.08,0-.29.13-.24,2.57.84,3.69,1.75,3.69,3.13A1.32,1.32,0,0,1,363.58,264.19Z"/><path class="cls-5" d="M376.74,264.42c0,.65-.58,1-1.59,1-.81,0-1.12-.23-1.12-.88,0-2.34.16-4.68.16-14.07,0-2.7,0-5.41-.16-8.14l2.94,1.43h14.68c1-1.09,1.18-1.25,1.38-1.25s.47.16,1.48,1c.45.39.6.57.6.78s-.15.39-.67.78v2.86c0,12.67.07,13.16.07,14.67,0,1.3-.33,1.9-1.22,2.31a5.26,5.26,0,0,1-1.71.39c-.44,0-.55-.18-.63-.7-.13-.88-.65-1.53-3.06-2.05-.13,0-.11-.31,0-.31,1.38.05,2.65.07,3.48.07.37,0,.45-.1.45-.46v-8.51h-15.1Zm6.13-11.73v-8.37h-6.13v8.37Zm9-8.37h-6.4v8.37h6.4Z"/><path class="cls-6" d="M79.25,218.14l-6.7-18a25.37,25.37,0,0,1,7.25-4.31,47.86,47.86,0,0,1,9.2-2.6,54.32,54.32,0,0,1,9.74-.9,41.21,41.21,0,0,1,14.6,2.45,23.82,23.82,0,0,1,10.24,7,16.81,16.81,0,0,1,3.75,11.05,20.2,20.2,0,0,1-2,9,32.87,32.87,0,0,1-5.34,7.8,59,59,0,0,1-7.2,6.65q-3.9,3.06-7.7,5.51t-6.8,4.35h19a12.71,12.71,0,0,0,5.44-1.15,14,14,0,0,0,4.5-3.45,24.64,24.64,0,0,0,3.75-5.91h1l-6.8,28.11h-52v-1q4.3-5.29,8.85-10.6t8.8-10.56a126.28,126.28,0,0,0,7.64-10.45,56.12,56.12,0,0,0,5.4-10.3,27.6,27.6,0,0,0,2-10.1q0-6.51-3.45-10.2t-9.34-3.2a11.7,11.7,0,0,0-9.55,5.75q-3.25,5.25-3.25,15Z"/><path class="cls-6" d="M142.13,248.85a8,8,0,0,1,5.09-1.65,11,11,0,0,1,5.35,1.5,8.62,8.62,0,0,1,3.75,4.25,16.18,16.18,0,0,1,1.4,8.95,18.27,18.27,0,0,1-3.15,8.2,16.64,16.64,0,0,1-6.4,5.55,12.67,12.67,0,0,1-8.34,1l-.4-1.3a8.19,8.19,0,0,0,3.2-2.65,7,7,0,0,0,1.35-4.45c0-1.73-.95-3.6-2.75-5.6A9.66,9.66,0,0,1,139,257.9a10.33,10.33,0,0,1,.4-5.15A7.72,7.72,0,0,1,142.13,248.85Z"/><path class="cls-6" d="M209.1,210.54,178.41,213l-1.9,8.3a48.55,48.55,0,0,1,17-1.4,28.05,28.05,0,0,1,12.39,4.25,20.62,20.62,0,0,1,7.4,8.55,24.59,24.59,0,0,1,2.1,11.61,23.41,23.41,0,0,1-4.1,12.8,28.24,28.24,0,0,1-9.75,8.65,42.11,42.11,0,0,1-12.94,4.5,45.1,45.1,0,0,1-13.85.35,37.5,37.5,0,0,1-12.44-3.8l.2-1a33.63,33.63,0,0,0,6.4-.5,48.85,48.85,0,0,0,7.94-2,35.83,35.83,0,0,0,7.85-3.75,22.21,22.21,0,0,0,6.1-5.65,14.62,14.62,0,0,0,2.7-7.8q.39-5.7-3.1-9t-9.55-3.6a31.81,31.81,0,0,0-13.64,2.75l-.9-.6,8.29-38.4,29.79-2.51a7.93,7.93,0,0,0,5-1.4,10.24,10.24,0,0,0,2.9-3.6h1Z"/><path class="cls-6" d="M224.09,263.75l.1-1h2.1a5.29,5.29,0,0,0,3.9-1.6,5.18,5.18,0,0,0,1.6-3.8V206.64q0-3.9-1.8-5.4a7.26,7.26,0,0,0-4.8-1.5h-1.8v-1c1.4-.07,3.29-.25,5.65-.55s4.92-.7,7.65-1.2a74.35,74.35,0,0,0,7.95-1.91,28.91,28.91,0,0,0,6.54-2.75h1v65.12a5,5,0,0,0,1.65,3.75,5.45,5.45,0,0,0,3.85,1.55h2.1v1Z"/><path class="cls-6" d="M312.86,192.33l.9,7.41-35.59,34.6h40a7,7,0,0,0,4.2-1.05,7.73,7.73,0,0,0,2.3-2.95h1l-3.1,14.51H261.28v-1Zm1,65a5.12,5.12,0,0,0,1.65,3.8,5.34,5.34,0,0,0,3.85,1.6h1.1v1H286.67l.1-1h1a5.59,5.59,0,0,0,4-1.55,5.07,5.07,0,0,0,1.65-3.85Zm-20.49-43.41,19.49-21.61h1v71.32H293.37Z"/><path class="cls-5" d="M48.55,61.76c0,1.23,0,1.91,0,2.53,0,.43-.31.61-1,.61-.42,0-.65-.15-.65-.49s.09-2.38.11-3.93a10.76,10.76,0,0,1-3.59,2.87c-.07,0-.19-.15-.12-.2a13.74,13.74,0,0,0,3.42-5H45.13a6.25,6.25,0,0,0-1,.11l-.2-.67a4.86,4.86,0,0,0,1.17.15h2v-.58c0-.63,0-1.17-.07-1.78,1.46.09,2.12.23,2.12.47s-.12.32-.56.5v1.39h.83c.58-.72.79-.87.92-.87s.36.15,1,.62c.25.19.4.35.4.48s-.06.18-.23.18H48.55v1.06c1.62.2,2.67.87,2.67,1.73a.75.75,0,0,1-.74.81.66.66,0,0,1-.67-.52,3.49,3.49,0,0,0-1.26-1.71ZM52.8,51.3A9,9,0,0,0,55.52,53a16.28,16.28,0,0,0,4.44,1c.09,0,.08.18,0,.22a1.83,1.83,0,0,0-1.08,1c-.2.5-.33.63-.47.63a2.74,2.74,0,0,1-.92-.29A19,19,0,0,1,54.87,54a11.58,11.58,0,0,1-2.2-2.26c0,1.55.08,2.9.08,3.7,0,.46-.4.63-1,.63S51,55.86,51,55.5s.05-1.75.07-3A16,16,0,0,1,44.32,56c-.09,0-.16-.15-.09-.18a16.5,16.5,0,0,0,5.85-4.56H46.23a8.2,8.2,0,0,0-1.2.11l-.2-.67a6.35,6.35,0,0,0,1.33.15h4.89v-.83A14.79,14.79,0,0,0,51,48.38c2.11.22,2.29.31,2.29.58s-.16.34-.6.52v1.41H56.4c.92-1.12,1.13-1.27,1.26-1.27s.36.13,1.22.87c.42.34.58.5.58.63s-.05.18-.23.18Zm3.06,10.5c0,1,0,1.82,0,2.41s-.3.65-.91.65-.69-.16-.69-.52.06-2.31.09-4.05a12.7,12.7,0,0,1-4.46,3.4c-.07,0-.2-.16-.13-.22a13.29,13.29,0,0,0,4.12-5.31H53a5.73,5.73,0,0,0-1,.11l-.2-.67a5.3,5.3,0,0,0,1.21.15h1.33V57c0-.52,0-1.08-.07-1.69,1.56.1,2.14.23,2.14.48s-.14.31-.54.51v1.44h1.55c.68-.85.9-1,1-1s.36.14,1.08.68c.33.27.47.41.47.54s0,.18-.23.18H56a7.79,7.79,0,0,0,1.84,2.25,7.92,7.92,0,0,0,2.66,1.44.1.1,0,0,1,0,.18,1.9,1.9,0,0,0-1,1.16c-.08.21-.15.28-.29.28s-.22-.07-.45-.27a9.85,9.85,0,0,1-1.53-1.73,11.05,11.05,0,0,1-1.37-2.88Z"/><path class="cls-5" d="M72.74,55.64c1.08.45,1.67,1,1.67,1.82a.88.88,0,0,1-.77.95,1.19,1.19,0,0,1-1-.52,10.07,10.07,0,0,0-1.3-1.31,5.3,5.3,0,0,0-1.87-1v3.13c0,.76,0,2.42.07,4.36,0,.69-.3.85-.66.85a.82.82,0,0,1-.76-.42,3,3,0,0,1-.4-1.42,2,2,0,0,1,.09-.52.61.61,0,0,0,.09-.31c0-.23.06-.74.08-4,0-1.71,0-3.24,0-4.94a8.6,8.6,0,0,0-.08-1.53.8.8,0,0,0-.37-.41,2.85,2.85,0,0,0-.63-.29c-.13,0-.18-.09-.18-.16s.12-.2.23-.27a1,1,0,0,1,.5-.16,4.32,4.32,0,0,1,1.82.48c.49.22.72.51.72.85a.79.79,0,0,1-.3.58.53.53,0,0,0-.13.36c0,.5-.09,1.56-.09,3.24A10.18,10.18,0,0,1,72.74,55.64Z"/><path class="cls-5" d="M84.32,54c1.08-.13,2.58-.27,4.86-.52a1.11,1.11,0,0,0,.63-.26,1.1,1.1,0,0,1,.53-.16,3.06,3.06,0,0,1,1.4.85c.4.36.43.52.43.74s-.2.32-.38.41-.36.23-.64.77a19.83,19.83,0,0,1-2.81,4,16.78,16.78,0,0,1-5.91,4.17A1.11,1.11,0,0,1,82,64a.17.17,0,0,1-.18-.18c0-.09.14-.16.25-.25a20.61,20.61,0,0,0,5.2-5,16.64,16.64,0,0,0,2.25-3.78,1.88,1.88,0,0,0,.13-.38c0-.05,0-.05-.13-.05l-.29,0c-1.92.18-3.34.42-5.14.72a3.46,3.46,0,0,0-1.08.31,1.25,1.25,0,0,1-.58.18c-.29,0-.5-.09-1-.58a2.16,2.16,0,0,1-.7-1.31c0-.31.09-.51.18-.51s.11,0,.27.19a1.76,1.76,0,0,0,1.46.66C82.92,54.09,83.69,54,84.32,54Zm.87-3.44c.66-.09,1.4-.22,2.19-.4a3.74,3.74,0,0,0,.81-.29,2.24,2.24,0,0,1,.71-.16c.79,0,1.56.41,1.56.81a.54.54,0,0,1-.36.6,7.27,7.27,0,0,1-1.1.19c-.75.11-2.7.33-4.12.49a7.79,7.79,0,0,1-.86,0c-.65,0-1-.25-1.55-1a1.16,1.16,0,0,1-.25-.78c0-.12,0-.2.11-.2s.1.06.19.13a2.21,2.21,0,0,0,1.7.63C84.5,50.58,84.85,50.54,85.19,50.51Z"/><path class="cls-5" d="M108.65,58.14a10.8,10.8,0,0,1,1.73,1.1c1.08.83,1.51,1.53,1.51,2.06a.9.9,0,0,1-.82,1,1.19,1.19,0,0,1-1.12-.61A15.15,15.15,0,0,0,107.86,59a10.21,10.21,0,0,0-1.8-1.38,20.73,20.73,0,0,1-4.41,3.53,16.47,16.47,0,0,1-3.08,1.42,1.21,1.21,0,0,1-.39.09c-.09,0-.18,0-.18-.16a.23.23,0,0,1,.12-.2,21.94,21.94,0,0,0,5.64-4.36,27,27,0,0,0,3.65-4.77.6.6,0,0,0,.11-.22c0-.05,0-.07-.23-.05-1.26.14-2.88.41-4.31.72a2.43,2.43,0,0,0-.82.29,1.12,1.12,0,0,1-.63.19c-.35,0-.71-.21-1.21-.84a1.58,1.58,0,0,1-.38-1.16c0-.34.13-.46.24-.46s.12.07.25.21c.5.56.7.69,1.24.69.22,0,.67,0,1.37-.11,1.47-.16,2.68-.33,4-.51a1.27,1.27,0,0,0,.72-.27.69.69,0,0,1,.52-.19,1.42,1.42,0,0,1,1,.48c.54.47.76.76.76,1s0,.36-.59.54c-.17.06-.27.2-.44.43a30,30,0,0,1-2.44,3.25C107.32,57.48,108,57.82,108.65,58.14Z"/><path class="cls-5" d="M125.12,55.64c1.08.45,1.67,1,1.67,1.82a.88.88,0,0,1-.77.95,1.19,1.19,0,0,1-1-.52,10.07,10.07,0,0,0-1.3-1.31,5.3,5.3,0,0,0-1.87-1v3.13c0,.76,0,2.42.07,4.36,0,.69-.3.85-.66.85a.82.82,0,0,1-.76-.42,3,3,0,0,1-.4-1.42,2,2,0,0,1,.09-.52.61.61,0,0,0,.09-.31c0-.23.06-.74.08-4,0-1.71,0-3.24,0-4.94a8.6,8.6,0,0,0-.08-1.53.8.8,0,0,0-.37-.41,2.85,2.85,0,0,0-.63-.29c-.13,0-.18-.09-.18-.16s.12-.2.23-.27a1,1,0,0,1,.5-.16,4.32,4.32,0,0,1,1.82.48c.49.22.72.51.72.85a.79.79,0,0,1-.3.58.53.53,0,0,0-.13.36c0,.5-.09,1.56-.09,3.24A10.18,10.18,0,0,1,125.12,55.64Z"/><path class="cls-5" d="M144.51,53.39a.63.63,0,0,1-.46.61c-.29.13-.38.33-.56.61A31.26,31.26,0,0,1,139.33,60a15.81,15.81,0,0,1-5.83,3.92,1,1,0,0,1-.41.11c-.11,0-.18,0-.18-.16s.09-.18.3-.33A22.57,22.57,0,0,0,138.47,59,24.45,24.45,0,0,0,142,53.52a.59.59,0,0,0,.06-.18.09.09,0,0,0-.09-.08c-.44.06-1,.2-1.82.35-.51.08-.72.18-1,.18a3,3,0,0,1-1-.31,21.29,21.29,0,0,1-2.14,2.41,17.41,17.41,0,0,1-2.61,2c-.33.2-.47.27-.58.27s-.22-.07-.22-.2.26-.32.69-.75a26.63,26.63,0,0,0,2.23-2.61c.5-.67,1-1.39,1.46-2.15a3.76,3.76,0,0,0,.59-1.38c0-.31-.3-.53-.65-.71-.16-.09-.21-.14-.21-.21s.23-.29.59-.29a3.78,3.78,0,0,1,1.77.65c.55.34.66.57.66.84a.81.81,0,0,1-.39.56c-.17.11-.29.27-.74.9a1.06,1.06,0,0,0,.27,0,12.18,12.18,0,0,0,1.4-.2c.74-.12,1.21-.23,1.44-.29a.73.73,0,0,0,.38-.21.74.74,0,0,1,.47-.25c.43,0,.82.21,1.45.79A1.14,1.14,0,0,1,144.51,53.39Zm.92-2.45A1.34,1.34,0,0,1,146.1,52a.61.61,0,0,1-.6.63.65.65,0,0,1-.61-.41,6.73,6.73,0,0,0-1.13-1.59c-.07-.07-.2-.16-.2-.23s.09-.13.22-.13a2,2,0,0,1,.41.07A3.39,3.39,0,0,1,145.43,50.94Zm1.66-1.24a1.08,1.08,0,0,1,.65.92.61.61,0,0,1-.56.66.7.7,0,0,1-.67-.39,4.57,4.57,0,0,0-1.26-1.41c-.07,0-.21-.14-.21-.21a.15.15,0,0,1,.14-.15,2.23,2.23,0,0,1,.47.06A4.23,4.23,0,0,1,147.09,49.7Z"/><path class="cls-5" d="M155.65,53.71c-.14-.05-.23-.07-.23-.16s.34-.38.7-.38a4.19,4.19,0,0,1,1.91.71c.45.28.54.54.54.77a.55.55,0,0,1-.26.47,1.35,1.35,0,0,0-.3.61,14,14,0,0,1-1.48,3.35,9.33,9.33,0,0,1-3.63,3.35,1.06,1.06,0,0,1-.36.14c-.11,0-.17,0-.17-.18s0-.12.18-.25A10.88,10.88,0,0,0,155.09,59a13.77,13.77,0,0,0,1.24-3.13,4.75,4.75,0,0,0,.22-1.28C156.55,54.2,156.14,53.91,155.65,53.71Zm4.1-1.15a1.4,1.4,0,0,0-.82-.65c-.15,0-.22-.07-.22-.2s.32-.39.76-.39a3.21,3.21,0,0,1,1.63.63c.33.2.72.5.72.92a.66.66,0,0,1-.25.5.69.69,0,0,0-.14.43c0,1.21-.06,2.31-.09,4.07v1.34c0,.16,0,.23.09.23a1.37,1.37,0,0,0,.43-.14,22.71,22.71,0,0,0,5.94-3.5c.22-.18.32-.29.45-.29a.16.16,0,0,1,.18.17.53.53,0,0,1-.14.25,20.78,20.78,0,0,1-6.36,5.2.92.92,0,0,0-.36.38.48.48,0,0,1-.41.25,1.45,1.45,0,0,1-.9-.57,2,2,0,0,1-.51-1.08,1.1,1.1,0,0,1,.06-.31,5.64,5.64,0,0,0,.09-1.1c0-1.44,0-2.66,0-5A3.73,3.73,0,0,0,159.75,52.56Z"/><path class="cls-5" d="M187.2,57.42c-.56,0-1.79-.09-2.67-.09-1.42,0-4.52.07-6.73.27A5.06,5.06,0,0,0,176,58a.79.79,0,0,1-.49.14c-.47,0-.88-.43-1.44-1.24a1.48,1.48,0,0,1-.34-1c0-.28.11-.43.22-.43a.5.5,0,0,1,.23.16,1.78,1.78,0,0,0,1.51.69c.49,0,.83,0,1.89-.09,2.23-.15,4.61-.25,6.37-.29a3.62,3.62,0,0,0,1.41-.25,1.22,1.22,0,0,1,.5-.15,2.17,2.17,0,0,1,.81.18c.69.29,1.15.56,1.15,1A.67.67,0,0,1,187.2,57.42Z"/><path class="cls-5" d="M196.75,54a1.61,1.61,0,0,0-.63.25,1,1,0,0,1-.52.13c-.31,0-.65-.23-1.08-.77s-.6-.85-.6-1.27.09-.54.2-.54.16.08.31.22a1.66,1.66,0,0,0,1.56.72l1.33-.07c1.77-.16,3.57-.33,5.21-.52a1.59,1.59,0,0,0,.81-.26.8.8,0,0,1,.46-.21,1.72,1.72,0,0,1,1.17.52c.65.49.81.74.81,1.15,0,.17-.12.34-.37.47a1.66,1.66,0,0,0-.78.87,19.94,19.94,0,0,1-3.42,4.79,15.86,15.86,0,0,1-5.94,3.89,1.21,1.21,0,0,1-.27.05c-.16,0-.23,0-.23-.2s.09-.16.29-.29a18.64,18.64,0,0,0,5.09-4.46A28.58,28.58,0,0,0,203,53.88a1.48,1.48,0,0,0,.23-.62c0-.07-.09-.09-.18-.09s-.36,0-.75.07C200.46,53.44,198.35,53.69,196.75,54Zm11.43-3.47a1.5,1.5,0,1,1-1.5-1.5A1.5,1.5,0,0,1,208.18,50.53Zm-2.49,0a1,1,0,0,0,2,0,1,1,0,1,0-2,0Z"/><path class="cls-5" d="M50.43,83.42c-.1,4.12-1.79,6-6.57,6.86-.09,0-.17-.23-.08-.27,3.73-1.44,4.86-3,4.86-6.86,0-.2,0-.4,0-.78,1.94.18,2.39.29,2.39.62S50.87,83.27,50.43,83.42Zm6.92-2.18c.69-.83.83-.94,1-.94s.3.11,1.17.94c.37.36.48.5.48.65,0,.32-.11.43-.81.43a.6.6,0,0,0-.5.18A13,13,0,0,1,57,83.64c-.07,0-.22-.06-.18-.13a7.46,7.46,0,0,0,.75-1.86H46.25c0,1.39-.63,2.42-1.71,2.42a.76.76,0,0,1-.79-.8c0-.39.18-.66.68-1a2.35,2.35,0,0,0,1.41-2.18c0-.09.18-.11.19,0a5.08,5.08,0,0,1,.2,1.12ZM52.55,79h3.17c.84-1,1.06-1.13,1.18-1.13s.36.14,1.16.79c.34.29.48.45.48.58s0,.18-.23.18H47a7.23,7.23,0,0,0-1.22.11l-.2-.67A6.49,6.49,0,0,0,47,79h3.83V76.81H45.46a9.21,9.21,0,0,0-1.28.11l-.2-.67a7.06,7.06,0,0,0,1.41.15h5.43v-.76a15,15,0,0,0-.11-1.77c2.25.2,2.47.4,2.47.6s-.2.3-.63.45V76.4H57c.87-1,1.08-1.18,1.21-1.18s.36.15,1.22.81c.4.33.54.47.54.6s-.05.18-.23.18H52.55Zm1.76,8.77c0,.51.16.65,1.66.65a5.28,5.28,0,0,0,1.76-.16c.54-.16.85-.85,1.39-2.63,0-.09.21-.09.21,0,0,.65,0,1.44,0,1.94,0,.24,0,.29.14.35.49.23.62.47.62.77,0,.45-.24.78-.85,1a13.26,13.26,0,0,1-3.42.29c-2.61,0-3.17-.25-3.17-1.6v-3c0-1,0-2-.05-3,2.3.33,2.3.33,2.3.6s-.12.28-.54.45Z"/><path class="cls-5" d="M73.84,88.82h4.37c1-1.31,1.26-1.46,1.38-1.46s.36.15,1.43,1c.48.4.63.56.63.69s-.06.18-.24.18H67.54a11.74,11.74,0,0,0-1.73.1l-.2-.66a12.61,12.61,0,0,0,1.91.14H72v-12a20.78,20.78,0,0,0-.11-2.54c2.38.19,2.6.39,2.6.59s-.22.36-.63.5v5.42h2.93c1-1.27,1.19-1.42,1.31-1.42s.36.15,1.37,1c.45.38.59.54.59.67s-.05.18-.23.18h-6Z"/><path class="cls-5" d="M94.17,74.77a6.54,6.54,0,0,0-.09-1.06c2.25.2,2.46.4,2.46.6s-.23.34-.63.5v1.08h4.39c1-1.08,1.21-1.22,1.34-1.22s.34.14,1.18.84c.38.33.53.49.53.61s-.06.18-.24.18H88.68a9,9,0,0,0-1.26.11l-.2-.66a7.31,7.31,0,0,0,1.44.14h5.51Zm6.26,7.73c.61-.67.76-.77.9-.77s.32.1,1,.64c.3.27.41.4.41.54s-.14.35-.57.56v.89c0,2.88,0,3.58,0,4.43a1.26,1.26,0,0,1-.68,1.31,2.31,2.31,0,0,1-1.16.31c-.23,0-.32-.06-.41-.51s-.34-.79-1.58-1.2c-.09,0-.09-.22,0-.22.82.07,1.33.11,1.92.11.18,0,.24-.06.24-.24V82.91H89.78V89.6c0,.55-.29.77-1,.77-.54,0-.72-.18-.72-.68,0-1,0-2,0-6,0-.71,0-1.41,0-2.11a10.19,10.19,0,0,1,1.85.9ZM92.13,81v.15c0,.46-.32.66-1,.66-.48,0-.68-.16-.68-.63s0-.9,0-2.7c0-.49,0-1,0-1.46a12.77,12.77,0,0,1,1.78.87h5.65c.56-.69.7-.8.85-.8s.34.11,1,.62c.3.23.41.36.41.5s-.13.29-.49.49V79c0,1,0,1.72,0,1.93,0,.56-.27.78-1,.78-.5,0-.68-.17-.68-.63V81Zm1.08,6.52v.43c0,.51-.25.69-.95.69-.5,0-.65-.15-.65-.6s0-.81,0-2.46c0-.6,0-1.21-.07-1.82.81.34.93.39,1.76.79h3.47c.54-.58.69-.69.83-.69s.32.11,1,.63c.27.24.38.37.38.51s-.09.29-.46.54v.34c0,.92,0,1.55,0,1.75,0,.47-.27.67-.92.67-.48,0-.7-.13-.7-.53v-.25ZM98,78.25H92.13v2.29H98Zm-1.1,6.66H93.21v2.15h3.73Z"/><path class="cls-5" d="M916.8,198.74c1.43-1.71,1.74-1.92,1.92-1.92s.52.21,1.9,1.32c.62.52.83.76.83.94s-.08.26-.34.26h-9c0,2.78.08,5.31.08,6.42,0,.78-.52,1.12-1.56,1.12-.76,0-1.15-.23-1.15-.91s.11-2.68.11-6.63H900.4a13.23,13.23,0,0,0-1.92.16l-.29-1a11,11,0,0,0,2.13.21h2.29v-3.56c0-1.3,0-2.6-.11-3.9a15.9,15.9,0,0,1,2.73,1.25h4.32v-4.79h-4.81a17.51,17.51,0,0,1-5.85,5.7c-.1.07-.36-.13-.26-.24a22.74,22.74,0,0,0,4.5-7.44,14.3,14.3,0,0,0,.83-3c2.75.81,3.46,1.12,3.46,1.56,0,.29-.32.47-1.12.58-.39.8-.78,1.53-1.2,2.23h11c1.36-1.58,1.67-1.79,1.85-1.79s.52.21,1.84,1.25c.6.49.81.7.81.88s-.08.26-.34.26H912v4.79h3.07c1.32-1.51,1.53-1.67,1.74-1.67s.49.16,1.77,1.15c.6.46.75.65.75.85s-.1.26-.39.26H912v.94c0,1.51,0,3.12,0,4.68Zm-7.25-5.62h-4.5v5.62h4.5Z"/><path class="cls-5" d="M855.41,242.25a26.87,26.87,0,0,0,1.25-2.67,14.31,14.31,0,0,0,.57-2c2.21.67,3.33,1.19,3.33,1.53s-.34.52-1.17.52a20.3,20.3,0,0,1-2.94,2.65h4.86c1.33-1.5,1.64-1.71,1.82-1.71s.52.21,1.77,1.19c.57.47.78.68.78.86s-.08.26-.34.26H844.63a12.77,12.77,0,0,0-1.9.16l-.29-1a11.82,11.82,0,0,0,2.14.2Zm-9,11.84c0,3.14,0,4.76,0,6.37,0,.7-.44,1-1.4,1-.81,0-1.12-.21-1.12-.83,0-1.43.13-2.89.13-8.69,0-2.49,0-5-.08-7.51a11.88,11.88,0,0,1,2.6,1.19h4.21c.86-1,1.07-1.14,1.28-1.14s.46.15,1.37.88c.39.34.55.52.55.73s-.16.37-.7.73v2c0,8.35.08,9.52.08,10.32a2.1,2.1,0,0,1-.65,1.67,2.81,2.81,0,0,1-1.88.54c-.28,0-.39-.13-.44-.49-.15-.88-.41-1.3-2.41-1.9-.13,0-.11-.31,0-.31,1,.05,1.82.1,2.68.1.21,0,.26-.08.26-.41v-4.24Zm4.55-7.91h-4.55v3.28h4.55Zm0,3.88h-4.55v3.43h4.55Zm-.5-8.09c-.67,0-.93-.29-1.14-1.2A6.6,6.6,0,0,0,848,238a.18.18,0,0,1,.18-.26c2.42.62,3.54,1.5,3.54,2.78A1.35,1.35,0,0,1,850.42,242Zm8,6.32c0,3.72.05,6.27.05,7.1s-.47,1.06-1.48,1.06c-.81,0-1-.15-1-1s0-3.12,0-7.81a21.72,21.72,0,0,0-.1-2.31c2.86.36,3.35.49,3.35.83s-.28.47-.88.7Zm2.81-1.46a16.46,16.46,0,0,0-.13-2.26c3.12.36,3.38.44,3.38.88,0,.26-.26.45-.86.68V253c0,1.35.1,4.45.1,5.93a2.38,2.38,0,0,1-.39,1.4,2.44,2.44,0,0,1-2.21,1c-.6,0-.62-.05-.75-.65-.18-.8-.65-1.25-2.81-1.84-.13,0-.13-.32,0-.32,1.12.08,2.37.13,3,.13s.65-.05.65-.39Z"/><path class="cls-5" d="M875,248.11a24.44,24.44,0,0,1-2.27,2.67c-.1.11-.31-.15-.26-.26a37,37,0,0,0,3.69-9,24.42,24.42,0,0,0,.68-3.9c3,.78,3.35.91,3.35,1.28s-.07.36-1,.65a28.61,28.61,0,0,1-2.73,6.24c1.35.21,1.53.31,1.53.57s-.18.39-.7.65v13.44c0,.76-.47,1.1-1.38,1.1s-1.09-.26-1.09-1,.16-2.73.16-6.84Zm9.77,8.27a35.43,35.43,0,0,0,4.18-.89c.13,0,.24.26.13.31a40.73,40.73,0,0,1-8.76,3.36c-.07.7-.23,1-.54,1s-.52-.37-1.35-3.07a12.64,12.64,0,0,0,1.63-.08c.73-.05,1.59-.16,2.5-.29v-4.57h-2.08a7.88,7.88,0,0,0-1.4.15l-.29-1a6.94,6.94,0,0,0,1.69.21h2.08v-.91c0-1.07,0-2.08-.11-3,2.81.26,3.07.52,3.07.78s-.26.49-.75.65v2.47h1.14c.81-1.12,1.12-1.33,1.3-1.33s.49.21,1.33.94c.33.31.54.54.54.73s-.08.26-.34.26h-4Zm-.18-15.74a25,25,0,0,1-2.86,5c1.66,0,3.32-.1,5-.25a8,8,0,0,0-1.22-2.79c-.08-.1.13-.26.23-.21,2.34,1.3,3.54,2.61,3.54,3.88a1.38,1.38,0,0,1-1.27,1.48c-.63,0-.86-.34-1.07-1.51l0-.15a33.42,33.42,0,0,1-6.55,1.74c-.15.49-.31.7-.6.7s-.49-.39-1.14-2.89c.57,0,1,0,1.28,0h1.06a47.69,47.69,0,0,0,.94-5h-.65a7.25,7.25,0,0,0-1.43.16l-.29-1a7.64,7.64,0,0,0,1.72.2H886c.88-1.22,1.19-1.43,1.37-1.43s.5.21,1.46,1c.41.37.62.6.62.78s-.08.26-.34.26Zm9.17-.39a13,13,0,0,0-.16-2.18c2.92.39,3.12.47,3.12.86s-.13.41-.7.7v9.2c0,4.74.13,8.12.13,9.65,0,1.17-.21,1.62-.83,2.06a3.36,3.36,0,0,1-1.9.62c-.57,0-.78-.15-.86-.65-.12-1-.62-1.35-2.67-1.95-.13,0-.13-.36,0-.36,1.14.07,2.6.18,3.48.18.31,0,.39-.08.39-.37ZM892,244c0,5.49.13,9.26.13,10.51,0,.73-.42,1.07-1.36,1.07-.72,0-1-.29-1-.94s.1-3.12.1-7.8c0-3.7,0-5.83-.1-6.35,2.75.31,2.94.37,2.94.78,0,.24-.21.44-.7.68Z"/><path class="cls-5" d="M910.1,243.35a33.29,33.29,0,0,0-.44,4.57c-.21,2.73-.32,5.1-.32,6.74,0,1.35.21,2.11.6,2.47a4.15,4.15,0,0,0,2.5.6,12.68,12.68,0,0,0,5.66-1.59,15,15,0,0,0,4.55-3.51c.16-.18.31-.34.47-.34a.25.25,0,0,1,.26.26,2.34,2.34,0,0,1-.34.73,15,15,0,0,1-4.52,4.63,11.69,11.69,0,0,1-6.94,2.11c-2.73,0-4.39-1.88-4.31-5.07.1-4.35.28-8.61.39-12.57,0-1-.16-1.37-1-1.71s-.81-.29-.81-.44.18-.34.44-.47a3.41,3.41,0,0,1,1.2-.24,4,4,0,0,1,2.49,1.17,1.84,1.84,0,0,1,.76,1.33,1.23,1.23,0,0,1-.37.88C910.28,243.06,910.15,243.14,910.1,243.35Z"/><path class="cls-5" d="M943.21,243.89a59.61,59.61,0,0,0-7.56,2.42,4,4,0,0,0-1,.6,1,1,0,0,1-.75.29c-.52,0-1.12-.32-2-1.28a3.14,3.14,0,0,1-1-1.87c0-.42.1-.81.26-.81s.18,0,.41.26c.91.94,1.12,1,1.9,1a36,36,0,0,0,4.34-.86c3.33-.78,5.93-1.48,7.9-2.06a7.32,7.32,0,0,0,1.43-.49,1.84,1.84,0,0,1,1-.23,6.39,6.39,0,0,1,2.39.41c.44.21.83.47.83,1s-.23.91-1,.93c-.54,0-1.12,0-2.57.13a8.5,8.5,0,0,0-5.95,2.81,7.12,7.12,0,0,0-1.87,5A4.62,4.62,0,0,0,942,255.1a8.05,8.05,0,0,0,4.16,1.35,4.89,4.89,0,0,1,2,.37,1.5,1.5,0,0,1,1,1.32c0,.71-.47,1.25-1.69,1.25a12.53,12.53,0,0,1-5.05-1.22,6.79,6.79,0,0,1-3.82-6,9.33,9.33,0,0,1,1-4.37,12.21,12.21,0,0,1,3.61-3.8Zm7.1,3.59a2,2,0,0,1,1,1.56.87.87,0,0,1-.86.91.92.92,0,0,1-.88-.6,10.11,10.11,0,0,0-1.64-2.28c-.1-.11-.29-.24-.29-.34s.06-.13.13-.16a1.47,1.47,0,0,1,.42,0A5.22,5.22,0,0,1,950.31,247.48Zm2.41-1.69a1.69,1.69,0,0,1,.94,1.33.87.87,0,0,1-.81,1,1,1,0,0,1-1-.57,6.55,6.55,0,0,0-1.82-2c-.1-.08-.31-.21-.31-.31a.17.17,0,0,1,.08-.16.66.66,0,0,1,.41,0A5.26,5.26,0,0,1,952.72,245.79Z"/><path class="cls-5" d="M966.26,255.78a4,4,0,0,0,2.47,2.18,21.64,21.64,0,0,0,5.9.6,82.29,82.29,0,0,0,10-.65c.13,0,.13.23,0,.29a1.63,1.63,0,0,0-1,1.45c-.08.81-.13.89-.63.94-1.38.18-4.47.23-6.34.23-4.42,0-7-.36-8.71-1.51a6.38,6.38,0,0,1-2.41-3.69,18.52,18.52,0,0,1-3,3.93c.07,1-.06,1.19-.45,1.19s-1-.93-1.92-3.17a9.71,9.71,0,0,0,1.79-.65,10.65,10.65,0,0,0,1.88-1V249h-1.8a5,5,0,0,0-1.43.21l-.28-1a6.26,6.26,0,0,0,1.71.23h1.64c.91-1,1.12-1.19,1.33-1.19s.46.15,1.43.91c.44.36.59.54.59.75s-.08.26-.78.83Zm-1.37-12.56c-.6,0-.91-.32-1.28-1.62a7.58,7.58,0,0,0-1.66-3c-.11-.1.08-.26.21-.23,3,.75,4.16,2,4.16,3.33A1.42,1.42,0,0,1,964.89,243.22Zm11.3.57h4.5c1-1.2,1.35-1.41,1.53-1.41s.52.21,1.48,1c.42.34.63.58.63.76s-.08.26-.34.26h-6c1.82.62,2.26.88,2.26,1.19s-.21.34-1,.39c-.94.84-1.33,1.2-2,1.67h2.8c1-1.15,1.3-1.35,1.49-1.35s.52.2,1.43,1c.39.31.59.54.59.73s-.07.26-.33.26h-7v2.6h3c.81-1,1.12-1.25,1.3-1.25s.49.21,1.3.88c.34.29.55.52.55.7s-.08.27-.34.27h-5.77c0,.85,0,1.71,0,2.57h4.21c1-1.2,1.33-1.4,1.51-1.4s.52.2,1.48,1c.42.34.62.58.62.76s-.07.26-.33.26h-7.49c0,1,.05,1.87.05,2.31,0,.78-.41,1.07-1.45,1.07-.73,0-1.07-.24-1.07-.7s.08-1.15.1-2.68h-4.75a9.12,9.12,0,0,0-1.51.15l-.28-1a7.43,7.43,0,0,0,1.74.21h4.8v-2.57h-3.37a8,8,0,0,0-1.41.15l-.28-1a6.78,6.78,0,0,0,1.61.21h3.45v-2.6h-4.62a8,8,0,0,0-1.43.15l-.29-1a6.9,6.9,0,0,0,1.67.21H972c-.23-.13-.34-.44-.44-1a4.89,4.89,0,0,0-.75-2.06c-.08-.1,0-.2.13-.18,1.79.45,2.73,1.2,2.73,2.14a1.15,1.15,0,0,1-.71,1.09h3.56a19.52,19.52,0,0,0,.71-1.82c.13-.5.26-1,.36-1.43H969a9.44,9.44,0,0,0-1.53.15l-.28-1a7.59,7.59,0,0,0,1.76.21h4.91V241h-3.69a8,8,0,0,0-1.48.16l-.28-1a7.5,7.5,0,0,0,1.71.2h3.74v-.88a17.91,17.91,0,0,0-.13-2.05c2.81.26,3.1.52,3.1.75s-.24.44-.68.62v1.56h3.12c.94-1.09,1.25-1.3,1.43-1.3s.52.21,1.43.91c.39.34.6.55.6.73s-.08.26-.34.26h-6.24Z"/><path class="cls-5" d="M1004.44,243c0-.39,0-.78-.05-1.19a28,28,0,0,0-.26-3.77c3.2.41,3.33.44,3.33.83,0,.23-.24.44-.78.6,0,1.27,0,2.44.08,3.53h4.31c1.38-1.56,1.59-1.71,1.79-1.71s.45.15,1.51,1.17c.47.46.63.67.63.88s-.11.26-.39.26h-7.83a29.87,29.87,0,0,0,1.43,8.24c.29-.51.52-1,.76-1.56a17.6,17.6,0,0,0,1.24-4.29c2.21.65,3,1,3,1.43,0,.26-.19.37-.89.58a23.8,23.8,0,0,1-3,6.08,11.87,11.87,0,0,0,2.16,2.71c.67.59,1.11.93,1.32.93s.73-.6,1.74-2.75c0-.13.26-.06.26.07-.21,2.45-.23,2.92-.23,3.25a1.36,1.36,0,0,0,.36,1,1.5,1.5,0,0,1,.26.86,1,1,0,0,1-1.12,1.15,5.81,5.81,0,0,1-3.14-1.54,15.91,15.91,0,0,1-3.25-3.74,19.73,19.73,0,0,1-7.9,4.94c-.13,0-.26-.18-.16-.26a25,25,0,0,0,7.07-6.45c-1.3-2.78-1.87-5.67-2.15-10.69h-8c0,1.72,0,2.91-.11,4.42h3.82c.86-1.06,1.07-1.22,1.28-1.22s.46.16,1.45,1c.44.42.6.6.6.81s-.08.26-.86.78c-.26,4.13-.39,5.25-.8,6.58a2.49,2.49,0,0,1-1.12,1.45,3.77,3.77,0,0,1-1.92.42c-.34,0-.39-.11-.52-.7-.29-1-.45-1.1-2.13-1.75-.14,0,0-.33.1-.31a12.84,12.84,0,0,0,2.21.29c1,0,1.17-.16,1.45-1.61a33.84,33.84,0,0,0,.45-5.18h-4a29.49,29.49,0,0,1-.94,7,12.28,12.28,0,0,1-3.56,5.59c-.1.08-.31-.13-.26-.23a20.16,20.16,0,0,0,1.92-6,50.15,50.15,0,0,0,.5-8.22c0-2-.06-3.46-.16-5.3,1.43.7,1.64.8,3,1.53Zm6.19-.78c-.34,0-.42-.08-.68-.49a6.46,6.46,0,0,0-2.15-2.65c-.11-.08-.08-.29.05-.29,2.65.21,3.87,1,3.87,2.18A1.13,1.13,0,0,1,1010.63,242.2Z"/><path class="cls-6" d="M840,121.21l63.58-.24-15.36,35.65c-1,2.32-2.15,5.12-3.35,8.4s-2.44,6.8-3.72,10.56-2.52,7.48-3.72,11.16-2.3,7.11-3.3,10.27-1.78,5.82-2.34,8H851.39q2.16-3.6,5.16-8.7t6.23-10.87Q866,179.66,869.2,174t5.7-10.56q2.52-4.86,4.08-8.1L885.22,142H846.83a8.23,8.23,0,0,0-5.64,1.8,13,13,0,0,0-3.36,5.41h-1.2Z"/><path class="cls-5" d="M826.83,58.09c-.59,0-1.37-.07-2.05-.07s-1.48,0-2.23.07L821.86,60a2.75,2.75,0,0,0-.2,2c.17.38.76.5,1.41.57.11,0,.16,0,.16.24s-.05.23-.2.23c-.66,0-1.58,0-2.25,0s-1.29,0-1.89,0c-.16,0-.2,0-.2-.23s0-.24.2-.24A1.86,1.86,0,0,0,820,62a6,6,0,0,0,1.1-2.11l2.16-5.84c.85-2.27,1-2.82,1.3-3.78l1.42-.65c.13,0,.2,0,.23.17.36,1.11.69,2,1.5,4.37l2,5.87a7.31,7.31,0,0,0,.9,2.06c.31.37.49.41,1.17.46.2,0,.24,0,.24.24s0,.23-.24.23c-.77,0-1.78,0-2.55,0s-1.77,0-2.54,0c-.13,0-.15,0-.15-.23s0-.24.15-.24c.68,0,1.13-.1,1.24-.46a3.28,3.28,0,0,0-.33-1.9Zm-1.33-3.87c-.42-1.19-.56-1.71-.76-2.36-.25.7-.39,1.17-.81,2.32l-1.15,3.19c.59,0,1.31,0,2,0s1.28,0,1.8,0Z"/><path class="cls-5" d="M842.36,52.27a7.53,7.53,0,0,0-.07-1.55c-.08-.28-.35-.37-.65-.36l-.43,0c-.22,0-.26,0-.27-.2s0-.23.21-.27a26.58,26.58,0,0,0,3-.81c.09,0,.22.09.22.18-.07,1.24-.11,2.63-.11,4.38v6.75a5.38,5.38,0,0,0,.13,1.87c.12.27.32.27.55.29l.42,0c.12,0,.16,0,.16.2s0,.21-.16.23a26.78,26.78,0,0,0-2.81.31c-.12,0-.18-.06-.18-.22,0-.43,0-.77,0-1.22A2.74,2.74,0,0,1,840,63.35c-2.47,0-3.89-1.79-3.89-4.32s1.59-4.49,4.12-4.49a2.89,2.89,0,0,1,2.13.92Zm0,5.48a2.68,2.68,0,0,0-.35-1.59,1.83,1.83,0,0,0-1.54-1c-1.41,0-2.23,1.54-2.23,3.81s.9,3.53,2.21,3.53a1.93,1.93,0,0,0,1.55-.95,2.14,2.14,0,0,0,.36-1.46Z"/><path class="cls-5" d="M853.75,59.87c.19.56.28.89.46,1.5.24-.63.36-.94.56-1.59l.76-2.36c.29-.9.38-1.51.23-1.78s-.45-.31-.93-.36c-.09,0-.13,0-.13-.22s0-.21.14-.21c.53,0,1.21,0,1.7,0s1,0,1.51,0c.14,0,.18,0,.18.21s0,.2-.18.22a1.63,1.63,0,0,0-.92.43,5.32,5.32,0,0,0-.9,1.71L855,60.77c-.34.94-.46,1.34-.75,2.11a4.62,4.62,0,0,1-1.1.41.16.16,0,0,1-.16-.1c-.25-.76-.47-1.37-.83-2.36l-1.28-3.41a8,8,0,0,0-.84-1.85c-.24-.24-.44-.25-1-.29-.11,0-.14,0-.14-.22s0-.21.14-.21c.69,0,1.48,0,2.07,0s1.5,0,2.18,0c.13,0,.14,0,.14.21s0,.22-.12.22c-.51,0-.9,0-1,.31s.13.82.5,1.83Z"/><path class="cls-5" d="M869,61c0,1.15.23,1.58.65,1.58a1,1,0,0,0,.52-.12c.07,0,.16,0,.23.09s.07.18,0,.27a2.59,2.59,0,0,1-1.53.41,1.53,1.53,0,0,1-1.53-1,3.15,3.15,0,0,1-2.52,1.06c-1.76,0-2.3-1.1-2.3-1.91a2.07,2.07,0,0,1,.61-1.6,5.71,5.71,0,0,1,2.3-1,3.7,3.7,0,0,0,1.4-.65,1,1,0,0,0,.42-.7V57c0-1.35-.34-1.91-1.08-1.91a1.28,1.28,0,0,0-.94.36,1.26,1.26,0,0,0-.32,1c0,.49-.45.87-1.39.87-.55,0-.7-.22-.7-.58,0-.85,1.39-2.16,3.6-2.16,2.65,0,2.68,1.28,2.67,2.68Zm-1.8-2.54c-.18.27-.43.41-1.44.79a1.83,1.83,0,0,0-1.32,1.89,1.35,1.35,0,0,0,1.14,1.48,1.56,1.56,0,0,0,1.6-1.57Z"/><path class="cls-5" d="M874.67,55.86c-.18,0-.23,0-.25-.2s0-.24.21-.27a27.36,27.36,0,0,0,2.85-.79c.11,0,.22.07.22.14,0,.5,0,1.06,0,1.53a3.21,3.21,0,0,1,2.79-1.71,2.53,2.53,0,0,1,2.63,2.58c0,.66,0,1.56,0,2v1.25a6.21,6.21,0,0,0,.14,1.91c.13.27.42.28.94.34.11,0,.14,0,.14.21s0,.2-.14.2c-.67,0-1.35,0-2,0s-1.37,0-2.06,0c-.12,0-.14,0-.14-.2s0-.21.14-.21c.49,0,.78-.06.92-.34a5.43,5.43,0,0,0,.15-1.91V57.93a3.4,3.4,0,0,0-.22-1.55,1.32,1.32,0,0,0-1.31-.9,2,2,0,0,0-1.62,1,2.31,2.31,0,0,0-.38,1.44v2.43a6.28,6.28,0,0,0,.11,1.91c.14.28.43.28,1,.34.12,0,.16,0,.16.21s0,.2-.16.2c-.63,0-1.34,0-1.93,0s-1.38,0-2.07,0c-.11,0-.13,0-.13-.2s0-.19.13-.21c.52-.06.81-.06,1-.34a5.63,5.63,0,0,0,.13-1.91V57.71a4.73,4.73,0,0,0-.13-1.51.46.46,0,0,0-.55-.38Z"/><path class="cls-5" d="M895.2,55a1,1,0,0,1,.72.85c0,.65-.2,1.19-.79,1.19s-.86-.69-1.08-1.12-.48-.75-.95-.75c-1.39,0-2.09,1.56-2.09,3.78s1.31,3.53,2.5,3.53a2.53,2.53,0,0,0,2.29-1.26c.09-.15.18-.13.32,0s.16.16.11.27A3.53,3.53,0,0,1,893,63.33,4,4,0,0,1,888.89,59,4.25,4.25,0,0,1,893,54.56,5.18,5.18,0,0,1,895.2,55Z"/><path class="cls-5" d="M902.78,58.92c0,2.38,1.46,3.56,2.57,3.56a2.75,2.75,0,0,0,2.5-1.29.24.24,0,0,1,.18-.09.26.26,0,0,1,.16.07c.08,0,.15.13.15.18a.61.61,0,0,1-.09.2,3.57,3.57,0,0,1-3.33,1.78A4.08,4.08,0,0,1,900.76,59a4.25,4.25,0,0,1,4.18-4.45,3.57,3.57,0,0,1,3.51,3.35.41.41,0,0,1-.09.31.29.29,0,0,1-.27.09c-1.82-.06-3.64-.08-5.24,0A2.49,2.49,0,0,0,902.78,58.92Zm3.52-1.35c.15,0,.17-.13.17-.29-.06-1-.49-2.18-1.53-2.18s-1.73,1-2,2.52A29,29,0,0,0,906.3,57.57Z"/><path class="cls-5" d="M917.68,61.26c1.51,0,1.87-.11,2.23-.43a4.8,4.8,0,0,0,1-1.39c.07-.13.12-.14.29-.09s.19.11.18.23c-.22.92-.67,2.53-1,3.46-1.22,0-2.17,0-3.47,0s-2.38,0-3.56,0c-.18,0-.24,0-.24-.3a.82.82,0,0,1,.11-.51,32,32,0,0,1,3.15-4.61c1.53-2,2.39-2.92,2.39-4.59,0-1.5-.52-2.58-1.54-2.58a1.49,1.49,0,0,0-1.5,1,3.91,3.91,0,0,0-.16,1.31c0,.51-.68.85-1.35.85-.5,0-.86-.14-.86-.69,0-1.15,1.45-3.06,3.87-3.06S921,51.35,921,53.1c0,2.31-1.65,3.17-3.47,4.86a12.88,12.88,0,0,0-3,3.3Z"/><path class="cls-5" d="M934.23,56.61c0,4.15-1.49,6.76-4,6.76s-4-2.49-4-6.65,1.48-6.81,4-6.81S934.23,52.51,934.23,56.61Zm-5.92.06c0,3.74.38,6.14,1.93,6.14s1.89-2.4,1.89-6.14-.36-6.2-1.89-6.2S928.31,52.9,928.31,56.67Z"/><path class="cls-5" d="M943.66,61.26c1.51,0,1.87-.11,2.23-.43a4.8,4.8,0,0,0,1-1.39c.07-.13.13-.14.29-.09s.2.11.18.23c-.22.92-.67,2.53-1,3.46-1.23,0-2.18,0-3.48,0s-2.37,0-3.56,0c-.18,0-.24,0-.24-.3a.82.82,0,0,1,.11-.51,32,32,0,0,1,3.15-4.61c1.53-2,2.4-2.92,2.4-4.59,0-1.5-.53-2.58-1.55-2.58a1.49,1.49,0,0,0-1.5,1,4.19,4.19,0,0,0-.16,1.31c0,.51-.68.85-1.35.85-.5,0-.86-.14-.86-.69,0-1.15,1.46-3.06,3.87-3.06s3.72,1.44,3.72,3.19c0,2.31-1.65,3.17-3.47,4.86a12.88,12.88,0,0,0-3,3.3Z"/><path class="cls-5" d="M955,52c-1,0-1.27.14-1.48.39a3.54,3.54,0,0,0-.63,1.19c-.06.13-.09.18-.32.13s-.22-.07-.2-.2c.14-.92.36-2.36.46-3.31,1.19.05,2.38.05,3.62.05s2.36,0,3.51-.05c.11,0,.15,0,.15.38s0,.34-.08.46a27.57,27.57,0,0,0-3.14,7.82,11.62,11.62,0,0,0-.28,2.38c0,.5,0,.77,0,1.2s-.68,1-1.37,1-1.13-.22-1.13-.8a11.3,11.3,0,0,1,1.3-4.57,46.71,46.71,0,0,1,3.45-6Z"/><path class="cls-5" d="M971.91,58c-.09,4.12-1.78,6-6.57,6.86-.09,0-.16-.24-.07-.27,3.72-1.44,4.86-3,4.86-6.86,0-.2,0-.4,0-.78,1.94.18,2.39.29,2.39.62C972.5,57.77,972.36,57.87,971.91,58Zm6.93-2.18c.68-.83.83-.94,1-.94s.31.11,1.17.94c.38.36.49.5.49.65,0,.32-.11.43-.81.43a.64.64,0,0,0-.51.18,10.87,10.87,0,0,1-1.71,1.13c-.07,0-.21,0-.18-.12a7.86,7.86,0,0,0,.76-1.86H967.73c0,1.39-.63,2.42-1.71,2.42a.77.77,0,0,1-.79-.8c0-.39.18-.66.68-.95a2.35,2.35,0,0,0,1.41-2.18c0-.09.18-.11.2,0a5.05,5.05,0,0,1,.19,1.12ZM974,53.55h3.17c.85-1,1.06-1.13,1.19-1.13s.36.14,1.15.79c.34.29.49.45.49.58s-.06.18-.24.18H968.52a8.4,8.4,0,0,0-1.22.1l-.2-.66a6.55,6.55,0,0,0,1.37.14h3.83V51.41h-5.36a8,8,0,0,0-1.28.11l-.2-.67a7,7,0,0,0,1.41.14h5.43v-.75a15,15,0,0,0-.1-1.77c2.25.2,2.46.4,2.46.6s-.2.3-.63.45V51h4.45c.86-1,1.08-1.17,1.2-1.17s.36.15,1.23.81c.39.33.54.47.54.6s-.06.18-.24.18H974Zm1.77,8.77c0,.51.16.65,1.65.65a5.34,5.34,0,0,0,1.77-.16c.54-.16.84-.85,1.38-2.63,0-.09.22-.09.22,0,0,.65-.06,1.44-.06,1.94,0,.24,0,.29.15.35.48.23.61.46.61.77s-.24.77-.85,1a13.16,13.16,0,0,1-3.42.29c-2.61,0-3.16-.25-3.16-1.6v-3c0-1,0-2-.06-2.95,2.31.32,2.31.32,2.31.6s-.13.28-.54.45Z"/><path class="cls-5" d="M995.32,63.42h4.37c1-1.31,1.26-1.46,1.39-1.46s.36.15,1.42,1c.48.4.63.56.63.68s-.06.18-.24.18H989a11.9,11.9,0,0,0-1.73.11l-.2-.66a14.06,14.06,0,0,0,1.91.14h4.46v-12a23.78,23.78,0,0,0-.1-2.54c2.37.2,2.59.4,2.59.6s-.22.36-.63.5v5.42h2.93c1-1.27,1.19-1.42,1.32-1.42s.36.15,1.36,1c.45.38.6.54.6.67s-.06.18-.24.18h-6Z"/><path class="cls-5" d="M1012.63,63.24V64c0,.49-.38.74-1.1.74-.54,0-.79-.18-.79-.61,0-1.8.12-3.64.12-10.92,0-1.49,0-3-.12-4.48a9.18,9.18,0,0,1,2.14,1.15h7.34c.69-.79.83-.9,1-.9s.35.11,1.08.68c.35.28.45.4.45.55s-.1.36-.55.64V53c0,5.69.1,9.63.1,10.93,0,.54-.39.77-1.09.77s-.8-.18-.8-.57v-.85Zm7.75-13h-7.75V54h7.75Zm0,4.17h-7.75v3.79h7.75Zm0,4.2h-7.75v4.2h7.75Z"/><path class="cls-5" d="M1033.25,54.72c1.15.38,1.9,1.1,1.9,1.93,0,.54-.3.92-.75.92-.29,0-.42-.18-.51-.67a3.74,3.74,0,0,0-.64-1.82c0,3.24.07,7.75.07,9.31,0,.42-.36.6-.94.6s-.7-.15-.7-.53c0-.93.13-4.82.14-8.08a10.5,10.5,0,0,1-2.5,4.09c0,.07-.2,0-.16-.11a26.39,26.39,0,0,0,2.36-7.46h-.74a7.25,7.25,0,0,0-1.13.11l-.2-.67a6.35,6.35,0,0,0,1.33.15h.94V50.63c0-.86,0-1.56-.09-2.3,1.92.21,2.25.3,2.25.61s-.17.33-.63.5v3.05h0c.38-.81.6-1,.72-1s.31.15.79.69a1,1,0,0,1,.31.5c0,.13,0,.18-.23.18h-1.62Zm4.35,6.77a9.92,9.92,0,0,1-3.71,2.49c-.09,0-.19-.13-.12-.18a10.33,10.33,0,0,0,2.09-2.56,12.52,12.52,0,0,0,.57-1.24c1.57.76,1.91,1,1.91,1.21S1038.12,61.49,1037.6,61.49Zm3.35-.75c0,.43,0,1.91,0,2.68a1.35,1.35,0,0,1-.37,1,2.22,2.22,0,0,1-1.57.49c-.16,0-.22-.08-.27-.37-.13-.63-.45-.95-1.85-1.27-.09,0-.08-.24,0-.24.72,0,1.5.06,2.11.06.23,0,.27,0,.27-.29V59.4h-3.58a6.8,6.8,0,0,0-1.1.11l-.2-.66a6.56,6.56,0,0,0,1.3.14h7.5c.83-1,1-1.14,1.17-1.14s.36.15,1.16.8c.35.29.5.45.5.57s-.06.18-.24.18H1041Zm-4.09-5.32c0,.44-.25.63-.9.63-.43,0-.64-.14-.64-.5s0-.76,0-2.12c0-.8,0-1.59-.07-2.4a14.33,14.33,0,0,1,1.69.77h1.15V49.86h-1.83a11.56,11.56,0,0,0-1.44.11l-.2-.67a9.48,9.48,0,0,0,1.65.14h7.11c.81-1,1-1.15,1.15-1.15s.38.15,1.18.81c.37.33.53.45.53.58s0,.18-.23.18h-3.74V51.8h1.29c.51-.57.65-.68.8-.68s.34.11.95.59c.29.24.4.36.4.51s-.15.32-.51.54v.43c0,1.15.06,1.89.06,2.14s-.29.56-.94.56c-.43,0-.65-.16-.65-.5v-.11h-6.86Zm5,1.5c.71-.88.93-1,1.06-1s.36.15,1.08.72c.3.25.45.42.45.54s-.06.18-.24.18h-7.07a5.53,5.53,0,0,0-1,.11l-.2-.67a5,5,0,0,0,1.19.15Zm-3.75-4.7h-1.28v2.65h1.28Zm2.77-2.36h-1.35V51.8h1.35Zm0,5V52.22h-1.35v2.65Zm3.82,9c-.45,0-.67-.2-.9-.83a6.64,6.64,0,0,0-2-2.83c-.07,0,.05-.16.14-.14,2.29.67,3.66,1.6,3.66,2.75A.94.94,0,0,1,1044.73,63.89Zm-1-11.67h-1.4v2.65h1.4Z"/><path class="cls-5" d="M583.43,247a21.44,21.44,0,0,1-2.26,2.73c-.11.11-.31-.15-.26-.26a38.87,38.87,0,0,0,3.61-9,25.2,25.2,0,0,0,.68-3.92c3.09.8,3.4.91,3.4,1.27s-.08.37-1,.65a31,31,0,0,1-2.73,6.3c1.45.2,1.66.28,1.66.57s-.18.39-.7.65V259.5c0,.76-.44,1.1-1.4,1.1s-1.15-.26-1.15-1,.16-2.73.16-6.84Zm6.34,9.36c0,1.69-.7,3-2,3a1.14,1.14,0,0,1-1.22-1.17c0-.62.26-1,1-1.3a2.45,2.45,0,0,0,1.72-2.13c0-.13.26-.16.28,0A7,7,0,0,1,589.77,256.38Zm1.38-16c1.87.57,2.75,1.35,2.75,2.47a1.11,1.11,0,0,1-1,1.09h4.24a12.06,12.06,0,0,0,.54-1.82,10.74,10.74,0,0,0,.29-1.66c2.21.67,2.89.91,2.89,1.17s-.16.33-.84.46A10.13,10.13,0,0,1,598,243.9h3.57c1.11-1.35,1.42-1.56,1.61-1.56s.52.21,1.58,1.09c.47.39.68.63.68.81s-.08.26-.34.26H588.91a13.81,13.81,0,0,0-1.87.15l-.28-1a10.69,10.69,0,0,0,2.1.21h3.51a.9.9,0,0,1-.73-.75,5.21,5.21,0,0,0-1.17-2.81h-.21a13.81,13.81,0,0,0-1.87.15l-.28-1a10.69,10.69,0,0,0,2.1.21h4.16v-1.59c0-.49,0-1-.1-1.58,3,.26,3.3.52,3.3.78s-.26.41-.78.67v1.72h3.77c1.09-1.33,1.4-1.54,1.58-1.54s.52.21,1.64,1.07c.49.42.7.62.7.81s-.08.26-.34.26Zm.05,12.25c-.08.49-.52.72-1.3.72s-1.06-.28-1.06-.93c0-.42.07-.86.07-2.6,0-1.51,0-3-.15-4.55a20,20,0,0,1,2.73,1.22h8.11c.85-1,1.06-1.12,1.27-1.12s.49.16,1.38.83c.41.31.57.5.57.7s-.16.39-.68.76v.78c0,2.08.05,3.51.05,4,0,.7-.46,1-1.45,1-.65,0-.94-.24-.94-.81v0Zm8.6-5.54h-8.57v2.18h8.57Zm0,2.78h-8.57V252h8.57Zm.19,7.39c0,.33.07.46.31.54.62.16.8.37.8.86s-.39.91-1.22,1.17a15.83,15.83,0,0,1-4.16.39c-3.32,0-4.39-.44-4.39-1.82,0-.55,0-1.12,0-3.38a5.71,5.71,0,0,0-.1-1.15c2.65.29,2.88.34,2.88.71s-.23.44-.7.57v2.26c0,.73.37.89,2.47.89a6.94,6.94,0,0,0,2.26-.19c.73-.28,1-.91,1.54-2.65,0-.13.26-.1.26,0Zm-3.33-.29c-.6,0-.68-.11-1.07-1.41a4.83,4.83,0,0,0-1.06-1.87c-.08-.1,0-.21.1-.18,2.21.39,3.22,1.09,3.22,2.21A1.21,1.21,0,0,1,596.66,256.93Zm7.12,2.16c-.68,0-.91-.29-1.17-1.56a5.35,5.35,0,0,0-1.43-2.81c-.1-.08,0-.29.13-.24,2.57.84,3.69,1.75,3.69,3.13A1.31,1.31,0,0,1,603.78,259.09Z"/><path class="cls-5" d="M616.93,259.32c0,.65-.57,1-1.58,1-.81,0-1.12-.23-1.12-.88,0-2.34.15-4.68.15-14.07,0-2.7,0-5.41-.15-8.14,1.35.65,1.56.75,2.93,1.43h14.69c1-1.09,1.17-1.25,1.38-1.25s.47.16,1.48,1c.44.39.6.57.6.78s-.16.39-.68.78v2.86c0,12.67.08,13.16.08,14.67,0,1.3-.34,1.9-1.22,2.31a5.32,5.32,0,0,1-1.72.39c-.44,0-.54-.18-.62-.7-.13-.88-.65-1.53-3.07-2.05-.13,0-.1-.31,0-.31,1.37.05,2.65.07,3.48.07.36,0,.44-.1.44-.46v-8.51h-15.1Zm6.14-11.73v-8.37h-6.14v8.37Zm9-8.37h-6.39v8.37H632Z"/><path class="cls-5" d="M685.1,262.94c-.13.05-.29-.21-.18-.28,7.09-5.05,9.82-10.59,9.82-20.11a17.57,17.57,0,0,0-.13-2.18c3.4.31,3.77.39,3.77.88,0,.26-.13.37-.91.73,0,.81-.05,1.59-.11,2.39a20.47,20.47,0,0,0,3,8.92,17.35,17.35,0,0,0,8.48,6.82c.13.05.13.28,0,.31a2.37,2.37,0,0,0-1.72,1.87c-.15.44-.26.55-.49.55a3.37,3.37,0,0,1-1.35-.76,20.83,20.83,0,0,1-6.45-8.37,25.72,25.72,0,0,1-1.61-7C696.25,255,692.79,259.43,685.1,262.94Z"/><path class="cls-6" d="M533.17,178.18a48.11,48.11,0,0,1,16.37,2.46,23.08,23.08,0,0,1,10.44,7,17.27,17.27,0,0,1,3.66,11.17,17.68,17.68,0,0,1-2,8.64,16.13,16.13,0,0,1-5.22,5.76,18.16,18.16,0,0,1-7,2.82,16.35,16.35,0,0,1-7.25-.3,30.5,30.5,0,0,1,7.85,1.14,26.17,26.17,0,0,1,8.16,3.84,20.85,20.85,0,0,1,6.42,7.32,24,24,0,0,1,2.52,11.58,28,28,0,0,1-3.9,14.83A31.92,31.92,0,0,1,552.72,265a45.22,45.22,0,0,1-14.81,5.88,56.78,56.78,0,0,1-16.92,1,50.86,50.86,0,0,1-16.61-4.38l.24-1.2a47.27,47.27,0,0,0,14-1.8,36.69,36.69,0,0,0,11.69-5.7,28.2,28.2,0,0,0,8-9.12,24.35,24.35,0,0,0,2.94-11.95q0-7.32-3.42-11.7a20.12,20.12,0,0,0-8.52-6.42,27.42,27.42,0,0,0-10.25-2l.24-1.2a19.44,19.44,0,0,0,17.51-10,17.38,17.38,0,0,0,2-10.51,12.82,12.82,0,0,0-2.52-7.14,11.43,11.43,0,0,0-5.34-3.78,15.92,15.92,0,0,0-6.78-.72q-7.18.6-10.19,6.3t-2.76,17h-1.2L503.3,186.7a34.35,34.35,0,0,1,12.36-6.18A60.78,60.78,0,0,1,533.17,178.18Z"/><path class="cls-5" d="M484.67,57.19a13.61,13.61,0,0,1-2.09,1.44c-.07,0-.18-.13-.12-.2a19.75,19.75,0,0,0,3-3.94,10.1,10.1,0,0,0,.92-2.11c1.83.9,1.91.94,1.91,1.15s-.15.29-.67.36a11.83,11.83,0,0,1-1.57,2c.65.12.76.18.76.36s-.13.27-.49.43v7.49c0,.53-.3.76-.93.76-.42,0-.78-.14-.78-.63s.11-1.91.11-4.79Zm2.68-7.35a13,13,0,0,1-4.48,3.77c-.07,0-.2-.13-.12-.18a15,15,0,0,0,2.41-3.23,7.79,7.79,0,0,0,.79-1.87c1.42.52,2.18.92,2.18,1.19S487.89,49.82,487.35,49.84ZM494,62.72a10.48,10.48,0,0,0,2.21.2,28.45,28.45,0,0,0,3.24-.2c.09,0,.07.18,0,.23a1.53,1.53,0,0,0-.81,1.17c-.07.4-.14.49-.31.51h-.5c-2.63,0-4-.26-5.36-1.06a6.35,6.35,0,0,1-2.63-3.31,9.55,9.55,0,0,1-3.22,4.34c-.07,0-.2-.13-.15-.2a12.71,12.71,0,0,0,2.43-7.92c0-.2,0-.53,0-.9,1.83.28,2.21.37,2.21.63s-.12.27-.48.41a17,17,0,0,1-.58,3,5.69,5.69,0,0,0,2.38,2.51V53.41h-2.79a5.64,5.64,0,0,0-1.08.11l-.2-.67a5.09,5.09,0,0,0,1.2.14h4a19.31,19.31,0,0,0,1.24-3.17c.11-.43.22-.84.31-1.26,1.74.65,2.28.92,2.28,1.14s-.16.29-.7.29a17.44,17.44,0,0,1-2.48,3h2.21c.79-1,1-1.13,1.13-1.13s.36.14,1.14.79c.34.29.48.45.48.58s-.05.18-.23.18H494v4h1.65c.79-.95,1-1.1,1.14-1.1s.34.15,1.09.78c.33.27.47.43.47.56s-.05.17-.23.17H494Zm-2.72-10.3c-.5,0-.58-.11-.79-1.39a5.32,5.32,0,0,0-.94-2.07c0-.07.06-.2.15-.16,1.74.7,2.64,1.51,2.64,2.41A1.12,1.12,0,0,1,491.26,52.42Z"/><path class="cls-5" d="M513.39,59.6a11.27,11.27,0,0,0,2.93,1.77,15,15,0,0,0,4.74,1c.09,0,.09.16,0,.2-.67.25-.83.4-1.32,1.49-.07.15-.16.2-.26.2a3.39,3.39,0,0,1-.85-.27,13.22,13.22,0,0,1-3.17-1.74,11.35,11.35,0,0,1-2.3-2.38c.05,2.3.11,4,.11,4.48s-.29.69-1.07.69c-.48,0-.7-.2-.7-.6s.09-2.18.13-3.76a13.07,13.07,0,0,1-7.13,3.66c-.09,0-.18-.13-.09-.17a15.06,15.06,0,0,0,6-4.61h-4.24a9,9,0,0,0-1.26.11l-.2-.67a6.86,6.86,0,0,0,1.38.15h5.49V57.51h-3.52a9.21,9.21,0,0,0-1.28.11l-.2-.67a7.22,7.22,0,0,0,1.42.15h3.58V55.46h-4.46a9.6,9.6,0,0,0-1.3.11l-.19-.67a7.26,7.26,0,0,0,1.44.15H510c-.24-.08-.36-.31-.51-.83a3.35,3.35,0,0,0-.9-1.55c-.07-.06,0-.16.11-.15,1.62.26,2.45.82,2.45,1.64a.93.93,0,0,1-.63.89h2.9a12.47,12.47,0,0,0,.75-1.55,7.42,7.42,0,0,0,.36-1.14c1.46.56,2.06.85,2.06,1.07s-.13.26-.8.3A10.52,10.52,0,0,1,514,55.05h3c.84-.94,1.06-1.08,1.18-1.08s.36.14,1.16.75c.34.29.48.43.48.56s-.05.18-.23.18h-6.43V57.1H516c.77-.87,1-1,1.12-1s.36.14,1,.7c.31.26.45.42.45.54s-.05.18-.23.18h-5.19v1.68h4.47c.91-1,1.13-1.17,1.26-1.17s.34.14,1.17.81c.36.29.5.47.5.59s-.05.18-.23.18ZM510,49.68a7.54,7.54,0,0,0-.09-1.32c2,.2,2.23.35,2.23.56s-.15.26-.58.45v2.56h1.5V49.68a7.54,7.54,0,0,0-.09-1.32c2,.22,2.25.35,2.25.56s-.13.26-.6.45v2.56h.74a17.22,17.22,0,0,0,1-2,7.91,7.91,0,0,0,.39-1.2c1.59.66,2.14.95,2.14,1.17s-.12.32-.82.34A11.59,11.59,0,0,1,516,51.93h2.1c.81-.9,1-1,1.15-1s.36.14,1.12.72c.34.28.49.43.49.55s-.06.18-.24.18H506.1a10.28,10.28,0,0,0-1.33.11l-.2-.66a8.58,8.58,0,0,0,1.48.14h4Zm-1.93,1.93c-.41,0-.58-.17-.76-.71a3.52,3.52,0,0,0-1-1.76c-.07-.06,0-.18.09-.16,1.69.29,2.58.88,2.58,1.73A.94.94,0,0,1,508.1,51.61Z"/><path class="cls-5" d="M532.36,63.2a16.48,16.48,0,0,1-5.91,1.59c-.09,0-.14-.18-.05-.22a19.27,19.27,0,0,0,3.58-1.8,5,5,0,0,0,1.22-1.13c1.62.77,2.11,1.06,2.11,1.26S533.11,63.24,532.36,63.2Zm-2.27-1.92c0,.5-.31.74-1,.74s-.79-.18-.79-.6c0-.72.09-1.67.09-4.59,0-1.14,0-2.45-.09-3.6a15.55,15.55,0,0,1,2,1h8.12c.63-.66.77-.77.91-.77s.35.11,1.05.61c.32.25.43.38.43.52s-.13.29-.54.56v1.13c0,2.54.07,4.4.07,5s-.3.72-1,.72c-.55,0-.75-.17-.75-.63v-.06h-8.46Zm.84-8.63c0,.5-.34.67-1,.67-.41,0-.74-.11-.74-.51s0-1.13,0-2.21c0-.79,0-1.1,0-1.89a18.46,18.46,0,0,1,1.94.91h6.48c.65-.7.79-.81.94-.81s.32.11,1,.65c.3.26.41.38.41.53s-.09.23-.52.48v.34c0,.87,0,1.53,0,1.79,0,.48-.34.68-1,.68s-.75-.18-.75-.63Zm7.62,2h-8.46v1.76h8.46Zm-8.46,4h8.46V56.77h-8.46Zm0,2.27h8.46V59h-8.46ZM537.74,50h-6.81v2.2h6.81Zm2.72,14.88c-.37,0-.54-.11-1-.56a8.94,8.94,0,0,0-3.82-2.24c-.09,0,0-.19.07-.19,4,.16,5.58.81,5.58,2A.85.85,0,0,1,540.46,64.92Z"/><path class="cls-5" d="M560.66,56.31c1-1.3,1.26-1.44,1.39-1.44s.36.14,1.4,1c.49.39.63.55.63.68s-.05.18-.23.18H549.74a17.23,17.23,0,0,0-1.75.11l-.2-.67a12.75,12.75,0,0,0,1.91.15Z"/><path class="cls-5" d="M569.44,64.64c-.09,0-.2-.14-.13-.19,4.92-3.5,6.81-7.33,6.81-13.92A12.17,12.17,0,0,0,576,49c2.35.22,2.61.27,2.61.61s-.1.26-.63.51c0,.56,0,1.1-.08,1.66A14.24,14.24,0,0,0,580,58a11.94,11.94,0,0,0,5.87,4.72c.09,0,.09.2,0,.22a1.63,1.63,0,0,0-1.19,1.29c-.11.31-.18.38-.34.38a2.34,2.34,0,0,1-.94-.52,14.48,14.48,0,0,1-4.46-5.8,17.44,17.44,0,0,1-1.11-4.82C577.16,59.15,574.77,62.21,569.44,64.64Z"/><path class="cls-5" d="M603.43,56c.65-.71.79-.81.94-.81s.34.1,1,.64c.31.24.42.36.42.51s-.06.18-.54.52V58c0,3.2.07,5.36.07,6.08,0,.49-.34.74-1.08.74-.47,0-.69-.18-.69-.59v-.49H593.44a6.32,6.32,0,0,0-1.2.13l-.2-.67a8,8,0,0,0,1.37.13h10.16V59.87h-9.41A6.32,6.32,0,0,0,593,60l-.2-.67a8,8,0,0,0,1.37.13h9.44v-3.1H593.8a5.88,5.88,0,0,0-1.33.16l-.2-.72a7.6,7.6,0,0,0,1.46.15h4.18V50.29c0-.57,0-1.11-.09-1.66,2.21.2,2.42.38,2.42.56s-.19.33-.61.47V56Zm-8.28-1.28c-.54,0-.74-.25-.92-1.12a7.45,7.45,0,0,0-1.51-3.37c-.05-.07,0-.19.13-.16,2.18.88,3.27,2.23,3.27,3.42C596.12,54.18,595.75,54.67,595.15,54.67Zm9.9-3.28a15.94,15.94,0,0,1-3.58,3.91c-.07.05-.27-.09-.22-.16a21.12,21.12,0,0,0,1.82-3.77,11,11,0,0,0,.49-1.6c1.67.68,2.17.95,2.17,1.21S605.7,51.25,605.05,51.39Z"/><path class="cls-5" d="M620.54,51.89a1.52,1.52,0,0,1,.81.17.59.59,0,0,1,.4.54c0,.27-.18.5-.56.64a29.56,29.56,0,0,1-3,.92c-.29.76-.86,2.38-1.26,3.46s-1.06,2.79-2,5.22c-.27.69-.6.92-1,.92a.83.83,0,0,1-.52-.27.8.8,0,0,1-.2-.65,3.15,3.15,0,0,1,.49-1.26,62.69,62.69,0,0,0,3.2-7.18,11.08,11.08,0,0,1-2,.25,2,2,0,0,1-1.73-.7,1.72,1.72,0,0,1-.48-.94c0-.11,0-.16.09-.16s.18.07.3.16a2.19,2.19,0,0,0,1.48.47,11.72,11.72,0,0,0,2.75-.43,11.81,11.81,0,0,0,.56-2.36.63.63,0,0,0-.38-.63,3.92,3.92,0,0,0-.66-.22c-.13,0-.2-.07-.2-.14s0-.2.25-.31a1.8,1.8,0,0,1,.85-.21,3.38,3.38,0,0,1,1.85.72.67.67,0,0,1,.27.5.93.93,0,0,1-.25.54,4.6,4.6,0,0,0-.87,1.76,4,4,0,0,0,1.1-.52A1.6,1.6,0,0,1,620.54,51.89Zm-.34,7.51a3.3,3.3,0,0,0-.16,1.1c0,1,.84,1.71,2.73,1.71a7.32,7.32,0,0,0,1.82-.14,2.69,2.69,0,0,1,.94-.13,2.19,2.19,0,0,1,.9.24.84.84,0,0,1,.45.75c0,.47-.43.69-1,.78a14.15,14.15,0,0,1-2,.09,8.89,8.89,0,0,1-2.4-.31,2.67,2.67,0,0,1-2.16-2.56,3.26,3.26,0,0,1,.51-1.74c.09-.16.23-.31.32-.31s.11.06.11.15A1.66,1.66,0,0,1,620.2,59.4Zm1.91-3.81a6.16,6.16,0,0,0-2.05.7.31.31,0,0,1-.17.05.14.14,0,0,1-.16-.16c0-.07.06-.14.13-.23a5.88,5.88,0,0,1,1.65-1.1,6.35,6.35,0,0,1,2.29-.43,5.08,5.08,0,0,1,2,.39.92.92,0,0,1,.61.88.57.57,0,0,1-.63.54,2.8,2.8,0,0,1-.7-.09,5,5,0,0,0-.67,0,6.34,6.34,0,0,0-2.54,1,.4.4,0,0,1-.27.09c-.09,0-.07-.07-.07-.13a18.11,18.11,0,0,1,1.73-1.51A4.48,4.48,0,0,0,622.11,55.59Z"/><path class="cls-5" d="M636.77,53.84a8.17,8.17,0,0,1,1-2,1.89,1.89,0,0,1,1.53-.83,2.39,2.39,0,0,1,2,1.28,7.67,7.67,0,0,1,.88,3.73A8,8,0,0,1,641,60.81,6.89,6.89,0,0,1,638.61,63a11,11,0,0,1-3.1,1.26,1.55,1.55,0,0,1-.52.09c-.14,0-.23,0-.23-.18s.1-.14.32-.23a8.6,8.6,0,0,0,4.27-3.28,8.29,8.29,0,0,0,1.13-4.92,9.75,9.75,0,0,0-.36-3c-.27-.77-.65-1-1.12-1-.84,0-1.47.68-2.34,4.34a10.23,10.23,0,0,0-.34,1.93,10.38,10.38,0,0,0,.09,1.2c0,.49-.18.67-.63.67s-.95-.58-1.17-1.31a7.94,7.94,0,0,1-.25-2.42,25.19,25.19,0,0,1,.43-3.92,9,9,0,0,0,.15-1.55,1.63,1.63,0,0,0-.47-1.1c-.07-.09-.15-.15-.15-.23s.17-.22.4-.22a.94.94,0,0,1,.52.22,3.38,3.38,0,0,1,1.19,1.38,1.9,1.9,0,0,1,.22.78.7.7,0,0,1-.24.57,1.94,1.94,0,0,0-.3.54,9.69,9.69,0,0,0-.65,3.14,5.54,5.54,0,0,0,0,1c0,.14.18.13.24,0C636.2,55.33,636.47,54.63,636.77,53.84Z"/><path class="cls-5" d="M657.09,53.28a7.57,7.57,0,0,1-.4,1.91,12.67,12.67,0,0,1-1.13,2.59,14.86,14.86,0,0,1-2,3,2,2,0,0,1-1.5.74,1.82,1.82,0,0,1-1.36-.7,4.48,4.48,0,0,1-1-3.28,5.59,5.59,0,0,1,.77-2.74,6.93,6.93,0,0,1,2.43-2.52,8,8,0,0,1,4.36-1.17,6.91,6.91,0,0,1,4.46,1.4,5.56,5.56,0,0,1,2.11,4.58,4.89,4.89,0,0,1-1.66,3.71,7.87,7.87,0,0,1-2.66,1.6,12.83,12.83,0,0,1-3.69.69c-.27,0-.4,0-.4-.18s.11-.18.34-.24a8.94,8.94,0,0,0,4.63-2.36A5.36,5.36,0,0,0,662,56.14a3.94,3.94,0,0,0-1.59-3.38,5.6,5.6,0,0,0-2.88-1,8.59,8.59,0,0,0-1.13,0A2.52,2.52,0,0,1,657.09,53.28Zm-4.38.07a5.5,5.5,0,0,0-1.53,2.22,4.68,4.68,0,0,0-.3,1.71,3.47,3.47,0,0,0,.45,1.94,1.15,1.15,0,0,0,.79.6c.29,0,.56-.18,1.24-1.15a21.64,21.64,0,0,0,2.41-4.42,4.24,4.24,0,0,0,.38-1.53.94.94,0,0,0-.32-.81A6.14,6.14,0,0,0,652.71,53.35Z"/><path class="cls-5" d="M676.34,58c-.09,4.12-1.78,6-6.57,6.86-.09,0-.16-.24-.07-.27,3.72-1.44,4.86-3,4.86-6.86,0-.2,0-.4,0-.78,1.94.18,2.39.29,2.39.62C676.93,57.77,676.79,57.87,676.34,58Zm6.93-2.18c.68-.83.83-.94,1-.94s.31.11,1.17.94c.38.36.49.5.49.65,0,.32-.11.43-.81.43a.64.64,0,0,0-.51.18,10.87,10.87,0,0,1-1.71,1.13c-.07,0-.21,0-.18-.12a7.86,7.86,0,0,0,.76-1.86H672.16c0,1.39-.63,2.42-1.71,2.42a.78.78,0,0,1-.79-.8c0-.39.18-.66.69-.95a2.35,2.35,0,0,0,1.4-2.18c0-.09.18-.11.2,0a5.75,5.75,0,0,1,.2,1.12Zm-4.81-2.29h3.17c.85-1,1.06-1.13,1.19-1.13s.36.14,1.15.79c.34.29.49.45.49.58s-.06.18-.24.18H673a8.51,8.51,0,0,0-1.22.1l-.2-.66a6.55,6.55,0,0,0,1.37.14h3.83V51.41h-5.36a8,8,0,0,0-1.28.11l-.19-.67a6.82,6.82,0,0,0,1.4.14h5.43v-.75a15,15,0,0,0-.1-1.77c2.25.2,2.46.4,2.46.6s-.2.3-.63.45V51h4.45c.86-1,1.08-1.17,1.2-1.17s.36.15,1.23.81c.39.33.54.47.54.6s-.06.18-.24.18h-7.18Zm1.77,8.77c0,.51.16.65,1.65.65a5.34,5.34,0,0,0,1.77-.16c.54-.16.84-.85,1.38-2.63,0-.09.22-.09.22,0,0,.65-.06,1.44-.06,1.94,0,.24,0,.29.15.35.48.23.61.46.61.77s-.23.77-.85,1a13.16,13.16,0,0,1-3.42.29c-2.61,0-3.16-.25-3.16-1.6v-3c0-1,0-2-.06-2.95,2.31.32,2.31.32,2.31.6s-.13.28-.54.45Z"/><path class="cls-5" d="M699.75,63.42h4.37c1-1.31,1.26-1.46,1.39-1.46s.36.15,1.42,1c.49.4.63.56.63.68s0,.18-.23.18H693.45a11.9,11.9,0,0,0-1.73.11l-.2-.66a14.06,14.06,0,0,0,1.91.14h4.46v-12a23.78,23.78,0,0,0-.1-2.54c2.37.2,2.59.4,2.59.6s-.22.36-.63.5v5.42h2.93c1-1.27,1.19-1.42,1.32-1.42s.36.15,1.36,1c.45.38.6.54.6.67s-.06.18-.24.18h-6Z"/><path class="cls-5" d="M720.08,49.37a6.54,6.54,0,0,0-.09-1.06c2.25.2,2.47.4,2.47.59s-.24.35-.63.51v1.08h4.39c1-1.08,1.2-1.22,1.33-1.22s.34.14,1.19.84c.38.33.52.49.52.61s0,.18-.23.18H714.59a9,9,0,0,0-1.26.11l-.2-.66a8.17,8.17,0,0,0,1.44.14h5.51Zm6.26,7.73c.62-.67.76-.78.9-.78s.33.11,1,.65c.31.27.42.4.42.54s-.15.34-.58.56V59c0,2.89,0,3.59,0,4.43a1.27,1.27,0,0,1-.68,1.32,2.28,2.28,0,0,1-1.15.31c-.24,0-.33-.06-.42-.51s-.34-.79-1.58-1.21c-.09,0-.09-.21,0-.21.83.07,1.33.11,1.93.11.18,0,.23-.06.23-.24V57.51H715.69v6.68c0,.56-.29.78-1,.78-.54,0-.72-.18-.72-.68,0-1,.06-2,.06-6,0-.71,0-1.41-.06-2.11a9.88,9.88,0,0,1,1.85.9Zm-8.29-1.55v.14c0,.47-.33.67-1,.67-.48,0-.68-.16-.68-.63s0-.9,0-2.7c0-.49,0-1,0-1.46a14,14,0,0,1,1.78.86h5.65c.56-.68.71-.79.85-.79s.34.11,1,.61c.31.24.41.36.41.51s-.12.29-.48.48v.38c0,1,0,1.71,0,1.93,0,.56-.27.77-1,.77-.5,0-.68-.16-.68-.63v-.14Zm1.08,6.52v.43c0,.51-.26.69-1,.69-.5,0-.65-.15-.65-.6s0-.81,0-2.46c0-.6,0-1.21-.07-1.82.81.34.93.39,1.76.79h3.48c.54-.58.68-.69.82-.69s.33.11,1,.63c.27.24.38.36.38.51s-.09.29-.47.54v.34c0,.92.05,1.55.05,1.75,0,.47-.27.66-.92.66-.48,0-.7-.12-.7-.52v-.25ZM724,52.85h-5.9v2.29H724Zm-1.1,6.66h-3.72v2.15h3.72Z"/><line class="cls-7" x1="676.13" y1="237.21" x2="651.54" y2="261.82"/><polygon class="cls-5" points="1004.14 183.61 1004.13 183.61 1004.13 183.62 1004.14 183.61"/><polygon class="cls-5" points="1006.15 181.81 1006.15 181.81 1006.14 181.81 1006.15 181.81"/><polygon class="cls-5" points="959.62 181.81 959.64 181.82 959.63 181.82 959.63 181.81 959.62 181.81"/><polygon class="cls-5" points="974.72 177.4 974.68 177.39 974.69 177.39 974.69 177.39 974.72 177.4"/><path class="cls-5" d="M1024.11,142.75A26.9,26.9,0,0,0,1021,139a12.23,12.23,0,0,1-1.09-1.32,2.6,2.6,0,0,1-.39-.7,2.23,2.23,0,0,1,0-.5,15.48,15.48,0,0,1,.5-3,19.66,19.66,0,0,0,.65-4.33,7.2,7.2,0,0,0-.9-3.64,6.79,6.79,0,0,0-1.45-1.74,10.35,10.35,0,0,0-2.89-1.66c-1.41-.55-2.76-.89-3.81-1.25a10.64,10.64,0,0,1-1.29-.52,2.08,2.08,0,0,1-.57-.38h0a3.54,3.54,0,0,1-.64-1.16c-.41-1-.78-2.52-1.36-4.11a12.07,12.07,0,0,0-1.19-2.47,7.14,7.14,0,0,0-2.35-2.28,7.22,7.22,0,0,0-3.64-.9,19.63,19.63,0,0,0-4.33.66,15.18,15.18,0,0,1-3,.49,1.8,1.8,0,0,1-.5,0,3.56,3.56,0,0,1-1.09-.67c-.85-.67-1.92-1.8-3.23-2.89a12.28,12.28,0,0,0-2.3-1.54,7.18,7.18,0,0,0-3.18-.79,7.65,7.65,0,0,0-4,1.27,28.08,28.08,0,0,0-3.75,3.14,12.48,12.48,0,0,1-1.32,1.1,2.44,2.44,0,0,1-.7.38,1.75,1.75,0,0,1-.5,0,15.1,15.1,0,0,1-3-.49,19.24,19.24,0,0,0-4.34-.66,7.22,7.22,0,0,0-3.64.9l0,0h0a6.54,6.54,0,0,0-1.73,1.45,10.35,10.35,0,0,0-1.66,2.89c-.55,1.41-.89,2.76-1.25,3.81a10,10,0,0,1-.52,1.29,2,2,0,0,1-.37.57,3.66,3.66,0,0,1-1.17.65c-1,.41-2.51.77-4.1,1.35a11.89,11.89,0,0,0-2.47,1.2,7,7,0,0,0-2.28,2.35,7.2,7.2,0,0,0-.9,3.64,20.47,20.47,0,0,0,.65,4.34,14.55,14.55,0,0,1,.5,3,1.75,1.75,0,0,1-.05.5h0a3.45,3.45,0,0,1-.67,1.09c-.67.86-1.8,1.93-2.89,3.23a12.62,12.62,0,0,0-1.54,2.3,7.22,7.22,0,0,0-.79,3.19,7.65,7.65,0,0,0,1.27,4,28.08,28.08,0,0,0,3.14,3.75,13.59,13.59,0,0,1,1.1,1.32,2.19,2.19,0,0,1,.38.71l0,.05,0-.06a1.8,1.8,0,0,1,.05.5,14.62,14.62,0,0,1-.5,3,20.27,20.27,0,0,0-.65,4.34,7.22,7.22,0,0,0,.9,3.64,6.94,6.94,0,0,0,1.46,1.73,10.07,10.07,0,0,0,2.88,1.66c1.41.56,2.76.89,3.82,1.26a9.89,9.89,0,0,1,1.29.51,2.6,2.6,0,0,1,.57.38,3.5,3.5,0,0,1,.57,1c.25.58.49,1.37.76,2.24h0c.23.75.47,1.56.8,2.4a11,11,0,0,0,1.4,2.58,7.16,7.16,0,0,0,1,1L951,203.7l13.36-.4,8.33,10.46,9.47-20.46,9.46,20.46,8.34-10.46,13.36.4-9.27-20,.13-.06a7,7,0,0,0,2-1.8,11.18,11.18,0,0,0,1.48-2.8c.51-1.36.84-2.65,1.19-3.65a8.32,8.32,0,0,1,.5-1.23,2,2,0,0,1,.36-.54,3.52,3.52,0,0,1,1.17-.64c1-.41,2.51-.78,4.1-1.36a11.77,11.77,0,0,0,2.46-1.19,7,7,0,0,0,2.28-2.35,7.22,7.22,0,0,0,.9-3.64,19.66,19.66,0,0,0-.65-4.34,15.41,15.41,0,0,1-.5-3,2.15,2.15,0,0,1,0-.5,3.57,3.57,0,0,1,.68-1.1c.67-.85,1.79-1.92,2.88-3.23a11.81,11.81,0,0,0,1.54-2.3,7.22,7.22,0,0,0,.79-3.19A7.53,7.53,0,0,0,1024.11,142.75Zm-5.27,4.75a24.15,24.15,0,0,1-2.46,2.87,19.45,19.45,0,0,0-1.61,1.95,8.62,8.62,0,0,0-1.29,2.67,7.91,7.91,0,0,0-.26,2.11,20,20,0,0,0,.65,4.36,14.62,14.62,0,0,1,.5,2.95,1.82,1.82,0,0,1,0,.42l0,.1-.11.12a4.29,4.29,0,0,1-1.14.6c-.88.36-2.15.69-3.51,1.14a16.55,16.55,0,0,0-2.11.87,8.24,8.24,0,0,0-2.15,1.52,8.72,8.72,0,0,0-1.82,2.79,36.5,36.5,0,0,0-1.31,3.83,8.26,8.26,0,0,1-1,2.24h0l-.12.13,0,0h0l-.1,0a2.91,2.91,0,0,1-.42,0,14.84,14.84,0,0,1-3-.5,19.76,19.76,0,0,0-4.36-.65,7.89,7.89,0,0,0-2.1.26l-.07,0-.18.06h0a10.9,10.9,0,0,0-3.89,2.4c-1,.9-1.9,1.78-2.64,2.38h0a5.49,5.49,0,0,1-1,.71,1,1,0,0,1-.38.12.93.93,0,0,1-.39-.12,5.85,5.85,0,0,1-1-.7c-.76-.61-1.65-1.52-2.7-2.44a10.53,10.53,0,0,0-4.08-2.42,8,8,0,0,0-2.11-.26,20,20,0,0,0-4.36.65,14.62,14.62,0,0,1-3,.5,3.05,3.05,0,0,1-.42,0l-.1,0h0l-.15-.16h0A4.92,4.92,0,0,1,964,177c-.21-.52-.41-1.19-.64-1.93h0a28.6,28.6,0,0,0-1-2.82,9.21,9.21,0,0,0-1.92-3,9.55,9.55,0,0,0-3.28-2c-1.6-.63-3.14-1-4.24-1.41a6.35,6.35,0,0,1-1.21-.57,1,1,0,0,1-.3-.25h0l0-.1a3.05,3.05,0,0,1,0-.42,15.18,15.18,0,0,1,.49-2.95,19.34,19.34,0,0,0,.66-4.37,8.32,8.32,0,0,0-.26-2.1h0a9.3,9.3,0,0,0-1.82-3.37c-1.08-1.34-2.22-2.41-3-3.32a6.5,6.5,0,0,1-.76-1.1,1,1,0,0,1-.14-.42,1.54,1.54,0,0,1,.31-.72,23.55,23.55,0,0,1,2.47-2.86,19.34,19.34,0,0,0,1.6-2,8.46,8.46,0,0,0,1.3-2.66h0a8.45,8.45,0,0,0,.26-2.11,19.34,19.34,0,0,0-.66-4.37,15.23,15.23,0,0,1-.49-2.94,3.1,3.1,0,0,1,0-.43l0-.09h0l.12-.11a3.85,3.85,0,0,1,1.13-.61c.89-.36,2.15-.69,3.51-1.14a15.32,15.32,0,0,0,2.12-.87,8.4,8.4,0,0,0,2.15-1.52,9.4,9.4,0,0,0,2-3.28c.63-1.6,1-3.14,1.41-4.24a6.51,6.51,0,0,1,.57-1.22,1,1,0,0,1,.25-.29l.1,0a1.82,1.82,0,0,1,.42,0,14.62,14.62,0,0,1,3,.5,20,20,0,0,0,4.36.65,8,8,0,0,0,2.11-.26,9.18,9.18,0,0,0,3.36-1.82c1.34-1.07,2.41-2.21,3.32-2.95a6.11,6.11,0,0,1,1.1-.77,1.16,1.16,0,0,1,.42-.14,1.7,1.7,0,0,1,.72.31,24.49,24.49,0,0,1,2.86,2.47,22,22,0,0,0,1.95,1.61,8.62,8.62,0,0,0,2.67,1.29,7.89,7.89,0,0,0,2.1.26,19.76,19.76,0,0,0,4.36-.65,14.84,14.84,0,0,1,3-.5,1.86,1.86,0,0,1,.43,0l.09,0,.12.11a4.29,4.29,0,0,1,.6,1.14c.36.88.69,2.15,1.15,3.51a16.55,16.55,0,0,0,.86,2.12,8.21,8.21,0,0,0,1.53,2.15l.05.05-.05-.05a9.56,9.56,0,0,0,3.27,2c1.61.62,3.14,1,4.24,1.4a6.06,6.06,0,0,1,1.21.57c.25.16.3.25.3.26l0,.09a1.86,1.86,0,0,1,0,.43,14.66,14.66,0,0,1-.5,2.94,20,20,0,0,0-.65,4.37,8,8,0,0,0,.26,2.11,9.32,9.32,0,0,0,1.82,3.37c1.07,1.33,2.21,2.4,3,3.31a6.29,6.29,0,0,1,.77,1.11,1,1,0,0,1,.13.41S1019.14,147,1018.84,147.5Z"/><path class="cls-5" d="M982.89,120.88a25.9,25.9,0,0,0-1.51,51.76h0c.51,0,1,.05,1.51.05a25.91,25.91,0,0,0,0-51.81Zm15,40.91a21.12,21.12,0,0,1-15,6.22c-.42,0-.83,0-1.22,0h0a21.24,21.24,0,1,1,16.23-6.19Z"/><path class="cls-5" d="M655.06,122.61a5.73,5.73,0,1,0-5.73,5.73A5.73,5.73,0,0,0,655.06,122.61Z"/><path class="cls-5" d="M636.48,135.76V155a2.52,2.52,0,0,0,5,0V139.19h1.15v43a3.31,3.31,0,1,0,6.61,0v-25h1.07v25a3.31,3.31,0,1,0,6.61,0v-43h1.16V155a2.51,2.51,0,1,0,5,0V135.76a6.45,6.45,0,0,0-5.8-5.8H642.28A6.45,6.45,0,0,0,636.48,135.76Z"/><path class="cls-5" d="M705,164.17a26.31,26.31,0,0,1-3.86,1.05,11.24,11.24,0,0,1-1.84.16l.06-.21c.4-1.36.75-2.77,1-3.93s.4-2.05.46-2.37a10.63,10.63,0,0,1,.54-2.11,1.53,1.53,0,0,1,1-.92,9,9,0,0,0,5.32-3.92,12.39,12.39,0,0,0,1.88-7.66c-.14-1.82-.54-2.62-1.07-2.77s-1.22.33-2.07,1a27.31,27.31,0,0,1-3,2.28,9.32,9.32,0,0,1-1.58.79c-.12-1.25-.29-2.52-.46-3.56s-.34-2-.4-2.26c-.32-1.8-.45-2.59.37-3.21a8.53,8.53,0,0,0,3.41-5.26,11.75,11.75,0,0,0-.88-7.41c-.72-1.57-1.34-2.14-1.86-2.1s-1,.7-1.51,1.59a25.34,25.34,0,0,1-2,3,8.84,8.84,0,0,1-1.14,1.23c-.46-.94-.94-1.86-1.36-2.63-.52-.93-.94-1.63-1.08-1.89-.86-1.5-1.23-2.16-.69-3a8.2,8.2,0,0,0,1.41-5.77,11.15,11.15,0,0,0-3-6.34c-1.12-1.18-1.84-1.5-2.29-1.31s-.68.93-.89,1.89a26.66,26.66,0,0,1-.83,3.31,9.66,9.66,0,0,1-.65,1.43c-.51-.51-1-1-1.45-1.41-.78-.73-1.39-1.27-1.61-1.47-1.28-1.17-1.83-1.68-1.57-2.63a8.2,8.2,0,0,0-.41-5.93,11.25,11.25,0,0,0-4.85-5.1c-1.43-.78-2.21-.87-2.59-.54s-.35,1.09-.26,2.07a27.7,27.7,0,0,1,.23,3.24,8.81,8.81,0,0,0-3-2.15,11.45,11.45,0,0,0-5.25-.93c-1.8.13-3.28.81-3.63,2.05s.49,2.56,1.63,3.71A14.44,14.44,0,0,0,669,107a8.88,8.88,0,0,0,3.19.92L672,108c-1,.73-1.92,1.33-2.66,1.89s-1.25,1-1.34,1.52.27.93,1.25,1.47a9.51,9.51,0,0,0,5,1.11,11.27,11.27,0,0,0,5.25-1.58c.84-.45,1.44,0,2.61,1,.2.18.73.72,1.4,1.44.38.41.79.88,1.22,1.38a14.59,14.59,0,0,1-1.37.56c-1.13.39-2.24.67-3.11,1a3.1,3.1,0,0,0-1.74,1c-.22.43,0,1,.74,1.77a9.46,9.46,0,0,0,4.47,2.62,11.26,11.26,0,0,0,5.48.1c.94-.17,1.38.39,2.16,1.78.14.24.49.91.9,1.79s.72,1.63,1.07,2.53a16.33,16.33,0,0,1-1.69.11c-1.26,0-2.45-.08-3.42-.07a3.3,3.3,0,0,0-2.09.46c-.37.35-.35.94.13,2a9.89,9.89,0,0,0,3.53,4.06,12.14,12.14,0,0,0,5.39,2c1,.16,1.24.87,1.53,2.52,0,.28.15,1.06.24,2.09s.15,2.13.17,3.28a17.09,17.09,0,0,1-1.67-.51c-1.25-.45-2.39-1-3.35-1.32a3.45,3.45,0,0,0-2.22-.3c-.5.21-.7.78-.61,2a10.35,10.35,0,0,0,2,5.28,12.84,12.84,0,0,0,4.56,4,1.36,1.36,0,0,1,.75,1.07,6.11,6.11,0,0,1-.2,2c-.06.3-.25,1.11-.55,2.14s-.71,2.29-1.17,3.49a1.34,1.34,0,0,0-.07.18,18,18,0,0,1-1.41-1.14c-1-.93-2-1.88-2.77-2.59a3.62,3.62,0,0,0-2-1.16c-.57,0-1,.49-1.37,1.68a10.72,10.72,0,0,0-.14,5.84,13.74,13.74,0,0,0,2.84,5.67c.68.88.34,1.64-.7,3.17-.18.26-.7,1-1.41,1.84S686,179,685,180l-.45.46c-.32-.54-.61-1.11-.87-1.67-.61-1.33-1.09-2.64-1.57-3.66a3.89,3.89,0,0,0-1.49-2c-.55-.23-1.16,0-2,1a11.18,11.18,0,0,0-2.59,5.52,14.55,14.55,0,0,0,.31,6.66c.27,1.14-.39,1.71-2.05,2.72-.28.17-1.08.62-2.14,1.15s-2.4,1.11-3.72,1.61-3.12,1.28-4.08,1.62c-12.47,4.39-27.49,6.28-36.79,13.12-1.45,1.06,1.43,5.17,2.7,4.85s10.41-5.81,33.29-12.07c1-.34,5.61-1.85,7-2.53s2.85-1.45,4-2.11,2-1.22,2.3-1.41a11.69,11.69,0,0,1,2.12-1.15,1.71,1.71,0,0,1,1.54.14,9.09,9.09,0,0,0,3.36,1.34,10.57,10.57,0,0,0,3.88,0,12.8,12.8,0,0,0,4-1.5,14.62,14.62,0,0,0,3.64-3c1.37-1.55,1.7-2.49,1.41-3s-1.22-.71-2.43-.84a28.5,28.5,0,0,1-4.17-.62,10.85,10.85,0,0,1-1.82-.62c.16-.18.31-.37.46-.55,1-1.15,1.87-2.38,2.59-3.4s1.23-1.83,1.43-2.12c1.13-1.68,1.62-2.42,2.77-2.3a9.34,9.34,0,0,0,6.77-1.67,12.14,12.14,0,0,0,2.89-2.84,14,14,0,0,0,2-4c.59-1.86.51-2.8,0-3.16S706.06,163.82,705,164.17Z"/><path class="cls-5" d="M636,199.31c2.88-1.11,5.92-2.06,9-2.93-3.31-.91-6.58-1.85-9.7-2.94-1-.34-2.76-1.11-4.08-1.62s-2.65-1.09-3.71-1.61-1.87-1-2.15-1.15c-1.66-1-2.32-1.58-2-2.72a14.68,14.68,0,0,0,.3-6.66,11.18,11.18,0,0,0-2.59-5.52c-.86-1-1.47-1.25-2-1a3.84,3.84,0,0,0-1.5,2c-.48,1-1,2.33-1.57,3.66-.26.56-.55,1.13-.87,1.67l-.45-.46c-.94-1-1.86-2-2.58-2.88s-1.23-1.58-1.41-1.84c-1-1.53-1.38-2.29-.7-3.17a13.62,13.62,0,0,0,2.84-5.67,10.72,10.72,0,0,0-.14-5.84c-.38-1.19-.8-1.67-1.37-1.68a3.62,3.62,0,0,0-2.05,1.16c-.81.71-1.72,1.66-2.77,2.59A18,18,0,0,1,605,163.8a1.34,1.34,0,0,0-.07-.18c-.46-1.2-.87-2.46-1.17-3.49s-.49-1.84-.55-2.14a6.41,6.41,0,0,1-.2-2,1.36,1.36,0,0,1,.75-1.07,12.88,12.88,0,0,0,4.57-4,10.33,10.33,0,0,0,2-5.28c.09-1.21-.11-1.78-.61-2a3.45,3.45,0,0,0-2.22.3c-1,.35-2.1.87-3.35,1.32a17.09,17.09,0,0,1-1.67.51c0-1.15.09-2.32.17-3.28s.2-1.81.25-2.09c.28-1.65.53-2.36,1.52-2.52a12.14,12.14,0,0,0,5.39-2,9.89,9.89,0,0,0,3.53-4.06c.49-1.06.5-1.65.13-2a3.28,3.28,0,0,0-2.08-.46c-1,0-2.17.08-3.43.07a16.33,16.33,0,0,1-1.69-.11c.36-.9.73-1.79,1.07-2.53s.76-1.55.9-1.79c.78-1.39,1.23-2,2.16-1.78a11.26,11.26,0,0,0,5.48-.1,9.46,9.46,0,0,0,4.47-2.62c.77-.81,1-1.34.74-1.77a3.1,3.1,0,0,0-1.74-1c-.87-.31-2-.59-3.11-1a14.59,14.59,0,0,1-1.37-.56c.43-.5.84-1,1.23-1.38.66-.72,1.19-1.26,1.39-1.44,1.18-1.08,1.77-1.48,2.61-1a11.31,11.31,0,0,0,5.25,1.58,9.51,9.51,0,0,0,5.05-1.11c1-.54,1.33-1,1.25-1.47s-.6-1-1.34-1.52-1.7-1.16-2.66-1.89l-.14-.11a8.89,8.89,0,0,0,3.18-.92,14.44,14.44,0,0,0,3.78-2.7c1.14-1.15,2-2.46,1.63-3.71s-1.83-1.92-3.62-2.05a11.47,11.47,0,0,0-5.26.93,8.81,8.81,0,0,0-3,2.15,27.7,27.7,0,0,1,.23-3.24c.1-1,.12-1.74-.26-2.07s-1.16-.24-2.59.54a11.17,11.17,0,0,0-4.84,5.1,8.2,8.2,0,0,0-.42,5.93c.26,1-.29,1.46-1.57,2.63-.22.2-.83.74-1.61,1.47-.45.41-.94.9-1.45,1.41a9.66,9.66,0,0,1-.65-1.43,26.66,26.66,0,0,1-.83-3.31c-.21-1-.42-1.69-.89-1.89s-1.17.13-2.29,1.31a11.15,11.15,0,0,0-3,6.34,8.2,8.2,0,0,0,1.41,5.77c.54.82.17,1.48-.68,3-.15.26-.57,1-1.09,1.89-.42.77-.9,1.69-1.36,2.63a8.84,8.84,0,0,1-1.14-1.23,25.34,25.34,0,0,1-2-3c-.53-.89-1-1.55-1.51-1.59s-1.14.53-1.86,2.1a11.75,11.75,0,0,0-.88,7.41,8.53,8.53,0,0,0,3.41,5.26c.82.62.69,1.41.37,3.21-.06.31-.22,1.15-.4,2.26s-.34,2.31-.46,3.56a9.81,9.81,0,0,1-1.59-.79,28.08,28.08,0,0,1-3-2.28c-.85-.69-1.54-1.17-2.07-1s-.93.95-1.07,2.77a12.39,12.39,0,0,0,1.88,7.66,9,9,0,0,0,5.32,3.92,1.53,1.53,0,0,1,1,.92,10.63,10.63,0,0,1,.54,2.11c.06.32.21,1.22.46,2.37s.59,2.57,1,3.93l.06.21a11.24,11.24,0,0,1-1.84-.16,26.66,26.66,0,0,1-3.86-1.05c-1.1-.35-2-.55-2.43-.19s-.54,1.3.06,3.16a13.68,13.68,0,0,0,2,4,12.14,12.14,0,0,0,2.89,2.84,9.34,9.34,0,0,0,6.77,1.67c1.15-.12,1.64.62,2.77,2.3.2.29.72,1.1,1.43,2.12s1.64,2.25,2.59,3.4c.15.18.3.37.46.55a10.85,10.85,0,0,1-1.82.62,28.5,28.5,0,0,1-4.17.62c-1.21.13-2.13.29-2.42.84s0,1.48,1.4,3a14.8,14.8,0,0,0,3.64,3,12.89,12.89,0,0,0,4,1.5,10.57,10.57,0,0,0,3.88,0,9.09,9.09,0,0,0,3.36-1.34,1.71,1.71,0,0,1,1.54-.14,11.37,11.37,0,0,1,2.12,1.15c.31.19,1.16.74,2.3,1.41s2.56,1.43,4,2.11S634.83,198.92,636,199.31Z"/><path class="cls-5" d="M663.52,202c-3.59,1-6.83,2-9.75,2.9,10.14,3.66,14.71,6.3,15.58,6.52,1.27.32,4.15-3.79,2.7-4.85A38.66,38.66,0,0,0,663.52,202Z"/><line class="cls-4" x1="436.33" y1="309" x2="436.33"/><rect class="cls-5" x="186.49" y="121.14" width="23.82" height="42.13"/><rect class="cls-5" x="219.83" y="103.37" width="23.82" height="59.91"/><rect class="cls-5" x="153.14" y="138.16" width="23.82" height="25.13"/><path class="cls-5" d="M286.13,80.64,266.55,46.9a1.69,1.69,0,0,0-2.92,0L244.05,80.64a1.7,1.7,0,0,0,1.46,2.54h7.67v80.11H277V83.18h7.67a1.69,1.69,0,0,0,1.46-2.54Z"/></g></g></g></svg>