<svg xmlns="http://www.w3.org/2000/svg" xmlns:xlink="http://www.w3.org/1999/xlink" viewBox="0 0 335 470.09"><defs><style>.cls-1,.cls-6,.cls-7,.cls-8{fill:none;}.cls-2{clip-path:url(#clip-path);}.cls-3{fill:#fff;}.cls-4{fill:#333;}.cls-5{fill:#e8314b;}.cls-6{stroke:#ccc;}.cls-6,.cls-7,.cls-8{stroke-miterlimit:10;}.cls-6,.cls-7{stroke-width:0.8px;}.cls-7,.cls-8{stroke:#e8314b;}.cls-8{stroke-width:1.76px;}</style><clipPath id="clip-path" transform="translate(5)"><rect class="cls-1" width="325" height="468.76"/></clipPath></defs><g id="レイヤー_2" data-name="レイヤー 2"><g id="pc"><g class="cls-2"><rect class="cls-3" x="5" width="325" height="468.76"/><path class="cls-4" d="M25.56,34.52c0,.9,0,1.08.12,1.4s.51.33,1,.37c.09,0,.1,0,.1.18s0,.18-.11.18c-.58,0-1.22,0-1.81,0s-1.3,0-1.89,0c-.1,0-.13,0-.13-.18s0-.17.13-.18c.45,0,.84-.07.95-.31a3.33,3.33,0,0,0,.18-1.43v-.63H21.9l-1.33,0c-.13,0-.18,0-.18-.37a.89.89,0,0,1,.15-.57c1.32-2.31,2.34-4.08,3.76-6.29l1.24-.34c.07,0,.12,0,.12.17,0,1.11,0,2.25-.07,3.57l0,3.28c.38,0,.92,0,1.41-.07.07,0,.1,0,.09.1l-.13.42c0,.08,0,.1-.13.1-.4,0-.95,0-1.24,0Zm-1.42-4.16c0-1.05,0-1.65.09-2.6-1.1,1.74-2.22,3.6-3.2,5.42-.08.15-.07.22.12.22h3Z" transform="translate(5)"/><path class="cls-4" d="M32.18,35.77a6.27,6.27,0,0,1-2.92,2.42c-.07,0-.16-.07-.11-.11a6.58,6.58,0,0,0,1.6-2.18,4.65,4.65,0,0,0,.35-1.12c1.2.44,1.57.61,1.57.75S32.53,35.74,32.18,35.77ZM35.06,34c.42-.61.59-.72.69-.72s.25.11.64.5a1.66,1.66,0,0,1,.13.14,40.48,40.48,0,0,0,.21-4.83c0-1.71,0-2.66-.08-3.56a13.79,13.79,0,0,1,1.48.8H40c.49-.58.6-.66.71-.66s.26.08.8.52c.24.19.32.29.32.4s0,.17-.36.41v1.58c0,7.36,0,7.71,0,8.07,0,.66-.12,1-.56,1.21a2.23,2.23,0,0,1-1,.25c-.23,0-.27,0-.32-.37s-.41-.7-1.33-.92c-.07,0-.07-.17,0-.17l1.66,0c.21,0,.25,0,.25-.23V33H37.75a11.21,11.21,0,0,1-.33,1.67,7.16,7.16,0,0,1-2.3,3.4c-.06,0-.17,0-.13-.1a7.91,7.91,0,0,0,1.46-3.65h-6.4a3.38,3.38,0,0,0-.73.08l-.15-.52A3.1,3.1,0,0,0,30,34h.62V28.08h-.37a4,4,0,0,0-.71.08l-.16-.51a3.54,3.54,0,0,0,.85.11h.39V27c0-.46,0-1-.06-1.56,1.53.16,1.67.3,1.67.44s-.14.24-.41.32v1.57h1.95v-.7c0-.52,0-1-.06-1.63,1.52.14,1.66.27,1.66.4s-.14.25-.4.35v1.58h.16c.42-.6.59-.72.68-.72s.24.12.61.51a.82.82,0,0,1,.23.39c0,.1,0,.14-.18.14H35V34Zm-3.22-5.88v1.71h1.95V28.08Zm1.95,2H31.84v1.7h1.95Zm-1.95,2V34h1.95V32.13Zm2.83,4.93c-.26,0-.47-.15-.63-.69a3.06,3.06,0,0,0-1-1.41c-.06,0,0-.14.08-.13,1.49.24,2.2.73,2.2,1.5A.69.69,0,0,1,34.67,37.06ZM38,29.69a29.34,29.34,0,0,1-.15,3h2.4v-3Zm2.25-3.08H38v2.76H40.2Z" transform="translate(5)"/><path class="cls-4" d="M47.76,35.11a2.09,2.09,0,0,0,1.33,1.18,11.7,11.7,0,0,0,3.18.32,43.33,43.33,0,0,0,5.42-.35c.07,0,.07.13,0,.15a.9.9,0,0,0-.55.79c0,.43-.07.48-.34.5-.74.1-2.41.13-3.44.13-2.29,0-3.67-.18-4.58-.73A3.38,3.38,0,0,1,47.37,35a10.17,10.17,0,0,1-1.61,2.1c0,.54,0,.65-.24.65s-.52-.51-1-1.71a7.42,7.42,0,0,0,1-.37,6.31,6.31,0,0,0,1-.54V31.43h-1a2.91,2.91,0,0,0-.77.11L44.57,31a3.27,3.27,0,0,0,.92.13h.88c.49-.56.61-.65.72-.65s.25.09.77.49c.24.2.32.3.32.41s0,.14-.42.45ZM47,28.33c-.32,0-.49-.17-.69-.87a4,4,0,0,0-.89-1.63c-.06-.06,0-.14.11-.13,1.64.41,2.24,1.08,2.24,1.79A.76.76,0,0,1,47,28.33Zm5.08-1h-2.8a4.36,4.36,0,0,0-.74.08l-.16-.52a3.66,3.66,0,0,0,.9.12H52v-.47a13.52,13.52,0,0,0,0-1.38c1.39.15,1.68.22,1.68.43s-.1.2-.4.34V27h2c.57-.69.74-.8.84-.8s.29.11.88.56c.27.21.38.32.38.42s0,.14-.18.14H53.27v1.33h1.79c.4-.48.52-.56.63-.56s.27.08.73.45c.21.16.29.26.29.37s-.07.2-.33.41v.55c0,1.41,0,2.39,0,2.71s-.28.54-.71.54-.56-.16-.56-.44v-.05H53.28c0,.32,0,1,0,1.51h2.1c.69-.74.86-.85,1-.85s.26.11.85.6c.25.21.37.33.37.43s0,.14-.19.14H53.29c0,.58,0,1,0,1.29s-.25.53-.73.53-.59-.14-.59-.4,0-.75,0-1.42H49.25a4.84,4.84,0,0,0-.86.09l-.15-.52a4.92,4.92,0,0,0,1,.11H52c0-.5,0-1,0-1.51H50.18v.14c0,.35-.23.52-.71.52s-.53-.14-.53-.48S49,32,49,30.38c0-.77,0-1.54-.05-2.31a12,12,0,0,1,1.31.6H52ZM50.18,29v1.42H52c0-.48,0-.94,0-1.42ZM52,30.73H50.18v1.59H52Zm1.25-.32h1.89V29H53.27Zm1.89,1.91V30.73H53.28v1.59Z" transform="translate(5)"/><path class="cls-4" d="M71,30.84c.46-.57.58-.66.69-.66s.25.09.94.67c.32.3.4.4.4.51s-.11.28-.57.28a.56.56,0,0,0-.45.15,6,6,0,0,1-1.09.75c-.06,0-.14,0-.11-.1a5.21,5.21,0,0,0,.36-1.28h-5v0c0,.83-.31,1.61-1,1.61a.62.62,0,0,1-.62-.64.32.32,0,0,1,0-.14.65.65,0,0,1-.2,0c-.29,0-.36-.09-.42-.66l-.66.21v2c0,1.49,0,3.41,0,4,0,.35-.25.49-.71.49s-.56-.11-.56-.41.08-1.24.08-3.06v-1c0,.07-.16.11-.39.17a9.63,9.63,0,0,1-1.68,3.23c0,.06-.18,0-.15-.08a17.83,17.83,0,0,0,.6-2.68,10.49,10.49,0,0,0,.13-1.41c1.07.32,1.41.45,1.49.57V31.92l-1.34.32c-.08.27-.17.39-.3.39s-.3-.42-.44-1.55a14,14,0,0,0,1.43.05h0a21.58,21.58,0,0,0,1.29-2.43,7.86,7.86,0,0,0,.6-1.61c1.15.5,1.56.72,1.56.86s-.13.23-.52.21a15.39,15.39,0,0,1-2.48,3c.58,0,1.14,0,1.7-.05H64A3.26,3.26,0,0,0,63.54,30s0-.1.1-.07c.88.46,1.34,1,1.34,1.53a.66.66,0,0,1,0,.14,1.47,1.47,0,0,0,.88-1.39c0-.07.13-.1.15,0a2.62,2.62,0,0,1,.2.69Zm-9-4.58a5.05,5.05,0,0,0,.17-1.07c1.16.37,1.72.62,1.72.82s-.17.24-.56.24a14,14,0,0,1-1.61,1.8,1.17,1.17,0,0,1,.62,1,.7.7,0,0,1-.65.77c-.36,0-.4-.07-.6-.84a2.63,2.63,0,0,0-.77-1.4.08.08,0,0,1,.07-.13,5.57,5.57,0,0,1,1.09.44A11.7,11.7,0,0,0,62,26.26Zm2.57,9.57c-.38,0-.44-.13-.5-1a4.87,4.87,0,0,0-.42-1.71c0-.06.07-.14.13-.1,1,.76,1.49,1.39,1.49,2A.78.78,0,0,1,64.58,35.83Zm3.37-3c0,.23,0,.44,0,.65a5.12,5.12,0,0,1-1,2.89,5.54,5.54,0,0,1-3,1.7c-.07,0-.17-.14-.12-.16A4.86,4.86,0,0,0,66,36a5.66,5.66,0,0,0,.63-3,8,8,0,0,0,0-.91c1.54.16,1.74.22,1.74.4S68.22,32.7,68,32.81Zm1.18-3.59h1.13c.56-.68.73-.79.83-.79s.28.11.83.55c.23.19.35.32.35.42s0,.14-.19.14H66.3a4.91,4.91,0,0,0-.79.08l-.15-.52a3.89,3.89,0,0,0,.94.12h1.52V27.55H66a5.72,5.72,0,0,0-.84.08L65,27.11a4.27,4.27,0,0,0,1,.12h1.86v-.86c0-.25,0-.61-.07-1.11,1.63.15,1.77.29,1.77.43s-.13.22-.39.35v1.19h1.4c.64-.79.81-.9.91-.9s.28.11.9.62c.28.23.39.36.39.46s0,.14-.18.14H69.13Zm1,7.05c0,.3.07.34.58.34s.8,0,1-.2a3.75,3.75,0,0,0,.7-1.58c0-.07.15,0,.15,0,0,.39,0,1,0,1.17a.25.25,0,0,0,.17.28.54.54,0,0,1,.32.52.75.75,0,0,1-.5.7,4.65,4.65,0,0,1-1.73.24c-1.58,0-2-.27-2-1.36,0-.24,0-.48,0-1.51s0-1.85-.07-2.79c1.56.18,1.72.21,1.72.41s-.11.22-.37.32Z" transform="translate(5)"/><path class="cls-4" d="M81.25,32c0,.35-.21.52-.76.52-.33,0-.5-.11-.5-.38s0-1.09,0-2.61c0,.07,0,.11-.18.11H78.36v4.24c.58-.18,1.15-.38,1.66-.59.07,0,.12.13.07.17a17.18,17.18,0,0,1-3.6,2.26c0,.43-.11.6-.31.6s-.41-.38-.86-1.71a10,10,0,0,0,1.18-.21l.6-.15V29.68h-.72a4.47,4.47,0,0,0-.75.08l-.15-.52a3,3,0,0,0,.83.12h.79V27.13A13,13,0,0,0,77,25.42c1.67.17,1.84.32,1.84.48s-.11.22-.51.4v3.06h.13c.34-.65.5-.76.6-.76s.25.11.67.53a1,1,0,0,1,.27.39v-.43a19.68,19.68,0,0,0-.08-2,11.24,11.24,0,0,1,1.43.74h3.11a9.76,9.76,0,0,0,.68-1.44,8.65,8.65,0,0,0,.35-1.12c1.43.53,1.67.64,1.67.82s-.16.26-.63.27A12.33,12.33,0,0,1,85,27.8h1.43c.45-.55.56-.63.67-.63s.25.08.77.53c.23.2.31.3.31.41s-.13.25-.42.46v.57c0,1.49,0,2.53,0,2.86s-.24.51-.77.51c-.33,0-.49-.13-.49-.47ZM82,37.28v.35c0,.38-.23.54-.77.54-.36,0-.53-.13-.53-.45s.06-1,.06-3c0-.7,0-1.4-.06-2.11a7.66,7.66,0,0,1,1.42.67h3.48c.45-.52.56-.6.68-.6s.25.08.74.49c.22.19.31.29.31.4s-.09.24-.4.44v.59c0,1.56.05,2.64.05,3s-.26.55-.77.55-.55-.11-.55-.43v-.4Zm.38-9.65c-.28,0-.45-.15-.56-.56a4.22,4.22,0,0,0-.8-1.66.08.08,0,0,1,.1-.12c1.3.47,1.92,1,1.92,1.59A.7.7,0,0,1,82.41,27.63Zm.76,2.06V28.12H81.25v1.57Zm-1.92,2h1.92V30H81.25Zm4.44,1.85H82v1.5h3.66Zm0,1.82H82V37h3.66Zm.83-7.27h-2.1v1.57h2.1Zm0,1.89h-2.1v1.71h2.1Z" transform="translate(5)"/><path class="cls-4" d="M95.94,28c0,7,0,8.71,0,9.44,0,.41-.25.63-.81.63s-.62-.15-.62-.49,0-1.57.06-3.54A15.26,15.26,0,0,1,92,35.66c0,.43-.14.63-.32.63s-.2,0-.89-1.84a4,4,0,0,0,.93-.09l.22,0V28.78a17.33,17.33,0,0,0-.11-1.88c1.65.16,1.81.3,1.81.44s-.14.26-.45.38v6.34c.48-.11,1-.24,1.43-.38,0-.87,0-1.86,0-3a45.74,45.74,0,0,0-.11-5.28c1.71.14,1.91.2,1.91.41s-.05.17-.49.38Zm5.36-1.16c.57-.66.69-.74.8-.74s.25.08.85.61c.28.27.37.37.37.48s-.1.26-.46.45A15.91,15.91,0,0,1,100.5,34,9.91,9.91,0,0,0,104,36.43c.07,0,0,.17,0,.18-.42.13-.6.35-.81.93-.1.26-.13.32-.25.32a1.24,1.24,0,0,1-.49-.23A10,10,0,0,1,99.77,35a11,11,0,0,1-3.53,2.86s-.15-.13-.09-.17a14.19,14.19,0,0,0,3.08-3.57,15.93,15.93,0,0,1-1.88-6.9c-.22,0-.46.05-.74.1l-.16-.54a7.45,7.45,0,0,0,1.24.11Zm-3.63.32a14.7,14.7,0,0,0,2.12,5.88,19.23,19.23,0,0,0,1.68-5.88Z" transform="translate(5)"/><path class="cls-5" d="M188.8,399.61l0-.46h1a2.45,2.45,0,0,0,1.8-.74,2.38,2.38,0,0,0,.73-1.75V373.34a3.11,3.11,0,0,0-.82-2.48,3.36,3.36,0,0,0-2.21-.69h-.83v-.46c.64,0,1.51-.12,2.6-.25s2.26-.33,3.52-.56a35.32,35.32,0,0,0,3.65-.87,13.52,13.52,0,0,0,3-1.26h.46v29.94a2.28,2.28,0,0,0,.76,1.73,2.5,2.5,0,0,0,1.77.71h1v.46Z" transform="translate(5)"/><path class="cls-5" d="M222.47,366.77a13.57,13.57,0,0,1,7.68,2.09A13.39,13.39,0,0,1,235,374.7a23.6,23.6,0,0,1,0,17.59,13.36,13.36,0,0,1-4.88,5.87,15.12,15.12,0,0,1-15.34,0,13.32,13.32,0,0,1-4.89-5.87,23.47,23.47,0,0,1,0-17.59,13.35,13.35,0,0,1,4.89-5.84A13.67,13.67,0,0,1,222.47,366.77Zm0,2.3c-1.59,0-2.76,1.17-3.49,3.51s-1.11,6-1.11,10.93.37,8.58,1.11,10.92,1.9,3.52,3.49,3.52,2.76-1.17,3.5-3.52,1.1-6,1.1-10.92-.36-8.58-1.1-10.93S224.07,369.07,222.47,369.07Z" transform="translate(5)"/><path class="cls-5" d="M240,399.61l.05-.46h1a2.45,2.45,0,0,0,1.79-.74,2.39,2.39,0,0,0,.74-1.75V373.34a3.11,3.11,0,0,0-.83-2.48,3.34,3.34,0,0,0-2.21-.69h-.83v-.46c.65,0,1.51-.12,2.6-.25s2.26-.33,3.52-.56a34.9,34.9,0,0,0,3.66-.87,13.43,13.43,0,0,0,3-1.26H253v29.94a2.28,2.28,0,0,0,.76,1.73,2.54,2.54,0,0,0,1.77.71h1v.46Z" transform="translate(5)"/><line class="cls-6" x1="55.77" y1="222.95" x2="311.35" y2="222.95"/><path class="cls-4" d="M44.16,221.78c0,2.53-.92,4.13-2.45,4.13s-2.46-1.52-2.46-4.06.9-4.16,2.46-4.16S44.16,219.28,44.16,221.78Zm-3.62,0c0,2.29.23,3.75,1.17,3.75s1.16-1.46,1.16-3.75S42.65,218,41.71,218,40.54,219.52,40.54,221.82Z" transform="translate(5)"/><line class="cls-6" x1="55.77" y1="192" x2="311.35" y2="192"/><path class="cls-4" d="M26.94,190.84a1.63,1.63,0,0,1,1.47-.89c1.39,0,2.12,1,2.12,2.44a2.36,2.36,0,0,1-2.4,2.57c-1.46,0-2.52-1.19-2.52-3.1a5.06,5.06,0,0,1,2.23-4.15,7.45,7.45,0,0,1,1.84-1c.09,0,.14,0,.3.21s.09.33,0,.33a2.83,2.83,0,0,0-1.63.55,4.24,4.24,0,0,0-1.45,3.07Zm.08.45a1.38,1.38,0,0,0-.14.68c0,1.78.48,2.64,1.25,2.64s1.1-1,1.1-2.21-.32-2-1.13-2C27.61,190.38,27.25,190.73,27,191.29Z" transform="translate(5)"/><path class="cls-4" d="M33.3,190c0,.16,0,.34-.07.57a2.32,2.32,0,0,1,4,1.7A2.42,2.42,0,0,1,34.68,195a3.23,3.23,0,0,1-1.56-.38c-.36-.21-.74-.57-.74-.93s.27-.45.79-.45.59.51.71.81a.85.85,0,0,0,.8.6c.85,0,1.21-1,1.21-2.29s-.62-2-1.3-2a1.49,1.49,0,0,0-1.39.8c-.06.11-.11.13-.3.05s-.15-.12-.13-.22a2.64,2.64,0,0,0,.07-.3l.26-3.51s0-.08.07-.15a.18.18,0,0,1,.15-.06h1.73c.45,0,1.14,0,1.87-.05.08,0,.11.05.1.09l-.36,1a.12.12,0,0,1-.11.08l-1.12,0h-2Z" transform="translate(5)"/><path class="cls-4" d="M44.16,190.83c0,2.53-.92,4.13-2.44,4.13s-2.47-1.52-2.47-4.06.9-4.16,2.47-4.16S44.16,188.32,44.16,190.83Zm-3.62,0c0,2.29.23,3.75,1.18,3.75s1.15-1.46,1.15-3.75-.22-3.78-1.15-3.78S40.54,188.56,40.54,190.86Z" transform="translate(5)"/><line class="cls-6" x1="55.77" y1="130.09" x2="311.35" y2="130.09"/><path class="cls-4" d="M15.62,126.08c-.11,0-.15,0-.18-.12s0-.15.1-.19c.63-.24,1.6-.64,2.34-1,.08,0,.17,0,.17.13,0,.88,0,1.54,0,2.43v3.44c0,1.09,0,1.23.12,1.47s.47.24.94.28c.07,0,.1.05.1.17s0,.15-.1.15c-.51,0-1.11,0-1.63,0s-1.16,0-1.67,0c-.09,0-.11,0-.11-.15s0-.16.11-.17c.46,0,.82,0,.93-.28a4.43,4.43,0,0,0,.11-1.47v-3.94a1.83,1.83,0,0,0-.11-.84c-.08-.12-.31-.14-.65,0Z" transform="translate(5)"/><path class="cls-4" d="M22,134.31c0,.05-.12.05-.19,0s-.07-.17,0-.21c.45-.33.69-.66.69-1,0-.14-.17-.27-.29-.34s-.39-.13-.39-.43a.85.85,0,0,1,.79-.77.86.86,0,0,1,.7.89C23.31,132.88,23.13,133.54,22,134.31Z" transform="translate(5)"/><path class="cls-4" d="M29.14,129a1.64,1.64,0,0,1-1.45.81,2.16,2.16,0,0,1-2.16-2.37A2.39,2.39,0,0,1,28,124.83c1.54,0,2.5,1.27,2.5,3.15a4.67,4.67,0,0,1-2.2,4.3,5.26,5.26,0,0,1-1.78.77c-.1,0-.18-.05-.26-.21s-.08-.29.05-.3a3.21,3.21,0,0,0,1.52-.39c.86-.52,1.3-1.49,1.42-3.2Zm-2.32-1.62c0,1.1.36,2,1.13,2,.47,0,.83-.28,1.14-1a1.44,1.44,0,0,0,.1-.7c0-1.46-.41-2.5-1.24-2.5S26.82,126.13,26.82,127.33Z" transform="translate(5)"/><path class="cls-4" d="M33.3,128.12c0,.17,0,.34-.07.57a2.32,2.32,0,0,1,4,1.71,2.42,2.42,0,0,1-2.51,2.65,3.23,3.23,0,0,1-1.56-.38c-.36-.2-.74-.57-.74-.93s.27-.45.79-.45.59.52.71.81a.85.85,0,0,0,.8.61c.85,0,1.21-1,1.21-2.3s-.62-2-1.3-2a1.51,1.51,0,0,0-1.39.8c-.06.11-.11.13-.3.06s-.15-.13-.13-.22a2.82,2.82,0,0,0,.07-.31l.26-3.51a.17.17,0,0,1,.07-.14.17.17,0,0,1,.15-.07h1.73c.45,0,1.14,0,1.87,0,.08,0,.11,0,.1.08l-.36,1a.12.12,0,0,1-.11.08l-1.12,0h-2Z" transform="translate(5)"/><path class="cls-4" d="M44.16,128.92c0,2.53-.92,4.13-2.44,4.13s-2.47-1.52-2.47-4.06.9-4.16,2.47-4.16S44.16,126.41,44.16,128.92Zm-3.62,0c0,2.28.23,3.75,1.18,3.75s1.15-1.47,1.15-3.75-.22-3.79-1.15-3.79S40.54,126.66,40.54,129Z" transform="translate(5)"/><path class="cls-4" d="M19,66.41s0,0-.05.08a6,6,0,0,0,0,8.94c.07.07.09.09.09.13s0,.06-.05.06-.06,0-.13-.06a6.72,6.72,0,0,1-1.93-2.07,4.91,4.91,0,0,1,0-5,6.76,6.76,0,0,1,1.94-2.07c.05,0,.07-.05.1-.05S19,66.37,19,66.41Z" transform="translate(5)"/><path class="cls-4" d="M21.47,70.42a7.65,7.65,0,0,1-.84,1s-.11,0-.1-.09A14.38,14.38,0,0,0,21.87,68a8.82,8.82,0,0,0,.25-1.45c1.14.3,1.26.34,1.26.47s0,.14-.38.24a11.29,11.29,0,0,1-1,2.33c.53.07.61.1.61.21s-.07.14-.26.24v5c0,.28-.16.4-.52.4s-.42-.09-.42-.36.06-1,.06-2.53Zm2.34,3.46c0,.62-.26,1.11-.74,1.11a.42.42,0,0,1-.45-.43c0-.23.1-.36.38-.48a.9.9,0,0,0,.63-.79c0-.05.1-.06.11,0A3.07,3.07,0,0,1,23.81,73.88Zm.51-5.94c.69.22,1,.5,1,.92a.41.41,0,0,1-.35.4h1.56a3.62,3.62,0,0,0,.2-.67,3.52,3.52,0,0,0,.11-.62c.82.25,1.07.34,1.07.44s-.06.12-.31.17a4,4,0,0,1-.77.68h1.32c.41-.5.53-.58.59-.58s.2.08.59.41c.17.14.25.23.25.3s0,.09-.13.09h-6a4.72,4.72,0,0,0-.7.06l-.1-.36a3.89,3.89,0,0,0,.78.08h1.29A.33.33,0,0,1,24.5,69a1.92,1.92,0,0,0-.43-1H24a4.72,4.72,0,0,0-.7.06l-.1-.35a4.68,4.68,0,0,0,.78.07h1.53v-.58c0-.19,0-.39,0-.59,1.12.1,1.22.19,1.22.29s-.1.15-.29.25v.63H27.8c.41-.49.52-.56.59-.56s.19.07.6.39c.19.15.26.23.26.3s0,.09-.12.09Zm0,4.53c0,.19-.19.27-.48.27s-.39-.1-.39-.34,0-.32,0-1,0-1.11-.06-1.68a7.72,7.72,0,0,1,1,.45h3c.31-.35.39-.41.47-.41s.18.06.51.31c.15.11.21.18.21.26s-.06.14-.25.28v.29c0,.76,0,1.29,0,1.47s-.18.38-.54.38-.35-.09-.35-.3H24.34Zm3.18-2H24.35v.8h3.17Zm0,1H24.35v.8h3.17Zm.07,2.73c0,.13,0,.18.12.21s.29.13.29.31-.14.34-.45.44a6.13,6.13,0,0,1-1.54.14c-1.23,0-1.62-.16-1.62-.67,0-.21,0-.42,0-1.25a2.15,2.15,0,0,0,0-.43c1,.11,1.07.13,1.07.26s-.09.17-.26.22v.83c0,.27.13.33.91.33a2.64,2.64,0,0,0,.84-.07c.27-.1.35-.34.56-1,0,0,.1,0,.1,0Zm-1.23-.1c-.22,0-.25,0-.39-.52a1.87,1.87,0,0,0-.4-.69s0-.08,0-.07c.82.14,1.19.4,1.19.82A.44.44,0,0,1,26.36,74.08Zm2.63.8c-.25,0-.33-.11-.43-.58a2,2,0,0,0-.53-1s0-.1,0-.09c1,.31,1.37.65,1.37,1.16A.5.5,0,0,1,29,74.88Z" transform="translate(5)"/><path class="cls-4" d="M32.89,75c0,.24-.21.36-.59.36s-.41-.09-.41-.33c0-.86.06-1.73.06-5.2,0-1,0-2-.06-3l1.09.53h5.43c.35-.4.43-.46.51-.46s.17.06.54.36c.17.15.23.22.23.29s-.06.15-.25.29v1.06c0,4.68,0,4.86,0,5.42s-.12.7-.45.86a2.22,2.22,0,0,1-.63.14c-.17,0-.2-.07-.23-.26s-.24-.57-1.14-.76c0,0,0-.11,0-.11.51,0,1,0,1.29,0,.14,0,.16,0,.16-.17V70.85H32.89Zm2.27-4.33v-3.1H32.89v3.1Zm3.31-3.1H36.11v3.1h2.36Z" transform="translate(5)"/><path class="cls-4" d="M42,66.4a6.8,6.8,0,0,1,1.95,2.07,4.91,4.91,0,0,1,0,5A6.76,6.76,0,0,1,42,75.56c-.06,0-.09.06-.12.06s-.05,0-.05-.06,0-.06.09-.13a6,6,0,0,0,0-8.94s-.05,0-.05-.08,0-.06.07-.06S42,66.37,42,66.4Z" transform="translate(5)"/><line class="cls-6" x1="55.77" y1="99.13" x2="311.35" y2="99.13"/><path class="cls-4" d="M17.52,100.81c.92,0,1.14-.07,1.36-.27a2.7,2.7,0,0,0,.6-.84c.05-.08.08-.09.18-.06s.12.07.11.14c-.13.56-.41,1.54-.59,2.12-.75,0-1.33,0-2.13,0s-1.45,0-2.17,0c-.11,0-.15,0-.15-.19a.46.46,0,0,1,.07-.31,19.41,19.41,0,0,1,1.92-2.82c.94-1.19,1.47-1.78,1.47-2.8s-.32-1.57-1-1.57a.89.89,0,0,0-.91.63,2.38,2.38,0,0,0-.1.81c0,.3-.42.51-.83.51s-.52-.08-.52-.41a2.28,2.28,0,0,1,2.36-1.87,2,2,0,0,1,2.28,1.94c0,1.41-1,1.94-2.13,3a7.83,7.83,0,0,0-1.82,2Z" transform="translate(5)"/><path class="cls-4" d="M22,103.36s-.12,0-.19,0-.07-.17,0-.21c.45-.33.69-.66.69-1,0-.15-.17-.28-.29-.34s-.39-.14-.39-.43a.85.85,0,0,1,.79-.77.86.86,0,0,1,.7.89C23.31,101.93,23.13,102.59,22,103.36Z" transform="translate(5)"/><path class="cls-4" d="M26.94,98a1.61,1.61,0,0,1,1.47-.89c1.39,0,2.12,1,2.12,2.44a2.35,2.35,0,0,1-2.4,2.56c-1.46,0-2.52-1.18-2.52-3.09a5.09,5.09,0,0,1,2.23-4.16,7.71,7.71,0,0,1,1.84-1c.09,0,.14,0,.3.21s.09.33,0,.33a2.83,2.83,0,0,0-1.63.55A4.24,4.24,0,0,0,26.88,98Zm.08.45a1.38,1.38,0,0,0-.14.68c0,1.77.48,2.64,1.25,2.64s1.1-1,1.1-2.21-.32-2-1.13-2C27.61,97.52,27.25,97.87,27,98.43Z" transform="translate(5)"/><path class="cls-4" d="M37.32,98c0,2.53-.92,4.12-2.45,4.12s-2.46-1.51-2.46-4.06.9-4.15,2.46-4.15S37.32,95.46,37.32,98ZM33.7,98c0,2.29.23,3.75,1.17,3.75S36,100.29,36,98s-.22-3.78-1.16-3.78S33.7,95.7,33.7,98Z" transform="translate(5)"/><path class="cls-4" d="M44.16,98c0,2.53-.92,4.12-2.44,4.12s-2.47-1.51-2.47-4.06.9-4.15,2.47-4.15S44.16,95.46,44.16,98Zm-3.62,0c0,2.29.23,3.75,1.18,3.75s1.15-1.46,1.15-3.75-.22-3.78-1.15-3.78S40.54,95.7,40.54,98Z" transform="translate(5)"/><line class="cls-6" x1="55.77" y1="161.04" x2="311.35" y2="161.04"/><path class="cls-4" d="M15.62,157c-.11,0-.15,0-.18-.12s0-.16.1-.2c.63-.23,1.6-.64,2.34-1,.08,0,.17.05.17.13,0,.88,0,1.54,0,2.43v3.45c0,1.09,0,1.23.12,1.46s.47.24.94.29c.07,0,.1,0,.1.16s0,.15-.1.15c-.51,0-1.11,0-1.63,0s-1.16,0-1.67,0c-.09,0-.11,0-.11-.15s0-.15.11-.16c.46,0,.82-.05.93-.29a4.36,4.36,0,0,0,.11-1.46V157.8a1.85,1.85,0,0,0-.11-.85c-.08-.12-.31-.13-.65,0Z" transform="translate(5)"/><path class="cls-4" d="M22,165.27s-.12,0-.19-.05-.07-.16,0-.21c.45-.33.69-.66.69-1,0-.15-.17-.28-.29-.35s-.39-.13-.39-.43a.85.85,0,0,1,.79-.77.87.87,0,0,1,.7.9C23.31,163.84,23.13,164.5,22,165.27Z" transform="translate(5)"/><path class="cls-4" d="M28.37,159.57c1.3.26,2,1,2,2.05A2.29,2.29,0,0,1,27.88,164a2.89,2.89,0,0,1-1.62-.43c-.35-.22-.72-.57-.72-.92s.29-.47.8-.47.57.52.7.83a.84.84,0,0,0,.84.65c.77,0,1.2-.8,1.2-2.08,0-.79-.34-1.87-1.44-1.79l-.5,0c-.1,0-.15,0-.11-.22s.09-.25.21-.25l.42,0c.6,0,1.22-.48,1.22-1.71,0-.84-.32-1.54-.93-1.54a.84.84,0,0,0-.82.49,1.33,1.33,0,0,0-.09.55c0,.36-.35.57-.82.57s-.51-.11-.51-.35A2.11,2.11,0,0,1,28,155.78a1.93,1.93,0,0,1,2.18,1.9c0,1.14-.82,1.61-1.76,1.83Z" transform="translate(5)"/><path class="cls-4" d="M37.32,159.88c0,2.53-.92,4.12-2.45,4.12s-2.46-1.52-2.46-4.06.9-4.16,2.46-4.16S37.32,157.37,37.32,159.88Zm-3.62,0c0,2.29.23,3.75,1.17,3.75S36,162.2,36,159.91s-.22-3.78-1.16-3.78S33.7,157.61,33.7,159.91Z" transform="translate(5)"/><path class="cls-4" d="M44.16,159.88c0,2.53-.92,4.12-2.44,4.12s-2.47-1.52-2.47-4.06.9-4.16,2.47-4.16S44.16,157.37,44.16,159.88Zm-3.62,0c0,2.29.23,3.75,1.18,3.75s1.15-1.46,1.15-3.75-.22-3.78-1.15-3.78S40.54,157.61,40.54,159.91Z" transform="translate(5)"/><path class="cls-4" d="M122.47,239.29c.93,0,1.15-.07,1.37-.27a2.87,2.87,0,0,0,.6-.84c0-.08.08-.09.18-.06s.12.07.11.15c-.13.56-.41,1.54-.6,2.11-.74,0-1.33,0-2.12,0s-1.45,0-2.18,0c-.11,0-.14,0-.14-.19a.53.53,0,0,1,.06-.31,19.77,19.77,0,0,1,1.93-2.81c.94-1.2,1.46-1.79,1.46-2.81s-.32-1.57-.94-1.57a.91.91,0,0,0-.92.64,2.61,2.61,0,0,0-.09.8c0,.31-.42.52-.83.52s-.53-.09-.53-.42a2.29,2.29,0,0,1,2.37-1.87,2,2,0,0,1,2.27,1.95c0,1.4-1,1.93-2.12,3a7.85,7.85,0,0,0-1.82,2Z" transform="translate(5)"/><path class="cls-4" d="M131.49,236.45c0,2.53-.91,4.13-2.44,4.13s-2.46-1.52-2.46-4.06.9-4.16,2.46-4.16S131.49,233.94,131.49,236.45Zm-3.62,0c0,2.29.23,3.75,1.18,3.75s1.16-1.46,1.16-3.75-.22-3.78-1.16-3.78S127.87,234.18,127.87,236.48Z" transform="translate(5)"/><path class="cls-4" d="M134.26,233.61c-.11,0-.15,0-.18-.12s0-.15.1-.2c.63-.23,1.6-.64,2.34-1,.08,0,.18.06.18.13,0,.88,0,1.54,0,2.44v3.44c0,1.09,0,1.23.12,1.46s.48.24.94.29c.07,0,.1,0,.1.16s0,.16-.1.16c-.51,0-1.11,0-1.63,0s-1.16,0-1.67,0c-.09,0-.11,0-.11-.16s0-.15.11-.16c.46,0,.82-.05.93-.29a4.32,4.32,0,0,0,.11-1.46v-3.94a1.85,1.85,0,0,0-.11-.85c-.07-.12-.31-.13-.65,0Z" transform="translate(5)"/><path class="cls-4" d="M145.17,238.32a2.46,2.46,0,0,1-4.9.09c0-.93.66-1.52,1.71-2a2.16,2.16,0,0,1-1.49-2.13,2.1,2.1,0,0,1,2.24-1.89c1.29,0,2.2.77,2.2,1.76,0,.83-.46,1.27-1.44,1.75A2.45,2.45,0,0,1,145.17,238.32Zm-3.73.1c0,1.1.51,1.81,1.31,1.81s1.34-.69,1.34-1.76c0-.79-.45-1.26-1.8-1.91A1.88,1.88,0,0,0,141.44,238.42Zm2.42-4.29c0-.87-.49-1.43-1.13-1.43a1.21,1.21,0,0,0-1.18,1.37c0,.61.25,1,1.62,1.62A1.65,1.65,0,0,0,143.86,234.13Z" transform="translate(5)"/><path class="cls-4" d="M155.08,238.07c.6-.73.73-.82.81-.82s.22.09.8.56c.27.22.36.32.36.4s0,.11-.15.11h-3.83c0,1.18,0,2.24,0,2.72s-.22.47-.66.47-.49-.1-.49-.38,0-1.14,0-2.81h-3.88a5.21,5.21,0,0,0-.81.07l-.12-.41a4.48,4.48,0,0,0,.9.09h1v-1.51c0-.55,0-1.1,0-1.65a7.37,7.37,0,0,1,1.15.53H152v-2h-2a7.29,7.29,0,0,1-2.47,2.41c-.05,0-.16,0-.11-.1a9.71,9.71,0,0,0,1.9-3.14,5.42,5.42,0,0,0,.35-1.27c1.17.34,1.47.48,1.47.66s-.14.2-.48.24c-.16.35-.33.65-.5.95h4.66c.57-.67.7-.76.78-.76s.22.09.78.53c.26.21.34.3.34.37s0,.11-.14.11h-3.49v2h1.3c.56-.64.65-.71.74-.71s.21.07.75.49c.25.2.32.27.32.36s0,.11-.17.11h-2.94v.4c0,.64,0,1.32,0,2ZM152,235.69H150.1v2.38H152Z" transform="translate(5)"/><path class="cls-4" d="M162.81,234.48v-.24a7.73,7.73,0,0,0,0-.93c1.16.12,1.28.15,1.28.28s-.06.14-.26.25v.64h1.92v-.36c0-.34,0-.48,0-.83,1,.1,1.28.17,1.28.32s-.06.15-.28.27v.6h.73c.45-.56.58-.65.66-.65s.22.09.69.45c.21.18.3.27.3.34s0,.11-.14.11h-2.24c0,.9,0,1.51,0,1.73s-.17.41-.58.41-.42-.1-.42-.43v-.06h-1.92v.11c0,.3-.17.43-.58.43s-.42-.12-.42-.39,0-.75,0-1.8h-1.55a16.66,16.66,0,0,1-.38,3.51,8.2,8.2,0,0,1-1.54,3.15s-.14,0-.12-.08a14.09,14.09,0,0,0,.83-3.64c.09-.91.13-1.93.13-3.16,0-.87,0-1.58-.1-2.37a7.77,7.77,0,0,1,1.25.58h2.73V232a4.91,4.91,0,0,0-.06-.65c1.33.13,1.46.25,1.46.37s-.13.22-.37.31v.65h2.39c.51-.59.64-.68.72-.68s.23.09.75.47c.24.19.33.28.33.35s0,.11-.14.11h-7.87v.93c0,.2,0,.39,0,.58Zm3.41,3c.45-.46.54-.52.63-.52s.19.06.65.48c.21.19.27.28.27.37s-.15.23-.56.33a8.51,8.51,0,0,1-1.47,1.52,13.16,13.16,0,0,0,3.68.73c.06,0,0,.11,0,.12-.4.12-.54.29-.7.81,0,.13-.1.17-.21.17a3.49,3.49,0,0,1-.69-.13,9.28,9.28,0,0,1-2.66-1.07l-.16-.11a11.05,11.05,0,0,1-4.53,1.3s-.09-.16,0-.18a11.82,11.82,0,0,0,3.87-1.66,6.49,6.49,0,0,1-1.37-1.91h-.66a2.35,2.35,0,0,0-.65.09l-.12-.43a4,4,0,0,0,.77.09Zm-3.05.25a5.77,5.77,0,0,0,1.64,1.51,8.49,8.49,0,0,0,1.41-1.51Zm2.54-1.62v-1.4h-1.92v1.4Z" transform="translate(5)"/><path class="cls-4" d="M54.05,239.29c.92,0,1.14-.07,1.36-.27a2.7,2.7,0,0,0,.6-.84c.05-.08.08-.09.18-.06s.12.07.11.15c-.13.56-.41,1.54-.59,2.11-.75,0-1.33,0-2.13,0s-1.45,0-2.17,0c-.11,0-.15,0-.15-.19a.46.46,0,0,1,.07-.31,18.84,18.84,0,0,1,1.92-2.81c.94-1.2,1.47-1.79,1.47-2.81s-.32-1.57-.95-1.57a.89.89,0,0,0-.91.64,2.28,2.28,0,0,0-.1.8c0,.31-.42.52-.83.52s-.52-.09-.52-.42a2.28,2.28,0,0,1,2.36-1.87,2,2,0,0,1,2.28,1.95c0,1.4-1,1.93-2.13,3a7.85,7.85,0,0,0-1.82,2Z" transform="translate(5)"/><path class="cls-4" d="M63.07,236.45c0,2.53-.92,4.13-2.45,4.13s-2.46-1.52-2.46-4.06.9-4.16,2.46-4.16S63.07,233.94,63.07,236.45Zm-3.62,0c0,2.29.23,3.75,1.17,3.75s1.16-1.46,1.16-3.75-.22-3.78-1.16-3.78S59.45,234.18,59.45,236.48Z" transform="translate(5)"/><path class="cls-4" d="M65.84,233.61c-.11,0-.16,0-.19-.12s0-.15.1-.2c.64-.23,1.61-.64,2.34-1,.08,0,.18.06.18.13,0,.88,0,1.54,0,2.44v3.44c0,1.09,0,1.23.13,1.46s.47.24.93.29c.08,0,.1,0,.1.16s0,.16-.1.16c-.51,0-1.11,0-1.63,0s-1.15,0-1.67,0c-.09,0-.11,0-.11-.16s0-.15.11-.16c.46,0,.83-.05.94-.29a4.32,4.32,0,0,0,.11-1.46v-3.94a2,2,0,0,0-.11-.85c-.08-.12-.31-.13-.65,0Z" transform="translate(5)"/><path class="cls-4" d="M73.55,233.6c-.61,0-.77.09-.9.24a2.11,2.11,0,0,0-.39.73c0,.08-.05.11-.2.08s-.13-.05-.12-.12c.09-.57.22-1.45.29-2,.72,0,1.45,0,2.21,0s1.44,0,2.14,0c.07,0,.09,0,.09.23a.56.56,0,0,1,0,.29,16.81,16.81,0,0,0-1.93,4.77,7.15,7.15,0,0,0-.16,1.45c0,.31,0,.48,0,.74s-.42.6-.84.6-.69-.14-.69-.49a7,7,0,0,1,.79-2.79,30,30,0,0,1,2.12-3.7Z" transform="translate(5)"/><path class="cls-4" d="M86.65,238.07c.61-.73.74-.82.81-.82s.22.09.81.56c.26.22.35.32.35.4s0,.11-.14.11H84.65c0,1.18,0,2.24,0,2.72s-.22.47-.66.47-.48-.1-.48-.38,0-1.14,0-2.81H79.71a5.32,5.32,0,0,0-.82.07l-.12-.41a4.57,4.57,0,0,0,.91.09h1v-1.51c0-.55,0-1.1,0-1.65a6.61,6.61,0,0,1,1.15.53h1.83v-2h-2a7.32,7.32,0,0,1-2.48,2.41s-.15,0-.11-.1a9.54,9.54,0,0,0,1.9-3.14,6,6,0,0,0,.36-1.27c1.16.34,1.46.48,1.46.66s-.13.2-.47.24c-.17.35-.33.65-.51.95h4.66c.58-.67.71-.76.79-.76s.22.09.78.53c.25.21.34.3.34.37s0,.11-.15.11H84.64v2h1.3c.56-.64.64-.71.73-.71s.21.07.75.49c.25.2.32.27.32.36s0,.11-.17.11H84.64v.4c0,.64,0,1.32,0,2Zm-3.07-2.38h-1.9v2.38h1.9Z" transform="translate(5)"/><path class="cls-4" d="M94.38,234.48v-.24a7.73,7.73,0,0,0,0-.93c1.16.12,1.29.15,1.29.28s-.07.14-.27.25v.64h1.93v-.36a7.81,7.81,0,0,0,0-.83c1,.1,1.28.17,1.28.32s0,.15-.27.27v.6H99c.45-.56.58-.65.66-.65s.22.09.69.45c.21.18.3.27.3.34s0,.11-.14.11H98.26c0,.9,0,1.51,0,1.73s-.18.41-.58.41-.42-.1-.42-.43v-.06H95.36v.11c0,.3-.16.43-.58.43s-.42-.12-.42-.39,0-.75,0-1.8H92.83a16.75,16.75,0,0,1-.37,3.51,8.34,8.34,0,0,1-1.54,3.15s-.15,0-.12-.08a13.69,13.69,0,0,0,.82-3.64c.09-.91.13-1.93.13-3.16,0-.87,0-1.58-.1-2.37a7.48,7.48,0,0,1,1.26.58h2.73V232a5,5,0,0,0-.07-.65c1.33.13,1.46.25,1.46.37s-.13.22-.37.31v.65h2.4c.5-.59.64-.68.71-.68s.23.09.75.47c.24.19.33.28.33.35s0,.11-.14.11H92.84v.93c0,.2,0,.39,0,.58Zm3.41,3c.45-.46.54-.52.63-.52s.2.06.65.48c.21.19.27.28.27.37s-.15.23-.56.33a8.18,8.18,0,0,1-1.47,1.52,13.23,13.23,0,0,0,3.68.73c.06,0,0,.11,0,.12-.39.12-.54.29-.7.81,0,.13-.1.17-.21.17a3.56,3.56,0,0,1-.68-.13,9.22,9.22,0,0,1-2.67-1.07l-.16-.11A11,11,0,0,1,92,241.5c-.06,0-.1-.16,0-.18a11.88,11.88,0,0,0,3.88-1.66,6.35,6.35,0,0,1-1.38-1.91h-.66a2.39,2.39,0,0,0-.65.09l-.12-.43a4,4,0,0,0,.77.09Zm-3,.25a5.86,5.86,0,0,0,1.63,1.51,8.49,8.49,0,0,0,1.41-1.51Zm2.54-1.62v-1.4H95.36v1.4Z" transform="translate(5)"/><path class="cls-4" d="M190.9,239.29c.92,0,1.14-.07,1.36-.27a2.72,2.72,0,0,0,.61-.84c0-.08.07-.09.17-.06s.12.07.11.15c-.13.56-.4,1.54-.59,2.11-.75,0-1.33,0-2.12,0s-1.46,0-2.18,0c-.11,0-.15,0-.15-.19a.53.53,0,0,1,.07-.31,18.23,18.23,0,0,1,1.93-2.81c.93-1.2,1.46-1.79,1.46-2.81s-.32-1.57-.95-1.57a.89.89,0,0,0-.91.64,2.28,2.28,0,0,0-.1.8c0,.31-.42.52-.82.52s-.53-.09-.53-.42a2.28,2.28,0,0,1,2.36-1.87,2,2,0,0,1,2.28,1.95c0,1.4-1,1.93-2.12,3a8,8,0,0,0-1.83,2Z" transform="translate(5)"/><path class="cls-4" d="M199.92,236.45c0,2.53-.91,4.13-2.44,4.13s-2.47-1.52-2.47-4.06.9-4.16,2.47-4.16S199.92,233.94,199.92,236.45Zm-3.62,0c0,2.29.23,3.75,1.18,3.75s1.15-1.46,1.15-3.75-.22-3.78-1.15-3.78S196.3,234.18,196.3,236.48Z" transform="translate(5)"/><path class="cls-4" d="M202.69,233.61c-.11,0-.15,0-.19-.12s0-.15.1-.2c.64-.23,1.61-.64,2.34-1,.08,0,.18.06.18.13,0,.88,0,1.54,0,2.44v3.44c0,1.09,0,1.23.12,1.46s.47.24.93.29c.08,0,.1,0,.1.16s0,.16-.1.16c-.5,0-1.11,0-1.63,0s-1.15,0-1.67,0c-.09,0-.11,0-.11-.16s0-.15.11-.16c.46,0,.83-.05.94-.29a4.32,4.32,0,0,0,.11-1.46v-3.94a1.85,1.85,0,0,0-.11-.85c-.08-.12-.31-.13-.65,0Z" transform="translate(5)"/><path class="cls-4" d="M212.27,236.47a1.63,1.63,0,0,1-1.45.82,2.16,2.16,0,0,1-2.16-2.37,2.39,2.39,0,0,1,2.42-2.56c1.54,0,2.5,1.26,2.5,3.14a4.67,4.67,0,0,1-2.2,4.31,5.47,5.47,0,0,1-1.78.77c-.1,0-.18-.05-.27-.21s-.07-.29.06-.3a3.1,3.1,0,0,0,1.52-.4c.85-.51,1.29-1.48,1.42-3.2ZM210,234.86c0,1.1.36,2,1.13,2,.46,0,.83-.29,1.14-1a1.59,1.59,0,0,0,.09-.7c0-1.47-.4-2.5-1.23-2.5S210,233.66,210,234.86Z" transform="translate(5)"/><path class="cls-4" d="M223.5,238.07c.61-.73.74-.82.82-.82s.22.09.8.56c.26.22.35.32.35.4s0,.11-.14.11H221.5c0,1.18,0,2.24,0,2.72s-.22.47-.66.47-.48-.1-.48-.38,0-1.14,0-2.81h-3.87a5.21,5.21,0,0,0-.81.07l-.12-.41a4.41,4.41,0,0,0,.9.09h1v-1.51c0-.55,0-1.1-.05-1.65a7.06,7.06,0,0,1,1.16.53h1.82v-2h-2a7.23,7.23,0,0,1-2.48,2.41s-.15,0-.11-.1a9.56,9.56,0,0,0,1.91-3.14,6.61,6.61,0,0,0,.35-1.27c1.16.34,1.46.48,1.46.66s-.13.2-.47.24c-.17.35-.33.65-.51.95h4.67c.57-.67.7-.76.78-.76s.22.09.78.53c.25.21.34.3.34.37s0,.11-.14.11h-3.49v2h1.3c.56-.64.65-.71.73-.71s.21.07.75.49c.26.2.32.27.32.36s0,.11-.16.11h-2.94v.4c0,.64,0,1.32,0,2Zm-3.07-2.38h-1.9v2.38h1.9Z" transform="translate(5)"/><path class="cls-4" d="M231.23,234.48v-.24a6,6,0,0,0,0-.93c1.17.12,1.29.15,1.29.28s-.07.14-.27.25v.64h1.93v-.36c0-.34,0-.48,0-.83,1,.1,1.27.17,1.27.32s0,.15-.27.27v.6h.72c.45-.56.59-.65.66-.65s.22.09.7.45c.21.18.29.27.29.34s0,.11-.14.11h-2.23c0,.9,0,1.51,0,1.73s-.18.41-.58.41-.42-.1-.42-.43v-.06h-1.93v.11c0,.3-.16.43-.58.43s-.42-.12-.42-.39,0-.75,0-1.8h-1.55a16.75,16.75,0,0,1-.37,3.51,8.34,8.34,0,0,1-1.54,3.15s-.14,0-.12-.08a13.69,13.69,0,0,0,.82-3.64c.09-.91.14-1.93.14-3.16,0-.87,0-1.58-.1-2.37a7.77,7.77,0,0,1,1.25.58h2.73V232a3.69,3.69,0,0,0-.07-.65c1.33.13,1.47.25,1.47.37s-.14.22-.38.31v.65h2.4c.51-.59.64-.68.72-.68s.23.09.74.47c.25.19.33.28.33.35s0,.11-.14.11h-7.87v.93c0,.2,0,.39,0,.58Zm3.42,3c.45-.46.53-.52.62-.52s.2.06.65.48c.21.19.28.28.28.37s-.16.23-.56.33a8.56,8.56,0,0,1-1.48,1.52,13.31,13.31,0,0,0,3.69.73c.05,0,0,.11,0,.12-.39.12-.53.29-.7.81,0,.13-.1.17-.21.17a3.56,3.56,0,0,1-.68-.13,9.17,9.17,0,0,1-2.66-1.07l-.17-.11a11,11,0,0,1-4.52,1.3s-.1-.16,0-.18a11.82,11.82,0,0,0,3.87-1.66,6.53,6.53,0,0,1-1.38-1.91h-.66a2.44,2.44,0,0,0-.65.09l-.12-.43a4,4,0,0,0,.77.09Zm-3.05.25a5.77,5.77,0,0,0,1.64,1.51,8.87,8.87,0,0,0,1.41-1.51Zm2.54-1.62v-1.4h-1.93v1.4Z" transform="translate(5)"/><path class="cls-4" d="M259.33,239.29c.92,0,1.14-.07,1.36-.27a2.7,2.7,0,0,0,.6-.84c0-.08.08-.09.18-.06s.12.07.11.15c-.13.56-.41,1.54-.59,2.11-.75,0-1.33,0-2.13,0s-1.45,0-2.18,0c-.11,0-.14,0-.14-.19a.46.46,0,0,1,.07-.31,18.84,18.84,0,0,1,1.92-2.81c.94-1.2,1.47-1.79,1.47-2.81s-.32-1.57-.95-1.57a.89.89,0,0,0-.91.64,2.28,2.28,0,0,0-.1.8c0,.31-.42.52-.83.52s-.53-.09-.53-.42a2.3,2.3,0,0,1,2.37-1.87,2,2,0,0,1,2.28,1.95c0,1.4-1,1.93-2.13,3a7.85,7.85,0,0,0-1.82,2Z" transform="translate(5)"/><path class="cls-4" d="M268.35,236.45c0,2.53-.92,4.13-2.45,4.13s-2.46-1.52-2.46-4.06.9-4.16,2.46-4.16S268.35,233.94,268.35,236.45Zm-3.62,0c0,2.29.23,3.75,1.17,3.75s1.16-1.46,1.16-3.75-.22-3.78-1.16-3.78S264.73,234.18,264.73,236.48Z" transform="translate(5)"/><path class="cls-4" d="M273,239.29c.92,0,1.14-.07,1.36-.27a2.72,2.72,0,0,0,.61-.84c0-.08.08-.09.17-.06s.13.07.11.15c-.13.56-.4,1.54-.59,2.11-.75,0-1.33,0-2.12,0s-1.46,0-2.18,0c-.11,0-.14,0-.14-.19a.53.53,0,0,1,.06-.31,18.23,18.23,0,0,1,1.93-2.81c.93-1.2,1.46-1.79,1.46-2.81s-.32-1.57-.95-1.57a.9.9,0,0,0-.91.64,2.28,2.28,0,0,0-.1.8c0,.31-.42.52-.82.52s-.53-.09-.53-.42a2.28,2.28,0,0,1,2.36-1.87,2,2,0,0,1,2.28,1.95c0,1.4-1,1.93-2.12,3a8,8,0,0,0-1.83,2Z" transform="translate(5)"/><path class="cls-4" d="M282,236.45c0,2.53-.91,4.13-2.44,4.13s-2.47-1.52-2.47-4.06.9-4.16,2.47-4.16S282,233.94,282,236.45Zm-3.62,0c0,2.29.23,3.75,1.18,3.75s1.15-1.46,1.15-3.75-.22-3.78-1.15-3.78S278.41,234.18,278.41,236.48Z" transform="translate(5)"/><path class="cls-4" d="M291.93,238.07c.6-.73.74-.82.81-.82s.22.09.81.56c.26.22.35.32.35.4s0,.11-.14.11h-3.83c0,1.18,0,2.24,0,2.72s-.22.47-.66.47-.48-.1-.48-.38,0-1.14,0-2.81H285a5.32,5.32,0,0,0-.82.07l-.12-.41a4.54,4.54,0,0,0,.9.09h1v-1.51c0-.55,0-1.1,0-1.65a6.61,6.61,0,0,1,1.15.53h1.83v-2h-2a7.29,7.29,0,0,1-2.47,2.41s-.15,0-.11-.1a9.54,9.54,0,0,0,1.9-3.14,5.42,5.42,0,0,0,.35-1.27c1.17.34,1.47.48,1.47.66s-.13.2-.48.24c-.16.35-.33.65-.5.95h4.66c.58-.67.71-.76.78-.76s.22.09.79.53c.25.21.34.3.34.37s0,.11-.15.11h-3.48v2h1.29c.57-.64.65-.71.74-.71s.21.07.75.49c.25.2.32.27.32.36s0,.11-.17.11h-2.93v.4c0,.64,0,1.32,0,2Zm-3.07-2.38H287v2.38h1.9Z" transform="translate(5)"/><path class="cls-4" d="M299.66,234.48v-.24a7.73,7.73,0,0,0,0-.93c1.16.12,1.29.15,1.29.28s-.07.14-.27.25v.64h1.93v-.36a7.81,7.81,0,0,0,0-.83c1,.1,1.28.17,1.28.32s-.06.15-.28.27v.6h.73c.45-.56.58-.65.66-.65s.22.09.69.45c.21.18.3.27.3.34s0,.11-.14.11h-2.24c0,.9,0,1.51,0,1.73s-.18.41-.59.41-.41-.1-.41-.43v-.06h-1.93v.11c0,.3-.16.43-.58.43s-.42-.12-.42-.39,0-.75,0-1.8h-1.55a16.75,16.75,0,0,1-.37,3.51,8.34,8.34,0,0,1-1.54,3.15s-.15,0-.12-.08a14.09,14.09,0,0,0,.82-3.64c.09-.91.13-1.93.13-3.16,0-.87,0-1.58-.1-2.37a7.86,7.86,0,0,1,1.26.58h2.73V232a5,5,0,0,0-.07-.65c1.33.13,1.46.25,1.46.37s-.13.22-.37.31v.65h2.4c.5-.59.64-.68.71-.68s.23.09.75.47c.24.19.33.28.33.35s0,.11-.14.11h-7.87v.93c0,.2,0,.39,0,.58Zm3.41,3c.45-.46.54-.52.63-.52s.2.06.65.48c.21.19.27.28.27.37s-.15.23-.56.33a8.18,8.18,0,0,1-1.47,1.52,13.16,13.16,0,0,0,3.68.73c.06,0,0,.11,0,.12-.39.12-.54.29-.7.81-.05.13-.1.17-.21.17a3.42,3.42,0,0,1-.68-.13,9.22,9.22,0,0,1-2.67-1.07l-.16-.11a11,11,0,0,1-4.52,1.3c-.06,0-.1-.16-.05-.18a11.88,11.88,0,0,0,3.88-1.66,6.35,6.35,0,0,1-1.38-1.91h-.66a2.39,2.39,0,0,0-.65.09l-.12-.43a4,4,0,0,0,.77.09Zm-3,.25a5.86,5.86,0,0,0,1.63,1.51,8.49,8.49,0,0,0,1.41-1.51Zm2.54-1.62v-1.4h-1.93v1.4Z" transform="translate(5)"/><rect class="cls-3" x="60.38" y="122.43" width="46.03" height="18.74"/><rect class="cls-3" x="124.38" y="118.08" width="54.13" height="20.2"/><rect class="cls-3" x="191.56" y="91.28" width="58.23" height="26.89"/><path class="cls-5" d="M59.65,137.64l0-.16H60a.87.87,0,0,0,.88-.86v-8.11a1.09,1.09,0,0,0-.29-.87,1.16,1.16,0,0,0-.77-.24h-.29v-.16c.23,0,.53,0,.91-.09s.78-.11,1.22-.19a12.39,12.39,0,0,0,1.27-.3,4.67,4.67,0,0,0,1.05-.44h.16v10.41a.79.79,0,0,0,.26.6.86.86,0,0,0,.62.25h.33v.16Z" transform="translate(5)"/><path class="cls-5" d="M66.93,135.26a1.37,1.37,0,0,1,.82-.27,1.85,1.85,0,0,1,.85.24,1.44,1.44,0,0,1,.61.68,2.67,2.67,0,0,1,.22,1.44,3,3,0,0,1-.5,1.31,2.83,2.83,0,0,1-1,.89,2.1,2.1,0,0,1-1.34.16l-.06-.21a1.37,1.37,0,0,0,.51-.43,1.11,1.11,0,0,0,.22-.71,1.43,1.43,0,0,0-.44-.89,1.62,1.62,0,0,1-.36-.76,1.66,1.66,0,0,1,.06-.83A1.28,1.28,0,0,1,66.93,135.26Z" transform="translate(5)"/><path class="cls-5" d="M79,125.9,79,126a10.49,10.49,0,0,0-2.68,1.18,4.4,4.4,0,0,0-1.41,1.49,5,5,0,0,0-.56,1.88,21.1,21.1,0,0,0-.12,2.38c0,.88,0,1.62.07,2.21a3.11,3.11,0,0,0,.32,1.33.89.89,0,0,0,.83.44,1.08,1.08,0,0,0,.9-.39,2.26,2.26,0,0,0,.41-1,7.42,7.42,0,0,0,.11-1.36,7.55,7.55,0,0,0-.1-1.42,2.05,2.05,0,0,0-.28-.76.9.9,0,0,0-.42-.34.92.92,0,0,0-.67,0,2.42,2.42,0,0,0-.53.22l-.12-.13a1.81,1.81,0,0,1,.71-.82,2.84,2.84,0,0,1,1.11-.41,3.35,3.35,0,0,1,1.26.06,3,3,0,0,1,1.18.57,3,3,0,0,1,.86,1.14,3.92,3.92,0,0,1,.28,1.77,4.18,4.18,0,0,1-.53,2,3.57,3.57,0,0,1-1.52,1.4,5.93,5.93,0,0,1-2.6.55,5.82,5.82,0,0,1-2.66-.53,3.68,3.68,0,0,1-1.65-1.74,7.09,7.09,0,0,1-.56-3,8.61,8.61,0,0,1,.52-3.06,5.51,5.51,0,0,1,1.55-2.25,6,6,0,0,1,2.6-1.27A10.28,10.28,0,0,1,79,125.9Z" transform="translate(5)"/><path class="cls-5" d="M81.4,137.64v-.16h.34a.87.87,0,0,0,.88-.86v-8.11a1.09,1.09,0,0,0-.29-.87,1.16,1.16,0,0,0-.77-.24h-.29v-.16c.23,0,.53,0,.91-.09S83,127,83.41,127a12.39,12.39,0,0,0,1.27-.3,4.48,4.48,0,0,0,1-.44h.16v10.41a.77.77,0,0,0,.27.6.84.84,0,0,0,.61.25h.34v.16Z" transform="translate(5)"/><path class="cls-5" d="M89.44,138.25l-.06-.11A10,10,0,0,0,92.06,137a4.23,4.23,0,0,0,1.42-1.48,5.22,5.22,0,0,0,.56-1.88c.07-.7.11-1.49.11-2.38s0-1.62-.07-2.22a3.11,3.11,0,0,0-.31-1.32.86.86,0,0,0-.84-.44,1.06,1.06,0,0,0-.89.39,2.27,2.27,0,0,0-.42,1,8.23,8.23,0,0,0-.11,1.36,7.59,7.59,0,0,0,.1,1.43,2,2,0,0,0,.29.76,1,1,0,0,0,.41.34,1,1,0,0,0,.68,0,2.32,2.32,0,0,0,.52-.22l.11.12a1.91,1.91,0,0,1-.7.82,2.85,2.85,0,0,1-1.11.42,3.37,3.37,0,0,1-1.26-.06,2.9,2.9,0,0,1-1.18-.58,3,3,0,0,1-.85-1.14,4,4,0,0,1-.29-1.76,4.11,4.11,0,0,1,.53-1.95,3.48,3.48,0,0,1,1.52-1.41,5.8,5.8,0,0,1,2.6-.54,4.7,4.7,0,0,1,3.61,1.24,5.59,5.59,0,0,1,1.26,4,8.61,8.61,0,0,1-.51,3.06,5.44,5.44,0,0,1-1.56,2.25,6.11,6.11,0,0,1-2.59,1.27A10.32,10.32,0,0,1,89.44,138.25Z" transform="translate(5)"/><path class="cls-5" d="M126.6,133.78v-.16H127a.85.85,0,0,0,.62-.26.83.83,0,0,0,.26-.61v-8.11a1.07,1.07,0,0,0-.29-.86,1.16,1.16,0,0,0-.77-.24h-.29v-.16c.23,0,.53,0,.91-.09s.78-.11,1.22-.19a12.4,12.4,0,0,0,1.27-.31,4.67,4.67,0,0,0,1.05-.44h.16v10.42a.8.8,0,0,0,.27.6.88.88,0,0,0,.61.25h.34v.16Z" transform="translate(5)"/><path class="cls-5" d="M133.88,131.39a1.25,1.25,0,0,1,.81-.26,1.67,1.67,0,0,1,.86.24,1.38,1.38,0,0,1,.6.68,2.55,2.55,0,0,1,.22,1.43,2.87,2.87,0,0,1-.5,1.31,2.67,2.67,0,0,1-1,.89,2,2,0,0,1-1.33.16l-.07-.21a1.22,1.22,0,0,0,.52-.42,1.09,1.09,0,0,0,.21-.71,1.4,1.4,0,0,0-.44-.9,1.58,1.58,0,0,1-.36-.76,1.63,1.63,0,0,1,.07-.82A1.21,1.21,0,0,1,133.88,131.39Z" transform="translate(5)"/><path class="cls-5" d="M137.48,122.61l8.48,0-2.05,4.75c-.14.31-.29.68-.45,1.12s-.33.9-.5,1.41-.33,1-.49,1.48-.31.95-.44,1.37-.24.78-.31,1.07H139l.68-1.16.84-1.45.85-1.53c.28-.51.54-1,.76-1.41s.41-.79.55-1.08l.83-1.77h-5.12a1.09,1.09,0,0,0-.75.24,1.68,1.68,0,0,0-.45.72H137Z" transform="translate(5)"/><path class="cls-5" d="M154.12,122.35l.14,1.19-5.7,5.53H155a1.08,1.08,0,0,0,.68-.17,1.16,1.16,0,0,0,.36-.47h.16l-.49,2.32h-9.81v-.16Zm.16,10.4a.8.8,0,0,0,.26.61.87.87,0,0,0,.62.26h.17v.16h-5.41l0-.16h.16a.89.89,0,0,0,.63-.25.81.81,0,0,0,.27-.62ZM151,125.81l3.12-3.46h.16v11.41H151Z" transform="translate(5)"/><path class="cls-5" d="M158.24,134.38l-.06-.11a10.15,10.15,0,0,0,2.68-1.18,4.43,4.43,0,0,0,1.42-1.49,5.3,5.3,0,0,0,.56-1.88c.07-.7.11-1.49.11-2.38s0-1.62-.07-2.21a3.16,3.16,0,0,0-.31-1.33.88.88,0,0,0-.84-.44,1.06,1.06,0,0,0-.89.39,2.16,2.16,0,0,0-.42,1,7.2,7.2,0,0,0-.11,1.36,7.48,7.48,0,0,0,.1,1.42,2,2,0,0,0,.29.76,1,1,0,0,0,.41.35,1,1,0,0,0,.68,0,1.94,1.94,0,0,0,.52-.22l.11.13a1.88,1.88,0,0,1-.7.81,2.57,2.57,0,0,1-1.11.42,3.16,3.16,0,0,1-1.26-.06,3,3,0,0,1-1.18-.57,2.89,2.89,0,0,1-.85-1.15,3.92,3.92,0,0,1-.29-1.76,4.06,4.06,0,0,1,.53-2,3.54,3.54,0,0,1,1.52-1.41,5.8,5.8,0,0,1,2.6-.54,4.72,4.72,0,0,1,3.61,1.25,5.56,5.56,0,0,1,1.26,4,8.61,8.61,0,0,1-.51,3.06,5.47,5.47,0,0,1-1.56,2.25,6,6,0,0,1-2.59,1.27A10.32,10.32,0,0,1,158.24,134.38Z" transform="translate(5)"/><path class="cls-5" d="M194.25,102.25l-1.07-2.88a4,4,0,0,1,1.16-.69,8.12,8.12,0,0,1,1.47-.42,9.32,9.32,0,0,1,1.56-.14,6.6,6.6,0,0,1,2.34.39,3.87,3.87,0,0,1,1.64,1.12,2.71,2.71,0,0,1,.6,1.77,3.24,3.24,0,0,1-.33,1.44,5.42,5.42,0,0,1-.85,1.25,9.73,9.73,0,0,1-1.16,1.06,13.4,13.4,0,0,1-1.23.88l-1.09.7h3a2,2,0,0,0,.88-.19,2.17,2.17,0,0,0,.72-.55,4.49,4.49,0,0,0,.6-.94h.16l-1.09,4.49h-8.32v-.16c.46-.56.93-1.13,1.41-1.69s1-1.13,1.41-1.69.86-1.12,1.23-1.67a9.34,9.34,0,0,0,.86-1.65,4.49,4.49,0,0,0,.32-1.62,2.3,2.3,0,0,0-.55-1.63,1.76,1.76,0,0,0-1.5-.51,1.88,1.88,0,0,0-1.53.92,4.66,4.66,0,0,0-.52,2.41Z" transform="translate(5)"/><path class="cls-5" d="M204.32,107.16a1.32,1.32,0,0,1,.81-.27,1.89,1.89,0,0,1,.86.24,1.47,1.47,0,0,1,.6.68,2.58,2.58,0,0,1,.22,1.44,2.91,2.91,0,0,1-.5,1.31,2.73,2.73,0,0,1-1,.89,2.11,2.11,0,0,1-1.34.16l-.06-.21a1.37,1.37,0,0,0,.51-.43,1.05,1.05,0,0,0,.21-.71,1.4,1.4,0,0,0-.44-.89,1.62,1.62,0,0,1-.36-.76,1.79,1.79,0,0,1,.07-.83A1.22,1.22,0,0,1,204.32,107.16Z" transform="translate(5)"/><path class="cls-5" d="M211.85,98.15a6.43,6.43,0,0,1,2.19.33,3.16,3.16,0,0,1,1.39.93,2.56,2.56,0,0,1,.22,2.65,2.1,2.1,0,0,1-.69.76,2.49,2.49,0,0,1-.94.38,2.26,2.26,0,0,1-1,0,4.15,4.15,0,0,1,1,.15,3.48,3.48,0,0,1,1.09.51,2.84,2.84,0,0,1,.86,1,3.22,3.22,0,0,1,.33,1.54,3.7,3.7,0,0,1-.52,2,4.29,4.29,0,0,1-1.4,1.41,6.11,6.11,0,0,1-2,.78,7.43,7.43,0,0,1-2.26.13,7.14,7.14,0,0,1-2.22-.58l0-.17a5.75,5.75,0,0,0,1.87-.24,4.92,4.92,0,0,0,1.56-.76,3.74,3.74,0,0,0,1.07-1.21,3.28,3.28,0,0,0,.39-1.59,2.49,2.49,0,0,0-.45-1.56,2.74,2.74,0,0,0-1.14-.86,3.67,3.67,0,0,0-1.37-.27l0-.16a2.56,2.56,0,0,0,1.36-.35,2.59,2.59,0,0,0,1-1,2.37,2.37,0,0,0,.27-1.4,1.71,1.71,0,0,0-.33-1,1.5,1.5,0,0,0-.72-.5,2.07,2.07,0,0,0-.9-.1,1.56,1.56,0,0,0-1.36.84,4.78,4.78,0,0,0-.37,2.27h-.16l-.91-2.77a4.55,4.55,0,0,1,1.65-.83A8,8,0,0,1,211.85,98.15Z" transform="translate(5)"/><path class="cls-5" d="M221.49,98.15a6.37,6.37,0,0,1,2.18.33,3.1,3.1,0,0,1,1.39.93,2.3,2.3,0,0,1,.49,1.49,2.37,2.37,0,0,1-.27,1.16,2.1,2.1,0,0,1-.69.76,2.49,2.49,0,0,1-.94.38,2.21,2.21,0,0,1-1,0,4.14,4.14,0,0,1,1,.15,3.48,3.48,0,0,1,1.09.51,2.84,2.84,0,0,1,.86,1,3.22,3.22,0,0,1,.33,1.54,3.7,3.7,0,0,1-.52,2,4.19,4.19,0,0,1-1.4,1.41,6,6,0,0,1-2,.78,7.41,7.41,0,0,1-2.26.13,7,7,0,0,1-2.21-.58l0-.17a5.75,5.75,0,0,0,1.87-.24,4.73,4.73,0,0,0,1.56-.76,3.74,3.74,0,0,0,1.07-1.21,3.28,3.28,0,0,0,.39-1.59,2.49,2.49,0,0,0-.45-1.56,2.74,2.74,0,0,0-1.14-.86,3.67,3.67,0,0,0-1.37-.27l0-.16A2.63,2.63,0,0,0,222,101.9a2.23,2.23,0,0,0,.27-1.4,1.71,1.71,0,0,0-.33-1,1.47,1.47,0,0,0-.71-.5,2.13,2.13,0,0,0-.91-.1,1.56,1.56,0,0,0-1.36.84,4.78,4.78,0,0,0-.37,2.27h-.16l-.91-2.77a4.72,4.72,0,0,1,1.65-.83A8,8,0,0,1,221.49,98.15Z" transform="translate(5)"/><path class="cls-5" d="M235.6,97.8l.06.11A10.49,10.49,0,0,0,233,99.09a4.43,4.43,0,0,0-1.42,1.49,5.36,5.36,0,0,0-.56,1.88c-.07.7-.11,1.49-.11,2.38s0,1.62.07,2.22a3.09,3.09,0,0,0,.32,1.32.87.87,0,0,0,.83.44,1.06,1.06,0,0,0,.89-.39,2.16,2.16,0,0,0,.42-1,7.24,7.24,0,0,0,.11-1.35,7.59,7.59,0,0,0-.1-1.43,2.05,2.05,0,0,0-.28-.76,1,1,0,0,0-.42-.34.93.93,0,0,0-.67,0,2.42,2.42,0,0,0-.53.22l-.13-.12a1.81,1.81,0,0,1,.72-.83,2.84,2.84,0,0,1,1.11-.41,3.36,3.36,0,0,1,1.26.06,2.87,2.87,0,0,1,2,1.71,3.94,3.94,0,0,1,.29,1.77,4.18,4.18,0,0,1-.53,2,3.63,3.63,0,0,1-1.52,1.4,5.93,5.93,0,0,1-2.6.55,5.82,5.82,0,0,1-2.66-.53,3.68,3.68,0,0,1-1.65-1.74,7.09,7.09,0,0,1-.56-3,8.61,8.61,0,0,1,.51-3.06,5.53,5.53,0,0,1,1.56-2.25,6,6,0,0,1,2.6-1.27A10.28,10.28,0,0,1,235.6,97.8Z" transform="translate(5)"/><rect class="cls-3" x="256.9" y="79.03" width="57.41" height="26.89"/><path class="cls-5" d="M256.49,88.17l-1.34-3.6a5.25,5.25,0,0,1,1.45-.86,9.89,9.89,0,0,1,1.84-.52,10.89,10.89,0,0,1,1.95-.18,8.39,8.39,0,0,1,2.92.49,4.89,4.89,0,0,1,2.05,1.4,3.38,3.38,0,0,1,.75,2.21,4.09,4.09,0,0,1-.41,1.8,6.76,6.76,0,0,1-1.07,1.56,11.35,11.35,0,0,1-1.44,1.33c-.52.41-1,.78-1.54,1.1l-1.36.87h3.8a2.45,2.45,0,0,0,1.09-.23,2.86,2.86,0,0,0,.9-.69,5,5,0,0,0,.75-1.18h.2l-1.36,5.62h-10.4v-.2c.57-.7,1.16-1.41,1.77-2.12s1.19-1.41,1.76-2.11,1.07-1.39,1.53-2.09a11.67,11.67,0,0,0,1.08-2.06,5.63,5.63,0,0,0,.4-2,2.9,2.9,0,0,0-.69-2,2.2,2.2,0,0,0-1.87-.64,2.35,2.35,0,0,0-1.91,1.15,5.7,5.7,0,0,0-.65,3Z" transform="translate(5)"/><path class="cls-5" d="M269.07,94.31a1.68,1.68,0,0,1,1-.33,2.3,2.3,0,0,1,1.07.3,1.78,1.78,0,0,1,.75.85,3.3,3.3,0,0,1,.28,1.79,3.61,3.61,0,0,1-.63,1.64,3.32,3.32,0,0,1-1.28,1.11,2.51,2.51,0,0,1-1.67.2l-.08-.26a1.67,1.67,0,0,0,.64-.53,1.47,1.47,0,0,0,.27-.89,1.83,1.83,0,0,0-.55-1.12,1.91,1.91,0,0,1-.45-.95,2,2,0,0,1,.08-1A1.53,1.53,0,0,1,269.07,94.31Z" transform="translate(5)"/><path class="cls-5" d="M282.47,86.65l-6.14.5L276,88.81a9.85,9.85,0,0,1,3.4-.28,5.74,5.74,0,0,1,2.48.85,4.19,4.19,0,0,1,1.48,1.71,4.93,4.93,0,0,1,.42,2.32,4.72,4.72,0,0,1-.82,2.56,5.7,5.7,0,0,1-2,1.73,8.47,8.47,0,0,1-2.59.9,8.9,8.9,0,0,1-2.77.07,7.32,7.32,0,0,1-2.49-.76l0-.2a7.12,7.12,0,0,0,1.28-.1,9.74,9.74,0,0,0,1.59-.4,6.85,6.85,0,0,0,1.57-.75,4.41,4.41,0,0,0,1.22-1.13,2.92,2.92,0,0,0,.54-1.56,2.14,2.14,0,0,0-.62-1.79,3,3,0,0,0-1.91-.72,6.47,6.47,0,0,0-2.73.55l-.18-.12L275.57,84l6-.5a1.58,1.58,0,0,0,1-.28,2,2,0,0,0,.58-.72h.2Z" transform="translate(5)"/><path class="cls-5" d="M285.47,97.29l0-.2h.42a1.06,1.06,0,0,0,.78-.32A1,1,0,0,0,287,96V85.87a1.35,1.35,0,0,0-.36-1.08,1.45,1.45,0,0,0-1-.3h-.36v-.2c.28,0,.65-.05,1.13-.11s1-.14,1.53-.24a14.15,14.15,0,0,0,1.59-.38,5.49,5.49,0,0,0,1.31-.55h.2V96a1,1,0,0,0,.33.75,1.06,1.06,0,0,0,.77.31h.42v.2Z" transform="translate(5)"/><path class="cls-5" d="M303.23,83l.18,1.48-7.12,6.92h8a1.41,1.41,0,0,0,.84-.21,1.56,1.56,0,0,0,.46-.59h.2l-.62,2.9H292.91v-.2Zm.2,13a1,1,0,0,0,.33.76,1,1,0,0,0,.77.32h.22v.2H298l0-.2h.2a1.11,1.11,0,0,0,.79-.31,1,1,0,0,0,.33-.77Zm-4.1-8.68,3.9-4.32h.2V97.27h-4.1Z" transform="translate(5)"/><circle class="cls-5" cx="83.22" cy="146.9" r="4.28"/><circle class="cls-5" cx="150.79" cy="143.52" r="4.28"/><circle class="cls-5" cx="285.93" cy="109.45" r="4.28"/><circle class="cls-5" cx="218.36" cy="120.98" r="4.28"/><polyline class="cls-7" points="83.22 146.9 150.79 143.52 218.36 120.98 285.93 109.45"/><path class="cls-4" d="M204.48,322.77v-3.31H193.86v3.31h-5.75v33.14h8v-6h6v6h8V322.77Zm-11.25,23.31h-2.37v-3.86h2.37Zm0-7.8h-2.37v-3.86h2.37Zm0-7.79h-2.37v-3.86h2.37ZM198,346.08h-2.37v-3.86H198Zm0-7.8h-2.37v-3.86H198Zm0-7.79h-2.37v-3.86H198Zm4.75,15.59h-2.37v-3.86h2.37Zm0-7.8h-2.37v-3.86h2.37Zm0-7.79h-2.37v-3.86h2.37Zm4.75,15.59h-2.37v-3.86h2.37Zm0-7.8h-2.37v-3.86h2.37Zm0-7.79h-2.37v-3.86h2.37Z" transform="translate(5)"/><path class="cls-4" d="M305.26,340.36a3.57,3.57,0,0,0-4.31-2.64c-1.83.31-2.78,2.59-3.23,4,.14-1.83-.2-4.38-2.39-5.57-3.33-1.81-5.44,1.44-5.66,1.86s-.21.5.38.47a8.75,8.75,0,0,1,3.22-.18l.71-.65.33.92a3.71,3.71,0,0,1,2.43,3.24,5.57,5.57,0,0,0-4.33-2,5.46,5.46,0,0,0-5.54,5.38v.07a.31.31,0,0,0,.19.25.3.3,0,0,0,.31-.07,2,2,0,0,1,.34-.35,8.94,8.94,0,0,1,1.6-1.18l.52-1,.71.38a9.21,9.21,0,0,1,3.45-.66,9.33,9.33,0,0,1,2.32.29,5.72,5.72,0,0,0-5.32,3,5.14,5.14,0,0,0,.16,5c.15.14.33,0,.38-.21a11.24,11.24,0,0,1,.93-2.6l-.22-.88.6.16a9.67,9.67,0,0,1,3.38-3.62,16,16,0,0,0-.68,11.57h3.67s-3.73-3.62-1.79-11a11.61,11.61,0,0,1,1.4,2.3l.57.07-.25.67a8.9,8.9,0,0,1,.56,2.75c0,.25.16.44.24.27,1.19-2.54.81-5.14-.86-6.66a5.36,5.36,0,0,1,2.59,2.16l.8.18-.15.9a11.17,11.17,0,0,1,1,2.73c0,.24.18.4.33.12.91-1.62,1-4.72-.62-6.43-1.27-1.32-3.52-1.4-4.91-1,.91-1.53,3.34-1.64,3.34-1.64s.39-.89.47-1,.55.86.55.86l2.45,1s.32.22.38-.15A1.91,1.91,0,0,0,305.26,340.36Z" transform="translate(5)"/><path class="cls-4" d="M248.09,343.85v12.06h22v-6h6v6h8.06V343.85Z" transform="translate(5)"/><path class="cls-4" d="M235.13,339.64h-9.6v-2.2H223v2.2h-2.27l-4.22,7h3V356h16.81v-9.35h3Zm-9,10.91h-2.39v-2.39h2.39Zm6.08,0h-2.39v-2.39h2.39Z" transform="translate(5)"/><path class="cls-4" d="M70.17,346H92.7a1.18,1.18,0,0,0,1-.49,1.21,1.21,0,0,0,.17-1.09l-3.91-11.7a1.19,1.19,0,0,0-1.13-.82H74.07a1.2,1.2,0,0,0-1.14.82L69,344.45a1.21,1.21,0,0,0,.17,1.09A1.18,1.18,0,0,0,70.17,346ZM75,333.69h8.47l-10.46,6Z" transform="translate(5)"/><path class="cls-4" d="M64.43,366.06a1.2,1.2,0,0,0-1.14-.81H48.56a1.2,1.2,0,0,0-1.13.81l-3.91,11.71a1.19,1.19,0,0,0,.17,1.08,1.18,1.18,0,0,0,1,.5H67.19a1.19,1.19,0,0,0,1-.5,1.22,1.22,0,0,0,.16-1.08ZM47.5,373l2-6H58Z" transform="translate(5)"/><path class="cls-4" d="M90.89,366.06a1.2,1.2,0,0,0-1.14-.81H75a1.2,1.2,0,0,0-1.14.81L70,377.77a1.22,1.22,0,0,0,.16,1.08,1.19,1.19,0,0,0,1,.5H93.66a1.18,1.18,0,0,0,1-.5,1.16,1.16,0,0,0,.16-1.08ZM74,373l2-6h8.47Z" transform="translate(5)"/><path class="cls-4" d="M121.26,377.77l-3.9-11.71a1.2,1.2,0,0,0-1.14-.81H101.49a1.2,1.2,0,0,0-1.13.81l-3.91,11.71a1.19,1.19,0,0,0,.17,1.08,1.16,1.16,0,0,0,1,.5h22.53a1.19,1.19,0,0,0,1-.5A1.22,1.22,0,0,0,121.26,377.77ZM100.42,373l2-6h8.47Z" transform="translate(5)"/><path class="cls-4" d="M49.75,383.62a1.19,1.19,0,0,0-1.13-.82H33.89a1.2,1.2,0,0,0-1.14.82l-3.9,11.71a1.19,1.19,0,0,0,.16,1.08,1.21,1.21,0,0,0,1,.49H52.52a1.2,1.2,0,0,0,1.14-1.57Zm-16.93,6.9,2-6h8.47Z" transform="translate(5)"/><path class="cls-4" d="M76.22,383.62a1.2,1.2,0,0,0-1.14-.82H60.35a1.19,1.19,0,0,0-1.13.82l-3.91,11.71a1.2,1.2,0,0,0,.17,1.08,1.18,1.18,0,0,0,1,.49H79a1.21,1.21,0,0,0,1-.49,1.23,1.23,0,0,0,.16-1.08Zm-16.93,6.9,2-6h8.47Z" transform="translate(5)"/><path class="cls-4" d="M129.15,383.62a1.2,1.2,0,0,0-1.14-.82H113.28a1.19,1.19,0,0,0-1.13.82l-3.91,11.71a1.2,1.2,0,0,0,1.14,1.57h22.53a1.21,1.21,0,0,0,1-.49,1.23,1.23,0,0,0,.16-1.08Zm-16.93,6.9,2-6h8.47Z" transform="translate(5)"/><path class="cls-4" d="M106.58,395.33l-3.9-11.71a1.2,1.2,0,0,0-1.14-.82H86.82a1.2,1.2,0,0,0-1.14.82l-3.9,11.71a1.19,1.19,0,0,0,.16,1.08,1.21,1.21,0,0,0,1,.49h22.54a1.19,1.19,0,0,0,1-.49A1.17,1.17,0,0,0,106.58,395.33Zm-20.83-4.81,2-6h8.47Z" transform="translate(5)"/><path class="cls-4" d="M56.46,362.66H79a1.2,1.2,0,0,0,1-.5,1.16,1.16,0,0,0,.16-1.08l-3.9-11.71a1.2,1.2,0,0,0-1.14-.82H60.37a1.2,1.2,0,0,0-1.14.82l-3.9,11.71a1.19,1.19,0,0,0,.16,1.08A1.22,1.22,0,0,0,56.46,362.66Zm4.83-12.35h8.47l-10.46,6Z" transform="translate(5)"/><path class="cls-4" d="M85.68,349.37l-3.9,11.71a1.19,1.19,0,0,0,.16,1.08,1.22,1.22,0,0,0,1,.5h22.54a1.2,1.2,0,0,0,1-.5,1.16,1.16,0,0,0,.16-1.08l-3.9-11.71a1.2,1.2,0,0,0-1.14-.82H86.82A1.2,1.2,0,0,0,85.68,349.37Zm10.53.94-10.46,6,2-6Z" transform="translate(5)"/><path class="cls-4" d="M268.35,388.29c0,.8-.05,1.61-.1,2.41h1.06c.49-.65.62-.75.75-.75s.29.1.83.59c.24.21.34.34.34.47s-.05.16-.39.41c-.17,3.37-.48,5.78-.89,6.63a1.88,1.88,0,0,1-.63.77,1.84,1.84,0,0,1-1.12.34c-.19,0-.25-.07-.27-.26-.09-.66-.32-.91-1.15-1.17-.08,0,0-.19,0-.19.72.06,1.14.08,1.31.08.48,0,.6-.08.76-.72a33.22,33.22,0,0,0,.56-5.83h-1.2c-.32,4.16-1.22,6.29-3.24,8.13-.06.05-.21-.08-.16-.14,1.46-2.48,2.07-5.46,2.07-10.31v-.46h-.42a6.94,6.94,0,0,0-1,.09l-.18-.59a5.51,5.51,0,0,0,1.19.13h1V386c0-.25,0-.64-.07-1.18,1.79.17,1.95.35,1.95.51s-.14.24-.44.4v2.21h.51c.57-.72.77-.85.88-.85s.3.13.83.61c.21.19.34.33.34.45s-.05.16-.21.16Zm4.64-.4a9.23,9.23,0,0,1-2.08,2.19c-.07.05-.23-.05-.18-.11a11.9,11.9,0,0,0,1.48-3.17,11.38,11.38,0,0,0,.4-2.07c1.68.35,2,.5,2,.72s-.16.29-.57.36a10.47,10.47,0,0,1-.85,1.71h4.1c.78-1,1-1.09,1.09-1.09s.3.13,1,.75c.32.29.45.43.45.55s-.05.16-.21.16Zm.51,9.28c0,.54.1.64,2.15.64s2.4-.06,2.67-.24.38-.38.94-2.13c0-.08.21-.05.21,0,0,.48-.05,1.16-.05,1.46a.39.39,0,0,0,.24.42c.32.19.44.35.44.64s-.29.72-1,.88a15.71,15.71,0,0,1-3.06.21c-3.29,0-3.89-.25-3.89-1.51,0-.4,0-.8,0-2.46,0-.74,0-1.46,0-2.2a4.67,4.67,0,0,0-.94.37l-.31-.53a4.44,4.44,0,0,0,1-.17l.22-.07c0-1,0-2-.05-3,1.7.18,1.91.24,1.91.48s-.11.26-.5.42v1.76l1.28-.37v-1.14a17.41,17.41,0,0,0-.08-2.11c1.41.13,1.88.26,1.88.5s-.15.25-.52.36v2l1.22-.35c.5-.75.66-.93.83-.93a2.55,2.55,0,0,1,1.11.74.66.66,0,0,1,.19.32c0,.16-.11.27-.47.49a23.57,23.57,0,0,1-.25,3.32,1.84,1.84,0,0,1-.51,1,1.5,1.5,0,0,1-1,.35c-.21,0-.22,0-.22-.43s-.32-.7-.9-.94c0,.49,0,.86,0,1.07,0,.41-.24.57-.81.57s-.56-.11-.56-.52,0-1.65.06-3.91l-1.28.37Zm2.56-5.39c0,.49,0,1,0,1.47v1.45a4.13,4.13,0,0,0,.86.1.44.44,0,0,0,.47-.43,25.52,25.52,0,0,0,.17-3Z" transform="translate(5)"/><path class="cls-4" d="M288.64,388c.69-.84.88-1,1-1s.32.13,1,.69c.31.24.44.38.44.49s0,.16-.21.16h-5.06a6.66,6.66,0,0,0-1.09.1l-.18-.59a7.16,7.16,0,0,0,1.28.12Zm-2,10.26v.5c0,.42-.29.63-.82.63s-.67-.16-.67-.55,0-1,0-3.06a21.75,21.75,0,0,0-.09-2.27,16.24,16.24,0,0,1,1.69.8h1.6c.56-.67.69-.77.82-.77s.29.1.86.56c.26.23.36.34.36.47s-.12.29-.47.53v.52c0,1.38.06,2.32.06,2.63s-.28.62-.86.62-.64-.14-.64-.49v-.12Zm1.23-12.42c.71-.83.9-1,1-1s.32.13,1,.68c.29.24.42.38.42.49s-.05.16-.21.16h-3.74a5.12,5.12,0,0,0-1,.1l-.17-.59a5.42,5.42,0,0,0,1.12.12Zm.15,4.29c.61-.78.8-.91.91-.91s.32.13.93.64c.27.23.4.37.4.48s0,.16-.21.16h-3.68a5.41,5.41,0,0,0-1,.1l-.17-.59a5.69,5.69,0,0,0,1.15.12Zm0,2.07c.61-.79.8-.91.91-.91s.33.12.95.64c.27.22.4.36.4.48s0,.16-.21.16h-3.68a6,6,0,0,0-1,.09l-.18-.59a5,5,0,0,0,1.14.13Zm.53,2.48h-1.89v3.22h1.89Zm7.49-2.9c.66-.64.79-.73.91-.73s.31.09,1,.62c.31.24.4.35.4.48s-.17.34-.59.5a12.22,12.22,0,0,1-2.13,3.28,9.38,9.38,0,0,0,3.84,1.44c.08,0,.08.14,0,.16-.54.16-.75.46-.92,1.21-.05.24-.12.34-.23.34a3.12,3.12,0,0,1-.61-.22,7.81,7.81,0,0,1-3-2.08A12.86,12.86,0,0,1,290,399.2c-.08,0-.16-.17-.08-.21a12.42,12.42,0,0,0,4.09-3.12,12.21,12.21,0,0,1-1.59-3.71h-.25a3.39,3.39,0,0,0-.93.13l-.18-.63a5.34,5.34,0,0,0,1.17.13Zm2.82-3.13c0,.23.06.3.32.39s.22.24.22.49-.21.59-.64.73a4.85,4.85,0,0,1-1.55.19c-1.41,0-1.91-.35-1.91-1.36,0-.62,0-.78,0-1.41v-1.63h-1.87v.31a6.4,6.4,0,0,1-.51,2.84,5,5,0,0,1-2.4,1.93c-.07,0-.21-.07-.15-.12a4.39,4.39,0,0,0,1.36-2.22,7.41,7.41,0,0,0,.19-1.94,17.64,17.64,0,0,0-.11-1.92c.8.34.95.39,1.67.75h1.76c.51-.59.61-.67.78-.67s.29.06.82.51a.87.87,0,0,1,.32.42c0,.16-.11.29-.42.46v2.48c0,.26.11.31.63.31s.59,0,.75-.19a3.58,3.58,0,0,0,.53-1.43c0-.08.19-.08.19,0Zm-6.16,3.5a8.47,8.47,0,0,0,1.89,2.95,10,10,0,0,0,1.5-2.95Z" transform="translate(5)"/><path class="cls-4" d="M190.21,416.15c0,.62,0,1.12,0,1.25q0,.42-.6.42c-.34,0-.48-.08-.48-.35,0-.1,0-.49,0-1.18,0-.06,0-.21,0-.4a8,8,0,0,1-1.61.78c-.06,0-.12-.08-.07-.12a8.37,8.37,0,0,0,1.92-1.93,5.23,5.23,0,0,0,.69-1.27c1,.41,1.43.61,1.43.74s-.13.19-.54.19a6.68,6.68,0,0,1-1.1,1.09c.48.12.57.17.57.28s0,.12-.3.26Zm1.53,7.58a9.37,9.37,0,0,1-3.82.82c-.06,0-.09-.14,0-.16a9.88,9.88,0,0,0,2.09-.9,3.24,3.24,0,0,0,1-.79c1.34.75,1.34.75,1.34.89S192.23,423.76,191.74,423.73Zm-1.28-1.23c0,.3-.23.41-.65.41s-.48-.11-.48-.4,0-.89,0-2.69c0-.67,0-1.35,0-2a11.7,11.7,0,0,1,1.3.5h4.69c.36-.44.46-.52.55-.52s.23.08.69.41c.21.17.29.25.29.35s0,.15-.32.37v.58c0,1.51.05,2.56.05,2.91s-.26.43-.69.43-.46-.09-.46-.32Zm5-3.94h-5v1h5Zm-5,2.3h5v-1h-5Zm0,1.36h5v-1.09h-5Zm3.06-6.17h-1.77a7.1,7.1,0,0,0-1,.07l-.13-.44a6.1,6.1,0,0,0,1.05.09h1.81v-.92c-.62,0-1.36,0-2.3,0-.06,0-.06-.15,0-.16a15.89,15.89,0,0,0,3.86-.89,6.32,6.32,0,0,0,1-.49c.76.55,1,.81,1,1s0,.12-.2.12a1.48,1.48,0,0,1-.5-.1,12.26,12.26,0,0,1-1.83.4v1h2.09c.55-.6.7-.7.78-.7s.23.1.69.49c.21.17.3.28.3.37s0,.12-.15.12H194.6v1.15h1.48c.52-.6.67-.7.75-.7s.24.1.71.49c.2.17.3.28.3.36s0,.12-.15.12h-5.61a7.69,7.69,0,0,0-1,.08l-.13-.45a6.35,6.35,0,0,0,1.07.1h1.47Zm3.53,8.62a1,1,0,0,1-.72-.35,6.09,6.09,0,0,0-2.41-1.32c-.06,0,0-.13,0-.13,2.74,0,3.78.46,3.78,1.2A.65.65,0,0,1,197.05,424.67Z" transform="translate(5)"/><path class="cls-4" d="M203.59,416.13c0,.56,0,.95,0,1.07s-.25.37-.64.37-.46-.11-.46-.36c0-.07,0-.32,0-.72,0-.13,0-.31,0-.54a9.81,9.81,0,0,1-1.79.95c-.06,0-.12-.09-.07-.12a9.82,9.82,0,0,0,2-2.09,7.46,7.46,0,0,0,.65-1.19c1.1.44,1.41.59,1.41.72s-.15.2-.53.21a7.39,7.39,0,0,1-.92.94c.45.11.56.2.56.28s-.1.14-.29.26Zm1.32,7.65a9.29,9.29,0,0,1-3.82.82c-.06,0-.1-.15,0-.16a8.55,8.55,0,0,0,2.57-1.21,1.93,1.93,0,0,0,.5-.48c1.34.76,1.34.76,1.34.89S205.39,423.79,204.91,423.78Zm3.6-5.74c.11-.13.19-.23.26-.3a6.09,6.09,0,0,1-1.09-.66,3.74,3.74,0,0,1-1.08-1.35l-1.66.18a3.2,3.2,0,0,0-.74.15l-.15-.43c.26,0,.77,0,.87,0l1.56-.17a6.71,6.71,0,0,1-.33-1.09,7.07,7.07,0,0,0-.24-.85c1.14,0,1.51.13,1.51.32s-.08.16-.32.3a4.1,4.1,0,0,0,.39,1.21l2.11-.22c.47-.71.57-.78.66-.78s.25.07.8.42c.28.18.35.25.35.35a.11.11,0,0,1-.1.09l-3.67.4a1.84,1.84,0,0,0,.17.22,4.52,4.52,0,0,0,1.74,1.1,2.55,2.55,0,0,0,.74.15c.25,0,.49-.29.92-1.1,0-.05.11,0,.1,0,0,.29-.11.84-.11.94s0,.18.26.3a.49.49,0,0,1,.24.42c0,.38-.32.54-1,.54a5.07,5.07,0,0,1-.65-.06.18.18,0,0,1,.05.12c0,.09-.06.14-.32.37v.6c0,1.59,0,2.68,0,3.05s-.25.44-.68.44-.45-.09-.46-.3h-5c0,.29-.22.41-.63.41s-.51-.11-.51-.39.05-.84.05-2.49c0-.82,0-1.63-.05-2.45a7.2,7.2,0,0,1,1.24.52Zm.12.27h-5v1.09h5Zm0,1.37h-5v1.07h5Zm0,1.34h-5v1.14h5Zm1.58,3.7a1,1,0,0,1-.73-.36A6.11,6.11,0,0,0,207.1,423c-.07,0,0-.12,0-.12,2.73,0,3.75.55,3.75,1.24A.65.65,0,0,1,210.21,424.72ZM209,415c-.16,0-.21,0-.39-.3a2.18,2.18,0,0,0-1-.91c-.06,0,0-.12,0-.12,1.26,0,1.75.32,1.75.84A.45.45,0,0,1,209,415Z" transform="translate(5)"/><path class="cls-4" d="M216.38,420.72a4.18,4.18,0,0,0,0,.83.51.51,0,0,0,.3.34,2.25,2.25,0,0,0,1,.17,10.08,10.08,0,0,0,2.41-.27,2.45,2.45,0,0,1,.63-.11c.48,0,.83.23.83.58s-.15.39-.38.49a4.18,4.18,0,0,1-1.09.18c-.67.05-1.3.08-1.88.08-1.32,0-2.1-.2-2.41-.61a1.53,1.53,0,0,1-.29-.55,4,4,0,0,1-.07-1c0-.73,0-1.49,0-2.23s0-1.32,0-1.93,0-.55-.34-.72a1.59,1.59,0,0,0-.32-.12c-.08,0-.12-.06-.12-.11s.4-.31.65-.31a2.14,2.14,0,0,1,.94.33c.42.24.55.42.55.64a.51.51,0,0,1-.18.41c-.1.09-.13.17-.16.56s-.07,1.06-.08,1.7a12.34,12.34,0,0,0,1.77-.71,16.14,16.14,0,0,0,1.46-.83c.11-.09.19-.13.19-.22s-.11-.21-.21-.31-.18-.17-.18-.22.12-.1.25-.1c.38,0,.56.07,1.05.51.32.3.49.55.48.76s-.13.32-.42.38l-.43.13c-.65.23-1.26.41-1.86.57a21.36,21.36,0,0,1-2.11.43C216.4,419.84,216.38,420.33,216.38,420.72Zm5-5.29a.92.92,0,0,1,.44.72.4.4,0,0,1-.39.42.42.42,0,0,1-.41-.27,4.57,4.57,0,0,0-.76-1.06c-.05-.05-.13-.1-.13-.15s.06-.09.14-.09a1.18,1.18,0,0,1,.28.05A2.27,2.27,0,0,1,221.4,415.43Zm1.11-.83a.7.7,0,0,1,.43.61.4.4,0,0,1-.37.44.46.46,0,0,1-.44-.26,3,3,0,0,0-.84-.94s-.14-.09-.14-.14a.09.09,0,0,1,.09-.1,1.25,1.25,0,0,1,.31,0A2.78,2.78,0,0,1,222.51,414.6Z" transform="translate(5)"/><path class="cls-4" d="M227,417.07c-.1,0-.16-.05-.16-.11s.23-.25.47-.25a2.86,2.86,0,0,1,1.27.46c.3.2.36.36.36.52a.34.34,0,0,1-.17.31.85.85,0,0,0-.2.41,9.77,9.77,0,0,1-1,2.23,6.24,6.24,0,0,1-2.43,2.23.75.75,0,0,1-.24.1c-.07,0-.1,0-.1-.12s0-.09.12-.17a7.45,7.45,0,0,0,1.69-2.1,9.34,9.34,0,0,0,.82-2.09,3.17,3.17,0,0,0,.15-.85C227.63,417.39,227.35,417.2,227,417.07Zm2.73-.77a.91.91,0,0,0-.55-.43c-.09,0-.14-.05-.14-.14s.21-.26.5-.26a2.15,2.15,0,0,1,1.09.42c.22.13.48.34.48.61a.46.46,0,0,1-.16.34.42.42,0,0,0-.1.29c0,.8,0,1.53-.06,2.71v.88c0,.11,0,.16.06.16a.72.72,0,0,0,.29-.1,15.1,15.1,0,0,0,4-2.32c.15-.12.22-.2.3-.2s.12,0,.12.11a.31.31,0,0,1-.09.17,13.93,13.93,0,0,1-4.24,3.47.5.5,0,0,0-.23.25.33.33,0,0,1-.28.17,1,1,0,0,1-.6-.39,1.27,1.27,0,0,1-.34-.72.63.63,0,0,1,0-.2,3.24,3.24,0,0,0,.06-.73c0-1,0-1.78,0-3.3A2.41,2.41,0,0,0,229.76,416.3Z" transform="translate(5)"/><path class="cls-4" d="M241.21,419a1.08,1.08,0,1,1-1.08-1.07A1.07,1.07,0,0,1,241.21,419Z" transform="translate(5)"/><path class="cls-4" d="M246.05,418.14a11.81,11.81,0,0,1-1.45,1.47s-.16-.06-.12-.11a12.87,12.87,0,0,0,2.1-4.19,10.52,10.52,0,0,0,.39-1.83c1.08.3,1.59.5,1.59.66s-.12.22-.41.28a16.18,16.18,0,0,1-1.44,2.83c.64.09.73.14.73.26s-.07.18-.32.29V424c0,.35-.21.5-.63.5s-.51-.09-.51-.43.07-1.27.07-3.18Zm4.68,1.86h-1.62a4.57,4.57,0,0,0-.76.08l-.13-.45a4.47,4.47,0,0,0,.89.1h1.62v-2.94h-1.92a4.66,4.66,0,0,0-.77.07l-.13-.44a4.41,4.41,0,0,0,.9.09h4.63c.57-.73.72-.82.8-.82s.24.09.84.57c.27.22.36.33.36.41s0,.12-.16.12h-3.4v2.94h1.28c.57-.75.71-.84.79-.84s.23.09.77.57c.24.23.34.34.34.42s0,.12-.16.12h-3v3.6h1.79c.63-.87.78-1,.86-1s.23.1.86.67c.28.27.38.37.38.46s0,.12-.16.12h-7.18a5.7,5.7,0,0,0-.86.07l-.13-.44a5.28,5.28,0,0,0,1,.09h2.32Zm.9-4.17c-.35,0-.47-.11-.69-.71a2.52,2.52,0,0,0-.9-1.24.07.07,0,0,1,.06-.11c1.56.2,2.19.62,2.19,1.38A.68.68,0,0,1,251.63,415.83Z" transform="translate(5)"/><path class="cls-4" d="M267,415.33c.49-.58.58-.65.68-.65s.22.07.92.71c.33.3.4.38.4.48s-.12.25-.52.25a.53.53,0,0,0-.5.11,6.16,6.16,0,0,1-1.08.64s-.14,0-.12-.09a4.21,4.21,0,0,0,.37-1.18H259.8c.05.95-.32,1.6-.95,1.6a.6.6,0,0,1-.61-.64.57.57,0,0,1,.39-.57,1.35,1.35,0,0,0,.87-1.33c0-.06.12-.08.13,0a3.73,3.73,0,0,1,.15.69h3v-.77c0-.4,0-.72,0-1,1.47.14,1.62.27,1.62.41s-.15.22-.41.33v1Zm-4.85,2.95a20.47,20.47,0,0,1-3.31.35c-.06,0-.06-.16,0-.17a19.8,19.8,0,0,0,5-1.62,4.2,4.2,0,0,0,1.31-.95c1,.65,1.28.91,1.28,1.09s-.12.18-.73.1a12,12,0,0,1-2.39.92v2l3.32-.45c.6-.88.7-.95.79-.95s.26.07.89.47c.31.2.39.28.39.37s-.06.12-.15.13l-5.24.72v2c0,.9.09.94,1.87.94,1.37,0,1.8-.09,2-.35a6.44,6.44,0,0,0,.67-1.61c0-.06.12-.06.12,0,0,.42-.05.95-.05,1.37,0,.14,0,.2.21.26a.44.44,0,0,1,.34.43c0,.36-.24.62-.81.76a12.53,12.53,0,0,1-2.77.22c-2.29,0-2.75-.38-2.75-1.55v-2.3l-2.86.39a5.36,5.36,0,0,0-.75.17l-.17-.42a8.29,8.29,0,0,0,.87,0l2.91-.4Z" transform="translate(5)"/><path class="cls-4" d="M276.54,421a2.44,2.44,0,0,1-2.66,2.45,2.46,2.46,0,0,1-2.68-2.36c0-1,.72-1.65,1.86-2.2a2.37,2.37,0,0,1-1.62-2.33,2.28,2.28,0,0,1,2.45-2.06c1.4,0,2.4.83,2.4,1.91,0,.92-.51,1.4-1.57,1.91A2.68,2.68,0,0,1,276.54,421Zm-4.07.1c0,1.2.57,2,1.43,2s1.46-.75,1.46-1.92c0-.86-.49-1.38-1.95-2.08A2,2,0,0,0,272.47,421.14Zm2.64-4.67c0-1-.53-1.56-1.22-1.56a1.33,1.33,0,0,0-1.3,1.5c0,.66.28,1.08,1.78,1.76A1.81,1.81,0,0,0,275.11,416.47Z" transform="translate(5)"/><path class="cls-4" d="M284,419c0,2.76-1,4.49-2.67,4.49s-2.68-1.65-2.68-4.42,1-4.53,2.68-4.53S284,416.26,284,419Zm-3.95,0c0,2.5.25,4.09,1.28,4.09s1.26-1.59,1.26-4.09-.24-4.12-1.26-4.12S280.07,416.53,280.07,419Z" transform="translate(5)"/><path class="cls-4" d="M288.66,417.74c.86.32,1.3.77,1.3,1.32a.52.52,0,0,1-.45.57c-.23,0-.36-.14-.39-.43a2.33,2.33,0,0,0-.46-1.25c0,2.35.06,5.6.06,6.26,0,.27-.24.39-.63.39s-.47-.1-.47-.35c0-.61.08-3.13.09-5.41a7.25,7.25,0,0,1-1.75,2.82s-.13,0-.11-.07a17.34,17.34,0,0,0,1.66-5h-.43a5.48,5.48,0,0,0-.82.08l-.13-.45a4.47,4.47,0,0,0,.89.1h.62v-1.24a13.93,13.93,0,0,0-.06-1.53c1.3.13,1.52.18,1.52.38s-.13.23-.44.35v2h.13c.34-.61.48-.71.57-.71s.19.1.52.49a.89.89,0,0,1,.22.37c0,.09,0,.12-.16.12h-1.28Zm5.18,2.58a5.5,5.5,0,0,0,1.51,1.46,6.53,6.53,0,0,0,2.21.84c.06,0,.05.08,0,.12a1.23,1.23,0,0,0-.64.8c-.06.21-.08.23-.18.23a1.07,1.07,0,0,1-.46-.2,7.23,7.23,0,0,1-1.35-1.11,8,8,0,0,1-1.3-2c0,1.57.12,3.17.12,3.66,0,.32-.22.46-.66.46s-.47-.11-.47-.38.07-1.59.09-2.91a7.8,7.8,0,0,1-3.65,2.49c-.06,0-.11-.08-.06-.12a9,9,0,0,0,3.16-3.35h-.93v0c0,.31-.21.43-.63.43s-.45-.08-.45-.37,0-1.1,0-2.6c0-.69,0-1,0-1.72a10.61,10.61,0,0,1,1.12.59h1.38v-1.18h-2a4.47,4.47,0,0,0-.75.08l-.14-.45a4.55,4.55,0,0,0,.89.1h2v-.35a12.13,12.13,0,0,0-.06-1.37c1.24.1,1.47.18,1.47.38s-.1.19-.36.33v1h1.64c.56-.65.71-.75.79-.75s.24.1.75.52c.22.19.32.3.32.38s0,.12-.16.12H293.7v1.18h1.51c.35-.46.44-.53.54-.53s.23.07.65.4c.19.15.26.24.26.33s-.1.23-.32.38v.51c0,1.36.06,2.29.06,2.6s-.22.41-.63.41-.46-.09-.46-.31v-.14ZM292.65,417h-1.42v1.35h1.42Zm0,1.63h-1.42V420h1.42Zm2.66-.28V417H293.7v1.35Zm0,1.74v-1.46H293.7V420Z" transform="translate(5)"/><path class="cls-4" d="M299.5,421.68a.1.1,0,0,1,.11-.1,5.9,5.9,0,0,1,2.09.82,1.51,1.51,0,0,1,.77,1.21.7.7,0,0,1-.72.75.72.72,0,0,1-.63-.54,4.12,4.12,0,0,0-1.54-2A.15.15,0,0,1,299.5,421.68Z" transform="translate(5)"/><path class="cls-4" d="M198,432.6a1.39,1.39,0,0,0,.54-.18,1,1,0,0,1,.41-.1,2.09,2.09,0,0,1,1,.3.52.52,0,0,1,.32.47.36.36,0,0,1-.35.37,5.48,5.48,0,0,1-.6-.06,6.34,6.34,0,0,0-.81-.07c-.45,0-1.29,0-2.32.06,0,.93,0,1.66,0,2.24,0,1.2.06,1.75.06,2.19a1.67,1.67,0,0,1-.17.76.77.77,0,0,1-.74.49c-.18,0-.31-.07-.37-.35a.69.69,0,0,0-.26-.45,6,6,0,0,0-.93-.53c-.21-.1-.26-.13-.26-.22s0,0,.12,0l.29,0a7.75,7.75,0,0,0,1.09.1c.18,0,.18-.12.18-.28s0-.69,0-1.58,0-1.54,0-2.29c-.73.08-1.35.18-2.25.32a1.17,1.17,0,0,0-.49.16.79.79,0,0,1-.44.14c-.16,0-.41-.11-.75-.53a1,1,0,0,1-.31-.66c0-.13,0-.34.13-.34s.18.12.36.27a.93.93,0,0,0,.72.29l.49,0,2.53-.24v-1.43a.93.93,0,0,0-.05-.39.37.37,0,0,0-.31-.26l-.35-.07c-.12,0-.15-.05-.15-.11s.14-.24.36-.33a1.22,1.22,0,0,1,.55-.12,2.41,2.41,0,0,1,1,.45.47.47,0,0,1,.24.42.55.55,0,0,1-.17.35c-.13.13-.15.18-.17.45s0,.53,0,1C196.81,432.72,197.41,432.67,198,432.6Zm-4.8,2c.09,0,.1.1.11.23a3.74,3.74,0,0,1-.09,1.35,2.1,2.1,0,0,1-.56.94,1.05,1.05,0,0,1-.7.32.54.54,0,0,1-.59-.57c0-.25.07-.44.48-.65a2.32,2.32,0,0,0,.73-.52,2.28,2.28,0,0,0,.48-.9C193.12,434.71,193.15,434.63,193.22,434.63Zm4.36.15c0-.07,0-.1.14-.1l.17,0a3.88,3.88,0,0,1,1.54.72,1.48,1.48,0,0,1,.68,1.08c0,.42-.17.74-.58.74s-.48-.2-.62-.54a8.69,8.69,0,0,0-.62-1.13,3.28,3.28,0,0,0-.58-.62C197.63,434.89,197.58,434.84,197.58,434.78Z" transform="translate(5)"/><path class="cls-4" d="M207.67,432.88c1.22-.09,1.66-.12,2.27-.19a1.75,1.75,0,0,0,.45-.13,1.24,1.24,0,0,1,.45-.11,2.4,2.4,0,0,1,1.14.33.51.51,0,0,1,.26.46.33.33,0,0,1-.28.36,3.49,3.49,0,0,1-.73,0,12.25,12.25,0,0,0-1.48-.09c-.41,0-1.08,0-1.62,0,.38.26.55.5.55.67a.42.42,0,0,1-.06.19,2.45,2.45,0,0,0-.24.54,7.93,7.93,0,0,1-1.31,2.36,7.23,7.23,0,0,1-2.45,2,.44.44,0,0,1-.2.07c-.08,0-.12,0-.12-.12s.1-.14.3-.32a10.33,10.33,0,0,0,1.76-2.21,8.59,8.59,0,0,0,.89-2.12,3.94,3.94,0,0,0,.11-.64.57.57,0,0,0-.13-.4c-.85.08-1.74.19-2.29.29a1.67,1.67,0,0,0-.57.21.57.57,0,0,1-.36.11c-.21,0-.43-.12-.8-.54a1.06,1.06,0,0,1-.31-.66c0-.18.06-.29.13-.29s.11.07.18.13a1.29,1.29,0,0,0,.81.39c.29,0,.71,0,1.06-.08C205.9,433,206.59,433,207.67,432.88Zm.77-2.54a1.1,1.1,0,0,0,.36-.13,1.59,1.59,0,0,1,.45-.13,2.23,2.23,0,0,1,1,.24.39.39,0,0,1,.19.36c0,.25-.16.4-.45.42s-.57,0-1,0l-2.65.22c-.22,0-.45.05-.62.05a1,1,0,0,1-1-.43.87.87,0,0,1-.28-.64c0-.11,0-.18.09-.18s.07,0,.15.11a1.32,1.32,0,0,0,1,.37,12.36,12.36,0,0,0,1.3-.09C207.59,430.48,208.05,430.43,208.44,430.34Z" transform="translate(5)"/><path class="cls-4" d="M216.69,432.57c-.1,0-.16-.05-.16-.11s.23-.25.47-.25a2.77,2.77,0,0,1,1.27.47c.3.19.36.36.36.52a.38.38,0,0,1-.17.31.85.85,0,0,0-.2.41,9.81,9.81,0,0,1-1,2.23,6.22,6.22,0,0,1-2.42,2.23.66.66,0,0,1-.24.09c-.07,0-.11,0-.11-.12s0-.08.12-.17a7.11,7.11,0,0,0,1.69-2.09,9.28,9.28,0,0,0,.83-2.09,3.1,3.1,0,0,0,.14-.85C217.28,432.9,217,432.7,216.69,432.57Zm2.73-.77a1,1,0,0,0-.55-.43c-.1,0-.15-.05-.15-.13s.22-.26.51-.26a2.15,2.15,0,0,1,1.09.42c.21.13.48.33.48.61a.42.42,0,0,1-.17.33.5.5,0,0,0-.1.29c0,.8,0,1.54-.05,2.71v.89c0,.11,0,.16.05.16a.86.86,0,0,0,.29-.1,14.92,14.92,0,0,0,4-2.33c.14-.12.22-.19.3-.19a.11.11,0,0,1,.12.11.34.34,0,0,1-.1.17,13.72,13.72,0,0,1-4.23,3.46.7.7,0,0,0-.24.25.32.32,0,0,1-.28.17,1,1,0,0,1-.59-.38,1.3,1.3,0,0,1-.34-.72.58.58,0,0,1,0-.2,4.1,4.1,0,0,0,.06-.74c0-1,0-1.77,0-3.29A2.59,2.59,0,0,0,219.42,431.8Z" transform="translate(5)"/><path class="cls-4" d="M230.87,434.49a1.08,1.08,0,1,1-1.08-1.08A1.07,1.07,0,0,1,230.87,434.49Z" transform="translate(5)"/><path class="cls-4" d="M239.45,430.21a1.89,1.89,0,0,0-.59-.23c-.11,0-.13,0-.13-.08s.09-.16.19-.23a.66.66,0,0,1,.36-.11,2.87,2.87,0,0,1,1,.25c.4.18.67.35.67.64a.48.48,0,0,1-.14.35c-.09.08-.13.24-.13.66a20.83,20.83,0,0,1-.3,4.12,4.53,4.53,0,0,1-1.2,2.2,7,7,0,0,1-3.59,1.76,1.39,1.39,0,0,1-.23,0c-.11,0-.15,0-.15-.11s0-.1.16-.15a6.08,6.08,0,0,0,3.55-2.77,6.38,6.38,0,0,0,.65-2.65c0-.51.05-1.33.05-2.94C239.65,430.51,239.63,430.33,239.45,430.21Zm-3.23.86c-.06-.15-.23-.29-.59-.45-.09-.05-.13-.06-.13-.12s.05-.1.13-.14a.9.9,0,0,1,.39-.09,2.22,2.22,0,0,1,.9.32c.39.22.62.48.62.7a.53.53,0,0,1-.14.33.74.74,0,0,0-.09.41c0,1-.06,2-.07,3.43,0,.36-.14.52-.42.52s-.38-.16-.54-.43a1.48,1.48,0,0,1-.16-.68,1.35,1.35,0,0,1,.06-.34,2.4,2.4,0,0,0,.06-.56c0-.45,0-.94,0-1.9A3.46,3.46,0,0,0,236.22,431.07Z" transform="translate(5)"/><path class="cls-4" d="M244.75,431.53c0-.09.06-.11.15-.11a1.88,1.88,0,0,1,.57.17,3,3,0,0,1,1.19.75,1.47,1.47,0,0,1,.4,1,.7.7,0,0,1-.66.79.59.59,0,0,1-.59-.49,3.91,3.91,0,0,0-1-1.94C244.79,431.6,244.75,431.58,244.75,431.53Zm4.08,5.38a10.32,10.32,0,0,1-3.12,2.32,1.34,1.34,0,0,1-.5.17.1.1,0,0,1-.11-.1c0-.08.05-.11.22-.23a13.57,13.57,0,0,0,2.62-2.44,18,18,0,0,0,1.9-2.93,6.16,6.16,0,0,0,.81-2,.48.48,0,0,0-.22-.41,4,4,0,0,0-.41-.21c-.11-.05-.15-.06-.15-.15s.3-.24.57-.24a2.57,2.57,0,0,1,1.39.6c.32.25.4.42.4.58a.43.43,0,0,1-.21.39,2.49,2.49,0,0,0-.45.62A19.42,19.42,0,0,1,248.83,436.91Zm3.86-6.9a.88.88,0,0,1,.45.71.4.4,0,0,1-.4.42.43.43,0,0,1-.41-.27,4.55,4.55,0,0,0-.75-1.06c-.05-.05-.13-.1-.13-.15s.06-.09.14-.09a1.18,1.18,0,0,1,.28.05A2.15,2.15,0,0,1,252.69,430Zm1.11-.82a.73.73,0,0,1,.43.61.41.41,0,0,1-.37.45.46.46,0,0,1-.45-.27,2.93,2.93,0,0,0-.84-.93s-.14-.1-.14-.15a.09.09,0,0,1,.09-.09l.32,0A2.93,2.93,0,0,1,253.8,429.19Z" transform="translate(5)"/><path class="cls-4" d="M265.45,435c-.37,0-1.19-.06-1.78-.06-.94,0-3,0-4.48.18a3.4,3.4,0,0,0-1.19.23.51.51,0,0,1-.32.1c-.32,0-.59-.29-1-.83a1,1,0,0,1-.23-.65c0-.19.07-.29.14-.29s.1,0,.16.11a1.19,1.19,0,0,0,1,.46c.32,0,.55,0,1.26-.06,1.48-.1,3.07-.17,4.24-.2a2.4,2.4,0,0,0,.94-.16.81.81,0,0,1,.33-.1,1.43,1.43,0,0,1,.54.12c.46.19.77.37.77.67A.46.46,0,0,1,265.45,435Z" transform="translate(5)"/><path class="cls-4" d="M273.26,433.85c.72.3,1.12.68,1.12,1.22a.59.59,0,0,1-.52.63.81.81,0,0,1-.66-.35,7.09,7.09,0,0,0-.86-.87,3.56,3.56,0,0,0-1.25-.68v2.08c0,.51,0,1.61.05,2.9,0,.46-.2.57-.44.57a.56.56,0,0,1-.51-.28,2,2,0,0,1-.26-.95,1.06,1.06,0,0,1,.06-.34.61.61,0,0,0,.06-.21c0-.15,0-.49.05-2.68,0-1.14,0-2.16,0-3.29a6.07,6.07,0,0,0-.05-1,.54.54,0,0,0-.25-.27,2.08,2.08,0,0,0-.42-.2c-.09,0-.12-.06-.12-.1s.08-.14.15-.18a.62.62,0,0,1,.34-.11A2.92,2.92,0,0,1,271,430c.32.14.48.34.48.56a.52.52,0,0,1-.2.39.36.36,0,0,0-.09.24c0,.33-.06,1-.06,2.16A6.74,6.74,0,0,1,273.26,433.85Z" transform="translate(5)"/><path class="cls-4" d="M279.3,431.7c0,.6,0,1.21-.07,1.81H280c.37-.49.47-.57.56-.57s.22.08.63.45c.18.15.25.25.25.34s0,.12-.29.32a18,18,0,0,1-.67,5,1.37,1.37,0,0,1-.47.58,1.33,1.33,0,0,1-.84.25c-.14,0-.19,0-.2-.19-.07-.49-.24-.69-.86-.88-.06,0,0-.14,0-.14.54.05.85.06,1,.06.36,0,.45-.06.57-.54a25.08,25.08,0,0,0,.42-4.37h-.9c-.24,3.12-.91,4.72-2.43,6.1,0,0-.15-.06-.12-.11,1.1-1.86,1.55-4.09,1.55-7.73v-.34h-.31a4.66,4.66,0,0,0-.77.07l-.13-.45a3.84,3.84,0,0,0,.89.1h.72V430c0-.19,0-.48-.05-.89,1.34.13,1.46.27,1.46.39s-.1.18-.33.29v1.66h.38c.43-.54.58-.64.66-.64s.23.1.62.46c.16.14.26.25.26.34s0,.12-.16.12Zm3.48-.3a6.77,6.77,0,0,1-1.56,1.64c-.05,0-.17,0-.13-.08a9,9,0,0,0,1.1-2.38,7.27,7.27,0,0,0,.3-1.55c1.26.27,1.54.38,1.54.54s-.12.22-.43.27a8,8,0,0,1-.64,1.28H286c.59-.72.73-.81.82-.81s.22.09.76.56c.24.21.34.32.34.41s0,.12-.16.12Zm.38,7c0,.41.07.48,1.61.48s1.8-.05,2-.18.29-.29.71-1.59c0-.06.16,0,.16,0,0,.36,0,.86,0,1.09a.28.28,0,0,0,.18.31c.24.15.32.27.32.48s-.21.54-.76.66a11.39,11.39,0,0,1-2.29.16c-2.47,0-2.92-.18-2.92-1.13,0-.3,0-.6,0-1.84,0-.56,0-1.1,0-1.65a3.13,3.13,0,0,0-.7.28l-.23-.4a3.45,3.45,0,0,0,.77-.13l.16-.05q0-1.12,0-2.28c1.27.14,1.42.18,1.42.36s-.08.2-.37.32v1.31l1-.27v-.85a13.72,13.72,0,0,0-.06-1.59c1.06.1,1.41.2,1.41.38s-.11.19-.39.27V434l.91-.26c.38-.56.49-.7.63-.7a1.93,1.93,0,0,1,.82.56.46.46,0,0,1,.15.23c0,.12-.09.21-.35.38a16.88,16.88,0,0,1-.19,2.48,1.35,1.35,0,0,1-.38.74,1.12,1.12,0,0,1-.74.27c-.15,0-.16,0-.16-.33s-.24-.52-.68-.7c0,.37,0,.64,0,.8s-.18.43-.62.43-.42-.08-.42-.4,0-1.23.05-2.92l-1,.27Zm1.92-4c0,.37,0,.73,0,1.1v1.1a3.41,3.41,0,0,0,.65.07c.19,0,.31-.1.35-.33a17.68,17.68,0,0,0,.13-2.26Z" transform="translate(5)"/><path class="cls-4" d="M293.32,431.49c.51-.63.66-.73.74-.73s.24.1.77.52c.23.18.32.28.32.37s0,.12-.15.12h-3.79a5.23,5.23,0,0,0-.82.07l-.13-.44a5,5,0,0,0,1,.09Zm-1.49,7.69v.37c0,.31-.22.47-.61.47s-.51-.12-.51-.41,0-.75,0-2.29a16.22,16.22,0,0,0-.07-1.7,11.25,11.25,0,0,1,1.27.6h1.2c.42-.51.51-.58.61-.58s.22.07.65.42c.19.17.26.25.26.35s-.08.22-.35.4v.39c0,1,.05,1.74.05,2s-.21.47-.64.47-.49-.11-.49-.38v-.08Zm.92-9.31c.53-.62.68-.72.76-.72s.24.1.74.51c.22.18.31.29.31.37s0,.12-.15.12H291.6a4,4,0,0,0-.71.07l-.13-.44a4,4,0,0,0,.84.09Zm.11,3.22c.46-.59.6-.69.68-.69s.24.1.7.48c.2.17.3.28.3.36s0,.12-.16.12h-2.75a5.52,5.52,0,0,0-.74.07l-.13-.44a4.22,4.22,0,0,0,.87.1Zm0,1.54c.46-.58.6-.68.68-.68s.24.1.71.48c.2.17.3.28.3.36s0,.12-.16.12h-2.75a4,4,0,0,0-.72.07l-.14-.44a4.05,4.05,0,0,0,.86.09Zm.39,1.86h-1.41v2.41h1.41Zm5.62-2.17c.49-.48.59-.55.68-.55s.23.07.72.47c.23.18.3.26.3.36s-.13.25-.44.37a9.25,9.25,0,0,1-1.6,2.46,7,7,0,0,0,2.88,1.08.06.06,0,0,1,0,.12c-.41.12-.56.35-.7.91,0,.18-.08.25-.16.25a1.93,1.93,0,0,1-.46-.17,5.68,5.68,0,0,1-2.23-1.56,9.7,9.7,0,0,1-3.54,1.82c-.06,0-.12-.14-.06-.16a9.26,9.26,0,0,0,3.06-2.34,9.65,9.65,0,0,1-1.19-2.78h-.19a2.67,2.67,0,0,0-.69.09l-.14-.46a4.3,4.3,0,0,0,.88.09ZM301,432c0,.18,0,.23.24.3a.39.39,0,0,1,.17.36.58.58,0,0,1-.48.55,3.57,3.57,0,0,1-1.17.15c-1.05,0-1.42-.27-1.42-1,0-.47,0-.59,0-1.06V430h-1.41v.23a4.63,4.63,0,0,1-.38,2.13,3.65,3.65,0,0,1-1.8,1.44c-.05,0-.15-.05-.11-.08a3.2,3.2,0,0,0,1-1.67,5.62,5.62,0,0,0,.15-1.45,13.35,13.35,0,0,0-.09-1.44c.6.25.71.29,1.25.56h1.32c.38-.44.46-.5.59-.5s.21.05.61.38a.67.67,0,0,1,.24.32c0,.11-.08.21-.31.34v1.86c0,.19.08.23.47.23s.44,0,.56-.14a2.64,2.64,0,0,0,.39-1.07c0-.06.15-.06.15,0Zm-4.62,2.63a6.49,6.49,0,0,0,1.42,2.21,7.32,7.32,0,0,0,1.12-2.21Z" transform="translate(5)"/><path class="cls-4" d="M229.53,453.1c1,0,1.25-.07,1.49-.29a3.15,3.15,0,0,0,.66-.92c0-.08.08-.09.19-.06s.13.07.12.16c-.14.61-.44,1.68-.65,2.3-.81,0-1.45,0-2.31,0s-1.59,0-2.38,0c-.12,0-.15,0-.15-.2a.54.54,0,0,1,.07-.34,20.35,20.35,0,0,1,2.1-3.07c1-1.31,1.59-1.94,1.59-3.06s-.35-1.71-1-1.71a1,1,0,0,0-1,.69,2.44,2.44,0,0,0-.11.88c0,.33-.46.56-.9.56s-.58-.09-.58-.45a2.5,2.5,0,0,1,2.58-2,2.18,2.18,0,0,1,2.48,2.12c0,1.54-1.1,2.11-2.31,3.24a8.64,8.64,0,0,0-2,2.19Z" transform="translate(5)"/><path class="cls-4" d="M235.88,446.9c-.66,0-.84.1-1,.27a2.2,2.2,0,0,0-.42.79c0,.08-.06.12-.22.08s-.14-.05-.13-.13c.09-.61.24-1.57.31-2.21.79,0,1.58,0,2.41,0s1.57,0,2.34,0c.07,0,.1,0,.1.25a.56.56,0,0,1,0,.32,18,18,0,0,0-2.1,5.2,7.94,7.94,0,0,0-.18,1.59c0,.33,0,.51,0,.8s-.45.65-.91.65-.75-.15-.75-.53a7.55,7.55,0,0,1,.86-3.05,32.9,32.9,0,0,1,2.3-4Z" transform="translate(5)"/><path class="cls-4" d="M246.69,447.85c.78,0,1.37.87,1.37,2.09a7.91,7.91,0,0,1-.45,2.72,3.86,3.86,0,0,1-.71,1.28c-.42.45-.76.72-1.17.72s-.6-.15-.59-.54a.92.92,0,0,0-.24-.63,6.52,6.52,0,0,0-.51-.65c-.06-.07-.09-.11-.09-.15a.09.09,0,0,1,.1-.09.26.26,0,0,1,.15.07,5.71,5.71,0,0,0,.82.47,1.35,1.35,0,0,0,.46.13.53.53,0,0,0,.45-.21,4,4,0,0,0,.62-1.37,7,7,0,0,0,.29-1.91c0-1.13-.17-1.46-.71-1.46a4,4,0,0,0-.62.09c-.54,1.14-1.19,2.56-1.69,3.58s-.87,1.71-1.19,2.23a.56.56,0,0,1-.52.26A.48.48,0,0,1,242,454a1.16,1.16,0,0,1,.23-.65,38.48,38.48,0,0,0,2.65-4.63l-1.31.53a1.9,1.9,0,0,0-.35.17.42.42,0,0,1-.31.11,1.06,1.06,0,0,1-.67-.32,1.4,1.4,0,0,1-.46-.82c0-.25.08-.43.18-.43s.11.06.16.13a.92.92,0,0,0,.61.42,5.11,5.11,0,0,0,1-.14c.45-.09.9-.22,1.39-.34a6.85,6.85,0,0,0,.57-1.92.38.38,0,0,0-.18-.35,3.15,3.15,0,0,0-.47-.2c-.1,0-.18-.05-.18-.12s.08-.18.2-.22a2.21,2.21,0,0,1,.59-.09,2,2,0,0,1,1.26.68.46.46,0,0,1,.11.34.48.48,0,0,1-.28.38,1,1,0,0,0-.25.37l-.45,1A3.56,3.56,0,0,1,246.69,447.85Zm2.91,3.43-.36,0c-.1,0-.13,0-.13-.08s0-.06.11-.11c1.05-.42,1.45-.65,1.45-.84a2,2,0,0,0-.36-1,2.88,2.88,0,0,0-1.38-1.22c-.12-.05-.21-.1-.21-.17s.06-.12.18-.12H249a3.67,3.67,0,0,1,1.94,1,2.8,2.8,0,0,1,1,2.21c0,.48-.3.65-.5.66a.52.52,0,0,1-.49-.19.55.55,0,0,0-.41-.21Z" transform="translate(5)"/><path class="cls-4" d="M256.18,450.51a10.9,10.9,0,0,1-.33,2.1,6.82,6.82,0,0,1-1.63,2.8s-.18-.08-.16-.12a8,8,0,0,0,.91-2.94,28.76,28.76,0,0,0,.16-4c0-.7,0-1,0-1.61a10.94,10.94,0,0,1,1.27.67h1.72c.44-.47.54-.54.63-.54s.22.07.66.46c.19.16.27.25.27.34s-.08.2-.35.38v.57c0,1.16,0,1.86,0,2.2s-.21.45-.63.45-.51-.11-.51-.39v-.33Zm2-5.07c.57-.65.71-.74.79-.74s.24.09.78.51c.24.21.34.3.34.39s0,.12-.16.12h-4.3a5.46,5.46,0,0,0-.84.07l-.13-.45a4.3,4.3,0,0,0,.94.1Zm0,2.21h-1.9V448c0,.85,0,1.57-.06,2.21h2Zm3.17,1.23a12.24,12.24,0,0,1-.48,3.16,6.39,6.39,0,0,1-2.73,3.37c-.05,0-.17-.09-.14-.14a6.9,6.9,0,0,0,1.92-3.41,18.48,18.48,0,0,0,.34-4.06c0-.75,0-1.23-.08-2a9.18,9.18,0,0,1,1.26.54,6.81,6.81,0,0,0,2-1.22,6.06,6.06,0,0,0,.57-.56c1.1.88,1.17.94,1.17,1.07s-.09.17-.57.11a14.53,14.53,0,0,1-3.22,1v.56c0,.46,0,.91,0,1.31h2.4c.51-.65.65-.75.73-.75s.24.1.79.53c.25.2.34.3.34.38s0,.12-.16.12H263.8v2c0,1.45,0,3.27,0,3.87,0,.42-.17.56-.69.56-.35,0-.49-.13-.49-.43s0-1.1,0-2.78v-3.24Z" transform="translate(5)"/><path class="cls-4" d="M183.62,301.1a18.37,18.37,0,0,0,1.33-2.38,10.77,10.77,0,0,0,.63-1.58c1.09.5,1.53.78,1.53,1s-.16.23-.55.22a18.8,18.8,0,0,1-2.48,2.78c.7,0,1.39,0,2.08-.07a3.54,3.54,0,0,0-.51-1.12c0-.05.06-.11.11-.08,1.08.59,1.56,1.13,1.56,1.82a.64.64,0,0,1-.58.71c-.32,0-.44-.19-.53-.92v0l-.77.24v2c0,1.5,0,3.36,0,4,0,.38-.25.54-.73.54s-.57-.12-.57-.44.08-1.21.08-3v-1a.85.85,0,0,1-.36.14,9.58,9.58,0,0,1-1.65,3.19c0,.06-.17,0-.16-.08a16.87,16.87,0,0,0,.59-2.59,10.82,10.82,0,0,0,.11-1.46,4.54,4.54,0,0,1,1.47.55v-1.52l-1.23.27c-.08.28-.17.39-.29.39s-.28-.27-.52-1.53a6.81,6.81,0,0,0,.73,0Zm.53-5.08a7.54,7.54,0,0,0,.18-.87c1.27.45,1.67.66,1.67.83s-.17.23-.56.23a15.28,15.28,0,0,1-1.58,1.81,1.18,1.18,0,0,1,.57,1c0,.45-.26.77-.61.77s-.41-.05-.63-.84a2.84,2.84,0,0,0-.83-1.41c-.06-.06,0-.14.08-.13a5.9,5.9,0,0,1,1.15.42A12.51,12.51,0,0,0,184.15,296Zm2.41,8.91c-.33,0-.47-.13-.53-.8a3.24,3.24,0,0,0-.38-1.4c0-.06,0-.1.1-.07,1,.52,1.4,1,1.4,1.58A.61.61,0,0,1,186.56,304.93Zm1.35.21c0,.94-.35,1.72-1.11,1.72a.65.65,0,0,1-.66-.66c0-.31.16-.5.55-.67.64-.27.85-.62.92-1.44,0-.07.14-.09.16,0A4.43,4.43,0,0,1,187.91,305.14Zm2-8.73A7.94,7.94,0,0,1,186.8,300c-.06.05-.17,0-.13-.09a9.5,9.5,0,0,0,1.77-3.31c.11-.41.21-.84.29-1.29,1.47.44,1.74.55,1.74.76S190.32,296.35,189.91,296.41ZM188.82,301a17.51,17.51,0,0,0,.67-1.95,7.88,7.88,0,0,0,.28-1.4c1.41.38,1.79.53,1.79.73s0,.18-.56.31a14.13,14.13,0,0,1-1.71,2.31c1,0,2-.06,2.93-.13a4.56,4.56,0,0,0-.8-1.29s0-.15.07-.12c1.53.54,2.27,1.23,2.27,2.06a.75.75,0,0,1-.66.81c-.3,0-.49-.21-.61-.63,0-.16-.09-.31-.13-.45a24,24,0,0,1-4,.87c0,.32-.16.46-.32.46s-.22-.22-.53-1.64a9.29,9.29,0,0,0,1.11.06Zm1,5.2c0,.39.16.46,1.05.46a2,2,0,0,0,1-.16c.24-.14.38-.37.7-1.51,0-.07.16-.06.16,0,0,.34,0,.76,0,1.2,0,.18,0,.22.18.28.31.12.45.21.45.51s-.21.52-.7.66a8.21,8.21,0,0,1-1.89.17c-1.76,0-2.26-.25-2.26-1,0-.45.06-.87.06-2.75a4.93,4.93,0,0,0-.06-.85c1.63.17,1.73.18,1.73.39s-.09.18-.44.34Zm1.52-1.69c-.31,0-.44-.12-.55-.53a2.91,2.91,0,0,0-.9-1.48.07.07,0,0,1,.06-.12c1.3.19,2.07.72,2.07,1.39A.71.71,0,0,1,191.3,304.46Zm3.19-4.65c0,.16-.08.21-.18.21a.75.75,0,0,1-.39-.22,7.74,7.74,0,0,1-1.24-1.35,7.53,7.53,0,0,1-1-2.46c-.06-.22-.07-.25-.2-.36a.21.21,0,0,1-.05-.12c0-.1.28-.19.49-.19a.11.11,0,0,1,.12.11s-.07.21-.07.27a.86.86,0,0,0,.1.35,4,4,0,0,0,1.22,1.42,7.49,7.49,0,0,0,2,1.06c.07,0,.07.15,0,.18C194.81,298.89,194.69,299.09,194.49,299.81Zm-.11,6.88c-.39,0-.53-.18-.65-.88A3.91,3.91,0,0,0,193,304c0-.05,0-.12.11-.09,1.41.61,2,1.23,2,2A.79.79,0,0,1,194.38,306.69Z" transform="translate(5)"/><path class="cls-4" d="M200.22,298.3c0,.7,0,1.42-.08,2.12h.93c.43-.58.54-.66.65-.66s.26.08.73.52c.21.18.3.29.3.4s-.05.14-.34.37a21.22,21.22,0,0,1-.78,5.8,1.76,1.76,0,0,1-.55.67,1.65,1.65,0,0,1-1,.29c-.17,0-.23-.05-.24-.22-.08-.58-.28-.8-1-1-.07,0,0-.17,0-.17.63.05,1,.07,1.15.07.42,0,.52-.07.66-.63a28.71,28.71,0,0,0,.49-5.1h-1.05c-.28,3.64-1.07,5.5-2.83,7.11-.06,0-.19-.07-.14-.12,1.27-2.17,1.8-4.78,1.8-9v-.41h-.36a6.6,6.6,0,0,0-.9.08l-.15-.51a5.34,5.34,0,0,0,1,.11h.84v-1.7c0-.22,0-.56-.06-1,1.57.15,1.71.31,1.71.45s-.13.21-.39.35V298h.45c.5-.63.67-.74.77-.74s.26.11.72.53c.19.17.3.29.3.39s0,.14-.18.14Zm4.07-.35a8.12,8.12,0,0,1-1.82,1.92c-.06,0-.2,0-.16-.1A10.27,10.27,0,0,0,203.6,297a9.27,9.27,0,0,0,.35-1.81c1.47.31,1.79.44,1.79.63s-.14.25-.5.31a9.49,9.49,0,0,1-.74,1.5h3.58c.69-.84.86-.95,1-.95s.26.11.89.65c.28.26.39.38.39.48s0,.14-.18.14Zm.45,8.13c0,.47.08.56,1.87.56s2.1-.06,2.34-.21.34-.34.83-1.87c0-.07.18,0,.18,0,0,.42,0,1,0,1.28a.32.32,0,0,0,.21.36c.28.17.38.31.38.56s-.26.63-.9.77a13.28,13.28,0,0,1-2.68.18c-2.88,0-3.4-.21-3.4-1.31,0-.35,0-.71,0-2.16,0-.65,0-1.28,0-1.92a3.67,3.67,0,0,0-.82.32l-.27-.46a3.47,3.47,0,0,0,.9-.16l.19-.05c0-.88,0-1.77,0-2.66,1.49.15,1.67.21,1.67.42s-.1.22-.43.36v1.54l1.12-.32v-1a18,18,0,0,0-.07-1.85c1.23.11,1.63.22,1.63.43s-.12.23-.44.32V301l1.06-.31c.44-.66.58-.81.73-.81a2.24,2.24,0,0,1,1,.64.59.59,0,0,1,.16.28c0,.14-.09.24-.4.44a19,19,0,0,1-.23,2.9,1.58,1.58,0,0,1-.44.86,1.28,1.28,0,0,1-.86.31c-.18,0-.2,0-.2-.38s-.28-.61-.78-.82c0,.43,0,.75,0,.94,0,.36-.21.5-.71.5s-.49-.1-.49-.46,0-1.44.06-3.42l-1.12.32Zm2.24-4.73c0,.44,0,.86,0,1.29v1.28a4,4,0,0,0,.76.08c.22,0,.36-.11.4-.38a19.91,19.91,0,0,0,.16-2.64Z" transform="translate(5)"/><path class="cls-4" d="M216.58,298.06c.6-.74.77-.85.87-.85s.28.11.89.6c.27.21.38.34.38.43s0,.14-.18.14h-4.43a6,6,0,0,0-1,.09L213,298a5.28,5.28,0,0,0,1.12.11Zm-1.74,9v.44c0,.36-.25.54-.71.54s-.59-.14-.59-.47,0-.89,0-2.68a19,19,0,0,0-.08-2,15.28,15.28,0,0,1,1.48.7h1.4c.49-.59.6-.67.72-.67s.25.08.75.49c.23.2.31.29.31.41s-.1.25-.41.46v.46c0,1.21.06,2,.06,2.3s-.25.54-.76.54-.56-.12-.56-.43V307Zm1.08-10.87c.61-.73.78-.84.88-.84s.28.11.87.59c.25.21.36.34.36.43s0,.14-.18.14h-3.28a4.44,4.44,0,0,0-.82.09l-.16-.52a4.8,4.8,0,0,0,1,.11Zm.12,3.76c.54-.69.71-.8.8-.8s.28.11.82.56c.23.19.35.32.35.42s0,.14-.19.14H214.6a5.72,5.72,0,0,0-.85.08l-.16-.52a4.43,4.43,0,0,0,1,.12Zm0,1.8c.53-.68.7-.8.8-.8s.28.12.83.56c.23.2.35.33.35.42s0,.14-.19.14H214.6a4.73,4.73,0,0,0-.84.09l-.15-.52a4.81,4.81,0,0,0,1,.11Zm.46,2.17h-1.65v2.82h1.65Zm6.56-2.53c.57-.56.69-.65.8-.65s.26.09.84.55c.26.21.35.31.35.42s-.16.3-.52.43a10.82,10.82,0,0,1-1.86,2.88,8.13,8.13,0,0,0,3.36,1.26c.07,0,.07.12,0,.14-.48.14-.66.4-.81,1.06-.05.21-.1.3-.2.3a2.52,2.52,0,0,1-.53-.2,6.78,6.78,0,0,1-2.61-1.82,11.25,11.25,0,0,1-4.13,2.11c-.07,0-.14-.15-.07-.18a10.77,10.77,0,0,0,3.57-2.73,10.9,10.9,0,0,1-1.39-3.25h-.22a3.24,3.24,0,0,0-.81.11l-.16-.54a5.17,5.17,0,0,0,1,.11Zm2.46-2.75c0,.21.06.27.28.35a.43.43,0,0,1,.2.42c0,.3-.18.52-.56.65a4.33,4.33,0,0,1-1.36.17c-1.23,0-1.67-.31-1.67-1.19,0-.55,0-.69,0-1.24v-1.43h-1.64v.27a5.48,5.48,0,0,1-.45,2.49,4.33,4.33,0,0,1-2.1,1.68c-.06,0-.18-.05-.13-.09a3.79,3.79,0,0,0,1.19-1.95,6.5,6.5,0,0,0,.17-1.7,15.57,15.57,0,0,0-.1-1.68c.71.3.83.34,1.46.66h1.54c.45-.52.53-.59.69-.59s.25.06.71.45a.74.74,0,0,1,.28.37c0,.14-.09.25-.36.4v2.17c0,.23.1.27.55.27s.51,0,.65-.17a3.08,3.08,0,0,0,.47-1.25c0-.07.16-.07.16,0Zm-5.39,3.07a7.49,7.49,0,0,0,1.65,2.58,8.32,8.32,0,0,0,1.32-2.58Z" transform="translate(5)"/><path class="cls-4" d="M232.38,299.74c0,.3,0,.89,0,1.19s-.22.54-.71.54-.53-.09-.53-.51c0-.11,0-.54.09-1.26a7.09,7.09,0,0,1-3.09,2.3c-.07,0-.14-.1-.09-.14a8.71,8.71,0,0,0,2.48-3h-1a6,6,0,0,0-1,.08l-.15-.52a4.84,4.84,0,0,0,1.06.12h1.71v-1.84a10.51,10.51,0,0,0-.07-1.33c1.35.13,1.67.21,1.67.41s-.08.19-.41.33v2.43h1.25c.41-.61.57-.72.67-.72s.28.11.77.51c.21.16.33.29.33.39s-.05.14-.19.14h-2.83v.5c1.33.24,2,.65,2,1.29a.53.53,0,0,1-.54.57c-.25,0-.41-.12-.66-.56a2.75,2.75,0,0,0-.76-1Zm1.7,3.51a8.17,8.17,0,0,1-1,2.1c.6.31.93.65.93,1a.61.61,0,0,1-.59.63c-.35,0-.39,0-1-.83a7,7,0,0,1-4,1.77c-.07,0-.11-.16,0-.19a7.06,7.06,0,0,0,3.3-2.27,8.09,8.09,0,0,0-1-.61l-.31.52a.6.6,0,0,1-.62.35c-.35,0-.61-.16-.61-.35a.76.76,0,0,1,.12-.35,16,16,0,0,0,1-1.82h-.79a5.75,5.75,0,0,0-.94.08l-.16-.52a4.85,4.85,0,0,0,1.07.11h1l.07-.15a5.57,5.57,0,0,0,.4-1.22c1.41.27,1.45.28,1.45.48s-.09.21-.43.32l-.25.57h1.94c.51-.59.68-.7.77-.7s.27.11.71.49c.18.17.29.3.29.4s0,.14-.18.14Zm-4-5.12c-.37,0-.44-.09-.58-.87a2.42,2.42,0,0,0-.53-1.19c0-.05,0-.11.07-.09,1,.26,1.64.81,1.64,1.51A.61.61,0,0,1,230.09,298.13Zm.73,6.54a11.72,11.72,0,0,1,1.28.28,6.16,6.16,0,0,0,.7-1.7h-1.31Zm3.67-7.91a7.66,7.66,0,0,1-1.69,1.46c-.05,0-.15,0-.11-.09a8.45,8.45,0,0,0,.66-1.4,4.48,4.48,0,0,0,.29-1c1,.36,1.35.59,1.35.77S234.92,296.76,234.49,296.76Zm5.51,2.1a12.59,12.59,0,0,1-1.75,5.44,8.42,8.42,0,0,0,3.32,2.08.09.09,0,0,1,0,.16c-.38.15-.48.32-.63,1-.1.35-.13.39-.28.39a2.12,2.12,0,0,1-.7-.38,10.21,10.21,0,0,1-2.36-2.37,9.18,9.18,0,0,1-4.24,2.82c-.07,0-.15-.13-.1-.17a11.54,11.54,0,0,0,3.76-3.61,13.57,13.57,0,0,1-1.19-3.77,9.21,9.21,0,0,1-1.32,1.48c-.06.05-.18,0-.14-.1a15.59,15.59,0,0,0,1.78-4.67,11.49,11.49,0,0,0,.24-1.89c1.56.35,1.83.43,1.83.64s-.13.25-.56.35a15.83,15.83,0,0,1-.77,2.27h2.41c.62-.76.78-.87.88-.87s.27.11.86.6c.25.23.36.35.36.45s0,.14-.18.14Zm-3.26,0a12.56,12.56,0,0,1-.71,1.3,10,10,0,0,0,1.45,3.21,13,13,0,0,0,1.19-4.51Z" transform="translate(5)"/><path class="cls-4" d="M135.67,442.07c0,2.19-1.31,3.51-2.95,3.51s-2.88-1.25-2.88-3.4,1.3-3.52,2.88-3.52S135.67,440,135.67,442.07Zm-4.27.06c0,1.94.49,3,1.32,3s1.38-1.07,1.38-3-.51-3-1.38-3S131.4,440.18,131.4,442.13Zm1,8.79,7.86-12.8.53.32L133,451.24Zm10.88-3.82c0,2.2-1.28,3.52-2.89,3.52s-2.93-1.27-2.93-3.41,1.33-3.51,2.93-3.51S143.3,445,143.3,447.1Zm-4.25.06c0,1.94.51,3,1.36,3s1.34-1.07,1.34-3-.49-3-1.34-3S139.05,445.22,139.05,447.16Z" transform="translate(5)"/><path class="cls-5" d="M36.4,415a18.45,18.45,0,0,1,6.28.95,8.72,8.72,0,0,1,4,2.69,6.58,6.58,0,0,1,1.41,4.27,6.87,6.87,0,0,1-.76,3.32,6.25,6.25,0,0,1-2,2.2,6.74,6.74,0,0,1-2.7,1.08,6.19,6.19,0,0,1-2.78-.11,11.71,11.71,0,0,1,3,.44A9.93,9.93,0,0,1,46,431.3a7.85,7.85,0,0,1,2.46,2.81,9.1,9.1,0,0,1,1,4.43,10.74,10.74,0,0,1-1.5,5.69,12.13,12.13,0,0,1-4,4,17.47,17.47,0,0,1-5.68,2.26,22.25,22.25,0,0,1-6.49.37,19.57,19.57,0,0,1-6.37-1.68l.09-.46a18.24,18.24,0,0,0,5.39-.69,14,14,0,0,0,4.48-2.19,10.83,10.83,0,0,0,3.08-3.5,9.33,9.33,0,0,0,1.13-4.57,7.13,7.13,0,0,0-1.31-4.49A7.7,7.7,0,0,0,35,430.86a10.51,10.51,0,0,0-3.93-.78l.09-.46a7.47,7.47,0,0,0,6.72-3.84,6.72,6.72,0,0,0,.78-4,4.83,4.83,0,0,0-1-2.73,4.33,4.33,0,0,0-2-1.45,6.09,6.09,0,0,0-2.6-.28,4.52,4.52,0,0,0-3.91,2.42A13.71,13.71,0,0,0,28,426.22h-.46l-2.62-8a13.13,13.13,0,0,1,4.74-2.37A23.23,23.23,0,0,1,36.4,415Z" transform="translate(5)"/><path class="cls-5" d="M56.59,449.49l-.18-.32a29.67,29.67,0,0,0,7.71-3.4,12.45,12.45,0,0,0,4.07-4.28,14.86,14.86,0,0,0,1.61-5.41,66,66,0,0,0,.32-6.83c0-2.54-.06-4.67-.19-6.37a9.52,9.52,0,0,0-.89-3.82,2.55,2.55,0,0,0-2.42-1.26,3,3,0,0,0-2.57,1.12,6.52,6.52,0,0,0-1.2,2.93,22.58,22.58,0,0,0-.32,3.91,21.62,21.62,0,0,0,.3,4.09,5.56,5.56,0,0,0,.83,2.19,2.88,2.88,0,0,0,1.17,1,2.84,2.84,0,0,0,2,.14,6.62,6.62,0,0,0,1.5-.64l.32.37a5.48,5.48,0,0,1-2,2.34,7.77,7.77,0,0,1-3.18,1.2,9.49,9.49,0,0,1-3.63-.16,8.62,8.62,0,0,1-3.38-1.66,8.42,8.42,0,0,1-2.46-3.29,11.45,11.45,0,0,1-.83-5.06,12,12,0,0,1,1.52-5.61,10.14,10.14,0,0,1,4.37-4A16.68,16.68,0,0,1,66.48,415q6.76-.09,10.38,3.59t3.61,11.59A24.77,24.77,0,0,1,79,439a15.67,15.67,0,0,1-4.47,6.46,17.44,17.44,0,0,1-7.45,3.66A29.61,29.61,0,0,1,56.59,449.49Z" transform="translate(5)"/><path class="cls-5" d="M88.06,448.39a4.15,4.15,0,0,1-2.92-7.09A4.15,4.15,0,0,1,91,447.17,4,4,0,0,1,88.06,448.39Z" transform="translate(5)"/><path class="cls-5" d="M106.64,415a18.41,18.41,0,0,1,6.28.95,8.72,8.72,0,0,1,4,2.69,6.58,6.58,0,0,1,1.41,4.27,6.87,6.87,0,0,1-.76,3.32,6.25,6.25,0,0,1-2,2.2,6.75,6.75,0,0,1-2.69,1.08,6.22,6.22,0,0,1-2.79-.11,11.71,11.71,0,0,1,3,.44,9.93,9.93,0,0,1,3.13,1.47,7.85,7.85,0,0,1,2.46,2.81,9.1,9.1,0,0,1,1,4.43,10.83,10.83,0,0,1-1.49,5.69,12.25,12.25,0,0,1-4,4,17.47,17.47,0,0,1-5.68,2.26,22.25,22.25,0,0,1-6.49.37,19.57,19.57,0,0,1-6.37-1.68l.09-.46a18.2,18.2,0,0,0,5.39-.69,14,14,0,0,0,4.48-2.19,10.83,10.83,0,0,0,3.08-3.5,9.33,9.33,0,0,0,1.13-4.57,7.13,7.13,0,0,0-1.31-4.49,7.7,7.7,0,0,0-3.27-2.46,10.51,10.51,0,0,0-3.93-.78l.09-.46a7.47,7.47,0,0,0,6.72-3.84,6.72,6.72,0,0,0,.78-4,4.83,4.83,0,0,0-1-2.73,4.33,4.33,0,0,0-2-1.45,6.09,6.09,0,0,0-2.6-.28,4.52,4.52,0,0,0-3.91,2.42,13.71,13.71,0,0,0-1.06,6.51h-.46l-2.62-8a13.13,13.13,0,0,1,4.74-2.37A23.23,23.23,0,0,1,106.64,415Z" transform="translate(5)"/><path class="cls-4" d="M20.77,306.23v.5c0,.39-.24.58-.79.58s-.6-.16-.6-.48c0-1.23.06-2.53.06-7.48,0-1.15,0-2.3-.06-3.46a14.88,14.88,0,0,1,1.58.74h1.27c.16-.47.32-1,.43-1.4a4.45,4.45,0,0,0,.17-1c1.38.35,1.73.51,1.73.7s-.12.22-.51.3a8.48,8.48,0,0,1-1.35,1.35h3.92c.49-.53.61-.61.72-.61s.28.07.84.49c.26.19.36.33.36.45s-.07.22-.45.49v1.41c0,4.06.06,6.89.06,7.82,0,.4-.22.57-.8.57s-.6-.13-.6-.5v-.52Zm6-9.27h-6v2.59h6Zm0,2.91h-6v2.69h6Zm0,3h-6v3h6Z" transform="translate(5)"/><path class="cls-4" d="M42.23,295.79H35.31a4.72,4.72,0,0,0-1,.12l-.16-.57a5.49,5.49,0,0,0,1.18.13h6.86c.49-.56.61-.64.72-.64s.26.08.8.49c.25.19.33.29.33.4s0,.14-.43.48v.67c0,1.75.07,3,.07,3.36s-.25.68-.83.68c-.39,0-.59-.13-.59-.48V300H35.52v4.64c0,.63.28.78,3.35.78,3.56,0,4.2-.09,4.57-.36s.61-.83,1-2.24c0-.07.19-.06.19,0,0,.59,0,1.46,0,1.75s0,.3.18.37a.51.51,0,0,1,.34.53c0,.45-.33.74-1.18.94a24.29,24.29,0,0,1-4.6.26c-4.45,0-5.19-.25-5.19-1.84,0-.58,0-1.62,0-3.14,0-1.33,0-1.71-.07-2.78a17.11,17.11,0,0,1,1.55.76h6.58Z" transform="translate(5)"/><path class="cls-4" d="M49.34,299.35c-.05.37-.14.51-.32.51s-.25-.09-.72-1.64a14.06,14.06,0,0,0,1.45-.07,24.93,24.93,0,0,0,3.25-.52c.07,0,.12.15.07.18A19,19,0,0,1,49.34,299.35Zm3.53,6.95a10.85,10.85,0,0,1-4.47.95c-.07,0-.1-.17,0-.18a10.53,10.53,0,0,0,2.57-1.14,3.79,3.79,0,0,0,1-.85c1.55.88,1.55.88,1.55,1.06S53.42,306.31,52.87,306.3Zm-2.6-5.81c-.45.05-.91.11-1.42.15-.07,0-.11-.15,0-.17a10.46,10.46,0,0,0,1.44-.32c0-.31,0-.62,0-.92a10.05,10.05,0,0,1,1.26.49A6.58,6.58,0,0,0,54,298a4.19,4.19,0,0,0,.84-1.67c1.24.19,1.75.35,1.75.54s-.15.21-.51.3a5.08,5.08,0,0,0,2,1.45,9.29,9.29,0,0,0,3.08.57c.07,0,.05.14,0,.17a1.16,1.16,0,0,0-.73,1,.21.21,0,0,1-.21.15,2.6,2.6,0,0,1-.61-.14c-.23-.08-.47-.18-.7-.28a1,1,0,0,1-.28.2V301c0,1.95.06,3.31.06,3.74s-.29.49-.81.49c-.35,0-.53-.11-.53-.42H51.51v.06c0,.31-.25.46-.73.46s-.58-.12-.58-.46c0-.63.07-1.27.07-3.85Zm.42-3.55c-.33,0-.48-.12-.68-.57a3.41,3.41,0,0,0-1.07-1.46c-.06,0,0-.11.05-.11,1.61.14,2.42.59,2.42,1.39A.71.71,0,0,1,50.69,296.94Zm.82,4.36h5.82v-1.22H52.26l-.75.18Zm5.82.32H51.51v1.22h5.82Zm0,1.54H51.51v1.33h5.82Zm-3.62-7a7.41,7.41,0,0,1-1.88,1.3s-.19-.08-.14-.12A6.84,6.84,0,0,0,53,295.47a6.39,6.39,0,0,0,.45-1.26c1.31.39,1.68.56,1.68.71s-.07.2-.62.3a3.19,3.19,0,0,1-.45.59h4.6c.52-.58.63-.66.74-.66s.24.08.83.63c.26.25.35.36.35.48s-.07.32-.59.35a.75.75,0,0,0-.48.19,9.45,9.45,0,0,1-1.47.8c-.07,0-.17-.11-.12-.17a5.16,5.16,0,0,0,.78-1.3Zm3.52,3.63.36-.41a5.75,5.75,0,0,1-1.69-2,5.79,5.79,0,0,1-2.73,2.44Zm1.82,7.63a1.12,1.12,0,0,1-.84-.4,7.06,7.06,0,0,0-2.85-1.48c-.07,0,0-.14,0-.14,3.63,0,4.44.52,4.44,1.32A.74.74,0,0,1,59.05,307.39Z" transform="translate(5)"/><path class="cls-4" d="M69,303.76c0-1.44.07-2.88.07-4.32a13.51,13.51,0,0,1-5.73,5.35c-.07,0-.15-.1-.1-.14a16.81,16.81,0,0,0,5.1-6.77H65.15a11.45,11.45,0,0,0-1.21.08l-.15-.51a8.47,8.47,0,0,0,1.33.11H69v-1.19a15.32,15.32,0,0,0-.08-1.95c1.43.11,1.85.21,1.85.42s-.11.24-.44.41v2.31h3.3c.66-.86.82-1,.92-1s.28.11,1,.67c.32.27.43.38.43.48s0,.14-.18.14H70.47a8.88,8.88,0,0,0,2.17,3.05,10.46,10.46,0,0,0,3.94,2.19.07.07,0,0,1,0,.14c-.53.17-.77.41-1,1.08-.07.19-.14.26-.25.26a1.47,1.47,0,0,1-.63-.29,10.24,10.24,0,0,1-2.73-2.68,13.47,13.47,0,0,1-1.66-3.36c0,1.31.07,4.23.12,5.49h.71c.59-.77.76-.88.86-.88s.26.11.86.62c.26.22.37.35.37.45s0,.14-.18.14H70.39c0,1.27,0,2.21,0,2.63s-.31.57-.86.57-.61-.12-.61-.47,0-1.36.05-2.73H67.42a7,7,0,0,0-1,.08l-.15-.52a5.22,5.22,0,0,0,1.1.11Z" transform="translate(5)"/><path class="cls-4" d="M81.91,304.87a33.16,33.16,0,0,0,3.36-1c.07,0,.12.11.07.15a22.87,22.87,0,0,1-5.17,2.51c-.07.39-.17.55-.36.55s-.34-.28-.79-1.74c.28,0,.58-.06.88-.11l.66-.11v-8.65a10.29,10.29,0,0,0-.08-1.68c1.74.16,1.92.31,1.92.45s-.1.23-.49.41v3.67h1.36c.71-.82.88-.93,1-.93s.26.11.89.65c.28.23.39.36.39.46s0,.14-.18.14H81.91Zm5.19-4.44a11.83,11.83,0,0,0,2.06-1.92,6.68,6.68,0,0,0,1-1.37c1.13.7,1.56,1,1.56,1.23s-.13.27-.67.2a13.54,13.54,0,0,1-3.9,2.28v4.24c0,.56.13.61,1.7.61a2.29,2.29,0,0,0,1.23-.17c.35-.2.6-.83,1-2.21,0-.08.18-.06.18,0,0,.57-.11,1.53-.11,1.75a.28.28,0,0,0,.18.31c.31.15.41.26.41.52s-.27.66-.87.81a10.26,10.26,0,0,1-2.15.17c-2.55,0-3-.23-3-1.57,0-.27,0-.53,0-1.6,0-2.94,0-5.88,0-8.84,1.54.16,1.78.21,1.78.44s-.07.25-.4.39Z" transform="translate(5)"/><path class="cls-4" d="M101.17,304.09c0,1.47,0,2.48,0,2.82s-.3.48-.81.48-.59-.11-.59-.5.06-1.14.07-2.8H95.56a6.8,6.8,0,0,0-1,.08l-.15-.52a5.6,5.6,0,0,0,1.15.11h4.35v-.08a13.08,13.08,0,0,0-.07-1.56c1.64.17,1.83.23,1.83.44s-.08.18-.47.38v.82h3.48c.7-.86.86-1,1-1s.28.12,1,.69c.32.25.43.38.43.48s0,.14-.18.14Zm-5.53-2c0,.42-.06.56-.25.56s-.39-.35-.93-1.51c.42-.11.83-.22,1.21-.35a14.25,14.25,0,0,0,2.51-1s.18.11.14.16A10.5,10.5,0,0,1,95.64,302.12Zm4.27-5.65c1,.37,1.29.54,1.29.71s0,.15-.49.17a7.37,7.37,0,0,1-1.23,1.06,1.12,1.12,0,0,1,.47.87.6.6,0,0,1-.57.66c-.34,0-.38-.06-.6-.74a3,3,0,0,0-.86-1.29.08.08,0,0,1,.06-.13,5,5,0,0,1,1.12.39c.13-.26.25-.53.36-.79a6.65,6.65,0,0,0,.33-.91H95.61a6.21,6.21,0,0,0-1,.08l-.15-.52a5.22,5.22,0,0,0,1.1.11h4.23v-.95a4.82,4.82,0,0,0-.07-.83c1.74.16,1.91.31,1.91.47s-.16.28-.49.39v.92h3.33c.77-.84.94-.95,1-.95s.27.11.92.66c.3.25.41.38.41.48s0,.14-.18.14Zm-3.11,3.16c-.38,0-.47-.13-.73-.87a3.32,3.32,0,0,0-.89-1.5.07.07,0,0,1,.07-.12c1.54.45,2.25,1,2.25,1.71A.74.74,0,0,1,96.8,299.63Zm5.27,1.4a3.86,3.86,0,0,0-.58-.84c0-.05,0-.12.1-.1,1.19.4,2,1,2,1.7a.68.68,0,0,1-.66.71c-.32,0-.39-.09-.59-.85a2.24,2.24,0,0,0-.11-.34,18.45,18.45,0,0,1-3.65.91c-.07.31-.12.38-.24.38s-.31-.24-.61-1.51c.64,0,1,0,1.43,0a17.62,17.62,0,0,0,1.8-2.35,11.53,11.53,0,0,0,.6-1.14c1.2.63,1.41.77,1.41.95s0,.16-.58.19a33.42,33.42,0,0,1-2.65,2.35C100.49,301.12,101.27,301.09,102.07,301Zm3.49-2.9a10.74,10.74,0,0,1-2.66,1.61c-.07,0-.19-.08-.13-.12a10.24,10.24,0,0,0,1.39-1.67,5.2,5.2,0,0,0,.53-1c1.08.56,1.43.79,1.43,1S106,298.15,105.56,298.13Zm-.07,4.22c-.35,0-.47-.11-.86-.8a3.81,3.81,0,0,0-1.33-1.4s0-.16.06-.14c1.87.28,2.8.83,2.8,1.64A.67.67,0,0,1,105.49,302.35Z" transform="translate(5)"/><line class="cls-8" y1="273.23" x2="335" y2="273.23"/><line class="cls-8" x1="167.5" y1="273.23" x2="167.5" y2="470.09"/></g></g></g></svg>