<svg xmlns="http://www.w3.org/2000/svg" xmlns:xlink="http://www.w3.org/1999/xlink" viewBox="0 0 335 419.52"><defs><style>.cls-1,.cls-6,.cls-7{fill:none;}.cls-2{clip-path:url(#clip-path);}.cls-3{fill:#fff;}.cls-4{fill:#333;}.cls-5{fill:#e8314b;}.cls-6{stroke:#333;}.cls-6,.cls-7{stroke-miterlimit:10;}.cls-7{stroke:#e8314b;stroke-width:1.76px;}</style><clipPath id="clip-path" transform="translate(5.14)"><rect class="cls-1" width="325" height="419.52"/></clipPath></defs><g id="レイヤー_2" data-name="レイヤー 2"><g id="pc"><g class="cls-2"><rect class="cls-3" x="5.14" width="325" height="419.52"/><path class="cls-4" d="M241.7,194.92A16.74,16.74,0,0,1,240,197c-.08.08-.24-.12-.2-.2a30.09,30.09,0,0,0,2.78-6.88,19.13,19.13,0,0,0,.52-3c2.38.62,2.62.7,2.62,1s-.06.28-.78.5a23.34,23.34,0,0,1-2.1,4.84c1.12.16,1.28.22,1.28.44s-.14.3-.54.5v10.34c0,.58-.34.84-1.08.84s-.88-.2-.88-.76.12-2.1.12-5.26Zm4.88,7.2c0,1.3-.54,2.32-1.54,2.32a.88.88,0,0,1-.94-.9c0-.48.2-.74.78-1a1.88,1.88,0,0,0,1.32-1.64c0-.1.2-.12.22,0A5.41,5.41,0,0,1,246.58,202.12Zm1.06-12.34c1.44.44,2.12,1,2.12,1.9a.86.86,0,0,1-.74.84h3.26a10.06,10.06,0,0,0,.42-1.4,7.81,7.81,0,0,0,.22-1.28c1.7.52,2.22.7,2.22.9s-.12.26-.64.36a8.06,8.06,0,0,1-1.6,1.42h2.74c.86-1,1.1-1.2,1.24-1.2s.4.16,1.22.84c.36.3.52.48.52.62s-.06.2-.26.2H245.92a10.17,10.17,0,0,0-1.44.12l-.22-.74a8.49,8.49,0,0,0,1.62.16h2.7a.68.68,0,0,1-.56-.58,4.07,4.07,0,0,0-.9-2.16H247a10.17,10.17,0,0,0-1.44.12l-.22-.74a8.49,8.49,0,0,0,1.62.16h3.2V188.1c0-.38,0-.8-.08-1.22,2.34.19,2.54.39,2.54.6s-.2.32-.6.52v1.32h2.9c.84-1,1.08-1.18,1.22-1.18s.4.16,1.26.82c.38.32.54.48.54.62s-.06.2-.26.2Zm0,9.42c-.06.38-.4.56-1,.56s-.82-.22-.82-.72c0-.32.06-.66.06-2,0-1.16,0-2.32-.12-3.5a15.51,15.51,0,0,1,2.1.94h6.24c.66-.74.82-.86,1-.86s.38.12,1.06.64c.32.24.44.38.44.54s-.12.3-.52.58v.6c0,1.6,0,2.7,0,3.06,0,.54-.36.8-1.12.8-.5,0-.72-.18-.72-.62v0Zm6.62-4.26h-6.6v1.68h6.6Zm0,2.14h-6.6v1.66h6.6Zm.14,5.68c0,.26.06.36.24.42.48.12.62.28.62.66s-.3.7-.94.9a12.22,12.22,0,0,1-3.2.3c-2.56,0-3.38-.34-3.38-1.4,0-.42,0-.86,0-2.6a4.5,4.5,0,0,0-.08-.88c2,.22,2.22.26,2.22.54s-.18.34-.54.44v1.74c0,.56.28.68,1.9.68a5.58,5.58,0,0,0,1.74-.14c.56-.22.74-.7,1.18-2,0-.1.2-.08.2,0Zm-2.56-.22c-.46,0-.52-.08-.82-1.08a3.72,3.72,0,0,0-.82-1.44c-.06-.08,0-.16.08-.14,1.7.3,2.48.84,2.48,1.7A.93.93,0,0,1,251.88,202.54Zm5.48,1.66c-.52,0-.7-.22-.9-1.2a4.13,4.13,0,0,0-1.1-2.16c-.08-.06,0-.22.1-.18,2,.64,2.84,1.34,2.84,2.4A1,1,0,0,1,257.36,204.2Z" transform="translate(5.14)"/><path class="cls-4" d="M267.48,204.38c0,.5-.44.74-1.22.74-.62,0-.86-.18-.86-.68,0-1.8.12-3.6.12-10.82,0-2.08,0-4.16-.12-6.27,1,.5,1.2.59,2.26,1.11H279c.74-.84.9-1,1.06-1s.36.12,1.14.76c.34.3.46.44.46.6s-.12.3-.52.6v2.2c0,9.74.06,10.12.06,11.28,0,1-.26,1.46-.94,1.78a4.23,4.23,0,0,1-1.32.3c-.34,0-.42-.14-.48-.54-.1-.68-.5-1.18-2.36-1.58-.1,0-.08-.24,0-.24,1.06,0,2,.06,2.68.06.28,0,.34-.08.34-.36v-6.54H267.48Zm4.72-9v-6.44h-4.72v6.44Zm6.9-6.44h-4.92v6.44h4.92Z" transform="translate(5.14)"/><path class="cls-5" d="M52.7,172,48,159.39a17.65,17.65,0,0,1,5.08-3,33.55,33.55,0,0,1,6.44-1.82,38,38,0,0,1,6.82-.63,28.64,28.64,0,0,1,10.22,1.72,16.56,16.56,0,0,1,7.18,4.9,11.75,11.75,0,0,1,2.62,7.73,14.26,14.26,0,0,1-1.43,6.3A23.09,23.09,0,0,1,81.19,180a42.1,42.1,0,0,1-5,4.66c-1.82,1.42-3.61,2.7-5.39,3.85s-3.36,2.16-4.76,3H79.3a9,9,0,0,0,3.82-.8,9.87,9.87,0,0,0,3.15-2.42,17.28,17.28,0,0,0,2.62-4.13h.7l-4.76,19.67H48.43v-.7q3-3.71,6.2-7.42t6.16-7.38a88.09,88.09,0,0,0,5.35-7.32,39.1,39.1,0,0,0,3.78-7.21,19.1,19.1,0,0,0,1.4-7.07,10.07,10.07,0,0,0-2.41-7.14,7.6,7.6,0,0,0-6.55-2.24,8.2,8.2,0,0,0-6.68,4Q53.4,165.14,53.4,172Z" transform="translate(5.14)"/><path class="cls-5" d="M96.73,193.48a5.65,5.65,0,0,1,3.57-1.15,7.69,7.69,0,0,1,3.75,1,6,6,0,0,1,2.62,3,11.35,11.35,0,0,1,1,6.27,12.83,12.83,0,0,1-2.2,5.74,11.84,11.84,0,0,1-4.48,3.88,8.91,8.91,0,0,1-5.85.7l-.28-.91a5.72,5.72,0,0,0,2.24-1.85,4.87,4.87,0,0,0,1-3.12,6.34,6.34,0,0,0-1.93-3.92,6.77,6.77,0,0,1-1.57-3.32,7.24,7.24,0,0,1,.28-3.61A5.37,5.37,0,0,1,96.73,193.48Z" transform="translate(5.14)"/><path class="cls-5" d="M143.63,166.67l-21.49,1.75-1.33,5.81a34,34,0,0,1,11.9-1,19.56,19.56,0,0,1,8.68,3,14.39,14.39,0,0,1,5.18,6,17.18,17.18,0,0,1,1.47,8.12,16.37,16.37,0,0,1-2.87,9,19.92,19.92,0,0,1-6.82,6.06,30,30,0,0,1-9.07,3.15,31.57,31.57,0,0,1-9.69.24,26.28,26.28,0,0,1-8.72-2.66l.14-.7a23.42,23.42,0,0,0,4.48-.35,34.66,34.66,0,0,0,5.57-1.4,25.62,25.62,0,0,0,5.49-2.62,15.46,15.46,0,0,0,4.27-4,10.23,10.23,0,0,0,1.89-5.46,7.35,7.35,0,0,0-2.17-6.26,10.31,10.31,0,0,0-6.68-2.52,22.2,22.2,0,0,0-9.56,1.92l-.63-.42,5.81-26.88,20.86-1.75a5.54,5.54,0,0,0,3.5-1,7.14,7.14,0,0,0,2-2.52h.7Z" transform="translate(5.14)"/><path class="cls-5" d="M154.13,203.91l.07-.7h1.47a3.71,3.71,0,0,0,2.73-1.12,3.62,3.62,0,0,0,1.12-2.66V163.94q0-2.73-1.26-3.78a5.08,5.08,0,0,0-3.36-1h-1.26v-.7c1,0,2.3-.17,4-.38s3.44-.49,5.35-.84a54.52,54.52,0,0,0,5.57-1.33,20.62,20.62,0,0,0,4.58-1.93h.7V199.5a3.49,3.49,0,0,0,1.16,2.63,3.8,3.8,0,0,0,2.69,1.08h1.47v.7Z" transform="translate(5.14)"/><path class="cls-5" d="M216.29,153.93l.63,5.18L192,183.33h28a4.86,4.86,0,0,0,2.94-.73,5.43,5.43,0,0,0,1.61-2.07h.7l-2.17,10.15H180.17V190Zm.7,45.5a3.59,3.59,0,0,0,1.16,2.66,3.72,3.72,0,0,0,2.69,1.12h.77v.7H198l.07-.7h.7a3.92,3.92,0,0,0,2.77-1.08,3.57,3.57,0,0,0,1.15-2.7Zm-14.35-30.38,13.65-15.12h.7v49.91H202.64Z" transform="translate(5.14)"/><path class="cls-4" d="M24.49,37.28c0,.95,0,1.48,0,2,0,.33-.24.47-.74.47-.33,0-.51-.11-.51-.37s.07-1.85.09-3.06a8.4,8.4,0,0,1-2.79,2.23c-.06,0-.16-.11-.1-.16a10.65,10.65,0,0,0,2.66-3.87h-1.3a4.24,4.24,0,0,0-.81.08L20.86,34a3.56,3.56,0,0,0,.91.11h1.56V33.7c0-.49,0-.91-.06-1.38,1.14.07,1.65.18,1.65.36s-.09.25-.43.39v1.08h.64c.45-.56.62-.67.72-.67s.28.11.74.48c.2.15.31.28.31.38s0,.14-.18.14H24.49v.82c1.26.16,2.07.67,2.07,1.35a.59.59,0,0,1-.57.63.52.52,0,0,1-.52-.41,2.69,2.69,0,0,0-1-1.33Zm3.31-8.14a7,7,0,0,0,2.11,1.29,12.75,12.75,0,0,0,3.46.75c.07,0,.06.14,0,.17a1.44,1.44,0,0,0-.84.76c-.16.39-.26.49-.37.49a2.07,2.07,0,0,1-.71-.23,12.68,12.68,0,0,1-2-1.16,8.92,8.92,0,0,1-1.71-1.75c0,1.21.05,2.26.05,2.87,0,.37-.3.49-.77.49s-.56-.14-.56-.42,0-1.36.06-2.31a12.43,12.43,0,0,1-5.28,2.73c-.07,0-.13-.11-.07-.14a12.83,12.83,0,0,0,4.55-3.54h-3a7.14,7.14,0,0,0-.94.08l-.15-.52a4.74,4.74,0,0,0,1,.12h3.81v-.65c0-.5,0-.87-.06-1.3,1.64.17,1.78.24,1.78.45s-.13.26-.46.4v1.1h2.9c.71-.87.88-1,1-1s.28.09,1,.67c.32.26.45.39.45.49s0,.14-.18.14Zm2.38,8.17c0,.75,0,1.41,0,1.87s-.24.51-.72.51-.53-.13-.53-.41,0-1.79.07-3.15a9.93,9.93,0,0,1-3.47,2.65c-.06,0-.16-.13-.1-.17a10.43,10.43,0,0,0,3.21-4.13H28a3.82,3.82,0,0,0-.78.08L27,34a3.82,3.82,0,0,0,.94.11h1v-.57c0-.41,0-.84-.06-1.32,1.22.09,1.67.18,1.67.38s-.11.24-.42.39v1.12h1.2c.53-.66.7-.77.8-.77s.28.11.84.54c.25.21.36.32.36.42s0,.14-.18.14H30.32a6.1,6.1,0,0,0,1.43,1.75,6.24,6.24,0,0,0,2.07,1.12c.07,0,0,.11,0,.14a1.47,1.47,0,0,0-.81.89c-.06.17-.12.23-.23.23s-.17-.06-.35-.21a8.53,8.53,0,0,1-1.19-1.35,8.67,8.67,0,0,1-1.06-2.24Z" transform="translate(5.14)"/><path class="cls-4" d="M41.91,32.51c.84.35,1.3.79,1.3,1.42a.69.69,0,0,1-.6.74.94.94,0,0,1-.77-.4,7.61,7.61,0,0,0-1-1,4.27,4.27,0,0,0-1.46-.8v2.44c0,.59,0,1.88.06,3.39,0,.53-.24.66-.52.66a.65.65,0,0,1-.59-.32A2.44,2.44,0,0,1,38,37.5a1.46,1.46,0,0,1,.07-.4.47.47,0,0,0,.07-.24c0-.19.05-.58.06-3.14,0-1.33,0-2.52,0-3.84a6.91,6.91,0,0,0-.06-1.19.6.6,0,0,0-.29-.32,2,2,0,0,0-.49-.23c-.1,0-.14-.07-.14-.12s.1-.16.18-.21a.82.82,0,0,1,.39-.13,3.3,3.3,0,0,1,1.42.38c.38.17.56.39.56.66a.58.58,0,0,1-.24.45.5.5,0,0,0-.1.28c0,.39-.07,1.22-.07,2.52A8,8,0,0,1,41.91,32.51Z" transform="translate(5.14)"/><path class="cls-4" d="M49.52,31.2l3.78-.41a.94.94,0,0,0,.5-.19.71.71,0,0,1,.4-.13,2.3,2.3,0,0,1,1.09.66c.31.28.34.4.34.57s-.15.25-.29.32-.28.19-.51.61a15.17,15.17,0,0,1-2.18,3.08A13.14,13.14,0,0,1,48.05,39a1,1,0,0,1-.31.08.13.13,0,0,1-.14-.14c0-.07.12-.12.2-.19a16.47,16.47,0,0,0,4.05-3.88,13.35,13.35,0,0,0,1.75-2.95,1.67,1.67,0,0,0,.1-.29s0,0-.1,0a1,1,0,0,0-.23,0c-1.49.14-2.6.32-4,.56a2.52,2.52,0,0,0-.84.23.94.94,0,0,1-.45.14c-.22,0-.39-.07-.77-.44a1.68,1.68,0,0,1-.55-1c0-.23.07-.39.14-.39s.09,0,.21.14a1.37,1.37,0,0,0,1.14.52C48.43,31.31,49,31.25,49.52,31.2Zm.68-2.68c.51-.07,1.09-.17,1.7-.31a2.8,2.8,0,0,0,.63-.22,1.74,1.74,0,0,1,.55-.13c.62,0,1.22.33,1.22.63s0,.4-.28.47a6.24,6.24,0,0,1-.86.15c-.58.08-2.1.25-3.2.38a6.49,6.49,0,0,1-.68,0c-.5,0-.78-.2-1.2-.78a.92.92,0,0,1-.2-.61c0-.09,0-.15.09-.15s.08,0,.15.1a1.73,1.73,0,0,0,1.32.49A7.44,7.44,0,0,0,50.2,28.52Z" transform="translate(5.14)"/><path class="cls-4" d="M67.05,34.46a8.3,8.3,0,0,1,1.35.86c.84.64,1.17,1.19,1.17,1.59a.7.7,0,0,1-.64.76.92.92,0,0,1-.87-.48,11.73,11.73,0,0,0-1.62-2.08A8.28,8.28,0,0,0,65,34a16,16,0,0,1-3.44,2.74,12.12,12.12,0,0,1-2.39,1.11.92.92,0,0,1-.31.07.12.12,0,0,1-.14-.13.19.19,0,0,1,.1-.15,17.15,17.15,0,0,0,4.38-3.39,21.24,21.24,0,0,0,2.85-3.71.55.55,0,0,0,.08-.17s0-.06-.18,0c-1,.11-2.24.32-3.35.56a2,2,0,0,0-.64.22.86.86,0,0,1-.49.16c-.27,0-.55-.17-.94-.66a1.2,1.2,0,0,1-.3-.9c0-.26.1-.36.19-.36s.09.05.19.16c.39.44.55.54,1,.54.17,0,.52,0,1.06-.09,1.15-.12,2.09-.25,3.08-.39a1,1,0,0,0,.56-.21.55.55,0,0,1,.41-.15,1.09,1.09,0,0,1,.74.37c.42.37.59.59.59.79s0,.28-.46.42c-.13,0-.21.15-.34.34a24.12,24.12,0,0,1-1.9,2.52A16.3,16.3,0,0,1,67.05,34.46Z" transform="translate(5.14)"/><path class="cls-4" d="M78.46,32.51c.84.35,1.31.79,1.31,1.42a.7.7,0,0,1-.61.74,1,1,0,0,1-.77-.4,7.07,7.07,0,0,0-1-1,4.22,4.22,0,0,0-1.45-.8v2.44c0,.59,0,1.88,0,3.39,0,.53-.23.66-.51.66a.65.65,0,0,1-.59-.32,2.32,2.32,0,0,1-.31-1.11,1.46,1.46,0,0,1,.07-.4.59.59,0,0,0,.07-.24c0-.19,0-.58.05-3.14,0-1.33,0-2.52,0-3.84a8.27,8.27,0,0,0-.05-1.19.62.62,0,0,0-.3-.32,1.82,1.82,0,0,0-.49-.23c-.09,0-.14-.07-.14-.12s.1-.16.19-.21a.79.79,0,0,1,.39-.13,3.3,3.3,0,0,1,1.41.38c.38.17.56.39.56.66a.6.6,0,0,1-.23.45.39.39,0,0,0-.1.28c0,.39-.07,1.22-.07,2.52A7.84,7.84,0,0,1,78.46,32.51Z" transform="translate(5.14)"/><path class="cls-4" d="M92.16,30.76a.5.5,0,0,1-.37.48c-.22.1-.29.25-.43.48a24.88,24.88,0,0,1-3.24,4.2,12.26,12.26,0,0,1-4.54,3,1,1,0,0,1-.32.09c-.08,0-.14,0-.14-.13s.07-.14.24-.25a17.72,17.72,0,0,0,4.09-3.59,19.18,19.18,0,0,0,2.76-4.23.38.38,0,0,0,0-.14s0,0-.07,0c-.34,0-.8.15-1.41.26a5.86,5.86,0,0,1-.76.14,2.16,2.16,0,0,1-.77-.24,15.4,15.4,0,0,1-1.67,1.88,13.06,13.06,0,0,1-2,1.56c-.25.15-.36.21-.45.21s-.16-.06-.16-.16.19-.25.53-.59a18.11,18.11,0,0,0,1.73-2c.4-.52.77-1.08,1.14-1.67A2.84,2.84,0,0,0,86.79,29c0-.24-.24-.41-.5-.55s-.17-.11-.17-.17.18-.22.46-.22a3,3,0,0,1,1.37.5c.44.27.52.45.52.66a.6.6,0,0,1-.31.43,3.15,3.15,0,0,0-.57.7.65.65,0,0,0,.21,0c.28,0,.62-.07,1.09-.15S89.83,30,90,30a.61.61,0,0,0,.3-.17.57.57,0,0,1,.36-.19,1.71,1.71,0,0,1,1.14.61A.93.93,0,0,1,92.16,30.76Zm.71-1.9a1,1,0,0,1,.52.84.48.48,0,0,1-.46.49.5.5,0,0,1-.48-.32,5.17,5.17,0,0,0-.88-1.24c-.06-.05-.16-.12-.16-.18s.07-.1.17-.1a1.29,1.29,0,0,1,.32.06A2.42,2.42,0,0,1,92.87,28.86Zm1.29-1a.86.86,0,0,1,.5.72.46.46,0,0,1-.43.51.53.53,0,0,1-.52-.3,3.63,3.63,0,0,0-1-1.1c-.06,0-.17-.11-.17-.16a.12.12,0,0,1,.11-.12,1.9,1.9,0,0,1,.37,0A3.35,3.35,0,0,1,94.16,27.89Z" transform="translate(5.14)"/><path class="cls-4" d="M99.42,31c-.11-.05-.18-.06-.18-.13s.26-.29.54-.29a3.31,3.31,0,0,1,1.49.54c.35.23.42.42.42.6a.43.43,0,0,1-.2.37,1,1,0,0,0-.24.47,10.44,10.44,0,0,1-1.15,2.61,7.29,7.29,0,0,1-2.83,2.61,1.07,1.07,0,0,1-.28.11c-.08,0-.12,0-.12-.14s0-.1.14-.2a8.61,8.61,0,0,0,2-2.45,10.79,10.79,0,0,0,1-2.44,3.93,3.93,0,0,0,.17-1C100.12,31.39,99.8,31.17,99.42,31Zm3.19-.9a1.09,1.09,0,0,0-.64-.51c-.11,0-.17-.05-.17-.15s.25-.31.59-.31a2.59,2.59,0,0,1,1.27.49c.25.16.56.39.56.72a.54.54,0,0,1-.19.39.52.52,0,0,0-.12.34c0,.93,0,1.79-.07,3.16v1c0,.12,0,.18.07.18a1,1,0,0,0,.34-.11,17.66,17.66,0,0,0,4.62-2.72c.17-.14.26-.22.35-.22s.14,0,.14.12a.37.37,0,0,1-.11.2,16.21,16.21,0,0,1-4.94,4,.65.65,0,0,0-.28.29.38.38,0,0,1-.33.2,1.19,1.19,0,0,1-.7-.45,1.56,1.56,0,0,1-.39-.84,1.48,1.48,0,0,1,0-.24,3.62,3.62,0,0,0,.07-.85c0-1.13,0-2.08,0-3.86A2.86,2.86,0,0,0,102.61,30.12Z" transform="translate(5.14)"/><path class="cls-4" d="M122.56,33.9c-.43,0-1.38-.07-2.07-.07-1.11,0-3.51.06-5.24.21a3.89,3.89,0,0,0-1.38.27.61.61,0,0,1-.38.11c-.37,0-.69-.34-1.12-1a1.12,1.12,0,0,1-.27-.75c0-.23.09-.34.17-.34s.11.06.18.13a1.4,1.4,0,0,0,1.18.53c.38,0,.64,0,1.47-.07,1.74-.11,3.58-.2,5-.23a2.6,2.6,0,0,0,1.09-.19.93.93,0,0,1,.39-.11,1.57,1.57,0,0,1,.63.14c.53.22.9.43.9.78A.53.53,0,0,1,122.56,33.9Z" transform="translate(5.14)"/><path class="cls-4" d="M128.59,31.24a1.47,1.47,0,0,0-.49.2.76.76,0,0,1-.4.09c-.24,0-.51-.18-.84-.6s-.46-.66-.46-1,.07-.42.15-.42.13.06.24.17a1.29,1.29,0,0,0,1.22.56l1-.06c1.38-.12,2.78-.25,4.05-.4a1.24,1.24,0,0,0,.63-.2.62.62,0,0,1,.37-.17,1.39,1.39,0,0,1,.91.41c.5.38.63.57.63.9,0,.12-.1.26-.3.36a1.27,1.27,0,0,0-.6.67,15.48,15.48,0,0,1-2.66,3.73,12.33,12.33,0,0,1-4.62,3l-.21,0c-.13,0-.19,0-.19-.16s.07-.12.23-.22a14.43,14.43,0,0,0,4-3.48,21.87,21.87,0,0,0,2.19-3.57,1.22,1.22,0,0,0,.18-.47c0-.06-.07-.07-.14-.07a5.41,5.41,0,0,0-.59,0C131.48,30.81,129.84,31,128.59,31.24Zm8.9-2.7a1.17,1.17,0,1,1-1.16-1.17A1.16,1.16,0,0,1,137.49,28.54Zm-1.93,0a.76.76,0,1,0,.77-.77A.77.77,0,0,0,135.56,28.54Z" transform="translate(5.14)"/><path class="cls-4" d="M26,54.36c-.07,3.21-1.39,4.67-5.12,5.34-.07,0-.12-.18,0-.21,2.9-1.12,3.78-2.37,3.78-5.34,0-.15,0-.3,0-.6,1.51.14,1.86.22,1.86.48S26.3,54.25,26,54.36Zm5.39-1.69c.53-.65.64-.73.76-.73s.23.08.91.73c.29.28.37.39.37.5s-.08.34-.63.34a.47.47,0,0,0-.39.14,8.65,8.65,0,0,1-1.33.88c-.05,0-.17,0-.14-.1A5.71,5.71,0,0,0,31.48,53H22.7c0,1.08-.49,1.88-1.33,1.88a.6.6,0,0,1-.62-.62c0-.31.14-.52.53-.74a1.82,1.82,0,0,0,1.09-1.7c0-.07.14-.08.16,0a3.87,3.87,0,0,1,.15.87ZM27.6,50.89h2.46c.66-.77.83-.88.93-.88s.28.11.9.61c.26.23.37.35.37.45s0,.14-.18.14H23.31a6,6,0,0,0-.95.09l-.15-.52a5.45,5.45,0,0,0,1.06.11h3V49.22H22.08a6.47,6.47,0,0,0-1,.09l-.16-.52A5.89,5.89,0,0,0,22,48.9h4.23v-.59a10.49,10.49,0,0,0-.08-1.37c1.75.15,1.92.31,1.92.46s-.15.24-.49.35V48.9h3.46c.67-.8.84-.91.94-.91s.28.11,1,.63c.31.25.42.36.42.46s0,.14-.18.14H27.6ZM29,57.71c0,.39.13.51,1.29.51a4.09,4.09,0,0,0,1.37-.13c.42-.13.66-.66,1.08-2.05,0-.07.17-.07.17,0,0,.51,0,1.12,0,1.52,0,.18,0,.22.11.26.38.19.48.37.48.61s-.19.6-.66.75a10.05,10.05,0,0,1-2.66.23c-2,0-2.47-.2-2.47-1.25v-2.3c0-.75,0-1.52,0-2.3,1.79.26,1.79.26,1.79.47s-.1.22-.42.35Z" transform="translate(5.14)"/><path class="cls-4" d="M42.76,58.57h3.41c.81-1,1-1.14,1.07-1.14s.28.11,1.11.79c.38.3.49.43.49.53s0,.14-.18.14H37.86a9.27,9.27,0,0,0-1.35.08l-.15-.52a9.43,9.43,0,0,0,1.48.12h3.48V49.25a16.45,16.45,0,0,0-.09-2c1.85.15,2,.3,2,.46s-.17.28-.49.39v4.22H45c.76-1,.93-1.11,1-1.11s.28.11,1.06.77c.35.29.46.42.46.52s0,.14-.18.14H42.76Z" transform="translate(5.14)"/><path class="cls-4" d="M57.18,47.64a4.6,4.6,0,0,0-.07-.83c1.75.16,1.92.31,1.92.47s-.18.26-.49.39v.84H62c.77-.84.94-.95,1-.95s.27.11.93.65c.29.26.4.38.4.48s0,.14-.18.14H52.91a7.55,7.55,0,0,0-1,.08l-.16-.51a6.19,6.19,0,0,0,1.12.11h4.29Zm4.88,6c.47-.52.58-.6.7-.6s.25.08.78.5c.24.21.32.31.32.42s-.11.27-.45.44v.68c0,2.24.05,2.79.05,3.45a1,1,0,0,1-.54,1,1.79,1.79,0,0,1-.89.24c-.19,0-.25,0-.32-.39s-.27-.62-1.24-.94c-.07,0-.07-.17,0-.17.65.05,1,.08,1.5.08.14,0,.18,0,.18-.18V54H53.76v5.2c0,.43-.22.6-.78.6s-.56-.14-.56-.53c0-.77,0-1.54,0-4.65,0-.55,0-1.1,0-1.64a8,8,0,0,1,1.44.7ZM55.6,52.44v.12c0,.36-.25.51-.76.51s-.53-.12-.53-.49,0-.7,0-2.1c0-.38,0-.75,0-1.13A11.9,11.9,0,0,1,55.7,50h4.39c.44-.53.55-.62.66-.62s.27.09.77.48c.24.18.32.28.32.39s-.09.23-.37.38V51c0,.78,0,1.33,0,1.49,0,.44-.21.61-.77.61-.39,0-.53-.13-.53-.49v-.12Zm.84,5.08v.33c0,.39-.2.53-.74.53s-.51-.11-.51-.46,0-.63,0-1.92a13.41,13.41,0,0,0-.06-1.41c.63.26.73.31,1.38.61h2.7c.42-.44.53-.53.64-.53s.26.09.75.49c.21.18.29.28.29.39s-.07.23-.36.42v.27c0,.71,0,1.2,0,1.36,0,.36-.21.52-.72.52s-.54-.1-.54-.41v-.19Zm3.75-7.18H55.6v1.78h4.59Zm-.85,5.19h-2.9v1.66h2.9Z" transform="translate(5.14)"/><path class="cls-4" d="M235.05,369.92c.88-1.06,1.07-1.19,1.19-1.19s.31.13,1.16.82c.39.32.52.46.52.58s0,.16-.21.16h-5.57c0,1.71.05,3.26.05,3.95,0,.48-.33.69-1,.69-.46,0-.7-.15-.7-.56s.06-1.65.06-4.08H225a9.29,9.29,0,0,0-1.18.09l-.18-.59a6.64,6.64,0,0,0,1.31.13h1.41v-2.19c0-.81,0-1.61-.06-2.41a12,12,0,0,1,1.68.77h2.65v-2.94h-3a10.75,10.75,0,0,1-3.6,3.5c-.06.05-.22-.08-.16-.14a13.9,13.9,0,0,0,2.77-4.58,8.59,8.59,0,0,0,.51-1.84c1.7.5,2.13.69,2.13,1s-.19.29-.69.35c-.24.5-.48,1-.73,1.38h6.78c.84-1,1-1.11,1.14-1.11s.32.13,1.14.77c.37.31.49.44.49.55s0,.16-.2.16h-5.08v2.94H234c.82-.93.94-1,1.07-1s.31.09,1.09.7c.37.29.46.4.46.53s-.06.16-.24.16h-4.27V367c0,.93,0,1.92,0,2.88Zm-4.47-3.46h-2.76v3.46h2.76Z" transform="translate(5.14)"/><path class="cls-4" d="M192.29,388.53a18.15,18.15,0,0,0,.76-1.65,8.94,8.94,0,0,0,.36-1.25c1.36.42,2.05.74,2.05.94s-.21.32-.72.32a13.39,13.39,0,0,1-1.81,1.64h3c.82-.93,1-1.06,1.12-1.06s.32.13,1.09.74c.35.29.48.41.48.53s-.05.16-.21.16H185.64a8.76,8.76,0,0,0-1.16.09l-.18-.59a6.64,6.64,0,0,0,1.31.13Zm-5.57,7.28c0,1.94,0,2.93,0,3.92,0,.43-.27.59-.87.59s-.68-.12-.68-.51c0-.88.08-1.77.08-5.34,0-1.54,0-3.08-.05-4.63a7.55,7.55,0,0,1,1.6.74h2.59c.53-.61.66-.71.79-.71s.28.1.84.55c.24.2.34.32.34.44s-.1.23-.43.45v1.25c0,5.14,0,5.86,0,6.36a1.29,1.29,0,0,1-.4,1,1.75,1.75,0,0,1-1.16.34c-.17,0-.24-.08-.27-.31-.1-.54-.25-.8-1.49-1.17-.08,0-.06-.19,0-.19.61,0,1.12.06,1.65.06.13,0,.16,0,.16-.25v-2.61Zm2.8-4.87h-2.8v2h2.8Zm0,2.39h-2.8v2.11h2.8Zm-.31-5c-.41,0-.57-.18-.7-.74a4.17,4.17,0,0,0-.77-1.69.11.11,0,0,1,.11-.16c1.49.38,2.18.93,2.18,1.71A.83.83,0,0,1,189.21,388.35Zm4.93,3.89c0,2.29,0,3.86,0,4.37s-.29.66-.92.66-.61-.1-.61-.61,0-1.92,0-4.8a13.3,13.3,0,0,0-.07-1.43c1.76.23,2.07.31,2.07.51s-.18.29-.55.44Zm1.73-.9a9,9,0,0,0-.08-1.39c1.92.23,2.08.27,2.08.55s-.16.27-.53.41v4.21c0,.83.07,2.74.07,3.65a1.4,1.4,0,0,1-1.6,1.47c-.37,0-.39,0-.47-.4s-.4-.76-1.73-1.13c-.08,0-.08-.2,0-.2.69.05,1.46.08,1.86.08s.4,0,.4-.24Z" transform="translate(5.14)"/><path class="cls-4" d="M204.33,392.13a14.55,14.55,0,0,1-1.39,1.65c-.07.06-.19-.1-.16-.16a23.07,23.07,0,0,0,2.27-5.53,15.74,15.74,0,0,0,.42-2.4c1.87.48,2.06.56,2.06.79s0,.22-.61.4a17.19,17.19,0,0,1-1.68,3.84c.84.13.95.19.95.35s-.11.24-.43.4v8.28c0,.46-.29.67-.85.67s-.67-.16-.67-.61.09-1.68.09-4.21Zm6,5.09a22.3,22.3,0,0,0,2.58-.55c.08,0,.14.16.08.2a25.22,25.22,0,0,1-5.4,2.06c0,.43-.14.61-.33.61s-.32-.22-.83-1.89a7.62,7.62,0,0,0,1,0c.45,0,1-.09,1.54-.17v-2.82h-1.28a4.37,4.37,0,0,0-.87.1l-.17-.6a4.15,4.15,0,0,0,1,.13H209v-.56c0-.66,0-1.28-.06-1.84,1.72.16,1.88.32,1.88.48s-.16.31-.46.4v1.52h.7c.5-.69.69-.82.81-.82s.3.13.81.58c.21.19.34.34.34.45s0,.16-.21.16h-2.45Zm-.11-9.69a15.42,15.42,0,0,1-1.76,3.08c1,0,2.05-.07,3.05-.16a4.83,4.83,0,0,0-.75-1.71c-.05-.07.08-.16.15-.13,1.44.8,2.17,1.6,2.17,2.38a.85.85,0,0,1-.78.91c-.38,0-.53-.2-.66-.92v-.1a20.79,20.79,0,0,1-4,1.07c-.09.31-.19.43-.37.43s-.3-.24-.7-1.77H208a29,29,0,0,0,.58-3.09h-.4a5.15,5.15,0,0,0-.88.1l-.18-.59a4.91,4.91,0,0,0,1.06.13h3c.54-.76.74-.88.85-.88s.3.12.89.6c.26.23.39.37.39.48s-.05.16-.21.16Zm5.65-.24a8.07,8.07,0,0,0-.1-1.34c1.79.24,1.92.29,1.92.53s-.08.25-.43.43v5.67c0,2.91.08,5,.08,5.93,0,.73-.13,1-.51,1.27a2.07,2.07,0,0,1-1.17.38c-.35,0-.48-.09-.53-.4-.08-.59-.38-.83-1.65-1.2-.08,0-.08-.22,0-.22.71.05,1.6.11,2.15.11.19,0,.24-.05.24-.22Zm-1.06,2.33c0,3.37.08,5.69.08,6.46,0,.45-.25.66-.83.66s-.62-.18-.62-.58.06-1.92.06-4.8c0-2.27,0-3.59-.06-3.91,1.69.2,1.8.23,1.8.48s-.12.28-.43.42Z" transform="translate(5.14)"/><path class="cls-4" d="M226,389.2a20.64,20.64,0,0,0-.27,2.82c-.13,1.68-.19,3.13-.19,4.14,0,.83.12,1.3.36,1.52a2.5,2.5,0,0,0,1.54.37,7.78,7.78,0,0,0,3.49-1,9.15,9.15,0,0,0,2.8-2.16c.1-.11.19-.2.29-.2a.15.15,0,0,1,.16.16,1.39,1.39,0,0,1-.21.44,9.22,9.22,0,0,1-2.78,2.85,7.25,7.25,0,0,1-4.28,1.3c-1.68,0-2.7-1.15-2.66-3.12.07-2.67.18-5.3.25-7.73,0-.6-.1-.85-.61-1.06s-.5-.18-.5-.27.11-.21.27-.29a2.05,2.05,0,0,1,.74-.14,2.45,2.45,0,0,1,1.54.72,1.11,1.11,0,0,1,.46.81.83.83,0,0,1-.22.55C226.06,389,226,389.07,226,389.2Z" transform="translate(5.14)"/><path class="cls-4" d="M246.33,389.54a37.46,37.46,0,0,0-4.65,1.48,2.84,2.84,0,0,0-.61.37.66.66,0,0,1-.47.18c-.32,0-.68-.19-1.21-.79a1.91,1.91,0,0,1-.59-1.15c0-.25.06-.5.16-.5s.11,0,.25.16c.56.58.69.65,1.17.63a20.7,20.7,0,0,0,2.67-.53c2-.48,3.65-.91,4.87-1.26a5.2,5.2,0,0,0,.88-.31,1.1,1.1,0,0,1,.61-.14,4,4,0,0,1,1.47.25c.27.13.51.29.51.63s-.14.56-.59.57-.69,0-1.58.08a5.27,5.27,0,0,0-3.67,1.73,4.42,4.42,0,0,0-1.15,3.11,2.81,2.81,0,0,0,1.17,2.38,5,5,0,0,0,2.56.84,2.88,2.88,0,0,1,1.23.22.93.93,0,0,1,.62.82c0,.43-.28.77-1,.77a7.65,7.65,0,0,1-3.1-.76,4.17,4.17,0,0,1-2.35-3.68,5.77,5.77,0,0,1,.62-2.69,7.45,7.45,0,0,1,2.22-2.33Zm4.37,2.2a1.21,1.21,0,0,1,.6,1,.54.54,0,0,1-.53.55.57.57,0,0,1-.55-.36,5.9,5.9,0,0,0-1-1.41c-.07-.07-.18-.15-.18-.21s0-.08.08-.1h.26A3.17,3.17,0,0,1,250.7,391.74Zm1.49-1a1,1,0,0,1,.58.82.54.54,0,0,1-.5.59.61.61,0,0,1-.59-.35,4.14,4.14,0,0,0-1.12-1.25c-.06-.05-.19-.13-.19-.19s0-.08,0-.1a.39.39,0,0,1,.25,0A3.21,3.21,0,0,1,252.19,390.7Z" transform="translate(5.14)"/><path class="cls-4" d="M260.53,396.85a2.38,2.38,0,0,0,1.52,1.35,13.73,13.73,0,0,0,3.63.36,48.94,48.94,0,0,0,6.14-.4c.08,0,.08.15,0,.18a1,1,0,0,0-.62.9c-.05.49-.08.54-.39.57-.85.11-2.75.15-3.9.15-2.72,0-4.34-.23-5.36-.93a3.9,3.9,0,0,1-1.49-2.28,11.49,11.49,0,0,1-1.84,2.42c0,.61,0,.74-.28.74s-.59-.58-1.18-2a6.44,6.44,0,0,0,1.1-.41,6.29,6.29,0,0,0,1.16-.64v-4.24h-1.11a3.4,3.4,0,0,0-.88.13l-.17-.64a3.85,3.85,0,0,0,1.05.14h1c.56-.64.69-.73.82-.73s.28.09.88.56c.27.22.36.33.36.46s0,.16-.47.51Zm-.85-7.73c-.37,0-.56-.19-.79-1a4.62,4.62,0,0,0-1-1.88c-.07-.06.05-.16.13-.14,1.87.46,2.56,1.23,2.56,2.05A.87.87,0,0,1,259.68,389.12Zm7,.35h2.77c.64-.73.83-.86.94-.86s.32.13.92.6c.25.21.38.36.38.47s0,.16-.21.16h-3.71c1.12.38,1.39.54,1.39.74s-.13.2-.62.24c-.58.51-.82.73-1.2,1H269c.61-.7.8-.83.92-.83s.32.13.88.59c.24.19.37.34.37.45s-.05.16-.21.16h-4.33v1.6h1.83c.5-.64.69-.77.8-.77s.3.13.8.54c.21.18.34.33.34.44s-.05.16-.21.16h-3.56c0,.53,0,1.05,0,1.58h2.59c.62-.73.82-.86.93-.86s.32.13.91.61c.26.2.39.35.39.46s-.05.16-.21.16h-4.61c0,.62,0,1.15,0,1.42,0,.49-.26.66-.9.66-.45,0-.65-.14-.65-.43s0-.71.06-1.65H262.3a4.93,4.93,0,0,0-.93.1l-.17-.6a4.49,4.49,0,0,0,1.07.13h3v-1.58h-2.08a4.93,4.93,0,0,0-.86.09l-.18-.59a3.85,3.85,0,0,0,1,.13h2.13v-1.6h-2.85a5,5,0,0,0-.88.09l-.18-.59a4.25,4.25,0,0,0,1,.13h1.7c-.15-.08-.21-.27-.28-.61a2.84,2.84,0,0,0-.46-1.26c-.05-.07,0-.13.08-.11,1.1.27,1.68.73,1.68,1.31a.71.71,0,0,1-.43.67h2.19a10.29,10.29,0,0,0,.43-1.12l.23-.88h-5.25a5.12,5.12,0,0,0-.95.1l-.17-.6a4.64,4.64,0,0,0,1.09.13h3v-1.7H263a5.58,5.58,0,0,0-.91.1l-.18-.59a4.91,4.91,0,0,0,1.06.13h2.3v-.55a10.93,10.93,0,0,0-.08-1.26c1.73.16,1.91.32,1.91.46s-.15.27-.42.39v1h1.92c.58-.68.77-.8.88-.8s.32.12.88.56c.24.2.37.33.37.44s-.05.16-.21.16h-3.84Z" transform="translate(5.14)"/><path class="cls-4" d="M284,389c0-.24,0-.48,0-.74a17.47,17.47,0,0,0-.16-2.32c2,.25,2.05.27,2.05.51s-.15.27-.48.37c0,.78,0,1.5,0,2.18h2.66c.85-1,1-1.06,1.11-1.06s.27.09.93.72c.28.29.38.41.38.54s-.06.16-.24.16h-4.82a18.47,18.47,0,0,0,.88,5.08c.18-.32.32-.64.47-1a11.08,11.08,0,0,0,.76-2.64c1.37.4,1.83.62,1.83.88s-.11.22-.55.35a14.67,14.67,0,0,1-1.85,3.74,7.3,7.3,0,0,0,1.33,1.67c.41.37.69.58.81.58s.45-.37,1.08-1.7c0-.08.16,0,.16.05-.13,1.5-.15,1.79-.15,2s0,.32.23.64a.9.9,0,0,1,.16.53.64.64,0,0,1-.69.7,3.61,3.61,0,0,1-1.94-.94,9.82,9.82,0,0,1-2-2.31,12.11,12.11,0,0,1-4.87,3c-.08,0-.16-.11-.09-.16a15.34,15.34,0,0,0,4.35-4,16.9,16.9,0,0,1-1.33-6.58h-4.91c0,1.06,0,1.8-.07,2.72h2.36c.53-.65.65-.75.78-.75s.29.1.9.64c.27.26.37.37.37.5s-.05.16-.53.48a16.24,16.24,0,0,1-.5,4.05,1.59,1.59,0,0,1-.69.9,2.4,2.4,0,0,1-1.18.25c-.21,0-.24-.06-.32-.43-.18-.59-.27-.67-1.31-1.07-.08,0,0-.21.06-.2a7.74,7.74,0,0,0,1.36.18c.64,0,.72-.1.9-1a20.07,20.07,0,0,0,.27-3.19h-2.48a18,18,0,0,1-.58,4.32,7.6,7.6,0,0,1-2.19,3.45c-.06,0-.19-.08-.16-.15a12.25,12.25,0,0,0,1.18-3.7,30.5,30.5,0,0,0,.31-5.05c0-1.25,0-2.13-.1-3.27.88.43,1,.5,1.83,1Zm3.81-.48c-.21,0-.26-.05-.42-.31a4,4,0,0,0-1.32-1.63c-.07-.05-.05-.18,0-.18,1.63.13,2.38.64,2.38,1.35A.7.7,0,0,1,287.84,388.5Z" transform="translate(5.14)"/><path class="cls-4" d="M187.64,258.5c-.46,0-1.06-.06-1.6-.06s-1.14,0-1.73.06l-.53,1.47a2.14,2.14,0,0,0-.16,1.57c.13.29.59.39,1.09.45.09,0,.13,0,.13.18s0,.18-.15.18c-.52,0-1.24,0-1.75,0s-1,0-1.48,0c-.12,0-.15,0-.15-.18s0-.18.15-.18a1.48,1.48,0,0,0,.83-.44,4.59,4.59,0,0,0,.85-1.64l1.69-4.53c.65-1.77.78-2.2,1-2.95l1.11-.5c.1,0,.16,0,.18.13.28.86.54,1.56,1.17,3.4l1.58,4.57a5.91,5.91,0,0,0,.7,1.59c.24.3.38.32.91.37.15,0,.18,0,.18.18s0,.18-.18.18l-2,0-2,0c-.1,0-.12,0-.12-.18s0-.18.12-.18c.53,0,.88-.09,1-.37a2.46,2.46,0,0,0-.25-1.47Zm-1-3c-.32-.93-.43-1.33-.58-1.84-.2.55-.31.91-.63,1.81l-.9,2.48c.46,0,1,0,1.55,0s1,0,1.41,0Z" transform="translate(5.14)"/><path class="cls-4" d="M198.32,254a5.92,5.92,0,0,0,0-1.21c-.06-.22-.27-.29-.51-.28l-.33,0c-.17,0-.2,0-.21-.16s0-.18.16-.21a19.32,19.32,0,0,0,2.3-.63c.07,0,.17.07.17.14-.06,1-.08,2.05-.08,3.41v5.25a4.55,4.55,0,0,0,.09,1.46c.1.21.26.21.44.22l.32,0c.1,0,.13,0,.13.15s0,.17-.13.18c-.56,0-1.56.13-2.18.24-.1,0-.15,0-.15-.17,0-.33,0-.6,0-.95a2.12,2.12,0,0,1-1.83,1.12c-1.92,0-3-1.39-3-3.36a3.18,3.18,0,0,1,3.21-3.49,2.22,2.22,0,0,1,1.65.71Zm0,4.25a2.15,2.15,0,0,0-.26-1.23,1.46,1.46,0,0,0-1.21-.8c-1.09,0-1.73,1.21-1.73,3s.7,2.75,1.72,2.75a1.51,1.51,0,0,0,1.2-.74,1.65,1.65,0,0,0,.28-1.14Z" transform="translate(5.14)"/><path class="cls-4" d="M205.78,259.89c.16.43.23.68.37,1.16.18-.49.28-.73.43-1.23l.59-1.84a2.34,2.34,0,0,0,.18-1.39c-.1-.18-.35-.23-.73-.28-.07,0-.09,0-.09-.16s0-.17.11-.17c.4,0,.94,0,1.32,0s.81,0,1.17,0c.11,0,.14,0,.14.17s0,.15-.14.16a1.21,1.21,0,0,0-.71.34,4,4,0,0,0-.7,1.33l-.94,2.61c-.27.72-.37,1-.59,1.64a4,4,0,0,1-.85.32.14.14,0,0,1-.13-.09c-.2-.58-.36-1.06-.64-1.83l-1-2.65a6.07,6.07,0,0,0-.66-1.44c-.18-.18-.33-.2-.74-.23-.08,0-.11,0-.11-.16s0-.17.11-.17c.53,0,1.15,0,1.61,0s1.16,0,1.7,0c.09,0,.11,0,.11.17s0,.16-.1.16c-.39,0-.7.05-.78.24s.09.65.39,1.43Z" transform="translate(5.14)"/><path class="cls-4" d="M216.23,260.77c0,.9.18,1.23.5,1.23a.66.66,0,0,0,.41-.1.14.14,0,0,1,.18.07c.06.1.06.14,0,.21a1.92,1.92,0,0,1-1.19.33,1.2,1.2,0,0,1-1.19-.76,2.48,2.48,0,0,1-2,.83c-1.38,0-1.8-.86-1.8-1.49a1.65,1.65,0,0,1,.48-1.25,4.65,4.65,0,0,1,1.79-.77,2.9,2.9,0,0,0,1.1-.5.76.76,0,0,0,.32-.55v-.39c0-1.05-.27-1.48-.84-1.48a1,1,0,0,0-.73.28.94.94,0,0,0-.25.78c0,.38-.35.67-1.08.67-.44,0-.55-.16-.55-.44,0-.66,1.08-1.69,2.8-1.69,2.06,0,2.09,1,2.08,2.09Zm-1.4-2c-.14.21-.34.33-1.12.62a1.42,1.42,0,0,0-1,1.47,1,1,0,0,0,.88,1.15,1.21,1.21,0,0,0,1.24-1.22Z" transform="translate(5.14)"/><path class="cls-4" d="M219.26,256.76c-.14,0-.18,0-.19-.15s0-.18.17-.21a17.68,17.68,0,0,0,2.21-.62c.08,0,.17.06.17.11,0,.4,0,.83,0,1.19a2.49,2.49,0,0,1,2.17-1.33,2,2,0,0,1,2.05,2c0,.51,0,1.22,0,1.55v1a4.88,4.88,0,0,0,.11,1.48c.1.21.33.23.73.27.09,0,.11,0,.11.17s0,.15-.11.15c-.52,0-1,0-1.53,0s-1.06,0-1.59,0c-.1,0-.11,0-.11-.15s0-.17.11-.17c.38,0,.6,0,.71-.27a4.41,4.41,0,0,0,.11-1.48v-1.91a2.68,2.68,0,0,0-.16-1.2,1,1,0,0,0-1-.7,1.57,1.57,0,0,0-1.26.8,1.83,1.83,0,0,0-.29,1.12v1.89a5,5,0,0,0,.08,1.48c.12.23.34.23.77.27.1,0,.13,0,.13.17s0,.15-.13.15c-.49,0-1,0-1.5,0s-1.07,0-1.61,0c-.08,0-.09,0-.09-.15s0-.16.09-.17c.41,0,.63,0,.75-.27a4.63,4.63,0,0,0,.09-1.48v-2.07a4.14,4.14,0,0,0-.09-1.18.38.38,0,0,0-.44-.3Z" transform="translate(5.14)"/><path class="cls-4" d="M233.84,256.08a.76.76,0,0,1,.56.65c0,.51-.15.93-.62.93s-.67-.53-.84-.87-.37-.59-.74-.59c-1.08,0-1.62,1.22-1.62,2.94s1,2.75,1.94,2.75a2,2,0,0,0,1.78-1c.07-.11.14-.1.26,0s.12.12.08.2a2.75,2.75,0,0,1-2.54,1.48,3.14,3.14,0,0,1-3.18-3.37,3.31,3.31,0,0,1,3.21-3.46A3.93,3.93,0,0,1,233.84,256.08Z" transform="translate(5.14)"/><path class="cls-4" d="M238.33,259.14c0,1.85,1.14,2.78,2,2.78a2.14,2.14,0,0,0,1.94-1,.16.16,0,0,1,.14-.07.25.25,0,0,1,.13.06s.11.09.11.13a.47.47,0,0,1-.07.16,2.79,2.79,0,0,1-2.59,1.39,3.18,3.18,0,0,1-3.24-3.37,3.31,3.31,0,0,1,3.25-3.46,2.78,2.78,0,0,1,2.74,2.61.28.28,0,0,1-.08.24c-.07.08-.12.07-.21.07-1.41,0-2.82-.06-4.07,0A2,2,0,0,0,238.33,259.14Zm2.75-1.05c.11,0,.12-.09.12-.22,0-.79-.37-1.7-1.19-1.7s-1.34.82-1.55,2A25.45,25.45,0,0,0,241.08,258.09Z" transform="translate(5.14)"/><path class="cls-4" d="M248.53,261c1.17,0,1.45-.08,1.73-.33a3.73,3.73,0,0,0,.77-1.08c.06-.1.1-.11.23-.07s.15.08.14.18c-.17.72-.52,2-.76,2.69-.95,0-1.69,0-2.7,0s-1.85,0-2.78,0c-.14,0-.18,0-.18-.24a.63.63,0,0,1,.09-.39,23,23,0,0,1,2.45-3.58c1.19-1.53,1.86-2.27,1.86-3.58,0-1.16-.41-2-1.2-2a1.16,1.16,0,0,0-1.17.81,3.27,3.27,0,0,0-.12,1c0,.39-.54.65-1,.65s-.68-.11-.68-.53a2.92,2.92,0,0,1,3-2.38c1.89,0,2.9,1.12,2.9,2.48,0,1.79-1.29,2.46-2.71,3.78a10.26,10.26,0,0,0-2.32,2.56Z" transform="translate(5.14)"/><path class="cls-4" d="M260,257.35c0,3.22-1.17,5.25-3.11,5.25s-3.14-1.93-3.14-5.16,1.15-5.3,3.14-5.3S260,254.16,260,257.35Zm-4.61,0c0,2.92.29,4.78,1.5,4.78s1.47-1.86,1.47-4.78-.28-4.82-1.47-4.82S255.4,254.47,255.4,257.39Z" transform="translate(5.14)"/><path class="cls-4" d="M265.94,261c1.18,0,1.46-.08,1.74-.33a3.73,3.73,0,0,0,.77-1.08c.05-.1.1-.11.22-.07s.16.08.14.18c-.17.72-.52,2-.75,2.69-1,0-1.7,0-2.71,0s-1.85,0-2.77,0c-.14,0-.18,0-.18-.24a.63.63,0,0,1,.08-.39,24.45,24.45,0,0,1,2.45-3.58c1.19-1.53,1.87-2.27,1.87-3.58,0-1.16-.41-2-1.21-2a1.16,1.16,0,0,0-1.16.81,3,3,0,0,0-.13,1c0,.39-.53.65-1.05.65s-.67-.11-.67-.53a2.91,2.91,0,0,1,3-2.38c1.89,0,2.9,1.12,2.9,2.48,0,1.79-1.29,2.46-2.7,3.78a10.16,10.16,0,0,0-2.33,2.56Z" transform="translate(5.14)"/><path class="cls-4" d="M273.35,253.72c-.77,0-1,.11-1.15.31a2.65,2.65,0,0,0-.49.93c0,.09-.07.14-.25.09s-.17-.05-.16-.15c.11-.71.28-1.84.37-2.58.92,0,1.84,0,2.81,0s1.84,0,2.73,0c.09,0,.11,0,.11.3a.7.7,0,0,1-.05.36,21.13,21.13,0,0,0-2.45,6.08,8.63,8.63,0,0,0-.21,1.85c0,.39,0,.6,0,.94s-.54.75-1.07.75-.88-.16-.88-.61a8.77,8.77,0,0,1,1-3.56,37.46,37.46,0,0,1,2.69-4.71Z" transform="translate(5.14)"/><path class="cls-4" d="M187.22,278.44c-.07,3.21-1.39,4.67-5.11,5.34-.07,0-.13-.18-.06-.21,2.9-1.12,3.78-2.37,3.78-5.34,0-.15,0-.3,0-.6,1.51.14,1.86.22,1.86.48S187.57,278.33,187.22,278.44Zm5.39-1.69c.54-.65.65-.73.76-.73s.24.08.91.73c.3.28.38.39.38.5s-.08.34-.63.34a.47.47,0,0,0-.39.14,9.74,9.74,0,0,1-1.33.88c-.06,0-.17,0-.14-.1a5.7,5.7,0,0,0,.58-1.44H184c0,1.08-.49,1.88-1.33,1.88a.6.6,0,0,1-.62-.62c0-.31.14-.52.54-.74a1.82,1.82,0,0,0,1.09-1.7c0-.07.14-.08.15,0a3.9,3.9,0,0,1,.16.87ZM188.87,275h2.47c.66-.77.83-.88.92-.88s.28.11.9.61c.27.23.38.35.38.45s0,.14-.18.14h-8.77a5.9,5.9,0,0,0-1,.09l-.16-.52a5.47,5.47,0,0,0,1.07.11h3V273.3h-4.18a6.47,6.47,0,0,0-1,.09l-.15-.52a5.81,5.81,0,0,0,1.09.11h4.23v-.59a12.59,12.59,0,0,0-.08-1.37c1.75.15,1.91.31,1.91.46s-.15.24-.49.35V273h3.46c.68-.8.84-.91.94-.91s.28.11,1,.63c.3.25.42.36.42.46s-.05.14-.19.14h-5.59Zm1.38,6.82c0,.39.12.51,1.29.51a4.12,4.12,0,0,0,1.37-.13c.42-.13.66-.66,1.08-2.05,0-.07.17-.07.17,0,0,.51,0,1.12,0,1.52,0,.18,0,.22.12.26.37.19.47.37.47.61s-.18.6-.66.75a10.05,10.05,0,0,1-2.66.23c-2,0-2.46-.2-2.46-1.25v-2.3c0-.75,0-1.52,0-2.29,1.8.25,1.8.25,1.8.46s-.1.22-.42.35Z" transform="translate(5.14)"/><path class="cls-4" d="M204,282.65h3.4c.81-1,1-1.14,1.08-1.14s.28.11,1.1.79c.38.3.5.43.5.53s-.05.14-.19.14h-10.8a9.14,9.14,0,0,0-1.34.08l-.16-.52a9.46,9.46,0,0,0,1.49.12h3.47v-9.32a19.42,19.42,0,0,0-.08-2c1.85.15,2,.3,2,.46s-.17.28-.49.39v4.22h2.28c.76-1,.92-1.11,1-1.11s.28.11,1.07.77c.35.29.46.42.46.52s0,.14-.18.14H204Z" transform="translate(5.14)"/><path class="cls-4" d="M216.1,282.51v.56c0,.37-.29.57-.85.57s-.62-.14-.62-.48c0-1.4.1-2.83.1-8.48,0-1.17,0-2.33-.1-3.49a7,7,0,0,1,1.67.89H222c.54-.61.65-.7.76-.7s.27.09.84.54c.27.21.35.3.35.42s-.08.28-.43.5v1.67c0,4.42.08,7.49.08,8.5,0,.42-.31.6-.85.6s-.62-.14-.62-.45v-.65Zm6-10.1h-6v2.92h6Zm0,3.25h-6v2.94h6Zm0,3.26h-6v3.26h6Z" transform="translate(5.14)"/><path class="cls-4" d="M230.75,275.88c.89.29,1.48.85,1.48,1.5,0,.42-.24.71-.59.71s-.32-.14-.39-.52a3,3,0,0,0-.5-1.41c0,2.52.05,6,.05,7.24,0,.32-.28.46-.73.46s-.54-.11-.54-.4c0-.73.1-3.76.11-6.29a8.44,8.44,0,0,1-1.95,3.18s-.15,0-.12-.09a20.24,20.24,0,0,0,1.83-5.79h-.57a5,5,0,0,0-.89.08l-.15-.52a5.34,5.34,0,0,0,1,.11h.73V272.7c0-.67,0-1.22-.07-1.79,1.49.17,1.75.24,1.75.47s-.13.26-.49.4v2.36h0c.3-.63.47-.74.56-.74s.24.11.62.53a.82.82,0,0,1,.24.39c0,.1,0,.15-.18.15h-1.26Zm3.39,5.27a7.83,7.83,0,0,1-2.89,1.93c-.07,0-.15-.1-.1-.14a7.94,7.94,0,0,0,1.63-2,8.53,8.53,0,0,0,.45-1c1.21.59,1.48.79,1.48.94S234.54,281.15,234.14,281.15Zm2.6-.59c0,.34,0,1.48,0,2.09a1,1,0,0,1-.29.78,1.71,1.71,0,0,1-1.22.38c-.13,0-.17-.06-.21-.28-.1-.49-.35-.74-1.44-1-.07,0-.06-.18,0-.18.56,0,1.16,0,1.64,0,.18,0,.21,0,.21-.22v-2.65h-2.79a4.74,4.74,0,0,0-.85.09l-.16-.52a5,5,0,0,0,1,.11h5.84c.65-.77.82-.88.91-.88s.28.11.9.61c.28.23.39.35.39.45s0,.14-.18.14h-3.81Zm-3.18-4.13c0,.33-.19.49-.7.49-.34,0-.5-.12-.5-.4s0-.58,0-1.65q0-.92-.06-1.86a10.47,10.47,0,0,1,1.32.6h.9V272.1h-1.43a9.79,9.79,0,0,0-1.12.08l-.16-.52a7.18,7.18,0,0,0,1.29.12h5.53c.63-.79.8-.9.9-.9s.29.11.91.63c.3.25.42.35.42.45s0,.14-.18.14h-2.91v1.51h1c.4-.45.51-.53.62-.53s.27.08.74.46c.23.18.31.28.31.39s-.11.26-.39.42v.34c0,.9,0,1.47,0,1.67s-.22.43-.73.43c-.33,0-.5-.13-.5-.39v-.09h-5.34Zm3.91,1.16c.56-.69.73-.8.83-.8s.28.11.84.56c.23.2.35.32.35.42s-.05.14-.19.14h-5.5a3.88,3.88,0,0,0-.77.09l-.16-.52a4.23,4.23,0,0,0,.93.11Zm-2.91-3.66h-1V276h1Zm2.15-1.83h-1.05v1.51h1.05Zm0,3.89v-2.06h-1.05V276Zm3,7c-.35,0-.52-.15-.7-.64a5,5,0,0,0-1.54-2.2c-.05-.05,0-.13.11-.12,1.78.52,2.85,1.25,2.85,2.15A.73.73,0,0,1,239.68,283Zm-.78-9.08h-1.09V276h1.09Z" transform="translate(5.14)"/><path class="cls-4" d="M71.2,391a12.42,12.42,0,0,1-1.39,1.68c-.07.07-.2-.09-.16-.16a23.94,23.94,0,0,0,2.22-5.5,15.76,15.76,0,0,0,.42-2.42c1.9.5,2.09.56,2.09.78s0,.23-.62.4a18.59,18.59,0,0,1-1.68,3.88c.9.13,1,.17,1,.35s-.11.24-.43.4v8.28c0,.46-.27.67-.86.67s-.71-.16-.71-.61.1-1.68.1-4.21Zm3.9,5.77c0,1-.43,1.85-1.23,1.85a.7.7,0,0,1-.75-.72c0-.38.16-.59.62-.8a1.5,1.5,0,0,0,1.06-1.31c0-.08.16-.1.18,0A4.4,4.4,0,0,1,75.1,396.72Zm.85-9.88c1.16.35,1.7.83,1.7,1.52a.68.68,0,0,1-.59.67h2.61a8.31,8.31,0,0,0,.33-1.12,6.64,6.64,0,0,0,.18-1c1.36.41,1.78.56,1.78.72s-.1.21-.52.29A6.3,6.3,0,0,1,80.16,389h2.2c.68-.83.88-1,1-1s.32.13,1,.67c.29.24.42.39.42.5s0,.16-.21.16h-10a7.46,7.46,0,0,0-1.16.1l-.17-.6a6.46,6.46,0,0,0,1.29.13h2.17a.53.53,0,0,1-.45-.46,3.34,3.34,0,0,0-.72-1.73h-.13a7.35,7.35,0,0,0-1.15.1l-.18-.6a6.48,6.48,0,0,0,1.3.13h2.56v-1a8.37,8.37,0,0,0-.07-1c1.88.16,2,.32,2,.48s-.16.25-.48.42v1.05h2.32c.67-.82.86-.94,1-.94s.32.12,1,.65c.31.26.43.39.43.5s0,.16-.2.16Zm0,7.54c0,.3-.32.45-.8.45s-.66-.18-.66-.58,0-.53,0-1.6,0-1.86-.1-2.8a12.34,12.34,0,0,1,1.68.75h5c.52-.59.65-.69.78-.69s.3.1.85.51c.25.2.35.31.35.44s-.1.24-.42.46v.48c0,1.28,0,2.16,0,2.45s-.29.64-.9.64c-.4,0-.58-.14-.58-.5H76ZM81.28,391H76v1.34h5.28Zm0,1.71H76V394h5.28Zm.12,4.55c0,.21,0,.29.19.33.38.1.49.23.49.53s-.24.56-.75.72a9.77,9.77,0,0,1-2.56.24c-2,0-2.7-.27-2.7-1.12,0-.33,0-.69,0-2.08a3.46,3.46,0,0,0-.07-.7c1.64.17,1.78.2,1.78.43s-.14.27-.43.35v1.39c0,.45.22.55,1.52.55a4.52,4.52,0,0,0,1.39-.11c.45-.18.59-.56.95-1.64,0-.08.16-.06.16,0Zm-2.05-.18c-.37,0-.42-.06-.66-.86A3,3,0,0,0,78,395c0-.06,0-.12.07-.11,1.36.24,2,.68,2,1.36A.74.74,0,0,1,79.35,397.05Zm4.38,1.33c-.41,0-.56-.18-.72-1a3.29,3.29,0,0,0-.88-1.73c-.06-.05,0-.17.08-.14,1.59.51,2.27,1.07,2.27,1.92A.81.81,0,0,1,83.73,398.38Z" transform="translate(5.14)"/><path class="cls-4" d="M91.82,398.52c0,.4-.35.6-1,.6s-.69-.15-.69-.55c0-1.44.1-2.88.1-8.66,0-1.66,0-3.33-.1-5l1.81.88h9c.59-.67.72-.77.85-.77s.29.1.91.61c.27.24.37.36.37.48s-.1.24-.42.48v1.76c0,7.8,0,8.1,0,9s-.21,1.17-.75,1.43A3.41,3.41,0,0,1,101,399c-.27,0-.33-.12-.38-.44-.08-.54-.4-.94-1.89-1.26-.08,0-.06-.19,0-.19.84,0,1.63.05,2.14.05.23,0,.27-.07.27-.29v-5.24h-9.3Zm3.78-7.21v-5.16H91.82v5.16Zm5.52-5.16H97.19v5.16h3.93Z" transform="translate(5.14)"/><path class="cls-4" d="M129.86,399.05c-.08,0-.17-.13-.11-.17,4.37-3.11,6.05-6.52,6.05-12.38a9.38,9.38,0,0,0-.08-1.34c2.1.19,2.32.24,2.32.54s-.08.23-.56.45c0,.5,0,1-.06,1.47a12.5,12.5,0,0,0,1.84,5.49,10.7,10.7,0,0,0,5.22,4.2c.08,0,.08.17,0,.19a1.46,1.46,0,0,0-1.06,1.15c-.1.27-.16.34-.3.34a2.13,2.13,0,0,1-.84-.47,12.9,12.9,0,0,1-4-5.15,16.22,16.22,0,0,1-1-4.29C136.73,394.17,134.6,396.89,129.86,399.05Z" transform="translate(5.14)"/><path class="cls-5" d="M36.71,345.2a28,28,0,0,1,9.55,1.44,13.4,13.4,0,0,1,6.09,4.09,10.06,10.06,0,0,1,2.14,6.51,10.31,10.31,0,0,1-1.16,5,9.4,9.4,0,0,1-3,3.36,10.68,10.68,0,0,1-4.1,1.65,9.53,9.53,0,0,1-4.23-.18,17.49,17.49,0,0,1,4.58.67A15.09,15.09,0,0,1,51.3,370a12.11,12.11,0,0,1,3.75,4.27A14,14,0,0,1,56.52,381a16.31,16.31,0,0,1-2.28,8.65,18.57,18.57,0,0,1-6.12,6.16,26.51,26.51,0,0,1-8.65,3.43,33.43,33.43,0,0,1-9.87.56,29.83,29.83,0,0,1-9.69-2.56l.14-.7a27.39,27.39,0,0,0,8.19-1.05,21.13,21.13,0,0,0,6.82-3.32,16.4,16.4,0,0,0,4.69-5.32,14.15,14.15,0,0,0,1.72-7,10.78,10.78,0,0,0-2-6.82,11.71,11.71,0,0,0-5-3.75,16,16,0,0,0-6-1.19l.14-.7a11.15,11.15,0,0,0,5.95-1.5,11.27,11.27,0,0,0,4.27-4.34,10.16,10.16,0,0,0,1.19-6.13,7.48,7.48,0,0,0-1.47-4.16,6.68,6.68,0,0,0-3.12-2.21,9.25,9.25,0,0,0-3.95-.42,6.89,6.89,0,0,0-6,3.68c-1.17,2.21-1.7,5.52-1.61,9.9h-.7l-4-12.11a20.09,20.09,0,0,1,7.21-3.6A35.5,35.5,0,0,1,36.71,345.2Z" transform="translate(5.14)"/><path class="cls-5" d="M185.2,322.24l37.1-.14-9,20.79c-.61,1.35-1.26,3-2,4.9s-1.42,4-2.17,6.16-1.47,4.36-2.17,6.51-1.34,4.14-1.93,6-1,3.4-1.36,4.66h-11.9q1.26-2.1,3-5.08c1.16-2,2.38-4.09,3.64-6.33s2.51-4.47,3.74-6.69,2.35-4.27,3.33-6.16,1.77-3.46,2.38-4.72l3.64-7.77h-22.4a4.8,4.8,0,0,0-3.29,1,7.51,7.51,0,0,0-2,3.15h-.7Z" transform="translate(5.14)"/><path class="cls-4" d="M18.68,257a10.62,10.62,0,0,1-1.62,1.12c-.06,0-.14-.1-.1-.15a15.47,15.47,0,0,0,2.3-3.07A7.54,7.54,0,0,0,20,253.3c1.43.7,1.49.73,1.49.9s-.12.22-.52.28a9.84,9.84,0,0,1-1.22,1.58c.5.1.59.14.59.28s-.1.21-.38.34v5.83c0,.4-.24.58-.73.58-.32,0-.6-.11-.6-.49s.08-1.48.08-3.72Zm2.09-5.71a10.09,10.09,0,0,1-3.49,2.92c-.05,0-.15-.09-.1-.14a11.45,11.45,0,0,0,1.88-2.5,6.53,6.53,0,0,0,.62-1.46c1.1.41,1.69.71,1.69.92S21.19,251.31,20.77,251.33Zm5.15,10a8.22,8.22,0,0,0,1.73.16,21.08,21.08,0,0,0,2.52-.16c.07,0,0,.14,0,.18a1.18,1.18,0,0,0-.63.92c-.06.3-.11.37-.24.39h-.39a7.6,7.6,0,0,1-4.18-.82,5,5,0,0,1-2-2.58,7.38,7.38,0,0,1-2.51,3.37c-.05,0-.15-.09-.11-.15A9.93,9.93,0,0,0,22,256.5c0-.16,0-.41,0-.7,1.43.22,1.73.29,1.73.49s-.1.21-.38.32a13.33,13.33,0,0,1-.45,2.37,4.46,4.46,0,0,0,1.85,1.94V254.1H22.51a4.55,4.55,0,0,0-.84.09l-.16-.52a4.38,4.38,0,0,0,.94.11h3.11a16,16,0,0,0,1-2.47l.24-1c1.35.51,1.77.72,1.77.89s-.12.22-.54.22a13.25,13.25,0,0,1-1.94,2.34h1.73c.61-.77.78-.88.88-.88s.28.11.88.61c.27.23.38.35.38.45s0,.14-.18.14H25.92v3.14h1.29c.62-.74.79-.86.89-.86s.26.12.85.61c.25.21.36.33.36.43s0,.14-.18.14H25.92Zm-2.11-8c-.39,0-.45-.08-.62-1.08a4.1,4.1,0,0,0-.73-1.61c0-.06.05-.15.12-.12,1.36.54,2.06,1.17,2.06,1.87A.87.87,0,0,1,23.81,253.33Z" transform="translate(5.14)"/><path class="cls-4" d="M39.63,258.92a8.48,8.48,0,0,0,2.28,1.37,11.53,11.53,0,0,0,3.69.81c.07,0,.07.13,0,.16-.52.19-.65.31-1,1.16a.22.22,0,0,1-.21.15,2.46,2.46,0,0,1-.65-.21A10,10,0,0,1,41.24,261a8.54,8.54,0,0,1-1.79-1.85c0,1.79.08,3.11.08,3.49s-.22.53-.82.53c-.38,0-.55-.16-.55-.46s.07-1.7.1-2.93a10.17,10.17,0,0,1-5.55,2.84c-.07,0-.14-.1-.07-.12a11.78,11.78,0,0,0,4.66-3.59H34a7.55,7.55,0,0,0-1,.08l-.16-.52a5.14,5.14,0,0,0,1.08.12h4.27v-1.31H35.47a6.69,6.69,0,0,0-1,.09l-.15-.52a6,6,0,0,0,1.11.11h2.78V255.7H34.74a8.12,8.12,0,0,0-1,.08l-.15-.52a5.42,5.42,0,0,0,1.12.12H37c-.19-.06-.28-.24-.4-.65a2.64,2.64,0,0,0-.7-1.2c0-.05,0-.13.09-.12,1.26.2,1.9.63,1.9,1.28a.73.73,0,0,1-.49.69h2.26a10.85,10.85,0,0,0,.59-1.21,7.37,7.37,0,0,0,.28-.88c1.13.43,1.59.66,1.59.82s-.1.21-.61.24a8.71,8.71,0,0,1-1.38,1h2.33c.66-.73.83-.85.92-.85s.28.12.9.59c.27.23.38.34.38.44s0,.14-.18.14h-5V257h2.18c.6-.67.77-.78.87-.78s.28.11.81.54c.24.2.35.33.35.42s0,.14-.18.14h-4v1.31H43c.71-.8.88-.91,1-.91s.27.11.91.63c.28.22.39.36.39.46s0,.14-.18.14ZM37,251.2a4.85,4.85,0,0,0-.07-1c1.58.15,1.74.26,1.74.43s-.12.2-.45.35v2h1.16V251.2a4.85,4.85,0,0,0-.07-1c1.6.17,1.75.26,1.75.43s-.1.2-.46.35v2h.57a12.81,12.81,0,0,0,.79-1.57,5.72,5.72,0,0,0,.31-.94c1.23.52,1.66.75,1.66.91s-.09.26-.64.27A8.8,8.8,0,0,1,41.62,253h1.64c.63-.7.8-.81.89-.81s.28.11.87.56c.27.22.38.34.38.43s0,.14-.18.14H34a7.18,7.18,0,0,0-1,.09l-.15-.52a6.31,6.31,0,0,0,1.14.11H37Zm-1.5,1.5c-.32,0-.45-.13-.59-.55a2.89,2.89,0,0,0-.75-1.37c-.06,0,0-.14.07-.13,1.31.23,2,.69,2,1.35A.73.73,0,0,1,35.51,252.7Z" transform="translate(5.14)"/><path class="cls-4" d="M53,261.72A12.6,12.6,0,0,1,48.39,263c-.07,0-.11-.14,0-.16a15.44,15.44,0,0,0,2.79-1.41,3.73,3.73,0,0,0,1-.88c1.26.6,1.64.83,1.64,1S53.57,261.75,53,261.72Zm-1.76-1.5c0,.39-.24.58-.78.58s-.62-.14-.62-.47c0-.56.07-1.3.07-3.57,0-.88,0-1.9-.07-2.8a12.74,12.74,0,0,1,1.54.74h6.32c.49-.51.6-.6.71-.6s.27.09.81.48c.26.19.34.29.34.4s-.1.23-.42.44v.88c0,2,.06,3.42.06,3.87s-.24.56-.79.56-.59-.13-.59-.49v-.05H51.22Zm.66-6.71c0,.39-.27.52-.76.52-.32,0-.57-.08-.57-.39s0-.88,0-1.72c0-.62,0-.86,0-1.48a15.17,15.17,0,0,1,1.51.72h5c.51-.55.62-.63.73-.63s.26.08.79.5c.24.2.32.3.32.41s-.07.18-.41.38v.26c0,.68,0,1.19,0,1.39,0,.38-.27.53-.79.53s-.59-.14-.59-.49ZM57.8,255H51.22v1.38H57.8Zm-6.58,3.09H57.8v-1.39H51.22Zm0,1.76H57.8v-1.44H51.22Zm6-8.39H51.88v1.71h5.29Zm2.12,11.57c-.28,0-.42-.08-.77-.43a6.93,6.93,0,0,0-3-1.74c-.07,0,0-.15.05-.15,3.11.12,4.35.63,4.35,1.59A.66.66,0,0,1,59.29,263.05Z" transform="translate(5.14)"/><path class="cls-4" d="M73.61,256.36c.81-1,1-1.13,1.08-1.13s.28.12,1.09.78c.38.3.49.43.49.53s0,.14-.18.14h-11c-.41,0-.82,0-1.36.08l-.16-.52a9.46,9.46,0,0,0,1.49.12Z" transform="translate(5.14)"/><path class="cls-4" d="M79,262.84c-.07,0-.16-.11-.1-.15,3.82-2.72,5.29-5.7,5.29-10.83a8.52,8.52,0,0,0-.07-1.18c1.84.17,2,.21,2,.48s-.07.19-.49.39c0,.44,0,.86,0,1.29a10.89,10.89,0,0,0,1.61,4.81,9.24,9.24,0,0,0,4.56,3.66c.07,0,.07.16,0,.17-.49.14-.72.41-.92,1-.08.24-.14.3-.27.3a1.89,1.89,0,0,1-.72-.41,11.26,11.26,0,0,1-3.48-4.51,14.25,14.25,0,0,1-.87-3.76C85.05,258.57,83.18,261,79,262.84Z" transform="translate(5.14)"/><path class="cls-4" d="M104.09,256.08c.5-.55.61-.63.73-.63s.26.08.79.5c.24.18.33.28.33.39s0,.14-.42.41v.94c0,2.49,0,4.17,0,4.73,0,.38-.26.58-.84.58-.36,0-.53-.15-.53-.47v-.38H96.31a5,5,0,0,0-.94.1l-.15-.52a5.39,5.39,0,0,0,1.07.1h7.91v-2.7H96.87a5,5,0,0,0-.94.1l-.15-.52a6.26,6.26,0,0,0,1.07.1h7.35V256.4H96.59a4.72,4.72,0,0,0-1,.12L95.4,256a5.6,5.6,0,0,0,1.14.12h3.25v-4.4c0-.45,0-.87-.07-1.29,1.72.15,1.89.29,1.89.43s-.16.25-.48.37v4.89Zm-6.45-1c-.42,0-.57-.19-.71-.87a5.89,5.89,0,0,0-1.18-2.62c0-.05,0-.15.1-.12,1.7.68,2.55,1.73,2.55,2.66C98.4,254.7,98.11,255.08,97.64,255.08Zm7.71-2.55a12.53,12.53,0,0,1-2.79,3c-.06,0-.21-.07-.17-.12a16.85,16.85,0,0,0,1.42-2.93,9.62,9.62,0,0,0,.38-1.25c1.3.53,1.69.74,1.69.94S105.85,252.42,105.35,252.53Z" transform="translate(5.14)"/><path class="cls-4" d="M116,252.92a1.19,1.19,0,0,1,.63.13.46.46,0,0,1,.31.42c0,.21-.14.39-.44.5a23.77,23.77,0,0,1-2.32.72c-.23.59-.67,1.85-1,2.69s-.83,2.17-1.57,4.06c-.21.53-.46.71-.81.71a.63.63,0,0,1-.41-.21.61.61,0,0,1-.15-.5,2.52,2.52,0,0,1,.37-1,49.15,49.15,0,0,0,2.5-5.59,8.89,8.89,0,0,1-1.53.2,1.51,1.51,0,0,1-1.34-.55,1.3,1.3,0,0,1-.38-.73c0-.08,0-.12.07-.12s.14.05.24.12a1.68,1.68,0,0,0,1.14.37,9.15,9.15,0,0,0,2.15-.34,9.1,9.1,0,0,0,.43-1.83.49.49,0,0,0-.29-.49,2.89,2.89,0,0,0-.52-.17c-.1,0-.15-.06-.15-.11s0-.16.19-.24a1.36,1.36,0,0,1,.66-.17,2.62,2.62,0,0,1,1.44.56.51.51,0,0,1,.21.39.68.68,0,0,1-.19.42c-.26.25-.35.52-.68,1.37a3.15,3.15,0,0,0,.86-.4A1.17,1.17,0,0,1,116,252.92Zm-.27,5.85a2.82,2.82,0,0,0-.12.85c0,.76.66,1.33,2.13,1.33a5.62,5.62,0,0,0,1.41-.11,2.07,2.07,0,0,1,.73-.1,1.69,1.69,0,0,1,.7.18.65.65,0,0,1,.35.59c0,.36-.34.53-.76.6a10.84,10.84,0,0,1-1.54.07,6.78,6.78,0,0,1-1.86-.24,2.07,2.07,0,0,1-1.68-2,2.55,2.55,0,0,1,.39-1.36c.07-.13.18-.24.25-.24s.09,0,.09.11A1.62,1.62,0,0,1,115.73,258.77Zm1.49-3a4.66,4.66,0,0,0-1.6.54.17.17,0,0,1-.12,0c-.09,0-.13,0-.13-.12s0-.11.1-.18a4.77,4.77,0,0,1,1.29-.86,4.86,4.86,0,0,1,1.78-.33,4,4,0,0,1,1.55.3.73.73,0,0,1,.48.69.45.45,0,0,1-.49.42,2.51,2.51,0,0,1-.55-.07,3,3,0,0,0-.52,0,4.78,4.78,0,0,0-2,.8.37.37,0,0,1-.21.07c-.07,0-.06-.06-.06-.1a15.05,15.05,0,0,1,1.34-1.18A3.37,3.37,0,0,0,117.22,255.8Z" transform="translate(5.14)"/><path class="cls-4" d="M127.23,254.44a6.23,6.23,0,0,1,.77-1.56,1.46,1.46,0,0,1,1.19-.64,1.85,1.85,0,0,1,1.57,1,5.89,5.89,0,0,1,.68,2.9,6.23,6.23,0,0,1-1,3.73,5.44,5.44,0,0,1-1.82,1.73,8.44,8.44,0,0,1-2.41,1,1.42,1.42,0,0,1-.41.08c-.11,0-.18,0-.18-.14s.08-.12.25-.19a6.6,6.6,0,0,0,3.32-2.55,6.42,6.42,0,0,0,.88-3.82,7.57,7.57,0,0,0-.28-2.33c-.21-.6-.5-.81-.87-.81-.65,0-1.15.53-1.82,3.38a7.26,7.26,0,0,0-.26,1.5,7.57,7.57,0,0,0,.07.94c0,.37-.14.51-.49.51s-.75-.45-.91-1a5.81,5.81,0,0,1-.2-1.88,18.46,18.46,0,0,1,.34-3.05,7,7,0,0,0,.11-1.2,1.23,1.23,0,0,0-.37-.86c-.05-.07-.11-.11-.11-.18s.13-.17.31-.17a.8.8,0,0,1,.41.17A2.7,2.7,0,0,1,127,252a1.41,1.41,0,0,1,.17.6.58.58,0,0,1-.18.45,1.38,1.38,0,0,0-.24.42,7.59,7.59,0,0,0-.51,2.44,3.38,3.38,0,0,0,0,.81c0,.11.14.1.18,0C126.78,255.6,127,255.05,127.23,254.44Z" transform="translate(5.14)"/><path class="cls-4" d="M141.63,254a5.72,5.72,0,0,1-.3,1.49,10.27,10.27,0,0,1-.89,2,10.93,10.93,0,0,1-1.55,2.34,1.53,1.53,0,0,1-1.16.58,1.43,1.43,0,0,1-1.07-.55,3.5,3.5,0,0,1-.77-2.55,4.37,4.37,0,0,1,.6-2.13,5.4,5.4,0,0,1,1.89-2,6.28,6.28,0,0,1,3.39-.91,5.4,5.4,0,0,1,3.48,1.09,4.31,4.31,0,0,1,1.64,3.56,3.82,3.82,0,0,1-1.29,2.89,6.14,6.14,0,0,1-2.08,1.24,9.7,9.7,0,0,1-2.87.54c-.21,0-.3,0-.3-.14s.08-.14.26-.19a6.93,6.93,0,0,0,3.6-1.83,4.16,4.16,0,0,0,1.26-3.25,3,3,0,0,0-1.23-2.63,4.42,4.42,0,0,0-2.24-.76,8.73,8.73,0,0,0-.88,0A2,2,0,0,1,141.63,254Zm-3.4.06a4.29,4.29,0,0,0-1.19,1.72,3.63,3.63,0,0,0-.24,1.33,2.87,2.87,0,0,0,.35,1.52.94.94,0,0,0,.62.46c.22,0,.43-.14,1-.9a16.78,16.78,0,0,0,1.88-3.43,3.22,3.22,0,0,0,.3-1.19.69.69,0,0,0-.26-.63A4.67,4.67,0,0,0,138.23,254.06Z" transform="translate(5.14)"/><path class="cls-4" d="M22.48,277.69c-.07,3.2-1.39,4.66-5.11,5.33-.07,0-.13-.18-.06-.21,2.9-1.12,3.78-2.36,3.78-5.33,0-.16,0-.31,0-.61,1.51.14,1.86.23,1.86.48S22.83,277.57,22.48,277.69Zm5.39-1.7c.53-.64.65-.73.76-.73s.24.09.91.73c.29.28.38.39.38.51s-.09.33-.63.33a.51.51,0,0,0-.4.14,8,8,0,0,1-1.33.88s-.16,0-.14-.09a5.94,5.94,0,0,0,.59-1.45H19.23c0,1.08-.49,1.88-1.33,1.88a.6.6,0,0,1-.62-.62c0-.3.14-.51.53-.74a1.83,1.83,0,0,0,1.1-1.69c0-.07.14-.09.15,0a4,4,0,0,1,.15.87Zm-3.74-1.78H26.6c.66-.77.82-.88.92-.88s.28.11.9.62c.26.22.38.35.38.45s-.05.13-.19.13H19.85a6,6,0,0,0-1,.09l-.15-.52a4.77,4.77,0,0,0,1.06.11h3v-1.66H18.61a6.32,6.32,0,0,0-1,.08l-.16-.52a5.16,5.16,0,0,0,1.1.11h4.23v-.58a10.66,10.66,0,0,0-.09-1.38c1.75.16,1.92.31,1.92.47s-.15.23-.49.34v1.15h3.46c.67-.79.84-.91.94-.91s.28.12.95.63c.31.26.42.37.42.47s0,.14-.18.14H24.13ZM25.5,281c0,.4.13.51,1.29.51a4.15,4.15,0,0,0,1.38-.13c.42-.12.65-.66,1.07-2,0-.07.17-.07.17,0,0,.5,0,1.12,0,1.51,0,.18,0,.22.11.27.38.18.48.36.48.6s-.18.6-.66.76a10.64,10.64,0,0,1-2.66.22c-2,0-2.47-.2-2.47-1.25v-2.29c0-.76,0-1.53,0-2.3,1.79.25,1.79.25,1.79.46s-.09.22-.42.35Z" transform="translate(5.14)"/><path class="cls-4" d="M39.29,281.89H42.7c.81-1,1-1.14,1.08-1.14s.28.12,1.1.79c.38.31.49.43.49.53s0,.14-.18.14H34.39a9.13,9.13,0,0,0-1.34.09l-.16-.52a10.67,10.67,0,0,0,1.49.11h3.47v-9.32a19.42,19.42,0,0,0-.08-2c1.85.15,2,.31,2,.46s-.16.28-.49.39v4.22h2.29c.75-1,.92-1.11,1-1.11s.28.12,1.06.77c.35.3.47.42.47.52s-.05.14-.19.14H39.29Z" transform="translate(5.14)"/><path class="cls-4" d="M53.71,271a4.44,4.44,0,0,0-.07-.82c1.75.15,1.92.3,1.92.46s-.18.26-.49.39v.84h3.42c.77-.84.94-.95,1-.95s.26.11.92.66c.29.25.41.38.41.47s0,.14-.19.14H49.44a6.35,6.35,0,0,0-1,.09l-.15-.52a6,6,0,0,0,1.12.11h4.28Zm4.88,6c.47-.52.59-.6.7-.6s.25.08.78.5c.24.21.32.31.32.42s-.11.27-.44.44v.68c0,2.25,0,2.79,0,3.45a1,1,0,0,1-.53,1,1.76,1.76,0,0,1-.9.24c-.18,0-.25,0-.32-.39s-.27-.62-1.24-.94c-.07,0-.07-.17,0-.17.65.06,1,.09,1.5.09.14,0,.19,0,.19-.19v-4.23h-8.4v5.2c0,.44-.22.6-.78.6S49,283,49,282.56c0-.77,0-1.54,0-4.65,0-.55,0-1.09,0-1.64a7.66,7.66,0,0,1,1.44.7Zm-6.46-1.2v.11c0,.36-.25.52-.76.52s-.53-.13-.53-.49,0-.7,0-2.1c0-.38,0-.76,0-1.14a11.9,11.9,0,0,1,1.39.67h4.4c.43-.53.54-.61.65-.61s.27.08.78.47c.23.19.32.28.32.4s-.1.22-.38.37v.3c0,.78,0,1.33,0,1.5,0,.43-.21.6-.77.6-.4,0-.54-.13-.54-.49v-.11Zm.84,5.07v.33c0,.4-.2.54-.74.54-.39,0-.51-.12-.51-.47s0-.63,0-1.91c0-.47,0-.94,0-1.42.63.27.72.31,1.37.62h2.7c.42-.45.53-.54.65-.54s.25.09.74.49c.21.19.29.29.29.4s-.07.22-.36.42v.26c0,.72,0,1.21,0,1.36,0,.37-.21.52-.71.52s-.55-.1-.55-.41v-.19Zm3.75-7.17H52.13v1.78h4.59Zm-.85,5.18H53v1.67h2.9Z" transform="translate(5.14)"/><line class="cls-6" x1="131.07" y1="383.49" x2="116.08" y2="398.48"/><polygon class="cls-4" points="301.47 378.87 301.47 378.87 301.46 378.87 301.47 378.87"/><polygon class="cls-4" points="302.88 377.61 302.88 377.61 302.87 377.61 302.88 377.61"/><polygon class="cls-4" points="270.28 344.69 270.29 344.7 270.29 344.69 270.29 344.69 270.28 344.69"/><polygon class="cls-4" points="280.86 341.6 280.83 341.6 280.83 341.6 280.84 341.6 280.86 341.6"/><path class="cls-4" d="M310.32,317.34a17.9,17.9,0,0,0-2.2-2.63,11,11,0,0,1-.77-.92,1.61,1.61,0,0,1-.26-.5,1.22,1.22,0,0,1,0-.35,10.78,10.78,0,0,1,.35-2.08,13.8,13.8,0,0,0,.46-3,5,5,0,0,0-.63-2.55,4.91,4.91,0,0,0-1-1.21,7.26,7.26,0,0,0-2-1.16c-1-.39-1.94-.63-2.68-.88a7.11,7.11,0,0,1-.9-.37,1.47,1.47,0,0,1-.4-.26h0a2.47,2.47,0,0,1-.45-.82c-.29-.7-.54-1.76-.95-2.87A8.3,8.3,0,0,0,298,296a4.73,4.73,0,0,0-1.64-1.59,5,5,0,0,0-2.55-.64,14.42,14.42,0,0,0-3,.46,9.94,9.94,0,0,1-2.08.35,2,2,0,0,1-.35,0,2.85,2.85,0,0,1-.76-.48c-.6-.46-1.35-1.25-2.27-2a8.68,8.68,0,0,0-1.61-1.08,5,5,0,0,0-2.23-.55,5.34,5.34,0,0,0-2.83.89,19.71,19.71,0,0,0-2.62,2.2,9.55,9.55,0,0,1-.93.77,1.94,1.94,0,0,1-.49.27,2,2,0,0,1-.35,0,10,10,0,0,1-2.08-.35,14.42,14.42,0,0,0-3-.46,5.13,5.13,0,0,0-2.55.63l0,0h0a4.52,4.52,0,0,0-1.21,1,6.76,6.76,0,0,0-1.16,2c-.39,1-.63,1.93-.88,2.67a6.53,6.53,0,0,1-.37.9,1.31,1.31,0,0,1-.26.4,2.29,2.29,0,0,1-.82.45c-.7.29-1.76.54-2.87,1a8.83,8.83,0,0,0-1.73.84,4.91,4.91,0,0,0-1.59,1.64,5,5,0,0,0-.64,2.55,14.42,14.42,0,0,0,.46,3,10,10,0,0,1,.35,2.08,1.91,1.91,0,0,1,0,.35h0a2.45,2.45,0,0,1-.48.77c-.47.6-1.25,1.34-2,2.26a8.68,8.68,0,0,0-1.08,1.61,5,5,0,0,0-.55,2.23,5.25,5.25,0,0,0,.89,2.83,19.86,19.86,0,0,0,2.2,2.63,11,11,0,0,1,.77.92,2.1,2.1,0,0,1,.27.5v0a2,2,0,0,1,0,.35,9.94,9.94,0,0,1-.35,2.08,14.52,14.52,0,0,0-.46,3,5,5,0,0,0,.64,2.55,4.73,4.73,0,0,0,1,1.22,7.22,7.22,0,0,0,2,1.16c1,.39,1.93.62,2.67.88a6.67,6.67,0,0,1,.9.36,1.31,1.31,0,0,1,.4.26,2.29,2.29,0,0,1,.41.71c.17.41.34,1,.53,1.57h0c.16.52.34,1.09.57,1.68a7,7,0,0,0,1,1.8,5,5,0,0,0,.67.72L259.06,360l9.36-.28,5.84,7.32,6.64-14.33,6.63,14.33,5.84-7.32,9.36.28-6.49-14,.09,0a5,5,0,0,0,1.41-1.26,7.73,7.73,0,0,0,1-2c.36-1,.59-1.86.84-2.56a6.54,6.54,0,0,1,.35-.86,1.69,1.69,0,0,1,.25-.38,3,3,0,0,1,.82-.45c.71-.28,1.76-.54,2.87-.94a8.57,8.57,0,0,0,1.73-.84,4.72,4.72,0,0,0,2.23-4.2,13.71,13.71,0,0,0-.46-3,10.85,10.85,0,0,1-.35-2.09,1.22,1.22,0,0,1,0-.35,2.44,2.44,0,0,1,.47-.76c.47-.6,1.26-1.35,2-2.27a8.44,8.44,0,0,0,1.08-1.6,5.07,5.07,0,0,0,.55-2.24A5.19,5.19,0,0,0,310.32,317.34Zm-3.69,3.33a16.59,16.59,0,0,1-1.73,2,13.49,13.49,0,0,0-1.12,1.37,5.4,5.4,0,0,0-1.09,3.34,13.9,13.9,0,0,0,.46,3.06,11.77,11.77,0,0,1,.35,2.06,1.44,1.44,0,0,1,0,.3l0,.07-.08.08a3,3,0,0,1-.79.42c-.63.25-1.51.49-2.46.8a12,12,0,0,0-1.49.61,6,6,0,0,0-1.5,1.07,6.24,6.24,0,0,0-1.28,1.95,26.65,26.65,0,0,0-.91,2.68,6.29,6.29,0,0,1-.67,1.57h0l-.08.1,0,0h0l-.07,0a1.05,1.05,0,0,1-.3,0,10,10,0,0,1-2.06-.35,13.9,13.9,0,0,0-3.06-.46,6,6,0,0,0-1.47.18l-.05,0-.13,0h0a7.57,7.57,0,0,0-2.73,1.68c-.71.63-1.32,1.25-1.84,1.66h0a4.16,4.16,0,0,1-.73.49.45.45,0,0,1-.54,0,3.81,3.81,0,0,1-.72-.49c-.53-.42-1.16-1.06-1.89-1.7a7.34,7.34,0,0,0-2.86-1.69,5.67,5.67,0,0,0-1.48-.19,13.8,13.8,0,0,0-3.05.46,10.18,10.18,0,0,1-2.07.35,1.05,1.05,0,0,1-.3,0l-.07,0h0l-.11-.11h0a3.17,3.17,0,0,1-.39-.76c-.15-.37-.3-.84-.45-1.35h0c-.19-.6-.39-1.27-.68-2a6.33,6.33,0,0,0-1.34-2.11,6.61,6.61,0,0,0-2.3-1.42c-1.12-.44-2.2-.69-3-1a4.72,4.72,0,0,1-.85-.39,1.39,1.39,0,0,1-.21-.18h0l0-.07a1.8,1.8,0,0,1,0-.3,10.11,10.11,0,0,1,.35-2.06,13.93,13.93,0,0,0,.45-3.06,5.52,5.52,0,0,0-.18-1.47h0a6.4,6.4,0,0,0-1.28-2.36c-.75-.94-1.55-1.69-2.07-2.32a4.29,4.29,0,0,1-.53-.78.78.78,0,0,1-.1-.29,1.12,1.12,0,0,1,.22-.5,17.34,17.34,0,0,1,1.73-2,13.49,13.49,0,0,0,1.12-1.37,5.77,5.77,0,0,0,.91-1.86h0a5.59,5.59,0,0,0,.18-1.48,13.84,13.84,0,0,0-.45-3.05,10.08,10.08,0,0,1-.35-2.07,1.65,1.65,0,0,1,0-.29l0-.07h0l.08-.09a3.12,3.12,0,0,1,.8-.42c.62-.25,1.51-.48,2.46-.8a10.55,10.55,0,0,0,1.48-.61,6,6,0,0,0,1.51-1.06,6.72,6.72,0,0,0,1.41-2.3c.44-1.12.7-2.2,1-3a4,4,0,0,1,.4-.85,1.15,1.15,0,0,1,.17-.21l.07,0,.3,0a10.75,10.75,0,0,1,2.07.34,13.24,13.24,0,0,0,3.05.46,5.64,5.64,0,0,0,1.48-.18,6.48,6.48,0,0,0,2.36-1.28c.93-.75,1.68-1.55,2.32-2.06a4,4,0,0,1,.77-.54.84.84,0,0,1,.29-.1,1.13,1.13,0,0,1,.51.22,16.59,16.59,0,0,1,2,1.73,13.49,13.49,0,0,0,1.37,1.12,5.93,5.93,0,0,0,1.87.91,5.52,5.52,0,0,0,1.47.18,13.33,13.33,0,0,0,3.06-.46,10.67,10.67,0,0,1,2.06-.34l.3,0,.07,0,.08.08a3.12,3.12,0,0,1,.42.8c.25.62.48,1.51.8,2.46a11.9,11.9,0,0,0,.61,1.48,5.83,5.83,0,0,0,1.07,1.51l0,0,0,0a6.79,6.79,0,0,0,2.29,1.42c1.13.44,2.2.69,3,1a4,4,0,0,1,.85.4c.17.11.21.17.21.18l0,.06a1.63,1.63,0,0,1,0,.3,11.7,11.7,0,0,1-.35,2.07,13.8,13.8,0,0,0-.46,3.05,6.1,6.1,0,0,0,.18,1.48,6.79,6.79,0,0,0,1.28,2.36c.75.93,1.55,1.68,2.07,2.32a4,4,0,0,1,.53.77.63.63,0,0,1,.1.29A1.09,1.09,0,0,1,306.63,320.67Z" transform="translate(5.14)"/><path class="cls-4" d="M281.44,302a18.14,18.14,0,0,0-1.06,36.25h0q.53,0,1.05,0a18.14,18.14,0,0,0,0-36.28ZM292,330.67A14.77,14.77,0,0,1,281.44,335c-.29,0-.58,0-.85,0h0A14.88,14.88,0,1,1,292,330.67Z" transform="translate(5.14)"/><path class="cls-4" d="M106.25,305.79a3.69,3.69,0,1,0-3.69,3.69A3.69,3.69,0,0,0,106.25,305.79Z" transform="translate(5.14)"/><path class="cls-4" d="M94.3,314.25v12.38a1.62,1.62,0,0,0,3.23,0V316.45h.75v27.63a2.12,2.12,0,1,0,4.24,0V328h.69v16a2.13,2.13,0,0,0,4.25,0V316.45h.74v10.18a1.62,1.62,0,0,0,3.23,0V314.25a4.14,4.14,0,0,0-3.72-3.73H98A4.14,4.14,0,0,0,94.3,314.25Z" transform="translate(5.14)"/><path class="cls-4" d="M138.32,332.49a18.28,18.28,0,0,1-2.48.68,7.85,7.85,0,0,1-1.19.1l0-.13c.26-.88.48-1.78.64-2.53s.26-1.32.3-1.52a7,7,0,0,1,.34-1.36,1,1,0,0,1,.67-.59,5.76,5.76,0,0,0,3.42-2.52,7.9,7.9,0,0,0,1.2-4.91c-.08-1.18-.34-1.69-.68-1.79s-.79.22-1.33.66A17.66,17.66,0,0,1,137.3,320a6.07,6.07,0,0,1-1,.51c-.08-.81-.19-1.62-.29-2.29s-.23-1.25-.26-1.45c-.21-1.15-.29-1.66.24-2.06a5.51,5.51,0,0,0,2.19-3.38,7.59,7.59,0,0,0-.57-4.76c-.46-1-.86-1.37-1.2-1.34s-.63.44-1,1a15.7,15.7,0,0,1-1.25,2,6.05,6.05,0,0,1-.73.79c-.3-.61-.61-1.2-.88-1.69s-.6-1-.69-1.21c-.56-1-.79-1.39-.45-1.92a5.25,5.25,0,0,0,.92-3.71,7.25,7.25,0,0,0-2-4.07c-.72-.75-1.18-1-1.48-.84s-.43.6-.56,1.21a16.65,16.65,0,0,1-.54,2.13,5.85,5.85,0,0,1-.41.92c-.33-.33-.65-.64-.94-.91l-1-.94c-.82-.75-1.18-1.08-1-1.69a5.21,5.21,0,0,0-.27-3.8,7.15,7.15,0,0,0-3.11-3.28c-.92-.5-1.42-.56-1.66-.35s-.24.7-.17,1.33a18.09,18.09,0,0,1,.14,2.08,5.51,5.51,0,0,0-1.93-1.38,7.4,7.4,0,0,0-3.38-.6c-1.15.09-2.1.52-2.33,1.32a2.67,2.67,0,0,0,1,2.38,9.09,9.09,0,0,0,2.43,1.74,5.86,5.86,0,0,0,2,.59l-.1.07c-.61.46-1.23.85-1.71,1.21s-.8.68-.86,1,.17.59.81.94a6.08,6.08,0,0,0,3.24.72,7.22,7.22,0,0,0,3.37-1c.54-.29.93,0,1.68.66.13.12.47.46.9.92l.79.89a7.53,7.53,0,0,1-.89.36c-.72.26-1.43.44-2,.63s-1,.39-1.12.67,0,.62.48,1.14a6,6,0,0,0,2.87,1.68,7.21,7.21,0,0,0,3.52.07c.6-.12.89.24,1.39,1.14.09.15.31.58.57,1.15s.47,1,.69,1.62a7.94,7.94,0,0,1-1.08.07c-.81,0-1.58-.05-2.2,0a2.16,2.16,0,0,0-1.34.29c-.24.23-.23.61.08,1.29a6.36,6.36,0,0,0,2.27,2.61,7.82,7.82,0,0,0,3.46,1.28c.64.1.8.55,1,1.61,0,.18.1.69.16,1.35s.1,1.36.11,2.1a11.14,11.14,0,0,1-1.07-.32c-.8-.29-1.54-.63-2.16-.85a2.26,2.26,0,0,0-1.43-.2c-.31.14-.45.51-.39,1.29a6.62,6.62,0,0,0,1.27,3.39,8.25,8.25,0,0,0,2.93,2.54.86.86,0,0,1,.48.69,3.87,3.87,0,0,1-.12,1.26c0,.19-.16.71-.36,1.38s-.46,1.47-.75,2.24l-.05.11a11,11,0,0,1-.9-.73c-.67-.59-1.26-1.21-1.78-1.66a2.44,2.44,0,0,0-1.32-.75c-.36,0-.63.32-.88,1.08a6.92,6.92,0,0,0-.09,3.75,8.81,8.81,0,0,0,1.82,3.64c.44.57.22,1.06-.45,2-.11.17-.44.62-.9,1.18s-1,1.24-1.66,1.86l-.29.29c-.21-.35-.39-.71-.56-1.07-.39-.86-.7-1.7-1-2.35a2.51,2.51,0,0,0-1-1.28c-.35-.14-.74,0-1.29.66a7.18,7.18,0,0,0-1.67,3.55,9.28,9.28,0,0,0,.2,4.27c.17.73-.25,1.1-1.31,1.75-.18.11-.7.4-1.38.74s-1.55.71-2.39,1-2,.83-2.62,1c-8,2.82-17.68,4-23.65,8.43-.93.68.92,3.32,1.74,3.11a118.71,118.71,0,0,1,21.39-7.75c.62-.21,3.61-1.19,4.52-1.62s1.83-.93,2.56-1.36,1.27-.78,1.48-.9a7.41,7.41,0,0,1,1.36-.74,1.09,1.09,0,0,1,1,.09,5.94,5.94,0,0,0,2.16.86,7,7,0,0,0,2.49,0,8.53,8.53,0,0,0,2.59-1,9.58,9.58,0,0,0,2.34-1.92c.88-1,1.09-1.6.9-1.95s-.78-.45-1.56-.54a18.24,18.24,0,0,1-2.68-.39,7,7,0,0,1-1.17-.4l.3-.36c.61-.74,1.2-1.53,1.66-2.18s.79-1.18.92-1.36c.73-1.08,1-1.56,1.78-1.48a6,6,0,0,0,4.35-1.07,7.86,7.86,0,0,0,1.86-1.83,8.81,8.81,0,0,0,1.29-2.54c.38-1.2.33-1.8,0-2S139,332.27,138.32,332.49Z" transform="translate(5.14)"/><path class="cls-4" d="M94,355.06c1.85-.71,3.8-1.32,5.78-1.88-2.12-.58-4.23-1.18-6.23-1.89-.62-.21-1.77-.71-2.62-1s-1.71-.7-2.39-1-1.2-.63-1.38-.74c-1.07-.65-1.49-1-1.31-1.75a9.42,9.42,0,0,0,.19-4.27,7.25,7.25,0,0,0-1.66-3.55c-.56-.63-.95-.8-1.3-.66a2.51,2.51,0,0,0-1,1.28c-.31.65-.61,1.49-1,2.35a9.94,9.94,0,0,1-.56,1.07l-.29-.29c-.6-.62-1.19-1.29-1.65-1.86s-.8-1-.91-1.18c-.67-1-.89-1.47-.45-2a8.83,8.83,0,0,0,1.83-3.64,6.92,6.92,0,0,0-.1-3.75c-.24-.76-.51-1.07-.88-1.08a2.44,2.44,0,0,0-1.32.75c-.51.45-1.1,1.07-1.77,1.66-.29.25-.59.5-.91.73,0,0,0-.07,0-.11-.3-.77-.56-1.58-.76-2.24s-.31-1.19-.35-1.38a4.25,4.25,0,0,1-.13-1.26.88.88,0,0,1,.48-.69A8.37,8.37,0,0,0,76.21,324a6.69,6.69,0,0,0,1.26-3.39c.06-.78-.07-1.15-.39-1.29a2.27,2.27,0,0,0-1.43.2c-.61.22-1.35.56-2.15.85-.35.12-.7.23-1.07.32,0-.74,0-1.49.1-2.1s.13-1.17.16-1.35c.18-1.06.34-1.51,1-1.61a7.86,7.86,0,0,0,3.47-1.28,6.34,6.34,0,0,0,2.26-2.61c.32-.68.32-1.06.09-1.29a2.18,2.18,0,0,0-1.34-.29c-.63,0-1.39.05-2.2,0a8.08,8.08,0,0,1-1.09-.07c.23-.58.47-1.15.69-1.62s.49-1,.57-1.15c.51-.9.79-1.26,1.4-1.14a7.21,7.21,0,0,0,3.52-.07,6.12,6.12,0,0,0,2.87-1.68c.49-.52.62-.86.48-1.14a2,2,0,0,0-1.12-.67c-.56-.19-1.27-.37-2-.63a7.39,7.39,0,0,1-.88-.36c.27-.32.54-.62.79-.89.42-.46.77-.8.89-.92.76-.69,1.14-.95,1.68-.66a7.22,7.22,0,0,0,3.37,1,6.09,6.09,0,0,0,3.25-.72c.63-.35.85-.63.8-.94s-.38-.62-.86-1-1.09-.75-1.71-1.21l-.09-.07a6,6,0,0,0,2-.59A9.06,9.06,0,0,0,93,294a2.65,2.65,0,0,0,1-2.38c-.22-.8-1.17-1.23-2.33-1.32a7.35,7.35,0,0,0-3.37.6,5.65,5.65,0,0,0-1.94,1.38,18,18,0,0,1,.15-2.08c.06-.63.07-1.12-.17-1.33s-.75-.15-1.67.35a7.2,7.2,0,0,0-3.11,3.28,5.26,5.26,0,0,0-.26,3.8c.16.61-.19.94-1,1.69l-1,.94-.93.91a5.89,5.89,0,0,1-.42-.92,16.5,16.5,0,0,1-.53-2.13c-.14-.61-.27-1.08-.57-1.21s-.76.09-1.48.84a7.16,7.16,0,0,0-1.95,4.07,5.24,5.24,0,0,0,.91,3.71c.35.53.11.95-.44,1.92-.09.17-.37.62-.7,1.21s-.58,1.08-.87,1.69a6.13,6.13,0,0,1-.74-.79,15.7,15.7,0,0,1-1.25-2c-.34-.57-.63-1-1-1s-.73.33-1.2,1.34a7.59,7.59,0,0,0-.56,4.76,5.47,5.47,0,0,0,2.19,3.38c.53.4.44.91.24,2.06,0,.2-.15.74-.26,1.45s-.22,1.48-.3,2.29a6.37,6.37,0,0,1-1-.51,16.76,16.76,0,0,1-2-1.46c-.55-.44-1-.75-1.34-.66s-.59.61-.68,1.79a7.91,7.91,0,0,0,1.21,4.91,5.73,5.73,0,0,0,3.42,2.52,1,1,0,0,1,.67.59,7.77,7.77,0,0,1,.34,1.36c0,.2.14.78.3,1.52s.37,1.65.63,2.53l0,.13a7.72,7.72,0,0,1-1.18-.1,17.89,17.89,0,0,1-2.48-.68c-.71-.22-1.26-.35-1.56-.12s-.35.83,0,2a9.06,9.06,0,0,0,1.29,2.54,7.89,7.89,0,0,0,1.87,1.83,6,6,0,0,0,4.35,1.07c.73-.08,1,.4,1.78,1.48.12.18.46.7.92,1.36s1.05,1.44,1.66,2.18l.29.36a6.73,6.73,0,0,1-1.17.4,18.05,18.05,0,0,1-2.68.39c-.77.09-1.36.19-1.55.54s0,.95.9,1.95a9.58,9.58,0,0,0,2.34,1.92,8.57,8.57,0,0,0,2.58,1,7,7,0,0,0,2.5,0,5.89,5.89,0,0,0,2.15-.86,1.09,1.09,0,0,1,1-.09,7.77,7.77,0,0,1,1.37.74c.2.12.75.47,1.48.9s1.64.92,2.56,1.36S93.24,354.81,94,355.06Z" transform="translate(5.14)"/><path class="cls-4" d="M111.68,356.79c-2.31.63-4.39,1.26-6.27,1.86,6.52,2.35,9.46,4,10,4.18.82.21,2.67-2.43,1.74-3.11A24.49,24.49,0,0,0,111.68,356.79Z" transform="translate(5.14)"/><rect class="cls-4" x="135.13" y="95.56" width="22.42" height="39.63"/><rect class="cls-4" x="166.51" y="78.84" width="22.42" height="56.36"/><rect class="cls-4" x="103.75" y="111.56" width="22.42" height="23.64"/><path class="cls-4" d="M223.78,57.46,205.35,25.72a1.59,1.59,0,0,0-1.37-.8,1.61,1.61,0,0,0-1.38.8L184.17,57.46a1.61,1.61,0,0,0,0,1.59,1.59,1.59,0,0,0,1.38.79h7.21V135.2h22.43V59.84h7.21a1.59,1.59,0,0,0,1.38-2.38Z" transform="translate(5.14)"/><line class="cls-7" y1="229" x2="335" y2="229"/><line class="cls-7" x1="167.5" y1="229" x2="167.5" y2="419.52"/></g></g></g></svg>