<svg xmlns="http://www.w3.org/2000/svg" xmlns:xlink="http://www.w3.org/1999/xlink" viewBox="0 0 335 366.2"><defs><style>.cls-1,.cls-6,.cls-7,.cls-8{fill:none;}.cls-2{clip-path:url(#clip-path);}.cls-3{fill:#fff;}.cls-4{fill:#333;}.cls-5{fill:#e8314b;}.cls-6,.cls-8{stroke:#fff;}.cls-6,.cls-7{stroke-miterlimit:10;}.cls-6{stroke-width:1.03px;}.cls-7{stroke:#e8314b;stroke-width:1.76px;}.cls-8{stroke-width:4.09px;}</style><clipPath id="clip-path" transform="translate(5)"><rect class="cls-1" width="325" height="361.2"/></clipPath></defs><g id="レイヤー_2" data-name="レイヤー 2"><g id="pc"><g class="cls-2"><rect class="cls-3" x="5" width="325" height="361.2"/><path class="cls-4" d="M274.85,134c0,.41-.32.59-.85.59s-.65-.15-.65-.5c0-1.14.06-2.32.06-6.9,0-1.47,0-2.94-.09-4.43a13.31,13.31,0,0,1,1.65.81h1.37c.53-.63.66-.73.79-.73s.3.1.88.54c.25.19.35.31.35.43s-.08.25-.43.5v1.51c0,4,.08,6.7.08,7.62,0,.41-.31.62-.88.62s-.61-.13-.61-.5V133h-1.67Zm1.67-10.06h-1.67v4h1.67Zm0,4.39h-1.67v4.29h1.67Zm6.58-.88h2.21c.7-.88.89-1,1-1s.32.13,1.06.71c.32.27.45.39.45.51s-.05.16-.21.16h-8.26a5.79,5.79,0,0,0-.94.09l-.18-.59a4.49,4.49,0,0,0,1.07.13h2.28V125h-1.81a5.57,5.57,0,0,0-.92.09l-.17-.59a4.23,4.23,0,0,0,1.05.13h1.85v-1.36c0-.42,0-.84-.08-1.27,1.93.18,2.11.35,2.11.51s-.18.31-.51.44v1.68h1.5c.69-.87.88-1,1-1s.32.13,1.06.69c.34.28.46.4.46.52s0,.16-.2.16H283.1Zm2.16,4.85c0,.59.05,2,.05,2.56s-.07.9-.37,1.2a2.13,2.13,0,0,1-1.54.59.24.24,0,0,1-.26-.21c-.12-.83-.57-1.05-1.84-1.37-.08,0-.08-.19,0-.19.82,0,1.57.06,2.18.06.22,0,.29-.05.29-.26v-4.14h-4.39a5.79,5.79,0,0,0-.94.09l-.18-.59a4.49,4.49,0,0,0,1.07.13h4.44v-.7a9.26,9.26,0,0,0-.08-1.28c1.58.14,2.06.25,2.06.48s-.14.27-.49.44v1.06h.38c.59-.7.79-.83.9-.83s.3.13.86.59c.23.19.35.34.35.45s0,.16-.2.16h-2.29Zm-4,1.76c-.42,0-.58-.27-.77-1a2.63,2.63,0,0,0-.95-1.6c-.06,0,0-.14.1-.12,1.75.35,2.5.92,2.5,1.76C282.17,133.68,281.85,134.06,281.29,134.06Z" transform="translate(5)"/><path class="cls-4" d="M294.05,127.26v8.85c0,.43-.3.62-.91.62-.46,0-.66-.16-.66-.57,0-1.19.1-2.36.1-7.1,0-2.38,0-4.76-.11-7.15a9.88,9.88,0,0,1,1.7.82H297c.55-.63.68-.72.8-.72s.29.09.87.56c.26.2.35.32.35.45s-.11.25-.46.48v.64c0,1.69,0,2.86,0,3.24s-.31.55-.87.55-.57-.13-.57-.47v-.2Zm3.11-4.16h-3.11v1.64h3.11Zm0,2h-3.11v1.78h3.11Zm.46,8.92v.56c0,.45-.24.61-.83.61-.43,0-.62-.15-.62-.5,0-.53,0-1.09,0-3.22,0-1,0-2-.08-3a10.69,10.69,0,0,1,1.64.79h3c.53-.59.66-.69.79-.69s.3.08.84.53c.29.22.39.33.39.46s-.13.24-.45.45v.72c0,1.91,0,3.2,0,3.63s-.24.61-.82.61-.58-.16-.58-.48V134Zm3.36-4.4h-3.36v1.74H301Zm0,2.11h-3.36v1.92H301Zm.55-4.48v.08c0,.41-.27.59-.8.59s-.64-.13-.64-.48c0-.61,0-1.23,0-3.73,0-.59,0-1.2-.06-1.81a13.2,13.2,0,0,1,1.64.82h2.87c.56-.63.7-.72.83-.72s.29.09.88.57c.27.24.37.36.37.48s-.1.28-.43.47v1.92c0,8.91,0,9.33,0,9.76a1.41,1.41,0,0,1-.32,1,1.76,1.76,0,0,1-1.39.47c-.21,0-.27,0-.29-.23-.08-.73-.37-1-1.58-1.29-.08,0-.08-.21,0-.21,1,.06,1.2.08,1.86.08.16,0,.19,0,.19-.23v-7.5Zm3.17-4.16h-3.17v1.64h3.17Zm0,2h-3.17v1.78h3.17Z" transform="translate(5)"/><path class="cls-5" d="M143.68,106.58l-4-10.8A15.18,15.18,0,0,1,144,93.2a28.61,28.61,0,0,1,5.52-1.56,32.66,32.66,0,0,1,5.85-.54,24.69,24.69,0,0,1,8.76,1.47,14.29,14.29,0,0,1,6.15,4.2,10.08,10.08,0,0,1,2.25,6.63,12.15,12.15,0,0,1-1.23,5.4,19.69,19.69,0,0,1-3.21,4.68,35.59,35.59,0,0,1-4.32,4q-2.34,1.83-4.62,3.3l-4.08,2.61h11.4a7.6,7.6,0,0,0,3.27-.69,8.42,8.42,0,0,0,2.7-2.07,14.78,14.78,0,0,0,2.25-3.54h.6l-4.08,16.86H140v-.6q2.58-3.18,5.31-6.36t5.28-6.33a76.68,76.68,0,0,0,4.59-6.27,34.05,34.05,0,0,0,3.24-6.18,16.51,16.51,0,0,0,1.2-6.06A8.62,8.62,0,0,0,157.57,96,6.49,6.49,0,0,0,152,94.1a7,7,0,0,0-5.73,3.45q-1.95,3.15-1.95,9Z" transform="translate(5)"/><path class="cls-5" d="M179.32,92.06l31.8-.12-7.68,17.82q-.78,1.74-1.68,4.2t-1.86,5.28q-1,2.82-1.86,5.58T196.39,130q-.75,2.37-1.17,4H185q1.08-1.8,2.58-4.35t3.12-5.43l3.21-5.73q1.59-2.85,2.85-5.28t2-4.05l3.12-6.66h-19.2a4.12,4.12,0,0,0-2.82.9,6.52,6.52,0,0,0-1.68,2.7h-.6Z" transform="translate(5)"/><path class="cls-5" d="M219.16,134.78a5.38,5.38,0,1,1,3.84-1.59A5.2,5.2,0,0,1,219.16,134.78Z" transform="translate(5)"/><path class="cls-5" d="M243.4,91.22a24.1,24.1,0,0,1,8.19,1.23A11.54,11.54,0,0,1,256.81,96a8.63,8.63,0,0,1,1.83,5.58,8.84,8.84,0,0,1-1,4.32,8.07,8.07,0,0,1-2.61,2.88,9.08,9.08,0,0,1-3.51,1.41,8.19,8.19,0,0,1-3.63-.15,15.28,15.28,0,0,1,3.93.57,13.09,13.09,0,0,1,4.08,1.92,10.42,10.42,0,0,1,3.21,3.66,12,12,0,0,1,1.26,5.79,14,14,0,0,1-1.95,7.41,16,16,0,0,1-5.25,5.28,22.64,22.64,0,0,1-7.41,2.94,28.39,28.39,0,0,1-8.46.48,25.43,25.43,0,0,1-8.31-2.19l.12-.6a23.64,23.64,0,0,0,7-.9,18.32,18.32,0,0,0,5.85-2.85,14.1,14.1,0,0,0,4-4.56,12.17,12.17,0,0,0,1.47-6,9.25,9.25,0,0,0-1.71-5.85,10.06,10.06,0,0,0-4.26-3.21,13.72,13.72,0,0,0-5.13-1l.12-.6a9.72,9.72,0,0,0,8.76-5,8.68,8.68,0,0,0,1-5.25A6.41,6.41,0,0,0,245,96.47a5.72,5.72,0,0,0-2.67-1.89,8,8,0,0,0-3.39-.36,5.89,5.89,0,0,0-5.1,3.15q-1.5,2.85-1.38,8.49h-.6l-3.42-10.38a17.17,17.17,0,0,1,6.18-3.09A30.45,30.45,0,0,1,243.4,91.22Z" transform="translate(5)"/><path class="cls-4" d="M121.7,34.37H125c.81-1,1-1.14,1.08-1.14s.28.12,1.1.79c.38.31.49.43.49.53s0,.14-.18.14H121.7v.18c0,2.66,0,3.8,0,4.9,0,.45-.28.62-.88.62s-.62-.14-.62-.54.07-2.65.07-5v-.2h-4.06c-.41,0-.81,0-1.34.08l-.16-.51a10.67,10.67,0,0,0,1.49.11h4.07V28.85h-3.44c-.4,0-.77,0-1.29.08l-.16-.51a10.14,10.14,0,0,0,1.45.11h7.76c.73-.87.89-1,1-1s.28.11,1,.68c.33.27.45.38.45.48s-.05.14-.19.14H121.7Zm-3.55-.87c-.42,0-.53-.18-.66-1a6.59,6.59,0,0,0-1-2.75c0-.05.06-.14.12-.11,1.55.88,2.36,1.88,2.36,2.86C119,33.07,118.63,33.5,118.15,33.5Zm7.48-2.86a9.79,9.79,0,0,1-3.11,3.27s-.18-.09-.14-.14a11.73,11.73,0,0,0,1.7-3.07,8.69,8.69,0,0,0,.4-1.35c1.24.52,1.71.8,1.71,1S126.05,30.59,125.63,30.64Z" transform="translate(5)"/><path class="cls-4" d="M135,31.86a18.77,18.77,0,0,0,1-2.46,7.42,7.42,0,0,0,.33-1.75c1.57.36,1.92.47,1.92.7s-.12.26-.53.33a13,13,0,0,1-.84,1.71H141c.53-.64.65-.73.76-.73s.25.09.8.59c.25.22.33.34.33.45s0,.14-.43.43c-.07,4.15-.23,6-.65,7.51a2.38,2.38,0,0,1-.71,1.21,1.94,1.94,0,0,1-1.28.46c-.29,0-.32,0-.4-.39s-.49-.77-1.58-1.08c-.07,0-.07-.23,0-.21a15.74,15.74,0,0,0,1.61.12c.63,0,.79,0,.92-.26.46-.9.67-2.89.77-7.78h-4.4a9.58,9.58,0,0,1-2.5,2.82c-.06,0-.19,0-.14-.1a10.58,10.58,0,0,0,.92-1.51.27.27,0,0,1-.15,0h-1.56V35.8c.65-.21,1.28-.44,1.79-.65.07,0,.14.1.09.14a19.9,19.9,0,0,1-3.91,2.45c0,.45-.1.61-.29.61s-.49-.49-.93-1.7a8.85,8.85,0,0,0,1.19-.25l.79-.21V32h-.91a3.85,3.85,0,0,0-.69.08l-.15-.52a2.81,2.81,0,0,0,.79.12h1V29.42c0-.67,0-1.22-.07-1.69,1.68.15,1.85.31,1.85.46s-.17.25-.51.42v3h.11c.4-.68.56-.79.66-.79s.25.11.69.55c.17.18.28.32.28.42Zm.78,5.77c0,.44-.1.59-.29.59s-.39-.28-.94-1.74a9.78,9.78,0,0,0,1.2-.17,32.79,32.79,0,0,0,4.32-1.06c.07,0,.14.1.08.14A18.88,18.88,0,0,1,135.79,37.63ZM138,33.21c.56-.73.73-.84.83-.84s.27.11.8.58c.22.21.33.34.33.44s0,.14-.18.14h-3.65a3.28,3.28,0,0,0-.65.08l-.15-.52a2.41,2.41,0,0,0,.74.12Z" transform="translate(5)"/><path class="cls-4" d="M149.44,31.52c.46-.49.58-.57.69-.57s.24.08.71.53c.2.18.28.3.28.41s0,.18-.35.34c-.74,4.24-2.11,6.31-5.11,8-.06,0-.14-.1-.08-.14a10.64,10.64,0,0,0,3.15-4.82.6.6,0,0,1-.37.14c-.25,0-.35-.14-.42-.58a2.91,2.91,0,0,0-.56-1.37,8.61,8.61,0,0,1-1.78,2s-.14-.07-.09-.13a13.28,13.28,0,0,0,1.89-6.3h-.56a5.75,5.75,0,0,0-.94.08l-.16-.52a5.16,5.16,0,0,0,1.1.11h2.94c.6-.7.77-.81.87-.81s.28.11.86.56c.27.23.38.34.38.44s0,.14-.18.14h-3a14,14,0,0,1-.48,2.4Zm-1.3.33a8.15,8.15,0,0,1-.65,1.45c.59.26,1.32.63,1.45,1.32a19.9,19.9,0,0,0,.56-2.77Zm6.08.87a17.35,17.35,0,0,0,.28,1.8l1.69-.25c.56-.83.68-.91.79-.91s.31.08.94.45c.32.18.4.26.4.38s-.07.11-.15.12l-3.6.53a9.77,9.77,0,0,0,.53,1.49,6.7,6.7,0,0,0,1-1.32c1.12.59,1.46.81,1.46,1s-.1.24-.73.24a10.56,10.56,0,0,1-1.15,1.07,5.62,5.62,0,0,0,.44.53,2.73,2.73,0,0,0,1.1.84c.19,0,.28-.11,1-1.6,0-.07.19,0,.18,0-.14,1.11-.21,1.66-.21,1.78a.33.33,0,0,0,.15.31.78.78,0,0,1,.32.56.65.65,0,0,1-.7.59,4.29,4.29,0,0,1-2.42-1.4,8,8,0,0,1-.8-.94,12,12,0,0,1-5.5,1.89c-.07,0-.13-.13-.06-.14a14.76,14.76,0,0,0,5-2.6,9.12,9.12,0,0,1-.8-2.15l-1.64.24a3.72,3.72,0,0,0-.94.23l-.22-.5a10,10,0,0,0,1.12,0l1.61-.24c-.14-.69-.22-1.22-.29-1.81l-.87.13a4.89,4.89,0,0,0-.94.21l-.21-.48a9.12,9.12,0,0,0,1.11-.05l.88-.13c-.06-.57-.1-1.15-.14-1.72L152,31c-.33.05-.58.12-.94.2l-.21-.49a7.54,7.54,0,0,0,1.1,0l.92-.13c0-.28,0-.57,0-.87a10.9,10.9,0,0,0-.14-1.89c1.48.2,1.78.28,1.78.48s-.06.2-.38.36c0,.68,0,1.25,0,1.75l1.87-.25c.46-.7.57-.78.68-.78s.3.08.8.4c.25.17.34.26.34.37a.12.12,0,0,1-.13.12l-3.54.48c0,.57,0,1.15.08,1.71l1.51-.23c.51-.75.62-.84.73-.84s.3.09.86.42c.28.17.36.26.36.37a.15.15,0,0,1-.14.14Zm1.62-3.16c-.25,0-.29,0-.53-.47a2.41,2.41,0,0,0-.73-.86c-.05,0,0-.15.07-.15,1.16.1,1.7.39,1.7,1A.49.49,0,0,1,155.84,29.56Z" transform="translate(5)"/><path class="cls-4" d="M167.92,36.29a8.54,8.54,0,0,0,2.29,1.37,11.74,11.74,0,0,0,3.68.81c.07,0,.07.13,0,.16-.52.19-.64.31-1,1.16a.23.23,0,0,1-.21.15,2.49,2.49,0,0,1-.66-.21,9.93,9.93,0,0,1-2.47-1.36,9,9,0,0,1-1.79-1.84c0,1.79.09,3.11.09,3.48s-.23.54-.83.54c-.38,0-.55-.16-.55-.47s.07-1.69.1-2.92A10.13,10.13,0,0,1,161,40c-.07,0-.14-.1-.07-.13a11.72,11.72,0,0,0,4.67-3.58h-3.31a6.21,6.21,0,0,0-1,.08l-.15-.52a5,5,0,0,0,1.08.12h4.27V34.66h-2.75a6.47,6.47,0,0,0-1,.09l-.16-.52a6,6,0,0,0,1.11.11h2.79V33.07H163a6.44,6.44,0,0,0-1,.08l-.16-.52a5.4,5.4,0,0,0,1.12.11h2.3c-.18-.05-.28-.23-.39-.64a2.62,2.62,0,0,0-.7-1.21c-.06,0,0-.12.08-.11,1.26.2,1.91.63,1.91,1.28a.71.71,0,0,1-.49.68H168a8.69,8.69,0,0,0,.59-1.2,5.91,5.91,0,0,0,.28-.88c1.13.43,1.6.65,1.6.82s-.1.21-.62.24a8.39,8.39,0,0,1-1.37,1h2.32c.66-.72.83-.84.93-.84s.28.12.89.59c.27.23.38.34.38.44s0,.14-.18.14h-5v1.27H170c.61-.67.78-.78.87-.78s.28.11.82.54c.23.2.35.32.35.42s-.05.14-.19.14h-4V36h3.47c.72-.8.89-.91,1-.91s.27.11.91.63c.28.22.4.36.4.46s-.05.14-.19.14Zm-2.62-7.72a4.85,4.85,0,0,0-.07-1c1.59.15,1.74.26,1.74.43s-.11.2-.45.35v2h1.17V28.57a6.81,6.81,0,0,0-.07-1c1.59.16,1.75.26,1.75.43s-.1.2-.47.35v2h.58a13.35,13.35,0,0,0,.78-1.57,5.72,5.72,0,0,0,.31-.94c1.23.52,1.67.75,1.67.91s-.1.26-.65.27a9.21,9.21,0,0,1-1.68,1.33h1.64c.63-.7.8-.81.9-.81s.28.11.87.56c.26.22.37.33.37.43s0,.14-.18.14H162.25a7.18,7.18,0,0,0-1,.09l-.15-.52a6.41,6.41,0,0,0,1.15.11h3.09Zm-1.49,1.5c-.33,0-.45-.13-.59-.55a2.78,2.78,0,0,0-.76-1.37c-.06,0,0-.14.07-.13,1.32.23,2,.69,2,1.35A.72.72,0,0,1,163.81,30.07Z" transform="translate(5)"/><path class="cls-4" d="M178.13,38.08c0,.36-.28.52-.75.52s-.57-.13-.57-.44c0-1,.06-2,.06-6,0-1.29,0-2.58-.09-3.88a11.35,11.35,0,0,1,1.44.71h1.21c.46-.56.57-.64.69-.64s.26.08.77.47c.22.17.3.27.3.38s-.07.21-.37.44v1.31c0,3.48.07,5.87.07,6.67,0,.36-.27.55-.77.55s-.54-.12-.54-.44v-.5h-1.45Zm1.45-8.8h-1.45V32.8h1.45Zm0,3.84h-1.45v3.76h1.45Zm5.76-.77h1.93c.62-.77.79-.88.89-.88s.28.11.92.62c.28.23.39.35.39.44s0,.14-.18.14h-7.23a4.44,4.44,0,0,0-.82.09l-.16-.52a4.38,4.38,0,0,0,.94.11h2V30.22h-1.58a4.24,4.24,0,0,0-.8.09l-.16-.52a4.23,4.23,0,0,0,.93.11H184V28.71a10.67,10.67,0,0,0-.07-1.11c1.69.16,1.85.31,1.85.45s-.16.27-.45.38V29.9h1.32c.6-.76.77-.87.87-.87s.28.11.92.6c.29.24.41.35.41.45s-.05.14-.19.14h-3.33Zm1.89,4.25c0,.51,0,1.72,0,2.24s-.05.78-.32,1a1.86,1.86,0,0,1-1.34.52.21.21,0,0,1-.23-.19c-.11-.72-.5-.92-1.61-1.2-.07,0-.07-.17,0-.17.72,0,1.37.06,1.91.06.19,0,.25,0,.25-.23V35.06h-3.84a4.51,4.51,0,0,0-.83.08l-.15-.52a4.38,4.38,0,0,0,.94.11h3.88v-.61a8.53,8.53,0,0,0-.07-1.12c1.39.12,1.81.22,1.81.42s-.13.23-.44.39v.92h.34c.52-.61.68-.73.78-.73s.27.12.76.52c.19.17.31.3.31.39s0,.15-.19.15h-2Zm-3.47,1.54c-.37,0-.51-.24-.67-.9a2.37,2.37,0,0,0-.83-1.4c-.06,0,0-.13.08-.11,1.53.31,2.19.81,2.19,1.54C184.53,37.8,184.25,38.14,183.76,38.14Z" transform="translate(5)"/><path class="cls-4" d="M193.53,32.18v7.75c0,.38-.27.55-.8.55s-.58-.14-.58-.51c0-1,.09-2.06.09-6.2,0-2.09,0-4.18-.1-6.27a8.46,8.46,0,0,1,1.48.72h2.5c.47-.55.59-.63.7-.63s.25.08.75.49c.23.18.31.28.31.39s-.1.22-.4.42v.56c0,1.49,0,2.51,0,2.85s-.26.47-.75.47-.51-.11-.51-.4v-.19Zm2.71-3.64h-2.71V30h2.71Zm0,1.77h-2.71v1.55h2.71Zm.41,7.8v.49c0,.39-.21.53-.73.53s-.54-.13-.54-.43c0-.47,0-1,0-2.82,0-.87,0-1.75-.07-2.63a8.85,8.85,0,0,1,1.43.68h2.64c.47-.51.58-.6.69-.6s.27.07.74.46c.25.2.34.3.34.41s-.11.21-.39.39v.63c0,1.67,0,2.8,0,3.18s-.21.54-.71.54-.51-.15-.51-.43v-.4Zm2.94-3.85h-2.94v1.52h2.94Zm0,1.84h-2.94v1.69h2.94Zm.48-3.92v.07c0,.37-.24.52-.7.52s-.56-.11-.56-.42c0-.53,0-1.08,0-3.26q0-.78-.06-1.59a11.38,11.38,0,0,1,1.44.72h2.51c.49-.55.62-.63.73-.63s.25.08.77.5c.24.21.32.31.32.42s-.08.24-.38.41V30.6c0,7.8,0,8.17,0,8.55a1.27,1.27,0,0,1-.28.84,1.61,1.61,0,0,1-1.22.4c-.18,0-.24,0-.25-.19-.07-.65-.33-.86-1.39-1.14-.07,0-.07-.18,0-.18.84.06,1,.07,1.62.07.14,0,.17,0,.17-.2V32.18Zm2.77-3.64h-2.77V30h2.77Zm0,1.77h-2.77v1.55h2.77Z" transform="translate(5)"/><path class="cls-4" d="M192.94,246a3.79,3.79,0,1,0-3.79-3.79A3.79,3.79,0,0,0,192.94,246Z" transform="translate(5)"/><path class="cls-4" d="M202.85,259.16l-1.32-5.54c-1.3-5.05-5.66-6.24-8.59-6.24s-7.29,1.19-8.59,6.24l-2.58,10.83a1.47,1.47,0,1,0,2.81.87l3-7.94.07,1.72a13.18,13.18,0,0,0-2,6.84c0,1.65,1.67,9.16,1.67,9.16h1l.46,11.06a1.73,1.73,0,0,0,3.46,0l.44-11h.5l.43,11a1.73,1.73,0,0,0,3.46,0l.47-11.06h1s1.68-7.51,1.68-9.16a12,12,0,0,0-.34-2.79L195.13,265a2.25,2.25,0,0,1-.88.19,2.28,2.28,0,0,1-2.06-1.34,2.25,2.25,0,0,1,1.13-2.95l4.86-2.41s.12-1.12.12-1.12l.61,1.62-5.26,2.6a1.48,1.48,0,0,0,1.19,2.7l7.08-2.76A1.89,1.89,0,0,0,202.85,259.16Z" transform="translate(5)"/><path class="cls-4" d="M219.19,280.36l-.12.15-3.42-2.65,1.78-2.3c.2-.26.46-.23.59.06l.16.35a.74.74,0,0,0,.81.4l3-.67a.36.36,0,0,1,.47.45l-.22,1.33a.92.92,0,0,1-.67.7l-1.66.36c-.31.07-.31.12,0,.11l.93,0c.32,0,.47.21.33.5a1.31,1.31,0,0,1-.83.62l-.2,0A1.61,1.61,0,0,0,219.19,280.36Z" transform="translate(5)"/><path class="cls-4" d="M209.21,281c.11-.47.32-.24.41-.08a7.68,7.68,0,0,0,1.82,2.35c.65-.8,2.24-2.85,3.62-4.62l3.45,2.67-.45.63c.52,1.4,1.54,4.28,1.54,4.28a.69.69,0,0,1-.43.89.67.67,0,0,1-.86-.43l-1.47-3-.48.69a1.18,1.18,0,0,1,.31.75v.32h.09c1.52,0,1.6,1.69.08,1.69h-4.73c-1.58,0-2.08-1.24-1.58-2.5C209.91,284,208.78,282.56,209.21,281Z" transform="translate(5)"/><path class="cls-4" d="M233,242.13a3.89,3.89,0,1,1-3.88-3.88A3.89,3.89,0,0,1,233,242.13Z" transform="translate(5)"/><path class="cls-4" d="M229.16,247.37h0c-2.62,0-8.27,1.12-8.27,6.66l.68,13.44a1.55,1.55,0,0,0,1.65,1.48,1.48,1.48,0,0,0,1.21-.92l.52,17.55a2,2,0,1,0,3.94,0l.26-14.77h0l.26,14.77a2,2,0,1,0,3.94,0l.51-17.55a1.51,1.51,0,0,0,1.22.92,1.54,1.54,0,0,0,1.64-1.48l.68-13.44C237.42,248.49,231.78,247.37,229.16,247.37Z" transform="translate(5)"/><path class="cls-4" d="M251.59,242.18a3.88,3.88,0,1,1-3.88-3.88A3.88,3.88,0,0,1,251.59,242.18Z" transform="translate(5)"/><path class="cls-4" d="M252.77,263.29c.1-1.14.16-2.37.16-2.37,2.83-1,3.06-6.14,3.06-6.14,0-5.54-4.52-7.36-8.27-7.36s-8.06,2.1-8.26,7.36c0,0-.05,5.4,3.28,7.65l.06.65a37.16,37.16,0,0,0-2.55,12.73h3.26l.48,9.88a2,2,0,0,0,1.87,2,1.93,1.93,0,0,0,1.86-1.88,1.87,1.87,0,1,0,3.74-.16l.48-9.88h3.3A37,37,0,0,0,252.77,263.29Z" transform="translate(5)"/><path class="cls-3" d="M251.41,251.81a2,2,0,1,1-.45,2.74A2,2,0,0,1,251.41,251.81Z" transform="translate(5)"/><path class="cls-3" d="M244.76,257.1a.94.94,0,0,1,1.15-.68,17.12,17.12,0,0,1,1.7.55l1.31-.86-1.26-.6a.57.57,0,0,1-.13-.08.58.58,0,0,1,0-.83.61.61,0,0,1,.6-.16s2.73.9,3.2,1a1.1,1.1,0,0,1,.4,2l0,0-1.39.15a1.43,1.43,0,0,0-1.3,1.53l0,.16a2.4,2.4,0,0,1-1.79.19A3.19,3.19,0,0,1,246,259l-.11.3-1.75,0Z" transform="translate(5)"/><path class="cls-4" d="M295.43,242.26a3.68,3.68,0,1,1-3.67-3.68A3.67,3.67,0,0,1,295.43,242.26Z" transform="translate(5)"/><path class="cls-4" d="M277.84,267.29a3.24,3.24,0,1,1-3.24-3.24A3.24,3.24,0,0,1,277.84,267.29Z" transform="translate(5)"/><path class="cls-4" d="M270.69,286.26a1.91,1.91,0,1,1-1.91-1.91A1.9,1.9,0,0,1,270.69,286.26Z" transform="translate(5)"/><path class="cls-4" d="M277.47,286.26a1.91,1.91,0,1,1-1.91-1.91A1.91,1.91,0,0,1,277.47,286.26Z" transform="translate(5)"/><path class="cls-4" d="M273.51,283.62h-6.35l1.07-1.93h5.28a3.37,3.37,0,0,0,2.84-2.53c.4-1.24,3-10.88,3-11l.19-.72h5.35l-.58,1.93H281s-2.49,9.26-2.85,10.38A5.29,5.29,0,0,1,273.51,283.62Z" transform="translate(5)"/><path class="cls-4" d="M273.77,271.22c-1.53.25-6.71,1.58-6.71,1.58a1,1,0,0,0,.44,2l3.32-.39-.64,2.47h-2.52a2.24,2.24,0,0,0-2.31,1.33l-2,4.47a1.31,1.31,0,0,0,.67,1.74,1.34,1.34,0,0,0,1.74-.68l1.73-3.05h5.1a2.63,2.63,0,0,0,2.57-1.77c.32-1.18,1.37-5.33,1.37-5.33C277,271.71,275.56,270.92,273.77,271.22Z" transform="translate(5)"/><path class="cls-4" d="M301.41,276.45l-.36-2.53h4.72s-2.86-11.7-7.84-14.81c0,0-1.74-8-2.37-10s-5-3.51-7.33,2.12l-2,5.15-2.71,6.86a1.43,1.43,0,1,0,2.61,1.16l3.3-6.59.21-.42.81,3.05-4.08,25.45a1.86,1.86,0,0,0,3.65.76l3.22-12.77h2.92l.79,3.37,2.19,9.36a1.87,1.87,0,0,0,3.67-.69Z" transform="translate(5)"/><circle class="cls-4" cx="48.77" cy="72" r="15.19"/><rect class="cls-4" x="28.96" y="128.73" width="94.17" height="9.8"/><polygon class="cls-4" points="52.39 126.15 77.12 126.15 92.17 126.15 92.17 118.41 73.56 118.41 65.72 97.13 29.17 97.13 40.56 126.15 52.39 126.15"/><path class="cls-4" d="M82.22,80.83c.57,2.87,1.53,5.41,2.79,6.66V91a.91.91,0,0,1-.05.27L91.46,94,98,91.24a1.26,1.26,0,0,1,0-.27V87.49c1.26-1.25,2.22-3.79,2.79-6.66,1.33-.43,2.09-1.11,3-4.07,1-3.15-1.52-3.05-1.52-3.05,2-6-.65-11.7-5.16-11.29-3.11-4.85-13.52,1.11-16.79.69A6,6,0,0,0,81.06,66c-1.14,1.93-.7,5.75-.38,7.69-.19,0-2.47,0-1.5,3.05S80.89,80.4,82.22,80.83Z" transform="translate(5)"/><rect class="cls-4" x="94.01" y="95.45" width="4.9" height="3.79"/><path class="cls-4" d="M90.49,115.09v11.06h27.42c-1.45-13.6-8-26.33-12.53-27.83a13.53,13.53,0,0,1-1.58-.67L94.57,109l-.66-7.45H89L88.36,109,79.14,97.65a11.25,11.25,0,0,1-1.6.67c-2.4.75-5.53,6.53-8,13.17l1.32,3.6Z" transform="translate(5)"/><polyline class="cls-6" points="48.77 60.56 48.77 72.48 52.57 79.42"/><path class="cls-4" d="M188,189.44a11.66,11.66,0,0,1-1.75,1.83c1.77,0,3.55,0,5.31-.19a6.29,6.29,0,0,0-1.43-1.07s0-.15,0-.14c2.29.34,3.67,1.14,3.67,2.09a.73.73,0,0,1-.71.81c-.27,0-.45-.13-.69-.5s-.43-.65-.61-.89a44.63,44.63,0,0,1-7.81,1.12c-.11.35-.16.44-.32.44s-.28-.16-.61-1.78a25,25,0,0,0,2.53.11,13.49,13.49,0,0,0,.6-1.83h-2.81a6.12,6.12,0,0,0-1,.08l-.16-.52a5.4,5.4,0,0,0,1.12.11h4.36v-1a8,8,0,0,0-.07-.81c1.74.15,1.91.31,1.91.45s-.17.28-.51.39v1h3.35c.73-.84.9-1,1-1s.27.11,1,.66c.29.24.41.38.41.48s-.05.14-.19.14Zm-2.29,7.71c0,1.35,0,2,0,2.74,0,.39-.28.54-.83.54s-.57-.14-.57-.57c0-.77.05-1.44.05-4.55,0-.91,0-1.83-.05-2.74a11.23,11.23,0,0,1,1.53.68H191c.46-.55.57-.63.68-.63s.26.08.86.56c.27.22.35.32.35.43s-.06.21-.41.44v.82c0,3.31,0,3.53,0,4.12a1.14,1.14,0,0,1-.62,1.11,2.15,2.15,0,0,1-1,.25c-.12,0-.17-.06-.23-.42s-.33-.65-1.52-1c-.08,0-.08-.17,0-.17.82.06,1.23.07,1.84.07.13,0,.16,0,.16-.17v-1.5Zm5.39-3.58h-5.39V195h5.39Zm-5.39,3.26h5.39v-1.5h-5.39Z" transform="translate(5)"/><path class="cls-4" d="M202.86,195.49c-.42,3-1.77,4.23-5.13,4.72-.07,0-.14-.17-.07-.2,2-.73,3.14-1.65,3.59-3.16a7.53,7.53,0,0,0,.24-2.22c1.79.27,1.8.28,1.8.48S203.18,195.33,202.86,195.49Zm-2.45-6.07c0,2.54.05,4.29.05,4.86s-.22.62-.81.62-.62-.13-.62-.53.07-1.71.07-4.27a19.66,19.66,0,0,0-.09-2.43c1.79.24,1.79.24,1.79.45s-.11.24-.39.34Zm3.25,4.35v.13c0,.4-.21.58-.72.58s-.59-.15-.59-.43c0-.72.07-1.43.07-4.32,0-.66,0-1.33-.07-2a9.17,9.17,0,0,1,1.42.68h3.61c.52-.54.63-.63.75-.63s.25.09.74.51c.22.19.31.29.31.4s-.05.2-.4.44v.78c0,2.1.06,3.53.06,4s-.22.57-.77.57c-.39,0-.53-.14-.53-.53v-.19Zm3.88-5h-3.88v2.14h3.88Zm0,2.46h-3.88v2.24h3.88Zm-1.88,7c0,.66.13.69,1.15.69,1.18,0,1.62-.1,1.86-.3s.37-.37.88-1.82c0-.07.19,0,.19,0,0,.49-.09,1.29-.09,1.47s0,.24.24.35a.55.55,0,0,1,.34.52c0,.35-.23.59-.79.74a10,10,0,0,1-2.59.23c-2.07,0-2.49-.3-2.49-1.32,0-.42,0-.83,0-2.13,0-.8,0-1.32-.07-2,1.7.19,1.79.26,1.79.44s-.11.22-.43.38Z" transform="translate(5)"/><path class="cls-4" d="M214.39,192.91a12.46,12.46,0,0,1-1.55,1.53c-.06,0-.18-.07-.14-.13a15.12,15.12,0,0,0,2.36-4.66,12.64,12.64,0,0,0,.51-2.3c1.27.35,1.85.59,1.85.77s-.14.25-.49.31a15.68,15.68,0,0,1-1.67,3.33c.65.1.74.16.74.3s-.08.21-.36.33v7.33c0,.4-.24.59-.73.59-.31,0-.6-.13-.6-.54s.08-1.47.08-3.68Zm6.91-.62c0,3.35.1,5.45.1,7.48,0,.38-.24.52-.83.52-.43,0-.63-.12-.63-.4,0-.73.1-3.73.11-6.43a13,13,0,0,1-4.13,4.28c-.06,0-.18-.07-.14-.12a16.65,16.65,0,0,0,3.7-6.26h-2.17a4.84,4.84,0,0,0-.87.08l-.16-.52a4.1,4.1,0,0,0,1,.11H220v-1.78a15,15,0,0,0-.08-1.77c1.84.25,1.87.25,1.87.49s-.14.25-.5.42V191h2.2c.66-.84.82-.95.92-.95s.27.11.91.66c.28.25.39.38.39.48s0,.14-.18.14h-4.16a9,9,0,0,0,1.85,2.84,9.59,9.59,0,0,0,2.94,2.1c.07,0,0,.15,0,.17-.32.07-.58.34-.79.84-.13.32-.17.35-.31.35a1,1,0,0,1-.48-.25,8.81,8.81,0,0,1-1.89-2.3,11.13,11.13,0,0,1-1.37-3.4Z" transform="translate(5)"/><path class="cls-4" d="M235.31,196.16a8.64,8.64,0,0,0,2.28,1.37,11.53,11.53,0,0,0,3.69.82c.07,0,.07.12,0,.15-.52.2-.65.31-1,1.16-.06.11-.13.16-.21.16a3,3,0,0,1-.66-.21,10.42,10.42,0,0,1-2.47-1.36,8.77,8.77,0,0,1-1.79-1.85c0,1.79.08,3.11.08,3.49s-.22.53-.82.53c-.38,0-.55-.15-.55-.46s.07-1.7.1-2.93a10.1,10.1,0,0,1-5.55,2.84c-.07,0-.14-.1-.07-.12a11.8,11.8,0,0,0,4.67-3.59h-3.31a7.69,7.69,0,0,0-1,.08l-.15-.51a5.62,5.62,0,0,0,1.07.11h4.28v-1.3h-2.75a6.32,6.32,0,0,0-1,.08l-.16-.52a5.25,5.25,0,0,0,1.11.11h2.79v-1.27h-3.48a8.12,8.12,0,0,0-1,.08l-.15-.52a5.42,5.42,0,0,0,1.12.12h2.3c-.18-.06-.28-.24-.39-.65a2.83,2.83,0,0,0-.7-1.2c-.06,0,0-.13.08-.11,1.26.19,1.9.63,1.9,1.27a.73.73,0,0,1-.49.69h2.26a9.33,9.33,0,0,0,.59-1.21,7.37,7.37,0,0,0,.28-.88c1.13.43,1.59.66,1.59.83s-.09.21-.61.23a8.53,8.53,0,0,1-1.37,1h2.32c.66-.73.83-.84.93-.84s.28.11.89.58c.27.23.38.34.38.44s0,.14-.18.14h-5v1.27h2.18c.6-.67.77-.78.87-.78s.28.11.81.55c.24.19.35.32.35.42s0,.14-.18.14h-4v1.3h3.47c.72-.8.88-.91,1-.91s.27.11.91.63c.28.22.39.36.39.46s0,.14-.18.14Zm-2.62-7.72a4.85,4.85,0,0,0-.07-1c1.58.15,1.74.27,1.74.43s-.11.2-.45.35v2h1.16v-1.75a4.85,4.85,0,0,0-.07-1c1.6.17,1.75.27,1.75.43s-.09.2-.46.35v2h.58a14.2,14.2,0,0,0,.78-1.57,6,6,0,0,0,.31-.93c1.23.51,1.67.74,1.67.91s-.1.25-.65.26a8.8,8.8,0,0,1-1.68,1.33h1.64c.63-.7.8-.81.9-.81s.28.11.86.56c.27.23.38.34.38.44s0,.14-.18.14H229.64a7,7,0,0,0-1,.08l-.15-.52a5.6,5.6,0,0,0,1.15.11h3.09Zm-1.5,1.5c-.32,0-.45-.13-.59-.54a2.72,2.72,0,0,0-.75-1.38c-.06,0,0-.14.07-.12,1.32.22,2,.68,2,1.34A.72.72,0,0,1,231.19,189.94Z" transform="translate(5)"/><path class="cls-4" d="M250.67,197.1c0,1.47,0,2.48,0,2.83s-.31.47-.81.47-.59-.11-.59-.5.06-1.13.07-2.8h-4.33a8.26,8.26,0,0,0-1,.08l-.15-.52a5.6,5.6,0,0,0,1.14.12h4.36v-.09a12.81,12.81,0,0,0-.07-1.55c1.64.17,1.82.22,1.82.43s-.07.18-.46.38v.83h3.47c.7-.87.87-1,1-1s.28.11,1,.68c.33.25.44.38.44.48s0,.14-.18.14Zm-5.53-2c0,.42-.06.56-.26.56s-.39-.35-.92-1.51c.42-.12.83-.23,1.2-.35a15,15,0,0,0,2.51-1c.06,0,.18.11.14.17A10.46,10.46,0,0,1,245.14,195.14Zm4.27-5.66c1,.38,1.29.54,1.29.71s0,.16-.49.17a7.58,7.58,0,0,1-1.24,1.07,1.11,1.11,0,0,1,.48.86.6.6,0,0,1-.57.66c-.34,0-.38,0-.61-.74a3,3,0,0,0-.85-1.29.07.07,0,0,1,.06-.12,4.31,4.31,0,0,1,1.12.39c.12-.27.25-.53.36-.8a4.92,4.92,0,0,0,.32-.91h-4.17a7.55,7.55,0,0,0-1,.08L244,189a5.33,5.33,0,0,0,1.11.12h4.23v-1a4.79,4.79,0,0,0-.07-.82c1.74.15,1.91.31,1.91.46s-.16.28-.49.39v.93H254c.77-.84.94-1,1-1s.26.12.92.66c.29.25.41.38.41.48s-.05.14-.19.14Zm-3.11,3.16c-.38,0-.48-.12-.73-.86a3.23,3.23,0,0,0-.9-1.5.08.08,0,0,1,.07-.13c1.54.45,2.26,1,2.26,1.71A.74.74,0,0,1,246.3,192.64Zm5.27,1.41a3.9,3.9,0,0,0-.58-.85s0-.12.1-.09c1.19.39,1.95,1,1.95,1.69a.69.69,0,0,1-.66.72c-.32,0-.39-.1-.59-.86,0-.11-.07-.22-.11-.33a19.3,19.3,0,0,1-3.66.91c-.07.3-.11.37-.24.37s-.3-.23-.6-1.51c.63,0,1,0,1.43,0a17.68,17.68,0,0,0,1.79-2.35,9.79,9.79,0,0,0,.61-1.13c1.2.63,1.41.77,1.41,1s0,.15-.59.18a28.49,28.49,0,0,1-2.65,2.35C250,194.13,250.77,194.1,251.57,194.05Zm3.48-2.9a10.68,10.68,0,0,1-2.66,1.61c-.07,0-.18-.09-.12-.13a10.22,10.22,0,0,0,1.38-1.67,4.57,4.57,0,0,0,.54-1c1.07.56,1.42.8,1.42,1S255.5,191.16,255.05,191.15Zm-.07,4.21c-.35,0-.46-.11-.85-.8a3.81,3.81,0,0,0-1.33-1.4.08.08,0,0,1,0-.14c1.88.28,2.81.83,2.81,1.64A.67.67,0,0,1,255,195.36Z" transform="translate(5)"/><path class="cls-4" d="M266.88,197.42a13.74,13.74,0,0,1-5.9,2.9c-.07,0-.15-.15-.08-.18a17.11,17.11,0,0,0,5.2-3.59,13.19,13.19,0,0,1-2.37-6,17.64,17.64,0,0,1-1.09,5.4,8.28,8.28,0,0,1-3.55,4.22s-.15-.1-.11-.16a10.65,10.65,0,0,0,2.58-4.38,23.87,23.87,0,0,0,.83-6.93H261a5.11,5.11,0,0,0-1.08.08l-.12-.52a4.43,4.43,0,0,0,1.16.11h5.6c.49-.58.6-.67.72-.67s.25.09.82.62c.27.24.35.35.35.46s-.14.29-.49.41a19.65,19.65,0,0,1-.77,2.5h1.56c.52-.63.6-.68.73-.68s.25.05.88.54c.33.26.4.37.4.54s-.14.23-.5.33a12.47,12.47,0,0,1-2.49,4.19,11.72,11.72,0,0,0,4.46,2.19c.07,0,.06.14,0,.16-.66.24-.77.37-1,1.07,0,.15-.09.22-.18.22a2.6,2.6,0,0,1-1-.4,18.62,18.62,0,0,1-3.11-2.3Zm-3.11-7.9a12.87,12.87,0,0,0,3,6.21,11.26,11.26,0,0,0,2-3.74H267l0,.07a.64.64,0,0,1-.7.44c-.45,0-.72-.16-.72-.4a2.28,2.28,0,0,1,.17-.51,17.21,17.21,0,0,0,.88-2.92h-2.85c0,.25,0,.49,0,.74Z" transform="translate(5)"/><path class="cls-4" d="M283,192.38c0,.49,0,.88,0,1.23a10.25,10.25,0,0,1-.24,2.68,4,4,0,0,1-3.87,3.34,3.09,3.09,0,0,1-2.56-1.09,4.08,4.08,0,0,1-.86-2.62,8.7,8.7,0,0,1,1.87-5.12l-.89,0a1.39,1.39,0,0,1-1.19-.53,1.68,1.68,0,0,1-.29-.87c0-.07,0-.19.11-.19s.14.07.18.15c.2.34.41.44,1,.44a6.06,6.06,0,0,0,1.92-.4,1.71,1.71,0,0,0,.41-.27.65.65,0,0,1,.43-.14,1.25,1.25,0,0,1,.91.62.33.33,0,0,1,.07.21c0,.15-.11.28-.32.35a2.76,2.76,0,0,0-.9.59,8.94,8.94,0,0,0-1.52,1.87,6.15,6.15,0,0,0-1,3,2.6,2.6,0,0,0,.64,1.92,2.39,2.39,0,0,0,1.94.71c2.47,0,3.28-2.13,3.56-4.23a11,11,0,0,0,.1-2.26,4.15,4.15,0,0,0-.38-1.66,1.32,1.32,0,0,1-.13-.59c0-.28.3-.48.72-.48a.52.52,0,0,1,.54.53,3.85,3.85,0,0,0,.17,1.36,5.8,5.8,0,0,0,1,1.8,7.52,7.52,0,0,0,1.28,1.36,1.31,1.31,0,0,1,.46.93.72.72,0,0,1-.22.52.48.48,0,0,1-.4.17c-.26,0-.63-.24-1.16-.94a8.44,8.44,0,0,1-1.29-2.42Zm2.16-3.13a1.07,1.07,0,0,1,.51.85.47.47,0,0,1-.46.49.51.51,0,0,1-.47-.33,5.33,5.33,0,0,0-.89-1.23c-.05-.06-.15-.13-.15-.18s0-.07.07-.09H284A3,3,0,0,1,285.2,189.25Zm1.28-.93a.9.9,0,0,1,.51.71.47.47,0,0,1-.44.52.53.53,0,0,1-.51-.31,3.6,3.6,0,0,0-1-1.09c-.06,0-.17-.11-.17-.17s0-.07,0-.08a.37.37,0,0,1,.22,0A2.88,2.88,0,0,1,286.48,188.32Z" transform="translate(5)"/><path class="cls-4" d="M183.65,214.23a11.9,11.9,0,0,1-1.6,1.17c-.05,0-.15-.08-.11-.14a14.89,14.89,0,0,0,2.28-3.32,8.5,8.5,0,0,0,.58-1.49c1.34.57,1.52.67,1.52.82s-.11.21-.49.31a9.26,9.26,0,0,1-1.24,1.71c.59.1.68.15.68.29s-.09.21-.38.34v5.92c0,.41-.23.59-.72.59-.33,0-.61-.11-.61-.49s.09-1.48.09-3.72Zm2.09-5.69a10.11,10.11,0,0,1-3.49,2.93c-.06,0-.16-.09-.1-.14a12.13,12.13,0,0,0,1.79-2.43,7.23,7.23,0,0,0,.66-1.51c1.12.39,1.74.7,1.74.9S186.16,208.53,185.74,208.54Zm3.26,5.67c1,.28,1.3.42,1.3.58s-.08.19-.57.32l-.24.35h2.35c.51-.5.62-.59.73-.59s.25.09.81.55c.26.22.34.32.34.43s-.14.27-.66.38a9.68,9.68,0,0,1-1.81,1.75,10.13,10.13,0,0,0,4,.8c.07,0,.07.14,0,.17a1.31,1.31,0,0,0-.81,1c0,.23-.1.3-.21.3a2.93,2.93,0,0,1-.7-.17,9.89,9.89,0,0,1-3.07-1.6,12.65,12.65,0,0,1-5.2,1.74c-.07,0-.14-.14-.07-.17a14.87,14.87,0,0,0,4.55-2.24,8.2,8.2,0,0,1-1-1.46,8,8,0,0,1-3.22,2.08c-.07,0-.14-.09-.09-.13a10.21,10.21,0,0,0,2.65-2.76,4.56,4.56,0,0,0,.64-1.36h-.22c0,.35-.27.49-.7.49s-.58-.14-.58-.4.05-.76.05-2.29c0-.28,0-.6,0-.95a6.33,6.33,0,0,1-.94.84s-.15,0-.11-.1a13.44,13.44,0,0,0,1.36-3,7.31,7.31,0,0,0,.36-1.41c1.41.42,1.73.56,1.73.75s-.09.23-.59.32c-.11.23-.24.44-.37.66h4c.68-.82.85-.94,1-.94s.26.12.92.66c.28.24.39.37.39.46s0,.14-.18.14h-6.3c-.2.3-.39.58-.6.85a4.47,4.47,0,0,1,.64.37h3.66c.43-.49.54-.57.65-.57s.27.08.78.48c.22.18.3.28.3.39s-.09.22-.39.39v.45c0,1.17,0,2,0,2.24s-.22.57-.73.57c-.32,0-.51-.11-.56-.42Zm3.3-3.2h-3.79v1.23h3.79Zm0,1.55h-3.79v1.33h3.79Zm-3.05,3.22c-.12.17-.22.28-.33.41a6.33,6.33,0,0,0,1.38,1.25,9.58,9.58,0,0,0,1.54-1.66Z" transform="translate(5)"/><path class="cls-4" d="M201.3,209.63c0,4.85-.25,6.43-1.05,8a6.77,6.77,0,0,1-2.42,2.6c-.07,0-.21-.1-.15-.17a8.08,8.08,0,0,0,1.7-2.84c.54-1.5.69-2.77.69-6.19a28.17,28.17,0,0,0-.13-3.34c1.7.21,1.85.26,1.85.47s-.07.21-.49.37Zm-2.15,1.46c0,2.16,0,3.35,0,3.74s-.28.48-.72.48-.53-.12-.53-.51.07-1.27.07-3.63a16,16,0,0,0-.07-1.8c1.47.16,1.63.22,1.63.4s-.07.21-.42.38Zm9.49,1.95c.55-.59.66-.68.77-.68s.24.09.91.72c.31.29.4.4.4.52s-.09.28-.77.26a.56.56,0,0,0-.37.13c-.29.18-.54.32-.84.48,0,0-.11,0-.1-.07a4.15,4.15,0,0,0,.24-1h-6.2c0,.12,0,.25,0,.38a2.14,2.14,0,0,1-.15.84c.39.18.64.31,1.09.54h1.47a11.82,11.82,0,0,0-.07-1.49c1.7.19,1.75.21,1.75.42s-.11.22-.49.39v.68h1.5c.49-.51.61-.6.72-.6s.25.09.77.51c.24.19.32.29.32.4s-.07.21-.41.41v.36c0,1.35.05,1.59.05,1.81a1.1,1.1,0,0,1-.52,1.06,1.78,1.78,0,0,1-.76.19c-.15,0-.22-.06-.27-.3-.07-.4-.29-.63-1-.81-.09,0-.09-.17,0-.17.49,0,.8,0,1.16,0,.17,0,.18,0,.18-.17v-2.39H206.3c0,2.31,0,3.89,0,4.41s-.26.54-.75.54-.56-.11-.56-.49.07-1.79.07-4.46h-1.58v3.16c0,.42-.24.6-.71.6s-.56-.14-.56-.37.05-.7.05-2.19c0-.6,0-1.13,0-1.72a.71.71,0,0,1-.46.15.64.64,0,0,1-.63-.68c0-.26.09-.4.38-.63a1.58,1.58,0,0,0,.66-1.42c0-.08.12-.13.15,0a2.51,2.51,0,0,1,.24.73Zm-.89-4.51h-4.26a3.21,3.21,0,0,0-.86.11l-.15-.55a4.13,4.13,0,0,0,1,.11h4.13c.51-.58.62-.67.73-.67s.25.09.79.52c.23.21.32.31.32.42s0,.14-.45.46v.47c0,1.21,0,2,0,2.32s-.21.55-.76.55c-.36,0-.5-.13-.51-.48h-4.36a3.32,3.32,0,0,0-.77.1l-.15-.52a4.55,4.55,0,0,0,.89.1h4.39v-1.33h-4a4,4,0,0,0-.77.09l-.15-.51a4.48,4.48,0,0,0,.9.09h4Z" transform="translate(5)"/><path class="cls-4" d="M219.87,217.1c0,1.47,0,2.48,0,2.83s-.31.47-.81.47-.59-.11-.59-.5.06-1.13.07-2.8h-4.33a8.26,8.26,0,0,0-1,.08l-.15-.52a5.6,5.6,0,0,0,1.14.12h4.36v-.09a12.81,12.81,0,0,0-.07-1.55c1.64.17,1.82.22,1.82.43s-.07.18-.46.38v.83h3.47c.7-.87.87-1,1-1s.28.11,1,.68c.33.25.44.38.44.48s0,.14-.18.14Zm-5.53-2c0,.42-.06.56-.26.56s-.39-.35-.92-1.51c.42-.12.83-.23,1.2-.35a15,15,0,0,0,2.51-1c.06,0,.18.11.14.17A10.46,10.46,0,0,1,214.34,215.14Zm4.27-5.66c1,.38,1.29.54,1.29.71s0,.16-.49.17a7.58,7.58,0,0,1-1.24,1.07,1.11,1.11,0,0,1,.48.86.6.6,0,0,1-.57.66c-.34,0-.38,0-.61-.74a3,3,0,0,0-.85-1.29.07.07,0,0,1,.06-.12,4.31,4.31,0,0,1,1.12.39c.12-.27.25-.53.36-.8a4.92,4.92,0,0,0,.32-.91h-4.17a7.55,7.55,0,0,0-1,.08l-.16-.52a5.33,5.33,0,0,0,1.11.12h4.23v-1a4.79,4.79,0,0,0-.07-.82c1.74.15,1.91.31,1.91.46s-.16.28-.5.39v.93h3.34c.77-.84.94-1,1-1s.26.12.92.66c.29.25.41.38.41.48s-.05.14-.19.14Zm-3.11,3.16c-.38,0-.48-.12-.73-.86a3.23,3.23,0,0,0-.9-1.5.08.08,0,0,1,.07-.13c1.54.45,2.26,1,2.26,1.71A.74.74,0,0,1,215.5,212.64Zm5.27,1.41a3.9,3.9,0,0,0-.58-.85s0-.12.1-.09c1.19.39,2,1,2,1.69a.69.69,0,0,1-.66.72c-.32,0-.39-.1-.59-.86,0-.11-.07-.22-.11-.33a19.3,19.3,0,0,1-3.66.91c-.07.3-.11.37-.24.37s-.3-.23-.6-1.51c.63,0,1,0,1.43,0a17.68,17.68,0,0,0,1.79-2.35,9.79,9.79,0,0,0,.61-1.13c1.2.63,1.41.77,1.41,1s0,.15-.59.18a28.49,28.49,0,0,1-2.65,2.35C219.18,214.13,220,214.1,220.77,214.05Zm3.48-2.9a10.68,10.68,0,0,1-2.66,1.61c-.07,0-.18-.09-.12-.13a10.22,10.22,0,0,0,1.38-1.67,5,5,0,0,0,.54-1c1.07.56,1.42.8,1.42,1S224.7,211.16,224.25,211.15Zm-.07,4.21c-.35,0-.46-.11-.85-.8a3.81,3.81,0,0,0-1.33-1.4.08.08,0,0,1,.05-.14c1.88.28,2.81.83,2.81,1.64A.67.67,0,0,1,224.18,215.36Z" transform="translate(5)"/><path class="cls-4" d="M131.69,332.62c0,2.19-1.31,3.51-2.94,3.51s-2.88-1.25-2.88-3.4,1.29-3.52,2.88-3.52S131.69,330.51,131.69,332.62Zm-4.27.07c0,1.93.5,3,1.33,3s1.37-1.08,1.37-3-.51-3-1.37-3S127.42,330.73,127.42,332.69Zm1,8.78,7.86-12.8.53.32L129,341.79Zm10.89-3.82c0,2.21-1.28,3.52-2.9,3.52s-2.93-1.27-2.93-3.41,1.33-3.51,2.93-3.51S139.33,335.54,139.33,337.65Zm-4.26.06c0,1.94.51,3,1.36,3s1.34-1.07,1.34-3-.49-3-1.34-3S135.07,335.78,135.07,337.71Z" transform="translate(5)"/><path class="cls-5" d="M51.84,306.24l.18.32a29.43,29.43,0,0,0-7.7,3.4,12.26,12.26,0,0,0-4.07,4.28,14.48,14.48,0,0,0-1.61,5.41,63.11,63.11,0,0,0-.33,6.83c0,2.54.06,4.67.19,6.37a9.14,9.14,0,0,0,.92,3.82,2.56,2.56,0,0,0,2.39,1.26,3.06,3.06,0,0,0,2.58-1.13,6.57,6.57,0,0,0,1.19-2.94A21.8,21.8,0,0,0,45.9,330a21.55,21.55,0,0,0-.3-4.09,5.93,5.93,0,0,0-.8-2.19,2.85,2.85,0,0,0-3.13-1.12,6.61,6.61,0,0,0-1.52.64l-.36-.37a5.26,5.26,0,0,1,2-2.37A8.24,8.24,0,0,1,45,319.3a9.48,9.48,0,0,1,3.63.16,8.51,8.51,0,0,1,5.85,4.92,11.63,11.63,0,0,1,.82,5.09,11.78,11.78,0,0,1-1.54,5.61,10.13,10.13,0,0,1-4.37,4A17.09,17.09,0,0,1,42,340.69a16.36,16.36,0,0,1-7.64-1.54,10.42,10.42,0,0,1-4.74-5A20.3,20.3,0,0,1,28,325.51a24.55,24.55,0,0,1,1.48-8.81,15.65,15.65,0,0,1,4.46-6.46,17.46,17.46,0,0,1,7.47-3.66A29.55,29.55,0,0,1,51.84,306.24Z" transform="translate(5)"/><path class="cls-5" d="M70,307.25a18.5,18.5,0,0,1,6.28.94,8.93,8.93,0,0,1,4,2.69,7.39,7.39,0,0,1,.64,7.59,6.1,6.1,0,0,1-2,2.21,7,7,0,0,1-2.69,1.08,6.33,6.33,0,0,1-2.78-.11,11.73,11.73,0,0,1,3,.43,10.29,10.29,0,0,1,3.13,1.48,8,8,0,0,1,2.46,2.8,9.23,9.23,0,0,1,1,4.44,10.68,10.68,0,0,1-1.49,5.68,12.28,12.28,0,0,1-4,4,17.15,17.15,0,0,1-5.68,2.25,21.53,21.53,0,0,1-6.48.37A19.44,19.44,0,0,1,59,341.47l.09-.46a18.17,18.17,0,0,0,5.38-.69,14.21,14.21,0,0,0,4.49-2.18,10.83,10.83,0,0,0,3.08-3.5,9.33,9.33,0,0,0,1.12-4.58,7,7,0,0,0-1.31-4.48,7.67,7.67,0,0,0-3.26-2.46,10.59,10.59,0,0,0-3.94-.78l.1-.46A7.44,7.44,0,0,0,71.43,318a6.6,6.6,0,0,0,.78-4,4.93,4.93,0,0,0-1-2.74,4.43,4.43,0,0,0-2-1.45,6.23,6.23,0,0,0-2.6-.27A4.52,4.52,0,0,0,62.69,312a13.89,13.89,0,0,0-1.06,6.51h-.46l-2.62-8a13.13,13.13,0,0,1,4.74-2.36A23.25,23.25,0,0,1,70,307.25Z" transform="translate(5)"/><path class="cls-5" d="M90.61,340.64a4.1,4.1,0,1,1,3-1.21A4,4,0,0,1,90.61,340.64Z" transform="translate(5)"/><path class="cls-5" d="M98.07,340l0-.46h1a2.41,2.41,0,0,0,1.79-.74,2.38,2.38,0,0,0,.74-1.74V313.73a3.11,3.11,0,0,0-.83-2.48,3.34,3.34,0,0,0-2.21-.69h-.83v-.46c.65,0,1.51-.11,2.6-.25s2.26-.32,3.52-.55a34.91,34.91,0,0,0,3.66-.88,13.43,13.43,0,0,0,3-1.26H111V337.1a2.31,2.31,0,0,0,.76,1.73,2.54,2.54,0,0,0,1.77.71h1V340Z" transform="translate(5)"/><path class="cls-4" d="M286.83,332.62c0,2.19-1.32,3.51-2.95,3.51s-2.88-1.25-2.88-3.4,1.3-3.52,2.88-3.52S286.83,330.51,286.83,332.62Zm-4.28.07c0,1.93.5,3,1.33,3s1.38-1.08,1.38-3-.52-3-1.38-3S282.55,330.73,282.55,332.69Zm1,8.78,7.86-12.8.52.32-7.86,12.8Zm10.88-3.82c0,2.21-1.28,3.52-2.9,3.52s-2.93-1.27-2.93-3.41,1.33-3.51,2.93-3.51S294.46,335.54,294.46,337.65Zm-4.26.06c0,1.94.51,3,1.36,3s1.35-1.07,1.35-3-.5-3-1.35-3S290.2,335.78,290.2,337.71Z" transform="translate(5)"/><path class="cls-5" d="M194.49,340l0-.46h1a2.53,2.53,0,0,0,2.53-2.48V313.73a3.11,3.11,0,0,0-.83-2.48,3.34,3.34,0,0,0-2.21-.69h-.82v-.46c.64,0,1.51-.11,2.6-.25s2.26-.32,3.51-.55a34.91,34.91,0,0,0,3.66-.88,13.23,13.23,0,0,0,3-1.26h.46V337.1a2.31,2.31,0,0,0,.76,1.73,2.54,2.54,0,0,0,1.77.71h1V340Z" transform="translate(5)"/><path class="cls-5" d="M228.16,307.16a13,13,0,0,1,12.56,7.93,23.63,23.63,0,0,1,0,17.6,13,13,0,0,1-12.56,7.95,13.64,13.64,0,0,1-7.66-2.09,13.43,13.43,0,0,1-4.9-5.86,23.63,23.63,0,0,1,0-17.6,13.49,13.49,0,0,1,4.9-5.84A13.64,13.64,0,0,1,228.16,307.16Zm0,2.3q-2.39,0-3.5,3.52t-1.1,10.92q0,7.41,1.1,10.93t3.5,3.51q2.39,0,3.5-3.51t1.1-10.93q0-7.41-1.1-10.92T228.16,309.46Z" transform="translate(5)"/><path class="cls-5" d="M259.9,307.16a13,13,0,0,1,12.56,7.93,23.63,23.63,0,0,1,0,17.6,13.46,13.46,0,0,1-4.88,5.86,15.12,15.12,0,0,1-15.34,0,13.43,13.43,0,0,1-4.9-5.86,23.63,23.63,0,0,1,0-17.6,13,13,0,0,1,12.56-7.93Zm0,2.3c-1.6,0-2.76,1.17-3.5,3.52s-1.1,6-1.1,10.92.37,8.58,1.1,10.93,1.9,3.51,3.5,3.51,2.76-1.17,3.5-3.51,1.1-6,1.1-10.93-.37-8.58-1.1-10.92S261.49,309.46,259.9,309.46Z" transform="translate(5)"/><path class="cls-4" d="M22.86,189.39a11.15,11.15,0,0,1-1,1.92l.1,0h4.44c.53-.56.64-.64.75-.64s.26.08.8.57c.25.23.34.32.34.44s0,.19-.42.42v1c0,3.91,0,4.31,0,4.91a1.21,1.21,0,0,1-.45,1.14,1.8,1.8,0,0,1-1.1.35c-.17,0-.23-.06-.27-.32-.08-.58-.35-.76-1.68-1.14-.07,0-.07-.17,0-.17.75.06,1.22.09,1.92.09.18,0,.21,0,.21-.18v-1.92H21.79c0,1.51,0,2.32,0,3.12,0,.39-.29.56-.84.56s-.57-.12-.57-.42.07-1.64.07-2.66v-3.5A12.14,12.14,0,0,1,17.52,195c-.06,0-.16-.13-.1-.17a13.92,13.92,0,0,0,4.06-5.44H18.81a8.48,8.48,0,0,0-1.14.09l-.15-.52a7.56,7.56,0,0,0,1.25.11h2.84a11,11,0,0,0,.67-2.43c1.42.3,1.81.47,1.81.65s-.17.28-.59.4c-.15.49-.32.95-.5,1.38h4.72c.68-.8.85-.91,1-.91s.29.11,1,.63c.32.25.43.37.43.46s0,.14-.18.14Zm3.64,4v-1.7H21.79v1.7Zm-4.71,2.16H26.5v-1.84H21.79Z" transform="translate(5)"/><path class="cls-4" d="M34.6,195.22a9.89,9.89,0,0,1-1.68,3.31c0,.05-.18,0-.16-.1a19.52,19.52,0,0,0,.61-2.63,11.73,11.73,0,0,0,.12-1.52c1.35.41,1.53.49,1.53.68S34.91,195.15,34.6,195.22Zm-.1-2.67a23.32,23.32,0,0,0,1.3-2.36,9.67,9.67,0,0,0,.69-1.69c1.15.47,1.57.7,1.57.87s-.14.22-.52.21a20.89,20.89,0,0,1-2.59,3c.42,0,1.4,0,2.1-.07a4.51,4.51,0,0,0-.52-1.07c0-.06.06-.11.11-.08a4.46,4.46,0,0,1,1.13.78A12.84,12.84,0,0,0,40,188.27a11.27,11.27,0,0,0,.49-1.72c1.5.38,1.79.51,1.79.69s-.06.21-.48.25a7,7,0,0,0,1.67,2.23A6.6,6.6,0,0,0,46,191.06a.07.07,0,0,1,0,.14,1.32,1.32,0,0,0-.71,1c-.06.23-.12.3-.24.3a1.34,1.34,0,0,1-.46-.3A8.21,8.21,0,0,1,43,190.49a12.55,12.55,0,0,1-1.34-2.79,10.4,10.4,0,0,1-3.71,4.55,1.49,1.49,0,0,1,.42,1,.66.66,0,0,1-.61.73c-.38,0-.46-.14-.56-1l0-.18c-.3.1-.59.2-.89.28v2c0,1.5,0,3.38,0,4,0,.38-.25.54-.71.54s-.56-.1-.56-.41.08-1.25.08-3.07v-2.74c-.4.09-.85.18-1.33.26-.08.28-.18.39-.29.39s-.3-.27-.53-1.52a7.18,7.18,0,0,0,.74,0Zm.34-4.84c.08-.4.15-.78.18-1.09,1.13.35,1.68.6,1.68.78s-.18.26-.55.26a13.21,13.21,0,0,1-1.51,1.75,1.22,1.22,0,0,1,.63,1.05c0,.48-.28.8-.64.8s-.41-.06-.62-.86a2.66,2.66,0,0,0-.78-1.44c0-.06,0-.18.09-.15a6.84,6.84,0,0,1,1.08.44C34.57,188.76,34.71,188.22,34.84,187.71Zm2.53,9.71c-.31,0-.46-.27-.49-1.13a5.11,5.11,0,0,0-.39-1.85.07.07,0,0,1,.1-.09,3,3,0,0,1,1.43,2.2C38,197,37.74,197.42,37.37,197.42Zm2.45,1.05V199c0,.35-.22.53-.77.53-.39,0-.53-.15-.53-.46,0-.56.07-1.13.07-3.4,0-.72,0-1.43-.07-2.15.7.31.8.35,1.46.7h2.9c.52-.59.63-.67.74-.67s.25.08.74.5c.21.19.3.28.3.4s-.06.19-.4.45v.65c0,1.77.07,3,.07,3.37s-.21.53-.75.53S43,199.31,43,199v-.53Zm2-6.5c.49-.7.66-.81.76-.81s.28.11.84.57c.23.2.35.33.35.42s0,.14-.19.14H40a4.34,4.34,0,0,0-.81.09l-.16-.52a4.23,4.23,0,0,0,.93.11ZM43,194.53H39.82v3.62H43Z" transform="translate(5)"/><path class="cls-4" d="M49.45,187.83h-.29a3.47,3.47,0,0,0-.74.08l-.16-.52a3.7,3.7,0,0,0,.93.11h4.69c.59-.67.76-.78.85-.78s.28.11.84.55c.26.21.37.32.37.42s0,.14-.18.14H54v4c0,2.68,0,6,0,7.1,0,.45-.23.63-.76.63s-.59-.14-.59-.54.07-1.1.07-2.74v-.44a17.34,17.34,0,0,1-3.54,1.62c-.1.38-.21.53-.39.53s-.21,0-.68-1.73c.4,0,.85-.07,1.29-.13Zm1.25,2.39h2.07v-2.39H50.7Zm0,2.61h2.07v-2.29H50.7Zm0,3.08q1-.16,2.07-.42v-2.34H50.7ZM58.78,189c.58-.65.67-.75.81-.75s.27.07.8.55c.35.31.38.41.38.55s-.11.26-.46.44a15.33,15.33,0,0,1-2,5.55,10.21,10.21,0,0,0,3.22,2.29c.07,0,0,.13,0,.16a1.18,1.18,0,0,0-.76.93c-.07.29-.11.36-.25.36a1.19,1.19,0,0,1-.52-.29,10,10,0,0,1-2.39-2.43A10.41,10.41,0,0,1,54.26,199c-.06,0-.17-.14-.11-.18a12.63,12.63,0,0,0,2.78-3.4l-.29-.63a17.44,17.44,0,0,1-1.26-5.45c-.34,0-.62,0-.87.07l-.14-.52a4.29,4.29,0,0,0,1.23.13Zm-3.05.32a14,14,0,0,0,1.76,5,18.35,18.35,0,0,0,1.42-5Z" transform="translate(5)"/><path class="cls-4" d="M65.26,193.25a11.46,11.46,0,0,1-1.68,1.16c-.06,0-.17-.09-.11-.14a15.38,15.38,0,0,0,2.35-3.15,7.25,7.25,0,0,0,.63-1.52c1.47.62,1.53.66,1.53.83s-.11.2-.49.3a8.72,8.72,0,0,1-1.29,1.65c.59.1.68.15.68.29s-.08.21-.37.34v6c0,.4-.24.58-.73.58-.32,0-.6-.12-.6-.53s.08-1.47.08-3.68Zm2.07-5.48a10,10,0,0,1-3.57,2.84c-.07,0-.14-.11-.08-.15a11.53,11.53,0,0,0,1.87-2.4,5.56,5.56,0,0,0,.7-1.5c1.24.55,1.69.79,1.69,1S67.78,187.77,67.33,187.77Zm6.88,8.39c0,.66,0,1.32,0,2a1.16,1.16,0,0,1-.37.88,1.47,1.47,0,0,1-1.12.38.28.28,0,0,1-.32-.27c-.11-.53-.38-.69-1.46-1-.06,0-.06-.21,0-.21.68,0,1.21.07,1.74.07.2,0,.24,0,.24-.21V195h-4.5a8.71,8.71,0,0,0-1,.08l-.16-.52a5.94,5.94,0,0,0,1.17.12H73v-.34a8.21,8.21,0,0,0-.06-1c1.49.17,1.7.22,1.7.44s-.1.18-.38.32v.63h.52c.5-.61.67-.72.77-.72s.28.11.76.51c.21.17.32.29.32.39s0,.14-.18.14H74.21Zm.17-3.39c.55-.66.71-.77.81-.77s.28.11.84.53c.25.21.37.32.37.42s-.05.14-.19.14H68.62a6.47,6.47,0,0,0-1,.09l-.16-.52a6.31,6.31,0,0,0,1.14.11Zm-4.48-1.39c0,.41-.21.58-.7.58s-.61-.14-.61-.45.07-.74.07-2.23c0-.8,0-1.59-.07-2.41a10.24,10.24,0,0,1,1.42.69h3.42c.49-.55.6-.63.71-.63s.25.08.74.5c.23.2.31.3.31.41s0,.18-.39.45v.5c0,1.35.06,2.27.06,2.58s-.24.59-.73.59-.56-.14-.56-.55v0Zm.32,6.46c-.37,0-.48-.14-.65-.76a3.18,3.18,0,0,0-.75-1.41c0-.06,0-.15.1-.14,1.42.31,2,.85,2,1.47A.75.75,0,0,1,70.22,197.84Zm3.35-10H69.9v1.43h3.67Zm0,1.75H69.9v1.43h3.67Z" transform="translate(5)"/><path class="cls-4" d="M85.93,196.34c0,1.47,0,2.48,0,2.83s-.31.48-.81.48-.59-.11-.59-.51.05-1.13.07-2.8H80.31a6.72,6.72,0,0,0-1,.09l-.16-.52a6.41,6.41,0,0,0,1.15.11h4.36v-.08a15.44,15.44,0,0,0-.07-1.56c1.64.17,1.82.22,1.82.43s-.07.19-.46.38V196H89.4c.7-.87.87-1,1-1s.28.11,1,.69c.32.25.44.37.44.47s0,.14-.19.14Zm-5.54-2c0,.42,0,.56-.25.56s-.39-.35-.92-1.51c.42-.11.82-.23,1.2-.35a15,15,0,0,0,2.51-1c.06,0,.18.11.14.17A10.32,10.32,0,0,1,80.39,194.38Zm4.28-5.66c1,.38,1.28.55,1.28.72s0,.15-.49.16a7.15,7.15,0,0,1-1.23,1.07,1.13,1.13,0,0,1,.48.87.6.6,0,0,1-.58.66c-.33,0-.37-.06-.6-.75a3.2,3.2,0,0,0-.85-1.29.07.07,0,0,1,0-.12,4.84,4.84,0,0,1,1.12.39c.13-.27.26-.53.37-.8a4.92,4.92,0,0,0,.32-.91H80.37a6.24,6.24,0,0,0-1,.09l-.16-.52a6,6,0,0,0,1.11.11h4.23v-1a6.1,6.1,0,0,0-.07-.83c1.73.15,1.9.31,1.9.46s-.15.28-.49.4v.92h3.34c.77-.84.93-1,1-1s.27.11.93.66c.29.25.4.37.4.47s0,.14-.18.14Zm-3.11,3.17c-.38,0-.48-.13-.73-.87a3.28,3.28,0,0,0-.9-1.5.08.08,0,0,1,.07-.13c1.54.45,2.26,1,2.26,1.71A.74.74,0,0,1,81.56,191.89Zm5.26,1.4a4.16,4.16,0,0,0-.57-.84c0-.06,0-.13.1-.1,1.19.39,1.94,1,1.94,1.69a.68.68,0,0,1-.65.72c-.33,0-.4-.1-.59-.86,0-.11-.07-.22-.11-.33a18.75,18.75,0,0,1-3.66.91c-.07.31-.11.38-.24.38s-.31-.24-.6-1.52c.63,0,1,0,1.43,0A17.72,17.72,0,0,0,85.66,191a8.34,8.34,0,0,0,.6-1.13c1.21.63,1.42.77,1.42.95s0,.16-.59.18a30.74,30.74,0,0,1-2.65,2.36C85.24,193.37,86,193.34,86.82,193.29Zm3.49-2.9A10.39,10.39,0,0,1,87.65,192c-.07,0-.18-.08-.13-.13a10.13,10.13,0,0,0,1.39-1.66,4.72,4.72,0,0,0,.53-1c1.08.56,1.43.8,1.43,1S90.76,190.4,90.31,190.39Zm-.07,4.21c-.35,0-.46-.11-.85-.79a3.74,3.74,0,0,0-1.33-1.4c-.06,0,0-.16,0-.14,1.88.28,2.8.82,2.8,1.63A.67.67,0,0,1,90.24,194.6Z" transform="translate(5)"/><line class="cls-7" x1="167.5" y1="165.49" x2="167.5" y2="366.2"/><line class="cls-7" y1="165.49" x2="335" y2="165.49"/><rect class="cls-4" x="52.97" y="217.81" width="68.97" height="38.51"/><path class="cls-8" d="M62.77,263.58A6.54,6.54,0,1,0,56.23,257,6.54,6.54,0,0,0,62.77,263.58Z" transform="translate(5)"/><path class="cls-8" d="M62.77,267.06c-4.79,0-8.28,5.67-8.28,9.16v7H71.05v-7C71.05,272.73,67.57,267.06,62.77,267.06Z" transform="translate(5)"/><path class="cls-8" d="M83.55,263.58A6.54,6.54,0,1,0,77,257,6.54,6.54,0,0,0,83.55,263.58Z" transform="translate(5)"/><path class="cls-8" d="M83.55,267.06c-4.79,0-8.28,5.67-8.28,9.16v7H91.83v-7C91.83,272.73,88.35,267.06,83.55,267.06Z" transform="translate(5)"/><path class="cls-8" d="M102.29,268.43a4.92,4.92,0,1,0-4.92-4.92A4.92,4.92,0,0,0,102.29,268.43Z" transform="translate(5)"/><path class="cls-8" d="M102.29,271.06c-3.61,0-6.23,4.26-6.23,6.88v5.25h12.46v-5.25C108.52,275.32,105.89,271.06,102.29,271.06Z" transform="translate(5)"/><path class="cls-4" d="M62.77,263.58A6.54,6.54,0,1,0,56.23,257,6.54,6.54,0,0,0,62.77,263.58Z" transform="translate(5)"/><path class="cls-4" d="M62.77,267.06c-4.79,0-8.28,5.67-8.28,9.16v7H71.05v-7C71.05,272.73,67.57,267.06,62.77,267.06Z" transform="translate(5)"/><path class="cls-4" d="M83.55,263.58A6.54,6.54,0,1,0,77,257,6.54,6.54,0,0,0,83.55,263.58Z" transform="translate(5)"/><path class="cls-4" d="M83.55,267.06c-4.79,0-8.28,5.67-8.28,9.16v7H91.83v-7C91.83,272.73,88.35,267.06,83.55,267.06Z" transform="translate(5)"/><path class="cls-4" d="M102.29,268.43a4.92,4.92,0,1,0-4.92-4.92A4.92,4.92,0,0,0,102.29,268.43Z" transform="translate(5)"/><path class="cls-4" d="M102.29,271.06c-3.61,0-6.23,4.26-6.23,6.88v5.25h12.46v-5.25C108.52,275.32,105.89,271.06,102.29,271.06Z" transform="translate(5)"/><rect class="cls-4" x="52.97" y="282.75" width="68.97" height="4.54"/></g></g></g></svg>