<?xml version="1.0" encoding="utf-8"?>
<!-- Generator: Adobe Illustrator 25.4.1, SVG Export Plug-In . SVG Version: 6.00 Build 0)  -->
<svg version="1.1" id="レイヤー_1" xmlns="http://www.w3.org/2000/svg" xmlns:xlink="http://www.w3.org/1999/xlink" x="0px"
	 y="0px" viewBox="0 0 335 366.2" style="enable-background:new 0 0 335 366.2;" xml:space="preserve">
<style type="text/css">
	.st0{fill:none;}
	.st1{fill:#333333;}
	.st2{fill:#E8314B;}
	.st3{fill:#FFFFFF;}
	.st4{fill:none;stroke:#FFFFFF;stroke-width:1.03;stroke-miterlimit:10;}
	.st5{fill:none;stroke:#E8314B;stroke-width:1.76;stroke-miterlimit:10;}
	.st6{fill:none;stroke:#FFFFFF;stroke-width:4.09;}
</style>
<rect x="5" class="st0" width="325" height="361.2"/>
<path class="st1" d="M279.9,134c0,0.4-0.3,0.6-0.9,0.6s-0.6-0.1-0.6-0.5c0-1.1,0.1-2.3,0.1-6.9c0-1.5,0-2.9-0.1-4.4
	c0.6,0.2,1.1,0.5,1.6,0.8h1.4c0.5-0.6,0.7-0.7,0.8-0.7s0.3,0.1,0.9,0.5c0.2,0.2,0.4,0.3,0.4,0.4s-0.1,0.2-0.4,0.5v1.5
	c0,4,0.1,6.7,0.1,7.6c0,0.4-0.3,0.6-0.9,0.6s-0.6-0.1-0.6-0.5V133h-1.7V134z M281.5,123.9h-1.7v4h1.7V123.9z M281.5,128.3h-1.7v4.3
	h1.7V128.3z M288.1,127.5h2.2c0.7-0.9,0.9-1,1-1s0.3,0.1,1.1,0.7c0.3,0.3,0.5,0.4,0.5,0.5s0,0.2-0.2,0.2h-8.3c-0.3,0-0.6,0-0.9,0.1
	l-0.2-0.6c0.4,0.1,0.7,0.1,1.1,0.1h2.3V125h-1.8c-0.3,0-0.6,0-0.9,0.1l-0.2-0.6c0.3,0.1,0.7,0.1,1,0.1h1.9v-1.4c0-0.4,0-0.8-0.1-1.3
	c1.9,0.2,2.1,0.3,2.1,0.5s-0.2,0.3-0.5,0.4v1.7h1.5c0.7-0.9,0.9-1,1-1s0.3,0.1,1.1,0.7c0.3,0.3,0.5,0.4,0.5,0.5s0,0.2-0.2,0.2h-3.8
	V127.5z M290.3,132.3c0,0.6,0,2,0,2.6s-0.1,0.9-0.4,1.2c-0.4,0.4-1,0.6-1.5,0.6c-0.1,0-0.2-0.1-0.3-0.2c-0.1-0.8-0.6-1.1-1.8-1.4
	c-0.1,0-0.1-0.2,0-0.2c0.8,0,1.6,0.1,2.2,0.1c0.2,0,0.3-0.1,0.3-0.3v-4.1h-4.4c-0.3,0-0.6,0-0.9,0.1l-0.2-0.6
	c0.4,0.1,0.7,0.1,1.1,0.1h4.4v-0.7c0-0.4,0-0.9-0.1-1.3c1.6,0.1,2.1,0.2,2.1,0.5s-0.1,0.3-0.5,0.4v1.1h0.4c0.6-0.7,0.8-0.8,0.9-0.8
	s0.3,0.1,0.9,0.6c0.2,0.2,0.4,0.3,0.4,0.4s0,0.2-0.2,0.2h-2.3L290.3,132.3z M286.3,134.1c-0.4,0-0.6-0.3-0.8-1
	c-0.1-0.6-0.4-1.2-1-1.6c-0.1,0,0-0.1,0.1-0.1c1.8,0.4,2.5,0.9,2.5,1.8C287.2,133.7,286.9,134.1,286.3,134.1L286.3,134.1z"/>
<path class="st1" d="M299,127.3v8.8c0,0.4-0.3,0.6-0.9,0.6c-0.5,0-0.7-0.2-0.7-0.6c0-1.2,0.1-2.4,0.1-7.1c0-2.4,0-4.8-0.1-7.2
	c0.6,0.2,1.2,0.5,1.7,0.8h2.8c0.5-0.6,0.7-0.7,0.8-0.7s0.3,0.1,0.9,0.6c0.3,0.2,0.4,0.3,0.4,0.4s-0.1,0.2-0.5,0.5v0.6
	c0,1.7,0,2.9,0,3.2s-0.3,0.6-0.9,0.6s-0.6-0.1-0.6-0.5v-0.2L299,127.3z M302.2,123.1H299v1.6h3.1V123.1z M302.2,125.1H299v1.8h3.1
	V125.1z M302.6,134v0.6c0,0.4-0.2,0.6-0.8,0.6c-0.4,0-0.6-0.1-0.6-0.5c0-0.5,0-1.1,0-3.2c0-1,0-2-0.1-3c0.6,0.2,1.1,0.5,1.6,0.8h3
	c0.5-0.6,0.7-0.7,0.8-0.7s0.3,0.1,0.8,0.5c0.3,0.2,0.4,0.3,0.4,0.5s-0.1,0.2-0.5,0.4v0.7c0,1.9,0,3.2,0,3.6s-0.2,0.6-0.8,0.6
	s-0.6-0.2-0.6-0.5V134L302.6,134z M306,129.6h-3.4v1.7h3.4L306,129.6z M306,131.7h-3.4v1.9h3.4L306,131.7z M306.5,127.3L306.5,127.3
	c0,0.5-0.3,0.7-0.8,0.7s-0.6-0.1-0.6-0.5c0-0.6,0-1.2,0-3.7c0-0.6,0-1.2-0.1-1.8c0.6,0.2,1.1,0.5,1.6,0.8h2.9
	c0.6-0.6,0.7-0.7,0.8-0.7s0.3,0.1,0.9,0.6c0.3,0.2,0.4,0.4,0.4,0.5s-0.1,0.3-0.4,0.5v1.9c0,8.9,0,9.3,0,9.8c0,0.4-0.1,0.7-0.3,1
	c-0.4,0.4-0.9,0.5-1.4,0.5c-0.2,0-0.3,0-0.3-0.2c-0.1-0.7-0.4-1-1.6-1.3c-0.1,0-0.1-0.2,0-0.2c1,0.1,1.2,0.1,1.9,0.1
	c0.2,0,0.2,0,0.2-0.2v-7.5L306.5,127.3z M309.7,123.1h-3.2v1.6h3.2V123.1z M309.7,125.1h-3.2v1.8h3.2V125.1z"/>
<path class="st2" d="M148.7,106.6l-4-10.8c1.3-1.1,2.7-2,4.3-2.6c1.8-0.7,3.6-1.2,5.5-1.6c1.9-0.4,3.9-0.5,5.9-0.5
	c3,0,6,0.5,8.8,1.5c2.4,0.8,4.5,2.3,6.1,4.2c1.5,1.9,2.3,4.2,2.2,6.6c0,1.9-0.4,3.7-1.2,5.4c-0.8,1.7-1.9,3.3-3.2,4.7
	c-1.3,1.5-2.8,2.8-4.3,4c-1.6,1.2-3.1,2.3-4.6,3.3l-4.1,2.6h11.4c1.1,0,2.2-0.2,3.3-0.7c1-0.5,2-1.2,2.7-2.1
	c0.9-1.1,1.7-2.3,2.2-3.5h0.6l-4.1,16.9H145v-0.6c1.7-2.1,3.5-4.2,5.3-6.4c1.8-2.1,3.6-4.2,5.3-6.3c1.6-2,3.2-4.1,4.6-6.3
	c1.3-1.9,2.4-4,3.2-6.2c0.8-1.9,1.2-4,1.2-6.1c0.1-2.2-0.6-4.4-2-6.1c-1.4-1.5-3.5-2.2-5.6-1.9c-2.4,0.1-4.5,1.4-5.7,3.4
	c-1.3,2.1-1.9,5.1-1.9,9L148.7,106.6z"/>
<path class="st2" d="M184.3,92.1l31.8-0.1l-7.7,17.8c-0.5,1.2-1.1,2.6-1.7,4.2c-0.6,1.6-1.2,3.4-1.9,5.3c-0.7,1.9-1.3,3.7-1.9,5.6
	s-1.1,3.6-1.7,5.2c-0.5,1.6-0.9,2.9-1.2,4H190c0.7-1.2,1.6-2.7,2.6-4.4c1-1.7,2-3.5,3.1-5.4l3.2-5.7c1.1-1.9,2-3.7,2.9-5.3
	s1.5-3,2-4.1l3.1-6.7h-19.2c-1-0.1-2,0.3-2.8,0.9c-0.8,0.7-1.4,1.7-1.7,2.7h-0.6L184.3,92.1z"/>
<path class="st2" d="M224.2,134.8c-3,0-5.4-2.4-5.4-5.4c0-3,2.4-5.4,5.4-5.4c3,0,5.4,2.4,5.4,5.4c0,1.4-0.6,2.8-1.6,3.8
	C227,134.2,225.6,134.8,224.2,134.8z"/>
<path class="st2" d="M248.4,91.2c2.8-0.1,5.6,0.4,8.2,1.2c2,0.7,3.8,1.9,5.2,3.5c1.2,1.6,1.9,3.6,1.8,5.6c0,1.5-0.3,3-1,4.3
	c-0.6,1.2-1.5,2.1-2.6,2.9c-1.1,0.7-2.3,1.2-3.5,1.4c-1.2,0.2-2.4,0.2-3.6-0.2c1.3,0,2.7,0.2,3.9,0.6c1.5,0.4,2.8,1,4.1,1.9
	c1.3,0.9,2.4,2.2,3.2,3.7c0.9,1.8,1.3,3.8,1.3,5.8c0.1,2.6-0.6,5.2-2,7.4c-1.3,2.1-3.1,4-5.2,5.3c-2.3,1.4-4.8,2.4-7.4,2.9
	c-2.8,0.6-5.6,0.7-8.5,0.5c-2.9-0.3-5.7-1-8.3-2.2l0.1-0.6c2.4,0.1,4.7-0.3,7-0.9c2.1-0.6,4.1-1.6,5.9-2.9c1.6-1.2,3-2.8,4-4.6
	c1-1.8,1.5-3.9,1.5-6c0.1-2.1-0.5-4.1-1.7-5.8c-1.1-1.4-2.6-2.5-4.3-3.2c-1.6-0.7-3.4-1-5.1-1l0.1-0.6c3.6,0.1,7-1.8,8.8-5
	c0.9-1.6,1.2-3.4,1-5.2c0-1.3-0.5-2.6-1.2-3.6c-0.7-0.9-1.6-1.5-2.7-1.9c-1.1-0.4-2.2-0.5-3.4-0.4c-2.1,0-4.1,1.2-5.1,3.2
	c-1,1.9-1.5,4.7-1.4,8.5h-0.6l-3.4-10.4c1.8-1.4,3.9-2.5,6.2-3.1C242.5,91.6,245.4,91.2,248.4,91.2z"/>
<path class="st1" d="M126.7,34.4h3.3c0.8-1,1-1.1,1.1-1.1s0.3,0.1,1.1,0.8c0.4,0.3,0.5,0.4,0.5,0.5s0,0.1-0.2,0.1h-5.8v0.2
	c0,2.7,0,3.8,0,4.9c0,0.5-0.3,0.6-0.9,0.6s-0.6-0.1-0.6-0.5s0.1-2.7,0.1-5v-0.2h-4.1c-0.4,0-0.8,0-1.3,0.1l-0.2-0.5
	c0.5,0.1,1,0.1,1.5,0.1h4.1v-5.5h-3.4c-0.4,0-0.8,0-1.3,0.1l-0.2-0.5c0.5,0.1,1,0.1,1.4,0.1h7.8c0.7-0.9,0.9-1,1-1
	c0.1,0,0.3,0.1,1,0.7c0.3,0.3,0.4,0.4,0.4,0.5s0,0.1-0.2,0.1h-5.1V34.4z M123.1,33.5c-0.4,0-0.5-0.2-0.7-1c-0.1-1-0.5-1.9-1-2.8
	c0,0,0.1-0.1,0.1-0.1c1.6,0.9,2.4,1.9,2.4,2.9C124,33.1,123.6,33.5,123.1,33.5z M130.6,30.6c-0.8,1.3-1.8,2.4-3.1,3.3
	c0,0-0.2-0.1-0.1-0.1c0.7-0.9,1.3-2,1.7-3.1c0.2-0.4,0.3-0.9,0.4-1.4c1.2,0.5,1.7,0.8,1.7,1S131.1,30.6,130.6,30.6z"/>
<path class="st1" d="M140,31.9c0.4-0.8,0.7-1.6,1-2.5c0.2-0.6,0.3-1.2,0.3-1.8c1.6,0.4,1.9,0.5,1.9,0.7s-0.1,0.3-0.5,0.3
	c-0.2,0.6-0.5,1.2-0.8,1.7h4.1c0.5-0.6,0.6-0.7,0.8-0.7s0.2,0.1,0.8,0.6c0.2,0.2,0.3,0.3,0.3,0.5s0,0.1-0.4,0.4
	c-0.1,4.2-0.2,6-0.6,7.5c-0.1,0.5-0.4,0.9-0.7,1.2c-0.4,0.3-0.8,0.5-1.3,0.5c-0.3,0-0.3,0-0.4-0.4s-0.5-0.8-1.6-1.1
	c-0.1,0-0.1-0.2,0-0.2c0.5,0.1,1.1,0.1,1.6,0.1c0.6,0,0.8,0,0.9-0.3c0.5-0.9,0.7-2.9,0.8-7.8h-4.4c-0.6,1.1-1.5,2.1-2.5,2.8
	c-0.1,0-0.2,0-0.1-0.1C139.4,33,139.8,32.4,140,31.9c0,0.1-0.1,0.1-0.1,0.1h-1.6v3.9c0.6-0.2,1.3-0.4,1.8-0.7c0.1,0,0.1,0.1,0.1,0.1
	c-1.2,1-2.5,1.8-3.9,2.5c0,0.5-0.1,0.6-0.3,0.6s-0.5-0.5-0.9-1.7c0.4-0.1,0.8-0.1,1.2-0.2l0.8-0.2V32h-0.9c-0.2,0-0.5,0-0.7,0.1
	l-0.1-0.5c0.3,0.1,0.5,0.1,0.8,0.1h1v-2.3c0-0.7,0-1.2-0.1-1.7c1.7,0.1,1.9,0.3,1.9,0.5s-0.2,0.2-0.5,0.4v3h0.1
	c0.4-0.7,0.6-0.8,0.7-0.8s0.2,0.1,0.7,0.5C140,31.5,140.1,31.7,140,31.9L140,31.9z M140.8,37.6c0,0.4-0.1,0.6-0.3,0.6
	s-0.4-0.3-0.9-1.7c0.4,0,0.8-0.1,1.2-0.2c1.5-0.3,2.9-0.6,4.3-1.1c0.1,0,0.1,0.1,0.1,0.1C143.8,36.3,142.3,37.1,140.8,37.6
	L140.8,37.6z M143,33.2c0.6-0.7,0.7-0.8,0.8-0.8s0.3,0.1,0.8,0.6c0.2,0.2,0.3,0.3,0.3,0.4s0,0.1-0.2,0.1h-3.6c-0.2,0-0.4,0-0.6,0.1
	l-0.1-0.5c0.2,0.1,0.5,0.1,0.7,0.1H143z"/>
<path class="st1" d="M154.4,31.5c0.5-0.5,0.6-0.6,0.7-0.6s0.2,0.1,0.7,0.5c0.2,0.2,0.3,0.3,0.3,0.4c0,0.1,0,0.2-0.4,0.3
	c-0.7,4.2-2.1,6.3-5.1,8c-0.1,0-0.1-0.1-0.1-0.1c1.5-1.3,2.6-3,3.1-4.8c-0.1,0.1-0.2,0.1-0.4,0.1c-0.2,0-0.4-0.1-0.4-0.6
	c-0.1-0.5-0.3-1-0.6-1.4c-0.5,0.8-1.1,1.4-1.8,2c0,0-0.1-0.1-0.1-0.1c1.1-1.9,1.8-4.1,1.9-6.3h-0.6c-0.3,0-0.6,0-0.9,0.1l-0.2-0.5
	c0.4,0.1,0.7,0.1,1.1,0.1h2.9c0.6-0.7,0.8-0.8,0.9-0.8s0.3,0.1,0.9,0.6c0.3,0.2,0.4,0.3,0.4,0.4s0,0.1-0.2,0.1h-3
	c-0.1,0.8-0.3,1.6-0.5,2.4L154.4,31.5z M153.1,31.9c-0.2,0.5-0.4,1-0.6,1.4c0.6,0.3,1.3,0.6,1.4,1.3c0.3-0.9,0.4-1.8,0.6-2.8
	L153.1,31.9z M159.2,32.7c0.1,0.6,0.2,1.2,0.3,1.8l1.7-0.2c0.6-0.8,0.7-0.9,0.8-0.9s0.3,0.1,0.9,0.5c0.3,0.2,0.4,0.3,0.4,0.4
	s-0.1,0.1-0.1,0.1l-3.6,0.5c0.1,0.5,0.3,1,0.5,1.5c0.4-0.4,0.7-0.8,1-1.3c1.1,0.6,1.5,0.8,1.5,1s-0.1,0.2-0.7,0.2
	c-0.4,0.4-0.7,0.7-1.1,1.1c0.1,0.2,0.3,0.4,0.4,0.5c0.3,0.4,0.7,0.7,1.1,0.8c0.2,0,0.3-0.1,1-1.6c0-0.1,0.2,0,0.2,0
	c-0.1,1.1-0.2,1.7-0.2,1.8c0,0.1,0,0.2,0.1,0.3c0.2,0.1,0.3,0.3,0.3,0.6c0,0.4-0.3,0.6-0.7,0.6c-0.9-0.2-1.8-0.7-2.4-1.4
	c-0.3-0.3-0.6-0.6-0.8-0.9c-1.7,1.1-3.5,1.7-5.5,1.9c-0.1,0-0.1-0.1-0.1-0.1c1.8-0.5,3.5-1.4,5-2.6c-0.4-0.7-0.6-1.4-0.8-2.2
	l-1.6,0.2c-0.3,0-0.6,0.1-0.9,0.2l-0.2-0.5c0.4,0,0.7,0,1.1,0l1.6-0.2c-0.1-0.7-0.2-1.2-0.3-1.8l-0.9,0.1c-0.3,0-0.6,0.1-0.9,0.2
	l-0.2-0.5c0.4,0,0.7,0,1.1,0l0.9-0.1c-0.1-0.6-0.1-1.1-0.1-1.7L157,31c-0.3,0-0.6,0.1-0.9,0.2l-0.2-0.5c0.4,0,0.7,0,1.1,0l0.9-0.1
	c0-0.3,0-0.6,0-0.9c0-0.6,0-1.3-0.1-1.9c1.5,0.2,1.8,0.3,1.8,0.5s-0.1,0.2-0.4,0.4c0,0.7,0,1.2,0,1.8l1.9-0.2
	c0.5-0.7,0.6-0.8,0.7-0.8s0.3,0.1,0.8,0.4c0.2,0.2,0.3,0.3,0.3,0.4c0,0.1-0.1,0.1-0.1,0.1c0,0,0,0,0,0l-3.5,0.5c0,0.6,0,1.1,0.1,1.7
	l1.5-0.2c0.5-0.8,0.6-0.8,0.7-0.8s0.3,0.1,0.9,0.4c0.3,0.2,0.4,0.3,0.4,0.4c0,0.1-0.1,0.1-0.1,0.1L159.2,32.7z M160.8,29.6
	c-0.2,0-0.3,0-0.5-0.5c-0.2-0.3-0.4-0.6-0.7-0.9c-0.1,0,0-0.1,0.1-0.1c1.2,0.1,1.7,0.4,1.7,1C161.3,29.4,161.1,29.6,160.8,29.6
	C160.8,29.6,160.8,29.6,160.8,29.6z"/>
<path class="st1" d="M172.9,36.3c0.7,0.6,1.5,1,2.3,1.4c1.2,0.5,2.4,0.7,3.7,0.8c0.1,0,0.1,0.1,0,0.2c-0.5,0.2-0.6,0.3-1,1.2
	c0,0.1-0.1,0.1-0.2,0.2c-0.2,0-0.5-0.1-0.7-0.2c-0.9-0.3-1.7-0.8-2.5-1.4c-0.7-0.5-1.3-1.1-1.8-1.8c0,1.8,0.1,3.1,0.1,3.5
	s-0.2,0.5-0.8,0.5c-0.4,0-0.6-0.2-0.6-0.5s0.1-1.7,0.1-2.9c-1.5,1.5-3.5,2.5-5.6,2.8c-0.1,0-0.1-0.1-0.1-0.1c1.8-0.8,3.4-2,4.7-3.6
	h-3.3c-0.3,0-0.7,0-1,0.1l-0.1-0.5c0.4,0.1,0.7,0.1,1.1,0.1h4.3v-1.3h-2.8c-0.3,0-0.7,0-1,0.1l-0.2-0.5c0.4,0.1,0.7,0.1,1.1,0.1h2.8
	v-1.3H168c-0.3,0-0.7,0-1,0.1l-0.2-0.5c0.4,0.1,0.7,0.1,1.1,0.1h2.3c-0.2,0-0.3-0.2-0.4-0.6c-0.1-0.5-0.4-0.9-0.7-1.2
	c-0.1,0,0-0.1,0.1-0.1c1.3,0.2,1.9,0.6,1.9,1.3c0,0.3-0.2,0.6-0.5,0.7h2.3c0.2-0.4,0.4-0.8,0.6-1.2c0.1-0.3,0.2-0.6,0.3-0.9
	c1.1,0.4,1.6,0.6,1.6,0.8s-0.1,0.2-0.6,0.2c-0.4,0.4-0.9,0.7-1.4,1h2.3c0.7-0.7,0.8-0.8,0.9-0.8s0.3,0.1,0.9,0.6
	c0.3,0.2,0.4,0.3,0.4,0.4s0,0.1-0.2,0.1h-5v1.3h2.2c0.6-0.7,0.8-0.8,0.9-0.8s0.3,0.1,0.8,0.5c0.2,0.2,0.4,0.3,0.4,0.4
	s-0.1,0.1-0.2,0.1h-4V36h3.5c0.7-0.8,0.9-0.9,1-0.9s0.3,0.1,0.9,0.6c0.3,0.2,0.4,0.4,0.4,0.5s-0.1,0.1-0.2,0.1L172.9,36.3z
	 M170.3,28.6c0-0.3,0-0.7-0.1-1c1.6,0.1,1.7,0.3,1.7,0.4s-0.1,0.2-0.4,0.4v2h1.2v-1.8c0-0.3,0-0.7-0.1-1c1.6,0.2,1.8,0.3,1.8,0.4
	s-0.1,0.2-0.5,0.4v2h0.6c0.3-0.5,0.6-1,0.8-1.6c0.1-0.3,0.2-0.6,0.3-0.9c1.2,0.5,1.7,0.8,1.7,0.9s-0.1,0.3-0.6,0.3
	c-0.5,0.5-1.1,1-1.7,1.3h1.6c0.6-0.7,0.8-0.8,0.9-0.8s0.3,0.1,0.9,0.6c0.3,0.2,0.4,0.3,0.4,0.4s0,0.1-0.2,0.1h-11.3
	c-0.3,0-0.7,0-1,0.1l-0.1-0.5c0.4,0.1,0.8,0.1,1.1,0.1h3.1L170.3,28.6z M168.8,30.1c-0.3,0-0.4-0.1-0.6-0.5c-0.1-0.5-0.4-1-0.8-1.4
	c-0.1,0,0-0.1,0.1-0.1c1.3,0.2,2,0.7,2,1.4C169.5,29.8,169.2,30.1,168.8,30.1z"/>
<path class="st1" d="M183.1,38.1c0,0.4-0.3,0.5-0.8,0.5s-0.6-0.1-0.6-0.4c0-1,0.1-2,0.1-6c0-1.3,0-2.6-0.1-3.9
	c0.5,0.2,1,0.4,1.4,0.7h1.2c0.5-0.6,0.6-0.6,0.7-0.6s0.3,0.1,0.8,0.5c0.2,0.2,0.3,0.3,0.3,0.4s-0.1,0.2-0.4,0.4V31
	c0,3.5,0.1,5.9,0.1,6.7c0,0.4-0.3,0.5-0.8,0.5s-0.5-0.1-0.5-0.4v-0.5h-1.4L183.1,38.1z M184.6,29.3h-1.4v3.5h1.4V29.3z M184.6,33.1
	h-1.4v3.8h1.4V33.1z M190.3,32.4h1.9c0.6-0.8,0.8-0.9,0.9-0.9s0.3,0.1,0.9,0.6c0.3,0.2,0.4,0.3,0.4,0.4s0,0.1-0.2,0.1h-7.2
	c-0.3,0-0.6,0-0.8,0.1l-0.2-0.5c0.3,0.1,0.6,0.1,0.9,0.1h2v-2.1h-1.6c-0.3,0-0.5,0-0.8,0.1l-0.2-0.5c0.3,0.1,0.6,0.1,0.9,0.1h1.6
	v-1.2c0-0.4,0-0.7-0.1-1.1c1.7,0.2,1.9,0.3,1.9,0.5s-0.2,0.3-0.4,0.4v1.5h1.3c0.6-0.8,0.8-0.9,0.9-0.9s0.3,0.1,0.9,0.6
	c0.3,0.2,0.4,0.4,0.4,0.5s-0.1,0.1-0.2,0.1h-3.3L190.3,32.4z M192.2,36.6c0,0.5,0,1.7,0,2.2s-0.1,0.8-0.3,1
	c-0.4,0.3-0.8,0.5-1.3,0.5c-0.1,0-0.2-0.1-0.2-0.2c0,0,0,0,0,0c-0.1-0.7-0.5-0.9-1.6-1.2c-0.1,0-0.1-0.2,0-0.2
	c0.7,0,1.4,0.1,1.9,0.1c0.2,0,0.2,0,0.2-0.2v-3.6h-3.8c-0.3,0-0.6,0-0.8,0.1l-0.1-0.5c0.3,0.1,0.6,0.1,0.9,0.1h3.9v-0.6
	c0-0.4,0-0.7-0.1-1.1c1.4,0.1,1.8,0.2,1.8,0.4s-0.1,0.2-0.4,0.4v0.9h0.3c0.5-0.6,0.7-0.7,0.8-0.7s0.3,0.1,0.8,0.5
	c0.2,0.2,0.3,0.3,0.3,0.4s0,0.2-0.2,0.2h-2L192.2,36.6z M188.8,38.1c-0.4,0-0.5-0.2-0.7-0.9c-0.1-0.6-0.4-1-0.8-1.4
	c-0.1,0,0-0.1,0.1-0.1c1.5,0.3,2.2,0.8,2.2,1.5C189.5,37.8,189.2,38.1,188.8,38.1z"/>
<path class="st1" d="M198.5,32.2v7.8c0,0.4-0.3,0.5-0.8,0.5s-0.6-0.1-0.6-0.5c0-1,0.1-2.1,0.1-6.2c0-2.1,0-4.2-0.1-6.3
	c0.5,0.2,1,0.4,1.5,0.7h2.5c0.5-0.5,0.6-0.6,0.7-0.6s0.2,0.1,0.8,0.5c0.2,0.2,0.3,0.3,0.3,0.4s-0.1,0.2-0.4,0.4v0.6
	c0,1.5,0,2.5,0,2.9s-0.3,0.5-0.8,0.5s-0.5-0.1-0.5-0.4v-0.2H198.5z M201.2,28.5h-2.7V30h2.7V28.5z M201.2,30.3h-2.7v1.5h2.7V30.3z
	 M201.7,38.1v0.5c0,0.4-0.2,0.5-0.7,0.5s-0.5-0.1-0.5-0.4c0-0.5,0-1,0-2.8c0-0.9,0-1.8-0.1-2.6c0.5,0.2,1,0.4,1.4,0.7h2.6
	c0.5-0.5,0.6-0.6,0.7-0.6s0.3,0.1,0.7,0.5c0.2,0.2,0.3,0.3,0.3,0.4s-0.1,0.2-0.4,0.4v0.6c0,1.7,0,2.8,0,3.2s-0.2,0.5-0.7,0.5
	s-0.5-0.2-0.5-0.4v-0.4H201.7z M204.6,34.3h-2.9v1.5h2.9V34.3z M204.6,36.1h-2.9v1.7h2.9V36.1z M205.1,32.2L205.1,32.2
	c0,0.4-0.2,0.6-0.7,0.6s-0.6-0.1-0.6-0.4c0-0.5,0-1.1,0-3.3c0-0.5,0-1.1-0.1-1.6c0.5,0.2,1,0.4,1.4,0.7h2.5c0.5-0.5,0.6-0.6,0.7-0.6
	s0.2,0.1,0.8,0.5c0.2,0.2,0.3,0.3,0.3,0.4s-0.1,0.2-0.4,0.4v1.7c0,7.8,0,8.2,0,8.6c0,0.3-0.1,0.6-0.3,0.8c-0.3,0.3-0.8,0.4-1.2,0.4
	c-0.2,0-0.2,0-0.2-0.2c-0.1-0.7-0.3-0.9-1.4-1.1c-0.1,0-0.1-0.2,0-0.2c0.8,0.1,1,0.1,1.6,0.1c0.1,0,0.2,0,0.2-0.2v-6.6H205.1z
	 M207.8,28.5h-2.8V30h2.8V28.5z M207.8,30.3h-2.8v1.5h2.8V30.3z"/>
<path class="st1" d="M197.9,246c2.1,0,3.8-1.7,3.8-3.8s-1.7-3.8-3.8-3.8s-3.8,1.7-3.8,3.8v0C194.2,244.3,195.8,246,197.9,246z"/>
<path class="st1" d="M207.9,259.2l-1.3-5.5c-1.3-5.1-5.7-6.2-8.6-6.2s-7.3,1.2-8.6,6.2l-2.6,10.8c-0.2,0.8,0.2,1.6,1,1.8
	s1.6-0.2,1.8-1l3-7.9l0.1,1.7c-1.3,2.1-2,4.4-2,6.8c0,1.6,1.7,9.2,1.7,9.2h1l0.5,11.1c0,1,0.8,1.7,1.7,1.7c1,0,1.7-0.8,1.7-1.7l0,0
	l0.4-11h0.5l0.4,11c0,1,0.8,1.7,1.7,1.7c1,0,1.7-0.8,1.7-1.7l0,0l0.5-11.1h1c0,0,1.7-7.5,1.7-9.2c0-0.9-0.1-1.9-0.3-2.8l-4.8,1.9
	c-0.3,0.1-0.6,0.2-0.9,0.2c-0.9,0-1.7-0.5-2.1-1.3c-0.5-1.1,0-2.4,1.1-3l4.9-2.4l0.1-1.1l0.6,1.6l-5.3,2.6c-0.7,0.4-1,1.3-0.6,2
	c0.3,0.6,1.1,0.9,1.8,0.7l7.1-2.8C207.8,261.1,208.2,260.1,207.9,259.2z"/>
<path class="st1" d="M224.2,280.4l-0.1,0.1l-3.4-2.6l1.8-2.3c0.2-0.3,0.5-0.2,0.6,0.1l0.2,0.4c0.1,0.3,0.5,0.5,0.8,0.4l3-0.7
	c0.2-0.1,0.4,0,0.5,0.2c0,0.1,0,0.2,0,0.2l-0.2,1.3c-0.1,0.3-0.3,0.6-0.7,0.7l-1.7,0.4c-0.3,0.1-0.3,0.1,0,0.1h0.9
	c0.3,0,0.5,0.2,0.3,0.5c-0.2,0.3-0.5,0.5-0.8,0.6h-0.2C224.8,279.8,224.4,280.1,224.2,280.4z"/>
<path class="st1" d="M214.2,281c0.1-0.5,0.3-0.2,0.4-0.1c0.4,0.9,1.1,1.7,1.8,2.4c0.6-0.8,2.2-2.9,3.6-4.6l3.4,2.7l-0.4,0.6
	c0.5,1.4,1.5,4.3,1.5,4.3c0.1,0.4-0.1,0.8-0.4,0.9c0,0,0,0,0,0c-0.3,0.1-0.7-0.1-0.9-0.4c0,0,0,0,0,0l-1.5-3l-0.5,0.7
	c0.2,0.2,0.3,0.5,0.3,0.8v0.3h0.1c1.5,0,1.6,1.7,0.1,1.7h-4.7c-1.6,0-2.1-1.2-1.6-2.5C214.9,284,213.8,282.6,214.2,281z"/>
<path class="st1" d="M238,242.1c0,2.1-1.7,3.9-3.9,3.9c-2.1,0-3.9-1.7-3.9-3.9c0-2.1,1.7-3.9,3.9-3.9c0,0,0,0,0,0
	C236.3,238.3,238,240,238,242.1z"/>
<path class="st1" d="M234.2,247.4L234.2,247.4c-2.6,0-8.3,1.1-8.3,6.7l0.7,13.4c0,0.9,0.8,1.5,1.6,1.5c0,0,0,0,0,0
	c0.5-0.1,1-0.4,1.2-0.9l0.5,17.5c-0.2,1.1,0.5,2.1,1.6,2.3c1.1,0.2,2.1-0.5,2.3-1.6c0-0.2,0-0.5,0-0.7l0.3-14.8l0,0l0.3,14.8
	c-0.2,1.1,0.5,2.1,1.6,2.3c1.1,0.2,2.1-0.5,2.3-1.6c0-0.2,0-0.5,0-0.7l0.5-17.5c0.2,0.5,0.7,0.9,1.2,0.9c0.8,0.1,1.6-0.6,1.6-1.4
	c0,0,0,0,0,0l0.7-13.4C242.4,248.5,236.8,247.4,234.2,247.4z"/>
<path class="st1" d="M256.6,242.2c0,2.1-1.7,3.9-3.9,3.9c-2.1,0-3.9-1.7-3.9-3.9c0-2.1,1.7-3.9,3.9-3.9S256.6,240,256.6,242.2
	C256.6,242.2,256.6,242.2,256.6,242.2z"/>
<path class="st1" d="M257.8,263.3c0.1-1.1,0.2-2.4,0.2-2.4c2.8-1,3.1-6.1,3.1-6.1c0-5.5-4.5-7.4-8.3-7.4s-8.1,2.1-8.3,7.4
	c0,0-0.1,5.4,3.3,7.7l0.1,0.6c-1.6,4.1-2.5,8.4-2.6,12.7h3.3l0.5,9.9c0,1.1,0.8,1.9,1.9,2c1,0,1.8-0.9,1.9-1.9c0,1,0.9,1.8,2,1.8
	c1,0,1.8-0.9,1.8-2l0.5-9.9h3.3C260.1,271.5,259.3,267.3,257.8,263.3z"/>
<path class="st3" d="M256.4,251.8c0.9-0.7,2.1-0.5,2.8,0.4s0.5,2.1-0.4,2.8c-0.9,0.7-2.1,0.5-2.8-0.4c0,0,0,0,0-0.1
	C255.3,253.7,255.5,252.5,256.4,251.8z"/>
<path class="st3" d="M249.8,257.1c0.1-0.5,0.6-0.8,1.1-0.7c0,0,0,0,0,0c0.6,0.2,1.1,0.3,1.7,0.5l1.3-0.9l-1.3-0.6c0,0-0.1,0-0.1-0.1
	c-0.2-0.2-0.2-0.6,0-0.8c0,0,0,0,0,0c0.2-0.2,0.4-0.2,0.6-0.2c0,0,2.7,0.9,3.2,1c0.6,0.1,1,0.7,0.9,1.3c-0.1,0.3-0.2,0.6-0.5,0.7
	l0,0l-1.4,0.1c-0.8,0.1-1.4,0.8-1.3,1.5v0.2c-0.5,0.3-1.2,0.4-1.8,0.2c-0.4-0.1-0.9-0.2-1.2-0.5l-0.1,0.3h-1.8L249.8,257.1z"/>
<path class="st1" d="M300.4,242.3c0,2-1.6,3.7-3.7,3.7c-2,0-3.7-1.6-3.7-3.7c0-2,1.6-3.7,3.7-3.7c0,0,0,0,0,0
	C298.8,238.6,300.4,240.2,300.4,242.3C300.4,242.3,300.4,242.3,300.4,242.3z"/>
<path class="st1" d="M282.8,267.3c0,1.8-1.5,3.2-3.2,3.2c-1.8,0-3.2-1.5-3.2-3.2c0-1.8,1.5-3.2,3.2-3.2c0,0,0,0,0,0
	C281.4,264.1,282.8,265.5,282.8,267.3z"/>
<path class="st1" d="M275.7,286.3c0,1.1-0.9,1.9-1.9,1.9s-1.9-0.9-1.9-1.9s0.9-1.9,1.9-1.9C274.8,284.3,275.7,285.2,275.7,286.3
	C275.7,286.2,275.7,286.3,275.7,286.3z"/>
<path class="st1" d="M282.5,286.3c0,1.1-0.9,1.9-1.9,1.9s-1.9-0.9-1.9-1.9s0.9-1.9,1.9-1.9S282.5,285.2,282.5,286.3L282.5,286.3z"/>
<path class="st1" d="M278.5,283.6h-6.4l1.1-1.9h5.3c1.4-0.2,2.5-1.2,2.8-2.5c0.4-1.2,3-10.9,3-11l0.2-0.7h5.4l-0.6,1.9H286
	c0,0-2.5,9.3-2.9,10.4C282.6,281.9,280.7,283.4,278.5,283.6z"/>
<path class="st1" d="M278.8,271.2c-1.5,0.2-6.7,1.6-6.7,1.6c-0.6,0.1-0.9,0.7-0.8,1.2s0.7,0.9,1.2,0.8l3.3-0.4l-0.6,2.5h-2.5
	c-1-0.1-1.9,0.4-2.3,1.3l-2,4.5c-0.3,0.7,0,1.4,0.7,1.7c0,0,0,0,0,0c0.7,0.3,1.4,0,1.7-0.7l1.7-3h5.1c1.2,0,2.2-0.7,2.6-1.8
	c0.3-1.2,1.4-5.3,1.4-5.3C282,271.7,280.6,270.9,278.8,271.2z"/>
<path class="st1" d="M306.4,276.5l-0.4-2.5h4.7c0,0-2.9-11.7-7.8-14.8c0,0-1.7-8-2.4-10s-5-3.5-7.3,2.1l-2,5.1l-2.7,6.9
	c-0.4,0.7-0.1,1.6,0.6,1.9s1.6,0.1,1.9-0.6c0,0,0-0.1,0.1-0.1l3.3-6.6l0.2-0.4l0.8,3l-4.1,25.5c-0.2,1,0.4,2,1.4,2.2
	c1,0.2,2-0.4,2.2-1.4l0,0l3.2-12.8h2.9l0.8,3.4l2.2,9.4c0.2,1,1.3,1.6,2.3,1.4c0.9-0.2,1.5-1.1,1.4-2.1L306.4,276.5z"/>
<circle class="st1" cx="48.8" cy="72" r="15.2"/>
<rect x="29" y="128.7" class="st1" width="94.2" height="9.8"/>
<polygon class="st1" points="52.4,126.2 77.1,126.2 92.2,126.2 92.2,118.4 73.6,118.4 65.7,97.1 29.2,97.1 40.6,126.2 "/>
<path class="st1" d="M87.2,80.8c0.6,2.9,1.5,5.4,2.8,6.7V91c0,0.1,0,0.2-0.1,0.3l6.5,2.7l6.5-2.8c0-0.1,0-0.2,0-0.3v-3.5
	c1.3-1.2,2.2-3.8,2.8-6.7c1.3-0.4,2.1-1.1,3-4.1c1-3.2-1.5-3.1-1.5-3.1c2-6-0.7-11.7-5.2-11.3c-3.1-4.8-13.5,1.1-16.8,0.7
	c0,1,0.3,2,0.7,2.9c-1.1,1.9-0.7,5.8-0.4,7.7c-0.2,0-2.5,0-1.5,3.1S85.9,80.4,87.2,80.8z"/>
<rect x="94" y="95.4" class="st1" width="4.9" height="3.8"/>
<path class="st1" d="M95.5,115.1v11.1h27.4c-1.4-13.6-8-26.3-12.5-27.8c-0.5-0.2-1.1-0.4-1.6-0.7L99.6,109l-0.7-7.4H94l-0.6,7.4
	l-9.2-11.3c-0.5,0.3-1.1,0.5-1.6,0.7c-2.4,0.8-5.5,6.5-8,13.2l1.3,3.6H95.5z"/>
<polyline class="st4" points="48.8,60.6 48.8,72.5 52.6,79.4 "/>
<path class="st1" d="M193,189.4c-0.5,0.7-1.1,1.3-1.8,1.8c1.8,0,3.6,0,5.3-0.2c-0.4-0.4-0.9-0.8-1.4-1.1c0,0,0-0.1,0-0.1
	c2.3,0.3,3.7,1.1,3.7,2.1c0,0.4-0.2,0.8-0.6,0.8c0,0,0,0-0.1,0c-0.3,0-0.4-0.1-0.7-0.5s-0.4-0.6-0.6-0.9c-2.6,0.6-5.2,1-7.8,1.1
	c-0.1,0.4-0.2,0.4-0.3,0.4s-0.3-0.2-0.6-1.8c0.8,0.1,1.7,0.1,2.5,0.1c0.2-0.6,0.4-1.2,0.6-1.8h-2.8c-0.3,0-0.7,0-1,0.1l-0.2-0.5
	c0.4,0.1,0.7,0.1,1.1,0.1h4.4v-1c0-0.3,0-0.5-0.1-0.8c1.7,0.1,1.9,0.3,1.9,0.4s-0.2,0.3-0.5,0.4v1h3.4c0.7-0.8,0.9-1,1-1
	s0.3,0.1,1,0.7c0.3,0.2,0.4,0.4,0.4,0.5s-0.1,0.1-0.2,0.1L193,189.4z M190.7,197.2c0,1.4,0,2,0,2.7c0,0.4-0.3,0.5-0.8,0.5
	s-0.6-0.1-0.6-0.6c0-0.8,0.1-1.4,0.1-4.6c0-0.9,0-1.8-0.1-2.7c0.5,0.2,1,0.4,1.5,0.7h5.2c0.5-0.6,0.6-0.6,0.7-0.6s0.3,0.1,0.9,0.6
	c0.3,0.2,0.4,0.3,0.4,0.4s-0.1,0.2-0.4,0.4v0.8c0,3.3,0,3.5,0,4.1c0,0.5-0.2,0.9-0.6,1.1c-0.3,0.2-0.7,0.2-1,0.2
	c-0.1,0-0.2-0.1-0.2-0.4s-0.3-0.6-1.5-1c-0.1,0-0.1-0.2,0-0.2c0.8,0.1,1.2,0.1,1.8,0.1c0.1,0,0.2,0,0.2-0.2v-1.5L190.7,197.2z
	 M196.1,193.6h-5.4v1.4h5.4V193.6z M190.7,196.8h5.4v-1.5h-5.4V196.8z"/>
<path class="st1" d="M207.9,195.5c-0.4,3-1.8,4.2-5.1,4.7c-0.1,0-0.1-0.2-0.1-0.2c2-0.7,3.1-1.6,3.6-3.2c0.2-0.7,0.3-1.5,0.2-2.2
	c1.8,0.3,1.8,0.3,1.8,0.5S208.2,195.3,207.9,195.5z M205.4,189.4c0,2.5,0.1,4.3,0.1,4.9s-0.2,0.6-0.8,0.6s-0.6-0.1-0.6-0.5
	s0.1-1.7,0.1-4.3c0-0.8,0-1.6-0.1-2.4c1.8,0.2,1.8,0.2,1.8,0.4s-0.1,0.2-0.4,0.3L205.4,189.4z M208.7,193.8v0.1
	c0,0.4-0.2,0.6-0.7,0.6s-0.6-0.1-0.6-0.4c0-0.7,0.1-1.4,0.1-4.3c0-0.7,0-1.3-0.1-2c0.5,0.2,1,0.4,1.4,0.7h3.6
	c0.5-0.5,0.6-0.6,0.8-0.6s0.2,0.1,0.7,0.5c0.2,0.2,0.3,0.3,0.3,0.4s-0.1,0.2-0.4,0.4v0.8c0,2.1,0.1,3.5,0.1,4s-0.2,0.6-0.8,0.6
	c-0.4,0-0.5-0.1-0.5-0.5v-0.2L208.7,193.8z M212.5,188.8h-3.9v2.1h3.9V188.8z M212.5,191.2h-3.9v2.2h3.9V191.2z M210.7,198.2
	c0,0.7,0.1,0.7,1.1,0.7c1.2,0,1.6-0.1,1.9-0.3s0.4-0.4,0.9-1.8c0-0.1,0.2,0,0.2,0c0,0.5-0.1,1.3-0.1,1.5s0,0.2,0.2,0.4
	c0.2,0.1,0.3,0.3,0.3,0.5c0,0.4-0.2,0.6-0.8,0.7c-0.8,0.2-1.7,0.3-2.6,0.2c-2.1,0-2.5-0.3-2.5-1.3c0-0.4,0-0.8,0-2.1
	c0-0.8,0-1.3-0.1-2c1.7,0.2,1.8,0.3,1.8,0.4s-0.1,0.2-0.4,0.4L210.7,198.2z"/>
<path class="st1" d="M219.4,192.9c-0.5,0.6-1,1.1-1.6,1.5c-0.1,0-0.2-0.1-0.1-0.1c1.1-1.4,1.8-3,2.4-4.7c0.2-0.7,0.4-1.5,0.5-2.3
	c1.3,0.4,1.9,0.6,1.9,0.8s-0.1,0.2-0.5,0.3c-0.4,1.2-1,2.3-1.7,3.3c0.6,0.1,0.7,0.2,0.7,0.3s-0.1,0.2-0.4,0.3v7.3
	c0,0.4-0.2,0.6-0.7,0.6c-0.3,0-0.6-0.1-0.6-0.5s0.1-1.5,0.1-3.7V192.9z M226.3,192.3c0,3.4,0.1,5.4,0.1,7.5c0,0.4-0.2,0.5-0.8,0.5
	c-0.4,0-0.6-0.1-0.6-0.4c0-0.7,0.1-3.7,0.1-6.4c-1,1.7-2.4,3.2-4.1,4.3c-0.1,0-0.2-0.1-0.1-0.1c1.7-1.8,2.9-3.9,3.7-6.3h-2.2
	c-0.3,0-0.6,0-0.9,0.1l-0.2-0.5c0.3,0.1,0.7,0.1,1,0.1h2.7v-1.8c0-0.6,0-1.2-0.1-1.8c1.8,0.2,1.9,0.2,1.9,0.5s-0.1,0.2-0.5,0.4v2.6
	h2.2c0.7-0.8,0.8-0.9,0.9-0.9s0.3,0.1,0.9,0.7c0.3,0.2,0.4,0.4,0.4,0.5s0,0.1-0.2,0.1h-4.2c0.4,1.1,1.1,2,1.9,2.8
	c0.8,0.9,1.8,1.6,2.9,2.1c0.1,0,0,0.1,0,0.2c-0.3,0.1-0.6,0.3-0.8,0.8c-0.1,0.3-0.2,0.4-0.3,0.4c-0.2,0-0.3-0.1-0.5-0.2
	c-0.8-0.7-1.4-1.4-1.9-2.3c-0.6-1-1.1-2.2-1.4-3.4L226.3,192.3z"/>
<path class="st1" d="M240.3,196.2c0.7,0.6,1.5,1,2.3,1.4c1.2,0.5,2.4,0.8,3.7,0.8c0.1,0,0.1,0.1,0,0.1c-0.5,0.2-0.6,0.3-1,1.2
	c-0.1,0.1-0.1,0.2-0.2,0.2c-0.2,0-0.4-0.1-0.7-0.2c-0.9-0.3-1.7-0.8-2.5-1.4c-0.7-0.5-1.3-1.1-1.8-1.9c0,1.8,0.1,3.1,0.1,3.5
	s-0.2,0.5-0.8,0.5c-0.4,0-0.6-0.1-0.6-0.5s0.1-1.7,0.1-2.9c-1.5,1.5-3.4,2.5-5.6,2.8c-0.1,0-0.1-0.1-0.1-0.1c1.8-0.8,3.4-2,4.7-3.6
	h-3.3c-0.3,0-0.7,0-1,0.1l-0.1-0.5c0.4,0.1,0.7,0.1,1.1,0.1h4.3v-1.3h-2.8c-0.3,0-0.7,0-1,0.1l-0.2-0.5c0.4,0.1,0.7,0.1,1.1,0.1h2.8
	v-1.3h-3.5c-0.3,0-0.7,0-1,0.1l-0.1-0.5c0.4,0.1,0.7,0.1,1.1,0.1h2.3c-0.2-0.1-0.3-0.2-0.4-0.6c-0.1-0.5-0.4-0.9-0.7-1.2
	c-0.1,0,0-0.1,0.1-0.1c1.3,0.2,1.9,0.6,1.9,1.3c0,0.3-0.2,0.6-0.5,0.7h2.3c0.2-0.4,0.4-0.8,0.6-1.2c0.1-0.3,0.2-0.6,0.3-0.9
	c1.1,0.4,1.6,0.7,1.6,0.8s-0.1,0.2-0.6,0.2c-0.4,0.4-0.9,0.7-1.4,1h2.3c0.7-0.7,0.8-0.8,0.9-0.8s0.3,0.1,0.9,0.6
	c0.3,0.2,0.4,0.3,0.4,0.4s0,0.1-0.2,0.1h-5v1.3h2.2c0.6-0.7,0.8-0.8,0.9-0.8s0.3,0.1,0.8,0.6c0.2,0.2,0.4,0.3,0.4,0.4s0,0.1-0.2,0.1
	h-4v1.3h3.5c0.7-0.8,0.9-0.9,1-0.9s0.3,0.1,0.9,0.6c0.3,0.2,0.4,0.4,0.4,0.5s0,0.1-0.2,0.1L240.3,196.2z M237.7,188.4
	c0-0.3,0-0.7-0.1-1c1.6,0.1,1.7,0.3,1.7,0.4s-0.1,0.2-0.4,0.4v2h1.2v-1.8c0-0.3,0-0.7-0.1-1c1.6,0.2,1.8,0.3,1.8,0.4
	s-0.1,0.2-0.5,0.4v2h0.6c0.3-0.5,0.6-1,0.8-1.6c0.1-0.3,0.2-0.6,0.3-0.9c1.2,0.5,1.7,0.7,1.7,0.9s-0.1,0.2-0.6,0.3
	c-0.5,0.5-1.1,1-1.7,1.3h1.6c0.6-0.7,0.8-0.8,0.9-0.8s0.3,0.1,0.9,0.6c0.3,0.2,0.4,0.3,0.4,0.4s0,0.1-0.2,0.1h-11.3
	c-0.3,0-0.7,0-1,0.1l-0.1-0.5c0.4,0.1,0.8,0.1,1.1,0.1h3.1L237.7,188.4z M236.2,189.9c-0.3,0-0.4-0.1-0.6-0.5
	c-0.1-0.5-0.4-1-0.8-1.4c-0.1,0,0-0.1,0.1-0.1c1.3,0.2,2,0.7,2,1.3C236.9,189.6,236.6,189.9,236.2,189.9z"/>
<path class="st1" d="M255.7,197.1c0,1.5,0,2.5,0,2.8s-0.3,0.5-0.8,0.5s-0.6-0.1-0.6-0.5s0.1-1.1,0.1-2.8H250c-0.3,0-0.7,0-1,0.1
	l-0.1-0.5c0.4,0.1,0.8,0.1,1.1,0.1h4.4v-0.1c0-0.5,0-1-0.1-1.6c1.6,0.2,1.8,0.2,1.8,0.4s-0.1,0.2-0.5,0.4v0.8h3.5c0.7-0.9,0.9-1,1-1
	s0.3,0.1,1,0.7c0.3,0.2,0.4,0.4,0.4,0.5s0,0.1-0.2,0.1L255.7,197.1z M250.1,195.1c0,0.4-0.1,0.6-0.3,0.6s-0.4-0.4-0.9-1.5
	c0.4-0.1,0.8-0.2,1.2-0.4c0.9-0.3,1.7-0.6,2.5-1c0.1,0,0.2,0.1,0.1,0.2C252,193.8,251.1,194.6,250.1,195.1L250.1,195.1z
	 M254.4,189.4c1,0.4,1.3,0.5,1.3,0.7s0,0.2-0.5,0.2c-0.4,0.4-0.8,0.8-1.2,1.1c0.3,0.2,0.5,0.5,0.5,0.9c0,0.3-0.2,0.6-0.5,0.7
	c0,0,0,0,0,0c-0.3,0-0.4,0-0.6-0.7c-0.2-0.5-0.5-0.9-0.9-1.3c0,0,0-0.1,0-0.1c0,0,0,0,0.1,0c0.4,0.1,0.8,0.2,1.1,0.4
	c0.1-0.3,0.2-0.5,0.4-0.8c0.1-0.3,0.2-0.6,0.3-0.9h-4.2c-0.3,0-0.7,0-1,0.1L249,189c0.4,0.1,0.7,0.1,1.1,0.1h4.2v-1
	c0-0.3,0-0.5-0.1-0.8c1.7,0.1,1.9,0.3,1.9,0.5s-0.2,0.3-0.5,0.4v0.9h3.3c0.8-0.8,0.9-1,1-1s0.3,0.1,0.9,0.7c0.3,0.2,0.4,0.4,0.4,0.5
	s0,0.1-0.2,0.1L254.4,189.4z M251.3,192.6c-0.4,0-0.5-0.1-0.7-0.9c-0.2-0.6-0.5-1.1-0.9-1.5c0,0,0-0.1,0-0.1c0,0,0,0,0.1,0
	c1.5,0.4,2.3,1,2.3,1.7C252,192.2,251.8,192.6,251.3,192.6C251.3,192.6,251.3,192.6,251.3,192.6L251.3,192.6z M256.6,194
	c-0.2-0.3-0.3-0.6-0.6-0.9c0,0,0-0.1,0.1-0.1c1.2,0.4,1.9,1,1.9,1.7c0,0.4-0.3,0.7-0.7,0.7c0,0,0,0,0,0c-0.3,0-0.4-0.1-0.6-0.9
	c0-0.1-0.1-0.2-0.1-0.3c-1.2,0.4-2.4,0.7-3.7,0.9c-0.1,0.3-0.1,0.4-0.2,0.4s-0.3-0.2-0.6-1.5c0.6,0,1,0,1.4,0
	c0.7-0.7,1.3-1.5,1.8-2.4c0.2-0.4,0.4-0.7,0.6-1.1c1.2,0.6,1.4,0.8,1.4,1s0,0.1-0.6,0.2c-0.8,0.8-1.7,1.6-2.6,2.4
	C255,194.1,255.8,194.1,256.6,194L256.6,194z M260,191.1c-0.8,0.7-1.7,1.2-2.7,1.6c-0.1,0-0.2-0.1-0.1-0.1c0.5-0.5,1-1.1,1.4-1.7
	c0.2-0.3,0.4-0.6,0.5-1c1.1,0.6,1.4,0.8,1.4,1S260.5,191.2,260,191.1L260,191.1z M260,195.3c-0.3,0-0.5-0.1-0.8-0.8
	c-0.3-0.6-0.8-1.1-1.3-1.4c0,0-0.1-0.1,0-0.1c0,0,0,0,0,0c1.9,0.3,2.8,0.8,2.8,1.6C260.6,195,260.4,195.3,260,195.3
	C260,195.4,260,195.4,260,195.3L260,195.3z"/>
<path class="st1" d="M271.9,197.4c-1.7,1.4-3.7,2.4-5.9,2.9c-0.1,0-0.1-0.1-0.1-0.2c1.9-0.9,3.7-2.1,5.2-3.6c-1.3-1.8-2.1-3.8-2.4-6
	c-0.1,1.8-0.4,3.7-1.1,5.4c-0.7,1.8-1.9,3.3-3.5,4.2c0,0-0.1-0.1-0.1-0.2c1.2-1.2,2.1-2.7,2.6-4.4c0.6-2.3,0.9-4.6,0.8-6.9H266
	c-0.4,0-0.7,0-1.1,0.1l-0.1-0.5c0.4,0.1,0.8,0.1,1.2,0.1h5.6c0.5-0.6,0.6-0.7,0.7-0.7s0.2,0.1,0.8,0.6c0.3,0.2,0.4,0.4,0.4,0.5
	s-0.1,0.3-0.5,0.4c-0.2,0.8-0.5,1.7-0.8,2.5h1.6c0.5-0.6,0.6-0.7,0.7-0.7s0.2,0.1,0.9,0.5c0.3,0.3,0.4,0.4,0.4,0.5s-0.1,0.2-0.5,0.3
	c-0.5,1.5-1.4,3-2.5,4.2c1.3,1,2.8,1.8,4.5,2.2c0.1,0,0.1,0.1,0,0.2c-0.7,0.2-0.8,0.4-1,1.1c0,0.1-0.1,0.2-0.2,0.2
	c-0.4-0.1-0.7-0.2-1-0.4c-1.1-0.7-2.2-1.4-3.1-2.3L271.9,197.4z M268.8,189.5c0.4,2.3,1.5,4.5,3,6.2c0.9-1.1,1.6-2.4,2-3.7H272v0.1
	c-0.1,0.3-0.4,0.5-0.7,0.4c-0.5,0-0.7-0.2-0.7-0.4c0-0.2,0.1-0.3,0.2-0.5c0.4-0.9,0.7-1.9,0.9-2.9h-2.9c0,0.2,0,0.5,0,0.7
	L268.8,189.5z"/>
<path class="st1" d="M288,192.4c0,0.5,0,0.9,0,1.2c0,0.9,0,1.8-0.2,2.7c-0.3,1.9-1.9,3.3-3.9,3.3c-1,0.1-1.9-0.3-2.6-1.1
	c-0.6-0.7-0.9-1.7-0.9-2.6c0.1-1.9,0.7-3.7,1.9-5.1h-0.9c-0.5,0-0.9-0.2-1.2-0.5c-0.2-0.3-0.3-0.6-0.3-0.9c0-0.1,0-0.2,0.1-0.2
	s0.1,0.1,0.2,0.1c0.2,0.3,0.4,0.4,1,0.4c0.7,0,1.3-0.2,1.9-0.4c0.1-0.1,0.3-0.2,0.4-0.3c0.1-0.1,0.3-0.1,0.4-0.1
	c0.4,0.1,0.7,0.3,0.9,0.6c0,0.1,0.1,0.1,0.1,0.2c0,0.1-0.1,0.3-0.3,0.4c-0.3,0.1-0.6,0.3-0.9,0.6c-0.6,0.6-1.1,1.2-1.5,1.9
	c-0.6,0.9-0.9,1.9-1,3c-0.1,0.7,0.2,1.4,0.6,1.9c0.5,0.5,1.2,0.8,1.9,0.7c2.5,0,3.3-2.1,3.6-4.2c0.1-0.7,0.1-1.5,0.1-2.3
	c0-0.6-0.1-1.1-0.4-1.7c-0.1-0.2-0.1-0.4-0.1-0.6c0-0.3,0.3-0.5,0.7-0.5c0.3,0,0.5,0.2,0.5,0.5c0,0,0,0,0,0c0,0.5,0,0.9,0.2,1.4
	c0.2,0.7,0.6,1.3,1,1.8c0.4,0.5,0.8,1,1.3,1.4c0.3,0.2,0.4,0.6,0.5,0.9c0,0.2-0.1,0.4-0.2,0.5c-0.1,0.1-0.2,0.2-0.4,0.2
	c-0.3,0-0.6-0.2-1.2-0.9C288.8,194,288.4,193.2,288,192.4L288,192.4z M290.2,189.2c0.3,0.2,0.5,0.5,0.5,0.9c0,0.3-0.2,0.5-0.4,0.5
	c0,0,0,0,0,0c-0.2,0-0.4-0.1-0.5-0.3c-0.2-0.5-0.5-0.9-0.9-1.2c0-0.1-0.1-0.1-0.1-0.2s0-0.1,0.1-0.1h0.2
	C289.4,188.8,289.8,189,290.2,189.2L290.2,189.2z M291.4,188.3c0.3,0.1,0.5,0.4,0.5,0.7c0,0.3-0.2,0.5-0.4,0.5c0,0,0,0,0,0
	c-0.2,0-0.4-0.1-0.5-0.3c-0.3-0.4-0.6-0.8-1-1.1c-0.1,0-0.2-0.1-0.2-0.2s0-0.1,0-0.1c0.1,0,0.1,0,0.2,0
	C290.6,187.9,291,188.1,291.4,188.3L291.4,188.3z"/>
<path class="st1" d="M188.6,214.2c-0.5,0.4-1,0.8-1.6,1.2c-0.1,0-0.1-0.1-0.1-0.1c0.9-1,1.7-2.1,2.3-3.3c0.2-0.5,0.4-1,0.6-1.5
	c1.3,0.6,1.5,0.7,1.5,0.8s-0.1,0.2-0.5,0.3c-0.3,0.6-0.8,1.2-1.2,1.7c0.6,0.1,0.7,0.1,0.7,0.3s-0.1,0.2-0.4,0.3v5.9
	c0,0.4-0.2,0.6-0.7,0.6c-0.3,0-0.6-0.1-0.6-0.5s0.1-1.5,0.1-3.7L188.6,214.2z M190.7,208.5c-0.9,1.2-2.1,2.2-3.5,2.9
	c-0.1,0-0.2-0.1-0.1-0.1c0.7-0.7,1.3-1.5,1.8-2.4c0.3-0.5,0.5-1,0.7-1.5c1.1,0.4,1.7,0.7,1.7,0.9S191.2,208.5,190.7,208.5
	L190.7,208.5z M194,214.2c1,0.3,1.3,0.4,1.3,0.6s-0.1,0.2-0.6,0.3l-0.2,0.4h2.4c0.5-0.5,0.6-0.6,0.7-0.6s0.2,0.1,0.8,0.6
	c0.3,0.2,0.3,0.3,0.3,0.4s-0.1,0.3-0.7,0.4c-0.5,0.7-1.1,1.2-1.8,1.8c1.3,0.5,2.6,0.8,4,0.8c0.1,0,0.1,0.1,0,0.2
	c-0.4,0.2-0.7,0.5-0.8,1c0,0.2-0.1,0.3-0.2,0.3c-0.2,0-0.5-0.1-0.7-0.2c-1.1-0.3-2.1-0.9-3.1-1.6c-1.6,1-3.4,1.5-5.2,1.7
	c-0.1,0-0.1-0.1-0.1-0.2c1.6-0.5,3.2-1.2,4.6-2.2c-0.4-0.4-0.7-0.9-1-1.5c-0.9,0.9-2,1.7-3.2,2.1c-0.1,0-0.1-0.1-0.1-0.1
	c1-0.7,1.9-1.7,2.6-2.8c0.3-0.4,0.5-0.9,0.6-1.4h-0.2c0,0.4-0.3,0.5-0.7,0.5s-0.6-0.1-0.6-0.4s0.1-0.8,0.1-2.3c0-0.3,0-0.6,0-0.9
	c-0.3,0.3-0.6,0.6-0.9,0.8c0,0-0.1,0-0.1-0.1c0.6-0.9,1-1.9,1.4-3c0.2-0.5,0.3-0.9,0.4-1.4c1.4,0.4,1.7,0.6,1.7,0.8
	s-0.1,0.2-0.6,0.3c-0.1,0.2-0.2,0.4-0.4,0.7h4c0.7-0.8,0.9-0.9,1-0.9s0.3,0.1,0.9,0.7c0.3,0.2,0.4,0.4,0.4,0.5s0,0.1-0.2,0.1h-6.3
	c-0.2,0.3-0.4,0.6-0.6,0.9c0.2,0.1,0.4,0.2,0.6,0.4h3.7c0.4-0.5,0.5-0.6,0.6-0.6s0.3,0.1,0.8,0.5c0.2,0.2,0.3,0.3,0.3,0.4
	s-0.1,0.2-0.4,0.4v0.4c0,1.2,0,2,0,2.2s-0.2,0.6-0.7,0.6c-0.3,0-0.5-0.1-0.6-0.4L194,214.2z M197.3,211h-3.8v1.2h3.8V211z
	 M197.3,212.6h-3.8v1.3h3.8V212.6z M194.2,215.8c-0.1,0.2-0.2,0.3-0.3,0.4c0.4,0.5,0.9,0.9,1.4,1.2c0.6-0.5,1.1-1,1.5-1.7H194.2z"/>
<path class="st1" d="M206.3,209.6c0,4.9-0.2,6.4-1.1,8c-0.6,1.1-1.4,2-2.4,2.6c-0.1,0-0.2-0.1-0.1-0.2c0.8-0.8,1.3-1.8,1.7-2.8
	c0.5-1.5,0.7-2.8,0.7-6.2c0-1.1,0-2.2-0.1-3.3c1.7,0.2,1.9,0.3,1.9,0.5s-0.1,0.2-0.5,0.4V209.6z M204.2,211.1c0,2.2,0,3.4,0,3.7
	s-0.3,0.5-0.7,0.5s-0.5-0.1-0.5-0.5s0.1-1.3,0.1-3.6c0-0.6,0-1.2-0.1-1.8c1.5,0.2,1.6,0.2,1.6,0.4s-0.1,0.2-0.4,0.4L204.2,211.1z
	 M213.6,213c0.6-0.6,0.7-0.7,0.8-0.7s0.2,0.1,0.9,0.7c0.3,0.3,0.4,0.4,0.4,0.5s-0.1,0.3-0.8,0.3c-0.1,0-0.3,0-0.4,0.1
	c-0.3,0.2-0.5,0.3-0.8,0.5c0,0-0.1,0-0.1-0.1c0.1-0.3,0.2-0.7,0.2-1h-6.2c0,0.1,0,0.2,0,0.4c0,0.3,0,0.6-0.1,0.8
	c0.4,0.2,0.6,0.3,1.1,0.5h1.5c0-0.5,0-1-0.1-1.5c1.7,0.2,1.8,0.2,1.8,0.4s-0.1,0.2-0.5,0.4v0.7h1.5c0.5-0.5,0.6-0.6,0.7-0.6
	s0.2,0.1,0.8,0.5c0.2,0.2,0.3,0.3,0.3,0.4s-0.1,0.2-0.4,0.4v0.4c0,1.4,0.1,1.6,0.1,1.8c0,0.4-0.2,0.8-0.5,1.1
	c-0.2,0.1-0.5,0.2-0.8,0.2c-0.1,0-0.2-0.1-0.3-0.3c-0.1-0.4-0.3-0.6-1-0.8c-0.1,0-0.1-0.2,0-0.2c0.5,0,0.8,0,1.2,0
	c0.2,0,0.2,0,0.2-0.2v-2.4h-1.7c0,2.3,0,3.9,0,4.4s-0.3,0.5-0.8,0.5s-0.6-0.1-0.6-0.5s0.1-1.8,0.1-4.5h-1.6v3.2
	c0,0.4-0.2,0.6-0.7,0.6s-0.6-0.1-0.6-0.4s0.1-0.7,0.1-2.2c0-0.6,0-1.1,0-1.7c-0.1,0.1-0.3,0.2-0.5,0.1c-0.4,0-0.6-0.3-0.6-0.6
	c0,0,0,0,0,0c0-0.3,0.1-0.4,0.4-0.6c0.5-0.3,0.7-0.9,0.7-1.4c0-0.1,0.1-0.1,0.1,0c0.1,0.2,0.2,0.5,0.2,0.7L213.6,213z M212.8,208.5
	h-4.3c-0.3,0-0.6,0-0.9,0.1l-0.1-0.6c0.3,0.1,0.7,0.1,1,0.1h4.1c0.5-0.6,0.6-0.7,0.7-0.7s0.2,0.1,0.8,0.5c0.2,0.2,0.3,0.3,0.3,0.4
	s0,0.1-0.4,0.5v0.5c0,1.2,0,2,0,2.3s-0.2,0.6-0.8,0.6c-0.4,0-0.5-0.1-0.5-0.5h-4.4c-0.3,0-0.5,0-0.8,0.1l-0.1-0.5
	c0.3,0.1,0.6,0.1,0.9,0.1h4.4v-1.3h-4c-0.3,0-0.5,0-0.8,0.1l-0.1-0.5c0.3,0.1,0.6,0.1,0.9,0.1h4L212.8,208.5z"/>
<path class="st1" d="M224.9,217.1c0,1.5,0,2.5,0,2.8s-0.3,0.5-0.8,0.5s-0.6-0.1-0.6-0.5s0.1-1.1,0.1-2.8h-4.3c-0.3,0-0.7,0-1,0.1
	l-0.1-0.5c0.4,0.1,0.8,0.1,1.1,0.1h4.4v-0.1c0-0.5,0-1-0.1-1.6c1.6,0.2,1.8,0.2,1.8,0.4s-0.1,0.2-0.5,0.4v0.8h3.5c0.7-0.9,0.9-1,1-1
	s0.3,0.1,1,0.7c0.3,0.2,0.4,0.4,0.4,0.5s0,0.1-0.2,0.1L224.9,217.1z M219.3,215.1c0,0.4-0.1,0.6-0.3,0.6s-0.4-0.4-0.9-1.5
	c0.4-0.1,0.8-0.2,1.2-0.4c0.9-0.3,1.7-0.6,2.5-1c0.1,0,0.2,0.1,0.1,0.2C221.2,213.8,220.3,214.6,219.3,215.1L219.3,215.1z
	 M223.6,209.4c1,0.4,1.3,0.5,1.3,0.7s0,0.2-0.5,0.2c-0.4,0.4-0.8,0.8-1.2,1.1c0.3,0.2,0.5,0.5,0.5,0.9c0,0.3-0.2,0.6-0.5,0.7
	c0,0,0,0,0,0c-0.3,0-0.4,0-0.6-0.7c-0.2-0.5-0.5-0.9-0.9-1.3c0,0,0-0.1,0-0.1c0,0,0,0,0.1,0c0.4,0.1,0.8,0.2,1.1,0.4
	c0.1-0.3,0.2-0.5,0.4-0.8c0.1-0.3,0.2-0.6,0.3-0.9h-4.2c-0.3,0-0.7,0-1,0.1l-0.2-0.5c0.4,0.1,0.7,0.1,1.1,0.1h4.2v-1
	c0-0.3,0-0.5-0.1-0.8c1.7,0.1,1.9,0.3,1.9,0.5s-0.2,0.3-0.5,0.4v0.9h3.3c0.8-0.8,0.9-1,1-1s0.3,0.1,0.9,0.7c0.3,0.2,0.4,0.4,0.4,0.5
	s-0.1,0.1-0.2,0.1L223.6,209.4z M220.5,212.6c-0.4,0-0.5-0.1-0.7-0.9c-0.2-0.6-0.5-1.1-0.9-1.5c0,0,0-0.1,0-0.1c0,0,0,0,0.1,0
	c1.5,0.4,2.3,1,2.3,1.7C221.2,212.2,221,212.6,220.5,212.6C220.5,212.6,220.5,212.6,220.5,212.6L220.5,212.6z M225.8,214
	c-0.2-0.3-0.3-0.6-0.6-0.9c0,0,0-0.1,0.1-0.1c1.2,0.4,2,1,2,1.7c0,0.4-0.3,0.7-0.7,0.7c0,0,0,0,0,0c-0.3,0-0.4-0.1-0.6-0.9
	c0-0.1-0.1-0.2-0.1-0.3c-1.2,0.4-2.4,0.7-3.7,0.9c-0.1,0.3-0.1,0.4-0.2,0.4s-0.3-0.2-0.6-1.5c0.6,0,1,0,1.4,0
	c0.7-0.7,1.3-1.5,1.8-2.4c0.2-0.4,0.4-0.7,0.6-1.1c1.2,0.6,1.4,0.8,1.4,1s0,0.1-0.6,0.2c-0.8,0.8-1.7,1.6-2.6,2.4
	C224.2,214.1,225,214.1,225.8,214L225.8,214z M229.2,211.1c-0.8,0.7-1.7,1.2-2.7,1.6c-0.1,0-0.2-0.1-0.1-0.1c0.5-0.5,1-1.1,1.4-1.7
	c0.2-0.3,0.4-0.6,0.5-1c1.1,0.6,1.4,0.8,1.4,1S229.7,211.2,229.2,211.1L229.2,211.1z M229.2,215.3c-0.4,0-0.5-0.1-0.9-0.8
	c-0.3-0.6-0.8-1.1-1.3-1.4c0,0,0-0.1,0-0.1c0,0,0,0,0.1,0c1.9,0.3,2.8,0.8,2.8,1.6C229.9,215,229.6,215.3,229.2,215.3
	C229.2,215.4,229.2,215.4,229.2,215.3L229.2,215.3z"/>
<path class="st1" d="M136.7,332.6c0,2.2-1.3,3.5-2.9,3.5s-2.9-1.2-2.9-3.4s1.3-3.5,2.9-3.5S136.7,330.5,136.7,332.6z M132.4,332.7
	c0,1.9,0.5,3,1.3,3s1.4-1.1,1.4-3s-0.5-3-1.4-3S132.4,330.7,132.4,332.7z M133.4,341.5l7.9-12.8l0.5,0.3l-7.8,12.8L133.4,341.5z
	 M144.3,337.6c0,2.2-1.3,3.5-2.9,3.5s-2.9-1.3-2.9-3.4s1.3-3.5,2.9-3.5S144.3,335.5,144.3,337.6L144.3,337.6z M140.1,337.7
	c0,1.9,0.5,3,1.4,3s1.3-1.1,1.3-3s-0.5-3-1.3-3S140.1,335.8,140.1,337.7L140.1,337.7z"/>
<path class="st2" d="M56.8,306.2l0.2,0.3c-2.7,0.8-5.3,1.9-7.7,3.4c-1.7,1.1-3.1,2.5-4.1,4.3c-0.9,1.7-1.4,3.5-1.6,5.4
	c-0.2,2.3-0.3,4.5-0.3,6.8c0,2.5,0.1,4.7,0.2,6.4c0,1.3,0.3,2.6,0.9,3.8c0.5,0.8,1.4,1.3,2.4,1.3c1,0.1,2-0.4,2.6-1.1
	c0.6-0.9,1-1.9,1.2-2.9c0.2-1.3,0.3-2.6,0.3-3.9c0-1.4-0.1-2.7-0.3-4.1c-0.1-0.8-0.4-1.5-0.8-2.2c-0.7-1-2-1.5-3.1-1.1
	c-0.5,0.1-1,0.4-1.5,0.6l-0.4-0.4c0.4-1,1.1-1.8,2-2.4c1-0.6,2.1-1,3.2-1.2c1.2-0.2,2.4-0.1,3.6,0.2c2.6,0.6,4.8,2.4,5.8,4.9
	c0.7,1.6,0.9,3.4,0.8,5.1c0,2-0.6,3.9-1.5,5.6c-1,1.7-2.5,3.1-4.4,4c-2.3,1.1-4.8,1.6-7.4,1.6c-2.6,0.1-5.3-0.4-7.6-1.5
	c-2.1-1.1-3.8-2.8-4.7-5c-1.2-2.7-1.7-5.7-1.6-8.6c0-3,0.5-6,1.5-8.8c0.9-2.5,2.4-4.7,4.5-6.5c2.2-1.8,4.7-3.1,7.5-3.7
	C49.8,305.8,53.4,305.7,56.8,306.2z"/>
<path class="st2" d="M75,307.2c2.1-0.1,4.3,0.3,6.3,0.9c1.6,0.5,2.9,1.4,4,2.7c1.6,2.2,1.8,5.1,0.6,7.6c-0.5,0.9-1.2,1.7-2,2.2
	c-0.8,0.5-1.7,0.9-2.7,1.1c-0.9,0.2-1.9,0.1-2.8-0.1c1,0,2,0.2,3,0.4c1.1,0.3,2.2,0.8,3.1,1.5c1,0.7,1.9,1.7,2.5,2.8
	c0.7,1.4,1,2.9,1,4.4c0,2-0.5,4-1.5,5.7c-1,1.6-2.4,3-4,4c-1.7,1.1-3.7,1.8-5.7,2.2c-2.1,0.5-4.3,0.6-6.5,0.4
	c-2.2-0.2-4.4-0.7-6.4-1.6l0.1-0.5c1.8,0,3.6-0.2,5.4-0.7c1.6-0.5,3.1-1.2,4.5-2.2c1.3-0.9,2.3-2.1,3.1-3.5c0.8-1.4,1.1-3,1.1-4.6
	c0.1-1.6-0.4-3.2-1.3-4.5c-0.8-1.1-2-1.9-3.3-2.5c-1.3-0.5-2.6-0.8-3.9-0.8l0.1-0.5c2.8,0.1,5.4-1.4,6.7-3.9c0.7-1.2,0.9-2.6,0.8-4
	c0-1-0.4-1.9-1-2.7c-0.5-0.7-1.2-1.2-2-1.5c-0.8-0.3-1.7-0.4-2.6-0.3c-1.7,0-3.2,1-3.9,2.5c-0.9,2.1-1.2,4.3-1.1,6.5h-0.5l-2.6-8
	c1.4-1.1,3-1.9,4.7-2.4C70.5,307.5,72.7,307.2,75,307.2z"/>
<path class="st2" d="M95.6,340.6c-2.3-0.1-4.1-1.9-4-4.2s1.9-4.1,4.2-4c2.3,0.1,4.1,1.9,4,4.2c0,1.1-0.4,2.1-1.2,2.8
	C97.8,340.2,96.7,340.7,95.6,340.6z"/>
<path class="st2" d="M103.1,340v-0.5h1c0.7,0,1.3-0.3,1.8-0.7c0.5-0.5,0.7-1.1,0.7-1.7v-23.3c0.1-0.9-0.2-1.8-0.8-2.5
	c-0.6-0.5-1.4-0.7-2.2-0.7h-0.8v-0.5c0.7,0,1.5-0.1,2.6-0.2s2.3-0.3,3.5-0.5c1.2-0.2,2.5-0.5,3.7-0.9c1-0.3,2.1-0.7,3-1.3h0.5v29.9
	c0,0.7,0.3,1.3,0.8,1.7c0.5,0.5,1.1,0.7,1.8,0.7h1v0.5H103.1z"/>
<path class="st1" d="M291.8,332.6c0,2.2-1.3,3.5-3,3.5s-2.9-1.2-2.9-3.4s1.3-3.5,2.9-3.5S291.8,330.5,291.8,332.6z M287.5,332.7
	c0,1.9,0.5,3,1.3,3s1.4-1.1,1.4-3s-0.5-3-1.4-3S287.5,330.7,287.5,332.7z M288.5,341.5l7.9-12.8l0.5,0.3l-7.9,12.8L288.5,341.5z
	 M299.4,337.6c0,2.2-1.3,3.5-2.9,3.5s-2.9-1.3-2.9-3.4s1.3-3.5,2.9-3.5S299.5,335.5,299.4,337.6L299.4,337.6z M295.2,337.7
	c0,1.9,0.5,3,1.4,3s1.4-1.1,1.4-3s-0.5-3-1.4-3S295.2,335.8,295.2,337.7L295.2,337.7z"/>
<path class="st2" d="M199.5,340v-0.5h1c1.4,0,2.5-1.1,2.5-2.5v-23.3c0.1-0.9-0.2-1.8-0.8-2.5c-0.6-0.5-1.4-0.7-2.2-0.7h-0.8v-0.5
	c0.6,0,1.5-0.1,2.6-0.2s2.3-0.3,3.5-0.5c1.2-0.2,2.5-0.5,3.7-0.9c1-0.3,2.1-0.7,3-1.3h0.5v29.9c0,0.7,0.3,1.3,0.8,1.7
	c0.5,0.5,1.1,0.7,1.8,0.7h1v0.5H199.5z"/>
<path class="st2" d="M233.2,307.2c5.4-0.2,10.4,2.9,12.6,7.9c2.3,5.6,2.3,12,0,17.6c-2.1,5-7.1,8.2-12.6,8c-2.7,0.1-5.4-0.6-7.7-2.1
	c-2.2-1.4-3.9-3.5-4.9-5.9c-2.3-5.6-2.3-12,0-17.6c1-2.4,2.7-4.4,4.9-5.8C227.8,307.8,230.5,307.1,233.2,307.2z M233.2,309.5
	c-1.6,0-2.8,1.2-3.5,3.5s-1.1,6-1.1,10.9c0,4.9,0.4,8.6,1.1,10.9c0.7,2.3,1.9,3.5,3.5,3.5c1.6,0,2.8-1.2,3.5-3.5
	c0.7-2.3,1.1-6,1.1-10.9c0-4.9-0.4-8.6-1.1-10.9C235.9,310.6,234.8,309.5,233.2,309.5z"/>
<path class="st2" d="M264.9,307.2c5.4-0.2,10.4,2.9,12.6,7.9c2.3,5.6,2.3,12,0,17.6c-1,2.4-2.7,4.4-4.9,5.9
	c-4.7,2.8-10.6,2.8-15.3,0c-2.2-1.4-3.9-3.5-4.9-5.9c-2.3-5.6-2.3-12,0-17.6C254.5,310.1,259.5,306.9,264.9,307.2z M264.9,309.5
	c-1.6,0-2.8,1.2-3.5,3.5s-1.1,6-1.1,10.9s0.4,8.6,1.1,10.9s1.9,3.5,3.5,3.5s2.8-1.2,3.5-3.5s1.1-6,1.1-10.9s-0.4-8.6-1.1-10.9
	S266.5,309.5,264.9,309.5z"/>
<path class="st1" d="M27.9,189.4c-0.3,0.7-0.6,1.3-1,1.9H27h4.4c0.5-0.6,0.6-0.6,0.8-0.6s0.3,0.1,0.8,0.6c0.2,0.2,0.3,0.3,0.3,0.4
	s0,0.2-0.4,0.4v1c0,3.9,0,4.3,0,4.9c0.1,0.4-0.1,0.9-0.5,1.1c-0.3,0.2-0.7,0.4-1.1,0.4c-0.2,0-0.2-0.1-0.3-0.3
	c-0.1-0.6-0.4-0.8-1.7-1.1c-0.1,0-0.1-0.2,0-0.2c0.8,0.1,1.2,0.1,1.9,0.1c0.2,0,0.2,0,0.2-0.2v-1.9h-4.7c0,1.5,0,2.3,0,3.1
	c0,0.4-0.3,0.6-0.8,0.6s-0.6-0.1-0.6-0.4s0.1-1.6,0.1-2.7V193c-0.9,0.8-1.9,1.5-2.9,2c-0.1,0-0.2-0.1-0.1-0.2
	c1.8-1.5,3.2-3.3,4.1-5.4h-2.7c-0.4,0-0.8,0-1.1,0.1l-0.1-0.5c0.4,0.1,0.8,0.1,1.2,0.1h2.8c0.3-0.8,0.5-1.6,0.7-2.4
	c1.4,0.3,1.8,0.5,1.8,0.6s-0.2,0.3-0.6,0.4c-0.1,0.5-0.3,0.9-0.5,1.4h4.7c0.7-0.8,0.8-0.9,1-0.9c0.1,0,0.3,0.1,1,0.6
	c0.3,0.2,0.4,0.4,0.4,0.5s0,0.1-0.2,0.1H27.9z M31.5,193.4v-1.7h-4.7v1.7H31.5z M26.8,195.6h4.7v-1.8h-4.7V195.6z"/>
<path class="st1" d="M39.6,195.2c-0.3,1.2-0.9,2.3-1.7,3.3c0,0.1-0.2,0-0.2-0.1c0.3-0.9,0.5-1.7,0.6-2.6c0.1-0.5,0.1-1,0.1-1.5
	c1.3,0.4,1.5,0.5,1.5,0.7S39.9,195.1,39.6,195.2z M39.5,192.6c0.5-0.8,0.9-1.5,1.3-2.4c0.3-0.5,0.5-1.1,0.7-1.7
	c1.2,0.5,1.6,0.7,1.6,0.9s-0.1,0.2-0.5,0.2c-0.8,1.1-1.6,2.1-2.6,3c0.4,0,1.4,0,2.1-0.1c-0.1-0.4-0.3-0.7-0.5-1.1
	c0-0.1,0.1-0.1,0.1-0.1c0.4,0.2,0.8,0.5,1.1,0.8c1-1.1,1.7-2.5,2.2-3.9c0.2-0.6,0.4-1.1,0.5-1.7c1.5,0.4,1.8,0.5,1.8,0.7
	s-0.1,0.2-0.5,0.2c0.4,0.8,1,1.6,1.7,2.2c0.7,0.6,1.6,1.1,2.5,1.3c0,0,0.1,0,0.1,0.1c0,0,0,0.1-0.1,0.1c-0.4,0.2-0.7,0.6-0.7,1
	c-0.1,0.2-0.1,0.3-0.2,0.3c-0.2-0.1-0.3-0.2-0.5-0.3c-0.6-0.5-1.1-1.1-1.6-1.7c-0.6-0.9-1-1.8-1.3-2.8c-0.8,1.8-2.1,3.4-3.7,4.6
	c0.3,0.3,0.4,0.6,0.4,1c0,0.4-0.2,0.7-0.6,0.7c0,0,0,0,0,0c-0.4,0-0.5-0.1-0.6-1v-0.2c-0.3,0.1-0.6,0.2-0.9,0.3v2c0,1.5,0,3.4,0,4
	c0,0.4-0.2,0.5-0.7,0.5s-0.6-0.1-0.6-0.4s0.1-1.2,0.1-3.1v-2.7c-0.4,0.1-0.8,0.2-1.3,0.3c-0.1,0.3-0.2,0.4-0.3,0.4s-0.3-0.3-0.5-1.5
	c0.2,0,0.5,0,0.7,0L39.5,192.6z M39.8,187.7c0.1-0.4,0.2-0.8,0.2-1.1c1.1,0.4,1.7,0.6,1.7,0.8s-0.2,0.3-0.5,0.3
	c-0.5,0.6-1,1.2-1.5,1.8c0.4,0.2,0.6,0.6,0.6,1.1c0,0.5-0.3,0.8-0.6,0.8s-0.4-0.1-0.6-0.9c-0.1-0.6-0.4-1.1-0.8-1.4
	c0-0.1,0-0.2,0.1-0.1c0.4,0.1,0.7,0.3,1.1,0.4C39.6,188.8,39.7,188.2,39.8,187.7z M42.4,197.4c-0.3,0-0.5-0.3-0.5-1.1
	c0-0.6-0.1-1.3-0.4-1.9c0,0,0-0.1,0-0.1c0,0,0,0,0.1,0c0.8,0.5,1.3,1.3,1.4,2.2C43,197,42.7,197.4,42.4,197.4L42.4,197.4z
	 M44.8,198.5v0.5c0,0.4-0.2,0.5-0.8,0.5c-0.4,0-0.5-0.1-0.5-0.5c0-0.6,0.1-1.1,0.1-3.4c0-0.7,0-1.4-0.1-2.1c0.7,0.3,0.8,0.4,1.5,0.7
	h2.9c0.5-0.6,0.6-0.7,0.7-0.7s0.2,0.1,0.7,0.5c0.2,0.2,0.3,0.3,0.3,0.4s-0.1,0.2-0.4,0.4v0.6c0,1.8,0.1,3,0.1,3.4s-0.2,0.5-0.8,0.5
	S48,199.3,48,199v-0.5L44.8,198.5z M46.8,192c0.5-0.7,0.7-0.8,0.8-0.8s0.3,0.1,0.8,0.6c0.2,0.2,0.3,0.3,0.3,0.4s0,0.1-0.2,0.1H45
	c-0.3,0-0.5,0-0.8,0.1l-0.2-0.5c0.3,0.1,0.6,0.1,0.9,0.1H46.8z M48,194.5h-3.2v3.6H48V194.5z"/>
<path class="st1" d="M54.5,187.8h-0.3c-0.2,0-0.5,0-0.7,0.1l-0.2-0.5c0.3,0.1,0.6,0.1,0.9,0.1h4.7c0.6-0.7,0.8-0.8,0.8-0.8
	s0.3,0.1,0.8,0.6c0.3,0.2,0.4,0.3,0.4,0.4s0,0.1-0.2,0.1H59v4c0,2.7,0,6,0,7.1c0,0.4-0.2,0.6-0.8,0.6s-0.6-0.1-0.6-0.5
	s0.1-1.1,0.1-2.7v-0.4c-1.1,0.7-2.3,1.2-3.5,1.6c-0.1,0.4-0.2,0.5-0.4,0.5s-0.2,0-0.7-1.7c0.4,0,0.8-0.1,1.3-0.1L54.5,187.8z
	 M55.7,190.2h2.1v-2.4h-2.1V190.2z M55.7,192.8h2.1v-2.3h-2.1V192.8z M55.7,195.9c0.7-0.1,1.4-0.2,2.1-0.4v-2.3h-2.1V195.9z
	 M63.8,189c0.6-0.6,0.7-0.8,0.8-0.8c0.1,0,0.3,0.1,0.8,0.6c0.3,0.3,0.4,0.4,0.4,0.6s-0.1,0.3-0.5,0.4c-0.3,2-1,3.8-2,5.6
	c0.9,1,2,1.7,3.2,2.3c0.1,0,0,0.1,0,0.2c-0.4,0.1-0.7,0.5-0.8,0.9c-0.1,0.3-0.1,0.4-0.2,0.4c-0.2-0.1-0.4-0.2-0.5-0.3
	c-0.9-0.7-1.7-1.5-2.4-2.4c-0.9,1.1-2.1,2-3.4,2.6c-0.1,0-0.2-0.1-0.1-0.2c1.1-1,2.1-2.1,2.8-3.4l-0.3-0.6c-0.7-1.7-1.1-3.6-1.3-5.4
	c-0.3,0-0.6,0-0.9,0.1l-0.1-0.5c0.4,0.1,0.8,0.1,1.2,0.1L63.8,189z M60.7,189.3c0.3,1.8,0.9,3.5,1.8,5c0.7-1.6,1.2-3.3,1.4-5H60.7z"
	/>
<path class="st1" d="M70.3,193.2c-0.5,0.4-1.1,0.8-1.7,1.2c-0.1,0-0.2-0.1-0.1-0.1c0.9-0.9,1.7-2,2.3-3.1c0.3-0.5,0.5-1,0.6-1.5
	c1.5,0.6,1.5,0.7,1.5,0.8s-0.1,0.2-0.5,0.3c-0.4,0.6-0.8,1.2-1.3,1.6c0.6,0.1,0.7,0.1,0.7,0.3s-0.1,0.2-0.4,0.3v6
	c0,0.4-0.2,0.6-0.7,0.6c-0.3,0-0.6-0.1-0.6-0.5s0.1-1.5,0.1-3.7L70.3,193.2z M72.3,187.8c-1,1.2-2.2,2.2-3.6,2.8
	c-0.1,0-0.1-0.1-0.1-0.1c0.7-0.7,1.4-1.5,1.9-2.4c0.3-0.5,0.5-1,0.7-1.5c1.2,0.6,1.7,0.8,1.7,1S72.8,187.8,72.3,187.8z M79.2,196.2
	c0,0.7,0,1.3,0,2c0,0.3-0.1,0.7-0.4,0.9c-0.3,0.3-0.7,0.4-1.1,0.4c-0.2,0-0.3-0.1-0.3-0.2c0,0,0,0,0,0c-0.1-0.5-0.4-0.7-1.5-1
	c-0.1,0-0.1-0.2,0-0.2c0.7,0,1.2,0.1,1.7,0.1c0.2,0,0.2,0,0.2-0.2V195h-4.5c-0.3,0-0.7,0-1,0.1l-0.2-0.5c0.4,0.1,0.8,0.1,1.2,0.1H78
	v-0.3c0-0.3,0-0.7-0.1-1c1.5,0.2,1.7,0.2,1.7,0.4s-0.1,0.2-0.4,0.3v0.6h0.5c0.5-0.6,0.7-0.7,0.8-0.7s0.3,0.1,0.8,0.5
	c0.2,0.2,0.3,0.3,0.3,0.4s0,0.1-0.2,0.1h-2.2V196.2z M79.4,192.8c0.6-0.7,0.7-0.8,0.8-0.8s0.3,0.1,0.8,0.5c0.2,0.2,0.4,0.3,0.4,0.4
	s-0.1,0.1-0.2,0.1h-7.6c-0.3,0-0.7,0-1,0.1l-0.2-0.5c0.4,0.1,0.8,0.1,1.1,0.1L79.4,192.8z M74.9,191.4c0,0.4-0.2,0.6-0.7,0.6
	s-0.6-0.1-0.6-0.4s0.1-0.7,0.1-2.2c0-0.8,0-1.6-0.1-2.4c0.5,0.2,1,0.4,1.4,0.7h3.4c0.5-0.6,0.6-0.6,0.7-0.6s0.2,0.1,0.7,0.5
	c0.2,0.2,0.3,0.3,0.3,0.4s0,0.2-0.4,0.4v0.5c0,1.4,0.1,2.3,0.1,2.6s-0.2,0.6-0.7,0.6s-0.6-0.1-0.6-0.6l0,0L74.9,191.4z M75.2,197.8
	c-0.4,0-0.5-0.1-0.7-0.8c-0.1-0.5-0.4-1-0.8-1.4c0-0.1,0-0.1,0.1-0.1c1.4,0.3,2,0.9,2,1.5C76,197.4,75.7,197.8,75.2,197.8
	C75.3,197.8,75.2,197.8,75.2,197.8L75.2,197.8z M78.6,187.8h-3.7v1.4h3.7L78.6,187.8z M78.6,189.6h-3.7v1.4h3.7L78.6,189.6z"/>
<path class="st1" d="M90.9,196.3c0,1.5,0,2.5,0,2.8s-0.3,0.5-0.8,0.5s-0.6-0.1-0.6-0.5s0.1-1.1,0.1-2.8h-4.3c-0.3,0-0.7,0-1,0.1
	l-0.2-0.5c0.4,0.1,0.8,0.1,1.2,0.1h4.4v-0.1c0-0.5,0-1-0.1-1.6c1.6,0.2,1.8,0.2,1.8,0.4s-0.1,0.2-0.5,0.4v0.8h3.5c0.7-0.9,0.9-1,1-1
	s0.3,0.1,1,0.7c0.3,0.2,0.4,0.4,0.4,0.5s0,0.1-0.2,0.1L90.9,196.3z M85.4,194.3c0,0.4,0,0.6-0.2,0.6s-0.4-0.4-0.9-1.5
	c0.4-0.1,0.8-0.2,1.2-0.4c0.9-0.3,1.7-0.6,2.5-1c0.1,0,0.2,0.1,0.1,0.2C87.3,193.1,86.4,193.8,85.4,194.3L85.4,194.3z M89.7,188.7
	c1,0.4,1.3,0.6,1.3,0.7s0,0.1-0.5,0.2c-0.4,0.4-0.8,0.8-1.2,1.1c0.3,0.2,0.5,0.5,0.5,0.9c0,0.3-0.2,0.6-0.5,0.7c0,0,0,0,0,0
	c-0.3,0-0.4-0.1-0.6-0.8c-0.2-0.5-0.5-0.9-0.8-1.3c0,0,0-0.1,0-0.1c0,0,0,0,0,0c0.4,0.1,0.8,0.2,1.1,0.4c0.1-0.3,0.3-0.5,0.4-0.8
	c0.1-0.3,0.2-0.6,0.3-0.9h-4.1c-0.3,0-0.7,0-1,0.1l-0.2-0.5c0.4,0.1,0.7,0.1,1.1,0.1h4.2v-1c0-0.3,0-0.6-0.1-0.8
	c1.7,0.1,1.9,0.3,1.9,0.5s-0.2,0.3-0.5,0.4v0.9h3.3c0.8-0.8,0.9-1,1-1s0.3,0.1,0.9,0.7c0.3,0.2,0.4,0.4,0.4,0.5s0,0.1-0.2,0.1
	L89.7,188.7z M86.6,191.8c-0.4,0-0.5-0.1-0.7-0.9c-0.2-0.6-0.5-1.1-0.9-1.5c0,0,0-0.1,0-0.1c0,0,0,0,0.1,0c1.5,0.4,2.3,1,2.3,1.7
	C87.3,191.5,87,191.8,86.6,191.8C86.6,191.9,86.6,191.9,86.6,191.8L86.6,191.8z M91.8,193.2c-0.2-0.3-0.3-0.6-0.6-0.8
	c0-0.1,0-0.1,0.1-0.1c1.2,0.4,1.9,1,1.9,1.7c0,0.4-0.3,0.7-0.6,0.7c0,0,0,0,0,0c-0.3,0-0.4-0.1-0.6-0.9c0-0.1-0.1-0.2-0.1-0.3
	c-1.2,0.4-2.4,0.7-3.7,0.9c-0.1,0.3-0.1,0.4-0.2,0.4s-0.3-0.2-0.6-1.5c0.6,0,1,0,1.4,0c0.7-0.7,1.3-1.5,1.8-2.3
	c0.2-0.4,0.4-0.7,0.6-1.1c1.2,0.6,1.4,0.8,1.4,0.9s0,0.2-0.6,0.2c-0.8,0.8-1.7,1.6-2.7,2.4C90.2,193.4,91,193.3,91.8,193.2
	L91.8,193.2z M95.3,190.3c-0.8,0.7-1.7,1.2-2.7,1.7c-0.1,0-0.2-0.1-0.1-0.1c0.5-0.5,1-1.1,1.4-1.7c0.2-0.3,0.4-0.6,0.5-1
	c1.1,0.6,1.4,0.8,1.4,1S95.8,190.4,95.3,190.3L95.3,190.3z M95.2,194.6c-0.3,0-0.5-0.1-0.8-0.8c-0.3-0.6-0.8-1.1-1.3-1.4
	c-0.1,0,0-0.2,0-0.1c1.9,0.3,2.8,0.8,2.8,1.6C95.9,194.2,95.6,194.6,95.2,194.6C95.3,194.6,95.2,194.6,95.2,194.6L95.2,194.6z"/>
<line class="st5" x1="167.5" y1="165.5" x2="167.5" y2="366.2"/>
<line class="st5" x1="0" y1="165.5" x2="335" y2="165.5"/>
<rect x="53" y="217.8" class="st1" width="69" height="38.5"/>
<path class="st6" d="M67.8,263.6c3.6,0,6.5-2.9,6.5-6.5s-2.9-6.5-6.5-6.5c-3.6,0-6.5,2.9-6.5,6.5C61.2,260.6,64.1,263.6,67.8,263.6
	C67.7,263.6,67.8,263.6,67.8,263.6z"/>
<path class="st6" d="M67.8,267.1c-4.8,0-8.3,5.7-8.3,9.2v7h16.6v-7C76.1,272.7,72.6,267.1,67.8,267.1z"/>
<path class="st6" d="M88.6,263.6c3.6,0,6.5-2.9,6.5-6.6s-2.9-6.5-6.6-6.5c-3.6,0-6.5,2.9-6.5,6.5C82,260.6,84.9,263.6,88.6,263.6
	C88.5,263.6,88.5,263.6,88.6,263.6z"/>
<path class="st6" d="M88.6,267.1c-4.8,0-8.3,5.7-8.3,9.2v7h16.6v-7C96.8,272.7,93.3,267.1,88.6,267.1z"/>
<path class="st6" d="M107.3,268.4c2.7,0,4.9-2.2,4.9-4.9c0-2.7-2.2-4.9-4.9-4.9c-2.7,0-4.9,2.2-4.9,4.9
	C102.4,266.2,104.6,268.4,107.3,268.4C107.3,268.4,107.3,268.4,107.3,268.4z"/>
<path class="st6" d="M107.3,271.1c-3.6,0-6.2,4.3-6.2,6.9v5.2h12.5v-5.2C113.5,275.3,110.9,271.1,107.3,271.1z"/>
<path class="st1" d="M67.8,263.6c3.6,0,6.5-2.9,6.5-6.5s-2.9-6.5-6.5-6.5c-3.6,0-6.5,2.9-6.5,6.5C61.2,260.6,64.1,263.6,67.8,263.6
	C67.7,263.6,67.8,263.6,67.8,263.6z"/>
<path class="st1" d="M67.8,267.1c-4.8,0-8.3,5.7-8.3,9.2v7h16.6v-7C76.1,272.7,72.6,267.1,67.8,267.1z"/>
<path class="st1" d="M88.6,263.6c3.6,0,6.5-2.9,6.5-6.6s-2.9-6.5-6.6-6.5c-3.6,0-6.5,2.9-6.5,6.5C82,260.6,84.9,263.6,88.6,263.6
	C88.5,263.6,88.5,263.6,88.6,263.6z"/>
<path class="st1" d="M88.6,267.1c-4.8,0-8.3,5.7-8.3,9.2v7h16.6v-7C96.8,272.7,93.3,267.1,88.6,267.1z"/>
<path class="st1" d="M107.3,268.4c2.7,0,4.9-2.2,4.9-4.9c0-2.7-2.2-4.9-4.9-4.9c-2.7,0-4.9,2.2-4.9,4.9
	C102.4,266.2,104.6,268.4,107.3,268.4C107.3,268.4,107.3,268.4,107.3,268.4z"/>
<path class="st1" d="M107.3,271.1c-3.6,0-6.2,4.3-6.2,6.9v5.2h12.5v-5.2C113.5,275.3,110.9,271.1,107.3,271.1z"/>
<rect x="53" y="282.8" class="st1" width="69" height="4.5"/>
</svg>
