<svg xmlns="http://www.w3.org/2000/svg" xmlns:xlink="http://www.w3.org/1999/xlink" viewBox="0 0 1082 339.86"><defs><style>.cls-1,.cls-6,.cls-7,.cls-8{fill:none;}.cls-2{fill:#fff;}.cls-3{clip-path:url(#clip-path);}.cls-4{fill:#333;}.cls-5{fill:#e8314b;}.cls-6,.cls-8{stroke:#e8314b;}.cls-6,.cls-7,.cls-8{stroke-miterlimit:10;}.cls-6{stroke-width:1.76px;}.cls-7{stroke:#ccc;}</style><clipPath id="clip-path"><rect class="cls-1" width="1082" height="339.86"/></clipPath></defs><g id="レイヤー_2" data-name="レイヤー 2"><g id="pc"><rect class="cls-2" width="1082" height="339.86"/><g class="cls-3"><path class="cls-4" d="M713.73,283.56c0,3.57-2.13,5.7-4.78,5.7s-4.68-2-4.68-5.51S706.37,278,709,278,713.73,280.13,713.73,283.56Zm-6.94.11c0,3.14.8,4.89,2.16,4.89s2.23-1.75,2.23-4.89-.83-4.92-2.23-4.92S706.79,280.5,706.79,283.67Zm1.66,14.27,12.77-20.8.86.52-12.77,20.8Zm17.68-6.21c0,3.59-2.08,5.72-4.7,5.72s-4.76-2.06-4.76-5.54,2.16-5.69,4.76-5.69S726.13,288.3,726.13,291.73Zm-6.91.1c0,3.15.83,4.89,2.21,4.89s2.18-1.74,2.18-4.89-.8-4.91-2.18-4.91S719.22,288.69,719.22,291.83Z"/><path class="cls-5" d="M523.61,233.68a36.18,36.18,0,0,1,12.29,1.85,17.31,17.31,0,0,1,7.83,5.26,12.94,12.94,0,0,1,2.74,8.37,13.26,13.26,0,0,1-1.48,6.48,12.11,12.11,0,0,1-3.92,4.32,13.61,13.61,0,0,1-5.26,2.12,12.17,12.17,0,0,1-5.45-.23,23,23,0,0,1,5.9.86,19.63,19.63,0,0,1,6.12,2.88,15.63,15.63,0,0,1,4.81,5.49,18,18,0,0,1,1.89,8.68,21,21,0,0,1-2.92,11.12,24,24,0,0,1-7.88,7.92,33.93,33.93,0,0,1-11.11,4.41,42.58,42.58,0,0,1-12.69.72A38.17,38.17,0,0,1,502,300.64l.18-.9a35.46,35.46,0,0,0,10.53-1.35,27.29,27.29,0,0,0,8.78-4.27,21.15,21.15,0,0,0,6-6.84,18.27,18.27,0,0,0,2.2-9c0-3.65-.85-6.58-2.56-8.77a15.18,15.18,0,0,0-6.39-4.82,20.6,20.6,0,0,0-7.7-1.53l.18-.9a14.56,14.56,0,0,0,13.14-7.51,13,13,0,0,0,1.53-7.88,9.6,9.6,0,0,0-1.89-5.35,8.57,8.57,0,0,0-4-2.84,12,12,0,0,0-5.09-.54q-5.4.45-7.65,4.73t-2.07,12.73h-.9l-5.13-15.57a25.76,25.76,0,0,1,9.27-4.63A45.67,45.67,0,0,1,523.61,233.68Z"/><path class="cls-5" d="M563.12,301.18l-.36-.63q9.63-3,15.08-6.66a23.92,23.92,0,0,0,8-8.37A28.43,28.43,0,0,0,589,275a127,127,0,0,0,.63-13.37q0-7.45-.36-12.46a18.42,18.42,0,0,0-1.75-7.47,5,5,0,0,0-4.73-2.48,6,6,0,0,0-5,2.21,12.88,12.88,0,0,0-2.34,5.71,43.37,43.37,0,0,0-.63,7.65,42.37,42.37,0,0,0,.59,8,10.92,10.92,0,0,0,1.62,4.28,5.52,5.52,0,0,0,6.12,2.2A12.3,12.3,0,0,0,586,268l.63.72a10.79,10.79,0,0,1-4,4.59,15.21,15.21,0,0,1-6.21,2.34,18.39,18.39,0,0,1-7.11-.31,16.81,16.81,0,0,1-6.61-3.24,16.64,16.64,0,0,1-4.82-6.44,22.56,22.56,0,0,1-1.62-9.9,23.47,23.47,0,0,1,3-11,20,20,0,0,1,8.55-7.92q5.76-3,14.67-3.06,13.23-.18,20.3,7t7.06,22.68A48.39,48.39,0,0,1,607,280.71a30.72,30.72,0,0,1-8.73,12.64,34.19,34.19,0,0,1-14.58,7.16Q574.91,302.63,563.12,301.18Z"/><path class="cls-5" d="M624.68,299A8.11,8.11,0,0,1,619,285.16a8.11,8.11,0,0,1,11.47,11.48A7.75,7.75,0,0,1,624.68,299Z"/><path class="cls-5" d="M661,233.68a36.18,36.18,0,0,1,12.29,1.85,17.36,17.36,0,0,1,7.83,5.26,12.94,12.94,0,0,1,2.74,8.37,13.26,13.26,0,0,1-1.48,6.48A12.11,12.11,0,0,1,678.5,260a13.61,13.61,0,0,1-5.26,2.12,12.17,12.17,0,0,1-5.45-.23,23,23,0,0,1,5.9.86,19.63,19.63,0,0,1,6.12,2.88,15.63,15.63,0,0,1,4.81,5.49,18,18,0,0,1,1.89,8.68,21.09,21.09,0,0,1-2.92,11.12,24,24,0,0,1-7.88,7.92,34,34,0,0,1-11.11,4.41,42.58,42.58,0,0,1-12.69.72,38.11,38.11,0,0,1-12.47-3.29l.18-.9a35.46,35.46,0,0,0,10.53-1.35,27.39,27.39,0,0,0,8.78-4.27,21.15,21.15,0,0,0,6-6.84,18.27,18.27,0,0,0,2.2-9c0-3.65-.85-6.58-2.56-8.77a15.18,15.18,0,0,0-6.39-4.82,20.6,20.6,0,0,0-7.7-1.53l.18-.9a14.56,14.56,0,0,0,13.14-7.51,13,13,0,0,0,1.53-7.88,9.6,9.6,0,0,0-1.89-5.35,8.62,8.62,0,0,0-4-2.84,12,12,0,0,0-5.09-.54q-5.4.45-7.65,4.73t-2.07,12.73h-.9l-5.13-15.57a25.76,25.76,0,0,1,9.27-4.63A45.67,45.67,0,0,1,661,233.68Z"/><path class="cls-4" d="M49.94,48.5a4.13,4.13,0,0,0,.16,1.8c.16.39.65.41,1.3.47.1,0,.12,0,.12.23s0,.23-.14.23c-.74,0-1.57-.07-2.32-.07s-1.68,0-2.44.07c-.12,0-.16,0-.16-.23s0-.22.16-.23c.58-.06,1.08-.09,1.23-.4a4.31,4.31,0,0,0,.23-1.84v-.81H45.24l-1.71,0c-.16,0-.24-.05-.24-.47a1.15,1.15,0,0,1,.2-.74c1.69-3,3-5.24,4.83-8.08l1.6-.43c.09,0,.14,0,.14.21,0,1.43,0,2.9-.09,4.6l0,4.21c.48,0,1.19,0,1.82-.09.09,0,.12,0,.1.12l-.16.54c0,.11-.05.13-.16.13-.52,0-1.22,0-1.6,0Zm-1.82-5.35c0-1.35,0-2.13.11-3.35-1.41,2.23-2.85,4.63-4.11,7-.11.2-.09.29.15.29h3.81Z"/><path class="cls-4" d="M60.25,50.1a8.08,8.08,0,0,1-3.74,3.11c-.09,0-.22-.09-.15-.14a8.32,8.32,0,0,0,2-2.81,5.43,5.43,0,0,0,.45-1.44c1.55.58,2,.79,2,1S60.7,50.06,60.25,50.1ZM64,47.78c.54-.8.76-.94.88-.94s.33.14.83.65l.16.18a50.64,50.64,0,0,0,.27-6.21c0-2.2,0-3.42-.11-4.58a17.17,17.17,0,0,1,1.91,1h2.42c.63-.74.77-.85.91-.85s.33.11,1,.67c.31.25.41.38.41.52s0,.22-.46.52v2c0,9.45.05,9.9.05,10.37,0,.85-.16,1.22-.72,1.55a2.76,2.76,0,0,1-1.31.32c-.29,0-.35,0-.42-.47-.09-.61-.52-.9-1.71-1.18-.09,0-.09-.22,0-.22.77,0,1.53,0,2.14,0,.27,0,.33-.06.33-.29V46.5H67.42A15.15,15.15,0,0,1,67,48.64,9.08,9.08,0,0,1,64,53c-.07,0-.21-.06-.16-.13a10.22,10.22,0,0,0,1.87-4.7H57.51a5,5,0,0,0-.93.11l-.2-.67a4.3,4.3,0,0,0,1.1.15h.79V40.21H57.8a4.85,4.85,0,0,0-.92.11l-.19-.66a4.57,4.57,0,0,0,1.08.14h.5v-1c0-.59,0-1.24-.07-2,2,.2,2.14.38,2.14.56s-.18.31-.52.41v2h2.5v-.9c0-.67,0-1.35-.07-2.09,1.94.18,2.12.34,2.12.51s-.18.32-.5.45v2h.2c.54-.77.75-.92.88-.92s.31.15.77.65A1,1,0,0,1,66,40c0,.13,0,.18-.23.18H63.87v7.57Zm-4.14-7.57v2.2h2.5v-2.2Zm2.5,2.62h-2.5V45h2.5Zm-2.5,2.59v2.36h2.5V45.42Zm3.64,6.34c-.35,0-.62-.2-.81-.89a4.21,4.21,0,0,0-1.28-1.82c-.08,0,0-.17.1-.16,1.91.31,2.83.94,2.83,1.93A.9.9,0,0,1,63.46,51.76Zm4.21-9.47c0,1.26-.06,2.53-.2,3.79h3.1V42.29Zm2.9-4H67.69v3.55h2.88Z"/><path class="cls-4" d="M82.08,49.25a2.7,2.7,0,0,0,1.72,1.52,15,15,0,0,0,4.08.41,57.06,57.06,0,0,0,7-.45c.09,0,.09.16,0,.2a1.13,1.13,0,0,0-.7,1c-.06.55-.09.61-.44.64-1,.13-3.09.17-4.43.17-2.93,0-4.71-.24-5.88-.94a4.36,4.36,0,0,1-1.84-2.65,13.08,13.08,0,0,1-2.07,2.7c0,.69,0,.83-.31.83s-.66-.65-1.33-2.19a9.41,9.41,0,0,0,1.3-.47,8.43,8.43,0,0,0,1.24-.7V44.52H79.17a3.41,3.41,0,0,0-1,.14l-.2-.72a4.2,4.2,0,0,0,1.19.16H80.3c.63-.72.78-.82.92-.82s.32.1,1,.63c.31.25.41.37.41.52s-.05.18-.54.57Zm-1-8.71c-.41,0-.63-.22-.88-1.12A5.3,5.3,0,0,0,79,37.32c-.08-.08,0-.18.14-.17,2.11.53,2.88,1.39,2.88,2.31A1,1,0,0,1,81,40.54Zm6.54-1.28H84a5.23,5.23,0,0,0-1,.11l-.2-.67a4.85,4.85,0,0,0,1.16.15h3.6v-.6a15,15,0,0,0-.06-1.78c1.78.2,2.16.29,2.16.56s-.12.25-.52.43v1.39h2.52c.74-.89,1-1,1.08-1s.38.14,1.14.72c.34.27.48.41.48.54s0,.18-.23.18h-5V41h2.31c.52-.61.66-.72.81-.72s.34.11.93.58c.27.21.38.34.38.48s-.09.25-.43.53v.7c0,1.82.07,3.08.07,3.49s-.36.68-.92.68-.72-.19-.72-.55v-.08H89.18c0,.42,0,1.28,0,2h2.7c.88-1,1.1-1.1,1.22-1.1s.34.14,1.1.78c.32.26.47.43.47.55s-.06.18-.24.18H89.2c0,.74,0,1.3,0,1.66s-.32.68-.93.68-.76-.18-.76-.52,0-.95,0-1.82H84a7,7,0,0,0-1.1.11l-.19-.67A5.94,5.94,0,0,0,84,48h3.55c0-.65,0-1.3,0-2H85.2v.18c0,.45-.31.67-.92.67s-.68-.18-.68-.61.07-1,.07-3.15c0-1,0-2-.07-3a16.16,16.16,0,0,1,1.69.77h2.29ZM85.2,41.38V43.2h2.36c0-.61,0-1.2,0-1.82Zm2.36,2.24H85.2v2.05h2.36Zm1.6-.42h2.43V41.38H89.16Zm2.43,2.47V43.62H89.18v2.05Z"/><path class="cls-4" d="M113.8,43.76c.6-.74.74-.84.89-.84s.32.1,1.2.86c.42.38.52.5.52.65s-.14.36-.73.36a.67.67,0,0,0-.58.2,8.67,8.67,0,0,1-1.4.95.11.11,0,0,1-.15-.13,6.31,6.31,0,0,0,.47-1.63h-6.39v0c0,1.06-.4,2.07-1.3,2.07a.8.8,0,0,1-.79-.83.58.58,0,0,1,0-.18.53.53,0,0,1-.26.06c-.37,0-.46-.11-.54-.85l-.84.27v2.63c0,1.93,0,4.39,0,5.19,0,.45-.32.63-.92.63s-.72-.15-.72-.53.11-1.6.11-3.94v-1.3c-.07.09-.21.15-.5.22a12.62,12.62,0,0,1-2.16,4.16c-.06.07-.24,0-.2-.11a22,22,0,0,0,.77-3.44,12.53,12.53,0,0,0,.17-1.82c1.38.42,1.81.58,1.92.74v-2c-.54.14-1.1.27-1.73.41-.1.34-.21.51-.37.51s-.4-.54-.58-2a18.29,18.29,0,0,0,1.84.07h0A31.1,31.1,0,0,0,103.29,41a10.77,10.77,0,0,0,.77-2.07c1.48.64,2,.93,2,1.11s-.16.29-.66.27a20.59,20.59,0,0,1-3.19,3.82c.74,0,1.46,0,2.18-.07h.32a4.12,4.12,0,0,0-.54-1.42c0-.08,0-.13.13-.09,1.13.59,1.73,1.26,1.73,2a.58.58,0,0,1,0,.18,1.91,1.91,0,0,0,1.13-1.78.11.11,0,0,1,.2,0,3.29,3.29,0,0,1,.25.88Zm-11.59-5.89a6.84,6.84,0,0,0,.21-1.37c1.5.47,2.22.8,2.22,1s-.22.31-.72.31a18.89,18.89,0,0,1-2.07,2.32,1.5,1.5,0,0,1,.79,1.29.89.89,0,0,1-.83,1c-.47,0-.52-.08-.77-1.08a3.53,3.53,0,0,0-1-1.8.1.1,0,0,1,.09-.16,7.8,7.8,0,0,1,1.4.56A17.33,17.33,0,0,0,102.21,37.87Zm3.29,12.3c-.48,0-.55-.16-.63-1.35a6.45,6.45,0,0,0-.54-2.2c0-.07.09-.18.16-.12,1.34,1,1.91,1.78,1.91,2.63A1,1,0,0,1,105.5,50.17Zm4.34-3.87c0,.29,0,.56,0,.83a6.6,6.6,0,0,1-1.23,3.71A7.08,7.08,0,0,1,104.75,53c-.09,0-.22-.18-.15-.21a6.28,6.28,0,0,0,2.74-2.43,7.32,7.32,0,0,0,.81-3.86,10.79,10.79,0,0,0-.07-1.17c2,.22,2.23.29,2.23.53S110.18,46.16,109.84,46.3Zm1.51-4.63h1.46c.72-.86.94-1,1.07-1s.36.14,1.06.7c.3.25.45.41.45.54s-.06.18-.24.18h-7.43a4.92,4.92,0,0,0-1,.11l-.2-.67a5.22,5.22,0,0,0,1.21.14h2V39.53h-2.39a6.58,6.58,0,0,0-1.08.11L106,39a5.79,5.79,0,0,0,1.28.15h2.39V38c0-.33,0-.79-.09-1.42,2.09.18,2.27.36,2.27.54s-.16.28-.51.45v1.53h1.81c.82-1,1-1.16,1.17-1.16s.36.15,1.15.8c.36.3.5.46.5.59s0,.18-.23.18h-4.4Zm1.34,9.08c0,.38.09.43.74.43s1,0,1.29-.25a4.73,4.73,0,0,0,.9-2c0-.09.2-.07.2,0,0,.51,0,1.28,0,1.51s0,.27.21.36a.7.7,0,0,1,.42.67,1,1,0,0,1-.65.9,6.09,6.09,0,0,1-2.22.31c-2,0-2.54-.35-2.54-1.75,0-.31,0-.61,0-1.95,0-1.18,0-2.37-.09-3.58,2,.24,2.22.27,2.22.52s-.15.29-.47.42Z"/><path class="cls-4" d="M128.74,45.31c0,.45-.27.67-1,.67-.43,0-.65-.15-.65-.49s0-1.4.06-3.37c0,.09-.08.15-.24.15H125v5.45c.74-.23,1.48-.48,2.13-.75.09,0,.16.16.09.21a21.71,21.71,0,0,1-4.63,2.9c0,.56-.14.78-.4.78s-.52-.49-1.09-2.2a13.75,13.75,0,0,0,1.51-.27c.25,0,.5-.13.77-.2V42.27h-.93a4.48,4.48,0,0,0-1,.11l-.2-.67a4.08,4.08,0,0,0,1.07.14h1V39a18.09,18.09,0,0,0-.09-2.2c2.14.22,2.36.42,2.36.62s-.14.28-.65.52v3.92h.16c.44-.83.65-1,.78-1s.32.14.86.68a1.36,1.36,0,0,1,.35.51v-.56a25.31,25.31,0,0,0-.11-2.61,13.59,13.59,0,0,1,1.83,1h4a11.42,11.42,0,0,0,.88-1.85,9.72,9.72,0,0,0,.45-1.44c1.84.68,2.15.83,2.15,1.06s-.2.33-.81.34a15,15,0,0,1-2,1.89h1.84c.57-.7.72-.81.86-.81s.32.11,1,.69c.29.25.4.38.4.52s-.17.32-.54.59v.74c0,1.91,0,3.24,0,3.68s-.3.64-1,.64c-.41,0-.63-.16-.63-.59Zm1,6.73v.45c0,.49-.31.69-1,.69-.47,0-.68-.16-.68-.58,0-.59.07-1.33.07-3.89,0-.9,0-1.8-.07-2.72a10.38,10.38,0,0,1,1.81.87h4.49c.57-.67.72-.78.86-.78s.33.11,1,.63c.28.26.39.38.39.53s-.11.3-.5.55v.76c0,2,0,3.4,0,3.85s-.32.71-1,.71c-.47,0-.7-.15-.7-.56V52Zm.49-12.4c-.36,0-.58-.2-.72-.72a5.7,5.7,0,0,0-1-2.14.11.11,0,0,1,.13-.15c1.67.6,2.46,1.26,2.46,2A.9.9,0,0,1,130.24,39.64Zm1,2.65v-2h-2.47v2Zm-2.47,2.61h2.47V42.7h-2.47Zm5.71,2.37h-4.7V49.2h4.7Zm0,2.34h-4.7v2h4.7Zm1.06-9.34h-2.7v2h2.7Zm0,2.43h-2.7v2.2h2.7Z"/><path class="cls-4" d="M149.42,40.12c0,9,.08,11.2.08,12.14,0,.52-.33.81-1.05.81-.56,0-.79-.2-.79-.63,0-.59,0-2,.07-4.56A19.21,19.21,0,0,1,144.36,50c0,.55-.18.81-.41.81s-.25,0-1.13-2.36a6.36,6.36,0,0,0,1.18-.13l.29-.05V41.11a24.13,24.13,0,0,0-.14-2.41c2.12.2,2.32.38,2.32.56s-.18.34-.58.49V47.9c.62-.14,1.25-.3,1.84-.48,0-1.12,0-2.4,0-3.91a61.48,61.48,0,0,0-.14-6.79c2.19.18,2.44.25,2.44.52s-.05.22-.63.49Zm6.9-1.49c.74-.85.88-1,1-1s.32.1,1.09.79c.36.34.47.47.47.61s-.12.34-.59.58a20.15,20.15,0,0,1-3,8.13A12.65,12.65,0,0,0,159.78,51c.09,0,.05.21,0,.23-.54.16-.77.45-1,1.19-.13.34-.17.41-.33.41a1.65,1.65,0,0,1-.63-.29,12.72,12.72,0,0,1-3.38-3.44,14.17,14.17,0,0,1-4.54,3.68c-.07,0-.2-.16-.13-.22a17.76,17.76,0,0,0,4-4.59,20.56,20.56,0,0,1-2.42-8.86,7.63,7.63,0,0,0-1,.13l-.2-.7a9.86,9.86,0,0,0,1.58.14Zm-4.66.41a18.93,18.93,0,0,0,2.72,7.57A24.52,24.52,0,0,0,156.54,39Z"/><path class="cls-4" d="M485.49,51.76v.64c0,.51-.31.74-1,.74s-.77-.2-.77-.61c0-1.58.07-3.26.07-9.61,0-1.48,0-3-.07-4.45a18.38,18.38,0,0,1,2,1h1.62c.22-.61.42-1.24.56-1.8a5.56,5.56,0,0,0,.22-1.22c1.78.45,2.23.65,2.23.9s-.16.29-.67.38A10.86,10.86,0,0,1,488,39.42h5c.63-.68.77-.79.92-.79s.36.09,1.08.63c.34.25.46.43.46.58s-.09.28-.57.63v1.82c0,5.22.07,8.85.07,10,0,.52-.29.74-1,.74-.57,0-.77-.16-.77-.65v-.66Zm7.69-11.92h-7.69v3.33h7.69Zm0,3.74h-7.69V47h7.69Zm0,3.87h-7.69v3.89h7.69Z"/><path class="cls-4" d="M514.89,38.34H506a6.42,6.42,0,0,0-1.33.15l-.2-.72a7.54,7.54,0,0,0,1.51.16h8.83c.63-.72.77-.83.92-.83s.34.11,1,.63c.33.25.43.38.43.52s0,.18-.55.61v.87c0,2.25.09,3.82.09,4.32s-.33.86-1.07.86c-.5,0-.75-.16-.75-.61v-.61h-8.63v6c0,.81.36,1,4.31,1,4.57,0,5.4-.13,5.87-.47s.79-1.06,1.29-2.88c0-.09.25-.07.25,0,0,.75-.07,1.87-.07,2.25s0,.38.24.47a.64.64,0,0,1,.43.68c0,.58-.42,1-1.51,1.21a31.76,31.76,0,0,1-5.91.34c-5.73,0-6.68-.33-6.68-2.38,0-.74,0-2.07,0-4,0-1.71,0-2.2-.09-3.57a21.75,21.75,0,0,1,2,1h8.46Z"/><path class="cls-4" d="M525.83,42.92c-.07.46-.18.64-.42.64s-.32-.1-.91-2.1a17.14,17.14,0,0,0,1.85-.09,31.35,31.35,0,0,0,4.18-.67c.09,0,.16.2.09.23A24.09,24.09,0,0,1,525.83,42.92Zm4.54,8.93a14.08,14.08,0,0,1-5.75,1.22c-.09,0-.12-.22,0-.23a13.93,13.93,0,0,0,3.29-1.46,4.9,4.9,0,0,0,1.3-1.1c2,1.13,2,1.13,2,1.37S531.07,51.86,530.37,51.85ZM527,44.37c-.58.08-1.17.15-1.82.2-.09,0-.15-.2-.06-.21a14.49,14.49,0,0,0,1.86-.42c0-.39,0-.79,0-1.19a14.08,14.08,0,0,1,1.62.63,8.4,8.4,0,0,0,3.23-2.27A5.56,5.56,0,0,0,532.89,39c1.58.24,2.25.45,2.25.69s-.2.27-.67.39a6.68,6.68,0,0,0,2.59,1.86,12,12,0,0,0,4,.74c.09,0,.05.18,0,.21a1.49,1.49,0,0,0-.94,1.33.25.25,0,0,1-.27.2,2.88,2.88,0,0,1-.77-.18q-.46-.16-.9-.36a1.8,1.8,0,0,1-.36.25V45c0,2.5.07,4.25.07,4.81s-.38.63-1,.63c-.45,0-.69-.15-.69-.54h-7.47V50c0,.4-.32.59-.94.59s-.75-.16-.75-.59c0-.81.09-1.64.09-4.95Zm.54-4.55c-.42,0-.61-.16-.87-.74a4.46,4.46,0,0,0-1.38-1.87c-.08-.06,0-.15.07-.15,2.07.18,3.11.76,3.11,1.79A.91.91,0,0,1,527.56,39.82Zm1.06,5.6h7.47V43.85h-6.52l-1,.24Zm7.47.41h-7.47V47.4h7.47Zm0,2h-7.47v1.71h7.47Zm-4.64-9A9.5,9.5,0,0,1,529,40.45c-.07,0-.25-.11-.18-.16a8.46,8.46,0,0,0,1.64-2.36,8.35,8.35,0,0,0,.58-1.62c1.69.5,2.16.72,2.16.92s-.09.25-.79.37a4.38,4.38,0,0,1-.58.76h5.91c.66-.74.81-.85,1-.85s.31.11,1.06.81c.34.33.45.47.45.62,0,.32-.09.41-.75.45a1,1,0,0,0-.62.25,12.27,12.27,0,0,1-1.89,1c-.09,0-.21-.15-.16-.22a6.65,6.65,0,0,0,1-1.68ZM536,43.44a6.14,6.14,0,0,1,.46-.52,7.31,7.31,0,0,1-2.17-2.62,7.37,7.37,0,0,1-3.52,3.14Zm2.34,9.81a1.46,1.46,0,0,1-1.08-.52,8.94,8.94,0,0,0-3.66-1.89c-.09,0-.07-.18,0-.18,4.66,0,5.71.66,5.71,1.69A1,1,0,0,1,538.31,53.25Z"/><path class="cls-4" d="M552.94,48.59c0-1.86.09-3.71.09-5.57a17.38,17.38,0,0,1-7.37,6.88c-.09,0-.19-.12-.12-.18a21.53,21.53,0,0,0,6.55-8.7H548a13.38,13.38,0,0,0-1.55.11l-.2-.66a11.38,11.38,0,0,0,1.71.14h5V39.08a20.65,20.65,0,0,0-.11-2.5c1.84.14,2.38.27,2.38.54s-.15.3-.56.52v3h4.23c.85-1.1,1.06-1.24,1.19-1.24s.36.14,1.3.86c.41.34.55.49.55.61s0,.18-.23.18h-6.88A11.54,11.54,0,0,0,557.58,45a13.48,13.48,0,0,0,5.06,2.81.09.09,0,0,1,0,.18,1.89,1.89,0,0,0-1.33,1.39c-.09.25-.18.34-.32.34a2,2,0,0,1-.81-.38,13.39,13.39,0,0,1-3.52-3.44,17.38,17.38,0,0,1-2.12-4.32c0,1.67.09,5.44.14,7.06h.92c.76-1,1-1.14,1.1-1.14s.34.15,1.12.8c.32.28.47.45.47.57s-.06.18-.24.18h-3.37c0,1.64.06,2.85.06,3.39s-.4.73-1.1.73-.79-.16-.79-.61,0-1.74.07-3.51h-2a10.28,10.28,0,0,0-1.34.11l-.19-.67a7.15,7.15,0,0,0,1.42.15Z"/><path class="cls-4" d="M571.3,50a43.28,43.28,0,0,0,4.32-1.26c.09,0,.16.14.09.2a29.91,29.91,0,0,1-6.65,3.22c-.09.5-.21.7-.46.7s-.44-.36-1-2.23c.36,0,.74-.07,1.13-.14l.85-.15V39.24a13.07,13.07,0,0,0-.11-2.16c2.23.2,2.47.4,2.47.58s-.13.29-.63.52V42.9H573c.92-1,1.14-1.19,1.26-1.19s.35.14,1.16.83c.36.3.5.46.5.59s-.05.18-.23.18H571.3ZM578,44.3a15.15,15.15,0,0,0,2.64-2.46,9.21,9.21,0,0,0,1.23-1.77c1.44.9,2,1.33,2,1.59s-.17.34-.87.25a17,17,0,0,1-5,2.93V50.3c0,.72.16.77,2.18.77a3,3,0,0,0,1.58-.21c.45-.26.77-1.07,1.33-2.85,0-.09.24-.07.24,0-.06.74-.15,2-.15,2.25a.37.37,0,0,0,.24.4c.39.19.52.34.52.66,0,.52-.34.85-1.12,1a13.31,13.31,0,0,1-2.75.21c-3.28,0-3.84-.29-3.84-2,0-.35.06-.69.06-2.06,0-3.78,0-7.56-.08-11.36,2,.2,2.29.27,2.29.56s-.09.32-.5.5Z"/><path class="cls-4" d="M597.87,49c0,1.89,0,3.19,0,3.64s-.4.61-1,.61-.76-.14-.76-.65.07-1.46.09-3.6h-5.56a9.74,9.74,0,0,0-1.32.11l-.2-.67a7.79,7.79,0,0,0,1.48.15h5.6v-.11a18.17,18.17,0,0,0-.09-2c2.11.22,2.34.29,2.34.56s-.09.23-.59.48v1.07h4.46c.9-1.12,1.12-1.26,1.24-1.26s.36.14,1.28.88c.42.32.56.49.56.61s0,.18-.23.18Zm-7.12-2.52c0,.54-.07.72-.32.72s-.5-.45-1.19-1.94c.54-.15,1.06-.29,1.55-.45A17.82,17.82,0,0,0,594,43.47c.08,0,.24.15.18.22A13.33,13.33,0,0,1,590.75,46.48Zm5.5-7.27c1.26.48,1.65.7,1.65.91s0,.2-.63.22a9.32,9.32,0,0,1-1.58,1.37,1.46,1.46,0,0,1,.61,1.12.77.77,0,0,1-.74.84c-.43,0-.48-.07-.77-1a3.94,3.94,0,0,0-1.1-1.66.09.09,0,0,1,.07-.16,6,6,0,0,1,1.44.5c.16-.34.33-.68.47-1a6.52,6.52,0,0,0,.41-1.17h-5.36a8.8,8.8,0,0,0-1.26.1l-.2-.66a7.13,7.13,0,0,0,1.42.14h5.44V37.57A7.21,7.21,0,0,0,596,36.5c2.23.2,2.45.4,2.45.6s-.2.36-.63.5v1.19h4.28c1-1.08,1.21-1.22,1.34-1.22s.34.14,1.18.84c.38.33.53.49.53.62s-.06.18-.24.18Zm-4,4.07c-.49,0-.61-.17-.94-1.12a4.19,4.19,0,0,0-1.15-1.93.1.1,0,0,1,.09-.16c2,.58,2.9,1.26,2.9,2.2A1,1,0,0,1,592.25,43.28Zm6.77,1.8a5,5,0,0,0-.74-1.08.1.1,0,0,1,.13-.13c1.53.5,2.5,1.33,2.5,2.18a.88.88,0,0,1-.85.92c-.41,0-.5-.13-.75-1.1a3.12,3.12,0,0,0-.15-.43,24.52,24.52,0,0,1-4.7,1.17c-.09.39-.14.48-.3.48s-.4-.3-.78-1.94c.81,0,1.25.05,1.84.05a22.65,22.65,0,0,0,2.3-3,11.68,11.68,0,0,0,.78-1.46c1.55.81,1.82,1,1.82,1.22s0,.2-.76.24a38.47,38.47,0,0,1-3.4,3C597,45.18,598,45.15,599,45.08Zm4.48-3.73a13.71,13.71,0,0,1-3.42,2.07c-.09,0-.23-.11-.16-.16a13.12,13.12,0,0,0,1.78-2.15,5.88,5.88,0,0,0,.69-1.27c1.38.72,1.83,1,1.83,1.24S604.08,41.37,603.5,41.35Zm-.09,5.42c-.45,0-.59-.15-1.1-1a4.78,4.78,0,0,0-1.71-1.8c-.07,0,0-.2.08-.18,2.41.36,3.6,1.06,3.6,2.11A.87.87,0,0,1,603.41,46.77Z"/><path class="cls-4" d="M995.83,231.07c0,1.3-.08,2.62-.15,3.92h1.71c.81-1.06,1-1.22,1.22-1.22s.47.16,1.36,1c.39.34.54.55.54.76s-.08.26-.62.67c-.29,5.46-.78,9.39-1.46,10.77a3.19,3.19,0,0,1-1,1.25,3,3,0,0,1-1.82.54c-.31,0-.42-.1-.44-.41-.16-1.07-.52-1.49-1.88-1.9-.13,0-.07-.31.06-.31,1.17.1,1.84.13,2.13.13.78,0,1-.13,1.22-1.17a53.78,53.78,0,0,0,.91-9.47h-2c-.52,6.76-2,10.22-5.25,13.21-.11.08-.34-.13-.26-.23,2.36-4,3.35-8.87,3.35-16.75v-.75h-.67a11.16,11.16,0,0,0-1.67.15l-.28-1a9.08,9.08,0,0,0,1.92.21h1.56v-3.15c0-.41,0-1-.1-1.92,2.91.29,3.17.57,3.17.83s-.24.39-.73.65v3.59h.83c.94-1.17,1.25-1.38,1.43-1.38s.5.21,1.35,1c.34.31.55.54.55.73s-.08.26-.34.26Zm7.54-.65A14.69,14.69,0,0,1,1000,234c-.1.08-.36-.08-.28-.18a19.27,19.27,0,0,0,2.39-5.15,17.23,17.23,0,0,0,.65-3.36c2.73.58,3.33.81,3.33,1.17s-.26.47-.94.58a15.64,15.64,0,0,1-1.38,2.78h6.66c1.27-1.56,1.58-1.77,1.77-1.77s.49.21,1.66,1.22c.52.47.73.71.73.89s-.08.26-.34.26Zm.83,15.08c0,.88.16,1,3.49,1s3.9-.11,4.34-.39.62-.63,1.53-3.46c.06-.13.34-.08.34.05,0,.78-.08,1.87-.08,2.37a.61.61,0,0,0,.39.67c.52.32.71.58.71,1,0,.7-.47,1.17-1.67,1.43a24.55,24.55,0,0,1-5,.34c-5.36,0-6.32-.39-6.32-2.44,0-.65,0-1.3,0-4,0-1.19,0-2.36,0-3.56a6.28,6.28,0,0,0-1.53.6l-.49-.86a6.72,6.72,0,0,0,1.66-.29l.36-.1c0-1.64,0-3.28-.07-4.94,2.75.29,3.09.39,3.09.78s-.18.42-.81.68v2.86l2.08-.6v-1.85a29.13,29.13,0,0,0-.13-3.43c2.29.21,3.05.42,3.05.81s-.24.41-.84.59v3.28l2-.57c.81-1.22,1.07-1.51,1.35-1.51a4.14,4.14,0,0,1,1.8,1.2,1.06,1.06,0,0,1,.31.52c0,.26-.18.44-.76.8a38.14,38.14,0,0,1-.41,5.39,3,3,0,0,1-.83,1.61,2.41,2.41,0,0,1-1.59.57c-.34,0-.36-.05-.36-.7s-.52-1.15-1.46-1.54c0,.81,0,1.41,0,1.75,0,.67-.39.93-1.33.93-.7,0-.91-.18-.91-.86s.08-2.68.1-6.34l-2.08.6Zm4.16-8.77c0,.81,0,1.59,0,2.4v2.36a6.82,6.82,0,0,0,1.4.16.71.71,0,0,0,.76-.7,40.59,40.59,0,0,0,.28-4.92Z"/><path class="cls-4" d="M1028.8,230.62c1.12-1.37,1.43-1.58,1.61-1.58s.52.21,1.67,1.12c.49.39.7.62.7.8s-.08.26-.34.26h-8.22a11.11,11.11,0,0,0-1.76.16l-.29-1a11.22,11.22,0,0,0,2.08.2Zm-3.22,16.67v.81c0,.67-.47,1-1.33,1s-1.09-.26-1.09-.88c0-.81.08-1.64.08-5a35.39,35.39,0,0,0-.16-3.69,23,23,0,0,1,2.76,1.3h2.6c.91-1.09,1.11-1.25,1.32-1.25s.47.16,1.41.91c.41.37.57.55.57.75s-.18.47-.76.86V243c0,2.24.11,3.77.11,4.27,0,.67-.47,1-1.41,1-.7,0-1-.23-1-.81v-.18Zm2-20.18c1.14-1.35,1.45-1.56,1.64-1.56s.52.21,1.61,1.1c.47.39.67.62.67.8s-.07.26-.33.26h-6.09a9.37,9.37,0,0,0-1.53.16l-.29-1a8.67,8.67,0,0,0,1.82.2Zm.23,7c1-1.27,1.3-1.48,1.48-1.48s.52.21,1.51,1c.44.37.65.6.65.78s-.08.26-.34.26h-6a9,9,0,0,0-1.58.16l-.29-1a8.53,8.53,0,0,0,1.87.21Zm0,3.36c1-1.28,1.3-1.49,1.48-1.49s.52.21,1.53,1c.44.37.65.6.65.78s-.08.26-.34.26h-6a9.92,9.92,0,0,0-1.56.16l-.28-1a8.29,8.29,0,0,0,1.84.21Zm.85,4h-3.06v5.22h3.06Zm12.17-4.71c1.07-1,1.28-1.2,1.48-1.2s.5.16,1.56,1c.5.39.65.57.65.78s-.28.54-1,.81a20.09,20.09,0,0,1-3.46,5.33,15.35,15.35,0,0,0,6.24,2.34.14.14,0,0,1,0,.26c-.88.26-1.22.75-1.5,2-.08.39-.18.55-.37.55a4.44,4.44,0,0,1-1-.37,12.43,12.43,0,0,1-4.83-3.38,21,21,0,0,1-7.67,3.93c-.13,0-.26-.29-.13-.34a20.23,20.23,0,0,0,6.63-5.07,20.54,20.54,0,0,1-2.58-6h-.41a5.66,5.66,0,0,0-1.51.21l-.29-1a8.78,8.78,0,0,0,1.9.21Zm4.58-5.1c0,.4.1.5.52.65a.82.82,0,0,1,.36.79c0,.54-.34,1-1,1.19a7.87,7.87,0,0,1-2.52.31c-2.29,0-3.09-.57-3.09-2.21,0-1,0-1.27,0-2.28v-2.66h-3v.5a10.39,10.39,0,0,1-.83,4.62c-.7,1.28-1.9,2.14-3.9,3.12-.11.06-.34-.1-.24-.18a7.08,7.08,0,0,0,2.21-3.61,12.07,12.07,0,0,0,.32-3.15,28.92,28.92,0,0,0-.19-3.12,29.74,29.74,0,0,1,2.71,1.23h2.86c.83-1,1-1.1,1.27-1.1s.47.11,1.33.83a1.45,1.45,0,0,1,.52.68c0,.26-.18.47-.68.75v4c0,.41.18.49,1,.49.62,0,1,0,1.22-.31a5.65,5.65,0,0,0,.86-2.32c0-.13.31-.13.31,0Zm-10,5.7a13.61,13.61,0,0,0,3.07,4.78,15.93,15.93,0,0,0,2.44-4.78Z"/><path class="cls-5" d="M844.67,247.22l.09-.9h1.89a4.81,4.81,0,0,0,3.51-1.44,4.7,4.7,0,0,0,1.43-3.42V195.83c0-2.34-.53-4-1.61-4.86a6.53,6.53,0,0,0-4.32-1.35H844v-.9c1.26-.06,3-.23,5.08-.5s4.42-.63,6.89-1.08a67.19,67.19,0,0,0,7.15-1.71,26.45,26.45,0,0,0,5.9-2.47h.9v58.59a4.45,4.45,0,0,0,1.48,3.37,4.92,4.92,0,0,0,3.47,1.4h1.89v.9Z"/><path class="cls-5" d="M910.55,183a26.71,26.71,0,0,1,15,4.09,26.44,26.44,0,0,1,9.54,11.43,46.16,46.16,0,0,1,0,34.43,26.39,26.39,0,0,1-9.54,11.47,29.53,29.53,0,0,1-30,0A26.22,26.22,0,0,1,886,232.91a46.16,46.16,0,0,1,0-34.43,26.28,26.28,0,0,1,9.59-11.43A26.74,26.74,0,0,1,910.55,183Zm0,4.5c-3.12,0-5.41,2.29-6.84,6.88s-2.16,11.72-2.16,21.38.71,16.78,2.16,21.37,3.72,6.89,6.84,6.89,5.4-2.3,6.84-6.89,2.16-11.71,2.16-21.37-.72-16.79-2.16-21.38S913.66,187.46,910.55,187.46Z"/><path class="cls-5" d="M944.92,247.22l.09-.9h1.89a4.78,4.78,0,0,0,3.51-1.44,4.67,4.67,0,0,0,1.44-3.42V195.83q0-3.51-1.62-4.86a6.53,6.53,0,0,0-4.32-1.35h-1.62v-.9c1.26-.06,3-.23,5.09-.5s4.42-.63,6.88-1.08a67.37,67.37,0,0,0,7.16-1.71,26.36,26.36,0,0,0,5.89-2.47h.9v58.59a4.46,4.46,0,0,0,1.49,3.37,4.89,4.89,0,0,0,3.46,1.4h1.89v.9Z"/><path class="cls-4" d="M814.27,44.19A21.65,21.65,0,0,0,816,41.13a14.22,14.22,0,0,0,.81-2c1.41.65,2,1,2,1.24s-.2.29-.71.27a24.22,24.22,0,0,1-3.18,3.58c.9,0,1.78,0,2.66-.09a4.51,4.51,0,0,0-.65-1.44c0-.07.07-.14.15-.1,1.38.75,2,1.45,2,2.34a.82.82,0,0,1-.73.91c-.42,0-.58-.25-.69-1.18v0c-.32.11-.66.22-1,.31v2.52c0,1.92.06,4.32.06,5.11,0,.49-.33.7-.94.7s-.74-.16-.74-.57.11-1.55.11-3.89V47.54a1,1,0,0,1-.47.18,12.41,12.41,0,0,1-2.12,4.11c-.06.07-.22,0-.2-.11a23.31,23.31,0,0,0,.75-3.33,12.37,12.37,0,0,0,.15-1.87,6.13,6.13,0,0,1,1.89.7V45.27l-1.59.35c-.1.36-.21.5-.37.5s-.36-.34-.67-2c.43,0,.63,0,.94,0Zm.69-6.53c.1-.42.18-.79.23-1.12,1.62.58,2.14.85,2.14,1.06s-.21.31-.72.31a20.85,20.85,0,0,1-2,2.32,1.53,1.53,0,0,1,.74,1.32.89.89,0,0,1-.8,1c-.47,0-.52-.08-.81-1.08a3.5,3.5,0,0,0-1.06-1.82c-.07-.07,0-.18.11-.16a7.06,7.06,0,0,1,1.48.54A18.43,18.43,0,0,0,815,37.66Zm3.09,11.45c-.43,0-.61-.16-.68-1a4.43,4.43,0,0,0-.49-1.8c0-.07.06-.12.13-.09,1.24.67,1.8,1.26,1.8,2A.79.79,0,0,1,818.05,49.11Zm1.73.27c0,1.21-.45,2.21-1.42,2.21a.83.83,0,0,1-.85-.84c0-.4.2-.65.71-.87.82-.34,1.09-.79,1.18-1.85,0-.09.18-.11.2,0A5.06,5.06,0,0,1,819.78,49.38Zm2.58-11.22a10.19,10.19,0,0,1-4,4.65c-.07,0-.22-.06-.16-.13a12,12,0,0,0,2.27-4.25c.14-.52.27-1.08.37-1.65,1.89.55,2.24.7,2.24,1S822.88,38.09,822.36,38.16ZM821,44a23.75,23.75,0,0,0,.87-2.51,11.23,11.23,0,0,0,.36-1.8c1.81.49,2.3.69,2.3.94s-.05.23-.72.39a18.12,18.12,0,0,1-2.2,3c1.26,0,2.52-.08,3.77-.17a5.79,5.79,0,0,0-1-1.65c0-.07,0-.2.09-.17,2,.71,2.92,1.59,2.92,2.65a1,1,0,0,1-.85,1.05c-.4,0-.63-.27-.79-.81-.06-.2-.11-.4-.16-.58a31.38,31.38,0,0,1-5.15,1.12c-.07.41-.22.59-.42.59s-.28-.29-.68-2.11a10.18,10.18,0,0,0,1.42.08Zm1.24,6.68c0,.5.2.59,1.35.59a2.68,2.68,0,0,0,1.3-.2c.31-.18.49-.48.9-1.94,0-.09.2-.08.2,0,0,.43,0,1,0,1.53,0,.23,0,.28.23.36.4.16.58.27.58.66s-.27.67-.9.85a10.78,10.78,0,0,1-2.43.21c-2.27,0-2.9-.32-2.9-1.31,0-.58.07-1.12.07-3.53a8.33,8.33,0,0,0-.07-1.1c2.09.22,2.21.24,2.21.51s-.11.23-.56.43Zm1.95-2.17c-.4,0-.56-.16-.7-.68a3.79,3.79,0,0,0-1.16-1.91c-.07-.05,0-.16.08-.14C824,46,825,46.7,825,47.56A.91.91,0,0,1,824.14,48.51Zm4.1-6c0,.2-.1.27-.23.27a1,1,0,0,1-.5-.29,10.24,10.24,0,0,1-1.59-1.73,9.39,9.39,0,0,1-1.31-3.17c-.08-.29-.09-.32-.26-.47s-.07-.1-.07-.14.36-.25.63-.25a.14.14,0,0,1,.16.14c0,.06-.09.27-.09.34a1.08,1.08,0,0,0,.13.45,5.17,5.17,0,0,0,1.57,1.84,9.72,9.72,0,0,0,2.52,1.35.13.13,0,0,1,0,.23C828.66,41.35,828.5,41.6,828.24,42.54Zm-.14,8.84c-.51,0-.68-.24-.83-1.14a5.07,5.07,0,0,0-.93-2.36c-.06-.07,0-.16.14-.12,1.82.79,2.61,1.58,2.61,2.57A1,1,0,0,1,828.1,51.38Z"/><path class="cls-4" d="M837.42,40.59c0,.9,0,1.82-.11,2.72h1.19c.56-.74.7-.85.85-.85s.32.11.93.67c.27.24.38.38.38.52s0,.18-.43.47c-.2,3.78-.54,6.5-1,7.46a2.16,2.16,0,0,1-.7.86,2.07,2.07,0,0,1-1.26.38c-.22,0-.29-.07-.31-.29-.11-.74-.36-1-1.29-1.31-.09,0-.06-.22,0-.22.81.07,1.28.09,1.48.09.54,0,.66-.09.84-.81a36.62,36.62,0,0,0,.63-6.55h-1.35c-.36,4.68-1.36,7.07-3.63,9.14-.07.06-.24-.09-.18-.16,1.64-2.79,2.32-6.14,2.32-11.6v-.52h-.47a7.71,7.71,0,0,0-1.15.11L834,40a6.42,6.42,0,0,0,1.33.15h1.08V38a13.27,13.27,0,0,0-.07-1.33c2,.2,2.2.39,2.2.57s-.16.27-.51.45v2.49h.58c.65-.81.86-1,1-1s.34.15.94.69c.23.21.37.38.37.5s0,.18-.23.18Zm5.22-.45a10.2,10.2,0,0,1-2.34,2.47c-.07,0-.25,0-.2-.13a13.3,13.3,0,0,0,1.66-3.56,12,12,0,0,0,.45-2.32c1.89.39,2.3.55,2.3.81s-.18.32-.64.39a11.57,11.57,0,0,1-1,1.93h4.61c.88-1.08,1.1-1.23,1.23-1.23s.34.15,1.15.85c.36.32.5.49.5.61s0,.18-.23.18Zm.58,10.45c0,.61.11.72,2.41.72s2.7-.08,3-.27.43-.44,1.06-2.4c0-.09.23,0,.23,0,0,.54,0,1.29,0,1.64a.41.41,0,0,0,.27.46c.36.22.49.4.49.72,0,.49-.33.81-1.16,1a16.61,16.61,0,0,1-3.44.24c-3.7,0-4.37-.27-4.37-1.69,0-.45,0-.9,0-2.78,0-.83,0-1.64,0-2.46a4.49,4.49,0,0,0-1.06.41l-.35-.59a4.86,4.86,0,0,0,1.15-.2l.26-.07c0-1.14,0-2.27-.06-3.43,1.91.2,2.15.28,2.15.54s-.13.29-.56.47v2l1.44-.41V43.22a21.78,21.78,0,0,0-.09-2.38c1.58.15,2.11.29,2.11.56s-.17.29-.58.42v2.27l1.37-.4c.56-.85.74-1,.93-1a2.84,2.84,0,0,1,1.25.82.77.77,0,0,1,.21.36c0,.18-.12.31-.52.56a25.3,25.3,0,0,1-.29,3.73,2,2,0,0,1-.58,1.12,1.61,1.61,0,0,1-1.09.39c-.24,0-.25,0-.25-.48s-.37-.8-1-1.07c0,.56,0,1,0,1.21,0,.47-.28.65-.92.65s-.63-.13-.63-.6,0-1.85.07-4.39l-1.44.41Zm2.88-6.07c0,.56,0,1.1,0,1.65v1.64a4.7,4.7,0,0,0,1,.11c.29,0,.47-.14.52-.49a27.26,27.26,0,0,0,.2-3.4Z"/><path class="cls-4" d="M860.24,40.29c.78-1,1-1.1,1.12-1.1s.36.14,1.15.77c.35.27.49.43.49.56s0,.18-.24.18h-5.68a8.69,8.69,0,0,0-1.23.11l-.2-.67a7.41,7.41,0,0,0,1.44.15ZM858,51.83v.56c0,.46-.32.7-.92.7s-.75-.18-.75-.61,0-1.14,0-3.44a24.47,24.47,0,0,0-.11-2.56,16.54,16.54,0,0,1,1.91.9H860c.63-.76.78-.86.92-.86s.32.1,1,.63c.29.25.4.37.4.52s-.13.32-.52.59v.6c0,1.55.07,2.61.07,3s-.32.7-1,.7c-.49,0-.72-.16-.72-.56v-.12Zm1.39-14c.79-.94,1-1.08,1.13-1.08s.36.14,1.12.75c.32.27.47.43.47.56s-.06.18-.24.18h-4.21a6.46,6.46,0,0,0-1.06.11l-.2-.67a5.63,5.63,0,0,0,1.26.15Zm.16,4.82c.68-.88.9-1,1-1s.36.14,1,.72c.31.25.45.41.45.54s-.05.18-.23.18h-4.14a6.68,6.68,0,0,0-1.1.1l-.2-.66a5.89,5.89,0,0,0,1.3.14Zm0,2.32c.69-.88.9-1,1-1s.36.14,1.06.72c.31.25.45.41.45.54s-.05.18-.23.18h-4.14a5.64,5.64,0,0,0-1.08.11l-.2-.67a5.72,5.72,0,0,0,1.28.14Zm.6,2.79H858v3.62h2.13Zm8.42-3.25c.74-.72.89-.83,1-.83s.34.11,1.08.7c.34.27.45.4.45.54s-.2.38-.67.56a13.89,13.89,0,0,1-2.39,3.69,10.52,10.52,0,0,0,4.32,1.62.09.09,0,0,1,0,.18c-.61.18-.85.52-1,1.37-.06.27-.13.38-.26.38a2.83,2.83,0,0,1-.68-.26,8.59,8.59,0,0,1-3.35-2.34,14.46,14.46,0,0,1-5.31,2.72c-.09,0-.18-.2-.09-.23a13.89,13.89,0,0,0,4.59-3.51A13.81,13.81,0,0,1,864.46,45h-.29a4.27,4.27,0,0,0-1,.14l-.2-.7a6.11,6.11,0,0,0,1.31.15ZM871.73,41c0,.27.07.34.36.45s.25.27.25.54-.23.66-.72.83a5.62,5.62,0,0,1-1.74.21c-1.59,0-2.15-.39-2.15-1.53,0-.7,0-.88,0-1.58V38.09h-2.1v.34a7.19,7.19,0,0,1-.58,3.21,5.66,5.66,0,0,1-2.7,2.16c-.07,0-.23-.07-.16-.13a5,5,0,0,0,1.53-2.5A8.7,8.7,0,0,0,864,39a19.72,19.72,0,0,0-.12-2.16,19.1,19.1,0,0,1,1.87.85h2c.58-.67.68-.76.88-.76s.33.07.92.58a.92.92,0,0,1,.36.46c0,.18-.12.33-.47.53v2.79c0,.28.13.34.71.34.43,0,.66,0,.84-.22a3.77,3.77,0,0,0,.6-1.6c0-.09.21-.09.21,0ZM864.8,45a9.57,9.57,0,0,0,2.12,3.31,10.86,10.86,0,0,0,1.7-3.31Z"/><path class="cls-4" d="M882.37,42.45c0,.38,0,1.13,0,1.53s-.29.68-.92.68-.68-.11-.68-.65a16.19,16.19,0,0,1,.13-1.62,9.16,9.16,0,0,1-4,3c-.09,0-.18-.13-.11-.18A11.3,11.3,0,0,0,880,41.29h-1.34a8.57,8.57,0,0,0-1.22.11l-.2-.66a7.22,7.22,0,0,0,1.37.14h2.2V38.52a15,15,0,0,0-.09-1.71c1.72.16,2.14.27,2.14.52s-.11.26-.52.44v3.11H884c.52-.77.74-.92.86-.92s.36.15,1,.65c.27.22.42.38.42.5s-.06.18-.24.18h-3.63v.65c1.71.31,2.52.83,2.52,1.66a.71.71,0,0,1-.71.74c-.32,0-.52-.16-.84-.72a3.63,3.63,0,0,0-1-1.3Zm2.18,4.5a10.69,10.69,0,0,1-1.25,2.7c.78.4,1.19.85,1.19,1.35a.77.77,0,0,1-.76.81c-.45,0-.5-.05-1.35-1.06A9,9,0,0,1,877.31,53c-.09,0-.15-.2-.06-.24a9.15,9.15,0,0,0,4.25-2.91,9.76,9.76,0,0,0-1.31-.8l-.4.67a.74.74,0,0,1-.79.45c-.45,0-.79-.2-.79-.45a.94.94,0,0,1,.16-.45A22.23,22.23,0,0,0,879.63,47h-1a7,7,0,0,0-1.2.11l-.2-.67a6.49,6.49,0,0,0,1.37.14h1.24l.09-.19a7.59,7.59,0,0,0,.5-1.57c1.82.34,1.88.36,1.88.61s-.13.27-.56.42c-.11.25-.22.5-.33.73h2.51c.65-.75.86-.9,1-.9s.34.15.9.63c.23.22.38.38.38.51s-.06.18-.24.18Zm-5.14-6.57c-.46,0-.56-.13-.73-1.12a3.15,3.15,0,0,0-.69-1.53c0-.07,0-.14.09-.13,1.33.35,2.11,1,2.11,1.95A.79.79,0,0,1,879.41,40.38Zm.94,8.41a12.32,12.32,0,0,1,1.66.36,8.43,8.43,0,0,0,.9-2.2h-1.7Zm4.72-10.18a9.48,9.48,0,0,1-2.16,1.87c-.08.06-.2,0-.15-.1a11.82,11.82,0,0,0,.85-1.8,6.58,6.58,0,0,0,.38-1.23c1.24.47,1.73.76,1.73,1S885.63,38.61,885.07,38.61Zm7.09,2.7a16.27,16.27,0,0,1-2.25,7A10.69,10.69,0,0,0,894.18,51a.11.11,0,0,1,0,.2c-.49.2-.61.41-.81,1.3-.13.45-.16.5-.36.5a2.52,2.52,0,0,1-.9-.49,13.05,13.05,0,0,1-3-3,11.84,11.84,0,0,1-5.45,3.62c-.09,0-.2-.16-.13-.22a14.75,14.75,0,0,0,4.83-4.64,17.61,17.61,0,0,1-1.53-4.84,11.67,11.67,0,0,1-1.69,1.9c-.08.06-.24-.05-.19-.12a20,20,0,0,0,2.29-6,13.94,13.94,0,0,0,.31-2.43c2,.45,2.36.56,2.36.83s-.17.33-.72.45a22.12,22.12,0,0,1-1,2.92h3.09c.8-1,1-1.12,1.14-1.12s.34.15,1.1.78c.32.28.46.45.46.57s-.05.18-.23.18Zm-4.19,0a15.19,15.19,0,0,1-.92,1.68,12.9,12.9,0,0,0,1.87,4.12,17.18,17.18,0,0,0,1.53-5.8Z"/><path class="cls-4" d="M862.29,273.12c0,.71,0,1.3,0,1.46,0,.32-.22.49-.7.49s-.56-.1-.56-.41c0-.13.06-.57.06-1.39,0-.07,0-.23,0-.46a8.58,8.58,0,0,1-1.88.91c-.07,0-.14-.1-.08-.14a9.56,9.56,0,0,0,2.24-2.25,5.86,5.86,0,0,0,.81-1.49c1.22.48,1.67.72,1.67.87s-.16.22-.63.22a8.68,8.68,0,0,1-1.29,1.28c.56.14.67.2.67.32s0,.14-.35.31Zm1.78,8.85a10.88,10.88,0,0,1-4.45.95c-.07,0-.12-.16,0-.18a12.11,12.11,0,0,0,2.45-1.05,4,4,0,0,0,1.14-.92c1.57.87,1.57.87,1.57,1S864.64,282,864.07,282Zm-1.48-1.44c0,.35-.29.48-.78.48s-.56-.13-.56-.47c0-.51.06-1,.06-3.13,0-.79,0-1.59-.06-2.39a14.34,14.34,0,0,1,1.53.59h5.48c.42-.52.53-.6.64-.6s.27.08.8.48c.25.19.34.29.34.4s-.06.19-.37.44V277c0,1.76.06,3,.06,3.4s-.31.51-.81.51c-.35,0-.54-.11-.54-.38Zm5.79-4.6h-5.79v1.18h5.79Zm-5.79,2.68h5.79v-1.18h-5.79Zm0,1.6h5.79v-1.28h-5.79Zm3.57-7.22h-2.08a8.34,8.34,0,0,0-1.12.09l-.15-.52a7.43,7.43,0,0,0,1.23.11h2.12v-1.08c-.73,0-1.6.06-2.69.06-.07,0-.07-.18,0-.2a18.89,18.89,0,0,0,4.51-1,8,8,0,0,0,1.17-.58c.89.65,1.22,1,1.22,1.14s0,.14-.23.14a1.89,1.89,0,0,1-.59-.12,15.4,15.4,0,0,1-2.13.47v1.2h2.44c.64-.7.81-.81.91-.81s.26.11.81.56c.24.21.35.33.35.43s0,.14-.18.14h-4.33v1.35h1.72c.62-.7.79-.81.88-.81s.28.11.83.57c.24.2.35.32.35.42s0,.14-.18.14h-6.54a10.27,10.27,0,0,0-1.14.08l-.15-.51a7.54,7.54,0,0,0,1.24.11h1.73Zm4.12,10.07a1.16,1.16,0,0,1-.85-.4,7,7,0,0,0-2.81-1.54c-.07,0-.06-.16,0-.16,3.2,0,4.42.54,4.42,1.4A.76.76,0,0,1,870.28,283.06Z"/><path class="cls-4" d="M879.3,273.09c0,.66,0,1.11,0,1.25s-.29.43-.75.43-.53-.12-.53-.42c0-.08,0-.38,0-.84,0-.15,0-.36,0-.63A10.85,10.85,0,0,1,876,274c-.07,0-.14-.1-.09-.14a11.1,11.1,0,0,0,2.35-2.44A8.8,8.8,0,0,0,879,270c1.27.51,1.63.69,1.63.84s-.16.23-.61.24a8,8,0,0,1-1.08,1.11c.53.13.66.22.66.32s-.11.17-.34.31Zm1.54,8.94a11,11,0,0,1-4.47,1c-.07,0-.11-.17,0-.18a10.11,10.11,0,0,0,3-1.42,2.28,2.28,0,0,0,.59-.56c1.57.89,1.57.89,1.57,1S881.4,282,880.84,282Zm4.2-6.71a4.57,4.57,0,0,1,.31-.35,6.33,6.33,0,0,1-1.27-.77,4.28,4.28,0,0,1-1.26-1.57l-2,.21a4.1,4.1,0,0,0-.85.17l-.19-.51a10,10,0,0,0,1,0l1.82-.19a9.22,9.22,0,0,1-.4-1.28,5.75,5.75,0,0,0-.28-1c1.34.05,1.77.15,1.77.37s-.1.19-.38.35a5.15,5.15,0,0,0,.46,1.42l2.47-.27c.55-.82.66-.91.77-.91s.29.09.94.49c.32.21.4.3.4.41a.12.12,0,0,1-.12.11l-4.29.46a3.17,3.17,0,0,0,.21.27,5.15,5.15,0,0,0,2,1.27,2.64,2.64,0,0,0,.86.19c.29,0,.57-.34,1.08-1.29,0-.06.12,0,.11,0,0,.34-.13,1-.13,1.1s0,.21.31.35a.56.56,0,0,1,.28.49c0,.45-.38.63-1.23.63a5.24,5.24,0,0,1-.76-.07.22.22,0,0,1,.06.14c0,.11-.07.17-.37.43v.7c0,1.87,0,3.14,0,3.56s-.29.52-.79.52c-.34,0-.52-.1-.54-.35h-5.81c0,.34-.27.48-.74.48s-.59-.13-.59-.45c0-.48.06-1,.06-2.92q0-1.43-.06-2.85a7.66,7.66,0,0,1,1.44.6Zm.14.32h-5.81v1.28h5.81Zm0,1.6h-5.81v1.24h5.81Zm0,1.57h-5.81v1.33h5.81Zm1.85,4.31a1.14,1.14,0,0,1-.85-.42,7.11,7.11,0,0,0-2.79-1.58.07.07,0,0,1,0-.14c3.19,0,4.38.64,4.38,1.44A.75.75,0,0,1,887,283.12Zm-1.38-11.36c-.19,0-.24,0-.45-.35a2.54,2.54,0,0,0-1.12-1.06c-.07,0,0-.14,0-.14,1.47,0,2,.37,2,1A.54.54,0,0,1,885.65,271.76Z"/><path class="cls-4" d="M895.63,278.46a4.75,4.75,0,0,0,0,1,.58.58,0,0,0,.35.4,2.58,2.58,0,0,0,1.15.19,11.44,11.44,0,0,0,2.81-.31,2.82,2.82,0,0,1,.73-.12c.56,0,1,.26,1,.67s-.17.46-.44.57A4.38,4.38,0,0,1,900,281c-.79.06-1.53.1-2.2.1-1.54,0-2.45-.24-2.82-.71a1.82,1.82,0,0,1-.33-.65,4.57,4.57,0,0,1-.09-1.13c0-.86,0-1.74,0-2.61s0-1.54,0-2.25c0-.53,0-.65-.4-.84a2.48,2.48,0,0,0-.37-.14c-.1,0-.14-.07-.14-.13s.46-.36.76-.36a2.52,2.52,0,0,1,1.09.39c.49.28.64.49.64.74a.6.6,0,0,1-.21.48c-.11.11-.15.19-.18.66s-.08,1.23-.1,2a14.46,14.46,0,0,0,2.08-.85,14.12,14.12,0,0,0,1.69-1c.14-.1.23-.16.23-.25s-.13-.26-.24-.37-.21-.19-.21-.25.14-.13.29-.13c.44,0,.65.09,1.22.61.38.35.58.64.56.88s-.15.38-.49.45a3.08,3.08,0,0,0-.5.15c-.76.27-1.47.48-2.17.66a23.51,23.51,0,0,1-2.47.5C895.64,277.42,895.63,278,895.63,278.46Zm5.85-6.18a1,1,0,0,1,.52.84.48.48,0,0,1-.46.49.5.5,0,0,1-.48-.32,5.17,5.17,0,0,0-.88-1.24c-.06-.05-.16-.12-.16-.18s.07-.1.17-.1a1.29,1.29,0,0,1,.32.06A2.42,2.42,0,0,1,901.48,272.28Zm1.3-1a.85.85,0,0,1,.51.71.47.47,0,0,1-.44.52.53.53,0,0,1-.51-.31,3.5,3.5,0,0,0-1-1.09c-.05,0-.16-.11-.16-.17a.1.1,0,0,1,.11-.11,1.71,1.71,0,0,1,.36,0A3.22,3.22,0,0,1,902.78,271.3Z"/><path class="cls-4" d="M909.44,274.18c-.11,0-.18-.05-.18-.12s.27-.3.55-.3a3.31,3.31,0,0,1,1.48.55c.35.22.42.42.42.6a.44.44,0,0,1-.19.37.91.91,0,0,0-.24.47,11.22,11.22,0,0,1-1.15,2.61,7.26,7.26,0,0,1-2.83,2.6.89.89,0,0,1-.28.12.12.12,0,0,1-.13-.14c0-.09,0-.1.14-.2a8.65,8.65,0,0,0,2-2.45,10.74,10.74,0,0,0,1-2.44,3.52,3.52,0,0,0,.17-1C910.14,274.56,909.82,274.34,909.44,274.18Zm3.2-.89a1.12,1.12,0,0,0-.65-.51c-.11,0-.17,0-.17-.15s.26-.31.59-.31a2.62,2.62,0,0,1,1.28.49c.25.15.56.39.56.72a.52.52,0,0,1-.2.39.5.5,0,0,0-.11.33c0,.94,0,1.8-.07,3.17v1c0,.12,0,.18.07.18a1.07,1.07,0,0,0,.34-.11,17.66,17.66,0,0,0,4.62-2.72c.17-.14.25-.22.35-.22s.14,0,.14.12-.06.13-.11.2a16.14,16.14,0,0,1-4.95,4,.7.7,0,0,0-.28.29.36.36,0,0,1-.32.2,1.17,1.17,0,0,1-.7-.45,1.52,1.52,0,0,1-.39-.84.85.85,0,0,1,0-.24,4.31,4.31,0,0,0,.07-.86c0-1.12,0-2.07,0-3.85A2.93,2.93,0,0,0,912.64,273.29Z"/><path class="cls-4" d="M927.39,276.42a1.25,1.25,0,1,1-1.26-1.26A1.25,1.25,0,0,1,927.39,276.42Z"/><path class="cls-4" d="M934.43,275.44a13,13,0,0,1-1.69,1.71c-.06.05-.19-.07-.14-.12a14.77,14.77,0,0,0,2.45-4.89,12.65,12.65,0,0,0,.46-2.14c1.26.35,1.85.58,1.85.77s-.14.25-.48.32a17.45,17.45,0,0,1-1.68,3.3c.75.12.86.17.86.31s-.09.21-.38.34v7.25c0,.41-.24.59-.73.59-.32,0-.6-.11-.6-.5s.08-1.49.08-3.71Zm5.47,2.18H938a5,5,0,0,0-.88.08l-.15-.52a4.63,4.63,0,0,0,1,.11h1.9v-3.43h-2.25a5.34,5.34,0,0,0-.89.09l-.16-.52a5.35,5.35,0,0,0,1,.11h5.41c.67-.85.84-1,.94-1s.28.12,1,.68c.31.25.42.37.42.47s0,.14-.18.14h-4v3.43h1.5c.66-.87.83-1,.92-1s.27.11.9.68c.28.26.39.39.39.49s0,.14-.18.14h-3.53v4.2h2.09c.74-1,.91-1.14,1-1.14s.26.12,1,.79c.33.31.44.43.44.53s0,.14-.18.14h-8.39a7.83,7.83,0,0,0-1,.08l-.15-.51a6.29,6.29,0,0,0,1.13.11h2.71Zm1.05-4.88c-.41,0-.55-.12-.8-.82a3,3,0,0,0-1-1.46c-.06,0,0-.14.07-.13,1.82.24,2.55.73,2.55,1.61A.8.8,0,0,1,941,272.74Z"/><path class="cls-4" d="M960.28,272.15c.58-.67.69-.75.8-.75s.25.08,1.08.82c.38.35.46.45.46.56s-.14.3-.6.3c-.31,0-.42,0-.59.12a7.93,7.93,0,0,1-1.26.76c-.06,0-.17,0-.14-.11a4.88,4.88,0,0,0,.43-1.38h-8.58c0,1.11-.38,1.87-1.11,1.87a.7.7,0,0,1-.71-.74.67.67,0,0,1,.44-.68,1.58,1.58,0,0,0,1-1.55c0-.07.14-.09.15,0a5.23,5.23,0,0,1,.17.8h3.56v-.89c0-.47,0-.84,0-1.14,1.73.17,1.9.32,1.9.48s-.17.26-.48.39v1.16Zm-5.66,3.45a21.75,21.75,0,0,1-3.86.4c-.07,0-.07-.18,0-.19a22.9,22.9,0,0,0,5.81-1.89,4.78,4.78,0,0,0,1.53-1.11c1.17.76,1.49,1.07,1.49,1.28s-.13.21-.85.11a14.09,14.09,0,0,1-2.79,1.08v2.34l3.88-.54c.7-1,.82-1.1.93-1.1s.29.08,1,.54c.37.24.45.33.45.44s-.07.14-.17.15L956,278v2.31c0,1.05.1,1.1,2.19,1.1,1.6,0,2.1-.1,2.37-.41a7.65,7.65,0,0,0,.78-1.88c0-.07.14-.07.14,0,0,.49-.06,1.11-.06,1.6,0,.17,0,.24.24.31a.51.51,0,0,1,.41.5c0,.42-.28.72-.95.88a14.21,14.21,0,0,1-3.24.26c-2.68,0-3.21-.44-3.21-1.81v-2.69l-3.35.46a6,6,0,0,0-.86.2l-.2-.49a8.46,8.46,0,0,0,1,0l3.4-.46Z"/><path class="cls-4" d="M972.81,278.82a3.13,3.13,0,0,1-6.23.11c0-1.17.84-1.93,2.17-2.57a2.77,2.77,0,0,1-1.89-2.72,2.67,2.67,0,0,1,2.85-2.41c1.64,0,2.8,1,2.8,2.24,0,1.06-.58,1.62-1.83,2.23A3.12,3.12,0,0,1,972.81,278.82Zm-4.75.13c0,1.4.66,2.31,1.67,2.31s1.71-.88,1.71-2.24c0-1-.58-1.61-2.29-2.44A2.38,2.38,0,0,0,968.06,279Zm3.08-5.47c0-1.1-.61-1.82-1.43-1.82a1.55,1.55,0,0,0-1.51,1.75c0,.77.32,1.26,2.07,2.06A2.1,2.1,0,0,0,971.14,273.48Z"/><path class="cls-4" d="M982.93,276.44c0,3.22-1.16,5.25-3.11,5.25s-3.14-1.93-3.14-5.17,1.15-5.29,3.14-5.29S982.93,273.25,982.93,276.44Zm-4.61,0c0,2.91.3,4.78,1.5,4.78s1.47-1.87,1.47-4.78-.28-4.82-1.47-4.82S978.32,273.55,978.32,276.48Z"/><path class="cls-4" d="M989.75,275c1,.38,1.51.9,1.51,1.54,0,.38-.22.67-.52.67s-.42-.17-.46-.5a2.7,2.7,0,0,0-.53-1.46c0,2.75.07,6.54.07,7.31,0,.31-.28.45-.75.45s-.54-.11-.54-.41c0-.71.1-3.65.11-6.31a8.48,8.48,0,0,1-2,3.29c-.05.05-.15,0-.12-.09a20.13,20.13,0,0,0,1.93-5.85h-.5a7.14,7.14,0,0,0-.95.08l-.16-.51a5.34,5.34,0,0,0,1,.11h.73v-1.45c0-.7,0-1.26-.07-1.79,1.51.16,1.78.21,1.78.45s-.16.27-.52.41v2.38h.15c.39-.72.56-.83.66-.83s.22.11.62.58a.89.89,0,0,1,.25.43c0,.1,0,.14-.18.14h-1.5Zm6,3a6.49,6.49,0,0,0,1.76,1.71,7.67,7.67,0,0,0,2.58,1c.07,0,.06.1,0,.14a1.38,1.38,0,0,0-.74.94c-.07.24-.1.26-.21.26a1.29,1.29,0,0,1-.55-.23,8.46,8.46,0,0,1-1.57-1.29,9.3,9.3,0,0,1-1.52-2.33c.05,1.84.14,3.7.14,4.27,0,.38-.26.54-.77.54s-.55-.13-.55-.44.08-1.86.11-3.4a9.13,9.13,0,0,1-4.27,2.91c-.07,0-.13-.1-.07-.14a10.45,10.45,0,0,0,3.7-3.92h-1.1v0c0,.36-.23.5-.72.5s-.54-.1-.54-.43,0-1.29,0-3c0-.8,0-1.19,0-2a10.83,10.83,0,0,1,1.32.68h1.61v-1.37h-2.34a6.22,6.22,0,0,0-.88.08l-.15-.51a5.24,5.24,0,0,0,1,.11h2.34v-.41a13.77,13.77,0,0,0-.07-1.6c1.44.12,1.71.21,1.71.44s-.11.22-.42.39V272h1.92c.66-.76.83-.87.92-.87s.28.11.87.6c.27.22.38.35.38.45s0,.14-.18.14h-3.91v1.37h1.77c.4-.53.51-.61.63-.61s.26.08.75.46c.23.18.31.28.31.39s-.11.27-.38.43V275c0,1.58.07,2.67.07,3s-.25.47-.73.47-.54-.11-.54-.36V278ZM994.41,274h-1.67v1.59h1.67Zm0,1.91h-1.67v1.71h1.67Zm3.1-.32V274h-1.88v1.59Zm0,2V276h-1.88v1.71Z"/><path class="cls-4" d="M1003.79,279.58a.12.12,0,0,1,.12-.13,7,7,0,0,1,2.45,1,1.76,1.76,0,0,1,.9,1.41.82.82,0,0,1-.84.87.83.83,0,0,1-.74-.63,4.82,4.82,0,0,0-1.79-2.35A.17.17,0,0,1,1003.79,279.58Z"/><path class="cls-4" d="M845.4,295.36a1.83,1.83,0,0,0,.63-.21,1.17,1.17,0,0,1,.47-.12,2.52,2.52,0,0,1,1.17.35.61.61,0,0,1,.36.55.41.41,0,0,1-.41.43,4.1,4.1,0,0,1-.7-.07,8.52,8.52,0,0,0-.94-.08c-.53,0-1.51,0-2.71.07,0,1.09,0,2,0,2.62,0,1.4.07,2,.07,2.56a2,2,0,0,1-.2.89.92.92,0,0,1-.87.57c-.21,0-.36-.08-.43-.41a.84.84,0,0,0-.31-.53,7,7,0,0,0-1.08-.61c-.25-.12-.31-.16-.31-.26s.06-.07.14-.07a2.54,2.54,0,0,1,.34,0,10.52,10.52,0,0,0,1.27.11c.21,0,.21-.14.21-.32,0-.36,0-.82,0-1.85s0-1.8,0-2.68c-.86.1-1.59.21-2.64.38a1.53,1.53,0,0,0-.57.18.87.87,0,0,1-.51.17c-.19,0-.49-.13-.88-.62a1.1,1.1,0,0,1-.36-.77c0-.15,0-.4.15-.4s.21.14.42.32a1.09,1.09,0,0,0,.84.33l.58,0,2.95-.28V294a1,1,0,0,0-.06-.45.45.45,0,0,0-.36-.31l-.41-.08c-.14,0-.18-.06-.18-.13s.17-.28.42-.39a1.56,1.56,0,0,1,.65-.14,2.83,2.83,0,0,1,1.2.53.56.56,0,0,1,.28.49.71.71,0,0,1-.19.41c-.16.15-.19.21-.2.53s0,.62,0,1.12C844,295.5,844.68,295.44,845.4,295.36Zm-5.61,2.38c.1,0,.12.11.13.26a4.47,4.47,0,0,1-.11,1.57,2.54,2.54,0,0,1-.65,1.11,1.23,1.23,0,0,1-.82.36.62.62,0,0,1-.69-.66c0-.29.08-.51.56-.75a2.71,2.71,0,0,0,.85-.62,2.66,2.66,0,0,0,.57-1.05C839.67,297.82,839.71,297.74,839.79,297.74Zm5.09.17c0-.09,0-.12.17-.12l.19,0a4.78,4.78,0,0,1,1.8.84,1.73,1.73,0,0,1,.79,1.26c0,.49-.19.87-.67.87s-.56-.24-.73-.63a8.94,8.94,0,0,0-.73-1.32,3,3,0,0,0-.67-.72C844.93,298,844.88,298,844.88,297.91Z"/><path class="cls-4" d="M858.05,295.69c1.43-.11,1.93-.14,2.65-.22a2.24,2.24,0,0,0,.53-.16,1.59,1.59,0,0,1,.52-.12,2.7,2.7,0,0,1,1.33.38.61.61,0,0,1,.31.54.39.39,0,0,1-.32.42,4.18,4.18,0,0,1-.86,0,14.38,14.38,0,0,0-1.74-.1c-.47,0-1.26,0-1.89,0,.45.31.65.59.65.78a.48.48,0,0,1-.07.23,2,2,0,0,0-.28.63,9.17,9.17,0,0,1-1.53,2.76,8.67,8.67,0,0,1-2.86,2.37.58.58,0,0,1-.23.08c-.1,0-.14,0-.14-.14s.11-.17.35-.38a11.79,11.79,0,0,0,2-2.58,10.59,10.59,0,0,0,1-2.48,5,5,0,0,0,.13-.74.62.62,0,0,0-.16-.47c-1,.09-2,.22-2.67.35a1.67,1.67,0,0,0-.66.23.64.64,0,0,1-.42.13c-.25,0-.51-.14-.94-.63a1.21,1.21,0,0,1-.36-.77c0-.21.07-.34.15-.34s.13.09.21.16a1.49,1.49,0,0,0,.95.45c.34,0,.83-.05,1.24-.09C856,295.87,856.79,295.79,858.05,295.69Zm.9-3a1.59,1.59,0,0,0,.42-.15,1.6,1.6,0,0,1,.53-.16,2.55,2.55,0,0,1,1.2.28.47.47,0,0,1,.23.42c0,.3-.18.48-.52.49s-.67,0-1.12.06l-3.1.25a7.19,7.19,0,0,1-.72.06,1.18,1.18,0,0,1-1.12-.51,1,1,0,0,1-.33-.74c0-.12,0-.21.1-.21s.09.06.18.13a1.53,1.53,0,0,0,1.12.43c.28,0,.79,0,1.52-.11S858.5,292.82,859,292.72Z"/><path class="cls-4" d="M870,295.33c-.11,0-.18-.06-.18-.13s.27-.29.55-.29a3.28,3.28,0,0,1,1.48.54c.35.23.42.42.42.61a.43.43,0,0,1-.19.36.91.91,0,0,0-.24.48,11.33,11.33,0,0,1-1.15,2.6,7.36,7.36,0,0,1-2.83,2.61.8.8,0,0,1-.28.11c-.08,0-.13,0-.13-.14s0-.1.14-.2a8.38,8.38,0,0,0,2-2.45,11.27,11.27,0,0,0,1-2.44,3.85,3.85,0,0,0,.16-1C870.66,295.71,870.34,295.48,870,295.33Zm3.2-.9a1.11,1.11,0,0,0-.65-.5c-.11-.05-.17-.06-.17-.16s.26-.31.59-.31a2.55,2.55,0,0,1,1.28.5c.25.15.56.39.56.71a.49.49,0,0,1-.2.39.56.56,0,0,0-.11.34c0,.94,0,1.79-.07,3.16v1c0,.13,0,.18.07.18a1.07,1.07,0,0,0,.34-.11,17.66,17.66,0,0,0,4.62-2.72c.17-.14.25-.22.35-.22s.14,0,.14.12-.06.13-.11.2a16.27,16.27,0,0,1-4.95,4.05.7.7,0,0,0-.28.29.36.36,0,0,1-.32.2,1.17,1.17,0,0,1-.7-.45,1.46,1.46,0,0,1-.39-.84.85.85,0,0,1,0-.24,4.27,4.27,0,0,0,.07-.85c0-1.12,0-2.08,0-3.85A2.93,2.93,0,0,0,873.16,294.43Z"/><path class="cls-4" d="M887.91,297.57a1.25,1.25,0,1,1-1.26-1.26A1.26,1.26,0,0,1,887.91,297.57Z"/><path class="cls-4" d="M899.32,292.57a1.86,1.86,0,0,0-.68-.27c-.13,0-.16,0-.16-.1s.11-.18.23-.26a.68.68,0,0,1,.42-.13,3.33,3.33,0,0,1,1.2.3c.46.21.79.4.79.74a.59.59,0,0,1-.17.4c-.1.1-.16.28-.16.77a24.39,24.39,0,0,1-.35,4.82,5.09,5.09,0,0,1-1.4,2.57,8.14,8.14,0,0,1-4.19,2.06,1.86,1.86,0,0,1-.26,0c-.13,0-.18,0-.18-.13s.05-.11.19-.17a7.14,7.14,0,0,0,4.15-3.23,7.64,7.64,0,0,0,.76-3.1c0-.6,0-1.55,0-3.43C899.56,292.92,899.53,292.71,899.32,292.57Zm-3.76,1c-.07-.19-.27-.34-.69-.54-.11-.05-.15-.07-.15-.14s0-.11.15-.15a1.05,1.05,0,0,1,.45-.11,2.6,2.6,0,0,1,1,.38c.46.25.73.56.73.81a.66.66,0,0,1-.17.39.92.92,0,0,0-.1.48c0,1.1-.07,2.28-.08,4,0,.42-.17.61-.49.61s-.45-.19-.63-.51a1.66,1.66,0,0,1-.19-.78,1.47,1.47,0,0,1,.07-.41,2.87,2.87,0,0,0,.07-.64c0-.54,0-1.11,0-2.23A4,4,0,0,0,895.56,293.58Z"/><path class="cls-4" d="M906.91,294.11c0-.1.07-.13.17-.13a2.29,2.29,0,0,1,.67.2,3.5,3.5,0,0,1,1.39.88,1.7,1.7,0,0,1,.46,1.11.82.82,0,0,1-.77.92.69.69,0,0,1-.69-.57,4.55,4.55,0,0,0-1.12-2.27C907,294.19,906.91,294.17,906.91,294.11Zm4.76,6.29a11.9,11.9,0,0,1-3.64,2.7,1.63,1.63,0,0,1-.59.2.12.12,0,0,1-.13-.11c0-.1.06-.13.26-.27a15.81,15.81,0,0,0,3.07-2.86,20.47,20.47,0,0,0,2.21-3.42,7.08,7.08,0,0,0,.95-2.31.53.53,0,0,0-.27-.47,3.19,3.19,0,0,0-.47-.26c-.13-.05-.17-.07-.17-.16s.35-.28.66-.28a3,3,0,0,1,1.62.7c.38.29.47.49.47.67a.54.54,0,0,1-.24.46,2.58,2.58,0,0,0-.53.72A22.77,22.77,0,0,1,911.67,300.4Zm4.51-8.07a1,1,0,0,1,.52.84.47.47,0,0,1-.46.49.5.5,0,0,1-.48-.32,5.1,5.1,0,0,0-.88-1.23c-.06-.06-.16-.13-.16-.19s.08-.09.17-.09a1.65,1.65,0,0,1,.33.05A2.59,2.59,0,0,1,916.18,292.33Zm1.29-.95a.85.85,0,0,1,.5.71.47.47,0,0,1-.43.52.55.55,0,0,1-.52-.31,3.47,3.47,0,0,0-1-1.09s-.17-.11-.17-.17a.11.11,0,0,1,.12-.11,1.78,1.78,0,0,1,.36,0A3.22,3.22,0,0,1,917.47,291.38Z"/><path class="cls-4" d="M932.46,298.21c-.43,0-1.38-.07-2.07-.07-1.11,0-3.51.06-5.24.21a4,4,0,0,0-1.39.27.58.58,0,0,1-.37.11c-.37,0-.69-.33-1.12-1A1.12,1.12,0,0,1,922,297c0-.23.08-.34.17-.34s.11.06.18.13a1.4,1.4,0,0,0,1.18.53c.38,0,.64,0,1.47-.07,1.73-.11,3.58-.2,5-.22a2.73,2.73,0,0,0,1.09-.2.93.93,0,0,1,.39-.11,1.57,1.57,0,0,1,.63.14c.53.22.9.43.9.78A.53.53,0,0,1,932.46,298.21Z"/><path class="cls-4" d="M943,296.83c.84.35,1.3.78,1.3,1.41a.69.69,0,0,1-.6.74.94.94,0,0,1-.77-.4,9,9,0,0,0-1-1,4.16,4.16,0,0,0-1.46-.79v2.43c0,.59,0,1.88.06,3.39,0,.54-.24.66-.52.66a.65.65,0,0,1-.59-.32,2.44,2.44,0,0,1-.31-1.11,1.46,1.46,0,0,1,.07-.4.59.59,0,0,0,.07-.24c0-.18,0-.58.06-3.14,0-1.33,0-2.52,0-3.84a6.91,6.91,0,0,0-.06-1.19.63.63,0,0,0-.29-.32,1.57,1.57,0,0,0-.49-.22c-.1,0-.14-.07-.14-.13s.1-.15.18-.21a.82.82,0,0,1,.39-.13,3.37,3.37,0,0,1,1.42.38c.38.17.56.39.56.66a.62.62,0,0,1-.24.45c-.06,0-.08.14-.1.28,0,.39-.07,1.22-.07,2.52A7.71,7.71,0,0,1,943,296.83Z"/><path class="cls-4" d="M951.42,294.3c0,.7,0,1.42-.09,2.12h.93c.43-.57.54-.66.65-.66s.26.09.73.52c.21.18.3.29.3.41s-.05.14-.34.36a21.15,21.15,0,0,1-.78,5.8,1.69,1.69,0,0,1-.55.67,1.59,1.59,0,0,1-1,.3c-.17,0-.22-.06-.24-.23-.08-.57-.28-.8-1-1-.07,0,0-.17,0-.17.63.06,1,.07,1.15.07.42,0,.52-.07.66-.63a28.61,28.61,0,0,0,.49-5.1h-1c-.28,3.64-1.07,5.51-2.83,7.12-.06,0-.18-.07-.14-.13,1.27-2.17,1.8-4.77,1.8-9v-.41h-.36a5.45,5.45,0,0,0-.9.09l-.15-.52a4.66,4.66,0,0,0,1,.11h.84v-1.69c0-.23,0-.56-.06-1,1.57.16,1.71.31,1.71.45s-.13.21-.39.35V294h.45c.5-.63.67-.74.77-.74s.26.11.72.53c.19.17.3.3.3.4s0,.13-.18.13Zm4.06-.34a7.89,7.89,0,0,1-1.82,1.91c-.06.05-.2,0-.16-.09a10.48,10.48,0,0,0,1.29-2.78,9.32,9.32,0,0,0,.35-1.8c1.47.3,1.79.43,1.79.63s-.14.25-.5.3a9.09,9.09,0,0,1-.74,1.5h3.58c.69-.84.86-.95,1-.95s.26.11.89.66c.28.25.39.38.39.47s0,.15-.18.15Zm.45,8.12c0,.48.08.56,1.87.56s2.1-.06,2.34-.21.34-.34.83-1.86c0-.07.18-.05.18,0,0,.42,0,1,0,1.28a.32.32,0,0,0,.21.36c.28.17.38.31.38.56s-.26.63-.9.77a13.05,13.05,0,0,1-2.67.19c-2.89,0-3.41-.21-3.41-1.32,0-.35,0-.7,0-2.16,0-.64,0-1.27,0-1.92a3.53,3.53,0,0,0-.83.33l-.27-.47a3.85,3.85,0,0,0,.9-.15l.2-.06c0-.88,0-1.76,0-2.66,1.49.16,1.67.21,1.67.42s-.1.23-.43.37v1.54l1.12-.33v-1a18.11,18.11,0,0,0-.07-1.85c1.23.11,1.64.23,1.64.44s-.13.22-.45.32V297l1.06-.31c.44-.65.58-.81.73-.81a2.28,2.28,0,0,1,1,.65.59.59,0,0,1,.16.28c0,.14-.09.23-.4.43a18.87,18.87,0,0,1-.23,2.9,1.61,1.61,0,0,1-.44.87,1.33,1.33,0,0,1-.86.31c-.18,0-.19,0-.19-.38s-.28-.62-.79-.83c0,.44,0,.76,0,.94,0,.36-.22.51-.72.51s-.49-.1-.49-.47,0-1.44.06-3.42l-1.12.33Zm2.24-4.72c0,.43,0,.85,0,1.29v1.27a3.56,3.56,0,0,0,.76.09c.22,0,.36-.12.4-.38a20.1,20.1,0,0,0,.16-2.65Z"/><path class="cls-4" d="M969.17,294.07c.6-.75.77-.86.87-.86s.28.11.89.6c.27.21.38.34.38.44s0,.14-.18.14H966.7a7.27,7.27,0,0,0-1,.08l-.15-.51a6,6,0,0,0,1.12.11Zm-1.74,9v.43c0,.36-.25.55-.71.55s-.59-.14-.59-.48,0-.88,0-2.67a19,19,0,0,0-.08-2,11.06,11.06,0,0,1,1.48.7H969c.49-.59.6-.68.72-.68s.25.09.75.49c.23.2.31.3.31.41s-.1.25-.41.46v.46c0,1.21.06,2,.06,2.3s-.25.55-.76.55-.56-.13-.56-.44v-.09Zm1.08-10.87c.62-.73.78-.84.88-.84s.28.11.87.58c.25.21.37.34.37.44s0,.14-.19.14h-3.27a5.48,5.48,0,0,0-.83.08l-.16-.52a4.27,4.27,0,0,0,1,.12Zm.13,3.75c.53-.69.7-.8.79-.8s.28.11.82.56c.23.2.35.32.35.42s-.05.14-.18.14h-3.23a4.83,4.83,0,0,0-.85.09l-.16-.52a5.06,5.06,0,0,0,1,.11Zm0,1.81c.53-.69.7-.8.8-.8s.28.11.83.56c.23.19.35.32.35.42s-.05.14-.18.14h-3.23a5.72,5.72,0,0,0-.84.08l-.15-.51a4.81,4.81,0,0,0,1,.11Zm.46,2.17h-1.65v2.81h1.65Zm6.56-2.54c.57-.56.69-.64.8-.64s.26.08.84.54c.27.21.35.31.35.42s-.16.3-.52.44a10.93,10.93,0,0,1-1.86,2.87,8.13,8.13,0,0,0,3.36,1.26c.07,0,.07.13,0,.14-.48.14-.66.41-.81,1.07,0,.21-.1.29-.2.29a2,2,0,0,1-.53-.2,6.68,6.68,0,0,1-2.61-1.82,11.26,11.26,0,0,1-4.13,2.12c-.07,0-.14-.16-.07-.18a10.67,10.67,0,0,0,3.57-2.74,10.62,10.62,0,0,1-1.38-3.25h-.23a2.89,2.89,0,0,0-.81.12l-.15-.55a5,5,0,0,0,1,.11Zm2.46-2.74c0,.21.06.26.29.35a.44.44,0,0,1,.19.42c0,.29-.18.52-.56.64a4.33,4.33,0,0,1-1.36.17c-1.23,0-1.66-.31-1.66-1.19,0-.55,0-.69,0-1.23v-1.43h-1.64v.26a5.53,5.53,0,0,1-.45,2.5,4.39,4.39,0,0,1-2.1,1.68c-.06,0-.18-.06-.13-.1a3.88,3.88,0,0,0,1.2-1.95,6.92,6.92,0,0,0,.16-1.69,15.19,15.19,0,0,0-.09-1.68,12.94,12.94,0,0,1,1.45.66H975c.45-.52.54-.59.69-.59s.25.05.71.45a.73.73,0,0,1,.28.36c0,.14-.09.25-.36.41v2.17c0,.22.1.26.55.26s.51,0,.65-.16a2.93,2.93,0,0,0,.47-1.25c0-.07.16-.07.16,0Zm-5.39,3.06a7.28,7.28,0,0,0,1.66,2.58,8.39,8.39,0,0,0,1.31-2.58Z"/><path class="cls-4" d="M985.79,301.2c1.17,0,1.45-.09,1.73-.34a3.6,3.6,0,0,0,.77-1.08c.06-.1.1-.11.23-.07s.15.09.14.18c-.17.72-.52,2-.76,2.69-.95,0-1.69,0-2.7,0s-1.85,0-2.78,0c-.14,0-.18,0-.18-.23a.64.64,0,0,1,.09-.4,23.45,23.45,0,0,1,2.45-3.58c1.19-1.53,1.86-2.27,1.86-3.58s-.41-2-1.2-2a1.16,1.16,0,0,0-1.17.81,3.27,3.27,0,0,0-.12,1c0,.39-.54.66-1,.66s-.68-.12-.68-.54a2.93,2.93,0,0,1,3-2.38c1.89,0,2.9,1.12,2.9,2.48,0,1.79-1.29,2.47-2.71,3.78a10.06,10.06,0,0,0-2.32,2.57Z"/><path class="cls-4" d="M994.59,294c-.77,0-1,.11-1.15.3a2.92,2.92,0,0,0-.49.93c0,.1-.07.14-.25.1s-.17-.06-.15-.16c.11-.71.28-1.83.36-2.58.93.05,1.85.05,2.82.05s1.83,0,2.73-.05c.08,0,.11,0,.11.3a.6.6,0,0,1-.06.36,21.43,21.43,0,0,0-2.45,6.08,9.4,9.4,0,0,0-.21,1.85c0,.39,0,.6,0,.94s-.53.76-1.06.76-.89-.17-.89-.62a9,9,0,0,1,1-3.56,36.75,36.75,0,0,1,2.69-4.7Z"/><path class="cls-4" d="M1008.61,295.06c.91,0,1.59,1,1.59,2.44a9.51,9.51,0,0,1-.51,3.18,4.73,4.73,0,0,1-.83,1.5c-.49.52-.9.84-1.37.84s-.7-.18-.69-.63a1.17,1.17,0,0,0-.28-.75,8.54,8.54,0,0,0-.6-.75c-.07-.09-.1-.13-.1-.17a.1.1,0,0,1,.11-.11.3.3,0,0,1,.18.08,6.21,6.21,0,0,0,1,.55,1.53,1.53,0,0,0,.53.15.61.61,0,0,0,.53-.25,5.16,5.16,0,0,0,.73-1.6,8.56,8.56,0,0,0,.34-2.22c0-1.32-.2-1.71-.83-1.71a3.6,3.6,0,0,0-.73.11c-.63,1.33-1.39,3-2,4.17s-1,2-1.39,2.61a.69.69,0,0,1-.62.31.57.57,0,0,1-.53-.56,1.28,1.28,0,0,1,.27-.76,44.44,44.44,0,0,0,3.09-5.41c-.54.21-1.08.42-1.52.62a1.94,1.94,0,0,0-.41.2.6.6,0,0,1-.37.12,1.16,1.16,0,0,1-.78-.38,1.56,1.56,0,0,1-.53-.95c0-.29.08-.5.21-.5s.12.07.18.15a1.06,1.06,0,0,0,.71.49,5.52,5.52,0,0,0,1.21-.17c.52-.09,1-.25,1.62-.39a7.79,7.79,0,0,0,.66-2.24.42.42,0,0,0-.21-.41,3.64,3.64,0,0,0-.54-.23c-.12-.05-.21-.06-.21-.14s.09-.21.23-.26a2.33,2.33,0,0,1,.69-.11,2.27,2.27,0,0,1,1.47.8.56.56,0,0,1,.13.39.55.55,0,0,1-.32.45,1,1,0,0,0-.3.44c-.13.29-.32.68-.53,1.14A4.85,4.85,0,0,1,1008.61,295.06Zm3.4,4-.42,0c-.12,0-.15-.05-.15-.1s0-.07.12-.13c1.24-.49,1.7-.75,1.7-1a2.38,2.38,0,0,0-.42-1.15,3.39,3.39,0,0,0-1.61-1.43c-.14-.05-.26-.11-.26-.19s.07-.14.21-.14h.1a4.35,4.35,0,0,1,2.27,1.16,3.33,3.33,0,0,1,1.18,2.6.68.68,0,0,1-.59.77.67.67,0,0,1-.57-.23.64.64,0,0,0-.48-.25C1012.6,299,1012.29,299.05,1012,299.07Z"/><path class="cls-4" d="M1021.08,298.17a14,14,0,0,1-.39,2.45,7.87,7.87,0,0,1-1.91,3.27c0,.05-.21-.09-.18-.14a9.29,9.29,0,0,0,1.06-3.44,33.27,33.27,0,0,0,.19-4.72c0-.81,0-1.17-.06-1.87a13,13,0,0,1,1.48.78h2c.52-.54.63-.63.74-.63s.25.09.77.53c.22.2.31.3.31.41s-.09.22-.41.43v.68c0,1.35,0,2.17,0,2.56s-.25.53-.74.53-.59-.12-.59-.46v-.38Zm2.31-5.92c.66-.76.83-.87.92-.87s.28.11.91.6c.29.24.4.35.4.45s0,.14-.19.14h-5a7.55,7.55,0,0,0-1,.08l-.16-.52a5.33,5.33,0,0,0,1.11.12Zm0,2.57h-2.22v.45c0,1,0,1.84-.07,2.58h2.29Zm3.7,1.45a14.49,14.49,0,0,1-.56,3.68,7.4,7.4,0,0,1-3.19,3.94c-.06,0-.2-.1-.16-.16a8.09,8.09,0,0,0,2.24-4,20.93,20.93,0,0,0,.4-4.74c0-.88,0-1.44-.1-2.31a10,10,0,0,1,1.47.63,8.25,8.25,0,0,0,2.34-1.42,7,7,0,0,0,.67-.66c1.28,1,1.36,1.1,1.36,1.26s-.1.19-.66.12a17.63,17.63,0,0,1-3.77,1.14v.64c0,.55,0,1.07,0,1.54h2.8c.59-.77.75-.88.85-.88s.28.11.93.62c.28.24.39.35.39.45s0,.14-.18.14H1030v2.35c0,1.69,0,3.82,0,4.52,0,.49-.2.66-.8.66-.41,0-.58-.15-.58-.5s0-1.29,0-3.25v-3.78Z"/><line class="cls-6" x1="775.49" y1="339.86" x2="775.49"/><line class="cls-6" x1="436.3" y1="339.86" x2="436.3"/><line class="cls-7" x1="81.24" y1="283.97" x2="400.51" y2="283.97"/><path class="cls-4" d="M73,282.42c0,3.22-1.17,5.25-3.11,5.25s-3.14-1.93-3.14-5.17,1.15-5.29,3.14-5.29S73,279.22,73,282.42Zm-4.61,0c0,2.91.29,4.78,1.5,4.78s1.47-1.87,1.47-4.78-.28-4.82-1.47-4.82S68.36,279.53,68.36,282.46Z"/><line class="cls-7" x1="81.24" y1="245.3" x2="400.51" y2="245.3"/><path class="cls-4" d="M51.05,243.76a2.07,2.07,0,0,1,1.87-1.13c1.78,0,2.7,1.3,2.7,3.11a3,3,0,0,1-3,3.26c-1.87,0-3.21-1.51-3.21-3.94a6.46,6.46,0,0,1,2.84-5.29,9.36,9.36,0,0,1,2.34-1.3c.11,0,.18,0,.38.26s.11.42,0,.42a3.73,3.73,0,0,0-2.07.7A5.44,5.44,0,0,0,51,243.76Zm.1.58a1.78,1.78,0,0,0-.18.86c0,2.26.62,3.37,1.6,3.37s1.4-1.24,1.4-2.82c0-1.43-.41-2.58-1.45-2.58C51.91,243.17,51.45,243.62,51.15,244.34Z"/><path class="cls-4" d="M59.14,242.73c0,.21,0,.43-.08.72a3,3,0,0,1,5,2.18A3.08,3.08,0,0,1,60.9,249a4,4,0,0,1-2-.48c-.46-.26-1-.72-1-1.19,0-.29.35-.57,1-.57s.75.66.91,1a1.07,1.07,0,0,0,1,.77c1.09,0,1.54-1.26,1.54-2.93s-.79-2.52-1.66-2.52a1.9,1.9,0,0,0-1.76,1c-.09.14-.14.17-.38.07s-.2-.15-.17-.28.07-.27.09-.39l.33-4.47c0-.06,0-.1.09-.18a.23.23,0,0,1,.19-.09c.56,0,1.46,0,2.2,0,.58,0,1.46,0,2.38-.06.1,0,.14.06.13.11l-.46,1.26a.16.16,0,0,1-.14.1c-.56,0-.91,0-1.42,0H59.34Z"/><path class="cls-4" d="M73,243.75C73,247,71.8,249,69.86,249s-3.14-1.93-3.14-5.17,1.15-5.29,3.14-5.29S73,240.55,73,243.75Zm-4.61,0c0,2.91.29,4.78,1.5,4.78s1.47-1.87,1.47-4.78S71.05,239,69.86,239,68.36,240.86,68.36,243.79Z"/><line class="cls-7" x1="81.24" y1="167.97" x2="400.51" y2="167.97"/><path class="cls-4" d="M36.65,162.8c-.14,0-.2,0-.24-.16s0-.19.13-.25c.81-.29,2-.81,3-1.26.1,0,.22.07.22.17,0,1.12-.05,2-.05,3.09v4.39c0,1.38,0,1.57.15,1.86s.6.31,1.19.36c.1,0,.13.06.13.21s0,.2-.13.2c-.64,0-1.41,0-2.07,0s-1.47,0-2.13,0c-.11,0-.14,0-.14-.2s0-.19.14-.21c.59,0,1.05-.05,1.19-.36a5.6,5.6,0,0,0,.14-1.86v-5a2.44,2.44,0,0,0-.14-1.08c-.1-.15-.39-.16-.83,0Z"/><path class="cls-4" d="M44.78,173.27c-.06.06-.15.06-.25-.05s-.09-.21,0-.27c.58-.42.89-.84.89-1.24,0-.19-.21-.36-.37-.44s-.5-.17-.5-.55a1.08,1.08,0,0,1,1-1,1.1,1.1,0,0,1,.89,1.14C46.43,171.45,46.2,172.29,44.78,173.27Z"/><path class="cls-4" d="M53.85,166.44a2.08,2.08,0,0,1-1.84,1,2.74,2.74,0,0,1-2.75-3,3,3,0,0,1,3.08-3.26c2,0,3.18,1.61,3.18,4a5.93,5.93,0,0,1-2.8,5.47,6.6,6.6,0,0,1-2.27,1c-.13,0-.22,0-.34-.26s-.09-.37.07-.38a4.08,4.08,0,0,0,1.94-.51c1.09-.65,1.65-1.89,1.8-4.07Zm-3-2.06c0,1.4.46,2.56,1.44,2.56.59,0,1-.36,1.44-1.23a1.82,1.82,0,0,0,.13-.9c0-1.86-.52-3.18-1.57-3.18S50.9,162.85,50.9,164.38Z"/><path class="cls-4" d="M59.14,165.39c0,.21,0,.43-.08.73a2.72,2.72,0,0,1,2.21-.87,2.76,2.76,0,0,1,2.83,3,3.08,3.08,0,0,1-3.2,3.37,4.16,4.16,0,0,1-2-.47c-.46-.27-1-.73-1-1.19,0-.3.35-.58,1-.58s.75.66.91,1a1.07,1.07,0,0,0,1,.77c1.09,0,1.54-1.26,1.54-2.93s-.79-2.52-1.66-2.52a1.9,1.9,0,0,0-1.76,1c-.09.14-.14.17-.38.07s-.2-.15-.17-.28a3.75,3.75,0,0,0,.09-.39l.33-4.47a.27.27,0,0,1,.09-.18.22.22,0,0,1,.19-.08h2.2c.58,0,1.46,0,2.38-.06.1,0,.14.06.13.12l-.46,1.26a.14.14,0,0,1-.14.09l-1.42,0H59.34Z"/><path class="cls-4" d="M73,166.41c0,3.22-1.17,5.25-3.11,5.25s-3.14-1.93-3.14-5.17,1.15-5.29,3.14-5.29S73,163.22,73,166.41Zm-4.61,0c0,2.92.29,4.78,1.5,4.78s1.47-1.86,1.47-4.78-.28-4.82-1.47-4.82S68.36,163.52,68.36,166.45Z"/><path class="cls-4" d="M41.5,88.43s0,.06-.06.11a7.44,7.44,0,0,0,0,11.15c.09.08.11.11.11.15s0,.08-.06.08-.07,0-.16-.08a8.35,8.35,0,0,1-2.41-2.57,6.13,6.13,0,0,1,0-6.26,8.25,8.25,0,0,1,2.43-2.59c.06,0,.08-.06.12-.06A.07.07,0,0,1,41.5,88.43Z"/><path class="cls-4" d="M44.62,93.43a9.43,9.43,0,0,1-1,1.26s-.14-.07-.12-.12a17.9,17.9,0,0,0,1.67-4.13,12.25,12.25,0,0,0,.31-1.81c1.43.37,1.57.42,1.57.59s0,.17-.47.3a13.42,13.42,0,0,1-1.26,2.9c.68.1.77.13.77.26s-.08.18-.32.3v6.21c0,.34-.21.5-.65.5s-.53-.12-.53-.46.07-1.26.07-3.15Zm2.93,4.32c0,.78-.32,1.39-.92,1.39a.53.53,0,0,1-.57-.54c0-.29.12-.45.47-.6a1.12,1.12,0,0,0,.79-1c0-.06.12-.07.14,0A3.27,3.27,0,0,1,47.55,97.75Zm.64-7.4c.86.26,1.27.62,1.27,1.14A.51.51,0,0,1,49,92h2a5.69,5.69,0,0,0,.25-.84,4.43,4.43,0,0,0,.13-.77c1,.31,1.33.42,1.33.54s-.07.16-.38.22a5.2,5.2,0,0,1-1,.85H53c.52-.62.66-.72.75-.72s.24.1.73.5c.22.18.31.29.31.38s0,.11-.15.11H47.16a6,6,0,0,0-.87.08l-.13-.45a5.23,5.23,0,0,0,1,.1h1.62a.41.41,0,0,1-.34-.35,2.4,2.4,0,0,0-.53-1.29h-.1a5.7,5.7,0,0,0-.86.07L46.78,90a4.64,4.64,0,0,0,1,.1h1.91v-.73c0-.23,0-.48,0-.73,1.4.12,1.52.24,1.52.36s-.12.19-.36.31v.79h1.74c.5-.61.65-.71.73-.71s.24.1.76.49c.22.2.32.29.32.38s0,.12-.16.12Zm0,5.65c0,.22-.24.33-.6.33s-.49-.13-.49-.43,0-.4,0-1.2,0-1.39-.08-2.1a9.76,9.76,0,0,1,1.26.56h3.74c.4-.44.5-.51.59-.51s.23.07.64.38c.19.15.26.23.26.33s-.07.18-.31.34v.36c0,1,0,1.62,0,1.84s-.21.48-.67.48c-.3,0-.43-.11-.43-.37h-4Zm4-2.56h-4v1h4Zm0,1.28h-4v1h4Zm.08,3.41c0,.16,0,.22.15.25.29.07.37.17.37.4s-.18.42-.56.54a7.33,7.33,0,0,1-1.92.18c-1.54,0-2-.21-2-.84,0-.25,0-.52,0-1.56a3.27,3.27,0,0,0,0-.53c1.22.13,1.33.16,1.33.32s-.11.21-.33.27v1c0,.34.17.41,1.14.41a3.54,3.54,0,0,0,1-.08c.33-.14.44-.42.7-1.23,0-.06.12,0,.12,0ZM50.73,98c-.28,0-.31,0-.49-.65a2.41,2.41,0,0,0-.49-.86s0-.1,0-.09c1,.18,1.49.51,1.49,1A.56.56,0,0,1,50.73,98ZM54,99c-.32,0-.42-.13-.54-.72A2.52,2.52,0,0,0,52.82,97a.07.07,0,0,1,.06-.11c1.18.38,1.7.8,1.7,1.44C54.58,98.72,54.34,99,54,99Z"/><path class="cls-4" d="M58.89,99.1c0,.3-.26.44-.73.44s-.52-.1-.52-.4c0-1.08.08-2.16.08-6.49,0-1.25,0-2.5-.08-3.76l1.36.66h6.78c.44-.5.54-.57.63-.57s.22.07.69.45c.2.18.27.27.27.36s-.07.18-.31.36v1.32c0,5.84,0,6.07,0,6.77s-.16.87-.57,1.06a2.39,2.39,0,0,1-.79.18c-.2,0-.25-.08-.29-.32-.06-.41-.3-.71-1.41-1-.06,0-.05-.14,0-.14l1.61,0c.16,0,.2,0,.2-.22V94h-7Zm2.83-5.41V89.83H58.89v3.86Zm4.14-3.86h-3v3.86h3Z"/><path class="cls-4" d="M70.27,88.42A8.22,8.22,0,0,1,72.69,91a6.07,6.07,0,0,1,0,6.26,8.12,8.12,0,0,1-2.41,2.57c-.08.06-.12.08-.15.08s-.06,0-.06-.08,0-.07.1-.15a7.43,7.43,0,0,0,0-11.15c0-.05-.06-.08-.06-.11s0-.07.08-.07S70.21,88.38,70.27,88.42Z"/><line class="cls-7" x1="81.24" y1="129.3" x2="400.51" y2="129.3"/><path class="cls-4" d="M39.06,131.36c1.17,0,1.45-.09,1.73-.34a3.28,3.28,0,0,0,.77-1.08c.06-.1.1-.11.23-.07s.15.08.14.18c-.17.72-.52,2-.76,2.69-1,0-1.69,0-2.7,0s-1.85,0-2.77,0c-.15,0-.19,0-.19-.24a.63.63,0,0,1,.09-.39,23.69,23.69,0,0,1,2.45-3.58c1.19-1.53,1.86-2.27,1.86-3.58,0-1.16-.4-2-1.2-2a1.16,1.16,0,0,0-1.17.81,3.27,3.27,0,0,0-.12,1c0,.39-.53.65-1.05.65s-.67-.11-.67-.53a2.92,2.92,0,0,1,3-2.38c1.89,0,2.9,1.12,2.9,2.48,0,1.79-1.29,2.47-2.71,3.78a10.06,10.06,0,0,0-2.32,2.57Z"/><path class="cls-4" d="M44.78,134.61c-.06,0-.15,0-.25-.06s-.09-.21,0-.27c.58-.42.89-.84.89-1.24,0-.19-.21-.35-.37-.44s-.5-.17-.5-.54a1,1,0,1,1,1.9.15C46.43,132.78,46.2,133.62,44.78,134.61Z"/><path class="cls-4" d="M51.05,127.76a2.06,2.06,0,0,1,1.87-1.14c1.78,0,2.7,1.3,2.7,3.11a3,3,0,0,1-3,3.26c-1.87,0-3.21-1.51-3.21-3.93a6.44,6.44,0,0,1,2.84-5.3,9.36,9.36,0,0,1,2.34-1.3c.11,0,.18,0,.38.27s.11.42,0,.42a3.58,3.58,0,0,0-2.07.7A5.42,5.42,0,0,0,51,127.76Zm.1.57a1.79,1.79,0,0,0-.18.87c0,2.25.62,3.36,1.6,3.36s1.4-1.23,1.4-2.82c0-1.42-.41-2.57-1.45-2.57C51.91,127.17,51.45,127.62,51.15,128.33Z"/><path class="cls-4" d="M64.26,127.74c0,3.22-1.17,5.25-3.11,5.25S58,131.06,58,127.83s1.15-5.3,3.14-5.3S64.26,124.55,64.26,127.74Zm-4.61,0c0,2.92.29,4.78,1.5,4.78s1.47-1.86,1.47-4.78S62.34,123,61.15,123,59.65,124.86,59.65,127.78Z"/><path class="cls-4" d="M73,127.74C73,131,71.8,133,69.86,133s-3.14-1.93-3.14-5.16,1.15-5.3,3.14-5.3S73,124.55,73,127.74Zm-4.61,0c0,2.92.29,4.78,1.5,4.78s1.47-1.86,1.47-4.78S71.05,123,69.86,123,68.36,124.86,68.36,127.78Z"/><line class="cls-7" x1="81.24" y1="206.63" x2="400.51" y2="206.63"/><path class="cls-4" d="M36.65,201.46c-.14,0-.2,0-.24-.15s0-.19.13-.25c.81-.3,2-.81,3-1.26.1,0,.22.07.22.17,0,1.12-.05,2-.05,3.09v4.39c0,1.38,0,1.57.15,1.86s.6.31,1.19.36c.1,0,.13.06.13.21s0,.2-.13.2c-.64,0-1.41,0-2.07,0s-1.47,0-2.13,0c-.11,0-.14,0-.14-.2s0-.19.14-.21c.59,0,1.05,0,1.19-.36a5.64,5.64,0,0,0,.14-1.86v-5a2.44,2.44,0,0,0-.14-1.08c-.1-.15-.39-.16-.83,0Z"/><path class="cls-4" d="M44.78,211.94c-.06.06-.15.06-.25-.05s-.09-.21,0-.27c.58-.42.89-.84.89-1.25,0-.18-.21-.35-.37-.43s-.5-.17-.5-.55a1.08,1.08,0,0,1,1-1,1.1,1.1,0,0,1,.89,1.14C46.43,210.12,46.2,211,44.78,211.94Z"/><path class="cls-4" d="M52.87,204.69c1.66.33,2.58,1.23,2.58,2.6a2.91,2.91,0,0,1-3.21,3,3.69,3.69,0,0,1-2.06-.54c-.44-.28-.91-.73-.91-1.18s.37-.6,1-.6.73.67.9,1.06a1.07,1.07,0,0,0,1.06.83c1,0,1.53-1,1.53-2.65,0-1-.43-2.38-1.83-2.28l-.64,0c-.12,0-.19,0-.13-.28s.11-.32.26-.32.37,0,.53,0c.77,0,1.56-.62,1.56-2.19,0-1.06-.41-2-1.18-2a1.09,1.09,0,0,0-1.05.63,1.74,1.74,0,0,0-.11.7c0,.47-.45.73-1,.73-.44,0-.65-.14-.65-.45,0-.79,1.1-2,2.86-2,1.6,0,2.78.88,2.78,2.41s-1.06,2.06-2.25,2.34Z"/><path class="cls-4" d="M64.26,205.08c0,3.22-1.17,5.25-3.11,5.25S58,208.4,58,205.16s1.15-5.29,3.14-5.29S64.26,201.89,64.26,205.08Zm-4.61,0c0,2.91.29,4.78,1.5,4.78s1.47-1.87,1.47-4.78-.28-4.82-1.47-4.82S59.65,202.19,59.65,205.12Z"/><path class="cls-4" d="M73,205.08c0,3.22-1.17,5.25-3.11,5.25s-3.14-1.93-3.14-5.17,1.15-5.29,3.14-5.29S73,201.89,73,205.08Zm-4.61,0c0,2.91.29,4.78,1.5,4.78s1.47-1.87,1.47-4.78-.28-4.82-1.47-4.82S68.36,202.19,68.36,205.12Z"/><path class="cls-4" d="M170.29,304.35c1.18,0,1.46-.08,1.74-.33a3.73,3.73,0,0,0,.77-1.08c0-.1.09-.11.22-.07s.15.08.14.18c-.17.71-.52,2-.76,2.69-1,0-1.69,0-2.7,0s-1.85,0-2.77,0c-.14,0-.19,0-.19-.24a.63.63,0,0,1,.09-.39,24.24,24.24,0,0,1,2.45-3.59c1.19-1.52,1.86-2.27,1.86-3.57s-.4-2-1.2-2a1.15,1.15,0,0,0-1.16.81,2.89,2.89,0,0,0-.13,1c0,.39-.53.66-1.05.66s-.67-.11-.67-.53a2.91,2.91,0,0,1,3-2.38c1.89,0,2.9,1.12,2.9,2.48,0,1.79-1.29,2.46-2.71,3.78a10.08,10.08,0,0,0-2.32,2.56Z"/><path class="cls-4" d="M181.77,300.74c0,3.22-1.16,5.25-3.11,5.25s-3.14-1.93-3.14-5.17,1.15-5.29,3.14-5.29S181.77,297.54,181.77,300.74Zm-4.61,0c0,2.91.3,4.78,1.5,4.78s1.47-1.87,1.47-4.78-.28-4.82-1.47-4.82S177.16,297.85,177.16,300.78Z"/><path class="cls-4" d="M185.29,297.12c-.14.05-.19,0-.23-.15s-.05-.2.12-.25c.81-.3,2-.81,3-1.26.09,0,.22.07.22.17,0,1.12-.06,2-.06,3.09v4.39c0,1.38,0,1.56.16,1.86s.6.31,1.19.36c.1,0,.12.06.12.21s0,.2-.12.2c-.65,0-1.42,0-2.07,0s-1.47,0-2.13,0c-.12,0-.14,0-.14-.2s0-.19.14-.21c.58,0,1.05-.05,1.19-.36a5.64,5.64,0,0,0,.14-1.86v-5a2.44,2.44,0,0,0-.14-1.08c-.1-.15-.39-.17-.83,0Z"/><path class="cls-4" d="M199.17,303.12a3.13,3.13,0,0,1-6.23.11c0-1.18.84-1.93,2.17-2.58a2.75,2.75,0,0,1-1.89-2.71,2.67,2.67,0,0,1,2.86-2.41c1.63,0,2.8,1,2.8,2.24,0,1.06-.59,1.62-1.84,2.23A3.12,3.12,0,0,1,199.17,303.12Zm-4.75.13c0,1.4.66,2.31,1.67,2.31s1.71-.89,1.71-2.24c0-1-.58-1.62-2.28-2.44A2.36,2.36,0,0,0,194.42,303.25Zm3.08-5.47c0-1.1-.61-1.82-1.42-1.82a1.55,1.55,0,0,0-1.52,1.75c0,.77.33,1.26,2.08,2.06A2.11,2.11,0,0,0,197.5,297.78Z"/><path class="cls-4" d="M211.79,302.8c.77-.93.94-1,1-1s.28.11,1,.71c.33.28.44.41.44.51s0,.14-.18.14h-4.87c0,1.5,0,2.86,0,3.46,0,.42-.28.6-.84.6-.41,0-.62-.12-.62-.49s.06-1.44.06-3.57H203a8.71,8.71,0,0,0-1,.08l-.15-.51a6.41,6.41,0,0,0,1.15.11h1.23v-1.92q0-1-.06-2.1a8.78,8.78,0,0,1,1.47.67h2.33v-2.58h-2.59a9.43,9.43,0,0,1-3.15,3.07c-.06,0-.2-.07-.14-.13a12.31,12.31,0,0,0,2.42-4,8.1,8.1,0,0,0,.45-1.61c1.48.43,1.86.6,1.86.84s-.17.25-.6.3a13.67,13.67,0,0,1-.65,1.21h5.94c.73-.85.9-1,1-1s.28.12,1,.68c.32.26.44.37.44.47s0,.14-.19.14h-4.44v2.58h1.66c.71-.81.82-.9.93-.9s.27.09,1,.62c.32.25.4.35.4.46s0,.14-.21.14h-3.74v.51c0,.81,0,1.68,0,2.52Zm-3.91-3h-2.42v3h2.42Z"/><path class="cls-4" d="M221.63,298.23v-.31a9,9,0,0,0-.06-1.17c1.48.14,1.64.18,1.64.35s-.09.18-.34.32v.81h2.45v-.46c0-.44,0-.6,0-1,1.28.12,1.63.21,1.63.4s-.07.19-.35.34v.77h.92c.58-.71.74-.83.84-.83s.28.12.88.58c.27.22.38.33.38.43s0,.14-.18.14h-2.84c0,1.14,0,1.92,0,2.2s-.23.52-.74.52-.54-.13-.54-.55v-.07h-2.45v.14c0,.38-.21.55-.74.55s-.53-.15-.53-.5,0-1,0-2.29h-2a21.45,21.45,0,0,1-.48,4.47,10.42,10.42,0,0,1-2,4c0,.05-.18,0-.15-.1a17.45,17.45,0,0,0,1.05-4.64c.11-1.16.17-2.46.17-4,0-1.1,0-2-.13-3a9.53,9.53,0,0,1,1.6.74h3.47v-.87a6,6,0,0,0-.08-.83c1.69.17,1.86.33,1.86.48s-.17.28-.47.39V296h3.05c.64-.76.81-.87.91-.87s.29.11.95.6c.31.24.42.35.42.45s0,.14-.18.14h-10v1.18c0,.25,0,.5,0,.74Zm4.34,3.84c.57-.58.68-.66.8-.66s.25.08.82.62c.27.23.35.35.35.46s-.19.29-.71.42a10.91,10.91,0,0,1-1.88,1.95,17.55,17.55,0,0,0,4.69.92c.07,0,.05.14,0,.15-.51.16-.69.37-.9,1-.06.17-.13.22-.27.22A4.74,4.74,0,0,1,228,307a11.48,11.48,0,0,1-3.39-1.36l-.21-.14a13.83,13.83,0,0,1-5.76,1.66c-.07,0-.13-.21-.06-.23a15.31,15.31,0,0,0,4.93-2.11,8.2,8.2,0,0,1-1.75-2.44h-.84a3.45,3.45,0,0,0-.83.11l-.15-.54a4.72,4.72,0,0,0,1,.11Zm-3.88.32a7.1,7.1,0,0,0,2.09,1.92,11.36,11.36,0,0,0,1.79-1.92Zm3.23-2.06v-1.78h-2.45v1.78Z"/><path class="cls-4" d="M84.81,304.35c1.17,0,1.45-.08,1.74-.33a3.73,3.73,0,0,0,.77-1.08c.05-.1.09-.11.22-.07s.15.08.14.18c-.17.71-.52,2-.76,2.69-1,0-1.69,0-2.7,0s-1.85,0-2.77,0c-.14,0-.19,0-.19-.24a.63.63,0,0,1,.09-.39,24.24,24.24,0,0,1,2.45-3.59C85,300,85.66,299.25,85.66,298s-.4-2-1.2-2a1.15,1.15,0,0,0-1.16.81,2.89,2.89,0,0,0-.13,1c0,.39-.53.66-1,.66s-.67-.11-.67-.53a2.91,2.91,0,0,1,3-2.38c1.89,0,2.9,1.12,2.9,2.48,0,1.79-1.29,2.46-2.71,3.78a10.08,10.08,0,0,0-2.32,2.56Z"/><path class="cls-4" d="M96.29,300.74c0,3.22-1.16,5.25-3.11,5.25S90,304.06,90,300.82s1.15-5.29,3.14-5.29S96.29,297.54,96.29,300.74Zm-4.61,0c0,2.91.29,4.78,1.5,4.78s1.47-1.87,1.47-4.78S94.37,296,93.18,296,91.68,297.85,91.68,300.78Z"/><path class="cls-4" d="M99.81,297.12c-.14.05-.19,0-.23-.15s0-.2.12-.25c.81-.3,2-.81,3-1.26.09,0,.22.07.22.17,0,1.12-.06,2-.06,3.09v4.39c0,1.38,0,1.56.16,1.86s.6.31,1.19.36c.1,0,.12.06.12.21s0,.2-.12.2c-.65,0-1.42,0-2.07,0s-1.48,0-2.13,0c-.12,0-.14,0-.14-.2s0-.19.14-.21c.58,0,1-.05,1.19-.36a5.64,5.64,0,0,0,.14-1.86v-5a2.44,2.44,0,0,0-.14-1.08c-.1-.15-.4-.17-.83,0Z"/><path class="cls-4" d="M109.63,297.11c-.77,0-1,.11-1.15.31a2.77,2.77,0,0,0-.49.92c0,.1-.07.14-.25.1s-.17-.06-.16-.15c.12-.72.28-1.84.37-2.58.92,0,1.85,0,2.81,0s1.84,0,2.73,0c.09,0,.12,0,.12.29a.62.62,0,0,1-.06.37,21.32,21.32,0,0,0-2.45,6.08,9.32,9.32,0,0,0-.21,1.85c0,.39,0,.6,0,.93s-.53.76-1.07.76-.88-.17-.88-.62a8.77,8.77,0,0,1,1-3.55,36.77,36.77,0,0,1,2.69-4.71Z"/><path class="cls-4" d="M126.31,302.8c.77-.93.93-1,1-1s.28.11,1,.71c.33.28.44.41.44.51s0,.14-.18.14h-4.87c0,1.5,0,2.86,0,3.46,0,.42-.28.6-.84.6-.41,0-.62-.12-.62-.49s.06-1.44.06-3.57h-4.93a8.71,8.71,0,0,0-1,.08l-.15-.51a6.41,6.41,0,0,0,1.15.11h1.23v-1.92q0-1-.06-2.1a8.78,8.78,0,0,1,1.47.67h2.33v-2.58h-2.59a9.43,9.43,0,0,1-3.15,3.07c-.06,0-.2-.07-.15-.13a12.16,12.16,0,0,0,2.43-4,8.1,8.1,0,0,0,.45-1.61c1.48.43,1.86.6,1.86.84s-.17.25-.6.3a13.67,13.67,0,0,1-.65,1.21h5.94c.73-.85.9-1,1-1s.28.12,1,.68c.32.26.44.37.44.47s-.05.14-.19.14h-4.44v2.58h1.66c.71-.81.82-.9.93-.9s.27.09,1,.62c.32.25.4.35.4.46s0,.14-.21.14h-3.74v.51c0,.81,0,1.68,0,2.52Zm-3.91-3H120v3h2.43Z"/><path class="cls-4" d="M136.15,298.23v-.31a9,9,0,0,0-.06-1.17c1.48.14,1.64.18,1.64.35s-.09.18-.34.32v.81h2.45v-.46c0-.44,0-.6,0-1,1.28.12,1.63.21,1.63.4s-.07.19-.35.34v.77H142c.57-.71.74-.83.84-.83s.28.12.88.58c.27.22.38.33.38.43s0,.14-.18.14h-2.84c0,1.14,0,1.92,0,2.2s-.23.52-.74.52-.54-.13-.54-.55v-.07h-2.45v.14c0,.38-.21.55-.74.55s-.53-.15-.53-.5,0-1,0-2.29h-2a21.45,21.45,0,0,1-.48,4.47,10.42,10.42,0,0,1-2,4c0,.05-.18,0-.15-.1a17.45,17.45,0,0,0,1-4.64c.11-1.16.17-2.46.17-4,0-1.1,0-2-.13-3a9.53,9.53,0,0,1,1.6.74h3.47v-.87a6,6,0,0,0-.08-.83c1.69.17,1.86.33,1.86.48s-.17.28-.48.39V296h3.06c.64-.76.81-.87.91-.87s.29.11,1,.6c.31.24.42.35.42.45s0,.14-.18.14h-10v1.18c0,.25,0,.5,0,.74Zm4.34,3.84c.57-.58.68-.66.8-.66s.25.08.82.62c.27.23.35.35.35.46s-.19.29-.71.42a10.91,10.91,0,0,1-1.88,1.95,17.55,17.55,0,0,0,4.69.92c.07,0,.05.14,0,.15-.51.16-.69.37-.9,1-.06.17-.13.22-.27.22a5,5,0,0,1-.87-.17,11.53,11.53,0,0,1-3.38-1.36,1.64,1.64,0,0,1-.22-.14,13.73,13.73,0,0,1-5.75,1.66c-.07,0-.13-.21-.06-.23a15.31,15.31,0,0,0,4.93-2.11,8.2,8.2,0,0,1-1.75-2.44h-.84a3.45,3.45,0,0,0-.83.11l-.15-.54a4.72,4.72,0,0,0,1,.11Zm-3.88.32a7.19,7.19,0,0,0,2.08,1.92,11,11,0,0,0,1.8-1.92Zm3.23-2.06v-1.78h-2.45v1.78Z"/><path class="cls-4" d="M255.77,304.35c1.18,0,1.46-.08,1.74-.33a3.73,3.73,0,0,0,.77-1.08c.05-.1.09-.11.22-.07s.15.08.14.18c-.17.71-.52,2-.76,2.69-.95,0-1.69,0-2.7,0s-1.85,0-2.77,0c-.14,0-.18,0-.18-.24a.63.63,0,0,1,.08-.39,24.24,24.24,0,0,1,2.45-3.59c1.19-1.52,1.86-2.27,1.86-3.57s-.4-2-1.2-2a1.15,1.15,0,0,0-1.16.81,2.89,2.89,0,0,0-.13,1c0,.39-.53.66-1,.66s-.67-.11-.67-.53a2.91,2.91,0,0,1,3-2.38c1.89,0,2.9,1.12,2.9,2.48,0,1.79-1.29,2.46-2.7,3.78a10,10,0,0,0-2.33,2.56Z"/><path class="cls-4" d="M267.25,300.74c0,3.22-1.16,5.25-3.11,5.25s-3.14-1.93-3.14-5.17,1.15-5.29,3.14-5.29S267.25,297.54,267.25,300.74Zm-4.61,0c0,2.91.3,4.78,1.5,4.78s1.47-1.87,1.47-4.78-.28-4.82-1.47-4.82S262.64,297.85,262.64,300.78Z"/><path class="cls-4" d="M270.77,297.12c-.14.05-.19,0-.23-.15s-.05-.2.12-.25c.82-.3,2-.81,3-1.26.09,0,.22.07.22.17,0,1.12-.06,2-.06,3.09v4.39c0,1.38,0,1.56.16,1.86s.6.31,1.19.36c.1,0,.13.06.13.21s0,.2-.13.2c-.65,0-1.42,0-2.07,0s-1.47,0-2.13,0c-.12,0-.14,0-.14-.2s0-.19.14-.21c.59,0,1.05-.05,1.19-.36a5.64,5.64,0,0,0,.14-1.86v-5a2.44,2.44,0,0,0-.14-1.08c-.1-.15-.39-.17-.83,0Z"/><path class="cls-4" d="M283,300.77a2.08,2.08,0,0,1-1.85,1,2.74,2.74,0,0,1-2.74-3,3,3,0,0,1,3.08-3.26c2,0,3.18,1.61,3.18,4a6,6,0,0,1-2.8,5.48,6.77,6.77,0,0,1-2.27,1c-.13,0-.23-.06-.34-.27s-.1-.36.07-.37a4.12,4.12,0,0,0,1.93-.51c1.1-.66,1.66-1.89,1.81-4.07Zm-3-2.06c0,1.4.46,2.56,1.44,2.56.59,0,1.05-.36,1.44-1.23a1.82,1.82,0,0,0,.13-.9c0-1.86-.52-3.18-1.57-3.18S280,297.18,280,298.71Z"/><path class="cls-4" d="M297.27,302.8c.77-.93.94-1,1-1s.28.11,1,.71c.33.28.44.41.44.51s0,.14-.18.14h-4.87c0,1.5,0,2.86,0,3.46,0,.42-.28.6-.84.6s-.62-.12-.62-.49.06-1.44.06-3.57h-4.93a8.71,8.71,0,0,0-1,.08l-.15-.51a6.41,6.41,0,0,0,1.15.11h1.23v-1.92c0-.7,0-1.4-.06-2.1a8.78,8.78,0,0,1,1.47.67h2.33v-2.58h-2.59a9.43,9.43,0,0,1-3.15,3.07c-.06,0-.2-.07-.14-.13a12.31,12.31,0,0,0,2.42-4,8.1,8.1,0,0,0,.45-1.61c1.48.43,1.86.6,1.86.84s-.17.25-.6.3a13.67,13.67,0,0,1-.65,1.21h5.94c.73-.85.9-1,1-1s.28.12,1,.68c.32.26.44.37.44.47s-.05.14-.19.14H294.7v2.58h1.66c.71-.81.82-.9.94-.9s.26.09.95.62c.32.25.4.35.4.46s0,.14-.21.14H294.7v.51c0,.81,0,1.68,0,2.52Zm-3.91-3h-2.42v3h2.42Z"/><path class="cls-4" d="M307.11,298.23v-.31a9,9,0,0,0-.06-1.17c1.48.14,1.64.18,1.64.35s-.08.18-.34.32v.81h2.45v-.46c0-.44,0-.6,0-1,1.28.12,1.63.21,1.63.4s-.07.19-.35.34v.77H313c.58-.71.74-.83.84-.83s.28.12.88.58c.27.22.38.33.38.43s0,.14-.18.14H312c0,1.14,0,1.92,0,2.2s-.23.52-.74.52-.54-.13-.54-.55v-.07h-2.45v.14c0,.38-.21.55-.74.55s-.53-.15-.53-.5,0-1,0-2.29h-2a22.25,22.25,0,0,1-.47,4.47,10.59,10.59,0,0,1-2,4c0,.05-.18,0-.15-.1a17.45,17.45,0,0,0,1-4.64c.11-1.16.17-2.46.17-4,0-1.1,0-2-.13-3a9.53,9.53,0,0,1,1.6.74h3.47v-.87a6,6,0,0,0-.08-.83c1.69.17,1.86.33,1.86.48s-.17.28-.47.39V296h3.05c.64-.76.81-.87.91-.87s.29.11.95.6c.31.24.42.35.42.45s0,.14-.18.14h-10v1.18c0,.25,0,.5,0,.74Zm4.34,3.84c.57-.58.69-.66.8-.66s.25.08.82.62c.27.23.35.35.35.46s-.19.29-.71.42a10.57,10.57,0,0,1-1.88,1.95,17.55,17.55,0,0,0,4.69.92c.07,0,.05.14,0,.15-.51.16-.69.37-.9,1-.06.17-.13.22-.27.22a4.74,4.74,0,0,1-.86-.17,11.48,11.48,0,0,1-3.39-1.36l-.21-.14a13.83,13.83,0,0,1-5.76,1.66c-.07,0-.13-.21-.06-.23a15.31,15.31,0,0,0,4.93-2.11,8.2,8.2,0,0,1-1.75-2.44h-.84a3.31,3.31,0,0,0-.82.11l-.16-.54a4.72,4.72,0,0,0,1,.11Zm-3.88.32a7.1,7.1,0,0,0,2.09,1.92,11.36,11.36,0,0,0,1.79-1.92Zm3.23-2.06v-1.78h-2.45v1.78Z"/><path class="cls-4" d="M341.25,304.35c1.18,0,1.46-.08,1.74-.33a3.73,3.73,0,0,0,.77-1.08c.05-.1.1-.11.22-.07s.16.08.14.18c-.17.71-.52,2-.76,2.69-.95,0-1.69,0-2.7,0s-1.85,0-2.77,0c-.14,0-.18,0-.18-.24a.63.63,0,0,1,.08-.39,24.24,24.24,0,0,1,2.45-3.59c1.19-1.52,1.86-2.27,1.86-3.57s-.4-2-1.2-2a1.16,1.16,0,0,0-1.16.81,2.89,2.89,0,0,0-.13,1c0,.39-.53.66-1.05.66s-.67-.11-.67-.53a2.91,2.91,0,0,1,3-2.38c1.89,0,2.9,1.12,2.9,2.48,0,1.79-1.29,2.46-2.7,3.78a10,10,0,0,0-2.33,2.56Z"/><path class="cls-4" d="M352.73,300.74c0,3.22-1.16,5.25-3.11,5.25s-3.14-1.93-3.14-5.17,1.15-5.29,3.14-5.29S352.73,297.54,352.73,300.74Zm-4.61,0c0,2.91.3,4.78,1.5,4.78s1.47-1.87,1.47-4.78-.28-4.82-1.47-4.82S348.12,297.85,348.12,300.78Z"/><path class="cls-4" d="M358.66,304.35c1.18,0,1.46-.08,1.74-.33a3.73,3.73,0,0,0,.77-1.08c.06-.1.1-.11.23-.07s.15.08.14.18c-.17.71-.52,2-.76,2.69-.95,0-1.7,0-2.7,0s-1.85,0-2.78,0c-.14,0-.18,0-.18-.24a.63.63,0,0,1,.08-.39,24.38,24.38,0,0,1,2.46-3.59c1.19-1.52,1.86-2.27,1.86-3.57s-.41-2-1.21-2a1.16,1.16,0,0,0-1.16.81,3.2,3.2,0,0,0-.12,1c0,.39-.54.66-1,.66s-.68-.11-.68-.53a2.92,2.92,0,0,1,3-2.38c1.9,0,2.9,1.12,2.9,2.48,0,1.79-1.28,2.46-2.7,3.78a10.08,10.08,0,0,0-2.32,2.56Z"/><path class="cls-4" d="M370.15,300.74C370.15,304,369,306,367,306s-3.14-1.93-3.14-5.17,1.15-5.29,3.14-5.29S370.15,297.54,370.15,300.74Zm-4.61,0c0,2.91.29,4.78,1.5,4.78s1.47-1.87,1.47-4.78S368.23,296,367,296,365.54,297.85,365.54,300.78Z"/><path class="cls-4" d="M382.75,302.8c.77-.93.94-1,1-1s.28.11,1,.71c.33.28.45.41.45.51s-.05.14-.19.14H380.2c0,1.5,0,2.86,0,3.46,0,.42-.28.6-.84.6-.41,0-.62-.12-.62-.49s.06-1.44.06-3.57h-4.93a8.71,8.71,0,0,0-1,.08l-.15-.51a6.41,6.41,0,0,0,1.15.11h1.23v-1.92c0-.7,0-1.4-.06-2.1a8.78,8.78,0,0,1,1.47.67h2.33v-2.58h-2.59a9.43,9.43,0,0,1-3.15,3.07c-.06,0-.2-.07-.14-.13a12.31,12.31,0,0,0,2.42-4,8.1,8.1,0,0,0,.45-1.61c1.48.43,1.86.6,1.86.84s-.17.25-.6.3a13.67,13.67,0,0,1-.65,1.21h5.94c.73-.85.9-1,1-1s.28.12,1,.68c.32.26.44.37.44.47s-.05.14-.19.14h-4.44v2.58h1.66c.71-.81.82-.9.94-.9s.26.09,1,.62c.32.25.4.35.4.46s-.05.14-.21.14h-3.74v.51c0,.81,0,1.68,0,2.52Zm-3.91-3h-2.42v3h2.42Z"/><path class="cls-4" d="M392.59,298.23v-.31a9,9,0,0,0-.06-1.17c1.49.14,1.64.18,1.64.35s-.08.18-.34.32v.81h2.45v-.46c0-.44,0-.6,0-1,1.28.12,1.63.21,1.63.4s-.07.19-.35.34v.77h.92c.58-.71.74-.83.84-.83s.28.12.88.58c.27.22.38.33.38.43s0,.14-.18.14h-2.84c0,1.14,0,1.92,0,2.2s-.22.52-.74.52-.54-.13-.54-.55v-.07h-2.45v.14c0,.38-.21.55-.74.55s-.53-.15-.53-.5,0-1,0-2.29h-2a21.54,21.54,0,0,1-.47,4.47,10.59,10.59,0,0,1-2,4c0,.05-.18,0-.15-.1a17.45,17.45,0,0,0,1.05-4.64c.11-1.16.17-2.46.17-4,0-1.1,0-2-.13-3a9.18,9.18,0,0,1,1.6.74h3.47v-.87a6,6,0,0,0-.08-.83c1.69.17,1.86.33,1.86.48s-.17.28-.47.39V296h3.05c.64-.76.81-.87.91-.87s.29.11.95.6c.31.24.42.35.42.45s0,.14-.18.14h-10v1.18c0,.25,0,.5,0,.74Zm4.34,3.84c.57-.58.69-.66.8-.66s.25.08.82.62c.27.23.35.35.35.46s-.19.29-.71.42a10.57,10.57,0,0,1-1.88,1.95,17.55,17.55,0,0,0,4.7.92c.07,0,0,.14,0,.15-.51.16-.69.37-.9,1-.06.17-.13.22-.27.22A4.74,4.74,0,0,1,399,307a11.48,11.48,0,0,1-3.39-1.36l-.21-.14a13.83,13.83,0,0,1-5.76,1.66c-.07,0-.13-.21-.06-.23a15.31,15.31,0,0,0,4.93-2.11,8.38,8.38,0,0,1-1.75-2.44h-.84a3.31,3.31,0,0,0-.82.11l-.16-.54a4.72,4.72,0,0,0,1,.11Zm-3.88.32a7.1,7.1,0,0,0,2.09,1.92,11.36,11.36,0,0,0,1.79-1.92Zm3.23-2.06v-1.78h-2.45v1.78Z"/><rect class="cls-2" x="86.99" y="158.4" width="57.5" height="23.42"/><rect class="cls-2" x="166.95" y="152.96" width="67.62" height="25.23"/><rect class="cls-2" x="250.87" y="119.48" width="72.74" height="33.59"/><path class="cls-5" d="M92.33,177.4l0-.2h.42a1.09,1.09,0,0,0,1.1-1.08V166a1.35,1.35,0,0,0-.36-1.08,1.45,1.45,0,0,0-1-.3h-.36v-.2c.28,0,.66-.05,1.13-.11s1-.14,1.53-.24a13.18,13.18,0,0,0,1.59-.38,5.49,5.49,0,0,0,1.31-.55H98v13a1,1,0,0,0,.33.75,1.08,1.08,0,0,0,.77.31h.42v.2Z"/><path class="cls-5" d="M101.43,174.42a1.66,1.66,0,0,1,1-.33,2.3,2.3,0,0,1,1.07.3,1.78,1.78,0,0,1,.75.85,3.21,3.21,0,0,1,.28,1.79,3.61,3.61,0,0,1-.63,1.64,3.32,3.32,0,0,1-1.28,1.11,2.56,2.56,0,0,1-1.67.2l-.08-.26a1.67,1.67,0,0,0,.64-.53,1.35,1.35,0,0,0,.27-.89,1.81,1.81,0,0,0-.55-1.12,1.91,1.91,0,0,1-.45-1,2.12,2.12,0,0,1,.08-1A1.59,1.59,0,0,1,101.43,174.42Z"/><path class="cls-5" d="M116.45,162.72l.08.14a13,13,0,0,0-3.35,1.48,5.35,5.35,0,0,0-1.77,1.86,6.38,6.38,0,0,0-.7,2.35,29.32,29.32,0,0,0-.14,3c0,1.11,0,2,.08,2.77a3.94,3.94,0,0,0,.4,1.66,1.1,1.1,0,0,0,1,.55,1.32,1.32,0,0,0,1.12-.49,2.83,2.83,0,0,0,.52-1.28,10,10,0,0,0,.14-1.69,9.18,9.18,0,0,0-.13-1.78,2.63,2.63,0,0,0-.35-.95,1.24,1.24,0,0,0-1.36-.49,3,3,0,0,0-.66.28l-.16-.16a2.33,2.33,0,0,1,.89-1,3.57,3.57,0,0,1,1.39-.51,4.22,4.22,0,0,1,1.58.07,3.88,3.88,0,0,1,1.47.72,3.78,3.78,0,0,1,1.07,1.42,4.94,4.94,0,0,1,.36,2.21,5.15,5.15,0,0,1-.67,2.44,4.38,4.38,0,0,1-1.9,1.75,7.42,7.42,0,0,1-3.25.69,7,7,0,0,1-3.32-.67,4.49,4.49,0,0,1-2.06-2.17,8.73,8.73,0,0,1-.7-3.76,10.72,10.72,0,0,1,.64-3.83,6.9,6.9,0,0,1,1.94-2.81,7.8,7.8,0,0,1,3.25-1.59A13,13,0,0,1,116.45,162.72Z"/><path class="cls-5" d="M119.51,177.4l0-.2H120a1.09,1.09,0,0,0,1.1-1.08V166a1.35,1.35,0,0,0-.36-1.08,1.45,1.45,0,0,0-1-.3h-.36v-.2c.28,0,.66-.05,1.13-.11s1-.14,1.53-.24a13.18,13.18,0,0,0,1.59-.38,5.49,5.49,0,0,0,1.31-.55h.2v13a1,1,0,0,0,.33.75,1.08,1.08,0,0,0,.77.31h.42v.2Z"/><path class="cls-5" d="M129.57,178.16l-.08-.14a12.65,12.65,0,0,0,3.35-1.48,5.19,5.19,0,0,0,1.77-1.86,6.27,6.27,0,0,0,.7-2.35,29,29,0,0,0,.14-3c0-1.1,0-2-.08-2.77a4,4,0,0,0-.39-1.66,1.11,1.11,0,0,0-1-.55,1.35,1.35,0,0,0-1.12.49,2.88,2.88,0,0,0-.52,1.27,10,10,0,0,0-.14,1.7,9.18,9.18,0,0,0,.13,1.78,2.48,2.48,0,0,0,.36.95,1.2,1.2,0,0,0,.51.43,1.27,1.27,0,0,0,.85.06,2.64,2.64,0,0,0,.65-.28l.14.16a2.4,2.4,0,0,1-.88,1,3.33,3.33,0,0,1-1.38.52,4,4,0,0,1-1.58-.07,3.61,3.61,0,0,1-1.47-.72,3.67,3.67,0,0,1-1.07-1.43,4.92,4.92,0,0,1-.36-2.2,5.32,5.32,0,0,1,.66-2.44,4.46,4.46,0,0,1,1.9-1.76,7.2,7.2,0,0,1,3.26-.68,6,6,0,0,1,4.51,1.56q1.58,1.6,1.57,5a10.68,10.68,0,0,1-.64,3.83,6.77,6.77,0,0,1-1.94,2.81,7.58,7.58,0,0,1-3.24,1.59A13,13,0,0,1,129.57,178.16Z"/><path class="cls-5" d="M176,172.57l0-.2h.42a1.09,1.09,0,0,0,1.1-1.08V161.15a1.35,1.35,0,0,0-.36-1.08,1.45,1.45,0,0,0-1-.3h-.36v-.2c.28,0,.66,0,1.13-.11s1-.14,1.53-.24a13.18,13.18,0,0,0,1.59-.38,5.49,5.49,0,0,0,1.31-.55h.2v13a1,1,0,0,0,.33.75,1.08,1.08,0,0,0,.77.31h.42v.2Z"/><path class="cls-5" d="M185.06,169.59a1.72,1.72,0,0,1,1-.33,2.3,2.3,0,0,1,1.07.3,1.78,1.78,0,0,1,.75.85,3.21,3.21,0,0,1,.28,1.79,3.61,3.61,0,0,1-.63,1.64,3.32,3.32,0,0,1-1.28,1.11,2.5,2.5,0,0,1-1.67.2l-.08-.26a1.58,1.58,0,0,0,.64-.53,1.33,1.33,0,0,0,.27-.89,1.83,1.83,0,0,0-.55-1.12,1.91,1.91,0,0,1-.45-.95,2.12,2.12,0,0,1,.08-1A1.59,1.59,0,0,1,185.06,169.59Z"/><path class="cls-5" d="M189.56,158.61l10.6,0-2.56,5.94c-.17.39-.36.86-.56,1.4s-.41,1.14-.62,1.76-.42,1.25-.62,1.86l-.55,1.71c-.17.53-.3,1-.39,1.33h-3.4c.24-.4.53-.88.86-1.45s.68-1.17,1-1.81.72-1.27,1.07-1.91.67-1.22.95-1.76.51-1,.68-1.35l1-2.22h-6.4a1.38,1.38,0,0,0-.94.3,2.17,2.17,0,0,0-.56.9H189Z"/><path class="cls-5" d="M210.36,158.29l.18,1.48-7.12,6.92h8a1.41,1.41,0,0,0,.84-.21,1.47,1.47,0,0,0,.46-.59h.2l-.62,2.9H200v-.2Zm.2,13a1,1,0,0,0,.33.76,1.05,1.05,0,0,0,.77.32h.22v.2h-6.76l0-.2h.2a1.09,1.09,0,0,0,.79-.31,1,1,0,0,0,.33-.77Zm-4.1-8.68,3.9-4.32h.2v14.26h-4.1Z"/><path class="cls-5" d="M215.52,173.33l-.08-.14a12.65,12.65,0,0,0,3.35-1.48,5.37,5.37,0,0,0,1.77-1.86,6.27,6.27,0,0,0,.7-2.35,29,29,0,0,0,.14-3c0-1.1,0-2-.08-2.77a4.16,4.16,0,0,0-.39-1.66,1.13,1.13,0,0,0-1.05-.55,1.35,1.35,0,0,0-1.12.49,2.88,2.88,0,0,0-.52,1.27,10,10,0,0,0-.14,1.7,9.11,9.11,0,0,0,.13,1.78,2.32,2.32,0,0,0,.36,1,1.2,1.2,0,0,0,.51.43,1.27,1.27,0,0,0,.85.06,2.64,2.64,0,0,0,.65-.28l.14.16a2.34,2.34,0,0,1-.88,1,3.33,3.33,0,0,1-1.38.52,4,4,0,0,1-1.58-.07,3.61,3.61,0,0,1-1.47-.72,3.67,3.67,0,0,1-1.07-1.43,4.92,4.92,0,0,1-.36-2.2,5.2,5.2,0,0,1,.66-2.44,4.4,4.4,0,0,1,1.9-1.76,7.33,7.33,0,0,1,3.26-.68,6,6,0,0,1,4.51,1.56q1.57,1.6,1.57,5a10.87,10.87,0,0,1-.64,3.83,6.86,6.86,0,0,1-1.94,2.81,7.58,7.58,0,0,1-3.24,1.59A12.57,12.57,0,0,1,215.52,173.33Z"/><path class="cls-5" d="M260.48,133.18l-1.34-3.6a5,5,0,0,1,1.45-.86,9.37,9.37,0,0,1,1.84-.52,10.89,10.89,0,0,1,1.95-.18,8.17,8.17,0,0,1,2.92.49,4.74,4.74,0,0,1,2.05,1.4,3.36,3.36,0,0,1,.75,2.21,4.09,4.09,0,0,1-.41,1.8,6.47,6.47,0,0,1-1.07,1.56,12.14,12.14,0,0,1-1.44,1.33c-.52.41-1,.77-1.54,1.1l-1.36.87h3.8a2.59,2.59,0,0,0,1.09-.23,2.65,2.65,0,0,0,.9-.69,5.22,5.22,0,0,0,.75-1.18h.2l-1.36,5.62h-10.4v-.2c.57-.71,1.16-1.41,1.77-2.12s1.19-1.41,1.76-2.11a24.6,24.6,0,0,0,1.53-2.09,11.67,11.67,0,0,0,1.08-2.06,5.42,5.42,0,0,0,.4-2,2.86,2.86,0,0,0-.69-2,2.16,2.16,0,0,0-1.87-.64,2.35,2.35,0,0,0-1.91,1.15,5.78,5.78,0,0,0-.65,3Z"/><path class="cls-5" d="M273.06,139.32a1.6,1.6,0,0,1,1-.33,2.3,2.3,0,0,1,1.07.3,1.73,1.73,0,0,1,.75.85,3.2,3.2,0,0,1,.28,1.79,3.65,3.65,0,0,1-.63,1.64,3.32,3.32,0,0,1-1.28,1.11,2.56,2.56,0,0,1-1.67.2l-.08-.26a1.67,1.67,0,0,0,.64-.53,1.35,1.35,0,0,0,.27-.89,1.81,1.81,0,0,0-.55-1.12,2,2,0,0,1-.45-1,2.11,2.11,0,0,1,.08-1A1.59,1.59,0,0,1,273.06,139.32Z"/><path class="cls-5" d="M282.48,128.06a8.09,8.09,0,0,1,2.73.41,3.83,3.83,0,0,1,1.74,1.17,2.87,2.87,0,0,1,.61,1.86,3,3,0,0,1-.33,1.44,2.69,2.69,0,0,1-.87,1,3,3,0,0,1-1.17.47,2.73,2.73,0,0,1-1.21-.05,4.93,4.93,0,0,1,1.31.19,4.44,4.44,0,0,1,1.36.64,3.54,3.54,0,0,1,1.07,1.22,4,4,0,0,1,.42,1.93,4.69,4.69,0,0,1-.65,2.47,5.35,5.35,0,0,1-1.75,1.76,7.47,7.47,0,0,1-2.47,1,9.45,9.45,0,0,1-2.82.16,8.54,8.54,0,0,1-2.77-.73l0-.2a8.07,8.07,0,0,0,2.34-.3,6.11,6.11,0,0,0,1.95-.95,4.73,4.73,0,0,0,1.34-1.52,4,4,0,0,0,.49-2,3.1,3.1,0,0,0-.57-1.95,3.33,3.33,0,0,0-1.42-1.07,4.53,4.53,0,0,0-1.71-.34l0-.2a3.24,3.24,0,0,0,1.7-.43,3.16,3.16,0,0,0,1.22-1.24,2.9,2.9,0,0,0,.34-1.75,2.15,2.15,0,0,0-.42-1.19,1.92,1.92,0,0,0-.89-.63,2.65,2.65,0,0,0-1.13-.12,2,2,0,0,0-1.7,1.05,6,6,0,0,0-.46,2.83h-.2l-1.14-3.46a5.67,5.67,0,0,1,2.06-1A10.17,10.17,0,0,1,282.48,128.06Z"/><path class="cls-5" d="M294.52,128.06a8.09,8.09,0,0,1,2.73.41,3.83,3.83,0,0,1,1.74,1.17,2.87,2.87,0,0,1,.61,1.86,3,3,0,0,1-.33,1.44,2.69,2.69,0,0,1-.87,1,3,3,0,0,1-1.17.47,2.73,2.73,0,0,1-1.21-.05,4.93,4.93,0,0,1,1.31.19,4.44,4.44,0,0,1,1.36.64,3.54,3.54,0,0,1,1.07,1.22,4,4,0,0,1,.42,1.93,4.69,4.69,0,0,1-.65,2.47,5.35,5.35,0,0,1-1.75,1.76,7.47,7.47,0,0,1-2.47,1,9.45,9.45,0,0,1-2.82.16,8.54,8.54,0,0,1-2.77-.73l0-.2a8.07,8.07,0,0,0,2.34-.3,6.11,6.11,0,0,0,1.95-.95,4.73,4.73,0,0,0,1.34-1.52,4,4,0,0,0,.49-2,3.1,3.1,0,0,0-.57-1.95,3.33,3.33,0,0,0-1.42-1.07,4.53,4.53,0,0,0-1.71-.34l0-.2a3.24,3.24,0,0,0,1.7-.43,3.16,3.16,0,0,0,1.22-1.24,2.9,2.9,0,0,0,.34-1.75,2.15,2.15,0,0,0-.42-1.19,1.92,1.92,0,0,0-.89-.63,2.65,2.65,0,0,0-1.13-.12,2,2,0,0,0-1.7,1.05,6,6,0,0,0-.46,2.83h-.2l-1.14-3.46a5.67,5.67,0,0,1,2.06-1A10.17,10.17,0,0,1,294.52,128.06Z"/><path class="cls-5" d="M312.16,127.62l.08.14a12.65,12.65,0,0,0-3.35,1.48,5.35,5.35,0,0,0-1.77,1.86,6.32,6.32,0,0,0-.7,2.35,29,29,0,0,0-.14,3c0,1.11,0,2,.08,2.77a4,4,0,0,0,.4,1.66,1.1,1.1,0,0,0,1,.55,1.32,1.32,0,0,0,1.12-.49,2.88,2.88,0,0,0,.52-1.28,10.05,10.05,0,0,0,.14-1.69,9.18,9.18,0,0,0-.13-1.78,2.56,2.56,0,0,0-.35-.95,1.17,1.17,0,0,0-.52-.43,1.23,1.23,0,0,0-.84-.06,2.56,2.56,0,0,0-.66.28l-.16-.16a2.28,2.28,0,0,1,.89-1,3.57,3.57,0,0,1,1.39-.51,4,4,0,0,1,1.58.07,3.88,3.88,0,0,1,1.47.72,3.71,3.71,0,0,1,1.07,1.42,4.91,4.91,0,0,1,.36,2.21,5.18,5.18,0,0,1-.67,2.44,4.44,4.44,0,0,1-1.9,1.75,7.56,7.56,0,0,1-3.25.69,7.15,7.15,0,0,1-3.32-.67,4.49,4.49,0,0,1-2.06-2.17,8.76,8.76,0,0,1-.7-3.76,10.68,10.68,0,0,1,.64-3.83,6.83,6.83,0,0,1,1.94-2.81,7.57,7.57,0,0,1,3.25-1.59A13,13,0,0,1,312.16,127.62Z"/><rect class="cls-2" x="332.49" y="104.18" width="71.72" height="33.59"/><path class="cls-5" d="M338.22,115.6l-1.67-4.5a6.3,6.3,0,0,1,1.81-1.08,12.31,12.31,0,0,1,2.3-.65,13.66,13.66,0,0,1,2.44-.22,10.24,10.24,0,0,1,3.65.61,5.94,5.94,0,0,1,2.56,1.75,4.18,4.18,0,0,1,.94,2.76,5.08,5.08,0,0,1-.51,2.25,8.17,8.17,0,0,1-1.34,2,14.17,14.17,0,0,1-1.8,1.66q-1,.77-1.92,1.38L343,122.6h4.75a3.23,3.23,0,0,0,1.37-.29,3.47,3.47,0,0,0,1.12-.86,6.28,6.28,0,0,0,.94-1.48h.25l-1.7,7h-13v-.25c.72-.89,1.45-1.77,2.21-2.65s1.49-1.77,2.2-2.64,1.35-1.75,1.92-2.61a15.24,15.24,0,0,0,1.35-2.58,6.94,6.94,0,0,0,.5-2.52,3.55,3.55,0,0,0-.87-2.55,2.66,2.66,0,0,0-2.33-.8,2.93,2.93,0,0,0-2.39,1.43,7.23,7.23,0,0,0-.82,3.77Z"/><path class="cls-5" d="M354,123.27a2,2,0,0,1,1.27-.41,2.78,2.78,0,0,1,1.34.37,2.19,2.19,0,0,1,.94,1.07,4,4,0,0,1,.35,2.23,4.47,4.47,0,0,1-.79,2.05,4.19,4.19,0,0,1-1.6,1.39,3.17,3.17,0,0,1-2.09.25l-.1-.32a2.1,2.1,0,0,0,.8-.67,1.65,1.65,0,0,0,.34-1.11,2.27,2.27,0,0,0-.69-1.4,2.43,2.43,0,0,1-.56-1.19,2.64,2.64,0,0,1,.1-1.28A2,2,0,0,1,354,123.27Z"/><path class="cls-5" d="M370.7,113.7l-7.68.62-.47,2.08a12,12,0,0,1,4.25-.35,7,7,0,0,1,3.1,1.06,5.15,5.15,0,0,1,1.85,2.14,6.11,6.11,0,0,1,.52,2.9,5.88,5.88,0,0,1-1,3.2,7.06,7.06,0,0,1-2.44,2.16,10.37,10.37,0,0,1-3.24,1.12,11.18,11.18,0,0,1-3.46.09,9.42,9.42,0,0,1-3.11-1l.05-.25a8.14,8.14,0,0,0,1.6-.12,12.6,12.6,0,0,0,2-.5,9.55,9.55,0,0,0,2-.94,5.42,5.42,0,0,0,1.52-1.41,3.66,3.66,0,0,0,.68-2,2.61,2.61,0,0,0-.78-2.24,3.69,3.69,0,0,0-2.38-.9,7.89,7.89,0,0,0-3.42.69L360,120l2.07-9.6,7.45-.63a2,2,0,0,0,1.25-.35,2.5,2.5,0,0,0,.73-.9h.25Z"/><path class="cls-5" d="M374.45,127l0-.25H375a1.34,1.34,0,0,0,1-.4,1.3,1.3,0,0,0,.4-.95V112.72a1.69,1.69,0,0,0-.45-1.35,1.81,1.81,0,0,0-1.2-.37h-.45v-.25c.35,0,.82-.07,1.42-.14s1.23-.18,1.91-.3a18.05,18.05,0,0,0,2-.48,7.54,7.54,0,0,0,1.63-.68h.25v16.27a1.23,1.23,0,0,0,.42.94,1.34,1.34,0,0,0,1,.39h.52V127Z"/><path class="cls-5" d="M396.65,109.15l.22,1.85-8.9,8.65h10a1.69,1.69,0,0,0,1-.27,1.87,1.87,0,0,0,.58-.73h.25l-.78,3.62H383.75V122Zm.25,16.25a1.31,1.31,0,0,0,.41.95,1.38,1.38,0,0,0,1,.4h.28V127H390.1l0-.25h.25a1.37,1.37,0,0,0,1-.39,1.25,1.25,0,0,0,.41-1Zm-5.13-10.85,4.88-5.4h.25V127h-5.13Z"/><circle class="cls-5" cx="115.53" cy="188.97" r="5.35"/><circle class="cls-5" cx="199.94" cy="184.75" r="5.35"/><circle class="cls-5" cx="368.76" cy="142.19" r="5.35"/><circle class="cls-5" cx="284.35" cy="156.59" r="5.35"/><polyline class="cls-8" points="115.53 188.97 199.94 184.75 284.35 156.59 368.76 142.19"/><path class="cls-4" d="M856.69,93V86.68H836.35V93h-11v63.45h15.42V145h11.51v11.45h15.42V93Zm-21.54,44.62H830.6v-7.39h4.55Zm0-14.92H830.6v-7.39h4.55Zm0-14.93H830.6v-7.38h4.55Zm9.09,29.85H839.7v-7.39h4.54Zm0-14.92H839.7v-7.39h4.54Zm0-14.93H839.7v-7.38h4.54Zm9.1,29.85h-4.55v-7.39h4.55Zm0-14.92h-4.55v-7.39h4.55Zm0-14.93h-4.55v-7.38h4.55Zm9.1,29.85h-4.55v-7.39h4.55Zm0-14.92h-4.55v-7.39h4.55Zm0-14.93h-4.55v-7.38h4.55Z"/><path class="cls-4" d="M1049.63,126.69c-1.13-4-4.44-5.7-8.24-5.06-3.5.6-5.33,5-6.18,7.61.25-3.51-.4-8.38-4.58-10.66-6.38-3.47-10.43,2.75-10.83,3.56s-.41,1,.73.89a17.14,17.14,0,0,1,6.16-.33l1.36-1.25.63,1.77a7.08,7.08,0,0,1,4.65,6.2,10.65,10.65,0,0,0-8.3-3.92,10.46,10.46,0,0,0-10.6,10.31c0,.46,0,.13,0,.13a.54.54,0,0,0,.36.48.55.55,0,0,0,.58-.14,4.68,4.68,0,0,1,.65-.66,17.92,17.92,0,0,1,3.06-2.26l1-1.88,1.36.73a17.73,17.73,0,0,1,11-.7c-3.28-.22-8.23,1.49-10.19,5.66-2.42,5.18,0,9.29.31,9.61s.62.06.72-.4a22.51,22.51,0,0,1,1.78-5l-.41-1.67,1.14.3a18.73,18.73,0,0,1,6.46-6.94c-2.28,5-4.16,12.38-1.3,22.15h7s-7.13-6.91-3.42-21.09a23.85,23.85,0,0,1,2.68,4.4l1.09.14-.49,1.29a16.62,16.62,0,0,1,1.08,5.25c0,.49.31.84.46.53,2.28-4.87,1.56-9.85-1.64-12.76a10.28,10.28,0,0,1,5,4.15l1.54.33-.29,1.72a21.25,21.25,0,0,1,2,5.24c.1.45.34.75.63.23,1.74-3.1,2-9-1.18-12.31-2.44-2.53-6.75-2.69-9.4-2,1.74-2.93,6.4-3.15,6.4-3.15s.74-1.7.9-1.94,1.05,1.65,1.05,1.65l4.69,1.92s.6.41.72-.29A3.63,3.63,0,0,0,1049.63,126.69Z"/><path class="cls-4" d="M940.18,133.38v23.09h42.08V145h11.51v11.45h15.42V133.38Z"/><path class="cls-4" d="M915.37,125.31H897V121.1H892.2v4.21h-4.34l-8.09,13.48h5.75V156.7H917.7V138.79h5.76ZM898.13,146.2h-4.56v-4.56h4.56Zm11.64,0h-4.56v-4.56h4.56Z"/><path class="cls-4" d="M589.64,117.2h37a2,2,0,0,0,1.6-.82,2,2,0,0,0,.27-1.78l-6.42-19.24A2,2,0,0,0,620.26,94h-24.2a2,2,0,0,0-1.88,1.35l-6.41,19.24a2,2,0,0,0,.27,1.78A2,2,0,0,0,589.64,117.2Zm7.93-20.3h13.92l-17.19,9.81Z"/><path class="cls-4" d="M580.2,150.13a2,2,0,0,0-1.87-1.35H554.12a2,2,0,0,0-1.87,1.35l-6.41,19.25a2,2,0,0,0,1.87,2.59h37a2,2,0,0,0,1.87-2.59Zm-27.83,11.35,3.27-9.8h13.92Z"/><path class="cls-4" d="M623.71,150.13a2,2,0,0,0-1.87-1.35H597.63a2,2,0,0,0-1.87,1.35l-6.42,19.25a2,2,0,0,0,1.87,2.59h37a2,2,0,0,0,1.6-.81,1.93,1.93,0,0,0,.27-1.78Zm-27.83,11.35,3.26-9.8h13.92Z"/><path class="cls-4" d="M673.63,169.38l-6.41-19.25a2,2,0,0,0-1.88-1.35h-24.2a2,2,0,0,0-1.87,1.35l-6.42,19.25a2,2,0,0,0,1.87,2.59h37a2,2,0,0,0,1.87-2.59Zm-34.25-7.9,3.27-9.8h13.92Z"/><path class="cls-4" d="M556.08,179a2,2,0,0,0-1.87-1.35H530a2,2,0,0,0-1.87,1.35l-6.42,19.24a2,2,0,0,0,1.87,2.6h37a2,2,0,0,0,1.87-2.6Zm-27.84,11.35,3.27-9.81h13.92Z"/><path class="cls-4" d="M599.58,179a2,2,0,0,0-1.87-1.35H573.5a1.94,1.94,0,0,0-1.86,1.35l-6.42,19.24a2,2,0,0,0,.27,1.78,2,2,0,0,0,1.6.82h37a2,2,0,0,0,1.6-.82,2,2,0,0,0,.27-1.78Zm-27.83,11.35,3.27-9.81h13.92Z"/><path class="cls-4" d="M686.6,179a2,2,0,0,0-1.87-1.35H660.52a2,2,0,0,0-1.87,1.35l-6.42,19.24a2,2,0,0,0,1.87,2.6h37a2,2,0,0,0,1.86-2.6Zm-27.83,11.35,3.26-9.81H676Z"/><path class="cls-4" d="M649.51,198.23,643.09,179a2,2,0,0,0-1.87-1.35H617a2,2,0,0,0-1.87,1.35l-6.41,19.24a2,2,0,0,0,1.86,2.6h37a2,2,0,0,0,1.87-2.6Zm-34.26-7.89,3.27-9.81h13.93Z"/><path class="cls-4" d="M567.11,144.53h37a2,2,0,0,0,1.87-2.59l-6.41-19.25a2,2,0,0,0-1.87-1.35H573.53a2,2,0,0,0-1.87,1.35l-6.42,19.25a2,2,0,0,0,1.87,2.59Zm7.93-20.3H589L571.77,134Z"/><path class="cls-4" d="M615.14,122.69l-6.41,19.25a1.93,1.93,0,0,0,.26,1.77,2,2,0,0,0,1.6.82h37a2,2,0,0,0,1.87-2.59l-6.42-19.25a2,2,0,0,0-1.87-1.35H617A2,2,0,0,0,615.14,122.69Zm17.31,1.54L615.25,134l3.27-9.81Z"/></g></g></g></svg>