<svg xmlns="http://www.w3.org/2000/svg" viewBox="0 0 171.51 106.82"><defs><style>.cls-1{fill:#333;}</style></defs><g id="レイヤー_2" data-name="レイヤー 2"><g id="pc"><path class="cls-1" d="M68,23.19h37a2,2,0,0,0,1.87-2.6L100.52,1.35A2,2,0,0,0,98.65,0H74.45a2,2,0,0,0-1.88,1.35L66.16,20.59A2,2,0,0,0,68,23.19ZM76,2.89H89.88L72.69,12.7Z"/><path class="cls-1" d="M58.59,56.12a2,2,0,0,0-1.87-1.35H32.51a2,2,0,0,0-1.87,1.35L24.23,75.37A2,2,0,0,0,26.1,78h37A2,2,0,0,0,65,75.37ZM30.76,67.47,34,57.66H48Z"/><path class="cls-1" d="M102.1,56.12a2,2,0,0,0-1.87-1.35H76a2,2,0,0,0-1.87,1.35L67.73,75.37A2,2,0,0,0,69.6,78h37a2,2,0,0,0,1.6-.81,1.93,1.93,0,0,0,.27-1.78ZM74.27,67.47l3.26-9.81H91.45Z"/><path class="cls-1" d="M152,75.37l-6.41-19.25a2,2,0,0,0-1.88-1.35h-24.2a2,2,0,0,0-1.87,1.35l-6.42,19.25A2,2,0,0,0,113.11,78h37A2,2,0,0,0,152,75.37Zm-34.25-7.9L121,57.66H135Z"/><path class="cls-1" d="M34.47,85a2,2,0,0,0-1.87-1.35H8.39A2,2,0,0,0,6.52,85L.1,104.22A2,2,0,0,0,2,106.82H39a2,2,0,0,0,1.6-.82,1.92,1.92,0,0,0,.27-1.78ZM6.63,96.33,9.9,86.52H23.82Z"/><path class="cls-1" d="M78,85a2,2,0,0,0-1.88-1.35H51.89A2,2,0,0,0,50,85l-6.42,19.24a2,2,0,0,0,1.87,2.6h37a2,2,0,0,0,1.87-2.6ZM50.14,96.33l3.27-9.81H67.33Z"/><path class="cls-1" d="M165,85a2,2,0,0,0-1.87-1.35H138.91A2,2,0,0,0,137,85l-6.42,19.24a2,2,0,0,0,1.87,2.6h37a2,2,0,0,0,1.6-.82,2,2,0,0,0,.26-1.78ZM137.16,96.33l3.26-9.81h13.92Z"/><path class="cls-1" d="M127.9,104.22,121.48,85a2,2,0,0,0-1.87-1.35H95.4A2,2,0,0,0,93.53,85l-6.41,19.24a1.92,1.92,0,0,0,.27,1.78,2,2,0,0,0,1.59.82H126a2,2,0,0,0,1.87-2.6ZM93.64,96.33l3.27-9.81h13.93Z"/><path class="cls-1" d="M45.5,50.52h37a2,2,0,0,0,1.87-2.59L78,28.68a2,2,0,0,0-1.87-1.35H51.92a2,2,0,0,0-1.87,1.35L43.63,47.93a2,2,0,0,0,1.87,2.59Zm7.93-20.3H67.35L50.16,40Z"/><path class="cls-1" d="M93.53,28.68,87.12,47.93a1.9,1.9,0,0,0,.27,1.77,1.93,1.93,0,0,0,1.59.82H126a2,2,0,0,0,1.87-2.59l-6.42-19.25a2,2,0,0,0-1.87-1.35H95.4A2,2,0,0,0,93.53,28.68Zm17.31,1.54L93.64,40l3.27-9.81Z"/></g></g></svg>