<svg xmlns="http://www.w3.org/2000/svg" viewBox="0 0 160.93 118.38"><defs><style>.cls-1{fill:#333;}</style></defs><g id="レイヤー_2" data-name="レイヤー 2"><g id="pc"><path class="cls-1" d="M72.4,45.05a8.36,8.36,0,0,0-.88-2.11,8.45,8.45,0,0,0-2.45-2.65A13.14,13.14,0,0,0,66.83,39c-1.15-.54-2.34-1-3.44-1.35a19.75,19.75,0,0,1-2.9-1.23l-.09-.05a6.71,6.71,0,0,1-.76-.52,3.09,3.09,0,0,1-.78-.89,2.84,2.84,0,0,1-.37-1.15,4.58,4.58,0,0,1-.05-.63,13.65,13.65,0,0,1,.3-2.69,9.84,9.84,0,0,0,1.37-2,20.59,20.59,0,0,0,1.24-2.78,6,6,0,0,0,.78-.43,5.43,5.43,0,0,0,1.59-1.64A8.54,8.54,0,0,0,64.81,21a4,4,0,0,0,.1-.9,4.09,4.09,0,0,0-.4-1.75,4.51,4.51,0,0,0-.66-1,19.27,19.27,0,0,0,.44-1.88,20.33,20.33,0,0,0,.36-3.62,13.63,13.63,0,0,0-.24-2.61,9.72,9.72,0,0,0-.61-1.92A7.19,7.19,0,0,0,62,4.74a7.65,7.65,0,0,0-2.9-1.54A9.83,9.83,0,0,0,57.82,2a6.92,6.92,0,0,0-1.12-.76A6.13,6.13,0,0,0,54.91.54,9,9,0,0,0,53,.36c-.89,0-1.83.09-2.86.19-.39,0-.72.09-1,.14s-.75.15-1,.2L47.82,1l-.34,0a3.69,3.69,0,0,1-.6,0,13.12,13.12,0,0,1-2-.44L44.21.25,44,.16,43.84.1A1,1,0,0,0,43.6,0a.65.65,0,0,0-.19,0,1.56,1.56,0,0,0-.26,0L43,.09a1.51,1.51,0,0,0-.22.11c-.12.07-.23.15-.36.24s-.45.37-.7.61a11.9,11.9,0,0,0-1.15,1.26c-.18.23-.35.48-.51.73a6.51,6.51,0,0,0-.4.79,21.87,21.87,0,0,0-1.09,3.75,16.9,16.9,0,0,0-.3,3.18,20.73,20.73,0,0,0,.44,4.06V15l0,.33c0,.17,0,.35.06.49a.92.92,0,0,0,0,.19v.07h0v.1l.21.92a5,5,0,0,0-.77,1.1A3.91,3.91,0,0,0,37.9,21h0a9.91,9.91,0,0,0,.65,1.93,6,6,0,0,0,1.46,2,5.51,5.51,0,0,0,1.34.86,24.19,24.19,0,0,0,1.24,2.78,10.73,10.73,0,0,0,1.37,2,13.65,13.65,0,0,1,.3,2.69,4.46,4.46,0,0,1,0,.63,3.25,3.25,0,0,1-.21.83,2.77,2.77,0,0,1-.67,1,4.92,4.92,0,0,1-1.14.82l-.35.19q-.57.29-1.23.54c-1,.41-2.18.79-3.36,1.25a20.24,20.24,0,0,0-2.63,1.24A10.88,10.88,0,0,0,32.8,41a8.32,8.32,0,0,0-2.08,2.89,10.52,10.52,0,0,0-.79,4.22,1.58,1.58,0,0,0,.14.65,2.39,2.39,0,0,0,.3.54,4.13,4.13,0,0,0,.9.86,11.13,11.13,0,0,0,2.62,1.32A33.07,33.07,0,0,0,40.67,53a76.61,76.61,0,0,0,10.68.66,82.22,82.22,0,0,0,9.5-.5A45.24,45.24,0,0,0,66,52.28a24.62,24.62,0,0,0,2.84-.85,12.88,12.88,0,0,0,1.6-.71,6.73,6.73,0,0,0,.93-.56,4.14,4.14,0,0,0,1-.92,2.26,2.26,0,0,0,.3-.55,1.8,1.8,0,0,0,.12-.62A11.67,11.67,0,0,0,72.4,45.05ZM43.58,9.13c4.82,1.06,14.24-1,14.24-1a8.7,8.7,0,0,0,1.71,4.4,10.21,10.21,0,0,1,1.27,2.54c-.08,0-.28,0-.48-.06a.29.29,0,0,1-.28-.28c-.06-.26-.3-.34-.69-.39a18.12,18.12,0,0,0-3.12-.11c-3.73.19-3.45.52-4.92.52s-1.18-.33-4.91-.52a18.08,18.08,0,0,0-3.12.11c-.39,0-.63.13-.69.39a.29.29,0,0,1-.28.28l-.19,0A18.08,18.08,0,0,0,43.58,9.13ZM59.29,17s0,2.15-1.47,2.88a3.91,3.91,0,0,1-1.74.39,3.5,3.5,0,0,1-1.76-.43,2.35,2.35,0,0,1-1.08-1.39l-.12-.42c-.11-.41-.42-1.57.24-2.08a6.41,6.41,0,0,1,3-.53A4.76,4.76,0,0,1,59,16,1.45,1.45,0,0,1,59.29,17Zm-9.79,1c0,.14-.07.28-.12.42a2.3,2.3,0,0,1-1.07,1.39,3.53,3.53,0,0,1-1.76.43,3.91,3.91,0,0,1-1.74-.39c-1.46-.73-1.47-2.86-1.47-2.88A1.45,1.45,0,0,1,43.62,16a4.74,4.74,0,0,1,2.66-.51,6.41,6.41,0,0,1,3,.53C49.93,16.5,49.62,17.66,49.5,18.07Zm.09,27.07L43.9,37.43l.22-.16a5.13,5.13,0,0,0,.85-.83l4.59,2.09-1,1.6,1.51,1.59Zm-4-9.76a6.27,6.27,0,0,0,.42-2.2,15.43,15.43,0,0,0-.38-3.29l-.06-.24-.17-.18a8.18,8.18,0,0,1-1.26-1.79,21,21,0,0,1-1.27-2.91l-.14-.39-.39-.14a3.66,3.66,0,0,1-1.88-1.51,6.53,6.53,0,0,1-.85-2.15,2.37,2.37,0,0,1-.06-.52A2.24,2.24,0,0,1,39.85,19a3,3,0,0,1,.58-.8,14.23,14.23,0,0,0,.87,1.22c.41.39.46-.54.27-1.58A3.88,3.88,0,0,1,41.8,16v.36a.28.28,0,0,0,.27.24c.15,0,.26.08.26.19s0,2.76,2,3.8,4.89.65,5.88-1.67c.45-1.05.46-2.07,1.13-2.07s.69,1,1.13,2.07c1,2.32,3.93,2.71,5.89,1.67s2-3.62,2-3.8.11-.19.26-.19a.27.27,0,0,0,.26-.24V15.19a28.94,28.94,0,0,1,1.1,4.08s.21-.38.52-.9a3,3,0,0,1,.45.68,2.45,2.45,0,0,1,.18,1.53,8.07,8.07,0,0,1-.53,1.56,4.34,4.34,0,0,1-1,1.42,3.68,3.68,0,0,1-1.17.68l-.4.14-.14.39a20,20,0,0,1-1.26,2.91,8.28,8.28,0,0,1-1.27,1.79l-.17.18-.05.24a15.38,15.38,0,0,0-.39,3.29,5.62,5.62,0,0,0,.06.81A4.73,4.73,0,0,0,57,35.26l0,.06-5.43,2.8Zm8,10.13L53,41.72l1.51-1.59-1-1.61,4.15-2.14a3.52,3.52,0,0,0,.36.41,6.88,6.88,0,0,0,.77.66Z"/><path class="cls-1" d="M58.48,25.26a4.83,4.83,0,0,1-1.83-1.63c-.93-1.43-2.85-3.1-5.28-1.78-2.43-1.32-4.35.35-5.28,1.78a4.83,4.83,0,0,1-1.83,1.63s1.42,1.62,4.25.66a4.42,4.42,0,0,0,2.86-2.32,4.42,4.42,0,0,0,2.86,2.32C57.06,26.88,58.48,25.26,58.48,25.26Z"/><path class="cls-1" d="M127.07,43.48a8.6,8.6,0,0,0-3.94-3.57,36.48,36.48,0,0,0-3.9-1.47,21.54,21.54,0,0,0-2.45-.61,1.56,1.56,0,0,1-.51-.21h0v-.73a12,12,0,0,0,3-5.6,4.46,4.46,0,0,0,.6-.33,4.2,4.2,0,0,0,1.28-1.53,14.44,14.44,0,0,0,1-2.73,5.84,5.84,0,0,0,.25-1.59,3.73,3.73,0,0,0-.07-.68,4,4,0,0,0,.71-.75,6.43,6.43,0,0,0,1.06-3.88,14.73,14.73,0,0,0-.42-3.33,14.21,14.21,0,0,0-4.52-7.61,12.2,12.2,0,0,0-3.64-2.17,6.25,6.25,0,0,0,.11-1.06,5.64,5.64,0,0,0-11.27,0,6.25,6.25,0,0,0,.11,1.06,12.12,12.12,0,0,0-3.65,2.17,14.2,14.2,0,0,0-4.51,7.61,14.81,14.81,0,0,0-.43,3.33A6.5,6.5,0,0,0,97,23.68a3.73,3.73,0,0,0,.72.75,3.73,3.73,0,0,0-.07.68,5.84,5.84,0,0,0,.25,1.59,11,11,0,0,0,1.39,3.35,3.74,3.74,0,0,0,.91.91,3.84,3.84,0,0,0,.59.33,11.92,11.92,0,0,0,3,5.6v.72a.6.6,0,0,1-.23.14,7,7,0,0,1-1.15.29,11.59,11.59,0,0,0-1.57.39c-.65.23-1.53.48-2.47.84a10.94,10.94,0,0,0-4.27,2.64,8.42,8.42,0,0,0-2.14,6c0,.36,0,.74.05,1.14a1.48,1.48,0,0,0,.24.64,2.92,2.92,0,0,0,.83.77,11,11,0,0,0,2.44,1.14A45.23,45.23,0,0,0,110,53.67a49.13,49.13,0,0,0,12.56-1.51,19.86,19.86,0,0,0,3.69-1.34,5.17,5.17,0,0,0,1.12-.73,2.41,2.41,0,0,0,.4-.44A1.36,1.36,0,0,0,128,49c0-.4.05-.77.05-1.14A9,9,0,0,0,127.07,43.48Zm-12.36-1.9a7.81,7.81,0,0,1-9.34,0,4.24,4.24,0,0,1-1.18-2.28,2.8,2.8,0,0,0,.65-.36,1.84,1.84,0,0,0,.48-.58,1.74,1.74,0,0,0,.17-.78v-1a.81.81,0,0,0-.21-.56,10.45,10.45,0,0,1-3-5.47.82.82,0,0,0-.54-.64,2.73,2.73,0,0,1-.64-.31,2.51,2.51,0,0,1-.76-.94,12.07,12.07,0,0,1-.89-2.41c0-.17-.07-.3-.1-.45l2.28,2.8.48-5c4.68-2.76,6.93-5.57,7.89-7.13a22.42,22.42,0,0,0,7.9,7.13l.47,5,2.28-2.8a2.84,2.84,0,0,1-.1.45,9.23,9.23,0,0,1-1.15,2.84,1.87,1.87,0,0,1-.5.51,2.84,2.84,0,0,1-.63.31.84.84,0,0,0-.55.64,10.45,10.45,0,0,1-3,5.47.82.82,0,0,0-.22.56v1a1.69,1.69,0,0,0,.17.76,1.78,1.78,0,0,0,.88.84,1.19,1.19,0,0,0,.26.11A4.21,4.21,0,0,1,114.71,41.58Z"/><path class="cls-1" d="M42.33,109.63a8.37,8.37,0,0,0-.89-2.16A8.62,8.62,0,0,0,39,104.79a13,13,0,0,0-2.25-1.3c-1.16-.55-2.36-1-3.45-1.38a18.08,18.08,0,0,1-2.89-1.26,5.61,5.61,0,0,1-.76-.52,3.29,3.29,0,0,1-.78-.91,2.73,2.73,0,0,1-.36-1.17,7.78,7.78,0,0,1-.06-.94,11.61,11.61,0,0,1,.3-2.42,10.37,10.37,0,0,0,1.37-2,22.1,22.1,0,0,0,1.23-2.82,6,6,0,0,0,.78-.43A5.52,5.52,0,0,0,33.69,88a8.7,8.7,0,0,0,1.08-2.74,4,4,0,0,0,.1-.91,4.26,4.26,0,0,0-.4-1.78,4.53,4.53,0,0,0-.65-1c.13-.48.29-1.14.43-1.9a20,20,0,0,0,.36-3.68,14.09,14.09,0,0,0-.24-2.64,10.36,10.36,0,0,0-.6-1.94,7.16,7.16,0,0,0-4.72-4.13,10.86,10.86,0,0,0-1.53-1.51,8.34,8.34,0,0,0-2.75-1.46,10,10,0,0,0-2.86-.38c-.51,0-1,0-1.52.07s-.86.09-1.21.15a7.93,7.93,0,0,0-1.38.35c-.42.15-.83.31-1.35.52-.21.08-.47.2-.79.36a13.27,13.27,0,0,0-2,1.27,13,13,0,0,0-3.41,3.71A11.34,11.34,0,0,0,9,73.09a12.32,12.32,0,0,0-.48,3.44A14.31,14.31,0,0,0,8.74,79v.18l0,.33c0,.18,0,.36.06.5a1,1,0,0,0,0,.2v.08h0v.1l.21.94a5,5,0,0,0-.77,1.11,4.28,4.28,0,0,0-.45,1.89,4,4,0,0,0,.1.91,9.78,9.78,0,0,0,.65,2,6.15,6.15,0,0,0,1.45,2,5.16,5.16,0,0,0,1.35.87,20.77,20.77,0,0,0,1.23,2.82,10.1,10.1,0,0,0,1.37,2,11.62,11.62,0,0,1,.29,2.42,7.7,7.7,0,0,1,0,.94,3,3,0,0,1-.2.85,3,3,0,0,1-.68,1,5.8,5.8,0,0,1-1.13.83,13,13,0,0,1-1.58.73c-1,.42-2.17.81-3.34,1.27a18,18,0,0,0-2.62,1.26,10,10,0,0,0-1.82,1.32,8.49,8.49,0,0,0-2.08,2.93A11,11,0,0,0,0,112.71a1.8,1.8,0,0,0,.13.66,2.35,2.35,0,0,0,.3.54,4.71,4.71,0,0,0,.9.88,11,11,0,0,0,2.61,1.33,32.1,32.1,0,0,0,6.76,1.6,76.25,76.25,0,0,0,10.65.66,79.28,79.28,0,0,0,9.47-.51A42.92,42.92,0,0,0,36,117a24.78,24.78,0,0,0,2.83-.87,13.58,13.58,0,0,0,1.6-.71,8.6,8.6,0,0,0,.92-.57,4.2,4.2,0,0,0,1-.94,2.65,2.65,0,0,0,.3-.55,1.9,1.9,0,0,0,.12-.63A11.59,11.59,0,0,0,42.33,109.63Zm-22.84.8-6.28-8a6.66,6.66,0,0,0,.93-.64,5.19,5.19,0,0,0,.85-.84L19.56,103l-1,1.63,1.51,1.6ZM15.64,99.85A5,5,0,0,0,16,98.44a11.28,11.28,0,0,0,.06-1.13,13.28,13.28,0,0,0-.39-3L15.62,94l-.17-.18A8.55,8.55,0,0,1,14.19,92a20.17,20.17,0,0,1-1.26-3l-.14-.39-.39-.14a3.74,3.74,0,0,1-.8-.4A3.84,3.84,0,0,1,10.52,87a7,7,0,0,1-.85-2.18,2.35,2.35,0,0,1-.05-.52,2.46,2.46,0,0,1,.26-1.09,2.81,2.81,0,0,1,.59-.8,12.84,12.84,0,0,0,.87,1.23c.4.4.27.27.41.08,0,0,.45-.64,2.85-5.31,4.81,1.06,13.21-6.16,13.21-6.16a8.85,8.85,0,0,0,1.7,4.47c1.52,2,2.38,6.78,2.38,6.78s.21-.39.52-.91a2.83,2.83,0,0,1,.45.69A2.35,2.35,0,0,1,33,84.84a7,7,0,0,1-.53,1.59,4.24,4.24,0,0,1-1,1.43,3.75,3.75,0,0,1-1.17.7l-.39.14-.14.39a20.8,20.8,0,0,1-1.26,3,8.21,8.21,0,0,1-1.27,1.82l-.17.18,0,.24a14,14,0,0,0-.38,3,11.16,11.16,0,0,0,.05,1.13A4.88,4.88,0,0,0,27,99.73a.08.08,0,0,0,0,0l-5.41,2.85Zm8,10.87L23,106.27l1.51-1.6-1-1.64,4.14-2.17a3.62,3.62,0,0,0,.36.42,6.87,6.87,0,0,0,1.39,1.07Z"/><path class="cls-1" d="M102.36,106.65a10.44,10.44,0,0,0-5.2-3.77c-1-.36-1.87-.62-2.68-.84s-1.52-.41-2-.58a10.81,10.81,0,0,1-2.31-1.14,2.81,2.81,0,0,1-.68-.62.73.73,0,0,1-.18-.44v-3.1a12.46,12.46,0,0,0,3.21-5.91,3.73,3.73,0,0,0,.65-.35,4.46,4.46,0,0,0,1.33-1.59,15.68,15.68,0,0,0,1.06-2.85,6.09,6.09,0,0,0,.26-1.67,3,3,0,0,0-.33-1.44,2.31,2.31,0,0,0-1.1-1c1.73-9.34-3.73-16.46-11-16.1C76.77,63.75,72.52,64.12,72,70a6.56,6.56,0,0,0,.14,4.8,13.83,13.83,0,0,0-.53,3.64v2.76a2.75,2.75,0,0,0-.57.25,2.36,2.36,0,0,0-.81.87,3,3,0,0,0-.33,1.44,6.09,6.09,0,0,0,.26,1.67A11.53,11.53,0,0,0,71.59,89a4,4,0,0,0,.93.94,3.73,3.73,0,0,0,.65.35,12.46,12.46,0,0,0,3.21,5.91v3.1a.8.8,0,0,1-.19.45,4.52,4.52,0,0,1-1.24,1,10.92,10.92,0,0,1-1.73.77c-.64.23-1.68.47-2.85.8a14.49,14.49,0,0,0-5.52,2.69,8.06,8.06,0,0,0-2.1,2.76,9.57,9.57,0,0,0-.82,4c0,.36,0,.74,0,1.13a1.46,1.46,0,0,0,.25.68,3.2,3.2,0,0,0,.93.85A12.64,12.64,0,0,0,66,115.71a52.87,52.87,0,0,0,16.88,2.46,57.57,57.57,0,0,0,14.63-1.75,23,23,0,0,0,4.28-1.56A6.35,6.35,0,0,0,103,114a2.48,2.48,0,0,0,.44-.48,1.46,1.46,0,0,0,.25-.68c0-.39,0-.76,0-1.13A9,9,0,0,0,102.36,106.65Zm-26-5a4.74,4.74,0,0,0,1.09-1A2.39,2.39,0,0,0,78,99.26V95.54l-.21-.24a10.9,10.9,0,0,1-3.12-5.78l-.09-.46-.44-.16a3,3,0,0,1-.69-.34,2.55,2.55,0,0,1-.82-1A13.58,13.58,0,0,1,71.69,85a4.88,4.88,0,0,1-.2-1.22,1.36,1.36,0,0,1,.14-.67.67.67,0,0,1,.38-.33,1.08,1.08,0,0,1,.34-.07l.85.06V78.47a11.28,11.28,0,0,1,.1-1.39c1.88,2.69,5.44,5.21,11.41,6.24C84,82,82.49,75.38,82.49,75.38s4,5.83,10,6.44v1l.84,0a1.1,1.1,0,0,1,.49.14.61.61,0,0,1,.24.26,1.36,1.36,0,0,1,.14.67A4.88,4.88,0,0,1,94,85a10,10,0,0,1-1.22,3,2.17,2.17,0,0,1-.54.55,3,3,0,0,1-.69.34l-.44.16-.08.46a11,11,0,0,1-3.13,5.78l-.21.24v3.72a2.37,2.37,0,0,0,.49,1.4,5.36,5.36,0,0,0,1.69,1.39q.47.26,1,.48l-3.13,3.12a10.45,10.45,0,0,1-9.51,0L75,102.48A9.54,9.54,0,0,0,76.39,101.69Z"/><path class="cls-1" d="M71.91,89.55S72.82,100,69,103.06c0,0,11.3-1.41,7.93-7.1l-3.28-6.44-2-1.39Z"/><path class="cls-1" d="M93.77,89.55s-.92,10.4,2.92,13.51c0,0-11.3-1.41-7.93-7.1L92,89.52l2-1.39Z"/><path class="cls-1" d="M159.77,107.31a9.42,9.42,0,0,0-4.37-3.71c-1.62-.74-3.21-1.14-4.18-1.5a8.35,8.35,0,0,1-2.18-1.2,3.55,3.55,0,0,1-.67-.7.89.89,0,0,1-.19-.49V97.43a12,12,0,0,0,3.08-5.67,3.43,3.43,0,0,0,.62-.34,4.08,4.08,0,0,0,1.28-1.52,14.45,14.45,0,0,0,1-2.75,5.91,5.91,0,0,0,.25-1.6,3.52,3.52,0,0,0-.06-.66c7.14-9.2-3.57-21.26-11.5-19.85-6.21-1.59-11.81,3.88-14,8.69-1.79,3.91-1.19,9.29.7,11.12a3.14,3.14,0,0,0-.07.7,5.91,5.91,0,0,0,.25,1.6,11.4,11.4,0,0,0,1.4,3.37,3.84,3.84,0,0,0,.9.9,3.43,3.43,0,0,0,.62.34,12,12,0,0,0,3.08,5.67v2.28a1,1,0,0,1-.2.49,4.53,4.53,0,0,1-1.21,1.08,7.21,7.21,0,0,1-1.62.81c-.65.23-1.58.49-2.61.85a12.38,12.38,0,0,0-4.7,2.73A8.52,8.52,0,0,0,123,112c0,.36,0,.73.05,1.11a1.42,1.42,0,0,0,.21.61,2.89,2.89,0,0,0,.79.81,10.56,10.56,0,0,0,2.43,1.27c3.13,1.25,8.42,2.4,15.49,2.4a48.28,48.28,0,0,0,13.51-1.71,17.88,17.88,0,0,0,3.74-1.52,5.21,5.21,0,0,0,1.09-.79,2.33,2.33,0,0,0,.37-.46,1.42,1.42,0,0,0,.21-.61c0-.38.05-.75.05-1.11A9,9,0,0,0,159.77,107.31Zm-11.1-4.76.11.06-2.72,6.66-3.29-4.11,4.79-3.51A7,7,0,0,0,148.67,102.55ZM134.1,91.06l-.08-.45-.43-.15a3.13,3.13,0,0,1-.66-.32,2.54,2.54,0,0,1-.79-1,12.39,12.39,0,0,1-.9-2.44,4.35,4.35,0,0,1-.19-1.17,1.32,1.32,0,0,1,.13-.65.65.65,0,0,1,.37-.31.94.94,0,0,1,.28-.06l.36.07.93,2.79.53-2.48,2.73-3.9a18.54,18.54,0,0,1-.71,3.54c5.22-1.69,6.58-3.64,6.86-4.13l-1.72,3.42s6-1.77,7-4.25l-1.16,3.81s3.2-.89,3.73-2.31c.31-.81.35.27.33,1.34h-.06v5L152,84.53h.05a1,1,0,0,1,.46.14.54.54,0,0,1,.23.24,1.32,1.32,0,0,1,.13.65,4.35,4.35,0,0,1-.19,1.17,9.86,9.86,0,0,1-1.17,2.89,2.19,2.19,0,0,1-.52.53,3.13,3.13,0,0,1-.66.32l-.43.15-.07.45a10.55,10.55,0,0,1-3,5.55l-.2.23v2.87a2.25,2.25,0,0,0,.26,1L142,104.35,137,100.73a2.21,2.21,0,0,0,.27-1V96.84l-.2-.23A10.55,10.55,0,0,1,134.1,91.06Zm1.7,11.09a6.77,6.77,0,0,0,.56-.51l4.79,3.52-3.29,4.11-2.72-6.65C135.37,102.47,135.59,102.31,135.8,102.15Z"/></g></g></svg>