<svg xmlns="http://www.w3.org/2000/svg" viewBox="0 0 85.02 109.47"><defs><style>.cls-1{fill:#333;}</style></defs><g id="レイヤー_2" data-name="レイヤー 2"><g id="pc"><polygon class="cls-1" points="63.77 79.33 63.77 79.33 63.76 79.33 63.77 79.33"/><polygon class="cls-1" points="65.78 77.53 65.78 77.53 65.78 77.53 65.78 77.53"/><polygon class="cls-1" points="19.24 77.53 19.25 77.54 19.25 77.54 19.24 77.53 19.24 77.53"/><polygon class="cls-1" points="34.34 73.12 34.3 73.11 34.31 73.11 34.31 73.11 34.34 73.12"/><path class="cls-1" d="M83.75,38.47a27.35,27.35,0,0,0-3.14-3.75,13.59,13.59,0,0,1-1.1-1.32,2.44,2.44,0,0,1-.38-.7,2.31,2.31,0,0,1,0-.5,14.72,14.72,0,0,1,.5-3,19.66,19.66,0,0,0,.65-4.33,7.2,7.2,0,0,0-.9-3.64,6.81,6.81,0,0,0-1.46-1.74A10,10,0,0,0,75,17.86c-1.41-.56-2.76-.9-3.82-1.26a9.75,9.75,0,0,1-1.29-.52,2.35,2.35,0,0,1-.57-.37h0a3.42,3.42,0,0,1-.64-1.16c-.41-1-.78-2.51-1.35-4.11A12.62,12.62,0,0,0,66.12,8a7,7,0,0,0-2.35-2.28,7.22,7.22,0,0,0-3.64-.9,19.85,19.85,0,0,0-4.34.65,14.55,14.55,0,0,1-3,.5,2.23,2.23,0,0,1-.5-.05,3.58,3.58,0,0,1-1.09-.68C50.37,4.55,49.3,3.42,48,2.33A12,12,0,0,0,45.7.79,7.22,7.22,0,0,0,42.51,0a7.56,7.56,0,0,0-4,1.27,27.35,27.35,0,0,0-3.75,3.14,12.48,12.48,0,0,1-1.32,1.1,2.75,2.75,0,0,1-.7.38,2.23,2.23,0,0,1-.5.05,14.55,14.55,0,0,1-3-.5,19.85,19.85,0,0,0-4.34-.65,7.2,7.2,0,0,0-3.64.9l0,0,0,0a6.73,6.73,0,0,0-1.73,1.46A10,10,0,0,0,17.86,10c-.56,1.41-.9,2.76-1.26,3.82a9.75,9.75,0,0,1-.52,1.29,2.35,2.35,0,0,1-.37.57,3.72,3.72,0,0,1-1.17.64c-1,.41-2.51.77-4.1,1.35A12.42,12.42,0,0,0,8,18.9a7,7,0,0,0-2.28,2.35,7.2,7.2,0,0,0-.9,3.64,19.85,19.85,0,0,0,.65,4.34,14.55,14.55,0,0,1,.5,3,1.75,1.75,0,0,1-.05.5h0a3.45,3.45,0,0,1-.67,1.09c-.67.86-1.8,1.92-2.89,3.23a11.81,11.81,0,0,0-1.54,2.3A7.19,7.19,0,0,0,0,42.51a7.53,7.53,0,0,0,1.27,4A26.9,26.9,0,0,0,4.41,50.3a12.48,12.48,0,0,1,1.1,1.32,2.44,2.44,0,0,1,.38.7l0,.06,0-.06a1.75,1.75,0,0,1,.05.5,14.55,14.55,0,0,1-.5,3,19.85,19.85,0,0,0-.65,4.34,7.2,7.2,0,0,0,.9,3.64A6.57,6.57,0,0,0,7.15,65.5,9.84,9.84,0,0,0,10,67.16c1.42.56,2.76.9,3.82,1.26a9.22,9.22,0,0,1,1.29.52,2.14,2.14,0,0,1,.57.37,3.34,3.34,0,0,1,.58,1c.24.58.48,1.37.75,2.24h0c.23.75.48,1.56.81,2.4a10.6,10.6,0,0,0,1.4,2.58,7.07,7.07,0,0,0,1,1L10.56,99.42,23.92,99l8.34,10.45L41.73,89l9.47,20.45L59.54,99l13.37.4-9.28-20,.14-.06a6.79,6.79,0,0,0,2-1.8,11.18,11.18,0,0,0,1.48-2.8c.51-1.36.84-2.65,1.19-3.65a8.32,8.32,0,0,1,.5-1.23,2.22,2.22,0,0,1,.36-.54,3.72,3.72,0,0,1,1.17-.64c1-.41,2.51-.78,4.1-1.35a12.42,12.42,0,0,0,2.47-1.2,7,7,0,0,0,2.28-2.35,7.2,7.2,0,0,0,.9-3.64,19.85,19.85,0,0,0-.65-4.34,14.55,14.55,0,0,1-.5-3,2.23,2.23,0,0,1,0-.5,3.57,3.57,0,0,1,.68-1.1c.66-.85,1.79-1.92,2.88-3.23a12,12,0,0,0,1.54-2.29A7.22,7.22,0,0,0,85,42.51,7.56,7.56,0,0,0,83.75,38.47Zm-5.27,4.76A23.55,23.55,0,0,1,76,46.09a19.34,19.34,0,0,0-1.6,2,7.7,7.7,0,0,0-1.56,4.77,19.24,19.24,0,0,0,.66,4.36,15.42,15.42,0,0,1,.49,3,3.24,3.24,0,0,1,0,.43l0,.09-.12.12a4.35,4.35,0,0,1-1.13.6c-.89.36-2.16.69-3.52,1.15a16.44,16.44,0,0,0-2.11.86,8.21,8.21,0,0,0-2.15,1.53,8.58,8.58,0,0,0-1.82,2.78,36.5,36.5,0,0,0-1.31,3.83,8.26,8.26,0,0,1-1,2.24h0l-.12.13,0,0h0l-.1,0a3.05,3.05,0,0,1-.42,0,15.42,15.42,0,0,1-3-.49,19.33,19.33,0,0,0-4.36-.66,8.45,8.45,0,0,0-2.11.26l-.06,0-.19.06h0a10.9,10.9,0,0,0-3.89,2.4c-1,.9-1.9,1.78-2.64,2.38h0a5.19,5.19,0,0,1-1,.7.62.62,0,0,1-.76,0,5.2,5.2,0,0,1-1-.69c-.75-.61-1.65-1.52-2.7-2.44a10.53,10.53,0,0,0-4.08-2.42,8.45,8.45,0,0,0-2.11-.26,19.24,19.24,0,0,0-4.36.66,15.42,15.42,0,0,1-2.95.49,3.1,3.1,0,0,1-.43,0l-.09,0h0l-.15-.16h0a4.92,4.92,0,0,1-.56-1.09c-.21-.52-.42-1.19-.64-1.92h0c-.27-.86-.55-1.82-1-2.82a9,9,0,0,0-1.91-3,9.44,9.44,0,0,0-3.28-2c-1.61-.63-3.14-1-4.25-1.41a6.78,6.78,0,0,1-1.21-.56c-.25-.17-.29-.25-.29-.26h0l0-.1a3.05,3.05,0,0,1,0-.42,14.84,14.84,0,0,1,.5-3,19.86,19.86,0,0,0,.65-4.36,8,8,0,0,0-.26-2.11h0a9.47,9.47,0,0,0-1.82-3.37C9,46,7.87,44.94,7.13,44a6.12,6.12,0,0,1-.76-1.11.9.9,0,0,1-.14-.41,1.54,1.54,0,0,1,.31-.72A23.55,23.55,0,0,1,9,38.93a19.34,19.34,0,0,0,1.6-2,8.46,8.46,0,0,0,1.3-2.66h0a7.89,7.89,0,0,0,.26-2.1,19.76,19.76,0,0,0-.65-4.36,14.84,14.84,0,0,1-.5-2.95,3.1,3.1,0,0,1,0-.43l0-.09h0l.11-.12a4.28,4.28,0,0,1,1.13-.61c.89-.35,2.16-.69,3.52-1.14A15.84,15.84,0,0,0,18,21.63a8.58,8.58,0,0,0,2.15-1.52,9.61,9.61,0,0,0,2-3.27c.63-1.61,1-3.14,1.41-4.25a6.45,6.45,0,0,1,.56-1.21c.16-.24.24-.29.26-.3l.09,0a1.86,1.86,0,0,1,.43,0,15.63,15.63,0,0,1,2.95.5,19.82,19.82,0,0,0,4.36.66,8.45,8.45,0,0,0,2.11-.26,9.47,9.47,0,0,0,3.37-1.82C39,9,40.08,7.87,41,7.13a6.12,6.12,0,0,1,1.11-.76.9.9,0,0,1,.41-.14,1.54,1.54,0,0,1,.72.31A23.49,23.49,0,0,1,46.1,9a18.14,18.14,0,0,0,1.95,1.6,8.46,8.46,0,0,0,2.66,1.3,8.45,8.45,0,0,0,2.11.26,19.82,19.82,0,0,0,4.36-.66,14.65,14.65,0,0,1,3-.49,1.56,1.56,0,0,1,.43,0l.09,0,.12.11a4.47,4.47,0,0,1,.6,1.14c.36.89.69,2.15,1.15,3.51A16,16,0,0,0,63.38,18a8.21,8.21,0,0,0,1.53,2.15l0,.05,0-.05a9.4,9.4,0,0,0,3.27,2c1.61.63,3.14,1,4.24,1.4a6.51,6.51,0,0,1,1.22.57,1,1,0,0,1,.3.26l0,.09a3.1,3.1,0,0,1,0,.43,15.42,15.42,0,0,1-.49,2.95,19.16,19.16,0,0,0-.66,4.36,8.45,8.45,0,0,0,.26,2.11,9.47,9.47,0,0,0,1.82,3.37c1.08,1.33,2.22,2.4,3,3.31a6.5,6.5,0,0,1,.76,1.1,1,1,0,0,1,.14.42A1.7,1.7,0,0,1,78.48,43.23Z"/><path class="cls-1" d="M42.51,16.61A25.9,25.9,0,0,0,41,68.36h0c.5,0,1,0,1.5,0a25.9,25.9,0,0,0,0-51.8Zm15,40.91a21.17,21.17,0,0,1-15,6.22c-.42,0-.82,0-1.22,0h0a21.23,21.23,0,1,1,16.24-6.18Z"/></g></g></svg>