<svg xmlns="http://www.w3.org/2000/svg" viewBox="0 0 62.47 80.14"><defs><style>.cls-1{fill:#333;}</style></defs><g id="レイヤー_2" data-name="レイヤー 2"><g id="pc"><path class="cls-1" d="M60.37,63a15.47,15.47,0,0,0-7.77-5.63c-1.4-.53-2.78-.93-4-1.26s-2.27-.6-3-.87a16.31,16.31,0,0,1-3.45-1.7,4,4,0,0,1-1-.92,1.17,1.17,0,0,1-.27-.65V47.28a18.64,18.64,0,0,0,4.8-8.82,6.07,6.07,0,0,0,1-.53,6.36,6.36,0,0,0,2-2.36,22.78,22.78,0,0,0,1.59-4.27,9,9,0,0,0,.39-2.49,4.49,4.49,0,0,0-.49-2.15,3.42,3.42,0,0,0-1.64-1.52c2.58-14-5.58-24.59-16.41-24C22.15-1.11,15.81-.56,15,8.26a9.82,9.82,0,0,0,.2,7.16,21.28,21.28,0,0,0-.79,5.44V25a4.39,4.39,0,0,0-.85.38,3.56,3.56,0,0,0-1.21,1.3,4.49,4.49,0,0,0-.49,2.15,9.43,9.43,0,0,0,.39,2.49,17.34,17.34,0,0,0,2.18,5.23,5.81,5.81,0,0,0,1.4,1.4,5.66,5.66,0,0,0,1,.53,18.63,18.63,0,0,0,4.79,8.82v4.64a1.16,1.16,0,0,1-.28.65A6.35,6.35,0,0,1,19.44,54a15.5,15.5,0,0,1-2.58,1.16c-1,.34-2.52.7-4.26,1.2a21.7,21.7,0,0,0-8.24,4,12.13,12.13,0,0,0-3.14,4.12,14.24,14.24,0,0,0-1.22,6c0,.55,0,1.11.07,1.69a2.08,2.08,0,0,0,.38,1,4.74,4.74,0,0,0,1.38,1.28,19.63,19.63,0,0,0,4.2,2c5.35,1.91,14.22,3.66,25.21,3.66a85.88,85.88,0,0,0,21.84-2.61,33.43,33.43,0,0,0,6.39-2.33A9.71,9.71,0,0,0,61.38,74a3.47,3.47,0,0,0,.65-.73,2.07,2.07,0,0,0,.37-1c.05-.58.07-1.14.07-1.68A13.34,13.34,0,0,0,60.37,63ZM21.6,55.53A7,7,0,0,0,23.22,54,3.52,3.52,0,0,0,24,51.92V46.35L23.69,46A16.31,16.31,0,0,1,19,37.37l-.13-.7-.66-.23a4.49,4.49,0,0,1-1-.5A4,4,0,0,1,16,34.43a20.39,20.39,0,0,1-1.39-3.8,6.76,6.76,0,0,1-.3-1.82,2.17,2.17,0,0,1,.2-1,1.06,1.06,0,0,1,.58-.49,1.86,1.86,0,0,1,.5-.1l1.27.08V20.86A15.78,15.78,0,0,1,17,18.79c2.8,4,8.12,7.79,17,9.32-1.1-1.93-3.31-11.86-3.31-11.86s6,8.7,15,9.62v1.41l1.25-.06a1.48,1.48,0,0,1,.74.2,1,1,0,0,1,.36.38,2.17,2.17,0,0,1,.2,1,6.76,6.76,0,0,1-.3,1.82,15.18,15.18,0,0,1-1.82,4.49,3.5,3.5,0,0,1-.81.82,4.41,4.41,0,0,1-1,.5l-.67.23-.12.7A16.45,16.45,0,0,1,38.79,46l-.31.35v5.57A3.59,3.59,0,0,0,39.21,54a8.2,8.2,0,0,0,2.52,2.06,14.87,14.87,0,0,0,1.44.72L38.5,61.45a14.81,14.81,0,0,1-7.14,1.73,14.85,14.85,0,0,1-7.06-1.69l-4.79-4.78A14,14,0,0,0,21.6,55.53Z"/><path class="cls-1" d="M14.9,37.42S16.26,53,10.54,57.58c0,0,16.88-2.09,11.84-10.59l-4.89-9.63-2.93-2.08Z"/><path class="cls-1" d="M47.54,37.42S46.18,53,51.9,57.58c0,0-16.87-2.09-11.84-10.59L45,37.36l2.92-2.08Z"/></g></g></svg>