<svg xmlns="http://www.w3.org/2000/svg" viewBox="0 0 224.5 70.02"><defs><style>.cls-1{fill:#333;}</style></defs><g id="レイヤー_2" data-name="レイヤー 2"><g id="pc"><path class="cls-1" d="M31.34,6.33V0H11V6.33H0V69.78H15.42V58.34H26.93V69.78H42.35V6.33ZM9.8,51H5.26V43.57H9.8ZM9.8,36H5.26V28.65H9.8Zm0-14.92H5.26V13.73H9.8ZM18.9,51H14.35V43.57H18.9ZM18.9,36H14.35V28.65H18.9Zm0-14.92H14.35V13.73H18.9ZM28,51H23.45V43.57H28ZM28,36H23.45V28.65H28Zm0-14.92H23.45V13.73H28ZM37.09,51H32.54V43.57h4.55Zm0-14.93H32.54V28.65h4.55Zm0-14.92H32.54V13.73h4.55Z"/><path class="cls-1" d="M224.29,40c-1.13-4-4.45-5.71-8.25-5.06-3.5.6-5.32,5-6.18,7.6.26-3.5-.39-8.37-4.57-10.65-6.39-3.47-10.43,2.75-10.83,3.56s-.41,1,.72.89a17.23,17.23,0,0,1,6.17-.33l1.35-1.25.63,1.76A7.12,7.12,0,0,1,208,42.74a10.66,10.66,0,0,0-8.3-3.92,10.46,10.46,0,0,0-10.61,10.31c0,.46,0,.13,0,.13a.57.57,0,0,0,.36.48.56.56,0,0,0,.59-.14,4.94,4.94,0,0,1,.65-.67,17.87,17.87,0,0,1,3.06-2.25l1-1.88,1.36.72a17.81,17.81,0,0,1,6.59-1.26,18.08,18.08,0,0,1,4.45.56c-3.28-.21-8.22,1.5-10.18,5.67-2.43,5.18,0,9.28.31,9.61s.62,0,.71-.41a22.63,22.63,0,0,1,1.79-5L199.37,53l1.14.29A18.81,18.81,0,0,1,207,46.4c-2.28,5-4.16,12.38-1.3,22.15h7s-7.14-6.91-3.43-21.09a23.48,23.48,0,0,1,2.69,4.4l1.08.13-.48,1.3a16.5,16.5,0,0,1,1.08,5.25c0,.48.3.84.45.53,2.29-4.87,1.57-9.85-1.63-12.76a10.23,10.23,0,0,1,4.95,4.15l1.53.32-.28,1.73a22.06,22.06,0,0,1,2,5.23c.09.46.34.76.63.24,1.74-3.1,2-9-1.18-12.31-2.45-2.53-6.75-2.69-9.41-2,1.74-2.93,6.4-3.15,6.4-3.15s.74-1.7.9-1.94S219,40.24,219,40.24l4.7,1.92s.6.41.72-.29A3.75,3.75,0,0,0,224.29,40Z"/><path class="cls-1" d="M114.84,46.7V69.78h42.08V58.34h11.51V69.78h15.42V46.7Z"/><path class="cls-1" d="M90,38.63H71.65V34.42H66.86v4.21H62.51L54.43,52.11h5.75V70H92.36V52.11h5.75ZM72.79,59.52H68.22V55h4.57Zm11.64,0H79.86V55h4.57Z"/></g></g></svg>