<svg xmlns="http://www.w3.org/2000/svg" viewBox="0 0 368.7 218.83"><defs><style>.cls-1,.cls-5{fill:none;stroke-miterlimit:10;}.cls-1{stroke:#ccc;}.cls-2{fill:#333;}.cls-3{fill:#fff;}.cls-4{fill:#e8314b;}.cls-5{stroke:#e8314b;}</style></defs><g id="レイヤー_2" data-name="レイヤー 2"><g id="pc"><line class="cls-1" x1="45.73" y1="195.62" x2="364.99" y2="195.62"/><path class="cls-2" d="M37.45,194.06c0,3.22-1.16,5.25-3.11,5.25s-3.13-1.93-3.13-5.16,1.14-5.3,3.13-5.3S37.45,190.87,37.45,194.06Zm-4.61,0c0,2.92.3,4.78,1.5,4.78s1.47-1.86,1.47-4.78-.28-4.81-1.47-4.81S32.84,191.18,32.84,194.1Z"/><line class="cls-1" x1="45.73" y1="156.95" x2="364.99" y2="156.95"/><path class="cls-2" d="M15.54,155.41a2.07,2.07,0,0,1,1.86-1.14c1.78,0,2.71,1.31,2.71,3.11a3,3,0,0,1-3.06,3.27c-1.86,0-3.2-1.52-3.2-3.94a6.44,6.44,0,0,1,2.84-5.3,9.51,9.51,0,0,1,2.34-1.3c.11,0,.18,0,.38.27s.11.42,0,.42a3.62,3.62,0,0,0-2.07.7,5.42,5.42,0,0,0-1.85,3.91Zm.1.57a1.82,1.82,0,0,0-.18.87c0,2.25.61,3.36,1.59,3.36s1.4-1.23,1.4-2.81-.4-2.58-1.44-2.58A1.57,1.57,0,0,0,15.64,156Z"/><path class="cls-2" d="M23.63,154.37c0,.21-.05.43-.08.73a2.7,2.7,0,0,1,2.21-.87,2.76,2.76,0,0,1,2.83,3,3.09,3.09,0,0,1-3.21,3.38,4,4,0,0,1-2-.48c-.46-.27-.95-.73-.95-1.19,0-.3.35-.58,1-.58s.76.66.91,1a1.06,1.06,0,0,0,1,.77c1.1,0,1.54-1.26,1.54-2.93s-.78-2.52-1.65-2.52a1.87,1.87,0,0,0-1.76,1c-.09.14-.14.16-.38.06s-.2-.15-.17-.27a2.57,2.57,0,0,0,.08-.4l.34-4.47a.26.26,0,0,1,.08-.18.24.24,0,0,1,.2-.08h2.2c.57,0,1.46,0,2.38-.05.1,0,.14.05.13.11l-.47,1.26a.14.14,0,0,1-.14.1c-.56,0-.91,0-1.41,0H23.83Z"/><path class="cls-2" d="M37.45,155.39c0,3.22-1.16,5.26-3.11,5.26s-3.14-1.94-3.14-5.17,1.15-5.3,3.14-5.3S37.45,152.2,37.45,155.39Zm-4.61.05c0,2.91.3,4.77,1.5,4.77s1.47-1.86,1.47-4.77-.28-4.82-1.47-4.82S32.84,152.51,32.84,155.44Z"/><line class="cls-1" x1="45.73" y1="79.61" x2="364.99" y2="79.61"/><path class="cls-2" d="M1.13,74.44c-.14,0-.19,0-.23-.15S.85,74.09,1,74c.81-.29,2.05-.81,3-1.26.09,0,.22.07.22.17,0,1.12-.06,2-.06,3.1v4.38c0,1.39,0,1.57.16,1.87s.6.3,1.19.36c.1,0,.13.06.13.21s0,.2-.13.2c-.65,0-1.42,0-2.07,0s-1.47,0-2.13,0c-.12,0-.14,0-.14-.2s0-.2.14-.21c.58,0,1.05-.06,1.19-.36a5.71,5.71,0,0,0,.14-1.87v-5a2.41,2.41,0,0,0-.14-1.08c-.1-.15-.4-.17-.83,0Z"/><path class="cls-2" d="M9.27,84.92c-.06.06-.16.06-.25-.06s-.09-.21,0-.26c.58-.42.88-.84.88-1.25,0-.18-.21-.35-.36-.43s-.5-.17-.5-.55a1.08,1.08,0,0,1,1-1,1.09,1.09,0,0,1,.9,1.13C10.92,83.1,10.68,83.94,9.27,84.92Z"/><path class="cls-2" d="M18.34,78.08a2.07,2.07,0,0,1-1.85,1,2.74,2.74,0,0,1-2.74-3,3,3,0,0,1,3.08-3.27c2,0,3.18,1.62,3.18,4a6,6,0,0,1-2.8,5.48,6.77,6.77,0,0,1-2.27,1c-.13,0-.23-.06-.34-.27s-.1-.36.07-.38a4,4,0,0,0,1.93-.5c1.1-.66,1.66-1.89,1.81-4.08ZM15.39,76c0,1.4.46,2.57,1.44,2.57.59,0,1.05-.37,1.44-1.24a1.8,1.8,0,0,0,.13-.89c0-1.86-.52-3.18-1.57-3.18S15.39,74.5,15.39,76Z"/><path class="cls-2" d="M23.63,77c0,.21-.05.44-.08.73a2.7,2.7,0,0,1,2.21-.87,2.76,2.76,0,0,1,2.83,3,3.09,3.09,0,0,1-3.21,3.38,4,4,0,0,1-2-.48c-.46-.26-.95-.73-.95-1.19,0-.29.35-.57,1-.57s.76.66.91,1a1.06,1.06,0,0,0,1,.77c1.1,0,1.54-1.26,1.54-2.92s-.78-2.53-1.65-2.53a1.89,1.89,0,0,0-1.76,1c-.09.14-.14.17-.38.07s-.2-.16-.17-.28a2.45,2.45,0,0,0,.08-.39l.34-4.47a.27.27,0,0,1,.08-.19.24.24,0,0,1,.2-.08h2.2c.57,0,1.46,0,2.38-.05.1,0,.14.05.13.11l-.47,1.26a.14.14,0,0,1-.14.1c-.56,0-.91,0-1.41,0H23.83Z"/><path class="cls-2" d="M37.45,78.06c0,3.22-1.16,5.25-3.11,5.25s-3.14-1.93-3.14-5.17,1.15-5.3,3.14-5.3S37.45,74.86,37.45,78.06Zm-4.61,0c0,2.91.3,4.77,1.5,4.77S35.81,81,35.81,78.1s-.28-4.82-1.47-4.82S32.84,75.17,32.84,78.1Z"/><path class="cls-2" d="M6,.07s0,.06-.06.11a7.36,7.36,0,0,0-2.55,5.6,7.29,7.29,0,0,0,2.5,5.55c.08.09.11.11.11.16s0,.07-.06.07a.25.25,0,0,1-.16-.07A8.25,8.25,0,0,1,3.36,8.91a6.13,6.13,0,0,1,0-6.26A8.43,8.43,0,0,1,5.78.06C5.84,0,5.87,0,5.9,0S6,0,6,.07Z"/><path class="cls-2" d="M9.11,5.07a9.43,9.43,0,0,1-1,1.26c-.05,0-.15-.07-.12-.12A18.28,18.28,0,0,0,9.62,2.09,12.71,12.71,0,0,0,9.93.28C11.35.65,11.5.7,11.5.86s0,.17-.47.3A14,14,0,0,1,9.77,4.07c.67.09.77.13.77.26s-.08.18-.32.3v6.2c0,.35-.21.5-.65.5S9,11.21,9,10.88s.07-1.26.07-3.16ZM12,9.39c0,.78-.33,1.39-.93,1.39a.53.53,0,0,1-.56-.54c0-.29.12-.44.47-.6a1.13,1.13,0,0,0,.79-1c0-.06.12-.07.13,0A3.21,3.21,0,0,1,12,9.39ZM12.67,2c.87.26,1.28.62,1.28,1.14a.51.51,0,0,1-.45.5h2a6.68,6.68,0,0,0,.25-.84A4.32,4.32,0,0,0,15.84,2c1,.31,1.33.42,1.33.54s-.07.15-.38.21a4.84,4.84,0,0,1-1,.85h1.64c.52-.62.66-.72.74-.72s.25.1.74.51c.21.18.31.29.31.37s0,.12-.16.12H11.64a5.8,5.8,0,0,0-.86.07l-.13-.44a5.14,5.14,0,0,0,1,.09h1.62a.4.4,0,0,1-.34-.34A2.44,2.44,0,0,0,12.36,2h-.09a7.56,7.56,0,0,0-.87.07l-.13-.44a5.23,5.23,0,0,0,1,.1h1.92V1a6.4,6.4,0,0,0-.05-.73c1.41.12,1.53.24,1.53.36s-.12.19-.36.31v.8H17c.5-.62.64-.71.73-.71s.24.09.75.49c.23.19.33.29.33.37s0,.12-.16.12Zm0,5.65c0,.23-.24.34-.6.34s-.49-.14-.49-.44,0-.39,0-1.2,0-1.39-.07-2.09a9.06,9.06,0,0,1,1.26.56h3.74c.4-.44.49-.52.59-.52s.23.08.64.39c.19.14.26.23.26.32s-.07.18-.31.35v.36c0,1,0,1.62,0,1.83S17.56,8,17.1,8c-.3,0-.43-.1-.43-.37h-4Zm4-2.55h-4v1h4Zm0,1.28h-4v1h4Zm.08,3.4c0,.16,0,.22.15.26.28.07.37.16.37.39s-.18.42-.57.54a7.24,7.24,0,0,1-1.91.18c-1.54,0-2-.2-2-.84,0-.25,0-.51,0-1.56a2.4,2.4,0,0,0,0-.52c1.23.13,1.34.15,1.34.32s-.11.2-.33.26v1c0,.33.17.4,1.14.4a3.46,3.46,0,0,0,1-.08c.34-.13.45-.42.71-1.22,0-.06.12,0,.12,0Zm-1.53-.13c-.28,0-.32-.05-.49-.64a2.34,2.34,0,0,0-.5-.87c0-.05,0-.09,0-.08,1,.18,1.49.5,1.49,1A.55.55,0,0,1,15.22,9.64Zm3.28,1c-.31,0-.42-.13-.54-.72a2.38,2.38,0,0,0-.66-1.3s0-.13.06-.1c1.19.38,1.71.8,1.71,1.43A.61.61,0,0,1,18.5,10.64Z"/><path class="cls-2" d="M23.38,10.75c0,.3-.26.44-.73.44s-.52-.11-.52-.41c0-1.08.07-2.16.07-6.49,0-1.24,0-2.49-.07-3.75l1.36.66h6.77c.45-.5.54-.58.64-.58s.21.08.68.46c.21.18.28.26.28.36s-.07.18-.31.36V3.12c0,5.84,0,6.07,0,6.76s-.15.88-.56,1.07a2.67,2.67,0,0,1-.79.18c-.21,0-.25-.08-.29-.32-.06-.41-.3-.71-1.42-1-.06,0,0-.15,0-.15.63,0,1.22,0,1.6,0,.17,0,.21-.05.21-.22V5.61h-7Zm2.83-5.41V1.48H23.38V5.34Zm4.14-3.86h-3V5.34h3Z"/><path class="cls-2" d="M34.76.06a8.43,8.43,0,0,1,2.42,2.59,6.13,6.13,0,0,1,0,6.26,8.37,8.37,0,0,1-2.41,2.58c-.09.06-.12.07-.16.07s-.06,0-.06-.07,0-.07.11-.16a7.29,7.29,0,0,0,2.5-5.55A7.36,7.36,0,0,0,34.61.18s-.06-.07-.06-.11,0-.07.09-.07S34.7,0,34.76.06Z"/><line class="cls-1" x1="45.73" y1="40.94" x2="364.99" y2="40.94"/><path class="cls-2" d="M3.54,43c1.18,0,1.46-.08,1.74-.34a3.55,3.55,0,0,0,.77-1.07c.06-.1.1-.12.23-.07s.15.08.14.18c-.17.71-.52,2-.76,2.69-1,0-1.7,0-2.7,0s-1.85,0-2.78,0c-.14,0-.18,0-.18-.24a.61.61,0,0,1,.08-.39,23.86,23.86,0,0,1,2.46-3.59C3.73,38.64,4.4,37.9,4.4,36.6s-.41-2-1.21-2A1.15,1.15,0,0,0,2,35.41a3.15,3.15,0,0,0-.13,1c0,.39-.53.66-1,.66S.18,37,.18,36.56a2.92,2.92,0,0,1,3-2.38c1.89,0,2.9,1.12,2.9,2.47,0,1.8-1.29,2.47-2.7,3.79A10,10,0,0,0,1.06,43Z"/><path class="cls-2" d="M9.27,46.25c-.06.06-.16.06-.25-.06s-.09-.21,0-.26c.58-.42.88-.84.88-1.25,0-.18-.21-.35-.36-.43S9,44.08,9,43.7a1.08,1.08,0,0,1,1-1,1.09,1.09,0,0,1,.9,1.13C10.92,44.43,10.68,45.27,9.27,46.25Z"/><path class="cls-2" d="M15.54,39.4a2,2,0,0,1,1.86-1.13c1.78,0,2.71,1.3,2.71,3.11a3,3,0,0,1-3.06,3.26c-1.86,0-3.2-1.51-3.2-3.94a6.42,6.42,0,0,1,2.84-5.29A9.19,9.19,0,0,1,19,34.11c.11,0,.18,0,.38.26s.11.42,0,.42a3.62,3.62,0,0,0-2.07.7,5.4,5.4,0,0,0-1.85,3.91Zm.1.57a1.85,1.85,0,0,0-.18.87c0,2.26.61,3.37,1.59,3.37s1.4-1.24,1.4-2.82-.4-2.58-1.44-2.58C16.39,38.81,15.93,39.26,15.64,40Z"/><path class="cls-2" d="M28.74,39.39c0,3.22-1.16,5.25-3.11,5.25s-3.13-1.93-3.13-5.17,1.15-5.29,3.13-5.29S28.74,36.19,28.74,39.39Zm-4.6,0c0,2.91.29,4.78,1.49,4.78s1.48-1.87,1.48-4.78-.28-4.82-1.48-4.82S24.14,36.5,24.14,39.43Z"/><path class="cls-2" d="M37.45,39.39c0,3.22-1.16,5.25-3.11,5.25s-3.14-1.93-3.14-5.17,1.15-5.29,3.14-5.29S37.45,36.19,37.45,39.39Zm-4.61,0c0,2.91.3,4.78,1.5,4.78s1.47-1.87,1.47-4.78-.28-4.82-1.47-4.82S32.84,36.5,32.84,39.43Z"/><line class="cls-1" x1="45.73" y1="118.28" x2="364.99" y2="118.28"/><path class="cls-2" d="M1.13,113.11c-.14,0-.19,0-.23-.15s-.05-.2.12-.26c.81-.29,2.05-.81,3-1.26.09,0,.22.07.22.17,0,1.12-.06,2-.06,3.1v4.38c0,1.39,0,1.57.16,1.86s.6.31,1.19.37c.1,0,.13.05.13.21s0,.2-.13.2c-.65,0-1.42,0-2.07,0s-1.47,0-2.13,0c-.12,0-.14,0-.14-.2s0-.2.14-.21c.58,0,1.05-.06,1.19-.37a5.6,5.6,0,0,0,.14-1.86v-5A2.41,2.41,0,0,0,2.51,113c-.1-.16-.4-.17-.83,0Z"/><path class="cls-2" d="M9.27,123.59c-.06,0-.16,0-.25-.06s-.09-.21,0-.26c.58-.42.88-.84.88-1.25,0-.18-.21-.35-.36-.44S9,121.42,9,121a1.07,1.07,0,0,1,1-1,1.09,1.09,0,0,1,.9,1.13C10.92,121.77,10.68,122.61,9.27,123.59Z"/><path class="cls-2" d="M17.36,116.33c1.65.34,2.58,1.23,2.58,2.61a2.92,2.92,0,0,1-3.21,3,3.66,3.66,0,0,1-2.06-.55c-.45-.28-.91-.73-.91-1.18s.37-.6,1-.6.73.67.9,1.07a1.06,1.06,0,0,0,1.06.82c1,0,1.53-1,1.53-2.64,0-1-.44-2.39-1.84-2.29l-.63,0c-.12,0-.19,0-.14-.28s.11-.32.27-.32.36,0,.53,0c.77,0,1.56-.61,1.56-2.18,0-1.07-.41-2-1.18-2a1.09,1.09,0,0,0-1,.63,1.71,1.71,0,0,0-.11.7c0,.46-.45.73-1.05.73-.44,0-.65-.14-.65-.45,0-.8,1.09-2,2.86-2,1.6,0,2.77.89,2.77,2.41s-1.05,2.06-2.24,2.34Z"/><path class="cls-2" d="M28.74,116.72c0,3.23-1.16,5.26-3.11,5.26S22.5,120,22.5,116.81s1.15-5.3,3.13-5.3S28.74,113.53,28.74,116.72Zm-4.6,0c0,2.91.29,4.77,1.49,4.77s1.48-1.86,1.48-4.77S26.83,112,25.63,112,24.14,113.84,24.14,116.77Z"/><path class="cls-2" d="M37.45,116.72c0,3.23-1.16,5.26-3.11,5.26S31.2,120,31.2,116.81s1.15-5.3,3.14-5.3S37.45,113.53,37.45,116.72Zm-4.61,0c0,2.91.3,4.77,1.5,4.77s1.47-1.86,1.47-4.77S35.53,112,34.34,112,32.84,113.84,32.84,116.77Z"/><path class="cls-2" d="M134.78,216c1.17,0,1.45-.09,1.73-.34a3.6,3.6,0,0,0,.77-1.08c.06-.1.1-.11.23-.07s.15.09.14.18c-.17.72-.52,2-.76,2.69-.95,0-1.69,0-2.7,0s-1.85,0-2.78,0c-.14,0-.18,0-.18-.23a.64.64,0,0,1,.09-.4,23.45,23.45,0,0,1,2.45-3.58c1.19-1.53,1.86-2.27,1.86-3.57s-.41-2-1.2-2a1.16,1.16,0,0,0-1.17.81,3.27,3.27,0,0,0-.12,1c0,.39-.54.66-1,.66s-.68-.12-.68-.54a2.93,2.93,0,0,1,3-2.38c1.89,0,2.9,1.12,2.9,2.48,0,1.79-1.29,2.47-2.71,3.78A10.06,10.06,0,0,0,132.3,216Z"/><path class="cls-2" d="M146.26,212.38c0,3.22-1.17,5.26-3.11,5.26S140,215.7,140,212.47s1.15-5.3,3.14-5.3S146.26,209.19,146.26,212.38Zm-4.61,0c0,2.92.29,4.78,1.5,4.78s1.47-1.86,1.47-4.78-.28-4.81-1.47-4.81S141.65,209.5,141.65,212.42Z"/><path class="cls-2" d="M149.78,208.77c-.14,0-.19,0-.24-.16s0-.19.13-.25c.81-.29,2-.81,3-1.26.1,0,.23.07.23.17,0,1.12-.06,2-.06,3.1v4.38c0,1.39,0,1.57.16,1.86s.6.31,1.19.37c.09,0,.12.05.12.21s0,.19-.12.19c-.65,0-1.42,0-2.08,0s-1.47,0-2.13,0c-.11,0-.14,0-.14-.19s.05-.2.14-.21c.59,0,1-.06,1.19-.37a5.34,5.34,0,0,0,.14-1.86v-5a2.27,2.27,0,0,0-.14-1.08c-.09-.16-.39-.17-.82,0Z"/><path class="cls-2" d="M163.66,214.76a3.14,3.14,0,0,1-6.24.12c0-1.18.85-1.94,2.18-2.58a2.77,2.77,0,0,1-1.89-2.72,2.67,2.67,0,0,1,2.85-2.41c1.64,0,2.8,1,2.8,2.24,0,1.07-.58,1.63-1.83,2.23A3.12,3.12,0,0,1,163.66,214.76Zm-4.75.13c0,1.4.66,2.31,1.67,2.31s1.71-.88,1.71-2.24c0-1-.58-1.61-2.29-2.44A2.39,2.39,0,0,0,158.91,214.89Zm3.08-5.46c0-1.11-.61-1.82-1.43-1.82a1.55,1.55,0,0,0-1.51,1.75c0,.77.32,1.26,2.07,2.06A2.12,2.12,0,0,0,162,209.43Z"/><path class="cls-2" d="M176.27,214.44c.77-.92.94-1,1-1s.28.11,1,.71c.34.28.45.41.45.5s0,.14-.18.14h-4.88c0,1.5.05,2.86.05,3.46,0,.42-.28.61-.84.61-.41,0-.62-.13-.62-.49s.06-1.45.06-3.58h-4.93a7.18,7.18,0,0,0-1,.09l-.16-.52a6.49,6.49,0,0,0,1.15.11h1.24v-1.92q0-1.05-.06-2.1a9.66,9.66,0,0,1,1.47.67h2.33v-2.57h-2.6a9.31,9.31,0,0,1-3.15,3.06c-.05,0-.19-.07-.14-.12a12.31,12.31,0,0,0,2.43-4,7.67,7.67,0,0,0,.44-1.61c1.49.44,1.87.6,1.87.84s-.17.25-.61.31c-.21.43-.42.83-.64,1.2h5.94c.73-.85.9-1,1-1s.28.11,1,.67c.32.27.43.38.43.48s0,.14-.18.14h-4.44v2.57h1.65c.72-.81.83-.89.94-.89s.27.08.95.61c.33.26.41.35.41.47s-.06.14-.21.14h-3.74v.5c0,.81,0,1.68,0,2.52Zm-3.9-3h-2.43v3h2.43Z"/><path class="cls-2" d="M186.11,209.88v-.31a8.43,8.43,0,0,0-.05-1.18c1.48.14,1.64.18,1.64.35s-.09.18-.34.32v.82h2.45v-.47c0-.43,0-.6,0-1,1.27.13,1.62.21,1.62.41s-.07.18-.35.33v.78H192c.57-.72.74-.83.84-.83s.28.11.88.57c.27.23.38.34.38.44s0,.14-.18.14H191c0,1.13.05,1.92.05,2.2s-.23.52-.75.52-.53-.13-.53-.55v-.07h-2.45v.14c0,.38-.21.55-.74.55s-.54-.16-.54-.51,0-.95,0-2.28h-2a21.53,21.53,0,0,1-.48,4.47,10.6,10.6,0,0,1-2,4c0,.06-.18,0-.15-.1a18.28,18.28,0,0,0,1-4.63c.11-1.17.17-2.47.17-4,0-1.11-.05-2-.13-3a12,12,0,0,1,1.6.74h3.47v-.86a6,6,0,0,0-.08-.83c1.69.17,1.86.32,1.86.48s-.17.28-.48.39v.82h3.06c.64-.75.81-.86.91-.86s.29.11,1,.6c.31.24.42.35.42.45s0,.14-.18.14h-10v1.17c0,.26,0,.51,0,.75Zm4.35,3.83c.57-.57.68-.65.79-.65s.26.08.83.61c.27.24.35.35.35.46s-.2.3-.71.42a11.27,11.27,0,0,1-1.88,1.95,17.42,17.42,0,0,0,4.69.93c.07,0,0,.14,0,.15-.5.15-.68.36-.89,1-.06.17-.13.23-.27.23a4.8,4.8,0,0,1-.87-.17,12.29,12.29,0,0,1-3.39-1.36l-.21-.14a13.93,13.93,0,0,1-5.75,1.65c-.08,0-.13-.21-.06-.22a15.1,15.1,0,0,0,4.93-2.12,8.1,8.1,0,0,1-1.75-2.43h-.84a3,3,0,0,0-.83.11l-.15-.55a4.07,4.07,0,0,0,1,.11Zm-3.88.33a7.15,7.15,0,0,0,2.08,1.91,10.61,10.61,0,0,0,1.8-1.91Zm3.23-2.06V210.2h-2.45V212Z"/><path class="cls-2" d="M49.3,216c1.17,0,1.45-.09,1.73-.34a3.6,3.6,0,0,0,.77-1.08c.06-.1.1-.11.23-.07s.15.09.14.18c-.17.72-.52,2-.76,2.69-.95,0-1.69,0-2.7,0s-1.85,0-2.78,0c-.14,0-.18,0-.18-.23a.64.64,0,0,1,.09-.4,23.45,23.45,0,0,1,2.45-3.58c1.19-1.53,1.86-2.27,1.86-3.57s-.41-2-1.21-2a1.16,1.16,0,0,0-1.16.81,3.27,3.27,0,0,0-.12,1c0,.39-.54.66-1,.66s-.68-.12-.68-.54a2.93,2.93,0,0,1,3-2.38c1.9,0,2.9,1.12,2.9,2.48,0,1.79-1.28,2.47-2.7,3.78A10.06,10.06,0,0,0,46.82,216Z"/><path class="cls-2" d="M60.78,212.38c0,3.22-1.17,5.26-3.11,5.26s-3.14-1.94-3.14-5.17,1.15-5.3,3.14-5.3S60.78,209.19,60.78,212.38Zm-4.61,0c0,2.92.29,4.78,1.5,4.78s1.47-1.86,1.47-4.78-.28-4.81-1.47-4.81S56.17,209.5,56.17,212.42Z"/><path class="cls-2" d="M64.3,208.77c-.14,0-.2,0-.24-.16s0-.19.13-.25c.81-.29,2-.81,3-1.26.1,0,.23.07.23.17,0,1.12-.06,2-.06,3.1v4.38c0,1.39,0,1.57.15,1.86s.61.31,1.2.37c.09,0,.12.05.12.21s0,.19-.12.19c-.65,0-1.42,0-2.08,0s-1.47,0-2.13,0c-.11,0-.14,0-.14-.19s0-.2.14-.21c.59,0,1-.06,1.19-.37a5.34,5.34,0,0,0,.14-1.86v-5a2.27,2.27,0,0,0-.14-1.08c-.09-.16-.39-.17-.82,0Z"/><path class="cls-2" d="M74.12,208.75c-.77,0-1,.12-1.15.31a2.74,2.74,0,0,0-.49.93c0,.1-.07.14-.26.1s-.16-.06-.15-.16c.11-.71.28-1.83.36-2.58.93.05,1.85.05,2.82.05s1.83,0,2.73-.05c.09,0,.11,0,.11.3a.7.7,0,0,1,0,.36,21.13,21.13,0,0,0-2.45,6.08,8.69,8.69,0,0,0-.21,1.85c0,.39,0,.6,0,.94s-.53.76-1.06.76-.88-.17-.88-.62a8.81,8.81,0,0,1,1-3.56,37.46,37.46,0,0,1,2.69-4.71Z"/><path class="cls-2" d="M90.79,214.44c.77-.92.94-1,1-1s.28.11,1,.71c.34.28.45.41.45.5s0,.14-.18.14H88.24c0,1.5.05,2.86.05,3.46,0,.42-.28.61-.84.61-.41,0-.62-.13-.62-.49s.06-1.45.06-3.58H82a7.17,7.17,0,0,0-1,.09l-.16-.52a6.49,6.49,0,0,0,1.15.11h1.24v-1.92q0-1.05-.06-2.1a9.66,9.66,0,0,1,1.47.67h2.33v-2.57h-2.6a9.4,9.4,0,0,1-3.15,3.06s-.19-.07-.14-.12a12.31,12.31,0,0,0,2.43-4,7.67,7.67,0,0,0,.44-1.61c1.49.44,1.87.6,1.87.84s-.17.25-.61.31c-.21.43-.42.83-.64,1.2h5.94c.73-.85.9-1,1-1s.28.11,1,.67c.32.27.43.38.43.48s0,.14-.18.14H88.23v2.57h1.65c.72-.81.83-.89.94-.89s.27.08,1,.61c.33.26.41.35.41.47s-.06.14-.21.14H88.23v.5c0,.81,0,1.68,0,2.52Zm-3.9-3H84.46v3h2.43Z"/><path class="cls-2" d="M100.63,209.88v-.31a8.43,8.43,0,0,0,0-1.18c1.48.14,1.64.18,1.64.35s-.09.18-.34.32v.82h2.45v-.47c0-.43,0-.6,0-1,1.27.13,1.62.21,1.62.41s-.07.18-.35.33v.78h.93c.57-.72.74-.83.84-.83s.28.11.88.57c.27.23.38.34.38.44s0,.14-.18.14h-2.85c0,1.13,0,1.92,0,2.2s-.22.52-.74.52-.53-.13-.53-.55v-.07h-2.45v.14c0,.38-.21.55-.74.55s-.54-.16-.54-.51,0-.95,0-2.28h-2a21.53,21.53,0,0,1-.48,4.47,10.6,10.6,0,0,1-2,4c0,.06-.18,0-.15-.1a18.28,18.28,0,0,0,1.05-4.63c.11-1.17.16-2.47.16-4,0-1.11,0-2-.12-3a12,12,0,0,1,1.6.74h3.47v-.86a6,6,0,0,0-.08-.83c1.69.17,1.86.32,1.86.48s-.17.28-.48.39v.82h3.06c.64-.75.81-.86.91-.86s.29.11,1,.6c.31.24.42.35.42.45s0,.14-.18.14h-10v1.17c0,.26,0,.51,0,.75Zm4.34,3.83c.58-.57.69-.65.8-.65s.26.08.83.61c.27.24.35.35.35.46s-.2.3-.71.42a11.27,11.27,0,0,1-1.88,1.95,17.42,17.42,0,0,0,4.69.93c.07,0,0,.14,0,.15-.5.15-.68.36-.89,1-.06.17-.13.23-.27.23a4.8,4.8,0,0,1-.87-.17,12.16,12.16,0,0,1-3.39-1.36l-.21-.14a13.94,13.94,0,0,1-5.76,1.65c-.07,0-.12-.21,0-.22a15.19,15.19,0,0,0,4.93-2.12,8.1,8.1,0,0,1-1.75-2.43h-.84a3,3,0,0,0-.83.11l-.15-.55a4.07,4.07,0,0,0,1,.11Zm-3.88.33a7.19,7.19,0,0,0,2.09,1.91A10.22,10.22,0,0,0,105,214Zm3.24-2.06V210.2h-2.45V212Z"/><path class="cls-2" d="M220.26,216c1.17,0,1.45-.09,1.73-.34a3.28,3.28,0,0,0,.77-1.08c.06-.1.1-.11.23-.07s.15.09.14.18c-.17.72-.52,2-.76,2.69-1,0-1.69,0-2.7,0s-1.85,0-2.78,0c-.14,0-.18,0-.18-.23a.64.64,0,0,1,.09-.4,23.45,23.45,0,0,1,2.45-3.58c1.19-1.53,1.86-2.27,1.86-3.57s-.41-2-1.2-2a1.16,1.16,0,0,0-1.17.81,3.27,3.27,0,0,0-.12,1c0,.39-.54.66-1.05.66s-.68-.12-.68-.54a2.93,2.93,0,0,1,3-2.38c1.89,0,2.9,1.12,2.9,2.48,0,1.79-1.29,2.47-2.71,3.78a10.06,10.06,0,0,0-2.32,2.57Z"/><path class="cls-2" d="M231.74,212.38c0,3.22-1.17,5.26-3.11,5.26s-3.14-1.94-3.14-5.17,1.15-5.3,3.14-5.3S231.74,209.19,231.74,212.38Zm-4.61,0c0,2.92.29,4.78,1.5,4.78s1.47-1.86,1.47-4.78-.28-4.81-1.47-4.81S227.13,209.5,227.13,212.42Z"/><path class="cls-2" d="M235.26,208.77c-.14,0-.19,0-.24-.16s0-.19.13-.25c.81-.29,2-.81,3-1.26.1,0,.23.07.23.17,0,1.12-.06,2-.06,3.1v4.38c0,1.39,0,1.57.16,1.86s.6.31,1.19.37c.09,0,.12.05.12.21s0,.19-.12.19c-.65,0-1.42,0-2.08,0s-1.47,0-2.13,0c-.11,0-.14,0-.14-.19s0-.2.14-.21c.59,0,1.05-.06,1.19-.37a5.34,5.34,0,0,0,.14-1.86v-5a2.27,2.27,0,0,0-.14-1.08c-.09-.16-.39-.17-.82,0Z"/><path class="cls-2" d="M247.46,212.41a2.09,2.09,0,0,1-1.85,1,2.74,2.74,0,0,1-2.75-3,3.05,3.05,0,0,1,3.08-3.27c2,0,3.18,1.61,3.18,4a6,6,0,0,1-2.8,5.48,7,7,0,0,1-2.27,1c-.12,0-.22-.06-.33-.27s-.1-.36.07-.38a4,4,0,0,0,1.93-.5c1.09-.66,1.65-1.89,1.81-4.08Zm-3-2.06c0,1.4.46,2.57,1.44,2.57.59,0,1.06-.37,1.45-1.24a1.94,1.94,0,0,0,.12-.89c0-1.87-.51-3.18-1.57-3.18S244.5,208.83,244.5,210.35Z"/><path class="cls-2" d="M261.75,214.44c.77-.92.94-1,1-1s.28.11,1,.71c.34.28.45.41.45.5s0,.14-.18.14h-4.87c0,1.5,0,2.86,0,3.46,0,.42-.28.61-.84.61s-.62-.13-.62-.49.06-1.45.06-3.58h-4.93a7.18,7.18,0,0,0-1,.09l-.15-.52a6.31,6.31,0,0,0,1.14.11h1.24v-1.92q0-1.05-.06-2.1a9.66,9.66,0,0,1,1.47.67h2.33v-2.57h-2.6a9.31,9.31,0,0,1-3.15,3.06s-.19-.07-.14-.12a12.31,12.31,0,0,0,2.43-4,7.67,7.67,0,0,0,.44-1.61c1.49.44,1.87.6,1.87.84s-.17.25-.6.31a13.45,13.45,0,0,1-.65,1.2h5.94c.73-.85.9-1,1-1s.29.11,1,.67c.32.27.43.38.43.48s0,.14-.18.14h-4.44v2.57h1.65c.72-.81.83-.89.94-.89s.27.08,1,.61c.33.26.41.35.41.47s-.06.14-.21.14h-3.74v.5c0,.81,0,1.68,0,2.52Zm-3.9-3h-2.43v3h2.43Z"/><path class="cls-2" d="M271.59,209.88v-.31a8.43,8.43,0,0,0,0-1.18c1.48.14,1.64.18,1.64.35s-.09.18-.34.32v.82h2.45v-.47c0-.43,0-.6,0-1,1.27.13,1.62.21,1.62.41s-.07.18-.35.33v.78h.93c.57-.72.74-.83.84-.83s.28.11.88.57c.27.23.38.34.38.44s0,.14-.18.14h-2.85c0,1.13.05,1.92.05,2.2s-.23.52-.75.52-.53-.13-.53-.55v-.07h-2.45v.14c0,.38-.21.55-.74.55s-.53-.16-.53-.51,0-.95,0-2.28h-2a21.53,21.53,0,0,1-.48,4.47,10.6,10.6,0,0,1-2,4c0,.06-.18,0-.15-.1a17.86,17.86,0,0,0,1.05-4.63c.11-1.17.17-2.47.17-4,0-1.11-.05-2-.13-3a12,12,0,0,1,1.6.74h3.47v-.86a6,6,0,0,0-.08-.83c1.69.17,1.86.32,1.86.48s-.17.28-.48.39v.82h3.06c.64-.75.81-.86.91-.86s.29.11,1,.6c.31.24.42.35.42.45s0,.14-.18.14h-10v1.17c0,.26,0,.51,0,.75Zm4.35,3.83c.57-.57.68-.65.79-.65s.26.08.83.61c.27.24.35.35.35.46s-.2.3-.71.42a10.91,10.91,0,0,1-1.88,1.95,17.42,17.42,0,0,0,4.69.93c.07,0,0,.14,0,.15-.5.15-.68.36-.89,1-.06.17-.13.23-.27.23a4.8,4.8,0,0,1-.87-.17,12.29,12.29,0,0,1-3.39-1.36l-.21-.14a13.93,13.93,0,0,1-5.75,1.65c-.07,0-.13-.21-.06-.22a15.1,15.1,0,0,0,4.93-2.12,8.1,8.1,0,0,1-1.75-2.43h-.84a3,3,0,0,0-.83.11l-.15-.55a4.07,4.07,0,0,0,1,.11Zm-3.88.33a7.15,7.15,0,0,0,2.08,1.91,10.61,10.61,0,0,0,1.8-1.91Zm3.23-2.06V210.2h-2.45V212Z"/><path class="cls-2" d="M305.74,216c1.17,0,1.45-.09,1.73-.34a3.28,3.28,0,0,0,.77-1.08c.06-.1.1-.11.23-.07s.15.09.14.18c-.17.72-.52,2-.76,2.69-1,0-1.69,0-2.7,0s-1.85,0-2.77,0c-.15,0-.19,0-.19-.23a.64.64,0,0,1,.09-.4,24.2,24.2,0,0,1,2.45-3.58c1.19-1.53,1.86-2.27,1.86-3.57s-.4-2-1.2-2a1.16,1.16,0,0,0-1.17.81,3.27,3.27,0,0,0-.12,1c0,.39-.53.66-1.05.66s-.67-.12-.67-.54a2.92,2.92,0,0,1,3-2.38c1.89,0,2.9,1.12,2.9,2.48,0,1.79-1.29,2.47-2.71,3.78a10.06,10.06,0,0,0-2.32,2.57Z"/><path class="cls-2" d="M317.22,212.38c0,3.22-1.16,5.26-3.11,5.26S311,215.7,311,212.47s1.15-5.3,3.14-5.3S317.22,209.19,317.22,212.38Zm-4.61,0c0,2.92.29,4.78,1.5,4.78s1.47-1.86,1.47-4.78-.28-4.81-1.47-4.81S312.61,209.5,312.61,212.42Z"/><path class="cls-2" d="M323.15,216c1.18,0,1.46-.09,1.74-.34a3.6,3.6,0,0,0,.77-1.08c0-.1.1-.11.22-.07s.16.09.14.18c-.17.72-.52,2-.75,2.69-1,0-1.7,0-2.71,0s-1.85,0-2.77,0c-.14,0-.18,0-.18-.23a.65.65,0,0,1,.08-.4,25,25,0,0,1,2.45-3.58c1.19-1.53,1.87-2.27,1.87-3.57s-.41-2-1.21-2a1.16,1.16,0,0,0-1.16.81,3,3,0,0,0-.13,1c0,.39-.53.66-1.05.66s-.67-.12-.67-.54a2.92,2.92,0,0,1,3-2.38c1.89,0,2.9,1.12,2.9,2.48,0,1.79-1.29,2.47-2.7,3.78a10,10,0,0,0-2.33,2.57Z"/><path class="cls-2" d="M334.63,212.38c0,3.22-1.16,5.26-3.11,5.26s-3.13-1.94-3.13-5.17,1.14-5.3,3.13-5.3S334.63,209.19,334.63,212.38Zm-4.61,0c0,2.92.3,4.78,1.5,4.78s1.47-1.86,1.47-4.78-.28-4.81-1.47-4.81S330,209.5,330,212.42Z"/><path class="cls-2" d="M347.23,214.44c.78-.92.94-1,1-1s.28.11,1,.71c.34.28.45.41.45.5s0,.14-.18.14h-4.87c0,1.5,0,2.86,0,3.46,0,.42-.28.61-.84.61-.41,0-.62-.13-.62-.49s.06-1.45.06-3.58H338.4a7.18,7.18,0,0,0-1,.09l-.15-.52a6.31,6.31,0,0,0,1.14.11h1.24v-1.92q0-1.05-.06-2.1a9.66,9.66,0,0,1,1.47.67h2.33v-2.57h-2.59a9.34,9.34,0,0,1-3.16,3.06c-.05,0-.19-.07-.14-.12a12.31,12.31,0,0,0,2.43-4,7.11,7.11,0,0,0,.44-1.61c1.49.44,1.87.6,1.87.84s-.17.25-.6.31a13.45,13.45,0,0,1-.65,1.2h5.94c.73-.85.9-1,1-1s.28.11,1,.67c.32.27.43.38.43.48s0,.14-.18.14h-4.44v2.57h1.65c.72-.81.83-.89.94-.89s.27.08,1,.61c.32.26.4.35.4.47s-.05.14-.21.14h-3.74v.5c0,.81,0,1.68,0,2.52Zm-3.9-3H340.9v3h2.43Z"/><path class="cls-2" d="M357.07,209.88v-.31a8.43,8.43,0,0,0-.05-1.18c1.48.14,1.64.18,1.64.35s-.09.18-.34.32v.82h2.45v-.47c0-.43,0-.6,0-1,1.27.13,1.62.21,1.62.41s-.07.18-.35.33v.78h.93c.57-.72.74-.83.84-.83s.28.11.88.57c.27.23.38.34.38.44s0,.14-.18.14H362c0,1.13.05,1.92.05,2.2s-.23.52-.75.52-.53-.13-.53-.55v-.07h-2.45v.14c0,.38-.21.55-.74.55s-.53-.16-.53-.51,0-.95,0-2.28h-2a21.53,21.53,0,0,1-.48,4.47,10.6,10.6,0,0,1-2,4c0,.06-.18,0-.15-.1a17.86,17.86,0,0,0,1.05-4.63c.11-1.17.17-2.47.17-4,0-1.11-.05-2-.13-3a12,12,0,0,1,1.6.74h3.47v-.86a6,6,0,0,0-.08-.83c1.69.17,1.86.32,1.86.48s-.17.28-.48.39v.82H363c.64-.75.81-.86.91-.86s.29.11.95.6c.31.24.42.35.42.45s0,.14-.18.14h-10v1.17c0,.26,0,.51,0,.75Zm4.35,3.83c.57-.57.68-.65.79-.65s.26.08.83.61c.27.24.35.35.35.46s-.2.3-.71.42a10.91,10.91,0,0,1-1.88,1.95,17.42,17.42,0,0,0,4.69.93c.07,0,0,.14,0,.15-.5.15-.68.36-.89,1-.06.17-.13.23-.27.23a5,5,0,0,1-.87-.17A12.29,12.29,0,0,1,360,217.3l-.21-.14a13.93,13.93,0,0,1-5.75,1.65c-.07,0-.13-.21-.06-.22a15.1,15.1,0,0,0,4.93-2.12A8.1,8.1,0,0,1,357.2,214h-.84a3,3,0,0,0-.83.11l-.15-.55a4.07,4.07,0,0,0,1,.11Zm-3.88.33a7.15,7.15,0,0,0,2.08,1.91,10.61,10.61,0,0,0,1.8-1.91Zm3.23-2.06V210.2h-2.45V212Z"/><rect class="cls-3" x="51.48" y="70.04" width="57.5" height="23.42"/><rect class="cls-3" x="131.44" y="64.61" width="67.62" height="25.23"/><rect class="cls-3" x="215.35" y="31.13" width="72.74" height="33.59"/><path class="cls-4" d="M56.82,89.05l0-.2h.42a1.08,1.08,0,0,0,.78-.32,1.07,1.07,0,0,0,.32-.76V77.63A1.35,1.35,0,0,0,58,76.55a1.45,1.45,0,0,0-1-.3h-.36v-.2c.28,0,.65,0,1.13-.11s1-.14,1.53-.24a15.39,15.39,0,0,0,1.59-.38,6.45,6.45,0,0,0,1.31-.55h.2v13a1,1,0,0,0,.33.75,1.12,1.12,0,0,0,.77.31H64v.2Z"/><path class="cls-4" d="M65.92,86.07a1.58,1.58,0,0,1,1-.33A2.09,2.09,0,0,1,68,86a1.69,1.69,0,0,1,.75.85A3.19,3.19,0,0,1,69,88.68a3.7,3.7,0,0,1-.63,1.64,3.5,3.5,0,0,1-1.28,1.11,2.56,2.56,0,0,1-1.67.2l-.08-.26a1.77,1.77,0,0,0,.64-.53,1.42,1.42,0,0,0,.27-.89,1.81,1.81,0,0,0-.55-1.12,2,2,0,0,1-.45-1,2.1,2.1,0,0,1,.08-1A1.51,1.51,0,0,1,65.92,86.07Z"/><path class="cls-4" d="M80.94,74.37l.08.14A12.65,12.65,0,0,0,77.67,76a5.19,5.19,0,0,0-1.77,1.86,6.09,6.09,0,0,0-.7,2.35,26.43,26.43,0,0,0-.14,3c0,1.1,0,2,.08,2.77a3.83,3.83,0,0,0,.4,1.66,1.12,1.12,0,0,0,1,.55,1.36,1.36,0,0,0,1.12-.49,3,3,0,0,0,.52-1.28,11.2,11.2,0,0,0,0-3.47,2.67,2.67,0,0,0-.35-1,1.17,1.17,0,0,0-.52-.43,1.24,1.24,0,0,0-.84-.06,2.56,2.56,0,0,0-.66.28l-.16-.16a2.22,2.22,0,0,1,.89-1A3.51,3.51,0,0,1,78,80.05a4,4,0,0,1,1.58.07,3.67,3.67,0,0,1,2.54,2.14,5.6,5.6,0,0,1-.31,4.65,4.56,4.56,0,0,1-1.9,1.75,7.56,7.56,0,0,1-3.25.69,7.15,7.15,0,0,1-3.32-.67,4.53,4.53,0,0,1-2.06-2.17,8.76,8.76,0,0,1-.7-3.76,10.64,10.64,0,0,1,.64-3.83,6.68,6.68,0,0,1,1.94-2.81,7.51,7.51,0,0,1,3.25-1.59A12.52,12.52,0,0,1,80.94,74.37Z"/><path class="cls-4" d="M84,89.05l0-.2h.42a1.1,1.1,0,0,0,.78-.32,1.07,1.07,0,0,0,.32-.76V77.63a1.35,1.35,0,0,0-.36-1.08,1.45,1.45,0,0,0-1-.3h-.36v-.2c.28,0,.65,0,1.13-.11s1-.14,1.53-.24,1.07-.23,1.59-.38a6.45,6.45,0,0,0,1.31-.55h.2v13a1,1,0,0,0,.33.75,1.11,1.11,0,0,0,.77.31h.42v.2Z"/><path class="cls-4" d="M94.06,89.81,94,89.67a13.14,13.14,0,0,0,3.35-1.48,5.54,5.54,0,0,0,1.77-1.86A6.38,6.38,0,0,0,99.8,84a29.32,29.32,0,0,0,.14-3c0-1.11,0-2-.08-2.77a4.29,4.29,0,0,0-.39-1.66,1.11,1.11,0,0,0-1-.55,1.31,1.31,0,0,0-1.12.49,2.73,2.73,0,0,0-.52,1.27,9.91,9.91,0,0,0-.14,1.7,9.18,9.18,0,0,0,.13,1.78,2.3,2.3,0,0,0,.36,1,1.28,1.28,0,0,0,.51.43,1.26,1.26,0,0,0,.85.06,3.33,3.33,0,0,0,.65-.28l.14.16a2.46,2.46,0,0,1-.88,1,3.48,3.48,0,0,1-1.38.52,4.22,4.22,0,0,1-1.58-.07A3.81,3.81,0,0,1,94,83.34a3.74,3.74,0,0,1-1.07-1.43,4.94,4.94,0,0,1-.36-2.2,5,5,0,0,1,.66-2.44,4.34,4.34,0,0,1,1.9-1.76,7.2,7.2,0,0,1,3.26-.68,5.9,5.9,0,0,1,4.51,1.56q1.57,1.59,1.57,5a11,11,0,0,1-.64,3.83,7,7,0,0,1-1.94,2.81,7.82,7.82,0,0,1-3.24,1.59A13,13,0,0,1,94.06,89.81Z"/><path class="cls-4" d="M140.45,84.22l0-.2h.42a1.1,1.1,0,0,0,.78-.32,1.07,1.07,0,0,0,.32-.76V72.8a1.35,1.35,0,0,0-.36-1.08,1.45,1.45,0,0,0-1-.3h-.36v-.2c.28,0,.65,0,1.13-.11s1-.14,1.53-.24,1.07-.23,1.59-.38a5.93,5.93,0,0,0,1.31-.55h.2V83a1,1,0,0,0,.33.75,1.06,1.06,0,0,0,.77.31h.42v.2Z"/><path class="cls-4" d="M149.55,81.24a1.56,1.56,0,0,1,1-.33,2.3,2.3,0,0,1,1.07.3,1.73,1.73,0,0,1,.75.85,3.29,3.29,0,0,1,.28,1.79,3.7,3.7,0,0,1-.63,1.64,3.32,3.32,0,0,1-1.28,1.11,2.57,2.57,0,0,1-1.67.2l-.08-.26a1.77,1.77,0,0,0,.64-.53,1.49,1.49,0,0,0,.27-.89,1.81,1.81,0,0,0-.55-1.12,2,2,0,0,1-.45-1,2,2,0,0,1,.08-1A1.53,1.53,0,0,1,149.55,81.24Z"/><path class="cls-4" d="M154.05,70.26l10.6,0-2.56,5.94c-.18.39-.36.85-.56,1.4s-.41,1.13-.62,1.76-.42,1.24-.62,1.86-.39,1.18-.55,1.71-.3,1-.39,1.33H156l.86-1.45c.33-.57.68-1.17,1-1.81s.71-1.28,1.07-1.91.67-1.22,1-1.76.5-1,.68-1.35l1-2.22h-6.4a1.36,1.36,0,0,0-.94.3,2.08,2.08,0,0,0-.56.9h-.2Z"/><path class="cls-4" d="M174.85,69.94l.18,1.48-7.12,6.92h8a1.41,1.41,0,0,0,.84-.21,1.64,1.64,0,0,0,.46-.59h.2l-.62,2.9H164.53v-.2Zm.2,13a1,1,0,0,0,.33.76,1.07,1.07,0,0,0,.77.32h.22v.2h-6.76l0-.2h.2a1.11,1.11,0,0,0,.79-.31,1,1,0,0,0,.33-.77ZM171,74.26l3.9-4.32h.2V84.2H171Z"/><path class="cls-4" d="M180,85l-.08-.14a13.14,13.14,0,0,0,3.35-1.48,5.54,5.54,0,0,0,1.77-1.86,6.51,6.51,0,0,0,.7-2.35,29.32,29.32,0,0,0,.14-3c0-1.11,0-2-.08-2.77a4.29,4.29,0,0,0-.39-1.66,1.11,1.11,0,0,0-1-.55,1.31,1.31,0,0,0-1.12.49,2.77,2.77,0,0,0-.52,1.27,9.07,9.07,0,0,0-.14,1.7,9.18,9.18,0,0,0,.13,1.78,2.3,2.3,0,0,0,.36,1,1.2,1.2,0,0,0,.51.43,1.26,1.26,0,0,0,.85.06,2.82,2.82,0,0,0,.65-.28l.14.16a2.46,2.46,0,0,1-.88,1,3.33,3.33,0,0,1-1.38.52,4.22,4.22,0,0,1-1.58-.07,3.74,3.74,0,0,1-1.47-.72,3.64,3.64,0,0,1-1.07-1.43,4.92,4.92,0,0,1-.36-2.2,5,5,0,0,1,.66-2.44,4.4,4.4,0,0,1,1.9-1.76,7.2,7.2,0,0,1,3.26-.68,5.9,5.9,0,0,1,4.51,1.56c1,1.07,1.57,2.75,1.57,5a11,11,0,0,1-.64,3.83,6.93,6.93,0,0,1-1.94,2.81,7.7,7.7,0,0,1-3.24,1.59A13,13,0,0,1,180,85Z"/><path class="cls-4" d="M225,44.83l-1.34-3.6a4.8,4.8,0,0,1,1.45-.86,9.18,9.18,0,0,1,1.84-.52,10.89,10.89,0,0,1,2-.18,8.17,8.17,0,0,1,2.92.49,4.72,4.72,0,0,1,2.05,1.4,3.34,3.34,0,0,1,.75,2.21,4.09,4.09,0,0,1-.41,1.8,6.76,6.76,0,0,1-1.07,1.56,12.14,12.14,0,0,1-1.44,1.33c-.52.4-1,.77-1.54,1.1l-1.36.87h3.8a2.59,2.59,0,0,0,1.09-.23,3.19,3.19,0,0,0,.9-.69,5.22,5.22,0,0,0,.75-1.18h.2L234.15,54h-10.4v-.2c.57-.71,1.16-1.42,1.77-2.12s1.19-1.41,1.76-2.11,1.07-1.4,1.53-2.09a12,12,0,0,0,1.08-2.06,5.67,5.67,0,0,0,.4-2,2.86,2.86,0,0,0-.69-2,2.14,2.14,0,0,0-1.87-.64,2.32,2.32,0,0,0-1.91,1.15,5.68,5.68,0,0,0-.65,3Z"/><path class="cls-4" d="M237.55,51a1.56,1.56,0,0,1,1-.33,2.09,2.09,0,0,1,1.07.3,1.69,1.69,0,0,1,.75.85,3.28,3.28,0,0,1,.28,1.79,3.7,3.7,0,0,1-.63,1.64,3.5,3.5,0,0,1-1.28,1.11,2.57,2.57,0,0,1-1.67.2l-.08-.26a1.77,1.77,0,0,0,.64-.53,1.49,1.49,0,0,0,.27-.89,1.81,1.81,0,0,0-.55-1.12,2,2,0,0,1-.45-.95,2,2,0,0,1,.08-1A1.45,1.45,0,0,1,237.55,51Z"/><path class="cls-4" d="M247,39.71a7.93,7.93,0,0,1,2.73.41,3.83,3.83,0,0,1,1.74,1.17,2.89,2.89,0,0,1,.61,1.86,3,3,0,0,1-.33,1.44,2.69,2.69,0,0,1-.87,1,3.13,3.13,0,0,1-1.17.47,2.88,2.88,0,0,1-1.21-.05,5,5,0,0,1,1.31.19,4.32,4.32,0,0,1,1.36.64A3.45,3.45,0,0,1,252.21,48a4,4,0,0,1,.42,1.93,4.72,4.72,0,0,1-.65,2.47,5.45,5.45,0,0,1-1.75,1.76,7.79,7.79,0,0,1-2.47,1,9.83,9.83,0,0,1-2.82.16,8.54,8.54,0,0,1-2.77-.73l0-.2a8.16,8.16,0,0,0,2.34-.3,6.32,6.32,0,0,0,1.95-1,4.86,4.86,0,0,0,1.34-1.52,4.16,4.16,0,0,0,.49-2,3.06,3.06,0,0,0-.57-2,3.31,3.31,0,0,0-1.42-1.07,4.53,4.53,0,0,0-1.71-.34l0-.2a3.24,3.24,0,0,0,1.7-.43,3.3,3.3,0,0,0,1.22-1.24,3,3,0,0,0,.34-1.75,2.12,2.12,0,0,0-.42-1.19,1.92,1.92,0,0,0-.89-.63,2.67,2.67,0,0,0-1.13-.12,1.93,1.93,0,0,0-1.7,1,5.84,5.84,0,0,0-.46,2.83h-.2L242,41.13a5.59,5.59,0,0,1,2.06-1A10.12,10.12,0,0,1,247,39.71Z"/><path class="cls-4" d="M259,39.71a7.93,7.93,0,0,1,2.73.41,3.83,3.83,0,0,1,1.74,1.17,2.89,2.89,0,0,1,.61,1.86,3,3,0,0,1-.33,1.44,2.69,2.69,0,0,1-.87,1,3.13,3.13,0,0,1-1.17.47,2.88,2.88,0,0,1-1.21-.05,5,5,0,0,1,1.31.19,4.32,4.32,0,0,1,1.36.64A3.45,3.45,0,0,1,264.25,48a4,4,0,0,1,.42,1.93,4.72,4.72,0,0,1-.65,2.47,5.45,5.45,0,0,1-1.75,1.76,7.79,7.79,0,0,1-2.47,1,9.83,9.83,0,0,1-2.82.16,8.54,8.54,0,0,1-2.77-.73l0-.2a8.16,8.16,0,0,0,2.34-.3,6.32,6.32,0,0,0,2-1,4.86,4.86,0,0,0,1.34-1.52,4.16,4.16,0,0,0,.49-2,3.06,3.06,0,0,0-.57-2,3.31,3.31,0,0,0-1.42-1.07,4.53,4.53,0,0,0-1.71-.34l0-.2a3.24,3.24,0,0,0,1.7-.43,3.3,3.3,0,0,0,1.22-1.24,3,3,0,0,0,.34-1.75,2.12,2.12,0,0,0-.42-1.19,1.92,1.92,0,0,0-.89-.63,2.67,2.67,0,0,0-1.13-.12,1.93,1.93,0,0,0-1.7,1,5.84,5.84,0,0,0-.46,2.83h-.2L254,41.13a5.59,5.59,0,0,1,2.06-1A10.12,10.12,0,0,1,259,39.71Z"/><path class="cls-4" d="M276.65,39.27l.08.14a12.51,12.51,0,0,0-3.35,1.48,5.19,5.19,0,0,0-1.77,1.86,6.09,6.09,0,0,0-.7,2.35,26.43,26.43,0,0,0-.14,3c0,1.1,0,2,.08,2.77a3.83,3.83,0,0,0,.4,1.66,1.12,1.12,0,0,0,1,.55,1.36,1.36,0,0,0,1.12-.49,3,3,0,0,0,.52-1.28,11.2,11.2,0,0,0,0-3.47,2.67,2.67,0,0,0-.35-1,1.17,1.17,0,0,0-.52-.43,1.24,1.24,0,0,0-.84-.06,2.56,2.56,0,0,0-.66.28l-.16-.16a2.22,2.22,0,0,1,.89-1,3.51,3.51,0,0,1,1.39-.51,4,4,0,0,1,1.58.07,3.61,3.61,0,0,1,1.47.72,3.73,3.73,0,0,1,1.07,1.42,5.6,5.6,0,0,1-.31,4.65,4.56,4.56,0,0,1-1.9,1.75,7.56,7.56,0,0,1-3.25.69,7.13,7.13,0,0,1-3.32-.67A4.49,4.49,0,0,1,267,51.41a8.76,8.76,0,0,1-.7-3.76,10.64,10.64,0,0,1,.64-3.83A6.68,6.68,0,0,1,268.85,41a7.51,7.51,0,0,1,3.25-1.59A12.51,12.51,0,0,1,276.65,39.27Z"/><rect class="cls-3" x="296.98" y="15.82" width="71.72" height="33.59"/><path class="cls-4" d="M302.71,27.24,301,22.74a6.28,6.28,0,0,1,1.81-1.07,11.4,11.4,0,0,1,2.3-.65,13.6,13.6,0,0,1,2.44-.23,10.5,10.5,0,0,1,3.65.61,6.08,6.08,0,0,1,2.56,1.75,4.24,4.24,0,0,1,.94,2.77,5,5,0,0,1-.52,2.25,8.12,8.12,0,0,1-1.33,1.95,14.94,14.94,0,0,1-1.8,1.66,22.26,22.26,0,0,1-1.93,1.37l-1.7,1.09h4.75a3,3,0,0,0,1.36-.29,3.37,3.37,0,0,0,1.13-.86,6.32,6.32,0,0,0,.94-1.47h.25l-1.7,7h-13v-.25c.71-.88,1.45-1.77,2.21-2.65s1.49-1.76,2.2-2.64a28.81,28.81,0,0,0,1.91-2.61,13.85,13.85,0,0,0,1.35-2.57,6.74,6.74,0,0,0,.5-2.53,3.63,3.63,0,0,0-.86-2.55,2.74,2.74,0,0,0-2.34-.8,2.93,2.93,0,0,0-2.39,1.44,7.19,7.19,0,0,0-.81,3.76Z"/><path class="cls-4" d="M318.44,34.92a2,2,0,0,1,1.27-.42,2.83,2.83,0,0,1,1.34.38,2.21,2.21,0,0,1,.94,1.06,4.07,4.07,0,0,1,.35,2.24,4.63,4.63,0,0,1-.79,2,4.26,4.26,0,0,1-1.6,1.39,3.23,3.23,0,0,1-2.09.25l-.1-.33a2,2,0,0,0,.8-.66,1.75,1.75,0,0,0,.34-1.11,2.25,2.25,0,0,0-.69-1.4,2.39,2.39,0,0,1-.56-1.19,2.57,2.57,0,0,1,.1-1.29A1.93,1.93,0,0,1,318.44,34.92Z"/><path class="cls-4" d="M335.19,25.34l-7.68.63L327,28a12.19,12.19,0,0,1,4.25-.35,7.16,7.16,0,0,1,3.1,1.06,5.21,5.21,0,0,1,1.85,2.14,6.16,6.16,0,0,1,.52,2.9,5.85,5.85,0,0,1-1,3.2,7.15,7.15,0,0,1-2.44,2.16,10.39,10.39,0,0,1-3.24,1.13,11.18,11.18,0,0,1-3.46.09,9.42,9.42,0,0,1-3.11-.95l.05-.25a9.19,9.19,0,0,0,1.6-.13,12.49,12.49,0,0,0,2-.5,8.49,8.49,0,0,0,2-.94,5.56,5.56,0,0,0,1.52-1.41,3.66,3.66,0,0,0,.68-1.95,2.65,2.65,0,0,0-.78-2.24,3.72,3.72,0,0,0-2.39-.9,8.19,8.19,0,0,0-3.41.69l-.22-.15,2.07-9.6,7.45-.62a2,2,0,0,0,1.25-.35,2.81,2.81,0,0,0,.73-.9h.25Z"/><path class="cls-4" d="M338.94,38.64l0-.25h.53a1.31,1.31,0,0,0,1-.4,1.27,1.27,0,0,0,.4-1V24.37a1.69,1.69,0,0,0-.45-1.35,1.82,1.82,0,0,0-1.2-.38h-.45v-.25c.35,0,.82-.06,1.41-.14s1.23-.17,1.92-.3a17.86,17.86,0,0,0,2-.47,7,7,0,0,0,1.64-.69H346V37.07a1.24,1.24,0,0,0,.41.93,1.38,1.38,0,0,0,1,.39h.52v.25Z"/><path class="cls-4" d="M361.14,20.79l.22,1.85-8.9,8.65h10a1.76,1.76,0,0,0,1.05-.26,2,2,0,0,0,.58-.74h.25l-.78,3.63H348.24v-.25ZM361.39,37a1.24,1.24,0,0,0,.41,1,1.31,1.31,0,0,0,1,.4H363v.25h-8.45l0-.25h.25a1.41,1.41,0,0,0,1-.39,1.27,1.27,0,0,0,.41-1Zm-5.13-10.85,4.88-5.4h.25V38.62h-5.13Z"/><circle class="cls-4" cx="80.02" cy="100.61" r="5.35"/><circle class="cls-4" cx="164.43" cy="96.39" r="5.35"/><circle class="cls-4" cx="333.25" cy="53.83" r="5.35"/><circle class="cls-4" cx="248.84" cy="68.24" r="5.35"/><polyline class="cls-5" points="80.02 100.61 164.43 96.39 248.84 68.23 333.25 53.83"/></g></g></svg>