<svg xmlns="http://www.w3.org/2000/svg" viewBox="0 0 196.5 196.49"><defs><style>.cls-1{fill:#e8314b;}.cls-1,.cls-2{fill-rule:evenodd;}.cls-2{fill:#333;}.cls-3{fill:#fff;}</style></defs><g id="レイヤー_2" data-name="レイヤー 2"><g id="pc"><path class="cls-1" d="M98.26,98.24,1,111.92A98.24,98.24,0,0,1,84.58,1,102.66,102.66,0,0,1,98.26,0Z"/><path class="cls-2" d="M98.26,98.24V0a98.25,98.25,0,0,1,0,196.49c-49.92,0-90.34-35.14-97.29-84.57Z"/><path class="cls-3" d="M74.6,69.55a2.87,2.87,0,0,1,2.36.94,3.36,3.36,0,0,1,.6,2.6,3.75,3.75,0,0,1-1.29,2.59,4.4,4.4,0,0,1-2.93.93,2.82,2.82,0,0,1-2.36-1,3.54,3.54,0,0,1-.5-2.74,3.79,3.79,0,0,1,1.33-2.46A4.29,4.29,0,0,1,74.6,69.55Zm-.08.8c-.28,0-.53.24-.76.72a7.39,7.39,0,0,0-.52,2,7,7,0,0,0-.06,2c.08.48.25.72.5.72s.6-.26.83-.73a5.81,5.81,0,0,0,.49-2,7,7,0,0,0,0-2C75,70.59,74.78,70.35,74.52,70.35Zm-.28,13.86-.9-.38,6.92-13.06a2.69,2.69,0,0,1-1.08.42,3.76,3.76,0,0,1-1,0,4.22,4.22,0,0,1-1.24-.35q-.51-.26-1-.45a2.24,2.24,0,0,0-1-.16l-.28-.7a5,5,0,0,1,1.28.13,3.36,3.36,0,0,1,.84.32c.23.13.46.24.68.34a2.62,2.62,0,0,0,.78.19,2.58,2.58,0,0,0,1-.12,5.78,5.78,0,0,0,.91-.38l.74-.38.78.34Zm7.58-7.16a2.85,2.85,0,0,1,2.33.94,3.36,3.36,0,0,1,.63,2.6,3.57,3.57,0,0,1-1.26,2.59,4.47,4.47,0,0,1-3,.93,2.82,2.82,0,0,1-2.36-1,3.54,3.54,0,0,1-.5-2.74A3.79,3.79,0,0,1,79,77.93,4.29,4.29,0,0,1,81.82,77.05Zm-.22.8q-.42,0-.75.72a7.43,7.43,0,0,0-.51,2,6.75,6.75,0,0,0-.08,2c.08.48.25.72.5.72s.6-.24.83-.71a6.07,6.07,0,0,0,.51-2,7,7,0,0,0,0-2C82.05,78.09,81.87,77.85,81.6,77.85Z"/><path class="cls-3" d="M31.67,69.52l-2-5.4a7.62,7.62,0,0,1,2.18-1.29,14.31,14.31,0,0,1,2.76-.78,16.27,16.27,0,0,1,2.92-.27,12.34,12.34,0,0,1,4.38.74A7.16,7.16,0,0,1,45,64.62a5,5,0,0,1,1.12,3.31,6.07,6.07,0,0,1-.61,2.7A9.87,9.87,0,0,1,43.88,73a17.83,17.83,0,0,1-2.16,2q-1.17.91-2.31,1.65l-2,1.3h5.7a3.82,3.82,0,0,0,1.64-.34,4.23,4.23,0,0,0,1.35-1,7.39,7.39,0,0,0,1.12-1.77h.3l-2,8.43H29.84v-.3c.86-1.06,1.75-2.12,2.66-3.18s1.79-2.11,2.64-3.16a38.31,38.31,0,0,0,2.29-3.14,17,17,0,0,0,1.62-3.09,8.25,8.25,0,0,0,.6-3,4.31,4.31,0,0,0-1-3.06,3.26,3.26,0,0,0-2.81-1A3.51,3.51,0,0,0,33,65a8.6,8.6,0,0,0-1,4.51Z"/><path class="cls-3" d="M49.49,62.26l15.9-.06-3.84,8.91q-.39.87-.84,2.1t-.93,2.64q-.48,1.41-.93,2.79c-.3.92-.57,1.78-.82,2.57s-.45,1.45-.59,2h-5.1L53.63,81c.5-.85,1-1.76,1.56-2.72l1.61-2.86c.53-1,1-1.83,1.42-2.64s.76-1.49,1-2l1.56-3.33H51.2a2.06,2.06,0,0,0-1.41.45A3.26,3.26,0,0,0,49,69.25h-.3Z"/><path class="cls-3" d="M157.74,124.75a2.88,2.88,0,0,1,2.36.94,3.36,3.36,0,0,1,.6,2.6,3.75,3.75,0,0,1-1.29,2.59,4.42,4.42,0,0,1-2.93.93,2.81,2.81,0,0,1-2.36-1,3.5,3.5,0,0,1-.5-2.74,3.75,3.75,0,0,1,1.33-2.46A4.29,4.29,0,0,1,157.74,124.75Zm-.08.8c-.28,0-.53.24-.76.72a7,7,0,0,0-.52,2,7,7,0,0,0-.06,2c.08.48.25.72.5.72s.6-.26.83-.73a6.06,6.06,0,0,0,.49-2,7,7,0,0,0,0-2C158.08,125.79,157.91,125.55,157.66,125.55Zm-.28,13.86-.9-.38L163.4,126a2.69,2.69,0,0,1-1.08.42,3.76,3.76,0,0,1-1,0,4.22,4.22,0,0,1-1.24-.35q-.53-.25-1-.45a2.24,2.24,0,0,0-1.05-.16l-.28-.7a5,5,0,0,1,1.28.13,3.69,3.69,0,0,1,.84.32,7.18,7.18,0,0,0,.68.34,2.65,2.65,0,0,0,1.83.07,5.78,5.78,0,0,0,.91-.38l.74-.38.78.34Zm7.58-7.16a2.86,2.86,0,0,1,2.33.94,3.36,3.36,0,0,1,.63,2.6,3.57,3.57,0,0,1-1.26,2.59,4.48,4.48,0,0,1-3,.93,2.81,2.81,0,0,1-2.36-1,3.5,3.5,0,0,1-.5-2.74,3.75,3.75,0,0,1,1.33-2.46A4.29,4.29,0,0,1,165,132.25Zm-.22.8q-.42,0-.75.72a7.43,7.43,0,0,0-.51,2,6.75,6.75,0,0,0-.08,2c.08.48.25.72.5.72s.6-.24.83-.71a6.62,6.62,0,0,0,.51-2,7,7,0,0,0,0-2C165.18,133.29,165,133.05,164.74,133.05Z"/><path class="cls-3" d="M114.88,117.47l15.9-.07-3.84,8.91q-.39.89-.84,2.1t-.93,2.64q-.48,1.42-.93,2.79c-.3.93-.57,1.78-.82,2.57s-.45,1.45-.59,2h-5.1l1.29-2.17c.5-.85,1-1.75,1.56-2.71l1.61-2.87c.53-1,1-1.83,1.42-2.64s.76-1.48,1-2l1.56-3.34h-9.6a2.06,2.06,0,0,0-1.41.45,3.24,3.24,0,0,0-.84,1.36H114Z"/><path class="cls-3" d="M139.42,117a12.08,12.08,0,0,1,4.1.62,5.84,5.84,0,0,1,2.61,1.75,4.84,4.84,0,0,1,.42,5,3.89,3.89,0,0,1-1.31,1.44,4.53,4.53,0,0,1-1.75.71,4.12,4.12,0,0,1-1.82-.07,7.66,7.66,0,0,1,2,.28,6.54,6.54,0,0,1,2,1,5.2,5.2,0,0,1,1.6,1.83,6,6,0,0,1,.63,2.89,7,7,0,0,1-1,3.71,8,8,0,0,1-2.63,2.64,11.29,11.29,0,0,1-3.7,1.47,14.19,14.19,0,0,1-4.23.24,12.5,12.5,0,0,1-4.16-1.1l.06-.3a11.82,11.82,0,0,0,3.51-.45,9,9,0,0,0,2.93-1.42,7,7,0,0,0,2-2.28,6.06,6.06,0,0,0,.73-3,4.64,4.64,0,0,0-.85-2.93,5.12,5.12,0,0,0-2.13-1.61,7.09,7.09,0,0,0-2.57-.51l.06-.3a4.7,4.7,0,0,0,2.55-.64,4.81,4.81,0,0,0,1.83-1.86,4.34,4.34,0,0,0,.51-2.62,3.22,3.22,0,0,0-.63-1.79,2.77,2.77,0,0,0-1.33-.94,4,4,0,0,0-1.7-.19,3,3,0,0,0-2.55,1.58,9,9,0,0,0-.69,4.24h-.3L132,119.18a8.59,8.59,0,0,1,3.09-1.55A15.22,15.22,0,0,1,139.42,117Z"/><path class="cls-3" d="M52.18,39.84a11.8,11.8,0,0,1-2.13,4.73c2.28,1,3.64,2,3.64,2.84,0,.58-.24.91-.64.91s-.45-.11-.79-.43a20.76,20.76,0,0,0-2.92-2.51,11,11,0,0,1-7,2.92c-.07,0-.11-.21,0-.23a12,12,0,0,0,6-3.36A23.5,23.5,0,0,0,46,43.52c-.11.21-.24.42-.35.6s-.31.35-.57.35c-.52,0-.86-.15-.86-.39a1.51,1.51,0,0,1,.23-.52,25.87,25.87,0,0,0,1.82-3.72H43.92a11.5,11.5,0,0,0-1.35.08l-.15-.52a9.14,9.14,0,0,0,1.48.11h2.45c.1-.26.2-.52.28-.77a14,14,0,0,0,.76-3c1.67.33,1.82.4,1.82.61s-.11.26-.53.4c-.31,1-.62,1.93-.93,2.78h5.07c.73-.89.9-1,1-1s.28.12,1,.71c.31.26.42.39.42.49s0,.14-.18.14Zm-4.55,0a27.85,27.85,0,0,1-1.5,3.4,27.89,27.89,0,0,1,2.72.84,11.6,11.6,0,0,0,1.86-4.24Z"/><path class="cls-3" d="M60.53,40c0,.89-.32,1.65-1,1.65a.64.64,0,0,1-.62-.7.76.76,0,0,1,.4-.7,1.69,1.69,0,0,0,.85-1.7.07.07,0,0,1,.14,0A4.41,4.41,0,0,1,60.53,40Zm1.66-1.74c0,5,0,8.46,0,9.6,0,.42-.24.6-.76.6s-.63-.13-.63-.49c0-1.05.07-4.23.07-10.58a14.06,14.06,0,0,0-.07-1.78c1.78.2,1.78.2,1.78.41s-.11.24-.43.36Zm.89,2.14c-.35,0-.45-.18-.45-.82a2.66,2.66,0,0,0-.35-1.39.05.05,0,0,1,.07-.08c.87.49,1.28,1,1.28,1.65A.59.59,0,0,1,63.08,40.42Zm5,2.79h1c.67-.88.84-1,.94-1s.26.11,1,.68c.31.27.42.4.42.49s0,.14-.18.14H68.07v3.91h1.55c.75-.88.91-1,1-1s.28.11,1,.68c.34.28.45.4.45.49s0,.14-.18.14H64.15a9.29,9.29,0,0,0-1.18.09l-.15-.52a7.45,7.45,0,0,0,1.24.11h2.62V43.53H65a5.55,5.55,0,0,0-.9.09L64,43.1a5.08,5.08,0,0,0,1,.11h1.71V40H65a8,8,0,0,1-2.13,2.74c-.06,0-.17-.07-.13-.13a12.73,12.73,0,0,0,1.4-3.6,12.21,12.21,0,0,0,.29-2c1.77.46,1.77.46,1.77.67s0,.19-.46.35a14,14,0,0,1-.59,1.64h1.51v-1.9a19.81,19.81,0,0,0-.08-2c1.81.16,2,.33,2,.49s-.16.26-.5.37v3h1.44c.62-.85.79-1,.88-1s.27.11.91.67c.3.25.41.38.41.48s0,.14-.18.14H68.07Z"/><path class="cls-3" d="M131.34,99.42a5.88,5.88,0,0,1-1.28,2.32,7.51,7.51,0,0,1-4.92,2.06c-.07,0-.1-.14,0-.15a7.81,7.81,0,0,0,3.61-2.08A5.52,5.52,0,0,0,130,99.36h-3.21a6.51,6.51,0,0,0-1.16.11l-.16-.54a8.1,8.1,0,0,0,1.29.11h3.32a6.88,6.88,0,0,0,.2-1.67c1.46.16,1.76.24,1.76.46s-.11.23-.43.35a7.27,7.27,0,0,1-.17.86H135c.49-.53.61-.62.72-.62s.25.09.75.53c.23.2.31.3.31.41s0,.14-.38.38c-.32,2-.51,2.77-.84,3.25a1.66,1.66,0,0,1-.75.6,2.54,2.54,0,0,1-.94.17c-.27,0-.35-.07-.41-.29-.11-.55-.32-.76-1.58-1.11-.07,0-.06-.21,0-.2,1.11.12,1.73.14,2,.14a.8.8,0,0,0,.83-.53,11.05,11.05,0,0,0,.46-2.41h-3.81Zm-3.48-2.16c0,.41-.24.55-.76.55s-.56-.12-.56-.49c0-.55,0-1.11,0-3.3,0-.86,0-1.73-.07-2.62a9.81,9.81,0,0,1,1.5.71h6.47c.51-.55.62-.63.73-.63s.27.08.78.47c.24.18.33.28.33.39s-.06.21-.41.47v.72c0,1.91.07,3.24.07,3.67s-.27.61-.77.61-.59-.13-.59-.51V97h-6.76Zm2.69-2.93v-1.9h-2.69v1.9Zm-2.69,2.33h2.69v-2h-2.69Zm6.76-4.23h-2.79v1.9h2.79Zm0,2.22h-2.79v2h2.79Z"/><path class="cls-3" d="M143,95.55c0,.9-.32,1.65-1,1.65a.64.64,0,0,1-.62-.7.78.78,0,0,1,.4-.7,1.68,1.68,0,0,0,.85-1.69.07.07,0,0,1,.14,0A4.45,4.45,0,0,1,143,95.55Zm1.66-1.74c0,5,0,8.47,0,9.6,0,.42-.24.6-.76.6s-.63-.12-.63-.49c0-1,.07-4.23.07-10.57a13.87,13.87,0,0,0-.07-1.78c1.78.19,1.78.19,1.78.4s-.11.24-.43.37Zm.89,2.15c-.35,0-.45-.18-.45-.83a2.69,2.69,0,0,0-.35-1.39.05.05,0,0,1,.07-.08c.87.49,1.28,1,1.28,1.65A.59.59,0,0,1,145.55,96Zm5,2.78h1c.67-.88.84-1,.94-1s.26.11.95.69c.31.26.42.39.42.49s0,.14-.18.14h-3.11V103h1.55c.75-.89.91-1,1-1s.28.11,1,.69c.34.28.45.39.45.49s0,.14-.18.14h-7.76a9.07,9.07,0,0,0-1.18.08l-.15-.52a6.61,6.61,0,0,0,1.24.12h2.62V99.07h-1.68a6.47,6.47,0,0,0-.89.08l-.16-.52a4.5,4.5,0,0,0,1,.11h1.71V95.51h-1.66a7.82,7.82,0,0,1-2.13,2.74c-.06,0-.17-.07-.13-.12a13,13,0,0,0,1.4-3.6,12.38,12.38,0,0,0,.3-2c1.76.46,1.76.46,1.76.67s0,.18-.46.35a14.69,14.69,0,0,1-.59,1.64h1.51V93.28a19.81,19.81,0,0,0-.08-2c1.81.17,2,.33,2,.49s-.16.26-.5.38v3H152c.62-.86.79-1,.88-1s.27.11.91.67c.3.26.41.38.41.48s0,.14-.18.14h-3.46Z"/></g></g></svg>