<svg xmlns="http://www.w3.org/2000/svg" xmlns:xlink="http://www.w3.org/1999/xlink" viewBox="0 0 213.68 101.71"><defs><style>.cls-1{fill:none;}.cls-2{fill:#e1e3e8;}.cls-3{clip-path:url(#clip-path);}.cls-4{fill:#333;}</style><clipPath id="clip-path" transform="translate(17.38 9.33)"><path class="cls-1" d="M15,13.41a6.71,6.71,0,1,1,6.7-6.71A6.7,6.7,0,0,1,15,13.41ZM0,22.08V44.62a2.94,2.94,0,1,0,5.88,0V26.09H7.24V76.38a3.87,3.87,0,1,0,7.73,0V47.2h1.24V76.38a3.87,3.87,0,1,0,7.73,0V26.09H25.3V44.62a2.94,2.94,0,0,0,5.88,0V22.08c0-3.24-3.53-6.78-6.78-6.78H6.78C3.54,15.3,0,18.84,0,22.08ZM69.14,6.7a6.71,6.71,0,1,0-6.7,6.71A6.7,6.7,0,0,0,69.14,6.7ZM47.4,22.08V44.62a2.94,2.94,0,0,0,5.88,0V26.09h1.36V76.38a3.87,3.87,0,1,0,7.73,0V47.2h1.24V76.38a3.87,3.87,0,1,0,7.73,0V26.09H72.7V44.62a2.94,2.94,0,0,0,5.88,0V22.08c0-3.24-3.54-6.78-6.78-6.78H54.18C50.93,15.3,47.4,18.84,47.4,22.08ZM116.54,6.7a6.71,6.71,0,1,0-6.71,6.71A6.7,6.7,0,0,0,116.54,6.7ZM94.8,22.08V44.62a2.94,2.94,0,0,0,5.88,0V26.09H102V76.38a3.87,3.87,0,1,0,7.73,0V47.2H111V76.38a3.87,3.87,0,1,0,7.73,0V26.09h1.36V44.62a2.94,2.94,0,1,0,5.88,0V22.08c0-3.24-3.54-6.78-6.79-6.78H101.58C98.33,15.3,94.8,18.84,94.8,22.08ZM163.94,6.7a6.71,6.71,0,1,0-6.71,6.71A6.71,6.71,0,0,0,163.94,6.7ZM142.19,22.08V44.62a2.95,2.95,0,0,0,5.89,0V26.09h1.35V76.38a3.87,3.87,0,1,0,7.73,0V47.2h1.25V76.38a3.87,3.87,0,1,0,7.73,0V26.09h1.35V44.62a2.95,2.95,0,0,0,5.89,0V22.08c0-3.24-3.54-6.78-6.79-6.78H149C145.73,15.3,142.19,18.84,142.19,22.08Z"/></clipPath></defs><g id="レイヤー_2" data-name="レイヤー 2"><g id="pc"><path class="cls-2" d="M15,13.41a6.71,6.71,0,1,1,6.7-6.71A6.7,6.7,0,0,1,15,13.41Z" transform="translate(17.38 9.33)"/><path class="cls-2" d="M6.78,15.3H24.4c3.25,0,6.78,3.54,6.78,6.78V44.62a2.94,2.94,0,0,1-5.88,0V26.09H23.94V76.38a3.87,3.87,0,1,1-7.73,0V47.2H15V76.38a3.87,3.87,0,1,1-7.73,0V26.09H5.88V44.62a2.94,2.94,0,1,1-5.88,0V22.08C0,18.84,3.54,15.3,6.78,15.3Z" transform="translate(17.38 9.33)"/><path class="cls-2" d="M62.44,13.41a6.71,6.71,0,1,1,6.7-6.71A6.7,6.7,0,0,1,62.44,13.41Z" transform="translate(17.38 9.33)"/><path class="cls-2" d="M54.18,15.3H71.8c3.24,0,6.78,3.54,6.78,6.78V44.62a2.94,2.94,0,0,1-5.88,0V26.09H71.34V76.38a3.87,3.87,0,1,1-7.73,0V47.2H62.37V76.38a3.87,3.87,0,1,1-7.73,0V26.09H53.28V44.62a2.94,2.94,0,0,1-5.88,0V22.08C47.4,18.84,50.93,15.3,54.18,15.3Z" transform="translate(17.38 9.33)"/><path class="cls-2" d="M109.83,13.41a6.71,6.71,0,1,1,6.71-6.71A6.7,6.7,0,0,1,109.83,13.41Z" transform="translate(17.38 9.33)"/><path class="cls-2" d="M101.58,15.3h17.61c3.25,0,6.79,3.54,6.79,6.78V44.62a2.94,2.94,0,1,1-5.88,0V26.09h-1.36V76.38a3.87,3.87,0,1,1-7.73,0V47.2h-1.25V76.38a3.87,3.87,0,1,1-7.73,0V26.09h-1.35V44.62a2.94,2.94,0,0,1-5.88,0V22.08C94.8,18.84,98.33,15.3,101.58,15.3Z" transform="translate(17.38 9.33)"/><path class="cls-2" d="M157.23,13.41a6.71,6.71,0,1,1,6.71-6.71A6.7,6.7,0,0,1,157.23,13.41Z" transform="translate(17.38 9.33)"/><path class="cls-2" d="M149,15.3h17.61c3.25,0,6.79,3.54,6.79,6.78V44.62a2.95,2.95,0,0,1-5.89,0V26.09h-1.35V76.38a3.87,3.87,0,1,1-7.73,0V47.2h-1.25V76.38a3.87,3.87,0,1,1-7.73,0V26.09h-1.35V44.62a2.95,2.95,0,0,1-5.89,0V22.08C142.19,18.84,145.73,15.3,149,15.3Z" transform="translate(17.38 9.33)"/><g class="cls-3"><rect class="cls-4" width="153.03" height="98.91"/><rect class="cls-4" x="154.89" y="13.99" width="58.78" height="87.72"/></g></g></g></svg>