<svg xmlns="http://www.w3.org/2000/svg" viewBox="0 0 263.69 101.43"><defs><style>.cls-1{fill:#333;}.cls-2{fill:#fff;}</style></defs><g id="レイヤー_2" data-name="レイヤー 2"><g id="pc"><path class="cls-1" d="M22.83,15.69A7.69,7.69,0,1,0,15.14,8,7.69,7.69,0,0,0,22.83,15.69Z"/><path class="cls-1" d="M43,42.48,40.29,31.23C37.65,21,28.79,18.55,22.83,18.55S8,21,5.38,31.23l-5.25,22A3,3,0,1,0,5.85,55l6.09-16.14.15,3.5A26.78,26.78,0,0,0,8,56.26c0,3.35,3.4,18.61,3.4,18.61h2.09l.95,22.48a3.51,3.51,0,1,0,7,0L22.32,75h1l.88,22.41a3.51,3.51,0,0,0,7,0l1-22.48h2.09s3.4-15.26,3.4-18.61A24.49,24.49,0,0,0,37,50.58L27.3,54.37a4.57,4.57,0,0,1-6-2.35,4.56,4.56,0,0,1,2.3-6l9.88-4.88c0,.06.23-2.29.23-2.29L35,42.16,24.28,47.45a3,3,0,0,0,2.42,5.48l14.39-5.61C43,46.5,43.48,44.59,43,42.48Z"/><path class="cls-1" d="M83.64,85.55l-.23.31-7-5.38c2.05-2.64,3.62-4.68,3.62-4.68a.63.63,0,0,1,1.19.13l.32.7a1.53,1.53,0,0,0,1.65.83l6-1.36a.75.75,0,0,1,1,.91l-.46,2.7a1.9,1.9,0,0,1-1.36,1.43L85,81.86c-.64.14-.62.24,0,.22L86.94,82c.65,0,1,.44.67,1a2.63,2.63,0,0,1-1.68,1.26l-.42.08A3.41,3.41,0,0,0,83.64,85.55Z"/><path class="cls-1" d="M63.37,86.82c.22-.95.66-.49.84-.16a15.48,15.48,0,0,0,3.69,4.78c1.32-1.64,4.55-5.79,7.36-9.4l7,5.42-.91,1.3c1.06,2.83,3.13,8.69,3.13,8.69a1.43,1.43,0,0,1-.87,1.81,1.38,1.38,0,0,1-1.76-.88l-3-6.09-1,1.39a2.34,2.34,0,0,1,.62,1.53v.64h.17c3.09,0,3.26,3.43.17,3.43H69.26c-3.21,0-4.23-2.5-3.22-5.07C64.79,92.92,62.49,90,63.37,86.82Z"/><path class="cls-1" d="M111.77,7.89A7.89,7.89,0,1,1,103.88,0,7.89,7.89,0,0,1,111.77,7.89Z"/><path class="cls-1" d="M103.91,18.53h0c-5.32,0-16.8,2.27-16.8,13.52l1.38,27.32a3.16,3.16,0,0,0,3.35,3,3.07,3.07,0,0,0,2.47-1.87l1,35.66a4,4,0,1,0,8,0l.52-30h.05l.52,30a4,4,0,1,0,8,0l1-35.66A3.07,3.07,0,0,0,116,62.38a3.16,3.16,0,0,0,3.35-3l1.38-27.32C120.7,20.8,109.22,18.53,103.91,18.53Z"/><path class="cls-1" d="M149.49,8A7.89,7.89,0,1,1,141.61.1,7.88,7.88,0,0,1,149.49,8Z"/><path class="cls-1" d="M151.89,50.88c.19-2.33.33-4.82.33-4.82,5.74-2,6.2-12.47,6.2-12.47,0-11.26-9.19-15-16.79-15-7.36,0-16.4,4.27-16.79,15,0,0-.1,11,6.67,15.53l.12,1.32c-1.3,3.31-5.19,14.12-5.19,25.87h6.63l1,20.08a3.8,3.8,0,1,0,7.59.33,3.8,3.8,0,1,0,7.59-.33l1-20.08h6.71C156.9,65,153.33,54.62,151.89,50.88Z"/><path class="cls-2" d="M149.11,27.55a4,4,0,1,1-.92,5.56A4,4,0,0,1,149.11,27.55Z"/><path class="cls-2" d="M135.61,38.3a1.9,1.9,0,0,1,2.33-1.39c1.32.31,3.46,1.12,3.46,1.12l2.66-1.75-2.56-1.21a.81.81,0,0,1-.26-.18,1.16,1.16,0,0,1-.05-1.67,1.23,1.23,0,0,1,1.22-.33s5.55,1.84,6.51,2.1a2.23,2.23,0,0,1,.8,4,.12.12,0,0,1,0,0l-2.81.31a2.89,2.89,0,0,0-2.65,3.1c0,.11,0,.22.05.33a4.8,4.8,0,0,1-3.62.38,6.7,6.7,0,0,1-2.47-1l-.21.61-3.57-.05Z"/><path class="cls-1" d="M242.68,8.14A7.47,7.47,0,1,1,235.21.67,7.47,7.47,0,0,1,242.68,8.14Z"/><path class="cls-1" d="M206.93,59a6.59,6.59,0,1,1-6.58-6.59A6.58,6.58,0,0,1,206.93,59Z"/><path class="cls-1" d="M192.41,97.56a3.88,3.88,0,1,1-3.88-3.88A3.88,3.88,0,0,1,192.41,97.56Z"/><path class="cls-1" d="M206.18,97.56a3.88,3.88,0,1,1-3.88-3.88A3.88,3.88,0,0,1,206.18,97.56Z"/><path class="cls-1" d="M198.13,92.19h-12.9l2.18-3.92h10.72c1.59,0,4.57-1.4,5.78-5.14C204.72,80.61,210,61,210,60.78l.39-1.46H221.3l-1.18,3.93h-6.68s-5.07,18.81-5.8,21.08C206,89.49,201.6,92.19,198.13,92.19Z"/><path class="cls-1" d="M198.67,67c-3.11.52-13.63,3.21-13.63,3.21a2,2,0,0,0,.88,4l6.75-.79-1.31,5h-5.12c-2.28,0-3.83.8-4.69,2.69l-4.07,9.08a2.68,2.68,0,0,0,1.38,3.54,2.73,2.73,0,0,0,3.54-1.38l3.51-6.2h10.35c2.07,0,4.58-1.2,5.23-3.59s2.78-10.83,2.78-10.83C205.3,68,202.31,66.38,198.67,67Z"/><path class="cls-1" d="M254.83,77.61l-.74-5.14h9.6s-5.82-23.77-15.94-30.09c0,0-3.54-16.19-4.8-20.23S232.78,15,228,26.45l-4.13,10.46-5.5,13.94a2.9,2.9,0,1,0,5.3,2.37l6.71-13.4.43-.86,1.65,6.2-8.3,51.72a3.78,3.78,0,1,0,7.41,1.53l6.56-25.94h5.92l1.61,6.86,4.46,19A3.79,3.79,0,1,0,257.6,97Z"/></g></g></svg>