<svg xmlns="http://www.w3.org/2000/svg" viewBox="0 0 107.9 93.63"><defs><style>.cls-1{fill:#333;}.cls-2{fill:none;stroke:#fff;stroke-miterlimit:10;stroke-width:1.18px;}</style></defs><g id="レイヤー_2" data-name="レイヤー 2"><g id="pc"><circle class="cls-1" cx="22.71" cy="17.4" r="17.4"/><rect class="cls-1" y="82.4" width="107.9" height="11.23"/><polygon class="cls-1" points="26.85 79.44 55.18 79.44 72.42 79.44 72.42 70.57 51.1 70.57 42.12 46.19 0.25 46.19 13.3 79.44 26.85 79.44"/><path class="cls-1" d="M66.75,27.51c.65,3.3,1.75,6.21,3.2,7.64v4a.85.85,0,0,1-.06.31l7.46,3.2,7.44-3.2a1.12,1.12,0,0,1-.05-.31v-4c1.45-1.43,2.54-4.34,3.2-7.64,1.52-.48,2.39-1.26,3.48-4.66,1.15-3.61-1.74-3.49-1.74-3.49C92,12.45,88.94,6,83.77,6.42c-3.56-5.55-15.5,1.28-19.24.8a6.86,6.86,0,0,0,.89,3.33c-1.3,2.2-.8,6.59-.43,8.81-.21,0-2.83,0-1.72,3.49S65.23,27,66.75,27.51Z"/><rect class="cls-1" x="74.54" y="44.26" width="5.62" height="4.34"/><path class="cls-1" d="M76.23,66.76V79.44h31.42C106,63.86,98.46,49.28,93.29,47.55a15.76,15.76,0,0,1-1.82-.76L80.9,59.8l-.75-8.53H74.54l-.76,8.53-10.55-13a13,13,0,0,1-1.83.76c-2.76.86-6.35,7.49-9.15,15.09l1.51,4.12Z"/><polyline class="cls-2" points="22.71 4.29 22.71 17.94 27.06 25.89"/></g></g></svg>