<svg xmlns="http://www.w3.org/2000/svg" viewBox="0 0 199.15 207.51"><defs><style>.cls-1{fill:#e8314b;}.cls-2{fill:none;}.cls-2,.cls-4{stroke:#333;stroke-miterlimit:10;}.cls-3{fill:#333;}.cls-4{fill:#fff;}</style></defs><g id="レイヤー_2" data-name="レイヤー 2"><g id="pc"><path class="cls-1" d="M79.18,25.22l15.9-.06-3.84,8.91q-.39.87-.84,2.1t-.93,2.64q-.48,1.41-.93,2.79c-.3.92-.58,1.78-.83,2.57s-.44,1.45-.58,2H82L83.32,44c.5-.85,1-1.76,1.56-2.72l1.6-2.86c.53-.95,1-1.83,1.43-2.64s.76-1.49,1-2l1.56-3.33h-9.6a2.06,2.06,0,0,0-1.41.45,3.26,3.26,0,0,0-.84,1.35h-.3Z"/><rect class="cls-2" x="18.08" y="0.5" width="180.57" height="206.51"/><path class="cls-3" d="M42.55,37.75a5.75,5.75,0,0,1-1.29,2.33,7.51,7.51,0,0,1-4.92,2.06c-.07,0-.1-.14,0-.16a7.88,7.88,0,0,0,3.62-2.07A5.62,5.62,0,0,0,41.2,37.7H38a6.51,6.51,0,0,0-1.16.11l-.15-.55a7,7,0,0,0,1.29.12h3.32a7.43,7.43,0,0,0,.19-1.67c1.46.15,1.77.24,1.77.46s-.12.23-.44.35a7.27,7.27,0,0,1-.17.86h3.58c.49-.54.6-.62.71-.62s.25.08.76.53c.22.2.3.3.3.41s0,.14-.37.38a9.12,9.12,0,0,1-.84,3.25,1.82,1.82,0,0,1-.76.6,2.54,2.54,0,0,1-.94.17c-.27,0-.35-.07-.41-.3-.11-.54-.32-.75-1.58-1.1-.07,0-.05-.21,0-.2,1.1.11,1.72.14,2,.14a.82.82,0,0,0,.83-.53,10.46,10.46,0,0,0,.46-2.41H42.56ZM39.06,35.6c0,.4-.24.54-.76.54s-.56-.11-.56-.49c0-.54,0-1.1,0-3.29,0-.87,0-1.73-.07-2.62a9.77,9.77,0,0,1,1.5.7h6.47c.51-.54.62-.63.73-.63s.27.09.79.48c.23.18.32.28.32.39s-.06.21-.41.46v.73c0,1.91.07,3.24.07,3.67s-.26.6-.77.6-.59-.12-.59-.5v-.32H39.06Zm2.69-2.93v-1.9H39.06v1.9ZM39.06,35h2.69V33H39.06Zm6.76-4.23H43v1.9h2.78Zm0,2.22H43v2h2.78Z"/><path class="cls-3" d="M52.81,33.89c0,.9-.33,1.65-1,1.65a.63.63,0,0,1-.61-.7.75.75,0,0,1,.39-.7,1.68,1.68,0,0,0,.85-1.69.07.07,0,0,1,.14,0A4.42,4.42,0,0,1,52.81,33.89Zm1.65-1.74c0,5,0,8.46,0,9.6,0,.42-.24.6-.76.6s-.63-.13-.63-.49c0-1,.07-4.23.07-10.58a14.06,14.06,0,0,0-.07-1.78c1.78.2,1.78.2,1.78.41s-.11.24-.43.36Zm.89,2.15c-.35,0-.44-.19-.44-.83a2.69,2.69,0,0,0-.35-1.39c-.05,0,0-.11.07-.08.86.49,1.27,1,1.27,1.65A.58.58,0,0,1,55.35,34.3Zm5,2.78h1c.67-.88.84-1,.94-1s.27.11,1,.68c.31.27.42.4.42.49s0,.14-.18.14H60.34v3.91H61.9c.74-.88.91-1,1-1s.28.11,1,.68c.34.28.45.4.45.49s0,.15-.18.15H56.42a9.07,9.07,0,0,0-1.18.08l-.15-.52a7.54,7.54,0,0,0,1.24.11H59V37.4H57.27a5.34,5.34,0,0,0-.89.09L56.22,37a5.17,5.17,0,0,0,1,.11H59V33.85H57.29a7.88,7.88,0,0,1-2.13,2.74c-.06,0-.17-.07-.13-.12a13,13,0,0,0,1.4-3.6,11.34,11.34,0,0,0,.3-2c1.76.47,1.76.47,1.76.68s0,.18-.46.35a14.49,14.49,0,0,1-.59,1.63H59v-1.9a17.21,17.21,0,0,0-.08-2c1.81.16,2,.33,2,.49s-.17.26-.51.37v3h1.44c.62-.85.79-1,.89-1s.26.11.91.67c.29.25.4.38.4.48s0,.14-.18.14H60.34Z"/><path class="cls-1" d="M168.27,31a5.71,5.71,0,0,1,1-3.4,6.1,6.1,0,0,1,2.65-2.13,9.26,9.26,0,0,1,3.75-.74,10.54,10.54,0,0,1,3.68.63,6.88,6.88,0,0,1,2.73,1.79,3.88,3.88,0,0,1,1,2.68,3.29,3.29,0,0,1-.9,2.36,5.54,5.54,0,0,1-2.25,1.41,8.33,8.33,0,0,1-2.73.46h-1A1.9,1.9,0,0,0,177.37,33a6.65,6.65,0,0,0,.61-1.89,10.09,10.09,0,0,0,.13-1.79,3.7,3.7,0,0,0-.67-2.11,2.36,2.36,0,0,0-1.88-.95,2,2,0,0,0-1.73.68,2.76,2.76,0,0,0-.61,1.84,2.6,2.6,0,0,0,.4,1.46A4.88,4.88,0,0,0,175,31.51c.64.43,1.53.95,2.67,1.57,1,.5,1.85,1,2.69,1.43a15.5,15.5,0,0,1,2.2,1.44A5.55,5.55,0,0,1,184,37.72a5.33,5.33,0,0,1,.52,2.44,5.43,5.43,0,0,1-1.17,3.54,7,7,0,0,1-3.29,2.16,15.29,15.29,0,0,1-4.93.72,18.43,18.43,0,0,1-2.85-.22,10.27,10.27,0,0,1-2.66-.78A4.83,4.83,0,0,1,167.71,44a4.35,4.35,0,0,1-.73-2.61,4.64,4.64,0,0,1,.58-2.4,5.09,5.09,0,0,1,1.49-1.6,8.22,8.22,0,0,1,1.86-1,9.4,9.4,0,0,1,1.75-.47,8.8,8.8,0,0,1,1.13-.12l1.44-.33A4.38,4.38,0,0,0,173,37.15a5.5,5.5,0,0,0-.9,3.34,5.25,5.25,0,0,0,.9,3.27,3.37,3.37,0,0,0,2.46,1.32,4.19,4.19,0,0,0,1.82-.21,3,3,0,0,0,1.31-.91,2.19,2.19,0,0,0,.27-2.37,3.29,3.29,0,0,0-.76-1,10.51,10.51,0,0,0-1.45-1.07c-.62-.38-1.38-.8-2.3-1.26q-.81-.42-1.83-1a12.06,12.06,0,0,1-2-1.39,6.75,6.75,0,0,1-1.59-2A6.17,6.17,0,0,1,168.27,31Z"/><path class="cls-3" d="M137.42,33.71a11.94,11.94,0,0,1-2.13,4.73c2.28,1,3.64,2,3.64,2.84,0,.58-.24.91-.65.91-.26,0-.44-.11-.78-.43a20.82,20.82,0,0,0-2.93-2.51,11,11,0,0,1-7,2.92c-.07,0-.11-.21,0-.23a12,12,0,0,0,6-3.36,24.63,24.63,0,0,0-2.35-1.19l-.35.6c-.2.28-.31.35-.58.35-.52,0-.85-.15-.85-.39a1.42,1.42,0,0,1,.22-.52,23.93,23.93,0,0,0,1.82-3.72h-2.31a11.46,11.46,0,0,0-1.34.08l-.16-.52a9.33,9.33,0,0,0,1.49.11h2.45c.1-.26.2-.51.28-.77a14,14,0,0,0,.76-3c1.66.33,1.82.4,1.82.61s-.12.26-.54.4c-.3,1-.61,1.93-.92,2.78h5.07c.73-.89.9-1,1-1s.27.11,1,.7c.3.26.42.39.42.49s-.05.14-.19.14Zm-4.56,0a26.39,26.39,0,0,1-1.5,3.4,27,27,0,0,1,2.72.84A11.45,11.45,0,0,0,136,33.71Z"/><path class="cls-3" d="M144.37,33.89c0,.9-.32,1.65-1,1.65a.63.63,0,0,1-.62-.7.75.75,0,0,1,.39-.7,1.69,1.69,0,0,0,.86-1.69.07.07,0,0,1,.14,0A4.41,4.41,0,0,1,144.37,33.89ZM146,32.15c0,5,0,8.46,0,9.6,0,.42-.23.6-.75.6s-.63-.13-.63-.49c0-1,.07-4.23.07-10.58a16.26,16.26,0,0,0-.07-1.78c1.78.2,1.78.2,1.78.41s-.12.24-.44.36Zm.9,2.15c-.35,0-.45-.19-.45-.83a2.69,2.69,0,0,0-.35-1.39s0-.11.07-.08c.87.49,1.27,1,1.27,1.65A.58.58,0,0,1,146.92,34.3Zm5,2.78h1c.67-.88.84-1,.93-1s.27.11,1,.68c.3.27.42.4.42.49s0,.14-.18.14h-3.11v3.91h1.55c.74-.88.91-1,1-1s.28.11,1,.68c.33.28.45.4.45.49s-.05.15-.19.15H148a8.83,8.83,0,0,0-1.17.08l-.16-.52a7.65,7.65,0,0,0,1.25.11h2.62V37.4h-1.68a5.45,5.45,0,0,0-.9.09l-.15-.52a5,5,0,0,0,1,.11h1.71V33.85h-1.67a7.88,7.88,0,0,1-2.13,2.74c-.05,0-.17-.07-.12-.12a13.28,13.28,0,0,0,1.4-3.6,12.33,12.33,0,0,0,.29-2c1.77.47,1.77.47,1.77.68s0,.18-.47.35a14.55,14.55,0,0,1-.58,1.63h1.51v-1.9a16.78,16.78,0,0,0-.09-2c1.81.16,2,.33,2,.49s-.17.26-.5.37v3h1.44c.61-.85.78-1,.88-1s.27.11.91.67c.3.25.41.38.41.48s0,.14-.18.14h-3.46Z"/><path class="cls-1" d="M93.46,93.48l.12.21a19.1,19.1,0,0,0-5,2.22A8.05,8.05,0,0,0,85.9,98.7a9.46,9.46,0,0,0-1.05,3.52,42.4,42.4,0,0,0-.21,4.46c0,1.66,0,3,.12,4.15a6,6,0,0,0,.6,2.49,1.67,1.67,0,0,0,1.56.83,2,2,0,0,0,1.68-.74,4.31,4.31,0,0,0,.78-1.92,14.47,14.47,0,0,0,.21-2.53,14.22,14.22,0,0,0-.19-2.67,3.86,3.86,0,0,0-.53-1.43,1.75,1.75,0,0,0-.78-.64,1.85,1.85,0,0,0-1.26-.09,4.2,4.2,0,0,0-1,.42l-.24-.24a3.46,3.46,0,0,1,1.34-1.55A5.3,5.3,0,0,1,89,102a6.13,6.13,0,0,1,2.37.1,5.63,5.63,0,0,1,2.21,1.08,5.55,5.55,0,0,1,1.6,2.13,7.54,7.54,0,0,1,.54,3.32,7.7,7.7,0,0,1-1,3.66,6.67,6.67,0,0,1-2.85,2.62A11.21,11.21,0,0,1,87,116a10.67,10.67,0,0,1-5-1,6.74,6.74,0,0,1-3.09-3.25,13.21,13.21,0,0,1-1-5.64,16.16,16.16,0,0,1,1-5.75,10.23,10.23,0,0,1,2.91-4.21,11.46,11.46,0,0,1,4.88-2.39A19.21,19.21,0,0,1,93.46,93.48Z"/><path class="cls-3" d="M44.38,101.84a13.62,13.62,0,0,1-2.67,5.61,14.14,14.14,0,0,0,5.94,2.69c.07,0,.07.16,0,.17a1.3,1.3,0,0,0-1,1c-.07.2-.14.25-.29.25a3,3,0,0,1-.79-.25,13.76,13.76,0,0,1-4.38-3l-.14-.14a14,14,0,0,1-6.4,3.38c-.07,0-.16-.14-.09-.17a16.29,16.29,0,0,0,5.7-4.15,15,15,0,0,1-2.46-5.43h-2a6.12,6.12,0,0,0-1,.08l-.16-.52a5.6,5.6,0,0,0,1.14.12h4.41V99.88a6.46,6.46,0,0,0-.09-.93c1.77.16,1.92.31,1.92.46s-.14.24-.44.35v1.76H44.9c.8-.85,1-1,1.07-1s.28.11,1,.66c.31.25.42.38.42.48s0,.14-.18.14Zm-6.27,0a15,15,0,0,0,2.67,4.72,13.92,13.92,0,0,0,2.1-4.72Z"/><path class="cls-3" d="M54.32,108.32A8.46,8.46,0,0,1,50.65,111c-.07,0-.18-.12-.13-.16a10.38,10.38,0,0,0,2-2.28,7.67,7.67,0,0,0,.71-1.44c1.25.5,1.6.7,1.6.91S54.73,108.29,54.32,108.32Zm1.37-1.79c-1.08.11-2.32.22-4,.35-.12.38-.21.5-.38.5s-.22,0-.57-1.8a13.21,13.21,0,0,0,2.61.16h1.35a16.26,16.26,0,0,0,2.76-2.91,9,9,0,0,0,.9-1.42c1.15.53,1.6.82,1.6,1s-.16.25-.65.25a17.73,17.73,0,0,1-3.93,3.06c1.59,0,3.2-.14,4.82-.28a5.72,5.72,0,0,0-1.07-1.1c-.06,0,0-.15.08-.14,1.83.45,2.83,1.21,2.83,2.12a.72.72,0,0,1-.67.8c-.28,0-.46-.16-.63-.56a6.36,6.36,0,0,0-.33-.76c-1.11.21-2.22.41-3.34.56v1.49c0,1.21,0,2.73,0,3.23s-.28.58-.81.58-.63-.13-.63-.49c0-.19,0-.75,0-1.87Zm-1-4.78a7.47,7.47,0,0,0,.39-.85A36.43,36.43,0,0,1,51,101c-.07,0-.09-.21,0-.21a34.19,34.19,0,0,0,6.62-1.21,8.41,8.41,0,0,0,2.19-.92c1.05.73,1.38,1,1.38,1.22s-.18.25-.81.14a27.62,27.62,0,0,1-4.71.87c.94.36,1.1.46,1.1.6s-.11.21-.59.24a7.35,7.35,0,0,1-1.49,1.23,1.33,1.33,0,0,1,.63,1.06.7.7,0,0,1-.67.77c-.35,0-.43-.11-.77-.86a3.87,3.87,0,0,0-1.26-1.63s0-.15.09-.14a6.6,6.6,0,0,1,1.49.51A6.66,6.66,0,0,0,54.71,101.75Zm6.08,8.79c-.36,0-.49-.12-.81-.8a7,7,0,0,0-1.79-2.36c-.06,0,0-.16.08-.14,2,.66,3.31,1.6,3.31,2.5A.78.78,0,0,1,60.79,110.54Z"/><path class="cls-1" d="M168.21,116.64l-.12-.21a19.19,19.19,0,0,0,5-2.22,8,8,0,0,0,2.65-2.79,9.51,9.51,0,0,0,1-3.53,42.2,42.2,0,0,0,.21-4.45c0-1.66,0-3-.12-4.16a6.15,6.15,0,0,0-.58-2.49,1.66,1.66,0,0,0-1.58-.82,2,2,0,0,0-1.68.73,4.32,4.32,0,0,0-.78,1.91,14.46,14.46,0,0,0-.21,2.55,14.07,14.07,0,0,0,.2,2.67,3.62,3.62,0,0,0,.54,1.42,1.82,1.82,0,0,0,2,.74,4.21,4.21,0,0,0,1-.42l.21.24a3.6,3.6,0,0,1-1.32,1.53,5.07,5.07,0,0,1-2.07.78,6.13,6.13,0,0,1-2.37-.11,5.59,5.59,0,0,1-2.2-1.08,5.53,5.53,0,0,1-1.61-2.14,7.53,7.53,0,0,1-.54-3.3,7.81,7.81,0,0,1,1-3.66,6.66,6.66,0,0,1,2.85-2.64,10.88,10.88,0,0,1,4.89-1q4.41-.06,6.77,2.34t2.35,7.56a16.11,16.11,0,0,1-1,5.74,10.26,10.26,0,0,1-2.91,4.22,11.43,11.43,0,0,1-4.86,2.38A19.27,19.27,0,0,1,168.21,116.64Z"/><path class="cls-3" d="M129,107.31c.69-.23,1.36-.49,1.89-.71.07,0,.14.11.08.15a16.09,16.09,0,0,1-3.89,2.48c0,.45-.1.61-.29.61s-.38-.31-1-1.69a11.77,11.77,0,0,0,1.25-.26c.21-.06.44-.11.66-.18v-3.6h-.62a3.8,3.8,0,0,0-.77.08l-.15-.52a3.46,3.46,0,0,0,.89.11h.65v-3.32H127a4,4,0,0,0-.77.09L126,100a3.83,3.83,0,0,0,.88.11h2c.49-.64.66-.75.75-.75s.28.11.82.53c.22.18.33.31.33.4s0,.14-.18.14H129v3.32h.11c.39-.57.56-.68.66-.68s.27.11.7.49c.17.15.28.28.28.38s0,.14-.18.14H129Zm6.21.31h1c.73-.81.9-.92,1-.92s.28.11.92.64c.28.24.39.37.39.46s0,.14-.18.14h-3.09v2.6h1.51c.8-.85,1-1,1.06-1s.28.11.95.68c.3.23.41.36.41.46s0,.14-.18.14H130.6a6.48,6.48,0,0,0-.91.08l-.16-.52a4.57,4.57,0,0,0,1,.12h3.39v-2.6h-2a5,5,0,0,0-.88.09l-.16-.52a4.83,4.83,0,0,0,1,.11h2.08v-2.31h-1.61v.35c0,.35-.23.49-.79.49-.4,0-.57-.14-.57-.49s.09-1.47.09-4c0-.85,0-1.29-.09-2.58a13.25,13.25,0,0,1,1.46.73h4.43c.46-.53.57-.61.68-.61s.27.08.83.53c.25.21.34.31.34.42s-.13.26-.51.49v.81c0,2.14.06,3.61.06,4.1s-.23.52-.8.52c-.36,0-.52-.12-.52-.45v-.29h-1.73Zm-1.27-5.28v-2.23h-1.61v2.23Zm0,2.65v-2.33h-1.61V105Zm3-2.65v-2.23h-1.73v2.23Zm0,2.65v-2.33h-1.73V105Z"/><path class="cls-3" d="M145.88,108.32a8.46,8.46,0,0,1-3.67,2.71c-.07,0-.18-.12-.12-.16a10.58,10.58,0,0,0,2-2.28,7.74,7.74,0,0,0,.72-1.44c1.24.5,1.59.7,1.59.91S146.29,108.29,145.88,108.32Zm1.38-1.79c-1.08.11-2.33.22-4,.35-.13.38-.21.5-.38.5s-.23,0-.58-1.8a13.21,13.21,0,0,0,2.61.16h1.36a16.62,16.62,0,0,0,2.76-2.91,9.61,9.61,0,0,0,.89-1.42c1.15.53,1.6.82,1.6,1s-.15.25-.64.25a18,18,0,0,1-3.94,3.06c1.6,0,3.21-.14,4.82-.28a5.64,5.64,0,0,0-1.06-1.1c-.06,0,0-.15.08-.14,1.82.45,2.83,1.21,2.83,2.12a.72.72,0,0,1-.67.8c-.28,0-.47-.16-.63-.56a8.32,8.32,0,0,0-.34-.76c-1.11.21-2.21.41-3.33.56v1.49c0,1.21,0,2.73,0,3.23s-.28.58-.81.58-.63-.13-.63-.49c0-.19,0-.75,0-1.87Zm-1-4.78c.14-.26.26-.54.39-.85a36.52,36.52,0,0,1-4.09.07c-.07,0-.1-.21,0-.21a34.3,34.3,0,0,0,6.63-1.21,8.47,8.47,0,0,0,2.18-.92c1,.73,1.39,1,1.39,1.22s-.18.25-.81.14a27.62,27.62,0,0,1-4.71.87c.94.36,1.09.46,1.09.6s-.11.21-.59.24a7.28,7.28,0,0,1-1.48,1.23,1.33,1.33,0,0,1,.63,1.06.7.7,0,0,1-.67.77c-.35,0-.44-.11-.77-.86a4,4,0,0,0-1.26-1.63c-.06,0,0-.15.08-.14a6.7,6.7,0,0,1,1.5.51A9.85,9.85,0,0,0,146.28,101.75Zm6.08,8.79c-.37,0-.49-.12-.82-.8a6.82,6.82,0,0,0-1.79-2.36c-.06,0,0-.16.08-.14,2,.66,3.31,1.6,3.31,2.5A.77.77,0,0,1,152.36,110.54Z"/><path class="cls-1" d="M80.17,187.47l-.12-.21a19.19,19.19,0,0,0,5-2.22,8,8,0,0,0,2.65-2.79,9.51,9.51,0,0,0,1-3.53,42.2,42.2,0,0,0,.21-4.45c0-1.66,0-3.05-.12-4.16a6.15,6.15,0,0,0-.58-2.49,1.66,1.66,0,0,0-1.58-.82,2,2,0,0,0-1.68.73,4.32,4.32,0,0,0-.78,1.91A14.46,14.46,0,0,0,84,172a14.07,14.07,0,0,0,.2,2.67,3.62,3.62,0,0,0,.54,1.42,1.82,1.82,0,0,0,2,.74,4.21,4.21,0,0,0,1-.42l.21.24a3.6,3.6,0,0,1-1.32,1.53,5.07,5.07,0,0,1-2.07.78,6.13,6.13,0,0,1-2.37-.11,5.59,5.59,0,0,1-2.2-1.08,5.53,5.53,0,0,1-1.61-2.14,7.53,7.53,0,0,1-.54-3.3,7.81,7.81,0,0,1,1-3.66A6.66,6.66,0,0,1,81.73,166a10.88,10.88,0,0,1,4.89-1q4.41-.06,6.77,2.34t2.35,7.56a16.11,16.11,0,0,1-1,5.74,10.26,10.26,0,0,1-2.91,4.22A11.43,11.43,0,0,1,87,187.24,19.27,19.27,0,0,1,80.17,187.47Z"/><path class="cls-3" d="M37.67,170.41c.38-.46.49-.54.61-.54s.23.08.74.57c.22.21.31.32.31.44s0,.15-.4.25A20.14,20.14,0,0,1,37,174.22c1.33,1.17,1.81,2.06,1.81,3.31A2.09,2.09,0,0,1,38.4,179a1.33,1.33,0,0,1-1,.39c-.21,0-.28-.08-.3-.31,0-.5-.19-.68-.81-.91,0,1.56,0,3.24,0,3.67s-.31.62-.77.62S35,182.31,35,182s0-3.14,0-7c0-3.34,0-4.12-.08-5.24.68.29.78.34,1.43.67ZM36.3,178a8.77,8.77,0,0,0,.88,0,.56.56,0,0,0,.37-.1c.15-.13.18-.41.18-1a3.71,3.71,0,0,0-1-2.66,24.18,24.18,0,0,0,1-3.55H36.3Zm8.31,2.8c0,.28.08.32.68.32.44,0,.7,0,.89-.24a4.8,4.8,0,0,0,.74-1.9c0-.07.21,0,.21,0,0,.67-.11,1.26-.11,1.54s.07.29.25.42.33.23.33.49-.22.51-.71.66a7.14,7.14,0,0,1-1.76.16c-1.39,0-1.87-.29-1.87-1.15,0-.14,0-.6,0-1.21v-3.44H42.17c-.07,3.28-1.63,5.12-4.92,5.86-.07,0-.14-.15-.07-.18,2.52-1.21,3.49-2.75,3.59-5.68h-.86a4,4,0,0,0-.77.09L39,176a4.08,4.08,0,0,0,.92.11h5.47c.49-.67.66-.78.75-.78s.28.11.84.56c.24.18.35.31.35.4s0,.14-.18.14H44.61Zm1.12-9c.47-.53.59-.62.7-.62s.25.09.87.65c.28.25.36.36.36.47s-.17.26-.49.26a.67.67,0,0,0-.53.18,5.7,5.7,0,0,1-.93.57c-.05,0-.14,0-.11-.08a6.75,6.75,0,0,0,.24-1.11H40.12c.05,1.15-.33,1.84-1,1.84a.63.63,0,0,1-.61-.65c0-.26.14-.46.49-.71a1.57,1.57,0,0,0,.86-1.42c0-.07.12-.09.14,0,0,.23.08.44.1.65h2.14v-1.08a10.18,10.18,0,0,0-.07-1.11c1.61.14,1.76.27,1.76.4s-.12.23-.39.35v1.44ZM44.26,174c.56-.66.73-.77.82-.77s.28.11.83.54c.24.18.35.31.35.41s0,.14-.18.14H41a4.79,4.79,0,0,0-.78.08l-.15-.52A3.7,3.7,0,0,0,41,174Z"/><path class="cls-3" d="M56.84,178.56c0,1.81,0,3.06,0,3.49s-.25.55-.81.55-.59-.11-.59-.5.07-1.42.07-3.54h-4.4a6.94,6.94,0,0,0-1,.09l-.15-.52a5.6,5.6,0,0,0,1.15.11h4.42c0-.49,0-1,0-1.47a.67.67,0,0,1-.42.16c-.27,0-.38-.13-.61-.7a4.76,4.76,0,0,0-.85-1.46,7.8,7.8,0,0,1-3.15,2.93c-.06,0-.18-.1-.13-.14a8.69,8.69,0,0,0,2.37-3.6,7.81,7.81,0,0,0,.38-1.57c1.33.36,1.75.54,1.75.74s-.13.22-.53.28c-.17.38-.34.73-.52,1.05,1.4.55,2,1,2,1.64a.93.93,0,0,1-.17.53c1.53.16,1.7.18,1.7.39s-.09.2-.48.4v.82h3.63c.73-.82.9-.94,1-.94s.28.12,1,.65c.3.25.42.38.42.48s-.05.13-.19.13Zm-1.36-8.19a7.18,7.18,0,0,0-.07-.81c1.74.15,1.91.31,1.91.45s-.16.26-.49.39v1.26h3.4c.77-.85.94-1,1-1s.26.12.92.68c.3.25.41.37.41.47s0,.14-.18.14H51.27a6.48,6.48,0,0,0-1,.09l-.15-.52a6.11,6.11,0,0,0,1.12.11h4.24Zm1,6.19c-.06,0-.15-.1-.11-.15a7.55,7.55,0,0,0,1.33-2.4,8.07,8.07,0,0,0,.38-1.58c1.55.43,1.77.53,1.77.74s-.15.27-.57.34a10.39,10.39,0,0,1-.53,1c1.9.6,2.73,1.21,2.73,2a.71.71,0,0,1-.66.78c-.32,0-.45-.11-.82-.84a6.59,6.59,0,0,0-1.42-1.69A5.54,5.54,0,0,1,56.52,176.56Z"/><path class="cls-1" d="M181.5,164.31l.12.21a19.1,19.1,0,0,0-5,2.22,8.05,8.05,0,0,0-2.66,2.79,9.46,9.46,0,0,0-1.05,3.52,42.4,42.4,0,0,0-.21,4.46c0,1.66,0,3,.12,4.15a6,6,0,0,0,.6,2.49A1.67,1.67,0,0,0,175,185a2,2,0,0,0,1.68-.74,4.31,4.31,0,0,0,.78-1.92,14.47,14.47,0,0,0,.21-2.53,14.22,14.22,0,0,0-.19-2.67,3.86,3.86,0,0,0-.53-1.43,1.75,1.75,0,0,0-.78-.64,1.85,1.85,0,0,0-1.26-.09,4.2,4.2,0,0,0-1,.42l-.24-.24a3.46,3.46,0,0,1,1.34-1.55,5.3,5.3,0,0,1,2.08-.76,6.13,6.13,0,0,1,2.37.1,5.63,5.63,0,0,1,2.21,1.08,5.55,5.55,0,0,1,1.6,2.13,7.54,7.54,0,0,1,.54,3.32,7.7,7.7,0,0,1-1,3.66,6.67,6.67,0,0,1-2.85,2.62,11.21,11.21,0,0,1-4.88,1,10.67,10.67,0,0,1-5-1,6.74,6.74,0,0,1-3.09-3.25,13.21,13.21,0,0,1-1-5.64,16.16,16.16,0,0,1,1-5.75,10.23,10.23,0,0,1,2.91-4.21,11.46,11.46,0,0,1,4.88-2.39A19.21,19.21,0,0,1,181.5,164.31Z"/><path class="cls-3" d="M118.81,172.64a18.4,18.4,0,0,0,.9-1.62,11.79,11.79,0,0,0,.5-1.28c1.26.57,1.67.81,1.67,1s-.17.27-.65.27a12.59,12.59,0,0,1-1.93,1.64h2.17c.58-.62.69-.7.8-.7s.24.08.88.73c.28.29.37.4.37.52s-.07.26-.61.3c-.22,0-.23,0-.33.12a7,7,0,0,1-1.32.86c-.05,0-.15,0-.12-.11a8.09,8.09,0,0,0,.44-1.4h-8.9c.09,1.19-.34,1.93-1.1,1.93a.7.7,0,0,1-.73-.74.69.69,0,0,1,.44-.67,1.58,1.58,0,0,0,1-1.53c0-.07.13-.08.14,0a4,4,0,0,1,.15.7Zm-2.49,4.64a9,9,0,0,0,0-1.05l1.12.18a9,9,0,0,0,1.42-1.61h-4.58a2.75,2.75,0,0,0-.79.11l-.16-.55a3.56,3.56,0,0,0,.91.11h4.65c.58-.51.69-.6.8-.6s.25.09.8.58c.24.21.32.31.32.42s-.15.26-.68.28a13.77,13.77,0,0,1-2.23,1.36c.26.07.26.12.26.22s-.12.24-.49.41v.43h3.42c.72-.88.88-1,1-1s.28.11,1,.68c.33.28.44.39.44.49s0,.14-.18.14h-5.69v1.49c0,.77.05,1.13.05,1.66a1.47,1.47,0,0,1-.26.91,1.59,1.59,0,0,1-1.41.52c-.27,0-.3-.05-.35-.36-.07-.51-.48-.74-1.6-1-.07,0,0-.2,0-.2.77.06,1.49.1,2,.1.17,0,.24-.06.24-.21v-2.89h-4.43a5,5,0,0,0-.88.09l-.16-.52a4.8,4.8,0,0,0,1,.11h4.49Zm-2-4.81c-.38,0-.52-.18-.67-.88a3.18,3.18,0,0,0-.76-1.47c0-.06,0-.16.09-.14,1.48.42,2.1.94,2.1,1.68A.77.77,0,0,1,114.3,172.47Zm2.94-.24c-.4,0-.5-.14-.64-.89a3.31,3.31,0,0,0-.76-1.56c0-.05,0-.15.07-.12,1.47.49,2.12,1,2.12,1.8A.75.75,0,0,1,117.24,172.23Z"/><path class="cls-3" d="M130.29,175.4c.24-.6.47-1.32.64-1.92a5.12,5.12,0,0,0,.23-1.16c1.31.4,1.72.6,1.72.77s-.13.24-.52.28a15.09,15.09,0,0,1-1.71,2h1.14c.64-.81.81-.93.91-.93s.26.12.89.65c.28.24.4.36.4.46s-.05.14-.19.14h-6.64a5.68,5.68,0,0,0-.93.09l-.16-.52a5.89,5.89,0,0,0,1.09.11Zm-1-4.82a6.79,6.79,0,0,0-.07-.88c1.65.15,1.81.29,1.81.43s-.14.26-.44.39v1.12h1c.6-.71.77-.82.87-.82s.28.11.89.59c.27.21.38.32.38.42s0,.14-.18.14H127.3a5.13,5.13,0,0,0-.79.08l-.16-.52a3.9,3.9,0,0,0,1,.11h2Zm-.92,10.52v.63c0,.34-.27.52-.75.52s-.57-.14-.57-.46,0-.69,0-2.06c0-1.07,0-2.15,0-3.22.68.29.78.33,1.47.68h2.76c.49-.59.6-.67.71-.67s.27.08.8.5c.24.19.32.28.32.4s-.05.21-.4.47v.62c0,1.6,0,2.67,0,3s-.25.53-.76.53-.56-.15-.56-.46v-.52Zm.28-6.06c-.35,0-.51-.19-.55-.66a3.21,3.21,0,0,0-.6-1.84s.08-.14.14-.11c1.2.62,1.75,1.18,1.75,1.84A.74.74,0,0,1,128.61,175Zm2.77,2.47h-3v3.27h3Zm5.76-7c.49-.54.6-.63.71-.63s.24.09.83.61c.25.23.34.35.34.46s-.07.21-.48.31a28.39,28.39,0,0,1-2.3,3.57c1.92,1.26,2.58,2.21,2.58,3.66a1.91,1.91,0,0,1-.66,1.58,1.65,1.65,0,0,1-1,.32c-.18,0-.24-.08-.34-.42s-.39-.62-1.24-.84c-.07,0-.07-.21,0-.21.47,0,1.09,0,1.45,0a.53.53,0,0,0,.37-.1c.14-.11.16-.36.16-.86a3.89,3.89,0,0,0-1.62-3.1,31.93,31.93,0,0,0,1.26-4.06h-1.91v9c0,1.15,0,1.7,0,2.06s-.3.53-.75.53-.55-.18-.55-.45c0-.47,0-1.89,0-7.78,0-2.47,0-3.59-.07-4.39a5.84,5.84,0,0,1,1.4.67Z"/><path class="cls-3" d="M148.41,178.56c0,1.81,0,3.06,0,3.49s-.25.55-.81.55-.59-.11-.59-.5.07-1.42.07-3.54h-4.4a6.72,6.72,0,0,0-1,.09l-.16-.52a5.6,5.6,0,0,0,1.15.11h4.43q0-.74-.06-1.47a.65.65,0,0,1-.42.16c-.27,0-.38-.13-.6-.7a4.58,4.58,0,0,0-.86-1.46A7.73,7.73,0,0,1,142,177.7c-.05,0-.18-.1-.12-.14a8.66,8.66,0,0,0,2.36-3.6,7.19,7.19,0,0,0,.38-1.57c1.33.36,1.75.54,1.75.74s-.12.22-.53.28c-.17.38-.34.73-.52,1.05,1.4.55,2,1,2,1.64a.93.93,0,0,1-.17.53c1.52.16,1.69.18,1.69.39s-.08.2-.47.4v.82H152c.73-.82.9-.94,1-.94s.28.12.95.65c.31.25.42.38.42.48s0,.13-.18.13Zm-1.36-8.19a7.18,7.18,0,0,0-.07-.81c1.73.15,1.9.31,1.9.45s-.15.26-.49.39v1.26h3.41c.77-.85.93-1,1-1s.27.12.93.68c.29.25.4.37.4.47s0,.14-.18.14H142.83a6.47,6.47,0,0,0-1,.09l-.16-.52a6.19,6.19,0,0,0,1.12.11h4.25Zm1,6.19c-.05,0-.15-.1-.11-.15a7.55,7.55,0,0,0,1.33-2.4,8.07,8.07,0,0,0,.38-1.58c1.56.43,1.78.53,1.78.74s-.15.27-.57.34a8.46,8.46,0,0,1-.54,1c1.91.6,2.73,1.21,2.73,2a.71.71,0,0,1-.65.78c-.33,0-.45-.11-.83-.84a6.39,6.39,0,0,0-1.42-1.69A5.47,5.47,0,0,1,148.08,176.56Z"/><line class="cls-2" x1="198.65" y1="69.34" x2="18.08" y2="69.34"/><line class="cls-2" x1="198.65" y1="140.17" x2="18.08" y2="140.17"/><polyline class="cls-4" points="19.89 169.29 1.12 178.08 20.08 188.05"/></g></g></svg>