<svg xmlns="http://www.w3.org/2000/svg" viewBox="0 0 63.77 81.4"><defs><style>.cls-1{fill:#333;}</style></defs><g id="レイヤー_2" data-name="レイヤー 2"><g id="pc"><path class="cls-1" d="M63.21,68.32a13.26,13.26,0,0,0-1.32-3.21,13,13,0,0,0-3.69-4,20.74,20.74,0,0,0-3.37-2c-1.73-.81-3.51-1.44-5.15-2a26.8,26.8,0,0,1-4.31-1.88,8.58,8.58,0,0,1-1.15-.79,5.38,5.38,0,0,1-1.16-1.35,4.45,4.45,0,0,1-.54-1.74c-.05-.5-.07-1-.07-1.41a16.59,16.59,0,0,1,.44-3.61,16.19,16.19,0,0,0,2-3,32.35,32.35,0,0,0,1.84-4.21,7.9,7.9,0,0,0,1.16-.65A8.08,8.08,0,0,0,50.3,36a12.79,12.79,0,0,0,1.62-4.09,6.46,6.46,0,0,0,.15-1.37,6.3,6.3,0,0,0-.59-2.64,6.76,6.76,0,0,0-1-1.53c.2-.73.44-1.7.65-2.84A30.8,30.8,0,0,0,51.68,18a20.41,20.41,0,0,0-.36-3.94,14.09,14.09,0,0,0-.89-2.9,10.71,10.71,0,0,0-2.74-3.83A11.32,11.32,0,0,0,43.38,5,16.52,16.52,0,0,0,41.1,2.76,12.06,12.06,0,0,0,37,.58,14.63,14.63,0,0,0,32.71,0c-.75,0-1.5,0-2.25.11s-1.3.14-1.82.23a11.9,11.9,0,0,0-2.06.52c-.63.21-1.23.47-2,.78-.3.12-.7.29-1.17.53a21.59,21.59,0,0,0-3.05,1.89A19.57,19.57,0,0,0,15.25,9.6a17.5,17.5,0,0,0-1.82,4.16,18.71,18.71,0,0,0-.7,5.13,22,22,0,0,0,.32,3.69v.26c0,.16,0,.33,0,.5s.06.52.08.75,0,.21,0,.28v.12h0v.15l.31,1.4a7.35,7.35,0,0,0-1.15,1.66,6.37,6.37,0,0,0-.68,2.82,5.86,5.86,0,0,0,.16,1.36,13.88,13.88,0,0,0,1,2.92,9.06,9.06,0,0,0,2.17,3,7.73,7.73,0,0,0,2,1.31,32.29,32.29,0,0,0,1.85,4.21,15.18,15.18,0,0,0,2,3,17.34,17.34,0,0,1,.43,3.62,14,14,0,0,1-.07,1.41A4.75,4.75,0,0,1,21,52.6a4.5,4.5,0,0,1-1,1.47,7.7,7.7,0,0,1-1.7,1.24,19.18,19.18,0,0,1-2.35,1.11c-1.51.61-3.24,1.19-5,1.89A27.48,27.48,0,0,0,7,60.18a16.06,16.06,0,0,0-2.71,2,12.35,12.35,0,0,0-3.1,4.38A16.29,16.29,0,0,0,0,72.92a2.78,2.78,0,0,0,.19,1,3.33,3.33,0,0,0,.46.8A5.74,5.74,0,0,0,2,76a16,16,0,0,0,3.89,2A47.92,47.92,0,0,0,16,80.41a114.07,114.07,0,0,0,15.91,1A120.29,120.29,0,0,0,46,80.64a66.14,66.14,0,0,0,7.67-1.35A36,36,0,0,0,57.92,78a19.45,19.45,0,0,0,2.39-1.07,11.72,11.72,0,0,0,1.38-.85,6.32,6.32,0,0,0,1.46-1.4,3.63,3.63,0,0,0,.45-.82,2.75,2.75,0,0,0,.17-1A17.57,17.57,0,0,0,63.21,68.32Zm-34.1,1.2-9.38-12a10.82,10.82,0,0,0,1.38-.94,8,8,0,0,0,1.28-1.26l6.82,3.17-1.45,2.43L30,63.31Zm-5.75-15.8a7.18,7.18,0,0,0,.53-2.11A14.15,14.15,0,0,0,24,49.93a20.41,20.41,0,0,0-.57-4.53L23.33,45l-.26-.27a12.46,12.46,0,0,1-1.88-2.71,30.14,30.14,0,0,1-1.88-4.4l-.21-.59-.59-.21a5.45,5.45,0,0,1-2.8-2.3,10.33,10.33,0,0,1-1.26-3.25,3.49,3.49,0,0,1,.31-2.41,4.7,4.7,0,0,1,.87-1.2,19.05,19.05,0,0,0,1.3,1.84c.6.6.41.41.61.12,0,0,.68-1,4.27-7.93,7.17,1.59,19.71-9.19,19.71-9.19a13.24,13.24,0,0,0,2.54,6.67c2.27,3,3.57,10.13,3.57,10.13s.3-.59.76-1.37a4.48,4.48,0,0,1,.68,1,3.7,3.7,0,0,1,.34,1.52,3.59,3.59,0,0,1-.08.79,12.14,12.14,0,0,1-.79,2.37A6.45,6.45,0,0,1,47,35.82a5.33,5.33,0,0,1-1.74,1l-.59.22-.21.59a32.5,32.5,0,0,1-1.88,4.4,12.47,12.47,0,0,1-1.89,2.71l-.25.27-.08.36a20.45,20.45,0,0,0-.58,4.53,16.64,16.64,0,0,0,.09,1.68,7.37,7.37,0,0,0,.46,1.93.59.59,0,0,0,0,.08L32.3,57.87ZM35.31,70l-1-6.65,2.26-2.39-1.47-2.44,6.18-3.25a8.14,8.14,0,0,0,.54.63,9.85,9.85,0,0,0,2.08,1.6Z"/></g></g></svg>