<svg xmlns="http://www.w3.org/2000/svg" viewBox="0 0 101.09 101.82"><defs><style>.cls-1{fill:#333;}.cls-2{fill:none;stroke:#fff;stroke-width:6px;}</style></defs><g id="レイヤー_2" data-name="レイヤー 2"><g id="pc"><rect class="cls-1" width="101.09" height="56.44"/><path class="cls-2" d="M21.7,67.07a9.58,9.58,0,1,0-9.59-9.58A9.57,9.57,0,0,0,21.7,67.07Z"/><path class="cls-2" d="M21.7,72.19c-7,0-12.14,8.3-12.14,13.41V95.82H33.83V85.6C33.83,80.49,28.72,72.19,21.7,72.19Z"/><path class="cls-2" d="M52.16,67.07a9.58,9.58,0,1,0-9.58-9.58A9.57,9.57,0,0,0,52.16,67.07Z"/><path class="cls-2" d="M52.16,72.19c-7,0-12.14,8.3-12.14,13.41V95.82H64.3V85.6C64.3,80.49,59.19,72.19,52.16,72.19Z"/><path class="cls-2" d="M79.62,74.19A7.21,7.21,0,1,0,72.41,67,7.21,7.21,0,0,0,79.62,74.19Z"/><path class="cls-2" d="M79.62,78c-5.29,0-9.13,6.25-9.13,10.09v7.69H88.75V88.13C88.75,84.29,84.9,78,79.62,78Z"/><path class="cls-1" d="M21.7,67.07a9.58,9.58,0,1,0-9.59-9.58A9.57,9.57,0,0,0,21.7,67.07Z"/><path class="cls-1" d="M21.7,72.19c-7,0-12.14,8.3-12.14,13.41V95.82H33.83V85.6C33.83,80.49,28.72,72.19,21.7,72.19Z"/><path class="cls-1" d="M52.16,67.07a9.58,9.58,0,1,0-9.58-9.58A9.57,9.57,0,0,0,52.16,67.07Z"/><path class="cls-1" d="M52.16,72.19c-7,0-12.14,8.3-12.14,13.41V95.82H64.3V85.6C64.3,80.49,59.19,72.19,52.16,72.19Z"/><path class="cls-1" d="M79.62,74.19A7.21,7.21,0,1,0,72.41,67,7.21,7.21,0,0,0,79.62,74.19Z"/><path class="cls-1" d="M79.62,78c-5.29,0-9.13,6.25-9.13,10.09v7.69H88.75V88.13C88.75,84.29,84.9,78,79.62,78Z"/><rect class="cls-1" y="95.17" width="101.09" height="6.65"/></g></g></svg>