<svg xmlns="http://www.w3.org/2000/svg" viewBox="0 0 119.6 115.32"><defs><style>.cls-1{fill:#333;}</style></defs><g id="レイヤー_2" data-name="レイヤー 2"><g id="pc"><path class="cls-1" d="M65.06,26.52a5.74,5.74,0,1,0-5.73,5.73A5.73,5.73,0,0,0,65.06,26.52Z"/><path class="cls-1" d="M46.47,39.67V58.94a2.52,2.52,0,1,0,5,0V43.1h1.16v43a3.31,3.31,0,0,0,6.61,0v-25h1.06v25a3.31,3.31,0,0,0,6.61,0v-43H68.1V58.94a2.52,2.52,0,1,0,5,0V39.67a6.45,6.45,0,0,0-5.8-5.8H52.27A6.45,6.45,0,0,0,46.47,39.67Z"/><path class="cls-1" d="M115,68.07a26.66,26.66,0,0,1-3.86,1.05,10.4,10.4,0,0,1-1.84.16l.06-.2c.4-1.36.74-2.78,1-3.93s.4-2.05.47-2.38a10.81,10.81,0,0,1,.53-2.1,1.54,1.54,0,0,1,1-.93,8.94,8.94,0,0,0,5.33-3.91,12.47,12.47,0,0,0,1.87-7.66c-.13-1.82-.53-2.62-1.06-2.77s-1.23.33-2.07,1a27.3,27.3,0,0,1-3,2.29,11.09,11.09,0,0,1-1.58.79c-.12-1.26-.29-2.53-.46-3.56s-.35-2-.41-2.26c-.31-1.8-.45-2.59.37-3.21a8.55,8.55,0,0,0,3.42-5.26,11.89,11.89,0,0,0-.88-7.41c-.73-1.57-1.34-2.14-1.87-2.09s-1,.69-1.51,1.58a26.48,26.48,0,0,1-1.94,3,9.57,9.57,0,0,1-1.15,1.23c-.46-.94-.94-1.86-1.36-2.63-.52-.93-.94-1.63-1.08-1.88-.86-1.51-1.23-2.17-.69-3a8.19,8.19,0,0,0,1.41-5.77,11.21,11.21,0,0,0-3-6.34c-1.12-1.18-1.84-1.5-2.3-1.3s-.67.92-.88,1.88a26.78,26.78,0,0,1-.83,3.32A9.11,9.11,0,0,1,98,17.25c-.51-.51-1-1-1.45-1.41-.78-.73-1.39-1.26-1.61-1.46-1.28-1.17-1.83-1.69-1.57-2.64a8.18,8.18,0,0,0-.42-5.92A11.17,11.17,0,0,0,88.07.72c-1.43-.78-2.22-.87-2.59-.54s-.36,1.09-.27,2.06a26,26,0,0,1,.23,3.25,8.72,8.72,0,0,0-3-2.15,11.32,11.32,0,0,0-5.25-.93c-1.8.13-3.28.8-3.63,2.05S74,7,75.18,8.16A14.49,14.49,0,0,0,79,10.87a9.07,9.07,0,0,0,3.19.91L82,11.9c-1,.72-1.92,1.33-2.66,1.88S78.09,14.83,78,15.31s.26.92,1.24,1.46a9.54,9.54,0,0,0,5.06,1.11,11.25,11.25,0,0,0,5.24-1.57c.84-.46,1.44-.06,2.61,1,.2.19.74.72,1.4,1.44.38.41.8.88,1.23,1.38a12.47,12.47,0,0,1-1.38.56c-1.13.4-2.23.68-3.1,1a3.1,3.1,0,0,0-1.75,1c-.22.43,0,1,.75,1.77a9.42,9.42,0,0,0,4.47,2.62,11.34,11.34,0,0,0,5.47.11c.94-.18,1.39.38,2.17,1.77.14.24.49.91.9,1.8.34.73.72,1.62,1.07,2.52a16.33,16.33,0,0,1-1.69.11c-1.26,0-2.45-.08-3.43-.07a3.26,3.26,0,0,0-2.08.46c-.37.35-.36.94.13,2a9.89,9.89,0,0,0,3.53,4.06,12.14,12.14,0,0,0,5.39,2c1,.15,1.24.87,1.53,2.52,0,.28.15,1.06.24,2.09s.15,2.12.17,3.27a15.34,15.34,0,0,1-1.67-.5c-1.25-.45-2.39-1-3.35-1.32a3.54,3.54,0,0,0-2.22-.31c-.5.21-.7.79-.61,2a10.35,10.35,0,0,0,2,5.28,12.73,12.73,0,0,0,4.56,4,1.38,1.38,0,0,1,.75,1.07,6.19,6.19,0,0,1-.2,2c-.06.29-.25,1.1-.55,2.13s-.71,2.29-1.17,3.49a1.34,1.34,0,0,0-.07.18,18,18,0,0,1-1.41-1.14c-1-.92-2-1.88-2.77-2.59a3.68,3.68,0,0,0-2-1.16c-.57,0-1,.49-1.37,1.68a10.82,10.82,0,0,0-.15,5.84A13.71,13.71,0,0,0,99.72,76c.68.88.34,1.64-.7,3.17-.18.26-.7,1-1.41,1.84S96,82.93,95,83.89l-.45.46a16.58,16.58,0,0,1-.87-1.67c-.62-1.33-1.1-2.64-1.58-3.66a3.89,3.89,0,0,0-1.49-2c-.55-.23-1.15,0-2,1A11.19,11.19,0,0,0,86,83.58a14.64,14.64,0,0,0,.31,6.65c.27,1.14-.38,1.72-2,2.73-.29.17-1.09.62-2.15,1.14s-2.4,1.12-3.72,1.62S75.31,97,74.35,97.33c-12.48,4.39-27.5,6.28-36.81,13.12-1.45,1.07,1.43,5.17,2.71,4.85s10.41-5.8,33.3-12.06c1-.34,5.61-1.86,7-2.54s2.85-1.45,4-2.11,2-1.21,2.3-1.4A12.57,12.57,0,0,1,89,96a1.72,1.72,0,0,1,1.54.15,9.2,9.2,0,0,0,3.35,1.33,10.61,10.61,0,0,0,3.89,0,12.68,12.68,0,0,0,4-1.51,14.36,14.36,0,0,0,3.64-3c1.37-1.55,1.7-2.5,1.41-3s-1.22-.7-2.42-.84a27,27,0,0,1-4.18-.61,10.85,10.85,0,0,1-1.82-.62c.16-.18.31-.37.46-.55,1-1.15,1.87-2.38,2.59-3.4s1.23-1.83,1.43-2.12c1.13-1.68,1.62-2.42,2.77-2.3a9.33,9.33,0,0,0,6.77-1.67,12.17,12.17,0,0,0,2.9-2.84,14.19,14.19,0,0,0,2-4c.59-1.86.51-2.8.05-3.16S116.08,67.73,115,68.07Z"/><path class="cls-1" d="M46,103.21c2.88-1.12,5.92-2.06,9-2.94-3.31-.9-6.59-1.84-9.7-2.94-1-.33-2.76-1.11-4.08-1.61s-2.65-1.09-3.72-1.62-1.87-1-2.15-1.14c-1.66-1-2.31-1.59-2-2.73a14.78,14.78,0,0,0,.31-6.65A11.28,11.28,0,0,0,31,78.06c-.86-1-1.46-1.25-2-1a3.79,3.79,0,0,0-1.49,2c-.49,1-1,2.33-1.58,3.66A16.58,16.58,0,0,1,25,84.35l-.45-.46c-.94-1-1.86-2-2.58-2.88s-1.23-1.58-1.41-1.84c-1-1.53-1.38-2.29-.7-3.17a13.56,13.56,0,0,0,2.84-5.67,10.72,10.72,0,0,0-.14-5.84c-.38-1.19-.8-1.67-1.37-1.68A3.73,3.73,0,0,0,19.15,64c-.8.71-1.72,1.67-2.76,2.59A18,18,0,0,1,15,67.7l-.07-.18c-.46-1.2-.87-2.45-1.17-3.49s-.5-1.84-.55-2.13a6.19,6.19,0,0,1-.2-2,1.35,1.35,0,0,1,.75-1.07,12.82,12.82,0,0,0,4.56-4,10.26,10.26,0,0,0,2-5.28c.09-1.21-.11-1.79-.61-2a3.54,3.54,0,0,0-2.22.31c-1,.34-2.11.87-3.35,1.32a15.34,15.34,0,0,1-1.67.5c0-1.15.08-2.31.17-3.27s.19-1.81.24-2.09c.29-1.65.53-2.37,1.53-2.52a12.18,12.18,0,0,0,5.39-2,9.89,9.89,0,0,0,3.53-4.06c.49-1.06.5-1.65.13-2a3.3,3.3,0,0,0-2.09-.46c-1,0-2.16.08-3.42.07a16.15,16.15,0,0,1-1.69-.11c.35-.9.73-1.79,1.07-2.52.41-.89.76-1.56.89-1.8.79-1.39,1.23-1.95,2.17-1.77a11.38,11.38,0,0,0,5.48-.11,9.42,9.42,0,0,0,4.47-2.62c.77-.81,1-1.34.74-1.77a3,3,0,0,0-1.74-1c-.87-.3-2-.58-3.11-1a12.32,12.32,0,0,1-1.37-.56c.43-.5.85-1,1.23-1.38.66-.72,1.19-1.25,1.39-1.44,1.18-1.08,1.78-1.48,2.62-1a11.22,11.22,0,0,0,5.24,1.57,9.54,9.54,0,0,0,5.06-1.11c1-.54,1.33-1,1.24-1.46s-.59-1-1.33-1.53-1.71-1.16-2.66-1.88l-.15-.12a9.07,9.07,0,0,0,3.19-.91,14.49,14.49,0,0,0,3.78-2.71c1.14-1.15,2-2.45,1.63-3.7s-1.83-1.92-3.63-2a11.3,11.3,0,0,0-5.25.93,8.72,8.72,0,0,0-3,2.15,28.18,28.18,0,0,1,.22-3.25c.1-1,.12-1.73-.26-2.06S33-.06,31.53.72a11.17,11.17,0,0,0-4.84,5.1,8.18,8.18,0,0,0-.42,5.92c.26.95-.29,1.47-1.57,2.64-.22.2-.83.73-1.61,1.46-.45.42-.94.9-1.45,1.41A9.11,9.11,0,0,1,21,15.83a26.78,26.78,0,0,1-.83-3.32c-.21-1-.42-1.68-.89-1.88s-1.17.12-2.29,1.3a11.23,11.23,0,0,0-3.05,6.34A8.19,8.19,0,0,0,15.35,24c.54.82.17,1.48-.69,3-.14.25-.57.95-1.08,1.88-.42.77-.9,1.69-1.36,2.63a9.57,9.57,0,0,1-1.15-1.23,26.66,26.66,0,0,1-2-3c-.52-.89-1-1.54-1.51-1.58s-1.13.52-1.86,2.09a11.82,11.82,0,0,0-.88,7.41,8.58,8.58,0,0,0,3.41,5.26c.83.62.69,1.41.37,3.21-.05.31-.22,1.15-.4,2.26s-.34,2.3-.46,3.56a11.09,11.09,0,0,1-1.58-.79,27.3,27.3,0,0,1-3-2.29c-.85-.68-1.53-1.16-2.07-1s-.93,1-1.06,2.77a12.34,12.34,0,0,0,1.87,7.66,8.91,8.91,0,0,0,5.33,3.91,1.56,1.56,0,0,1,1,.93,11.6,11.6,0,0,1,.53,2.1c.06.33.22,1.22.47,2.38s.58,2.57,1,3.93l.06.2a10.4,10.4,0,0,1-1.84-.16,26.66,26.66,0,0,1-3.86-1.05c-1.1-.34-2-.55-2.43-.19s-.53,1.3.06,3.16a13.93,13.93,0,0,0,2,4,12,12,0,0,0,2.9,2.84,9.33,9.33,0,0,0,6.77,1.67c1.14-.12,1.64.62,2.77,2.3.2.29.71,1.1,1.43,2.12s1.64,2.25,2.59,3.4c.15.18.3.37.46.55a10.85,10.85,0,0,1-1.82.62,27,27,0,0,1-4.18.61c-1.2.14-2.12.3-2.42.84s0,1.49,1.4,3a14.57,14.57,0,0,0,3.65,3,12.59,12.59,0,0,0,4,1.51,10.61,10.61,0,0,0,3.89,0,9.27,9.27,0,0,0,3.35-1.33A1.72,1.72,0,0,1,30.61,96a12.18,12.18,0,0,1,2.12,1.16c.32.19,1.17.74,2.3,1.4s2.56,1.44,4,2.11S44.82,102.81,46,103.21Z"/><path class="cls-1" d="M73.52,105.89q-5.38,1.48-9.76,2.89c10.15,3.66,14.72,6.3,15.59,6.52,1.27.32,4.15-3.78,2.7-4.85A38.23,38.23,0,0,0,73.52,105.89Z"/></g></g></svg>