<svg xmlns="http://www.w3.org/2000/svg" viewBox="0 0 455.52 455.5"><defs><style>.cls-1{fill:#fff;}.cls-2{fill:#e1e3e8;}</style></defs><g id="レイヤー_2" data-name="レイヤー 2"><g id="pc"><path class="cls-1" d="M455.52,227.76c0,125.77-102,227.74-227.75,227.74S0,353.53,0,227.76,102,0,227.77,0,455.52,102,455.52,227.76Z"/><path class="cls-2" d="M129.78,151.56c-4.88,0-12.31,8.5-18.53,32.37-5.83,22.35-9,52.14-9,83.86s3.21,61.52,9,83.88C117.47,375.52,124.9,384,129.78,384c11.53,0,27.61-44.22,27.61-116.23,0-31.73-3.21-61.51-9-83.86C142.12,160.06,134.67,151.56,129.78,151.56Z"/><path class="cls-2" d="M347.39,104.89a6.11,6.11,0,0,0,.92-3c0-2.91-2.81-6.66-9.69-10.54-2.43-2.34-4.87-3.55-7.27-3.55h-.14a133.28,133.28,0,0,0-17-5.54c-23.48-6.12-54.77-9.49-88.1-9.49S161.51,76.09,138,82.21c-25.15,6.56-34.11,14.44-34.11,19.63s9,13.11,34.11,19.68c21.07,5.5,48.44,8.77,77.92,9.38-4.23,7.18-7.89,17.5-10.48,27.45-6.57,25.22-10.19,58.8-10.19,94.57s3.62,69.36,10.19,94.57c4.64,17.79,12.67,36.79,21.32,36.79s16.7-19,21.35-36.79c6.58-25.22,10.2-58.8,10.2-94.57s-3.62-69.34-10.2-94.56c-2.6-10-6.27-20.31-10.51-27.48,26.49-.63,51.19-3.42,71.09-8-7.81,26.35-13.37,65.94-13.37,113.31,0,87.45,19,148.39,36,148.39s36-60.94,36-148.39C367.34,176.31,358.46,128.88,347.39,104.89Z"/></g></g></svg>