<svg xmlns="http://www.w3.org/2000/svg" viewBox="0 0 54.85 54.85"><defs><style>.cls-1{fill:#fff;}.cls-2{fill:#e8314b;}</style></defs><g id="レイヤー_2" data-name="レイヤー 2"><g id="pc"><circle class="cls-1" cx="27.43" cy="27.43" r="27.43"/><path class="cls-2" d="M39.45,18.87a6.53,6.53,0,0,0-.61-.87c0-.28-.09-.86-.21-1.46a5.58,5.58,0,0,0-.35-1.2,1.77,1.77,0,0,0-.32-.5.79.79,0,0,0-.27-.2.78.78,0,0,0-.37-.09,1.26,1.26,0,0,0-.54.13,2.57,2.57,0,0,0-.72.54,7.65,7.65,0,0,0-1,1.24H31.49a8.68,8.68,0,0,0-.57-.77A4.52,4.52,0,0,0,30.2,15a1.77,1.77,0,0,0-.43-.28,1.34,1.34,0,0,0-.54-.13.75.75,0,0,0-.37.09,1.1,1.1,0,0,0-.44.41A3.63,3.63,0,0,0,28,16a12.15,12.15,0,0,0-.33,2,5.7,5.7,0,0,0-.61.87,5,5,0,0,0-.41,4.38l.15.35A11.44,11.44,0,0,1,25.26,25c-.77.57-1.71,1.21-2.78,2h0a36.81,36.81,0,0,0-3.29,2.74,8.42,8.42,0,0,0-2.6,6.17c0,.24,0,.47,0,.7a4,4,0,0,1-.29-1.12,5.3,5.3,0,0,1,0-.57,11.21,11.21,0,0,1,1.34-4.5c.35-.76.71-1.52,1-2.26a6.58,6.58,0,0,0,.49-2.23,3.14,3.14,0,0,0-.57-1.84A3.41,3.41,0,0,0,17.36,23a3,3,0,0,0-1.42-.35,3.41,3.41,0,0,0-2.39,1,3.83,3.83,0,0,0-1.09,2.65.78.78,0,0,0,.75.79.77.77,0,0,0,.78-.75,2.27,2.27,0,0,1,.65-1.6,1.83,1.83,0,0,1,1.3-.56,1.53,1.53,0,0,1,.72.17,1.83,1.83,0,0,1,.65.58,1.51,1.51,0,0,1,.28.95,5.08,5.08,0,0,1-.39,1.69c-.37,1-1,2.13-1.48,3.35a10.37,10.37,0,0,0-1,4,6.78,6.78,0,0,0,.05.77,5.63,5.63,0,0,0,.51,1.79,3.67,3.67,0,0,0,1.55,1.61,3.9,3.9,0,0,0,.47.2l.12.26a4.32,4.32,0,0,0,2.62,2.14l.06,0h16.1l.08-.42a5.27,5.27,0,0,0,.05-.7,3.29,3.29,0,0,0-.4-1.68,2.09,2.09,0,0,0-.78-.75,2.41,2.41,0,0,0-.7-.24c.11-1.07.37-3.68.74-6.21.19-1.27.41-2.53.64-3.55a12.19,12.19,0,0,1,.37-1.31c.07-.2.14-.37.2-.51a5.48,5.48,0,0,0,1-.42,4.79,4.79,0,0,0,2.35-2.67,5,5,0,0,0,.32-1.76A5.29,5.29,0,0,0,39.45,18.87Zm-.56,4A3.73,3.73,0,0,1,37,25a6.85,6.85,0,0,1-2.57.67l.09,1,.7-.08,0,.08a26.31,26.31,0,0,0-.73,3.22c0,.16-.05.31-.08.47a3.17,3.17,0,0,0-.6,4.34c-.23,2-.37,3.6-.37,3.61l0,.55H34a1.5,1.5,0,0,1,.76.17,1.13,1.13,0,0,1,.51.64,2.54,2.54,0,0,1,.14.89v.09H32.88c0-.1,0-.21,0-.31a2,2,0,0,0-.24-.94,2.83,2.83,0,0,0-.72-.87l-.16-.12L32,35l-1,0h0L30.74,39l.28.16a2.55,2.55,0,0,1,.47.38,1.39,1.39,0,0,1,.28.39,1,1,0,0,1,.11.45,1.24,1.24,0,0,1-.05.31h-6c3.06-4.92.16-10.84-2.46-13,1-.71,1.8-1.29,2.54-1.84a14.25,14.25,0,0,0,1.51-1.28A4.87,4.87,0,0,0,29.13,26l.45-.91a4.19,4.19,0,0,1-.95-.67c3.77-.33,4.55-4.31,4.59-6.9h2.4l.15-.24v0a9.53,9.53,0,0,1,.7-1,3.8,3.8,0,0,1,.54-.53.86.86,0,0,1,.21-.13h0a1.4,1.4,0,0,1,.21.47,8.51,8.51,0,0,1,.29,1.42c0,.22,0,.42.07.56s0,.12,0,.16v.06l0,.19.13.13a4.49,4.49,0,0,1,1.17,2.91A3.87,3.87,0,0,1,38.89,22.89Z"/></g></g></svg>