<svg xmlns="http://www.w3.org/2000/svg" viewBox="0 0 54.85 54.85"><defs><style>.cls-1{fill:#fff;}.cls-2{fill:#e8314b;}</style></defs><g id="レイヤー_2" data-name="レイヤー 2"><g id="pc"><circle class="cls-1" cx="27.43" cy="27.43" r="27.43"/><path class="cls-2" d="M14.84,28.69l-.14-.12a.76.76,0,0,0-.65-.16.74.74,0,0,0-.49.39l0,.09A18.9,18.9,0,0,0,12.88,32a5.19,5.19,0,0,0,.17,2.33c.22.59,1.84,1.7,3.7.06a8.89,8.89,0,0,1,1.33-1c.31-.2.58-.35.58-.35A.67.67,0,0,0,19,32.5a.65.65,0,0,0-.26-.6Q16.78,30.31,14.84,28.69Z"/><path class="cls-2" d="M23.1,29.75c-.81-1.86-1.59-3.73-2.36-5.6-.22-.53-.43-1-.64-1.58A.74.74,0,0,0,19,22.22a6.19,6.19,0,0,0-.82.5,13.66,13.66,0,0,0-3.08,2.94,6.39,6.39,0,0,0-.52.8.7.7,0,0,0,.14.93l.75.63c1.37,1.15,2.77,2.28,4.18,3.4l.67.52a.77.77,0,0,0,.7.14L23,31.53a.72.72,0,0,0,.46-.39.69.69,0,0,0,0-.58Z"/><path class="cls-2" d="M42.71,32a18.9,18.9,0,0,0-.66-3.11l0-.09a.7.7,0,0,0-.49-.39.76.76,0,0,0-.65.16l-.14.12c-1.29,1.08-2.61,2.15-3.94,3.21a.68.68,0,0,0-.26.6.69.69,0,0,0,.38.54,2.2,2.2,0,0,1,.53.32,12.38,12.38,0,0,1,1.38,1c1.86,1.64,3.48.53,3.7-.06A5.19,5.19,0,0,0,42.71,32Z"/><path class="cls-2" d="M40.85,27.39a.7.7,0,0,0,.14-.93,7.33,7.33,0,0,0-.53-.8,13.45,13.45,0,0,0-3.08-2.94,6.19,6.19,0,0,0-.82-.5.73.73,0,0,0-1.06.35l-.65,1.58q-1.14,2.81-2.36,5.6c-.12.27-.24.54-.35.81a.69.69,0,0,0,0,.58.74.74,0,0,0,.46.39l1.93.55a.79.79,0,0,0,.71-.14l.66-.52Q38,29.74,40.09,28Z"/><path class="cls-2" d="M34.74,21.89a.8.8,0,0,0,0-.59.79.79,0,0,0-.43-.41,11.11,11.11,0,0,0-1.13-.44,17.62,17.62,0,0,0-10.75,0,11.11,11.11,0,0,0-1.13.44.82.82,0,0,0-.43.41.76.76,0,0,0,0,.59l.48,1.17q1.28,3.12,2.64,6.23c.24.55.48,1.1.73,1.65a.81.81,0,0,0,.79.47,22.64,22.64,0,0,1,2.3-.17,22.61,22.61,0,0,1,2.29.17.83.83,0,0,0,.8-.47l.72-1.65q1.37-3.11,2.65-6.23Z"/></g></g></svg>