<svg xmlns="http://www.w3.org/2000/svg" viewBox="0 0 54.85 54.85"><defs><style>.cls-1{fill:#fff;}.cls-2{fill:#e8314b;}</style></defs><g id="レイヤー_2" data-name="レイヤー 2"><g id="pc"><circle class="cls-1" cx="27.43" cy="27.43" r="27.43"/><path class="cls-2" d="M29.86,36.44a15,15,0,0,1,1.08-4.75H24.49a15,15,0,0,1,1.08,4.75c0,1.79-.81,2.12-1.83,3.13a5.63,5.63,0,0,0-1.64,4,5.56,5.56,0,0,0,.7,2.72,5.63,5.63,0,0,0,1.84,2h6.14a5.54,5.54,0,0,0,2.54-4.7,5.58,5.58,0,0,0-1.64-4C30.66,38.56,29.86,38.32,29.86,36.44Z"/><path class="cls-2" d="M25.68,30.79h1.7A41.34,41.34,0,0,0,25,21.65l-1.56.62A40.19,40.19,0,0,1,25.68,30.79Z"/><path class="cls-2" d="M29.83,25.79a17.39,17.39,0,0,0-1.64,3.29,14.23,14.23,0,0,0-.52,1.71h1.74a9.94,9.94,0,0,1,.36-1.13A16.36,16.36,0,0,1,32,25.57c.37-.5.71-.89.94-1.15l.28-.29.07-.07,0,0h0l-.13-.14,0,0-1.07-1.1A17.73,17.73,0,0,0,29.83,25.79Z"/><path class="cls-2" d="M24.51,28.66c-.51-1.61-3.16-4.1-5.58-2.39C19.54,28.68,21.86,30.28,24.51,28.66Z"/><path class="cls-2" d="M31.1,28.56c1.44,1.16,3.53,1.08,4.38-1.06C34.46,26.76,31.77,26.47,31.1,28.56Z"/><path class="cls-2" d="M29,25.34a1.06,1.06,0,1,0-1-1.06A1.05,1.05,0,0,0,29,25.34Z"/><path class="cls-2" d="M22.29,23.64a1.06,1.06,0,1,0-1.06,1.06A1.06,1.06,0,0,0,22.29,23.64Z"/><path class="cls-2" d="M27.18,18.94a1.27,1.27,0,1,0,1.27,1.27A1.27,1.27,0,0,0,27.18,18.94Z"/><path class="cls-2" d="M39.84,19.2a2.25,2.25,0,0,0-2.2-2,2.26,2.26,0,0,0-4.43.59,2.26,2.26,0,0,0,.59,4.43,2.26,2.26,0,0,0,4.43-.59A2.26,2.26,0,0,0,39.84,19.2Zm-3.93,1.94a1.41,1.41,0,1,1,1.21-1.58A1.42,1.42,0,0,1,35.91,21.14Z"/><path class="cls-1" d="M26.1,13.62a2.48,2.48,0,0,0,4.21,2.54A2.49,2.49,0,0,0,32.85,12a2.49,2.49,0,0,0-4.22-2.54,2.48,2.48,0,0,0-2.53,4.21Zm2-1.64a1.55,1.55,0,1,1,.53,2.13A1.55,1.55,0,0,1,28.14,12Z"/><path class="cls-2" d="M21.77,20.1a2.26,2.26,0,0,0,1.41-4.24,2.26,2.26,0,0,0-4.24-1.41,2.26,2.26,0,0,0-1.42,4.24,2.26,2.26,0,0,0,4.25,1.41ZM19,16.83a1.41,1.41,0,0,1,1.79-.89,1.41,1.41,0,1,1-1.79.89Z"/></g></g></svg>