<svg xmlns="http://www.w3.org/2000/svg" viewBox="0 0 54.85 54.85"><defs><style>.cls-1{fill:#fff;}.cls-2{fill:#e8314b;}</style></defs><g id="レイヤー_2" data-name="レイヤー 2"><g id="pc"><circle class="cls-1" cx="27.43" cy="27.43" r="27.43"/><path class="cls-2" d="M26.45,17a2.91,2.91,0,1,0-3.24,2.53A2.91,2.91,0,0,0,26.45,17Z"/><path class="cls-2" d="M33.7,26c-1.36-2.18-2.44-4.65-2.72-5.13a.74.74,0,0,1-.05-.77c.55-.8,1.12-1.6,1.7-2.39s1.21-1.44.94-2.37c-.16-.54-.64-.76-1-1.09l-3-2.47L28.66,11A1.13,1.13,0,0,0,27,12.52l-1,1.1a4.22,4.22,0,0,1,.69.71l1.05-1.1,2.67,2.58-2.11,2.25c-1.16,1.14-3.93,2.78-3.3,5.09.48,1.77,2.15,4.79,2.15,5.65,0,1.18-.65,7.16-.65,7.16a.15.15,0,0,0,0,.07l-1.88,6.49a1.33,1.33,0,0,0,2.54.77l2.26-6a1.43,1.43,0,0,0,.08-.22l0-.06c0-.12,1.22-5.74,1.22-5.74l.05-.53-.56,5.65a1.45,1.45,0,0,0,0,.3l.28,6.46a1.48,1.48,0,1,0,3,0l.38-6.23.91-5.75A6.61,6.61,0,0,0,33.7,26Z"/><path class="cls-2" d="M20.67,19.08l-4.84,5a.87.87,0,0,0-.15,1l1.23,2.48a.82.82,0,0,0,.49.4.8.8,0,0,0,.62-.11l.92-.62a.77.77,0,0,0,.33-.54.78.78,0,0,0-.18-.6l-1.66-2.22,4-4.14A3.79,3.79,0,0,1,20.67,19.08Z"/></g></g></svg>