<svg xmlns="http://www.w3.org/2000/svg" viewBox="0 0 54.85 54.85"><defs><style>.cls-1{fill:#fff;}.cls-2{fill:#e8314b;}</style></defs><g id="レイヤー_2" data-name="レイヤー 2"><g id="pc"><circle class="cls-1" cx="27.43" cy="27.43" r="27.43"/><path class="cls-2" d="M28.33,37.82a2.75,2.75,0,1,0,2.74,2.75A2.75,2.75,0,0,0,28.33,37.82Z"/><path class="cls-2" d="M27.41,34.85a2.75,2.75,0,1,0-2.74,2.75A2.74,2.74,0,0,0,27.41,34.85Z"/><path class="cls-2" d="M31.76,32.11a2.75,2.75,0,1,0,2.74,2.74A2.74,2.74,0,0,0,31.76,32.11Z"/><path class="cls-2" d="M23.75,29.13A2.74,2.74,0,1,0,21,31.88,2.74,2.74,0,0,0,23.75,29.13Z"/><path class="cls-2" d="M28.1,31.88a2.75,2.75,0,1,0-2.75-2.75A2.75,2.75,0,0,0,28.1,31.88Z"/><path class="cls-2" d="M35.19,26.39a2.75,2.75,0,1,0,2.74,2.74A2.75,2.75,0,0,0,35.19,26.39Z"/><path class="cls-2" d="M28.79,23.42a2.74,2.74,0,1,0,2.74-2.75A2.74,2.74,0,0,0,28.79,23.42Z"/><path class="cls-2" d="M27.18,23.42a2.74,2.74,0,1,0-2.74,2.74A2.74,2.74,0,0,0,27.18,23.42Z"/><path class="cls-2" d="M23.35,18.92s-.15,1,.29,1.13a5.25,5.25,0,0,0,4.11-4.33c-.34-1.78-4.9-2.77-5.35-2.34s-.18,1.37-.18,1.37-3,.52-3.84,3.22A7.27,7.27,0,0,0,23.35,18.92Z"/><path class="cls-2" d="M27.93,21.91a.63.63,0,0,0,.63-.63A11.16,11.16,0,0,1,29.29,17a6.49,6.49,0,0,1,2.14-2.77.63.63,0,1,0-.75-1,7.74,7.74,0,0,0-2.55,3.3,12.37,12.37,0,0,0-.83,4.75A.63.63,0,0,0,27.93,21.91Z"/></g></g></svg>