<svg xmlns="http://www.w3.org/2000/svg" viewBox="0 0 54.85 54.85"><defs><style>.cls-1{fill:#fff;}.cls-2{fill:#e8314b;}</style></defs><g id="レイヤー_2" data-name="レイヤー 2"><g id="pc"><circle class="cls-1" cx="27.43" cy="27.43" r="27.43"/><path class="cls-2" d="M25.28,17.86a3.45,3.45,0,1,0-3.45-3.45A3.44,3.44,0,0,0,25.28,17.86Z"/><path class="cls-2" d="M41.28,40.16l-5.07-3.24L32.12,30.5l-1.34-7.59,4.37-.4,3.77,2.43a1.2,1.2,0,0,0,1.57-.22l0,0a1.22,1.22,0,0,0-.1-1.71L37,20a2.09,2.09,0,0,0-1.32-.53L27.32,19a4.66,4.66,0,0,0-.5,0l-.33,0a3.66,3.66,0,0,0-1.62.71l-6.18,3.73L14.8,21.32a1.29,1.29,0,0,0-1.73.45l-.05.08a1.28,1.28,0,0,0,.44,1.77l4.64,2.77a2.18,2.18,0,0,0,1.91.17l3.92-1.48,1.3,5.26-5.5,0a2.43,2.43,0,0,0-2.4,2.9l1.46,7.5A1.57,1.57,0,0,0,20.57,42h.06A1.57,1.57,0,0,0,22,40.27l-.49-5.38,7.65.24,3.58,3.61A7.2,7.2,0,0,0,34.4,40l5.33,2.91a1.55,1.55,0,0,0,2.07-.62l0,0A1.56,1.56,0,0,0,41.28,40.16Z"/></g></g></svg>