<svg xmlns="http://www.w3.org/2000/svg" viewBox="0 0 54.85 54.85"><defs><style>.cls-1{fill:#fff;}.cls-2{fill:#e8314b;}</style></defs><g id="レイヤー_2" data-name="レイヤー 2"><g id="pc"><circle class="cls-1" cx="27.43" cy="27.43" r="27.43"/><path class="cls-2" d="M37.79,26.9c-2.47-.6-6.32-3.07-8.68-5.09-.32-.28-.58-.56-.83-.82a4.42,4.42,0,0,0-1.61-1.23,2.37,2.37,0,0,0-.88-.16h0a3.69,3.69,0,0,0-2.16.87,3.12,3.12,0,0,0-1.37,2.2H22a1.55,1.55,0,0,1-1.57-.81,3.13,3.13,0,0,0-2.69-1.69,2.73,2.73,0,0,0-2.66,3V36H42.13V34.32c0-.07,0-.25,0-.41C42.27,32.47,42.62,28.06,37.79,26.9ZM35.5,28.81a3.77,3.77,0,0,1,1.08-.56c.28.1.56.18.82.25A3.72,3.72,0,0,1,40.54,32h-7l.5,0h.11v-.05A4.67,4.67,0,0,1,34.57,30,3.33,3.33,0,0,1,35.5,28.81ZM35,27.63l-.3.2A4.68,4.68,0,0,0,33.68,29l-1.37-.68,1-1.61C33.89,27.06,34.47,27.37,35,27.63ZM32.6,26.32l-1,1.64c-.44-.23-.88-.46-1.29-.69l1.26-1.61C31.9,25.89,32.25,26.1,32.6,26.32ZM30.86,25.2l-1.29,1.67-1.22-.7,1.46-1.72ZM28,23h0c.34.3.72.6,1.12.91l-1.52,1.77q-.77-.46-1.38-.87Zm-3.42-1.25a2.19,2.19,0,0,1,1.18-.54.79.79,0,0,1,.3.05,4.83,4.83,0,0,1,1.34,1.18l-1.87,1.91c-.65-.44-1.17-.82-1.54-1.1L24,23.24C23.82,22.86,23.87,22.34,24.61,21.79ZM16.7,23.15c0-.9.47-1.33,1-1.33a1.5,1.5,0,0,1,1.25.85,3.25,3.25,0,0,0,3,1.66,6.41,6.41,0,0,0,1.21-.13,59.34,59.34,0,0,0,10,5.94l0,.08a5.84,5.84,0,0,0-.26,1.69V32H23.15a5.05,5.05,0,0,0-1.53-2.49A6.67,6.67,0,0,0,17,27.81H16.7Zm0,5.9H17a5.53,5.53,0,0,1,3.8,1.36A4.17,4.17,0,0,1,21.87,32H16.7Zm23.79,5.27H16.7V33.23H40.56C40.53,33.69,40.49,34.07,40.49,34.32Z"/></g></g></svg>