<svg xmlns="http://www.w3.org/2000/svg" viewBox="0 0 23.62 104.11"><defs><style>.cls-1{fill:#373735;}</style></defs><g id="レイヤー_2" data-name="レイヤー 2"><g id="pc"><path class="cls-1" d="M11.53,42.8a10.89,10.89,0,0,0-4.86-.38c-2.69.44-2.9,3.9-.16,5.2C9,48.85,12.25,47.29,13.94,45a12,12,0,0,1,4.31,5.19c.34.69.66,1.38,1,2.09a2.76,2.76,0,0,1,.25.75,2.72,2.72,0,0,1,0,.9c-.09.36-.29.68-.37,1a2.6,2.6,0,0,1-.42.85,8.52,8.52,0,0,1-1.49,1.63,15.18,15.18,0,0,1-1.58,1.19,12.9,12.9,0,0,1-1.57.92c-2-2.7-6.44-5.2-9-2.74.08-.06-.16.14-.15.14A4.34,4.34,0,0,0,4,58.78c-.38,2.1,1.55,3.35,3.54,3.5a5.53,5.53,0,0,0,2.3-.43c.39-.15.53.48.61.76a3.31,3.31,0,0,1,.1.83,8.85,8.85,0,0,0,.09.9,9.13,9.13,0,0,1,.11,1.48c0,.21-.07.41-.08.62a19.65,19.65,0,0,1-.39,2.74c-.67,1.85.11.9-3.46,7.9a43.38,43.38,0,0,0-3,7A20.51,20.51,0,0,0,3,87.79a15.69,15.69,0,0,0-.13,3.61c.25,3.84,1,9.06,4.05,11.29a7,7,0,0,0,4.91,1.36c4.25-.63,6.85-6.19,4.2-8.88a5.63,5.63,0,0,0-2.44-1.41,1.46,1.46,0,0,0-.42,2.89,2.34,2.34,0,0,1,1.36.22c2.28,1.1.25,7.68-5.06,6.41a5.83,5.83,0,0,1-2.21-1c-3-2.18-3.13-7.12-2.49-10.75,1.13-7.38,9.16-11.23,11.43-21a16.07,16.07,0,0,0,.1-4.88,15.67,15.67,0,0,0-1.71-5c0,.13-.09-.23-.1-.23l-.1-.18L16,59.5A22.27,22.27,0,0,0,22,55.75a5.15,5.15,0,0,0,1.59-3.6c-.32-4.3-3.88-6-9-8.27,2-4.1-.28-9-2.12-13.15-3.68-8-9.38-13.82-10.42-21a14.78,14.78,0,0,1-.17-2.8c.14-2.5,1.36-5.06,3.5-6a3.61,3.61,0,0,1,1-.31,2.8,2.8,0,0,1,1,0A3.89,3.89,0,0,1,10.5,4.05c.11.88-.22,1.49-.51,1.61,0,.07-.16,0-.21.07l-.09,0c-.11,0-.86-.14-1-.15A1.49,1.49,0,0,0,7,6.87,1.51,1.51,0,0,0,9,8.51a5.75,5.75,0,0,0,2-1,2.76,2.76,0,0,0,.5-.57c1.55-2.29-.95-6.63-4-6.91a3.65,3.65,0,0,0-1.13,0C3.13.7,1.16,3.67.48,6.72-1.36,16.88,2.25,24,8.17,35,10,38.26,11.74,40.4,11.53,42.8Zm-4.19,16a1.46,1.46,0,0,1,.36.09,4,4,0,0,1,.34.23,5.08,5.08,0,0,1,.68.63,7.69,7.69,0,0,1,1.06,1.4,5.26,5.26,0,0,1-2.12.13c-.74-.2-1.73-.74-1.9-1.47-.11-.36.28-.64.49-.86A.94.94,0,0,1,7,58.67a.82.82,0,0,1,.28,0A.32.32,0,0,1,7.34,58.75Zm4.05-15.26c-.59,1.87-2.59,3.67-4.5,3.15l-.2,0C3.32,45.17,5.29,40.59,11.39,43.49Z"/></g></g></svg>