<svg xmlns="http://www.w3.org/2000/svg" viewBox="0 0 27.71 27.16"><defs><style>.cls-1{fill:#e8314b;}</style></defs><g id="レイヤー_2" data-name="レイヤー 2"><g id="pc"><path class="cls-1" d="M27,4.32a5.68,5.68,0,0,0-.61-.86c0-.29-.09-.87-.2-1.47a6.66,6.66,0,0,0-.35-1.2,1.81,1.81,0,0,0-.33-.5,1.18,1.18,0,0,0-.27-.2A.78.78,0,0,0,24.86,0a1.3,1.3,0,0,0-.54.13,2.72,2.72,0,0,0-.72.54,8,8,0,0,0-1,1.24H19c-.13-.19-.33-.48-.57-.77a5.5,5.5,0,0,0-.72-.73,2.12,2.12,0,0,0-.43-.28A1.3,1.3,0,0,0,16.77,0a.78.78,0,0,0-.37.09A1.25,1.25,0,0,0,16,.5a3.41,3.41,0,0,0-.37.92,12.47,12.47,0,0,0-.34,2,5.68,5.68,0,0,0-.61.86A5.4,5.4,0,0,0,13.91,7a5.25,5.25,0,0,0,.32,1.75l.15.35a10.81,10.81,0,0,1-1.58,1.38c-.77.58-1.71,1.21-2.78,2h0a38.61,38.61,0,0,0-3.29,2.74,8.46,8.46,0,0,0-2.6,6.18c0,.23,0,.46,0,.69A4,4,0,0,1,3.88,21a5.49,5.49,0,0,1,0-.58,11.25,11.25,0,0,1,1.34-4.5c.35-.76.71-1.52,1-2.26a6.35,6.35,0,0,0,.49-2.23A3.14,3.14,0,0,0,6.1,9.54a3.32,3.32,0,0,0-1.2-1,3.12,3.12,0,0,0-1.42-.34,3.37,3.37,0,0,0-2.39,1A3.8,3.8,0,0,0,0,11.8a.77.77,0,0,0,1.54,0,2.24,2.24,0,0,1,.64-1.6,1.91,1.91,0,0,1,1.3-.56,1.65,1.65,0,0,1,.72.17,1.87,1.87,0,0,1,.65.59,1.5,1.5,0,0,1,.28.94,4.84,4.84,0,0,1-.39,1.69c-.37,1-1,2.13-1.47,3.36a10.52,10.52,0,0,0-1,3.94,6.64,6.64,0,0,0,0,.77,5.38,5.38,0,0,0,.52,1.79,3.55,3.55,0,0,0,1.54,1.61,3.15,3.15,0,0,0,.47.2L5,25a4.31,4.31,0,0,0,2.62,2.14l.07,0H23.8l.07-.42a3.26,3.26,0,0,0,.06-.7,3.34,3.34,0,0,0-.41-1.68,2.09,2.09,0,0,0-.78-.75,2.45,2.45,0,0,0-.69-.24c.1-1.06.36-3.67.73-6.2.19-1.28.41-2.54.64-3.56.12-.5.25-.95.37-1.31a3.59,3.59,0,0,1,.21-.5,6.17,6.17,0,0,0,1-.43A4.81,4.81,0,0,0,27.4,8.7,5.22,5.22,0,0,0,27.71,7,5.3,5.3,0,0,0,27,4.32Zm-.56,4a3.76,3.76,0,0,1-1.86,2.12,7,7,0,0,1-2.56.66l.08,1,.7-.08,0,.08A26.52,26.52,0,0,0,22,15.38c0,.15-.05.3-.07.46-1.19,1.16-1.75,2.85-.6,4.34-.24,2-.38,3.6-.38,3.61l-.05.55h.56a1.47,1.47,0,0,1,.76.17,1.15,1.15,0,0,1,.52.64,2.78,2.78,0,0,1,.13.89v.1H20.42a1.82,1.82,0,0,0,0-.32,2,2,0,0,0-.24-.93,2.88,2.88,0,0,0-.72-.88l-.16-.12.16-3.47-1,0h0l-.19,4.07.28.15A2.23,2.23,0,0,1,19,25a1.55,1.55,0,0,1,.28.39,1,1,0,0,1,.06.77h-6c3.06-4.92.17-10.85-2.46-13,1-.71,1.8-1.3,2.54-1.85A14.25,14.25,0,0,0,14.92,10a4.87,4.87,0,0,0,1.75,1.44l.46-.91a4.2,4.2,0,0,1-1-.66c3.77-.34,4.55-4.32,4.6-6.91h2.39l.15-.24v0a8.65,8.65,0,0,1,.71-1,3.31,3.31,0,0,1,.53-.53,1.1,1.1,0,0,1,.21-.13h0a1.84,1.84,0,0,1,.2.47,7.61,7.61,0,0,1,.29,1.42c0,.23.05.42.07.56s0,.13,0,.16V3.9l.13.13a4.25,4.25,0,0,1,.61.85A4.26,4.26,0,0,1,26.69,7,3.94,3.94,0,0,1,26.43,8.35Z"/></g></g></svg>