<svg xmlns="http://www.w3.org/2000/svg" viewBox="0 0 19.67 30.21"><defs><style>.cls-1{fill:#e8314b;}</style></defs><g id="レイヤー_2" data-name="レイヤー 2"><g id="pc"><path class="cls-1" d="M10.06,24.72a2.75,2.75,0,1,0,2.75,2.74A2.74,2.74,0,0,0,10.06,24.72Z"/><path class="cls-1" d="M9.15,21.74A2.75,2.75,0,1,0,6.4,24.49,2.75,2.75,0,0,0,9.15,21.74Z"/><path class="cls-1" d="M13.49,19a2.75,2.75,0,1,0,2.75,2.74A2.74,2.74,0,0,0,13.49,19Z"/><path class="cls-1" d="M5.49,16a2.75,2.75,0,1,0-2.75,2.74A2.75,2.75,0,0,0,5.49,16Z"/><path class="cls-1" d="M9.83,18.77A2.75,2.75,0,1,0,7.09,16,2.75,2.75,0,0,0,9.83,18.77Z"/><path class="cls-1" d="M16.92,13.28A2.75,2.75,0,1,0,19.67,16,2.75,2.75,0,0,0,16.92,13.28Z"/><path class="cls-1" d="M10.52,10.31a2.75,2.75,0,1,0,2.74-2.75A2.74,2.74,0,0,0,10.52,10.31Z"/><path class="cls-1" d="M8.92,10.31a2.75,2.75,0,1,0-2.75,2.74A2.75,2.75,0,0,0,8.92,10.31Z"/><path class="cls-1" d="M5.08,5.81s-.14,1,.3,1.13a5.23,5.23,0,0,0,4.1-4.33C9.15.83,4.59-.15,4.14.27S4,1.65,4,1.65.93,2.16.11,4.86A7.27,7.27,0,0,0,5.08,5.81Z"/><path class="cls-1" d="M9.66,8.8a.63.63,0,0,0,.63-.63A10.91,10.91,0,0,1,11,3.91a6.44,6.44,0,0,1,2.13-2.78.62.62,0,0,0,.13-.88.64.64,0,0,0-.88-.13,7.74,7.74,0,0,0-2.55,3.3A12.4,12.4,0,0,0,9,8.17.63.63,0,0,0,9.66,8.8Z"/></g></g></svg>