<svg xmlns="http://www.w3.org/2000/svg" viewBox="0 0 26.53 32.1"><defs><style>.cls-1{fill:#e8314b;}</style></defs><g id="レイヤー_2" data-name="レイヤー 2"><g id="pc"><path class="cls-1" d="M15.15,5.57A11.38,11.38,0,1,0,26.53,17,11.38,11.38,0,0,0,15.15,5.57ZM8.46,10.26a9.31,9.31,0,0,1,2.17-1.62,11.91,11.91,0,0,0-1.1,2.17H8C8.12,10.62,8.29,10.44,8.46,10.26ZM6.85,12.41H9a17.66,17.66,0,0,0-.53,3.74H5.73A9.47,9.47,0,0,1,6.85,12.41Zm0,9.08a9.52,9.52,0,0,1-1.12-3.74H8.48A18.31,18.31,0,0,0,9,21.49Zm1.61,2.15L8,23.09H9.53a12.71,12.71,0,0,0,.76,1.62c.11.19.23.37.34.55A9.6,9.6,0,0,1,8.46,23.64Zm5.89,2.73-.24,0a3.53,3.53,0,0,1-.77-.44,7.2,7.2,0,0,1-2.08-2.82h3.09Zm0-4.88H10.69a16,16,0,0,1-.6-3.74h4.26Zm0-5.34H10.08a15.9,15.9,0,0,1,.6-3.74h3.67Zm0-5.34H11.26c.14-.29.27-.57.42-.83a6.25,6.25,0,0,1,1.66-2,3.53,3.53,0,0,1,.77-.44l.24,0Zm9.1,1.6a9.47,9.47,0,0,1,1.12,3.74H21.82a18.31,18.31,0,0,0-.55-3.74Zm-1.61-2.15c.17.18.34.36.5.55H20.77A12.1,12.1,0,0,0,20,9.19c-.11-.19-.23-.37-.34-.55A9.31,9.31,0,0,1,21.84,10.26ZM16,7.53l.24,0A3.53,3.53,0,0,1,17,8,7.05,7.05,0,0,1,19,10.81H16Zm0,4.88h3.66a15.9,15.9,0,0,1,.6,3.74H16Zm2.67,11.51a6.37,6.37,0,0,1-1.66,2,3.53,3.53,0,0,1-.77.44l-.24,0V23.09H19C18.9,23.38,18.77,23.66,18.62,23.92ZM16,21.49V17.75h4.27a16,16,0,0,1-.6,3.74Zm5.89,2.15a9.6,9.6,0,0,1-2.17,1.62,12.25,12.25,0,0,0,1.1-2.17h1.57Zm1.61-2.15H21.27a18.32,18.32,0,0,0,.54-3.74h2.76A9.52,9.52,0,0,1,23.45,21.49Z"/><path class="cls-1" d="M22.39,28.78A13.87,13.87,0,1,1,7.91,5.12L7.24,4A15.15,15.15,0,1,0,23.06,29.87l-.67-1.09Z"/><path class="cls-1" d="M12.55,4.38h6c.61,0,1.11-.21,1.11-.83s-1.18-1.21-1.79-1.21H16.61L14.1.08c-.13-.14-.63,0-.78,0s-.14.3-.07.47L14,2.34H12.22l-1-1.53a.61.61,0,0,0-.67-.16.62.62,0,0,0-.39.57V2.67C10.19,3.61,11.32,4.38,12.55,4.38Z"/></g></g></svg>