<svg xmlns="http://www.w3.org/2000/svg" viewBox="0 0 33.68 24.9"><defs><style>.cls-1{fill:#e8314b;}</style></defs><g id="レイヤー_2" data-name="レイヤー 2"><g id="pc"><path class="cls-1" d="M33.05,19.78c-.16-.17-.3-.31-.41-.41a3.15,3.15,0,0,1-.33-.33s0,0,0-.05a.15.15,0,0,1,0-.08,1.9,1.9,0,0,1,0-.48c0-.24,0-.58.08-1a13,13,0,0,0-.16-3.56,11.05,11.05,0,0,0-3.38-6.11,13.73,13.73,0,0,0-6.05-3.18c-.39-.35-.78-.75-1.19-1.18A25,25,0,0,0,19.47,1.3,6,6,0,0,0,18.28.48,4,4,0,0,0,16.91,0a2.11,2.11,0,0,0-.71,0,1.71,1.71,0,0,0-.38.13,1.34,1.34,0,0,0-.31.22,1.45,1.45,0,0,0-.34.55,2.77,2.77,0,0,0-.1.5,6.65,6.65,0,0,0,0,.89c0,.45.1.91.12,1.33a3.55,3.55,0,0,1,0,.57,1,1,0,0,0,0,.16A17.6,17.6,0,0,0,8.39,8.6,15.08,15.08,0,0,0,4.7,15.11c-.3.78-.47,1.35-.64,1.81a4.86,4.86,0,0,1-.74,1.34,22.36,22.36,0,0,0-2,3A11.19,11.19,0,0,0,.17,24.15L0,24.9l.77,0A8.35,8.35,0,0,0,2,24.72a10.45,10.45,0,0,0,2.81-1,7.65,7.65,0,0,0,.71-.41,6.94,6.94,0,0,0,.88.57,9.52,9.52,0,0,0,1.89.77c.29.08.55.13.77.17l.32,0a1.72,1.72,0,0,0,.31,0,.7.7,0,0,0,.23-.08l.22-.12.07-.24a3.31,3.31,0,0,0,0-1.43,8.79,8.79,0,0,0-.57-1.64,6.46,6.46,0,0,1-.52-1.49,3,3,0,0,1,.09-1.52,5.85,5.85,0,0,1,1.22-2,8.46,8.46,0,0,1,1-.9A4.68,4.68,0,0,1,13,14.7a15,15,0,0,1,1.87-.44l.19,0h.55a8.16,8.16,0,0,1,1,.11l.33.07a1,1,0,0,0-.1.17c-.46.73-.93,1.45-1.28,2.08a6,6,0,0,0-.43.89A1.62,1.62,0,0,0,15,18a1.22,1.22,0,0,0,0,.47,1.27,1.27,0,0,0,.08.23,1,1,0,0,0,.28.35,1.29,1.29,0,0,0,.74.2,2.69,2.69,0,0,0,.47,0A24.85,24.85,0,0,0,20.77,18a16.73,16.73,0,0,0,2.56-1.21l.17.11h0c.46.29.94.6,1.43.93s1.23.77,1.84,1.17a15,15,0,0,1,1.88,1.46,9.41,9.41,0,0,0,2.24,1.59,3.77,3.77,0,0,0,.91.31,2,2,0,0,0,.81,0,1.39,1.39,0,0,0,.49-.19,1.08,1.08,0,0,0,.3-.26,1.2,1.2,0,0,0,.25-.52,1.32,1.32,0,0,0,0-.56A2.12,2.12,0,0,0,33.05,19.78ZM15.22,4.37ZM32.5,21.18s0,0,0,0,0,0-.1,0a1.12,1.12,0,0,1-.36,0A3.6,3.6,0,0,1,31,20.78a9.78,9.78,0,0,1-1.54-1.17,15.87,15.87,0,0,0-2-1.57c-.65-.43-1.26-.79-1.86-1.18l-1.43-.93h0l-.5-.32-.31-.19-.32.2a14,14,0,0,1-2.66,1.3,23.18,23.18,0,0,1-4,1.11l-.15,0a3.38,3.38,0,0,1,.19-.43c.15-.31.37-.68.62-1.09s.54-.86.83-1.32.5-.83.74-1.25h0a12.26,12.26,0,0,0,.57-1.15l-1.08-.47a9.69,9.69,0,0,1-.51,1l-.46-.11a8.57,8.57,0,0,0-1.38-.18c-.22,0-.42,0-.61,0a2.67,2.67,0,0,0-.51,0c-.52.09-1,.18-1.4.29a6.71,6.71,0,0,0-1.79.69,8.8,8.8,0,0,0-1.76,1.4v0h0A7.12,7.12,0,0,0,8.15,18,4.2,4.2,0,0,0,8,20.07a8.44,8.44,0,0,0,.59,1.74,6.56,6.56,0,0,1,.5,1.39,1.75,1.75,0,0,1,0,.45l-.48-.11A7.47,7.47,0,0,1,7.3,23,5.63,5.63,0,0,1,6,22.16l-.36-.32-.39.29a6.84,6.84,0,0,1-1,.58,9,9,0,0,1-2.46.85l-.26.05a13.74,13.74,0,0,1,.8-1.74A21.71,21.71,0,0,1,4.25,19a5.9,5.9,0,0,0,.91-1.64c.2-.54.36-1.09.65-1.83v0a14,14,0,0,1,3.42-6A16.37,16.37,0,0,1,15.6,5.48l.15,0,.33-.06.12-.31a3.18,3.18,0,0,0,.17-.74,6.82,6.82,0,0,0,0-1.28c0-.3-.06-.6-.09-.86s0-.38,0-.53a1.17,1.17,0,0,1,0-.29,1,1,0,0,1,0-.12s0-.05,0-.05,0,0,.08,0a1.15,1.15,0,0,1,.33,0,3.27,3.27,0,0,1,1.31.52,11.47,11.47,0,0,1,2,1.76,24.66,24.66,0,0,0,2,2l.1.09.14,0A12.78,12.78,0,0,1,28,8.58a9.92,9.92,0,0,1,3,5.47,11.86,11.86,0,0,1,.14,3.24c0,.46-.06.81-.08,1.1a3.44,3.44,0,0,0,0,.74,1.56,1.56,0,0,0,.17.47,1.89,1.89,0,0,0,.2.27c.11.12.22.21.33.32s.25.23.41.4a1.09,1.09,0,0,1,.29.49A.46.46,0,0,1,32.5,21.18Z"/><path class="cls-1" d="M27.56,14.29a.73.73,0,1,0,.27,1.43.73.73,0,1,0-.27-1.43Z"/></g></g></svg>