<svg xmlns="http://www.w3.org/2000/svg" viewBox="0 0 29.19 32.13"><defs><style>.cls-1{fill:#e8314b;}</style></defs><g id="レイヤー_2" data-name="レイヤー 2"><g id="pc"><path class="cls-1" d="M12.44,6.9A3.45,3.45,0,1,0,9,3.45,3.45,3.45,0,0,0,12.44,6.9Z"/><path class="cls-1" d="M28.44,29.19,23.37,26l-4.08-6.41L18,12l4.37-.41L26.08,14a1.21,1.21,0,0,0,1.57-.22l0,0a1.21,1.21,0,0,0-.1-1.71L24.2,9a2.11,2.11,0,0,0-1.31-.52L14.48,8A3.54,3.54,0,0,0,14,8l-.32,0A3.58,3.58,0,0,0,12,8.8L5.86,12.53,2,10.35a1.29,1.29,0,0,0-1.72.46l0,.08a1.29,1.29,0,0,0-.15,1,1.24,1.24,0,0,0,.59.79l4.64,2.77a2.21,2.21,0,0,0,1.91.17l3.91-1.48,1.3,5.25-5.49,0a2.45,2.45,0,0,0-2.41,2.91L6,29.76A1.59,1.59,0,0,0,7.74,31H7.8A1.59,1.59,0,0,0,9.14,29.3l-.5-5.37,7.65.24,3.59,3.61a7.49,7.49,0,0,0,1.69,1.27L26.89,32A1.55,1.55,0,0,0,29,31.33l0,0A1.55,1.55,0,0,0,28.44,29.19Z"/></g></g></svg>