<svg xmlns="http://www.w3.org/2000/svg" viewBox="0 0 26.25 29.98"><defs><style>.cls-1{fill:#e8314b;}</style></defs><g id="レイヤー_2" data-name="レイヤー 2"><g id="pc"><path class="cls-1" d="M24.46,6.18,15,.53A3.74,3.74,0,0,0,13.13,0a3.68,3.68,0,0,0-1.9.53L1.79,6.18A3.7,3.7,0,0,0,0,9.35V20.63A3.7,3.7,0,0,0,1.79,23.8l9.44,5.65a3.68,3.68,0,0,0,1.9.53,3.74,3.74,0,0,0,1.9-.53l9.43-5.65a3.7,3.7,0,0,0,1.79-3.17V9.35A3.7,3.7,0,0,0,24.46,6.18ZM12.81,28.85a2.49,2.49,0,0,1-1-.35L2.36,22.85a2.58,2.58,0,0,1-1.25-2.22V9.35a2.67,2.67,0,0,1,.2-1l11.5,6.9ZM1.63,7.79a2.72,2.72,0,0,1,.73-.66L11.8,1.48a2.58,2.58,0,0,1,2.66,0l9.43,5.65a2.58,2.58,0,0,1,.73.66l-11.49,6.9ZM25.14,20.63a2.58,2.58,0,0,1-1.25,2.22L14.46,28.5a2.53,2.53,0,0,1-1,.35V15.24l11.5-6.9a2.67,2.67,0,0,1,.2,1Z"/><path class="cls-1" d="M10,18.14c.65.35,1.18.11,1.18-.54A2.38,2.38,0,0,0,10,15.77c-.66-.35-1.19-.11-1.19.54A2.36,2.36,0,0,0,10,18.14Z"/><path class="cls-1" d="M3.36,21.14c.66.36,1.19.12,1.19-.54a2.33,2.33,0,0,0-1.19-1.82c-.65-.36-1.18-.12-1.18.54A2.34,2.34,0,0,0,3.36,21.14Z"/><path class="cls-1" d="M6.67,19.64c.65.36,1.18.12,1.18-.54a2.38,2.38,0,0,0-1.18-1.83c-.66-.35-1.19-.11-1.19.54A2.35,2.35,0,0,0,6.67,19.64Z"/><path class="cls-1" d="M22.63,12.17A2.38,2.38,0,0,0,21.45,14c0,.65.53.89,1.18.54a2.38,2.38,0,0,0,1.18-1.83C23.81,12.06,23.28,11.82,22.63,12.17Z"/><path class="cls-1" d="M16,15.77a2.36,2.36,0,0,0-1.19,1.83c0,.65.53.89,1.19.54a2.38,2.38,0,0,0,1.18-1.83C17.21,15.66,16.68,15.42,16,15.77Z"/><path class="cls-1" d="M22.63,18.78a2.34,2.34,0,0,0-1.18,1.82c0,.66.53.9,1.18.54a2.34,2.34,0,0,0,1.18-1.82C23.81,18.66,23.28,18.42,22.63,18.78Z"/><path class="cls-1" d="M16,22.38a2.33,2.33,0,0,0-1.19,1.82c0,.66.53.9,1.19.54a2.34,2.34,0,0,0,1.18-1.83C17.21,22.26,16.68,22,16,22.38Z"/><path class="cls-1" d="M14.82,6.27a3.07,3.07,0,0,0-3.38,0,1.4,1.4,0,0,0-.06,2.43,3.11,3.11,0,0,0,3.39,0A1.4,1.4,0,0,0,14.82,6.27Z"/></g></g></svg>