<svg xmlns="http://www.w3.org/2000/svg" viewBox="0 0 27.16 16.37"><defs><style>.cls-1{fill:#e8314b;}</style></defs><g id="レイヤー_2" data-name="レイヤー 2"><g id="pc"><path class="cls-1" d="M22.73,7.3c-2.47-.6-6.31-3.07-8.67-5.1a9.38,9.38,0,0,1-.84-.81A4.34,4.34,0,0,0,11.61.16,2.32,2.32,0,0,0,10.74,0h0A3.72,3.72,0,0,0,8.57.87a3.1,3.1,0,0,0-1.36,2.2H6.92a1.55,1.55,0,0,1-1.57-.81A3.15,3.15,0,0,0,2.66.57,2.74,2.74,0,0,0,0,3.55V16.37H27.08V14.72c0-.07,0-.25,0-.41C27.22,12.87,27.57,8.46,22.73,7.3ZM20.44,9.21a3.84,3.84,0,0,1,1.09-.56c.28.1.55.18.82.25a3.7,3.7,0,0,1,3.13,3.49h-7l.5,0h.11v0a4.45,4.45,0,0,1,.45-2A3.45,3.45,0,0,1,20.44,9.21ZM20,8l-.3.2a4.5,4.5,0,0,0-1.06,1.19l-1.37-.68,1-1.61C18.84,7.46,19.42,7.77,20,8ZM17.54,6.72l-1,1.64q-.68-.34-1.29-.69l1.25-1.61ZM15.81,5.6l-1.3,1.67L13.3,6.56l1.46-1.71ZM13,3.44h0c.34.29.72.6,1.11.9L12.58,6.13,11.2,5.26ZM9.56,2.19a2.16,2.16,0,0,1,1.18-.54.79.79,0,0,1,.3.05,4.92,4.92,0,0,1,1.33,1.17L10.51,4.79C9.85,4.34,9.33,4,9,3.69l-.07,0C8.77,3.26,8.82,2.74,9.56,2.19ZM1.65,3.55c0-.9.47-1.33,1-1.33a1.5,1.5,0,0,1,1.25.85,3.23,3.23,0,0,0,3,1.66,6.3,6.3,0,0,0,1.2-.13,59.34,59.34,0,0,0,10,5.94l0,.08a6,6,0,0,0-.27,1.69v.08H8.1a5.2,5.2,0,0,0-1.53-2.5A6.71,6.71,0,0,0,1.94,8.21H1.65Zm0,5.9h.29A5.43,5.43,0,0,1,5.73,10.8a4,4,0,0,1,1.08,1.59H1.65Zm23.78,5.27H1.65V13.63H25.5C25.48,14.09,25.43,14.47,25.43,14.72Z"/></g></g></svg>