<svg xmlns="http://www.w3.org/2000/svg" viewBox="0 0 29.91 15.64"><defs><style>.cls-1{fill:#e8314b;}</style></defs><g id="レイヤー_2" data-name="レイヤー 2"><g id="pc"><path class="cls-1" d="M2,9.08,1.86,9a.73.73,0,0,0-.65-.15.7.7,0,0,0-.49.38l0,.09A18.9,18.9,0,0,0,0,12.39a5.18,5.18,0,0,0,.17,2.33c.22.59,1.84,1.7,3.7.06a9.06,9.06,0,0,1,1.33-1c.31-.2.58-.34.58-.34a.71.71,0,0,0,.38-.54.67.67,0,0,0-.26-.61Q3.95,10.7,2,9.08Z"/><path class="cls-1" d="M10.26,10.14C9.45,8.28,8.67,6.41,7.9,4.54,7.68,4,7.47,3.49,7.26,3a.77.77,0,0,0-.46-.42.73.73,0,0,0-.61.08,5.35,5.35,0,0,0-.82.49A13.49,13.49,0,0,0,2.29,6.06a7.87,7.87,0,0,0-.53.79.73.73,0,0,0,.15.94l.75.63q2.05,1.71,4.18,3.39l.66.53a.82.82,0,0,0,.71.13l1.93-.55a.74.74,0,0,0,.46-.39.66.66,0,0,0,0-.58C10.5,10.68,10.38,10.41,10.26,10.14Z"/><path class="cls-1" d="M29.87,12.39a18.9,18.9,0,0,0-.66-3.11l0-.09a.68.68,0,0,0-.49-.38.73.73,0,0,0-.65.15l-.14.12Q26,10.7,24,12.29a.67.67,0,0,0-.26.61.71.71,0,0,0,.38.54,1.89,1.89,0,0,1,.53.31,12.38,12.38,0,0,1,1.38,1c1.86,1.64,3.48.53,3.7-.06A5.18,5.18,0,0,0,29.87,12.39Z"/><path class="cls-1" d="M28,7.79a.73.73,0,0,0,.15-.94,7.87,7.87,0,0,0-.53-.79,13.28,13.28,0,0,0-3.08-2.95,8,8,0,0,0-.82-.5A.75.75,0,0,0,22.65,3c-.21.53-.42,1.06-.64,1.58-.77,1.87-1.55,3.74-2.36,5.6-.12.27-.24.54-.35.81a.66.66,0,0,0,0,.58.74.74,0,0,0,.46.39l1.93.55a.82.82,0,0,0,.71-.13l.66-.53q2.13-1.68,4.18-3.39Z"/><path class="cls-1" d="M21.89,2.28a.76.76,0,0,0,0-.59.77.77,0,0,0-.43-.4A9.81,9.81,0,0,0,20.33.84,17.62,17.62,0,0,0,9.58.84a9.81,9.81,0,0,0-1.13.45.77.77,0,0,0-.43.4.76.76,0,0,0,0,.59q.23.59.48,1.17c.85,2.09,1.73,4.16,2.64,6.24.24.55.48,1.1.73,1.65a.8.8,0,0,0,.79.46,22.64,22.64,0,0,1,2.3-.17,22.61,22.61,0,0,1,2.29.17.8.8,0,0,0,.79-.46c.25-.55.49-1.1.73-1.65.91-2.08,1.79-4.15,2.64-6.24Q21.67,2.87,21.89,2.28Z"/></g></g></svg>