<svg xmlns="http://www.w3.org/2000/svg" viewBox="0 0 35.28 32.86"><defs><style>.cls-1{fill:#e8314b;}</style></defs><g id="レイヤー_2" data-name="レイヤー 2"><g id="pc"><rect class="cls-1" x="5.87" y="4.81" width="1.48" height="1.18" rx="0.29" transform="translate(-1.22 8.81) rotate(-62.78)"/><path class="cls-1" d="M35,26.8a2.49,2.49,0,0,0-.32-.56A1.25,1.25,0,0,0,34.4,26a.52.52,0,0,0-.15-.07.46.46,0,0,0-.21,0,.63.63,0,0,0-.29.08.58.58,0,0,0-.2.18l-.13.18.07.21a.37.37,0,0,1,0,.14,1,1,0,0,1-.07.35,1.24,1.24,0,0,1-.39.53,1.28,1.28,0,0,1-.79.24A2.83,2.83,0,0,1,31,27.5a1.87,1.87,0,0,1-.58-.41,1.77,1.77,0,0,1-.34-.47,5.18,5.18,0,0,1-.41-1.16A23.73,23.73,0,0,0,29,23a9.79,9.79,0,0,0-1.68-3h0c-2.91-3.25-6.19-7-8.75-10L15.45,6.34l-.91-1.06L14.28,5,13.83,3.3l-.05-.06s-.53-.75-1.11-1.51c-.29-.38-.59-.77-.85-1.07L11.46.27,11.29.13l-.1-.07A.5.5,0,0,0,11,0h-.1a.53.53,0,0,0-.19,0,.65.65,0,0,0-.22.15,1.66,1.66,0,0,0-.23.31,6,6,0,0,0-.32.71c-.15.39-.29.82-.39,1.14l-.07.21A10.79,10.79,0,0,0,8,2.46a5.42,5.42,0,0,0-1.45.16,2.33,2.33,0,0,0-.49.21,5.33,5.33,0,0,0-.81.56,10.44,10.44,0,0,0-1,.95L4,4.64l-2.45-.2-.29,0a1.22,1.22,0,0,0-.57.13,1,1,0,0,0-.33.25,1.19,1.19,0,0,0-.28.5A1.75,1.75,0,0,0,0,5.85a2.24,2.24,0,0,0,.12.73,6.24,6.24,0,0,0,.33.71c.2.37.44.76.63,1.06l.33.51s.33.48.73,1a8.68,8.68,0,0,0,.61.71,2.61,2.61,0,0,0,.31.28l.17.11a.93.93,0,0,0,.22.08,3.44,3.44,0,0,1,.43.13l.87.31.32.12.07,0c.21.18,1.14.94,2,1.78a17.65,17.65,0,0,1,1.3,1.33,3.87,3.87,0,0,1,.39.54.59.59,0,0,1,.09.18s0,0,0,.05H9a13.34,13.34,0,0,0,.57,4h0c.06.76.09,1.85.09,3,0,1.33,0,2.75-.12,3.9,0,.58-.09,1.09-.14,1.48,0,.2-.06.37-.09.49a1,1,0,0,1-.05.16.15.15,0,0,1,0,.07,5,5,0,0,1-.91,1.09,4.12,4.12,0,0,0-.48.54,1.69,1.69,0,0,0-.19.32,1.26,1.26,0,0,0-.1.38,1.34,1.34,0,0,0,0,.2,1.49,1.49,0,0,0,.14.65,1.61,1.61,0,0,0,.7.74,2.5,2.5,0,0,0,1.15.3H10a3.9,3.9,0,0,0,.76-.06,2.51,2.51,0,0,0,.57-.18,1.84,1.84,0,0,0,.72-.62,1,1,0,0,0,.1-.18,1.64,1.64,0,0,0,.14.22,2,2,0,0,0,.58.55,2,2,0,0,0,.81.29,4.35,4.35,0,0,0,.7,0,3.78,3.78,0,0,0,1.8-.42,3.69,3.69,0,0,0,.48-.31H23a3.33,3.33,0,0,0,1.67-.39,1.81,1.81,0,0,0,.57-.49,1.29,1.29,0,0,0,.19-.39c.21.16.45.32.71.49A7.2,7.2,0,0,0,30,32.5a6.42,6.42,0,0,0,3.25-.85,4.81,4.81,0,0,0,1.17-1,3.4,3.4,0,0,0,.71-1.27,3.34,3.34,0,0,0,.15-1A4.05,4.05,0,0,0,35,26.8Zm-27-13.88c-.48-.46-1-.89-1.39-1.25s-.92-.77-.93-.77l0,0-.05,0-.75-.29-.62-.22c-.19-.06-.36-.12-.51-.15s-.06,0-.12-.08a3.88,3.88,0,0,1-.42-.45l-.18-.21.8.15.18,0a.71.71,0,0,0,.31-.07.69.69,0,0,0,.27-.22.5.5,0,0,0,.07-.15L4.14,9l.12,0L4.15,9l-.06.08a.24.24,0,0,1-.19.07H3.8L2.52,8.93,2.43,8.8l-.22-.31L2.15,8.4l0,0h0l-.55-.87c-.1-.16-.19-.32-.28-.48A9.36,9.36,0,0,0,2,5.34l2.42.19.14-.17h0s.42-.47.89-.92a7.47,7.47,0,0,1,.76-.63,2.49,2.49,0,0,1,.67-.36A4.44,4.44,0,0,1,8,3.32a9.72,9.72,0,0,1,1.18.07l.39,0,.1,0h0l-.23.82.42.11.52-1.91h0c.07-.22.15-.47.24-.72A6.14,6.14,0,0,1,11,1a.87.87,0,0,1,.12.14c.18.2.4.46.61.74s.67.88.93,1.24c.13.17.24.32.31.43l.08.1.46,1.71.06.07,1.51,1.77ZM34.31,29.17a2.46,2.46,0,0,1-.54.95,4.1,4.1,0,0,1-1.57,1.1,6,6,0,0,1-2.2.42,6.32,6.32,0,0,1-3.42-1,7.89,7.89,0,0,1-2.06-1.76,2.4,2.4,0,0,1-.29-.45l0-.1h0l-.2.05.2,0-.84.18a2.46,2.46,0,0,0,.49.9,5.87,5.87,0,0,0,.51.58l-.05,0a1.3,1.3,0,0,1,.24.31.52.52,0,0,1,.05.21.37.37,0,0,1-.07.21,1.1,1.1,0,0,1-.53.35,3,3,0,0,1-1,.17H16.34l-.12.13h0a1.83,1.83,0,0,1-.44.3,3,3,0,0,1-1.35.29,4,4,0,0,1-.58,0,1.1,1.1,0,0,1-.47-.17,1.28,1.28,0,0,1-.47-.53,1.6,1.6,0,0,1-.16-.74,1.27,1.27,0,0,1,.23-.78.67.67,0,0,1,.26-.21.82.82,0,0,1,.38-.08h5.93V29l0-.28h0v-.14h-.61l-.55-.16v0a6.92,6.92,0,0,1-.87-.31l-.33-.15a5,5,0,0,1-1.55-1.16,3.13,3.13,0,0,1-.49-.8A2.8,2.8,0,0,1,15,25a1.85,1.85,0,0,1,0-.23,3.8,3.8,0,0,1,1.15-2.42,3.84,3.84,0,0,1,2.76-1.11,4.59,4.59,0,0,1,.81.07l.1-.57a5.8,5.8,0,0,0-.91-.08,4.45,4.45,0,0,0-3.16,1.28,4.36,4.36,0,0,0-1.32,2.79,2.44,2.44,0,0,0,0,.27,3.18,3.18,0,0,0,.23,1.21h0a7.25,7.25,0,0,1-1-1.23c0-.24.09-.48.13-.71.14-.7.26-1.31.34-1.74s.14-.7.14-.7l-.85-.16s-.36,1.86-.75,3.91c-.2,1-.41,2.11-.58,3s-.32,1.69-.39,2.09a2,2,0,0,1-.22.68.91.91,0,0,1-.24.27,1.07,1.07,0,0,1-.47.21,2.73,2.73,0,0,1-.67.06H9.58a1.5,1.5,0,0,1-.92-.3.68.68,0,0,1-.24-.53V31a1,1,0,0,1,0-.14,1.4,1.4,0,0,1,.22-.31c.15-.18.38-.39.62-.64A4.13,4.13,0,0,0,10,29a1.33,1.33,0,0,0,.09-.21,3.71,3.71,0,0,0,.11-.45c.06-.31.11-.69.15-1.12.12-1.29.17-3.08.17-4.73,0-.92,0-1.8,0-2.52,0-.36,0-.69-.06-1a5.91,5.91,0,0,0-.1-.66l-.18,0a13.46,13.46,0,0,1-.3-2.87.91.91,0,0,0-.08-.37,2.72,2.72,0,0,0-.35-.61l-.08-.1,7.1-5.6c2.66,3.11,6.73,7.82,10.26,11.75A9.32,9.32,0,0,1,28.1,23,28,28,0,0,1,29,26.05a4.27,4.27,0,0,0,.56,1.27,2.67,2.67,0,0,0,1.13.95,3.74,3.74,0,0,0,1.61.42,2.32,2.32,0,0,0,.94-.19,2.07,2.07,0,0,0,.89-.81,2.21,2.21,0,0,0,.16-.35,2.29,2.29,0,0,1,.08.28,3.25,3.25,0,0,1,.09.77A2.54,2.54,0,0,1,34.31,29.17Zm-21.43-.42c.15-.8.32-1.71.5-2.61a9.12,9.12,0,0,0,2.37,2,7.85,7.85,0,0,0,.79.43H13.61A1.74,1.74,0,0,0,12.88,28.75Z"/></g></g></svg>