<svg xmlns="http://www.w3.org/2000/svg" viewBox="0 0 16.25 26.96"><defs><style>.cls-1{fill:#e8314b;}</style></defs><g id="レイヤー_2" data-name="レイヤー 2"><g id="pc"><path class="cls-1" d="M15.5,4.49a8.15,8.15,0,0,0-3.12-3.21A9.26,9.26,0,0,0,7.65,0,10.6,10.6,0,0,0,2.31,1.34,6,6,0,0,0,.35,3a1,1,0,0,0-.35.8,1,1,0,0,0,.38.77l1.9,1.52a1,1,0,0,0,1.3,0,2.6,2.6,0,0,1,1-.83,6,6,0,0,1,3.1-.75,4.65,4.65,0,0,1,3,1.09,3.37,3.37,0,0,1,.81,1,1.8,1.8,0,0,1,.23.82A3.36,3.36,0,0,1,11.39,9a3.21,3.21,0,0,1-.62.83,6.89,6.89,0,0,1-1.5,1.08c-.6.33-1.23.63-1.88,1A5.84,5.84,0,0,0,5.3,13.77a4.88,4.88,0,0,0-.65,1.45,6,6,0,0,0-.21,1.64V18a1,1,0,0,0,1,1H7.92a1,1,0,0,0,1-1V16.86A1.91,1.91,0,0,1,9,16.41a.5.5,0,0,1,.13-.24,1.77,1.77,0,0,1,.46-.34c.37-.2,1-.48,1.64-.85a11,11,0,0,0,3.26-2.53,7.33,7.33,0,0,0,1.28-2.21,8.06,8.06,0,0,0,.49-2.84A6.42,6.42,0,0,0,15.5,4.49Z"/><path class="cls-1" d="M6.69,21.4a2.78,2.78,0,1,0,2.78,2.78A2.79,2.79,0,0,0,6.69,21.4Z"/></g></g></svg>