<svg xmlns="http://www.w3.org/2000/svg" viewBox="0 0 23.57 39.73"><defs><style>.cls-1{fill:#e8314b;}.cls-2{fill:#fff;}</style></defs><g id="レイヤー_2" data-name="レイヤー 2"><g id="pc"><path class="cls-1" d="M13.56,27.93a15,15,0,0,1,1.08-4.75H8.19a15,15,0,0,1,1.08,4.75c0,1.8-.8,2.12-1.82,3.14a5.57,5.57,0,0,0-1.64,4,5.54,5.54,0,0,0,2.54,4.69h6.14a5.63,5.63,0,0,0,1.84-2A5.55,5.55,0,0,0,17,35a5.61,5.61,0,0,0-1.64-4C14.37,30.05,13.56,29.82,13.56,27.93Z"/><path class="cls-1" d="M9.39,22.28h1.7a42,42,0,0,0-2.43-9.14l-1.56.62A40.19,40.19,0,0,1,9.39,22.28Z"/><path class="cls-1" d="M13.54,17.28a17.39,17.39,0,0,0-1.65,3.29,14.23,14.23,0,0,0-.51,1.71h1.73c.11-.39.23-.77.36-1.13a16.23,16.23,0,0,1,2.27-4.09c.37-.5.71-.88.94-1.14s.22-.23.28-.3l.07-.07v0h0l-.14-.14,0,0-1.06-1.11A17.14,17.14,0,0,0,13.54,17.28Z"/><path class="cls-1" d="M8.22,20.15c-.51-1.61-3.17-4.1-5.58-2.39C3.25,20.18,5.57,21.77,8.22,20.15Z"/><path class="cls-1" d="M14.81,20.05A2.65,2.65,0,0,0,19.19,19C18.17,18.26,15.48,18,14.81,20.05Z"/><path class="cls-1" d="M12.68,16.83a1.06,1.06,0,1,0-1.06-1.06A1.05,1.05,0,0,0,12.68,16.83Z"/><path class="cls-1" d="M6,15.13a1.06,1.06,0,1,0-1.06,1.06A1.06,1.06,0,0,0,6,15.13Z"/><path class="cls-1" d="M10.89,10.43a1.27,1.27,0,1,0,1.27,1.27A1.27,1.27,0,0,0,10.89,10.43Z"/><path class="cls-1" d="M23.55,10.69a2.25,2.25,0,0,0-2.2-2,2.26,2.26,0,0,0-4.43.59,2.26,2.26,0,0,0,.59,4.43,2.26,2.26,0,0,0,4.43-.59A2.27,2.27,0,0,0,23.55,10.69Zm-3.94,2a1.41,1.41,0,0,1-.37-2.8,1.41,1.41,0,1,1,.37,2.8Z"/><path class="cls-2" d="M9.8,5.11A2.49,2.49,0,0,0,14,7.65a2.49,2.49,0,0,0,2.54-4.21A2.49,2.49,0,0,0,12.34.9,2.49,2.49,0,0,0,9.8,5.11Zm2-1.63a1.55,1.55,0,0,1,2.66,1.6,1.55,1.55,0,1,1-2.66-1.6Z"/><path class="cls-1" d="M5.47,11.59A2.26,2.26,0,0,0,6.88,7.35,2.26,2.26,0,0,0,2.65,5.94a2.26,2.26,0,0,0-1.42,4.24,2.26,2.26,0,0,0,4.24,1.41ZM2.72,8.32a1.41,1.41,0,1,1,.89,1.78A1.41,1.41,0,0,1,2.72,8.32Z"/></g></g></svg>