<svg xmlns="http://www.w3.org/2000/svg" viewBox="0 0 29.34 33.43"><defs><style>.cls-1{fill:#e8314b;}</style></defs><g id="レイヤー_2" data-name="レイヤー 2"><g id="pc"><path class="cls-1" d="M29.08,23.39a8.37,8.37,0,0,0-.61-1.61q-.2-.37-.42-.72c-.12-.18-.24-.36-.37-.53A8.16,8.16,0,0,0,24,17.85a8.65,8.65,0,0,0-1.5-.37,5.54,5.54,0,0,0-.6-.06,8.19,8.19,0,0,0-2.59.24h0V8.39c-3.52-2.34-3-8.39-3-8.39H13.39V2.32a3.75,3.75,0,1,1-7.5,0V0H3s.49,6.05-3,8.39v13.1H14.34a5.71,5.71,0,0,0-.35.7,2,2,0,0,0-.11.26H0V33.32H8.41l1.27-4.89,1.19,4.89h8.41v-.15l.21,0c.21.05.41.09.62.12a7.92,7.92,0,0,0,3.24-.17,7.47,7.47,0,0,0,1.5-.56,6.63,6.63,0,0,0,.59-.31,7,7,0,0,0,.77-.53,8,8,0,0,0,2.68-3.7,8.36,8.36,0,0,0,.27-1c.05-.21.08-.42.11-.63A8,8,0,0,0,29.08,23.39ZM3.73,6.93A8.64,8.64,0,0,1,1,10.14V8.88C3.61,6.77,4,2.86,4,1h.88V2.32s0,.07,0,.11h0a3.25,3.25,0,0,1,0,.33A9.83,9.83,0,0,1,3.73,6.93ZM22.08,19.54a3.08,3.08,0,0,0,.29-.8,6.83,6.83,0,0,1,3.41,1.6c.19.17.36.34.53.52-.27,0-.54,0-.82,0a10.38,10.38,0,0,0-2.8.59l-.6.22c-.29-.37-.6-.74-.92-1.08a2.9,2.9,0,0,0,.38-.33A3,3,0,0,0,22.08,19.54Zm-2.47-.66a7,7,0,0,1,2.13-.21,2.83,2.83,0,0,1-.23.57,2.58,2.58,0,0,1-.82.89A12.47,12.47,0,0,0,19.29,19Zm-1,.36c.23.15.45.32.68.5a10.83,10.83,0,0,1,.82.72,6.59,6.59,0,0,1-.82.29l-.3.07c-1,.22-2,.27-3,.5q.15-.2.3-.36A6.63,6.63,0,0,1,18.6,19.24ZM14.36,2.43V1h.88c0,1.88.42,5.79,3.06,7.9v1.26a8.46,8.46,0,0,1-2.75-3.21,9.83,9.83,0,0,1-1.2-4.17c0-.12,0-.23,0-.33Zm.43,24.7a6.61,6.61,0,0,1-.15-2.68,6.29,6.29,0,0,1,.62-2c.05-.11.1-.21.16-.32l.41-.11a12.21,12.21,0,0,1,1.57-.27c.55-.07,1.11-.14,1.69-.26h0l.15,0A5.64,5.64,0,0,0,20.6,21a12.4,12.4,0,0,1,.87,1l-.14.07a9.28,9.28,0,0,0-1.3.8c-.26.2-.51.4-.75.62a13.67,13.67,0,0,0-1.4,1.45,18.62,18.62,0,0,0-1.64,2.3c-.3.5-.57,1-.82,1.49A6.37,6.37,0,0,1,14.79,27.13Zm5.26,4.37c0,.17-.07.36-.11.53a4.57,4.57,0,0,1-.66-.18,6.82,6.82,0,0,1-2.42-1.36,7.37,7.37,0,0,1-1.06-1.17c.3-.59.63-1.18,1-1.77a19.54,19.54,0,0,1,1.59-2.21c.28-.33.57-.65.89-1a12.43,12.43,0,0,1,1.16-1,8.78,8.78,0,0,1,1.19-.75l.25-.11a14.31,14.31,0,0,1,1.25,2.16,4.88,4.88,0,0,0-1,.77,5.72,5.72,0,0,0-.84,1.13,7.66,7.66,0,0,0-.53,1.26,16.69,16.69,0,0,0-.53,2.48C20.18,30.73,20.12,31.12,20.05,31.5ZM23,32a6.78,6.78,0,0,1-2.48.18c0-.17.08-.34.11-.52.08-.39.15-.78.21-1.18A15.25,15.25,0,0,1,21.41,28a5.18,5.18,0,0,1,1.21-2.11,4.68,4.68,0,0,1,.78-.63,17.49,17.49,0,0,1,1.15,4.11,16.71,16.71,0,0,1,.22,1.82A6.65,6.65,0,0,1,23,32Zm5-5.57a6.85,6.85,0,0,1-1.61,3.5,6.64,6.64,0,0,1-1,.95c0-.5-.1-1-.17-1.52A18.73,18.73,0,0,0,24,25a3.31,3.31,0,0,1,.68-.2,2.4,2.4,0,0,1,1.1.08,3.75,3.75,0,0,1,1,.51c.42.28.81.61,1.21.93C28,26.33,28,26.36,28,26.38Zm-.84-1.54a4.52,4.52,0,0,0-1.18-.6,3,3,0,0,0-1.4-.11,3.55,3.55,0,0,0-.86.25,13.45,13.45,0,0,0-1.23-2.13,3.61,3.61,0,0,1,.42-.16,9.32,9.32,0,0,1,3.92-.57,7,7,0,0,1,1,2.18,6.86,6.86,0,0,1,.22,1.84C27.79,25.3,27.49,25.06,27.17,24.84Z"/></g></g></svg>