<svg xmlns="http://www.w3.org/2000/svg" viewBox="0 0 20.52 37.64"><defs><style>.cls-1{fill:#e8314b;}</style></defs><g id="レイヤー_2" data-name="レイヤー 2"><g id="pc"><path class="cls-1" d="M18.79,10.79a6,6,0,0,1,1.33.69,5.84,5.84,0,0,0-6.55-3.37V8a6.79,6.79,0,0,1,5.24-1.75,6.86,6.86,0,0,1,1.71.38A6.82,6.82,0,0,0,12.65,4.5a8.42,8.42,0,0,0-1.6-2.15A8.26,8.26,0,0,0,4.94,0,8.3,8.3,0,0,1,6.65,1.29,8.23,8.23,0,0,1,8.86,5,6.8,6.8,0,0,0,0,6.61a6.86,6.86,0,0,1,1.71-.38A6.8,6.8,0,0,1,7.13,8.15,5.83,5.83,0,0,0,.4,11.48a6,6,0,0,1,1.33-.69,5.83,5.83,0,0,1,7.1,2.64,6.88,6.88,0,0,0-2.78,1.3,9.74,9.74,0,0,0-2.71,3.44A21,21,0,0,0,1.4,27.31c0,3.36.68,5.84,2.1,7.57s3.77,2.76,6.76,2.76,5.27-.93,6.76-2.76,2.1-4.21,2.1-7.57a21.11,21.11,0,0,0-1.94-9.14,9.85,9.85,0,0,0-2.71-3.44,6.88,6.88,0,0,0-2.78-1.3A5.83,5.83,0,0,1,18.79,10.79ZM8.32,14.9,6.58,16.64l-.37-.37A5.6,5.6,0,0,1,8.32,14.9ZM5.27,17.41l.27.27-1,1A10.27,10.27,0,0,1,5.27,17.41Zm1.31,1.3,2.64,2.65L6.58,24,3.93,21.36Zm3.68,9L7.61,25l2.65-2.64L12.9,25Zm3.68-1.6,2.64,2.64-2.64,2.64-2.65-2.64ZM9.22,28.72,6.58,31.36,3.93,28.72l2.65-2.64ZM2.7,27.39a22.9,22.9,0,0,1,.48-4.72L5.54,25,2.9,27.68l-.2-.2Zm.14,2.42.06,0L5.54,32.4,4.19,33.75A8.76,8.76,0,0,1,2.84,29.81ZM9,36.26a6.6,6.6,0,0,1-3.86-1.42l1.4-1.4,2.64,2.64Zm1.22-1.21L7.61,32.4l2.65-2.64L12.9,32.4Zm1.21,1.21-.18-.18,2.65-2.64,1.4,1.4A6.66,6.66,0,0,1,11.47,36.26Zm4.86-2.51L15,32.4l2.64-2.64.06,0A8.89,8.89,0,0,1,16.33,33.75Zm1-11.08a22.9,22.9,0,0,1,.48,4.72v.09l-.2.2L15,25Zm-2.09-5.26A10.24,10.24,0,0,1,16,18.72l-1-1Zm1.33,3.95L13.94,24l-2.65-2.64,2.65-2.65Zm-2.27-5.09-.37.37L12.2,14.9A5.68,5.68,0,0,1,14.31,16.27ZM12.9,17.68l-2.64,2.64L7.61,17.68,10.26,15Z"/></g></g></svg>