<svg xmlns="http://www.w3.org/2000/svg" viewBox="0 0 375 667"><defs><style>.cls-1{fill:#fff;}</style></defs><g id="レイヤー_2" data-name="レイヤー 2"><g id="pc"><path class="cls-1" d="M162,282.52a88.58,88.58,0,0,0,18.38,2.42c1.41-2.74,3.1-4.36,5.06-4.36s3.64,1.61,5,4.35a97.61,97.61,0,0,0,14.4-1.59c1.39-5.09,3.22-8.95,5.45-10.68-.57-.17-1.18-.35-1.83-.51a96.33,96.33,0,0,0-23.26-2.51A96.3,96.3,0,0,0,162,272.15c-6.64,1.73-9,3.81-9,5.18S155.32,280.79,162,282.52Zm27.28,4.4c-.15-.35-.3-.67-.46-1s-.35-.67-.52-1c-1.06-1.75-2.07-2.47-2.86-2.47s-1.81.73-2.87,2.48c-.18.29-.35.61-.53,1s-.3.62-.45,1a35.65,35.65,0,0,0-1.78,5.32c-1.74,6.66-2.69,15.53-2.69,25s.95,18.31,2.69,25c1.86,7.16,4.13,9.71,5.63,9.71s3.76-2.55,5.63-9.71c1.74-6.66,2.69-15.53,2.69-25s-.95-18.31-2.69-25A35.32,35.32,0,0,0,189.24,286.92Zm-29.46,3.54c-3,0-7.28,11.67-7.28,30.68a91.85,91.85,0,0,0,2.39,22.15c1.64,6.3,3.6,8.54,4.89,8.54,3,0,7.29-11.67,7.29-30.69A91.82,91.82,0,0,0,164.68,299C163,292.7,161.07,290.46,159.78,290.46Zm58.3-10.28-.39-1c-.15-.37-.3-.73-.45-1.06a12.36,12.36,0,0,0-2.32-3.59,2.86,2.86,0,0,0-1.92-.93h0c-2.06,0-4.21,3.41-5.94,9.27-.11.35-.21.7-.31,1.07s-.19.68-.27,1a116.46,116.46,0,0,0-2.95,27.8c0,23.09,5,39.18,9.5,39.18s9.5-16.09,9.5-39.18C222.5,298.55,220.59,287,218.08,280.18ZM0,0H375V667H0Z"/></g></g></svg>