<?xml version="1.0" encoding="utf-8"?>
<!-- Generator: Adobe Illustrator 25.4.6, SVG Export Plug-In . SVG Version: 6.00 Build 0)  -->
<svg version="1.1" id="レイヤー_1" xmlns="http://www.w3.org/2000/svg" xmlns:xlink="http://www.w3.org/1999/xlink" x="0px"
	 y="0px" viewBox="0 0 1082 308.9" style="enable-background:new 0 0 1082 308.9;" xml:space="preserve">
<style type="text/css">
	.st0{fill:#333333;}
	.st1{fill:#4AA064;}
	.st2{fill:none;stroke:#4AA064;stroke-width:1.76;stroke-miterlimit:10;}
	.st3{fill:#FFFFFF;}
	.st4{fill:none;stroke:#FFFFFF;stroke-width:6;}
	.st5{fill:none;stroke:#FFFFFF;stroke-width:1.1813;stroke-miterlimit:10;}
</style>
<g>
	<circle class="st0" cx="144.4" cy="104.4" r="17.4"/>
	<g>
		<g>
			<g>
				<g>
					<path class="st0" d="M265,265.6c0,0.7-0.5,1-1.4,1c-0.8,0-1.1-0.2-1.1-0.8c0-1.8,0.1-3.8,0.1-11.2c0-2.4,0-4.8-0.2-7.2
						c1.3,0.6,1.5,0.7,2.7,1.3h2.2c0.9-1,1.1-1.2,1.3-1.2c0.3,0,0.5,0.2,1.4,0.9c0.4,0.3,0.6,0.5,0.6,0.7s-0.1,0.4-0.7,0.8v2.4
						c0,6.4,0.1,10.9,0.1,12.4c0,0.7-0.5,1-1.4,1c-0.7,0-1-0.2-1-0.8v-0.9H265V265.6z M267.7,249.2H265v6.5h2.7V249.2z M267.7,256.3
						H265v7h2.7V256.3z M278.4,254.9h3.6c1.1-1.4,1.5-1.6,1.6-1.6c0.2,0,0.5,0.2,1.7,1.1c0.5,0.4,0.7,0.7,0.7,0.8
						c0,0.2-0.1,0.3-0.3,0.3h-13.4c-0.5,0-0.9,0.1-1.5,0.2l-0.3-1c0.7,0.2,1.2,0.2,1.7,0.2h3.7v-4H273c-0.4,0-0.9,0.1-1.5,0.2
						l-0.3-1c0.7,0.2,1.2,0.2,1.7,0.2h3v-2.2c0-0.7-0.1-1.4-0.1-2.1c3.1,0.3,3.4,0.6,3.4,0.8c0,0.3-0.3,0.5-0.8,0.7v2.7h2.4
						c1.1-1.4,1.4-1.6,1.6-1.6c0.2,0,0.5,0.2,1.7,1.1c0.5,0.4,0.8,0.7,0.8,0.8s-0.1,0.3-0.3,0.3h-6.2V254.9z M281.9,262.8
						c0,1,0.1,3.2,0.1,4.2c0,1.1-0.1,1.5-0.6,2c-0.6,0.6-1.5,1-2.5,1c-0.2,0-0.4-0.1-0.4-0.3c-0.2-1.4-0.9-1.7-3-2.2
						c-0.1,0-0.1-0.3,0-0.3c1.3,0.1,2.5,0.1,3.5,0.1c0.4,0,0.5-0.1,0.5-0.4v-6.7h-7.1c-0.5,0-0.9,0.1-1.5,0.2l-0.3-1
						c0.7,0.2,1.2,0.2,1.7,0.2h7.2v-1.1c0-0.9,0-1.1-0.1-2.1c2.6,0.2,3.4,0.4,3.4,0.8c0,0.3-0.2,0.4-0.8,0.7v1.7h0.6
						c1-1.1,1.3-1.4,1.5-1.4c0.2,0,0.5,0.2,1.4,1c0.4,0.3,0.6,0.5,0.6,0.7c0,0.2-0.1,0.3-0.3,0.3h-3.7V262.8z M275.5,265.7
						c-0.7,0-0.9-0.4-1.2-1.7c-0.3-1.3-0.8-2-1.5-2.6c-0.1-0.1,0-0.2,0.2-0.2c2.8,0.6,4.1,1.5,4.1,2.9
						C276.9,265,276.4,265.7,275.5,265.7z"/>
					<path class="st0" d="M296.2,254.6V269c0,0.7-0.5,1-1.5,1c-0.8,0-1.1-0.3-1.1-0.9c0-1.9,0.2-3.8,0.2-11.5c0-3.9,0-7.7-0.2-11.6
						c1.4,0.5,1.5,0.6,2.8,1.3h4.6c0.9-1,1.1-1.2,1.3-1.2c0.3,0,0.5,0.2,1.4,0.9c0.4,0.3,0.6,0.5,0.6,0.7c0,0.2-0.2,0.4-0.8,0.8v1
						c0,2.8,0.1,4.7,0.1,5.3s-0.5,0.9-1.4,0.9c-0.7,0-0.9-0.2-0.9-0.8v-0.3H296.2z M301.3,247.8h-5v2.7h5V247.8z M301.3,251.1h-5
						v2.9h5V251.1z M302,265.6v0.9c0,0.7-0.4,1-1.4,1c-0.7,0-1-0.2-1-0.8c0-0.9,0.1-1.8,0.1-5.2c0-1.6,0-3.2-0.1-4.9
						c1.2,0.5,1.4,0.6,2.7,1.3h4.9c0.9-1,1.1-1.1,1.3-1.1c0.3,0,0.5,0.1,1.4,0.9c0.5,0.4,0.6,0.5,0.6,0.8s-0.2,0.4-0.7,0.7v1.2
						c0,3.1,0,5.2,0,5.9c0,0.7-0.4,1-1.3,1c-0.7,0-0.9-0.3-0.9-0.8v-0.8H302z M307.5,258.5H302v2.8h5.5V258.5z M307.5,261.9H302v3.1
						h5.5V261.9z M308.4,254.6v0.1c0,0.7-0.4,1-1.3,1c-0.7,0-1-0.2-1-0.8c0-1,0.1-2,0.1-6.1c0-1,0-2-0.1-2.9
						c1.3,0.5,1.5,0.7,2.7,1.3h4.7c0.9-1,1.1-1.2,1.4-1.2c0.3,0,0.5,0.2,1.4,0.9c0.4,0.4,0.6,0.6,0.6,0.8c0,0.3-0.2,0.4-0.7,0.8v3.1
						c0,14.5,0,15.2,0,15.9c0,0.7-0.2,1.2-0.5,1.6c-0.4,0.5-1.2,0.8-2.3,0.8c-0.3,0-0.4-0.1-0.5-0.4c-0.1-1.2-0.6-1.6-2.6-2.1
						c-0.1,0-0.1-0.3,0-0.3c1.6,0.1,2,0.1,3,0.1c0.3,0,0.3-0.1,0.3-0.4v-12.2H308.4z M313.5,247.8h-5.1v2.7h5.1V247.8z M313.5,251.1
						h-5.1v2.9h5.1V251.1z"/>
				</g>
			</g>
		</g>
	</g>
	<g>
		<g>
			<g>
				<g>
					<path class="st0" d="M51.6,46.1h4.3c1-1.3,1.3-1.5,1.4-1.5c0.2,0,0.4,0.1,1.4,1c0.5,0.4,0.6,0.6,0.6,0.7s-0.1,0.2-0.2,0.2h-7.5
						v0.2c0,3.4,0.1,4.9,0.1,6.3c0,0.6-0.4,0.8-1.1,0.8c-0.6,0-0.8-0.2-0.8-0.7c0-0.5,0.1-3.4,0.1-6.4v-0.3h-5.2c-0.5,0-1,0-1.7,0.1
						L42.7,46c0.8,0.1,1.3,0.1,1.9,0.1h5.2V39h-4.4c-0.5,0-1,0-1.7,0.1l-0.2-0.7c0.7,0.1,1.3,0.1,1.9,0.1h10
						c0.9-1.1,1.2-1.3,1.3-1.3c0.2,0,0.4,0.1,1.3,0.9c0.4,0.3,0.6,0.5,0.6,0.6S58.5,39,58.4,39h-6.7V46.1z M47.1,45
						c-0.5,0-0.7-0.2-0.8-1.3c-0.2-1.5-0.6-2.4-1.3-3.5C44.9,40.1,45,40,45.1,40c2,1.1,3,2.4,3,3.7C48.1,44.5,47.7,45,47.1,45z
						 M56.7,41.3c-1.2,1.9-2.4,3.2-4,4.2c-0.1,0.1-0.2-0.1-0.2-0.2c0.8-1,1.6-2.5,2.2-3.9c0.2-0.6,0.4-1.2,0.5-1.7
						c1.6,0.7,2.2,1,2.2,1.3C57.4,41.2,57.2,41.3,56.7,41.3z"/>
					<path class="st0" d="M70.5,42.9c0.5-1,1-2.1,1.3-3.2c0.3-0.8,0.4-1.6,0.4-2.3c2,0.5,2.5,0.6,2.5,0.9c0,0.2-0.2,0.3-0.7,0.4
						c-0.3,0.8-0.7,1.5-1.1,2.2h5.2c0.7-0.8,0.8-0.9,1-0.9c0.2,0,0.3,0.1,1,0.8c0.3,0.3,0.4,0.4,0.4,0.6c0,0.1-0.1,0.2-0.6,0.6
						c-0.1,5.3-0.3,7.7-0.8,9.7c-0.2,0.7-0.5,1.2-0.9,1.5c-0.5,0.4-1.1,0.6-1.6,0.6c-0.4,0-0.4-0.1-0.5-0.5c-0.1-0.6-0.6-1-2-1.4
						c-0.1,0-0.1-0.3,0-0.3c1.4,0.1,1.8,0.2,2.1,0.2c0.8,0,1-0.1,1.2-0.3c0.6-1.2,0.9-3.7,1-10h-5.7c-0.9,1.5-2,2.7-3.2,3.6
						c-0.1,0.1-0.2-0.1-0.2-0.1C69.7,44.4,70.1,43.7,70.5,42.9C70.5,43,70.4,43,70.3,43h-2V48c0.8-0.3,1.6-0.6,2.3-0.8
						c0.1,0,0.2,0.1,0.1,0.2c-1.8,1.4-2.8,2-5,3.2c0,0.6-0.1,0.8-0.4,0.8c-0.3,0-0.6-0.6-1.2-2.2c0.4,0,0.9-0.2,1.5-0.3
						c0.3-0.1,0.6-0.2,1-0.3V43h-1.2c-0.3,0-0.5,0-0.9,0.1l-0.2-0.7c0.4,0.1,0.7,0.1,1,0.1h1.2v-2.8c0-0.9,0-1.6-0.1-2.2
						c2.2,0.2,2.4,0.4,2.4,0.6c0,0.2-0.2,0.3-0.6,0.5v3.9h0.1c0.5-0.9,0.7-1,0.8-1c0.2,0,0.3,0.1,0.9,0.7
						C70.4,42.5,70.5,42.7,70.5,42.9L70.5,42.9z M71.6,50.3c0,0.6-0.1,0.8-0.4,0.8c-0.3,0-0.5-0.4-1.2-2.2c0.4,0,1-0.1,1.5-0.2
						c1.7-0.3,3.9-0.8,5.5-1.4c0.1,0,0.2,0.1,0.1,0.2C75.3,48.7,74.2,49.3,71.6,50.3z M74.4,44.6c0.7-0.9,0.9-1.1,1.1-1.1
						c0.2,0,0.3,0.1,1,0.8c0.3,0.3,0.4,0.4,0.4,0.6s-0.1,0.2-0.2,0.2H72c-0.3,0-0.5,0-0.8,0.1L71,44.5c0.4,0.1,0.7,0.1,1,0.1H74.4z"
						/>
					<path class="st0" d="M90.9,42.5c0.6-0.6,0.7-0.7,0.9-0.7c0.2,0,0.3,0.1,0.9,0.7c0.3,0.2,0.4,0.4,0.4,0.5c0,0.1,0,0.2-0.4,0.4
						c-1,5.5-2.7,8.1-6.6,10.3c-0.1,0-0.2-0.1-0.1-0.2c1.8-1.5,3.2-3.5,4.1-6.2c-0.1,0.1-0.3,0.2-0.5,0.2c-0.3,0-0.5-0.2-0.5-0.7
						c-0.1-0.7-0.4-1.3-0.7-1.8c-0.6,1-1.4,1.8-2.3,2.6c-0.1,0.1-0.2-0.1-0.1-0.2c1.4-2.1,2.2-4.8,2.4-8.1h-0.7
						c-0.4,0-0.7,0-1.2,0.1l-0.2-0.7c0.6,0.1,1,0.1,1.4,0.1h3.8c0.8-0.9,1-1,1.1-1c0.2,0,0.4,0.1,1.1,0.7c0.3,0.3,0.5,0.4,0.5,0.6
						c0,0.1-0.1,0.2-0.2,0.2H90c-0.1,1-0.3,2.1-0.6,3.1H90.9z M89.2,42.9c-0.2,0.6-0.5,1.3-0.8,1.9c0.8,0.3,1.7,0.8,1.9,1.7
						c0.3-1.1,0.5-2.3,0.7-3.6H89.2z M97,44c0.1,0.7,0.2,1.5,0.4,2.3l2.2-0.3c0.7-1.1,0.9-1.2,1-1.2c0.2,0,0.4,0.1,1.2,0.6
						c0.4,0.2,0.5,0.3,0.5,0.5c0,0.1-0.1,0.1-0.2,0.2l-4.6,0.7c0.2,0.6,0.4,1.3,0.7,1.9c0.5-0.6,1-1.1,1.3-1.7
						c1.4,0.8,1.9,1,1.9,1.3c0,0.3-0.1,0.3-0.9,0.3c-0.5,0.5-1,1-1.5,1.4c0.2,0.3,0.4,0.5,0.6,0.7c0.6,0.6,1.2,1.1,1.4,1.1
						c0.2,0,0.4-0.1,1.2-2.1c0-0.1,0.3,0,0.2,0.1c-0.2,1.4-0.3,2.1-0.3,2.3c0,0.2,0,0.3,0.2,0.4c0.3,0.2,0.4,0.5,0.4,0.7
						c0,0.4-0.4,0.8-0.9,0.8c-0.8,0-2-0.7-3.1-1.8c-0.4-0.4-0.7-0.8-1-1.2c-2.1,1.3-4.5,2.2-7.1,2.4c-0.1,0-0.2-0.2-0.1-0.2
						c2.3-0.7,4.7-1.9,6.5-3.3c-0.5-0.9-0.8-1.8-1-2.8l-2.1,0.3c-0.7,0.1-0.9,0.2-1.2,0.3l-0.3-0.6c0.6,0,1.1,0,1.4-0.1l2.1-0.3
						c-0.2-0.9-0.3-1.6-0.4-2.3l-1.1,0.2c-0.5,0.1-0.8,0.1-1.2,0.3L92.9,44c0.5,0,1.1,0,1.4-0.1l1.1-0.2c-0.1-0.7-0.1-1.5-0.2-2.2
						l-1.1,0.2c-0.4,0.1-0.7,0.1-1.2,0.3l-0.3-0.6c0.7,0,1.1,0,1.4-0.1l1.2-0.2c0-0.4,0-0.7,0-1.1c0-1.4-0.1-1.7-0.2-2.4
						c1.9,0.3,2.3,0.4,2.3,0.6c0,0.1-0.1,0.3-0.5,0.5c0,0.9,0,1.6,0,2.3l2.4-0.3c0.6-0.9,0.7-1,0.9-1c0.2,0,0.4,0.1,1,0.5
						c0.3,0.2,0.4,0.3,0.4,0.5c0,0.1-0.1,0.2-0.2,0.2l-4.6,0.6c0,0.7,0.1,1.5,0.1,2.2l1.9-0.3c0.6-1,0.8-1.1,0.9-1.1
						c0.2,0,0.4,0.1,1.1,0.5c0.4,0.2,0.5,0.3,0.5,0.5c0,0.1-0.1,0.2-0.2,0.2L97,44z M99.1,40c-0.3,0-0.4-0.1-0.7-0.6
						c-0.3-0.5-0.6-0.9-0.9-1.1c-0.1-0.1,0-0.2,0.1-0.2c1.5,0.1,2.2,0.5,2.2,1.2C99.8,39.7,99.5,40,99.1,40z"/>
					<path class="st0" d="M116.5,48.6c0.8,0.7,1.8,1.3,2.9,1.8c1.4,0.6,3,0.9,4.7,1c0.1,0,0.1,0.2,0,0.2c-0.7,0.3-0.8,0.4-1.3,1.5
						c-0.1,0.1-0.2,0.2-0.3,0.2c-0.1,0-0.5-0.1-0.8-0.3c-1.1-0.4-2.2-1-3.2-1.7c-0.8-0.6-1.6-1.4-2.3-2.4c0.1,2.3,0.1,4,0.1,4.5
						s-0.3,0.7-1.1,0.7c-0.5,0-0.7-0.2-0.7-0.6c0-0.4,0.1-2.2,0.1-3.8c-1.5,1.7-4,3-7.1,3.7c-0.1,0-0.2-0.1-0.1-0.2
						c2.7-1.3,4.6-2.7,6-4.6h-4.2c-0.4,0-0.8,0-1.3,0.1l-0.2-0.7c0.6,0.1,1,0.1,1.4,0.1h5.5v-1.7h-3.5c-0.4,0-0.8,0-1.3,0.1
						l-0.2-0.7c0.6,0.1,1,0.1,1.4,0.1h3.6v-1.6h-4.5c-0.4,0-0.8,0-1.3,0.1l-0.2-0.7c0.6,0.1,1,0.1,1.4,0.1h3
						c-0.2-0.1-0.4-0.3-0.5-0.8c-0.1-0.6-0.5-1.2-0.9-1.5c-0.1-0.1,0-0.2,0.1-0.1c1.6,0.3,2.4,0.8,2.4,1.6c0,0.4-0.3,0.8-0.6,0.9
						h2.9c0.3-0.6,0.6-1.1,0.8-1.5c0.2-0.4,0.3-0.8,0.4-1.1c1.5,0.6,2.1,0.8,2.1,1.1s-0.1,0.3-0.8,0.3c-0.7,0.6-1.3,1-1.8,1.3h3
						c0.8-0.9,1.1-1.1,1.2-1.1c0.2,0,0.4,0.1,1.2,0.8c0.3,0.3,0.5,0.4,0.5,0.6s-0.1,0.2-0.2,0.2h-6.4v1.6h2.8c0.8-0.9,1-1,1.1-1
						c0.2,0,0.4,0.1,1,0.7c0.3,0.3,0.5,0.4,0.5,0.5s-0.1,0.2-0.2,0.2h-5.2v1.7h4.5c0.9-1,1.1-1.2,1.3-1.2c0.2,0,0.3,0.1,1.2,0.8
						c0.4,0.3,0.5,0.5,0.5,0.6c0,0.1-0.1,0.2-0.2,0.2H116.5z M113.1,38.7c0-0.8,0-0.9-0.1-1.3c2,0.2,2.2,0.3,2.2,0.6
						c0,0.1-0.1,0.3-0.6,0.5v2.6h1.5v-2.2c0-0.8,0-0.9-0.1-1.3c2.1,0.2,2.3,0.3,2.3,0.6c0,0.1-0.1,0.3-0.6,0.5v2.6h0.7
						c0.4-0.7,0.8-1.4,1-2c0.2-0.4,0.3-0.8,0.4-1.2c1.6,0.7,2.1,1,2.1,1.2c0,0.3-0.1,0.3-0.8,0.3c-0.7,0.7-1.6,1.4-2.2,1.7h2.1
						c0.8-0.9,1-1,1.2-1c0.2,0,0.4,0.1,1.1,0.7c0.3,0.3,0.5,0.4,0.5,0.6s-0.1,0.2-0.2,0.2h-14.5c-0.4,0-0.8,0-1.3,0.1l-0.2-0.7
						c0.6,0.1,1,0.1,1.5,0.1h4V38.7z M111.2,40.6c-0.4,0-0.6-0.2-0.8-0.7c-0.2-0.8-0.5-1.3-1-1.8c-0.1-0.1,0-0.2,0.1-0.2
						c1.7,0.3,2.6,0.9,2.6,1.7C112.1,40.2,111.7,40.6,111.2,40.6z"/>
					<path class="st0" d="M131.4,50.9c0,0.5-0.4,0.7-1,0.7c-0.6,0-0.7-0.2-0.7-0.6c0-1.3,0.1-2.6,0.1-7.8c0-1.7,0-3.3-0.1-5
						c0.9,0.4,1,0.5,1.9,0.9h1.5c0.6-0.7,0.7-0.8,0.9-0.8c0.2,0,0.3,0.1,1,0.6c0.3,0.2,0.4,0.3,0.4,0.5c0,0.1-0.1,0.3-0.5,0.6v1.7
						c0,4.5,0.1,7.5,0.1,8.6c0,0.5-0.3,0.7-1,0.7c-0.5,0-0.7-0.1-0.7-0.6v-0.6h-1.9V50.9z M133.3,39.6h-1.9v4.5h1.9V39.6z
						 M133.3,44.5h-1.9v4.8h1.9V44.5z M140.7,43.5h2.5c0.8-1,1-1.1,1.1-1.1c0.2,0,0.4,0.1,1.2,0.8c0.4,0.3,0.5,0.4,0.5,0.6
						c0,0.1-0.1,0.2-0.2,0.2h-9.3c-0.3,0-0.6,0-1.1,0.1l-0.2-0.7c0.5,0.1,0.8,0.1,1.2,0.1h2.6v-2.7h-2c-0.3,0-0.6,0-1,0.1l-0.2-0.7
						c0.5,0.1,0.8,0.1,1.2,0.1h2.1v-1.5c0-0.5,0-0.9-0.1-1.4c2.2,0.2,2.4,0.4,2.4,0.6c0,0.2-0.2,0.3-0.6,0.5v1.9h1.7
						c0.8-1,1-1.1,1.1-1.1c0.2,0,0.4,0.1,1.2,0.8c0.4,0.3,0.5,0.5,0.5,0.6s-0.1,0.2-0.2,0.2h-4.3V43.5z M143.1,49
						c0,0.7,0.1,2.2,0.1,2.9c0,0.8-0.1,1-0.4,1.4c-0.4,0.4-1,0.7-1.7,0.7c-0.2,0-0.3-0.1-0.3-0.2c-0.1-0.9-0.6-1.2-2.1-1.5
						c-0.1,0-0.1-0.2,0-0.2c0.9,0.1,1.8,0.1,2.4,0.1c0.3,0,0.3-0.1,0.3-0.3V47h-4.9c-0.3,0-0.6,0-1.1,0.1l-0.2-0.7
						c0.5,0.1,0.8,0.1,1.2,0.1h5v-0.8c0-0.6,0-0.8-0.1-1.4c1.8,0.2,2.3,0.3,2.3,0.5c0,0.2-0.2,0.3-0.6,0.5v1.2h0.4
						c0.7-0.8,0.9-0.9,1-0.9c0.2,0,0.3,0.1,1,0.7c0.3,0.2,0.4,0.4,0.4,0.5s-0.1,0.2-0.2,0.2h-2.6V49z M138.6,51
						c-0.5,0-0.6-0.3-0.9-1.2c-0.2-0.9-0.5-1.4-1.1-1.8c-0.1-0.1,0-0.2,0.1-0.1c2,0.4,2.8,1,2.8,2C139.6,50.5,139.3,51,138.6,51z"/>
					<path class="st0" d="M153,43.3v10c0,0.5-0.3,0.7-1,0.7c-0.5,0-0.7-0.2-0.7-0.6c0-1.3,0.1-2.6,0.1-8c0-2.7,0-5.4-0.1-8
						c0.9,0.4,1.1,0.4,1.9,0.9h3.2c0.6-0.7,0.8-0.8,0.9-0.8c0.2,0,0.3,0.1,1,0.6c0.3,0.2,0.4,0.4,0.4,0.5c0,0.2-0.1,0.3-0.5,0.5v0.7
						c0,1.9,0,3.2,0,3.7c0,0.4-0.3,0.6-1,0.6c-0.5,0-0.6-0.1-0.6-0.5v-0.2H153z M156.5,38.6H153v1.9h3.5V38.6z M156.5,40.9H153v2
						h3.5V40.9z M157,50.9v0.6c0,0.5-0.3,0.7-0.9,0.7c-0.5,0-0.7-0.2-0.7-0.6c0-0.6,0.1-1.2,0.1-3.6c0-1.1,0-2.3-0.1-3.4
						c0.9,0.3,1,0.4,1.8,0.9h3.4c0.6-0.7,0.7-0.8,0.9-0.8c0.2,0,0.3,0.1,1,0.6c0.3,0.3,0.4,0.4,0.4,0.5c0,0.1-0.1,0.3-0.5,0.5v0.8
						c0,2.1,0,3.6,0,4.1c0,0.5-0.3,0.7-0.9,0.7c-0.5,0-0.6-0.2-0.6-0.5v-0.5H157z M160.8,46H157v2h3.8V46z M160.8,48.4H157v2.2h3.8
						V48.4z M161.4,43.3L161.4,43.3c0,0.6-0.3,0.8-0.9,0.8c-0.5,0-0.7-0.1-0.7-0.5c0-0.7,0-1.4,0-4.2c0-0.7,0-1.4-0.1-2
						c0.9,0.4,1,0.5,1.9,0.9h3.2c0.6-0.7,0.8-0.8,0.9-0.8c0.2,0,0.3,0.1,1,0.6c0.3,0.3,0.4,0.4,0.4,0.5c0,0.2-0.1,0.3-0.5,0.5v2.2
						c0,10,0,10.5,0,11c0,0.5-0.1,0.8-0.4,1.1c-0.3,0.3-0.8,0.5-1.6,0.5c-0.2,0-0.3-0.1-0.3-0.3c-0.1-0.8-0.4-1.1-1.8-1.5
						c-0.1,0-0.1-0.2,0-0.2c1.1,0.1,1.4,0.1,2.1,0.1c0.2,0,0.2,0,0.2-0.3v-8.4H161.4z M165,38.6h-3.6v1.9h3.6V38.6z M165,40.9h-3.6
						v2h3.6V40.9z"/>
				</g>
			</g>
		</g>
	</g>
	<g>
		<g>
			<g>
				<g>
					<path class="st0" d="M647.7,253.8c0,3.6-2.1,5.7-4.8,5.7c-2.5,0-4.7-2-4.7-5.5c0-3.5,2.1-5.7,4.7-5.7S647.7,250.3,647.7,253.8z
						 M640.8,253.9c0,3.1,0.8,4.9,2.2,4.9c1.4,0,2.2-1.7,2.2-4.9c0-3.2-0.8-4.9-2.2-4.9C641.6,249,640.8,250.7,640.8,253.9z
						 M642.4,268.2l12.8-20.8l0.9,0.5l-12.8,20.8L642.4,268.2z M660.1,261.9c0,3.6-2.1,5.7-4.7,5.7c-2.6,0-4.8-2.1-4.8-5.5
						c0-3.5,2.2-5.7,4.8-5.7C658,256.4,660.1,258.5,660.1,261.9z M653.2,262c0,3.1,0.8,4.9,2.2,4.9s2.2-1.7,2.2-4.9
						c0-3.1-0.8-4.9-2.2-4.9C654,257.1,653.2,258.9,653.2,262z"/>
				</g>
			</g>
		</g>
	</g>
	<g>
		<g>
			<g>
				<g>
					<path class="st0" d="M402.2,40.9c-0.4,0.8-0.8,1.7-1.3,2.5l0.1,0h5.7c0.7-0.7,0.8-0.8,1-0.8c0.2,0,0.3,0.1,1,0.7
						c0.3,0.3,0.4,0.4,0.4,0.6c0,0.2-0.1,0.3-0.5,0.5v1.2c0,5,0.1,5.5,0.1,6.3c0,0.8-0.2,1.2-0.6,1.5c-0.4,0.3-0.9,0.5-1.4,0.5
						c-0.2,0-0.3-0.1-0.3-0.4c-0.1-0.7-0.5-1-2.2-1.5c-0.1,0-0.1-0.2,0-0.2c1,0.1,1.6,0.1,2.5,0.1c0.2,0,0.3-0.1,0.3-0.2v-2.5h-6
						c0,1.9,0,3,0,4c0,0.5-0.4,0.7-1.1,0.7c-0.5,0-0.7-0.2-0.7-0.5c0-0.3,0.1-2.1,0.1-3.4v-4.5c-1.1,1-2.3,1.9-3.8,2.6
						c-0.1,0-0.2-0.2-0.1-0.2c2.3-1.9,4.1-4.3,5.2-7H397c-0.4,0-0.9,0-1.5,0.1l-0.2-0.7c0.6,0.1,1.1,0.1,1.6,0.1h3.7
						c0.4-1,0.7-2.1,0.9-3.1c1.8,0.4,2.3,0.6,2.3,0.8c0,0.2-0.2,0.4-0.8,0.5c-0.2,0.6-0.4,1.2-0.6,1.8h6.1c0.9-1,1.1-1.2,1.2-1.2
						c0.2,0,0.4,0.1,1.3,0.8c0.4,0.3,0.6,0.5,0.6,0.6s-0.1,0.2-0.2,0.2H402.2z M406.9,46v-2.2h-6V46H406.9z M400.8,48.7h6v-2.4h-6
						V48.7z"/>
					<path class="st0" d="M419.1,48.4c-0.6,1.8-1.2,3-2.2,4.2c-0.1,0.1-0.2,0-0.2-0.1c0.3-1,0.6-2.2,0.8-3.4
						c0.1-0.7,0.2-1.4,0.2-1.9c1.7,0.5,2,0.6,2,0.9C419.7,48.2,419.5,48.3,419.1,48.4z M419,44.9c0.6-0.9,1.2-2,1.7-3
						c0.4-0.9,0.8-1.7,0.9-2.2c1.5,0.6,2,0.9,2,1.1c0,0.2-0.2,0.3-0.7,0.3c-1.3,1.7-1.8,2.3-3.3,3.8c0.5,0,1.8,0,2.7-0.1
						c-0.1-0.4-0.3-0.8-0.7-1.4c-0.1-0.1,0.1-0.1,0.1-0.1c0.6,0.3,1.1,0.6,1.4,1c1.3-1.5,2.2-3.2,2.9-4.9c0.3-0.7,0.5-1.5,0.6-2.2
						c1.9,0.5,2.3,0.6,2.3,0.9c0,0.2-0.1,0.3-0.6,0.3c0.6,1.2,1.3,2.1,2.1,2.9c0.9,0.8,1.9,1.4,3.2,1.7c0.1,0,0.1,0.1,0,0.2
						c-0.5,0.2-0.8,0.6-0.9,1.3c-0.1,0.3-0.1,0.4-0.3,0.4c-0.1,0-0.3-0.1-0.6-0.4c-0.8-0.6-1.5-1.4-2-2.2c-0.6-0.9-1.2-2-1.7-3.6
						c-1,2.4-2.6,4.4-4.8,5.9c0.4,0.4,0.5,0.8,0.5,1.2c0,0.5-0.3,0.9-0.8,0.9c-0.5,0-0.6-0.2-0.7-1.2l0-0.2
						c-0.4,0.1-0.8,0.3-1.1,0.4v2.6c0,1.9,0.1,4.3,0.1,5.1c0,0.5-0.3,0.7-0.9,0.7c-0.5,0-0.7-0.1-0.7-0.5c0-0.4,0.1-1.6,0.1-3.9V46
						c-0.5,0.1-1.1,0.2-1.7,0.3c-0.1,0.4-0.2,0.5-0.4,0.5c-0.2,0-0.4-0.4-0.7-2c0.5,0,0.6,0,1,0H419z M419.4,38.7
						c0.1-0.5,0.2-1,0.2-1.4c1.5,0.5,2.2,0.8,2.2,1c0,0.2-0.2,0.3-0.7,0.3c-1.2,1.5-1.3,1.6-1.9,2.3c0.6,0.4,0.8,0.8,0.8,1.3
						c0,0.6-0.4,1-0.8,1s-0.5-0.1-0.8-1.1c-0.2-0.8-0.4-1.3-1-1.9c-0.1-0.1,0-0.2,0.1-0.2c0.6,0.2,1,0.4,1.4,0.6
						C419.1,40.1,419.3,39.4,419.4,38.7z M422.7,51.2c-0.4,0-0.6-0.3-0.6-1.5c0-1-0.3-1.8-0.5-2.4c0-0.1,0.1-0.2,0.1-0.1
						c1.2,1,1.8,1.9,1.8,2.8C423.5,50.7,423.1,51.2,422.7,51.2z M425.8,52.5v0.7c0,0.5-0.3,0.7-1,0.7c-0.5,0-0.7-0.2-0.7-0.6
						c0-0.7,0.1-1.5,0.1-4.4c0-0.9,0-1.8-0.1-2.8c0.9,0.4,1,0.5,1.9,0.9h3.7c0.7-0.8,0.8-0.9,1-0.9c0.2,0,0.3,0.1,1,0.6
						c0.3,0.2,0.4,0.4,0.4,0.5c0,0.2-0.1,0.3-0.5,0.6v0.8c0,2.3,0.1,3.8,0.1,4.3c0,0.5-0.3,0.7-1,0.7c-0.5,0-0.7-0.2-0.7-0.6v-0.7
						H425.8z M428.5,44.2c0.6-0.9,0.8-1,1-1c0.2,0,0.4,0.1,1.1,0.7c0.3,0.3,0.5,0.4,0.5,0.5s-0.1,0.2-0.2,0.2H426
						c-0.3,0-0.6,0-1,0.1l-0.2-0.7c0.5,0.1,0.8,0.1,1.2,0.1H428.5z M430,47.5h-4.1v4.6h4.1V47.5z"/>
					<path class="st0" d="M440,38.9h-0.4c-0.3,0-0.6,0-1,0.1l-0.2-0.7c0.5,0.1,0.8,0.1,1.2,0.1h6c0.8-0.9,1-1,1.1-1
						c0.2,0,0.4,0.1,1.1,0.7c0.3,0.3,0.5,0.4,0.5,0.5s-0.1,0.2-0.2,0.2h-2.2V44c0,3.4,0,7.7,0,9.1c0,0.6-0.3,0.8-1,0.8
						c-0.6,0-0.8-0.2-0.8-0.7c0-0.3,0.1-1.4,0.1-3.5v-0.6c-1.1,0.7-2.7,1.4-4.6,2.1c-0.1,0.5-0.3,0.7-0.5,0.7c-0.3,0-0.3,0-0.9-2.2
						c0.5,0,1.1-0.1,1.7-0.2V38.9z M441.6,41.9h2.7v-3.1h-2.7V41.9z M441.6,45.3h2.7v-2.9h-2.7V45.3z M441.6,49.2
						c0.9-0.1,1.8-0.3,2.7-0.5v-3h-2.7V49.2z M452,40.4c0.7-0.8,0.9-1,1-1c0.2,0,0.3,0.1,1,0.7c0.5,0.4,0.5,0.5,0.5,0.7
						c0,0.2-0.1,0.3-0.6,0.6c-0.5,2.8-1.4,5.2-2.6,7.1c1.1,1.2,2.4,2.1,4.1,2.9c0.1,0,0,0.2-0.1,0.2c-0.5,0.2-0.8,0.5-1,1.2
						c-0.1,0.4-0.1,0.5-0.3,0.5c-0.1,0-0.4-0.1-0.7-0.4c-1.3-1-2.3-2-3.1-3.1c-1.2,1.4-2.5,2.5-4.2,3.4c-0.1,0-0.2-0.2-0.1-0.2
						c1.4-1.2,2.6-2.7,3.6-4.4l-0.4-0.8c-0.8-1.9-1.4-4.2-1.6-7c-0.4,0-0.8,0.1-1.1,0.1l-0.2-0.7c0.5,0.1,0.9,0.2,1.6,0.2H452z
						 M448.1,40.8c0.4,2.3,1,4.4,2.3,6.4c0.9-1.9,1.5-4.1,1.8-6.4H448.1z"/>
					<path class="st0" d="M462.1,45.8c-0.7,0.6-1.4,1.1-2.2,1.5c-0.1,0-0.2-0.1-0.1-0.2c1.2-1.2,2.3-2.7,3-4.1
						c0.4-0.7,0.7-1.4,0.8-1.9c1.9,0.8,2,0.8,2,1.1c0,0.2-0.1,0.3-0.6,0.4c-0.4,0.7-1,1.4-1.7,2.1c0.8,0.1,0.9,0.2,0.9,0.4
						c0,0.2-0.1,0.3-0.5,0.4v7.7c0,0.5-0.3,0.8-0.9,0.8c-0.4,0-0.8-0.2-0.8-0.7c0-0.5,0.1-1.9,0.1-4.7V45.8z M464.8,38.8
						c-1.6,1.8-2.8,2.8-4.6,3.7c-0.1,0-0.2-0.1-0.1-0.2c0.8-0.8,1.7-2,2.4-3.1c0.4-0.7,0.8-1.4,0.9-1.9c1.6,0.7,2.2,1,2.2,1.2
						C465.6,38.7,465.4,38.8,464.8,38.8z M473.6,49.6c0,0.8,0,1.7,0,2.5c0,0.5-0.2,0.9-0.5,1.1c-0.3,0.3-0.8,0.5-1.4,0.5
						c-0.3,0-0.4-0.1-0.4-0.3c-0.1-0.7-0.5-0.9-1.9-1.3c-0.1,0-0.1-0.3,0-0.3c0.9,0.1,1.5,0.1,2.2,0.1c0.3,0,0.3-0.1,0.3-0.3v-3.5
						h-5.8c-0.4,0-0.8,0-1.3,0.1l-0.2-0.7c0.6,0.1,1,0.1,1.5,0.1h5.8v-0.4c0-0.5,0-0.7-0.1-1.4c1.9,0.2,2.2,0.3,2.2,0.6
						c0,0.1-0.1,0.2-0.5,0.4v0.8h0.7c0.6-0.8,0.9-0.9,1-0.9c0.2,0,0.4,0.1,1,0.6c0.3,0.2,0.4,0.4,0.4,0.5s-0.1,0.2-0.2,0.2h-2.8
						V49.6z M473.9,45.2c0.7-0.8,0.9-1,1-1c0.2,0,0.4,0.1,1.1,0.7c0.3,0.3,0.5,0.4,0.5,0.5s-0.1,0.2-0.2,0.2h-9.8
						c-0.4,0-0.8,0-1.3,0.1l-0.2-0.7c0.6,0.1,1,0.1,1.5,0.1H473.9z M468.1,43.4c0,0.5-0.3,0.7-0.9,0.7c-0.5,0-0.8-0.2-0.8-0.6
						c0-0.5,0.1-1,0.1-2.9c0-1,0-2.1-0.1-3.1c0.8,0.3,1,0.4,1.8,0.9h4.4c0.6-0.7,0.8-0.8,0.9-0.8c0.2,0,0.3,0.1,1,0.6
						c0.3,0.3,0.4,0.4,0.4,0.5c0,0.2,0,0.2-0.5,0.6v0.6c0,1.7,0.1,2.9,0.1,3.3c0,0.5-0.3,0.8-0.9,0.8c-0.5,0-0.7-0.2-0.7-0.7v0
						H468.1z M468.5,51.7c-0.5,0-0.6-0.2-0.8-1c-0.2-0.8-0.5-1.4-1-1.8c-0.1-0.1,0-0.2,0.1-0.2c1.8,0.4,2.6,1.1,2.6,1.9
						C469.5,51.4,469,51.7,468.5,51.7z M472.8,38.9h-4.7v1.8h4.7V38.9z M472.8,41.2h-4.7V43h4.7V41.2z"/>
					<path class="st0" d="M490.5,49.8c0,1.9,0.1,3.2,0.1,3.6c0,0.4-0.4,0.6-1,0.6c-0.6,0-0.8-0.1-0.8-0.6c0-0.4,0.1-1.5,0.1-3.6
						h-5.6c-0.4,0-0.8,0-1.3,0.1l-0.2-0.7c0.6,0.1,1,0.1,1.5,0.1h5.6v-0.1c0-0.8,0-1.2-0.1-2c2.1,0.2,2.3,0.3,2.3,0.6
						c0,0.2-0.1,0.2-0.6,0.5v1.1h4.5c0.9-1.1,1.1-1.3,1.2-1.3c0.2,0,0.4,0.1,1.3,0.9c0.4,0.3,0.6,0.5,0.6,0.6s-0.1,0.2-0.2,0.2
						H490.5z M483.4,47.3c0,0.5-0.1,0.7-0.3,0.7c-0.2,0-0.5-0.5-1.2-1.9c0.5-0.1,1.1-0.3,1.5-0.5c1.2-0.4,2.3-0.8,3.2-1.3
						c0.1,0,0.2,0.1,0.2,0.2C486.1,45.4,484.9,46.4,483.4,47.3z M488.9,40c1.3,0.5,1.7,0.7,1.7,0.9c0,0.2,0,0.2-0.6,0.2
						c-0.6,0.6-1,1-1.6,1.4c0.4,0.3,0.6,0.7,0.6,1.1c0,0.5-0.3,0.8-0.7,0.8s-0.5-0.1-0.8-1c-0.3-0.7-0.6-1.2-1.1-1.7
						c-0.1-0.1,0-0.2,0.1-0.2c0.6,0.1,1,0.3,1.4,0.5c0.2-0.3,0.3-0.7,0.5-1c0.2-0.4,0.3-0.8,0.4-1.2h-5.4c-0.4,0-0.8,0-1.3,0.1
						l-0.2-0.7c0.6,0.1,1,0.1,1.4,0.1h5.4v-1.2c0-0.3,0-0.6-0.1-1.1c2.2,0.2,2.4,0.4,2.4,0.6c0,0.2-0.2,0.4-0.6,0.5v1.2h4.3
						c1-1.1,1.2-1.2,1.3-1.2c0.2,0,0.3,0.1,1.2,0.8c0.4,0.3,0.5,0.5,0.5,0.6s-0.1,0.2-0.2,0.2H488.9z M484.9,44.1
						c-0.5,0-0.6-0.2-0.9-1.1c-0.3-0.9-0.6-1.4-1.2-1.9c-0.1-0.1,0-0.2,0.1-0.2c2,0.6,2.9,1.3,2.9,2.2
						C485.8,43.6,485.4,44.1,484.9,44.1z M491.7,45.9c-0.2-0.4-0.4-0.7-0.7-1.1c-0.1-0.1,0-0.2,0.1-0.1c1.5,0.5,2.5,1.3,2.5,2.2
						c0,0.5-0.4,0.9-0.8,0.9c-0.4,0-0.5-0.1-0.8-1.1c0-0.1-0.1-0.3-0.1-0.4c-1.3,0.5-2.8,0.9-4.7,1.2c-0.1,0.4-0.1,0.5-0.3,0.5
						c-0.3,0-0.4-0.3-0.8-1.9c0.8,0,1.2,0.1,1.8,0.1c1-1.1,1.7-2.1,2.3-3c0.3-0.5,0.6-1,0.8-1.5c1.5,0.8,1.8,1,1.8,1.2
						c0,0.2,0,0.2-0.8,0.2c-1.7,1.6-2.6,2.4-3.4,3C489.6,46,490.6,46,491.7,45.9z M496.1,42.2c-1,0.9-2.3,1.6-3.4,2.1
						c-0.1,0-0.2-0.1-0.2-0.2c0.5-0.5,1.2-1.4,1.8-2.1c0.3-0.5,0.6-1,0.7-1.3c1.4,0.7,1.8,1,1.8,1.2
						C496.9,42.1,496.7,42.2,496.1,42.2z M496,47.6c-0.5,0-0.6-0.1-1.1-1c-0.5-0.8-1-1.3-1.7-1.8c-0.1-0.1,0-0.2,0.1-0.2
						c2.4,0.4,3.6,1.1,3.6,2.1C496.9,47.2,496.6,47.6,496,47.6z"/>
				</g>
			</g>
		</g>
	</g>
	<g>
		<g>
			<g>
				<g>
					<path class="st0" d="M1003.9,253.8c0,3.6-2.1,5.7-4.8,5.7c-2.5,0-4.7-2-4.7-5.5c0-3.5,2.1-5.7,4.7-5.7
						S1003.9,250.3,1003.9,253.8z M996.9,253.9c0,3.1,0.8,4.9,2.2,4.9c1.4,0,2.2-1.7,2.2-4.9c0-3.2-0.8-4.9-2.2-4.9
						C997.7,249,996.9,250.7,996.9,253.9z M998.6,268.2l12.8-20.8l0.9,0.5l-12.8,20.8L998.6,268.2z M1016.3,261.9
						c0,3.6-2.1,5.7-4.7,5.7c-2.6,0-4.8-2.1-4.8-5.5c0-3.5,2.2-5.7,4.8-5.7C1014.1,256.4,1016.3,258.5,1016.3,261.9z M1009.4,262
						c0,3.1,0.8,4.9,2.2,4.9s2.2-1.7,2.2-4.9c0-3.1-0.8-4.9-2.2-4.9C1010.2,257.1,1009.4,258.9,1009.4,262z"/>
				</g>
			</g>
		</g>
	</g>
	<g>
		<g>
			<path class="st1" d="M821.2,268l0.1-0.9h1.9c1.4,0,2.5-0.5,3.5-1.4c1-1,1.4-2.1,1.4-3.4v-45.6c0-2.3-0.5-4-1.6-4.9
				s-2.5-1.3-4.3-1.3h-1.6v-0.9c1.3-0.1,3-0.2,5.1-0.5c2.1-0.3,4.4-0.6,6.9-1.1c2.5-0.5,4.8-1,7.2-1.7c2.3-0.7,4.3-1.5,5.9-2.5h0.9
				v58.6c0,1.3,0.5,2.4,1.5,3.4c1,0.9,2.1,1.4,3.5,1.4h1.9v0.9H821.2z"/>
			<path class="st1" d="M887.1,203.7c5.9,0,10.9,1.4,15,4.1c4.1,2.7,7.3,6.5,9.5,11.4c2.2,4.9,3.3,10.6,3.3,17.2
				c0,6.5-1.1,12.3-3.3,17.2c-2.2,4.9-5.4,8.7-9.5,11.5c-4.1,2.7-9.2,4.1-15,4.1c-5.8,0-10.8-1.4-15-4.1c-4.2-2.7-7.4-6.6-9.6-11.5
				c-2.2-4.9-3.3-10.7-3.3-17.2c0-6.6,1.1-12.3,3.3-17.2c2.2-4.9,5.4-8.7,9.6-11.4C876.3,205.1,881.3,203.7,887.1,203.7z
				 M887.1,208.2c-3.1,0-5.4,2.3-6.8,6.9c-1.4,4.6-2.2,11.7-2.2,21.4c0,9.7,0.7,16.8,2.2,21.4c1.4,4.6,3.7,6.9,6.8,6.9
				c3.1,0,5.4-2.3,6.8-6.9c1.4-4.6,2.2-11.7,2.2-21.4c0-9.7-0.7-16.8-2.2-21.4C892.5,210.5,890.2,208.2,887.1,208.2z"/>
			<path class="st1" d="M949.2,203.7c5.9,0,10.9,1.4,15,4.1c4.1,2.7,7.3,6.5,9.5,11.4c2.2,4.9,3.3,10.6,3.3,17.2
				c0,6.5-1.1,12.3-3.3,17.2c-2.2,4.9-5.4,8.7-9.5,11.5c-4.1,2.7-9.2,4.1-15,4.1c-5.8,0-10.8-1.4-15-4.1c-4.2-2.7-7.4-6.6-9.6-11.5
				c-2.2-4.9-3.3-10.7-3.3-17.2c0-6.6,1.1-12.3,3.3-17.2c2.2-4.9,5.4-8.7,9.6-11.4C938.4,205.1,943.4,203.7,949.2,203.7z
				 M949.2,208.2c-3.1,0-5.4,2.3-6.8,6.9c-1.4,4.6-2.2,11.7-2.2,21.4c0,9.7,0.7,16.8,2.2,21.4c1.4,4.6,3.7,6.9,6.8,6.9
				c3.1,0,5.4-2.3,6.8-6.9c1.4-4.6,2.2-11.7,2.2-21.4c0-9.7-0.7-16.8-2.2-21.4C954.6,210.5,952.3,208.2,949.2,208.2z"/>
		</g>
	</g>
	<g>
		<g>
			<g>
				<g>
					<path class="st0" d="M768.6,40c-0.7,0.9-1.4,1.7-2.3,2.4c2.3,0,4.6,0,6.8-0.3c-0.5-0.5-1-0.8-1.8-1.4c-0.1-0.1,0-0.2,0.1-0.2
						c2.9,0.4,4.7,1.5,4.7,2.7c0,0.6-0.4,1-0.9,1c-0.3,0-0.6-0.2-0.9-0.6c-0.3-0.5-0.6-0.8-0.8-1.1c-2.7,0.7-5.2,1-10,1.4
						c-0.1,0.5-0.2,0.6-0.4,0.6c-0.3,0-0.4-0.2-0.8-2.3c1,0.1,1.9,0.1,3.3,0.1c0.3-0.8,0.6-1.6,0.8-2.4h-3.6c-0.4,0-0.8,0-1.3,0.1
						l-0.2-0.7c0.6,0.1,1,0.1,1.4,0.1h5.6v-1.3c0-0.3,0-0.6-0.1-1c2.2,0.2,2.4,0.4,2.4,0.6c0,0.2-0.2,0.4-0.6,0.5v1.3h4.3
						c0.9-1.1,1.2-1.2,1.3-1.2c0.2,0,0.3,0.1,1.2,0.8c0.4,0.3,0.5,0.5,0.5,0.6c0,0.1-0.1,0.2-0.2,0.2H768.6z M765.6,49.9
						c0,1.7,0,2.6,0,3.5c0,0.5-0.4,0.7-1.1,0.7c-0.5,0-0.7-0.2-0.7-0.7c0-1,0.1-1.9,0.1-5.9c0-1.2,0-2.3-0.1-3.5
						c0.9,0.3,1,0.4,2,0.9h6.6c0.6-0.7,0.7-0.8,0.9-0.8c0.2,0,0.3,0.1,1.1,0.7c0.3,0.3,0.5,0.4,0.5,0.6c0,0.2-0.1,0.3-0.5,0.6v1.1
						c0,4.2,0,4.5,0,5.3c0,0.7-0.3,1.1-0.8,1.4c-0.4,0.2-0.9,0.3-1.3,0.3c-0.1,0-0.2-0.1-0.3-0.5c-0.1-0.6-0.4-0.8-2-1.3
						c-0.1,0-0.1-0.2,0-0.2c1.1,0.1,1.6,0.1,2.4,0.1c0.2,0,0.2-0.1,0.2-0.2v-1.9H765.6z M772.5,45.3h-6.9v1.9h6.9V45.3z M765.6,49.5
						h6.9v-1.9h-6.9V49.5z"/>
					<path class="st0" d="M789.4,47.7c-0.5,3.9-2.3,5.4-6.6,6.1c-0.1,0-0.2-0.2-0.1-0.3c2.6-0.9,4-2.1,4.6-4.1
						c0.2-0.7,0.3-1.5,0.3-2.8C790,47,790,47,790,47.2C790,47.4,789.8,47.5,789.4,47.7z M786.3,39.9c0,3.3,0.1,5.5,0.1,6.2
						c0,0.6-0.3,0.8-1,0.8c-0.6,0-0.8-0.2-0.8-0.7c0-0.5,0.1-2.2,0.1-5.5c0-1.6,0-2.1-0.1-3.1c2.3,0.3,2.3,0.3,2.3,0.6
						c0,0.2-0.1,0.3-0.5,0.4V39.9z M790.5,45.5v0.2c0,0.5-0.3,0.7-0.9,0.7c-0.5,0-0.8-0.2-0.8-0.6c0-0.9,0.1-1.8,0.1-5.5
						c0-0.8,0-1.7-0.1-2.6c0.8,0.3,1,0.4,1.8,0.9h4.6c0.7-0.7,0.8-0.8,1-0.8c0.2,0,0.3,0.1,1,0.6c0.3,0.3,0.4,0.4,0.4,0.5
						c0,0.2-0.1,0.3-0.5,0.6v1c0,2.7,0.1,4.5,0.1,5.1c0,0.5-0.3,0.7-1,0.7c-0.5,0-0.7-0.2-0.7-0.7v-0.3H790.5z M795.4,39.1h-5v2.8h5
						V39.1z M795.4,42.2h-5v2.9h5V42.2z M793,51.2c0,0.8,0.2,0.9,1.5,0.9c1.5,0,2.1-0.1,2.4-0.4c0.3-0.2,0.5-0.5,1.1-2.3
						c0-0.1,0.2-0.1,0.2,0c0,0.6-0.1,1.7-0.1,1.9c0,0.3,0,0.3,0.3,0.5c0.3,0.1,0.4,0.4,0.4,0.7c0,0.4-0.3,0.8-1,1
						c-0.7,0.2-1.7,0.3-3.3,0.3c-2.7,0-3.2-0.4-3.2-1.7c0-0.5,0-1.1,0-2.7c0-1,0-1.7-0.1-2.6c2.2,0.2,2.3,0.3,2.3,0.6
						c0,0.2-0.1,0.3-0.6,0.5V51.2z"/>
					<path class="st0" d="M806.1,44.4c-0.6,0.7-1.3,1.4-2,2c-0.1,0.1-0.2-0.1-0.2-0.2c1.2-1.5,2.4-3.8,3-6c0.3-1,0.5-2,0.6-3
						c1.6,0.5,2.4,0.8,2.4,1c0,0.2-0.2,0.3-0.6,0.4c-0.6,1.7-1.3,3.1-2.1,4.3c0.8,0.1,1,0.2,1,0.4c0,0.2-0.1,0.3-0.5,0.4v9.4
						c0,0.5-0.3,0.8-0.9,0.8c-0.4,0-0.8-0.2-0.8-0.7c0-0.5,0.1-1.9,0.1-4.7V44.4z M814.9,43.6c0,4.3,0.1,7,0.1,9.6
						c0,0.5-0.3,0.7-1.1,0.7c-0.6,0-0.8-0.2-0.8-0.5c0-0.9,0.1-4.8,0.1-8.3c-1.3,2.2-3,4-5.3,5.5c-0.1,0.1-0.2-0.1-0.2-0.2
						c2.2-2.5,3.7-4.8,4.8-8h-2.8c-0.3,0-0.7,0-1.1,0.1l-0.2-0.7c0.5,0.1,0.9,0.1,1.2,0.1h3.5v-2.3c0-1.1,0-1.4-0.1-2.3
						c2.4,0.3,2.4,0.3,2.4,0.6c0,0.2-0.2,0.3-0.6,0.5V42h2.8c0.8-1.1,1.1-1.2,1.2-1.2c0.2,0,0.3,0.1,1.2,0.8
						c0.4,0.3,0.5,0.5,0.5,0.6s-0.1,0.2-0.2,0.2H815c0.5,1.3,1.3,2.6,2.4,3.7c1.1,1.1,2.4,2.1,3.8,2.7c0.1,0,0.1,0.2,0,0.2
						c-0.4,0.1-0.8,0.4-1,1.1c-0.2,0.4-0.2,0.5-0.4,0.5c-0.1,0-0.4-0.1-0.6-0.3c-1-0.8-1.8-1.9-2.4-3c-0.8-1.3-1.4-2.8-1.8-4.4V43.6
						z"/>
					<path class="st0" d="M834.8,48.6c0.8,0.7,1.8,1.3,2.9,1.8c1.4,0.6,3,0.9,4.7,1c0.1,0,0.1,0.2,0,0.2c-0.7,0.3-0.8,0.4-1.3,1.5
						c-0.1,0.1-0.2,0.2-0.3,0.2c-0.1,0-0.5-0.1-0.8-0.3c-1.1-0.4-2.2-1-3.2-1.7c-0.8-0.6-1.6-1.4-2.3-2.4c0.1,2.3,0.1,4,0.1,4.5
						s-0.3,0.7-1.1,0.7c-0.5,0-0.7-0.2-0.7-0.6c0-0.4,0.1-2.2,0.1-3.8c-1.5,1.7-4,3-7.1,3.7c-0.1,0-0.2-0.1-0.1-0.2
						c2.7-1.3,4.6-2.7,6-4.6h-4.2c-0.4,0-0.8,0-1.3,0.1l-0.2-0.7c0.6,0.1,1,0.1,1.4,0.1h5.5v-1.7h-3.5c-0.4,0-0.8,0-1.3,0.1
						l-0.2-0.7c0.6,0.1,1,0.1,1.4,0.1h3.6v-1.6h-4.5c-0.4,0-0.8,0-1.3,0.1l-0.2-0.7c0.6,0.1,1,0.1,1.4,0.1h3
						c-0.2-0.1-0.4-0.3-0.5-0.8c-0.1-0.6-0.5-1.2-0.9-1.5c-0.1-0.1,0-0.2,0.1-0.1c1.6,0.3,2.4,0.8,2.4,1.6c0,0.4-0.3,0.8-0.6,0.9
						h2.9c0.3-0.6,0.6-1.1,0.8-1.5c0.2-0.4,0.3-0.8,0.4-1.1c1.5,0.6,2.1,0.8,2.1,1.1s-0.1,0.3-0.8,0.3c-0.7,0.6-1.3,1-1.8,1.3h3
						c0.8-0.9,1.1-1.1,1.2-1.1c0.2,0,0.4,0.1,1.2,0.8c0.3,0.3,0.5,0.4,0.5,0.6s-0.1,0.2-0.2,0.2h-6.4v1.6h2.8c0.8-0.9,1-1,1.1-1
						c0.2,0,0.4,0.1,1,0.7c0.3,0.3,0.5,0.4,0.5,0.5s-0.1,0.2-0.2,0.2h-5.2v1.7h4.5c0.9-1,1.1-1.2,1.3-1.2c0.2,0,0.3,0.1,1.2,0.8
						c0.4,0.3,0.5,0.5,0.5,0.6c0,0.1-0.1,0.2-0.2,0.2H834.8z M831.4,38.7c0-0.8,0-0.9-0.1-1.3c2,0.2,2.2,0.3,2.2,0.6
						c0,0.1-0.1,0.3-0.6,0.5v2.6h1.5v-2.2c0-0.8,0-0.9-0.1-1.3c2.1,0.2,2.3,0.3,2.3,0.6c0,0.1-0.1,0.3-0.6,0.5v2.6h0.7
						c0.4-0.7,0.8-1.4,1-2c0.2-0.4,0.3-0.8,0.4-1.2c1.6,0.7,2.1,1,2.1,1.2c0,0.3-0.1,0.3-0.8,0.3c-0.7,0.7-1.6,1.4-2.2,1.7h2.1
						c0.8-0.9,1-1,1.2-1c0.2,0,0.4,0.1,1.1,0.7c0.3,0.3,0.5,0.4,0.5,0.6s-0.1,0.2-0.2,0.2h-14.5c-0.4,0-0.8,0-1.3,0.1l-0.2-0.7
						c0.6,0.1,1,0.1,1.5,0.1h4V38.7z M829.5,40.6c-0.4,0-0.6-0.2-0.8-0.7c-0.2-0.8-0.5-1.3-1-1.8c-0.1-0.1,0-0.2,0.1-0.2
						c1.7,0.3,2.6,0.9,2.6,1.7C830.4,40.2,830,40.6,829.5,40.6z"/>
					<path class="st0" d="M856.3,49.8c0,1.9,0.1,3.2,0.1,3.6c0,0.4-0.4,0.6-1,0.6c-0.6,0-0.8-0.1-0.8-0.6c0-0.4,0.1-1.5,0.1-3.6
						h-5.6c-0.4,0-0.8,0-1.3,0.1l-0.2-0.7c0.6,0.1,1,0.1,1.5,0.1h5.6v-0.1c0-0.8,0-1.2-0.1-2c2.1,0.2,2.3,0.3,2.3,0.6
						c0,0.2-0.1,0.2-0.6,0.5v1.1h4.5c0.9-1.1,1.1-1.3,1.2-1.3c0.2,0,0.4,0.1,1.3,0.9c0.4,0.3,0.6,0.5,0.6,0.6s-0.1,0.2-0.2,0.2
						H856.3z M849.2,47.3c0,0.5-0.1,0.7-0.3,0.7c-0.2,0-0.5-0.5-1.2-1.9c0.5-0.1,1.1-0.3,1.5-0.5c1.2-0.4,2.3-0.8,3.2-1.3
						c0.1,0,0.2,0.1,0.2,0.2C851.9,45.4,850.7,46.4,849.2,47.3z M854.7,40c1.3,0.5,1.7,0.7,1.7,0.9c0,0.2,0,0.2-0.6,0.2
						c-0.6,0.6-1,1-1.6,1.4c0.4,0.3,0.6,0.7,0.6,1.1c0,0.5-0.3,0.8-0.7,0.8c-0.4,0-0.5-0.1-0.8-1c-0.3-0.7-0.6-1.2-1.1-1.7
						c-0.1-0.1,0-0.2,0.1-0.2c0.6,0.1,1,0.3,1.4,0.5c0.2-0.3,0.3-0.7,0.5-1c0.2-0.4,0.3-0.8,0.4-1.2h-5.4c-0.4,0-0.8,0-1.3,0.1
						l-0.2-0.7c0.6,0.1,1,0.1,1.4,0.1h5.4v-1.2c0-0.3,0-0.6-0.1-1.1c2.2,0.2,2.4,0.4,2.4,0.6c0,0.2-0.2,0.4-0.6,0.5v1.2h4.3
						c1-1.1,1.2-1.2,1.3-1.2c0.2,0,0.3,0.1,1.2,0.8c0.4,0.3,0.5,0.5,0.5,0.6s-0.1,0.2-0.2,0.2H854.7z M850.7,44.1
						c-0.5,0-0.6-0.2-0.9-1.1c-0.3-0.9-0.6-1.4-1.2-1.9c-0.1-0.1,0-0.2,0.1-0.2c2,0.6,2.9,1.3,2.9,2.2
						C851.6,43.6,851.2,44.1,850.7,44.1z M857.4,45.9c-0.2-0.4-0.4-0.7-0.7-1.1c-0.1-0.1,0-0.2,0.1-0.1c1.5,0.5,2.5,1.3,2.5,2.2
						c0,0.5-0.4,0.9-0.8,0.9c-0.4,0-0.5-0.1-0.8-1.1c0-0.1-0.1-0.3-0.1-0.4c-1.3,0.5-2.8,0.9-4.7,1.2c-0.1,0.4-0.1,0.5-0.3,0.5
						c-0.3,0-0.4-0.3-0.8-1.9c0.8,0,1.2,0.1,1.8,0.1c1-1.1,1.7-2.1,2.3-3c0.3-0.5,0.6-1,0.8-1.5c1.5,0.8,1.8,1,1.8,1.2
						c0,0.2,0,0.2-0.8,0.2c-1.7,1.6-2.6,2.4-3.4,3C855.4,46,856.4,46,857.4,45.9z M861.9,42.2c-1,0.9-2.3,1.6-3.4,2.1
						c-0.1,0-0.2-0.1-0.2-0.2c0.5-0.5,1.2-1.4,1.8-2.1c0.3-0.5,0.6-1,0.7-1.3c1.4,0.7,1.8,1,1.8,1.2
						C862.7,42.1,862.5,42.2,861.9,42.2z M861.8,47.6c-0.5,0-0.6-0.1-1.1-1c-0.5-0.8-1-1.3-1.7-1.8c-0.1-0.1,0-0.2,0.1-0.2
						c2.4,0.4,3.6,1.1,3.6,2.1C862.7,47.2,862.3,47.6,861.8,47.6z"/>
					<path class="st0" d="M878.9,50.2c-2,1.7-4.5,3-7.6,3.7c-0.1,0-0.2-0.2-0.1-0.2c2.7-1.3,5-2.8,6.7-4.6c-1.8-2.2-2.6-5-3-7.8
						c-0.2,2.8-0.6,5.1-1.4,7c-1,2.4-2.5,4.2-4.6,5.4c-0.1,0.1-0.2-0.1-0.1-0.2c1.5-1.6,2.6-3.4,3.3-5.6c0.7-2.3,1-5.2,1.1-8.9h-1.8
						c-0.6,0-0.9,0-1.4,0.1l-0.2-0.7c0.5,0.1,0.9,0.1,1.5,0.1h7.2c0.6-0.8,0.8-0.9,0.9-0.9c0.2,0,0.3,0.1,1.1,0.8
						c0.3,0.3,0.5,0.5,0.5,0.6c0,0.2-0.2,0.4-0.6,0.5c-0.3,1.2-0.6,2.1-1,3.2h2c0.7-0.8,0.8-0.9,0.9-0.9c0.1,0,0.3,0.1,1.1,0.7
						c0.4,0.3,0.5,0.5,0.5,0.7c0,0.2-0.2,0.3-0.6,0.4c-0.8,2.1-1.8,3.9-3.2,5.4c1.6,1.3,3.5,2.2,5.7,2.8c0.1,0,0.1,0.2,0,0.2
						c-0.8,0.3-1,0.5-1.2,1.4c-0.1,0.2-0.1,0.3-0.2,0.3c-0.2,0-0.7-0.2-1.2-0.5c-1.2-0.7-2.9-1.9-4-3L878.9,50.2z M874.9,40.1
						c0.6,2.9,1.8,5.8,3.9,8c1.2-1.5,2-3.1,2.6-4.8h-2.3l0,0.1c-0.2,0.4-0.4,0.6-0.9,0.6c-0.6,0-0.9-0.2-0.9-0.5
						c0-0.1,0.1-0.3,0.2-0.6c0.4-1,0.6-1.7,1.1-3.8H875c0,0.3,0,0.6,0,1V40.1z"/>
					<path class="st0" d="M901.5,43.7c0,0.6,0,1.1,0,1.6c0,1.4,0,2.4-0.3,3.4c-0.6,2.6-2.4,4.3-5,4.3c-1.5,0-2.6-0.5-3.3-1.4
						c-0.6-0.8-1.1-1.9-1.1-3.4c0-2.3,0.8-4.3,2.4-6.6c-0.3,0-0.9,0.1-1.1,0.1c-0.6,0-1.2-0.2-1.5-0.7c-0.3-0.4-0.4-0.8-0.4-1.1
						c0-0.1,0-0.2,0.1-0.2c0.1,0,0.2,0.1,0.2,0.2c0.3,0.4,0.5,0.6,1.2,0.6c0.5,0,1.5-0.2,2.5-0.5c0.2-0.1,0.4-0.2,0.5-0.3
						c0.2-0.1,0.3-0.2,0.6-0.2c0.4,0,0.9,0.3,1.2,0.8c0.1,0.1,0.1,0.2,0.1,0.3c0,0.2-0.1,0.4-0.4,0.5c-0.4,0.1-0.9,0.5-1.2,0.8
						c-0.7,0.7-1.3,1.4-2,2.4c-0.8,1.3-1.3,2.8-1.3,3.8c0,1.2,0.3,2,0.8,2.5c0.7,0.7,1.4,0.9,2.5,0.9c3.2,0,4.2-2.7,4.6-5.4
						c0.2-1.4,0.2-2,0.1-2.9c0-0.9-0.2-1.5-0.5-2.1c-0.1-0.2-0.2-0.4-0.2-0.8c0-0.4,0.4-0.6,0.9-0.6c0.3,0,0.7,0.2,0.7,0.7
						c0,0.8,0,1.2,0.2,1.7c0.2,0.7,0.6,1.4,1.3,2.3c0.7,1,1.1,1.2,1.6,1.7c0.4,0.4,0.6,0.8,0.6,1.2c0,0.3-0.1,0.5-0.3,0.7
						c-0.1,0.1-0.2,0.2-0.5,0.2c-0.3,0-0.8-0.3-1.5-1.2c-0.7-0.9-1.2-1.8-1.7-3.1H901.5z M904.3,39.7c0.5,0.4,0.7,0.7,0.7,1.1
						c0,0.3-0.2,0.6-0.6,0.6c-0.2,0-0.4-0.1-0.6-0.4c-0.4-0.7-0.7-1.1-1.1-1.6c-0.1-0.1-0.2-0.2-0.2-0.2c0-0.1,0-0.1,0.1-0.1
						c0.1,0,0.2,0,0.3,0C903.4,39.2,903.9,39.4,904.3,39.7z M905.9,38.5c0.4,0.2,0.6,0.5,0.6,0.9s-0.3,0.7-0.6,0.7
						c-0.3,0-0.5-0.1-0.7-0.4c-0.4-0.6-0.8-1-1.3-1.4c-0.1-0.1-0.2-0.1-0.2-0.2c0-0.1,0-0.1,0.1-0.1c0.1,0,0.1,0,0.3,0
						C904.9,38,905.4,38.2,905.9,38.5z"/>
					<path class="st0" d="M913.3,46.1c-0.6,0.6-1.3,1.1-2.1,1.5c-0.1,0.1-0.2-0.1-0.1-0.2c1.2-1.3,2.2-2.8,2.9-4.3
						c0.3-0.7,0.6-1.4,0.7-1.9c1.7,0.7,2,0.9,2,1.1c0,0.2-0.1,0.3-0.6,0.4c-0.4,0.8-1,1.5-1.6,2.2c0.8,0.1,0.9,0.2,0.9,0.4
						c0,0.2-0.1,0.3-0.5,0.4v7.6c0,0.5-0.3,0.8-0.9,0.8c-0.4,0-0.8-0.1-0.8-0.6c0-0.5,0.1-1.9,0.1-4.8V46.1z M916,38.8
						c-1.5,1.9-2.7,2.9-4.5,3.8c-0.1,0-0.2-0.1-0.1-0.2c0.8-0.8,1.7-2,2.3-3.1c0.4-0.7,0.7-1.4,0.8-1.9c1.4,0.5,2.2,0.9,2.2,1.2
						C916.7,38.7,916.5,38.8,916,38.8z M920.2,46.1c1.3,0.4,1.7,0.5,1.7,0.7s-0.1,0.3-0.7,0.4c-0.1,0.2-0.2,0.3-0.3,0.5h3
						c0.6-0.6,0.8-0.8,0.9-0.8c0.2,0,0.3,0.1,1,0.7c0.3,0.3,0.4,0.4,0.4,0.6c0,0.2-0.2,0.3-0.8,0.5c-0.7,0.8-1.5,1.6-2.3,2.3
						c1.5,0.7,3.2,1,5.2,1c0.1,0,0.1,0.2,0,0.2c-0.5,0.2-0.9,0.7-1,1.3c-0.1,0.3-0.1,0.4-0.3,0.4c-0.2,0-0.5-0.1-0.9-0.2
						c-1.3-0.4-2.9-1.2-3.9-2.1c-1.9,1.2-4.1,1.9-6.7,2.2c-0.1,0-0.2-0.2-0.1-0.2c2.3-0.7,4.3-1.7,5.9-2.9c-0.5-0.6-1-1.2-1.3-1.9
						c-1.2,1.3-2.5,2.1-4.1,2.7c-0.1,0-0.2-0.1-0.1-0.2c1.3-0.9,2.6-2.3,3.4-3.5c0.4-0.6,0.7-1.2,0.8-1.7h-0.3
						c0,0.5-0.3,0.6-0.9,0.6c-0.5,0-0.7-0.2-0.7-0.5c0-0.5,0.1-1,0.1-2.9c0-0.4,0-0.8,0-1.2c-0.4,0.4-0.8,0.8-1.2,1.1
						c-0.1,0.1-0.2-0.1-0.1-0.1c0.6-1,1.3-2.5,1.7-3.8c0.2-0.7,0.4-1.3,0.5-1.8c1.8,0.5,2.2,0.7,2.2,1c0,0.2-0.1,0.3-0.8,0.4
						c-0.1,0.3-0.3,0.6-0.5,0.8h5.2c0.9-1.1,1.1-1.2,1.2-1.2c0.2,0,0.3,0.1,1.2,0.8c0.4,0.3,0.5,0.5,0.5,0.6s-0.1,0.2-0.2,0.2h-8.1
						c-0.3,0.4-0.5,0.7-0.8,1.1c0.3,0.1,0.5,0.3,0.8,0.5h4.7c0.6-0.6,0.7-0.7,0.8-0.7c0.2,0,0.3,0.1,1,0.6c0.3,0.2,0.4,0.4,0.4,0.5
						c0,0.1-0.1,0.3-0.5,0.5V43c0,1.5,0.1,2.5,0.1,2.9c0,0.5-0.3,0.7-0.9,0.7c-0.4,0-0.7-0.1-0.7-0.5H920.2z M924.4,42h-4.9v1.6h4.9
						V42z M924.4,44h-4.9v1.7h4.9V44z M920.5,48.1c-0.2,0.2-0.3,0.4-0.4,0.5c0.5,0.6,1.1,1.2,1.8,1.6c0.8-0.6,1.4-1.4,2-2.1H920.5z"
						/>
					<path class="st0" d="M937.8,40.2c0,6.2-0.3,8.3-1.3,10.2c-0.7,1.4-1.7,2.5-3.1,3.3c-0.1,0.1-0.3-0.1-0.2-0.2
						c1.1-1.2,1.7-2.3,2.2-3.7c0.7-1.9,0.9-3.6,0.9-8c0-2.1,0-3.2-0.2-4.3c2.2,0.3,2.4,0.3,2.4,0.6c0,0.2-0.1,0.3-0.6,0.5V40.2z
						 M935,42.1c0,2.8,0.1,4.3,0.1,4.8c0,0.4-0.4,0.6-0.9,0.6c-0.5,0-0.7-0.1-0.7-0.6c0-0.4,0.1-1.6,0.1-4.7c0-1,0-1.5-0.1-2.3
						c1.9,0.2,2.1,0.3,2.1,0.5c0,0.2-0.1,0.3-0.5,0.5V42.1z M947.2,44.6c0.7-0.8,0.8-0.9,1-0.9c0.2,0,0.3,0.1,1.2,0.9
						c0.4,0.4,0.5,0.5,0.5,0.7c0,0.3-0.1,0.4-1,0.3c-0.2,0-0.3,0-0.5,0.2c-0.4,0.2-0.7,0.4-1.1,0.6c-0.1,0-0.1,0-0.1-0.1
						c0.1-0.4,0.3-1,0.3-1.3h-8c0,0.2,0,0.3,0,0.5c0,0.4-0.1,0.8-0.2,1.1c0.5,0.2,0.8,0.4,1.4,0.7h1.9c0-0.8,0-1.2-0.1-1.9
						c2.2,0.3,2.3,0.3,2.3,0.5c0,0.2-0.1,0.3-0.6,0.5v0.9h1.9c0.6-0.7,0.8-0.8,0.9-0.8c0.2,0,0.3,0.1,1,0.6c0.3,0.3,0.4,0.4,0.4,0.5
						c0,0.2-0.1,0.3-0.5,0.5v0.5c0,1.7,0.1,2,0.1,2.3c0,0.7-0.2,1.1-0.7,1.4c-0.2,0.1-0.7,0.2-1,0.2c-0.2,0-0.3-0.1-0.3-0.4
						c-0.1-0.5-0.4-0.8-1.3-1c-0.1,0-0.1-0.2,0-0.2c0.6,0,1,0,1.5,0c0.2,0,0.2-0.1,0.2-0.2v-3.1h-2.2c0,3,0.1,5,0.1,5.7
						c0,0.5-0.3,0.7-1,0.7c-0.5,0-0.7-0.1-0.7-0.6c0-0.6,0.1-2.3,0.1-5.7h-2v4.1c0,0.5-0.3,0.8-0.9,0.8c-0.5,0-0.7-0.2-0.7-0.5
						c0-0.5,0.1-0.9,0.1-2.8c0-0.8,0-1.5,0-2.2c-0.2,0.1-0.4,0.2-0.6,0.2c-0.5,0-0.8-0.4-0.8-0.9c0-0.3,0.1-0.5,0.5-0.8
						c0.6-0.5,0.9-1,0.8-1.8c0-0.1,0.2-0.2,0.2-0.1c0.1,0.3,0.3,0.6,0.3,0.9H947.2z M946.1,38.8h-5.5c-0.3,0-0.7,0-1.1,0.1l-0.2-0.7
						c0.5,0.1,0.9,0.1,1.3,0.1h5.3c0.6-0.8,0.8-0.9,0.9-0.9c0.2,0,0.3,0.1,1,0.7c0.3,0.3,0.4,0.4,0.4,0.5c0,0.1-0.1,0.2-0.6,0.6v0.6
						c0,1.6,0.1,2.6,0.1,3c0,0.5-0.3,0.7-1,0.7c-0.5,0-0.6-0.2-0.7-0.6h-5.6c-0.3,0-0.6,0-1,0.1l-0.2-0.7c0.5,0.1,0.8,0.1,1.2,0.1
						h5.6v-1.7h-5.1c-0.3,0-0.6,0-1,0.1l-0.2-0.7c0.5,0.1,0.8,0.1,1.2,0.1h5.2V38.8z"/>
					<path class="st0" d="M963.5,49.8c0,1.9,0.1,3.2,0.1,3.6c0,0.4-0.4,0.6-1,0.6c-0.6,0-0.8-0.1-0.8-0.6c0-0.4,0.1-1.5,0.1-3.6
						h-5.6c-0.4,0-0.8,0-1.3,0.1l-0.2-0.7c0.6,0.1,1,0.1,1.5,0.1h5.6v-0.1c0-0.8,0-1.2-0.1-2c2.1,0.2,2.3,0.3,2.3,0.6
						c0,0.2-0.1,0.2-0.6,0.5v1.1h4.5c0.9-1.1,1.1-1.3,1.2-1.3c0.2,0,0.4,0.1,1.3,0.9c0.4,0.3,0.6,0.5,0.6,0.6s-0.1,0.2-0.2,0.2
						H963.5z M956.3,47.3c0,0.5-0.1,0.7-0.3,0.7c-0.2,0-0.5-0.5-1.2-1.9c0.5-0.1,1.1-0.3,1.5-0.5c1.2-0.4,2.3-0.8,3.2-1.3
						c0.1,0,0.2,0.1,0.2,0.2C959.1,45.4,957.8,46.4,956.3,47.3z M961.8,40c1.3,0.5,1.7,0.7,1.7,0.9c0,0.2,0,0.2-0.6,0.2
						c-0.6,0.6-1,1-1.6,1.4c0.4,0.3,0.6,0.7,0.6,1.1c0,0.5-0.3,0.8-0.7,0.8c-0.4,0-0.5-0.1-0.8-1c-0.3-0.7-0.6-1.2-1.1-1.7
						c-0.1-0.1,0-0.2,0.1-0.2c0.6,0.1,1,0.3,1.4,0.5c0.2-0.3,0.3-0.7,0.5-1c0.2-0.4,0.3-0.8,0.4-1.2h-5.4c-0.4,0-0.8,0-1.3,0.1
						l-0.2-0.7c0.6,0.1,1,0.1,1.4,0.1h5.4v-1.2c0-0.3,0-0.6-0.1-1.1c2.2,0.2,2.4,0.4,2.4,0.6c0,0.2-0.2,0.4-0.6,0.5v1.2h4.3
						c1-1.1,1.2-1.2,1.3-1.2c0.2,0,0.3,0.1,1.2,0.8c0.4,0.3,0.5,0.5,0.5,0.6s-0.1,0.2-0.2,0.2H961.8z M957.8,44.1
						c-0.5,0-0.6-0.2-0.9-1.1c-0.3-0.9-0.6-1.4-1.2-1.9c-0.1-0.1,0-0.2,0.1-0.2c2,0.6,2.9,1.3,2.9,2.2
						C958.7,43.6,958.3,44.1,957.8,44.1z M964.6,45.9c-0.2-0.4-0.4-0.7-0.7-1.1c-0.1-0.1,0-0.2,0.1-0.1c1.5,0.5,2.5,1.3,2.5,2.2
						c0,0.5-0.4,0.9-0.8,0.9c-0.4,0-0.5-0.1-0.8-1.1c0-0.1-0.1-0.3-0.1-0.4c-1.3,0.5-2.8,0.9-4.7,1.2c-0.1,0.4-0.1,0.5-0.3,0.5
						c-0.3,0-0.4-0.3-0.8-1.9c0.8,0,1.2,0.1,1.8,0.1c1-1.1,1.7-2.1,2.3-3c0.3-0.5,0.6-1,0.8-1.5c1.5,0.8,1.8,1,1.8,1.2
						c0,0.2,0,0.2-0.8,0.2c-1.7,1.6-2.6,2.4-3.4,3C962.6,46,963.6,46,964.6,45.9z M969.1,42.2c-1,0.9-2.3,1.6-3.4,2.1
						c-0.1,0-0.2-0.1-0.2-0.2c0.5-0.5,1.2-1.4,1.8-2.1c0.3-0.5,0.6-1,0.7-1.3c1.4,0.7,1.8,1,1.8,1.2
						C969.8,42.1,969.7,42.2,969.1,42.2z M969,47.6c-0.5,0-0.6-0.1-1.1-1c-0.5-0.8-1-1.3-1.7-1.8c-0.1-0.1,0-0.2,0.1-0.2
						c2.4,0.4,3.6,1.1,3.6,2.1C969.9,47.2,969.5,47.6,969,47.6z"/>
				</g>
			</g>
		</g>
	</g>
	<line class="st2" x1="723.5" y1="308.9" x2="723.5" y2="0"/>
	<line class="st2" x1="356.8" y1="308.9" x2="356.8" y2="0"/>
	<g>
		<g>
			<g>
				<path class="st0" d="M799.2,99.3c4.2,0,7.7-3.4,7.7-7.7s-3.4-7.7-7.7-7.7c-4.2,0-7.7,3.4-7.7,7.7S794.9,99.3,799.2,99.3z"/>
				<g>
					<path class="st0" d="M819.3,126.1l-2.7-11.2c-2.6-10.3-11.5-12.7-17.5-12.7c-6,0-14.8,2.4-17.5,12.7l-5.2,22
						c-0.5,1.6,0.4,3.3,2,3.7c1.6,0.5,3.3-0.4,3.7-2l6.1-16.1l0.1,3.5c-1,1.6-4.1,7-4.1,13.9c0,3.3,3.4,18.6,3.4,18.6l2.1,0l1,22.5
						c0,1.9,1.6,3.5,3.5,3.5c1.9,0,3.5-1.6,3.5-3.5l0.9-22.4l0.5,0l0.5,0l0.9,22.4c0,1.9,1.6,3.5,3.5,3.5s3.5-1.6,3.5-3.5l1-22.5
						l2.1,0c0,0,3.4-15.3,3.4-18.6c0-2.1-0.3-4-0.7-5.7l-9.7,3.8c-0.6,0.2-1.2,0.4-1.8,0.4c-1.8,0-3.4-1.1-4.2-2.7c-1-2.3,0-5,2.3-6
						l9.9-4.9c0,0.1,0.2-2.3,0.2-2.3l1.2,3.3l-10.7,5.3c-1.5,0.7-2.2,2.4-1.5,3.9c0.7,1.5,2.4,2.2,3.9,1.5l14.4-5.6
						C819.3,130.1,819.8,128.2,819.3,126.1z"/>
				</g>
			</g>
			<g>
				<g>
					<g>
						<g>
							<path class="st0" d="M860,169.2l-0.2,0.3l-7-5.4c2-2.6,3.6-4.7,3.6-4.7c0.4-0.5,0.9-0.5,1.2,0.1l0.3,0.7c0.3,0.6,1,1,1.6,0.8
								l6-1.4c0.6-0.1,1.1,0.3,1,0.9l-0.5,2.7c-0.1,0.6-0.7,1.3-1.4,1.4l-3.4,0.7c-0.6,0.1-0.6,0.2,0,0.2l1.9-0.1c0.7,0,1,0.4,0.7,1
								c-0.3,0.6-1,1.1-1.7,1.3l-0.4,0.1C861.2,168.1,860.3,168.7,860,169.2z"/>
							<path class="st0" d="M839.7,170.5c0.2-1,0.7-0.5,0.8-0.2c0.1,0.3,1.5,3.1,3.7,4.8c1.3-1.6,4.6-5.8,7.4-9.4l7,5.4l-0.9,1.3
								c1.1,2.8,3.1,8.7,3.1,8.7c0.3,0.7-0.1,1.5-0.9,1.8c-0.7,0.3-1.4-0.1-1.8-0.9l-3-6.1l-1,1.4c0.4,0.4,0.6,0.9,0.6,1.5l0,0.6
								c0.1,0,0.1,0,0.2,0c3.1,0,3.3,3.4,0.2,3.4c-0.9,0-5,0-5,0s-1.4,0-4.6,0c-3.2,0-4.2-2.5-3.2-5.1
								C841.1,176.6,838.8,173.7,839.7,170.5z"/>
						</g>
					</g>
				</g>
			</g>
			<g>
				<path class="st0" d="M888.1,91.5c0,4.4-3.5,7.9-7.9,7.9c-4.4,0-7.9-3.5-7.9-7.9c0-4.4,3.5-7.9,7.9-7.9
					C884.6,83.6,888.1,87.2,888.1,91.5z"/>
				<path class="st0" d="M880.2,102.2L880.2,102.2c-5.3,0-16.8,2.3-16.8,13.5l1.4,27.3c0.2,1.8,1.7,3.2,3.3,3c1.1-0.1,2-0.9,2.5-1.9
					l1.1,35.7c0,2.4,1.8,4.4,4,4.4s4-2,4-4.4l0.5-30h0.1l0.5,30c0,2.4,1.8,4.4,4,4.4c2.2,0,4-2,4-4.4l1.1-35.7
					c0.5,1,1.4,1.8,2.5,1.9c1.7,0.2,3.2-1.2,3.3-3l1.4-27.3C897,104.4,885.5,102.2,880.2,102.2z"/>
			</g>
			<g>
				<path class="st0" d="M925.8,91.6c0,4.4-3.5,7.9-7.9,7.9c-4.4,0-7.9-3.5-7.9-7.9c0-4.4,3.5-7.9,7.9-7.9
					C922.3,83.7,925.8,87.3,925.8,91.6z"/>
				<g>
					<g>
						<path class="st0" d="M928.2,134.5c0.2-2.3,0.3-4.8,0.3-4.8c5.7-2,6.2-12.5,6.2-12.5c0-11.3-9.2-15-16.8-15
							c-7.4,0-16.4,4.3-16.8,15c0,0-0.1,11,6.7,15.5l0.1,1.3c-1.3,3.3-5.2,14.1-5.2,25.9h6.6l1,20.1c0,2.3,1.7,4.1,3.8,4.1
							c2,0,3.6-1.7,3.8-3.8c0.2,2.1,1.8,3.8,3.8,3.8c2.1,0,3.8-1.9,3.8-4.1l1-20.1h6.7C933.2,148.7,929.7,138.3,928.2,134.5z"/>
					</g>
				</g>
			</g>
			<path class="st3" d="M925.4,111.2c1.8-1.3,4.3-0.9,5.6,0.9c1.3,1.8,0.9,4.3-0.9,5.6c-1.8,1.3-4.3,0.9-5.6-0.9
				C923.2,115,923.6,112.5,925.4,111.2z"/>
			<path class="st3" d="M911.9,121.9c0.2-0.8,1-1.7,2.3-1.4c1.3,0.3,3.5,1.1,3.5,1.1l2.7-1.8l-2.6-1.2c-0.1,0-0.2-0.1-0.3-0.2
				c-0.5-0.4-0.5-1.2,0-1.7c0.3-0.3,0.8-0.4,1.2-0.3c0,0,5.6,1.8,6.5,2.1c1.7,0.5,2.4,2.5,0.8,4c0,0,0,0,0,0l-2.8,0.3
				c-1.6,0.1-2.8,1.5-2.6,3.1c0,0.1,0,0.2,0,0.3c-1.3,0.6-2.6,0.8-3.6,0.4c-1.6-0.4-2.5-1-2.5-1l-0.2,0.6l-3.6,0
				C910.7,126.3,911.7,122.7,911.9,121.9z"/>
		</g>
	</g>
	<g>
		<path class="st0" d="M1019,91.8c0,4.1-3.3,7.5-7.5,7.5c-4.1,0-7.5-3.3-7.5-7.5s3.3-7.5,7.5-7.5C1015.7,84.3,1019,87.6,1019,91.8z"
			/>
		<g>
			<g>
				<path class="st0" d="M983.3,142.6c0,3.6-2.9,6.6-6.6,6.6c-3.6,0-6.6-2.9-6.6-6.6c0-3.6,2.9-6.6,6.6-6.6
					C980.3,136,983.3,139,983.3,142.6z"/>
				<path class="st0" d="M968.7,181.2c0,2.1-1.7,3.9-3.9,3.9c-2.1,0-3.9-1.7-3.9-3.9c0-2.1,1.7-3.9,3.9-3.9
					C967,177.3,968.7,179,968.7,181.2z"/>
				<path class="st0" d="M982.5,181.2c0,2.1-1.7,3.9-3.9,3.9c-2.1,0-3.9-1.7-3.9-3.9c0-2.1,1.7-3.9,3.9-3.9
					C980.8,177.3,982.5,179,982.5,181.2z"/>
				<path class="st0" d="M974.5,175.8h-12.9l2.2-3.9h10.7c1.6,0,4.6-1.4,5.8-5.1c0.8-2.5,6.1-22.1,6.1-22.3l0.4-1.5h10.9l-1.2,3.9
					h-6.7c0,0-5.1,18.8-5.8,21.1C982.3,173.1,977.9,175.8,974.5,175.8z"/>
				<path class="st0" d="M975,150.6c-3.1,0.5-13.6,3.2-13.6,3.2c-1.1,0.2-1.8,1.3-1.6,2.4c0.2,1.1,1.3,1.8,2.4,1.6l6.7-0.8l-1.3,5
					c0,0-3.6,0-5.1,0c-2.3,0-3.8,0.8-4.7,2.7l-4.1,9.1c-0.6,1.4,0,2.9,1.4,3.5c1.4,0.6,2.9,0,3.5-1.4l3.5-6.2c0,0,8.3,0,10.3,0
					c2.1,0,4.6-1.2,5.2-3.6c0.7-2.4,2.8-10.8,2.8-10.8C981.6,151.6,978.6,150,975,150.6z"/>
			</g>
		</g>
		<path class="st0" d="M1031.2,161.2l-0.7-5.1h9.6c0,0-5.8-23.8-15.9-30.1c0,0-3.5-16.2-4.8-20.2c-1.3-4-10.2-7.1-14.9,4.3
			l-4.1,10.5l-5.5,13.9c-0.7,1.5,0,3.2,1.5,3.8c1.5,0.7,3.2,0,3.8-1.5l6.7-13.4l0.4-0.9l1.7,6.2l-8.3,51.7c-0.4,2,0.9,4.1,2.9,4.5
			c2,0.4,4.1-0.9,4.5-2.9l6.6-25.9h5.9l1.6,6.9l4.5,19c0.4,2.1,2.4,3.4,4.4,3c2.1-0.4,3.4-2.4,3-4.4L1031.2,161.2z"/>
	</g>
	<g>
		<rect x="494.1" y="80.5" class="st0" width="101.1" height="56.4"/>
		<g>
			<g>
				<path class="st4" d="M515.8,147.6c5.3,0,9.6-4.3,9.6-9.6c0-5.3-4.3-9.6-9.6-9.6c-5.3,0-9.6,4.3-9.6,9.6
					C506.2,143.3,510.5,147.6,515.8,147.6z"/>
				<path class="st4" d="M515.8,152.7c-7,0-12.1,8.3-12.1,13.4c0,5.1,0,10.2,0,10.2h24.3c0,0,0-5.1,0-10.2
					C527.9,161,522.8,152.7,515.8,152.7z"/>
				<path class="st4" d="M546.2,147.6c5.3,0,9.6-4.3,9.6-9.6c0-5.3-4.3-9.6-9.6-9.6c-5.3,0-9.6,4.3-9.6,9.6
					C536.6,143.3,540.9,147.6,546.2,147.6z"/>
				<path class="st4" d="M546.2,152.7c-7,0-12.1,8.3-12.1,13.4c0,5.1,0,10.2,0,10.2h24.3c0,0,0-5.1,0-10.2
					C558.4,161,553.3,152.7,546.2,152.7z"/>
				<path class="st4" d="M573.7,154.7c4,0,7.2-3.2,7.2-7.2c0-4-3.2-7.2-7.2-7.2c-4,0-7.2,3.2-7.2,7.2
					C566.5,151.5,569.7,154.7,573.7,154.7z"/>
				<path class="st4" d="M573.7,158.6c-5.3,0-9.1,6.2-9.1,10.1c0,3.8,0,7.7,0,7.7h18.3c0,0,0-3.8,0-7.7
					C582.8,164.8,579,158.6,573.7,158.6z"/>
			</g>
			<g>
				<path class="st0" d="M515.8,147.6c5.3,0,9.6-4.3,9.6-9.6c0-5.3-4.3-9.6-9.6-9.6c-5.3,0-9.6,4.3-9.6,9.6
					C506.2,143.3,510.5,147.6,515.8,147.6z"/>
				<path class="st0" d="M515.8,152.7c-7,0-12.1,8.3-12.1,13.4c0,5.1,0,10.2,0,10.2h24.3c0,0,0-5.1,0-10.2
					C527.9,161,522.8,152.7,515.8,152.7z"/>
				<path class="st0" d="M546.2,147.6c5.3,0,9.6-4.3,9.6-9.6c0-5.3-4.3-9.6-9.6-9.6c-5.3,0-9.6,4.3-9.6,9.6
					C536.6,143.3,540.9,147.6,546.2,147.6z"/>
				<path class="st0" d="M546.2,152.7c-7,0-12.1,8.3-12.1,13.4c0,5.1,0,10.2,0,10.2h24.3c0,0,0-5.1,0-10.2
					C558.4,161,553.3,152.7,546.2,152.7z"/>
				<path class="st0" d="M573.7,154.7c4,0,7.2-3.2,7.2-7.2c0-4-3.2-7.2-7.2-7.2c-4,0-7.2,3.2-7.2,7.2
					C566.5,151.5,569.7,154.7,573.7,154.7z"/>
				<path class="st0" d="M573.7,158.6c-5.3,0-9.1,6.2-9.1,10.1c0,3.8,0,7.7,0,7.7h18.3c0,0,0-3.8,0-7.7
					C582.8,164.8,579,158.6,573.7,158.6z"/>
			</g>
		</g>
		<rect x="494.1" y="175.7" class="st0" width="101.1" height="6.7"/>
	</g>
	<g>
		<rect x="121.7" y="169.4" class="st0" width="107.9" height="11.2"/>
		<polygon class="st0" points="148.6,166.5 176.9,166.5 194.2,166.5 194.2,157.6 172.8,157.6 163.9,133.2 122,133.2 135,166.5 		"/>
		<path class="st0" d="M188.5,114.5c0.7,3.3,1.8,6.2,3.2,7.6c0,1.7,0,3,0,4c0,0.1,0,0.2-0.1,0.3l7.5,3.2l7.4-3.2
			c0-0.1-0.1-0.2-0.1-0.3c0-1,0-2.3,0-4c1.4-1.4,2.5-4.3,3.2-7.6c1.5-0.5,2.4-1.3,3.5-4.7c1.2-3.6-1.7-3.5-1.7-3.5
			c2.3-6.9-0.7-13.4-5.9-12.9c-3.6-5.6-15.5,1.3-19.2,0.8c0,1.9,0.9,3.3,0.9,3.3c-1.3,2.2-0.8,6.6-0.4,8.8c-0.2,0-2.8,0-1.7,3.5
			C186.1,113.3,187,114.1,188.5,114.5z"/>
		<rect x="196.3" y="131.3" class="st0" width="5.6" height="4.3"/>
		<path class="st0" d="M198,153.8v12.7h31.4c-1.7-15.6-9.2-30.2-14.4-31.9c-0.6-0.2-1.2-0.5-1.8-0.8l-10.6,13l-0.7-8.5h-5.6
			l-0.8,8.5l-10.6-13c-0.7,0.3-1.3,0.6-1.8,0.8c-2.8,0.9-6.3,7.5-9.1,15.1l1.5,4.1H198z"/>
	</g>
	<polyline class="st5" points="144.4,91.3 144.4,105 148.8,112.9 	"/>
	<g>
		<g>
			<path class="st1" d="M64,226.9l-6-16.2c1.8-1.6,4-2.8,6.5-3.9c2.5-1,5.3-1.8,8.3-2.3c3-0.5,5.9-0.8,8.8-0.8
				c4.9,0,9.2,0.7,13.1,2.2c3.9,1.5,7,3.6,9.2,6.3c2.2,2.7,3.4,6,3.4,9.9c0,2.9-0.6,5.6-1.8,8.1c-1.2,2.5-2.8,4.9-4.8,7
				c-2,2.2-4.1,4.2-6.5,6c-2.3,1.8-4.7,3.5-6.9,5c-2.3,1.5-4.3,2.8-6.1,3.9h17.1c1.8,0,3.4-0.3,4.9-1c1.5-0.7,2.8-1.7,4-3.1
				c1.2-1.4,2.4-3.1,3.4-5.3h0.9l-6.1,25.3H58.5v-0.9c2.6-3.2,5.2-6.4,8-9.5c2.7-3.2,5.4-6.3,7.9-9.5c2.5-3.2,4.8-6.3,6.9-9.4
				c2-3.1,3.7-6.2,4.9-9.3c1.2-3.1,1.8-6.1,1.8-9.1c0-3.9-1-7-3.1-9.2c-2.1-2.2-4.9-3.2-8.4-2.9c-3.8,0.3-6.6,2-8.6,5.2
				c-2,3.2-2.9,7.7-2.9,13.5H64z"/>
			<path class="st1" d="M117.4,205.2l47.7-0.2l-11.5,26.7c-0.8,1.7-1.6,3.8-2.5,6.3c-0.9,2.5-1.8,5.1-2.8,7.9
				c-1,2.8-1.9,5.6-2.8,8.4c-0.9,2.8-1.7,5.3-2.5,7.7c-0.8,2.4-1.3,4.4-1.8,6H126c1.1-1.8,2.4-4,3.9-6.5c1.5-2.5,3.1-5.3,4.7-8.1
				c1.6-2.9,3.2-5.7,4.8-8.6c1.6-2.8,3-5.5,4.3-7.9c1.3-2.4,2.3-4.5,3.1-6.1l4.7-10h-28.8c-1.8,0-3.2,0.5-4.2,1.3
				c-1,0.9-1.9,2.2-2.5,4.1h-0.9L117.4,205.2z"/>
			<path class="st1" d="M177.2,269.2c-2.2,0-4.1-0.8-5.7-2.4c-1.6-1.6-2.4-3.5-2.4-5.7c0-2.3,0.8-4.2,2.4-5.8
				c1.6-1.6,3.5-2.3,5.7-2.3c2.3,0,4.2,0.8,5.8,2.3c1.6,1.6,2.3,3.5,2.3,5.8c0,2.2-0.8,4.1-2.3,5.7
				C181.4,268.4,179.5,269.2,177.2,269.2z"/>
			<path class="st1" d="M197.2,226.9l-6-16.2c1.8-1.6,4-2.8,6.5-3.9c2.5-1,5.3-1.8,8.3-2.3c3-0.5,5.9-0.8,8.8-0.8
				c4.9,0,9.2,0.7,13.1,2.2c3.9,1.5,7,3.6,9.2,6.3c2.2,2.7,3.4,6,3.4,9.9c0,2.9-0.6,5.6-1.8,8.1c-1.2,2.5-2.8,4.9-4.8,7
				c-2,2.2-4.1,4.2-6.5,6c-2.3,1.8-4.7,3.5-6.9,5c-2.3,1.5-4.3,2.8-6.1,3.9h17.1c1.8,0,3.4-0.3,4.9-1c1.5-0.7,2.8-1.7,4-3.1
				c1.2-1.4,2.4-3.1,3.4-5.3h0.9l-6.1,25.3h-46.8v-0.9c2.6-3.2,5.2-6.4,8-9.5c2.7-3.2,5.4-6.3,7.9-9.5c2.5-3.2,4.8-6.3,6.9-9.4
				c2-3.1,3.7-6.2,4.9-9.3c1.2-3.1,1.8-6.1,1.8-9.1c0-3.9-1-7-3.1-9.2c-2.1-2.2-4.9-3.2-8.4-2.9c-3.8,0.3-6.6,2-8.6,5.2
				c-2,3.2-2.9,7.7-2.9,13.5H197.2z"/>
		</g>
	</g>
	<g>
		<g>
			<path class="st1" d="M454.2,205.2l47.7-0.2l-11.5,26.7c-0.8,1.7-1.6,3.8-2.5,6.3c-0.9,2.5-1.8,5.1-2.8,7.9
				c-1,2.8-1.9,5.6-2.8,8.4c-0.9,2.8-1.7,5.3-2.5,7.7c-0.8,2.4-1.3,4.4-1.8,6h-15.3c1.1-1.8,2.4-4,3.9-6.5c1.5-2.5,3.1-5.3,4.7-8.1
				c1.6-2.9,3.2-5.7,4.8-8.6c1.6-2.8,3-5.5,4.3-7.9c1.3-2.4,2.3-4.5,3.1-6.1l4.7-10h-28.8c-1.8,0-3.2,0.5-4.2,1.3
				c-1,0.9-1.9,2.2-2.5,4.1h-0.9L454.2,205.2z"/>
			<path class="st1" d="M513.1,271.4l-0.4-0.6c6.4-2,11.4-4.2,15.1-6.7c3.6-2.5,6.3-5.2,8-8.4c1.7-3.1,2.7-6.6,3.1-10.6
				c0.4-3.9,0.6-8.4,0.6-13.4c0-5-0.1-9.1-0.4-12.5c-0.2-3.3-0.8-5.8-1.8-7.5c-0.9-1.6-2.5-2.5-4.7-2.5c-2.2,0-3.9,0.7-5,2.2
				c-1.1,1.5-1.9,3.4-2.3,5.7c-0.4,2.3-0.6,4.9-0.6,7.7c0,3.4,0.2,6.1,0.6,8c0.4,1.9,0.9,3.3,1.6,4.3c0.7,0.9,1.5,1.6,2.3,1.9
				c1.4,0.5,2.7,0.6,3.8,0.3c1.2-0.4,2.1-0.8,2.9-1.3l0.6,0.7c-0.8,1.9-2.2,3.4-4,4.6c-1.8,1.2-3.9,2-6.2,2.3
				c-2.3,0.4-4.7,0.3-7.1-0.3c-2.4-0.6-4.6-1.6-6.6-3.2c-2-1.6-3.6-3.7-4.8-6.4c-1.2-2.7-1.7-6-1.6-9.9c0.1-4,1.1-7.7,3-11
				c1.9-3.3,4.7-5.9,8.6-7.9c3.8-2,8.7-3,14.7-3.1c8.8-0.1,15.6,2.2,20.3,7c4.7,4.8,7.1,12.4,7.1,22.7c0,6.4-1,12.2-2.9,17.2
				c-1.9,5.1-4.8,9.3-8.7,12.6c-3.9,3.4-8.8,5.7-14.6,7.2C527.8,272.1,521,272.4,513.1,271.4z"/>
			<path class="st1" d="M574.7,269.2c-2.2,0-4.1-0.8-5.7-2.4c-1.6-1.6-2.4-3.5-2.4-5.7c0-2.3,0.8-4.2,2.4-5.8
				c1.6-1.6,3.5-2.3,5.7-2.3c2.3,0,4.2,0.8,5.8,2.3c1.6,1.6,2.3,3.5,2.3,5.8c0,2.2-0.8,4.1-2.3,5.7
				C578.9,268.4,577,269.2,574.7,269.2z"/>
			<path class="st1" d="M589.3,268l0.1-0.9h1.9c1.4,0,2.5-0.5,3.5-1.4c1-1,1.4-2.1,1.4-3.4v-45.6c0-2.3-0.5-4-1.6-4.9
				s-2.5-1.3-4.3-1.3h-1.6v-0.9c1.3-0.1,3-0.2,5.1-0.5c2.1-0.3,4.4-0.6,6.9-1.1c2.5-0.5,4.8-1,7.2-1.7c2.3-0.7,4.3-1.5,5.9-2.5h0.9
				v58.6c0,1.3,0.5,2.4,1.5,3.4c1,0.9,2.1,1.4,3.5,1.4h1.9v0.9H589.3z"/>
		</g>
	</g>
</g>
</svg>
