<?xml version="1.0" encoding="utf-8"?>
<!-- Generator: Adobe Illustrator 25.4.6, SVG Export Plug-In . SVG Version: 6.00 Build 0)  -->
<svg version="1.1" id="レイヤー_1" xmlns="http://www.w3.org/2000/svg" xmlns:xlink="http://www.w3.org/1999/xlink" x="0px"
	 y="0px" viewBox="0 0 335 419.5" style="enable-background:new 0 0 335 419.5;" xml:space="preserve">
<style type="text/css">
	.st0{fill:#333333;}
	.st1{fill:#4AA064;}
	.st2{fill:none;stroke:#333333;stroke-miterlimit:10;}
	.st3{fill:none;stroke:#4AA064;stroke-width:1.76;stroke-miterlimit:10;}
</style>
<g>
	<g>
		<g>
			<g>
				<g>
					<path class="st0" d="M246.8,194.9c-0.5,0.8-1.1,1.5-1.7,2.1c-0.1,0.1-0.2-0.1-0.2-0.2c1.2-2.2,2.2-4.6,2.8-6.9
						c0.3-1,0.4-2.1,0.5-3c2.4,0.6,2.6,0.7,2.6,1c0,0.2-0.1,0.3-0.8,0.5c-0.5,1.6-1.2,3.3-2.1,4.8c1.1,0.2,1.3,0.2,1.3,0.4
						c0,0.2-0.1,0.3-0.5,0.5v10.3c0,0.6-0.3,0.8-1.1,0.8c-0.6,0-0.9-0.2-0.9-0.8c0-0.5,0.1-2.1,0.1-5.3V194.9z M251.7,202.1
						c0,1.3-0.5,2.3-1.5,2.3c-0.6,0-0.9-0.4-0.9-0.9c0-0.5,0.2-0.7,0.8-1c0.9-0.4,1.3-0.9,1.3-1.6c0-0.1,0.2-0.1,0.2,0
						C251.7,201.3,251.7,201.7,251.7,202.1z M252.8,189.8c1.4,0.4,2.1,1,2.1,1.9c0,0.4-0.3,0.8-0.7,0.8h3.3c0.2-0.5,0.3-0.9,0.4-1.4
						c0.1-0.4,0.2-0.9,0.2-1.3c1.7,0.5,2.2,0.7,2.2,0.9c0,0.2-0.1,0.3-0.6,0.4c-0.8,0.8-1.1,1.1-1.6,1.4h2.7c0.9-1,1.1-1.2,1.2-1.2
						c0.2,0,0.4,0.2,1.2,0.8c0.4,0.3,0.5,0.5,0.5,0.6c0,0.1-0.1,0.2-0.3,0.2h-12.4c-0.4,0-0.9,0-1.4,0.1l-0.2-0.7
						c0.6,0.1,1.1,0.2,1.6,0.2h2.7c-0.3-0.1-0.5-0.2-0.6-0.6c-0.2-1.1-0.4-1.5-0.9-2.2h-0.2c-0.4,0-0.9,0-1.4,0.1l-0.2-0.7
						c0.6,0.1,1.1,0.2,1.6,0.2h3.2v-1.2c0-0.4,0-0.8-0.1-1.2c2.3,0.2,2.5,0.4,2.5,0.6c0,0.2-0.2,0.3-0.6,0.5v1.3h2.9
						c0.8-1,1.1-1.2,1.2-1.2c0.2,0,0.4,0.2,1.3,0.8c0.4,0.3,0.5,0.5,0.5,0.6s-0.1,0.2-0.3,0.2H252.8z M252.8,199.2
						c-0.1,0.4-0.4,0.6-1,0.6c-0.6,0-0.8-0.2-0.8-0.7c0-0.3,0.1-0.7,0.1-2c0-1.2,0-2.3-0.1-3.5c1,0.4,1.2,0.5,2.1,0.9h6.2
						c0.7-0.7,0.8-0.9,1-0.9c0.2,0,0.4,0.1,1.1,0.6c0.3,0.2,0.4,0.4,0.4,0.5c0,0.1-0.1,0.3-0.5,0.6v0.6c0,1.6,0,2.7,0,3.1
						c0,0.5-0.4,0.8-1.1,0.8c-0.5,0-0.7-0.2-0.7-0.6v0H252.8z M259.4,194.9h-6.6v1.7h6.6V194.9z M259.4,197.1h-6.6v1.7h6.6V197.1z
						 M259.6,202.7c0,0.3,0.1,0.4,0.2,0.4c0.5,0.1,0.6,0.3,0.6,0.7c0,0.4-0.3,0.7-0.9,0.9c-0.7,0.2-1.7,0.3-3.2,0.3
						c-2.6,0-3.4-0.3-3.4-1.4c0-0.4,0-0.9,0-2.6c0-0.3,0-0.6-0.1-0.9c2,0.2,2.2,0.3,2.2,0.5c0,0.2-0.2,0.3-0.5,0.4v1.7
						c0,0.6,0.3,0.7,1.9,0.7c0.8,0,1.4,0,1.7-0.1c0.6-0.2,0.7-0.7,1.2-2c0-0.1,0.2-0.1,0.2,0V202.7z M257,202.5
						c-0.5,0-0.5-0.1-0.8-1.1c-0.1-0.5-0.3-0.8-0.8-1.4c-0.1-0.1,0-0.2,0.1-0.1c1.7,0.3,2.5,0.8,2.5,1.7
						C257.9,202.1,257.5,202.5,257,202.5z M262.5,204.2c-0.5,0-0.7-0.2-0.9-1.2c-0.2-0.9-0.6-1.7-1.1-2.2c-0.1-0.1,0-0.2,0.1-0.2
						c2,0.6,2.8,1.3,2.8,2.4C263.4,203.7,263,204.2,262.5,204.2z"/>
					<path class="st0" d="M272.6,204.4c0,0.5-0.4,0.7-1.2,0.7c-0.6,0-0.9-0.2-0.9-0.7c0-1.8,0.1-3.6,0.1-10.8c0-2.1,0-4.2-0.1-6.3
						c1,0.5,1.2,0.6,2.3,1.1h11.3c0.7-0.8,0.9-1,1.1-1c0.2,0,0.4,0.1,1.1,0.8c0.3,0.3,0.5,0.4,0.5,0.6c0,0.2-0.1,0.3-0.5,0.6v2.2
						c0,9.7,0.1,10.1,0.1,11.3c0,1-0.3,1.5-0.9,1.8c-0.3,0.1-1,0.3-1.3,0.3s-0.4-0.1-0.5-0.5c-0.1-0.7-0.5-1.2-2.4-1.6
						c-0.1,0-0.1-0.2,0-0.2c1.1,0,2,0.1,2.7,0.1c0.3,0,0.3-0.1,0.3-0.4v-6.5h-11.6V204.4z M277.3,195.3v-6.4h-4.7v6.4H277.3z
						 M284.2,188.9h-4.9v6.4h4.9V188.9z"/>
				</g>
			</g>
		</g>
	</g>
	<g>
		<g>
			<g>
				<g>
					<path class="st0" d="M29.6,37.3c0,1,0,1.5,0,2c0,0.3-0.2,0.5-0.7,0.5c-0.3,0-0.5-0.1-0.5-0.4c0-0.4,0.1-1.8,0.1-3.1
						c-0.8,1-1.7,1.7-2.8,2.2c-0.1,0-0.2-0.1-0.1-0.2c1.2-1.1,2-2.3,2.7-3.9H27c-0.2,0-0.5,0-0.8,0.1L26,34c0.4,0.1,0.6,0.1,0.9,0.1
						h1.6v-0.4c0-0.5,0-0.9-0.1-1.4c1.1,0.1,1.7,0.2,1.7,0.4c0,0.1-0.1,0.3-0.4,0.4v1.1h0.6c0.4-0.6,0.6-0.7,0.7-0.7
						c0.1,0,0.3,0.1,0.7,0.5c0.2,0.2,0.3,0.3,0.3,0.4c0,0.1,0,0.1-0.2,0.1h-2.2v0.8c1.3,0.2,2.1,0.7,2.1,1.3c0,0.4-0.2,0.6-0.6,0.6
						c-0.3,0-0.4-0.1-0.5-0.4c-0.2-0.6-0.6-1-1-1.3V37.3z M32.9,29.1c0.5,0.5,1.3,1,2.1,1.3c1,0.4,2.2,0.6,3.5,0.8
						c0.1,0,0.1,0.1,0,0.2c-0.4,0.2-0.7,0.4-0.8,0.8c-0.2,0.4-0.3,0.5-0.4,0.5c-0.1,0-0.4-0.1-0.7-0.2c-0.6-0.3-1.5-0.8-2-1.2
						c-0.6-0.4-1.1-1-1.7-1.8c0,1.2,0.1,2.3,0.1,2.9c0,0.4-0.3,0.5-0.8,0.5c-0.4,0-0.6-0.1-0.6-0.4c0-0.2,0-1.4,0.1-2.3
						c-1.2,1.2-3.1,2.1-5.3,2.7c-0.1,0-0.1-0.1-0.1-0.1c2.2-1.1,3.3-2.1,4.6-3.5h-3c-0.3,0-0.6,0-0.9,0.1l-0.2-0.5
						c0.4,0.1,0.7,0.1,1,0.1h3.8v-0.6c0-0.5,0-0.9-0.1-1.3c1.6,0.2,1.8,0.2,1.8,0.4c0,0.2-0.1,0.3-0.5,0.4v1.1h2.9
						c0.7-0.9,0.9-1,1-1c0.1,0,0.3,0.1,1,0.7c0.3,0.3,0.4,0.4,0.4,0.5c0,0.1,0,0.1-0.2,0.1H32.9z M35.3,37.3c0,0.8,0,1.4,0,1.9
						c0,0.3-0.2,0.5-0.7,0.5c-0.4,0-0.5-0.1-0.5-0.4c0-0.4,0-1.8,0.1-3.2c-1,1.2-2.1,2-3.5,2.6c-0.1,0-0.2-0.1-0.1-0.2
						c1.4-1.1,2.4-2.4,3.2-4.1h-0.7c-0.2,0-0.5,0-0.8,0.1L32.1,34c0.4,0.1,0.7,0.1,0.9,0.1h1v-0.6c0-0.4,0-0.8-0.1-1.3
						c1.2,0.1,1.7,0.2,1.7,0.4c0,0.1-0.1,0.2-0.4,0.4v1.1h1.2c0.5-0.7,0.7-0.8,0.8-0.8c0.1,0,0.3,0.1,0.8,0.5
						c0.3,0.2,0.4,0.3,0.4,0.4c0,0.1,0,0.1-0.2,0.1h-2.9c0.4,0.7,0.9,1.3,1.4,1.8c0.6,0.5,1.3,0.9,2.1,1.1c0.1,0,0.1,0.1,0,0.1
						c-0.4,0.3-0.7,0.5-0.8,0.9c-0.1,0.2-0.1,0.2-0.2,0.2c-0.1,0-0.2-0.1-0.4-0.2c-0.4-0.3-0.9-0.9-1.2-1.3
						c-0.4-0.6-0.7-1.3-1.1-2.2V37.3z"/>
					<path class="st0" d="M47,32.5c0.8,0.4,1.3,0.8,1.3,1.4c0,0.4-0.3,0.7-0.6,0.7c-0.3,0-0.5-0.1-0.8-0.4c-0.3-0.4-0.7-0.7-1-1
						c-0.4-0.4-0.9-0.6-1.5-0.8c0,0.8,0,1.6,0,2.4c0,0.6,0,1.9,0.1,3.4c0,0.5-0.2,0.7-0.5,0.7c-0.2,0-0.4-0.1-0.6-0.3
						c-0.2-0.4-0.3-0.8-0.3-1.1c0-0.1,0-0.3,0.1-0.4c0-0.1,0.1-0.2,0.1-0.2c0-0.2,0-0.6,0.1-3.1c0-1.3,0-2.5,0-3.8
						c0-0.4,0-1-0.1-1.2c0-0.1-0.2-0.2-0.3-0.3c-0.2-0.1-0.4-0.2-0.5-0.2c-0.1,0-0.1-0.1-0.1-0.1c0-0.1,0.1-0.2,0.2-0.2
						c0.1-0.1,0.3-0.1,0.4-0.1c0.3,0,0.7,0.1,1.4,0.4c0.4,0.2,0.6,0.4,0.6,0.7c0,0.2-0.1,0.3-0.2,0.4c-0.1,0.1-0.1,0.1-0.1,0.3
						c0,0.4-0.1,1.2-0.1,2.5C45.4,32,46.3,32.2,47,32.5z"/>
					<path class="st0" d="M54.7,31.2c0.8-0.1,2-0.2,3.8-0.4c0.2,0,0.3-0.1,0.5-0.2c0.1-0.1,0.3-0.1,0.4-0.1c0.3,0,0.7,0.3,1.1,0.7
						c0.3,0.3,0.3,0.4,0.3,0.6c0,0.2-0.2,0.3-0.3,0.3c-0.2,0.1-0.3,0.2-0.5,0.6c-0.5,1-1.3,2.1-2.2,3.1c-1.1,1.2-2.7,2.5-4.6,3.2
						C53.1,39,53,39,52.9,39c-0.1,0-0.1-0.1-0.1-0.1c0-0.1,0.1-0.1,0.2-0.2c1.7-1.1,2.9-2.4,4-3.9c0.8-1,1.3-1.9,1.8-2.9
						c0-0.1,0.1-0.3,0.1-0.3c0,0,0,0-0.1,0c-0.1,0-0.2,0-0.2,0c-1.5,0.1-2.6,0.3-4,0.6c-0.5,0.1-0.7,0.2-0.8,0.2
						c-0.2,0.1-0.3,0.1-0.4,0.1c-0.2,0-0.4-0.1-0.8-0.4c-0.4-0.4-0.5-0.8-0.5-1c0-0.2,0.1-0.4,0.1-0.4c0.1,0,0.1,0,0.2,0.1
						c0.4,0.4,0.6,0.5,1.1,0.5C53.6,31.3,54.2,31.2,54.7,31.2z M55.3,28.5c0.5-0.1,1.1-0.2,1.7-0.3c0.4-0.1,0.5-0.2,0.6-0.2
						c0.2-0.1,0.4-0.1,0.5-0.1c0.6,0,1.2,0.3,1.2,0.6c0,0.2,0,0.4-0.3,0.5c-0.3,0.1-0.6,0.1-0.9,0.2c-0.6,0.1-2.1,0.3-3.2,0.4
						c-0.3,0-0.5,0-0.7,0c-0.5,0-0.8-0.2-1.2-0.8c-0.2-0.2-0.2-0.4-0.2-0.6c0-0.1,0-0.2,0.1-0.2c0,0,0.1,0,0.2,0.1
						c0.5,0.4,0.7,0.5,1.3,0.5C54.8,28.6,55.1,28.5,55.3,28.5z"/>
					<path class="st0" d="M72.2,34.4c0.5,0.3,1,0.6,1.3,0.9c0.8,0.6,1.2,1.2,1.2,1.6c0,0.4-0.3,0.8-0.6,0.8c-0.4,0-0.6-0.1-0.9-0.5
						c-0.5-0.7-1-1.5-1.6-2.1c-0.5-0.5-0.9-0.8-1.4-1.1c-1.1,1.1-2.2,2-3.4,2.7c-0.9,0.5-1.8,0.9-2.4,1.1c-0.1,0-0.2,0.1-0.3,0.1
						c-0.1,0-0.1,0-0.1-0.1c0-0.1,0-0.1,0.1-0.2c1.7-0.9,2.8-1.8,4.4-3.4c1.1-1.1,1.8-2.1,2.8-3.7c0.1-0.1,0.1-0.1,0.1-0.2
						c0,0,0-0.1-0.2,0c-1,0.1-2.2,0.3-3.3,0.6c-0.4,0.1-0.5,0.2-0.6,0.2c-0.1,0.1-0.2,0.2-0.5,0.2c-0.3,0-0.5-0.2-0.9-0.7
						c-0.3-0.3-0.3-0.5-0.3-0.9c0-0.3,0.1-0.4,0.2-0.4c0,0,0.1,0.1,0.2,0.2c0.4,0.4,0.5,0.5,1,0.5c0.2,0,0.5,0,1.1-0.1
						c1.1-0.1,2.1-0.3,3.1-0.4c0.3,0,0.4-0.1,0.6-0.2c0.1-0.1,0.2-0.2,0.4-0.2c0.3,0,0.4,0.1,0.7,0.4c0.4,0.4,0.6,0.6,0.6,0.8
						c0,0.1,0,0.3-0.5,0.4c-0.1,0-0.2,0.2-0.3,0.3c-0.6,0.9-1.1,1.6-1.9,2.5C71.2,33.9,71.7,34.2,72.2,34.4z"/>
					<path class="st0" d="M83.6,32.5c0.8,0.4,1.3,0.8,1.3,1.4c0,0.4-0.3,0.7-0.6,0.7c-0.3,0-0.5-0.1-0.8-0.4c-0.3-0.4-0.7-0.7-1-1
						c-0.4-0.4-0.9-0.6-1.5-0.8c0,0.8,0,1.6,0,2.4c0,0.6,0,1.9,0.1,3.4c0,0.5-0.2,0.7-0.5,0.7c-0.2,0-0.4-0.1-0.6-0.3
						c-0.2-0.4-0.3-0.8-0.3-1.1c0-0.1,0-0.3,0.1-0.4c0-0.1,0.1-0.2,0.1-0.2c0-0.2,0-0.6,0.1-3.1c0-1.3,0-2.5,0-3.8
						c0-0.4,0-1-0.1-1.2c0-0.1-0.2-0.2-0.3-0.3c-0.2-0.1-0.4-0.2-0.5-0.2c-0.1,0-0.1-0.1-0.1-0.1c0-0.1,0.1-0.2,0.2-0.2
						c0.1-0.1,0.3-0.1,0.4-0.1c0.3,0,0.7,0.1,1.4,0.4c0.4,0.2,0.6,0.4,0.6,0.7c0,0.2-0.1,0.3-0.2,0.4c-0.1,0.1-0.1,0.1-0.1,0.3
						c0,0.4-0.1,1.2-0.1,2.5C81.9,32,82.8,32.2,83.6,32.5z"/>
					<path class="st0" d="M97.3,30.7c0,0.2-0.1,0.4-0.4,0.5c-0.2,0.1-0.3,0.3-0.4,0.5c-1,1.5-2,2.9-3.2,4.2
						c-1.3,1.3-2.8,2.4-4.5,3.1c-0.1,0-0.2,0.1-0.3,0.1c-0.1,0-0.1,0-0.1-0.1c0-0.1,0.1-0.1,0.2-0.3c1.8-1.2,3.1-2.4,4.1-3.6
						c1-1.2,2-2.6,2.8-4.2c0-0.1,0-0.1,0-0.1s0-0.1-0.1-0.1c-0.3,0-0.8,0.2-1.4,0.3c-0.4,0.1-0.6,0.1-0.8,0.1
						c-0.2,0-0.5-0.1-0.8-0.2c-0.5,0.7-1.1,1.3-1.7,1.9c-0.6,0.6-1.3,1.1-2,1.6c-0.3,0.2-0.4,0.2-0.4,0.2c-0.1,0-0.2-0.1-0.2-0.2
						c0-0.1,0.2-0.3,0.5-0.6c0.5-0.5,1.1-1.2,1.7-2c0.4-0.5,0.8-1.1,1.1-1.7c0.2-0.4,0.5-0.8,0.5-1.1s-0.2-0.4-0.5-0.5
						c-0.1-0.1-0.2-0.1-0.2-0.2c0-0.1,0.2-0.2,0.5-0.2c0.2,0,0.7,0.1,1.4,0.5c0.4,0.3,0.5,0.4,0.5,0.7c0,0.2-0.2,0.3-0.3,0.4
						c-0.1,0.1-0.2,0.2-0.6,0.7c0,0,0.1,0,0.2,0c0.3,0,0.6-0.1,1.1-0.2c0.6-0.1,0.9-0.2,1.1-0.2c0.1,0,0.2-0.1,0.3-0.2
						c0.1-0.1,0.2-0.2,0.4-0.2c0.3,0,0.6,0.2,1.1,0.6C97.2,30.4,97.3,30.6,97.3,30.7z M98,28.8c0.4,0.3,0.5,0.5,0.5,0.8
						c0,0.2-0.2,0.5-0.5,0.5c-0.2,0-0.3,0-0.5-0.3c-0.3-0.5-0.5-0.9-0.9-1.2c-0.1-0.1-0.2-0.1-0.2-0.2c0-0.1,0.1-0.1,0.2-0.1
						c0.1,0,0.3,0,0.3,0.1C97.4,28.5,97.7,28.6,98,28.8z M99.3,27.9c0.3,0.2,0.5,0.4,0.5,0.7c0,0.3-0.2,0.5-0.4,0.5
						c-0.2,0-0.4-0.1-0.5-0.3c-0.3-0.5-0.6-0.8-1-1.1c-0.1,0-0.2-0.1-0.2-0.2c0-0.1,0.1-0.1,0.1-0.1c0.1,0,0.2,0,0.4,0
						C98.6,27.5,98.9,27.7,99.3,27.9z"/>
					<path class="st0" d="M104.6,31c-0.1,0-0.2-0.1-0.2-0.1c0-0.1,0.3-0.3,0.5-0.3c0.4,0,1,0.2,1.5,0.5c0.4,0.2,0.4,0.4,0.4,0.6
						c0,0.1,0,0.2-0.2,0.4c-0.1,0.1-0.2,0.2-0.2,0.5c-0.3,0.9-0.6,1.8-1.1,2.6c-0.7,1.1-1.6,2-2.8,2.6c-0.1,0.1-0.2,0.1-0.3,0.1
						c-0.1,0-0.1,0-0.1-0.1c0-0.1,0-0.1,0.1-0.2c0.9-0.8,1.4-1.5,2-2.5c0.4-0.8,0.7-1.6,1-2.4c0.1-0.4,0.2-0.7,0.2-1
						C105.3,31.4,104.9,31.1,104.6,31z M107.8,30.1c-0.1-0.2-0.3-0.4-0.6-0.5c-0.1,0-0.2-0.1-0.2-0.2c0-0.1,0.3-0.3,0.6-0.3
						c0.3,0,0.8,0.2,1.3,0.5c0.3,0.2,0.6,0.4,0.6,0.7c0,0.2-0.1,0.3-0.2,0.4c-0.1,0.1-0.1,0.2-0.1,0.3c0,0.9,0,1.8-0.1,3.2
						c0,0.6,0,1,0,1c0,0.1,0,0.2,0.1,0.2s0.2,0,0.3-0.1c1.5-0.7,2.9-1.3,4.6-2.7c0.2-0.1,0.3-0.2,0.4-0.2c0.1,0,0.1,0,0.1,0.1
						c0,0.1-0.1,0.1-0.1,0.2c-0.9,1.3-2.5,2.6-4.9,4c-0.1,0.1-0.2,0.2-0.3,0.3c-0.1,0.1-0.2,0.2-0.3,0.2c-0.2,0-0.5-0.2-0.7-0.4
						c-0.3-0.3-0.4-0.6-0.4-0.8c0-0.1,0-0.1,0-0.2c0-0.1,0.1-0.5,0.1-0.9c0-1.1,0-2.1,0-3.9C107.8,30.6,107.8,30.3,107.8,30.1z"/>
					<path class="st0" d="M127.7,33.9c-0.4,0-1.4-0.1-2.1-0.1c-1.1,0-3.5,0.1-5.2,0.2c-0.7,0.1-1.2,0.1-1.4,0.3
						c-0.1,0.1-0.2,0.1-0.4,0.1c-0.4,0-0.7-0.3-1.1-1c-0.2-0.3-0.3-0.5-0.3-0.8c0-0.2,0.1-0.3,0.2-0.3c0,0,0.1,0.1,0.2,0.1
						c0.5,0.5,0.8,0.5,1.2,0.5c0.4,0,0.6,0,1.5-0.1c1.7-0.1,3.6-0.2,5-0.2c0.5,0,0.9-0.1,1.1-0.2c0.1-0.1,0.3-0.1,0.4-0.1
						c0.2,0,0.4,0,0.6,0.1c0.5,0.2,0.9,0.4,0.9,0.8C128.2,33.6,128,33.9,127.7,33.9z"/>
					<path class="st0" d="M133.7,31.2c-0.3,0.1-0.4,0.1-0.5,0.2c-0.1,0.1-0.3,0.1-0.4,0.1c-0.2,0-0.5-0.2-0.8-0.6
						c-0.4-0.5-0.5-0.7-0.5-1c0-0.3,0.1-0.4,0.2-0.4c0.1,0,0.1,0.1,0.2,0.2c0.4,0.5,0.7,0.6,1.2,0.6c0.4,0,0.7,0,1-0.1
						c1.4-0.1,2.8-0.3,4-0.4c0.3,0,0.5-0.1,0.6-0.2c0.1-0.1,0.2-0.2,0.4-0.2c0.3,0,0.5,0.1,0.9,0.4c0.5,0.4,0.6,0.6,0.6,0.9
						c0,0.1-0.1,0.3-0.3,0.4c-0.3,0.2-0.4,0.4-0.6,0.7c-0.9,1.7-1.7,2.7-2.7,3.7c-1.5,1.6-3.3,2.5-4.6,3c-0.1,0-0.2,0-0.2,0
						c-0.1,0-0.2,0-0.2-0.2c0-0.1,0.1-0.1,0.2-0.2c1.7-1,2.9-2.2,4-3.5c0.8-1.1,1.5-2.2,2.2-3.6c0.1-0.2,0.2-0.4,0.2-0.5
						c0-0.1-0.1-0.1-0.1-0.1c-0.1,0-0.3,0-0.6,0.1C136.6,30.8,135,31,133.7,31.2z M142.6,28.5c0,0.6-0.5,1.2-1.2,1.2
						c-0.6,0-1.2-0.5-1.2-1.2c0-0.7,0.5-1.2,1.2-1.2C142.1,27.4,142.6,27.9,142.6,28.5z M140.7,28.5c0,0.4,0.4,0.8,0.8,0.8
						c0.4,0,0.8-0.3,0.8-0.8c0-0.4-0.4-0.8-0.8-0.8C141,27.7,140.7,28.1,140.7,28.5z"/>
					<path class="st0" d="M31.1,54.3C31,57.5,29.7,59,26,59.7c-0.1,0-0.1-0.2-0.1-0.2c2.9-1.1,3.8-2.4,3.8-5.3c0-0.2,0-0.3,0-0.6
						c1.5,0.1,1.9,0.2,1.9,0.5C31.5,54.1,31.4,54.2,31.1,54.3z M36.5,52.6c0.5-0.6,0.6-0.7,0.8-0.7c0.1,0,0.2,0.1,0.9,0.7
						c0.3,0.3,0.4,0.4,0.4,0.5c0,0.3-0.1,0.3-0.6,0.3c-0.2,0-0.3,0.1-0.4,0.1c-0.5,0.4-0.9,0.6-1.3,0.9c-0.1,0-0.2,0-0.1-0.1
						c0.3-0.5,0.4-0.8,0.6-1.4h-8.8c0,1.1-0.5,1.9-1.3,1.9c-0.4,0-0.6-0.3-0.6-0.6c0-0.3,0.1-0.5,0.5-0.7c0.7-0.4,1-0.8,1.1-1.7
						c0-0.1,0.1-0.1,0.2,0c0.1,0.3,0.1,0.6,0.2,0.9H36.5z M32.7,50.9h2.5c0.7-0.8,0.8-0.9,0.9-0.9c0.1,0,0.3,0.1,0.9,0.6
						c0.3,0.2,0.4,0.3,0.4,0.4c0,0.1,0,0.1-0.2,0.1h-8.8c-0.3,0-0.6,0-1,0.1l-0.2-0.5c0.4,0.1,0.7,0.1,1.1,0.1h3v-1.7h-4.2
						c-0.3,0-0.6,0-1,0.1l-0.2-0.5c0.4,0.1,0.8,0.1,1.1,0.1h4.2v-0.6c0-0.5,0-0.9-0.1-1.4c1.8,0.2,1.9,0.3,1.9,0.5
						c0,0.1-0.2,0.2-0.5,0.3v1.1h3.5c0.7-0.8,0.8-0.9,0.9-0.9c0.1,0,0.3,0.1,1,0.6c0.3,0.3,0.4,0.4,0.4,0.5s0,0.1-0.2,0.1h-5.6V50.9
						z M34.1,57.7c0,0.4,0.1,0.5,1.3,0.5c0.6,0,0.9,0,1.4-0.1c0.4-0.1,0.7-0.7,1.1-2c0-0.1,0.2-0.1,0.2,0c0,0.5,0,1.1,0,1.5
						c0,0.2,0,0.2,0.1,0.3c0.4,0.2,0.5,0.4,0.5,0.6c0,0.4-0.2,0.6-0.7,0.8c-0.5,0.2-1.4,0.2-2.7,0.2c-2,0-2.5-0.2-2.5-1.2v-2.3
						c0-0.8,0-1.5,0-2.3c1.8,0.3,1.8,0.3,1.8,0.5c0,0.1-0.1,0.2-0.4,0.4V57.7z"/>
					<path class="st0" d="M47.9,58.5h3.4c0.8-1,1-1.1,1.1-1.1c0.1,0,0.3,0.1,1.1,0.8c0.4,0.3,0.5,0.4,0.5,0.5c0,0.1,0,0.1-0.2,0.1
						H43c-0.4,0-0.9,0-1.3,0.1l-0.2-0.5c0.6,0.1,1,0.1,1.5,0.1h3.5v-9.3c0-0.8,0-1.5-0.1-2c1.8,0.2,2,0.3,2,0.5s-0.2,0.3-0.5,0.4
						v4.2h2.3c0.8-1,0.9-1.1,1-1.1c0.1,0,0.3,0.1,1.1,0.8c0.4,0.3,0.5,0.4,0.5,0.5c0,0.1,0,0.1-0.2,0.1h-4.7V58.5z"/>
					<path class="st0" d="M62.3,47.6c0-0.2,0-0.5-0.1-0.8c1.8,0.2,1.9,0.3,1.9,0.5c0,0.1-0.2,0.3-0.5,0.4v0.8h3.4c0.8-0.8,0.9-1,1-1
						c0.1,0,0.3,0.1,0.9,0.7c0.3,0.3,0.4,0.4,0.4,0.5c0,0.1,0,0.1-0.2,0.1H58c-0.3,0-0.6,0-1,0.1l-0.2-0.5c0.4,0.1,0.8,0.1,1.1,0.1
						h4.3V47.6z M67.2,53.6c0.5-0.5,0.6-0.6,0.7-0.6c0.1,0,0.3,0.1,0.8,0.5c0.2,0.2,0.3,0.3,0.3,0.4c0,0.2-0.1,0.3-0.4,0.4v0.7
						c0,2.2,0,2.8,0,3.4c0,0.5-0.1,0.8-0.5,1c-0.3,0.2-0.6,0.2-0.9,0.2c-0.2,0-0.3,0-0.3-0.4c-0.1-0.5-0.3-0.6-1.2-0.9
						c-0.1,0-0.1-0.2,0-0.2c0.6,0.1,1,0.1,1.5,0.1c0.1,0,0.2,0,0.2-0.2v-4.2h-8.4v5.2c0,0.4-0.2,0.6-0.8,0.6c-0.4,0-0.6-0.1-0.6-0.5
						c0-0.8,0-1.5,0-4.7c0-0.5,0-1.1,0-1.6c0.7,0.3,0.8,0.3,1.4,0.7H67.2z M60.7,52.4v0.1c0,0.4-0.3,0.5-0.8,0.5
						c-0.4,0-0.5-0.1-0.5-0.5c0-0.4,0-0.7,0-2.1c0-0.4,0-0.8,0-1.1c0.7,0.3,0.8,0.3,1.4,0.7h4.4c0.4-0.5,0.5-0.6,0.7-0.6
						c0.1,0,0.3,0.1,0.8,0.5c0.2,0.2,0.3,0.3,0.3,0.4s-0.1,0.2-0.4,0.4v0.3c0,0.8,0,1.3,0,1.5c0,0.4-0.2,0.6-0.8,0.6
						c-0.4,0-0.5-0.1-0.5-0.5v-0.1H60.7z M61.6,57.5v0.3c0,0.4-0.2,0.5-0.7,0.5c-0.4,0-0.5-0.1-0.5-0.5c0-0.3,0-0.6,0-1.9
						c0-0.5,0-0.9-0.1-1.4c0.6,0.3,0.7,0.3,1.4,0.6h2.7c0.4-0.4,0.5-0.5,0.6-0.5c0.1,0,0.3,0.1,0.7,0.5c0.2,0.2,0.3,0.3,0.3,0.4
						c0,0.1-0.1,0.2-0.4,0.4v0.3c0,0.7,0,1.2,0,1.4c0,0.4-0.2,0.5-0.7,0.5c-0.4,0-0.5-0.1-0.5-0.4v-0.2H61.6z M65.3,50.3h-4.6v1.8
						h4.6V50.3z M64.5,55.5h-2.9v1.7h2.9V55.5z"/>
				</g>
			</g>
		</g>
	</g>
	<g>
		<g>
			<g>
				<g>
					<path class="st0" d="M240.2,369.9c0.9-1.1,1.1-1.2,1.2-1.2c0.1,0,0.3,0.1,1.2,0.8c0.4,0.3,0.5,0.5,0.5,0.6c0,0.1,0,0.2-0.2,0.2
						h-5.6c0,1.7,0,3.3,0,4c0,0.5-0.3,0.7-1,0.7c-0.5,0-0.7-0.1-0.7-0.6s0.1-1.6,0.1-4.1h-5.6c-0.4,0-0.7,0-1.2,0.1l-0.2-0.6
						c0.5,0.1,0.9,0.1,1.3,0.1h1.4v-2.2c0-0.8,0-1.6-0.1-2.4c0.8,0.3,0.9,0.4,1.7,0.8h2.7v-2.9h-3c-1,1.5-2.1,2.6-3.6,3.5
						c-0.1,0-0.2-0.1-0.2-0.1c1.1-1.1,2.1-2.9,2.8-4.6c0.3-0.7,0.4-1.3,0.5-1.8c1.7,0.5,2.1,0.7,2.1,1c0,0.2-0.2,0.3-0.7,0.4
						c-0.2,0.5-0.5,0.9-0.7,1.4h6.8c0.8-1,1-1.1,1.1-1.1c0.1,0,0.3,0.1,1.1,0.8c0.4,0.3,0.5,0.4,0.5,0.5c0,0.1,0,0.2-0.2,0.2h-5.1
						v2.9h1.9c0.8-0.9,0.9-1,1.1-1c0.2,0,0.3,0.1,1.1,0.7c0.4,0.3,0.5,0.4,0.5,0.5c0,0.1-0.1,0.2-0.2,0.2h-4.3v0.6
						c0,0.9,0,1.9,0,2.9H240.2z M235.7,366.4H233v3.5h2.8V366.4z"/>
				</g>
			</g>
		</g>
	</g>
	<g>
		<g>
			<g>
				<g>
					<path class="st0" d="M197.4,388.5c0.3-0.6,0.6-1.2,0.8-1.6c0.2-0.4,0.3-0.8,0.4-1.2c1.4,0.4,2,0.7,2,0.9c0,0.2-0.2,0.3-0.7,0.3
						c-0.8,0.8-1.1,1.1-1.8,1.6h3c0.8-0.9,1-1.1,1.1-1.1c0.1,0,0.3,0.1,1.1,0.7c0.4,0.3,0.5,0.4,0.5,0.5c0,0.1,0,0.2-0.2,0.2h-12.8
						c-0.4,0-0.7,0-1.2,0.1l-0.2-0.6c0.5,0.1,0.9,0.1,1.3,0.1H197.4z M191.9,395.8c0,1.9,0,2.9,0,3.9c0,0.4-0.3,0.6-0.9,0.6
						c-0.5,0-0.7-0.1-0.7-0.5c0-0.9,0.1-1.8,0.1-5.3c0-1.5,0-3.1,0-4.6c0.8,0.3,0.9,0.3,1.6,0.7h2.6c0.5-0.6,0.7-0.7,0.8-0.7
						c0.2,0,0.3,0.1,0.8,0.5c0.2,0.2,0.3,0.3,0.3,0.4c0,0.1-0.1,0.2-0.4,0.4v1.2c0,5.1,0,5.9,0,6.4c0,0.4-0.1,0.8-0.4,1
						c-0.3,0.2-0.6,0.3-1.2,0.3c-0.2,0-0.2-0.1-0.3-0.3c-0.1-0.5-0.3-0.8-1.5-1.2c-0.1,0-0.1-0.2,0-0.2c0.6,0,1.1,0.1,1.6,0.1
						c0.1,0,0.2,0,0.2-0.3v-2.6H191.9z M194.7,390.9h-2.8v2h2.8V390.9z M194.7,393.3h-2.8v2.1h2.8V393.3z M194.4,388.3
						c-0.4,0-0.6-0.2-0.7-0.7c-0.2-0.8-0.5-1.3-0.8-1.7c0-0.1,0-0.2,0.1-0.2c1.5,0.4,2.2,0.9,2.2,1.7
						C195.2,387.9,194.8,388.3,194.4,388.3z M199.3,392.2c0,2.3,0,3.9,0,4.4c0,0.5-0.3,0.7-0.9,0.7c-0.5,0-0.6-0.1-0.6-0.6
						c0-0.5,0-1.9,0-4.8c0-0.6,0-0.9-0.1-1.4c1.8,0.2,2.1,0.3,2.1,0.5c0,0.2-0.2,0.3-0.5,0.4V392.2z M201,391.3c0-0.6,0-0.8-0.1-1.4
						c1.9,0.2,2.1,0.3,2.1,0.5c0,0.2-0.2,0.3-0.5,0.4v4.2c0,0.8,0.1,2.7,0.1,3.6c0,0.3-0.1,0.7-0.2,0.9c-0.3,0.4-0.7,0.6-1.4,0.6
						c-0.4,0-0.4,0-0.5-0.4c-0.1-0.5-0.4-0.8-1.7-1.1c-0.1,0-0.1-0.2,0-0.2c0.7,0,1.5,0.1,1.9,0.1c0.4,0,0.4,0,0.4-0.2V391.3z"/>
					<path class="st0" d="M209.5,392.1c-0.4,0.6-0.9,1.2-1.4,1.6c-0.1,0.1-0.2-0.1-0.2-0.2c1-1.8,1.8-3.7,2.3-5.5
						c0.2-0.8,0.4-1.6,0.4-2.4c1.9,0.5,2.1,0.6,2.1,0.8c0,0.2,0,0.2-0.6,0.4c-0.4,1.3-1,2.6-1.7,3.8c0.8,0.1,0.9,0.2,0.9,0.4
						c0,0.1-0.1,0.2-0.4,0.4v8.3c0,0.5-0.3,0.7-0.8,0.7c-0.5,0-0.7-0.2-0.7-0.6c0-0.4,0.1-1.7,0.1-4.2V392.1z M215.5,397.2
						c1-0.2,2-0.4,2.6-0.5c0.1,0,0.1,0.2,0.1,0.2c-1.6,0.8-3.1,1.4-5.4,2.1c0,0.4-0.1,0.6-0.3,0.6c-0.2,0-0.3-0.2-0.8-1.9
						c0.3,0,0.6,0,1,0c0.4,0,1-0.1,1.5-0.2v-2.8h-1.3c-0.3,0-0.5,0-0.9,0.1l-0.2-0.6c0.4,0.1,0.7,0.1,1,0.1h1.3v-0.6
						c0-0.7,0-1.3-0.1-1.8c1.7,0.2,1.9,0.3,1.9,0.5s-0.2,0.3-0.5,0.4v1.5h0.7c0.5-0.7,0.7-0.8,0.8-0.8c0.1,0,0.3,0.1,0.8,0.6
						c0.2,0.2,0.3,0.3,0.3,0.4s0,0.2-0.2,0.2h-2.4V397.2z M215.4,387.5c-0.5,1.1-1,2.1-1.8,3.1c1,0,2-0.1,3.1-0.2
						c-0.2-0.7-0.4-1.3-0.8-1.7c0-0.1,0.1-0.2,0.1-0.1c1.4,0.8,2.2,1.6,2.2,2.4c0,0.5-0.4,0.9-0.8,0.9c-0.4,0-0.5-0.2-0.7-0.9l0-0.1
						c-1.2,0.5-2.6,0.8-4,1.1c-0.1,0.3-0.2,0.4-0.4,0.4c-0.2,0-0.3-0.2-0.7-1.8c0.4,0,0.6,0,0.8,0h0.7c0.3-1,0.4-2,0.6-3.1h-0.4
						c-0.3,0-0.5,0-0.9,0.1l-0.2-0.6c0.4,0.1,0.7,0.1,1.1,0.1h3c0.5-0.8,0.7-0.9,0.8-0.9c0.1,0,0.3,0.1,0.9,0.6
						c0.3,0.2,0.4,0.4,0.4,0.5c0,0.1,0,0.2-0.2,0.2H215.4z M221,387.3c0-0.5,0-0.8-0.1-1.3c1.8,0.2,1.9,0.3,1.9,0.5
						c0,0.2-0.1,0.3-0.4,0.4v5.7c0,2.9,0.1,5,0.1,5.9c0,0.7-0.1,1-0.5,1.3c-0.4,0.2-0.8,0.4-1.2,0.4c-0.4,0-0.5-0.1-0.5-0.4
						c-0.1-0.6-0.4-0.8-1.6-1.2c-0.1,0-0.1-0.2,0-0.2c0.7,0,1.6,0.1,2.1,0.1c0.2,0,0.2,0,0.2-0.2V387.3z M220,389.6
						c0,3.4,0.1,5.7,0.1,6.5c0,0.4-0.3,0.7-0.8,0.7c-0.4,0-0.6-0.2-0.6-0.6c0-0.5,0.1-1.9,0.1-4.8c0-2.3,0-3.6-0.1-3.9
						c1.7,0.2,1.8,0.2,1.8,0.5c0,0.1-0.1,0.3-0.4,0.4V389.6z"/>
					<path class="st0" d="M231.1,389.2c-0.1,0.3-0.2,1.1-0.3,2.8c-0.1,1.7-0.2,3.1-0.2,4.1c0,0.8,0.1,1.3,0.4,1.5
						c0.3,0.2,0.8,0.4,1.5,0.4c1.1,0,2.3-0.4,3.5-1c0.8-0.4,1.9-1.1,2.8-2.2c0.1-0.1,0.2-0.2,0.3-0.2c0.1,0,0.2,0,0.2,0.2
						c0,0.1-0.1,0.3-0.2,0.4c-0.7,1.1-1.6,2.1-2.8,2.8c-1,0.7-2.3,1.3-4.3,1.3c-1.7,0-2.7-1.2-2.7-3.1c0.1-2.7,0.2-5.3,0.2-7.7
						c0-0.6-0.1-0.8-0.6-1.1c-0.4-0.2-0.5-0.2-0.5-0.3c0-0.1,0.1-0.2,0.3-0.3c0.2-0.1,0.6-0.1,0.7-0.1c0.4,0,0.9,0.2,1.5,0.7
						c0.3,0.3,0.5,0.6,0.5,0.8c0,0.3-0.1,0.4-0.2,0.5C231.2,389,231.1,389,231.1,389.2z"/>
					<path class="st0" d="M251.5,389.5c-2.3,0.6-3.8,1.1-4.7,1.5c-0.2,0.1-0.4,0.2-0.6,0.4c-0.1,0.1-0.3,0.2-0.5,0.2
						c-0.3,0-0.7-0.2-1.2-0.8c-0.3-0.3-0.6-0.7-0.6-1.2c0-0.3,0.1-0.5,0.2-0.5c0.1,0,0.1,0,0.3,0.2c0.6,0.6,0.7,0.6,1.2,0.6
						c0.2,0,1.1-0.1,2.7-0.5c2-0.5,3.6-0.9,4.9-1.3c0.4-0.1,0.7-0.2,0.9-0.3c0.2-0.1,0.3-0.1,0.6-0.1c0.4,0,0.9,0,1.5,0.3
						c0.3,0.1,0.5,0.3,0.5,0.6c0,0.3-0.1,0.6-0.6,0.6c-0.3,0-0.7,0-1.6,0.1c-1.5,0.1-2.7,0.6-3.7,1.7c-0.8,0.9-1.2,1.9-1.2,3.1
						c0,1,0.4,1.9,1.2,2.4c0.8,0.5,1.6,0.8,2.6,0.8c0.5,0,0.9,0,1.2,0.2c0.4,0.2,0.6,0.4,0.6,0.8c0,0.4-0.3,0.8-1,0.8
						c-1,0-2.2-0.3-3.1-0.8c-1.1-0.5-2.4-1.8-2.4-3.7c0-1,0.2-1.9,0.6-2.7C249.6,391.1,250.5,390.3,251.5,389.5L251.5,389.5z
						 M255.8,391.7c0.4,0.3,0.6,0.6,0.6,1c0,0.3-0.2,0.6-0.5,0.6c-0.2,0-0.4,0-0.5-0.4c-0.3-0.6-0.6-1-1-1.4
						c-0.1-0.1-0.2-0.1-0.2-0.2c0-0.1,0-0.1,0.1-0.1c0.1,0,0.2,0,0.3,0C255,391.3,255.5,391.4,255.8,391.7z M257.3,390.7
						c0.3,0.2,0.6,0.5,0.6,0.8c0,0.4-0.2,0.6-0.5,0.6c-0.2,0-0.4-0.1-0.6-0.4c-0.3-0.6-0.7-0.9-1.1-1.2c-0.1,0-0.2-0.1-0.2-0.2
						c0,0,0-0.1,0-0.1c0.1,0,0.1,0,0.3,0C256.4,390.2,256.8,390.4,257.3,390.7z"/>
					<path class="st0" d="M265.7,396.8c0.5,0.8,0.8,1.1,1.5,1.3c0.8,0.2,2,0.4,3.6,0.4c1.9,0,3.4-0.1,6.1-0.4c0.1,0,0.1,0.1,0,0.2
						c-0.4,0.2-0.6,0.4-0.6,0.9c0,0.5-0.1,0.5-0.4,0.6c-0.8,0.1-2.8,0.1-3.9,0.1c-2.7,0-4.3-0.2-5.4-0.9c-0.7-0.5-1.2-1.2-1.5-2.3
						c-0.5,0.9-1,1.5-1.8,2.4c0,0.6,0,0.7-0.3,0.7s-0.6-0.6-1.2-2c0.4-0.1,0.7-0.2,1.1-0.4c0.4-0.2,0.8-0.4,1.2-0.6v-4.2h-1.1
						c-0.3,0-0.5,0-0.9,0.1l-0.2-0.6c0.4,0.1,0.7,0.1,1.1,0.1h1c0.6-0.6,0.7-0.7,0.8-0.7c0.2,0,0.3,0.1,0.9,0.6
						c0.3,0.2,0.4,0.3,0.4,0.5c0,0.1,0,0.2-0.5,0.5V396.8z M264.8,389.1c-0.4,0-0.6-0.2-0.8-1c-0.2-0.6-0.5-1.4-1-1.9
						c-0.1-0.1,0-0.2,0.1-0.1c1.9,0.5,2.6,1.2,2.6,2C265.7,388.7,265.4,389.1,264.8,389.1z M271.8,389.4h2.8
						c0.6-0.7,0.8-0.9,0.9-0.9c0.1,0,0.3,0.1,0.9,0.6c0.3,0.2,0.4,0.4,0.4,0.5c0,0.1,0,0.2-0.2,0.2h-3.7c1.1,0.4,1.4,0.5,1.4,0.7
						c0,0.2-0.1,0.2-0.6,0.2c-0.6,0.5-0.8,0.7-1.2,1h1.7c0.6-0.7,0.8-0.8,0.9-0.8c0.1,0,0.3,0.1,0.9,0.6c0.2,0.2,0.4,0.3,0.4,0.4
						c0,0.1,0,0.2-0.2,0.2h-4.3v1.6h1.8c0.5-0.6,0.7-0.8,0.8-0.8c0.1,0,0.3,0.1,0.8,0.5c0.2,0.2,0.3,0.3,0.3,0.4
						c0,0.1,0,0.2-0.2,0.2h-3.6c0,0.5,0,1.1,0,1.6h2.6c0.6-0.7,0.8-0.9,0.9-0.9c0.1,0,0.3,0.1,0.9,0.6c0.3,0.2,0.4,0.4,0.4,0.5
						s0,0.2-0.2,0.2h-4.6c0,0.6,0,1.2,0,1.4c0,0.5-0.3,0.7-0.9,0.7c-0.4,0-0.7-0.1-0.7-0.4c0-0.2,0-0.7,0.1-1.6h-2.9
						c-0.3,0-0.6,0-0.9,0.1l-0.2-0.6c0.4,0.1,0.8,0.1,1.1,0.1h3v-1.6h-2.1c-0.3,0-0.5,0-0.9,0.1l-0.2-0.6c0.4,0.1,0.7,0.1,1,0.1h2.1
						v-1.6h-2.8c-0.3,0-0.5,0-0.9,0.1l-0.2-0.6c0.4,0.1,0.7,0.1,1,0.1h1.7c-0.1-0.1-0.2-0.3-0.3-0.6c-0.1-0.5-0.3-1-0.5-1.3
						c0-0.1,0-0.1,0.1-0.1c1.1,0.3,1.7,0.7,1.7,1.3c0,0.3-0.2,0.6-0.4,0.7h2.2c0.2-0.4,0.3-0.8,0.4-1.1c0.1-0.3,0.2-0.6,0.2-0.9
						h-5.2c-0.3,0-0.6,0-0.9,0.1l-0.2-0.6c0.4,0.1,0.8,0.1,1.1,0.1h3v-1.7h-2.3c-0.3,0-0.5,0-0.9,0.1l-0.2-0.6
						c0.4,0.1,0.7,0.1,1.1,0.1h2.3v-0.5c0-0.4,0-0.8-0.1-1.3c1.7,0.2,1.9,0.3,1.9,0.5c0,0.1-0.1,0.3-0.4,0.4v1h1.9
						c0.6-0.7,0.8-0.8,0.9-0.8c0.1,0,0.3,0.1,0.9,0.6c0.2,0.2,0.4,0.3,0.4,0.4c0,0.1,0,0.2-0.2,0.2h-3.8V389.4z"/>
					<path class="st0" d="M289.2,389c0-0.2,0-0.5,0-0.7c0-1.2,0-1.7-0.2-2.3c2,0.3,2,0.3,2,0.5c0,0.1-0.1,0.3-0.5,0.4
						c0,0.8,0,1.5,0,2.2h2.7c0.8-1,1-1.1,1.1-1.1c0.2,0,0.3,0.1,0.9,0.7c0.3,0.3,0.4,0.4,0.4,0.5c0,0.1-0.1,0.2-0.2,0.2h-4.8
						c0.2,2.4,0.4,3.9,0.9,5.1c0.2-0.3,0.3-0.6,0.5-1c0.4-0.8,0.6-1.7,0.8-2.6c1.4,0.4,1.8,0.6,1.8,0.9c0,0.2-0.1,0.2-0.5,0.4
						c-0.5,1.4-1.1,2.7-1.9,3.7c0.4,0.6,0.8,1.2,1.3,1.7c0.4,0.4,0.7,0.6,0.8,0.6c0.2,0,0.4-0.4,1.1-1.7c0-0.1,0.2,0,0.2,0
						c-0.1,1.5-0.1,1.8-0.1,2c0,0.3,0,0.3,0.2,0.6c0.1,0.2,0.2,0.3,0.2,0.5c0,0.4-0.3,0.7-0.7,0.7c-0.5,0-1.2-0.4-1.9-0.9
						c-0.8-0.7-1.5-1.4-2-2.3c-1.3,1.3-2.9,2.3-4.9,3c-0.1,0-0.2-0.1-0.1-0.2c1.8-1.1,3.3-2.5,4.4-4c-0.8-1.7-1.2-3.5-1.3-6.6h-4.9
						c0,1.1,0,1.8-0.1,2.7h2.4c0.5-0.7,0.7-0.8,0.8-0.8c0.2,0,0.3,0.1,0.9,0.6c0.3,0.3,0.4,0.4,0.4,0.5c0,0.1,0,0.2-0.5,0.5
						c-0.2,2.5-0.2,3.2-0.5,4c-0.1,0.4-0.4,0.7-0.7,0.9c-0.3,0.2-0.7,0.3-1.2,0.3c-0.2,0-0.2-0.1-0.3-0.4c-0.2-0.6-0.3-0.7-1.3-1.1
						c-0.1,0,0-0.2,0.1-0.2c0.8,0.1,1.1,0.2,1.4,0.2c0.6,0,0.7-0.1,0.9-1c0.1-0.6,0.2-1.5,0.3-3.2h-2.5c-0.1,1.8-0.2,3.2-0.6,4.3
						c-0.4,1.4-1.1,2.4-2.2,3.4c-0.1,0-0.2-0.1-0.2-0.1c0.6-1.2,1-2.3,1.2-3.7c0.2-1.3,0.3-2.9,0.3-5.1c0-1.2,0-2.1-0.1-3.3
						c0.9,0.4,1,0.5,1.8,0.9H289.2z M293,388.5c-0.2,0-0.3,0-0.4-0.3c-0.4-0.8-0.8-1.3-1.3-1.6c-0.1,0,0-0.2,0-0.2
						c1.6,0.1,2.4,0.6,2.4,1.3C293.7,388.2,293.4,388.5,293,388.5z"/>
				</g>
			</g>
		</g>
	</g>
	<g>
		<g>
			<g>
				<g>
					<path class="st0" d="M192.8,258.5c-0.5,0-1.1-0.1-1.6-0.1c-0.6,0-1.1,0-1.7,0.1l-0.5,1.5c-0.3,0.8-0.3,1.2-0.2,1.6
						c0.1,0.3,0.6,0.4,1.1,0.4c0.1,0,0.1,0,0.1,0.2s0,0.2-0.2,0.2c-0.5,0-1.2,0-1.8,0c-0.5,0-1,0-1.5,0c-0.1,0-0.2,0-0.2-0.2
						s0-0.2,0.2-0.2c0.4-0.1,0.6-0.2,0.8-0.4c0.3-0.3,0.5-0.8,0.9-1.6l1.7-4.5c0.7-1.8,0.8-2.2,1-2.9l1.1-0.5c0.1,0,0.2,0,0.2,0.1
						c0.3,0.9,0.5,1.6,1.2,3.4l1.6,4.6c0.3,0.8,0.5,1.3,0.7,1.6c0.2,0.3,0.4,0.3,0.9,0.4c0.2,0,0.2,0,0.2,0.2s0,0.2-0.2,0.2
						c-0.6,0-1.4,0-2,0c-0.5,0-1.4,0-2,0c-0.1,0-0.1,0-0.1-0.2s0-0.2,0.1-0.2c0.5,0,0.9-0.1,1-0.4c0.1-0.3,0-0.7-0.3-1.5
						L192.8,258.5z M191.7,255.5c-0.3-0.9-0.4-1.3-0.6-1.8c-0.2,0.5-0.3,0.9-0.6,1.8l-0.9,2.5c0.5,0,1,0,1.6,0c0.4,0,1,0,1.4,0
						L191.7,255.5z"/>
					<path class="st0" d="M203.5,254c0-0.5,0-0.9-0.1-1.2c-0.1-0.2-0.3-0.3-0.5-0.3l-0.3,0c-0.2,0-0.2,0-0.2-0.2
						c0-0.2,0-0.2,0.2-0.2c0.6-0.1,1.7-0.4,2.3-0.6c0.1,0,0.2,0.1,0.2,0.1c-0.1,1-0.1,2-0.1,3.4v5.3c0,0.8,0,1.2,0.1,1.5
						c0.1,0.2,0.3,0.2,0.4,0.2l0.3,0c0.1,0,0.1,0,0.1,0.2c0,0.1,0,0.2-0.1,0.2c-0.6,0-1.6,0.1-2.2,0.2c-0.1,0-0.1,0-0.1-0.2
						c0-0.3,0-0.6,0-1c-0.5,0.8-1.1,1.1-1.8,1.1c-1.9,0-3-1.4-3-3.4c0-2,1.2-3.5,3.2-3.5c0.7,0,1.2,0.3,1.7,0.7V254z M203.5,258.2
						c0-0.5,0-0.7-0.3-1.2c-0.2-0.4-0.7-0.8-1.2-0.8c-1.1,0-1.7,1.2-1.7,3c0,1.8,0.7,2.7,1.7,2.7c0.5,0,0.9-0.3,1.2-0.7
						c0.3-0.4,0.3-0.6,0.3-1.1V258.2z"/>
					<path class="st0" d="M210.9,259.9c0.2,0.4,0.2,0.7,0.4,1.2c0.2-0.5,0.3-0.7,0.4-1.2l0.6-1.8c0.2-0.7,0.3-1.2,0.2-1.4
						c-0.1-0.2-0.4-0.2-0.7-0.3c-0.1,0-0.1,0-0.1-0.2c0-0.1,0-0.2,0.1-0.2c0.4,0,0.9,0,1.3,0c0.4,0,0.8,0,1.2,0c0.1,0,0.1,0,0.1,0.2
						c0,0.1,0,0.2-0.1,0.2c-0.2,0-0.5,0.1-0.7,0.3c-0.2,0.3-0.4,0.7-0.7,1.3l-0.9,2.6c-0.3,0.7-0.4,1-0.6,1.6
						c-0.7,0.3-0.8,0.3-0.9,0.3c-0.1,0-0.1,0-0.1-0.1c-0.2-0.6-0.4-1.1-0.6-1.8l-1-2.6c-0.3-0.8-0.5-1.2-0.7-1.4
						c-0.2-0.2-0.3-0.2-0.7-0.2c-0.1,0-0.1,0-0.1-0.2c0-0.1,0-0.2,0.1-0.2c0.5,0,1.1,0,1.6,0c0.5,0,1.2,0,1.7,0c0.1,0,0.1,0,0.1,0.2
						c0,0.1,0,0.2-0.1,0.2c-0.4,0-0.7,0-0.8,0.2c-0.1,0.2,0.1,0.6,0.4,1.4L210.9,259.9z"/>
					<path class="st0" d="M221.4,260.7c0,0.9,0.2,1.2,0.5,1.2c0.2,0,0.3,0,0.4-0.1c0.1,0,0.1,0,0.2,0.1c0.1,0.1,0.1,0.1,0,0.2
						c-0.2,0.2-0.6,0.3-1.2,0.3c-0.6,0-1-0.3-1.2-0.8c-0.5,0.5-1,0.8-2,0.8c-1.4,0-1.8-0.9-1.8-1.5c0-0.6,0.2-0.9,0.5-1.2
						c0.4-0.4,0.9-0.5,1.8-0.8c0.6-0.2,0.9-0.3,1.1-0.5c0.2-0.1,0.3-0.4,0.3-0.5v-0.4c0-1.1-0.3-1.5-0.8-1.5c-0.2,0-0.5,0-0.7,0.3
						c-0.2,0.2-0.3,0.4-0.3,0.8c0,0.4-0.4,0.7-1.1,0.7c-0.4,0-0.5-0.2-0.5-0.4c0-0.7,1.1-1.7,2.8-1.7c2.1,0,2.1,1,2.1,2.1
						L221.4,260.7z M220,258.8c-0.1,0.2-0.3,0.3-1.1,0.6c-0.7,0.3-1,0.8-1,1.5c0,0.7,0.5,1.1,0.9,1.1c0.7,0,1.2-0.6,1.2-1.2
						L220,258.8z"/>
					<path class="st0" d="M224.4,256.7c-0.1,0-0.2,0-0.2-0.2c0-0.2,0-0.2,0.2-0.2c0.6-0.1,1.6-0.4,2.2-0.6c0.1,0,0.2,0.1,0.2,0.1
						c0,0.4,0,0.8,0,1.2c0.5-0.8,1.3-1.3,2.2-1.3c0.4,0,2,0.2,2,2c0,0.5,0,1.2,0,1.6v1c0,0.8,0,1.3,0.1,1.5s0.3,0.2,0.7,0.3
						c0.1,0,0.1,0,0.1,0.2s0,0.2-0.1,0.2c-0.5,0-1.1,0-1.5,0c-0.5,0-1.1,0-1.6,0c-0.1,0-0.1,0-0.1-0.2c0-0.1,0-0.2,0.1-0.2
						c0.4,0,0.6,0,0.7-0.3c0.1-0.2,0.1-0.7,0.1-1.5v-1.9c0-0.4,0-0.8-0.2-1.2c-0.2-0.4-0.5-0.7-1-0.7c-0.5,0-1,0.4-1.3,0.8
						c-0.3,0.4-0.3,0.7-0.3,1.1v1.9c0,0.8,0,1.3,0.1,1.5c0.1,0.2,0.3,0.2,0.8,0.3c0.1,0,0.1,0,0.1,0.2c0,0.1,0,0.2-0.1,0.2
						c-0.5,0-1,0-1.5,0c-0.5,0-1.1,0-1.6,0c-0.1,0-0.1,0-0.1-0.2c0-0.1,0-0.2,0.1-0.2c0.4,0,0.6,0,0.7-0.3c0.1-0.2,0.1-0.7,0.1-1.5
						v-2.1c0-0.5,0-0.9-0.1-1.2c-0.1-0.2-0.2-0.3-0.4-0.3L224.4,256.7z"/>
					<path class="st0" d="M239,256.1c0.3,0.1,0.6,0.3,0.6,0.7c0,0.5-0.2,0.9-0.6,0.9c-0.4,0-0.7-0.5-0.8-0.9
						c-0.2-0.3-0.4-0.6-0.7-0.6c-1.1,0-1.6,1.2-1.6,2.9c0,1.8,1,2.7,1.9,2.7c0.8,0,1.3-0.3,1.8-1c0.1-0.1,0.1-0.1,0.3,0
						c0.1,0.1,0.1,0.1,0.1,0.2c-0.6,1-1.4,1.5-2.5,1.5c-1.9,0-3.2-1.4-3.2-3.4c0-1.9,1.4-3.5,3.2-3.5
						C238.1,255.7,238.6,255.9,239,256.1z"/>
					<path class="st0" d="M243.5,259.1c0,1.8,1.1,2.8,2,2.8c0.9,0,1.4-0.3,1.9-1c0-0.1,0.1-0.1,0.1-0.1s0.1,0,0.1,0.1
						c0.1,0,0.1,0.1,0.1,0.1c0,0,0,0.1-0.1,0.2c-0.6,1-1.4,1.4-2.6,1.4c-1.9,0-3.2-1.4-3.2-3.4c0-1.9,1.3-3.5,3.2-3.5
						c1.8,0,2.7,1.6,2.7,2.6c0,0.1,0,0.1-0.1,0.2c-0.1,0.1-0.1,0.1-0.2,0.1c-1.4,0-2.8-0.1-4.1,0
						C243.5,258.7,243.5,258.9,243.5,259.1z M246.2,258.1c0.1,0,0.1-0.1,0.1-0.2c0-0.8-0.4-1.7-1.2-1.7c-0.8,0-1.3,0.8-1.6,2
						C244.6,258.1,245.2,258.1,246.2,258.1z"/>
					<path class="st0" d="M253.7,260.9c1.2,0,1.5-0.1,1.7-0.3c0.3-0.3,0.5-0.6,0.8-1.1c0.1-0.1,0.1-0.1,0.2-0.1s0.2,0.1,0.1,0.2
						c-0.2,0.7-0.5,2-0.8,2.7c-1,0-1.7,0-2.7,0c-1,0-1.8,0-2.8,0c-0.1,0-0.2,0-0.2-0.2c0-0.2,0-0.3,0.1-0.4c0.7-1.3,1.3-2.1,2.5-3.6
						c1.2-1.5,1.9-2.3,1.9-3.6c0-1.2-0.4-2-1.2-2c-0.7,0-1,0.4-1.2,0.8c-0.1,0.2-0.1,0.6-0.1,1c0,0.4-0.5,0.7-1.1,0.7
						c-0.4,0-0.7-0.1-0.7-0.5c0-0.9,1.1-2.4,3-2.4c1.9,0,2.9,1.1,2.9,2.5c0,1.8-1.3,2.5-2.7,3.8c-1.6,1.4-1.9,1.8-2.3,2.6H253.7z"/>
					<path class="st0" d="M265.1,257.3c0,3.2-1.2,5.3-3.1,5.3c-2,0-3.1-1.9-3.1-5.2c0-3.3,1.1-5.3,3.1-5.3
						C264,252.1,265.1,254.1,265.1,257.3z M260.5,257.4c0,2.9,0.3,4.8,1.5,4.8c1.2,0,1.5-1.9,1.5-4.8c0-2.9-0.3-4.8-1.5-4.8
						C260.8,252.6,260.5,254.4,260.5,257.4z"/>
					<path class="st0" d="M271.1,260.9c1.2,0,1.5-0.1,1.7-0.3c0.3-0.3,0.5-0.6,0.8-1.1c0.1-0.1,0.1-0.1,0.2-0.1
						c0.1,0,0.2,0.1,0.1,0.2c-0.2,0.7-0.5,2-0.8,2.7c-1,0-1.7,0-2.7,0c-1,0-1.8,0-2.8,0c-0.1,0-0.2,0-0.2-0.2c0-0.2,0-0.3,0.1-0.4
						c0.7-1.3,1.3-2.1,2.5-3.6c1.2-1.5,1.9-2.3,1.9-3.6c0-1.2-0.4-2-1.2-2c-0.7,0-1,0.4-1.2,0.8c-0.1,0.2-0.1,0.6-0.1,1
						c0,0.4-0.5,0.7-1.1,0.7c-0.4,0-0.7-0.1-0.7-0.5c0-0.9,1.1-2.4,3-2.4c1.9,0,2.9,1.1,2.9,2.5c0,1.8-1.3,2.5-2.7,3.8
						c-1.6,1.4-1.9,1.8-2.3,2.6H271.1z"/>
					<path class="st0" d="M278.5,253.7c-0.8,0-1,0.1-1.1,0.3c-0.2,0.2-0.4,0.6-0.5,0.9c0,0.1-0.1,0.1-0.3,0.1
						c-0.2,0-0.2-0.1-0.2-0.2c0.1-0.7,0.3-1.8,0.4-2.6c0.9,0,1.8,0,2.8,0c1,0,1.8,0,2.7,0c0.1,0,0.1,0,0.1,0.3c0,0.2,0,0.3-0.1,0.4
						c-1.4,2.4-2.1,4.4-2.5,6.1c-0.2,0.7-0.2,1.4-0.2,1.8c0,0.4,0,0.6,0,0.9c0,0.4-0.5,0.8-1.1,0.8c-0.5,0-0.9-0.2-0.9-0.6
						c0-1.1,0.4-2.2,1-3.6c0.6-1.4,1.5-2.8,2.7-4.7H278.5z"/>
					<path class="st0" d="M192.4,278.4c-0.1,3.2-1.4,4.7-5.1,5.3c-0.1,0-0.1-0.2-0.1-0.2c2.9-1.1,3.8-2.4,3.8-5.3c0-0.2,0-0.3,0-0.6
						c1.5,0.1,1.9,0.2,1.9,0.5C192.8,278.2,192.7,278.3,192.4,278.4z M197.8,276.7c0.5-0.6,0.6-0.7,0.8-0.7c0.1,0,0.2,0.1,0.9,0.7
						c0.3,0.3,0.4,0.4,0.4,0.5c0,0.3-0.1,0.3-0.6,0.3c-0.2,0-0.3,0.1-0.4,0.1c-0.5,0.4-0.9,0.6-1.3,0.9c-0.1,0-0.2,0-0.1-0.1
						c0.3-0.5,0.4-0.8,0.6-1.4h-8.8c0,1.1-0.5,1.9-1.3,1.9c-0.4,0-0.6-0.3-0.6-0.6c0-0.3,0.1-0.5,0.5-0.7c0.7-0.4,1-0.8,1.1-1.7
						c0-0.1,0.1-0.1,0.2,0c0.1,0.3,0.1,0.6,0.2,0.9H197.8z M194,274.9h2.5c0.7-0.8,0.8-0.9,0.9-0.9c0.1,0,0.3,0.1,0.9,0.6
						c0.3,0.2,0.4,0.3,0.4,0.4c0,0.1,0,0.1-0.2,0.1h-8.8c-0.3,0-0.6,0-1,0.1l-0.2-0.5c0.4,0.1,0.7,0.1,1.1,0.1h3v-1.7h-4.2
						c-0.3,0-0.6,0-1,0.1l-0.2-0.5c0.4,0.1,0.8,0.1,1.1,0.1h4.2v-0.6c0-0.5,0-0.9-0.1-1.4c1.8,0.2,1.9,0.3,1.9,0.5
						c0,0.1-0.2,0.2-0.5,0.3v1.1h3.5c0.7-0.8,0.8-0.9,0.9-0.9c0.1,0,0.3,0.1,1,0.6c0.3,0.3,0.4,0.4,0.4,0.5s0,0.1-0.2,0.1H194V274.9
						z M195.4,281.8c0,0.4,0.1,0.5,1.3,0.5c0.6,0,0.9,0,1.4-0.1c0.4-0.1,0.7-0.7,1.1-2c0-0.1,0.2-0.1,0.2,0c0,0.5,0,1.1,0,1.5
						c0,0.2,0,0.2,0.1,0.3c0.4,0.2,0.5,0.4,0.5,0.6c0,0.4-0.2,0.6-0.7,0.8c-0.5,0.2-1.4,0.2-2.7,0.2c-2,0-2.5-0.2-2.5-1.2v-2.3
						c0-0.8,0-1.5,0-2.3c1.8,0.3,1.8,0.3,1.8,0.5c0,0.1-0.1,0.2-0.4,0.4V281.8z"/>
					<path class="st0" d="M209.2,282.6h3.4c0.8-1,1-1.1,1.1-1.1c0.1,0,0.3,0.1,1.1,0.8c0.4,0.3,0.5,0.4,0.5,0.5c0,0.1,0,0.1-0.2,0.1
						h-10.8c-0.4,0-0.9,0-1.3,0.1l-0.2-0.5c0.6,0.1,1,0.1,1.5,0.1h3.5v-9.3c0-0.8,0-1.5-0.1-2c1.8,0.2,2,0.3,2,0.5s-0.2,0.3-0.5,0.4
						v4.2h2.3c0.8-1,0.9-1.1,1-1.1c0.1,0,0.3,0.1,1.1,0.8c0.4,0.3,0.5,0.4,0.5,0.5c0,0.1,0,0.1-0.2,0.1h-4.7V282.6z"/>
					<path class="st0" d="M221.2,282.5v0.6c0,0.4-0.3,0.6-0.9,0.6c-0.4,0-0.6-0.1-0.6-0.5c0-1.4,0.1-2.8,0.1-8.5
						c0-1.2,0-2.3-0.1-3.5c0.8,0.4,0.9,0.4,1.7,0.9h5.7c0.5-0.6,0.6-0.7,0.8-0.7c0.1,0,0.3,0.1,0.8,0.5c0.3,0.2,0.4,0.3,0.4,0.4
						c0,0.2-0.1,0.3-0.4,0.5v1.7c0,4.4,0.1,7.5,0.1,8.5c0,0.4-0.3,0.6-0.9,0.6c-0.4,0-0.6-0.1-0.6-0.4v-0.7H221.2z M227.3,272.4h-6
						v2.9h6V272.4z M227.3,275.6h-6v2.9h6V275.6z M227.3,278.9h-6v3.3h6V278.9z"/>
					<path class="st0" d="M235.9,275.9c0.9,0.3,1.5,0.9,1.5,1.5c0,0.4-0.2,0.7-0.6,0.7c-0.2,0-0.3-0.1-0.4-0.5
						c-0.1-0.7-0.2-1.1-0.5-1.4c0,2.5,0.1,6,0.1,7.2c0,0.3-0.3,0.5-0.7,0.5c-0.4,0-0.5-0.1-0.5-0.4c0-0.7,0.1-3.8,0.1-6.3
						c-0.6,1.5-1.1,2.3-1.9,3.2c0,0.1-0.2,0-0.1-0.1c0.8-1.6,1.5-3.9,1.8-5.8H234c-0.3,0-0.5,0-0.9,0.1l-0.2-0.5
						c0.4,0.1,0.7,0.1,1,0.1h0.7v-1.4c0-0.7,0-1.2-0.1-1.8c1.5,0.2,1.8,0.2,1.8,0.5c0,0.2-0.1,0.3-0.5,0.4v2.4h0
						c0.3-0.6,0.5-0.7,0.6-0.7c0.1,0,0.2,0.1,0.6,0.5c0.1,0.1,0.2,0.3,0.2,0.4c0,0.1,0,0.1-0.2,0.1h-1.3V275.9z M239.3,281.1
						c-0.8,0.8-1.6,1.4-2.9,1.9c-0.1,0-0.2-0.1-0.1-0.1c0.6-0.5,1.2-1.2,1.6-2c0.2-0.3,0.3-0.6,0.4-1c1.2,0.6,1.5,0.8,1.5,0.9
						C239.8,281.1,239.7,281.1,239.3,281.1z M241.9,280.5c0,0.3,0,1.5,0,2.1c0,0.3-0.1,0.6-0.3,0.8c-0.2,0.3-0.7,0.4-1.2,0.4
						c-0.1,0-0.2-0.1-0.2-0.3c-0.1-0.5-0.4-0.7-1.4-1c-0.1,0-0.1-0.2,0-0.2c0.6,0,1.2,0,1.6,0c0.2,0,0.2,0,0.2-0.2v-2.6h-2.8
						c-0.3,0-0.5,0-0.9,0.1l-0.2-0.5c0.4,0.1,0.7,0.1,1,0.1h5.8c0.6-0.8,0.8-0.9,0.9-0.9c0.1,0,0.3,0.1,0.9,0.6
						c0.3,0.2,0.4,0.3,0.4,0.4c0,0.1,0,0.1-0.2,0.1h-3.8V280.5z M238.7,276.4c0,0.3-0.2,0.5-0.7,0.5c-0.3,0-0.5-0.1-0.5-0.4
						c0-0.3,0-0.6,0-1.7c0-0.6,0-1.2-0.1-1.9c0.6,0.3,0.7,0.3,1.3,0.6h0.9v-1.5h-1.4c-0.3,0-0.7,0-1.1,0.1l-0.2-0.5
						c0.5,0.1,0.9,0.1,1.3,0.1h5.5c0.6-0.8,0.8-0.9,0.9-0.9c0.1,0,0.3,0.1,0.9,0.6c0.3,0.3,0.4,0.4,0.4,0.4c0,0.1,0,0.1-0.2,0.1
						h-2.9v1.5h1c0.4-0.4,0.5-0.5,0.6-0.5c0.1,0,0.3,0.1,0.7,0.5c0.2,0.2,0.3,0.3,0.3,0.4s-0.1,0.3-0.4,0.4v0.3c0,0.9,0,1.5,0,1.7
						c0,0.3-0.2,0.4-0.7,0.4c-0.3,0-0.5-0.1-0.5-0.4v-0.1h-5.3V276.4z M242.6,277.6c0.6-0.7,0.7-0.8,0.8-0.8c0.1,0,0.3,0.1,0.8,0.6
						c0.2,0.2,0.4,0.3,0.4,0.4s0,0.1-0.2,0.1h-5.5c-0.2,0-0.5,0-0.8,0.1l-0.2-0.5c0.4,0.1,0.6,0.1,0.9,0.1H242.6z M239.7,273.9h-1
						v2.1h1V273.9z M241.9,272.1h-1.1v1.5h1.1V272.1z M241.9,276v-2.1h-1.1v2.1H241.9z M244.8,283c-0.4,0-0.5-0.2-0.7-0.6
						c-0.4-0.9-0.8-1.5-1.5-2.2c-0.1,0,0-0.1,0.1-0.1c1.8,0.5,2.8,1.2,2.8,2.1C245.5,282.7,245.2,283,244.8,283z M244,273.9h-1.1
						v2.1h1.1V273.9z"/>
				</g>
			</g>
		</g>
	</g>
	<g>
		<g>
			<g>
				<g>
					<path class="st0" d="M76.3,390.9c-0.4,0.6-0.9,1.2-1.4,1.7c-0.1,0.1-0.2-0.1-0.2-0.2c1-1.8,1.8-3.7,2.2-5.5
						c0.2-0.8,0.4-1.6,0.4-2.4c1.9,0.5,2.1,0.6,2.1,0.8c0,0.2,0,0.2-0.6,0.4c-0.4,1.3-1,2.6-1.7,3.9c0.9,0.1,1,0.2,1,0.4
						c0,0.1-0.1,0.2-0.4,0.4v8.3c0,0.5-0.3,0.7-0.9,0.7c-0.5,0-0.7-0.2-0.7-0.6c0-0.4,0.1-1.7,0.1-4.2V390.9z M80.2,396.7
						c0,1-0.4,1.9-1.2,1.9c-0.4,0-0.8-0.3-0.8-0.7c0-0.4,0.2-0.6,0.6-0.8c0.7-0.3,1-0.7,1.1-1.3c0-0.1,0.2-0.1,0.2,0
						C80.2,396,80.2,396.4,80.2,396.7z M81.1,386.8c1.2,0.4,1.7,0.8,1.7,1.5c0,0.3-0.2,0.6-0.6,0.7h2.6c0.1-0.4,0.3-0.8,0.3-1.1
						c0.1-0.4,0.2-0.7,0.2-1c1.4,0.4,1.8,0.6,1.8,0.7c0,0.1-0.1,0.2-0.5,0.3c-0.6,0.7-0.9,0.8-1.3,1.1h2.2c0.7-0.8,0.9-1,1-1
						c0.1,0,0.3,0.1,1,0.7c0.3,0.2,0.4,0.4,0.4,0.5c0,0.1,0,0.2-0.2,0.2h-10c-0.4,0-0.7,0-1.2,0.1l-0.2-0.6c0.5,0.1,0.9,0.1,1.3,0.1
						h2.2c-0.2,0-0.4-0.2-0.4-0.5c-0.2-0.9-0.3-1.2-0.7-1.7h-0.1c-0.4,0-0.7,0-1.2,0.1l-0.2-0.6c0.5,0.1,0.9,0.1,1.3,0.1h2.6v-1
						c0-0.3,0-0.6-0.1-1c1.9,0.2,2,0.3,2,0.5c0,0.1-0.2,0.3-0.5,0.4v1.1h2.3c0.7-0.8,0.9-0.9,1-0.9c0.1,0,0.3,0.1,1,0.7
						c0.3,0.3,0.4,0.4,0.4,0.5c0,0.1,0,0.2-0.2,0.2H81.1z M81.1,394.4c0,0.3-0.3,0.4-0.8,0.4c-0.4,0-0.7-0.2-0.7-0.6
						c0-0.3,0-0.5,0-1.6c0-0.9,0-1.9-0.1-2.8c0.8,0.3,0.9,0.4,1.7,0.8h5c0.5-0.6,0.7-0.7,0.8-0.7c0.2,0,0.3,0.1,0.8,0.5
						c0.3,0.2,0.4,0.3,0.4,0.4c0,0.1-0.1,0.2-0.4,0.5v0.5c0,1.3,0,2.2,0,2.4c0,0.4-0.3,0.6-0.9,0.6c-0.4,0-0.6-0.1-0.6-0.5v0H81.1z
						 M86.4,390.9h-5.3v1.3h5.3V390.9z M86.4,392.7h-5.3v1.3h5.3V392.7z M86.5,397.2c0,0.2,0,0.3,0.2,0.3c0.4,0.1,0.5,0.2,0.5,0.5
						c0,0.3-0.2,0.6-0.8,0.7c-0.5,0.2-1.4,0.2-2.6,0.2c-2,0-2.7-0.3-2.7-1.1c0-0.3,0-0.7,0-2.1c0-0.2,0-0.5-0.1-0.7
						c1.6,0.2,1.8,0.2,1.8,0.4c0,0.2-0.1,0.3-0.4,0.4v1.4c0,0.4,0.2,0.5,1.5,0.5c0.7,0,1.1,0,1.4-0.1c0.4-0.2,0.6-0.6,0.9-1.6
						c0-0.1,0.2-0.1,0.2,0V397.2z M84.5,397c-0.4,0-0.4-0.1-0.7-0.9c-0.1-0.4-0.3-0.7-0.7-1.2c0-0.1,0-0.1,0.1-0.1
						c1.4,0.2,2,0.7,2,1.4C85.2,396.7,84.9,397,84.5,397z M88.9,398.4c-0.4,0-0.6-0.2-0.7-1c-0.1-0.7-0.5-1.3-0.9-1.7
						c-0.1,0,0-0.2,0.1-0.1c1.6,0.5,2.3,1.1,2.3,1.9C89.6,398,89.3,398.4,88.9,398.4z"/>
					<path class="st0" d="M97,398.5c0,0.4-0.4,0.6-1,0.6c-0.5,0-0.7-0.1-0.7-0.5c0-1.4,0.1-2.9,0.1-8.7c0-1.7,0-3.3-0.1-5
						c0.8,0.4,1,0.5,1.8,0.9h9c0.6-0.7,0.7-0.8,0.8-0.8c0.2,0,0.3,0.1,0.9,0.6c0.3,0.2,0.4,0.4,0.4,0.5c0,0.1-0.1,0.2-0.4,0.5v1.8
						c0,7.8,0,8.1,0,9c0,0.8-0.2,1.2-0.8,1.4c-0.2,0.1-0.8,0.2-1.1,0.2c-0.3,0-0.3-0.1-0.4-0.4c-0.1-0.5-0.4-0.9-1.9-1.3
						c-0.1,0-0.1-0.2,0-0.2c0.8,0,1.6,0,2.1,0c0.2,0,0.3-0.1,0.3-0.3v-5.2H97V398.5z M100.7,391.3v-5.2H97v5.2H100.7z M106.3,386.1
						h-3.9v5.2h3.9V386.1z"/>
				</g>
			</g>
		</g>
	</g>
	<g>
		<g>
			<g>
				<g>
					<path class="st0" d="M135,399c-0.1,0-0.2-0.1-0.1-0.2c4.4-3.1,6.1-6.5,6.1-12.4c0-0.5,0-0.8-0.1-1.3c2.1,0.2,2.3,0.2,2.3,0.5
						c0,0.2-0.1,0.2-0.6,0.4c0,0.5,0,1-0.1,1.5c0.2,2.1,0.8,3.9,1.8,5.5c1.2,1.9,3,3.3,5.2,4.2c0.1,0,0.1,0.2,0,0.2
						c-0.6,0.2-0.8,0.5-1.1,1.2c-0.1,0.3-0.2,0.3-0.3,0.3s-0.4-0.2-0.8-0.5c-1.7-1.4-3.2-3.1-4-5.2c-0.5-1.2-0.8-2.6-1-4.3
						C141.9,394.1,139.7,396.9,135,399z"/>
				</g>
			</g>
		</g>
	</g>
	<g>
		<g>
			<path class="st1" d="M41.8,345.2c3.7,0,6.9,0.5,9.6,1.4c2.6,1,4.7,2.3,6.1,4.1c1.4,1.8,2.1,3.9,2.1,6.5c0,2-0.4,3.6-1.2,5
				c-0.8,1.4-1.8,2.5-3,3.4c-1.3,0.8-2.6,1.4-4.1,1.6c-1.5,0.3-2.9,0.2-4.2-0.2c1.4,0,2.9,0.2,4.6,0.7c1.7,0.4,3.2,1.2,4.8,2.2
				c1.5,1.1,2.8,2.5,3.7,4.3c1,1.8,1.5,4,1.5,6.8c0,3.3-0.8,6.1-2.3,8.6c-1.5,2.5-3.6,4.6-6.1,6.2c-2.6,1.6-5.4,2.8-8.6,3.4
				c-3.2,0.7-6.5,0.9-9.9,0.6c-3.4-0.3-6.6-1.2-9.7-2.6l0.1-0.7c2.9,0,5.6-0.3,8.2-1c2.6-0.7,4.8-1.9,6.8-3.3c2-1.5,3.5-3.2,4.7-5.3
				c1.1-2.1,1.7-4.4,1.7-7c0-2.8-0.7-5.1-2-6.8c-1.3-1.7-3-3-5-3.7c-2-0.8-4-1.2-6-1.2l0.1-0.7c2.1,0,4.1-0.5,6-1.5
				c1.8-1,3.2-2.5,4.3-4.3c1-1.8,1.4-3.9,1.2-6.1c-0.1-1.7-0.6-3.1-1.5-4.2s-1.9-1.8-3.1-2.2c-1.2-0.4-2.6-0.6-4-0.4
				c-2.8,0.2-4.8,1.5-6,3.7c-1.2,2.2-1.7,5.5-1.6,9.9h-0.7l-4-12.1c1.8-1.5,4.2-2.7,7.2-3.6C34.7,345.6,38.1,345.2,41.8,345.2z"/>
		</g>
	</g>
	<g>
		<g>
			<path class="st1" d="M190.3,322.2l37.1-0.1l-9,20.8c-0.6,1.4-1.3,3-2,4.9c-0.7,1.9-1.4,4-2.2,6.2c-0.7,2.2-1.5,4.4-2.2,6.5
				c-0.7,2.1-1.3,4.1-1.9,6c-0.6,1.8-1,3.4-1.4,4.7H197c0.8-1.4,1.8-3.1,3-5.1c1.2-2,2.4-4.1,3.6-6.3c1.3-2.2,2.5-4.5,3.7-6.7
				c1.2-2.2,2.3-4.3,3.3-6.2s1.8-3.5,2.4-4.7l3.6-7.8h-22.4c-1.4,0-2.5,0.3-3.3,1c-0.8,0.7-1.4,1.8-2,3.2h-0.7L190.3,322.2z"/>
		</g>
	</g>
	<g>
		<g>
			<g>
				<g>
					<path class="st0" d="M23.8,257c-0.5,0.4-1.1,0.8-1.6,1.1c-0.1,0-0.1-0.1-0.1-0.2c0.9-1,1.7-2,2.3-3.1c0.3-0.6,0.6-1.1,0.7-1.6
						c1.4,0.7,1.5,0.7,1.5,0.9c0,0.2-0.1,0.2-0.5,0.3c-0.3,0.5-0.7,1.1-1.2,1.6c0.5,0.1,0.6,0.1,0.6,0.3c0,0.1-0.1,0.2-0.4,0.3v5.8
						c0,0.4-0.2,0.6-0.7,0.6c-0.3,0-0.6-0.1-0.6-0.5c0-0.4,0.1-1.5,0.1-3.7V257z M25.9,251.3c-1.2,1.5-2.1,2.2-3.5,2.9
						c-0.1,0-0.2-0.1-0.1-0.1c0.7-0.7,1.4-1.6,1.9-2.5c0.3-0.5,0.5-1,0.6-1.5c1.1,0.4,1.7,0.7,1.7,0.9
						C26.5,251.2,26.3,251.3,25.9,251.3z M31.1,261.3c0.5,0.1,1.1,0.2,1.7,0.2c0.7,0,1.3,0,2.5-0.2c0.1,0,0.1,0.1,0,0.2
						c-0.4,0.2-0.5,0.4-0.6,0.9c-0.1,0.3-0.1,0.4-0.2,0.4c-0.2,0-0.3,0-0.4,0c-2,0-3.1-0.2-4.2-0.8c-0.9-0.5-1.4-1.2-2-2.6
						c-0.5,1.4-1.3,2.4-2.5,3.4c-0.1,0-0.2-0.1-0.1-0.2c1.2-1.6,1.9-3.7,1.9-6.2c0-0.2,0-0.4,0-0.7c1.4,0.2,1.7,0.3,1.7,0.5
						c0,0.1-0.1,0.2-0.4,0.3c-0.1,0.9-0.2,1.7-0.4,2.4c0.6,1.1,1.2,1.6,1.8,1.9v-6.8h-2.2c-0.3,0-0.5,0-0.8,0.1l-0.2-0.5
						c0.4,0.1,0.7,0.1,0.9,0.1h3.1c0.4-0.8,0.7-1.6,1-2.5c0.1-0.3,0.2-0.7,0.2-1c1.4,0.5,1.8,0.7,1.8,0.9s-0.1,0.2-0.5,0.2
						c-0.6,0.9-1.3,1.8-1.9,2.3h1.7c0.6-0.8,0.8-0.9,0.9-0.9c0.1,0,0.3,0.1,0.9,0.6c0.3,0.2,0.4,0.4,0.4,0.4c0,0.1,0,0.1-0.2,0.1
						h-3.8v3.1h1.3c0.6-0.7,0.8-0.9,0.9-0.9c0.1,0,0.3,0.1,0.9,0.6c0.3,0.2,0.4,0.3,0.4,0.4s0,0.1-0.2,0.1h-3.2V261.3z M28.9,253.3
						c-0.4,0-0.4-0.1-0.6-1.1c-0.2-0.6-0.4-1.2-0.7-1.6c0-0.1,0-0.2,0.1-0.1c1.4,0.5,2.1,1.2,2.1,1.9
						C29.8,252.9,29.4,253.3,28.9,253.3z"/>
					<path class="st0" d="M44.8,258.9c0.6,0.6,1.4,1,2.3,1.4c1.1,0.5,2.3,0.7,3.7,0.8c0.1,0,0.1,0.1,0,0.2c-0.5,0.2-0.6,0.3-1,1.2
						c-0.1,0.1-0.1,0.2-0.2,0.2c-0.1,0-0.4-0.1-0.7-0.2c-0.9-0.3-1.7-0.8-2.5-1.4c-0.7-0.5-1.2-1.1-1.8-1.8c0,1.8,0.1,3.1,0.1,3.5
						c0,0.4-0.2,0.5-0.8,0.5c-0.4,0-0.5-0.2-0.5-0.5c0-0.3,0.1-1.7,0.1-2.9c-1.2,1.3-3.1,2.3-5.5,2.8c-0.1,0-0.1-0.1-0.1-0.1
						c2.1-1,3.6-2.1,4.7-3.6h-3.3c-0.3,0-0.6,0-1,0.1l-0.2-0.5c0.4,0.1,0.8,0.1,1.1,0.1h4.3v-1.3h-2.7c-0.3,0-0.6,0-1,0.1l-0.2-0.5
						c0.4,0.1,0.8,0.1,1.1,0.1h2.8v-1.3h-3.5c-0.3,0-0.6,0-1,0.1l-0.2-0.5c0.4,0.1,0.8,0.1,1.1,0.1h2.3c-0.2-0.1-0.3-0.2-0.4-0.6
						c-0.1-0.4-0.4-0.9-0.7-1.2c-0.1,0,0-0.1,0.1-0.1c1.3,0.2,1.9,0.6,1.9,1.3c0,0.3-0.2,0.6-0.5,0.7h2.3c0.3-0.5,0.4-0.9,0.6-1.2
						c0.1-0.3,0.2-0.6,0.3-0.9c1.1,0.4,1.6,0.7,1.6,0.8s-0.1,0.2-0.6,0.2c-0.5,0.5-1,0.8-1.4,1h2.3c0.7-0.7,0.8-0.8,0.9-0.8
						c0.1,0,0.3,0.1,0.9,0.6c0.3,0.2,0.4,0.3,0.4,0.4c0,0.1,0,0.1-0.2,0.1h-5v1.3h2.2c0.6-0.7,0.8-0.8,0.9-0.8
						c0.1,0,0.3,0.1,0.8,0.5c0.2,0.2,0.4,0.3,0.4,0.4c0,0.1,0,0.1-0.2,0.1h-4v1.3h3.5c0.7-0.8,0.9-0.9,1-0.9c0.1,0,0.3,0.1,0.9,0.6
						c0.3,0.2,0.4,0.4,0.4,0.5c0,0.1,0,0.1-0.2,0.1H44.8z M42.1,251.2c0-0.6,0-0.7-0.1-1c1.6,0.2,1.7,0.3,1.7,0.4
						c0,0.1-0.1,0.2-0.4,0.4v2h1.2v-1.8c0-0.6,0-0.7-0.1-1c1.6,0.2,1.8,0.3,1.8,0.4c0,0.1-0.1,0.2-0.5,0.4v2h0.6
						c0.3-0.6,0.6-1.1,0.8-1.6c0.1-0.3,0.2-0.6,0.3-0.9c1.2,0.5,1.7,0.7,1.7,0.9c0,0.2-0.1,0.3-0.6,0.3c-0.6,0.6-1.2,1.1-1.7,1.3
						h1.6c0.6-0.7,0.8-0.8,0.9-0.8c0.1,0,0.3,0.1,0.9,0.6c0.3,0.2,0.4,0.3,0.4,0.4c0,0.1,0,0.1-0.2,0.1H39.1c-0.3,0-0.6,0-1,0.1
						l-0.2-0.5c0.5,0.1,0.8,0.1,1.1,0.1h3.1V251.2z M40.7,252.7c-0.3,0-0.4-0.1-0.6-0.5c-0.2-0.6-0.4-1-0.8-1.4
						c-0.1,0,0-0.1,0.1-0.1c1.3,0.2,2,0.7,2,1.3C41.4,252.4,41,252.7,40.7,252.7z"/>
					<path class="st0" d="M58.1,261.7c-1.4,0.7-2.6,1-4.6,1.2c-0.1,0-0.1-0.1,0-0.2c1-0.4,2-0.9,2.8-1.4c0.4-0.3,0.7-0.6,1-0.9
						c1.3,0.6,1.6,0.8,1.6,1C58.9,261.6,58.7,261.7,58.1,261.7z M56.4,260.2c0,0.4-0.2,0.6-0.8,0.6c-0.4,0-0.6-0.1-0.6-0.5
						c0-0.6,0.1-1.3,0.1-3.6c0-0.9,0-1.9-0.1-2.8c0.7,0.3,0.8,0.4,1.5,0.7h6.3c0.5-0.5,0.6-0.6,0.7-0.6c0.1,0,0.3,0.1,0.8,0.5
						c0.3,0.2,0.3,0.3,0.3,0.4c0,0.1-0.1,0.2-0.4,0.4v0.9c0,2,0.1,3.4,0.1,3.9c0,0.4-0.2,0.6-0.8,0.6c-0.4,0-0.6-0.1-0.6-0.5v0
						L56.4,260.2L56.4,260.2z M57,253.5c0,0.4-0.3,0.5-0.8,0.5c-0.3,0-0.6-0.1-0.6-0.4c0-0.3,0-0.9,0-1.7c0-0.6,0-0.9,0-1.5
						c0.7,0.3,0.9,0.4,1.5,0.7h5c0.5-0.5,0.6-0.6,0.7-0.6c0.1,0,0.3,0.1,0.8,0.5c0.2,0.2,0.3,0.3,0.3,0.4c0,0.1-0.1,0.2-0.4,0.4v0.3
						c0,0.7,0,1.2,0,1.4c0,0.4-0.3,0.5-0.8,0.5c-0.4,0-0.6-0.1-0.6-0.5H57z M62.9,255h-6.6v1.4h6.6V255z M56.4,258.1h6.6v-1.4h-6.6
						V258.1z M56.4,259.9h6.6v-1.4h-6.6V259.9z M62.3,251.5H57v1.7h5.3V251.5z M64.4,263c-0.3,0-0.4-0.1-0.8-0.4
						c-0.7-0.7-1.6-1.3-3-1.7c-0.1,0,0-0.2,0.1-0.2c3.1,0.1,4.3,0.6,4.3,1.6C65.1,262.7,64.8,263,64.4,263z"/>
					<path class="st0" d="M78.7,256.3c0.8-1,1-1.1,1.1-1.1c0.1,0,0.3,0.1,1.1,0.8c0.4,0.3,0.5,0.4,0.5,0.5c0,0.1,0,0.1-0.2,0.1h-11
						c-0.4,0-0.8,0-1.4,0.1l-0.2-0.5c0.6,0.1,1,0.1,1.5,0.1H78.7z"/>
					<path class="st0" d="M84.2,262.8c-0.1,0-0.2-0.1-0.1-0.2c3.8-2.7,5.3-5.7,5.3-10.8c0-0.4,0-0.7-0.1-1.2c1.8,0.2,2,0.2,2,0.5
						c0,0.1-0.1,0.2-0.5,0.4c0,0.4,0,0.9-0.1,1.3c0.2,1.8,0.7,3.4,1.6,4.8c1.1,1.7,2.6,2.9,4.6,3.7c0.1,0,0.1,0.2,0,0.2
						c-0.5,0.1-0.7,0.4-0.9,1c-0.1,0.2-0.1,0.3-0.3,0.3s-0.4-0.2-0.7-0.4c-1.5-1.2-2.8-2.7-3.5-4.5c-0.4-1.1-0.7-2.3-0.9-3.8
						C90.2,258.5,88.3,260.9,84.2,262.8z"/>
					<path class="st0" d="M109.2,256.1c0.5-0.5,0.6-0.6,0.7-0.6c0.1,0,0.3,0.1,0.8,0.5c0.2,0.2,0.3,0.3,0.3,0.4c0,0.1,0,0.1-0.4,0.4
						v0.9c0,2.5,0.1,4.2,0.1,4.7c0,0.4-0.3,0.6-0.8,0.6c-0.4,0-0.5-0.1-0.5-0.5v-0.4h-7.9c-0.3,0-0.6,0-0.9,0.1l-0.2-0.5
						c0.4,0.1,0.7,0.1,1.1,0.1h7.9v-2.7H102c-0.3,0-0.6,0-0.9,0.1l-0.2-0.5c0.4,0.1,0.7,0.1,1.1,0.1h7.4v-2.4h-7.6
						c-0.3,0-0.6,0-1,0.1l-0.2-0.6c0.4,0.1,0.8,0.1,1.1,0.1h3.2v-4.4c0-0.4,0-0.9-0.1-1.3c1.7,0.2,1.9,0.3,1.9,0.4
						c0,0.1-0.2,0.3-0.5,0.4v4.9H109.2z M102.8,255.1c-0.4,0-0.6-0.2-0.7-0.9c-0.2-1.1-0.6-1.9-1.2-2.6c0-0.1,0-0.2,0.1-0.1
						c1.7,0.7,2.5,1.7,2.5,2.7C103.5,254.7,103.2,255.1,102.8,255.1z M110.5,252.5c-0.9,1.4-1.9,2.4-2.8,3c-0.1,0-0.2-0.1-0.2-0.1
						c0.6-0.9,1.1-2,1.4-2.9c0.2-0.4,0.3-0.9,0.4-1.2c1.3,0.5,1.7,0.7,1.7,0.9S111,252.4,110.5,252.5z"/>
					<path class="st0" d="M121.1,252.9c0.2,0,0.4,0,0.6,0.1c0.2,0.1,0.3,0.2,0.3,0.4s-0.1,0.4-0.4,0.5c-0.6,0.2-1.6,0.5-2.3,0.7
						c-0.2,0.6-0.7,1.8-1,2.7c-0.3,0.9-0.8,2.2-1.6,4.1c-0.2,0.5-0.5,0.7-0.8,0.7c-0.1,0-0.3-0.1-0.4-0.2s-0.2-0.2-0.2-0.5
						c0-0.3,0.1-0.5,0.4-1c1-1.9,1.8-3.7,2.5-5.6c-0.8,0.1-1.2,0.2-1.5,0.2c-0.6,0-0.9-0.1-1.3-0.5c-0.3-0.3-0.4-0.6-0.4-0.7
						c0-0.1,0-0.1,0.1-0.1c0.1,0,0.1,0.1,0.2,0.1c0.4,0.2,0.6,0.4,1.1,0.4c0.7,0,1.4-0.2,2.1-0.3c0.3-1,0.4-1.6,0.4-1.8
						c0-0.2-0.1-0.4-0.3-0.5c-0.2-0.1-0.3-0.1-0.5-0.2c-0.1,0-0.2-0.1-0.2-0.1c0-0.1,0-0.2,0.2-0.2c0.2-0.1,0.4-0.2,0.7-0.2
						c0.4,0,1,0.2,1.4,0.6c0.1,0.1,0.2,0.2,0.2,0.4c0,0.1-0.1,0.3-0.2,0.4c-0.3,0.3-0.4,0.5-0.7,1.4c0.4-0.1,0.7-0.3,0.9-0.4
						C120.7,253,121,252.9,121.1,252.9z M120.9,258.7c-0.1,0.3-0.1,0.6-0.1,0.9c0,0.8,0.7,1.3,2.1,1.3c0.7,0,1.2,0,1.4-0.1
						c0.2-0.1,0.4-0.1,0.7-0.1c0.2,0,0.5,0.1,0.7,0.2c0.2,0.1,0.4,0.3,0.4,0.6c0,0.4-0.3,0.5-0.8,0.6c-0.4,0.1-1.1,0.1-1.5,0.1
						c-0.5,0-1.2-0.1-1.9-0.2c-1.1-0.3-1.7-1.1-1.7-2c0-0.6,0.2-1,0.4-1.4c0.1-0.1,0.2-0.2,0.3-0.2c0.1,0,0.1,0,0.1,0.1
						S120.9,258.6,120.9,258.7z M122.4,255.8c-0.4,0.1-1,0.2-1.6,0.5c0,0-0.1,0-0.1,0c-0.1,0-0.1,0-0.1-0.1c0-0.1,0-0.1,0.1-0.2
						c0.4-0.3,0.8-0.6,1.3-0.9c0.5-0.2,1.2-0.3,1.8-0.3c0.6,0,1.2,0.2,1.6,0.3c0.3,0.2,0.5,0.4,0.5,0.7c0,0.3-0.2,0.4-0.5,0.4
						c-0.2,0-0.4,0-0.5-0.1c-0.2,0-0.4,0-0.5,0c-0.4,0-1,0.2-2,0.8c-0.1,0.1-0.1,0.1-0.2,0.1c-0.1,0-0.1-0.1-0.1-0.1
						c0-0.1,0.7-0.6,1.3-1.2C123,255.7,122.7,255.7,122.4,255.8z"/>
					<path class="st0" d="M132.4,254.4c0.3-0.7,0.5-1.2,0.8-1.6c0.3-0.4,0.7-0.6,1.2-0.6c0.5,0,1.1,0.3,1.6,1
						c0.4,0.7,0.7,1.8,0.7,2.9c0,1.6-0.3,2.7-1,3.7c-0.6,0.8-1,1.3-1.8,1.7c-0.8,0.5-1.6,0.8-2.4,1c-0.2,0.1-0.3,0.1-0.4,0.1
						c-0.1,0-0.2,0-0.2-0.1c0-0.1,0.1-0.1,0.3-0.2c1.5-0.6,2.6-1.5,3.3-2.5c0.6-1,0.9-2,0.9-3.8c0-1-0.1-1.8-0.3-2.3
						c-0.2-0.6-0.5-0.8-0.9-0.8c-0.7,0-1.1,0.5-1.8,3.4c-0.2,0.6-0.3,1.1-0.3,1.5c0,0.5,0.1,0.7,0.1,0.9c0,0.4-0.1,0.5-0.5,0.5
						c-0.4,0-0.7-0.4-0.9-1c-0.2-0.6-0.2-1.1-0.2-1.9c0-0.9,0.2-2,0.3-3.1c0.1-0.4,0.1-0.8,0.1-1.2c0-0.3-0.1-0.5-0.4-0.9
						c-0.1-0.1-0.1-0.1-0.1-0.2c0-0.1,0.1-0.2,0.3-0.2c0.1,0,0.2,0,0.4,0.2c0.4,0.3,0.7,0.6,0.9,1.1c0.1,0.2,0.2,0.4,0.2,0.6
						c0,0.2-0.1,0.3-0.2,0.4c-0.1,0.1-0.2,0.3-0.2,0.4c-0.3,1-0.5,1.8-0.5,2.4c0,0.4,0,0.6,0,0.8c0,0.1,0.1,0.1,0.2,0
						C131.9,255.6,132.1,255,132.4,254.4z"/>
					<path class="st0" d="M146.8,254c0,0.3-0.1,0.9-0.3,1.5c-0.2,0.6-0.5,1.3-0.9,2c-0.4,0.8-1,1.8-1.6,2.3
						c-0.3,0.3-0.7,0.6-1.2,0.6c-0.4,0-0.7-0.2-1.1-0.5c-0.5-0.6-0.8-1.3-0.8-2.5c0-0.7,0.2-1.5,0.6-2.1c0.5-0.9,1.1-1.5,1.9-2
						c1-0.6,2.1-0.9,3.4-0.9c1.5,0,2.6,0.4,3.5,1.1c1,0.8,1.6,1.9,1.6,3.6c0,1.2-0.5,2.2-1.3,2.9c-0.7,0.6-1.3,1-2.1,1.2
						c-0.9,0.3-2,0.5-2.9,0.5c-0.2,0-0.3,0-0.3-0.1s0.1-0.1,0.3-0.2c1.7-0.4,2.8-1,3.6-1.8c0.9-0.9,1.3-1.8,1.3-3.2
						c0-1-0.3-2-1.2-2.6c-0.7-0.5-1.5-0.7-2.2-0.8c-0.2,0-0.6,0-0.9,0C146.5,253.1,146.8,253.6,146.8,254z M143.4,254
						c-0.6,0.6-1,1.1-1.2,1.7c-0.1,0.3-0.2,0.8-0.2,1.3c0,0.6,0.1,1.1,0.4,1.5c0.2,0.3,0.4,0.5,0.6,0.5c0.2,0,0.4-0.1,1-0.9
						c0.8-1.1,1.5-2.5,1.9-3.4c0.2-0.5,0.3-0.9,0.3-1.2c0-0.3-0.1-0.5-0.3-0.6C144.7,253.1,143.9,253.6,143.4,254z"/>
					<path class="st0" d="M27.6,277.7c-0.1,3.2-1.4,4.7-5.1,5.3c-0.1,0-0.1-0.2-0.1-0.2c2.9-1.1,3.8-2.4,3.8-5.3c0-0.2,0-0.3,0-0.6
						c1.5,0.1,1.9,0.2,1.9,0.5C28.1,277.5,28,277.6,27.6,277.7z M33,276c0.5-0.6,0.6-0.7,0.8-0.7c0.1,0,0.2,0.1,0.9,0.7
						c0.3,0.3,0.4,0.4,0.4,0.5c0,0.3-0.1,0.3-0.6,0.3c-0.2,0-0.3,0.1-0.4,0.1c-0.5,0.4-0.9,0.6-1.3,0.9c-0.1,0-0.2,0-0.1-0.1
						c0.3-0.5,0.4-0.8,0.6-1.4h-8.8c0,1.1-0.5,1.9-1.3,1.9c-0.4,0-0.6-0.3-0.6-0.6c0-0.3,0.1-0.5,0.5-0.7c0.7-0.4,1-0.8,1.1-1.7
						c0-0.1,0.1-0.1,0.2,0c0.1,0.3,0.1,0.6,0.2,0.9H33z M29.3,274.2h2.5c0.7-0.8,0.8-0.9,0.9-0.9c0.1,0,0.3,0.1,0.9,0.6
						c0.3,0.2,0.4,0.3,0.4,0.4c0,0.1,0,0.1-0.2,0.1H25c-0.3,0-0.6,0-1,0.1l-0.2-0.5c0.4,0.1,0.7,0.1,1.1,0.1h3v-1.7h-4.2
						c-0.3,0-0.6,0-1,0.1l-0.2-0.5c0.4,0.1,0.8,0.1,1.1,0.1h4.2v-0.6c0-0.5,0-0.9-0.1-1.4c1.8,0.2,1.9,0.3,1.9,0.5
						c0,0.1-0.2,0.2-0.5,0.3v1.1h3.5c0.7-0.8,0.8-0.9,0.9-0.9c0.1,0,0.3,0.1,1,0.6c0.3,0.3,0.4,0.4,0.4,0.5s0,0.1-0.2,0.1h-5.6
						V274.2z M30.6,281c0,0.4,0.1,0.5,1.3,0.5c0.6,0,0.9,0,1.4-0.1c0.4-0.1,0.7-0.7,1.1-2c0-0.1,0.2-0.1,0.2,0c0,0.5,0,1.1,0,1.5
						c0,0.2,0,0.2,0.1,0.3c0.4,0.2,0.5,0.4,0.5,0.6c0,0.4-0.2,0.6-0.7,0.8c-0.5,0.2-1.4,0.2-2.7,0.2c-2,0-2.5-0.2-2.5-1.2v-2.3
						c0-0.8,0-1.5,0-2.3c1.8,0.3,1.8,0.3,1.8,0.5c0,0.1-0.1,0.2-0.4,0.4V281z"/>
					<path class="st0" d="M44.4,281.9h3.4c0.8-1,1-1.1,1.1-1.1c0.1,0,0.3,0.1,1.1,0.8c0.4,0.3,0.5,0.4,0.5,0.5c0,0.1,0,0.1-0.2,0.1
						H39.5c-0.4,0-0.9,0-1.3,0.1l-0.2-0.5c0.6,0.1,1,0.1,1.5,0.1H43v-9.3c0-0.8,0-1.5-0.1-2c1.8,0.2,2,0.3,2,0.5s-0.2,0.3-0.5,0.4
						v4.2h2.3c0.8-1,0.9-1.1,1-1.1c0.1,0,0.3,0.1,1.1,0.8c0.4,0.3,0.5,0.4,0.5,0.5c0,0.1,0,0.1-0.2,0.1h-4.7V281.9z"/>
					<path class="st0" d="M58.9,270.9c0-0.2,0-0.5-0.1-0.8c1.8,0.2,1.9,0.3,1.9,0.5c0,0.1-0.2,0.3-0.5,0.4v0.8h3.4
						c0.8-0.8,0.9-1,1-1c0.1,0,0.3,0.1,0.9,0.7c0.3,0.3,0.4,0.4,0.4,0.5c0,0.1,0,0.1-0.2,0.1H54.6c-0.3,0-0.6,0-1,0.1l-0.2-0.5
						c0.4,0.1,0.8,0.1,1.1,0.1h4.3V270.9z M63.7,277c0.5-0.5,0.6-0.6,0.7-0.6c0.1,0,0.3,0.1,0.8,0.5c0.2,0.2,0.3,0.3,0.3,0.4
						c0,0.2-0.1,0.3-0.4,0.4v0.7c0,2.2,0,2.8,0,3.4c0,0.5-0.1,0.8-0.5,1c-0.3,0.2-0.6,0.2-0.9,0.2c-0.2,0-0.3,0-0.3-0.4
						c-0.1-0.5-0.3-0.6-1.2-0.9c-0.1,0-0.1-0.2,0-0.2c0.6,0.1,1,0.1,1.5,0.1c0.1,0,0.2,0,0.2-0.2v-4.2h-8.4v5.2
						c0,0.4-0.2,0.6-0.8,0.6c-0.4,0-0.6-0.1-0.6-0.5c0-0.8,0-1.5,0-4.7c0-0.5,0-1.1,0-1.6c0.7,0.3,0.8,0.3,1.4,0.7H63.7z
						 M57.3,275.7v0.1c0,0.4-0.3,0.5-0.8,0.5c-0.4,0-0.5-0.1-0.5-0.5c0-0.4,0-0.7,0-2.1c0-0.4,0-0.8,0-1.1c0.7,0.3,0.8,0.3,1.4,0.7
						h4.4c0.4-0.5,0.5-0.6,0.7-0.6c0.1,0,0.3,0.1,0.8,0.5c0.2,0.2,0.3,0.3,0.3,0.4s-0.1,0.2-0.4,0.4v0.3c0,0.8,0,1.3,0,1.5
						c0,0.4-0.2,0.6-0.8,0.6c-0.4,0-0.5-0.1-0.5-0.5v-0.1H57.3z M58.1,280.8v0.3c0,0.4-0.2,0.5-0.7,0.5c-0.4,0-0.5-0.1-0.5-0.5
						c0-0.3,0-0.6,0-1.9c0-0.5,0-0.9-0.1-1.4c0.6,0.3,0.7,0.3,1.4,0.6h2.7c0.4-0.4,0.5-0.5,0.6-0.5c0.1,0,0.3,0.1,0.7,0.5
						c0.2,0.2,0.3,0.3,0.3,0.4c0,0.1-0.1,0.2-0.4,0.4v0.3c0,0.7,0,1.2,0,1.4c0,0.4-0.2,0.5-0.7,0.5c-0.4,0-0.5-0.1-0.5-0.4v-0.2
						H58.1z M61.9,273.6h-4.6v1.8h4.6V273.6z M61,278.8h-2.9v1.7H61V278.8z"/>
				</g>
			</g>
		</g>
	</g>
	<line class="st2" x1="131.1" y1="383.5" x2="116.1" y2="398.5"/>
	<g>
		<g>
			<polygon class="st0" points="301.5,378.8 301.5,378.8 301.5,378.9 			"/>
			<polygon class="st0" points="302.9,377.6 302.9,377.6 302.9,377.6 			"/>
			<polygon class="st0" points="270.3,344.7 270.3,344.7 270.3,344.7 270.3,344.7 			"/>
			<polygon class="st0" points="280.9,341.6 280.8,341.6 280.8,341.6 280.8,341.6 			"/>
			<path class="st0" d="M315.5,317.3c-0.7-1.1-1.6-1.9-2.2-2.6c-0.3-0.4-0.6-0.7-0.8-0.9c-0.2-0.3-0.3-0.4-0.3-0.5
				c0-0.1,0-0.2,0-0.4c0-0.4,0.1-1.2,0.3-2.1c0.2-0.9,0.4-1.9,0.5-3c0-0.8-0.1-1.7-0.6-2.5c-0.3-0.5-0.6-0.9-1-1.2
				c-0.7-0.6-1.4-0.9-2-1.2c-1-0.4-1.9-0.6-2.7-0.9c-0.4-0.1-0.7-0.2-0.9-0.4c-0.2-0.1-0.4-0.2-0.4-0.3l0,0
				c-0.1-0.1-0.3-0.3-0.4-0.8c-0.3-0.7-0.5-1.8-0.9-2.9c-0.2-0.6-0.5-1.1-0.8-1.7c-0.4-0.6-0.9-1.2-1.6-1.6
				c-0.9-0.5-1.8-0.6-2.5-0.6c-1.2,0-2.2,0.3-3,0.5c-0.9,0.2-1.6,0.4-2.1,0.3c-0.2,0-0.3,0-0.4,0c-0.1,0-0.4-0.2-0.8-0.5
				c-0.6-0.5-1.3-1.3-2.3-2c-0.5-0.4-1-0.8-1.6-1.1c-0.6-0.3-1.4-0.6-2.2-0.6c-1.1,0-2.1,0.4-2.8,0.9c-1.1,0.7-1.9,1.6-2.6,2.2
				c-0.4,0.3-0.7,0.6-0.9,0.8c-0.3,0.2-0.4,0.3-0.5,0.3c-0.1,0-0.2,0-0.4,0c-0.4,0-1.2-0.1-2.1-0.3c-0.9-0.2-1.9-0.5-3-0.5
				c-0.8,0-1.7,0.1-2.5,0.6l0,0l0,0c-0.5,0.3-0.9,0.6-1.2,1c-0.6,0.7-0.9,1.4-1.2,2c-0.4,1-0.6,1.9-0.9,2.7
				c-0.1,0.4-0.2,0.7-0.4,0.9c-0.1,0.2-0.2,0.4-0.3,0.4c-0.1,0.1-0.3,0.3-0.8,0.4c-0.7,0.3-1.8,0.5-2.9,0.9
				c-0.6,0.2-1.1,0.5-1.7,0.8c-0.6,0.4-1.2,0.9-1.6,1.6c-0.5,0.9-0.6,1.8-0.6,2.5c0,1.2,0.3,2.2,0.5,3c0.2,0.9,0.4,1.6,0.3,2.1
				c0,0.2,0,0.3,0,0.4l0,0c0,0.1-0.2,0.4-0.5,0.8c-0.5,0.6-1.3,1.3-2,2.3c-0.4,0.5-0.8,1-1.1,1.6c-0.3,0.6-0.6,1.4-0.6,2.2
				c0,1.1,0.4,2.1,0.9,2.8c0.7,1.1,1.6,1.9,2.2,2.6c0.3,0.4,0.6,0.7,0.8,0.9c0.2,0.3,0.3,0.4,0.3,0.5l0,0l0,0c0,0.1,0,0.2,0,0.4
				c0,0.4-0.1,1.2-0.3,2.1c-0.2,0.9-0.5,1.9-0.5,3c0,0.8,0.1,1.7,0.6,2.5c0.3,0.5,0.6,0.9,1,1.2c0.7,0.6,1.4,0.9,2,1.2
				c1,0.4,1.9,0.6,2.7,0.9c0.4,0.1,0.7,0.2,0.9,0.4c0.2,0.1,0.4,0.2,0.4,0.3c0.1,0.1,0.2,0.3,0.4,0.7c0.2,0.4,0.3,1,0.5,1.6l0,0
				c0.2,0.5,0.3,1.1,0.6,1.7c0.2,0.6,0.5,1.2,1,1.8c0.2,0.3,0.4,0.5,0.7,0.7l-6.8,14.6l9.4-0.3l5.8,7.3l6.6-14.3l6.6,14.3l5.8-7.3
				l9.4,0.3l-6.5-14c0,0,0.1,0,0.1,0c0.6-0.3,1.1-0.8,1.4-1.3c0.5-0.7,0.8-1.3,1-2c0.4-1,0.6-1.9,0.8-2.6c0.1-0.4,0.2-0.6,0.4-0.9
				c0.1-0.2,0.2-0.3,0.3-0.4c0.1-0.1,0.3-0.3,0.8-0.4c0.7-0.3,1.8-0.5,2.9-0.9c0.6-0.2,1.1-0.5,1.7-0.8c0.6-0.4,1.2-0.9,1.6-1.6
				c0.5-0.9,0.6-1.8,0.6-2.5c0-1.2-0.3-2.2-0.5-3c-0.2-0.9-0.4-1.6-0.3-2.1c0-0.2,0-0.3,0-0.4c0-0.1,0.2-0.4,0.5-0.8
				c0.5-0.6,1.3-1.3,2-2.3c0.4-0.5,0.8-1,1.1-1.6c0.3-0.6,0.6-1.4,0.6-2.2C316.3,319,315.9,318.1,315.5,317.3z M311.8,320.6
				c-0.3,0.5-1,1.2-1.7,2c-0.4,0.4-0.8,0.9-1.1,1.4c-0.4,0.5-0.7,1.1-0.9,1.9c-0.1,0.5-0.2,1-0.2,1.5c0,1.2,0.3,2.2,0.5,3.1
				c0.2,0.9,0.4,1.6,0.3,2.1c0,0.1,0,0.2,0,0.3l0,0.1l-0.1,0.1c-0.1,0.1-0.4,0.3-0.8,0.4c-0.6,0.3-1.5,0.5-2.5,0.8
				c-0.5,0.2-1,0.3-1.5,0.6c-0.5,0.3-1,0.6-1.5,1.1c-0.6,0.6-1,1.3-1.3,1.9c-0.4,1-0.7,1.9-0.9,2.7c-0.2,0.8-0.5,1.4-0.7,1.6l0,0
				l-0.1,0.1l0,0l0,0l0,0l-0.1,0c-0.1,0-0.2,0-0.3,0c-0.4,0-1.2-0.1-2.1-0.3c-0.9-0.2-1.9-0.5-3.1-0.5c-0.5,0-1,0-1.5,0.2l0,0
				l-0.1,0l0,0c-1.2,0.4-2,1.1-2.7,1.7c-0.7,0.6-1.3,1.3-1.8,1.7l0,0c-0.3,0.2-0.6,0.4-0.7,0.5c-0.2,0.1-0.3,0.1-0.3,0.1
				c0,0-0.1,0-0.3-0.1c-0.2-0.1-0.4-0.2-0.7-0.5c-0.5-0.4-1.2-1.1-1.9-1.7c-0.7-0.6-1.6-1.3-2.9-1.7c-0.5-0.1-1-0.2-1.5-0.2
				c-1.2,0-2.2,0.3-3.1,0.5c-0.9,0.2-1.6,0.4-2.1,0.3c-0.1,0-0.2,0-0.3,0l-0.1,0l0,0l-0.1-0.1l0,0l0,0c-0.1-0.1-0.2-0.4-0.4-0.8
				c-0.1-0.4-0.3-0.8-0.4-1.4l0,0c-0.2-0.6-0.4-1.3-0.7-2c-0.3-0.7-0.7-1.4-1.3-2.1c-0.7-0.7-1.5-1.1-2.3-1.4c-1.1-0.4-2.2-0.7-3-1
				c-0.4-0.1-0.7-0.3-0.8-0.4c-0.2-0.1-0.2-0.2-0.2-0.2l0,0l0-0.1c0-0.1,0-0.2,0-0.3c0-0.4,0.1-1.2,0.3-2.1c0.2-0.9,0.5-1.9,0.5-3.1
				c0-0.5,0-1-0.2-1.5l0,0c-0.3-1-0.8-1.7-1.3-2.4c-0.8-0.9-1.6-1.7-2.1-2.3c-0.3-0.3-0.4-0.6-0.5-0.8c-0.1-0.2-0.1-0.3-0.1-0.3
				c0,0,0-0.2,0.2-0.5c0.3-0.5,1-1.2,1.7-2c0.4-0.4,0.8-0.9,1.1-1.4c0.4-0.5,0.7-1.1,0.9-1.9l0,0c0.1-0.5,0.2-1,0.2-1.5
				c0-1.2-0.3-2.2-0.5-3.1c-0.2-0.9-0.4-1.6-0.3-2.1c0-0.1,0-0.2,0-0.3l0-0.1l0,0l0.1-0.1c0.1-0.1,0.4-0.3,0.8-0.4
				c0.6-0.3,1.5-0.5,2.5-0.8c0.5-0.2,1-0.3,1.5-0.6c0.5-0.3,1-0.6,1.5-1.1c0.7-0.7,1.1-1.5,1.4-2.3c0.4-1.1,0.7-2.2,1-3
				c0.1-0.4,0.3-0.7,0.4-0.8c0.1-0.2,0.2-0.2,0.2-0.2l0.1,0c0.1,0,0.2,0,0.3,0c0.4,0,1.2,0.1,2.1,0.3c0.9,0.2,1.9,0.5,3.1,0.5
				c0.5,0,1,0,1.5-0.2c1-0.3,1.7-0.8,2.4-1.3c0.9-0.8,1.7-1.6,2.3-2.1c0.3-0.3,0.6-0.4,0.8-0.5c0.2-0.1,0.3-0.1,0.3-0.1
				c0,0,0.2,0,0.5,0.2c0.5,0.3,1.2,1,2,1.7c0.4,0.4,0.9,0.8,1.4,1.1c0.5,0.4,1.1,0.7,1.9,0.9c0.5,0.1,1,0.2,1.5,0.2
				c1.2,0,2.2-0.3,3.1-0.5c0.9-0.2,1.6-0.4,2.1-0.3c0.1,0,0.2,0,0.3,0l0.1,0l0.1,0.1c0.1,0.1,0.3,0.4,0.4,0.8
				c0.3,0.6,0.5,1.5,0.8,2.5c0.2,0.5,0.4,1,0.6,1.5c0.3,0.5,0.6,1,1.1,1.5l0,0l0,0c0.7,0.7,1.5,1.1,2.3,1.4c1.1,0.4,2.2,0.7,3,1
				c0.4,0.1,0.7,0.3,0.8,0.4c0.2,0.1,0.2,0.2,0.2,0.2l0,0.1c0,0.1,0,0.2,0,0.3c0,0.4-0.1,1.2-0.3,2.1c-0.2,0.9-0.5,1.9-0.5,3.1
				c0,0.5,0,1,0.2,1.5c0.3,1,0.8,1.7,1.3,2.4c0.8,0.9,1.6,1.7,2.1,2.3c0.3,0.3,0.4,0.6,0.5,0.8c0.1,0.2,0.1,0.3,0.1,0.3
				C312,320.2,312,320.3,311.8,320.6z"/>
			<path class="st0" d="M286.6,302c-10,0-18.1,8.1-18.1,18.1c0,5.2,2.2,10,5.8,13.3c3,2.8,6.9,4.6,11.3,4.8h0c0,0,0,0,0,0l0,0
				c0.4,0,0.7,0,1.1,0c10,0,18.1-8.1,18.1-18.1C304.7,310.1,296.6,302,286.6,302z M297.1,330.7c-2.7,2.7-6.4,4.4-10.5,4.4
				c-0.3,0-0.6,0-0.8,0l0,0c-3.6-0.2-6.8-1.7-9.3-4c-2.9-2.7-4.7-6.6-4.7-10.9c0-4.1,1.7-7.8,4.4-10.5c2.7-2.7,6.4-4.4,10.5-4.4
				c4.1,0,7.8,1.7,10.5,4.4c2.7,2.7,4.4,6.4,4.4,10.5C301.4,324.3,299.8,328,297.1,330.7z"/>
		</g>
	</g>
	<g>
		<g>
			<g>
				<path class="st0" d="M111.4,305.8c0-2-1.6-3.7-3.7-3.7c-2,0-3.7,1.6-3.7,3.7c0,2,1.6,3.7,3.7,3.7
					C109.7,309.5,111.4,307.8,111.4,305.8z"/>
				<path class="st0" d="M99.4,314.2v12.4c0,0.9,0.7,1.6,1.6,1.6c0.9,0,1.6-0.7,1.6-1.6v-10.2h0.7v27.6c0,1.2,1,2.1,2.1,2.1
					c1.2,0,2.1-1,2.1-2.1v-16h0.7v16c0,1.2,1,2.1,2.1,2.1c1.2,0,2.1-1,2.1-2.1v-27.6h0.7v10.2c0,0.9,0.7,1.6,1.6,1.6
					c0.9,0,1.6-0.7,1.6-1.6v-12.4c0-1.8-1.9-3.7-3.7-3.7h-9.7C101.4,310.5,99.4,312.4,99.4,314.2z"/>
			</g>
		</g>
		<g>
			<path class="st0" d="M143.5,332.5c-0.7,0.2-1.6,0.5-2.5,0.7c-0.4,0.1-0.8,0.1-1.2,0.1c0,0,0-0.1,0-0.1c0.3-0.9,0.5-1.8,0.6-2.5
				c0.2-0.7,0.3-1.3,0.3-1.5c0.1-0.6,0.2-1,0.3-1.4c0.1-0.3,0.3-0.5,0.7-0.6c1.3-0.3,2.6-1.2,3.4-2.5c0.9-1.3,1.3-3.1,1.2-4.9
				c-0.1-1.2-0.3-1.7-0.7-1.8c-0.3-0.1-0.8,0.2-1.3,0.7c-0.5,0.4-1.2,1-2,1.5c-0.3,0.2-0.7,0.4-1,0.5c-0.1-0.8-0.2-1.6-0.3-2.3
				c-0.1-0.7-0.2-1.3-0.3-1.5c-0.2-1.2-0.3-1.7,0.2-2.1c1.1-0.7,1.9-1.9,2.2-3.4c0.3-1.4,0.2-3.2-0.6-4.8c-0.5-1-0.9-1.4-1.2-1.3
				c-0.3,0-0.6,0.4-1,1c-0.3,0.6-0.7,1.3-1.3,1.9c-0.2,0.3-0.5,0.5-0.7,0.8c-0.3-0.6-0.6-1.2-0.9-1.7c-0.3-0.6-0.6-1-0.7-1.2
				c-0.6-1-0.8-1.4-0.4-1.9c0.7-1,1.1-2.3,0.9-3.7c-0.2-1.4-0.8-2.9-2-4.1c-0.7-0.8-1.2-1-1.5-0.8c-0.3,0.1-0.4,0.6-0.6,1.2
				c-0.1,0.6-0.3,1.4-0.5,2.1c-0.1,0.3-0.2,0.6-0.4,0.9c-0.3-0.3-0.6-0.6-0.9-0.9c-0.5-0.5-0.9-0.8-1-0.9c-0.8-0.8-1.2-1.1-1-1.7
				c0.4-1.2,0.3-2.5-0.3-3.8c-0.6-1.3-1.7-2.5-3.1-3.3c-0.9-0.5-1.4-0.6-1.7-0.3c-0.2,0.2-0.2,0.7-0.2,1.3c0.1,0.6,0.2,1.3,0.1,2.1
				c-0.5-0.6-1.2-1-1.9-1.4c-0.9-0.4-2.2-0.7-3.4-0.6c-1.2,0.1-2.1,0.5-2.3,1.3c-0.2,0.8,0.3,1.6,1,2.4c0.7,0.7,1.7,1.4,2.4,1.7
				c0.7,0.3,1.3,0.5,2,0.6c0,0-0.1,0-0.1,0.1c-0.6,0.5-1.2,0.9-1.7,1.2c-0.5,0.4-0.8,0.7-0.9,1c-0.1,0.3,0.2,0.6,0.8,0.9
				c1,0.5,2.1,0.8,3.2,0.7c1.1-0.1,2.3-0.4,3.4-1c0.5-0.3,0.9,0,1.7,0.7c0.1,0.1,0.5,0.5,0.9,0.9c0.2,0.3,0.5,0.6,0.8,0.9
				c-0.3,0.1-0.6,0.3-0.9,0.4c-0.7,0.3-1.4,0.4-2,0.6c-0.6,0.2-1,0.4-1.1,0.7c-0.1,0.3,0,0.6,0.5,1.1c0.8,0.8,1.8,1.4,2.9,1.7
				c1.1,0.3,2.3,0.3,3.5,0.1c0.6-0.1,0.9,0.2,1.4,1.1c0.1,0.2,0.3,0.6,0.6,1.2c0.2,0.5,0.5,1,0.7,1.6c-0.4,0-0.7,0.1-1.1,0.1
				c-0.8,0-1.6,0-2.2,0c-0.6,0-1.1,0.1-1.3,0.3c-0.2,0.2-0.2,0.6,0.1,1.3c0.5,1.1,1.3,1.9,2.3,2.6c1,0.7,2.2,1.1,3.5,1.3
				c0.6,0.1,0.8,0.6,1,1.6c0,0.2,0.1,0.7,0.2,1.3c0.1,0.6,0.1,1.4,0.1,2.1c-0.4-0.1-0.7-0.2-1.1-0.3c-0.8-0.3-1.5-0.6-2.2-0.8
				c-0.6-0.2-1.1-0.3-1.4-0.2c-0.3,0.1-0.4,0.5-0.4,1.3c0.1,1.2,0.5,2.4,1.3,3.4c0.7,1,1.7,1.9,2.9,2.5c0.3,0.2,0.4,0.4,0.5,0.7
				c0,0.3,0,0.7-0.1,1.3c0,0.2-0.2,0.7-0.4,1.4c-0.2,0.7-0.5,1.5-0.8,2.2c0,0,0,0.1,0,0.1c-0.3-0.2-0.6-0.5-0.9-0.7
				c-0.7-0.6-1.3-1.2-1.8-1.7c-0.5-0.5-1-0.8-1.3-0.7c-0.4,0-0.6,0.3-0.9,1.1c-0.4,1.2-0.4,2.5-0.1,3.8c0.3,1.3,0.9,2.6,1.8,3.6
				c0.4,0.6,0.2,1.1-0.5,2c-0.1,0.2-0.4,0.6-0.9,1.2c-0.5,0.6-1,1.2-1.7,1.9c-0.1,0.1-0.2,0.2-0.3,0.3c-0.2-0.4-0.4-0.7-0.6-1.1
				c-0.4-0.9-0.7-1.7-1-2.3c-0.3-0.7-0.6-1.1-1-1.3c-0.4-0.1-0.7,0-1.3,0.7c-0.9,1-1.4,2.2-1.7,3.5c-0.2,1.3-0.2,2.8,0.2,4.3
				c0.2,0.7-0.2,1.1-1.3,1.8c-0.2,0.1-0.7,0.4-1.4,0.7c-0.7,0.3-1.5,0.7-2.4,1c-0.8,0.3-2,0.8-2.6,1c-8,2.8-17.7,4-23.6,8.4
				c-0.9,0.7,0.9,3.3,1.7,3.1c0.8-0.2,6.7-3.7,21.4-7.8c0.6-0.2,3.6-1.2,4.5-1.6c0.9-0.4,1.8-0.9,2.6-1.4c0.7-0.4,1.3-0.8,1.5-0.9
				c0.6-0.4,1-0.6,1.4-0.7c0.4-0.1,0.7-0.1,1,0.1c0.6,0.4,1.4,0.7,2.2,0.9c0.8,0.1,1.6,0.1,2.5,0c0.9-0.2,1.7-0.5,2.6-1
				c0.8-0.5,1.6-1.1,2.3-1.9c0.9-1,1.1-1.6,0.9-2c-0.2-0.4-0.8-0.5-1.6-0.5c-0.8-0.1-1.7-0.2-2.7-0.4c-0.4-0.1-0.8-0.2-1.2-0.4
				c0.1-0.1,0.2-0.2,0.3-0.4c0.6-0.7,1.2-1.5,1.7-2.2c0.5-0.7,0.8-1.2,0.9-1.4c0.7-1.1,1-1.6,1.8-1.5c1.4,0.2,3-0.1,4.4-1.1
				c0.7-0.5,1.3-1.1,1.9-1.8c0.5-0.7,1-1.6,1.3-2.5c0.4-1.2,0.3-1.8,0-2C144.7,332.1,144.2,332.2,143.5,332.5z"/>
			<path class="st0" d="M99.1,355c1.8-0.7,3.8-1.3,5.8-1.9c-2.1-0.6-4.2-1.2-6.2-1.9c-0.6-0.2-1.8-0.7-2.6-1c-0.8-0.3-1.7-0.7-2.4-1
				c-0.7-0.3-1.2-0.6-1.4-0.7c-1.1-0.6-1.5-1-1.3-1.8c0.4-1.4,0.4-2.9,0.2-4.3c-0.3-1.3-0.8-2.6-1.7-3.5c-0.6-0.6-0.9-0.8-1.3-0.7
				c-0.3,0.1-0.7,0.6-1,1.3c-0.3,0.7-0.6,1.5-1,2.3c-0.2,0.4-0.4,0.7-0.6,1.1c-0.1-0.1-0.2-0.2-0.3-0.3c-0.6-0.6-1.2-1.3-1.7-1.9
				c-0.5-0.6-0.8-1-0.9-1.2c-0.7-1-0.9-1.5-0.5-2c0.9-1.1,1.5-2.4,1.8-3.6c0.3-1.3,0.3-2.5-0.1-3.8c-0.2-0.8-0.5-1.1-0.9-1.1
				c-0.4,0-0.8,0.3-1.3,0.7c-0.5,0.5-1.1,1.1-1.8,1.7c-0.3,0.3-0.6,0.5-0.9,0.7c0,0,0-0.1,0-0.1c-0.3-0.8-0.6-1.6-0.8-2.2
				c-0.2-0.7-0.3-1.2-0.4-1.4c-0.1-0.6-0.2-1-0.1-1.3c0-0.3,0.2-0.5,0.5-0.7c1.2-0.6,2.2-1.5,2.9-2.5c0.7-1,1.2-2.2,1.3-3.4
				c0.1-0.8-0.1-1.1-0.4-1.3c-0.3-0.1-0.8,0-1.4,0.2c-0.6,0.2-1.4,0.6-2.2,0.8c-0.3,0.1-0.7,0.2-1.1,0.3c0-0.7,0.1-1.5,0.1-2.1
				c0.1-0.7,0.1-1.2,0.2-1.3c0.2-1.1,0.3-1.5,1-1.6c1.3-0.1,2.5-0.6,3.5-1.3c1-0.7,1.8-1.5,2.3-2.6c0.3-0.7,0.3-1.1,0.1-1.3
				c-0.2-0.2-0.7-0.3-1.3-0.3c-0.6,0-1.4,0.1-2.2,0c-0.4,0-0.7,0-1.1-0.1c0.2-0.6,0.5-1.1,0.7-1.6c0.3-0.6,0.5-1,0.6-1.2
				c0.5-0.9,0.8-1.3,1.4-1.1c1.2,0.3,2.4,0.2,3.5-0.1c1.1-0.3,2.1-0.8,2.9-1.7c0.5-0.5,0.6-0.9,0.5-1.1c-0.1-0.3-0.6-0.5-1.1-0.7
				c-0.6-0.2-1.3-0.4-2-0.6c-0.3-0.1-0.6-0.2-0.9-0.4c0.3-0.3,0.5-0.6,0.8-0.9c0.4-0.5,0.8-0.8,0.9-0.9c0.8-0.7,1.1-1,1.7-0.7
				c1.1,0.6,2.2,1,3.4,1c1.1,0.1,2.2-0.2,3.2-0.7c0.6-0.3,0.9-0.6,0.8-0.9c-0.1-0.3-0.4-0.6-0.9-1c-0.5-0.4-1.1-0.7-1.7-1.2
				c0,0-0.1,0-0.1-0.1c0.7,0,1.4-0.3,2-0.6c0.8-0.4,1.7-1,2.4-1.7c0.7-0.7,1.3-1.6,1-2.4c-0.2-0.8-1.2-1.2-2.3-1.3
				c-1.2-0.1-2.5,0.2-3.4,0.6c-0.8,0.4-1.4,0.8-1.9,1.4c0-0.8,0.1-1.5,0.1-2.1c0.1-0.6,0.1-1.1-0.2-1.3c-0.2-0.2-0.7-0.2-1.7,0.3
				c-1.5,0.8-2.5,2-3.1,3.3c-0.6,1.3-0.7,2.6-0.3,3.8c0.2,0.6-0.2,0.9-1,1.7c-0.1,0.1-0.5,0.5-1,0.9c-0.3,0.3-0.6,0.6-0.9,0.9
				c-0.2-0.3-0.3-0.6-0.4-0.9c-0.3-0.7-0.4-1.5-0.5-2.1s-0.3-1.1-0.6-1.2c-0.3-0.1-0.8,0.1-1.5,0.8c-1.1,1.2-1.8,2.7-2,4.1
				c-0.2,1.4,0.2,2.7,0.9,3.7c0.3,0.5,0.1,1-0.4,1.9c-0.1,0.2-0.4,0.6-0.7,1.2c-0.3,0.5-0.6,1.1-0.9,1.7c-0.3-0.2-0.5-0.5-0.7-0.8
				c-0.5-0.7-0.9-1.4-1.3-1.9c-0.3-0.6-0.6-1-1-1c-0.3,0-0.7,0.3-1.2,1.3c-0.7,1.6-0.9,3.3-0.6,4.8c0.3,1.5,1.1,2.6,2.2,3.4
				c0.5,0.4,0.4,0.9,0.2,2.1c0,0.2-0.1,0.7-0.3,1.5c-0.1,0.7-0.2,1.5-0.3,2.3c-0.4-0.1-0.7-0.3-1-0.5c-0.7-0.5-1.4-1-2-1.5
				c-0.5-0.4-1-0.8-1.3-0.7c-0.3,0.1-0.6,0.6-0.7,1.8c-0.1,1.9,0.3,3.6,1.2,4.9c0.9,1.3,2.1,2.2,3.4,2.5c0.3,0.1,0.5,0.3,0.7,0.6
				c0.1,0.3,0.2,0.7,0.3,1.4c0,0.2,0.1,0.8,0.3,1.5c0.2,0.7,0.4,1.7,0.6,2.5c0,0,0,0.1,0,0.1c-0.4,0-0.8,0-1.2-0.1
				c-0.9-0.2-1.8-0.5-2.5-0.7c-0.7-0.2-1.3-0.4-1.6-0.1c-0.3,0.2-0.3,0.8,0,2c0.3,0.9,0.8,1.8,1.3,2.5c0.5,0.7,1.2,1.4,1.9,1.8
				c1.4,0.9,2.9,1.3,4.4,1.1c0.7-0.1,1.1,0.4,1.8,1.5c0.1,0.2,0.5,0.7,0.9,1.4c0.5,0.7,1.1,1.4,1.7,2.2c0.1,0.1,0.2,0.2,0.3,0.4
				c-0.4,0.2-0.8,0.3-1.2,0.4c-0.9,0.2-1.9,0.3-2.7,0.4c-0.8,0.1-1.4,0.2-1.6,0.5c-0.2,0.3,0,1,0.9,2c0.7,0.8,1.5,1.4,2.3,1.9
				c0.8,0.5,1.7,0.8,2.6,1c0.9,0.2,1.7,0.2,2.5,0c0.8-0.1,1.5-0.4,2.2-0.9c0.3-0.2,0.6-0.2,1-0.1c0.4,0.1,0.8,0.4,1.4,0.7
				c0.2,0.1,0.7,0.5,1.5,0.9c0.7,0.4,1.6,0.9,2.6,1.4C95.5,353.9,98.4,354.8,99.1,355z"/>
			<path class="st0" d="M116.8,356.8c-2.3,0.6-4.4,1.3-6.3,1.9c6.5,2.3,9.5,4,10,4.2c0.8,0.2,2.7-2.4,1.7-3.1
				C120.7,358.5,118.8,357.6,116.8,356.8z"/>
		</g>
	</g>
	<g>
		<rect x="135.1" y="95.5" class="st0" width="22.4" height="39.6"/>
		<rect x="166.5" y="78.8" class="st0" width="22.4" height="56.4"/>
		<rect x="103.7" y="111.5" class="st0" width="22.4" height="23.6"/>
		<path class="st0" d="M228.9,57.4l-18.4-31.7c-0.3-0.5-0.8-0.8-1.4-0.8c-0.6,0-1.1,0.3-1.4,0.8l-18.4,31.7c-0.3,0.5-0.3,1.1,0,1.6
			s0.8,0.8,1.4,0.8h7.2v75.4h22.4V59.8h7.2c0.6,0,1.1-0.3,1.4-0.8C229.2,58.5,229.2,57.9,228.9,57.4z"/>
	</g>
	<line class="st3" x1="0" y1="229" x2="335" y2="229"/>
	<line class="st3" x1="167.5" y1="229" x2="167.5" y2="419.5"/>
	<g>
		<g>
			<g>
				<g>
					<path class="st0" d="M246.8,194.9c-0.5,0.8-1.1,1.5-1.7,2.1c-0.1,0.1-0.2-0.1-0.2-0.2c1.2-2.2,2.2-4.6,2.8-6.9
						c0.3-1,0.4-2.1,0.5-3c2.4,0.6,2.6,0.7,2.6,1c0,0.2-0.1,0.3-0.8,0.5c-0.5,1.6-1.2,3.3-2.1,4.8c1.1,0.2,1.3,0.2,1.3,0.4
						c0,0.2-0.1,0.3-0.5,0.5v10.3c0,0.6-0.3,0.8-1.1,0.8c-0.6,0-0.9-0.2-0.9-0.8c0-0.5,0.1-2.1,0.1-5.3V194.9z M251.7,202.1
						c0,1.3-0.5,2.3-1.5,2.3c-0.6,0-0.9-0.4-0.9-0.9c0-0.5,0.2-0.7,0.8-1c0.9-0.4,1.3-0.9,1.3-1.6c0-0.1,0.2-0.1,0.2,0
						C251.7,201.3,251.7,201.7,251.7,202.1z M252.8,189.8c1.4,0.4,2.1,1,2.1,1.9c0,0.4-0.3,0.8-0.7,0.8h3.3c0.2-0.5,0.3-0.9,0.4-1.4
						c0.1-0.4,0.2-0.9,0.2-1.3c1.7,0.5,2.2,0.7,2.2,0.9c0,0.2-0.1,0.3-0.6,0.4c-0.8,0.8-1.1,1.1-1.6,1.4h2.7c0.9-1,1.1-1.2,1.2-1.2
						c0.2,0,0.4,0.2,1.2,0.8c0.4,0.3,0.5,0.5,0.5,0.6c0,0.1-0.1,0.2-0.3,0.2h-12.4c-0.4,0-0.9,0-1.4,0.1l-0.2-0.7
						c0.6,0.1,1.1,0.2,1.6,0.2h2.7c-0.3-0.1-0.5-0.2-0.6-0.6c-0.2-1.1-0.4-1.5-0.9-2.2h-0.2c-0.4,0-0.9,0-1.4,0.1l-0.2-0.7
						c0.6,0.1,1.1,0.2,1.6,0.2h3.2v-1.2c0-0.4,0-0.8-0.1-1.2c2.3,0.2,2.5,0.4,2.5,0.6c0,0.2-0.2,0.3-0.6,0.5v1.3h2.9
						c0.8-1,1.1-1.2,1.2-1.2c0.2,0,0.4,0.2,1.3,0.8c0.4,0.3,0.5,0.5,0.5,0.6s-0.1,0.2-0.3,0.2H252.8z M252.8,199.2
						c-0.1,0.4-0.4,0.6-1,0.6c-0.6,0-0.8-0.2-0.8-0.7c0-0.3,0.1-0.7,0.1-2c0-1.2,0-2.3-0.1-3.5c1,0.4,1.2,0.5,2.1,0.9h6.2
						c0.7-0.7,0.8-0.9,1-0.9c0.2,0,0.4,0.1,1.1,0.6c0.3,0.2,0.4,0.4,0.4,0.5c0,0.1-0.1,0.3-0.5,0.6v0.6c0,1.6,0,2.7,0,3.1
						c0,0.5-0.4,0.8-1.1,0.8c-0.5,0-0.7-0.2-0.7-0.6v0H252.8z M259.4,194.9h-6.6v1.7h6.6V194.9z M259.4,197.1h-6.6v1.7h6.6V197.1z
						 M259.6,202.7c0,0.3,0.1,0.4,0.2,0.4c0.5,0.1,0.6,0.3,0.6,0.7c0,0.4-0.3,0.7-0.9,0.9c-0.7,0.2-1.7,0.3-3.2,0.3
						c-2.6,0-3.4-0.3-3.4-1.4c0-0.4,0-0.9,0-2.6c0-0.3,0-0.6-0.1-0.9c2,0.2,2.2,0.3,2.2,0.5c0,0.2-0.2,0.3-0.5,0.4v1.7
						c0,0.6,0.3,0.7,1.9,0.7c0.8,0,1.4,0,1.7-0.1c0.6-0.2,0.7-0.7,1.2-2c0-0.1,0.2-0.1,0.2,0V202.7z M257,202.5
						c-0.5,0-0.5-0.1-0.8-1.1c-0.1-0.5-0.3-0.8-0.8-1.4c-0.1-0.1,0-0.2,0.1-0.1c1.7,0.3,2.5,0.8,2.5,1.7
						C257.9,202.1,257.5,202.5,257,202.5z M262.5,204.2c-0.5,0-0.7-0.2-0.9-1.2c-0.2-0.9-0.6-1.7-1.1-2.2c-0.1-0.1,0-0.2,0.1-0.2
						c2,0.6,2.8,1.3,2.8,2.4C263.4,203.7,263,204.2,262.5,204.2z"/>
					<path class="st0" d="M272.6,204.4c0,0.5-0.4,0.7-1.2,0.7c-0.6,0-0.9-0.2-0.9-0.7c0-1.8,0.1-3.6,0.1-10.8c0-2.1,0-4.2-0.1-6.3
						c1,0.5,1.2,0.6,2.3,1.1h11.3c0.7-0.8,0.9-1,1.1-1c0.2,0,0.4,0.1,1.1,0.8c0.3,0.3,0.5,0.4,0.5,0.6c0,0.2-0.1,0.3-0.5,0.6v2.2
						c0,9.7,0.1,10.1,0.1,11.3c0,1-0.3,1.5-0.9,1.8c-0.3,0.1-1,0.3-1.3,0.3s-0.4-0.1-0.5-0.5c-0.1-0.7-0.5-1.2-2.4-1.6
						c-0.1,0-0.1-0.2,0-0.2c1.1,0,2,0.1,2.7,0.1c0.3,0,0.3-0.1,0.3-0.4v-6.5h-11.6V204.4z M277.3,195.3v-6.4h-4.7v6.4H277.3z
						 M284.2,188.9h-4.9v6.4h4.9V188.9z"/>
				</g>
			</g>
		</g>
	</g>
	<g>
		<g>
			<path class="st1" d="M43.5,172l-4.7-12.6c1.4-1.2,3.1-2.2,5.1-3c2-0.8,4.1-1.4,6.4-1.8c2.3-0.4,4.6-0.6,6.8-0.6
				c3.8,0,7.2,0.6,10.2,1.7c3,1.1,5.4,2.8,7.2,4.9c1.8,2.1,2.6,4.7,2.6,7.7c0,2.2-0.5,4.3-1.4,6.3c-1,2-2.2,3.8-3.7,5.5
				c-1.5,1.7-3.2,3.2-5,4.7c-1.8,1.4-3.6,2.7-5.4,3.8c-1.8,1.1-3.4,2.2-4.8,3h13.3c1.4,0,2.7-0.3,3.8-0.8c1.1-0.5,2.2-1.3,3.1-2.4
				c1-1.1,1.8-2.5,2.6-4.1h0.7l-4.8,19.7H39.2v-0.7c2-2.5,4.1-4.9,6.2-7.4c2.1-2.5,4.2-4.9,6.2-7.4c2-2.5,3.8-4.9,5.4-7.3
				c1.6-2.4,2.8-4.8,3.8-7.2c0.9-2.4,1.4-4.7,1.4-7.1c0-3-0.8-5.4-2.4-7.1c-1.6-1.7-3.8-2.5-6.5-2.2c-2.9,0.2-5.2,1.6-6.7,4
				c-1.5,2.5-2.3,6-2.3,10.5H43.5z"/>
			<path class="st1" d="M87.5,193.5c1.1-0.8,2.3-1.2,3.6-1.2c1.3,0,2.6,0.4,3.7,1c1.2,0.7,2.1,1.7,2.6,3c0.9,2.1,1.3,4.1,1,6.3
				c-0.3,2.1-1,4-2.2,5.7c-1.2,1.7-2.7,3-4.5,3.9c-1.8,0.9-3.7,1.1-5.8,0.7l-0.3-0.9c0.8-0.4,1.6-1,2.2-1.9c0.7-0.9,1-1.9,0.9-3.1
				c0-1.2-0.7-2.5-1.9-3.9c-0.8-1-1.4-2.1-1.6-3.3s-0.1-2.4,0.3-3.6C86,195,86.6,194.1,87.5,193.5z"/>
			<path class="st1" d="M134.4,166.6l-21.5,1.8l-1.3,5.8c4.5-1.1,8.4-1.4,11.9-1c3.5,0.4,6.3,1.4,8.7,3c2.3,1.6,4.1,3.6,5.2,6
				c1.1,2.4,1.6,5.1,1.5,8.1c-0.1,3.5-1.1,6.4-2.9,9c-1.8,2.5-4,4.5-6.8,6.1c-2.8,1.5-5.8,2.6-9.1,3.2c-3.3,0.6-6.5,0.7-9.7,0.2
				c-3.2-0.4-6.1-1.3-8.7-2.7l0.1-0.7c1.2,0,2.7-0.1,4.5-0.3c1.8-0.3,3.6-0.7,5.6-1.4c1.9-0.7,3.8-1.5,5.5-2.6
				c1.7-1.1,3.1-2.4,4.3-4s1.8-3.4,1.9-5.5c0.2-2.7-0.5-4.7-2.2-6.3c-1.6-1.5-3.9-2.4-6.7-2.5c-2.8-0.2-6,0.5-9.6,1.9l-0.6-0.4
				l5.8-26.9l20.9-1.8c1.5,0,2.7-0.3,3.5-1c0.8-0.7,1.5-1.5,2-2.5h0.7L134.4,166.6z"/>
			<path class="st1" d="M147.1,168.5c0-3.1,0.8-5.8,2.3-7.9c1.5-2.2,3.6-3.8,6.2-5c2.6-1.1,5.5-1.7,8.8-1.7c3.1,0,5.9,0.5,8.6,1.5
				c2.6,1,4.8,2.4,6.4,4.2c1.6,1.8,2.4,3.9,2.4,6.3c0,2.2-0.7,4-2.1,5.5c-1.4,1.5-3.2,2.6-5.2,3.3c-2.1,0.7-4.2,1.1-6.4,1.1h-2.4
				c1.2-0.3,2.1-1.2,2.8-2.5c0.7-1.3,1.1-2.8,1.4-4.4c0.3-1.6,0.4-3,0.3-4.2c0-1.9-0.6-3.6-1.6-4.9c-1-1.4-2.5-2.1-4.4-2.2
				c-1.7-0.1-3.1,0.4-4,1.6c-1,1.1-1.4,2.6-1.4,4.3c0,1.3,0.3,2.4,0.9,3.4c0.6,1,1.7,1.9,3.2,2.9c1.5,1,3.6,2.2,6.2,3.7
				c2.2,1.2,4.3,2.3,6.3,3.3c1.9,1.1,3.7,2.2,5.1,3.4c1.5,1.2,2.6,2.6,3.5,4.1c0.8,1.6,1.2,3.5,1.2,5.7c0,3.3-0.9,6-2.7,8.3
				s-4.4,3.9-7.7,5s-7.1,1.7-11.5,1.7c-2.2,0-4.4-0.2-6.6-0.5c-2.2-0.3-4.3-1-6.2-1.8c-1.9-0.9-3.4-2.1-4.6-3.7
				c-1.1-1.6-1.7-3.6-1.7-6.1c0-2.2,0.5-4.1,1.4-5.6c0.9-1.5,2.1-2.8,3.5-3.7c1.4-1,2.8-1.7,4.3-2.2c1.5-0.5,2.9-0.9,4.1-1.1
				c1.2-0.2,2.1-0.3,2.6-0.3l3.4-0.8c-2.1,0.7-3.9,1.9-5.3,3.8c-1.4,1.9-2.1,4.5-2.1,7.8c0,3.3,0.7,5.8,2.1,7.6
				c1.4,1.8,3.3,2.8,5.7,3.1c1.5,0.1,3,0,4.2-0.5c1.3-0.5,2.3-1.2,3.1-2.1c0.8-1,1.2-2,1.2-3.3c0-0.8-0.2-1.6-0.5-2.3
				c-0.4-0.7-0.9-1.5-1.8-2.2c-0.8-0.8-2-1.6-3.4-2.5c-1.4-0.9-3.2-1.9-5.4-2.9c-1.3-0.7-2.7-1.4-4.3-2.3c-1.6-0.9-3.1-2-4.6-3.3
				c-1.5-1.3-2.7-2.9-3.7-4.8S147.1,171.1,147.1,168.5z"/>
			<path class="st1" d="M191.6,168.5c0-3.1,0.8-5.8,2.3-7.9c1.5-2.2,3.6-3.8,6.2-5c2.6-1.1,5.5-1.7,8.8-1.7c3.1,0,5.9,0.5,8.6,1.5
				c2.6,1,4.8,2.4,6.4,4.2c1.6,1.8,2.4,3.9,2.4,6.3c0,2.2-0.7,4-2.1,5.5c-1.4,1.5-3.2,2.6-5.2,3.3c-2.1,0.7-4.2,1.1-6.4,1.1h-2.4
				c1.2-0.3,2.1-1.2,2.8-2.5c0.7-1.3,1.1-2.8,1.4-4.4c0.3-1.6,0.4-3,0.3-4.2c0-1.9-0.6-3.6-1.6-4.9c-1-1.4-2.5-2.1-4.4-2.2
				c-1.7-0.1-3.1,0.4-4,1.6c-1,1.1-1.4,2.6-1.4,4.3c0,1.3,0.3,2.4,0.9,3.4c0.6,1,1.7,1.9,3.2,2.9c1.5,1,3.6,2.2,6.2,3.7
				c2.2,1.2,4.3,2.3,6.3,3.3c1.9,1.1,3.7,2.2,5.1,3.4c1.5,1.2,2.6,2.6,3.5,4.1c0.8,1.6,1.2,3.5,1.2,5.7c0,3.3-0.9,6-2.7,8.3
				s-4.4,3.9-7.7,5s-7.1,1.7-11.5,1.7c-2.2,0-4.4-0.2-6.6-0.5c-2.2-0.3-4.3-1-6.2-1.8c-1.9-0.9-3.4-2.1-4.6-3.7
				c-1.1-1.6-1.7-3.6-1.7-6.1c0-2.2,0.5-4.1,1.4-5.6c0.9-1.5,2.1-2.8,3.5-3.7c1.4-1,2.8-1.7,4.3-2.2c1.5-0.5,2.9-0.9,4.1-1.1
				c1.2-0.2,2.1-0.3,2.6-0.3l3.4-0.8c-2.1,0.7-3.9,1.9-5.3,3.8c-1.4,1.9-2.1,4.5-2.1,7.8c0,3.3,0.7,5.8,2.1,7.6
				c1.4,1.8,3.3,2.8,5.7,3.1c1.5,0.1,3,0,4.2-0.5c1.3-0.5,2.3-1.2,3.1-2.1c0.8-1,1.2-2,1.2-3.3c0-0.8-0.2-1.6-0.5-2.3
				c-0.4-0.7-0.9-1.5-1.8-2.2c-0.8-0.8-2-1.6-3.4-2.5c-1.4-0.9-3.2-1.9-5.4-2.9c-1.3-0.7-2.7-1.4-4.3-2.3c-1.6-0.9-3.1-2-4.6-3.3
				c-1.5-1.3-2.7-2.9-3.7-4.8S191.6,171.1,191.6,168.5z"/>
		</g>
	</g>
</g>
</svg>
