<svg enable-background="new 0 0 335 419.5" viewBox="0 0 335 419.5" xmlns="http://www.w3.org/2000/svg"><path d="m246.8 194.9c-.5.7-1.1 1.4-1.7 2.1-.1.1-.2-.1-.2-.2 1.2-2.2 2.1-4.5 2.8-6.9.3-1 .4-2 .5-3 2.4.6 2.6.7 2.6 1s-.1.3-.8.5c-.5 1.7-1.2 3.3-2.1 4.8 1.1.2 1.3.2 1.3.4s-.1.3-.5.5v10.3c0 .6-.3.8-1.1.8s-.9-.2-.9-.8.1-2.1.1-5.3zm4.9 7.2c0 1.3-.5 2.3-1.5 2.3-.5 0-.9-.3-.9-.8v-.1c0-.5.2-.7.8-1 .7-.2 1.3-.9 1.3-1.6 0-.1.2-.1.2 0 .1.4.1.8.1 1.2zm1.1-12.3c1.4.4 2.1 1 2.1 1.9 0 .4-.3.8-.7.8h3.3c.2-.5.3-.9.4-1.4.1-.4.2-.8.2-1.3 1.7.5 2.2.7 2.2.9s-.1.3-.6.4c-.5.5-1 1-1.6 1.4h2.7c.9-1 1.1-1.2 1.2-1.2s.4.2 1.2.8c.4.3.5.5.5.6s-.1.2-.3.2h-12.4c-.5 0-1 0-1.4.1l-.2-.7c.5.1 1.1.2 1.6.2h2.7c-.3 0-.5-.3-.6-.6-.1-.8-.4-1.5-.9-2.2h-.1c-.5 0-1 0-1.4.1l-.2-.7c.5.1 1.1.2 1.6.2h3.2v-1.2c0-.4 0-.8-.1-1.2 2.3.2 2.5.4 2.5.6s-.2.3-.6.5v1.3h2.9c.8-1 1.1-1.2 1.2-1.2s.4.2 1.3.8c.4.3.5.5.5.6s-.1.2-.3.2zm0 9.4c-.1.4-.4.6-1 .6s-.8-.2-.8-.7c0-.3.1-.7.1-2 0-1.2 0-2.3-.1-3.5.7.3 1.4.6 2.1.9h6.2c.7-.7.8-.9 1-.9s.4.1 1.1.6c.3.2.4.4.4.5s-.1.3-.5.6v.6 3.1c0 .5-.4.8-1.1.8-.5 0-.7-.2-.7-.6zm6.6-4.3h-6.6v1.7h6.6zm0 2.2h-6.6v1.7h6.6zm.1 5.7c0 .3.1.4.2.4.5.1.6.3.6.7s-.3.7-.9.9c-1 .2-2.1.3-3.2.3-2.6 0-3.4-.3-3.4-1.4 0-.4 0-.9 0-2.6 0-.3 0-.6-.1-.9 2 .2 2.2.3 2.2.5s-.2.3-.5.4v1.7c0 .6.3.7 1.9.7.6 0 1.2 0 1.7-.1.6-.2.7-.7 1.2-2 0-.1.2-.1.2 0zm-2.5-.3c-.5 0-.5-.1-.8-1.1-.2-.5-.4-1-.8-1.4-.1-.1 0-.2.1-.1 1.7.3 2.5.8 2.5 1.7-.1.5-.5.9-1 .9zm5.5 1.7c-.5 0-.7-.2-.9-1.2-.1-.8-.5-1.6-1.1-2.2-.1-.1 0-.2.1-.2 2 .6 2.8 1.3 2.8 2.4.1.6-.3 1.1-.9 1.2z" fill="#333"/><path d="m272.6 204.4c0 .5-.4.7-1.2.7-.6 0-.9-.2-.9-.7 0-1.8.1-3.6.1-10.8 0-2.1 0-4.2-.1-6.3 1 .5 1.2.6 2.3 1.1h11.3c.7-.8.9-1 1.1-1s.4.1 1.1.8c.3.3.5.4.5.6s-.1.3-.5.6v2.2c0 9.7.1 10.1.1 11.3 0 1-.3 1.5-.9 1.8-.4.2-.9.3-1.3.3-.3 0-.4-.1-.5-.5-.1-.7-.5-1.2-2.4-1.6-.1 0-.1-.2 0-.2 1.1 0 2 .1 2.7.1.3 0 .3-.1.3-.4v-6.5h-11.6v8.5zm4.7-9v-6.4h-4.7v6.4zm6.9-6.5h-4.9v6.4h4.9z" fill="#333"/><path d="m57.8 172-4.7-12.6c1.5-1.3 3.2-2.3 5.1-3 2.1-.8 4.2-1.4 6.4-1.8s4.5-.6 6.8-.6c3.5-.1 6.9.5 10.2 1.7 2.8 1 5.3 2.7 7.2 4.9 1.8 2.2 2.7 4.9 2.6 7.7 0 2.2-.5 4.3-1.4 6.3-1 2-2.2 3.8-3.7 5.4-1.5 1.7-3.2 3.2-5 4.7-1.8 1.4-3.6 2.7-5.4 3.9s-3.4 2.2-4.8 3h13.3c1.3 0 2.6-.3 3.8-.8 1.2-.6 2.3-1.4 3.2-2.4 1.1-1.2 1.9-2.6 2.6-4.1h.7l-4.7 19.5h-36.4v-.7c2-2.5 4.1-4.9 6.2-7.4s4.2-4.9 6.2-7.4c1.9-2.3 3.7-4.8 5.3-7.3 1.5-2.3 2.8-4.7 3.8-7.2.9-2.2 1.4-4.6 1.4-7.1.2-2.6-.7-5.2-2.4-7.1-1.7-1.8-4.1-2.6-6.5-2.2-2.8.1-5.3 1.6-6.7 4-1.5 2.5-2.3 6.1-2.3 10.7h-.8z" fill="#4aa064"/><path d="m101.9 193.5c1-.8 2.3-1.2 3.6-1.1 1.3 0 2.6.4 3.8 1 1.2.7 2.1 1.7 2.6 3 .9 2 1.3 4.1 1 6.3-.3 2.1-1 4-2.2 5.7-1.1 1.7-2.7 3-4.5 3.9s-3.9 1.1-5.8.7l-.4-1c.9-.4 1.7-1.1 2.2-1.9.7-.9 1-2 1-3.1-.2-1.5-.8-2.9-1.9-3.9-.8-.9-1.4-2.1-1.6-3.3s-.1-2.4.3-3.6c.3-1.1 1-2 1.9-2.7z" fill="#4aa064"/><path d="m148.8 166.7-21.5 1.8-1.3 5.8c3.9-1 7.9-1.4 11.9-1 3.1.3 6.1 1.3 8.7 3 2.3 1.5 4 3.6 5.2 6 1.1 2.5 1.6 5.3 1.5 8.1-.1 3.2-1 6.3-2.9 9-1.8 2.5-4.1 4.6-6.8 6.1-2.8 1.5-5.9 2.6-9.1 3.1-3.2.6-6.5.7-9.7.2-3-.4-6-1.3-8.7-2.7l.1-.7c1.5 0 3-.1 4.5-.4 1.9-.3 3.8-.8 5.6-1.4 1.9-.7 3.8-1.5 5.5-2.6 1.7-1 3.1-2.4 4.3-4 1.1-1.6 1.8-3.5 1.9-5.5.3-2.3-.5-4.6-2.2-6.3-1.9-1.6-4.2-2.5-6.7-2.5-3.3-.1-6.6.6-9.6 1.9l-.6-.4 5.8-26.9 20.9-1.8c1.2.1 2.5-.3 3.5-1 .8-.7 1.5-1.5 2-2.5h.7z" fill="#4aa064"/><path d="m159.3 203.9.1-.7h1.5c1 0 2-.4 2.7-1.1s1.1-1.7 1.1-2.7v-35.5c0-1.8-.4-3.1-1.3-3.8-1-.7-2.2-1.1-3.4-1h-1.3v-.7c1 0 2.3-.2 4-.4s3.4-.5 5.4-.8c1.9-.3 3.7-.8 5.6-1.3 1.6-.5 3.1-1.1 4.6-1.9h.7v45.5c0 1 .4 2 1.2 2.6.7.7 1.7 1.1 2.7 1.1h1.5v.7z" fill="#4aa064"/><path d="m221.4 153.9.6 5.2-24.9 24.2h28c1 .1 2.1-.2 2.9-.7.7-.5 1.3-1.3 1.6-2.1h.7l-2.2 10.1h-42.9v-.6zm.7 45.5c0 1 .4 2 1.2 2.7.7.7 1.7 1.1 2.7 1.1h.8v.7h-23.6l.1-.7h.7c1 0 2-.4 2.8-1.1s1.2-1.7 1.1-2.7zm-14.3-30.4 13.6-15.1h.7v49.9h-14.3z" fill="#4aa064"/><g fill="#333"><path d="m29.6 37.3v2c0 .3-.2.5-.7.5-.3 0-.5-.1-.5-.4s.1-1.8.1-3.1c-.8.9-1.7 1.7-2.8 2.2-.1 0-.2-.1-.1-.2 1.2-1.1 2.1-2.4 2.7-3.9h-1.3c-.3 0-.5 0-.8.1l-.2-.5c.3.1.6.1.9.1h1.6v-.4c0-.5 0-.9-.1-1.4 1.1.1 1.6.2 1.6.4s-.1.2-.4.4v1.1h.6c.5-.6.6-.7.7-.7s.3.1.7.5c.2.2.3.3.3.4s0 .1-.2.1h-2.2v.8c1.3.2 2.1.7 2.1 1.3 0 .3-.2.6-.5.6-.2 0-.5-.2-.5-.4-.2-.5-.5-1-1-1.3zm3.3-8.2c.6.6 1.3 1 2.1 1.3 1.1.4 2.3.7 3.5.8.1 0 .1.1 0 .2-.4.1-.7.4-.8.8-.2.4-.3.5-.4.5-.2 0-.5-.1-.7-.2-.7-.3-1.4-.7-2-1.2s-1.2-1.1-1.7-1.8v2.9c0 .4-.3.5-.8.5s-.6-.1-.6-.4 0-1.4.1-2.3c-1.5 1.3-3.3 2.3-5.3 2.7-.1 0-.1-.1-.1-.1 1.8-.8 3.3-2 4.6-3.5h-3c-.3 0-.6 0-.9.1l-.1-.5c.3.1.7.1 1 .1h3.8v-.6c0-.5 0-.9-.1-1.3 1.6.2 1.8.2 1.8.5s-.1.3-.5.4v1.1h2.9c.7-.9.9-1 1-1s.3.1 1 .7c.3.3.5.4.5.5s0 .1-.2.1zm2.4 8.2v1.9s-.2.5-.7.5-.5-.1-.5-.4 0-1.8.1-3.2c-.9 1.1-2.1 2-3.5 2.7-.1 0-.2-.1-.1-.2 1.4-1.1 2.5-2.5 3.2-4.1h-.6c-.3 0-.5 0-.8.1l-.3-.6c.3.1.6.1.9.1h1v-.6c0-.4 0-.8-.1-1.3 1.2.1 1.7.2 1.7.4s-.1.2-.4.4v1.1h1.2c.5-.7.7-.8.8-.8s.3.1.8.5c.2.2.4.3.4.4s0 .1-.2.1h-2.8c.4.7.8 1.3 1.4 1.8s1.3.9 2.1 1.1c.1 0 0 .1 0 .1-.4.2-.7.5-.8.9-.1.2-.1.2-.2.2s-.2-.1-.3-.2c-.4-.4-.8-.9-1.2-1.3-.5-.7-.8-1.4-1.1-2.2z"/><path d="m47 32.5c.8.3 1.3.8 1.3 1.4 0 .4-.2.7-.6.7-.3 0-.6-.1-.8-.4-.3-.4-.6-.7-1-1-.4-.4-.9-.6-1.5-.8v2.4c0 .6 0 1.9.1 3.4 0 .5-.2.7-.5.7-.2 0-.5-.1-.6-.3-.2-.3-.3-.7-.3-1.1 0-.1 0-.3.1-.4 0-.1.1-.2.1-.2 0-.2 0-.6.1-3.1 0-1.3 0-2.5 0-3.8 0-.4 0-.8-.1-1.2-.1-.1-.2-.3-.3-.3-.2-.1-.3-.2-.5-.2-.1 0-.1-.1-.1-.1s.1-.2.2-.2c.1-.1.3-.1.4-.1.5 0 1 .1 1.4.4.4.2.6.4.6.7 0 .2-.1.3-.2.5-.1.1-.1.2-.1.3 0 .4-.1 1.2-.1 2.5.8-.3 1.6-.1 2.4.2z"/><path d="m54.7 31.2 3.8-.4c.2 0 .4-.1.5-.2s.3-.1.4-.1c.4.1.8.3 1.1.7.3.3.3.4.3.6s-.2.2-.3.2-.3.2-.5.6c-.6 1.1-1.3 2.1-2.2 3.1-1.3 1.4-2.8 2.5-4.6 3.3-.1 0-.2.1-.3.1s-.1 0-.1-.1c0-.1.1-.1.2-.2 1.6-1.1 2.9-2.4 4-3.9.7-.9 1.3-1.9 1.8-3 0-.1.1-.2.1-.3 0 0 0 0-.1 0s-.2 0-.2 0c-1.5.1-2.6.3-4 .6-.3 0-.6.1-.8.2-.1.1-.3.1-.5.1s-.4-.1-.8-.4c-.3-.3-.5-.6-.5-1 0-.2.1-.4.1-.4s.1 0 .2.1c.3.3.7.5 1.1.5.2 0 .7-.1 1.3-.1zm.6-2.7c.5-.1 1.1-.2 1.7-.3.2 0 .4-.1.6-.2s.4-.1.5-.1c.6 0 1.2.3 1.2.6s0 .4-.3.5-.6.1-.9.1c-.6.1-2.1.2-3.2.4-.2 0-.5 0-.7 0-.5 0-.8-.2-1.2-.8-.1-.2-.2-.4-.2-.6 0-.1 0-.1.1-.1s.1 0 .2.1c.4.3.8.5 1.3.5.4-.1.7-.1.9-.1z"/><path d="m72.2 34.5c.5.2.9.5 1.3.9.8.6 1.2 1.2 1.2 1.6s-.2.7-.6.8c-.4 0-.7-.2-.9-.5-.5-.8-1-1.4-1.6-2.1-.4-.4-.9-.8-1.4-1.1-1 1.1-2.2 2-3.4 2.7-.8.5-1.6.8-2.4 1.1-.1 0-.2.1-.3.1s-.1 0-.1-.1c0-.1 0-.1.1-.2 1.6-.9 3.1-2 4.4-3.4 1.1-1.1 2-2.4 2.8-3.7 0-.1.1-.1.1-.2 0 0 0-.1-.2 0-1 .1-2.2.3-3.3.6-.2 0-.4.1-.6.2-.1.1-.3.2-.5.2-.3 0-.6-.2-.9-.7-.2-.2-.3-.6-.3-.9s.1-.4.2-.4.1 0 .2.2c.4.4.5.5 1 .5.2 0 .5 0 1.1-.1 1.2-.1 2.1-.2 3.1-.4.2 0 .4-.1.6-.2.1-.1.3-.2.4-.1.3 0 .6.2.7.4.4.4.6.6.6.8s0 .3-.5.4c-.1 0-.2.1-.3.3-.6.9-1.2 1.7-1.9 2.5.3.2.8.5 1.4.8z"/><path d="m83.6 32.5c.8.3 1.3.8 1.3 1.4 0 .4-.2.7-.6.7-.3 0-.6-.2-.8-.4-.3-.4-.6-.7-1-1-.4-.4-.9-.6-1.4-.8v2.4 3.4c0 .5-.2.7-.5.7-.2 0-.5-.1-.6-.3-.2-.3-.3-.7-.3-1.1 0-.1 0-.3.1-.4 0-.1.1-.2.1-.2 0-.2 0-.6.1-3.1 0-1.3 0-2.5 0-3.8 0-.4 0-.8-.1-1.2-.1-.1-.2-.3-.3-.3-.2-.1-.3-.2-.5-.2-.1 0-.1-.1-.1-.1s.1-.2.2-.2c.1-.1.3-.1.4-.1.5 0 1 .1 1.4.4.4.2.6.4.6.7 0 .2-.1.3-.2.5-.1.1-.1.2-.1.3 0 .4-.1 1.2-.1 2.5.7-.3 1.6-.1 2.4.2z"/><path d="m97.3 30.8c0 .2-.2.4-.4.5s-.3.2-.4.5c-.9 1.5-2 2.9-3.2 4.2-1.3 1.3-2.8 2.4-4.5 3-.1 0-.2.1-.3.1s-.1 0-.1-.1.1-.1.2-.2c1.5-1 2.9-2.2 4.1-3.6 1.1-1.3 2-2.7 2.8-4.2v-.1s0 0-.1 0c-.3 0-.8.1-1.4.3-.2.1-.5.1-.8.1s-.5-.1-.8-.2c-.5.7-1.1 1.3-1.7 1.9s-1.3 1.1-2 1.6c-.2.2-.4.2-.4.2s-.2-.1-.2-.2.2-.2.5-.6c.6-.6 1.2-1.3 1.7-2 .4-.5.8-1.1 1.1-1.7.2-.3.4-.7.5-1.1 0-.2-.2-.4-.5-.5s-.2-.1-.2-.2.2-.2.5-.2c.5.1 1 .2 1.4.5s.5.5.5.7-.1.3-.3.4c-.2.2-.4.4-.6.7h.2c.3 0 .6-.1 1.1-.1s1-.5 1.1-.5.2-.1.3-.2.2-.2.4-.2c.4 0 .9.3 1.1.6.2.2.3.4.4.6zm.7-1.9c.3.2.5.5.5.8s-.2.5-.5.5c-.2 0-.4-.1-.5-.3-.2-.5-.5-.9-.9-1.2-.1 0-.2-.1-.2-.2s.1-.1.2-.1.2 0 .3.1c.5 0 .8.1 1.1.4zm1.3-1c.3.1.5.4.5.7s-.2.5-.4.5c-.2 0-.4-.1-.5-.3-.3-.4-.6-.8-1-1.1-.1 0-.2-.1-.2-.2s0-.1.1-.1.2 0 .4 0c.4.1.8.3 1.1.5z"/><path d="m104.6 31c-.1 0-.2-.1-.2-.1s.3-.3.5-.3c.5.1 1 .2 1.5.5.3.2.4.4.4.6 0 .1-.1.3-.2.4s-.2.3-.2.5c-.3.9-.6 1.8-1.2 2.6-.7 1.1-1.7 2-2.8 2.6-.1 0-.2.1-.3.1s-.1 0-.1-.1 0-.1.1-.2c.8-.7 1.5-1.5 2-2.5.4-.8.8-1.6 1-2.4.1-.3.2-.7.2-1s-.4-.5-.7-.7zm3.2-.9c-.1-.2-.4-.4-.6-.5-.1 0-.2 0-.2-.1s.2-.3.6-.3c.5 0 .9.2 1.3.5.2.2.6.4.6.7 0 .2-.1.3-.2.4s-.1.2-.1.3c0 .9 0 1.8-.1 3.2v1c0 .1 0 .2.1.2s.2-.1.3-.1c1.7-.7 3.2-1.6 4.6-2.7.2-.1.3-.2.3-.2s.1 0 .1.1-.1.1-.1.2c-1.4 1.6-3 3-4.9 4-.1.1-.2.2-.3.3s-.2.2-.3.2c-.3-.1-.5-.2-.7-.5-.2-.2-.3-.5-.4-.8 0-.1 0-.2 0-.2.1-.3.1-.6.1-.8 0-1.1 0-2.1 0-3.9-.1-.4-.1-.7-.1-1z"/><path d="m127.7 33.9c-.4 0-1.4-.1-2.1-.1-1.1 0-3.5.1-5.2.2-.5 0-.9.1-1.4.3-.1.1-.2.1-.4.1-.4 0-.7-.3-1.1-1-.2-.2-.3-.5-.3-.8 0-.2.1-.3.2-.3s.1.1.2.1c.3.4.7.6 1.2.5.4 0 .6 0 1.5-.1 1.7-.1 3.6-.2 5-.2.4 0 .7 0 1.1-.2.1-.1.3-.1.4-.1.2 0 .4.1.6.1.5.2.9.4.9.8s-.2.7-.6.7z"/><path d="m133.7 31.2c-.2 0-.3.1-.5.2-.1.1-.3.1-.4.1-.2 0-.5-.2-.8-.6s-.5-.7-.5-1 .1-.4.2-.4.1.1.2.2c.3.4.7.6 1.2.6l1-.1c1.4-.1 2.8-.2 4.1-.4.2 0 .4-.1.6-.2.1-.1.2-.2.4-.2.3 0 .7.2.9.4.5.4.6.6.6.9 0 .1-.1.3-.3.4-.3.1-.5.4-.6.7-.7 1.4-1.6 2.6-2.7 3.7-1.3 1.3-2.9 2.4-4.6 3h-.2c-.1 0-.2 0-.2-.2s.1-.1.2-.2c1.5-.9 2.9-2.1 4-3.5.8-1.1 1.6-2.3 2.2-3.6.1-.1.2-.3.2-.5 0-.1-.1-.1-.1-.1-.2 0-.4 0-.6 0-1.4.4-3 .6-4.3.8zm8.9-2.7c0 .6-.5 1.2-1.2 1.2-.6 0-1.2-.5-1.2-1.2 0-.6.5-1.2 1.2-1.2.7.1 1.2.6 1.2 1.2zm-1.9 0c0 .4.4.8.8.7.4 0 .8-.4.7-.8 0-.4-.3-.7-.7-.7-.5.1-.8.4-.8.8z"/><path d="m31.1 54.4c-.1 3.2-1.4 4.7-5.1 5.3-.1 0-.1-.2 0-.2 2.9-1.1 3.8-2.4 3.8-5.3 0-.2 0-.3 0-.6 1.5.1 1.9.2 1.9.5s-.3.1-.6.3zm5.4-1.7c.5-.7.6-.7.8-.7s.2.1.9.7c.3.3.4.4.4.5s-.1.3-.6.3c-.1 0-.3 0-.4.1-.4.3-.9.6-1.3.9 0 0-.2 0-.1-.1.2-.5.4-.9.5-1.4h-8.8c0 1.1-.5 1.9-1.3 1.9-.3 0-.6-.2-.6-.6 0-.3.1-.5.5-.7.7-.3 1.1-1 1.1-1.7 0-.1.1-.1.2 0 .1.3.1.6.1.9zm-3.8-1.8h2.5c.7-.8.8-.9.9-.9s.3.1.9.6c.3.2.4.3.4.5s0 .1-.2.1h-8.8c-.3 0-.6 0-1 .1l-.1-.5c.3.1.7.1 1.1.1h3v-1.7h-4.2c-.3 0-.7 0-1 .1l-.2-.5c.4.1.7.1 1.1.1h4.2v-.6c0-.5 0-.9-.1-1.4 1.8.2 1.9.3 1.9.5s-.1.2-.5.3v1.2h3.5c.7-.8.8-.9.9-.9s.3.1 1 .6c.3.2.4.4.4.5s0 .1-.2.1h-5.6zm1.4 6.8c0 .4.1.5 1.3.5.5 0 .9 0 1.4-.1.4-.1.7-.7 1.1-2 0-.1.2-.1.2 0v1.5c0 .2 0 .2.1.3.4.2.5.4.5.6s-.2.5-.7.7c-.9.2-1.8.3-2.7.2-2 0-2.5-.2-2.5-1.2v-2.3c0-.8 0-1.5 0-2.3 1.8.3 1.8.3 1.8.5s-.1.2-.4.3z"/><path d="m47.9 58.6h3.4c.8-1 1-1.1 1.1-1.1s.3.1 1.1.8c.4.3.5.4.5.5s0 .1-.2.1h-10.8c-.5 0-.9 0-1.3.1l-.2-.5c.5.1 1 .1 1.5.1h3.5v-9.3c0-.7 0-1.3-.1-2 1.8.2 2 .3 2 .5s-.2.3-.5.4v4.2h2.3c.8-1 .9-1.1 1-1.1s.3.1 1.1.8c.3.3.5.4.5.5s0 .1-.2.1h-4.6z"/><path d="m62.3 47.6c0-.3 0-.6-.1-.8 1.8.2 1.9.3 1.9.5s-.2.3-.5.4v.8h3.5c.8-.8.9-1 1-1s.3.1.9.7c.3.3.4.4.4.5s0 .1-.2.1h-11.2c-.3 0-.7 0-1 .1l-.2-.5c.4.1.7.1 1.1.1h4.3zm4.9 6c.5-.5.6-.6.7-.6s.2.1.8.5c.2.2.3.3.3.4s-.1.3-.4.4v.7 3.5c0 .4-.2.8-.5 1s-.6.2-.9.2c-.2 0-.2 0-.3-.4s-.3-.6-1.2-.9c-.1 0-.1-.2 0-.2.7 0 1 .1 1.5.1.1 0 .2 0 .2-.2v-4.1h-8.4v5.2c0 .4-.2.6-.8.6s-.6-.1-.6-.5c0-.8 0-1.5 0-4.7 0-.5 0-1.1 0-1.6.5.2 1 .4 1.4.7zm-6.5-1.2c0 .5-.2.6-.8.6s-.5-.1-.5-.5 0-.7 0-2.1c0-.4 0-.8 0-1.1.5.2.9.4 1.4.7h4.4c.4-.5.5-.6.7-.6s.3.1.8.5c.2.2.3.3.3.4s-.1.2-.4.4v.3 1.5c0 .4-.2.6-.8.6-.4 0-.5-.1-.5-.5v-.1zm.9 5.1v.3c0 .4-.2.5-.7.5s-.5-.1-.5-.5 0-.6 0-1.9c0-.5 0-.9-.1-1.4.6.3.7.3 1.4.6h2.7c.4-.4.5-.5.6-.5s.3.1.8.5c.2.2.3.3.3.4s-.1.3-.4.5v.3 1.4c0 .4-.2.5-.7.5s-.5-.1-.5-.4v-.2zm3.7-7.2h-4.6v1.8h4.6zm-.8 5.2h-2.9v1.7h2.9z"/><path d="m240.2 369.9c.9-1.1 1.1-1.2 1.2-1.2s.3.1 1.2.8c.4.3.5.5.5.6s0 .2-.2.2h-5.6c0 1.7.1 3.3.1 4 0 .5-.3.7-1 .7-.5 0-.7-.1-.7-.6s.1-1.6.1-4.1h-5.6c-.4 0-.8 0-1.2.1l-.2-.6c.4.1.9.1 1.3.1h1.4v-2.2c0-.8 0-1.6-.1-2.4.6.2 1.1.5 1.7.8h2.6v-2.9h-3c-.9 1.4-2.1 2.6-3.6 3.5-.1 0-.2-.1-.2-.1 1.2-1.3 2.2-2.9 2.8-4.6.2-.6.4-1.2.5-1.8 1.7.5 2.1.7 2.1 1s-.2.3-.7.4c-.2.5-.5 1-.7 1.4h6.8c.8-1 1-1.1 1.1-1.1s.3.1 1.1.8c.4.3.5.4.5.5s0 .2-.2.2h-5.1v2.9h1.9c.8-.9.9-1 1.1-1s.3.1 1.1.7c.4.3.5.4.5.5s-.1.2-.2.2h-4.3v.5 2.9zm-4.5-3.4h-2.7v3.5h2.8v-3.5z"/><path d="m197.4 388.5c.3-.5.5-1.1.8-1.6.2-.4.3-.8.4-1.2 1.4.4 2.1.7 2.1.9s-.2.3-.7.3c-.6.6-1.2 1.1-1.8 1.6h3c.8-.9 1-1.1 1.1-1.1s.3.1 1.1.7c.4.3.5.4.5.5s-.1.2-.2.2h-12.8c-.4 0-.8 0-1.2.1l-.2-.6c.4.1.9.1 1.3.1zm-5.5 7.3v3.9c0 .4-.3.6-.9.6s-.7-.1-.7-.5c0-.9.1-1.8.1-5.3 0-1.5 0-3.1-.1-4.6.6.2 1.1.4 1.6.7h2.6c.5-.6.7-.7.8-.7s.3.1.8.5c.2.2.3.3.3.4s-.1.2-.4.5v1.2 6.4c0 .4-.1.7-.4 1-.3.2-.7.4-1.2.3-.2 0-.2-.1-.3-.3-.1-.5-.2-.8-1.5-1.2-.1 0-.1-.2 0-.2.6 0 1.1.1 1.6.1.1 0 .2 0 .2-.2v-2.6zm2.8-4.9h-2.8v2h2.8zm0 2.4h-2.8v2.1h2.8zm-.4-5c-.4 0-.6-.2-.7-.7-.1-.6-.4-1.2-.8-1.7 0-.1 0-.1 0-.1s0 0 .1 0c1.5.4 2.2.9 2.2 1.7.1.4-.2.8-.8.8.1 0 .1 0 0 0zm5 3.9v4.4s-.3.7-.9.7-.6-.1-.6-.6 0-1.9 0-4.8c0-.5 0-1-.1-1.4 1.8.2 2.1.3 2.1.5s-.2.3-.6.4zm1.7-.9c0-.5 0-.9-.1-1.4 1.9.2 2.1.3 2.1.5s-.2.3-.5.4v4.2c0 .8.1 2.7.1 3.6 0 .8-.5 1.4-1.3 1.5-.1 0-.2 0-.3 0-.4 0-.4 0-.5-.4s-.4-.8-1.7-1.1c-.1 0-.1-.2 0-.2.7 0 1.5.1 1.9.1s.4 0 .4-.2z"/><path d="m209.5 392.1c-.4.6-.9 1.1-1.4 1.6-.1.1-.2-.1-.2-.2 1-1.7 1.8-3.6 2.3-5.5.2-.8.3-1.6.4-2.4 1.9.5 2.1.6 2.1.8s0 .2-.6.4c-.4 1.3-1 2.6-1.7 3.8.8.1.9.2.9.4s-.1.2-.4.4v8.3c0 .5-.3.7-.9.7s-.7-.2-.7-.6.1-1.7.1-4.2zm6 5.1c.9-.1 1.7-.3 2.6-.5.1 0 .1.2.1.2-1.7.9-3.5 1.6-5.4 2.1 0 .4-.1.6-.3.6s-.3-.2-.8-1.9h1c.4 0 1-.1 1.5-.2v-2.8h-1.3c-.3 0-.6 0-.9.1l-.2-.6c.3.1.7.1 1 .1h1.3v-.6c0-.7 0-1.3-.1-1.8 1.7.2 1.9.3 1.9.5s-.2.3-.5.4v1.5h.7c.5-.7.7-.8.8-.8s.3.1.8.6c.2.2.3.3.3.5s0 .2-.2.2h-2.4zm-.1-9.7c-.5 1.1-1.1 2.1-1.8 3.1 1 0 2.1-.1 3.1-.2-.1-.6-.4-1.2-.8-1.7-.1-.1.1-.2.1-.1 1.4.8 2.2 1.6 2.2 2.4 0 .5-.3.9-.8.9-.4 0-.5-.2-.7-.9v-.1c-1.3.5-2.6.8-4 1.1-.1.3-.2.4-.4.4s-.3-.2-.7-1.8h1.4c.2-1 .4-2.1.6-3.1h-.4c-.3 0-.6 0-.9.1l-.2-.6c.3.1.7.1 1.1.1h3c.5-.8.7-.9.9-.9s.3.1.9.6c.3.2.4.4.4.5s-.1.2-.2.2zm5.6-.2c0-.4 0-.9-.1-1.3 1.8.2 1.9.3 1.9.5s-.1.2-.4.4v5.7c0 2.9.1 5 .1 5.9 0 .7-.1 1-.5 1.3-.3.2-.8.4-1.2.4s-.5-.1-.5-.4c-.1-.6-.4-.8-1.6-1.2-.1 0-.1-.2 0-.2.7 0 1.6.1 2.1.1.2 0 .2 0 .2-.2zm-1.1 2.3c0 3.4.1 5.7.1 6.5 0 .5-.2.7-.8.7s-.6-.2-.6-.6.1-1.9.1-4.8c0-2.3 0-3.6-.1-3.9 1.7.2 1.8.2 1.8.5s-.1.3-.4.4z"/><path d="m231.1 389.2c-.2.9-.2 1.9-.3 2.8-.1 1.7-.2 3.1-.2 4.1 0 .8.1 1.3.4 1.5.5.3 1 .4 1.5.4 1.2-.1 2.4-.4 3.5-1 1.1-.5 2-1.3 2.8-2.2.1-.1.2-.2.3-.2s.2.1.2.1c0 .2-.1.3-.2.4-.7 1.1-1.7 2.1-2.8 2.9-1.3.9-2.8 1.3-4.3 1.3-1.7 0-2.7-1.1-2.7-3.1.1-2.7.2-5.3.2-7.7 0-.6-.1-.9-.6-1.1s-.5-.2-.5-.3.1-.2.3-.3.5-.1.7-.1c.6 0 1.1.3 1.5.7.3.2.4.5.5.8 0 .2-.1.4-.2.5 0 .3-.1.4-.1.5z"/><path d="m251.5 389.5c-1.6.4-3.1.9-4.6 1.5-.2.1-.4.2-.6.4-.1.1-.3.2-.5.2-.3 0-.7-.2-1.2-.8-.3-.3-.5-.7-.6-1.1 0-.2.1-.5.2-.5s.1 0 .2.2c.6.6.7.6 1.2.6.9-.1 1.8-.3 2.7-.5 2-.5 3.6-.9 4.9-1.3.3-.1.6-.2.9-.3.2-.1.4-.2.6-.1.5 0 1 .1 1.5.2.3.1.5.3.5.6s-.1.6-.6.6c-.4 0-.7 0-1.6.1-1.4.1-2.7.7-3.7 1.7-.8.8-1.2 2-1.1 3.1 0 .9.4 1.8 1.2 2.4.8.5 1.6.8 2.6.8.4 0 .8.1 1.2.2s.6.4.6.8-.3.8-1 .8c-1.1 0-2.1-.3-3.1-.8-1.4-.7-2.3-2.1-2.4-3.7 0-.9.2-1.9.6-2.7.5-.9 1.2-1.7 2.1-2.4zm4.3 2.2c.4.2.6.6.6 1 0 .3-.2.5-.5.5-.2 0-.5-.1-.6-.4-.3-.5-.6-1-1-1.4-.1-.1-.2-.1-.2-.2s0-.1.1-.1h.3c.5.2.9.4 1.3.6zm1.5-1c.3.1.5.5.6.8 0 .3-.2.6-.5.6-.2 0-.5-.1-.6-.4-.3-.5-.7-.9-1.1-1.2-.1 0-.2-.1-.2-.2s0-.1 0-.1h.2c.6.1 1.2.2 1.6.5z"/><path d="m265.7 396.9c.3.7.8 1.1 1.5 1.4 1.2.3 2.4.4 3.6.4 2.1 0 4.1-.1 6.1-.4.1 0 .1.1 0 .2-.4.2-.6.5-.6.9 0 .5-.1.5-.4.6-.9.1-2.8.1-3.9.1-2.7 0-4.3-.2-5.4-.9-.8-.6-1.3-1.4-1.5-2.3-.5.9-1.1 1.7-1.8 2.4 0 .6 0 .7-.3.7s-.6-.6-1.2-2c.4-.1.7-.2 1.1-.4s.8-.4 1.2-.6v-4.2h-1.1c-.3 0-.6 0-.9.1l-.2-.6c.3.1.7.1 1 .1h1c.6-.6.7-.7.8-.7s.3.1.9.6c.3.2.4.3.4.5s0 .2-.5.5zm-.9-7.8c-.4 0-.6-.2-.8-1-.2-.7-.5-1.3-1-1.9-.1-.1 0-.2.1-.1 1.9.5 2.6 1.2 2.6 2 .1.5-.3.9-.8 1 0 0 0 0-.1 0zm7 .4h2.8c.6-.7.8-.9.9-.9s.3.1.9.6c.2.2.4.4.4.5s0 .2-.2.2h-3.7c1.1.4 1.4.5 1.4.7s-.1.2-.6.2c-.6.5-.8.7-1.2 1h1.7c.6-.7.8-.8.9-.8s.3.1.9.6c.2.2.4.3.4.5s0 .2-.2.2h-4.3v1.6h1.8c.5-.6.7-.8.8-.8s.3.1.8.5c.2.2.3.3.3.4s0 .2-.2.2h-3.6v1.6h2.6c.6-.7.8-.9.9-.9s.3.1.9.6c.3.2.4.4.4.5s0 .2-.2.2h-4.6v1.4c0 .5-.3.7-.9.7-.5 0-.6-.1-.6-.4s0-.7.1-1.6h-2.8c-.3 0-.6 0-.9.1l-.2-.6c.4.1.7.1 1.1.1h3v-1.6h-2.1c-.3 0-.6 0-.9.1l-.2-.6c.3.1.7.1 1 .1h2.1v-1.6h-2.9c-.3 0-.6 0-.9.1l-.2-.6c.3.1.7.1 1 .1h1.7c-.1-.1-.2-.3-.3-.6-.1-.5-.2-.9-.5-1.3 0-.1 0-.1.1-.1 1.1.3 1.7.7 1.7 1.3 0 .3-.2.6-.4.7h2.2c.2-.4.3-.7.4-1.1l.2-.9h-5.2c-.3 0-.6 0-1 .1l-.2-.6c.4.1.7.1 1.1.1h3v-1.7h-2.2c-.3 0-.6 0-.9.1l-.2-.6c.3.1.7.1 1.1.1h2.3v-.5c0-.4 0-.8-.1-1.3 1.7.2 1.9.3 1.9.5s-.1.3-.4.4v1h1.9c.6-.7.8-.8.9-.8s.3.1.9.6c.2.2.4.3.4.4s0 .2-.2.2h-3.8z"/><path d="m289.1 389c0-.2 0-.5 0-.7 0-.8-.1-1.6-.2-2.3 2 .2 2 .3 2 .5s-.1.3-.5.4v2.2h2.7c.9-1 1-1.1 1.1-1.1s.3.1.9.7c.3.3.4.4.4.5s-.1.2-.2.2h-4.8c.1 1.7.4 3.4.9 5.1.2-.3.3-.6.5-1 .4-.8.6-1.7.8-2.6 1.4.4 1.8.6 1.8.9s-.1.2-.5.4c-.4 1.3-1.1 2.6-1.9 3.7.4.6.8 1.2 1.3 1.7.4.4.7.6.8.6s.5-.4 1.1-1.7c0-.1.2 0 .2 0-.1 1.5-.1 1.8-.1 2s0 .3.2.6c.1.2.2.3.2.5 0 .4-.2.7-.6.7h-.1c-.7-.1-1.4-.4-1.9-.9-.8-.7-1.5-1.4-2-2.3-1.4 1.4-3 2.4-4.9 3-.1 0-.2-.1-.1-.2 1.7-1 3.2-2.4 4.4-4-.9-2.1-1.3-4.3-1.3-6.6h-4.9c0 1.1 0 1.8-.1 2.7h2.4c.5-.6.6-.8.8-.8s.3.1.9.6c.3.3.4.4.4.5s0 .2-.5.5c0 1.4-.2 2.7-.5 4-.1.4-.4.7-.7.9-.4.2-.8.3-1.2.2-.2 0-.2-.1-.3-.4-.2-.6-.3-.7-1.3-1.1-.1 0 0-.2.1-.2.4.1.9.2 1.4.2.6 0 .7-.1.9-1 .2-1.1.3-2.1.3-3.2h-2.5c0 1.5-.2 2.9-.6 4.3-.4 1.3-1.2 2.5-2.2 3.5-.1 0-.2-.1-.2-.1.6-1.2 1-2.4 1.2-3.7.2-1.7.3-3.4.3-5 0-1.2 0-2.1-.1-3.3.9.4 1 .5 1.8 1zm3.9-.5c-.2 0-.3 0-.4-.3-.3-.7-.7-1.2-1.3-1.6-.1 0 0-.2 0-.2 1.6.1 2.4.6 2.4 1.4-.1.3-.3.7-.7.7z"/><path d="m192.8 258.5c-.5 0-1.1-.1-1.6-.1s-1.1 0-1.7.1l-.5 1.5c-.3.5-.3 1-.2 1.6.1.3.6.4 1.1.5.1 0 .1 0 .1.2s0 .2-.1.2c-.5 0-1.2 0-1.8 0s-1 0-1.5 0c-.1 0-.1 0-.1-.2s0-.2.1-.2c.3-.1.6-.2.8-.4.4-.5.7-1 .9-1.6l1.7-4.5c.6-1.8.8-2.2 1-2.9l1.1-.5c.1 0 .2 0 .2.1.3.9.5 1.6 1.2 3.4l1.6 4.6c.2.6.4 1.1.7 1.6.2.3.4.3.9.4.1 0 .2 0 .2.2s0 .2-.2.2h-2-2c-.1 0-.1 0-.1-.2s0-.2.1-.2c.5 0 .9-.1 1-.4.1-.5 0-1-.2-1.5zm-1-3c-.3-.9-.4-1.3-.6-1.8-.2.6-.3.9-.6 1.8l-.9 2.5h1.6s1 0 1.4 0z"/><path d="m203.5 254c0-.4 0-.8 0-1.2-.1-.2-.3-.3-.5-.3h-.3c-.2 0-.2 0-.2-.2s0-.2.2-.2c.8-.2 1.5-.4 2.3-.6.1 0 .2.1.2.1-.1 1-.1 2.1-.1 3.4v5.3c0 .5 0 1 .1 1.5.1.2.3.2.4.2h.3c.1 0 .1 0 .1.1s0 .2-.1.2c-.6 0-1.6.1-2.2.2-.1 0-.1 0-.1-.2 0-.3 0-.6 0-1-.4.7-1.1 1.1-1.8 1.1-1.9 0-3-1.4-3-3.4-.2-1.7 1.1-3.3 2.9-3.5h.4c.6 0 1.2.3 1.6.7zm0 4.2c0-.4-.1-.9-.3-1.2-.2-.5-.7-.8-1.2-.8-1.1 0-1.7 1.2-1.7 3s.7 2.8 1.7 2.8c.5 0 .9-.3 1.2-.7.2-.3.3-.7.3-1.1z"/><path d="m210.9 259.9c.2.4.2.7.4 1.2.2-.5.3-.7.4-1.2l.6-1.8c.2-.4.3-.9.2-1.4-.1-.2-.4-.2-.7-.3-.1 0-.1 0-.1-.2s0-.2.1-.2h1.3s.8 0 1.2 0c.1 0 .1 0 .1.2s0 .1-.1.2c-.3 0-.5.2-.7.3-.3.4-.6.8-.7 1.3l-.9 2.6c-.3.7-.4 1-.6 1.6-.3.1-.6.2-.9.3-.1 0-.1 0-.1-.1-.2-.6-.4-1.1-.6-1.8l-1-2.6c-.2-.5-.4-1-.7-1.4-.2-.2-.3-.2-.7-.2-.1 0-.1 0-.1-.2s0-.2.1-.2h1.6s1.2 0 1.7 0c.1 0 .1 0 .1.2s0 .2-.1.2c-.4 0-.7 0-.8.2s.1.6.4 1.4z"/><path d="m221.4 260.8c0 .9.2 1.2.5 1.2.1 0 .3 0 .4-.1.1 0 .1 0 .2.1s.1.1 0 .2c-.3.2-.8.4-1.2.3-.5 0-1-.3-1.2-.8-.5.6-1.2.9-2 .8-1.4 0-1.8-.9-1.8-1.5 0-.5.2-.9.5-1.2.5-.4 1.1-.6 1.8-.8.4-.1.8-.3 1.1-.5.2-.1.3-.3.3-.5v-.4c0-1-.3-1.5-.8-1.5-.3 0-.5.1-.7.3s-.3.5-.2.8c0 .4-.4.7-1.1.7-.4 0-.6-.2-.6-.4 0-.7 1.1-1.7 2.8-1.7 2.1 0 2.1 1 2.1 2.1zm-1.4-2c-.1.2-.3.3-1.1.6-.6.2-1.1.8-1 1.5-.1.5.3 1.1.8 1.1.7 0 1.2-.5 1.2-1.2z"/><path d="m224.4 256.8c-.1 0-.2 0-.2-.1s0-.2.2-.2c.7-.2 1.5-.4 2.2-.6.1 0 .2.1.2.1v1.2c.4-.8 1.3-1.3 2.2-1.3 1.1 0 2 .8 2 1.9v.1 1.5 1c0 .5 0 1 .1 1.5.1.2.3.2.7.3.1 0 .1 0 .1.2s0 .1-.1.1c-.5 0-1 0-1.5 0s-1.1 0-1.6 0c-.1 0-.1 0-.1-.1s0-.2.1-.2c.4 0 .6 0 .7-.3.1-.5.2-1 .1-1.5v-1.9c0-.4 0-.8-.2-1.2-.1-.4-.5-.7-1-.7s-1 .3-1.3.8c-.2.3-.3.7-.3 1.1v1.9c0 .5 0 1 .1 1.5.1.2.3.2.8.3.1 0 .1 0 .1.2s0 .1-.1.1c-.5 0-1 0-1.5 0s-1.1 0-1.6 0c-.1 0-.1 0-.1-.1s0-.2.1-.2c.4 0 .6 0 .8-.3.1-.5.1-1 .1-1.5v-2.1c0-.4 0-.8-.1-1.2 0-.2-.2-.3-.4-.3z"/><path d="m239 256.1c.3.1.5.3.6.6 0 .5-.1.9-.6.9s-.7-.5-.8-.9-.4-.6-.7-.6c-1.1 0-1.6 1.2-1.6 2.9s1 2.8 1.9 2.8c.7 0 1.4-.4 1.8-1 .1-.1.1-.1.3 0s.1.1.1.2c-.5.9-1.5 1.5-2.5 1.5-1.7 0-3.2-1.4-3.2-3.1 0-.1 0-.2 0-.3-.1-1.8 1.3-3.4 3.2-3.5h.1c.3.1.8.2 1.4.5z"/><path d="m243.5 259.1c0 1.9 1.1 2.8 2 2.8.8 0 1.5-.3 1.9-1l.1-.1s.1 0 .1.1l.1.1c0 .1 0 .1-.1.2-.5.9-1.5 1.5-2.6 1.4-1.8 0-3.2-1.4-3.2-3.1 0-.1 0-.2 0-.3-.1-1.8 1.3-3.4 3.2-3.5h.1c1.5 0 2.7 1.2 2.7 2.6 0 .1 0 .2-.1.2-.1.1-.1.1-.2.1-1.4 0-2.8-.1-4.1 0 .1.2.1.4.1.5zm2.7-1c.1 0 .1-.1.1-.2 0-.8-.4-1.7-1.2-1.7s-1.3.8-1.6 2c1 0 1.8 0 2.7-.1z"/><path d="m253.7 261c1.2 0 1.4-.1 1.7-.3.3-.3.6-.7.8-1.1.1-.1.1-.1.2-.1s.1.1.1.2c-.2.7-.5 2-.8 2.7-.9 0-1.7 0-2.7 0s-1.9 0-2.8 0c-.1 0-.2 0-.2-.2 0-.1 0-.3.1-.4.7-1.3 1.5-2.5 2.4-3.6 1.2-1.5 1.9-2.3 1.9-3.6 0-1.2-.4-2-1.2-2-.5 0-1 .3-1.2.8-.1.3-.1.7-.1 1 0 .4-.5.6-1 .6s-.7-.1-.7-.5c.3-1.4 1.5-2.4 3-2.4 1.9 0 2.9 1.1 2.9 2.5 0 1.8-1.3 2.5-2.7 3.8-.9.7-1.7 1.6-2.3 2.6z"/><path d="m265.1 257.4c0 3.2-1.2 5.2-3.1 5.2s-3.1-1.9-3.1-5.2 1.1-5.3 3.1-5.3 3.1 2.1 3.1 5.3zm-4.6 0c0 2.9.3 4.8 1.5 4.8s1.5-1.9 1.5-4.8-.3-4.8-1.5-4.8-1.5 1.9-1.5 4.8z"/><path d="m271.1 261c1.2 0 1.5-.1 1.7-.3.3-.3.6-.7.8-1.1 0-.1.1-.1.2-.1s.2.1.1.2c-.2.7-.5 2-.8 2.7-1 0-1.7 0-2.7 0s-1.9 0-2.8 0c-.1 0-.2 0-.2-.2 0-.1 0-.3.1-.4.7-1.3 1.5-2.5 2.5-3.6 1.2-1.5 1.9-2.3 1.9-3.6 0-1.2-.4-2-1.2-2-.5 0-1 .3-1.2.8-.1.3-.1.7-.1 1 0 .4-.5.6-1 .6s-.7-.1-.7-.5c.3-1.4 1.5-2.4 3-2.4 1.9 0 2.9 1.1 2.9 2.5 0 1.8-1.3 2.5-2.7 3.8-.9.7-1.7 1.6-2.3 2.6z"/><path d="m278.5 253.7c-.8 0-1 .1-1.1.3-.2.3-.4.6-.5.9 0 .1-.1.1-.2.1s-.2-.1-.2-.1c.1-.7.3-1.8.4-2.6h2.8s1.8 0 2.7 0c.1 0 .1 0 .1.3v.4c-1.1 1.9-2 3.9-2.5 6.1-.1.6-.2 1.2-.2 1.9v.9s-.5.8-1.1.8-.9-.2-.9-.6c.1-1.2.4-2.5 1-3.6.8-1.6 1.7-3.2 2.7-4.7z"/><path d="m192.4 278.4c-.1 3.2-1.4 4.7-5.1 5.3-.1 0-.1-.2-.1-.2 2.9-1.1 3.8-2.4 3.8-5.3 0-.1 0-.3 0-.6 1.5.1 1.9.2 1.9.5s-.2.2-.5.3zm5.4-1.6c.5-.6.6-.7.8-.7s.2.1.9.7c.3.3.4.4.4.5s-.1.3-.6.3c-.1 0-.3 0-.4.1-.4.3-.9.6-1.3.9-.1 0-.2 0-.1-.1.3-.5.5-.9.6-1.4h-8.8c0 1.1-.5 1.9-1.3 1.9-.3 0-.6-.2-.6-.6 0-.3.1-.5.5-.7.7-.3 1.1-1 1.1-1.7 0-.1.1-.1.1 0 .1.3.1.6.2.9zm-3.8-1.8h2.5c.7-.8.8-.9.9-.9s.3.1.9.6c.3.2.4.4.4.5s0 .1-.2.1h-8.8c-.3 0-.7 0-1 .1l-.2-.5c.4.1.7.1 1.1.1h3v-1.7h-4.2c-.3 0-.7 0-1 .1l-.1-.5c.4.1.7.1 1.1.1h4.2v-.6c0-.5 0-.9-.1-1.4 1.8.1 1.9.3 1.9.5s-.1.2-.5.4v1.2h3.5c.7-.8.8-.9.9-.9s.3.1 1 .6c.3.2.4.4.4.5s-.1.1-.2.1h-5.5zm1.4 6.8c0 .4.1.5 1.3.5.5 0 .9 0 1.4-.1.4-.1.7-.7 1.1-2 0-.1.2-.1.2 0v1.5c0 .2 0 .2.1.3.4.2.5.4.5.6s-.2.6-.7.8c-.9.2-1.8.3-2.7.2-2 0-2.5-.2-2.5-1.2v-2.4c0-.8 0-1.5 0-2.3 1.8.2 1.8.2 1.8.5s-.1.2-.4.4z"/><path d="m209.1 282.6h3.4c.8-1 1-1.1 1.1-1.1s.3.1 1.1.8c.4.3.5.4.5.5s-.1.1-.2.1h-10.8c-.4 0-.9 0-1.3.1l-.2-.5c.5.1 1 .1 1.5.1h3.5v-9.3c0-.7 0-1.3-.1-2 1.9.1 2 .3 2 .5s-.2.3-.5.4v4.2h2.3c.8-1 .9-1.1 1-1.1s.3.1 1.1.8c.4.3.5.4.5.5s0 .1-.2.1h-4.6v5.9z"/><path d="m221.2 282.5v.6c0 .4-.3.6-.9.6s-.6-.1-.6-.5c0-1.4.1-2.8.1-8.5 0-1.2 0-2.3-.1-3.5.6.2 1.2.5 1.7.9h5.7c.5-.6.6-.7.8-.7s.3.1.8.5c.3.2.4.3.4.4s-.1.3-.4.5v1.7c0 4.4.1 7.5.1 8.5 0 .4-.3.6-.9.6s-.6-.1-.6-.5v-.6zm6-10.1h-6v2.9h6zm0 3.3h-6v2.9h6zm0 3.2h-6v3.3h6z"/><path d="m235.9 275.9c.9.3 1.5.9 1.5 1.5 0 .4-.2.7-.6.7s-.3-.1-.4-.5c0-.5-.2-1-.5-1.4 0 2.5.1 6 .1 7.2 0 .3-.3.5-.7.5s-.5-.1-.5-.4c0-.7.1-3.8.1-6.3-.4 1.2-1.1 2.3-1.9 3.2 0 0-.1 0-.1-.1.9-1.8 1.5-3.8 1.8-5.8h-.7c-.3 0-.6 0-.9.1l-.1-.5c.3.1.7.1 1 .1h.7v-1.4c0-.7 0-1.2-.1-1.8 1.5.2 1.8.2 1.8.5s-.1.3-.5.4v2.4c.3-.6.5-.7.6-.7s.2.1.6.5c.1.1.2.2.2.4 0 .1 0 .1-.2.1h-1.3zm3.4 5.2c-.8.9-1.8 1.5-2.9 1.9-.1 0-.1-.1-.1-.1.6-.6 1.2-1.2 1.6-2 .2-.3.3-.7.4-1 1.2.6 1.5.8 1.5.9s-.1.3-.5.3zm2.6-.5v2.1c0 .3-.1.6-.3.8-.3.3-.8.4-1.2.4-.1 0-.2-.1-.2-.3-.1-.5-.4-.7-1.4-1-.1 0-.1-.2 0-.2h1.6c.2 0 .2 0 .2-.2v-2.6h-2.8c-.3 0-.6 0-.9.1l-.2-.5c.3.1.7.1 1 .1h5.8c.6-.8.8-.9.9-.9s.3.1.9.6c.3.2.4.4.4.5s0 .1-.2.1h-3.8zm-3.2-4.2c0 .3-.2.5-.7.5-.3 0-.5-.1-.5-.4s0-.6 0-1.6c0-.6 0-1.2-.1-1.9.5.2.9.4 1.3.6h.9v-1.5h-1.4c-.4 0-.7 0-1.1.1l-.2-.5c.4.1.9.1 1.3.1h5.5c.6-.8.8-.9.9-.9s.3.1.9.6c.3.2.4.4.4.5s0 .1-.2.1h-2.9v1.5h1c.4-.5.5-.5.6-.5s.3.1.7.5c.2.2.3.3.3.4s-.1.3-.4.4v.3 1.7s-.2.4-.7.4c-.3 0-.5-.1-.5-.4v-.1h-5.3zm3.9 1.2c.6-.7.7-.8.8-.8s.3.1.8.6c.2.2.4.3.4.4s-.1.1-.2.1h-5.5c-.3 0-.5 0-.8.1l-.2-.5c.3.1.6.1.9.1zm-2.9-3.7h-1v2.1h1zm2.2-1.8h-1.1v1.5h1.1zm0 3.9v-2.1h-1.1v2.1zm3 7c-.4 0-.5-.1-.7-.6-.3-.9-.8-1.6-1.5-2.2-.1 0 0-.1.1-.1 1.8.5 2.9 1.2 2.9 2.1-.1.4-.4.7-.8.8zm-.8-9.1h-1.1v2.1h1.1z"/><path d="m76.3 391c-.4.6-.9 1.2-1.4 1.7-.1.1-.2-.1-.2-.2 1-1.7 1.7-3.6 2.2-5.5.2-.8.3-1.6.4-2.4 1.9.5 2.1.6 2.1.8s0 .2-.6.4c-.4 1.4-1 2.7-1.7 3.9.9.1 1 .2 1 .4s-.1.2-.4.4v8.3c0 .5-.3.7-.9.7s-.7-.2-.7-.6.1-1.7.1-4.2zm3.9 5.8c0 1-.4 1.9-1.2 1.9-.4 0-.7-.3-.7-.6 0 0 0 0 0-.1 0-.4.2-.6.6-.8.6-.2 1-.7 1.1-1.3 0-.1.2-.1.2 0zm.9-9.9c1.2.4 1.7.8 1.7 1.5 0 .3-.3.6-.6.7h2.6c.1-.4.2-.7.3-1.1.1-.3.1-.7.2-1 1.4.4 1.8.6 1.8.7s-.1.2-.5.3c-.4.4-.8.7-1.3 1h2.2c.7-.8.9-1 1-1s.3.1 1 .7c.3.2.4.4.4.5s0 .2-.2.2h-10c-.4 0-.8 0-1.2.1l-.2-.6c.4.1.9.1 1.3.1h2.2c-.2 0-.4-.2-.4-.5-.1-.6-.3-1.2-.7-1.7h-.1c-.4 0-.8 0-1.2.1l-.2-.6c.4.1.9.1 1.3.1h2.6v-1c0-.3 0-.7-.1-1 1.9.2 2 .3 2 .5s-.2.2-.5.4v1h2.3c.7-.8.9-.9 1-.9s.3.1 1 .6c.3.3.4.4.4.5s0 .2-.2.2zm0 7.5c0 .3-.3.5-.8.5s-.7-.2-.7-.6 0-.5 0-1.6 0-1.9-.1-2.8c.6.2 1.1.5 1.7.8h5c.5-.6.7-.7.8-.7s.3.1.8.5c.2.2.3.3.3.4s-.1.2-.4.5v.5 2.5s-.3.6-.9.6c-.4 0-.6-.1-.6-.5zm5.3-3.4h-5.3v1.3h5.3zm0 1.7h-5.3v1.3h5.3zm.1 4.6c0 .2 0 .3.2.3.4.1.5.2.5.5s-.2.6-.8.7c-.8.2-1.7.3-2.6.2-2 0-2.7-.3-2.7-1.1 0-.3 0-.7 0-2.1 0-.2 0-.5-.1-.7 1.6.2 1.8.2 1.8.4s-.1.3-.4.4v1.4c0 .5.2.5 1.5.5.5 0 .9 0 1.4-.1.4-.2.6-.6.9-1.6 0-.1.2-.1.2 0zm-2-.2c-.4 0-.4-.1-.7-.9-.1-.5-.4-.9-.7-1.2 0-.1 0-.1.1-.1 1.4.2 2 .7 2 1.4 0 .4-.3.7-.7.8 0-.1 0-.1 0 0zm4.4 1.3c-.4 0-.6-.2-.7-1-.1-.7-.4-1.3-.9-1.7-.1 0 0-.2.1-.1 1.6.5 2.3 1.1 2.3 1.9 0 .4-.3.8-.8.9z"/><path d="m97 398.5c0 .4-.3.6-1 .6s-.7-.1-.7-.5c0-1.4.1-2.9.1-8.7 0-1.7 0-3.3-.1-5l1.8.9h9c.6-.7.7-.8.8-.8s.3.1.9.6c.3.2.4.4.4.5s-.1.2-.4.5v1.8 9s-.2 1.2-.8 1.4c-.3.1-.6.2-.9.2s-.3-.1-.4-.4c-.1-.5-.4-.9-1.9-1.3-.1 0-.1-.2 0-.2h2.1c.2 0 .3-.1.3-.3v-5.2h-9.2zm3.7-7.2v-5.2h-3.7v5.2zm5.6-5.2h-3.9v5.2h3.9z"/><path d="m135 399c-.1 0-.2-.1-.1-.2 4.4-3.1 6.1-6.5 6.1-12.4 0-.4 0-.9-.1-1.3 2.1.2 2.3.2 2.3.5s-.1.2-.6.5c0 .5 0 1-.1 1.5.2 1.9.8 3.8 1.8 5.5 1.2 1.9 3.1 3.4 5.2 4.2.1 0 .1.2 0 .2-.5.1-1 .6-1.1 1.1-.1.3-.2.3-.3.3-.3-.1-.6-.3-.8-.5-1.8-1.3-3.1-3.1-4-5.1-.5-1.4-.9-2.8-1-4.3-.4 5.2-2.6 7.9-7.3 10z"/></g><path d="m41.8 345.2c3.2-.1 6.5.4 9.5 1.4 2.4.8 4.5 2.2 6.1 4.1 1.5 1.9 2.2 4.2 2.1 6.5 0 1.7-.4 3.5-1.2 5-.7 1.3-1.7 2.5-3 3.4-1.2.8-2.6 1.4-4.1 1.6-1.4.3-2.9.2-4.2-.2 1.5 0 3.1.2 4.6.7 1.7.5 3.3 1.2 4.7 2.3 1.6 1.1 2.9 2.6 3.8 4.3 1 2.1 1.5 4.4 1.5 6.7.1 3-.7 6-2.3 8.6-1.5 2.5-3.6 4.6-6.1 6.2-2.7 1.6-5.6 2.8-8.7 3.4-3.2.7-6.6.9-9.9.6-3.4-.3-6.6-1.2-9.7-2.6l.1-.7c2.8.1 5.5-.3 8.2-1 2.5-.7 4.8-1.8 6.8-3.3 1.9-1.4 3.5-3.2 4.7-5.3s1.8-4.6 1.7-7c.1-2.4-.6-4.8-2-6.8-1.3-1.7-3-3-5-3.8-1.9-.8-3.9-1.2-6-1.2l.1-.7c2.1.1 4.1-.5 6-1.5 1.8-1 3.3-2.5 4.3-4.3 1-1.9 1.4-4 1.2-6.1-.1-1.5-.6-3-1.5-4.2-.8-1-1.9-1.8-3.1-2.2-1.3-.4-2.6-.6-4-.4-2.5 0-4.8 1.4-6 3.7-1.2 2.2-1.7 5.5-1.6 9.9h-.7l-4-12.1c2.1-1.7 4.6-2.9 7.2-3.6 3.6-1 7.1-1.5 10.5-1.4z" fill="#4aa064"/><path d="m190.3 322.2 37.1-.1-9 20.8c-.6 1.4-1.3 3-2 4.9s-1.4 4-2.2 6.2-1.5 4.4-2.2 6.5-1.3 4.1-1.9 6-1 3.4-1.4 4.7h-11.9c.8-1.4 1.8-3.1 3-5.1s2.4-4.1 3.6-6.3 2.5-4.5 3.7-6.7 2.4-4.3 3.3-6.2 1.8-3.5 2.4-4.7l3.6-7.8h-22.4c-1.2-.1-2.4.3-3.3 1-.9.9-1.6 1.9-2 3.1h-.7z" fill="#4aa064"/><path d="m23.8 257c-.5.4-1 .8-1.6 1.1-.1 0-.1-.1-.1-.1.9-.9 1.7-2 2.3-3.1.3-.5.6-1 .7-1.6 1.4.7 1.5.7 1.5.9s-.1.2-.5.3c-.4.6-.8 1.1-1.2 1.6.5.1.6.1.6.3s-.1.2-.4.3v5.8c0 .4-.2.6-.7.6-.3 0-.6-.1-.6-.5s.1-1.5.1-3.7zm2.1-5.7c-.9 1.2-2.1 2.2-3.5 2.9l-.1-.1c.7-.7 1.4-1.6 1.9-2.5.3-.5.5-.9.6-1.5 1.1.4 1.7.7 1.7.9s-.2.3-.6.3zm5.2 10c.6.1 1.1.2 1.7.2.8 0 1.7-.1 2.5-.2.1 0 0 .1 0 .2-.4.2-.6.5-.6.9-.1.3-.1.4-.2.4h-.4c-1.4.1-2.9-.2-4.2-.8-.9-.6-1.6-1.5-2-2.6-.5 1.3-1.4 2.5-2.5 3.4l-.1-.1c1.3-1.8 1.9-3.9 1.9-6.1 0-.2 0-.4 0-.7 1.4.2 1.7.3 1.7.5s-.1.2-.4.3c-.1.8-.2 1.6-.5 2.4.4.8 1 1.5 1.9 1.9v-6.8h-2.2c-.3 0-.6 0-.8.1l-.2-.5c.3.1.6.1.9.1h3.1c.4-.8.7-1.6 1-2.5l.2-1c1.4.5 1.8.7 1.8.9s-.1.2-.5.2c-.6.9-1.2 1.6-1.9 2.3h1.7c.6-.8.8-.9.9-.9s.3.1.9.6c.3.2.4.4.4.4s0 .1-.2.1h-3.9v3.1h1.3c.6-.7.8-.9.9-.9s.3.1.9.6c.2.2.4.3.4.4s0 .1-.2.1h-3.2v4zm-2.2-8c-.4 0-.5-.1-.6-1.1-.1-.6-.4-1.1-.7-1.6 0-.1 0-.1.1-.1 1.4.5 2.1 1.2 2.1 1.9 0 .4-.3.9-.9.9.1 0 .1 0 0 0z" fill="#333"/><path d="m44.8 258.9c.7.6 1.5 1 2.3 1.4 1.2.5 2.4.7 3.7.8.1 0 .1.1 0 .2-.5.2-.7.3-1 1.2 0 .1-.1.2-.2.1-.2 0-.4-.1-.7-.2-.9-.3-1.7-.8-2.5-1.4-.7-.5-1.3-1.1-1.8-1.9 0 1.8.1 3.1.1 3.5s-.2.5-.8.5c-.4 0-.5-.2-.5-.5s.1-1.7.1-2.9c-1.5 1.5-3.4 2.5-5.5 2.8-.1 0-.1-.1-.1-.1 1.8-.8 3.4-2 4.7-3.6h-3.3c-.3 0-.7 0-1 .1l-.2-.5c.4.1.7.1 1.1.1h4.3v-1.3h-2.7c-.3 0-.7 0-1 .1l-.2-.5c.4.1.7.1 1.1.1h2.8v-1.3h-3.5c-.3 0-.7 0-1 .1l-.2-.5c.4.1.7.1 1.1.1h2.3c-.2-.1-.3-.2-.4-.6-.1-.5-.4-.9-.7-1.2 0-.1 0-.1.1-.1 1.3.2 1.9.6 1.9 1.3 0 .3-.2.6-.5.7h2.3c.2-.4.4-.8.6-1.2.1-.3.2-.6.3-.9 1.1.4 1.6.7 1.6.8s-.1.2-.6.2c-.4.4-.9.7-1.4 1h2.3c.7-.7.8-.9.9-.9s.3.1.9.6c.3.2.4.3.4.4s0 .1-.2.1h-5v1.3h2.2c.6-.7.8-.8.9-.8s.3.1.8.5c.2.2.3.3.3.4s0 .1-.2.1h-4v1.3h3.5c.7-.8.9-.9 1-.9s.3.1.9.6c.3.2.4.4.4.5s0 .1-.2.1zm-2.7-7.7c0-.3 0-.7-.1-1 1.6.1 1.7.3 1.7.4s-.1.2-.5.4v2h1.2v-1.8c0-.3 0-.7-.1-1 1.6.2 1.8.3 1.8.4s-.1.2-.5.4v2h.6c.3-.5.6-1 .8-1.6.1-.3.2-.6.3-.9 1.2.5 1.7.8 1.7.9s-.1.3-.6.3c-.5.5-1.1 1-1.7 1.4h1.6c.6-.7.8-.8.9-.8s.3.1.9.6c.3.2.4.3.4.4s0 .1-.2.1h-11.2c-.3 0-.7 0-1 .1l-.2-.5c.4.1.8.1 1.1.1h3v-1.9zm-1.5 1.5c-.3 0-.5-.1-.6-.6s-.4-1-.8-1.4c-.1 0 0-.1.1-.1 1.3.2 2 .7 2 1.4.1.4-.3.7-.7.7z" fill="#333"/><path d="m58.1 261.7c-1.4.7-3 1.2-4.6 1.3-.1 0-.1-.1 0-.2 1-.4 1.9-.8 2.8-1.4.4-.2.7-.5 1-.9 1.3.6 1.6.8 1.6 1s-.2.3-.8.2zm-1.7-1.5c0 .4-.2.6-.8.6s-.6-.1-.6-.5c0-.6.1-1.3.1-3.6 0-.9 0-1.9-.1-2.8.5.2 1 .5 1.5.7h6.3c.5-.5.6-.6.7-.6s.3.1.8.5c.3.2.3.3.3.4s-.1.2-.4.4v.9c0 2 .1 3.4.1 3.9s-.2.6-.8.6-.6-.1-.6-.5zm.6-6.7c0 .4-.3.5-.8.5-.3 0-.6-.1-.6-.4s0-.9 0-1.7c0-.6 0-.9 0-1.5.5.2 1 .5 1.5.7h5c.5-.6.6-.6.7-.6s.3.1.8.5c.2.2.3.3.3.4s-.1.2-.4.4v.3 1.4c0 .4-.3.5-.8.5s-.6-.1-.6-.5zm5.9 1.5h-6.6v1.4h6.6zm-6.5 3.1h6.6v-1.4h-6.6zm0 1.8h6.6v-1.4h-6.6zm6-8.4h-5.4v1.7h5.3zm2.1 11.5c-.3 0-.4-.1-.8-.4-.8-.8-1.9-1.4-3-1.7-.1 0 0-.1 0-.1 3.1.1 4.4.6 4.4 1.6.1.3-.2.6-.6.6 0 0 0 .1 0 0z" fill="#333"/><path d="m78.8 256.4c.8-1 1-1.1 1.1-1.1s.3.1 1.1.8c.4.3.5.4.5.5s0 .1-.2.1h-11c-.4 0-.8 0-1.4.1l-.2-.5c.5.1 1 .1 1.5.1z" fill="#333"/><path d="m84.1 262.8c-.1 0-.2-.1-.1-.1 3.8-2.7 5.3-5.7 5.3-10.8 0-.4 0-.8-.1-1.2 1.8.2 2 .2 2 .5s-.1.2-.5.4v1.3c.2 1.7.7 3.4 1.6 4.8 1.1 1.7 2.7 3 4.6 3.7.1 0 .1.2 0 .2-.5.1-.7.4-.9 1-.1.2-.1.3-.3.3-.3-.1-.5-.2-.7-.4-1.5-1.2-2.7-2.7-3.5-4.5-.5-1.2-.8-2.5-.9-3.8-.4 4.4-2.3 6.8-6.5 8.6z" fill="#333"/><path d="m109.2 256.1c.5-.6.6-.6.7-.6s.3.1.8.5c.2.2.3.3.3.4s0 .1-.4.4v.9 4.7c0 .4-.3.6-.8.6-.4 0-.5-.1-.5-.5v-.4h-7.8c-.3 0-.6 0-.9.1l-.2-.5c.4.1.7.1 1.1.1h7.9v-2.7h-7.4c-.3 0-.6 0-.9.1l-.2-.5c.4.1.7.1 1.1.1h7.3v-2.4h-7.6c-.3 0-.7 0-1 .1l-.2-.5c.4.1.8.1 1.1.1h3.2v-4.4c0-.4 0-.9-.1-1.3 1.7.1 1.9.3 1.9.4s-.2.2-.5.4v4.9zm-6.4-1c-.4 0-.6-.2-.7-.9-.2-1-.6-1.9-1.2-2.6 0-.1 0-.1.1-.1 1.7.7 2.6 1.7 2.6 2.7-.1.5-.4.9-.8.9zm7.7-2.6c-.8 1.1-1.7 2.2-2.8 3-.1 0-.2-.1-.2-.1.6-.9 1-1.9 1.4-2.9.2-.4.3-.8.4-1.2 1.3.5 1.7.7 1.7.9s0 .2-.5.3z" fill="#333"/><path d="m121.1 252.9c.2 0 .4 0 .6.1s.3.2.3.4-.1.4-.4.5c-.8.3-1.5.5-2.3.7-.2.6-.7 1.9-1 2.7s-.8 2.2-1.6 4.1c-.2.5-.5.7-.8.7-.2 0-.3-.1-.4-.2s-.2-.3-.2-.5c.1-.4.2-.7.4-1 .9-1.8 1.8-3.7 2.5-5.6-.5.1-1 .2-1.5.2-.5.1-1-.2-1.3-.6-.2-.2-.3-.5-.4-.7 0-.1 0-.1.1-.1s.1.1.2.1c.3.3.7.4 1.1.4.7 0 1.4-.1 2.2-.3.2-.6.4-1.2.4-1.8 0-.2-.1-.4-.3-.5s-.3-.1-.5-.2c-.1 0-.2-.1-.2-.1s0-.2.2-.2c.2-.1.4-.2.7-.2.5 0 1 .2 1.4.6.1.1.2.2.2.4s-.1.3-.2.4c-.3.2-.3.5-.7 1.4.3-.1.6-.2.9-.4.2-.2.4-.3.6-.3zm-.2 5.9c-.1.3-.1.6-.1.9 0 .8.7 1.3 2.1 1.3.5 0 .9 0 1.4-.1.2-.1.5-.1.7-.1s.5.1.7.2.4.3.3.6c0 .4-.3.5-.8.6s-1 .1-1.5.1c-.6 0-1.3-.1-1.9-.2-1-.2-1.7-1-1.7-2 0-.5.1-1 .4-1.4.1-.1.2-.2.2-.2s.1 0 .1.1c.1 0 .1.1.1.2zm1.5-3c-.6.1-1.1.3-1.6.5h-.1c-.1 0-.1 0-.1-.1s0-.1.1-.2c.4-.4.8-.6 1.3-.9.6-.2 1.2-.3 1.8-.3.5 0 1.1.1 1.6.3.3.1.5.4.5.7 0 .2-.2.4-.5.4-.2 0-.4 0-.6-.1-.2 0-.3 0-.5 0-.7.1-1.4.4-2 .8-.1 0-.1.1-.2.1s-.1-.1-.1-.1c.4-.4.9-.8 1.3-1.2-.4 0-.7 0-.9.1z" fill="#333"/><path d="m132.4 254.4c.2-.6.4-1.1.8-1.6.3-.4.7-.6 1.2-.6.7 0 1.3.4 1.6 1 .5.9.7 1.9.7 2.9.1 1.3-.3 2.6-1 3.7-.5.7-1.1 1.3-1.8 1.7-.7.5-1.6.8-2.4 1-.1 0-.3.1-.4.1s-.2 0-.2-.1.1-.1.2-.2c1.4-.5 2.5-1.4 3.3-2.5.7-1.2 1-2.5.9-3.8 0-.8-.1-1.6-.3-2.3-.2-.6-.5-.8-.9-.8-.6 0-1.1.5-1.8 3.4-.1.5-.2 1-.3 1.5 0 .3 0 .6.1.9 0 .4-.1.5-.5.5-.3 0-.8-.5-.9-1-.2-.6-.2-1.2-.2-1.9 0-1 .1-2 .3-3.1.1-.4.1-.8.1-1.2 0-.3-.1-.6-.4-.9-.1-.1-.1-.1-.1-.2s.1-.2.3-.2c.1 0 .3.1.4.2.4.2.8.6 1 1 .1.2.2.4.2.6s-.1.3-.2.4-.2.3-.2.4c-.3.8-.5 1.6-.5 2.4v.8c0 .1.1.1.2 0 .3-.9.5-1.4.8-2.1z" fill="#333"/><path d="m146.8 254c0 .5-.1 1-.3 1.5-.2.7-.5 1.4-.9 2-.4.8-.9 1.6-1.6 2.3-.3.4-.7.6-1.2.6-.4 0-.8-.2-1.1-.5-.6-.7-.9-1.6-.8-2.5 0-.7.2-1.5.6-2.1.4-.8 1.1-1.5 1.9-2 1-.6 2.2-.9 3.4-.9 1.3-.1 2.5.3 3.5 1.1 1.1.9 1.7 2.2 1.6 3.6 0 1.1-.5 2.2-1.3 2.9-.6.5-1.3 1-2.1 1.2-.9.3-1.9.5-2.9.5-.2 0-.3 0-.3-.1s.1-.1.3-.2c1.4-.2 2.6-.9 3.6-1.8.9-.8 1.3-2 1.3-3.2.1-1-.4-2-1.2-2.6-.7-.5-1.4-.7-2.2-.8-.3 0-.6 0-.9 0 .4.1.5.6.6 1zm-3.4.1c-.5.5-.9 1.1-1.2 1.7-.2.4-.2.9-.2 1.3 0 .5.1 1.1.4 1.5.1.2.4.4.6.5.2 0 .4-.1 1-.9.8-1.1 1.4-2.2 1.9-3.4.2-.4.3-.8.3-1.2 0-.2-.1-.5-.3-.6-1 .1-1.8.5-2.5 1.1z" fill="#333"/><path d="m27.6 277.7c-.1 3.2-1.4 4.7-5.1 5.3-.1 0-.1-.2-.1-.2 2.9-1.1 3.8-2.4 3.8-5.3 0-.2 0-.3 0-.6 1.5.1 1.9.2 1.9.5s-.1.2-.5.3zm5.4-1.7c.5-.6.7-.7.8-.7s.2.1.9.7c.3.3.4.4.4.5s-.1.3-.6.3c-.1 0-.3 0-.4.1-.4.3-.9.6-1.3.9 0 0-.2 0-.1-.1.3-.5.5-.9.6-1.5h-8.8c0 1.1-.5 1.9-1.3 1.9-.3 0-.6-.2-.6-.6 0-.3.1-.5.5-.7.7-.3 1.1-1 1.1-1.7 0-.1.1-.1.1 0 .1.3.1.6.1.9zm-3.7-1.8h2.5c.7-.8.8-.9.9-.9s.3.1.9.6c.3.2.4.4.4.5s0 .1-.2.1h-8.8c-.3 0-.7 0-1 .1l-.1-.5c.3.1.7.1 1.1.1h3v-1.7h-4.1c-.3 0-.7 0-1 .1l-.2-.5c.4.1.7.1 1.1.1h4.2v-.6c0-.5 0-.9-.1-1.4 1.8.2 1.9.3 1.9.5s-.1.2-.5.3v1.1h3.5c.7-.8.8-.9.9-.9s.3.1 1 .6c.3.3.4.4.4.5s0 .1-.2.1h-5.6c0 0 0 1.8 0 1.8zm1.3 6.8c0 .4.1.5 1.3.5.5 0 .9 0 1.4-.1.4-.1.6-.7 1.1-2 0-.1.2-.1.2 0v1.5c0 .2 0 .2.1.3.4.2.5.4.5.6s-.2.6-.7.8c-.9.2-1.8.3-2.7.2-2 0-2.5-.2-2.5-1.2v-2.3c0-.8 0-1.5 0-2.3 1.8.2 1.8.2 1.8.5s-.1.2-.4.4z" fill="#333"/><path d="m44.4 281.9h3.4c.8-1 1-1.1 1.1-1.1s.3.1 1.1.8c.4.3.5.4.5.5s0 .1-.2.1h-10.8c-.4 0-.9 0-1.3.1l-.2-.5c.5.1 1 .1 1.5.1h3.5v-9.3c0-.7 0-1.3-.1-2 1.8.1 2 .3 2 .5s-.2.3-.5.4v4.2h2.3c.8-1 .9-1.1 1-1.1s.3.1 1.1.8c.3.3.5.4.5.5s0 .1-.2.1h-4.6z" fill="#333"/><path d="m58.8 271c0-.3 0-.5-.1-.8 1.8.1 1.9.3 1.9.5s-.2.3-.5.4v.8h3.4c.8-.8.9-1 1-1s.3.1.9.7c.3.2.4.4.4.5s0 .1-.2.1h-11c-.3 0-.7 0-1 .1l-.2-.5c.4.1.7.1 1.1.1h4.3zm4.9 6c.5-.5.6-.6.7-.6s.2.1.8.5c.2.2.3.3.3.4s-.1.3-.4.4v.7 3.5c0 .4-.2.8-.5 1s-.6.2-.9.2c-.2 0-.2 0-.3-.4s-.3-.6-1.2-.9c-.1 0-.1-.2 0-.2.7.1 1 .1 1.5.1.1 0 .2 0 .2-.2v-4.2h-8.4v5.2c0 .4-.2.6-.8.6s-.5-.1-.5-.5c0-.8 0-1.5 0-4.6 0-.5 0-1.1 0-1.6.5.2 1 .4 1.4.7zm-6.4-1.2v.1c0 .4-.2.5-.8.5s-.5-.1-.5-.5 0-.7 0-2.1c0-.4 0-.8 0-1.1.5.2.9.4 1.4.7h4.4c.4-.5.5-.6.7-.6s.3.1.8.5c.2.2.3.3.3.4s-.1.2-.4.4v.3 1.5c0 .4-.2.6-.8.6-.4 0-.5-.1-.5-.5v-.1zm.8 5.1v.3c0 .4-.2.5-.7.5-.4 0-.5-.1-.5-.5s0-.6 0-1.9c0-.5 0-.9 0-1.4.6.3.7.3 1.4.6h2.7c.4-.5.5-.5.7-.5s.2.1.7.5c.2.2.3.3.3.4s-.1.2-.4.4v.3 1.4c0 .4-.2.5-.7.5s-.5-.1-.5-.4v-.2zm3.8-7.2h-4.6v1.8h4.6zm-.9 5.2h-2.9v1.7h2.9z" fill="#333"/><path d="m131.1 383.5-15 15" fill="none" stroke="#333" stroke-miterlimit="10"/><path d="m280.9 341.6h-.1z" fill="#333"/><path d="m315.5 317.3c-.6-.9-1.4-1.8-2.2-2.6-.3-.3-.5-.6-.8-.9-.1-.2-.2-.3-.3-.5 0-.1 0-.2 0-.4 0-.7.2-1.4.4-2.1.3-1 .4-2 .5-3 0-.9-.2-1.8-.6-2.5-.3-.5-.6-.9-1-1.2-.6-.5-1.3-.9-2-1.2-1-.4-1.9-.6-2.7-.9-.3-.1-.6-.2-.9-.4-.1-.1-.3-.2-.4-.3-.2-.2-.4-.5-.5-.8-.3-.7-.5-1.8-1-2.9-.2-.6-.5-1.2-.9-1.7-.4-.7-1-1.2-1.6-1.6-.8-.4-1.7-.7-2.5-.6-1 0-2 .2-3 .5-.7.2-1.4.3-2.1.4-.1 0-.2 0-.4 0-.3-.1-.5-.3-.8-.5-.6-.5-1.4-1.2-2.3-2-.5-.4-1-.8-1.6-1.1-.7-.4-1.5-.5-2.2-.5-1 0-2 .3-2.8.9-.9.7-1.8 1.4-2.6 2.2-.3.3-.6.5-.9.8-.1.1-.3.2-.5.3-.1 0-.2 0-.4 0-.7 0-1.4-.2-2.1-.4-1-.3-2-.4-3-.5-.9 0-1.8.2-2.5.6-.5.3-.9.6-1.2 1-.5.6-.9 1.3-1.2 2-.4 1-.6 1.9-.9 2.7-.1.3-.2.6-.4.9-.1.1-.1.3-.3.4-.2.2-.5.4-.8.5-.7.3-1.8.5-2.9 1-.6.2-1.2.5-1.7.8-.7.4-1.2 1-1.6 1.6-.4.8-.7 1.7-.6 2.5 0 1 .2 2 .5 3 .2.7.3 1.4.4 2.1v.4c-.1.3-.3.5-.5.8-.5.6-1.2 1.3-2 2.3-.4.5-.8 1-1.1 1.6-.4.7-.5 1.5-.6 2.2 0 1 .3 2 .9 2.8.7.9 1.4 1.8 2.2 2.6.3.3.5.6.8.9.1.2.2.3.3.5v.4c0 .7-.2 1.4-.4 2.1-.3 1-.4 2-.5 3 0 .9.2 1.8.6 2.5.3.5.6.9 1 1.2.6.5 1.3.9 2 1.2 1 .4 1.9.6 2.7.9.3.1.6.2.9.4.1.1.3.1.4.3.2.2.3.5.4.7.2.4.3 1 .5 1.6.2.5.3 1.1.6 1.7.2.6.6 1.3 1 1.8.2.3.4.5.7.7l-6.9 14.6 9.4-.3 5.8 7.3 6.6-14.3 6.6 14.3 5.8-7.3 9.4.3-6.5-14h.1c.5-.3 1-.8 1.4-1.3.4-.6.8-1.3 1-2 .4-1 .6-1.9.8-2.6.1-.3.2-.6.4-.9.1-.1.1-.3.2-.4.2-.2.5-.3.8-.5.7-.3 1.8-.5 2.9-.9.6-.2 1.2-.5 1.7-.8 1.4-.9 2.3-2.5 2.2-4.2 0-1-.2-2-.5-3-.2-.7-.3-1.4-.4-2.1 0-.1 0-.2 0-.4.1-.3.3-.5.5-.8.5-.6 1.3-1.4 2-2.3.4-.5.8-1 1.1-1.6.4-.7.5-1.5.5-2.2.4-.9.1-1.9-.4-2.8zm-3.7 3.4c-.5.7-1.1 1.4-1.7 2-.4.4-.8.9-1.1 1.4-.7 1-1.1 2.1-1.1 3.3 0 1 .2 2.1.5 3.1.2.7.3 1.4.4 2.1v.3.1l-.1.1c-.2.2-.5.3-.8.4-.6.2-1.5.5-2.5.8-.5.2-1 .4-1.5.6-.6.3-1.1.6-1.5 1.1-.5.6-1 1.2-1.3 2-.4.9-.7 1.8-.9 2.7-.2.6-.4 1.1-.7 1.6l-.1.1h-.1c-.1 0-.2 0-.3 0-.7 0-1.4-.2-2.1-.4-1-.3-2-.4-3.1-.5-.5 0-1 .1-1.5.2h-.1c-1 .4-2 .9-2.7 1.7-.7.6-1.3 1.2-1.8 1.7-.2.2-.5.4-.7.5s-.4.1-.5 0c-.3-.1-.5-.3-.7-.5-.5-.4-1.2-1.1-1.9-1.7-.8-.8-1.8-1.4-2.9-1.7-.5-.1-1-.2-1.5-.2-1 0-2.1.2-3 .5-.7.2-1.4.3-2.1.4-.1 0-.2 0-.3 0h-.1l-.1-.1c-.2-.2-.3-.5-.4-.8-.1-.4-.3-.8-.5-1.4-.2-.6-.4-1.3-.7-2-.3-.8-.8-1.5-1.3-2.1-.7-.6-1.4-1.1-2.3-1.4-1.1-.4-2.2-.7-3-1-.3-.1-.6-.2-.9-.4-.1-.1-.1-.1-.2-.2v-.1c0-.1 0-.2 0-.3 0-.7.2-1.4.4-2.1.3-1 .4-2 .5-3.1 0-.5-.1-1-.2-1.5-.3-.9-.7-1.7-1.3-2.4-.8-.9-1.5-1.7-2.1-2.3-.2-.2-.4-.5-.5-.8-.1-.1-.1-.2-.1-.3 0-.2.1-.4.2-.5.5-.7 1.1-1.4 1.7-2 .4-.4.8-.9 1.1-1.4.4-.6.7-1.2.9-1.9.1-.5.2-1 .2-1.5 0-1-.2-2.1-.5-3-.2-.7-.3-1.4-.4-2.1 0-.1 0-.2 0-.3v-.1l.1-.1c.2-.2.5-.3.8-.4.6-.2 1.5-.5 2.5-.8.5-.2 1-.4 1.5-.6.6-.3 1.1-.6 1.5-1.1.6-.7 1.1-1.4 1.4-2.3.4-1.1.7-2.2 1-3 .1-.3.2-.6.4-.9 0-.1.1-.1.2-.2h.1.3c.7 0 1.4.2 2.1.3 1 .3 2 .4 3 .5.5 0 1-.1 1.5-.2.9-.3 1.7-.7 2.4-1.3.9-.8 1.7-1.5 2.3-2.1.2-.2.5-.4.8-.5.1-.1.2-.1.3-.1.2 0 .4.1.5.2.7.5 1.4 1.1 2 1.7.4.4.9.8 1.4 1.1.6.4 1.2.7 1.9.9.5.1 1 .2 1.5.2 1 0 2.1-.2 3.1-.5.7-.2 1.4-.3 2.1-.3h.3.1l.1.1c.2.2.3.5.4.8.2.6.5 1.5.8 2.5l.6 1.5c.3.6.6 1.1 1.1 1.5.7.6 1.4 1.1 2.3 1.4 1.1.4 2.2.7 3 1 .3.1.6.2.9.4.2.1.2.2.2.2v.1.3c-.1.7-.2 1.4-.4 2.1-.3 1-.4 2-.5 3 0 .5.1 1 .2 1.5.3.9.7 1.7 1.3 2.4.8.9 1.5 1.7 2.1 2.3.2.2.4.5.5.8.1.1.1.2.1.3-.3.3-.4.5-.5.7z" fill="#333"/><path d="m286.6 302c-10 0-18.1 8.1-18.2 18.1 0 9.6 7.5 17.6 17.1 18.1h1c10 0 18.1-8.1 18.1-18.1.1-10-8-18.1-18-18.1zm10.5 28.7c-2.8 2.8-6.6 4.4-10.6 4.3-.3 0-.6 0-.9 0-8.2-.5-14.5-7.5-14-15.7s7.5-14.5 15.7-14 14.5 7.5 14 15.7c0 3.7-1.6 7.1-4.2 9.7z" fill="#333"/><path d="m111.4 305.8c0-2-1.7-3.7-3.7-3.7s-3.7 1.7-3.7 3.7 1.7 3.7 3.7 3.7 3.7-1.7 3.7-3.7z" fill="#333"/><path d="m99.4 314.2v12.4c.1.9.9 1.6 1.7 1.5s1.4-.7 1.5-1.5v-10.2h.8v27.6c0 1.2.9 2.1 2.1 2.1s2.1-.9 2.1-2.1v-16h.7v16c.1 1.2 1.1 2.1 2.3 2 1.1-.1 1.9-.9 2-2v-27.5h.7v10.2c.1.9.9 1.6 1.7 1.5s1.4-.7 1.5-1.5v-12.4c-.2-2-1.7-3.5-3.7-3.7h-9.7c-1.9.1-3.5 1.7-3.7 3.6z" fill="#333"/><path d="m143.5 332.5c-.8.3-1.6.5-2.5.7-.4.1-.8.1-1.2.1v-.1c.3-.9.5-1.8.6-2.5s.3-1.3.3-1.5c.1-.5.2-.9.3-1.4.1-.3.4-.5.7-.6 1.4-.4 2.6-1.3 3.4-2.5.9-1.5 1.3-3.2 1.2-4.9-.1-1.2-.3-1.7-.7-1.8s-.8.2-1.3.7c-.6.5-1.2 1-1.9 1.4-.3.2-.7.4-1 .5-.1-.8-.2-1.6-.3-2.3s-.2-1.2-.3-1.5c-.2-1.1-.3-1.7.2-2.1 1.1-.8 1.9-2 2.2-3.4.3-1.6.1-3.3-.6-4.8-.5-1-.9-1.4-1.2-1.3s-.6.4-1 1c-.4.7-.8 1.4-1.2 2-.2.3-.5.5-.7.8-.3-.6-.6-1.2-.9-1.7s-.6-1-.7-1.2c-.6-1-.8-1.4-.4-1.9.8-1.1 1.1-2.4.9-3.7-.2-1.5-.9-3-2-4.1-.7-.8-1.2-1-1.5-.8s-.4.6-.6 1.2c-.1.7-.3 1.4-.5 2.1-.1.3-.2.6-.4.9-.3-.3-.7-.6-.9-.9l-1-.9c-.8-.8-1.2-1.1-1-1.7.4-1.3.3-2.6-.3-3.8-.7-1.4-1.7-2.6-3.1-3.3-.9-.5-1.4-.6-1.7-.4s-.2.7-.2 1.3c.1.7.1 1.4.1 2.1-.5-.6-1.2-1.1-1.9-1.4-1.1-.5-2.2-.7-3.4-.6s-2.1.5-2.3 1.3c-.1.9.3 1.8 1 2.4.7.7 1.5 1.3 2.4 1.7.6.3 1.3.5 2 .6l-.1.1c-.6.5-1.2.9-1.7 1.2s-.8.7-.9 1 .2.6.8.9c1 .5 2.1.8 3.2.7 1.2-.1 2.3-.4 3.4-1 .5-.3.9 0 1.7.7.1.1.5.5.9.9l.8.9c-.3.1-.6.3-.9.4-.7.3-1.4.4-2 .6s-1 .4-1.1.7 0 .6.5 1.1c.8.8 1.8 1.4 2.9 1.7s2.4.3 3.5.1c.6-.1.9.2 1.4 1.1.1.1.3.6.6 1.1s.5 1 .7 1.6c-.4 0-.7.1-1.1.1-.8 0-1.6 0-2.2 0-.5-.1-.9.1-1.3.3-.2.2-.2.6.1 1.3.5 1.1 1.3 2 2.3 2.6 1 .7 2.2 1.1 3.5 1.3.6.1.8.5 1 1.6 0 .2.1.7.2 1.4s.1 1.4.1 2.1c-.4-.1-.7-.2-1.1-.3-.8-.3-1.5-.6-2.2-.9-.4-.2-.9-.3-1.4-.2-.3.1-.4.5-.4 1.3.1 1.2.5 2.4 1.3 3.4.8 1.1 1.8 1.9 2.9 2.5.3.1.5.4.5.7 0 .4 0 .8-.1 1.3 0 .2-.2.7-.4 1.4s-.5 1.5-.8 2.2l-.1.1c-.3-.2-.6-.5-.9-.7-.7-.6-1.3-1.2-1.8-1.7-.3-.4-.8-.6-1.3-.8-.4 0-.6.3-.9 1.1-.4 1.2-.4 2.5-.1 3.8s.9 2.6 1.8 3.6c.4.6.2 1.1-.4 2-.1.2-.4.6-.9 1.2s-1 1.2-1.7 1.9l-.3.3c-.2-.4-.4-.7-.6-1.1-.4-.9-.7-1.7-1-2.4-.2-.5-.5-1-1-1.3-.3-.1-.7 0-1.3.7-.9 1-1.5 2.2-1.7 3.5-.3 1.4-.2 2.9.2 4.3.2.7-.2 1.1-1.3 1.8-.2.1-.7.4-1.4.7s-1.6.7-2.4 1-2 .8-2.6 1c-8 2.8-17.7 4-23.7 8.4-.9.7.9 3.3 1.7 3.1 6.9-3.3 14-5.9 21.4-7.8.6-.2 3.6-1.2 4.5-1.6s1.8-.9 2.6-1.4 1.3-.8 1.5-.9c.4-.3.9-.5 1.4-.7.3-.1.7-.1 1 .1.7.4 1.4.7 2.2.9.8.1 1.7.1 2.5 0 .9-.2 1.8-.5 2.6-1 .9-.5 1.7-1.2 2.3-1.9.9-1 1.1-1.6.9-2s-.8-.5-1.6-.5c-.9-.1-1.8-.2-2.7-.4-.4-.1-.8-.2-1.2-.4l.3-.4c.6-.7 1.2-1.5 1.7-2.2s.8-1.2.9-1.4c.7-1.1 1-1.6 1.8-1.5 1.5.2 3.1-.2 4.4-1.1.7-.5 1.3-1.1 1.9-1.8.6-.8 1-1.6 1.3-2.5.4-1.2.3-1.8 0-2s-.6.2-1.2.4z" fill="#333"/><path d="m99.1 355.1c1.8-.7 3.8-1.3 5.8-1.9-2.1-.6-4.2-1.2-6.2-1.9-.6-.2-1.8-.7-2.6-1s-1.7-.7-2.4-1-1.2-.6-1.4-.7c-1.1-.6-1.5-1-1.3-1.8.4-1.4.5-2.9.2-4.3-.2-1.3-.8-2.5-1.7-3.5-.6-.6-.9-.8-1.3-.7-.5.3-.8.8-1 1.3-.3.6-.6 1.5-1 2.4-.2.4-.4.7-.6 1.1l-.3-.3c-.6-.6-1.2-1.3-1.7-1.9s-.8-1-.9-1.2c-.7-1-.9-1.5-.4-2 .9-1.1 1.5-2.3 1.8-3.6.3-1.2.3-2.5-.1-3.8-.2-.8-.5-1.1-.9-1.1-.5.1-1 .4-1.3.8-.5.5-1.1 1.1-1.8 1.7-.3.2-.6.5-.9.7v-.1c-.3-.8-.6-1.6-.8-2.2s-.3-1.2-.3-1.4c-.1-.4-.1-.8-.1-1.3 0-.3.2-.6.5-.7 1.2-.6 2.2-1.6 2.9-2.7.7-1 1.2-2.2 1.3-3.4.1-.8-.1-1.1-.4-1.3-.5-.1-1 0-1.4.2-.6.2-1.3.6-2.2.9-.3.1-.7.2-1.1.3 0-.7 0-1.5.1-2.1s.1-1.2.2-1.4c.2-1.1.3-1.5 1-1.6 1.2-.1 2.4-.6 3.5-1.3 1-.6 1.8-1.5 2.3-2.6.3-.7.3-1.1.1-1.3-.4-.2-.9-.3-1.3-.3-.6 0-1.4 0-2.2 0-.4 0-.7 0-1.1-.1.2-.6.5-1.1.7-1.6s.5-1 .6-1.1c.5-.9.8-1.3 1.4-1.1 1.2.3 2.4.2 3.5-.1s2.1-.9 2.9-1.7c.5-.5.6-.9.5-1.1-.3-.3-.7-.6-1.1-.7-.6-.2-1.3-.4-2-.6-.3-.1-.6-.2-.9-.4.3-.3.5-.6.8-.9.4-.5.8-.8.9-.9.8-.7 1.1-1 1.7-.7 1 .6 2.2.9 3.4 1 1.1.1 2.3-.2 3.2-.7.6-.4.8-.6.8-.9s-.4-.6-.9-1-1.1-.8-1.7-1.2l-.1-.1c.7-.1 1.4-.3 2-.6.9-.4 1.7-1 2.5-1.6.7-.6 1.1-1.5 1-2.4-.2-.8-1.2-1.2-2.3-1.3-1.2-.1-2.3.1-3.4.6-.7.3-1.4.8-1.9 1.4 0-.7.1-1.4.2-2.1.1-.6.1-1.1-.2-1.3s-.8-.1-1.7.4c-1.4.7-2.5 1.9-3.1 3.3-.6 1.2-.7 2.5-.3 3.8.2.6-.2.9-1 1.7l-1 .9-.9.9c-.2-.3-.3-.6-.4-.9-.2-.7-.4-1.4-.5-2.1-.1-.6-.3-1.1-.6-1.2s-.8.1-1.5.8c-1.1 1.1-1.8 2.5-1.9 4.1-.2 1.3.2 2.6.9 3.7.3.5.1 1-.4 1.9-.1.2-.4.6-.7 1.2s-.6 1.1-.9 1.7c-.3-.2-.5-.5-.7-.8-.5-.6-.9-1.3-1.2-2-.3-.6-.6-1-1-1s-.7.3-1.2 1.3c-.7 1.5-.9 3.2-.6 4.8.3 1.4 1.1 2.6 2.2 3.4.5.4.4.9.2 2.1 0 .2-.2.7-.3 1.5s-.2 1.5-.3 2.3c-.3-.1-.7-.3-1-.5-.7-.4-1.4-.9-2-1.5-.6-.4-1-.8-1.3-.7s-.6.6-.7 1.8c-.1 1.7.3 3.4 1.2 4.9.8 1.2 2 2.1 3.4 2.5.3.1.6.3.7.6.2.4.3.9.3 1.4 0 .2.1.8.3 1.5s.4 1.6.6 2.5v.1c-.4 0-.8 0-1.2-.1-.8-.2-1.7-.4-2.5-.7-.7-.2-1.3-.4-1.6-.1s-.3.8 0 2c.3.9.7 1.8 1.3 2.5.5.7 1.1 1.3 1.9 1.8 1.3.9 2.8 1.3 4.3 1.1.7-.1 1 .4 1.8 1.5.1.2.5.7.9 1.4s1.1 1.4 1.7 2.2l.3.4c-.4.2-.8.3-1.2.4-.9.2-1.8.3-2.7.4-.8.1-1.4.2-1.6.5s0 1 .9 2c.7.8 1.5 1.4 2.3 1.9s1.7.8 2.6 1c.8.2 1.7.2 2.5 0 .8-.1 1.5-.4 2.2-.9.3-.2.7-.2 1-.1.5.2.9.4 1.4.7.2.1.8.5 1.5.9s1.6.9 2.6 1.4 3.7 1.3 4.4 1.6z" fill="#333"/><path d="m116.8 356.8c-2.3.6-4.4 1.3-6.3 1.9 6.5 2.4 9.5 4 10 4.2.8.2 2.7-2.4 1.7-3.1-1.6-1.3-3.4-2.3-5.4-3z" fill="#333"/><path d="m135.1 95.6h22.4v39.6h-22.4z" fill="#333"/><path d="m166.5 78.8h22.4v56.4h-22.4z" fill="#333"/><path d="m103.8 111.6h22.4v23.6h-22.4z" fill="#333"/><path d="m228.9 57.5-18.4-31.7c-.3-.5-.8-.8-1.4-.8s-1.1.3-1.4.8l-18.4 31.7c-.3.5-.3 1.1 0 1.6s.8.8 1.4.8h7.2v75.4h22.4v-75.5h7.2c.9 0 1.6-.7 1.6-1.6 0-.2 0-.5-.2-.7z" fill="#333"/><path d="m0 229h335" fill="none" stroke="#4aa064" stroke-miterlimit="10" stroke-width="1.76"/><path d="m167.5 229v190.5" fill="none" stroke="#4aa064" stroke-miterlimit="10" stroke-width="1.76"/></svg>