<svg enable-background="new 0 0 1082 309" viewBox="0 0 1082 309" xmlns="http://www.w3.org/2000/svg"><path d="m775.4 309v-309" fill="none" stroke="#4aa064" stroke-miterlimit="10" stroke-width="1.76"/><path d="m343.2 252.1c-.7 1-1.4 1.9-2.3 2.7-.1.1-.3-.1-.3-.3 1.6-2.8 2.8-5.8 3.6-8.9.3-1.3.5-2.6.7-3.9 3.1.8 3.4.9 3.4 1.3s-.1.4-1 .6c-.7 2.2-1.6 4.3-2.7 6.3 1.5.2 1.7.3 1.7.6s-.2.4-.7.6v13.4c0 .8-.5 1.1-1.4 1.1s-1.1-.3-1.1-1 .1-2.7.1-6.8zm6.4 9.4c0 1.7-.7 3-2 3-.6 0-1.2-.4-1.2-1.1v-.1c0-.6.3-1 1-1.3.9-.3 1.6-1.1 1.7-2.1 0-.1.3-.2.3 0 .1.5.2 1 .2 1.6zm1.4-16c1.9.6 2.8 1.4 2.8 2.5 0 .6-.4 1-1 1.1h4.3c.2-.6.4-1.2.5-1.8.1-.5.2-1.1.3-1.7 2.2.7 2.9.9 2.9 1.2s-.2.3-.8.5c-.6.7-1.3 1.3-2.1 1.9h3.6c1.1-1.4 1.4-1.6 1.6-1.6s.5.2 1.6 1.1c.5.4.7.6.7.8s-.1.3-.3.3h-16.2c-.6 0-1.3.1-1.9.1l-.3-1c.7.1 1.4.2 2.1.2h3.5c-.4-.1-.7-.4-.7-.8-.1-1-.5-2-1.2-2.8h-.2c-.6 0-1.3.1-1.9.1l-.3-1c.7.1 1.4.2 2.1.2h4.2v-1.6c0-.5-.1-1-.1-1.6 3 .3 3.3.5 3.3.8s-.3.4-.8.7v1.7h3.8c1.1-1.3 1.4-1.5 1.6-1.5s.5.2 1.6 1.1c.5.4.7.6.7.8s-.1.3-.3.3zm0 12.2c-.1.5-.5.7-1.3.7s-1.1-.3-1.1-.9c0-.4.1-.9.1-2.6 0-1.5 0-3-.2-4.6.9.3 1.9.7 2.7 1.2h8.1c.9-1 1.1-1.1 1.3-1.1s.5.2 1.4.8c.4.3.6.5.6.7s-.1.4-.7.8v.8 4c0 .7-.5 1-1.5 1-.6 0-.9-.2-.9-.8zm8.6-5.5h-8.6v2.2h8.6zm0 2.8h-8.6v2.2h8.6zm.2 7.4c0 .3.1.5.3.5.6.2.8.4.8.9s-.4.9-1.2 1.2c-1.4.3-2.8.4-4.2.4-3.3 0-4.4-.4-4.4-1.8 0-.5 0-1.1 0-3.4 0-.4 0-.8-.1-1.1 2.6.3 2.9.3 2.9.7s-.2.4-.7.6v2.3c0 .7.4.9 2.5.9.8.1 1.5 0 2.3-.2.7-.3 1-.9 1.5-2.6 0-.1.3-.1.3 0zm-3.3-.3c-.6 0-.7-.1-1.1-1.4-.2-.7-.6-1.3-1.1-1.9-.1-.1 0-.2.1-.2 2.2.4 3.2 1.1 3.2 2.2 0 .7-.5 1.2-1.1 1.3zm7.1 2.1c-.7 0-.9-.3-1.2-1.6-.2-1.1-.7-2-1.4-2.8-.1-.1 0-.3.1-.2 2.6.8 3.7 1.8 3.7 3.1.1.8-.5 1.4-1.2 1.5z" fill="#333"/><path d="m376.7 264.4c0 .6-.6 1-1.6 1-.8 0-1.1-.2-1.1-.9 0-2.3.2-4.7.2-14.1 0-2.7 0-5.4-.2-8.1l2.9 1.4h14.7c1-1.1 1.2-1.2 1.4-1.2s.5.2 1.5 1c.5.4.6.6.6.8s-.1.4-.7.8v2.9c0 12.7.1 13.2.1 14.7 0 1.3-.3 1.9-1.2 2.3-.5.2-1.1.4-1.7.4-.4 0-.5-.2-.6-.7-.1-.9-.6-1.5-3.1-2-.1 0-.1-.3 0-.3 1.4 0 2.6.1 3.5.1.4 0 .5-.1.5-.5v-8.5h-15.1zm6.2-11.7v-8.4h-6.1v8.4zm9-8.4h-6.4v8.4h6.4z" fill="#333"/><path d="m79.2 218.1-6.7-18c2.2-1.8 4.6-3.3 7.2-4.3 3-1.2 6.1-2 9.2-2.6 3.2-.6 6.5-.9 9.7-.9 5-.1 9.9.8 14.6 2.4 4 1.4 7.5 3.8 10.2 7 2.5 3.1 3.9 7 3.8 11.1 0 3.1-.6 6.2-2 9s-3.2 5.5-5.3 7.8c-2.2 2.4-4.6 4.6-7.2 6.6s-5.2 3.9-7.7 5.5-4.8 3.1-6.8 4.4h19c1.9 0 3.7-.4 5.4-1.1 1.7-.8 3.3-2 4.5-3.4 1.5-1.8 2.8-3.8 3.8-5.9h1l-6.8 28.1h-52v-1c2.9-3.5 5.8-7.1 8.8-10.6s6-7.1 8.8-10.6c2.7-3.4 5.3-6.8 7.6-10.4 2.2-3.2 4-6.7 5.4-10.3 1.3-3.2 2-6.6 2-10.1 0-4.3-1.2-7.7-3.4-10.2-2.3-2.5-5.4-3.5-9.3-3.2-4 .2-7.5 2.3-9.6 5.8-2.2 3.5-3.2 8.5-3.2 15z" fill="#4aa064"/><path d="m142.1 248.9c1.5-1.1 3.3-1.7 5.1-1.6 1.9 0 3.7.6 5.4 1.5 1.7 1 3 2.5 3.8 4.2 1.3 2.8 1.8 5.9 1.4 9-.4 2.9-1.4 5.8-3.1 8.2-1.6 2.4-3.8 4.3-6.4 5.5-2.6 1.3-5.5 1.6-8.3 1l-.4-1.3c1.3-.6 2.4-1.5 3.2-2.6.9-1.3 1.4-2.9 1.4-4.5 0-1.7-.9-3.6-2.8-5.6-1.2-1.3-1.9-3-2.2-4.8-.3-1.7-.2-3.5.4-5.1.3-1.6 1.2-3 2.5-3.9z" fill="#4aa064"/><path d="m209.1 210.5-30.7 2.5-1.9 8.3c5.5-1.5 11.3-1.9 17-1.4 4.4.4 8.7 1.9 12.4 4.2 3.2 2.1 5.8 5.1 7.4 8.6 1.6 3.6 2.4 7.6 2.1 11.6-.1 4.6-1.5 9-4.1 12.8-2.5 3.6-5.9 6.6-9.8 8.6-4 2.2-8.4 3.7-12.9 4.5-4.6.8-9.2.9-13.9.4-4.3-.5-8.5-1.8-12.4-3.8l.2-1c2.1 0 4.3-.1 6.4-.5 2.7-.4 5.4-1.1 7.9-2 2.8-.9 5.4-2.2 7.9-3.8 2.4-1.5 4.4-3.4 6.1-5.6 1.6-2.3 2.6-5 2.7-7.8.3-3.8-.8-6.8-3.1-9s-5.5-3.4-9.6-3.6c-4.7-.1-9.4.8-13.6 2.8l-.9-.6 8.3-38.4 29.8-2.5c1.8.1 3.5-.4 5-1.4 1.2-1 2.2-2.2 2.9-3.6h1z" fill="#4aa064"/><path d="m224.1 263.8.1-1h2.1c1.5 0 2.9-.5 3.9-1.6 1-1 1.6-2.4 1.6-3.8v-50.7c0-2.6-.6-4.4-1.8-5.4-1.4-1.1-3.1-1.6-4.8-1.5h-1.8v-1c1.4-.1 3.3-.2 5.6-.6s4.9-.7 7.6-1.2 5.3-1.1 7.9-1.9c2.3-.6 4.5-1.6 6.5-2.8h1v65.1c0 1.4.6 2.8 1.6 3.8s2.4 1.6 3.8 1.5h2.1v1h-35.4z" fill="#4aa064"/><path d="m312.9 192.3.9 7.4-35.6 34.6h40c1.5.1 2.9-.3 4.2-1.1 1-.8 1.8-1.8 2.3-2.9h1l-3.1 14.5h-61.3v-1zm1 65c0 1.4.6 2.8 1.6 3.8s2.4 1.6 3.9 1.6h1.1v1h-33.8l.1-1h1c1.5 0 2.9-.5 4-1.5s1.7-2.4 1.6-3.9zm-20.5-43.4 19.5-21.6h1v71.3h-20.5z" fill="#4aa064"/><g fill="#333"><path d="m48.5 61.8v2.5c0 .4-.3.6-1 .6-.4 0-.7-.2-.7-.5s.2-2.4.2-3.9c-1 1.2-2.2 2.2-3.6 2.9-.1 0-.2-.2-.1-.2 1.5-1.4 2.7-3.1 3.4-5h-1.6c-.3 0-.7 0-1 .1l-.2-.7c.4.1.8.1 1.2.2h2v-.6c0-.6 0-1.2-.1-1.8 1.5.1 2.1.2 2.1.5s-.1.3-.6.5v1.4h.8c.6-.7.8-.9.9-.9s.4.2 1 .6c.2.2.4.3.4.5s-.1.2-.2.2h-3v1.1c1.6.2 2.7.9 2.7 1.7 0 .4-.3.8-.7.8 0 0 0 0-.1 0-.3 0-.6-.2-.7-.5-.2-.7-.7-1.3-1.3-1.7zm4.3-10.5c.8.7 1.7 1.3 2.7 1.7 1.4.5 2.9.9 4.4 1 .1 0 .1.2 0 .2-.5.2-.9.5-1.1 1s-.3.6-.5.6c-.3 0-.6-.1-.9-.3-.9-.4-1.8-1-2.6-1.6s-1.6-1.4-2.2-2.3c0 1.5.1 2.9.1 3.7 0 .5-.4.6-1 .6s-.7 0-.7-.4 0-1.8.1-3c-1.9 1.7-4.3 2.9-6.8 3.5-.1 0-.2-.2-.1-.2 2.3-1.1 4.3-2.6 5.8-4.6h-3.8c-.4 0-.8 0-1.2.1l-.2-.7c.4.1.9.1 1.3.2h4.9v-.8c0-.5 0-1.1 0-1.6 2.1.2 2.3.3 2.3.6s-.2.3-.6.5v1.4h3.7c.9-1.1 1.1-1.3 1.3-1.3s.4.1 1.2.9c.4.3.6.5.6.6s0 .2-.2.2zm3.1 10.5v2.4s-.3.7-.9.7-.7-.2-.7-.5.1-2.3.1-4c-1.2 1.5-2.7 2.6-4.5 3.4-.1 0-.2-.2-.1-.2 1.8-1.4 3.2-3.2 4.1-5.3h-.9c-.3 0-.7 0-1 .1l-.2-.7c.4.1.8.1 1.2.2h1.3v-.9c0-.5 0-1.1-.1-1.7 1.6.1 2.1.2 2.1.5s-.1.3-.5.5v1.4h1.5c.7-.8.9-1 1-1s.4.1 1.1.7c.3.3.5.4.5.5s0 .2-.2.2h-3.7c.5.9 1.1 1.6 1.8 2.2.8.6 1.7 1.1 2.7 1.4 0 0 .1.1 0 .1-.5.2-.8.7-1 1.2-.1.2-.2.3-.3.3s-.2-.1-.5-.3c-.6-.5-1.1-1.1-1.5-1.7-.6-.9-1.1-1.9-1.4-2.9v3.4z"/><path d="m72.7 55.6c1.1.5 1.7 1 1.7 1.8 0 .5-.3.9-.8 1-.4 0-.8-.2-1-.5-.4-.5-.8-.9-1.3-1.3-.5-.5-1.2-.8-1.9-1v3.1c0 .8 0 2.4.1 4.4 0 .7-.3.8-.7.8-.3 0-.6-.1-.8-.4-.2-.4-.4-.9-.4-1.4 0-.2 0-.4.1-.5s.1-.2.1-.3c0-.2.1-.7.1-4 0-1.7 0-3.2 0-4.9 0-.5 0-1-.1-1.5-.1-.2-.2-.3-.4-.4s-.4-.2-.6-.3c-.1 0-.2-.1-.2-.2s.1-.2.2-.3.3-.2.5-.2c.6 0 1.3.2 1.8.5.5.2.7.5.7.8 0 .2-.1.4-.3.6-.1.1-.1.2-.1.4 0 .5-.1 1.6-.1 3.2 1.3 0 2.4.2 3.4.6z"/><path d="m84.3 54c1.1-.1 2.6-.3 4.9-.5.2 0 .5-.1.6-.3.2-.1.3-.2.5-.2.5.2 1 .4 1.4.8s.4.5.4.7-.1.5-.3.6-.4.2-.6.8c-.8 1.4-1.7 2.8-2.8 4-1.6 1.8-3.7 3.2-5.9 4.2-.1 0-.3 0-.4 0s-.2-.1-.2-.2c0-.1.1-.2.2-.2 2-1.3 3.8-3 5.2-5 .9-1.2 1.7-2.4 2.2-3.8.1-.1.1-.2.1-.4 0 0 0 0-.1 0h-.3c-1.9.2-3.3.4-5.1.7-.4 0-.7.1-1.1.3-.2.1-.4.2-.6.2-.3 0-.5-.1-1-.6-.4-.3-.6-.8-.7-1.3 0-.3.1-.5.2-.5s.1 0 .3.2c.4.4.9.7 1.5.7.2-.1 1-.2 1.6-.2zm.9-3.4c.7-.1 1.4-.2 2.2-.4.3-.1.6-.2.8-.3s.5-.1.7-.2c.8 0 1.6.4 1.6.8 0 .3-.1.5-.4.6-.4.1-.7.2-1.1.2-.8.1-2.7.3-4.1.5-.3 0-.6 0-.9 0-.7 0-1-.2-1.6-1-.2-.2-.3-.5-.2-.8 0-.1 0-.2.1-.2s.1.1.2.1c.5.4 1.1.7 1.7.6.3.1.6 0 1 .1z"/><path d="m108.7 58.1c.6.3 1.2.7 1.7 1.1 1.1.8 1.5 1.5 1.5 2.1.1.5-.3.9-.8 1-.5 0-.9-.2-1.1-.6-.6-1-1.3-1.9-2.1-2.7-.5-.5-1.2-1-1.8-1.4-1.3 1.4-2.8 2.6-4.4 3.5-1 .6-2 1.1-3.1 1.4-.1.1-.3.1-.4.1s-.2 0-.2-.2c0-.1 0-.2.1-.2 2.1-1.1 4-2.6 5.6-4.4 1.4-1.4 2.6-3 3.7-4.8.1-.1.1-.1.1-.2 0 0 0-.1-.2 0-1.3.1-2.9.4-4.3.7-.3 0-.6.1-.8.3-.2.1-.4.2-.6.2-.3 0-.7-.2-1.2-.8-.3-.3-.4-.7-.4-1.2 0-.3.1-.5.2-.5s.1.1.2.2c.5.6.7.7 1.2.7.2 0 .7 0 1.4-.1 1.5-.2 2.7-.3 4-.5.3 0 .5-.1.7-.3.1-.1.3-.2.5-.2.4 0 .7.2 1 .5.5.5.8.8.8 1s0 .4-.6.5c-.2.1-.3.2-.4.4-.7 1.1-1.6 2.2-2.4 3.2.7.6 1.4.9 2.1 1.2z"/><path d="m125.1 55.6c1.1.5 1.7 1 1.7 1.8 0 .5-.3.9-.8 1-.4 0-.8-.2-1-.5-.4-.5-.8-.9-1.3-1.3-.5-.5-1.2-.8-1.9-1v3.1c0 .8 0 2.4.1 4.4 0 .7-.3.8-.7.8-.3 0-.6-.1-.8-.4-.2-.4-.4-.9-.4-1.4 0-.2 0-.4.1-.5s.1-.2.1-.3c0-.2.1-.7.1-4 0-1.7 0-3.2 0-4.9 0-.5 0-1-.1-1.5-.1-.2-.2-.3-.4-.4s-.4-.2-.6-.3c-.1 0-.2-.1-.2-.2s.1-.2.2-.3.3-.2.5-.2c.6 0 1.3.2 1.8.5.5.2.7.5.7.8 0 .2-.1.4-.3.6-.1.1-.1.2-.1.4 0 .5-.1 1.6-.1 3.2 1.3 0 2.4.2 3.4.6z"/><path d="m144.5 53.4c0 .3-.2.5-.5.6s-.4.3-.6.6c-1.2 1.9-2.6 3.8-4.2 5.4-1.6 1.7-3.6 3.1-5.8 3.9-.1.1-.3.1-.4.1s-.2 0-.2-.2.1-.2.3-.3c2-1.2 3.8-2.8 5.3-4.5 1.4-1.7 2.6-3.5 3.5-5.5 0-.1 0-.1.1-.2 0 0 0-.1-.1-.1-.4.1-1 .2-1.8.3-.5.1-.7.2-1 .2s-.7-.1-1-.3c-.7.9-1.4 1.7-2.1 2.4-.8.7-1.7 1.4-2.6 2-.3.2-.5.3-.6.3s-.2-.1-.2-.2.3-.3.7-.8c.8-.8 1.5-1.7 2.2-2.6.5-.7 1-1.4 1.5-2.2.3-.4.5-.9.6-1.4 0-.3-.3-.5-.6-.7-.2-.1-.2-.1-.2-.2s.2-.3.6-.3c.6.1 1.2.3 1.8.7.6.3.7.6.7.8s-.2.4-.4.6c-.2.1-.3.3-.7.9h.3c.5 0 .9-.1 1.4-.2.7-.1 1.2-.2 1.4-.3.1 0 .3-.1.4-.2s.3-.2.5-.2c.4 0 .8.2 1.4.8.1.2.3.5.3.8zm.9-2.5c.4.2.6.6.7 1.1 0 .3-.3.6-.6.6-.3 0-.5-.2-.6-.4-.3-.6-.7-1.1-1.1-1.6-.1-.1-.2-.2-.2-.2s.1-.1.2-.1.3 0 .4.1c.4.1.9.3 1.2.5zm1.7-1.2c.4.2.6.5.6.9 0 .3-.2.6-.6.7-.3 0-.5-.1-.7-.4-.3-.6-.7-1-1.3-1.4-.1 0-.2-.1-.2-.2s.1-.1.1-.2c.2 0 .3 0 .5.1.7.1 1.1.2 1.6.5z"/><path d="m155.6 53.7c-.1 0-.2-.1-.2-.2s.3-.4.7-.4c.7.1 1.3.3 1.9.7.4.3.5.5.5.8 0 .2-.1.4-.3.5-.2.2-.3.4-.3.6-.3 1.2-.8 2.3-1.5 3.3-.9 1.4-2.1 2.6-3.6 3.3-.1.1-.2.1-.4.1-.1 0-.2 0-.2-.2s0-.1.2-.2c1-.9 1.9-1.9 2.5-3.1.5-1 1-2 1.2-3.1.1-.4.2-.8.2-1.3.3-.3-.2-.6-.7-.8zm4.2-1.1c-.2-.3-.5-.5-.8-.7-.1 0-.2-.1-.2-.2s.3-.4.8-.4c.6.1 1.2.3 1.6.6.3.2.7.5.7.9 0 .2-.1.4-.2.5s-.1.3-.1.4c0 1.2-.1 2.3-.1 4.1v1.3c0 .2 0 .2.1.2.2 0 .3-.1.4-.1 2.1-.9 4.1-2 5.9-3.5.2-.2.3-.3.4-.3s.2.1.2.1c0 .1-.1.2-.1.2-1.8 2.1-3.9 3.9-6.4 5.2-.2.1-.3.2-.4.4s-.2.2-.4.2c-.4-.1-.7-.3-.9-.6-.3-.3-.5-.7-.5-1.1 0-.1 0-.2.1-.3.1-.4.1-.7.1-1.1 0-1.4 0-2.7 0-5-.1-.1-.1-.5-.2-.8z"/><path d="m187.2 57.4c-.6 0-1.8-.1-2.7-.1-1.4 0-4.5.1-6.7.3-.6 0-1.2.2-1.8.4-.1.1-.3.1-.5.1-.5 0-.9-.4-1.4-1.2-.2-.3-.4-.6-.3-1 0-.3.1-.4.2-.4s.2.1.2.2c.4.5.9.7 1.5.7.5 0 .8 0 1.9-.1 2.2-.2 4.6-.2 6.4-.3.5 0 1-.1 1.4-.2.2-.1.3-.1.5-.2.3 0 .6.1.8.2.7.3 1.1.6 1.1 1 0 .3-.2.6-.6.6z"/><path d="m196.8 54c-.2 0-.4.1-.6.2s-.3.1-.5.1c-.3 0-.6-.2-1.1-.8s-.6-.8-.6-1.3.1-.5.2-.5.2.1.3.2c.3.5.9.8 1.6.7l1.3-.1c1.8-.2 3.6-.3 5.2-.5.3 0 .6-.1.8-.3.1-.1.3-.2.5-.2.4 0 .9.2 1.2.5.6.5.8.7.8 1.2 0 .2-.1.3-.4.5-.4.2-.6.5-.8.9-.9 1.8-2 3.4-3.4 4.8-1.7 1.7-3.7 3.1-5.9 3.9-.1 0-.2 0-.3 0-.2 0-.2 0-.2-.2s.1-.2.3-.3c2-1.2 3.7-2.7 5.1-4.5 1.1-1.4 2-3 2.9-4.6.1-.2.2-.4.2-.6 0-.1-.1-.1-.2-.1s-.4 0-.8.1c-1.9.3-4 .6-5.6.9zm11.4-3.5c0 .8-.7 1.5-1.5 1.5s-1.5-.7-1.5-1.5.7-1.5 1.5-1.5 1.5.7 1.5 1.5zm-2.5 0c0 .6.4 1 1 1s1-.4 1-1-.4-1-1-1-1 .5-1 1z"/><path d="m50.4 83.4c-.1 4.1-1.8 6-6.6 6.9-.1 0-.2-.2-.1-.3 3.7-1.4 4.9-3 4.9-6.9 0-.2 0-.4 0-.8 1.9.2 2.4.3 2.4.6s-.1.4-.6.5zm6.9-2.2c.7-.8.8-.9 1-.9s.3.1 1.2.9c.4.4.5.5.5.7 0 .3-.1.4-.8.4-.2 0-.4 0-.5.2-.5.4-1.1.8-1.7 1.1-.1 0-.2-.1-.2-.1.3-.6.6-1.2.8-1.9h-11.4c0 1.4-.6 2.4-1.7 2.4-.4 0-.8-.3-.8-.7 0 0 0 0 0-.1 0-.4.2-.7.7-1 .9-.4 1.4-1.2 1.4-2.2 0-.1.2-.1.2 0 .1.4.2.7.2 1.1zm-4.8-2.2h3.2c.8-1 1.1-1.1 1.2-1.1s.4.1 1.2.8c.3.3.5.4.5.6s0 .2-.2.2h-11.4c-.4 0-.8 0-1.2.1l-.2-.7c.4.1.9.1 1.4.1h3.8v-2.2h-5.4c-.4 0-.9 0-1.3.1l-.1-.7c.5.1.9.1 1.4.2h5.4v-.8c0-.6 0-1.2-.1-1.8 2.2.2 2.5.4 2.5.6s-.2.3-.6.4v1.5h4.4c.9-1 1.1-1.2 1.2-1.2s.4.2 1.2.8c.4.3.5.5.5.6s0 .2-.2.2h-7.2zm1.8 8.8c0 .5.2.7 1.7.7.6 0 1.2 0 1.8-.2.5-.2.8-.8 1.4-2.6 0-.1.2-.1.2 0v1.9c0 .2 0 .3.1.3.5.2.6.5.6.8 0 .4-.2.8-.8 1-1.2.2-2.3.3-3.5.3-2.6 0-3.2-.2-3.2-1.6v-3c0-1 0-2 0-3 2.3.3 2.3.3 2.3.6s-.1.3-.5.4z"/><path d="m73.8 88.8h4.4c1-1.3 1.3-1.5 1.4-1.5s.4.2 1.4 1c.5.4.6.6.6.7s-.1.2-.2.2h-13.9c-.6 0-1.2 0-1.7.1l-.2-.7c.6.1 1.3.1 1.9.1h4.5v-12c0-.8 0-1.7-.1-2.5 2.4.2 2.6.4 2.6.6s-.2.4-.6.5v5.4h2.9c1-1.3 1.2-1.4 1.3-1.4s.4.2 1.4 1c.4.4.6.5.6.7s-.1.2-.2.2h-6z"/><path d="m94.2 74.8c0-.4 0-.7-.1-1.1 2.2.2 2.5.4 2.5.6s-.2.3-.6.5v1.1h4.4c1-1.1 1.2-1.2 1.3-1.2s.3.1 1.2.8c.4.3.5.5.5.6s-.1.2-.2.2h-14.5c-.4 0-.8 0-1.3.1l-.2-.7c.5.1 1 .1 1.4.1h5.5zm6.2 7.7c.6-.7.8-.8.9-.8s.3.1 1 .6c.3.3.4.4.4.5s-.1.3-.6.6v.9 4.4c.1.5-.2 1.1-.7 1.3-.4.2-.8.3-1.2.3-.2 0-.3-.1-.4-.5s-.3-.8-1.6-1.2c-.1 0-.1-.2 0-.2.8.1 1.3.1 1.9.1.2 0 .2-.1.2-.2v-5.4h-10.5v6.7c0 .6-.3.8-1 .8-.5 0-.7-.2-.7-.7 0-1 0-2 0-6 0-.7 0-1.4 0-2.1.6.2 1.3.5 1.8.9zm-8.3-1.5v.2c0 .5-.3.7-1 .7-.5 0-.7-.2-.7-.6s0-.9 0-2.7c0-.5 0-1 0-1.5.6.2 1.2.5 1.8.9h5.7c.6-.7.7-.8.8-.8s.3.1 1 .6c.3.2.4.4.4.5s-.1.3-.5.5v.2 1.9c0 .6-.3.8-1 .8-.5 0-.7-.2-.7-.6v-.1zm1.1 6.5v.4c0 .5-.2.7-.9.7-.5 0-.7-.2-.7-.6s0-.8 0-2.5c0-.6 0-1.2-.1-1.8.8.3.9.4 1.8.8h3.5c.5-.6.7-.7.8-.7s.3.1 1 .6c.3.2.4.4.4.5s-.1.3-.5.5v.3 1.8c0 .5-.3.7-.9.7-.5 0-.7-.1-.7-.5v-.2zm4.8-9.3h-5.9v2.3h5.9zm-1.1 6.7h-3.7v2.2h3.7z"/><path d="m916.8 198.7c1.4-1.7 1.7-1.9 1.9-1.9s.5.2 1.9 1.3c.6.5.8.8.8.9s-.1.3-.3.3h-9c0 2.8.1 5.3.1 6.4 0 .8-.5 1.1-1.6 1.1-.8 0-1.2-.2-1.2-.9s.1-2.7.1-6.6h-9.2c-.6 0-1.3.1-1.9.2l-.3-1c.7.1 1.4.2 2.1.2h2.3v-3.6c0-1.3 0-2.6-.1-3.9.9.3 1.9.7 2.7 1.2h4.3v-4.8h-4.8c-1.5 2.3-3.5 4.3-5.8 5.7-.1.1-.4-.1-.3-.2 2-2.2 3.5-4.7 4.5-7.4.4-1 .7-2 .8-3 2.8.8 3.5 1.1 3.5 1.6 0 .3-.3.5-1.1.6-.4.8-.8 1.5-1.2 2.2h11c1.4-1.6 1.7-1.8 1.8-1.8s.5.2 1.8 1.2c.6.5.8.7.8.9s-.1.3-.3.3h-8.1v4.8h3.1c1.3-1.5 1.5-1.7 1.7-1.7s.5.2 1.8 1.1c.6.5.8.6.8.9s-.1.3-.4.3h-7v.9 4.7zm-7.3-5.6h-4.5v5.6h4.5z"/><path d="m855.4 242.2c.5-.9.9-1.8 1.2-2.7.2-.7.4-1.3.6-2 2.2.7 3.3 1.2 3.3 1.5s-.3.5-1.2.5c-.9 1-1.9 1.9-2.9 2.6h4.9c1.3-1.5 1.6-1.7 1.8-1.7s.5.2 1.8 1.2c.6.5.8.7.8.9s-.1.3-.3.3h-20.7c-.6 0-1.3.1-1.9.2l-.3-1c.7.1 1.4.2 2.1.2zm-9 11.9v6.4c0 .7-.4 1-1.4 1-.8 0-1.1-.2-1.1-.8 0-1.4.1-2.9.1-8.7 0-2.5 0-5-.1-7.5.9.3 1.8.7 2.6 1.2h4.2c.9-1 1.1-1.1 1.3-1.1s.5.1 1.4.9c.4.3.5.5.5.7s-.2.4-.7.7v2c0 8.4.1 9.5.1 10.3 0 .6-.2 1.2-.7 1.7-.5.4-1.2.6-1.9.5-.3 0-.4-.1-.4-.5-.2-.9-.4-1.3-2.4-1.9-.1 0-.1-.3 0-.3 1 0 1.8.1 2.7.1.2 0 .3-.1.3-.4v-4.2zm4.6-7.9h-4.5v3.3h4.5zm0 3.9h-4.5v3.4h4.5zm-.5-8.1c-.7 0-.9-.3-1.1-1.2-.2-1-.7-2-1.3-2.8 0-.1 0-.2.1-.2h.1c2.4.6 3.5 1.5 3.5 2.8 0 .7-.6 1.3-1.3 1.4zm8 6.3v7.1s-.5 1.1-1.5 1.1c-.8 0-1-.1-1-1s0-3.1 0-7.8c0-.8 0-1.5-.1-2.3 2.9.4 3.3.5 3.3.8s-.3.5-.9.7zm2.8-1.5c0-.8 0-1.5-.1-2.3 3.1.4 3.4.4 3.4.9 0 .3-.3.4-.9.7v6.9c0 1.4.1 4.5.1 5.9 0 .5-.1 1-.4 1.4-.5.7-1.3 1.1-2.2 1-.6 0-.6 0-.8-.6-.2-.8-.7-1.2-2.8-1.8-.1 0-.1-.3 0-.3 1.1.1 2.4.1 3 .1s.7 0 .7-.4z"/><path d="m875 248.1c-.7.9-1.5 1.8-2.3 2.7-.1.1-.3-.1-.3-.3 1.6-2.8 2.9-5.9 3.7-9 .3-1.3.6-2.6.7-3.9 3 .8 3.3.9 3.3 1.3s-.1.4-1 .6c-.7 2.2-1.6 4.3-2.7 6.2 1.3.2 1.5.3 1.5.6s-.2.4-.7.6v13.4c0 .8-.5 1.1-1.4 1.1s-1.1-.3-1.1-1 .2-2.7.2-6.8zm9.8 8.3c1.4-.2 2.8-.5 4.2-.9.1 0 .2.3.1.3-2.8 1.5-5.7 2.6-8.8 3.4-.1.7-.2 1-.5 1s-.5-.4-1.3-3.1c.5 0 1.1 0 1.6-.1.7 0 1.6-.2 2.5-.3v-4.6h-2.1c-.5 0-.9.1-1.4.1l-.3-1c.6.1 1.1.2 1.7.2h2.1v-.9c0-1.1 0-2.1-.1-3 2.8.3 3.1.5 3.1.8s-.3.5-.8.6v2.5h1.1c.8-1.1 1.1-1.3 1.3-1.3s.5.2 1.3.9c.3.3.5.5.5.7s-.1.3-.3.3h-4zm-.2-15.8c-.8 1.8-1.7 3.4-2.9 5 1.7 0 3.3-.1 5-.2-.2-1-.6-1.9-1.2-2.8-.1-.1.1-.3.2-.2 2.3 1.3 3.5 2.6 3.5 3.9.1.8-.5 1.4-1.3 1.5-.6 0-.9-.3-1.1-1.5v-.1c-2.1.8-4.3 1.4-6.5 1.7-.2.5-.3.7-.6.7s-.5-.4-1.1-2.9h1.3 1.1c.4-1.6.7-3.3.9-5h-.7c-.5 0-1 .1-1.4.2l-.3-1c.6.1 1.1.2 1.7.2h4.7c.9-1.2 1.2-1.4 1.4-1.4s.5.2 1.5 1c.4.4.6.6.6.8s-.1.3-.3.3zm9.2-.4c0-.7 0-1.5-.2-2.2 2.9.4 3.1.5 3.1.9s-.1.4-.7.7v9.2c0 4.7.1 8.1.1 9.7 0 1.2-.2 1.6-.8 2.1-.6.4-1.2.6-1.9.6-.6 0-.8-.1-.9-.6-.1-1-.6-1.4-2.7-2-.1 0-.1-.4 0-.4 1.1.1 2.6.2 3.5.2.3 0 .4-.1.4-.4v-17.8zm-1.8 3.8c0 5.5.1 9.3.1 10.5 0 .7-.4 1.1-1.4 1.1-.7 0-1-.3-1-.9s.1-3.1.1-7.8c0-3.7 0-5.8-.1-6.4 2.8.3 2.9.4 2.9.8 0 .2-.2.4-.7.7z"/><path d="m910.1 243.4c-.3 1.5-.4 3-.4 4.6-.2 2.7-.3 5.1-.3 6.7 0 1.3.2 2.1.6 2.5.7.5 1.6.7 2.5.6 2-.1 3.9-.6 5.7-1.6 1.7-.9 3.3-2.1 4.5-3.5.2-.2.3-.3.5-.3.1 0 .3.1.3.2-.1.3-.2.5-.3.7-1.2 1.9-2.7 3.4-4.5 4.6-2 1.4-4.5 2.2-6.9 2.1-2.7 0-4.4-1.9-4.3-5.1.1-4.4.3-8.6.4-12.6 0-1-.2-1.4-1-1.7s-.8-.3-.8-.4.2-.3.4-.5c.4-.2.8-.2 1.2-.2.9.1 1.8.5 2.5 1.2.4.3.7.8.8 1.3 0 .3-.1.6-.4.9-.3.2-.4.2-.5.5z"/><path d="m943.2 243.9c-2.6.6-5.1 1.4-7.6 2.4-.4.2-.7.4-1 .6-.2.2-.5.3-.8.3-.5 0-1.1-.3-2-1.3-.5-.5-.9-1.1-1-1.9 0-.4.1-.8.3-.8s.2 0 .4.3c.9.9 1.1 1 1.9 1 1.5-.2 2.9-.5 4.3-.9 3.3-.8 5.9-1.5 7.9-2.1.5-.1 1-.3 1.4-.5.3-.2.7-.2 1-.2.8 0 1.6.1 2.4.4.4.2.8.5.8 1s-.2.9-1 .9c-.5 0-1.1 0-2.6.1-2.3.1-4.4 1.1-6 2.8-1.2 1.4-1.9 3.2-1.9 5 0 1.6.7 3.1 2 4 1.2.8 2.7 1.3 4.2 1.4.7 0 1.4.1 2 .4.6.2 1 .7 1 1.3 0 .7-.5 1.2-1.7 1.2-1.8 0-3.5-.5-5-1.2-2.3-1.1-3.8-3.4-3.8-6 0-1.5.3-3 1-4.4.9-1.5 2.1-2.8 3.6-3.8zm7.1 3.6c.6.3.9.9 1 1.6 0 .5-.3.9-.8.9-.4 0-.7-.2-.9-.6-.4-.8-1-1.6-1.6-2.3-.1-.1-.3-.2-.3-.3s.1-.1.1-.2h.4c.8.1 1.5.4 2.1.9zm2.4-1.7c.5.3.9.8.9 1.3.1.5-.3.9-.7 1h-.1c-.4 0-.8-.2-1-.6-.5-.8-1.1-1.5-1.8-2-.1-.1-.3-.2-.3-.3s0-.1.1-.2h.4c.9.1 1.8.3 2.5.8z"/><path d="m966.3 255.8c.5 1 1.4 1.8 2.5 2.2 1.9.5 3.9.7 5.9.6 3.3 0 6.7-.2 10-.6.1 0 .1.2 0 .3-.6.2-1 .8-1 1.5-.1.8-.1.9-.6.9-1.4.2-4.5.2-6.3.2-4.4 0-7-.4-8.7-1.5-1.2-.9-2.1-2.2-2.4-3.7-.8 1.4-1.8 2.8-3 3.9.1 1-.1 1.2-.5 1.2s-1-.9-1.9-3.2c.6-.2 1.2-.4 1.8-.6.7-.3 1.3-.6 1.9-1v-7h-2c-.5 0-1 .1-1.4.2l-.3-1c.6.2 1.1.2 1.7.2h1.6c.9-1 1.1-1.2 1.3-1.2s.5.1 1.4.9c.4.4.6.5.6.8s-.1.3-.8.8zm-1.4-12.6c-.6 0-.9-.3-1.3-1.6-.3-1.1-.9-2.1-1.7-3-.1-.1.1-.3.2-.2 3 .8 4.2 2 4.2 3.3.1.8-.5 1.5-1.3 1.5zm11.3.6h4.5c1-1.2 1.3-1.4 1.5-1.4s.5.2 1.5 1c.4.3.6.6.6.8s-.1.3-.3.3h-6c1.8.6 2.3.9 2.3 1.2s-.2.3-1 .4c-.9.8-1.3 1.2-2 1.7h2.8c1-1.1 1.3-1.4 1.5-1.4s.5.2 1.4 1c.4.3.6.5.6.7s-.1.3-.3.3h-7v2.6h3c.8-1 1.1-1.2 1.3-1.2s.5.2 1.3.9c.3.3.5.5.5.7s-.1.3-.3.3h-5.8v2.6h4.2c1-1.2 1.3-1.4 1.5-1.4s.5.2 1.5 1c.4.3.6.6.6.8s-.1.3-.3.3h-7.5v2.3c0 .8-.4 1.1-1.5 1.1-.7 0-1.1-.2-1.1-.7s.1-1.1.1-2.7h-4.8c-.5 0-1 .1-1.5.1l-.3-1c.6.1 1.2.2 1.7.2h4.8v-2.6h-3.4c-.5 0-.9.1-1.4.1l-.3-1c.5.1 1.1.2 1.6.2h3.5v-2.6h-4.6c-.5 0-1 .1-1.4.1l-.3-1c.5.1 1.1.2 1.7.2h2.8c-.2-.1-.3-.4-.4-1-.1-.7-.3-1.4-.8-2.1-.1-.1 0-.2.1-.2 1.8.4 2.7 1.2 2.7 2.1 0 .5-.3.9-.7 1.1h3.6c.3-.6.5-1.2.7-1.8.1-.5.3-1 .4-1.4h-8.5c-.5 0-1 .1-1.5.1l-.3-1c.6.1 1.2.2 1.8.2h4.9v-2.7h-3.7c-.5 0-1 .1-1.5.2l-.3-1c.6.1 1.1.2 1.7.2h3.7v-.9c0-.7 0-1.4-.1-2.1 2.8.3 3.1.5 3.1.8s-.2.4-.7.6v1.6h3.1c.9-1.1 1.2-1.3 1.4-1.3s.5.2 1.4.9c.4.3.6.6.6.7s-.1.3-.3.3h-6.2z"/><path d="m1004.4 243c0-.4 0-.8 0-1.2 0-1.3-.1-2.5-.3-3.8 3.2.4 3.3.4 3.3.8 0 .2-.2.4-.8.6 0 1.3 0 2.4.1 3.5h4.3c1.4-1.6 1.6-1.7 1.8-1.7s.5.1 1.5 1.2c.5.5.6.7.6.9s-.1.3-.4.3h-7.8c.1 2.8.6 5.6 1.4 8.2.3-.5.5-1 .8-1.6.6-1.4 1-2.8 1.2-4.3 2.2.6 3 1 3 1.4 0 .3-.2.4-.9.6-.7 2.2-1.7 4.2-3 6.1.6 1 1.3 1.9 2.2 2.7.7.6 1.1.9 1.3.9s.7-.6 1.7-2.8c0-.1.3-.1.3.1-.2 2.5-.2 2.9-.2 3.2 0 .4.1.7.4 1 .2.3.3.6.3.9.1.5-.3 1.1-.8 1.1-.1 0-.2 0-.3 0-1.2-.2-2.3-.7-3.1-1.5-1.3-1.1-2.4-2.3-3.2-3.7-2.2 2.3-4.9 3.9-7.9 4.9-.1 0-.3-.2-.2-.3 2.8-1.7 5.2-3.9 7.1-6.4-1.3-2.8-1.9-5.7-2.2-10.7h-8c0 1.7 0 2.9-.1 4.4h3.8c.9-1.1 1.1-1.2 1.3-1.2s.5.2 1.5 1c.4.4.6.6.6.8s-.1.3-.9.8c-.3 4.1-.4 5.2-.8 6.6-.2.6-.6 1.1-1.1 1.4-.6.3-1.3.5-1.9.4-.3 0-.4-.1-.5-.7-.3-1-.5-1.1-2.1-1.8-.1 0 0-.3.1-.3.7.2 1.5.3 2.2.3 1 0 1.2-.2 1.5-1.6.3-1.7.4-3.4.5-5.2h-4c0 2.4-.3 4.7-.9 7-.7 2.2-1.9 4.1-3.6 5.6-.1.1-.3-.1-.3-.2 1-1.9 1.6-3.9 1.9-6 .4-2.7.6-5.5.5-8.2 0-2-.1-3.5-.2-5.3l3 1.5zm6.2-.8c-.3 0-.4-.1-.7-.5-.5-1.1-1.2-2-2.2-2.6-.1-.1-.1-.3 0-.3 2.7.2 3.9 1 3.9 2.2.2.6-.3 1.1-1 1.2.1 0 .1 0 0 0z"/></g><path d="m840 121.2 63.6-.2-15.4 35.6c-1 2.3-2.2 5.1-3.3 8.4s-2.4 6.8-3.7 10.6-2.5 7.5-3.7 11.2-2.3 7.1-3.3 10.3-1.8 5.8-2.3 8h-20.4c1.4-2.4 3.2-5.3 5.2-8.7s4.1-7 6.2-10.9 4.3-7.7 6.4-11.4c2.1-3.8 4-7.3 5.7-10.6 1.7-3.2 3-5.9 4.1-8.1l6.2-13.3h-38.4c-2-.1-4 .5-5.6 1.8-1.6 1.5-2.7 3.4-3.4 5.4h-1.2z" fill="#4aa064"/><path d="m826.8 58.1c-.6 0-1.4-.1-2-.1s-1.5 0-2.2.1l-.7 1.9c-.3.6-.4 1.3-.2 2 .2.4.8.5 1.4.6.1 0 .2 0 .2.2s0 .2-.2.2c-.7 0-1.6 0-2.2 0s-1.3 0-1.9 0c-.2 0-.2 0-.2-.2s0-.2.2-.2c.4-.1.8-.3 1.1-.6.5-.6.9-1.3 1.1-2.1l2.2-5.8c.8-2.3 1-2.8 1.3-3.8l1.4-.7c.1 0 .2 0 .2.2.4 1.1.7 2 1.5 4.4l2 5.9c.2.7.5 1.4.9 2.1.3.4.5.4 1.2.5.2 0 .2 0 .2.2s0 .2-.2.2c-.8 0-1.8 0-2.5 0s-1.8 0-2.5 0c-.1 0-.2 0-.2-.2s0-.2.2-.2c.7 0 1.1-.1 1.2-.5.1-.7 0-1.3-.3-1.9zm-1.3-3.9c-.4-1.2-.6-1.7-.8-2.4-.2.7-.4 1.2-.8 2.3l-1.2 3.2h2s1.3 0 1.8 0z" fill="#333"/><path d="m842.4 52.3c0-.5 0-1-.1-1.5-.1-.3-.3-.4-.7-.4h-.4c-.2 0-.3 0-.3-.2s0-.2.2-.3c1-.2 2-.5 3-.8.1 0 .2.1.2.2-.1 1.2-.1 2.6-.1 4.4v6.8c-.1.6 0 1.3.1 1.9.1.3.3.3.5.3h.4c.1 0 .2 0 .2.2s0 .2-.2.2c-.9.1-1.9.2-2.8.3-.1 0-.2-.1-.2-.2 0-.4 0-.8 0-1.2-.5.9-1.4 1.5-2.4 1.5-2.5 0-3.9-1.8-3.9-4.3s1.6-4.5 4.1-4.5c.8 0 1.6.3 2.1.9v-3.3zm0 5.5c.1-.6-.1-1.1-.3-1.6-.3-.6-.9-1-1.5-1-1.4 0-2.2 1.5-2.2 3.8s.9 3.5 2.2 3.5c.6 0 1.2-.4 1.5-1 .3-.4.4-.9.4-1.5z" fill="#333"/><path d="m853.8 59.9c.2.6.3.9.5 1.5.2-.6.4-.9.6-1.6l.8-2.4c.3-.9.4-1.5.2-1.8s-.5-.3-.9-.4c-.1 0-.1 0-.1-.2s0-.2.1-.2h1.7s1 0 1.5 0c.1 0 .2 0 .2.2s0 .2-.2.2c-.3 0-.7.2-.9.4-.4.5-.7 1.1-.9 1.7l-1.2 3.4c-.3.9-.5 1.3-.8 2.1-.3.2-.7.3-1.1.4-.1 0-.1 0-.2-.1-.2-.8-.5-1.4-.8-2.4l-1.3-3.4c-.2-.6-.5-1.3-.8-1.8-.2-.2-.4-.2-1-.3-.1 0-.1 0-.1-.2s0-.2.1-.2h2.1s1.5 0 2.2 0c.1 0 .1 0 .1.2s0 .2-.1.2c-.5 0-.9 0-1 .3s.1.8.5 1.8z" fill="#333"/><path d="m869 61c0 1.2.2 1.6.7 1.6.2 0 .4 0 .5-.1.1 0 .2 0 .2.1s.1.2 0 .3c-.5.3-1 .4-1.5.4-.7 0-1.3-.4-1.5-1-.6.7-1.6 1.1-2.5 1.1-1.8 0-2.3-1.1-2.3-1.9 0-.6.2-1.2.6-1.6.7-.5 1.5-.8 2.3-1 .5-.1 1-.3 1.4-.7.2-.2.4-.4.4-.7v-.5c0-1.3-.3-1.9-1.1-1.9-.3 0-.7.1-.9.4s-.4.6-.3 1c0 .5-.5.9-1.4.9-.5 0-.7-.2-.7-.6 0-.8 1.4-2.2 3.6-2.2 2.7 0 2.7 1.3 2.7 2.7zm-1.8-2.5c-.2.3-.4.4-1.4.8-.8.2-1.4 1-1.3 1.9-.1.7.4 1.4 1.1 1.5.9 0 1.6-.7 1.6-1.5 0 0 0 0 0-.1z" fill="#333"/><path d="m874.7 55.9c-.2 0-.2 0-.2-.2s0-.2.2-.3c1-.2 1.9-.5 2.8-.8.1 0 .2.1.2.1v1.5c.5-1 1.6-1.7 2.8-1.7 1.4-.1 2.6 1 2.6 2.4v.2 2 1.2c-.1.6 0 1.3.1 1.9.1.3.4.3.9.3.1 0 .1 0 .1.2s0 .2-.1.2c-.7 0-1.3 0-2 0s-1.4 0-2.1 0c-.1 0-.1 0-.1-.2s0-.2.1-.2c.5 0 .8-.1.9-.3.2-.6.2-1.3.2-1.9v-2.5c0-.5 0-1.1-.2-1.5-.2-.6-.7-.9-1.3-.9-.7 0-1.3.4-1.6 1-.3.4-.4.9-.4 1.4v2.4c-.1.6 0 1.3.1 1.9.1.3.4.3 1 .3.1 0 .2 0 .2.2s0 .2-.2.2c-.6 0-1.3 0-1.9 0s-1.4 0-2.1 0c-.1 0-.1 0-.1-.2s0-.2.1-.2c.5-.1.8-.1 1-.3.2-.6.2-1.3.1-1.9v-2.6c0-.5 0-1-.1-1.5 0-.3-.3-.4-.5-.4z" fill="#333"/><path d="m895.2 55c.4.1.7.4.7.8 0 .7-.2 1.2-.8 1.2s-.9-.7-1.1-1.1-.5-.8-1-.8c-1.4 0-2.1 1.6-2.1 3.8s1.3 3.5 2.5 3.5c.9 0 1.8-.4 2.3-1.3.1-.2.2-.1.3 0s.2.2.1.3c-.6 1.2-1.9 1.9-3.2 1.8-2.2.1-4.1-1.7-4.1-3.9 0-.2 0-.3 0-.5-.1-2.3 1.7-4.3 4.1-4.4h.1c.8.1 1.5.3 2.2.6z" fill="#333"/><path d="m902.8 58.9c0 2.4 1.5 3.6 2.6 3.6 1 .1 2-.4 2.5-1.3 0-.1.1-.1.2-.1s.1 0 .2.1c.1 0 .2.1.2.2s0 .1-.1.2c-.7 1.2-2 1.9-3.3 1.8-2.3 0-4.1-1.7-4.2-4 0-.1 0-.2 0-.3-.1-2.3 1.7-4.3 4-4.4h.1c1.9 0 3.4 1.5 3.5 3.3 0 .1 0 .2-.1.3s-.2.1-.3.1c-1.8-.1-3.6-.1-5.2 0-.1.1-.1.3-.1.5zm3.5-1.3c.2 0 .2-.1.2-.3-.1-1-.5-2.2-1.5-2.2s-1.7 1-2 2.5c1.1.1 2.2.1 3.3 0z" fill="#333"/><path d="m917.7 61.3c1.5 0 1.9-.1 2.2-.4.4-.4.8-.9 1-1.4.1-.1.1-.1.3-.1s.2.1.2.2c-.2.9-.7 2.5-1 3.5-1.2 0-2.2 0-3.5 0s-2.4 0-3.6 0c-.2 0-.2 0-.2-.3 0-.2 0-.4.1-.5.9-1.6 2-3.2 3.2-4.6 1.5-2 2.4-2.9 2.4-4.6 0-1.5-.5-2.6-1.5-2.6-.7 0-1.3.4-1.5 1-.1.4-.2.9-.2 1.3 0 .5-.7.8-1.3.8-.5 0-.9-.1-.9-.7 0-1.2 1.5-3.1 3.9-3.1s3.8 1.5 3.8 3.2c0 2.3-1.7 3.2-3.5 4.9-1.2.9-2.2 2-3 3.3z" fill="#333"/><path d="m934.2 56.6c0 4.2-1.5 6.8-4 6.8s-4-2.5-4-6.7 1.5-6.8 4-6.8 4 2.6 4 6.7zm-5.9.1c0 3.7.4 6.1 1.9 6.1s1.9-2.4 1.9-6.1-.4-6.2-1.9-6.2-1.9 2.4-1.9 6.2z" fill="#333"/><path d="m943.7 61.3c1.5 0 1.9-.1 2.2-.4.4-.4.8-.9 1-1.4.1-.1.1-.1.3-.1s.2.1.2.2c-.2.9-.7 2.5-1 3.5-1.2 0-2.2 0-3.5 0s-2.4 0-3.6 0c-.2 0-.2 0-.2-.3 0-.2 0-.4.1-.5.9-1.6 2-3.2 3.2-4.6 1.5-2 2.4-2.9 2.4-4.6 0-1.5-.5-2.6-1.5-2.6-.7 0-1.3.4-1.5 1-.1.4-.2.9-.2 1.3 0 .5-.7.8-1.3.8-.5 0-.9-.1-.9-.7 0-1.2 1.5-3.1 3.9-3.1s3.7 1.4 3.7 3.2c0 2.3-1.7 3.2-3.5 4.9-1.2.9-2.2 2-3 3.3z" fill="#333"/><path d="m955 52c-1 0-1.3.1-1.5.4-.3.4-.5.8-.6 1.2-.1.1-.1.2-.3.1s-.2-.1-.2-.2c.1-.9.4-2.4.5-3.3h3.6s2.4 0 3.5 0c.1 0 .2 0 .2.4s0 .3-.1.5c-1.4 2.4-2.5 5.1-3.1 7.8-.2.8-.3 1.6-.3 2.4v1.2s-.7 1-1.4 1-1.1-.2-1.1-.8c.1-1.6.5-3.2 1.3-4.6 1-2.1 2.2-4.1 3.5-6z" fill="#333"/><path d="m971.9 58c-.1 4.1-1.8 6-6.6 6.9-.1 0-.2-.2-.1-.3 3.7-1.4 4.9-3 4.9-6.9 0-.2 0-.4 0-.8 1.9.2 2.4.3 2.4.6s-.1.4-.6.5zm6.9-2.2c.7-.8.8-.9 1-.9s.3.1 1.2.9c.4.4.5.5.5.7 0 .3-.1.4-.8.4-.2 0-.4 0-.5.2-.5.4-1.1.8-1.7 1.1-.1 0-.2 0-.2-.1.3-.6.6-1.2.8-1.9h-11.3c0 1.4-.6 2.4-1.7 2.4-.4 0-.8-.3-.8-.7 0 0 0 0 0-.1 0-.4.2-.7.7-1 .9-.4 1.4-1.2 1.4-2.2 0-.1.2-.1.2 0 .1.4.2.7.2 1.1zm-4.8-2.3h3.2c.8-1 1.1-1.1 1.2-1.1s.4.1 1.2.8c.3.3.5.5.5.6s-.1.2-.2.2h-11.2c-.4 0-.8 0-1.2.1l-.2-.7c.5.1.9.1 1.4.1h3.8v-2.1h-5.4c-.4 0-.9 0-1.3.1l-.2-.7c.5.1.9.1 1.4.1h5.4v-.8c0-.6 0-1.2-.1-1.8 2.2.2 2.5.4 2.5.6s-.2.3-.6.5v1.6h4.5c.9-1 1.1-1.2 1.2-1.2s.4.2 1.2.8c.4.3.5.5.5.6s-.1.2-.2.2h-7.4zm1.8 8.8c0 .5.2.7 1.7.7.6 0 1.2 0 1.8-.2.5-.2.8-.8 1.4-2.6 0-.1.2-.1.2 0 0 .7-.1 1.4-.1 1.9 0 .2 0 .3.2.3.5.2.6.5.6.8s-.2.8-.8 1c-1.1.2-2.3.3-3.4.3-2.6 0-3.2-.2-3.2-1.6v-3c0-1 0-2-.1-3 2.3.3 2.3.3 2.3.6s-.1.3-.5.5z" fill="#333"/><path d="m995.3 63.4h4.4c1-1.3 1.3-1.5 1.4-1.5s.4.2 1.4 1c.5.4.6.6.6.7s-.1.2-.2.2h-13.9c-.6 0-1.2 0-1.7.1l-.2-.7c.6.1 1.3.1 1.9.1h4.5v-12c0-.8 0-1.7-.1-2.5 2.4.2 2.6.4 2.6.6s-.2.4-.6.5v5.4h2.9c1-1.3 1.2-1.4 1.3-1.4s.4.2 1.4 1c.5.4.6.5.6.7s-.1.2-.2.2h-6z" fill="#333"/><path d="m1012.6 63.2v.8c0 .5-.4.7-1.1.7-.5 0-.8-.2-.8-.6 0-1.8.1-3.6.1-10.9 0-1.5 0-3-.1-4.5.8.3 1.5.7 2.1 1.2h7.3c.7-.8.8-.9 1-.9s.3.1 1.1.7c.3.3.5.4.5.5s-.1.4-.5.6v2.2c0 5.7.1 9.6.1 10.9 0 .5-.4.8-1.1.8s-.8-.2-.8-.6v-.8zm7.8-13h-7.8v3.8h7.8zm0 4.2h-7.8v3.8h7.8zm0 4.2h-7.8v4.2h7.8z" fill="#333"/><path d="m1033.2 54.7c1.2.4 1.9 1.1 1.9 1.9 0 .5-.3.9-.8.9-.3 0-.4-.2-.5-.7-.1-.7-.3-1.3-.6-1.8 0 3.2.1 7.8.1 9.3 0 .4-.4.6-.9.6s-.7-.2-.7-.5c0-.9.1-4.8.1-8.1-.5 1.5-1.4 2.9-2.5 4.1 0 .1-.2 0-.2-.1 1.2-2.4 1.9-4.9 2.4-7.5h-.7c-.4 0-.8 0-1.1.1l-.2-.7c.4.1.9.1 1.3.2h.9v-1.9c0-.9 0-1.6-.1-2.3 1.9.2 2.2.3 2.2.6s-.2.3-.6.5v3c.4-.8.6-1 .7-1s.3.2.8.7c.2.1.3.3.3.5 0 .1 0 .2-.2.2h-1.6zm4.4 6.8c-1 1.1-2.3 2-3.7 2.5-.1 0-.2-.1-.1-.2.8-.7 1.5-1.6 2.1-2.6.2-.4.4-.8.6-1.2 1.6.8 1.9 1 1.9 1.2s-.3.3-.8.3zm3.3-.8v2.7c0 .4-.1.7-.4 1-.4.4-1 .5-1.6.5-.2 0-.2-.1-.3-.4-.1-.6-.4-1-1.8-1.3-.1 0-.1-.2 0-.2.7 0 1.5.1 2.1.1.2 0 .3 0 .3-.3v-3.4h-3.6c-.4 0-.7 0-1.1.1l-.2-.7c.4.1.9.1 1.3.1h7.5c.8-1 1-1.1 1.2-1.1s.4.2 1.2.8c.3.3.5.5.5.6s-.1.2-.2.2h-4.8zm-4-5.3c0 .4-.2.6-.9.6-.4 0-.6-.1-.6-.5s0-.8 0-2.1c0-.8 0-1.6-.1-2.4.6.2 1.1.5 1.7.8h1.2v-1.9h-1.8c-.5 0-1 0-1.4.1l-.2-.7c.5.1 1.1.1 1.7.1h7.1c.8-1 1-1.2 1.2-1.2s.4.2 1.2.8c.4.3.5.5.5.6s0 .2-.2.2h-3.7v1.9h1.3c.5-.6.7-.7.8-.7s.3.1.9.6c.3.2.4.4.4.5s-.2.3-.5.5v.4c0 1.2.1 1.9.1 2.1s-.3.6-.9.6c-.4 0-.7-.2-.7-.5v-.1h-6.9zm5 1.5c.7-.9.9-1 1.1-1s.4.2 1.1.7c.3.2.4.4.4.5s-.1.2-.2.2h-7.1c-.3 0-.7 0-1 .1l-.2-.7c.4.1.8.1 1.2.2zm-3.8-4.7h-1.3v2.7h1.3zm2.8-2.3h-1.3v1.9h1.3zm0 5v-2.6h-1.3v2.7zm3.8 9c-.4 0-.7-.2-.9-.8-.4-1.1-1.1-2.1-2-2.8-.1 0 .1-.2.1-.1 2.3.7 3.7 1.6 3.7 2.8.1.5-.3 1-.8 1.1 0-.2 0-.2-.1-.2zm-1-11.7h-1.4v2.7h1.4z" fill="#333"/><path d="m583.4 247c-.7 1-1.4 1.9-2.3 2.7-.1.1-.3-.1-.3-.3 1.6-2.8 2.8-5.9 3.6-9 .3-1.3.6-2.6.7-3.9 3.1.8 3.4.9 3.4 1.3s-.1.4-1 .6c-.7 2.2-1.6 4.3-2.7 6.3 1.5.2 1.7.3 1.7.6s-.2.4-.7.6v13.5c0 .8-.4 1.1-1.4 1.1s-1.2-.3-1.2-1 .2-2.7.2-6.8zm6.4 9.4c0 1.7-.7 3-2 3-.6 0-1.2-.4-1.2-1.1v-.1c0-.6.3-1 1-1.3 1-.3 1.6-1.1 1.7-2.1 0-.1.3-.2.3 0 .1.5.2 1 .2 1.6zm1.4-16c1.9.6 2.8 1.4 2.8 2.5 0 .6-.4 1-1 1.1h4.2c.2-.6.4-1.2.5-1.8.1-.5.2-1.1.3-1.7 2.2.7 2.9.9 2.9 1.2s-.2.3-.8.5c-.6.7-1.3 1.3-2 1.8h3.6c1.1-1.4 1.4-1.6 1.6-1.6s.5.2 1.6 1.1c.5.4.7.6.7.8s-.1.3-.3.3h-16.2c-.6 0-1.3.1-1.9.1l-.3-1c.7.1 1.4.2 2.1.2h3.5c-.4-.1-.7-.4-.7-.8-.1-1-.5-2-1.2-2.8h-.2c-.6 0-1.3.1-1.9.1l-.3-1c.7.1 1.4.2 2.1.2h4.2v-1.6c0-.5 0-1-.1-1.6 3 .3 3.3.5 3.3.8s-.3.4-.8.7v1.7h3.8c1.1-1.3 1.4-1.5 1.6-1.5s.5.2 1.6 1.1c.5.4.7.6.7.8s-.1.3-.3.3zm0 12.2c-.1.5-.5.7-1.3.7s-1.1-.3-1.1-.9c0-.4.1-.9.1-2.6 0-1.5 0-3-.2-4.6.9.3 1.9.7 2.7 1.2h8.1c.8-1 1.1-1.1 1.3-1.1s.5.2 1.4.8c.4.3.6.5.6.7s-.2.4-.7.8v.8 4c0 .7-.5 1-1.5 1-.7 0-.9-.2-.9-.8zm8.6-5.5h-8.6v2.2h8.6zm0 2.7h-8.6v2.2h8.6zm.2 7.4c0 .3.1.5.3.5.6.2.8.4.8.9s-.4.9-1.2 1.2c-1.4.3-2.8.4-4.2.4-3.3 0-4.4-.4-4.4-1.8 0-.5 0-1.1 0-3.4 0-.4 0-.8-.1-1.1 2.7.3 2.9.3 2.9.7s-.2.4-.7.6v2.3c0 .7.4.9 2.5.9.8.1 1.5 0 2.3-.2.7-.3 1-.9 1.5-2.6 0-.1.3-.1.3 0zm-3.3-.3c-.6 0-.7-.1-1.1-1.4-.2-.7-.6-1.3-1.1-1.9-.1-.1 0-.2.1-.2 2.2.4 3.2 1.1 3.2 2.2.1.8-.5 1.3-1.1 1.3zm7.1 2.2c-.7 0-.9-.3-1.2-1.6-.2-1.1-.7-2-1.4-2.8-.1-.1 0-.3.1-.2 2.6.8 3.7 1.8 3.7 3.1.1.7-.4 1.4-1.2 1.5z" fill="#333"/><path d="m616.9 259.3c0 .6-.6 1-1.6 1-.8 0-1.1-.2-1.1-.9 0-2.3.2-4.7.2-14.1 0-2.7 0-5.4-.2-8.1 1.3.6 1.6.8 2.9 1.4h14.7c1-1.1 1.2-1.2 1.4-1.2s.5.2 1.5 1c.4.4.6.6.6.8s-.2.4-.7.8v2.9c0 12.7.1 13.2.1 14.7 0 1.3-.3 1.9-1.2 2.3-.5.2-1.1.4-1.7.4-.4 0-.5-.2-.6-.7-.1-.9-.7-1.5-3.1-2-.1 0-.1-.3 0-.3 1.4 0 2.7.1 3.5.1.4 0 .4-.1.4-.5v-8.5h-15.1zm6.2-11.7v-8.4h-6.1v8.4zm9-8.4h-6.4v8.4h6.3z" fill="#333"/><path d="m685.1 262.9c-.1 0-.3-.2-.2-.3 7.1-5 9.8-10.6 9.8-20.1 0-.7 0-1.5-.1-2.2 3.4.3 3.8.4 3.8.9 0 .3-.1.4-.9.7 0 .8 0 1.6-.1 2.4.3 3.2 1.3 6.2 3 8.9 2 3.1 5 5.5 8.5 6.8.1 0 .1.3 0 .3-.9.2-1.6 1-1.7 1.9-.2.4-.3.5-.5.5-.5-.1-1-.4-1.3-.8-2.8-2.2-5.1-5.1-6.5-8.4-.9-2.2-1.4-4.6-1.6-7-1.1 8.5-4.5 12.9-12.2 16.4z" fill="#333"/><path d="m533.2 178.2c5.6-.1 11.1.7 16.4 2.5 4.1 1.3 7.7 3.7 10.4 7 2.5 3.2 3.8 7.1 3.7 11.2.1 3-.6 6-2 8.6-1.2 2.3-3 4.3-5.2 5.8-2.1 1.4-4.5 2.4-7 2.8-2.4.4-4.9.3-7.2-.3 2.7 0 5.3.4 7.8 1.1 2.9.8 5.7 2.1 8.2 3.8 2.7 1.9 4.9 4.4 6.4 7.3 1.8 3.6 2.7 7.6 2.5 11.6.1 5.2-1.2 10.3-3.9 14.8-2.6 4.3-6.2 7.9-10.5 10.6-4.5 2.8-9.6 4.8-14.8 5.9-5.6 1.2-11.3 1.5-16.9 1-5.7-.5-11.4-2-16.6-4.4l.2-1.2c4.7.1 9.4-.5 14-1.8 4.2-1.2 8.2-3.1 11.7-5.7 3.3-2.4 6-5.5 8-9.1 2-3.7 3-7.8 2.9-11.9 0-4.9-1.1-8.8-3.4-11.7-2.2-2.9-5.2-5.1-8.5-6.4s-6.7-2-10.2-2l.2-1.2c7.2.2 14-3.7 17.5-10 1.8-3.2 2.5-6.9 2-10.5-.1-2.6-1-5.1-2.5-7.1-1.4-1.8-3.2-3.1-5.3-3.8-2.2-.7-4.5-1-6.8-.7-4.8.4-8.2 2.5-10.2 6.3s-2.9 9.5-2.8 17h-1.3l-6.7-20.9c3.7-2.9 7.9-5 12.4-6.2 5.7-1.7 11.6-2.5 17.5-2.4z" fill="#4aa064"/><path d="m484.7 57.2c-.7.5-1.4 1-2.1 1.4-.1 0-.2-.1-.1-.2 1.2-1.2 2.2-2.5 3-3.9.4-.7.7-1.4.9-2.1 1.8.9 1.9.9 1.9 1.2s-.1.3-.7.4c-.4.7-1 1.4-1.6 2 .6.1.8.2.8.4s-.1.3-.5.4v7.5c0 .5-.3.8-.9.8-.4 0-.8-.1-.8-.6s.1-1.9.1-4.8zm2.7-7.4c-1.2 1.6-2.7 2.9-4.5 3.8-.1 0-.2-.1-.1-.2.9-1 1.8-2 2.4-3.2.3-.6.6-1.2.8-1.9 1.4.5 2.2.9 2.2 1.2s-.3.3-.8.3zm6.6 12.9c.7.1 1.5.2 2.2.2 1.1 0 2.2-.1 3.2-.2.1 0 .1.2 0 .2-.4.2-.7.7-.8 1.2-.1.4-.1.5-.3.5h-.5c-2.6 0-4-.3-5.4-1.1-1.2-.8-2.2-1.9-2.6-3.3-.6 1.7-1.8 3.2-3.2 4.3-.1 0-.2-.1-.1-.2 1.7-2.3 2.5-5.1 2.4-7.9 0-.2 0-.5 0-.9 1.8.3 2.2.4 2.2.6s-.1.3-.5.4c-.1 1-.3 2-.6 3 .5 1.1 1.3 1.9 2.4 2.5v-8.7h-2.8c-.4 0-.7 0-1.1.1l-.2-.7c.4.1.8.1 1.2.1h4c.5-1 .9-2.1 1.2-3.2.1-.4.2-.8.3-1.3 1.7.7 2.3.9 2.3 1.1s-.2.3-.7.3c-.7 1.1-1.5 2.1-2.5 3h2.2c.8-1 1-1.1 1.1-1.1s.4.1 1.1.8c.3.3.5.5.5.6s0 .2-.2.2h-4.8v4h1.6c.8-1 1-1.1 1.1-1.1s.3.2 1.1.8c.3.3.5.4.5.6s0 .2-.2.2h-4.1zm-2.7-10.3c-.5 0-.6-.1-.8-1.4-.2-.7-.5-1.5-.9-2.1 0-.1.1-.2.1-.2 1.7.7 2.6 1.5 2.6 2.4.1.7-.4 1.3-1 1.3z" fill="#333"/><path d="m513.4 59.6c.9.7 1.9 1.3 2.9 1.8 1.5.6 3.1.9 4.7 1 .1 0 .1.2 0 .2-.7.2-.8.4-1.3 1.5-.1.2-.2.2-.3.2-.3-.1-.6-.1-.8-.3-1.1-.4-2.2-1-3.2-1.7-.9-.7-1.7-1.5-2.3-2.4 0 2.3.1 4 .1 4.5s-.3.7-1.1.7c-.5 0-.7-.2-.7-.6s.1-2.2.1-3.8c-1.9 1.9-4.4 3.2-7.1 3.7-.1 0-.2-.1-.1-.2 2.4-1 4.4-2.6 6-4.6h-4.2c-.4 0-.8 0-1.3.1l-.2-.7c.5.1.9.1 1.4.2h5.5v-1.6h-3.5c-.4 0-.9 0-1.3.1l-.2-.7c.5.1.9.1 1.4.2h3.6v-1.6h-4.5c-.4 0-.9 0-1.3.1l-.2-.7c.5.1 1 .1 1.4.2h2.9c-.2-.1-.4-.3-.5-.8-.2-.6-.5-1.1-.9-1.5-.1-.1 0-.2.1-.2 1.6.3 2.5.8 2.5 1.6 0 .4-.2.8-.6.9h2.9c.3-.5.5-1 .8-1.5.2-.4.3-.8.4-1.1 1.5.6 2.1.8 2.1 1.1s-.1.3-.8.3c-.5.5-1.1.9-1.8 1.3h3c.8-.9 1.1-1.1 1.2-1.1s.4.1 1.2.8c.3.3.5.4.5.6s0 .2-.2.2h-6.4v1.6h2.8c.8-.9 1-1 1.1-1s.4.1 1 .7c.3.3.5.4.5.5s0 .2-.2.2h-5.2v1.7h4.5c.9-1 1.1-1.2 1.3-1.2s.3.1 1.2.8c.4.3.5.5.5.6s0 .2-.2.2zm-3.4-9.9c0-.4 0-.9-.1-1.3 2 .2 2.2.3 2.2.6s-.1.3-.6.5v2.6h1.5v-2.3c0-.4 0-.9-.1-1.3 2 .2 2.2.3 2.2.6s-.1.3-.6.5v2.6h.7c.4-.6.7-1.3 1-2 .2-.4.3-.8.4-1.2 1.6.7 2.1 1 2.1 1.2s-.1.3-.8.3c-.6.6-1.3 1.2-2.1 1.7h2.1c.8-.9 1-1 1.2-1s.4.1 1.1.7c.3.3.5.4.5.5s-.1.2-.2.2h-14.5c-.4 0-.9 0-1.3.1l-.2-.7c.5.1 1 .1 1.5.1h4zm-1.9 1.9c-.4 0-.6-.2-.8-.7-.2-.7-.5-1.3-1-1.8-.1-.1 0-.2.1-.2 1.7.3 2.6.9 2.6 1.7 0 .6-.4 1-.9 1z" fill="#333"/><path d="m532.4 63.2c-1.9.9-3.9 1.4-5.9 1.6-.1 0-.1-.2 0-.2 1.3-.5 2.5-1.1 3.6-1.8.5-.3.9-.7 1.2-1.1 1.6.8 2.1 1.1 2.1 1.3s-.3.2-1 .2zm-2.3-1.9c0 .5-.3.7-1 .7s-.8-.2-.8-.6c0-.7.1-1.7.1-4.6 0-1.1 0-2.5-.1-3.6.7.3 1.4.6 2 1h8.1c.6-.7.8-.8.9-.8s.3.1 1 .6c.3.2.4.4.4.5s-.1.3-.5.6v1.1c0 2.5.1 4.4.1 5s-.3.7-1 .7c-.5 0-.8-.2-.8-.6v-.1zm.8-8.6c0 .5-.3.7-1 .7-.4 0-.7-.1-.7-.5s0-1.1 0-2.2c0-.8 0-1.1 0-1.9.7.3 1.3.6 1.9.9h6.5c.7-.7.8-.8.9-.8s.3.1 1 .7c.3.3.4.4.4.5s-.1.2-.5.5v.3 1.8c0 .5-.3.7-1 .7s-.8-.2-.8-.6h-6.7zm7.6 2h-8.5v1.8h8.5zm-8.4 4h8.5v-1.9h-8.5zm0 2.2h8.5v-1.9h-8.5zm7.6-10.9h-6.8v2.2h6.8zm2.8 14.9c-.4 0-.5-.1-1-.6-1.1-1.1-2.4-1.8-3.8-2.2-.1 0 0-.2.1-.2 4 .2 5.6.8 5.6 2 .1.5-.2.9-.7 1-.1 0-.2 0-.2 0z" fill="#333"/><path d="m560.7 56.3c1-1.3 1.3-1.4 1.4-1.4s.4.1 1.4 1c.5.4.6.5.6.7s0 .2-.2.2h-14.1c-.6 0-1.2 0-1.8.1l-.2-.7c.6.1 1.3.1 1.9.2z" fill="#333"/><path d="m569.4 64.6c-.1 0-.2-.1-.1-.2 4.9-3.5 6.8-7.3 6.8-13.9 0-.5 0-1-.1-1.5 2.3.2 2.6.3 2.6.6s-.1.3-.6.5c0 .6 0 1.1-.1 1.7.2 2.2.9 4.3 2.1 6.2 1.4 2.2 3.5 3.8 5.9 4.7.1 0 .1.2 0 .2-.6.2-1.1.7-1.2 1.3-.1.3-.2.4-.3.4-.3-.1-.7-.3-.9-.5-2-1.5-3.5-3.5-4.5-5.8-.6-1.5-1-3.2-1.1-4.8-.7 5.7-3.1 8.7-8.5 11.1z" fill="#333"/><path d="m603.4 56c.7-.7.8-.8.9-.8s.3.1 1 .6c.3.2.4.4.4.5s-.1.2-.5.5v1.2c0 3.2.1 5.4.1 6.1 0 .5-.3.7-1.1.7-.5 0-.7-.2-.7-.6v-.5h-10.1c-.4 0-.8 0-1.2.1l-.2-.7c.5.1.9.1 1.4.1h10.2v-3.5h-9.4c-.4 0-.8.1-1.2.1l-.2-.7c.5.1.9.1 1.4.1h9.4v-3.1h-9.8c-.4 0-.9.1-1.3.2l-.2-.7c.5.1 1 .1 1.5.2h4.2v-5.7c0-.6 0-1.1-.1-1.7 2.2.2 2.4.4 2.4.6s-.2.3-.6.5v6.5zm-8.3-1.3c-.5 0-.7-.2-.9-1.1-.2-1.2-.7-2.4-1.5-3.4 0-.1 0-.2.1-.2 2.2.9 3.3 2.2 3.3 3.4 0 .8-.3 1.3-1 1.3zm9.9-3.3c-1 1.5-2.2 2.8-3.6 3.9-.1 0-.3-.1-.2-.2.7-1.2 1.3-2.5 1.8-3.8.2-.5.4-1.1.5-1.6 1.7.7 2.2 1 2.2 1.2s0 .3-.7.5z" fill="#333"/><path d="m620.5 51.9c.3 0 .6 0 .8.2.2.1.4.3.4.5 0 .3-.2.5-.6.6-1 .4-2 .7-3 .9-.3.8-.9 2.4-1.3 3.5s-1.1 2.8-2 5.2c-.3.7-.6.9-1 .9-.2 0-.4-.1-.5-.3-.2-.2-.2-.4-.2-.7.1-.5.2-.9.5-1.3 1.2-2.3 2.3-4.7 3.2-7.2-.7.1-1.3.2-2 .2-.7.1-1.3-.2-1.7-.7-.3-.3-.4-.6-.5-.9 0-.1 0-.2.1-.2s.2.1.3.2c.4.3.9.5 1.5.5.9 0 1.9-.2 2.8-.4.3-.8.5-1.6.6-2.4 0-.3-.1-.5-.4-.6-.2-.1-.4-.2-.7-.2-.1 0-.2-.1-.2-.1s0-.2.2-.3c.3-.1.6-.2.8-.2.7 0 1.3.3 1.8.7.2.1.3.3.3.5s-.1.4-.2.5c-.4.5-.7 1.1-.9 1.8.4-.1.8-.3 1.1-.5.3-.1.6-.2.8-.2zm-.3 7.5c-.1.4-.2.7-.2 1.1 0 1 .8 1.7 2.7 1.7.6 0 1.2 0 1.8-.1.3-.1.6-.1.9-.1s.6.1.9.2.5.4.5.8c0 .5-.4.7-1 .8-.7.1-1.3.1-2 .1-.8 0-1.6-.1-2.4-.3-1.2-.2-2.1-1.3-2.2-2.6 0-.6.2-1.2.5-1.7.1-.2.2-.3.3-.3s.1.1.1.2c.2 0 .1.1.1.2zm1.9-3.8c-.7.1-1.4.3-2 .7-.1 0-.1.1-.2 0-.1 0-.1 0-.2-.1 0-.1.1-.1.1-.2.5-.5 1-.8 1.7-1.1s1.5-.4 2.3-.4c.7 0 1.4.1 2 .4.4.1.6.5.6.9 0 .3-.3.6-.6.5-.2 0-.5 0-.7-.1-.2 0-.4 0-.7 0-.9.1-1.8.5-2.5 1-.1.1-.2.1-.3.1s-.1-.1-.1-.1c.5-.5 1.1-1 1.7-1.5-.3-.2-.7-.2-1.1-.1z" fill="#333"/><path d="m636.8 53.8c.2-.7.6-1.4 1-2 .3-.5.9-.8 1.5-.8.8 0 1.6.5 2 1.3.6 1.1.9 2.4.9 3.7.1 1.7-.3 3.4-1.2 4.8-.6.9-1.4 1.7-2.4 2.2-1 .6-2 1-3.1 1.3-.2.1-.3.1-.5.1-.1 0-.2 0-.2-.2s.1-.1.3-.2c1.7-.6 3.2-1.8 4.3-3.3.9-1.5 1.3-3.2 1.1-4.9 0-1-.1-2-.4-3-.3-.8-.7-1-1.1-1-.8 0-1.5.7-2.3 4.3-.2.6-.3 1.3-.3 1.9 0 .4 0 .8.1 1.2 0 .5-.2.7-.6.7s-1-.6-1.2-1.3c-.2-.8-.3-1.6-.2-2.4 0-1.3.2-2.6.4-3.9.1-.5.1-1 .2-1.5 0-.4-.2-.8-.5-1.1-.1-.1-.2-.2-.2-.2s.2-.2.4-.2.4.1.5.2c.5.3.9.8 1.2 1.4.1.2.2.5.2.8 0 .2-.1.4-.2.6s-.2.3-.3.5c-.4 1-.6 2.1-.7 3.1v1c0 .1.2.1.2 0 .5-1.6.8-2.3 1.1-3.1z" fill="#333"/><path d="m657.1 53.3c-.1.7-.2 1.3-.4 1.9-.3.9-.7 1.8-1.1 2.6-.5 1.1-1.2 2.1-2 3-.4.5-.9.7-1.5.7-.5 0-1-.3-1.4-.7-.8-.9-1.1-2.1-1-3.3 0-1 .3-1.9.8-2.7.6-1 1.4-1.9 2.4-2.5 1.3-.8 2.8-1.2 4.4-1.2 1.6-.1 3.2.4 4.5 1.4 1.4 1.1 2.2 2.8 2.1 4.6 0 1.4-.6 2.8-1.7 3.7-.8.7-1.7 1.2-2.7 1.6-1.2.4-2.4.6-3.7.7-.3 0-.4 0-.4-.2s.1-.2.3-.2c1.7-.3 3.4-1.1 4.6-2.4 1.1-1.1 1.7-2.6 1.6-4.2.1-1.3-.5-2.6-1.6-3.4-.8-.6-1.8-.9-2.9-1-.4 0-.8 0-1.1 0 .5.5.7 1 .8 1.6zm-4.4 0c-.7.6-1.2 1.4-1.5 2.2-.2.5-.3 1.1-.3 1.7 0 .7.1 1.4.5 1.9.2.3.4.5.8.6.3 0 .6-.2 1.2-1.2 1-1.4 1.8-2.9 2.4-4.4.2-.5.4-1 .4-1.5 0-.3-.1-.6-.3-.8-1.2.3-2.3.8-3.2 1.5z" fill="#333"/><path d="m676.3 58c-.1 4.1-1.8 6-6.6 6.9-.1 0-.2-.2-.1-.3 3.7-1.4 4.9-3 4.9-6.9 0-.2 0-.4 0-.8 1.9.2 2.4.3 2.4.6s-.1.4-.6.5zm7-2.2c.7-.8.8-.9 1-.9s.3.1 1.2.9c.4.4.5.5.5.7 0 .3-.1.4-.8.4-.2 0-.4 0-.5.2-.5.4-1.1.8-1.7 1.1-.1 0-.2 0-.2-.1.3-.6.6-1.2.8-1.9h-11.3c0 1.4-.6 2.4-1.7 2.4-.4 0-.8-.3-.8-.8 0-.4.2-.7.7-1 .9-.4 1.4-1.2 1.4-2.2 0-.1.2-.1.2 0 .1.4.2.7.2 1.1zm-4.8-2.3h3.2c.8-1 1.1-1.1 1.2-1.1s.4.1 1.2.8c.3.3.5.5.5.6s-.1.2-.2.2h-11.4c-.4 0-.8 0-1.2.1l-.2-.7c.5.1.9.1 1.4.1h3.8v-2.1h-5.4c-.4 0-.9 0-1.3.1l-.2-.7c.5.1.9.1 1.4.1h5.4v-.8c0-.6 0-1.2-.1-1.8 2.2.2 2.5.4 2.5.6s-.2.3-.6.5v1.6h4.5c.9-1 1.1-1.2 1.2-1.2s.4.2 1.2.8c.4.3.5.5.5.6s-.1.2-.2.2h-7.2zm1.7 8.8c0 .5.2.7 1.7.7.6 0 1.2 0 1.8-.2.5-.2.8-.8 1.4-2.6 0-.1.2-.1.2 0 0 .7-.1 1.4-.1 1.9 0 .2 0 .3.2.3.5.2.6.5.6.8s-.2.8-.8 1c-1.1.2-2.3.3-3.4.3-2.6 0-3.2-.2-3.2-1.6v-3c0-1 0-2-.1-3 2.3.3 2.3.3 2.3.6s-.1.3-.5.5z" fill="#333"/><path d="m699.8 63.4h4.4c1-1.3 1.3-1.5 1.4-1.5s.4.2 1.4 1c.5.4.6.6.6.7s0 .2-.2.2h-13.9c-.6 0-1.2 0-1.7.1l-.2-.7c.6.1 1.3.1 1.9.1h4.5v-12c0-.8 0-1.7-.1-2.5 2.4.2 2.6.4 2.6.6s-.2.4-.6.5v5.4h2.9c1-1.3 1.2-1.4 1.3-1.4s.4.2 1.4 1c.5.4.6.5.6.7s-.1.2-.2.2h-6z" fill="#333"/><path d="m720.1 49.4c0-.4 0-.7-.1-1.1 2.2.2 2.5.4 2.5.6s-.2.3-.6.5v1.1h4.4c1-1.1 1.2-1.2 1.3-1.2s.3.1 1.2.8c.4.3.5.5.5.6s0 .2-.2.2h-14.4c-.4 0-.8 0-1.3.1l-.2-.7c.5.1 1 .1 1.4.1h5.5zm6.2 7.7c.6-.7.8-.8.9-.8s.3.1 1 .7c.3.3.4.4.4.5s-.2.3-.6.6v.9 4.4c.1.5-.2 1.1-.7 1.3-.3.2-.7.3-1.2.3-.2 0-.3-.1-.4-.5s-.3-.8-1.6-1.2c-.1 0-.1-.2 0-.2.8.1 1.3.1 1.9.1.2 0 .2-.1.2-.2v-5.5h-10.7v6.7c0 .6-.3.8-1 .8-.5 0-.7-.2-.7-.7 0-1 .1-2 .1-6 0-.7 0-1.4-.1-2.1.6.2 1.3.5 1.8.9zm-8.2-1.6c0 .6-.3.8-1 .8-.5 0-.7-.2-.7-.6s0-.9 0-2.7c0-.5 0-1 0-1.5.6.2 1.2.5 1.8.9h5.7c.6-.7.7-.8.8-.8s.3.1 1 .6c.3.2.4.4.4.5s-.1.3-.5.5v.4 1.9c0 .6-.3.8-1 .8-.5 0-.7-.2-.7-.6v-.1zm1 6.6v.4c0 .5-.3.7-1 .7-.5 0-.7-.2-.7-.6s0-.8 0-2.5c0-.6 0-1.2-.1-1.8.8.3.9.4 1.8.8h3.5c.5-.6.7-.7.8-.7s.3.1 1 .6c.3.2.4.4.4.5s-.1.3-.5.5v.3 1.8c0 .5-.3.7-.9.7-.5 0-.7-.1-.7-.5v-.2zm4.9-9.3h-5.9v2.3h5.9zm-1.1 6.7h-3.7v2.2h3.7z" fill="#333"/><path d="m676.1 237.2-24.6 24.6" fill="none" stroke="#333" stroke-miterlimit="10"/><path d="m1006.2 181.8h-.1z" fill="#333"/><path d="m1024.1 142.8c-.9-1.3-2-2.6-3.1-3.8-.4-.4-.8-.9-1.1-1.3-.2-.2-.3-.4-.4-.7 0-.2 0-.3 0-.5.1-1 .2-2 .5-3 .4-1.4.6-2.9.7-4.3 0-1.3-.3-2.5-.9-3.6-.4-.7-.9-1.2-1.5-1.7-.9-.7-1.8-1.3-2.9-1.7-1.4-.6-2.8-.9-3.8-1.2-.4-.1-.9-.3-1.3-.5-.2-.1-.4-.2-.6-.4-.3-.3-.5-.7-.6-1.2-.4-1-.8-2.5-1.4-4.1-.3-.9-.7-1.7-1.2-2.5-.6-.9-1.4-1.7-2.3-2.3-1.1-.6-2.4-.9-3.6-.9-1.5.1-2.9.3-4.3.7-1 .3-2 .4-3 .5-.2 0-.3 0-.5 0-.4-.2-.8-.4-1.1-.7-.8-.7-1.9-1.8-3.2-2.9-.7-.6-1.5-1.1-2.3-1.5-1-.5-2.1-.8-3.2-.8-1.4 0-2.8.5-4 1.3-1.3.9-2.6 2-3.8 3.1-.4.4-.9.8-1.3 1.1-.2.2-.4.3-.7.4-.2 0-.3 0-.5 0-1-.1-2-.2-3-.5-1.4-.4-2.9-.6-4.3-.7-1.3 0-2.5.3-3.6.9-.7.4-1.2.9-1.7 1.4-.7.9-1.3 1.8-1.7 2.9-.5 1.4-.9 2.8-1.2 3.8-.1.4-.3.9-.5 1.3-.1.2-.2.4-.4.6-.3.3-.7.5-1.2.7-1 .4-2.5.8-4.1 1.3-.9.3-1.7.7-2.5 1.2-.9.6-1.7 1.4-2.3 2.3-.6 1.1-.9 2.4-.9 3.6.1 1.5.3 2.9.7 4.3.3 1 .4 2 .5 3v.5c-.2.4-.4.8-.7 1.1-.7.9-1.8 1.9-2.9 3.2-.6.7-1.1 1.5-1.5 2.3-.5 1-.8 2.1-.8 3.2 0 1.4.5 2.8 1.3 4 .9 1.3 2 2.6 3.1 3.8.4.4.8.9 1.1 1.3.2.2.3.5.4.7v.1-.1c0 .2.1.3 0 .5-.1 1-.2 2-.5 3-.4 1.4-.6 2.9-.7 4.3 0 1.3.3 2.5.9 3.6.4.7.9 1.2 1.5 1.7.9.7 1.8 1.3 2.9 1.7 1.4.6 2.8.9 3.8 1.3.4.1.9.3 1.3.5.2.1.4.2.6.4.2.3.4.6.6 1 .2.6.5 1.4.8 2.2.2.8.5 1.6.8 2.4.3.9.8 1.8 1.4 2.6.3.4.6.7 1 1l-9.7 20.9 13.4-.4 8.3 10.5 9.5-20.5 9.5 20.5 8.3-10.5 13.4.4-9.3-20 .1-.1c.8-.5 1.5-1.1 2-1.8.6-.9 1.1-1.8 1.5-2.8.5-1.4.8-2.6 1.2-3.6.1-.4.3-.8.5-1.2.1-.2.2-.4.4-.5.3-.3.7-.5 1.2-.6 1-.4 2.5-.8 4.1-1.4.9-.3 1.7-.7 2.5-1.2.9-.6 1.7-1.4 2.3-2.4.6-1.1.9-2.4.9-3.6-.1-1.5-.3-2.9-.7-4.3-.3-1-.4-2-.5-3 0-.2 0-.3 0-.5.2-.4.4-.8.7-1.1.7-.9 1.8-1.9 2.9-3.2.6-.7 1.1-1.5 1.5-2.3.5-1 .8-2.1.8-3.2-.4-1.5-.8-2.9-1.6-4zm-5.3 4.7c-.7 1-1.6 2-2.5 2.9-.6.6-1.1 1.3-1.6 1.9-.6.8-1 1.7-1.3 2.7-.2.7-.3 1.4-.3 2.1.1 1.5.3 2.9.7 4.4.3 1 .4 2 .5 2.9v.4.1l-.1.1c-.3.3-.7.5-1.1.6-.9.4-2.2.7-3.5 1.1-.7.2-1.4.5-2.1.9-.8.4-1.5.9-2.2 1.5-.8.8-1.4 1.8-1.8 2.8-.5 1.3-.9 2.5-1.3 3.8-.2.8-.6 1.5-1 2.2l-.1.1h-.1c-.1 0-.3 0-.4 0-1-.1-2-.2-3-.5-1.4-.4-2.9-.6-4.4-.6-.7 0-1.4.1-2.1.3h-.1l-.2.1c-1.5.5-2.8 1.3-3.9 2.4-1 .9-1.9 1.8-2.6 2.4-.3.3-.6.5-1 .7-.1.1-.2.1-.4.1-.1 0-.3-.1-.4-.1-.4-.2-.7-.4-1-.7-.8-.6-1.7-1.5-2.7-2.4-1.2-1.1-2.6-1.9-4.1-2.4-.7-.2-1.4-.3-2.1-.3-1.5.1-2.9.3-4.4.6-1 .3-2 .4-3 .5-.1 0-.3 0-.4 0h-.1l-.2-.2c-.3-.3-.5-.6-.7-1-.2-.5-.4-1.2-.6-1.9-.3-1-.6-1.9-1-2.8-.4-1.1-1.1-2.1-1.9-3-.9-.9-2.1-1.6-3.3-2-1.6-.6-3.1-1-4.2-1.4-.4-.1-.8-.3-1.2-.6-.1-.1-.2-.1-.3-.2v-.1c0-.1 0-.3 0-.4.1-1 .2-2 .5-2.9.4-1.4.6-2.9.7-4.4 0-.7-.1-1.4-.3-2.1-.4-1.2-1-2.4-1.8-3.4-1.1-1.3-2.2-2.4-3-3.3-.3-.3-.5-.7-.8-1.1-.1-.1-.1-.3-.1-.4 0-.3.1-.5.3-.7.7-1 1.6-2 2.5-2.9.6-.6 1.1-1.3 1.6-2 .6-.8 1-1.7 1.3-2.7.2-.7.3-1.4.3-2.1-.1-1.5-.3-2.9-.7-4.4-.3-1-.4-1.9-.5-2.9 0-.1 0-.3 0-.4v-.1l.1-.1c.3-.3.7-.5 1.1-.6.9-.4 2.2-.7 3.5-1.1.7-.2 1.4-.5 2.1-.9.8-.4 1.5-.9 2.2-1.5.9-.9 1.6-2.1 2-3.3.6-1.6 1-3.1 1.4-4.2.1-.4.3-.8.6-1.2.1-.1.1-.2.2-.3h.1.4c1 .1 2 .2 3 .5 1.4.4 2.9.6 4.4.7.7 0 1.4-.1 2.1-.3 1.2-.4 2.4-1 3.4-1.8 1.3-1.1 2.4-2.2 3.3-2.9.3-.3.7-.6 1.1-.8.1-.1.3-.1.4-.1.3 0 .5.2.7.3 1 .7 2 1.6 2.9 2.5.6.6 1.3 1.1 2 1.6.8.6 1.7 1 2.7 1.3.7.2 1.4.3 2.1.3 1.5-.1 2.9-.3 4.4-.7 1-.3 2-.4 3-.5h.4.1l.1.1c.3.3.5.7.6 1.1.4.9.7 2.2 1.2 3.5.2.7.5 1.4.9 2.1.4.8.9 1.5 1.5 2.2v.1-.1c.9.9 2.1 1.6 3.3 2 1.6.6 3.1 1 4.2 1.4.4.1.8.3 1.2.6.2.2.3.2.3.3v.1.4c-.1 1-.2 2-.5 2.9-.4 1.4-.6 2.9-.7 4.4 0 .7.1 1.4.3 2.1.4 1.2 1 2.4 1.8 3.4 1.1 1.3 2.2 2.4 3 3.3.3.3.6.7.8 1.1.1.1.1.3.1.4 0-.2 0 0-.3.5z" fill="#333"/><path d="m982.9 120.9c-14.3 0-25.9 11.5-26 25.8 0 13.8 10.7 25.2 24.5 25.9.5 0 1 .1 1.5.1 14.3-.3 25.7-12.1 25.4-26.4-.3-13.9-11.5-25.1-25.4-25.4zm15 40.9c-4 4-9.4 6.2-15 6.2-.4 0-.8 0-1.2 0-11.7-.7-20.7-10.7-20-22.4s10.7-20.7 22.4-20 20.7 10.7 20 22.4c-.3 5.2-2.5 10.1-6.2 13.8z" fill="#333"/><path d="m655.1 122.6c0-3.2-2.6-5.7-5.7-5.7-3.2 0-5.7 2.6-5.7 5.7s2.6 5.7 5.7 5.7c3.1 0 5.7-2.5 5.7-5.7z" fill="#333"/><path d="m636.5 135.8v19.2c.2 1.4 1.4 2.4 2.8 2.2 1.1-.1 2-1 2.2-2.2v-15.8h1.2v43c-.1 1.8 1.3 3.4 3.1 3.5s3.4-1.3 3.5-3.1c0-.1 0-.2 0-.4v-25h1.1v25c-.1 1.8 1.3 3.4 3.1 3.5s3.4-1.3 3.5-3.1c0-.1 0-.2 0-.4v-43h1.2v15.8c-.1 1.4.9 2.6 2.3 2.7s2.6-.9 2.7-2.3c0-.1 0-.3 0-.4v-19.2c-.3-3.1-2.7-5.5-5.8-5.8h-15c-3.2.3-5.6 2.7-5.9 5.8z" fill="#333"/><path d="m705 164.2c-1.3.4-2.5.8-3.9 1.1-.6.1-1.2.2-1.8.2l.1-.2c.4-1.4.8-2.8 1-3.9s.4-2.1.5-2.4c.1-.7.3-1.4.5-2.1.2-.4.5-.8 1-.9 2.2-.6 4.1-2 5.3-3.9 1.4-2.3 2.1-5 1.9-7.7-.1-1.8-.5-2.6-1.1-2.8s-1.2.3-2.1 1c-.9.8-1.9 1.6-3 2.3-.5.3-1 .6-1.6.8-.1-1.2-.3-2.5-.5-3.6s-.3-2-.4-2.3c-.3-1.8-.5-2.6.4-3.2 1.8-1.3 3-3.1 3.4-5.3.5-2.5.2-5.1-.9-7.4-.7-1.6-1.3-2.1-1.9-2.1s-1 .7-1.5 1.6c-.6 1-1.3 2-2 3-.3.4-.7.9-1.1 1.2-.5-.9-.9-1.9-1.4-2.6-.5-.9-.9-1.6-1.1-1.9-.9-1.5-1.2-2.2-.7-3 1.2-1.7 1.7-3.7 1.4-5.8-.3-2.4-1.3-4.6-3-6.3-1.1-1.2-1.8-1.5-2.3-1.3s-.7.9-.9 1.9c-.2 1.1-.5 2.2-.8 3.3-.2.5-.4 1-.7 1.4-.5-.5-1-1-1.5-1.4-.8-.7-1.4-1.3-1.6-1.5-1.3-1.2-1.8-1.7-1.6-2.6.6-2 .5-4.1-.4-5.9-1-2.2-2.7-4-4.8-5.1-1.4-.8-2.2-.9-2.6-.5s-.3 1.1-.3 2.1c.1 1.1.2 2.2.2 3.2-.8-.9-1.9-1.7-3-2.2-1.7-.7-3.5-1-5.2-.9-1.8.1-3.3.8-3.6 2.1s.5 2.6 1.6 3.7 2.4 2.1 3.8 2.8c1 .5 2.1.8 3.2.9-1 .7-1.9 1.3-2.7 1.9s-1.2 1-1.3 1.5.3.9 1.2 1.5c1.5.8 3.3 1.2 5 1.1 1.9-.1 3.7-.6 5.2-1.6.8-.4 1.4 0 2.6 1 .2.2.7.7 1.4 1.4.4.4.8.9 1.2 1.4-.4.2-.9.4-1.4.6-1.1.4-2.2.7-3.1 1-.7.1-1.3.5-1.7 1-.2.4 0 1 .7 1.8 1.2 1.3 2.8 2.2 4.5 2.6 1.8.5 3.7.5 5.5.1.9-.2 1.4.4 2.2 1.8.1.2.5.9.9 1.8s.7 1.6 1.1 2.5c-.6.1-1.1.1-1.7.1-1.3 0-2.5-.1-3.4-.1-.7-.1-1.5.1-2.1.5-.4.4-.3.9.1 2 .8 1.7 2 3.1 3.5 4.1 1.6 1.1 3.5 1.8 5.4 2 1 .2 1.2.9 1.5 2.5 0 .3.2 1.1.2 2.1s.2 2.1.2 3.3c-.6-.1-1.1-.3-1.7-.5-1.2-.4-2.4-1-3.3-1.3-.7-.3-1.5-.4-2.2-.3-.5.2-.7.8-.6 2 .2 1.9.9 3.7 2 5.3 1.2 1.7 2.7 3 4.6 4 .4.2.7.6.8 1.1 0 .7 0 1.3-.2 2-.1.3-.2 1.1-.5 2.1s-.7 2.3-1.2 3.5c0 .1-.1.1-.1.2-.5-.4-1-.7-1.4-1.1-1-.9-2-1.9-2.8-2.6-.5-.6-1.2-1-2-1.2-.6 0-1 .5-1.4 1.7-.6 1.9-.6 3.9-.1 5.8.5 2.1 1.5 4 2.8 5.7.7.9.3 1.6-.7 3.2-.2.3-.7 1-1.4 1.8s-1.6 1.7-2.6 2.7l-.5.5c-.3-.5-.6-1.1-.9-1.7-.6-1.3-1.1-2.6-1.6-3.7-.3-.8-.8-1.5-1.5-2-.5-.2-1.2 0-2 1-1.4 1.6-2.3 3.5-2.6 5.5-.4 2.2-.3 4.5.3 6.7.3 1.1-.4 1.7-2 2.7-.3.2-1.1.6-2.1 1.1s-2.4 1.1-3.7 1.6-3.1 1.3-4.1 1.6c-12.5 4.4-27.5 6.3-36.8 13.1-1.5 1.1 1.4 5.2 2.7 4.9s10.4-5.8 33.3-12.1c1-.3 5.6-1.9 7-2.5s2.8-1.4 4-2.1 2-1.2 2.3-1.4c.7-.5 1.4-.8 2.1-1.1.5-.2 1.1-.1 1.5.1 1 .7 2.2 1.1 3.4 1.3 1.3.2 2.6.2 3.9 0 1.4-.3 2.8-.8 4-1.5 1.4-.8 2.6-1.8 3.6-3 1.4-1.6 1.7-2.5 1.4-3s-1.2-.7-2.4-.8c-1.4-.1-2.8-.3-4.2-.6-.6-.2-1.2-.4-1.8-.6.2-.2.3-.4.5-.6 1-1.1 1.9-2.4 2.6-3.4s1.2-1.8 1.4-2.1c1.1-1.7 1.6-2.4 2.8-2.3 2.4.3 4.8-.3 6.8-1.7 1.1-.8 2.1-1.7 2.9-2.8.9-1.2 1.6-2.6 2-4 .6-1.9.5-2.8 0-3.2s-1.2-.1-2.3.3z" fill="#333"/><path d="m636 199.3c2.9-1.1 5.9-2.1 9-2.9-3.3-.9-6.6-1.9-9.7-2.9-1-.3-2.8-1.1-4.1-1.6s-2.7-1.1-3.7-1.6-1.9-1-2.2-1.1c-1.7-1-2.3-1.6-2-2.7.6-2.2.7-4.4.3-6.7-.3-2-1.2-4-2.6-5.5-.9-1-1.5-1.2-2-1-.7.5-1.2 1.2-1.5 2-.5 1-1 2.3-1.6 3.7-.3.6-.5 1.1-.9 1.7l-.5-.5c-.9-1-1.9-2-2.6-2.9s-1.2-1.6-1.4-1.8c-1-1.5-1.4-2.3-.7-3.2 1.4-1.6 2.4-3.6 2.8-5.7.5-1.9.4-3.9-.1-5.8-.4-1.2-.8-1.7-1.4-1.7-.8.1-1.5.6-2 1.2-.8.7-1.7 1.7-2.8 2.6-.5.4-1 .8-1.5 1.1 0-.1 0-.1-.1-.2-.5-1.2-.9-2.5-1.2-3.5s-.5-1.8-.5-2.1c-.2-.7-.2-1.3-.2-2 .1-.5.3-.9.8-1.1 1.8-.9 3.4-2.3 4.6-4 1.1-1.5 1.8-3.4 2-5.3.1-1.2-.1-1.8-.6-2-.8-.1-1.5 0-2.2.3-1 .4-2.1.9-3.3 1.3-.5.2-1.1.4-1.7.5 0-1.1.1-2.3.2-3.3s.2-1.8.2-2.1c.3-1.6.5-2.4 1.5-2.5 1.9-.2 3.8-.9 5.4-2 1.5-1 2.8-2.4 3.5-4.1.5-1.1.5-1.6.1-2-.6-.4-1.4-.5-2.1-.5-1 0-2.2.1-3.4.1-.6 0-1.1 0-1.7-.1.4-.9.7-1.8 1.1-2.5s.8-1.6.9-1.8c.8-1.4 1.2-2 2.2-1.8 1.8.4 3.7.4 5.5-.1 1.7-.4 3.3-1.3 4.5-2.6.8-.8 1-1.3.7-1.8-.5-.5-1.1-.9-1.7-1-.9-.3-2-.6-3.1-1-.5-.2-.9-.4-1.4-.6.4-.5.8-1 1.2-1.4.7-.7 1.2-1.3 1.4-1.4 1.2-1.1 1.8-1.5 2.6-1 1.6.9 3.4 1.5 5.2 1.6s3.5-.3 5-1.1c1-.5 1.3-1 1.2-1.5s-.6-1-1.3-1.5-1.7-1.2-2.7-1.9l-.1-.1c1.1-.1 2.2-.4 3.2-.9 1.4-.7 2.7-1.6 3.8-2.7 1.1-1.2 2-2.5 1.6-3.7s-1.8-1.9-3.6-2.1c-1.8-.1-3.6.2-5.3.9-1.1.5-2.2 1.2-3 2.2 0-1.1.1-2.2.2-3.2s.1-1.7-.3-2.1-1.2-.2-2.6.5c-2.1 1.1-3.8 2.9-4.8 5.1-.9 1.9-1 4-.4 5.9.3 1-.3 1.5-1.6 2.6-.2.2-.8.7-1.6 1.5-.5.4-.9.9-1.5 1.4-.3-.5-.5-.9-.7-1.4-.3-1.1-.6-2.2-.8-3.3-.2-1-.4-1.7-.9-1.9s-1.2.1-2.3 1.3c-1.7 1.7-2.7 4-3 6.3-.3 2 .2 4.1 1.4 5.8.5.8.2 1.5-.7 3-.2.3-.6 1-1.1 1.9-.4.8-.9 1.7-1.4 2.6-.4-.4-.8-.8-1.1-1.2-.7-1-1.4-2-2-3-.5-.9-1-1.6-1.5-1.6s-1.1.5-1.9 2.1c-1.1 2.3-1.4 4.9-.9 7.4.4 2.1 1.6 4 3.4 5.3.8.6.7 1.4.4 3.2-.1.3-.2 1.1-.4 2.3s-.3 2.3-.5 3.6c-.6-.2-1.1-.5-1.6-.8-1-.7-2.1-1.5-3-2.3-.8-.7-1.5-1.2-2.1-1s-.9.9-1.1 2.8c-.2 2.7.4 5.4 1.9 7.7 1.2 1.9 3.1 3.3 5.3 3.9.5.1.8.5 1 .9.3.7.4 1.4.5 2.1.1.3.2 1.2.5 2.4s.6 2.6 1 3.9l.1.2c-.6 0-1.2-.1-1.8-.2-1.3-.3-2.6-.6-3.9-1.1-1.1-.4-2-.6-2.4-.2s-.5 1.3.1 3.2c.4 1.4 1.1 2.8 2 4 .8 1.1 1.8 2.1 2.9 2.8 2 1.4 4.4 2 6.8 1.7 1.2-.1 1.6.6 2.8 2.3.2.3.7 1.1 1.4 2.1s1.6 2.2 2.6 3.4c.2.2.3.4.5.6-.6.3-1.2.5-1.8.6-1.4.3-2.8.5-4.2.6-1.2.1-2.1.3-2.4.8s0 1.5 1.4 3c1 1.2 2.3 2.2 3.6 3 1.2.7 2.6 1.2 4 1.5 1.3.2 2.6.2 3.9 0 1.2-.2 2.3-.7 3.4-1.3.5-.3 1-.3 1.5-.1.7.3 1.5.7 2.1 1.1.3.2 1.2.7 2.3 1.4s2.6 1.4 4 2.1 6.1 2.1 7.3 2.5z" fill="#333"/><path d="m663.5 202c-3.6 1-6.8 2-9.8 2.9 10.1 3.7 14.7 6.3 15.6 6.5 1.3.3 4.2-3.8 2.7-4.9-2.6-1.8-5.5-3.3-8.5-4.5z" fill="#333"/><path d="m436.3 309v-309" fill="none" stroke="#4aa064" stroke-miterlimit="10" stroke-width="1.76"/><path d="m186.5 121.1h23.8v42.1h-23.8z" fill="#333"/><path d="m219.8 103.4h23.8v59.9h-23.8z" fill="#333"/><path d="m153.1 138.2h23.8v25.1h-23.8z" fill="#333"/><path d="m286.1 80.6-19.6-33.7c-.5-.8-1.5-1.1-2.3-.6-.3.1-.5.4-.6.6l-19.6 33.7c-.5.8-.2 1.9.6 2.3.3.1.5.2.8.2h7.7v80.1h23.9v-80h7.7c.9 0 1.7-.8 1.7-1.7 0-.3-.1-.6-.3-.9z" fill="#333"/></svg>