<svg enable-background="new 0 0 1082 339.9" viewBox="0 0 1082 339.9" xmlns="http://www.w3.org/2000/svg" xmlns:xlink="http://www.w3.org/1999/xlink"><clipPath id="a"><path d="m0 0h1082v339.9h-1082z"/></clipPath><clipPath id="b"><path d="m0 0h1082v339.9h-1082z"/></clipPath><clipPath id="c"><path d="m0 0h1082v339.9h-1082z"/></clipPath><clipPath id="d"><path d="m0 0h1082v339.9h-1082z"/></clipPath><clipPath id="e"><path d="m0 0h1082v339.9h-1082z"/></clipPath><clipPath id="f"><path d="m0 0h1082v339.9h-1082z"/></clipPath><clipPath id="g"><path d="m0 0h1082v339.9h-1082z"/></clipPath><clipPath id="h"><path d="m0 0h1082v339.9h-1082z"/></clipPath><clipPath id="i"><path d="m0 0h1082v339.9h-1082z"/></clipPath><clipPath id="j"><path d="m0 0h1082v339.9h-1082z"/></clipPath><clipPath id="k"><path d="m0 0h1082v339.9h-1082z"/></clipPath><clipPath id="l"><path d="m0 0h1082v339.9h-1082z"/></clipPath><clipPath id="m"><path d="m0 0h1082v339.9h-1082z"/></clipPath><clipPath id="n"><path d="m0 0h1082v339.9h-1082z"/></clipPath><clipPath id="o"><path d="m0 0h1082v339.9h-1082z"/></clipPath><clipPath id="p"><path d="m0 0h1082v339.9h-1082z"/></clipPath><clipPath id="q"><path d="m0 0h1082v339.9h-1082z"/></clipPath><clipPath id="r"><path d="m0 0h1082v339.9h-1082z"/></clipPath><clipPath id="s"><path d="m0 0h1082v339.9h-1082z"/></clipPath><clipPath id="t"><path d="m0 0h1082v339.9h-1082z"/></clipPath><clipPath id="u"><path d="m0 0h1082v339.9h-1082z"/></clipPath><clipPath id="v"><path d="m0 0h1082v339.9h-1082z"/></clipPath><clipPath id="w"><path d="m0 0h1082v339.9h-1082z"/></clipPath><clipPath id="x"><path d="m0 0h1082v339.9h-1082z"/></clipPath><clipPath id="y"><path d="m0 0h1082v339.9h-1082z"/></clipPath><clipPath id="z"><path d="m0 0h1082v339.9h-1082z"/></clipPath><clipPath id="A"><path d="m0 0h1082v339.9h-1082z"/></clipPath><clipPath id="B"><path d="m0 0h1082v339.9h-1082z"/></clipPath><clipPath id="C"><path d="m0 0h1082v339.9h-1082z"/></clipPath><clipPath id="D"><path d="m0 0h1082v339.9h-1082z"/></clipPath><clipPath id="E"><path d="m0 0h1082v339.9h-1082z"/></clipPath><clipPath id="F"><path d="m0 0h1082v339.9h-1082z"/></clipPath><clipPath id="G"><path d="m0 0h1082v339.9h-1082z"/></clipPath><clipPath id="H"><path d="m0 0h1082v339.9h-1082z"/></clipPath><clipPath id="I"><path d="m0 0h1082v339.9h-1082z"/></clipPath><clipPath id="J"><path d="m0 0h1082v339.9h-1082z"/></clipPath><clipPath id="K"><path d="m0 0h1082v339.9h-1082z"/></clipPath><clipPath id="L"><path d="m0 0h1082v339.9h-1082z"/></clipPath><clipPath id="M"><path d="m0 0h1082v339.9h-1082z"/></clipPath><clipPath id="N"><path d="m0 0h1082v339.9h-1082z"/></clipPath><clipPath id="O"><path d="m0 0h1082v339.9h-1082z"/></clipPath><clipPath id="P"><path d="m0 0h1082v339.9h-1082z"/></clipPath><clipPath id="Q"><path d="m0 0h1082v339.9h-1082z"/></clipPath><clipPath id="R"><path d="m0 0h1082v339.9h-1082z"/></clipPath><clipPath id="S"><path d="m0 0h1082v339.9h-1082z"/></clipPath><clipPath id="T"><path d="m0 0h1082v339.9h-1082z"/></clipPath><clipPath id="U"><path d="m0 0h1082v339.9h-1082z"/></clipPath><clipPath id="V"><path d="m0 0h1082v339.9h-1082z"/></clipPath><clipPath id="W"><path d="m0 0h1082v339.9h-1082z"/></clipPath><clipPath id="X"><path d="m0 0h1082v339.9h-1082z"/></clipPath><clipPath id="Y"><path d="m0 0h1082v339.9h-1082z"/></clipPath><clipPath id="Z"><path d="m0 0h1082v339.9h-1082z"/></clipPath><clipPath id="aa"><path d="m0 0h1082v339.9h-1082z"/></clipPath><clipPath id="ab"><path d="m0 0h1082v339.9h-1082z"/></clipPath><clipPath id="ac"><path d="m0 0h1082v339.9h-1082z"/></clipPath><clipPath id="ad"><path d="m0 0h1082v339.9h-1082z"/></clipPath><clipPath id="ae"><path d="m0 0h1082v339.9h-1082z"/></clipPath><clipPath id="af"><path d="m0 0h1082v339.9h-1082z"/></clipPath><clipPath id="ag"><path d="m0 0h1082v339.9h-1082z"/></clipPath><clipPath id="ah"><path d="m0 0h1082v339.9h-1082z"/></clipPath><clipPath id="ai"><path d="m0 0h1082v339.9h-1082z"/></clipPath><clipPath id="aj"><path d="m0 0h1082v339.9h-1082z"/></clipPath><clipPath id="ak"><path d="m0 0h1082v339.9h-1082z"/></clipPath><clipPath id="al"><path d="m0 0h1082v339.9h-1082z"/></clipPath><clipPath id="am"><path d="m0 0h1082v339.9h-1082z"/></clipPath><clipPath id="an"><path d="m0 0h1082v339.9h-1082z"/></clipPath><clipPath id="ao"><path d="m0 0h1082v339.9h-1082z"/></clipPath><clipPath id="ap"><path d="m0 0h1082v339.9h-1082z"/></clipPath><clipPath id="aq"><path d="m0 0h1082v339.9h-1082z"/></clipPath><clipPath id="ar"><path d="m0 0h1082v339.9h-1082z"/></clipPath><clipPath id="as"><path d="m0 0h1082v339.9h-1082z"/></clipPath><clipPath id="at"><path d="m0 0h1082v339.9h-1082z"/></clipPath><clipPath id="au"><path d="m0 0h1082v339.9h-1082z"/></clipPath><clipPath id="av"><path d="m0 0h1082v339.9h-1082z"/></clipPath><clipPath id="aw"><path d="m0 0h1082v339.9h-1082z"/></clipPath><clipPath id="ax"><path d="m0 0h1082v339.9h-1082z"/></clipPath><clipPath id="ay"><path d="m0 0h1082v339.9h-1082z"/></clipPath><clipPath id="az"><path d="m0 0h1082v339.9h-1082z"/></clipPath><clipPath id="aA"><path d="m0 0h1082v339.9h-1082z"/></clipPath><clipPath id="aB"><path d="m0 0h1082v339.9h-1082z"/></clipPath><clipPath id="aC"><path d="m0 0h1082v339.9h-1082z"/></clipPath><clipPath id="aD"><path d="m0 0h1082v339.9h-1082z"/></clipPath><clipPath id="aE"><path d="m0 0h1082v339.9h-1082z"/></clipPath><clipPath id="aF"><path d="m0 0h1082v339.9h-1082z"/></clipPath><clipPath id="aG"><path d="m0 0h1082v339.9h-1082z"/></clipPath><clipPath id="aH"><path d="m0 0h1082v339.9h-1082z"/></clipPath><clipPath id="aI"><path d="m0 0h1082v339.9h-1082z"/></clipPath><clipPath id="aJ"><path d="m0 0h1082v339.9h-1082z"/></clipPath><clipPath id="aK"><path d="m0 0h1082v339.9h-1082z"/></clipPath><clipPath id="aL"><path d="m0 0h1082v339.9h-1082z"/></clipPath><clipPath id="aM"><path d="m0 0h1082v339.9h-1082z"/></clipPath><clipPath id="aN"><path d="m0 0h1082v339.9h-1082z"/></clipPath><clipPath id="aO"><path d="m0 0h1082v339.9h-1082z"/></clipPath><clipPath id="aP"><path d="m0 0h1082v339.9h-1082z"/></clipPath><clipPath id="aQ"><path d="m0 0h1082v339.9h-1082z"/></clipPath><clipPath id="aR"><path d="m0 0h1082v339.9h-1082z"/></clipPath><clipPath id="aS"><path d="m0 0h1082v339.9h-1082z"/></clipPath><clipPath id="aT"><path d="m0 0h1082v339.9h-1082z"/></clipPath><clipPath id="aU"><path d="m0 0h1082v339.9h-1082z"/></clipPath><clipPath id="aV"><path d="m0 0h1082v339.9h-1082z"/></clipPath><clipPath id="aW"><path d="m0 0h1082v339.9h-1082z"/></clipPath><clipPath id="aX"><path d="m0 0h1082v339.9h-1082z"/></clipPath><clipPath id="aY"><path d="m0 0h1082v339.9h-1082z"/></clipPath><clipPath id="aZ"><path d="m0 0h1082v339.9h-1082z"/></clipPath><clipPath id="a0"><path d="m0 0h1082v339.9h-1082z"/></clipPath><clipPath id="a1"><path d="m0 0h1082v339.9h-1082z"/></clipPath><clipPath id="a2"><path d="m0 0h1082v339.9h-1082z"/></clipPath><clipPath id="a3"><path d="m0 0h1082v339.9h-1082z"/></clipPath><clipPath id="a4"><path d="m0 0h1082v339.9h-1082z"/></clipPath><clipPath id="a5"><path d="m0 0h1082v339.9h-1082z"/></clipPath><clipPath id="a6"><path d="m0 0h1082v339.9h-1082z"/></clipPath><clipPath id="a7"><path d="m0 0h1082v339.9h-1082z"/></clipPath><clipPath id="a8"><path d="m0 0h1082v339.9h-1082z"/></clipPath><clipPath id="a9"><path d="m0 0h1082v339.9h-1082z"/></clipPath><clipPath id="ba"><path d="m0 0h1082v339.9h-1082z"/></clipPath><clipPath id="bb"><path d="m0 0h1082v339.9h-1082z"/></clipPath><clipPath id="bc"><path d="m0 0h1082v339.9h-1082z"/></clipPath><clipPath id="bd"><path d="m0 0h1082v339.9h-1082z"/></clipPath><clipPath id="be"><path d="m0 0h1082v339.9h-1082z"/></clipPath><clipPath id="bf"><path d="m0 0h1082v339.9h-1082z"/></clipPath><clipPath id="bg"><path d="m0 0h1082v339.9h-1082z"/></clipPath><clipPath id="bh"><path d="m0 0h1082v339.9h-1082z"/></clipPath><clipPath id="bi"><path d="m0 0h1082v339.9h-1082z"/></clipPath><clipPath id="bj"><path d="m0 0h1082v339.9h-1082z"/></clipPath><clipPath id="bk"><path d="m0 0h1082v339.9h-1082z"/></clipPath><clipPath id="bl"><path d="m0 0h1082v339.9h-1082z"/></clipPath><clipPath id="bm"><path d="m0 0h1082v339.9h-1082z"/></clipPath><clipPath id="bn"><path d="m0 0h1082v339.9h-1082z"/></clipPath><clipPath id="bo"><path d="m0 0h1082v339.9h-1082z"/></clipPath><clipPath id="bp"><path d="m0 0h1082v339.9h-1082z"/></clipPath><clipPath id="bq"><path d="m0 0h1082v339.9h-1082z"/></clipPath><clipPath id="br"><path d="m0 0h1082v339.9h-1082z"/></clipPath><clipPath id="bs"><path d="m0 0h1082v339.9h-1082z"/></clipPath><clipPath id="bt"><path d="m0 0h1082v339.9h-1082z"/></clipPath><clipPath id="bu"><path d="m0 0h1082v339.9h-1082z"/></clipPath><clipPath id="bv"><path d="m0 0h1082v339.9h-1082z"/></clipPath><clipPath id="bw"><path d="m0 0h1082v339.9h-1082z"/></clipPath><clipPath id="bx"><path d="m0 0h1082v339.9h-1082z"/></clipPath><clipPath id="by"><path d="m0 0h1082v339.9h-1082z"/></clipPath><clipPath id="bz"><path d="m0 0h1082v339.9h-1082z"/></clipPath><clipPath id="bA"><path d="m0 0h1082v339.9h-1082z"/></clipPath><clipPath id="bB"><path d="m0 0h1082v339.9h-1082z"/></clipPath><clipPath id="bC"><path d="m0 0h1082v339.9h-1082z"/></clipPath><path clip-path="url(#a)" d="m713.7 283.6c0 3.6-2.1 5.7-4.8 5.7s-4.7-2-4.7-5.5 2.1-5.8 4.7-5.8 4.8 2.1 4.8 5.6zm-6.9.1c0 3.1.8 4.9 2.2 4.9s2.2-1.8 2.2-4.9-.8-4.9-2.2-4.9-2.2 1.7-2.2 4.9zm1.6 14.2 12.8-20.8.9.5-12.8 20.8zm17.7-6.2c0 3.6-2.1 5.7-4.7 5.7s-4.8-2.1-4.8-5.5 2.2-5.7 4.8-5.7 4.7 2.1 4.7 5.5zm-6.9.1c0 3.1.8 4.9 2.2 4.9s2.2-1.7 2.2-4.9-.8-4.9-2.2-4.9-2.2 1.8-2.2 4.9z" fill="#333"/><path clip-path="url(#b)" d="m523.6 233.7c4.2-.1 8.3.5 12.3 1.9 3 1 5.8 2.8 7.8 5.3 1.9 2.4 2.8 5.3 2.7 8.4.1 2.3-.4 4.5-1.5 6.5-.9 1.7-2.3 3.2-3.9 4.3s-3.4 1.8-5.3 2.1c-1.8.3-3.7.3-5.5-.2 2 0 4 .3 5.9.9 2.2.6 4.3 1.6 6.1 2.9 2 1.4 3.7 3.3 4.8 5.5 1.3 2.7 2 5.7 1.9 8.7.1 3.9-.9 7.8-2.9 11.1-2 3.2-4.7 5.9-7.9 7.9-3.4 2.1-7.2 3.6-11.1 4.4-4.2.9-8.4 1.1-12.7.7s-8.5-1.5-12.5-3.3l.2-.9c3.6.1 7.1-.4 10.5-1.4 3.2-.9 6.1-2.3 8.8-4.3 2.5-1.8 4.5-4.2 6-6.8 1.5-2.8 2.3-5.9 2.2-9 0-3.6-.8-6.6-2.6-8.8-1.7-2.1-3.9-3.8-6.4-4.8-2.4-1-5.1-1.5-7.7-1.5l.2-.9c5.4.1 10.5-2.7 13.1-7.5 1.3-2.4 1.9-5.2 1.5-7.9-.1-1.9-.7-3.8-1.9-5.4-1-1.3-2.4-2.3-4-2.8s-3.4-.7-5.1-.5c-3.6.3-6.1 1.9-7.6 4.7s-2.2 7.1-2.1 12.7h-.9l-5.1-15.6c2.7-2.2 5.9-3.7 9.3-4.6 4.5-1.3 9-1.9 13.4-1.8z" fill="#4aa064"/><path d="m0 0h1082v339.9h-1082z" fill="none"/><path d="m563.1 301.2-.4-.6c6.4-2 11.4-4.2 15.1-6.7 3.3-2.1 6.1-5 8-8.4 1.7-3.3 2.8-6.8 3.2-10.5.4-4.4.7-8.9.6-13.4 0-5-.1-9.1-.4-12.5-.1-2.6-.6-5.1-1.8-7.5-1-1.7-2.8-2.6-4.7-2.5-1.9-.1-3.8.7-5 2.2-1.2 1.7-2 3.6-2.3 5.7-.4 2.5-.6 5.1-.6 7.6-.1 2.7.1 5.4.6 8 .2 1.5.8 3 1.6 4.3 1.3 2 3.8 2.9 6.1 2.2 1-.3 2-.7 2.8-1.3l.6.7c-.9 1.9-2.3 3.5-4 4.6-1.9 1.2-4 2-6.2 2.3-2.4.4-4.8.3-7.1-.3-2.4-.6-4.7-1.7-6.6-3.2-2.1-1.7-3.8-3.9-4.8-6.4-1.3-3.1-1.8-6.5-1.6-9.9.1-3.9 1.1-7.6 3-11 2-3.4 5-6.2 8.5-7.9 3.8-2 8.7-3 14.7-3.1 8.8-.1 15.6 2.2 20.3 7s7.1 12.3 7.1 22.7c.1 5.9-.9 11.7-2.8 17.2-1.8 4.9-4.8 9.2-8.7 12.6-4.2 3.5-9.2 6-14.6 7.2-5.9 1.6-12.7 1.8-20.6.9z" fill="#4aa064"/><path clip-path="url(#c)" d="m624.7 299c-4.5 0-8.1-3.7-8.1-8.2 0-2.1.9-4.2 2.4-5.7 3.2-3.2 8.3-3.2 11.5 0s3.2 8.3 0 11.5c-1.5 1.6-3.6 2.5-5.8 2.4z" fill="#4aa064"/><path clip-path="url(#d)" d="m661 233.7c4.2-.1 8.3.5 12.3 1.9 3 1 5.8 2.8 7.8 5.3 1.9 2.4 2.8 5.3 2.7 8.4.1 2.3-.4 4.5-1.5 6.5-.9 1.7-2.3 3.2-3.9 4.4-1.6 1.1-3.4 1.8-5.3 2.1-1.8.3-3.7.3-5.5-.2 2 0 4 .3 5.9.9 2.2.6 4.3 1.6 6.1 2.9 2 1.4 3.7 3.3 4.8 5.5 1.3 2.7 2 5.7 1.9 8.7.1 3.9-.9 7.8-2.9 11.1-2 3.2-4.7 5.9-7.9 7.9-3.4 2.1-7.2 3.6-11.1 4.4-4.2.9-8.4 1.1-12.7.7s-8.5-1.5-12.5-3.3l.2-.9c3.6.1 7.1-.4 10.5-1.4 3.2-.9 6.1-2.3 8.8-4.3 2.5-1.8 4.5-4.2 6-6.8 1.5-2.8 2.3-5.9 2.2-9 0-3.6-.8-6.6-2.6-8.8-1.7-2.1-3.9-3.8-6.4-4.8-2.4-1-5.1-1.5-7.7-1.5l.2-.9c5.4.1 10.5-2.7 13.1-7.5 1.3-2.4 1.9-5.2 1.5-7.9-.1-1.9-.7-3.8-1.9-5.4-1-1.3-2.4-2.3-4-2.8s-3.4-.7-5.1-.5c-3.6.3-6.2 1.9-7.7 4.7s-2.2 7.1-2.1 12.7h-.9l-5.1-15.6c2.7-2.2 5.9-3.7 9.3-4.6 4.6-1.4 9.1-2 13.5-1.9z" fill="#4aa064"/><path clip-path="url(#e)" d="m49.9 48.5c-.1.6 0 1.2.2 1.8.2.4.7.4 1.3.5.1 0 .1 0 .1.2s0 .2-.1.2c-.7 0-1.6-.1-2.3-.1s-1.7 0-2.4.1c-.1 0-.2 0-.2-.2s0-.2.2-.2c.6-.1 1.1-.1 1.2-.4.2-.6.3-1.2.2-1.8v-.8h-2.8-1.7c-.2 0-.2 0-.2-.5 0-.3.1-.5.2-.7 1.7-3 3-5.2 4.8-8.1l1.6-.4c.1 0 .1 0 .1.2 0 1.4 0 2.9-.1 4.6v4.1c.5 0 1.2 0 1.8-.1.1 0 .1 0 .1.1l-.2.5c0 .1 0 .1-.2.1-.5 0-1.2 0-1.6 0zm-1.8-5.3c0-1.3 0-2.1.1-3.3-1.4 2.2-2.8 4.6-4.1 7-.1.1-.1.2.2.2h3.8z" fill="#333"/><path clip-path="url(#f)" d="m60.2 50.1c-.9 1.4-2.2 2.5-3.7 3.1-.1 0-.2-.1-.2-.1.9-.8 1.5-1.7 2-2.8.2-.5.4-.9.5-1.4 1.5.6 2 .8 2 1s-.1.2-.6.2zm3.8-2.3c.5-.8.8-.9.9-.9s.3.1.8.7l.2.2c.2-2.1.3-4.1.3-6.2 0-2.2 0-3.4-.1-4.6.7.3 1.3.6 1.9 1h2.4c.6-.7.8-.8.9-.8s.3.1 1 .7c.3.2.4.4.4.5s0 .2-.5.5v2c0 9.5.1 9.9.1 10.4 0 .8-.2 1.2-.7 1.5-.4.2-.9.3-1.3.3-.3 0-.3 0-.4-.5-.1-.6-.5-.9-1.7-1.2-.1 0-.1-.2 0-.2h2.1c.3 0 .3-.1.3-.3v-4.3h-3.2c-.1.7-.2 1.4-.4 2.1-.5 1.7-1.6 3.2-3 4.4-.1 0-.2-.1-.2-.1 1-1.4 1.7-3 1.9-4.7h-8.2c-.3 0-.6 0-.9.1l-.2-.7c.4.1.7.1 1.1.2h.8v-7.6h-.5c-.3 0-.6 0-.9.1l-.2-.7c.4.1.7.1 1.1.1h.5v-1c0-.6 0-1.2-.1-2 2 .2 2.1.4 2.1.6s-.2.3-.5.4v2h2.5v-.9c0-.7 0-1.3-.1-2.1 1.9.2 2.1.3 2.1.5s-.2.3-.5.5v2h.2c.5-.8.8-.9.9-.9s.3.2.8.7c.1.1.2.3.3.5 0 .1 0 .2-.2.2h-1.9zm-4.1-7.6v2.2h2.5v-2.2zm2.5 2.6h-2.5v2.2h2.5zm-2.5 2.6v2.4h2.5v-2.4zm3.6 6.4c-.3 0-.6-.2-.8-.9-.3-.7-.7-1.3-1.3-1.8-.1 0 0-.2.1-.2 1.9.3 2.8.9 2.8 1.9.1.5-.3.9-.8 1zm4.2-9.5c0 1.3-.1 2.5-.2 3.8h3.1v-3.8zm2.9-4h-2.9v3.5h2.9z" fill="#333"/><path clip-path="url(#g)" d="m82.1 49.2c.3.7.9 1.3 1.7 1.5 1.3.3 2.7.5 4.1.4 2.3 0 4.7-.2 7-.5.1 0 .1.2 0 .2-.4.2-.7.6-.7 1-.1.5-.1.6-.4.6-1 .1-3.1.2-4.4.2-2.9 0-4.7-.2-5.9-.9-.9-.6-1.6-1.6-1.8-2.7-.6 1-1.3 1.9-2.1 2.7 0 .7 0 .8-.3.8s-.7-.7-1.3-2.2c.4-.1.9-.3 1.3-.5s.8-.4 1.2-.7v-4.8h-1.3c-.3 0-.7 0-1 .1l-.2-.5c.4.1.8.2 1.2.2h1.1c.6-.7.8-.8.9-.8s.3.1 1 .6c.3.2.4.4.4.5s-.1.2-.5.6zm-1-8.7c-.4 0-.6-.2-.9-1.1-.2-.8-.6-1.5-1.2-2.1-.1-.1 0-.2.1-.2 2.1.5 2.9 1.4 2.9 2.3.1.6-.3 1.1-.9 1.1zm6.5-1.2h-3.6c-.3 0-.7 0-1 .1l-.2-.7c.4.1.8.1 1.2.2h3.6v-.6c0-.6 0-1.2-.1-1.8 1.8.2 2.2.3 2.2.6s-.1.2-.5.4v1.4h2.5c.7-.9 1-1 1.1-1s.4.1 1.1.7c.3.3.5.4.5.5s0 .2-.2.2h-5v1.7h2.3c.5-.6.7-.7.8-.7s.3.1.9.6c.3.2.4.3.4.5s-.1.2-.4.5v.7c0 1.8.1 3.1.1 3.5s-.4.7-.9.7-.7-.2-.7-.5v-.1h-2.4v2h2.7c.9-1 1.1-1.1 1.2-1.1s.3.1 1.1.8c.3.3.5.4.5.5s-.1.2-.2.2h-5.2v1.7s-.3.7-.9.7-.8-.2-.8-.5 0-1 0-1.8h-3.7c-.4 0-.7 0-1.1.1l-.2-.8c.4.1.9.1 1.3 0h3.6c0-.7 0-1.3 0-2h-2.4v.2c0 .5-.3.7-.9.7s-.7-.2-.7-.6.1-1 .1-3.2c0-1 0-2-.1-3 .6.2 1.1.5 1.7.8h2.3zm-2.4 2.1v1.8h2.4c0-.6 0-1.2 0-1.8zm2.4 2.2h-2.4v2h2.4zm1.6-.4h2.4v-1.8h-2.4zm2.4 2.5v-2.1h-2.4v2z" fill="#333"/><path clip-path="url(#h)" d="m113.8 43.8c.6-.7.7-.8.9-.8s.3.1 1.2.9c.4.4.5.5.5.7s-.1.4-.7.4c-.2 0-.4 0-.6.2-.4.4-.9.7-1.4 1-.1 0-.1 0-.1-.1 0 0 0 0 0-.1.2-.5.4-1.1.5-1.6h-6.4c0 1.1-.4 2.1-1.3 2.1-.4 0-.8-.4-.8-.8 0-.1 0-.1 0-.2-.1 0-.2.1-.3.1-.4 0-.5-.1-.5-.8l-.8.3v2.6 5.2c0 .5-.3.6-.9.6s-.7-.2-.7-.5.1-1.6.1-3.9v-1.3c-.1.1-.2.2-.5.2-.5 1.5-1.2 2.9-2.2 4.2-.1.1-.2 0-.2-.1.3-1.1.6-2.3.8-3.4.1-.6.2-1.2.2-1.8 1.4.4 1.8.6 1.9.7v-2c-.5.1-1.1.3-1.7.4-.1.3-.2.5-.4.5s-.4-.5-.6-2c.6.1 1.2.1 1.8.1.6-1 1.2-2.1 1.8-3.1.3-.7.6-1.4.8-2.1 1.5.6 2 .9 2 1.1s-.2.3-.7.3c-.9 1.4-2 2.7-3.2 3.8.7 0 1.5 0 2.2-.1h.3c-.1-.5-.3-1-.5-1.4 0-.1 0-.1.1-.1 1.1.6 1.7 1.3 1.7 2v.2c.7-.3 1.1-1 1.1-1.8 0-.1.1-.1.1-.1s0 0 .1.1c.1.3.2.6.2.9zm-11.6-5.9c.1-.4.2-.9.2-1.4 1.5.5 2.2.8 2.2 1s-.2.3-.7.3c-.6.8-1.3 1.6-2.1 2.3.5.3.8.7.8 1.3.1.5-.3.9-.8 1 0 0 0 0-.1 0-.5 0-.5-.1-.8-1.1-.1-.7-.5-1.3-1-1.8v-.1h.1c.5.1 1 .3 1.4.6.4-.7.6-1.4.8-2.1zm3.3 12.3c-.5 0-.6-.2-.6-1.3 0-.8-.2-1.5-.5-2.2 0-.1.1-.2.2-.1 1.3 1 1.9 1.8 1.9 2.6-.1.5-.5.9-1 1zm4.3-3.9v.8c0 1.3-.5 2.6-1.2 3.7-1 1.1-2.4 1.9-3.9 2.2-.1 0-.2-.2-.2-.2 1.1-.5 2.1-1.4 2.7-2.4.6-1.2.9-2.5.8-3.9 0-.4 0-.8-.1-1.2 2 .2 2.2.3 2.2.5s.1.4-.3.5zm1.6-4.6h1.5c.7-.9.9-1 1.1-1s.4.1 1.1.7c.3.2.4.4.4.5s-.1.2-.2.2h-7.4c-.3 0-.7 0-1 .1l-.2-.7c.4.1.8.1 1.2.1h2v-2.1h-2.4c-.4 0-.7 0-1.1.1l-.4-.6c.4.1.8.1 1.3.2h2.4v-1.2c0-.3 0-.8-.1-1.4 2.1.2 2.3.4 2.3.5s-.2.3-.5.5v1.5h1.8c.8-1 1-1.2 1.2-1.2s.4.2 1.2.8c.4.3.5.5.5.6s0 .2-.2.2h-4.4zm1.3 9.1c0 .4.1.4.7.4s1 0 1.3-.2c.5-.6.8-1.3.9-2 0-.1.2-.1.2 0v1.5s0 .3.2.4c.3.1.4.4.4.7 0 .4-.3.8-.7.9-.7.2-1.5.3-2.2.3-2 0-2.5-.3-2.5-1.8 0-.3 0-.6 0-2 0-1.2 0-2.4-.1-3.6 2 .2 2.2.3 2.2.5s-.2.3-.5.4z" fill="#333"/><path clip-path="url(#i)" d="m128.7 45.3c0 .5-.3.7-1 .7-.4 0-.7-.2-.7-.5s0-1.4.1-3.4c0 .1-.1.2-.2.2h-1.9v5.5c.7-.2 1.5-.5 2.1-.8.1 0 .2.2.1.2-1.4 1.2-3 2.1-4.6 2.9 0 .6-.1.8-.4.8s-.5-.5-1.1-2.2c.5-.1 1-.2 1.5-.3.2 0 .5-.1.8-.2v-5.9h-.9c-.3 0-.7 0-1 .1l-.2-.7c.3.1.7.1 1.1.1h1v-2.8c0-.7 0-1.5-.1-2.2 2.1.2 2.4.4 2.4.6s-.1.3-.7.5v3.9h.2c.4-.8.7-1 .8-1s.3.1.9.7c.2.1.3.3.3.5v-.6c0-.9 0-1.7-.1-2.6.6.3 1.2.6 1.8 1h4c.3-.6.6-1.2.9-1.8.2-.5.3-.9.4-1.4 1.8.7 2.1.8 2.1 1.1s-.2.3-.8.3c-.6.7-1.3 1.3-2 1.9h1.8c.6-.7.7-.8.9-.8s.3.1 1 .7c.3.2.4.4.4.5s-.2.3-.5.6v.7 3.7s-.3.6-1 .6c-.4 0-.6-.2-.6-.6zm1 6.7v.5c0 .5-.3.7-1 .7-.5 0-.7-.2-.7-.6 0-.6.1-1.3.1-3.9 0-.9 0-1.8-.1-2.7.6.2 1.2.5 1.8.9h4.5c.6-.7.7-.8.9-.8s.3.1 1 .6c.3.3.4.4.4.5s-.1.3-.5.5v.8 3.8s-.3.7-1 .7c-.5 0-.7-.2-.7-.6v-.4zm.5-12.4c-.4 0-.6-.2-.7-.7-.2-.8-.5-1.5-1-2.1 0-.1 0-.1.1-.1h.1c1.7.6 2.5 1.3 2.5 2 0 .4-.4.9-1 .9.1 0 .1 0 0 0zm1 2.7v-2h-2.5v2zm-2.4 2.6h2.5v-2.2h-2.5zm5.7 2.4h-4.7v1.9h4.7zm0 2.3h-4.7v2h4.7zm1-9.3h-2.7v2h2.7zm0 2.4h-2.7v2.2h2.7z" fill="#333"/><path d="m0 0h1082v339.9h-1082z" fill="none"/><path d="m149.4 40.1c0 9 .1 11.2.1 12.1 0 .5-.3.8-1.1.8-.6 0-.8-.2-.8-.6 0-.6 0-2 .1-4.6-1 .8-2.2 1.5-3.4 2.1 0 .5-.2.8-.4.8s-.2 0-1.1-2.4c.4 0 .8 0 1.2-.1h.3v-7.2c0-.8-.1-1.6-.1-2.4 2.1.2 2.3.4 2.3.6s-.2.3-.6.5v8.1c.6-.1 1.2-.3 1.8-.5 0-1.1 0-2.4 0-3.9.1-2.3 0-4.5-.1-6.8 2.2.2 2.4.2 2.4.5s-.1.2-.6.5zm6.9-1.5c.7-.8.9-1 1-1s.3.1 1.1.8c.4.3.5.5.5.6s-.1.3-.6.6c-.4 2.9-1.4 5.7-3 8.1 1.2 1.4 2.8 2.5 4.5 3.3.1 0 .1.2 0 .2-.5.2-.8.5-1 1.2-.1.3-.2.4-.3.4-.2-.1-.4-.1-.6-.3-1.3-.9-2.5-2.1-3.4-3.4-1.2 1.5-2.8 2.8-4.5 3.7-.1 0-.2-.2-.1-.2 1.6-1.3 2.9-2.8 4-4.6-1.5-2.7-2.3-5.8-2.4-8.9-.3 0-.7.1-1 .1l-.2-.7c.5.1 1.1.1 1.6.1zm-4.6.4c.4 2.7 1.3 5.3 2.7 7.6 1.1-2.4 1.9-5 2.2-7.6z" fill="#333"/><path clip-path="url(#j)" d="m485.5 51.8v.6c0 .5-.3.7-1 .7s-.8-.2-.8-.6c0-1.6.1-3.3.1-9.6 0-1.5 0-3-.1-4.5.7.3 1.4.6 2 1h1.6c.2-.6.4-1.2.6-1.8.1-.4.2-.8.2-1.2 1.8.5 2.2.7 2.2.9s-.2.3-.7.4c-.5.6-1.1 1.2-1.7 1.7h5c.6-.7.8-.8.9-.8s.4.1 1.1.6c.3.2.5.4.5.6s-.1.3-.6.6v1.8c0 5.2.1 8.8.1 10 0 .5-.3.7-1 .7-.6 0-.8-.2-.8-.7v-.7zm7.7-12h-7.7v3.3h7.7zm0 3.8h-7.7v3.4h7.7zm0 3.8h-7.7v3.9h7.7z" fill="#333"/><path clip-path="url(#k)" d="m514.9 38.3h-8.9c-.4 0-.9.1-1.3.2l-.2-.7c.5.1 1 .2 1.5.2h8.8c.6-.7.8-.8.9-.8s.3.1 1 .6c.3.2.4.4.4.5s0 .2-.5.6v.9c0 2.2.1 3.8.1 4.3s-.3.9-1.1.9c-.5 0-.8-.2-.8-.6v-.6h-8.6v6c0 .8.4 1 4.3 1 4.6 0 5.4-.1 5.9-.5s.8-1.1 1.3-2.9c0-.1.2-.1.2 0 0 .8-.1 1.9-.1 2.2s0 .4.2.5c.3.1.5.4.4.7 0 .6-.4 1-1.5 1.2-2 .3-3.9.4-5.9.3-5.7 0-6.7-.3-6.7-2.4 0-.7 0-2.1 0-4 0-1.7 0-2.2-.1-3.6.7.3 1.4.6 2 1h8.5z" fill="#333"/><path clip-path="url(#l)" d="m525.8 42.9c-.1.5-.2.6-.4.6s-.3-.1-.9-2.1c.6 0 1.2 0 1.8-.1 1.4-.1 2.8-.4 4.2-.7.1 0 .2.2.1.2-1.5 1-3.1 1.6-4.8 2.1zm4.6 8.9c-1.8.8-3.8 1.2-5.8 1.2-.1 0-.1-.2 0-.2 1.2-.3 2.3-.8 3.3-1.5.5-.3.9-.7 1.3-1.1 2 1.1 2 1.1 2 1.4s-.1.3-.8.2zm-3.4-7.4c-.6.1-1.2.2-1.8.2-.1 0-.2-.2-.1-.2.6-.1 1.2-.2 1.9-.4 0-.4 0-.8 0-1.2.6.2 1.1.4 1.6.6 1.2-.5 2.3-1.3 3.2-2.3.5-.6.9-1.3 1.1-2.1 1.6.2 2.2.5 2.2.7s-.2.3-.7.4c.7.8 1.6 1.5 2.6 1.9 1.3.5 2.6.7 4 .7.1 0 0 .2 0 .2-.5.2-.9.7-.9 1.3 0 .1-.1.2-.3.2-.3 0-.5-.1-.8-.2s-.6-.2-.9-.4c-.1.1-.2.2-.4.2v1c0 2.5.1 4.2.1 4.8s-.4.6-1 .6c-.5 0-.7-.2-.7-.5h-7.5v.1c0 .4-.3.6-.9.6s-.7-.2-.7-.6c0-.8.1-1.6.1-5zm.5-4.6c-.4 0-.6-.2-.9-.7-.3-.7-.8-1.4-1.4-1.9-.1-.1 0-.2.1-.2 2.1.2 3.1.8 3.1 1.8.1.6-.3 1-.9 1 .1 0 .1 0 0 0zm1.1 5.6h7.5v-1.6h-6.5l-1 .2zm7.5.4h-7.5v1.6h7.5zm0 2h-7.5v1.7h7.5zm-4.7-9c-.7.7-1.5 1.2-2.4 1.6-.1 0-.2-.1-.2-.2.7-.7 1.2-1.5 1.6-2.4.2-.5.4-1.1.6-1.6 1.7.5 2.2.7 2.2.9s-.1.2-.8.4c-.2.3-.4.5-.6.8h5.9c.7-.7.8-.8 1-.8s.3.1 1.1.8c.3.3.5.5.5.6 0 .3-.1.4-.8.5-.2 0-.4.1-.6.2-.6.4-1.2.7-1.9 1-.1 0-.2-.2-.2-.2.4-.5.8-1.1 1-1.7zm4.6 4.6c.1-.2.3-.4.5-.5-.9-.7-1.7-1.6-2.2-2.6-.8 1.4-2 2.5-3.5 3.1zm2.3 9.8c-.4 0-.8-.2-1.1-.5-1.1-.9-2.3-1.6-3.7-1.9-.1 0-.1-.2 0-.2 4.7 0 5.7.7 5.7 1.7.1.6-.4 1-.9.9z" fill="#333"/><path clip-path="url(#m)" d="m552.9 48.6c0-1.9.1-3.7.1-5.6-1.7 3-4.3 5.4-7.4 6.9-.1 0-.2-.1-.1-.2 2.9-2.3 5.1-5.3 6.5-8.7h-4c-.5 0-1 0-1.5.1l-.2-.7c.6.1 1.1.1 1.7.1h5v-1.5c0-.8 0-1.7-.1-2.5 1.8.1 2.4.3 2.4.5s-.2.3-.6.5v3h4.2c.8-1.1 1.1-1.2 1.2-1.2s.4.1 1.3.9c.4.3.5.5.5.6s0 .2-.2.2h-6.9c.6 1.5 1.6 2.8 2.8 3.9 1.5 1.3 3.2 2.3 5.1 2.8 0 0 .1 0 .1.1s0 .1-.1.1c-.7.2-1.2.7-1.3 1.4-.1.2-.2.3-.3.3-.3-.1-.6-.2-.8-.4-1.4-.9-2.6-2.1-3.5-3.4s-1.6-2.8-2.1-4.3c0 1.7.1 5.4.1 7.1h.9c.8-1 1-1.1 1.1-1.1s.3.2 1.1.8c.3.3.5.5.5.6s-.1.2-.2.2h-3.4c0 1.6.1 2.8.1 3.4s-.4.7-1.1.7-.8-.2-.8-.6 0-1.7.1-3.5h-2c-.4 0-.9 0-1.3.1l-.2-.7c.5.1.9.1 1.4.2z" fill="#333"/><path clip-path="url(#n)" d="m571.3 50c1.5-.3 2.9-.8 4.3-1.3.1 0 .2.1.1.2-2.1 1.3-4.3 2.4-6.7 3.2-.1.5-.2.7-.5.7s-.4-.4-1-2.2c.4 0 .7-.1 1.1-.1l.8-.2v-11.1c0-.7 0-1.4-.1-2.2 2.2.2 2.5.4 2.5.6s-.1.3-.6.5v4.7h1.7c.9-1 1.1-1.2 1.3-1.2s.3.1 1.2.8c.4.3.5.5.5.6s0 .2-.2.2h-4.4zm6.7-5.7c1-.7 1.9-1.5 2.6-2.5.5-.5.9-1.1 1.2-1.8 1.4.9 2 1.3 2 1.6s-.2.3-.9.2c-1.5 1.3-3.2 2.2-5 2.9v5.5c0 .7.2.8 2.2.8.5.1 1.1 0 1.6-.2.5-.3.8-1.1 1.3-2.8 0-.1.2-.1.2 0-.1.7-.2 2-.2 2.2s.1.3.2.4c.4.2.5.3.5.7 0 .5-.3.8-1.1 1-.9.2-1.8.2-2.8.2-3.3 0-3.8-.3-3.8-2 0-.3.1-.7.1-2.1 0-3.8 0-7.6-.1-11.4 2 .2 2.3.3 2.3.6s-.1.3-.5.5z" fill="#333"/><path clip-path="url(#o)" d="m597.9 49v3.6s-.4.6-1 .6-.8-.1-.8-.7.1-1.5.1-3.6h-5.6c-.4 0-.9 0-1.3.1l-.2-.7c.5.1 1 .1 1.5.2h5.6v-.1c0-.7 0-1.3-.1-2 2.1.2 2.3.3 2.3.6s-.1.2-.6.5v1.1h4.5c.9-1.1 1.1-1.3 1.2-1.3s.4.1 1.3.9c.4.3.6.5.6.6s0 .2-.2.2zm-7.1-2.5c0 .5-.1.7-.3.7s-.5-.5-1.2-1.9c.5-.2 1.1-.3 1.5-.5 1.1-.3 2.2-.8 3.2-1.3.1 0 .2.2.2.2-1 1.1-2.2 2-3.4 2.8zm5.4-7.3c1.3.5 1.7.7 1.7.9s0 .2-.6.2c-.5.5-1 1-1.6 1.4.4.3.6.7.6 1.1s-.3.8-.7.8c-.4 0-.5-.1-.8-1-.2-.6-.6-1.2-1.1-1.7v-.1h.1c.5.1 1 .3 1.4.5.2-.3.3-.7.5-1 .2-.4.3-.8.5-1.1l-5.5-.1c-.4 0-.8 0-1.3.1l-.2-.7c.5.1.9.1 1.4.1h5.4v-1.2c0-.4-.1-.7-.1-1.1 2.2.2 2.5.4 2.5.6s-.2.4-.6.5v1.2h4.3c1-1.1 1.2-1.2 1.3-1.2s.3.1 1.2.8c.4.3.5.5.5.6s-.1.2-.2.2zm-4 4.1c-.5 0-.6-.2-.9-1.1-.2-.7-.6-1.4-1.2-1.9v-.1h.1c2 .6 2.9 1.3 2.9 2.2.1.4-.3.8-.9.9zm6.8 1.8c-.2-.4-.4-.8-.7-1.1 0-.1 0-.1.1-.1h.1c1.5.5 2.5 1.3 2.5 2.2 0 .5-.4.9-.8.9-.4 0-.5-.1-.8-1.1 0-.1-.1-.3-.2-.4-1.5.5-3.1.9-4.7 1.2-.1.4-.1.5-.3.5s-.4-.3-.8-1.9h1.8c.8-.9 1.6-1.9 2.3-3 .3-.5.6-1 .8-1.5 1.5.8 1.8 1 1.8 1.2s0 .2-.8.2c-1.1 1.1-2.2 2.1-3.4 3 1.1 0 2.1 0 3.1-.1zm4.5-3.8c-1 .9-2.2 1.6-3.4 2.1-.1 0-.2-.1-.2-.2.7-.7 1.3-1.4 1.8-2.2.3-.4.5-.8.7-1.3 1.4.7 1.8 1 1.8 1.2s-.1.5-.7.4zm-.1 5.5c-.5 0-.6-.2-1.1-1-.4-.7-1-1.4-1.7-1.8-.1 0 0-.2.1-.2 2.4.4 3.6 1.1 3.6 2.1 0 .5-.4.9-.9.9z" fill="#333"/><path clip-path="url(#p)" d="m995.8 231.1c0 1.3-.1 2.6-.2 3.9h1.7c.8-1.1 1-1.2 1.2-1.2s.5.2 1.4 1c.4.3.5.6.5.8s-.1.3-.6.7c-.3 5.5-.8 9.4-1.5 10.8-.2.5-.6.9-1 1.2-.5.4-1.2.6-1.8.5-.3 0-.4-.1-.4-.4-.2-1.1-.5-1.5-1.9-1.9-.1 0-.1-.3.1-.3 1.2.1 1.8.1 2.1.1.8 0 1-.1 1.2-1.2.6-3.1.9-6.3.9-9.5h-2c-.5 6.8-2 10.2-5.2 13.2-.1.1-.3-.1-.3-.2 2.4-4 3.3-8.9 3.3-16.8v-.8h-.7c-.6 0-1.1.1-1.7.1l-.3-1c.6.1 1.3.2 1.9.2h1.6v-3.1c0-.4 0-1-.1-1.9 2.9.3 3.2.6 3.2.8s-.2.4-.7.6v3.6h.8c.9-1.2 1.2-1.4 1.4-1.4s.5.2 1.3 1c.3.3.5.5.5.7s-.1.3-.3.3zm7.6-.7c-.9 1.4-2.1 2.6-3.4 3.6-.1.1-.4-.1-.3-.2 1-1.6 1.9-3.3 2.4-5.1.3-1.1.5-2.2.7-3.4 2.7.6 3.3.8 3.3 1.2s-.3.5-.9.6c-.4 1-.8 1.9-1.4 2.8h6.7c1.3-1.6 1.6-1.8 1.8-1.8s.5.2 1.7 1.2c.5.5.7.7.7.9s-.1.3-.3.3zm.8 15.1c0 .9.2 1 3.5 1s3.9-.1 4.3-.4.6-.6 1.5-3.5c.1-.1.3-.1.3.1 0 .8-.1 1.9-.1 2.4 0 .3.1.6.4.7.5.3.7.6.7 1 0 .7-.5 1.2-1.7 1.4-1.7.3-3.3.4-5 .3-5.4 0-6.3-.4-6.3-2.4 0-.6 0-1.3 0-4 0-1.2 0-2.4 0-3.6-.5.1-1 .3-1.5.6l-.5-.9c.6 0 1.1-.1 1.7-.3l.4-.1c0-1.6 0-3.3-.1-4.9 2.8.3 3.1.4 3.1.8s-.2.4-.8.7v2.9l2.1-.6v-1.9c0-1.1 0-2.3-.1-3.4 2.3.2 3 .4 3 .8s-.2.4-.8.6v3.3l2-.6c.8-1.2 1.1-1.5 1.3-1.5.7.2 1.3.6 1.8 1.2.2.1.3.3.3.5 0 .3-.2.4-.8.8 0 1.8-.1 3.6-.4 5.4-.1.6-.4 1.2-.8 1.6s-1 .6-1.6.6c-.3 0-.4-.1-.4-.7s-.5-1.1-1.5-1.5v1.8c0 .7-.4.9-1.3.9-.7 0-.9-.2-.9-.9s.1-2.7.1-6.3l-2.1.6zm4.2-8.8v2.4 2.4c.5.1.9.2 1.4.2.4 0 .7-.3.8-.7.2-1.6.3-3.3.3-4.9z" fill="#333"/><path clip-path="url(#q)" d="m1028.8 230.6c1.1-1.4 1.4-1.6 1.6-1.6s.5.2 1.7 1.1c.5.4.7.6.7.8s-.1.3-.3.3h-8.2c-.6 0-1.2.1-1.8.2l-.3-1c.7.1 1.4.2 2.1.2zm-3.2 16.7v.8c0 .7-.5 1-1.3 1s-1.1-.3-1.1-.9c0-.8.1-1.6.1-5 0-1.2 0-2.5-.2-3.7.9.4 1.9.8 2.8 1.3h2.6c.9-1.1 1.1-1.2 1.3-1.2s.5.2 1.4.9c.4.4.6.6.6.8s-.2.5-.8.9v.9c0 2.2.1 3.8.1 4.3 0 .7-.5 1-1.4 1-.7 0-1-.2-1-.8v-.2zm2-20.2c1.1-1.4 1.4-1.6 1.6-1.6s.5.2 1.6 1.1c.5.4.7.6.7.8s-.1.3-.3.3h-6.1c-.5 0-1 .1-1.5.2l-.3-1c.6.1 1.2.2 1.8.2zm.2 7c1-1.3 1.3-1.5 1.5-1.5s.5.2 1.5 1c.4.4.7.6.7.8s-.1.3-.3.3h-6c-.5 0-1.1.1-1.6.2l-.3-1c.6.1 1.2.2 1.9.2zm0 3.4c1-1.3 1.3-1.5 1.5-1.5s.5.2 1.5 1c.4.4.7.6.7.8s-.1.3-.3.3h-6c-.5 0-1 .1-1.6.2l-.3-1c.6.1 1.2.2 1.8.2zm.9 4h-3.1v5.2h3.1zm12.1-4.7c1.1-1 1.3-1.2 1.5-1.2s.5.2 1.6 1c.5.4.7.6.7.8s-.3.5-1 .8c-.9 1.9-2 3.7-3.5 5.3 1.9 1.2 4 2 6.2 2.3.1 0 .1.1.1.2 0 0 0 .1-.1.1-.9.3-1.2.8-1.5 2-.1.4-.2.6-.4.6-.3-.1-.7-.2-1-.4-1.9-.7-3.5-1.9-4.8-3.4-2.3 1.8-4.9 3.2-7.7 3.9-.1 0-.3-.3-.1-.3 2.5-1.2 4.8-2.9 6.6-5.1-1.2-1.8-2-3.9-2.6-6h-.4c-.5 0-1 .1-1.5.2l-.3-1c.6.1 1.3.2 1.9.2zm4.6-5.1c0 .4.1.5.5.6.3.2.4.5.4.8 0 .5-.3 1-1 1.2-.8.2-1.7.3-2.5.3-2.3 0-3.1-.6-3.1-2.2 0-1 0-1.3 0-2.3v-2.7h-3v.5c.1 1.6-.2 3.2-.8 4.6-.7 1.3-1.9 2.1-3.9 3.1-.1.1-.3-.1-.2-.2 1.1-.9 1.9-2.2 2.2-3.6.2-1 .4-2.1.3-3.1 0-1-.1-2.1-.2-3.1.9.4 1.8.8 2.7 1.2h2.9c.8-1 1-1.1 1.3-1.1s.5.1 1.3.8c.2.2.4.4.5.7 0 .3-.2.5-.7.8v4c0 .4.2.5 1 .5.6 0 1 0 1.2-.3.5-.7.7-1.5.9-2.3 0-.1.3-.1.3 0zm-10 5.7c.7 1.8 1.7 3.4 3.1 4.8 1.1-1.4 1.9-3.1 2.4-4.8z" fill="#333"/><path clip-path="url(#r)" d="m844.7 247.2.1-.9h1.9c1.3 0 2.6-.5 3.5-1.4s1.4-2.1 1.4-3.4v-45.6c0-2.3-.5-4-1.6-4.9-1.2-1-2.8-1.4-4.3-1.4h-1.7v-.9c1.3-.1 3-.2 5.1-.5s4.4-.6 6.9-1.1c2.4-.4 4.8-1 7.2-1.7 2.1-.6 4-1.4 5.9-2.5h.9v58.6c0 1.3.5 2.5 1.5 3.4.9.9 2.2 1.4 3.5 1.4h1.9v.9z" fill="#4aa064"/><path clip-path="url(#s)" d="m910.5 183c5.3-.2 10.5 1.3 15 4.1 4.2 2.8 7.5 6.8 9.5 11.4 4.4 11 4.4 23.4 0 34.4-2 4.7-5.3 8.6-9.5 11.5-9.3 5.5-20.7 5.5-30 0-4.2-2.8-7.6-6.8-9.5-11.5-4.4-11-4.4-23.4 0-34.4 2-4.7 5.4-8.6 9.6-11.4 4.5-2.8 9.7-4.3 14.9-4.1zm0 4.5c-3.1 0-5.4 2.3-6.8 6.9s-2.2 11.7-2.2 21.4.7 16.8 2.2 21.4 3.7 6.9 6.8 6.9 5.4-2.3 6.8-6.9 2.2-11.7 2.2-21.4-.7-16.8-2.2-21.4-3.6-6.9-6.8-6.9z" fill="#4aa064"/><path clip-path="url(#t)" d="m944.9 247.2.1-.9h1.9c1.3 0 2.6-.5 3.5-1.4s1.5-2.1 1.4-3.4v-45.6c0-2.3-.5-4-1.6-4.9-1.2-1-2.8-1.4-4.3-1.4h-1.6v-.9c1.3-.1 3-.2 5.1-.5s4.4-.6 6.9-1.1c2.4-.4 4.8-1 7.2-1.7 2.1-.6 4-1.4 5.9-2.5h.9v58.6c0 1.3.5 2.5 1.5 3.4.9.9 2.2 1.4 3.5 1.4h1.9v.9z" fill="#4aa064"/><g fill="#333"><path clip-path="url(#u)" d="m814.3 44.2c.7-1 1.2-2 1.7-3.1.3-.6.6-1.3.8-2 1.4.7 2 1 2 1.2s-.2.3-.7.3c-.9 1.3-2 2.5-3.2 3.6.9 0 1.8 0 2.7-.1-.1-.5-.4-1-.7-1.4 0-.1.1-.1.2-.1 1.4.8 2 1.5 2 2.3.1.4-.3.9-.7.9-.4 0-.6-.2-.7-1.2-.3.1-.7.2-1 .3v2.5c0 1.9.1 4.3.1 5.1 0 .5-.3.7-.9.7s-.7-.2-.7-.6.1-1.5.1-3.9v-1.3c-.1.1-.3.2-.5.2-.4 1.5-1.2 2.9-2.1 4.1-.1.1-.2 0-.2-.1.3-1.1.6-2.2.8-3.3.1-.6.1-1.2.2-1.9.7.1 1.3.4 1.9.7v-2l-1.6.3c-.1.4-.2.5-.4.5s-.4-.3-.7-2h.9zm.7-6.5c.1-.4.2-.8.2-1.1 1.6.6 2.1.8 2.1 1.1s-.2.3-.7.3c-.6.8-1.3 1.6-2 2.3.5.3.7.8.7 1.3.1.5-.3.9-.8 1-.5 0-.5-.1-.8-1.1-.2-.7-.5-1.3-1.1-1.8-.1-.1 0-.2.1-.2.5.1 1 .3 1.5.5.4-.7.6-1.5.8-2.3zm3.1 11.4c-.4 0-.6-.2-.7-1 0-.6-.2-1.2-.5-1.8 0-.1.1-.1.1-.1 1.2.7 1.8 1.3 1.8 2 .1.5-.2.8-.7.9zm1.7.3c0 1.2-.5 2.2-1.4 2.2-.5 0-.8-.4-.8-.8 0-.4.2-.7.7-.9.8-.3 1.1-.8 1.2-1.8 0-.1.2-.1.2 0 0 .4.1.8.1 1.3zm2.6-11.2c-.8 1.9-2.2 3.5-4 4.7-.1 0-.2-.1-.2-.1 1-1.2 1.8-2.7 2.3-4.2.1-.5.3-1.1.4-1.7 1.9.5 2.2.7 2.2 1s-.2.2-.7.3zm-1.4 5.8c.3-.8.6-1.7.9-2.5.2-.6.3-1.2.4-1.8 1.8.5 2.3.7 2.3.9s0 .2-.7.4c-.6 1.1-1.4 2.1-2.2 3 1.3 0 2.5-.1 3.8-.2-.2-.6-.6-1.2-1-1.7 0-.1 0-.2.1-.2 2 .7 2.9 1.6 2.9 2.7 0 .5-.3 1-.8 1-.4 0-.6-.3-.8-.8-.1-.2-.1-.4-.2-.6-1.7.5-3.4.9-5.2 1.1-.1.4-.2.6-.4.6s-.3-.3-.7-2.1c.5.1.9.1 1.4.1zm1.2 6.7c0 .5.2.6 1.3.6.4 0 .9 0 1.3-.2.3-.2.5-.5.9-1.9 0-.1.2-.1.2 0v1.5c0 .2 0 .3.2.4.4.2.6.3.6.7s-.3.7-.9.8c-.8.2-1.6.2-2.4.2-2.3 0-2.9-.3-2.9-1.3 0-.6.1-1.1.1-3.5 0-.4 0-.7-.1-1.1 2.1.2 2.2.2 2.2.5s-.1.2-.6.4zm2-2.2c-.4 0-.6-.2-.7-.7-.2-.7-.6-1.4-1.2-1.9-.1 0 0-.2.1-.1 1.6.2 2.6.9 2.6 1.8 0 .5-.4.9-.8.9zm4.1-6c0 .2-.1.3-.2.3-.2 0-.4-.1-.5-.3-.6-.5-1.1-1.1-1.6-1.7-.6-1-1.1-2-1.3-3.2-.1-.3-.1-.3-.3-.5s-.1-.1-.1-.1.4-.2.6-.2c.1 0 .1 0 .2.1 0 .1-.1.3-.1.3 0 .2.1.3.1.5.4.7.9 1.4 1.6 1.8.8.6 1.6 1 2.5 1.3.1 0 .1.1.1.2 0 0 0 0-.1.1-.5.2-.7.5-.9 1.4zm-.2 8.9c-.5 0-.7-.2-.8-1.1s-.4-1.7-.9-2.4c-.1-.1 0-.2.1-.1 1.8.8 2.6 1.6 2.6 2.6.1.5-.3.9-1 1z"/><path clip-path="url(#v)" d="m837.4 40.6c0 .9 0 1.8-.1 2.7h1.2c.6-.7.7-.8.8-.8s.3.1.9.7c.3.2.4.4.4.5s0 .2-.4.5c-.2 3.8-.5 6.5-1 7.5-.2.3-.4.6-.7.9-.4.3-.8.4-1.3.4-.2 0-.3-.1-.3-.3-.1-.7-.4-1-1.3-1.3-.1 0-.1-.2 0-.2.8.1 1.3.1 1.5.1.5 0 .7-.1.8-.8.4-2.2.6-4.4.6-6.5h-1.3c-.4 4.7-1.4 7.1-3.6 9.1-.1.1-.2-.1-.2-.2 1.6-2.8 2.3-6.1 2.3-11.6v-.5h-.5c-.4 0-.8 0-1.2.1v-.9c.4.1.9.1 1.3.2h1.1v-2.2c0-.4 0-.9-.1-1.3 2 .2 2.2.4 2.2.6s-.2.3-.5.5v2.5h.6c.7-.8.9-1 1-1s.3.2.9.7c.2.2.4.4.4.5s0 .2-.2.2zm5.2-.5c-.6.9-1.4 1.8-2.3 2.5-.1 0-.2 0-.2-.1.7-1.1 1.3-2.3 1.7-3.6.2-.8.4-1.5.5-2.3 1.9.4 2.3.5 2.3.8s-.2.3-.6.4c-.3.7-.6 1.3-1 1.9h4.6c.9-1.1 1.1-1.2 1.2-1.2s.3.2 1.2.8c.4.3.5.5.5.6s0 .2-.2.2zm.6 10.5c0 .6.1.7 2.4.7s2.7-.1 3-.3.4-.4 1.1-2.4c0-.1.2 0 .2 0v1.6c0 .2.1.4.3.5.4.2.5.4.5.7 0 .5-.3.8-1.2 1-1.1.2-2.3.3-3.4.2-3.7 0-4.4-.3-4.4-1.7 0-.5 0-.9 0-2.8 0-.8 0-1.6 0-2.5-.4.1-.7.2-1.1.4l-.3-.6c.4 0 .8-.1 1.2-.2l.3-.1c0-1.1 0-2.3-.1-3.4 1.9.2 2.2.3 2.2.5s-.1.3-.6.5v2l1.4-.4v-1.3c0-.8 0-1.6-.1-2.4 1.6.2 2.1.3 2.1.6s-.2.3-.6.4v2.3l1.4-.4c.6-.8.7-1 .9-1 .5.2.9.4 1.2.8.1.1.2.2.2.4s-.1.3-.5.6c0 1.2-.1 2.5-.3 3.7-.1.4-.3.8-.6 1.1s-.7.4-1.1.4c-.2 0-.2 0-.2-.5s-.4-.8-1-1.1v1.2c0 .5-.3.7-.9.7s-.6-.1-.6-.6 0-1.8.1-4.4l-1.4.4zm2.9-6.1v1.7 1.6c.3.1.7.1 1 .1s.5-.1.5-.5c.1-1.1.2-2.3.2-3.4z"/><path clip-path="url(#w)" d="m860.2 40.3c.8-1 1-1.1 1.1-1.1s.4.1 1.2.8c.3.3.5.4.5.6s0 .2-.2.2h-5.7c-.4 0-.8 0-1.2.1l-.2-.7c.5.1 1 .1 1.4.2zm-2.2 11.5v.6c0 .5-.3.7-.9.7s-.8-.2-.8-.6 0-1.1 0-3.4c0-.9 0-1.7-.1-2.6.7.3 1.3.6 1.9.9h1.9c.6-.8.8-.9.9-.9s.3.1 1 .6c.3.2.4.4.4.5s-.1.3-.5.6v.6c0 1.5.1 2.6.1 3s-.3.7-1 .7c-.5 0-.7-.2-.7-.6v-.1zm1.4-14c.8-.9 1-1.1 1.1-1.1s.4.1 1.1.8c.3.3.5.4.5.6s-.1.2-.2.2h-4.2c-.4 0-.7 0-1.1.1l-.2-.7c.4.1.8.1 1.3.2zm.1 4.9c.7-.9.9-1 1-1s.4.1 1 .7c.3.2.5.4.5.5s0 .2-.2.2h-4.1c-.4 0-.7 0-1.1.1l-.2-.7c.4.1.9.1 1.3.1zm0 2.3c.7-.9.9-1 1-1s.4.1 1.1.7c.3.2.5.4.5.5s0 .2-.2.2h-4.1c-.4 0-.7 0-1.1.1l-.2-.7c.4.1.8.1 1.3.1zm.6 2.8h-2.1v3.6h2.1zm8.5-3.3c.7-.7.9-.8 1-.8s.3.1 1.1.7c.3.3.5.4.5.5s-.2.4-.7.6c-.6 1.3-1.4 2.6-2.4 3.7 1.3.9 2.8 1.4 4.3 1.6 0 0 .1 0 .1.1s0 .1-.1.1c-.6.2-.8.5-1 1.4-.1.3-.1.4-.3.4-.2-.1-.5-.1-.7-.3-1.3-.5-2.4-1.3-3.3-2.3-1.6 1.3-3.4 2.2-5.3 2.7-.1 0-.2-.2-.1-.2 1.8-.8 3.3-2 4.6-3.5-.8-1.3-1.4-2.6-1.8-4.1h-.3c-.3 0-.7.1-1 .1l-.2-.7c.4.1.9.1 1.3.2zm3.1-3.5c0 .3.1.3.4.5s.2.3.2.5-.2.7-.7.8c-.6.2-1.2.2-1.7.2-1.6 0-2.2-.4-2.2-1.5 0-.7 0-.9 0-1.6v-1.8h-2.1v.3c.1 1.1-.1 2.2-.6 3.2-.7 1-1.6 1.7-2.7 2.2-.1 0-.2-.1-.2-.1.7-.7 1.3-1.5 1.5-2.5.2-.7.3-1.4.3-2.2 0-.7 0-1.4-.1-2.2.6.2 1.3.5 1.9.8h2c.6-.7.7-.8.9-.8s.3.1.9.6c.2.1.3.3.4.5 0 .2-.1.3-.5.5v2.8c0 .3.1.3.7.3.4 0 .7 0 .8-.2.3-.5.5-1 .6-1.6 0-.1.2-.1.2 0zm-6.9 4c.5 1.2 1.2 2.4 2.1 3.3.8-1 1.3-2.1 1.7-3.3z"/><path clip-path="url(#x)" d="m882.4 42.5v1.5s-.3.7-.9.7-.7-.1-.7-.7c0-.5.1-1.1.1-1.6-1 1.4-2.4 2.4-4 3-.1 0-.2-.1-.1-.2 1.4-1 2.5-2.4 3.2-3.9h-1.3c-.4 0-.8 0-1.2.1l-.2-.7c.5.1.9.1 1.4.1h2.2v-2.4c0-.6 0-1.1-.1-1.7 1.7.2 2.1.3 2.1.5s-.1.3-.5.4v3.1h1.7c.5-.8.7-.9.9-.9s.4.2 1 .7c.3.2.4.4.4.5s-.1.2-.2.2h-3.6v.7c1.7.3 2.5.8 2.5 1.7 0 .4-.3.7-.7.7-.3 0-.5-.2-.8-.7-.2-.5-.6-.9-1-1.3zm2.1 4.5c-.3 1-.7 1.9-1.2 2.7.8.4 1.2.8 1.2 1.3 0 .4-.3.8-.7.8-.5 0-.5 0-1.3-1.1-1.4 1.3-3.2 2.1-5.1 2.2-.1 0-.2-.2-.1-.2 1.7-.5 3.1-1.6 4.2-2.9-.4-.3-.9-.6-1.3-.8l-.4.7c-.1.3-.5.5-.8.5-.5 0-.8-.2-.8-.5 0-.2.1-.3.2-.5.5-.7.9-1.5 1.3-2.3h-1c-.4 0-.8 0-1.2.1l-.2-.7c.5.1.9.1 1.4.1h1.2l.1-.2c.2-.5.4-1 .5-1.6 1.8.3 1.9.4 1.9.6s-.1.3-.6.4c-.1.2-.2.5-.3.7h2.5c.7-.8.9-.9 1-.9s.3.2.9.6c.2.2.4.4.4.5s-.1.5-.3.5zm-5.1-6.6c-.5 0-.6-.1-.7-1.1-.1-.6-.3-1.1-.7-1.5 0-.1 0-.1.1-.1 1.3.3 2.1 1 2.1 2 0 .3-.3.7-.8.7zm.9 8.4c.6.1 1.1.2 1.7.4.4-.7.7-1.4.9-2.2h-1.7zm4.8-10.2c-.6.7-1.3 1.4-2.2 1.9-.1.1-.2 0-.2-.1.3-.6.6-1.2.8-1.8.2-.4.3-.8.4-1.2 1.2.5 1.7.8 1.7 1s0 .2-.5.2zm7.1 2.7c-.2 2.5-1 4.9-2.2 7 1.2 1.2 2.7 2.1 4.3 2.7.1 0 .1.1.1.1s0 0-.1.1c-.5.2-.6.4-.8 1.3-.1.5-.2.5-.4.5-.3-.1-.6-.3-.9-.5-1.2-.8-2.2-1.8-3-3-1.4 1.7-3.3 2.9-5.5 3.6-.1 0-.2-.2-.1-.2 1.9-1.2 3.6-2.7 4.8-4.6-.7-1.5-1.3-3.2-1.5-4.8-.5.7-1.1 1.3-1.7 1.9-.1.1-.2 0-.2-.1 1.1-1.9 1.9-3.9 2.3-6 .2-.8.3-1.6.3-2.4 2 .5 2.4.6 2.4.8s-.2.3-.7.5c-.3 1-.6 2-1 2.9h3.1c.8-1 1-1.1 1.1-1.1s.3.2 1.1.8c.3.3.5.5.5.6s0 .2-.2.2zm-4.2 0c-.3.6-.6 1.1-.9 1.7.4 1.5 1 2.9 1.9 4.1.8-1.8 1.4-3.8 1.5-5.8z"/><path clip-path="url(#y)" d="m862.3 273.1v1.5c0 .3-.2.5-.7.5s-.6-.1-.6-.4c0-.1.1-.6.1-1.4 0-.1 0-.2 0-.5-.6.4-1.2.7-1.9.9-.1 0-.1-.1-.1-.1.9-.6 1.6-1.4 2.2-2.2.3-.5.6-1 .8-1.5 1.2.5 1.7.7 1.7.9s-.2.2-.6.2c-.4.5-.8.9-1.3 1.3.6.1.7.2.7.3s0 .1-.3.3zm1.8 8.9c-1.4.6-2.9 1-4.5 1-.1 0-.1-.2 0-.2.9-.3 1.7-.6 2.5-1 .4-.2.8-.5 1.1-.9 1.6.9 1.6.9 1.6 1s-.2.1-.7.1zm-1.5-1.5c0 .4-.3.5-.8.5s-.6-.1-.6-.5c0-.5.1-1 .1-3.1 0-.8 0-1.6-.1-2.4.5.2 1 .4 1.5.6h5.5c.4-.5.5-.6.6-.6s.3.1.8.5c.2.2.3.3.3.4s-.1.2-.4.4v.7c0 1.8.1 3 .1 3.4s-.3.5-.8.5c-.3 0-.5-.1-.5-.4zm5.8-4.6h-5.8v1.2h5.8zm-5.8 2.7h5.8v-1.2h-5.8zm0 1.6h5.8v-1.3h-5.8zm3.6-7.2h-2.1c-.4 0-.7 0-1.1.1l-.2-.5c.4.1.8.1 1.2.1h2.1v-1.1c-.7 0-1.6.1-2.7.1-.1 0-.1-.2 0-.2 1.5-.1 3.1-.5 4.5-1l1.2-.6c.9.6 1.2 1 1.2 1.1s0 .1-.2.1-.4 0-.6-.1c-.7.2-1.4.4-2.1.5v1.2h2.4c.6-.7.8-.8.9-.8s.3.1.8.6c.2.2.3.3.3.4s0 .1-.2.1h-4.3v1.4h1.7c.6-.7.8-.8.9-.8s.3.1.8.6c.2.2.3.3.3.4s0 .1-.2.1h-6.5c-.4 0-.8 0-1.1.1l-.2-.5c.4.1.8.1 1.2.1h1.7zm4.1 10.1c-.3 0-.6-.2-.8-.4-.8-.7-1.8-1.3-2.8-1.5-.1 0-.1-.2 0-.2 3.2 0 4.4.5 4.4 1.4-.1.4-.4.7-.8.7z"/><path clip-path="url(#z)" d="m879.3 273.1v1.2s-.3.4-.8.4-.5-.1-.5-.4c0-.1 0-.4 0-.8 0-.1 0-.4 0-.6-.6.4-1.3.8-2 1.1-.1 0-.1-.1-.1-.1.9-.7 1.7-1.5 2.3-2.4.3-.4.5-.9.7-1.4 1.3.5 1.6.7 1.6.8s-.2.2-.6.2c-.3.4-.7.8-1.1 1.1.5.1.7.2.7.3s-.1.2-.3.3zm1.5 8.9c-1.4.6-2.9 1-4.5 1-.1 0-.1-.2 0-.2 1.1-.3 2.1-.8 3-1.4.2-.1.4-.3.6-.6 1.6.9 1.6.9 1.6 1s-.1.2-.7.2zm4.2-6.7c.1-.1.2-.2.3-.4-.5-.2-.9-.5-1.3-.8-.5-.4-1-1-1.3-1.6l-2 .2c-.3 0-.6.1-.8.2l-.2-.5h1l1.8-.2c-.2-.4-.3-.8-.4-1.3-.1-.3-.2-.7-.3-1 1.3 0 1.8.1 1.8.4s-.1.2-.4.4c.1.5.2 1 .5 1.4l2.5-.3c.5-.8.7-.9.8-.9s.3.1.9.5c.3.2.4.3.4.4s-.1.1-.1.1l-4.3.5c.1.1.1.2.2.3.6.6 1.2 1 2 1.3.3.1.6.2.9.2s.6-.3 1.1-1.3c0-.1.1 0 .1 0 0 .3-.1 1-.1 1.1s0 .2.3.4c.2.1.3.3.3.5 0 .5-.4.6-1.2.6-.3 0-.5 0-.8-.1l.1.1c0 .1-.1.2-.4.4v.7 3.6s-.3.5-.8.5c-.3 0-.5-.1-.5-.4h-5.8c0 .3-.3.5-.7.5s-.6-.1-.6-.5c0-.5.1-1 .1-2.9 0-1 0-1.9-.1-2.9.5.2 1 .4 1.4.6zm.2.3h-5.8v1.3h5.8zm0 1.6h-5.8v1.2h5.8zm0 1.6h-5.8v1.3h5.8zm1.8 4.3c-.3 0-.6-.2-.8-.4-.8-.7-1.8-1.3-2.8-1.6 0 0-.1 0-.1-.1s0-.1.1-.1c3.2 0 4.4.6 4.4 1.4-.1.5-.4.8-.8.8zm-1.4-11.3c-.2 0-.2 0-.5-.4-.3-.5-.6-.8-1.1-1.1-.1 0 0-.1 0-.1 1.5 0 2 .4 2 1 .1.3-.1.5-.4.6z"/><path clip-path="url(#A)" d="m895.6 278.5v1c0 .2.2.3.3.4.4.2.8.2 1.2.2.9 0 1.9-.1 2.8-.3.2-.1.5-.1.7-.1.6 0 1 .3 1 .7s-.2.5-.4.6c-.4.1-.8.2-1.2.1-.8.1-1.5.1-2.2.1-1.5 0-2.5-.2-2.8-.7-.2-.2-.3-.4-.3-.6-.1-.4-.1-.8-.1-1.1 0-.9 0-1.7 0-2.6s0-1.5 0-2.2c0-.5 0-.6-.4-.8-.1-.1-.2-.1-.4-.1-.1 0-.1-.1-.1-.1s.5-.4.8-.4c.4 0 .8.2 1.1.4.5.3.6.5.6.7s-.1.4-.2.5-.2.2-.2.7-.1 1.2-.1 2c.7-.2 1.4-.5 2.1-.9.6-.3 1.2-.6 1.7-1 .1-.1.2-.2.2-.2s-.1-.3-.2-.4-.2-.2-.2-.2.1-.1.3-.1c.4 0 .7.1 1.2.6.4.4.6.6.6.9s-.2.4-.5.5c-.2 0-.3.1-.5.1-.8.3-1.5.5-2.2.7-.8.2-1.6.4-2.5.5-.1 0-.1.6-.1 1.1zm5.9-6.2c.3.2.5.5.5.8s-.2.5-.5.5c-.2 0-.4-.1-.5-.3-.2-.5-.5-.9-.9-1.2-.1 0-.2-.1-.2-.2s.1-.1.2-.1.2 0 .3.1c.5 0 .8.2 1.1.4zm1.3-1c.3.1.5.4.5.7s-.2.5-.4.5c-.2 0-.4-.1-.5-.3-.3-.4-.6-.8-1-1.1 0 0-.2-.1-.2-.2s0-.1.1-.1h.4c.4.1.7.3 1.1.5z"/><path clip-path="url(#B)" d="m909.4 274.2c-.1 0-.2 0-.2-.1s.3-.3.5-.3c.5.1 1 .2 1.5.5.3.2.4.4.4.6 0 .1-.1.3-.2.4s-.2.3-.2.5c-.3.9-.7 1.8-1.2 2.6-.7 1.1-1.7 2-2.8 2.6-.1.1-.2.1-.3.1s-.1 0-.1-.1c0-.1 0-.1.1-.2.8-.7 1.5-1.5 2-2.5.4-.8.8-1.6 1-2.4.1-.3.2-.7.2-1s-.3-.6-.7-.7zm3.2-.9c-.1-.2-.4-.4-.7-.5-.1 0-.2 0-.2-.1s.3-.3.6-.3c.5 0 .9.2 1.3.5.2.1.6.4.6.7 0 .2-.1.3-.2.4s-.1.2-.1.3c0 .9 0 1.8-.1 3.2v1c0 .1 0 .2.1.2s.2-.1.3-.1c1.7-.7 3.2-1.6 4.6-2.7.2-.1.2-.2.3-.2s.1 0 .1.1-.1.1-.1.2c-1.4 1.6-3.1 3-5 4-.1.1-.2.2-.3.3s-.2.2-.3.2c-.3-.1-.5-.2-.7-.5-.2-.2-.4-.5-.4-.8 0-.1 0-.2 0-.2.1-.3.1-.6.1-.9 0-1.1 0-2.1 0-3.9.2-.4.2-.6.1-.9z"/><path clip-path="url(#C)" d="m927.4 276.4c0 .7-.6 1.2-1.3 1.2s-1.2-.6-1.2-1.3.6-1.2 1.2-1.2c.7.1 1.3.6 1.3 1.3z"/><path clip-path="url(#D)" d="m934.4 275.4c-.5.6-1.1 1.2-1.7 1.7-.1 0-.2-.1-.1-.1 1.1-1.5 1.9-3.1 2.5-4.9.2-.7.4-1.4.5-2.1 1.3.4 1.8.6 1.8.8s-.1.2-.5.3c-.4 1.2-1 2.3-1.7 3.3.8.1.9.2.9.3s-.1.2-.4.3v7.2c0 .4-.2.6-.7.6-.3 0-.6-.1-.6-.5s.1-1.5.1-3.7zm5.5 2.2h-1.9c-.3 0-.6 0-.9.1l-.2-.5c.3.1.7.1 1 .1h1.9v-3.4h-2.2c-.3 0-.6 0-.9.1l-.2-.5c.3.1.7.1 1 .1h5.4c.7-.9.8-1 .9-1s.3.1 1 .7c.3.2.4.4.4.5s0 .1-.2.1h-4v3.4h1.5c.7-.9.8-1 .9-1s.3.1.9.7c.3.3.4.4.4.5s0 .1-.2.1h-3.5v4.2h2.1c.7-1 .9-1.1 1-1.1s.3.1 1 .8c.3.3.4.4.4.5s0 .1-.2.1h-8.4c-.3 0-.7 0-1 .1l-.2-.5c.4.1.8.1 1.1.1h2.7zm1-4.9c-.4 0-.5-.1-.8-.8-.2-.6-.5-1.1-1-1.5-.1 0 0-.1.1-.1 1.8.2 2.5.7 2.5 1.6.1.5-.3.8-.8.8z"/><path clip-path="url(#E)" d="m960.3 272.1c.6-.7.7-.8.8-.8s.2.1 1.1.8c.4.4.5.5.5.6s-.1.3-.6.3c-.3 0-.4 0-.6.1-.4.3-.8.5-1.3.8-.1 0-.2 0-.1-.1.2-.4.4-.9.4-1.4h-8.6c0 1.1-.4 1.9-1.1 1.9-.4 0-.7-.3-.7-.7 0 0 0 0 0-.1 0-.3.2-.6.4-.7.6-.2 1-.9 1-1.5 0-.1.1-.1.2 0 .1.3.1.5.2.8h3.6v-.9c0-.5 0-.8 0-1.1 1.7.2 1.9.3 1.9.5s-.2.3-.5.4v1.2zm-5.7 3.5c-1.3.2-2.6.4-3.9.4-.1 0-.1-.2 0-.2 2-.4 4-1 5.8-1.9.6-.3 1.1-.6 1.5-1.1 1.2.8 1.5 1.1 1.5 1.3s-.1.2-.8.1c-.9.5-1.8.8-2.8 1.1v2.3l3.9-.5c.7-1 .8-1.1.9-1.1s.3.1 1 .5c.4.2.5.3.5.4s-.1.1-.2.1l-6 .9v2.3c0 1 .1 1.1 2.2 1.1 1.6 0 2.1-.1 2.4-.4.3-.6.6-1.2.8-1.9 0-.1.1-.1.1 0 0 .5-.1 1.1-.1 1.6 0 .2 0 .2.2.3.2 0 .4.3.4.5 0 .4-.3.7-1 .9-1.1.2-2.2.3-3.2.3-2.7 0-3.2-.4-3.2-1.8v-2.7l-3.3.5c-.3 0-.6.1-.9.2l-.2-.5h1l3.4-.5z"/><path clip-path="url(#F)" d="m972.8 278.8c-.1 1.7-1.6 3-3.4 2.9-1.5-.1-2.7-1.3-2.9-2.8 0-1.2.8-1.9 2.2-2.6-1.2-.4-1.9-1.5-1.9-2.7.1-1.4 1.4-2.5 2.8-2.4 1.6 0 2.8 1 2.8 2.2 0 1.1-.6 1.6-1.8 2.2 1.4.5 2.3 1.8 2.2 3.2zm-4.7.2c0 1.4.7 2.3 1.7 2.3s1.7-.9 1.7-2.2c0-1-.6-1.6-2.3-2.4-.9.4-1.3 1.3-1.1 2.3zm3-5.5c0-1.1-.6-1.8-1.4-1.8-.9 0-1.5.7-1.5 1.6v.2c0 .8.3 1.3 2.1 2.1.6-.6.9-1.3.8-2.1z"/><path clip-path="url(#G)" d="m982.9 276.4c0 3.2-1.2 5.2-3.1 5.2s-3.1-1.9-3.1-5.2 1.2-5.3 3.1-5.3 3.1 2.1 3.1 5.3zm-4.6 0c0 2.9.3 4.8 1.5 4.8s1.5-1.9 1.5-4.8-.3-4.8-1.5-4.8-1.5 1.9-1.5 4.8z"/><path clip-path="url(#H)" d="m989.8 275c1 .4 1.5.9 1.5 1.5 0 .4-.2.7-.5.7s-.4-.2-.5-.5c0-.5-.2-1-.5-1.5 0 2.8.1 6.5.1 7.3 0 .3-.3.5-.8.5s-.5-.1-.5-.4c0-.7.1-3.6.1-6.3-.4 1.2-1.1 2.4-2 3.3 0 0-.2 0-.1-.1.9-1.8 1.6-3.8 1.9-5.9h-.5c-.3 0-.6 0-1 .1l-.2-.5c.3.1.7.1 1 .1h.7v-1.5c0-.7 0-1.3-.1-1.8 1.5.2 1.8.2 1.8.5s-.2.3-.5.4v2.4h.2c.4-.7.6-.8.7-.8s.2.1.6.6c.1.1.2.3.2.4s0 .1-.2.1h-1.5zm6 3c.5.7 1.1 1.3 1.8 1.7.8.5 1.7.8 2.6 1 .1 0 .1.1 0 .1-.4.2-.6.5-.7.9-.1.2-.1.3-.2.3-.2 0-.4-.1-.5-.2-.6-.4-1.1-.8-1.6-1.3-.6-.7-1.1-1.5-1.5-2.3 0 1.8.1 3.7.1 4.3 0 .4-.3.5-.8.5s-.5-.1-.5-.4.1-1.9.1-3.4c-1.1 1.4-2.6 2.4-4.3 2.9-.1 0-.1-.1-.1-.1 1.6-1 2.8-2.3 3.7-3.9h-1.1c0 .4-.2.5-.7.5s-.5-.1-.5-.4 0-1.3 0-3c0-.8 0-1.2 0-2 .5.2.9.4 1.3.7h1.6v-1.4h-2.5c-.3 0-.6 0-.9.1l-.1-.6c.3.1.7.1 1 .1h2.3v-.4c0-.5 0-1.1-.1-1.6 1.4.1 1.7.2 1.7.4s-.1.2-.4.4v1.1h1.9c.7-.8.8-.9.9-.9s.3.1.9.6c.3.2.4.4.4.5s0 .1-.2.1h-3.9v1.4h1.8c.4-.5.5-.6.6-.6s.3.1.8.5c.2.2.3.3.3.4s-.1.3-.4.4v.6c0 1.6.1 2.7.1 3s-.2.5-.7.5-.5-.1-.5-.4v-.1zm-1.4-4h-1.7v1.6h1.7zm0 1.9h-1.7v1.7h1.7zm3.1-.3v-1.6h-1.9v1.6zm0 2v-1.6h-1.9v1.7z"/><path clip-path="url(#I)" d="m1003.8 279.6c0-.1 0-.1.1-.1.9.2 1.7.5 2.5 1 .5.3.9.8.9 1.4 0 .5-.3.8-.8.9 0 0 0 0-.1 0-.4 0-.7-.3-.7-.6-.3-1-1-1.8-1.8-2.4-.1-.1-.1-.1-.1-.2z"/><path clip-path="url(#J)" d="m845.4 295.4c.2 0 .4-.1.6-.2.1-.1.3-.1.5-.1.4 0 .8.1 1.2.4.2.1.4.3.4.5s-.2.4-.4.4c-.2 0-.5 0-.7-.1-.3 0-.6-.1-.9-.1-.5 0-1.5 0-2.7.1v2.6c0 1.4.1 2 .1 2.6 0 .3-.1.6-.2.9-.1.4-.5.6-.9.6-.2 0-.4-.1-.4-.4 0-.2-.1-.4-.3-.5-.3-.2-.7-.4-1.1-.6-.2-.1-.3-.2-.3-.3s.1-.1.1-.1h.3c.4.1.8.1 1.3.1.2 0 .2-.1.2-.3 0-.4 0-.8 0-1.9s0-1.8 0-2.7c-.9.1-1.6.2-2.6.4-.2 0-.4.1-.6.2-.1.1-.3.2-.5.2s-.5-.1-.9-.6c-.2-.2-.3-.5-.4-.8 0-.1 0-.4.2-.4s.2.1.4.3.5.3.8.3h.6l3-.3v-1.6c0-.2 0-.3-.1-.5s-.2-.3-.4-.3l-.4-.1c-.1 0-.2-.1-.2-.1s.2-.3.4-.4.4-.1.7-.1c.4.1.8.3 1.2.5.2.1.3.3.3.5s-.1.3-.2.4c-.2.1-.2.2-.2.5s0 .6 0 1.1c.7 0 1.4-.1 2.1-.1zm-5.6 2.3c.1 0 .1.1.1.3.1.5 0 1.1-.1 1.6-.1.4-.3.8-.7 1.1-.2.2-.5.3-.8.4-.3 0-.6-.2-.7-.5v-.1c0-.3.1-.5.6-.8.3-.1.6-.4.8-.6.3-.3.5-.7.6-1s.1-.4.2-.4zm5.1.2c0-.1 0-.1.2-.1h.2c.7.2 1.3.4 1.8.8.4.3.7.7.8 1.3 0 .5-.2.9-.7.9s-.6-.2-.7-.6c-.2-.5-.4-.9-.7-1.3-.2-.3-.4-.5-.7-.7-.2-.2-.2-.2-.2-.3z"/><path clip-path="url(#K)" d="m858 295.7c1.4-.1 1.9-.1 2.7-.2.2 0 .4-.1.5-.2.2-.1.3-.1.5-.1.5 0 .9.1 1.3.4.2.1.3.3.3.5s-.1.4-.3.4c-.3 0-.6 0-.9 0-.6-.1-1.2-.1-1.7-.1s-1.3 0-1.9 0c.5.3.7.6.7.8 0 .1 0 .2-.1.2-.1.2-.2.4-.3.6-.3 1-.9 1.9-1.5 2.8-.8 1-1.7 1.8-2.9 2.4-.1 0-.1.1-.2.1s-.1 0-.1-.1.1-.2.3-.4c.8-.8 1.5-1.6 2-2.6.4-.8.8-1.6 1-2.5.1-.2.1-.5.1-.7s0-.3-.2-.5c-1 .1-2 .2-2.7.4-.2 0-.5.1-.7.2-.1.1-.3.1-.4.1-.2 0-.5-.1-.9-.6-.2-.2-.3-.5-.4-.8 0-.2.1-.3.2-.3s.1.1.2.2c.3.3.6.4 1 .5.3 0 .8 0 1.2-.1 1.2-.2 2-.3 3.2-.4zm1-3c.1 0 .3-.1.4-.1.2-.1.3-.1.5-.2.4 0 .8.1 1.2.3.1.1.2.2.2.4 0 .3-.2.5-.5.5s-.7 0-1.1.1l-3.1.2c-.2 0-.5.1-.7.1-.4.1-.9-.1-1.1-.5-.2-.2-.3-.5-.3-.7 0-.1 0-.2.1-.2s.1.1.2.1c.3.3.7.4 1.1.4.3 0 .8 0 1.5-.1s1.1-.2 1.6-.3z"/><path clip-path="url(#L)" d="m870 295.3c-.1 0-.2-.1-.2-.1s.3-.3.5-.3c.5.1 1 .2 1.5.5.3.2.4.4.4.6 0 .1-.1.3-.2.4s-.2.3-.2.5c-.3.9-.7 1.8-1.2 2.6-.7 1.1-1.7 2-2.8 2.6-.1.1-.2.1-.3.1s-.1 0-.1-.1 0-.1.1-.2c.8-.7 1.5-1.5 2-2.5.4-.8.8-1.6 1-2.4.1-.3.2-.7.2-1s-.4-.5-.7-.7zm3.2-.9c-.1-.2-.4-.4-.7-.5-.1 0-.2-.1-.2-.2s.3-.3.6-.3c.5 0 .9.2 1.3.5.2.1.6.4.6.7 0 .2-.1.3-.2.4s-.1.2-.1.3c0 .9 0 1.8-.1 3.2v1c0 .1 0 .2.1.2s.2-.1.3-.1c1.7-.7 3.2-1.6 4.6-2.7.2-.1.2-.2.3-.2s.1 0 .1.1-.1.1-.1.2c-1.4 1.7-3 3-5 4-.1.1-.2.2-.3.3s-.2.2-.3.2c-.3-.1-.5-.2-.7-.5-.2-.2-.4-.5-.4-.8 0-.1 0-.2 0-.2.1-.3.1-.6.1-.9 0-1.1 0-2.1 0-3.9.2-.2.1-.5.1-.8z"/><path clip-path="url(#M)" d="m887.9 297.6c0 .7-.6 1.2-1.3 1.2s-1.2-.6-1.2-1.3.6-1.2 1.2-1.2c.7 0 1.3.6 1.3 1.3z"/><path clip-path="url(#N)" d="m899.3 292.6c-.2-.1-.4-.2-.7-.3-.1 0-.2 0-.2-.1s.1-.2.2-.3.3-.1.4-.1c.4 0 .8.1 1.2.3.5.2.8.4.8.7 0 .2-.1.3-.2.4s-.2.3-.2.8c0 1.6-.1 3.2-.3 4.8-.2 1-.7 1.9-1.4 2.6-1.2 1.1-2.6 1.8-4.2 2.1-.1 0-.2 0-.3 0s-.2 0-.2-.1 0-.1.2-.2c1.7-.5 3.2-1.7 4.2-3.2.5-1 .7-2 .8-3.1 0-.6 0-1.5 0-3.4.2-.6.1-.8-.1-.9zm-3.7 1c-.1-.2-.3-.3-.7-.5-.1 0-.2-.1-.2-.1s0-.1.2-.1c.1-.1.3-.1.5-.1.4.1.7.2 1 .4.5.2.7.6.7.8 0 .1-.1.3-.2.4s-.1.3-.1.5c0 1.1-.1 2.3-.1 4 0 .4-.2.6-.5.6s-.5-.2-.6-.5c-.1-.2-.2-.5-.2-.8 0-.1 0-.3.1-.4 0-.2.1-.4.1-.6 0-.5 0-1.1 0-2.2 0-.6 0-1 0-1.4z"/><path clip-path="url(#O)" d="m906.9 294.1c0-.1.1-.1.2-.1.2 0 .5.1.7.2.5.2 1 .5 1.4.9.3.3.4.7.5 1.1s-.3.9-.7.9c0 0 0 0-.1 0-.3 0-.6-.2-.7-.6-.2-.8-.5-1.6-1.1-2.3-.1 0-.2 0-.2-.1zm4.8 6.3c-1 1.1-2.3 2-3.6 2.7-.2.1-.4.2-.6.2-.1 0-.1 0-.1-.1 0-.1.1-.1.3-.3 1.1-.8 2.2-1.8 3.1-2.9.8-1.1 1.6-2.2 2.2-3.4.5-.7.8-1.5 1-2.3 0-.2-.1-.4-.3-.5-.1-.1-.3-.2-.5-.3-.1 0-.2-.1-.2-.2s.3-.3.7-.3c.6.1 1.2.3 1.6.7.4.3.5.5.5.7s-.1.4-.2.5c-.2.2-.4.5-.5.7-1.1 1.8-2.2 3.4-3.4 4.8zm4.5-8.1c.3.2.5.5.5.8s-.2.5-.4.5c-.2 0-.4-.1-.5-.3-.2-.5-.5-.9-.9-1.2-.1-.1-.2-.1-.2-.2s.1-.1.2-.1h.3c.4.2.7.3 1 .5zm1.3-.9c.3.1.5.4.5.7s-.2.5-.4.5c-.2 0-.4-.1-.5-.3-.3-.4-.6-.8-1-1.1 0 0-.2-.1-.2-.2s0-.1.1-.1h.4c.3.1.7.3 1.1.5z"/><path clip-path="url(#P)" d="m932.5 298.2c-.4 0-1.4-.1-2.1-.1-1.1 0-3.5.1-5.2.2-.5 0-.9.1-1.4.3-.1.1-.2.1-.4.1-.4 0-.7-.3-1.1-1-.2-.2-.3-.5-.3-.7s.1-.3.2-.3.1.1.2.1c.3.4.7.6 1.2.5.4 0 .6 0 1.5-.1 1.7-.1 3.6-.2 5-.2.4 0 .7-.1 1.1-.2.1-.1.3-.1.4-.1.2 0 .4.1.6.1.5.2.9.4.9.8-.1.3-.3.6-.6.6z"/><path clip-path="url(#Q)" d="m943 296.8c.8.4 1.3.8 1.3 1.4 0 .4-.2.7-.6.7-.3 0-.6-.1-.8-.4-.3-.4-.6-.7-1-1-.4-.4-.9-.6-1.5-.8v2.4c0 .6 0 1.9.1 3.4 0 .5-.2.7-.5.7-.2 0-.5-.1-.6-.3-.2-.3-.3-.7-.3-1.1 0-.1 0-.3.1-.4 0-.1.1-.2.1-.2 0-.2 0-.6.1-3.1 0-1.3 0-2.5 0-3.8 0-.4 0-.8-.1-1.2-.1-.1-.2-.3-.3-.3-.1-.1-.3-.2-.5-.2-.1 0-.1-.1-.1-.1s.1-.1.2-.2.3-.1.4-.1c.5 0 1 .2 1.4.4s.6.4.6.7c0 .2-.1.3-.2.5-.1 0-.1.1-.1.3 0 .4-.1 1.2-.1 2.5.7-.3 1.6-.1 2.4.2z"/><path clip-path="url(#R)" d="m951.4 294.3c0 .7 0 1.4-.1 2.1h.9c.4-.6.5-.7.7-.7s.3.1.7.5c.2.2.3.3.3.4s0 .1-.3.4c0 2-.3 3.9-.8 5.8-.1.3-.3.5-.5.7-.3.2-.6.3-1 .3-.2 0-.2-.1-.2-.2-.1-.6-.3-.8-1-1-.1 0 0-.2 0-.2.6.1 1 .1 1.2.1.4 0 .5-.1.7-.6.3-1.7.5-3.4.5-5.1h-1c-.3 3.6-1.1 5.5-2.8 7.1-.1 0-.2-.1-.1-.1 1.3-2.2 1.8-4.8 1.8-9v-.4h-.4c-.3 0-.6 0-.9.1l-.2-.5c.3.1.7.1 1 .1h.8v-1.7c0-.2 0-.6-.1-1 1.6.2 1.7.3 1.7.5s-.1.2-.4.4v1.9h.5c.5-.6.7-.7.8-.7s.3.1.7.5c.2.2.3.3.3.4s0 .1-.2.1zm4.1-.3c-.5.7-1.1 1.4-1.8 1.9-.1 0-.2 0-.2-.1.6-.9 1-1.8 1.3-2.8.2-.6.3-1.2.3-1.8 1.5.3 1.8.4 1.8.6s-.1.2-.5.3c-.2.5-.4 1-.7 1.5h3.6c.7-.8.9-1 1-1s.3.1.9.7c.3.2.4.4.4.5s0 .1-.2.1zm.4 8.1c0 .5.1.6 1.9.6s2.1-.1 2.3-.2.3-.3.8-1.9c0-.1.2 0 .2 0v1.3c0 .2.1.3.2.4.3.2.4.3.4.6s-.3.6-.9.8c-.9.2-1.8.2-2.7.2-2.9 0-3.4-.2-3.4-1.3 0-.4 0-.7 0-2.2 0-.6 0-1.3 0-1.9-.3.1-.6.2-.8.3l-.3-.5c.3 0 .6-.1.9-.1l.2-.1c0-.9 0-1.8 0-2.7 1.5.2 1.7.2 1.7.4s-.1.2-.4.4v1.5l1.1-.3v-1c0-.6 0-1.2-.1-1.9 1.2.1 1.6.2 1.6.4s-.1.2-.5.3v1.8l1.1-.3c.4-.6.6-.8.7-.8.4.1.7.3 1 .6.1.1.1.2.2.3 0 .1-.1.2-.4.4 0 1-.1 1.9-.2 2.9-.1.3-.2.6-.4.9-.2.2-.5.3-.9.3-.2 0-.2 0-.2-.4s-.3-.6-.8-.8v.9c0 .4-.2.5-.7.5s-.5-.1-.5-.5 0-1.4.1-3.4l-1.1.4zm2.3-4.7v1.3 1.3c.2.1.5.1.8.1.2 0 .4-.1.4-.4.1-.9.2-1.8.2-2.6z"/><path clip-path="url(#S)" d="m969.2 294.1c.6-.8.8-.9.9-.9s.3.1.9.6c.3.2.4.3.4.4s0 .1-.2.1h-4.4c-.3 0-.7 0-1 .1l-.2-.5c.4.1.7.1 1.1.1zm-1.8 9v.4c0 .4-.2.5-.7.5s-.6-.1-.6-.5 0-.9 0-2.7c0-.7 0-1.3-.1-2 .5.2 1 .4 1.5.7h1.5c.5-.6.6-.7.7-.7s.2.1.8.5c.2.2.3.3.3.4s-.1.2-.4.5v.5c0 1.2.1 2 .1 2.3s-.2.5-.8.5-.6-.1-.6-.4v-.1zm1.1-10.9c.6-.7.8-.8.9-.8s.3.1.9.6c.2.2.4.3.4.4s0 .1-.2.1h-3.3c-.3 0-.6 0-.8.1l-.2-.5c.3.1.7.1 1 .1zm.1 3.8c.5-.7.7-.8.8-.8s.3.1.8.6c.2.2.3.3.3.4s0 .1-.2.1h-3.2c-.3 0-.6 0-.8.1l-.2-.5c.3.1.7.1 1 .1zm0 1.8c.5-.7.7-.8.8-.8s.3.1.8.6c.2.2.3.3.3.4s0 .1-.2.1h-3.2c-.3 0-.6 0-.8.1l-.2-.5c.3.1.7.1 1 .1zm.5 2.1h-1.7v2.8h1.7zm6.6-2.5c.6-.6.7-.6.8-.6s.3.1.8.5c.3.2.3.3.3.4s-.2.3-.5.4c-.5 1-1.1 2-1.9 2.9 1 .7 2.2 1.1 3.4 1.3.1 0 .1.1 0 .1-.5.1-.7.4-.8 1.1 0 .2-.1.3-.2.3-.2 0-.4-.1-.5-.2-1-.4-1.9-1-2.6-1.8-1.2 1-2.6 1.7-4.1 2.1-.1 0-.1-.2-.1-.2 1.4-.6 2.6-1.6 3.6-2.7-.6-1-1.1-2.1-1.4-3.2h-.2c-.3 0-.5 0-.8.1l-.2-.5c.3.1.7.1 1 .1zm2.4-2.7c0 .2.1.3.3.4.1.1.2.3.2.4 0 .3-.2.5-.6.6s-.9.2-1.4.2c-1.2 0-1.7-.3-1.7-1.2 0-.5 0-.7 0-1.2v-1.4h-1.6v.3c0 .9-.1 1.7-.5 2.5-.5.8-1.2 1.4-2.1 1.7-.1 0-.2-.1-.1-.1.6-.5 1-1.2 1.2-2 .1-.6.2-1.1.2-1.7s0-1.1-.1-1.7c.5.2 1 .4 1.5.7h1.6c.5-.5.5-.6.7-.6s.2 0 .7.5c.1.1.2.2.3.4 0 .1-.1.2-.4.4v2.2c0 .2.1.3.5.3s.5 0 .7-.2c.3-.4.4-.8.5-1.2 0-.1.2-.1.2 0zm-5.4 3c.4 1 .9 1.8 1.7 2.6.6-.8 1-1.7 1.3-2.6z"/><path clip-path="url(#T)" d="m985.8 301.2c1.2 0 1.5-.1 1.7-.3.3-.3.6-.7.8-1.1.1-.1.1-.1.2-.1s.2.1.1.2c-.2.7-.5 2-.8 2.7-1 0-1.7 0-2.7 0s-1.8 0-2.8 0c-.1 0-.2 0-.2-.2 0-.1 0-.3.1-.4.7-1.3 1.5-2.5 2.5-3.6 1.2-1.5 1.9-2.3 1.9-3.6s-.4-2-1.2-2c-.5 0-1 .3-1.2.8-.1.3-.1.7-.1 1 0 .4-.5.7-1 .7s-.7-.1-.7-.5c.3-1.4 1.5-2.4 3-2.4 1.9 0 2.9 1.1 2.9 2.5 0 1.8-1.3 2.5-2.7 3.8-.9.7-1.7 1.6-2.3 2.6z"/><path clip-path="url(#U)" d="m994.6 294c-.8 0-1 .1-1.2.3-.2.3-.4.6-.5.9 0 .1-.1.1-.2.1s-.2-.1-.2-.2c.1-.7.3-1.8.4-2.6h2.8s1.8 0 2.7 0c.1 0 .1 0 .1.3 0 .1 0 .2-.1.4-1.1 1.9-1.9 3.9-2.5 6.1-.1.6-.2 1.2-.2 1.9v.9s-.5.8-1.1.8-.9-.2-.9-.6c.1-1.2.4-2.5 1-3.6.8-1.6 1.7-3.2 2.7-4.7z"/><path clip-path="url(#V)" d="m1008.6 295.1c.9 0 1.6 1 1.6 2.4 0 1.1-.2 2.2-.5 3.2-.2.5-.5 1.1-.8 1.5-.5.5-.9.8-1.4.8s-.7-.2-.7-.6c0-.3-.1-.5-.3-.8s-.4-.5-.6-.8c-.1-.1-.1-.1-.1-.2s0-.1.1-.1c.1 0 .1 0 .2.1.3.2.7.4 1 .5.2.1.3.1.5.1s.4-.1.5-.2c.3-.5.6-1 .7-1.6.2-.7.3-1.5.3-2.2 0-1.3-.2-1.7-.8-1.7-.2 0-.5 0-.7.1-.6 1.3-1.4 3-2 4.2s-1 2-1.4 2.6c-.1.2-.4.3-.6.3-.3 0-.5-.3-.5-.6s.1-.5.3-.8c1.2-1.7 2.2-3.5 3.1-5.4-.5.2-1.1.4-1.5.6-.1.1-.3.1-.4.2s-.2.1-.4.1c-.3 0-.6-.2-.8-.4-.3-.2-.5-.6-.5-1 0-.3.1-.5.2-.5s.1.1.2.1c.2.3.4.4.7.5.4 0 .8-.1 1.2-.2.5-.1 1-.2 1.6-.4.3-.7.6-1.5.7-2.2 0-.2-.1-.3-.2-.4-.2-.1-.4-.2-.5-.2s-.2-.1-.2-.1.1-.2.2-.3c.2-.1.5-.1.7-.1.6.1 1.1.4 1.5.8.1.1.1.2.1.4s-.1.4-.3.5c-.1.1-.2.3-.3.4-.1.3-.3.7-.5 1.1.1.3.4.3.6.3zm3.4 4h-.4c-.1 0-.2 0-.2-.1s0-.1.1-.1c1.2-.5 1.7-.8 1.7-1 0-.4-.2-.8-.4-1.1-.4-.6-.9-1.1-1.6-1.4-.1 0-.3-.1-.3-.2s.1-.1.2-.1h.1c.9.2 1.6.6 2.3 1.2.8.6 1.2 1.6 1.2 2.6.1.4-.2.7-.6.8-.2 0-.4-.1-.6-.2-.1-.2-.3-.2-.5-.2-.4-.3-.7-.3-1-.2z"/><path clip-path="url(#W)" d="m1021.1 298.2c-.1.8-.2 1.6-.4 2.5-.4 1.2-1 2.4-1.9 3.3l-.2-.1c.6-1.1.9-2.2 1.1-3.4.2-1.6.2-3.1.2-4.7 0-.8 0-1.2-.1-1.9.5.2 1 .5 1.5.8h2c.5-.5.6-.6.7-.6s.2.1.8.5c.2.2.3.3.3.4s-.1.2-.4.4v.7 2.6s-.2.5-.7.5-.6-.1-.6-.5v-.4zm2.3-6c.7-.8.8-.9.9-.9s.3.1.9.6c.3.2.4.4.4.5s0 .1-.2.1h-5c-.3 0-.7 0-1 .1l-.2-.5c.4.1.7.1 1.1.1zm0 2.6h-2.2v.5c0 1 0 1.8-.1 2.6h2.3zm3.7 1.5c0 1.2-.2 2.5-.6 3.7-.6 1.6-1.7 3-3.2 3.9-.1 0-.2-.1-.2-.2 1.1-1.1 1.9-2.5 2.2-4 .3-1.6.4-3.1.4-4.7 0-.9 0-1.4-.1-2.3l1.5.6c.9-.3 1.6-.8 2.3-1.4.2-.2.5-.4.7-.7 1.3 1 1.4 1.1 1.4 1.3s-.1.2-.7.1c-1.2.5-2.5.9-3.8 1.1v.6 1.5h2.8c.6-.8.8-.9.8-.9s.3.1.9.6c.3.2.4.4.4.5s0 .1-.2.1h-1.9v2.4 4.5c0 .5-.2.7-.8.7-.4 0-.6-.1-.6-.5s0-1.3 0-3.2v-3.8z"/></g><path clip-path="url(#X)" d="m775.5 339.9v-339.9" fill="none" stroke="#4aa064" stroke-miterlimit="10" stroke-width="1.76"/><path d="m0 0h1082v339.9h-1082z" fill="none"/><path d="m436.3 339.9v-339.9" fill="none" stroke="#4aa064" stroke-miterlimit="10" stroke-width="1.76"/><path clip-path="url(#Y)" d="m81.2 284h319.3" fill="none" stroke="#ccc" stroke-miterlimit="10"/><path clip-path="url(#Z)" d="m73 282.4c0 3.2-1.2 5.2-3.1 5.2s-3.1-1.9-3.1-5.2 1.2-5.3 3.1-5.3 3.1 2.1 3.1 5.3zm-4.6 0c0 2.9.3 4.8 1.5 4.8s1.5-1.9 1.5-4.8-.3-4.8-1.5-4.8-1.5 1.9-1.5 4.8z" fill="#333"/><path clip-path="url(#aa)" d="m81.2 245.3h319.3" fill="none" stroke="#ccc" stroke-miterlimit="10"/><path clip-path="url(#ab)" d="m51 243.8c.4-.7 1.1-1.1 1.9-1.1 1.8 0 2.7 1.3 2.7 3.1.1 1.7-1.1 3.1-2.7 3.2-.1 0-.2 0-.3 0-1.9 0-3.2-1.5-3.2-3.9 0-2.1 1.1-4.1 2.8-5.3.7-.5 1.5-1 2.3-1.3.1 0 .2 0 .4.3s.1.4 0 .4c-.7 0-1.5.3-2.1.7-1 .9-1.7 2.3-1.8 3.9zm.1.5c-.1.3-.2.6-.2.9 0 2.3.6 3.4 1.6 3.4s1.4-1.2 1.4-2.8c0-1.4-.4-2.6-1.5-2.6-.5 0-.9.4-1.3 1.1z" fill="#333"/><path clip-path="url(#ac)" d="m59.1 242.7c0 .2 0 .4-.1.7 1.2-1.1 3.1-1 4.2.2.5.5.8 1.2.8 1.9.2 1.7-1.1 3.2-2.8 3.4-.1 0-.3 0-.4 0-.7 0-1.4-.1-2-.5-.5-.3-1-.7-1-1.2 0-.3.3-.6 1-.6s.8.7.9 1c.1.4.5.8 1 .8 1.1 0 1.5-1.3 1.5-2.9s-.8-2.5-1.7-2.5c-.7 0-1.4.4-1.8 1-.1.1-.1.2-.4.1s-.2-.1-.2-.3.1-.3.1-.4l.3-4.5c0-.1 0-.1.1-.2 0-.1.1-.1.2-.1h2.2c.6 0 1.5 0 2.4-.1.1 0 .1.1.1.1l-.5 1.3c0 .1-.1.1-.1.1-.6 0-.9 0-1.4 0h-2.4z" fill="#333"/><path clip-path="url(#ad)" d="m73 243.8c0 3.2-1.2 5.2-3.1 5.2s-3.1-1.9-3.1-5.2 1.2-5.3 3.1-5.3 3.1 2.1 3.1 5.3zm-4.6 0c0 2.9.3 4.8 1.5 4.8s1.5-1.9 1.5-4.8-.3-4.8-1.5-4.8-1.5 1.9-1.5 4.8z" fill="#333"/><path clip-path="url(#ae)" d="m81.2 168h319.3" fill="none" stroke="#ccc" stroke-miterlimit="10"/><path clip-path="url(#af)" d="m36.7 162.8c-.1 0-.2 0-.2-.2s0-.2.1-.2c.8-.3 2-.8 3-1.3.1 0 .2.1.2.2v3.1 4.4c0 1.4 0 1.6.2 1.9s.6.3 1.2.4c.1 0 .1.1.1.2s0 .2-.1.2c-.6 0-1.4 0-2.1 0s-1.5 0-2.1 0c-.1 0-.1 0-.1-.2s0-.2.1-.2c.6 0 1-.1 1.2-.4.2-.6.2-1.2.1-1.9v-5c0-.4 0-.7-.1-1.1-.1-.1-.4-.2-.8 0z" fill="#333"/><path clip-path="url(#ag)" d="m44.8 173.3c-.1.1-.2.1-.2-.1s-.1-.2 0-.3c.6-.4.9-.8.9-1.2 0-.2-.2-.4-.4-.4s-.5-.2-.5-.6c0-.5.5-1 1-1 .5.1.9.6.9 1.1-.1.6-.3 1.5-1.7 2.5z" fill="#333"/><path clip-path="url(#ah)" d="m53.8 166.4c-.4.6-1.1 1-1.8 1-1.5 0-2.7-1.2-2.8-2.7 0-.1 0-.2 0-.3-.1-1.7 1.1-3.1 2.7-3.2h.4c2 0 3.2 1.6 3.2 4 .2 2.2-.9 4.3-2.8 5.5-.7.5-1.5.8-2.3 1-.1 0-.2 0-.3-.3s-.1-.4.1-.4c.7 0 1.3-.2 1.9-.5 1.1-.6 1.7-1.9 1.7-4.1zm-3-2c0 1.4.5 2.6 1.4 2.6.6 0 1-.4 1.4-1.2.1-.3.2-.6.1-.9 0-1.9-.5-3.2-1.6-3.2s-1.2 1.2-1.3 2.7z" fill="#333"/><path clip-path="url(#ai)" d="m59.1 165.4c0 .2 0 .4-.1.7.6-.6 1.4-.9 2.2-.9 1.5 0 2.8 1.2 2.8 2.7v.3c.2 1.7-1.1 3.2-2.8 3.4-.1 0-.3 0-.4 0-.7 0-1.4-.1-2-.5-.5-.3-1-.7-1-1.2 0-.3.3-.6 1-.6s.8.7.9 1c.1.4.5.8 1 .8 1.1 0 1.5-1.3 1.5-2.9s-.8-2.5-1.7-2.5c-.7 0-1.4.4-1.8 1-.1.1-.1.2-.4.1s-.2-.1-.2-.3c0-.1.1-.3.1-.4l.3-4.5c0-.1 0-.1.1-.2 0-.1.1-.1.2-.1h2.2c.6 0 1.5 0 2.4-.1.1 0 .1.1.1.1l-.5 1.3c0 .1-.1.1-.1.1h-1.4-2.4z" fill="#333"/><path clip-path="url(#aj)" d="m73 166.4c0 3.2-1.2 5.2-3.1 5.2s-3.1-1.9-3.1-5.2 1.2-5.3 3.1-5.3 3.1 2.1 3.1 5.3zm-4.6 0c0 2.9.3 4.8 1.5 4.8s1.5-1.9 1.5-4.8-.3-4.8-1.5-4.8-1.5 1.9-1.5 4.8z" fill="#333"/><path clip-path="url(#ak)" d="m41.5 88.4s0 .1 0 0c-3.2 2.8-3.5 7.5-.7 10.6.2.2.4.4.6.6.1.1.1.1.1.2s0 .1-.1.1-.1 0-.2-.1c-1-.7-1.8-1.6-2.4-2.6-1.1-1.9-1.1-4.3 0-6.3.6-1 1.4-1.9 2.4-2.6.2.1.2.1.3.1z" fill="#333"/><path clip-path="url(#al)" d="m44.6 93.4c-.3.4-.6.9-1 1.3l-.1-.1c.7-1.3 1.3-2.7 1.7-4.1.1-.6.3-1.2.3-1.8 1.4.4 1.6.4 1.6.6s0 .2-.5.3c-.3 1-.7 2-1.3 2.9.7.1.8.1.8.3s-.1.1-.3.2v6.2c0 .3-.2.5-.7.5s-.5-.1-.5-.5.1-1.3.1-3.2zm2.9 4.4c0 .8-.3 1.4-.9 1.4-.3 0-.5-.2-.6-.5 0 0 0 0 0-.1 0-.3.1-.4.5-.6.4-.1.8-.5.8-1 0-.1.1-.1.1 0 .1.2.1.5.1.8zm.7-7.5c.9.3 1.3.6 1.3 1.1 0 .3-.2.5-.5.5h2c.1-.3.2-.6.2-.8.1-.3.1-.5.1-.8 1 .3 1.3.4 1.3.5s-.1.2-.4.2c-.3.3-.6.6-1 .8h1.8c.5-.6.7-.7.8-.7s.2.1.7.5c.2.2.3.3.3.4s0 .1-.2.1h-7.5c-.3 0-.6 0-.9.1l-.1-.4c.3.1.7.1 1 .1h1.6c-.2 0-.3-.2-.3-.3 0-.5-.2-.9-.5-1.3h-.1c-.3 0-.6 0-.9.1l-.1-.4c.3.1.7.1 1 .1h1.9v-.7c0-.2 0-.5 0-.7 1.4.1 1.5.2 1.5.4s-.1.2-.4.3v.8h1.7c.5-.6.7-.7.7-.7s.2.1.8.5c.2.2.3.3.3.4s0 .1-.2.1zm0 5.7c0 .2-.2.3-.6.3s-.5-.1-.5-.4 0-.4 0-1.2 0-1.4-.1-2.1c.4.2.9.3 1.3.6h3.7c.4-.4.5-.5.6-.5s.2.1.6.4c.2.2.3.2.3.3s-.1.2-.3.3v.4 1.8s-.2.5-.7.5c-.3 0-.4-.1-.4-.4zm4-2.6h-4v1h4zm0 1.3h-4v1h4zm.1 3.4c0 .2 0 .2.2.2.3.1.4.2.4.4s-.2.4-.6.5c-.6.1-1.3.2-1.9.2-1.5 0-2-.2-2-.8 0-.2 0-.5 0-1.6 0-.2 0-.4 0-.5 1.2.1 1.3.2 1.3.3s-.1.2-.3.3v1c0 .3.2.4 1.1.4.3 0 .7 0 1-.1s.4-.4.7-1.2c0-.1.1 0 .1 0zm-1.6-.1c-.3 0-.3 0-.5-.7-.1-.3-.3-.6-.5-.9v-.1c1 .2 1.5.5 1.5 1 .1.4-.2.7-.5.7zm3.3 1c-.3 0-.4-.1-.5-.7-.1-.5-.3-.9-.6-1.3v-.1c1.2.4 1.7.8 1.7 1.4 0 .4-.3.7-.6.7z" fill="#333"/><path clip-path="url(#am)" d="m58.9 99.1c0 .3-.3.4-.7.4s-.5-.1-.5-.4c0-1.1.1-2.2.1-6.5 0-1.2 0-2.5-.1-3.8l1.4.7h6.8c.4-.5.5-.6.6-.6s.2.1.7.4c.2.2.3.3.3.4s-.1.2-.3.4v1.3 6.8s-.2.9-.6 1.1c-.3.1-.5.2-.8.2-.2 0-.2-.1-.3-.3-.1-.4-.3-.7-1.4-1-.1 0 0-.1 0-.1h1.6c.2 0 .2 0 .2-.2v-3.9h-7zm2.8-5.4v-3.9h-2.8v3.9zm4.2-3.9h-3v3.9h3z" fill="#333"/><path clip-path="url(#an)" d="m70.3 88.4c1 .7 1.8 1.6 2.4 2.6 1.2 1.9 1.2 4.3 0 6.3-.6 1-1.4 1.9-2.4 2.6-.1.1-.1.1-.2.1s-.1 0-.1-.1 0-.1.1-.2c3.1-2.7 3.4-7.4.7-10.5-.2-.2-.4-.5-.7-.7 0-.1-.1-.1-.1-.1s.1-.1.3 0c0-.1-.1 0 0 0z" fill="#333"/><path clip-path="url(#ao)" d="m81.2 129.3h319.3" fill="none" stroke="#ccc" stroke-miterlimit="10"/><path clip-path="url(#ap)" d="m39.1 131.4c1.2 0 1.5-.1 1.7-.3.3-.3.6-.7.8-1.1.1-.1.1-.1.2-.1s.2.1.1.2c-.2.7-.5 2-.8 2.7-1 0-1.7 0-2.7 0s-1.8 0-2.8 0c-.2 0-.2 0-.2-.2 0-.1 0-.3.1-.4.7-1.3 1.5-2.5 2.5-3.6 1.2-1.5 1.9-2.3 1.9-3.6 0-1.2-.4-2-1.2-2-.5 0-1 .3-1.2.8-.1.3-.1.7-.1 1 0 .4-.5.7-1 .7s-.7-.1-.7-.5c.3-1.4 1.5-2.4 3-2.4 1.9 0 2.9 1.1 2.9 2.5 0 1.8-1.3 2.5-2.7 3.8-.9.7-1.7 1.6-2.3 2.6z" fill="#333"/><path clip-path="url(#aq)" d="m44.8 134.6c-.1 0-.2 0-.2-.1s-.1-.2 0-.3c.6-.4.9-.8.9-1.2 0-.2-.2-.4-.4-.4s-.5-.2-.5-.5c-.1-.5.2-1.1.7-1.2s1.1.2 1.2.7v.6c-.1.6-.3 1.4-1.7 2.4z" fill="#333"/><path clip-path="url(#ar)" d="m51 127.8c.4-.7 1.1-1.2 1.9-1.1 1.8 0 2.7 1.3 2.7 3.1.1 1.7-1.1 3.1-2.7 3.2-.1 0-.2 0-.3 0-1.9 0-3.2-1.5-3.2-3.9 0-2.1 1.1-4.1 2.8-5.3.7-.5 1.5-1 2.3-1.3.1 0 .2 0 .4.3s.1.4 0 .4c-.7 0-1.5.3-2.1.7-1.1.9-1.7 2.3-1.8 3.9zm.1.5c-.1.3-.2.6-.2.9 0 2.2.6 3.4 1.6 3.4s1.4-1.2 1.4-2.8c0-1.4-.4-2.6-1.5-2.6-.5 0-.9.4-1.3 1.1z" fill="#333"/><path clip-path="url(#as)" d="m64.3 127.7c0 3.2-1.2 5.2-3.1 5.2s-3.2-1.9-3.2-5.2 1.2-5.3 3.1-5.3 3.2 2.2 3.2 5.3zm-4.6 0c0 2.9.3 4.8 1.5 4.8s1.5-1.9 1.5-4.8-.3-4.7-1.5-4.7-1.5 1.9-1.5 4.7z" fill="#333"/><path clip-path="url(#at)" d="m73 127.7c0 3.3-1.2 5.3-3.1 5.3s-3.1-1.9-3.1-5.2 1.2-5.3 3.1-5.3 3.1 2.1 3.1 5.2zm-4.6 0c0 2.9.3 4.8 1.5 4.8s1.5-1.9 1.5-4.8-.3-4.7-1.5-4.7-1.5 1.9-1.5 4.7z" fill="#333"/><path clip-path="url(#au)" d="m81.2 206.6h319.3" fill="none" stroke="#ccc" stroke-miterlimit="10"/><path clip-path="url(#av)" d="m36.7 201.5c-.1 0-.2 0-.2-.1s0-.2.1-.2c.8-.3 2-.8 3-1.3.1 0 .2.1.2.2v3.1 4.4c0 1.4 0 1.6.2 1.9s.6.3 1.2.4c.1 0 .1.1.1.2s0 .2-.1.2c-.6 0-1.4 0-2.1 0s-1.5 0-2.1 0c-.1 0-.1 0-.1-.2s0-.2.1-.2c.6 0 1 0 1.2-.4.1-.6.2-1.2.1-1.9v-5c0-.4 0-.7-.1-1.1-.1-.1-.4-.2-.8 0z" fill="#333"/><path clip-path="url(#aw)" d="m44.8 211.9c-.1.1-.2.1-.2-.1s-.1-.2 0-.3c.6-.4.9-.8.9-1.2 0-.2-.2-.4-.4-.4s-.5-.2-.5-.6c0-.5.5-1 1-1 .5.1.9.6.9 1.1-.1.7-.3 1.6-1.7 2.5z" fill="#333"/><path clip-path="url(#ax)" d="m52.9 204.7c1.7.3 2.6 1.2 2.6 2.6.1 1.6-1.2 3-2.8 3-.1 0-.3 0-.4 0-.7 0-1.4-.2-2.1-.5-.4-.3-.9-.7-.9-1.2s.4-.6 1-.6.7.7.9 1.1c.1.5.6.8 1.1.8 1 0 1.5-1 1.5-2.6 0-1-.4-2.4-1.8-2.3h-.6c-.1 0-.2 0-.1-.3s.1-.3.3-.3.4 0 .5 0c.8 0 1.6-.6 1.6-2.2 0-1.1-.4-2-1.2-2-.4 0-.9.2-1 .6-.1.2-.1.5-.1.7 0 .5-.5.7-1 .7-.4 0-.7-.1-.7-.4 0-.8 1.1-2 2.9-2 1.6 0 2.8.9 2.8 2.4s-1.1 2.1-2.2 2.3z" fill="#333"/><path clip-path="url(#ay)" d="m64.3 205.1c0 3.2-1.2 5.2-3.1 5.2s-3.2-1.9-3.2-5.2 1.2-5.3 3.1-5.3 3.2 2.1 3.2 5.3zm-4.6 0c0 2.9.3 4.8 1.5 4.8s1.5-1.9 1.5-4.8-.3-4.8-1.5-4.8-1.5 1.9-1.5 4.8z" fill="#333"/><path clip-path="url(#az)" d="m73 205.1c0 3.2-1.2 5.2-3.1 5.2s-3.1-1.9-3.1-5.2 1.2-5.3 3.1-5.3 3.1 2.1 3.1 5.3zm-4.6 0c0 2.9.3 4.8 1.5 4.8s1.5-1.9 1.5-4.8-.3-4.8-1.5-4.8-1.5 1.9-1.5 4.8z" fill="#333"/><path clip-path="url(#aA)" d="m170.3 304.4c1.2 0 1.5-.1 1.7-.3.3-.3.6-.7.8-1.1 0-.1.1-.1.2-.1s.1.1.1.2c-.2.7-.5 2-.8 2.7-1 0-1.7 0-2.7 0s-1.9 0-2.8 0c-.1 0-.2 0-.2-.2 0-.1 0-.3.1-.4.7-1.3 1.5-2.5 2.4-3.6 1.2-1.5 1.9-2.3 1.9-3.6s-.4-2-1.2-2c-.5 0-1 .3-1.2.8-.1.3-.1.7-.1 1 0 .4-.5.7-1.1.7s-.7-.1-.7-.5c.3-1.4 1.5-2.4 3-2.4 1.9 0 2.9 1.1 2.9 2.5 0 1.8-1.3 2.5-2.7 3.8-.9.7-1.7 1.6-2.3 2.6z" fill="#333"/><path clip-path="url(#aB)" d="m181.8 300.7c0 3.2-1.2 5.2-3.1 5.2s-3.1-1.9-3.1-5.2 1.1-5.3 3.1-5.3 3.1 2.1 3.1 5.3zm-4.6 0c0 2.9.3 4.8 1.5 4.8s1.5-1.9 1.5-4.8-.3-4.8-1.5-4.8-1.5 2-1.5 4.8z" fill="#333"/><path clip-path="url(#aC)" d="m185.3 297.1c-.1 0-.2 0-.2-.1s-.1-.2.1-.2c.8-.3 2-.8 3-1.3.1 0 .2.1.2.2 0 1.1-.1 2-.1 3.1v4.4c0 1.4 0 1.6.2 1.9s.6.3 1.2.4c.1 0 .1.1.1.2s0 .2-.1.2c-.6 0-1.4 0-2.1 0s-1.5 0-2.1 0c-.1 0-.1 0-.1-.2s0-.2.1-.2c.6 0 1.1 0 1.2-.4.1-.6.2-1.2.1-1.9v-5c0-.4 0-.7-.1-1.1-.1-.1-.4-.2-.8 0z" fill="#333"/><path clip-path="url(#aD)" d="m199.2 303.1c-.1 1.7-1.6 3-3.4 2.9-1.5-.1-2.7-1.3-2.9-2.8 0-1.2.8-1.9 2.2-2.6-1.2-.4-1.9-1.5-1.9-2.7.1-1.4 1.4-2.5 2.9-2.4 1.6 0 2.8 1 2.8 2.2 0 1.1-.6 1.6-1.8 2.2 1.3.5 2.1 1.8 2.1 3.2zm-4.8.1c0 1.4.7 2.3 1.7 2.3s1.7-.9 1.7-2.2c0-1-.6-1.6-2.3-2.4-.8.5-1.2 1.4-1.1 2.3zm3.1-5.4c0-1.1-.6-1.8-1.4-1.8-.9 0-1.5.7-1.5 1.6v.2c0 .8.3 1.3 2.1 2.1.6-.6.9-1.3.8-2.1z" fill="#333"/><path clip-path="url(#aE)" d="m211.8 302.8c.8-.9.9-1 1-1s.3.1 1 .7c.3.3.4.4.4.5s0 .1-.2.1h-4.9v3.5c0 .4-.3.6-.8.6-.4 0-.6-.1-.6-.5s.1-1.4.1-3.6h-4.8c-.3 0-.7 0-1 .1l-.1-.5c.4.1.8.1 1.1.1h1.2v-1.9c0-.7 0-1.4-.1-2.1.5.2 1 .4 1.5.7h2.3v-2.6h-2.6c-.8 1.3-1.9 2.3-3.1 3.1-.1 0-.2-.1-.1-.1 1.1-1.2 1.9-2.5 2.4-4 .2-.5.4-1.1.4-1.6 1.5.4 1.9.6 1.9.8s-.2.2-.6.3c-.2.4-.4.8-.6 1.2h5.9c.7-.9.9-1 1-1s.3.1 1 .7c.3.3.4.4.4.5s0 .1-.2.1h-4.4v2.6h1.7c.7-.8.8-.9.9-.9s.3.1 1 .6c.3.2.4.4.4.5s0 .1-.2.1h-3.7v.5 2.5zm-3.9-3h-2.4v3h2.4z" fill="#333"/><path clip-path="url(#aF)" d="m221.6 298.2v-.3c0-.4 0-.8-.1-1.2 1.5.1 1.6.2 1.6.4s-.1.2-.3.3v.8h2.4v-.5c0-.4 0-.6 0-1 1.3.1 1.6.2 1.6.4s-.1.2-.4.3v.8h.9c.6-.7.7-.8.8-.8s.3.1.9.6c.3.2.4.3.4.4s0 .1-.2.1h-2.8v2.2s-.2.5-.7.5-.5-.1-.5-.5v-.1h-2.4v.1c0 .4-.2.5-.7.5s-.5-.1-.5-.5 0-1 0-2.3h-2c0 1.5-.2 3-.5 4.5-.4 1.5-1.1 2.8-2 4 0 0-.2 0-.1-.1.6-1.5.9-3.1 1.1-4.6.1-1.2.2-2.5.2-4 0-1.1 0-2-.1-3 .6.2 1.1.4 1.6.7h3.5v-.9c0-.3 0-.6-.1-.8 1.7.2 1.9.3 1.9.5s-.2.3-.5.4v.8h3.1c.6-.8.8-.9.9-.9s.3.1.9.6c.3.2.4.4.4.5s0 .1-.2.1h-10v1.2.7zm4.4 3.9c.6-.6.7-.7.8-.7s.2.1.8.6c.3.2.4.4.4.5s-.2.3-.7.4c-.5.7-1.2 1.4-1.9 2 1.5.5 3.1.8 4.7.9.1 0 .1.1 0 .1-.5.2-.7.4-.9 1-.1.2-.1.2-.3.2-.3 0-.6-.1-.9-.2-1.2-.3-2.3-.7-3.4-1.4l-.2-.1c-1.8 1-3.7 1.5-5.8 1.7-.1 0-.1-.2-.1-.2 1.8-.4 3.4-1.1 4.9-2.1-.7-.7-1.3-1.5-1.8-2.4h-.8c-.3 0-.6 0-.8.1l-.1-.5c.3.1.7.1 1 .1zm-3.9.3c.6.8 1.3 1.4 2.1 1.9.7-.6 1.3-1.2 1.8-1.9zm3.2-2.1v-1.8h-2.4v1.8z" fill="#333"/><path clip-path="url(#aG)" d="m84.8 304.4c1.2 0 1.4-.1 1.7-.3.3-.3.6-.7.8-1.1.1-.1.1-.1.2-.1s.2.1.1.2c-.2.7-.5 2-.8 2.7-1 0-1.7 0-2.7 0s-1.8 0-2.8 0c-.1 0-.2 0-.2-.2 0-.1 0-.3.1-.4.7-1.3 1.5-2.5 2.4-3.6 1.2-1.5 1.9-2.3 1.9-3.5s-.4-2-1.2-2c-.5 0-1 .3-1.2.8-.1.3-.1.7-.1 1 0 .4-.5.7-1 .7s-.7-.1-.7-.5c.3-1.4 1.5-2.4 3-2.4 1.9 0 2.9 1.1 2.9 2.5 0 1.8-1.3 2.5-2.7 3.8-.9.7-1.7 1.6-2.3 2.6z" fill="#333"/><path clip-path="url(#aH)" d="m96.3 300.7c0 3.2-1.2 5.2-3.1 5.2s-3.2-1.9-3.2-5.2 1.2-5.3 3.1-5.3 3.2 2.1 3.2 5.3zm-4.6 0c0 2.9.3 4.8 1.5 4.8s1.5-1.9 1.5-4.8-.3-4.7-1.5-4.7-1.5 1.9-1.5 4.7z" fill="#333"/><path clip-path="url(#aI)" d="m99.8 297.1c-.1 0-.2 0-.2-.1s0-.2.1-.2c.8-.3 2-.8 3-1.3.1 0 .2.1.2.2 0 1.1-.1 2-.1 3.1v4.4c0 1.4 0 1.6.2 1.9s.6.3 1.2.4c.1 0 .1.1.1.2s0 .2-.1.2c-.7 0-1.4 0-2.1 0s-1.5 0-2.1 0c-.1 0-.1 0-.1-.2s0-.2.1-.2c.6 0 1 0 1.2-.4.1-.6.2-1.2.1-1.9v-5c0-.4 0-.7-.1-1.1-.1-.1-.4-.2-.8 0z" fill="#333"/><path clip-path="url(#aJ)" d="m109.6 297.1c-.8 0-1 .1-1.2.3-.2.3-.4.6-.5.9 0 .1-.1.1-.2.1s-.2-.1-.2-.1c.1-.7.3-1.8.4-2.6h2.8s1.8 0 2.7 0c.1 0 .1 0 .1.3 0 .1 0 .3-.1.4-1.1 1.9-2 3.9-2.4 6.1-.1.6-.2 1.2-.2 1.9v.9s-.5.8-1.1.8-.9-.2-.9-.6c.1-1.2.4-2.5 1-3.5.8-1.6 1.7-3.2 2.7-4.7z" fill="#333"/><path clip-path="url(#aK)" d="m126.3 302.8c.8-.9.9-1 1-1s.3.1 1 .7c.3.3.4.4.4.5s0 .1-.2.1h-4.9v3.5c0 .4-.3.6-.8.6-.4 0-.6-.1-.6-.5s.1-1.4.1-3.6h-4.9c-.3 0-.7 0-1 .1l-.2-.5c.4.1.8.1 1.2.1h1.2v-1.9c0-.7 0-1.4-.1-2.1.5.2 1 .4 1.5.7h2.3v-2.6h-2.6c-.8 1.3-1.9 2.3-3.2 3.1-.1 0-.2-.1-.2-.1 1.1-1.2 1.9-2.5 2.4-4 .2-.5.4-1.1.4-1.6 1.5.4 1.9.6 1.9.8s-.2.2-.6.3c-.2.4-.4.8-.7 1.2h5.9c.7-.9.9-1 1-1s.3.1 1 .7c.3.3.4.4.4.5s-.1.1-.2.1h-4.4v2.6h1.7c.7-.8.8-.9.9-.9s.3.1 1 .6c.3.2.4.4.4.5s0 .1-.2.1h-3.7v.5 2.5zm-3.9-3h-2.4v3h2.4z" fill="#333"/><path clip-path="url(#aL)" d="m136.1 298.2v-.3c0-.4 0-.8-.1-1.2 1.5.1 1.6.2 1.6.4s-.1.2-.3.3v.8h2.4v-.5c0-.4 0-.6 0-1 1.3.1 1.6.2 1.6.4s-.1.2-.4.3v.8h.9c.6-.7.7-.8.8-.8s.3.1.9.6c.3.2.4.3.4.4s0 .1-.2.1h-2.8v2.2s-.2.5-.7.5-.5-.1-.5-.5v-.1h-2.4v.1c0 .4-.2.5-.7.5s-.5-.1-.5-.5 0-1 0-2.3h-2c0 1.5-.2 3-.5 4.5-.4 1.5-1.1 2.8-2 4 0 0-.2 0-.1-.1.5-1.5.9-3.1 1-4.6.1-1.2.2-2.5.2-4 0-1.1 0-2-.1-3 .6.2 1.1.4 1.6.7h3.5v-.9c0-.3 0-.6-.1-.8 1.7.2 1.9.3 1.9.5s-.2.3-.5.4v.8h3.1c.6-.8.8-.9.9-.9s.3.1 1 .6c.3.2.4.4.4.5s0 .1-.2.1h-10v1.2.7zm4.4 3.9c.6-.6.7-.7.8-.7s.2.1.8.6c.3.2.4.4.4.5s-.2.3-.7.4c-.5.7-1.2 1.4-1.9 2 1.5.5 3.1.8 4.7.9.1 0 .1.1 0 .1-.5.2-.7.4-.9 1-.1.2-.1.2-.3.2-.3 0-.6-.1-.9-.2-1.2-.3-2.3-.7-3.4-1.4-.1 0-.2-.1-.2-.1-1.8 1-3.7 1.5-5.8 1.7-.1 0-.1-.2-.1-.2 1.8-.4 3.4-1.1 4.9-2.1-.7-.7-1.3-1.5-1.8-2.4h-.8c-.3 0-.6 0-.8.1l-.1-.5c.3.1.7.1 1 .1zm-3.9.3c.6.8 1.3 1.4 2.1 1.9.7-.6 1.3-1.2 1.8-1.9zm3.2-2.1v-1.8h-2.4v1.8z" fill="#333"/><path clip-path="url(#aM)" d="m255.8 304.4c1.2 0 1.5-.1 1.7-.3.3-.3.6-.7.8-1.1 0-.1.1-.1.2-.1s.1.1.1.2c-.2.7-.5 2-.8 2.7-1 0-1.7 0-2.7 0s-1.9 0-2.8 0c-.1 0-.2 0-.2-.2 0-.1 0-.3.1-.4.7-1.3 1.5-2.5 2.4-3.6 1.2-1.5 1.9-2.3 1.9-3.6s-.4-2-1.2-2c-.5 0-1 .3-1.2.8-.1.3-.1.7-.1 1 0 .4-.5.7-1 .7s-.7-.1-.7-.5c.3-1.4 1.5-2.4 3-2.4 1.9 0 2.9 1.1 2.9 2.5 0 1.8-1.3 2.5-2.7 3.8-.9.7-1.7 1.6-2.3 2.6z" fill="#333"/><path clip-path="url(#aN)" d="m267.2 300.7c0 3.2-1.2 5.2-3.1 5.2s-3.1-1.9-3.1-5.2 1.1-5.3 3.1-5.3 3.1 2.1 3.1 5.3zm-4.6 0c0 2.9.3 4.8 1.5 4.8s1.5-1.9 1.5-4.8-.3-4.8-1.5-4.8-1.5 2-1.5 4.8z" fill="#333"/><path clip-path="url(#aO)" d="m270.8 297.1c-.1 0-.2 0-.2-.1s0-.2.1-.2c.8-.3 2-.8 3-1.3.1 0 .2.1.2.2 0 1.1-.1 2-.1 3.1v4.4c0 1.4 0 1.6.2 1.9s.6.3 1.2.4c.1 0 .1.1.1.2s0 .2-.1.2c-.6 0-1.4 0-2.1 0s-1.5 0-2.1 0c-.1 0-.1 0-.1-.2s0-.2.1-.2c.6 0 1 0 1.2-.4.1-.6.2-1.2.1-1.9v-5c0-.4 0-.7-.1-1.1-.1-.1-.4-.2-.8 0z" fill="#333"/><path clip-path="url(#aP)" d="m283 300.8c-.4.6-1.1 1-1.9 1-1.5 0-2.7-1.2-2.8-2.7 0-.1 0-.2 0-.3-.1-1.7 1.1-3.1 2.7-3.2h.4c2 0 3.2 1.6 3.2 4 .1 2.2-.9 4.3-2.8 5.5-.7.5-1.5.8-2.3 1-.1 0-.2-.1-.3-.3s-.1-.4.1-.4c.7 0 1.3-.2 1.9-.5 1.2-.7 1.7-2 1.8-4.1zm-3-2.1c0 1.4.5 2.6 1.4 2.6.6 0 1-.4 1.4-1.2.1-.3.2-.6.1-.9 0-1.9-.5-3.2-1.6-3.2s-1.3 1.2-1.3 2.7z" fill="#333"/><path clip-path="url(#aQ)" d="m297.3 302.8c.8-.9.9-1 1-1s.3.1 1 .7c.3.3.4.4.4.5s0 .1-.2.1h-4.9v3.5c0 .4-.3.6-.8.6s-.6-.1-.6-.5.1-1.4.1-3.6h-4.9c-.3 0-.7 0-1 .1l-.1-.5c.4.1.8.1 1.1.1h1.2v-1.9c0-.7 0-1.4-.1-2.1.5.2 1 .4 1.5.7h2.3v-2.6h-2.6c-.8 1.3-1.9 2.3-3.1 3.1-.1 0-.2-.1-.1-.1 1.1-1.2 1.9-2.5 2.4-4 .2-.5.4-1.1.5-1.6 1.5.4 1.9.6 1.9.8s-.2.2-.6.3c-.2.4-.4.8-.6 1.2h5.9c.7-.9.9-1 1-1s.3.1 1 .7c.3.3.4.4.4.5s0 .1-.2.1h-4.4v2.6h1.7c.7-.8.8-.9.9-.9s.3.1 1 .6c.3.2.4.4.4.5s0 .1-.2.1h-3.7v.5 2.5zm-3.9-3h-2.4v3h2.4z" fill="#333"/><path clip-path="url(#aR)" d="m307.1 298.2v-.3c0-.4 0-.8-.1-1.2 1.5.1 1.6.2 1.6.4s-.1.2-.3.3v.8h2.5v-.5c0-.4 0-.6 0-1 1.3.1 1.6.2 1.6.4s-.1.2-.4.3v.8h.9c.6-.7.7-.8.8-.8s.3.1.9.6c.3.2.4.3.4.4s0 .1-.2.1h-2.8v2.2s-.2.5-.7.5-.5-.1-.5-.5v-.1h-2.5v.1c0 .4-.2.5-.7.5s-.5-.1-.5-.5 0-1 0-2.3h-2c0 1.5-.2 3-.5 4.5-.4 1.5-1.1 2.8-2 4 0 0-.2 0-.1-.1.5-1.5.9-3.1 1-4.6.1-1.2.2-2.5.2-4 0-1.1 0-2-.1-3 .6.2 1.1.4 1.6.7h3.5v-.9c0-.3 0-.6-.1-.8 1.7.2 1.9.3 1.9.5s-.2.3-.5.4v.8h3c.6-.8.8-.9.9-.9s.3.1 1 .6c.3.2.4.4.4.5s0 .1-.2.1h-10v1.2.7zm4.3 3.9c.6-.6.7-.7.8-.7s.2.1.8.6c.3.2.4.4.4.5s-.2.3-.7.4c-.5.7-1.2 1.4-1.9 2 1.5.5 3.1.8 4.7.9.1 0 0 .1 0 .1-.5.2-.7.4-.9 1-.1.2-.1.2-.3.2-.3 0-.6-.1-.9-.2-1.2-.3-2.3-.7-3.4-1.4l-.2-.1c-1.8 1-3.7 1.5-5.8 1.7-.1 0-.1-.2-.1-.2 1.8-.4 3.4-1.1 4.9-2.1-.7-.7-1.3-1.5-1.8-2.4h-.8c-.3 0-.6 0-.8.1l-.2-.5c.3.1.7.1 1 .1zm-3.8.3c.6.8 1.3 1.4 2.1 1.9.7-.6 1.3-1.2 1.8-1.9zm3.2-2.1v-1.8h-2.5v1.8z" fill="#333"/><path clip-path="url(#aS)" d="m341.2 304.4c1.2 0 1.5-.1 1.7-.3.3-.3.6-.7.8-1.1 0-.1.1-.1.2-.1s.2.1.1.2c-.2.7-.5 2-.8 2.7-1 0-1.7 0-2.7 0s-1.9 0-2.8 0c-.1 0-.2 0-.2-.2 0-.1 0-.3.1-.4.7-1.3 1.5-2.5 2.5-3.6 1.2-1.5 1.9-2.3 1.9-3.6s-.4-2-1.2-2c-.5 0-1 .3-1.2.8-.1.3-.1.7-.1 1 0 .4-.5.7-1 .7s-.7-.1-.7-.5c.3-1.4 1.5-2.4 3-2.4 1.9 0 2.9 1.1 2.9 2.5 0 1.8-1.3 2.5-2.7 3.8-.9.7-1.7 1.6-2.3 2.6z" fill="#333"/><path clip-path="url(#aT)" d="m352.7 300.7c0 3.2-1.2 5.2-3.1 5.2s-3.1-1.9-3.1-5.2 1.1-5.3 3.1-5.3 3.1 2.1 3.1 5.3zm-4.6 0c0 2.9.3 4.8 1.5 4.8s1.5-1.9 1.5-4.8-.3-4.8-1.5-4.8-1.5 2-1.5 4.8z" fill="#333"/><path clip-path="url(#aU)" d="m358.7 304.4c1.2 0 1.5-.1 1.7-.3.3-.3.6-.7.8-1.1.1-.1.1-.1.2-.1s.1.1.1.2c-.2.7-.5 2-.8 2.7-1 0-1.7 0-2.7 0s-1.9 0-2.8 0c-.1 0-.2 0-.2-.2 0-.1 0-.3.1-.4.7-1.3 1.5-2.5 2.5-3.6 1.2-1.5 1.9-2.3 1.9-3.6s-.4-2-1.2-2c-.5 0-1 .3-1.2.8-.1.3-.1.7-.1 1 0 .4-.5.7-1 .7s-.7-.1-.7-.5c.3-1.4 1.5-2.4 3-2.4 1.9 0 2.9 1.1 2.9 2.5 0 1.8-1.3 2.5-2.7 3.8-.9.7-1.7 1.6-2.3 2.6z" fill="#333"/><path clip-path="url(#aV)" d="m370.1 300.7c0 3.3-1.1 5.3-3.1 5.3s-3.1-1.9-3.1-5.2 1.1-5.3 3.1-5.3 3.1 2 3.1 5.2zm-4.6 0c0 2.9.3 4.8 1.5 4.8s1.5-1.9 1.5-4.8-.3-4.7-1.5-4.7-1.5 1.9-1.5 4.7z" fill="#333"/><path clip-path="url(#aW)" d="m382.8 302.8c.8-.9.9-1 1-1s.3.1 1 .7c.3.3.5.4.5.5s0 .1-.2.1h-4.8v3.5c0 .4-.3.6-.8.6-.4 0-.6-.1-.6-.5s.1-1.4.1-3.6h-4.9c-.3 0-.7 0-1 .1l-.1-.5c.4.1.8.1 1.1.1h1.2v-1.9c0-.7 0-1.4-.1-2.1.5.2 1 .4 1.5.7h2.3v-2.6h-2.6c-.8 1.3-1.9 2.3-3.1 3.1-.1 0-.2-.1-.1-.1 1.1-1.2 1.9-2.5 2.4-4 .2-.5.4-1.1.5-1.6 1.5.4 1.9.6 1.9.8s-.2.2-.6.3c-.2.4-.4.8-.6 1.2h5.9c.7-.9.9-1 1-1s.3.1 1 .7c.3.3.4.4.4.5s0 .1-.2.1h-4.4v2.6h1.7c.7-.8.8-.9.9-.9s.3.1 1 .6c.3.2.4.4.4.5s0 .1-.2.1h-3.7v.5 2.5zm-4-3h-2.4v3h2.4z" fill="#333"/><path clip-path="url(#aX)" d="m392.6 298.2v-.3c0-.4 0-.8-.1-1.2 1.5.1 1.6.2 1.6.4s-.1.2-.3.3v.8h2.5v-.5c0-.4 0-.6 0-1 1.3.1 1.6.2 1.6.4s-.1.2-.4.3v.8h.9c.6-.7.7-.8.8-.8s.3.1.9.6c.3.2.4.3.4.4s0 .1-.2.1h-2.8v2.2s-.2.5-.7.5-.5-.1-.5-.5v-.1h-2.5v.1c0 .4-.2.5-.7.5s-.5-.1-.5-.5 0-1 0-2.3h-2c0 1.5-.2 3-.5 4.5-.4 1.5-1.1 2.8-2 4 0 0-.2 0-.1-.1.6-1.5.9-3.1 1-4.6.1-1.2.2-2.5.2-4 0-1.1 0-2-.1-3 .6.2 1.1.4 1.6.7h3.5v-.9c0-.3 0-.6-.1-.8 1.7.2 1.9.3 1.9.5s-.2.3-.5.4v.8h3c.6-.8.8-.9.9-.9s.3.1 1 .6c.3.2.4.4.4.5s0 .1-.2.1h-10v1.2.7zm4.3 3.9c.6-.6.7-.7.8-.7s.2.1.8.6c.3.2.4.4.4.5s-.2.3-.7.4c-.5.7-1.2 1.4-1.9 2 1.5.5 3.1.8 4.7.9.1 0 0 .1 0 .1-.5.2-.7.4-.9 1-.1.2-.1.2-.3.2-.3 0-.6-.1-.8-.2-1.2-.3-2.3-.7-3.4-1.4l-.2-.1c-1.8 1-3.7 1.5-5.8 1.7-.1 0-.1-.2-.1-.2 1.8-.4 3.4-1.1 4.9-2.1-.7-.7-1.3-1.5-1.8-2.4h-.8c-.3 0-.6 0-.8.1l-.2-.5c.3.1.7.1 1 .1zm-3.9.3c.6.8 1.3 1.4 2.1 1.9.7-.6 1.3-1.2 1.8-1.9zm3.3-2.1v-1.8h-2.5v1.8z" fill="#333"/><path clip-path="url(#aY)" d="m87 158.4h57.5v23.4h-57.5z" fill="#fff"/><path clip-path="url(#aZ)" d="m166.9 153h67.6v25.2h-67.6z" fill="#fff"/><path clip-path="url(#a0)" d="m250.9 119.5h72.7v33.6h-72.7z" fill="#fff"/><path clip-path="url(#a1)" d="m92.3 177.4v-.2h.4c.6 0 1.1-.5 1.1-1.1v-10.1c0-.4-.1-.8-.4-1.1-.3-.2-.6-.3-1-.3h-.4v-.2c.3 0 .7-.1 1.1-.1s1-.1 1.5-.2 1.1-.2 1.6-.4c.5-.1.9-.3 1.3-.6h.5v13c0 .3.1.6.3.8s.5.3.8.3h.4v.2z" fill="#4aa064"/><path clip-path="url(#a2)" d="m101.4 174.4c.3-.2.6-.3 1-.3s.7.1 1.1.3c.3.2.6.5.8.9.3.6.4 1.2.3 1.8s-.3 1.2-.6 1.6c-.3.5-.8.9-1.3 1.1-.5.3-1.1.3-1.7.2l-.1-.3c.3-.1.5-.3.6-.5.2-.3.3-.6.3-.9 0-.4-.2-.8-.6-1.1-.2-.3-.4-.6-.4-1-.1-.3 0-.7.1-1s.3-.6.5-.8z" fill="#4aa064"/><path clip-path="url(#a3)" d="m116.4 162.7.1.1c-1.2.3-2.3.8-3.3 1.5-.7.5-1.3 1.1-1.8 1.9-.4.7-.6 1.5-.7 2.4-.1 1-.1 2-.1 3 0 1.1 0 2 .1 2.8 0 .6.1 1.1.4 1.7.2.4.6.6 1 .6s.8-.2 1.1-.5c.3-.4.5-.8.5-1.3.1-.6.1-1.1.1-1.7s0-1.2-.1-1.8c-.1-.3-.2-.7-.3-.9-.3-.4-.8-.6-1.4-.5-.2.1-.5.2-.7.3l-.2-.2c.2-.4.5-.8.9-1 .4-.3.9-.4 1.4-.5s1.1-.1 1.6.1c.5.1 1 .4 1.5.7.5.4.8.9 1.1 1.4.3.7.4 1.5.4 2.2 0 .9-.2 1.7-.7 2.4-.4.8-1.1 1.4-1.9 1.8-1 .5-2.1.7-3.2.7-1.1.1-2.3-.2-3.3-.7-.9-.5-1.6-1.2-2.1-2.2-.5-1.2-.7-2.5-.7-3.8s.2-2.6.6-3.8c.4-1.1 1.1-2.1 1.9-2.8.9-.8 2.1-1.3 3.2-1.6 1.6-.4 3.1-.5 4.6-.3z" fill="#4aa064"/><path clip-path="url(#a4)" d="m119.5 177.4v-.2h.5c.6 0 1.1-.5 1.1-1.1v-10.1c0-.4-.1-.8-.4-1.1-.3-.2-.6-.3-1-.3h-.4v-.2c.3 0 .7-.1 1.1-.1s1-.1 1.5-.2 1.1-.2 1.6-.4c.5-.1.9-.3 1.3-.6h.2v13c0 .3.1.6.3.8s.5.3.8.3h.4v.2z" fill="#4aa064"/><path clip-path="url(#a5)" d="m129.6 178.2-.1-.1c1.2-.3 2.3-.8 3.4-1.5.7-.5 1.3-1.1 1.8-1.9.4-.7.6-1.5.7-2.4.1-1 .1-2 .1-3 0-1.1 0-2-.1-2.8 0-.6-.1-1.1-.4-1.7-.2-.4-.6-.6-1-.6s-.8.2-1.1.5c-.3.4-.5.8-.5 1.3-.1.6-.1 1.1-.1 1.7s0 1.2.1 1.8c.1.3.2.7.4.9.1.2.3.3.5.4.3.1.6.1.9.1.2-.1.4-.2.6-.3l.1.2c-.2.4-.5.8-.9 1-.4.3-.9.5-1.4.5-.5.1-1.1.1-1.6-.1-.5-.1-1-.4-1.5-.7-.5-.4-.8-.9-1.1-1.4-.3-.7-.4-1.4-.4-2.2 0-.9.2-1.7.7-2.4.4-.8 1.1-1.4 1.9-1.8 1-.5 2.1-.7 3.3-.7 1.7-.1 3.3.4 4.5 1.6 1.1 1.1 1.6 2.7 1.6 5 0 1.3-.2 2.6-.6 3.8-.4 1.1-1.1 2.1-1.9 2.8-.9.8-2 1.3-3.2 1.6-1.6.5-3.2.6-4.7.4z" fill="#4aa064"/><path clip-path="url(#a6)" d="m176 172.6v-.2h.4c.6 0 1.1-.5 1.1-1.1v-10.1c0-.4-.1-.8-.4-1.1-.3-.2-.6-.3-1-.3h-.4v-.2c.3 0 .7 0 1.1-.1s1-.1 1.5-.2 1.1-.2 1.6-.4c.5-.1.9-.3 1.3-.6h.2v13c0 .3.1.6.3.8s.5.3.8.3h.4v.2z" fill="#4aa064"/><path clip-path="url(#a7)" d="m185.1 169.6c.3-.2.6-.3 1-.3s.7.1 1.1.3c.3.2.6.5.8.9.3.6.4 1.2.3 1.8s-.3 1.2-.6 1.6c-.3.5-.8.9-1.3 1.1-.5.3-1.1.3-1.7.2l-.1-.3c.3-.1.5-.3.6-.5.2-.3.3-.6.3-.9 0-.4-.2-.8-.6-1.1-.2-.3-.4-.6-.4-.9-.1-.3 0-.7.1-1 0-.4.2-.7.5-.9z" fill="#4aa064"/><path clip-path="url(#a8)" d="m189.6 158.6h10.6l-2.6 5.9c-.2.4-.4.9-.6 1.4s-.4 1.1-.6 1.8-.4 1.2-.6 1.9l-.6 1.7c-.2.5-.3 1-.4 1.3h-3.4c.2-.4.5-.9.9-1.4s.7-1.2 1-1.8.7-1.3 1.1-1.9.7-1.2.9-1.8.5-1 .7-1.4l1-2.2h-6.4c-.3 0-.7.1-.9.3-.3.2-.5.6-.6.9h-.1z" fill="#4aa064"/><path clip-path="url(#a9)" d="m210.4 158.3.2 1.5-7.1 6.9h8c.3 0 .6-.1.8-.2.2-.2.4-.4.5-.6h.2l-.6 2.9h-12.4v-.2zm.2 13c0 .3.1.6.3.8s.5.3.8.3h.2v.2h-6.8v-.2h.2c.3 0 .6-.1.8-.3s.3-.5.3-.8zm-4.1-8.7 3.9-4.3h.2v14.3h-4.1z" fill="#4aa064"/><path clip-path="url(#ba)" d="m215.5 173.3-.1-.1c1.2-.3 2.3-.8 3.4-1.5.7-.5 1.3-1.1 1.8-1.9.4-.7.6-1.5.7-2.4.1-1 .1-2 .1-3 0-1.1 0-2-.1-2.8 0-.6-.1-1.1-.4-1.7-.2-.4-.6-.6-1.1-.6-.4 0-.8.2-1.1.5-.3.4-.5.8-.5 1.3-.1.6-.1 1.1-.1 1.7s0 1.2.1 1.8c0 .4.2.7.4 1 .1.2.3.3.5.4.3.1.6.1.9.1.2-.1.4-.2.6-.3l.1.2c-.2.4-.5.8-.9 1-.4.3-.9.5-1.4.5-.5.1-1.1.1-1.6-.1-.5-.1-1-.4-1.5-.7-.5-.4-.8-.9-1.1-1.4-.3-.7-.4-1.4-.4-2.2 0-.9.2-1.7.7-2.4.4-.8 1.1-1.4 1.9-1.8 1-.5 2.1-.7 3.3-.7 1.7-.1 3.3.4 4.5 1.6 1 1.1 1.6 2.7 1.6 5 0 1.3-.2 2.6-.6 3.8-.4 1.1-1.1 2.1-1.9 2.8-.9.8-2 1.3-3.2 1.6-1.5.5-3.1.5-4.6.3z" fill="#4aa064"/><path clip-path="url(#bb)" d="m260.5 133.2-1.3-3.6c.4-.4.9-.7 1.5-.9s1.2-.4 1.8-.5 1.3-.2 2-.2c1 0 2 .2 2.9.5.8.3 1.5.8 2 1.4s.8 1.4.8 2.2c0 .6-.1 1.2-.4 1.8s-.6 1.1-1.1 1.6c-.4.5-.9.9-1.4 1.3s-1 .8-1.5 1.1l-1.4.9h3.8c.4 0 .7-.1 1.1-.2.3-.2.7-.4.9-.7.3-.4.6-.8.8-1.2h.2l-1.4 5.6h-10.4v-.2c.6-.7 1.2-1.4 1.8-2.1s1.2-1.4 1.8-2.1c.5-.7 1.1-1.4 1.5-2.1.4-.6.8-1.3 1.1-2.1.3-.6.4-1.3.4-2s-.2-1.4-.7-2c-.5-.5-1.2-.7-1.9-.6-.8 0-1.5.5-1.9 1.1-.5.9-.7 2-.6 3z" fill="#4aa064"/><path clip-path="url(#bc)" d="m273.1 139.3c.3-.2.6-.3 1-.3s.7.1 1.1.3c.3.2.6.5.8.9.3.6.4 1.2.3 1.8s-.3 1.2-.6 1.6c-.3.5-.8.9-1.3 1.1-.5.3-1.1.3-1.7.2l-.1-.3c.3-.1.5-.3.6-.5.2-.3.3-.6.3-.9 0-.4-.2-.8-.5-1.1-.2-.3-.4-.6-.5-1-.1-.3 0-.7.1-1 0-.3.2-.6.5-.8z" fill="#4aa064"/><path clip-path="url(#bd)" d="m282.5 128.1c.9 0 1.9.1 2.7.4.7.2 1.3.6 1.7 1.2.4.5.6 1.2.6 1.9 0 .5-.1 1-.3 1.4s-.5.7-.9 1c-.4.2-.8.4-1.2.5s-.8.1-1.2-.1c.4 0 .9.1 1.3.2.5.1.9.4 1.4.6.4.3.8.7 1.1 1.2.3.6.4 1.3.4 1.9 0 .9-.2 1.7-.6 2.5-.4.7-1 1.3-1.8 1.8s-1.6.8-2.5 1-1.9.2-2.8.2c-1-.1-1.9-.3-2.8-.7v-.2c.8 0 1.6-.1 2.3-.3s1.4-.5 2-.9 1-.9 1.3-1.5.5-1.3.5-2-.2-1.4-.6-1.9-.9-.8-1.4-1.1c-.5-.2-1.1-.3-1.7-.3v-.2c.6 0 1.2-.1 1.7-.4s.9-.7 1.2-1.2.4-1.1.3-1.8c0-.4-.2-.8-.4-1.2-.2-.3-.5-.5-.9-.6s-.7-.2-1.1-.1c-.7 0-1.4.4-1.7 1.1-.4.9-.5 1.9-.5 2.8h-.2l-1.1-3.5c.6-.5 1.3-.8 2.1-1 1.1-.6 2.1-.7 3.1-.7z" fill="#4aa064"/><path clip-path="url(#be)" d="m294.5 128.1c.9 0 1.9.1 2.7.4.7.2 1.3.6 1.7 1.2.4.5.6 1.2.6 1.9 0 .5-.1 1-.3 1.4s-.5.7-.9 1c-.4.2-.8.4-1.2.5s-.8.1-1.2-.1c.4 0 .9.1 1.3.2.5.1.9.4 1.4.6.4.3.8.7 1.1 1.2.3.6.4 1.3.4 1.9 0 .9-.2 1.7-.6 2.5-.4.7-1 1.3-1.8 1.8s-1.6.8-2.5 1-1.9.2-2.8.2c-1-.1-1.9-.3-2.8-.7v-.2c.8 0 1.6-.1 2.3-.3s1.4-.5 2-.9 1-.9 1.3-1.5.5-1.3.5-2-.2-1.4-.6-1.9-.9-.8-1.4-1.1c-.5-.2-1.1-.3-1.7-.3v-.2c.6 0 1.2-.1 1.7-.4s.9-.7 1.2-1.2.4-1.1.3-1.8c0-.4-.2-.8-.4-1.2-.2-.3-.5-.5-.9-.6s-.7-.2-1.1-.1c-.7 0-1.4.4-1.7 1.1-.4.9-.5 1.9-.5 2.8h-.2l-1.1-3.5c.6-.5 1.3-.8 2.1-1 1.1-.6 2.1-.7 3.1-.7z" fill="#4aa064"/><path clip-path="url(#bf)" d="m312.2 127.6.1.1c-1.2.3-2.3.8-3.4 1.5-.7.5-1.3 1.1-1.8 1.9-.4.7-.6 1.5-.7 2.4-.1 1-.1 2-.1 3 0 1.1 0 2 .1 2.8 0 .6.1 1.1.4 1.7.2.4.6.6 1 .6s.8-.2 1.1-.5c.3-.4.5-.8.5-1.3.1-.6.1-1.1.1-1.7s0-1.2-.1-1.8c-.1-.3-.2-.7-.4-.9-.1-.2-.3-.3-.5-.4-.3-.1-.6-.1-.8-.1-.2.1-.5.2-.7.3l-.2-.2c.2-.4.5-.8.9-1 .4-.3.9-.4 1.4-.5s1.1-.1 1.6.1c.5.1 1 .4 1.5.7.5.4.8.9 1.1 1.4.3.7.4 1.5.4 2.2 0 .9-.2 1.7-.7 2.4-.4.8-1.1 1.4-1.9 1.8-1 .5-2.1.7-3.2.7s-2.3-.2-3.3-.7c-.9-.5-1.6-1.2-2.1-2.2-.5-1.2-.7-2.5-.7-3.8s.2-2.6.6-3.8c.4-1.1 1.1-2.1 1.9-2.8.9-.8 2.1-1.3 3.2-1.6 1.6-.4 3.1-.5 4.7-.3z" fill="#4aa064"/><path clip-path="url(#bg)" d="m332.5 104.2h71.7v33.6h-71.7z" fill="#fff"/><path clip-path="url(#bh)" d="m338.2 115.6-1.7-4.5c.5-.5 1.2-.8 1.8-1.1.7-.3 1.5-.5 2.3-.7.8-.1 1.6-.2 2.4-.2 1.2 0 2.5.2 3.6.6 1 .3 1.9 1 2.6 1.8.6.8 1 1.8.9 2.8 0 .8-.2 1.5-.5 2.2s-.8 1.4-1.3 2c-.6.6-1.2 1.2-1.8 1.7-.7.5-1.3 1-1.9 1.4l-1.7 1h4.8c.5 0 .9-.1 1.4-.3.4-.2.8-.5 1.1-.9.4-.4.7-.9.9-1.5h.2l-1.7 7h-13v-.2c.7-.9 1.5-1.8 2.2-2.7s1.5-1.8 2.2-2.6 1.4-1.8 1.9-2.6 1-1.7 1.4-2.6c.3-.8.5-1.7.5-2.5.1-.9-.3-1.8-.9-2.6-.6-.6-1.5-.9-2.3-.8-1 0-1.9.6-2.4 1.4-.6 1.2-.9 2.5-.8 3.8z" fill="#4aa064"/><path clip-path="url(#bi)" d="m354 123.3c.4-.3.8-.4 1.3-.4s.9.1 1.3.4c.4.2.8.6.9 1.1.3.7.4 1.5.4 2.2-.1.7-.4 1.4-.8 2.1-.4.6-1 1.1-1.6 1.4s-1.4.4-2.1.2l-.1-.3c.3-.2.6-.4.8-.7s.4-.7.3-1.1c-.1-.5-.3-1-.7-1.4-.3-.3-.5-.7-.6-1.2-.1-.4 0-.9.1-1.3.2-.4.5-.8.8-1z" fill="#4aa064"/><path clip-path="url(#bj)" d="m370.7 113.7-7.7.6-.5 2.1c1.4-.4 2.8-.5 4.2-.3 1.1.1 2.2.5 3.1 1.1.8.5 1.4 1.3 1.9 2.1.4.9.6 1.9.5 2.9 0 1.1-.4 2.3-1 3.2s-1.5 1.6-2.4 2.2c-1 .6-2.1.9-3.2 1.1s-2.3.2-3.5.1c-1.1-.1-2.1-.5-3.1-1v-.2c.5 0 1.1 0 1.6-.1.7-.1 1.3-.3 2-.5s1.4-.6 2-.9c.6-.4 1.1-.8 1.5-1.4s.7-1.3.7-2c.1-.8-.2-1.7-.8-2.2-.7-.6-1.5-.9-2.4-.9-1.2 0-2.3.2-3.4.7h-.3l2.1-9.6 7.5-.6c.4 0 .9-.1 1.2-.3s.6-.5.7-.9h.2z" fill="#4aa064"/><path clip-path="url(#bk)" d="m374.5 127v-.2h.5c.4 0 .7-.1 1-.4.3-.2.4-.6.4-.9v-12.7c.1-.5-.1-1-.5-1.3-.3-.3-.8-.4-1.2-.4h-.5v-.2c.4 0 .8-.1 1.4-.1s1.2-.2 1.9-.3 1.3-.3 2-.5c.6-.2 1.1-.4 1.6-.7h.2v16.3c0 .4.1.7.4.9.3.3.6.4 1 .4h.5v.2h-8.7z" fill="#4aa064"/><path clip-path="url(#bl)" d="m396.6 109.2.2 1.8-8.9 8.7h10c.4 0 .7-.1 1-.3s.5-.4.6-.7h.2l-.8 3.6h-15.3v-.3zm.3 16.2c0 .4.1.7.4.9.3.3.6.4 1 .4h.3v.2h-8.5v-.2h.2c.4 0 .7-.1 1-.4s.4-.6.4-1zm-5.1-10.8 4.9-5.4h.2v17.8h-5.1z" fill="#4aa064"/><circle clip-path="url(#bm)" cx="115.5" cy="189" fill="#4aa064" r="5.4"/><circle clip-path="url(#bn)" cx="199.9" cy="184.8" fill="#4aa064" r="5.4"/><circle clip-path="url(#bo)" cx="368.8" cy="142.2" fill="#4aa064" r="5.4"/><circle clip-path="url(#bp)" cx="284.4" cy="156.6" fill="#4aa064" r="5.4"/><path clip-path="url(#bq)" d="m115.5 189 84.4-4.2 84.5-28.2 84.4-14.4" fill="none" stroke="#4aa064" stroke-miterlimit="10"/><path clip-path="url(#br)" d="m856.7 93v-6.3h-20.3v6.3h-11v63.4h15.4v-11.4h11.5v11.4h15.4v-63.4zm-21.5 44.6h-4.6v-7.4h4.5zm0-14.9h-4.6v-7.4h4.5zm0-14.9h-4.6v-7.4h4.5zm9 29.8h-4.5v-7.4h4.5zm0-14.9h-4.5v-7.4h4.5zm0-14.9h-4.5v-7.4h4.5zm9.1 29.8h-4.5v-7.4h4.5zm0-14.9h-4.5v-7.4h4.5zm0-14.9h-4.5v-7.4h4.5zm9.1 29.8h-4.5v-7.4h4.5zm0-14.9h-4.5v-7.4h4.5zm0-14.9h-4.5v-7.4h4.5z" fill="#333"/><path clip-path="url(#bs)" d="m1049.6 126.7c-1.1-4-4.4-5.7-8.2-5.1-3.5.6-5.3 5-6.2 7.6.2-3.5-.4-8.4-4.6-10.7-6.4-3.5-10.4 2.8-10.8 3.6s-.4 1 .7.9c2-.5 4.1-.6 6.2-.3l1.4-1.2.6 1.8c2.6 1 4.5 3.4 4.7 6.2-2-2.5-5.1-3.9-8.3-3.9-5.8-.1-10.5 4.5-10.6 10.3v.1c0 .2.2.4.4.5s.4 0 .6-.1c.2-.2.4-.5.7-.7.9-.9 2-1.6 3.1-2.3l1-1.9 1.4.7c3.5-1.4 7.4-1.6 11-.7-3.3-.2-8.2 1.5-10.2 5.7-2.4 5.2 0 9.3.3 9.6s.6.1.7-.4c.4-1.7 1-3.4 1.8-5l-.4-1.7 1.1.3c1.5-2.8 3.7-5.2 6.5-6.9-2.3 5-4.2 12.4-1.3 22.1h7s-7.1-6.9-3.4-21.1c1 1.4 1.9 2.8 2.7 4.4l1.1.1-.5 1.3c.6 1.7 1 3.5 1.1 5.2 0 .5.3.8.5.5 2.3-4.9 1.6-9.9-1.6-12.8 2.1.8 3.8 2.3 5 4.1l1.5.3-.3 1.7c.9 1.7 1.6 3.4 2 5.2.1.4.3.8.6.2 1.7-3.1 2-9-1.2-12.3-2.4-2.5-6.8-2.7-9.4-2 1.7-2.9 6.4-3.2 6.4-3.2s.7-1.7.9-1.9 1.1 1.7 1.1 1.7l4.7 1.9s.6.4.7-.3c-.2-.3-.3-.9-.5-1.5z" fill="#333"/><path clip-path="url(#bt)" d="m940.2 133.4v23.1h42.1v-11.5h11.5v11.4h15.4v-23.1h-69z" fill="#333"/><path clip-path="url(#bu)" d="m915.4 125.3h-18.4v-4.2h-4.8v4.2h-4.3l-8.1 13.5h5.8v17.9h32.2v-17.9h5.8zm-17.3 20.9h-4.6v-4.6h4.6zm11.7 0h-4.6v-4.6h4.6z" fill="#333"/><path clip-path="url(#bv)" d="m589.6 117.2h37c.6 0 1.2-.3 1.6-.8s.5-1.2.3-1.8l-6.4-19.2c-.3-.8-1-1.3-1.8-1.4h-24.2c-.8 0-1.6.5-1.9 1.3l-6.4 19.2c-.2.6-.1 1.3.3 1.8.3.6.9.9 1.5.9zm8-20.3h13.9l-17.2 9.8z" fill="#333"/><path clip-path="url(#bw)" d="m580.2 150.1c-.3-.8-1-1.3-1.9-1.4h-24.2c-.8 0-1.6.5-1.9 1.4l-6.4 19.2c-.3 1.1.3 2.2 1.3 2.5.2.1.4.1.5.1h37c1.1 0 2-.9 2-2 0-.2 0-.4-.1-.5zm-27.8 11.4 3.3-9.8h13.9z" fill="#333"/><path clip-path="url(#bx)" d="m623.7 150.1c-.3-.8-1-1.3-1.9-1.4h-24.2c-.8 0-1.6.5-1.9 1.4l-6.4 19.2c-.3 1.1.3 2.2 1.3 2.5.2.1.4.1.5.1h37c.6 0 1.2-.3 1.6-.8s.5-1.2.3-1.8zm-27.8 11.4 3.3-9.8h13.9z" fill="#333"/><path clip-path="url(#by)" d="m673.6 169.4-6.4-19.2c-.3-.8-1-1.3-1.9-1.4h-24.2c-.8 0-1.6.5-1.9 1.4l-6.4 19.2c-.3 1.1.3 2.2 1.3 2.5.2.1.4.1.5.1h37c1.1 0 2-.9 2-2 .1-.3 0-.4 0-.6zm-34.2-7.9 3.3-9.8h13.9z" fill="#333"/><path clip-path="url(#bz)" d="m556.1 179c-.3-.8-1-1.3-1.9-1.4h-24.2c-.8 0-1.6.5-1.9 1.4l-6.4 19.2c-.3 1.1.3 2.2 1.3 2.5.2.1.4.1.6.1h37c1.1 0 2-.9 2-2 0-.2 0-.4-.1-.6zm-27.9 11.4 3.3-9.8h13.9z" fill="#333"/><path clip-path="url(#bA)" d="m599.6 179c-.3-.8-1-1.3-1.9-1.4h-24.2c-.8 0-1.6.5-1.9 1.4l-6.4 19.2c-.2.6-.1 1.3.3 1.8s1 .8 1.6.8h37c.6 0 1.2-.3 1.6-.8s.5-1.2.3-1.8zm-27.8 11.4 3.3-9.8h13.9z" fill="#333"/><path clip-path="url(#bB)" d="m686.6 179c-.3-.8-1-1.3-1.9-1.4h-24.2c-.8 0-1.6.5-1.9 1.4l-6.4 19.2c-.3 1.1.3 2.2 1.3 2.5.2.1.4.1.6.1h37c1.1 0 2-.9 2-2 0-.2 0-.4-.1-.6zm-27.8 11.4 3.3-9.8h14z" fill="#333"/><path clip-path="url(#bC)" d="m649.5 198.2-6.4-19.2c-.3-.8-1-1.3-1.9-1.4h-24.2c-.8 0-1.6.5-1.9 1.4l-6.4 19.2c-.3 1.1.3 2.2 1.3 2.5.2.1.4.1.6.1h37c1.1 0 2-.9 2-2-.1-.2-.1-.4-.1-.6zm-34.3-7.9 3.3-9.8h13.9z" fill="#333"/><path d="m0 0h1082v339.9h-1082z" fill="none"/><path d="m567.1 144.5h37c1.1 0 2-.9 2-2 0-.2 0-.4-.1-.5l-6.4-19.2c-.3-.8-1-1.3-1.9-1.3h-24.2c-.8 0-1.6.5-1.9 1.3l-6.4 19.2c-.3 1.1.3 2.2 1.3 2.5zm7.9-20.3h14l-17.2 9.8z" fill="#333"/><path d="m615.1 122.7-6.4 19.2c-.2.6-.1 1.3.3 1.8s1 .8 1.6.8h37c1.1 0 2-.9 2-2 0-.2 0-.4-.1-.5l-6.4-19.2c-.3-.8-1-1.3-1.9-1.3h-24.2c-.8-.1-1.6.4-1.9 1.2zm17.4 1.5-17.2 9.8 3.3-9.8z" fill="#333"/></svg>