<?xml version="1.0" encoding="utf-8"?>
<!-- Generator: Adobe Illustrator 25.4.6, SVG Export Plug-In . SVG Version: 6.00 Build 0)  -->
<svg version="1.1" id="レイヤー_1" xmlns="http://www.w3.org/2000/svg" xmlns:xlink="http://www.w3.org/1999/xlink" x="0px"
	 y="0px" viewBox="0 0 335 366.2" style="enable-background:new 0 0 335 366.2;" xml:space="preserve">
<style type="text/css">
	.st0{fill:#333333;}
	.st1{fill:#FFFFFF;}
	.st2{fill:none;stroke:#FFFFFF;stroke-width:1.0311;stroke-miterlimit:10;}
	.st3{fill:#4AA064;}
	.st4{fill:none;stroke:#4AA064;stroke-width:1.76;stroke-miterlimit:10;}
	.st5{fill:none;stroke:#FFFFFF;stroke-width:4.0936;}
</style>
<g>
	<g>
		<g>
			<g>
				<g>
					<path class="st0" d="M279.4,134c0,0.4-0.3,0.6-0.8,0.6c-0.5,0-0.7-0.1-0.7-0.5c0-1.1,0.1-2.3,0.1-6.9c0-1.5,0-2.9-0.1-4.4
						c0.8,0.4,0.9,0.4,1.6,0.8h1.4c0.5-0.6,0.7-0.7,0.8-0.7c0.2,0,0.3,0.1,0.9,0.5c0.3,0.2,0.4,0.3,0.4,0.4s-0.1,0.2-0.4,0.5v1.5
						c0,4,0.1,6.7,0.1,7.6c0,0.4-0.3,0.6-0.9,0.6c-0.4,0-0.6-0.1-0.6-0.5V133h-1.7V134z M281,123.9h-1.7v4h1.7V123.9z M281,128.3
						h-1.7v4.3h1.7V128.3z M287.6,127.5h2.2c0.7-0.9,0.9-1,1-1c0.1,0,0.3,0.1,1.1,0.7c0.3,0.3,0.4,0.4,0.4,0.5s0,0.2-0.2,0.2h-8.3
						c-0.3,0-0.6,0-0.9,0.1l-0.2-0.6c0.4,0.1,0.8,0.1,1.1,0.1h2.3V125h-1.8c-0.3,0-0.5,0-0.9,0.1l-0.2-0.6c0.4,0.1,0.7,0.1,1.1,0.1
						h1.8v-1.4c0-0.4,0-0.8-0.1-1.3c1.9,0.2,2.1,0.4,2.1,0.5s-0.2,0.3-0.5,0.4v1.7h1.5c0.7-0.9,0.9-1,1-1c0.1,0,0.3,0.1,1.1,0.7
						c0.3,0.3,0.5,0.4,0.5,0.5c0,0.1,0,0.2-0.2,0.2h-3.8V127.5z M289.8,132.3c0,0.6,0,2,0,2.6c0,0.7-0.1,0.9-0.4,1.2
						c-0.4,0.4-0.9,0.6-1.5,0.6c-0.1,0-0.2-0.1-0.3-0.2c-0.1-0.8-0.6-1.1-1.8-1.4c-0.1,0-0.1-0.2,0-0.2c0.8,0,1.6,0.1,2.2,0.1
						c0.2,0,0.3,0,0.3-0.3v-4.1h-4.4c-0.3,0-0.6,0-0.9,0.1l-0.2-0.6c0.4,0.1,0.8,0.1,1.1,0.1h4.4v-0.7c0-0.6,0-0.7-0.1-1.3
						c1.6,0.1,2.1,0.3,2.1,0.5c0,0.2-0.1,0.3-0.5,0.4v1.1h0.4c0.6-0.7,0.8-0.8,0.9-0.8c0.1,0,0.3,0.1,0.9,0.6
						c0.2,0.2,0.4,0.3,0.4,0.4c0,0.1,0,0.2-0.2,0.2h-2.3V132.3z M285.8,134.1c-0.4,0-0.6-0.3-0.8-1c-0.2-0.8-0.5-1.2-0.9-1.6
						c-0.1,0,0-0.1,0.1-0.1c1.7,0.4,2.5,0.9,2.5,1.8C286.7,133.7,286.3,134.1,285.8,134.1z"/>
					<path class="st0" d="M298.6,127.3v8.9c0,0.4-0.3,0.6-0.9,0.6c-0.5,0-0.7-0.2-0.7-0.6c0-1.2,0.1-2.4,0.1-7.1
						c0-2.4,0-4.8-0.1-7.2c0.8,0.3,0.9,0.4,1.7,0.8h2.8c0.5-0.6,0.7-0.7,0.8-0.7c0.2,0,0.3,0.1,0.9,0.6c0.3,0.2,0.4,0.3,0.4,0.4
						c0,0.1-0.1,0.3-0.5,0.5v0.6c0,1.7,0,2.9,0,3.2c0,0.4-0.3,0.5-0.9,0.5c-0.4,0-0.6-0.1-0.6-0.5v-0.2H298.6z M301.7,123.1h-3.1
						v1.6h3.1V123.1z M301.7,125.1h-3.1v1.8h3.1V125.1z M302.1,134v0.6c0,0.4-0.2,0.6-0.8,0.6c-0.4,0-0.6-0.1-0.6-0.5
						c0-0.5,0-1.1,0-3.2c0-1,0-2-0.1-3c0.8,0.3,0.9,0.4,1.6,0.8h3c0.5-0.6,0.7-0.7,0.8-0.7c0.2,0,0.3,0.1,0.8,0.5
						c0.3,0.2,0.4,0.3,0.4,0.5c0,0.1-0.1,0.2-0.4,0.4v0.7c0,1.9,0,3.2,0,3.6c0,0.4-0.2,0.6-0.8,0.6c-0.4,0-0.6-0.2-0.6-0.5V134
						H302.1z M305.5,129.6h-3.4v1.7h3.4V129.6z M305.5,131.7h-3.4v1.9h3.4V131.7z M306,127.3L306,127.3c0,0.5-0.3,0.7-0.8,0.7
						c-0.4,0-0.6-0.1-0.6-0.5c0-0.6,0-1.2,0-3.7c0-0.6,0-1.2-0.1-1.8c0.8,0.3,0.9,0.4,1.6,0.8h2.9c0.6-0.6,0.7-0.7,0.8-0.7
						c0.2,0,0.3,0.1,0.9,0.6c0.3,0.2,0.4,0.4,0.4,0.5c0,0.2-0.1,0.3-0.4,0.5v1.9c0,8.9,0,9.3,0,9.8c0,0.4-0.1,0.7-0.3,1
						c-0.3,0.3-0.7,0.5-1.4,0.5c-0.2,0-0.3,0-0.3-0.2c-0.1-0.7-0.4-1-1.6-1.3c-0.1,0-0.1-0.2,0-0.2c1,0.1,1.2,0.1,1.9,0.1
						c0.2,0,0.2,0,0.2-0.2v-7.5H306z M309.2,123.1H306v1.6h3.2V123.1z M309.2,125.1H306v1.8h3.2V125.1z"/>
				</g>
			</g>
		</g>
	</g>
	<g>
		<g>
			<g>
				<g>
					<path class="st0" d="M126.2,34.4h3.3c0.8-1,1-1.1,1.1-1.1c0.1,0,0.3,0.1,1.1,0.8c0.4,0.3,0.5,0.4,0.5,0.5s0,0.1-0.2,0.1h-5.8
						v0.2c0,2.7,0.1,3.8,0.1,4.9c0,0.4-0.3,0.6-0.9,0.6c-0.4,0-0.6-0.1-0.6-0.5c0-0.4,0.1-2.6,0.1-5v-0.2h-4.1c-0.4,0-0.8,0-1.3,0.1
						l-0.2-0.5c0.6,0.1,1,0.1,1.5,0.1h4.1v-5.5h-3.4c-0.4,0-0.8,0-1.3,0.1l-0.2-0.5c0.6,0.1,1,0.1,1.4,0.1h7.8c0.7-0.9,0.9-1,1-1
						c0.1,0,0.3,0.1,1,0.7c0.3,0.3,0.4,0.4,0.4,0.5s0,0.1-0.2,0.1h-5.2V34.4z M122.7,33.5c-0.4,0-0.5-0.2-0.7-1
						c-0.2-1.1-0.4-1.8-1-2.7c0-0.1,0.1-0.1,0.1-0.1c1.6,0.9,2.4,1.9,2.4,2.9C123.5,33.1,123.1,33.5,122.7,33.5z M130.1,30.6
						c-0.9,1.5-1.8,2.5-3.1,3.3c-0.1,0-0.2-0.1-0.1-0.1c0.6-0.8,1.3-2,1.7-3.1c0.2-0.5,0.3-0.9,0.4-1.3c1.2,0.5,1.7,0.8,1.7,1
						C130.7,30.5,130.6,30.6,130.1,30.6z"/>
					<path class="st0" d="M139.5,31.9c0.4-0.8,0.8-1.7,1-2.5c0.2-0.7,0.3-1.3,0.3-1.8c1.6,0.4,1.9,0.5,1.9,0.7
						c0,0.2-0.1,0.3-0.5,0.3c-0.3,0.6-0.5,1.2-0.8,1.7h4.1c0.5-0.6,0.6-0.7,0.8-0.7c0.1,0,0.3,0.1,0.8,0.6c0.3,0.2,0.3,0.3,0.3,0.4
						c0,0.1,0,0.1-0.4,0.4c-0.1,4.1-0.2,6-0.6,7.5c-0.2,0.5-0.4,0.9-0.7,1.2c-0.4,0.3-0.8,0.5-1.3,0.5c-0.3,0-0.3,0-0.4-0.4
						c-0.1-0.4-0.5-0.8-1.6-1.1c-0.1,0-0.1-0.2,0-0.2c1.1,0.1,1.4,0.1,1.6,0.1c0.6,0,0.8,0,0.9-0.3c0.5-0.9,0.7-2.9,0.8-7.8h-4.4
						c-0.7,1.2-1.6,2.1-2.5,2.8c-0.1,0-0.2,0-0.1-0.1C138.9,33,139.2,32.5,139.5,31.9c-0.1,0.1-0.1,0.1-0.2,0.1h-1.6v3.8
						c0.6-0.2,1.3-0.4,1.8-0.6c0.1,0,0.1,0.1,0.1,0.1c-1.4,1.1-2.2,1.6-3.9,2.5c0,0.4-0.1,0.6-0.3,0.6c-0.2,0-0.5-0.5-0.9-1.7
						c0.3,0,0.7-0.1,1.2-0.3c0.3-0.1,0.5-0.1,0.8-0.2V32h-0.9c-0.2,0-0.4,0-0.7,0.1l-0.2-0.5c0.3,0.1,0.6,0.1,0.8,0.1h1v-2.2
						c0-0.7,0-1.2-0.1-1.7c1.7,0.2,1.8,0.3,1.8,0.5c0,0.1-0.2,0.3-0.5,0.4v3h0.1c0.4-0.7,0.6-0.8,0.7-0.8c0.1,0,0.3,0.1,0.7,0.5
						C139.4,31.6,139.5,31.7,139.5,31.9L139.5,31.9z M140.3,37.6c0,0.4-0.1,0.6-0.3,0.6c-0.2,0-0.4-0.3-0.9-1.7
						c0.3,0,0.7-0.1,1.2-0.2c1.3-0.2,3-0.6,4.3-1.1c0.1,0,0.1,0.1,0.1,0.1C143.2,36.4,142.3,36.8,140.3,37.6z M142.5,33.2
						c0.6-0.7,0.7-0.8,0.8-0.8c0.1,0,0.3,0.1,0.8,0.6c0.2,0.2,0.3,0.3,0.3,0.4c0,0.1,0,0.1-0.2,0.1h-3.7c-0.2,0-0.4,0-0.6,0.1
						l-0.2-0.5c0.3,0.1,0.5,0.1,0.7,0.1H142.5z"/>
					<path class="st0" d="M153.9,31.5c0.5-0.5,0.6-0.6,0.7-0.6c0.1,0,0.2,0.1,0.7,0.5c0.2,0.2,0.3,0.3,0.3,0.4c0,0.1,0,0.2-0.4,0.3
						c-0.7,4.2-2.1,6.3-5.1,8c-0.1,0-0.1-0.1-0.1-0.1c1.4-1.2,2.5-2.7,3.2-4.8c-0.1,0.1-0.2,0.1-0.4,0.1c-0.3,0-0.4-0.1-0.4-0.6
						c-0.1-0.6-0.3-1-0.6-1.4c-0.5,0.8-1.1,1.4-1.8,2c-0.1,0-0.1-0.1-0.1-0.1c1.1-1.7,1.7-3.7,1.9-6.3h-0.6c-0.3,0-0.6,0-0.9,0.1
						l-0.2-0.5c0.4,0.1,0.8,0.1,1.1,0.1h2.9c0.6-0.7,0.8-0.8,0.9-0.8c0.1,0,0.3,0.1,0.9,0.6c0.3,0.2,0.4,0.3,0.4,0.4
						c0,0.1,0,0.1-0.2,0.1h-3c-0.1,0.8-0.2,1.6-0.5,2.4H153.9z M152.6,31.8c-0.2,0.5-0.4,1-0.6,1.5c0.6,0.3,1.3,0.6,1.4,1.3
						c0.2-0.8,0.4-1.8,0.6-2.8H152.6z M158.7,32.7c0.1,0.5,0.2,1.2,0.3,1.8l1.7-0.3c0.6-0.8,0.7-0.9,0.8-0.9c0.1,0,0.3,0.1,0.9,0.4
						c0.3,0.2,0.4,0.3,0.4,0.4c0,0.1-0.1,0.1-0.2,0.1l-3.6,0.5c0.1,0.5,0.3,1,0.5,1.5c0.4-0.4,0.8-0.9,1-1.3c1.1,0.6,1.5,0.8,1.5,1
						c0,0.2-0.1,0.2-0.7,0.2c-0.4,0.4-0.7,0.7-1.1,1.1c0.1,0.2,0.3,0.4,0.4,0.5c0.4,0.5,0.9,0.8,1.1,0.8s0.3-0.1,1-1.6
						c0-0.1,0.2,0,0.2,0c-0.1,1.1-0.2,1.7-0.2,1.8c0,0.2,0,0.2,0.2,0.3c0.2,0.2,0.3,0.4,0.3,0.6c0,0.3-0.3,0.6-0.7,0.6
						c-0.6,0-1.6-0.6-2.4-1.4c-0.3-0.3-0.6-0.6-0.8-0.9c-1.6,1.1-3.5,1.7-5.5,1.9c-0.1,0-0.1-0.1-0.1-0.1c1.8-0.5,3.6-1.5,5-2.6
						c-0.4-0.7-0.6-1.4-0.8-2.1l-1.6,0.2c-0.5,0.1-0.7,0.1-0.9,0.2l-0.2-0.5c0.5,0,0.9,0,1.1-0.1l1.6-0.2c-0.1-0.7-0.2-1.2-0.3-1.8
						l-0.9,0.1c-0.4,0.1-0.7,0.1-0.9,0.2l-0.2-0.5c0.4,0,0.8,0,1.1-0.1l0.9-0.1c-0.1-0.6-0.1-1.1-0.1-1.7l-0.9,0.1
						c-0.3,0-0.6,0.1-0.9,0.2l-0.2-0.5c0.5,0,0.9,0,1.1,0l0.9-0.1c0-0.3,0-0.6,0-0.9c0-1.1,0-1.3-0.1-1.9c1.5,0.2,1.8,0.3,1.8,0.5
						c0,0.1-0.1,0.2-0.4,0.4c0,0.7,0,1.2,0,1.8l1.9-0.3c0.5-0.7,0.6-0.8,0.7-0.8c0.1,0,0.3,0.1,0.8,0.4c0.3,0.2,0.3,0.3,0.3,0.4
						c0,0.1-0.1,0.1-0.1,0.1l-3.5,0.5c0,0.6,0,1.1,0.1,1.7l1.5-0.2c0.5-0.8,0.6-0.8,0.7-0.8c0.1,0,0.3,0.1,0.9,0.4
						c0.3,0.2,0.4,0.3,0.4,0.4c0,0.1-0.1,0.1-0.1,0.1L158.7,32.7z M160.3,29.6c-0.3,0-0.3,0-0.5-0.5c-0.2-0.4-0.5-0.7-0.7-0.9
						c-0.1,0,0-0.2,0.1-0.2c1.2,0.1,1.7,0.4,1.7,1C160.8,29.4,160.6,29.6,160.3,29.6z"/>
					<path class="st0" d="M172.4,36.3c0.6,0.6,1.4,1,2.3,1.4c1.1,0.5,2.3,0.7,3.7,0.8c0.1,0,0.1,0.1,0,0.2c-0.5,0.2-0.6,0.3-1,1.2
						c-0.1,0.1-0.1,0.2-0.2,0.2c-0.1,0-0.4-0.1-0.7-0.2c-0.9-0.3-1.7-0.8-2.5-1.4c-0.7-0.5-1.2-1.1-1.8-1.8c0,1.8,0.1,3.1,0.1,3.5
						s-0.2,0.5-0.8,0.5c-0.4,0-0.5-0.2-0.5-0.5c0-0.3,0.1-1.7,0.1-2.9c-1.2,1.3-3.1,2.3-5.5,2.8c-0.1,0-0.1-0.1-0.1-0.1
						c2.1-1,3.6-2.1,4.7-3.6h-3.3c-0.3,0-0.6,0-1,0.1l-0.2-0.5c0.4,0.1,0.8,0.1,1.1,0.1h4.3v-1.3h-2.7c-0.3,0-0.6,0-1,0.1l-0.2-0.5
						c0.4,0.1,0.8,0.1,1.1,0.1h2.8v-1.3h-3.5c-0.3,0-0.6,0-1,0.1l-0.2-0.5c0.4,0.1,0.8,0.1,1.1,0.1h2.3c-0.2-0.1-0.3-0.2-0.4-0.6
						c-0.1-0.4-0.4-0.9-0.7-1.2c-0.1,0,0-0.1,0.1-0.1c1.3,0.2,1.9,0.6,1.9,1.3c0,0.3-0.2,0.6-0.5,0.7h2.3c0.3-0.5,0.4-0.9,0.6-1.2
						c0.1-0.3,0.2-0.6,0.3-0.9c1.1,0.4,1.6,0.7,1.6,0.8s-0.1,0.2-0.6,0.2c-0.5,0.5-1,0.8-1.4,1h2.3c0.7-0.7,0.8-0.8,0.9-0.8
						c0.1,0,0.3,0.1,0.9,0.6c0.3,0.2,0.4,0.3,0.4,0.4s0,0.1-0.2,0.1h-5v1.3h2.2c0.6-0.7,0.8-0.8,0.9-0.8c0.1,0,0.3,0.1,0.8,0.5
						c0.2,0.2,0.4,0.3,0.4,0.4c0,0.1,0,0.1-0.2,0.1h-4V36h3.5c0.7-0.8,0.9-0.9,1-0.9c0.1,0,0.3,0.1,0.9,0.6c0.3,0.2,0.4,0.4,0.4,0.5
						c0,0.1,0,0.1-0.2,0.1H172.4z M169.8,28.6c0-0.6,0-0.7-0.1-1c1.6,0.2,1.7,0.3,1.7,0.4c0,0.1-0.1,0.2-0.4,0.4v2h1.2v-1.8
						c0-0.6,0-0.7-0.1-1c1.6,0.2,1.8,0.3,1.8,0.4c0,0.1-0.1,0.2-0.5,0.4v2h0.6c0.3-0.6,0.6-1.1,0.8-1.6c0.1-0.3,0.2-0.6,0.3-0.9
						c1.2,0.5,1.7,0.7,1.7,0.9c0,0.2-0.1,0.3-0.6,0.3c-0.6,0.6-1.2,1.1-1.7,1.3h1.6c0.6-0.7,0.8-0.8,0.9-0.8c0.1,0,0.3,0.1,0.9,0.6
						c0.3,0.2,0.4,0.3,0.4,0.4s0,0.1-0.2,0.1h-11.3c-0.3,0-0.6,0-1,0.1l-0.2-0.5c0.5,0.1,0.8,0.1,1.1,0.1h3.1V28.6z M168.3,30.1
						c-0.3,0-0.4-0.1-0.6-0.5c-0.2-0.6-0.4-1-0.8-1.4c-0.1,0,0-0.1,0.1-0.1c1.3,0.2,2,0.7,2,1.3C169,29.7,168.7,30.1,168.3,30.1z"/>
					<path class="st0" d="M182.6,38.1c0,0.4-0.3,0.5-0.7,0.5c-0.4,0-0.6-0.1-0.6-0.4c0-1,0.1-2,0.1-6c0-1.3,0-2.6-0.1-3.9
						c0.7,0.3,0.8,0.4,1.4,0.7h1.2c0.5-0.6,0.6-0.6,0.7-0.6c0.1,0,0.3,0.1,0.8,0.5c0.2,0.2,0.3,0.3,0.3,0.4c0,0.1-0.1,0.2-0.4,0.4
						v1.3c0,3.5,0.1,5.9,0.1,6.7c0,0.4-0.3,0.5-0.8,0.5c-0.4,0-0.5-0.1-0.5-0.4v-0.5h-1.5V38.1z M184.1,29.3h-1.5v3.5h1.5V29.3z
						 M184.1,33.1h-1.5v3.8h1.5V33.1z M189.8,32.4h1.9c0.6-0.8,0.8-0.9,0.9-0.9c0.1,0,0.3,0.1,0.9,0.6c0.3,0.2,0.4,0.3,0.4,0.4
						s0,0.1-0.2,0.1h-7.2c-0.3,0-0.5,0-0.8,0.1l-0.2-0.5c0.4,0.1,0.7,0.1,0.9,0.1h2v-2.1h-1.6c-0.2,0-0.5,0-0.8,0.1l-0.2-0.5
						c0.4,0.1,0.6,0.1,0.9,0.1h1.6v-1.2c0-0.4,0-0.7-0.1-1.1c1.7,0.2,1.8,0.3,1.8,0.4s-0.2,0.3-0.4,0.4v1.5h1.3
						c0.6-0.8,0.8-0.9,0.9-0.9c0.1,0,0.3,0.1,0.9,0.6c0.3,0.2,0.4,0.3,0.4,0.4s0,0.1-0.2,0.1h-3.3V32.4z M191.7,36.6
						c0,0.5,0,1.7,0,2.2c0,0.6-0.1,0.8-0.3,1.1c-0.3,0.3-0.8,0.5-1.3,0.5c-0.1,0-0.2-0.1-0.2-0.2c-0.1-0.7-0.5-0.9-1.6-1.2
						c-0.1,0-0.1-0.2,0-0.2c0.7,0,1.4,0.1,1.9,0.1c0.2,0,0.3,0,0.3-0.2v-3.6h-3.8c-0.3,0-0.5,0-0.8,0.1l-0.2-0.5
						c0.4,0.1,0.7,0.1,0.9,0.1h3.9v-0.6c0-0.5,0-0.6-0.1-1.1c1.4,0.1,1.8,0.2,1.8,0.4c0,0.1-0.1,0.2-0.4,0.4v0.9h0.3
						c0.5-0.6,0.7-0.7,0.8-0.7c0.1,0,0.3,0.1,0.8,0.5c0.2,0.2,0.3,0.3,0.3,0.4c0,0.1,0,0.1-0.2,0.1h-2V36.6z M188.3,38.1
						c-0.4,0-0.5-0.2-0.7-0.9c-0.2-0.7-0.4-1.1-0.8-1.4c-0.1,0,0-0.1,0.1-0.1c1.5,0.3,2.2,0.8,2.2,1.5
						C189,37.8,188.7,38.1,188.3,38.1z"/>
					<path class="st0" d="M198,32.2v7.7c0,0.4-0.3,0.5-0.8,0.5c-0.4,0-0.6-0.1-0.6-0.5c0-1,0.1-2.1,0.1-6.2c0-2.1,0-4.2-0.1-6.3
						c0.7,0.3,0.8,0.3,1.5,0.7h2.5c0.5-0.5,0.6-0.6,0.7-0.6c0.1,0,0.3,0.1,0.8,0.5c0.2,0.2,0.3,0.3,0.3,0.4c0,0.1-0.1,0.2-0.4,0.4
						v0.6c0,1.5,0,2.5,0,2.8c0,0.3-0.3,0.5-0.8,0.5c-0.4,0-0.5-0.1-0.5-0.4v-0.2H198z M200.7,28.5H198V30h2.7V28.5z M200.7,30.3H198
						v1.6h2.7V30.3z M201.2,38.1v0.5c0,0.4-0.2,0.5-0.7,0.5c-0.4,0-0.5-0.1-0.5-0.4c0-0.5,0-1,0-2.8c0-0.9,0-1.8-0.1-2.6
						c0.7,0.3,0.8,0.3,1.4,0.7h2.6c0.5-0.5,0.6-0.6,0.7-0.6c0.1,0,0.3,0.1,0.7,0.5c0.3,0.2,0.3,0.3,0.3,0.4c0,0.1-0.1,0.2-0.4,0.4
						v0.6c0,1.7,0,2.8,0,3.2c0,0.4-0.2,0.5-0.7,0.5c-0.4,0-0.5-0.1-0.5-0.4v-0.4H201.2z M204.1,34.3h-2.9v1.5h2.9V34.3z M204.1,36.1
						h-2.9v1.7h2.9V36.1z M204.6,32.2L204.6,32.2c0,0.4-0.2,0.6-0.7,0.6c-0.4,0-0.6-0.1-0.6-0.4c0-0.5,0-1.1,0-3.3
						c0-0.5,0-1.1-0.1-1.6c0.7,0.3,0.8,0.4,1.4,0.7h2.5c0.5-0.5,0.6-0.6,0.7-0.6c0.1,0,0.3,0.1,0.8,0.5c0.2,0.2,0.3,0.3,0.3,0.4
						c0,0.1-0.1,0.2-0.4,0.4v1.7c0,7.8,0,8.2,0,8.5c0,0.4-0.1,0.6-0.3,0.8c-0.2,0.3-0.6,0.4-1.2,0.4c-0.2,0-0.2,0-0.3-0.2
						c-0.1-0.6-0.3-0.9-1.4-1.1c-0.1,0-0.1-0.2,0-0.2c0.8,0.1,1.1,0.1,1.6,0.1c0.1,0,0.2,0,0.2-0.2v-6.6H204.6z M207.3,28.5h-2.8V30
						h2.8V28.5z M207.3,30.3h-2.8v1.6h2.8V30.3z"/>
				</g>
			</g>
		</g>
	</g>
	<g>
		<g>
			<g>
				<path class="st0" d="M197.4,246c2.1,0,3.8-1.7,3.8-3.8c0-2.1-1.7-3.8-3.8-3.8c-2.1,0-3.8,1.7-3.8,3.8
					C193.7,244.3,195.3,246,197.4,246z"/>
				<g>
					<path class="st0" d="M207.3,259.2l-1.3-5.5c-1.3-5.1-5.7-6.2-8.6-6.2c-2.9,0-7.3,1.2-8.6,6.2l-2.6,10.8c-0.2,0.8,0.2,1.6,1,1.8
						c0.8,0.2,1.6-0.2,1.8-1l3-7.9l0.1,1.7c-0.5,0.8-2,3.4-2,6.8c0,1.6,1.7,9.2,1.7,9.2l1,0l0.5,11.1c0,1,0.8,1.7,1.7,1.7
						c1,0,1.7-0.8,1.7-1.7l0.4-11l0.3,0l0.3,0l0.4,11c0,1,0.8,1.7,1.7,1.7c1,0,1.7-0.8,1.7-1.7l0.5-11.1l1,0c0,0,1.7-7.5,1.7-9.2
						c0-1-0.1-1.9-0.3-2.8l-4.8,1.9c-0.3,0.1-0.6,0.2-0.9,0.2c-0.9,0-1.7-0.5-2.1-1.3c-0.5-1.1,0-2.4,1.1-2.9l4.9-2.4
						c0,0,0.1-1.1,0.1-1.1l0.6,1.6l-5.3,2.6c-0.7,0.3-1.1,1.2-0.8,1.9c0.3,0.7,1.2,1.1,1.9,0.8l7.1-2.8
						C207.3,261.1,207.6,260.2,207.3,259.2z"/>
				</g>
			</g>
			<g>
				<g>
					<g>
						<g>
							<path class="st0" d="M223.7,280.4l-0.1,0.2l-3.4-2.6c1-1.3,1.8-2.3,1.8-2.3c0.2-0.3,0.5-0.2,0.6,0.1l0.2,0.3
								c0.1,0.3,0.5,0.5,0.8,0.4l3-0.7c0.3-0.1,0.5,0.1,0.5,0.4l-0.2,1.3c-0.1,0.3-0.4,0.6-0.7,0.7l-1.7,0.4c-0.3,0.1-0.3,0.1,0,0.1
								l0.9,0c0.3,0,0.5,0.2,0.3,0.5c-0.1,0.3-0.5,0.6-0.8,0.6l-0.2,0C224.3,279.8,223.9,280.1,223.7,280.4z"/>
							<path class="st0" d="M213.7,281c0.1-0.5,0.3-0.2,0.4-0.1c0.1,0.1,0.7,1.5,1.8,2.3c0.7-0.8,2.2-2.8,3.6-4.6l3.4,2.7l-0.4,0.6
								c0.5,1.4,1.5,4.3,1.5,4.3c0.1,0.4-0.1,0.8-0.4,0.9c-0.4,0.1-0.7-0.1-0.9-0.4l-1.5-3l-0.5,0.7c0.2,0.2,0.3,0.5,0.3,0.8l0,0.3
								c0,0,0.1,0,0.1,0c1.5,0,1.6,1.7,0.1,1.7c-0.4,0-2.4,0-2.4,0s-0.7,0-2.3,0c-1.6,0-2.1-1.2-1.6-2.5
								C214.4,284,213.3,282.6,213.7,281z"/>
						</g>
					</g>
				</g>
			</g>
			<g>
				<path class="st0" d="M237.5,242.1c0,2.1-1.7,3.9-3.9,3.9c-2.1,0-3.9-1.7-3.9-3.9c0-2.1,1.7-3.9,3.9-3.9
					C235.8,238.3,237.5,240,237.5,242.1z"/>
				<path class="st0" d="M233.7,247.4L233.7,247.4c-2.6,0-8.3,1.1-8.3,6.7l0.7,13.4c0.1,0.9,0.8,1.6,1.6,1.5c0.5-0.1,1-0.4,1.2-0.9
					l0.5,17.6c0,1.2,0.9,2.1,2,2.1c1.1,0,2-1,2-2.1l0.3-14.8h0l0.3,14.8c0,1.2,0.9,2.1,2,2.1c1.1,0,2-1,2-2.1l0.5-17.6
					c0.2,0.5,0.7,0.9,1.2,0.9c0.8,0.1,1.6-0.6,1.6-1.5l0.7-13.4C241.9,248.5,236.3,247.4,233.7,247.4z"/>
			</g>
			<g>
				<path class="st0" d="M256.1,242.2c0,2.1-1.7,3.9-3.9,3.9c-2.1,0-3.9-1.7-3.9-3.9c0-2.1,1.7-3.9,3.9-3.9
					C254.4,238.3,256.1,240,256.1,242.2z"/>
				<g>
					<g>
						<path class="st0" d="M257.3,263.3c0.1-1.1,0.2-2.4,0.2-2.4c2.8-1,3.1-6.1,3.1-6.1c0-5.5-4.5-7.4-8.3-7.4
							c-3.6,0-8.1,2.1-8.3,7.4c0,0,0,5.4,3.3,7.6l0.1,0.7c-0.6,1.6-2.6,6.9-2.6,12.7h3.3l0.5,9.9c0,1.1,0.8,2,1.9,2
							c1,0,1.8-0.8,1.9-1.9c0.1,1.1,0.9,1.9,1.9,1.9c1,0,1.9-0.9,1.9-2l0.5-9.9h3.3C259.7,270.3,258,265.1,257.3,263.3z"/>
					</g>
				</g>
			</g>
			<path class="st1" d="M255.9,251.8c0.9-0.6,2.1-0.4,2.7,0.5c0.6,0.9,0.4,2.1-0.5,2.7c-0.9,0.6-2.1,0.4-2.7-0.5
				C254.8,253.7,255,252.4,255.9,251.8z"/>
			<path class="st1" d="M249.3,257.1c0.1-0.4,0.5-0.8,1.1-0.7c0.6,0.2,1.7,0.6,1.7,0.6l1.3-0.9l-1.3-0.6c0,0-0.1-0.1-0.1-0.1
				c-0.2-0.2-0.2-0.6,0-0.8c0.2-0.2,0.4-0.2,0.6-0.2c0,0,2.7,0.9,3.2,1c0.8,0.2,1.2,1.2,0.4,2c0,0,0,0,0,0l-1.4,0.1
				c-0.8,0.1-1.4,0.7-1.3,1.5c0,0.1,0,0.1,0,0.2c-0.6,0.3-1.3,0.4-1.8,0.2c-0.8-0.2-1.2-0.5-1.2-0.5l-0.1,0.3l-1.8,0
				C248.7,259.2,249.2,257.5,249.3,257.1z"/>
		</g>
	</g>
	<g>
		<path class="st0" d="M299.9,242.3c0,2-1.6,3.7-3.7,3.7c-2,0-3.7-1.6-3.7-3.7s1.6-3.7,3.7-3.7C298.3,238.6,299.9,240.2,299.9,242.3
			z"/>
		<g>
			<g>
				<path class="st0" d="M282.3,267.3c0,1.8-1.5,3.2-3.2,3.2c-1.8,0-3.2-1.5-3.2-3.2c0-1.8,1.5-3.2,3.2-3.2
					C280.9,264,282.3,265.5,282.3,267.3z"/>
				<path class="st0" d="M275.2,286.3c0,1.1-0.9,1.9-1.9,1.9c-1.1,0-1.9-0.9-1.9-1.9c0-1.1,0.9-1.9,1.9-1.9
					C274.3,284.4,275.2,285.2,275.2,286.3z"/>
				<path class="st0" d="M282,286.3c0,1.1-0.9,1.9-1.9,1.9c-1.1,0-1.9-0.9-1.9-1.9c0-1.1,0.9-1.9,1.9-1.9
					C281.1,284.4,282,285.2,282,286.3z"/>
				<path class="st0" d="M278,283.6h-6.3l1.1-1.9h5.3c0.8,0,2.2-0.7,2.8-2.5c0.4-1.2,3-10.9,3-11l0.2-0.7h5.4l-0.6,1.9h-3.3
					c0,0-2.5,9.3-2.9,10.4C281.9,282.3,279.7,283.6,278,283.6z"/>
				<path class="st0" d="M278.3,271.2c-1.5,0.3-6.7,1.6-6.7,1.6c-0.5,0.1-0.9,0.7-0.8,1.2c0.1,0.5,0.7,0.9,1.2,0.8l3.3-0.4l-0.6,2.5
					c0,0-1.8,0-2.5,0c-1.1,0-1.9,0.4-2.3,1.3l-2,4.5c-0.3,0.7,0,1.4,0.7,1.7c0.7,0.3,1.4,0,1.7-0.7l1.7-3.1c0,0,4.1,0,5.1,0
					c1,0,2.3-0.6,2.6-1.8c0.3-1.2,1.4-5.3,1.4-5.3C281.5,271.7,280.1,270.9,278.3,271.2z"/>
			</g>
		</g>
		<path class="st0" d="M305.9,276.4l-0.4-2.5h4.7c0,0-2.9-11.7-7.8-14.8c0,0-1.7-8-2.4-10c-0.6-2-5-3.5-7.3,2.1l-2,5.1l-2.7,6.9
			c-0.3,0.7,0,1.6,0.7,1.9c0.7,0.3,1.6,0,1.9-0.7l3.3-6.6l0.2-0.4l0.8,3l-4.1,25.5c-0.2,1,0.4,2,1.4,2.2c1,0.2,2-0.4,2.2-1.4
			l3.2-12.8h2.9l0.8,3.4l2.2,9.4c0.2,1,1.2,1.7,2.2,1.5c1-0.2,1.7-1.2,1.5-2.2L305.9,276.4z"/>
	</g>
	<g>
		<circle class="st0" cx="48.3" cy="72" r="15.2"/>
		<g>
			<g>
				<rect x="28.5" y="128.7" class="st0" width="94.2" height="9.8"/>
				<polygon class="st0" points="51.9,126.2 76.6,126.2 91.7,126.2 91.7,118.4 73.1,118.4 65.2,97.1 28.7,97.1 40.1,126.2 				"/>
				<path class="st0" d="M86.7,80.8c0.6,2.9,1.5,5.4,2.8,6.7c0,1.5,0,2.6,0,3.5c0,0.1,0,0.2,0,0.3L96,94l6.5-2.8c0-0.1,0-0.2,0-0.3
					c0-0.9,0-2,0-3.5c1.3-1.3,2.2-3.8,2.8-6.7c1.3-0.4,2.1-1.1,3-4.1c1-3.2-1.5-3.1-1.5-3.1c2-6-0.6-11.7-5.2-11.3
					c-3.1-4.9-13.5,1.1-16.8,0.7c0,1.7,0.8,2.9,0.8,2.9c-1.1,1.9-0.7,5.7-0.4,7.7c-0.2,0-2.5,0-1.5,3.1
					C84.6,79.7,85.4,80.4,86.7,80.8z"/>
				<rect x="93.5" y="95.5" class="st0" width="4.9" height="3.8"/>
				<path class="st0" d="M95,115.1v11.1h27.4c-1.5-13.6-8-26.3-12.5-27.8c-0.5-0.2-1-0.4-1.6-0.7L99.1,109l-0.7-7.4h-4.9l-0.7,7.4
					l-9.2-11.4c-0.6,0.3-1.1,0.5-1.6,0.7c-2.4,0.8-5.5,6.5-8,13.2l1.3,3.6H95z"/>
			</g>
			<polyline class="st2" points="48.3,60.6 48.3,72.5 52.1,79.4 			"/>
		</g>
	</g>
	<g>
		<g>
			<g>
				<g>
					<path class="st0" d="M192.5,189.4c-0.5,0.7-1.1,1.3-1.8,1.8c1.8,0,3.5,0,5.3-0.2c-0.4-0.4-0.8-0.7-1.4-1.1c-0.1,0,0-0.2,0-0.1
						c2.3,0.3,3.7,1.1,3.7,2.1c0,0.5-0.3,0.8-0.7,0.8c-0.3,0-0.4-0.1-0.7-0.5c-0.2-0.4-0.4-0.6-0.6-0.9c-2.1,0.5-4,0.8-7.8,1.1
						c-0.1,0.4-0.2,0.4-0.3,0.4c-0.2,0-0.3-0.2-0.6-1.8c0.8,0.1,1.4,0.1,2.5,0.1c0.3-0.6,0.4-1.2,0.6-1.8h-2.8c-0.3,0-0.6,0-1,0.1
						l-0.2-0.5c0.4,0.1,0.8,0.1,1.1,0.1h4.4v-1c0-0.2,0-0.5-0.1-0.8c1.7,0.2,1.9,0.3,1.9,0.4c0,0.1-0.2,0.3-0.5,0.4v1h3.3
						c0.7-0.8,0.9-1,1-1c0.1,0,0.3,0.1,1,0.7c0.3,0.2,0.4,0.4,0.4,0.5c0,0.1,0,0.1-0.2,0.1H192.5z M190.2,197.2c0,1.3,0,2,0,2.7
						c0,0.4-0.3,0.5-0.8,0.5c-0.4,0-0.6-0.1-0.6-0.6c0-0.8,0.1-1.4,0.1-4.6c0-0.9,0-1.8-0.1-2.7c0.7,0.3,0.8,0.3,1.5,0.7h5.1
						c0.5-0.5,0.6-0.6,0.7-0.6c0.1,0,0.3,0.1,0.9,0.6c0.3,0.2,0.3,0.3,0.3,0.4c0,0.1-0.1,0.2-0.4,0.4v0.8c0,3.3,0,3.5,0,4.1
						c0,0.5-0.2,0.9-0.6,1.1c-0.3,0.2-0.7,0.3-1,0.3c-0.1,0-0.2-0.1-0.2-0.4c-0.1-0.4-0.3-0.6-1.5-1c-0.1,0-0.1-0.2,0-0.2
						c0.8,0.1,1.2,0.1,1.8,0.1c0.1,0,0.2,0,0.2-0.2v-1.5H190.2z M195.6,193.6h-5.4v1.4h5.4V193.6z M190.2,196.8h5.4v-1.5h-5.4V196.8
						z"/>
					<path class="st0" d="M207.4,195.5c-0.4,3-1.8,4.2-5.1,4.7c-0.1,0-0.1-0.2-0.1-0.2c2-0.7,3.1-1.7,3.6-3.2
						c0.2-0.6,0.2-1.2,0.2-2.2c1.8,0.3,1.8,0.3,1.8,0.5C207.8,195.2,207.7,195.3,207.4,195.5z M204.9,189.4c0,2.5,0.1,4.3,0.1,4.9
						c0,0.4-0.2,0.6-0.8,0.6c-0.4,0-0.6-0.1-0.6-0.5c0-0.4,0.1-1.7,0.1-4.3c0-1.3,0-1.6-0.1-2.4c1.8,0.2,1.8,0.2,1.8,0.4
						c0,0.1-0.1,0.2-0.4,0.3V189.4z M208.2,193.8v0.1c0,0.4-0.2,0.6-0.7,0.6c-0.4,0-0.6-0.2-0.6-0.4c0-0.7,0.1-1.4,0.1-4.3
						c0-0.7,0-1.3-0.1-2c0.7,0.3,0.8,0.3,1.4,0.7h3.6c0.5-0.5,0.6-0.6,0.7-0.6c0.1,0,0.3,0.1,0.7,0.5c0.2,0.2,0.3,0.3,0.3,0.4
						c0,0.1,0,0.2-0.4,0.4v0.8c0,2.1,0.1,3.5,0.1,4c0,0.4-0.2,0.6-0.8,0.6c-0.4,0-0.5-0.1-0.5-0.5v-0.2H208.2z M212,188.7h-3.9v2.1
						h3.9V188.7z M212,191.2h-3.9v2.2h3.9V191.2z M210.2,198.2c0,0.7,0.1,0.7,1.1,0.7c1.2,0,1.6-0.1,1.9-0.3
						c0.2-0.2,0.4-0.4,0.9-1.8c0-0.1,0.2,0,0.2,0c0,0.5-0.1,1.3-0.1,1.5c0,0.2,0,0.2,0.2,0.4c0.2,0.1,0.3,0.3,0.3,0.5
						c0,0.3-0.2,0.6-0.8,0.7c-0.6,0.2-1.4,0.2-2.6,0.2c-2.1,0-2.5-0.3-2.5-1.3c0-0.4,0-0.8,0-2.1c0-0.8,0-1.3-0.1-2
						c1.7,0.2,1.8,0.3,1.8,0.4c0,0.1-0.1,0.2-0.4,0.4V198.2z"/>
					<path class="st0" d="M218.9,192.9c-0.5,0.5-1,1.1-1.6,1.5c-0.1,0-0.2-0.1-0.1-0.1c1-1.2,1.8-3,2.4-4.7c0.3-0.8,0.4-1.6,0.5-2.3
						c1.3,0.3,1.8,0.6,1.8,0.8c0,0.2-0.1,0.3-0.5,0.3c-0.5,1.3-1,2.4-1.7,3.3c0.6,0.1,0.7,0.2,0.7,0.3c0,0.1-0.1,0.2-0.4,0.3v7.3
						c0,0.4-0.2,0.6-0.7,0.6c-0.3,0-0.6-0.1-0.6-0.5c0-0.4,0.1-1.5,0.1-3.7V192.9z M225.8,192.3c0,3.3,0.1,5.4,0.1,7.5
						c0,0.4-0.2,0.5-0.8,0.5c-0.4,0-0.6-0.1-0.6-0.4c0-0.7,0.1-3.7,0.1-6.4c-1,1.7-2.3,3.1-4.1,4.3c-0.1,0-0.2-0.1-0.1-0.1
						c1.8-1.9,2.8-3.7,3.7-6.3h-2.2c-0.3,0-0.5,0-0.9,0.1l-0.2-0.5c0.4,0.1,0.7,0.1,1,0.1h2.8v-1.8c0-0.9,0-1.1-0.1-1.8
						c1.8,0.3,1.9,0.3,1.9,0.5c0,0.1-0.1,0.3-0.5,0.4v2.6h2.2c0.7-0.8,0.8-1,0.9-1c0.1,0,0.3,0.1,0.9,0.7c0.3,0.3,0.4,0.4,0.4,0.5
						c0,0.1,0,0.1-0.2,0.1h-4.2c0.4,1,1.1,2,1.8,2.8c0.8,0.9,1.8,1.6,2.9,2.1c0.1,0,0,0.2,0,0.2c-0.3,0.1-0.6,0.3-0.8,0.8
						c-0.1,0.3-0.2,0.4-0.3,0.4c-0.1,0-0.3-0.1-0.5-0.3c-0.7-0.6-1.4-1.5-1.9-2.3c-0.6-1-1.1-2.1-1.4-3.4V192.3z"/>
					<path class="st0" d="M239.8,196.2c0.6,0.6,1.4,1,2.3,1.4c1.1,0.5,2.3,0.7,3.7,0.8c0.1,0,0.1,0.1,0,0.2c-0.5,0.2-0.6,0.3-1,1.2
						c-0.1,0.1-0.1,0.2-0.2,0.2c-0.1,0-0.4-0.1-0.7-0.2c-0.9-0.3-1.7-0.8-2.5-1.4c-0.7-0.5-1.2-1.1-1.8-1.8c0,1.8,0.1,3.1,0.1,3.5
						c0,0.4-0.2,0.5-0.8,0.5c-0.4,0-0.5-0.2-0.5-0.5c0-0.3,0.1-1.7,0.1-2.9c-1.2,1.3-3.1,2.3-5.5,2.8c-0.1,0-0.1-0.1-0.1-0.1
						c2.1-1,3.6-2.1,4.7-3.6h-3.3c-0.3,0-0.6,0-1,0.1l-0.2-0.5c0.4,0.1,0.8,0.1,1.1,0.1h4.3v-1.3h-2.7c-0.3,0-0.6,0-1,0.1l-0.2-0.5
						c0.4,0.1,0.8,0.1,1.1,0.1h2.8v-1.3h-3.5c-0.3,0-0.6,0-1,0.1l-0.2-0.5c0.4,0.1,0.8,0.1,1.1,0.1h2.3c-0.2-0.1-0.3-0.2-0.4-0.6
						c-0.1-0.4-0.4-0.9-0.7-1.2c-0.1,0,0-0.1,0.1-0.1c1.3,0.2,1.9,0.6,1.9,1.3c0,0.3-0.2,0.6-0.5,0.7h2.3c0.3-0.5,0.4-0.9,0.6-1.2
						c0.1-0.3,0.2-0.6,0.3-0.9c1.1,0.4,1.6,0.7,1.6,0.8s-0.1,0.2-0.6,0.2c-0.5,0.5-1,0.8-1.4,1h2.3c0.7-0.7,0.8-0.8,0.9-0.8
						c0.1,0,0.3,0.1,0.9,0.6c0.3,0.2,0.4,0.3,0.4,0.4c0,0.1,0,0.1-0.2,0.1h-5v1.3h2.2c0.6-0.7,0.8-0.8,0.9-0.8
						c0.1,0,0.3,0.1,0.8,0.5c0.2,0.2,0.4,0.3,0.4,0.4c0,0.1,0,0.1-0.2,0.1h-4v1.3h3.5c0.7-0.8,0.9-0.9,1-0.9c0.1,0,0.3,0.1,0.9,0.6
						c0.3,0.2,0.4,0.4,0.4,0.5c0,0.1,0,0.1-0.2,0.1H239.8z M237.2,188.4c0-0.6,0-0.7-0.1-1c1.6,0.2,1.7,0.3,1.7,0.4
						c0,0.1-0.1,0.2-0.4,0.4v2h1.2v-1.8c0-0.6,0-0.7-0.1-1c1.6,0.2,1.8,0.3,1.8,0.4c0,0.1-0.1,0.2-0.5,0.4v2h0.6
						c0.3-0.6,0.6-1.1,0.8-1.6c0.1-0.3,0.2-0.6,0.3-0.9c1.2,0.5,1.7,0.7,1.7,0.9c0,0.2-0.1,0.3-0.6,0.3c-0.6,0.6-1.2,1.1-1.7,1.3
						h1.6c0.6-0.7,0.8-0.8,0.9-0.8c0.1,0,0.3,0.1,0.9,0.6c0.3,0.2,0.4,0.3,0.4,0.4c0,0.1,0,0.1-0.2,0.1h-11.3c-0.3,0-0.6,0-1,0.1
						l-0.2-0.5c0.5,0.1,0.8,0.1,1.1,0.1h3.1V188.4z M235.7,189.9c-0.3,0-0.4-0.1-0.6-0.5c-0.2-0.6-0.4-1-0.8-1.4
						c-0.1,0,0-0.1,0.1-0.1c1.3,0.2,2,0.7,2,1.3C236.4,189.6,236.1,189.9,235.7,189.9z"/>
					<path class="st0" d="M255.2,197.1c0,1.5,0,2.5,0,2.8c0,0.3-0.3,0.5-0.8,0.5c-0.4,0-0.6-0.1-0.6-0.5c0-0.3,0.1-1.1,0.1-2.8h-4.3
						c-0.3,0-0.6,0-1,0.1l-0.2-0.5c0.5,0.1,0.8,0.1,1.1,0.1h4.4v-0.1c0-0.7,0-1-0.1-1.6c1.6,0.2,1.8,0.2,1.8,0.4
						c0,0.1-0.1,0.2-0.5,0.4v0.8h3.5c0.7-0.9,0.9-1,1-1c0.1,0,0.3,0.1,1,0.7c0.3,0.3,0.4,0.4,0.4,0.5c0,0.1,0,0.1-0.2,0.1H255.2z
						 M249.6,195.1c0,0.4-0.1,0.6-0.3,0.6c-0.2,0-0.4-0.3-0.9-1.5c0.4-0.1,0.8-0.2,1.2-0.3c0.9-0.3,1.8-0.6,2.5-1
						c0.1,0,0.2,0.1,0.1,0.2C251.8,193.7,250.8,194.4,249.6,195.1z M253.9,189.5c1,0.4,1.3,0.5,1.3,0.7c0,0.2,0,0.2-0.5,0.2
						c-0.5,0.5-0.8,0.8-1.2,1.1c0.3,0.3,0.5,0.5,0.5,0.9c0,0.4-0.2,0.7-0.6,0.7c-0.3,0-0.4-0.1-0.6-0.7c-0.2-0.5-0.4-0.9-0.9-1.3
						c-0.1,0,0-0.1,0.1-0.1c0.4,0.1,0.8,0.2,1.1,0.4c0.1-0.3,0.3-0.5,0.4-0.8c0.1-0.3,0.2-0.6,0.3-0.9h-4.2c-0.3,0-0.6,0-1,0.1
						l-0.2-0.5c0.4,0.1,0.8,0.1,1.1,0.1h4.2v-1c0-0.2,0-0.5-0.1-0.8c1.7,0.2,1.9,0.3,1.9,0.5c0,0.1-0.2,0.3-0.5,0.4v0.9h3.3
						c0.8-0.8,0.9-1,1-1c0.1,0,0.3,0.1,0.9,0.7c0.3,0.3,0.4,0.4,0.4,0.5c0,0.1,0,0.1-0.2,0.1H253.9z M250.8,192.6
						c-0.4,0-0.5-0.1-0.7-0.9c-0.2-0.7-0.5-1.1-0.9-1.5c-0.1-0.1,0-0.1,0.1-0.1c1.5,0.4,2.3,1,2.3,1.7
						C251.5,192.3,251.2,192.6,250.8,192.6z M256.1,194c-0.1-0.3-0.3-0.5-0.6-0.8c0-0.1,0-0.1,0.1-0.1c1.2,0.4,1.9,1,1.9,1.7
						c0,0.4-0.3,0.7-0.7,0.7c-0.3,0-0.4-0.1-0.6-0.9c0-0.1-0.1-0.2-0.1-0.3c-1,0.4-2.2,0.7-3.7,0.9c-0.1,0.3-0.1,0.4-0.2,0.4
						c-0.2,0-0.3-0.2-0.6-1.5c0.6,0,1,0,1.4,0c0.7-0.8,1.3-1.6,1.8-2.4c0.2-0.4,0.4-0.8,0.6-1.1c1.2,0.6,1.4,0.8,1.4,1
						c0,0.2,0,0.2-0.6,0.2c-1.3,1.2-2,1.9-2.6,2.4C254.5,194.1,255.3,194.1,256.1,194z M259.6,191.1c-0.8,0.7-1.8,1.2-2.7,1.6
						c-0.1,0-0.2-0.1-0.1-0.1c0.4-0.4,1-1.1,1.4-1.7c0.3-0.4,0.4-0.7,0.5-1c1.1,0.6,1.4,0.8,1.4,1
						C260.1,191.1,260,191.2,259.6,191.1z M259.5,195.4c-0.3,0-0.5-0.1-0.9-0.8c-0.4-0.6-0.7-1-1.3-1.4c-0.1,0,0-0.2,0.1-0.1
						c1.9,0.3,2.8,0.8,2.8,1.6C260.2,195.1,259.9,195.4,259.5,195.4z"/>
					<path class="st0" d="M271.4,197.4c-1.5,1.3-3.5,2.3-5.9,2.9c-0.1,0-0.2-0.2-0.1-0.2c2.1-1,3.9-2.2,5.2-3.6
						c-1.4-1.7-2-3.9-2.4-6c-0.1,2.1-0.5,3.9-1.1,5.4c-0.8,1.9-1.9,3.3-3.5,4.2c-0.1,0-0.2-0.1-0.1-0.2c1.2-1.2,2-2.6,2.6-4.4
						c0.6-1.8,0.8-4,0.8-6.9h-1.4c-0.5,0-0.7,0-1.1,0.1l-0.1-0.5c0.4,0.1,0.7,0.1,1.2,0.1h5.6c0.5-0.6,0.6-0.7,0.7-0.7
						c0.1,0,0.3,0.1,0.8,0.6c0.3,0.2,0.4,0.3,0.4,0.5c0,0.2-0.1,0.3-0.5,0.4c-0.2,0.9-0.4,1.7-0.8,2.5h1.6c0.5-0.6,0.6-0.7,0.7-0.7
						c0.1,0,0.3,0.1,0.9,0.5c0.3,0.3,0.4,0.4,0.4,0.5c0,0.1-0.1,0.2-0.5,0.3c-0.6,1.6-1.4,3-2.5,4.2c1.2,1,2.7,1.7,4.5,2.2
						c0.1,0,0.1,0.1,0,0.2c-0.7,0.2-0.8,0.4-1,1.1c0,0.2-0.1,0.2-0.2,0.2c-0.2,0-0.5-0.2-1-0.4C273.7,199.3,272.3,198.3,271.4,197.4
						L271.4,197.4z M268.3,189.5c0.5,2.3,1.4,4.5,3,6.2c0.9-1.1,1.6-2.4,2-3.7h-1.8l0,0.1c-0.2,0.3-0.3,0.4-0.7,0.4
						c-0.4,0-0.7-0.2-0.7-0.4c0-0.1,0.1-0.2,0.2-0.5c0.3-0.8,0.5-1.3,0.9-2.9h-2.9c0,0.3,0,0.5,0,0.7V189.5z"/>
					<path class="st0" d="M287.5,192.4c0,0.5,0,0.9,0,1.2c0,1.1,0,1.9-0.2,2.7c-0.5,2-1.9,3.3-3.9,3.3c-1.2,0-2-0.4-2.6-1.1
						c-0.5-0.6-0.9-1.5-0.9-2.6c0-1.8,0.6-3.3,1.9-5.1c-0.3,0-0.7,0-0.9,0c-0.5,0-0.9-0.2-1.2-0.5c-0.2-0.3-0.3-0.6-0.3-0.9
						c0-0.1,0-0.2,0.1-0.2c0.1,0,0.1,0.1,0.2,0.1c0.2,0.3,0.4,0.4,1,0.4c0.4,0,1.2-0.1,1.9-0.4c0.2-0.1,0.3-0.2,0.4-0.3
						c0.1-0.1,0.3-0.1,0.4-0.1c0.3,0,0.7,0.3,0.9,0.6c0.1,0.1,0.1,0.1,0.1,0.2c0,0.2-0.1,0.3-0.3,0.4c-0.3,0.1-0.7,0.4-0.9,0.6
						c-0.5,0.5-1.1,1.1-1.5,1.9c-0.6,1-1,2.2-1,3c0,0.9,0.3,1.5,0.6,1.9c0.5,0.5,1.1,0.7,1.9,0.7c2.5,0,3.3-2.1,3.6-4.2
						c0.1-1.1,0.1-1.6,0.1-2.3c0-0.7-0.2-1.2-0.4-1.7c-0.1-0.1-0.1-0.3-0.1-0.6c0-0.3,0.3-0.5,0.7-0.5c0.2,0,0.5,0.1,0.5,0.5
						c0,0.6,0,0.9,0.2,1.4c0.2,0.6,0.4,1.1,1,1.8c0.6,0.8,0.8,1,1.3,1.4c0.3,0.3,0.5,0.6,0.5,0.9c0,0.2-0.1,0.4-0.2,0.5
						c-0.1,0.1-0.1,0.2-0.4,0.2c-0.3,0-0.6-0.2-1.2-0.9C288.4,194.1,288,193.4,287.5,192.4L287.5,192.4z M289.7,189.3
						c0.4,0.3,0.5,0.5,0.5,0.8c0,0.2-0.2,0.5-0.5,0.5c-0.2,0-0.3,0-0.5-0.3c-0.3-0.5-0.5-0.9-0.9-1.2c-0.1-0.1-0.2-0.1-0.2-0.2
						c0-0.1,0-0.1,0.1-0.1c0.1,0,0.2,0,0.2,0C289,188.8,289.4,189,289.7,189.3z M291,188.3c0.3,0.2,0.5,0.4,0.5,0.7
						c0,0.3-0.2,0.5-0.4,0.5c-0.2,0-0.4-0.1-0.5-0.3c-0.3-0.5-0.6-0.8-1-1.1c-0.1,0-0.2-0.1-0.2-0.2c0,0,0-0.1,0-0.1
						c0.1,0,0.1,0,0.2,0C290.2,187.9,290.5,188,291,188.3z"/>
					<path class="st0" d="M188.1,214.2c-0.5,0.4-1,0.8-1.6,1.2c-0.1,0-0.2-0.1-0.1-0.1c0.9-1,1.7-2.2,2.3-3.3
						c0.3-0.5,0.5-1.1,0.6-1.5c1.3,0.6,1.5,0.7,1.5,0.8c0,0.1-0.1,0.2-0.5,0.3c-0.3,0.6-0.8,1.2-1.2,1.7c0.6,0.1,0.7,0.2,0.7,0.3
						c0,0.1-0.1,0.2-0.4,0.3v5.9c0,0.4-0.2,0.6-0.7,0.6c-0.3,0-0.6-0.1-0.6-0.5c0-0.4,0.1-1.5,0.1-3.7V214.2z M190.2,208.5
						c-1.2,1.5-2.1,2.2-3.5,2.9c-0.1,0-0.2-0.1-0.1-0.1c0.6-0.6,1.3-1.6,1.8-2.4c0.3-0.5,0.5-1.1,0.7-1.5c1.1,0.4,1.7,0.7,1.7,0.9
						C190.8,208.5,190.7,208.5,190.2,208.5z M193.5,214.2c1,0.3,1.3,0.4,1.3,0.6s-0.1,0.2-0.6,0.3c-0.1,0.1-0.2,0.2-0.2,0.4h2.4
						c0.5-0.5,0.6-0.6,0.7-0.6c0.1,0,0.3,0.1,0.8,0.5c0.3,0.2,0.3,0.3,0.3,0.4c0,0.2-0.1,0.3-0.7,0.4c-0.5,0.7-1.1,1.2-1.8,1.8
						c1.1,0.5,2.5,0.8,4,0.8c0.1,0,0.1,0.1,0,0.2c-0.4,0.2-0.7,0.5-0.8,1c0,0.2-0.1,0.3-0.2,0.3c-0.1,0-0.4-0.1-0.7-0.2
						c-1-0.3-2.2-0.9-3.1-1.6c-1.5,0.9-3.2,1.5-5.2,1.7c-0.1,0-0.1-0.1-0.1-0.2c1.8-0.6,3.3-1.3,4.6-2.2c-0.4-0.4-0.7-0.9-1-1.5
						c-0.9,1-2,1.6-3.2,2.1c-0.1,0-0.1-0.1-0.1-0.1c1-0.7,2-1.8,2.6-2.8c0.3-0.5,0.5-0.9,0.6-1.4H193c0,0.4-0.3,0.5-0.7,0.5
						c-0.4,0-0.6-0.1-0.6-0.4c0-0.4,0-0.8,0-2.3c0-0.3,0-0.6,0-1c-0.3,0.3-0.6,0.6-0.9,0.8c-0.1,0-0.2,0-0.1-0.1
						c0.5-0.8,1-1.9,1.4-3c0.2-0.5,0.3-1,0.4-1.4c1.4,0.4,1.7,0.6,1.7,0.8c0,0.2-0.1,0.2-0.6,0.3c-0.1,0.2-0.2,0.4-0.4,0.7h4
						c0.7-0.8,0.9-0.9,1-0.9c0.1,0,0.3,0.1,0.9,0.7c0.3,0.2,0.4,0.4,0.4,0.5s0,0.1-0.2,0.1H193c-0.2,0.3-0.4,0.6-0.6,0.8
						c0.2,0.1,0.4,0.2,0.6,0.4h3.7c0.4-0.5,0.5-0.6,0.7-0.6c0.1,0,0.3,0.1,0.8,0.5c0.2,0.2,0.3,0.3,0.3,0.4c0,0.1-0.1,0.2-0.4,0.4
						v0.4c0,1.2,0,2,0,2.2c0,0.4-0.2,0.6-0.7,0.6c-0.3,0-0.5-0.1-0.6-0.4H193.5z M196.8,211H193v1.2h3.8V211z M196.8,212.6H193v1.3
						h3.8V212.6z M193.8,215.8c-0.1,0.2-0.2,0.3-0.3,0.4c0.4,0.5,0.9,0.9,1.4,1.2c0.6-0.5,1.1-1.1,1.5-1.7H193.8z"/>
					<path class="st0" d="M205.8,209.6c0,4.8-0.3,6.4-1.1,7.9c-0.6,1.1-1.4,1.9-2.4,2.6c-0.1,0-0.2-0.1-0.2-0.2
						c0.8-0.9,1.3-1.8,1.7-2.8c0.5-1.5,0.7-2.8,0.7-6.2c0-1.6,0-2.5-0.1-3.3c1.7,0.2,1.8,0.3,1.8,0.5c0,0.2-0.1,0.2-0.5,0.4V209.6z
						 M203.6,211.1c0,2.2,0,3.3,0,3.7c0,0.3-0.3,0.5-0.7,0.5c-0.4,0-0.5-0.1-0.5-0.5c0-0.3,0.1-1.3,0.1-3.6c0-0.8,0-1.2-0.1-1.8
						c1.5,0.2,1.6,0.2,1.6,0.4c0,0.1-0.1,0.2-0.4,0.4V211.1z M213.1,213c0.5-0.6,0.7-0.7,0.8-0.7c0.1,0,0.2,0.1,0.9,0.7
						c0.3,0.3,0.4,0.4,0.4,0.5c0,0.3-0.1,0.3-0.8,0.3c-0.1,0-0.2,0-0.4,0.1c-0.3,0.2-0.5,0.3-0.8,0.5c0,0-0.1,0-0.1-0.1
						c0.1-0.3,0.2-0.8,0.2-1h-6.2c0,0.1,0,0.3,0,0.4c0,0.3-0.1,0.6-0.2,0.8c0.4,0.2,0.6,0.3,1.1,0.5h1.5c0-0.6,0-0.9-0.1-1.5
						c1.7,0.2,1.8,0.2,1.8,0.4c0,0.1-0.1,0.2-0.5,0.4v0.7h1.5c0.5-0.5,0.6-0.6,0.7-0.6c0.1,0,0.3,0.1,0.8,0.5
						c0.2,0.2,0.3,0.3,0.3,0.4c0,0.1-0.1,0.2-0.4,0.4v0.4c0,1.3,0,1.6,0,1.8c0,0.5-0.2,0.8-0.5,1.1c-0.2,0.1-0.6,0.2-0.8,0.2
						c-0.2,0-0.2-0.1-0.3-0.3c-0.1-0.4-0.3-0.6-1-0.8c-0.1,0-0.1-0.2,0-0.2c0.5,0,0.8,0,1.2,0c0.2,0,0.2,0,0.2-0.2v-2.4h-1.7
						c0,2.3,0,3.9,0,4.4c0,0.4-0.3,0.5-0.7,0.5c-0.4,0-0.6-0.1-0.6-0.5c0-0.4,0.1-1.8,0.1-4.5H208v3.2c0,0.4-0.2,0.6-0.7,0.6
						c-0.4,0-0.6-0.1-0.6-0.4c0-0.3,0.1-0.7,0.1-2.2c0-0.6,0-1.1,0-1.7c-0.1,0.1-0.3,0.2-0.5,0.2c-0.4,0-0.6-0.3-0.6-0.7
						c0-0.3,0.1-0.4,0.4-0.6c0.5-0.4,0.7-0.8,0.7-1.4c0-0.1,0.1-0.1,0.2,0c0.1,0.2,0.2,0.5,0.2,0.7H213.1z M212.2,208.5H208
						c-0.3,0-0.5,0-0.9,0.1l-0.2-0.5c0.4,0.1,0.7,0.1,1,0.1h4.1c0.5-0.6,0.6-0.7,0.7-0.7c0.1,0,0.3,0.1,0.8,0.5
						c0.2,0.2,0.3,0.3,0.3,0.4c0,0.1,0,0.1-0.4,0.5v0.5c0,1.2,0,2.1,0,2.3c0,0.4-0.2,0.5-0.8,0.5c-0.4,0-0.5-0.1-0.5-0.5h-4.4
						c-0.2,0-0.5,0-0.8,0.1l-0.2-0.5c0.4,0.1,0.6,0.1,0.9,0.1h4.4v-1.3h-4c-0.2,0-0.5,0-0.8,0.1l-0.2-0.5c0.4,0.1,0.6,0.1,0.9,0.1h4
						V208.5z"/>
					<path class="st0" d="M224.4,217.1c0,1.5,0,2.5,0,2.8c0,0.3-0.3,0.5-0.8,0.5c-0.4,0-0.6-0.1-0.6-0.5c0-0.3,0.1-1.1,0.1-2.8h-4.3
						c-0.3,0-0.6,0-1,0.1l-0.2-0.5c0.5,0.1,0.8,0.1,1.1,0.1h4.4v-0.1c0-0.7,0-1-0.1-1.6c1.6,0.2,1.8,0.2,1.8,0.4
						c0,0.1-0.1,0.2-0.5,0.4v0.8h3.5c0.7-0.9,0.9-1,1-1c0.1,0,0.3,0.1,1,0.7c0.3,0.3,0.4,0.4,0.4,0.5c0,0.1,0,0.1-0.2,0.1H224.4z
						 M218.8,215.1c0,0.4-0.1,0.6-0.3,0.6c-0.2,0-0.4-0.3-0.9-1.5c0.4-0.1,0.8-0.2,1.2-0.3c0.9-0.3,1.8-0.6,2.5-1
						c0.1,0,0.2,0.1,0.1,0.2C221,213.7,220,214.4,218.8,215.1z M223.1,209.5c1,0.4,1.3,0.5,1.3,0.7c0,0.2,0,0.2-0.5,0.2
						c-0.5,0.5-0.8,0.8-1.2,1.1c0.3,0.3,0.5,0.5,0.5,0.9c0,0.4-0.2,0.7-0.6,0.7s-0.4-0.1-0.6-0.7c-0.2-0.5-0.4-0.9-0.9-1.3
						c-0.1,0,0-0.1,0.1-0.1c0.4,0.1,0.8,0.2,1.1,0.4c0.1-0.3,0.3-0.5,0.4-0.8c0.1-0.3,0.2-0.6,0.3-0.9h-4.2c-0.3,0-0.6,0-1,0.1
						l-0.2-0.5c0.4,0.1,0.8,0.1,1.1,0.1h4.2v-1c0-0.2,0-0.5-0.1-0.8c1.7,0.2,1.9,0.3,1.9,0.5c0,0.1-0.2,0.3-0.5,0.4v0.9h3.3
						c0.8-0.8,0.9-1,1-1c0.1,0,0.3,0.1,0.9,0.7c0.3,0.3,0.4,0.4,0.4,0.5c0,0.1,0,0.1-0.2,0.1H223.1z M220,212.6
						c-0.4,0-0.5-0.1-0.7-0.9c-0.2-0.7-0.5-1.1-0.9-1.5c-0.1-0.1,0-0.1,0.1-0.1c1.5,0.4,2.3,1,2.3,1.7
						C220.7,212.3,220.4,212.6,220,212.6z M225.3,214c-0.1-0.3-0.3-0.5-0.6-0.8c0-0.1,0-0.1,0.1-0.1c1.2,0.4,1.9,1,1.9,1.7
						c0,0.4-0.3,0.7-0.7,0.7c-0.3,0-0.4-0.1-0.6-0.9c0-0.1-0.1-0.2-0.1-0.3c-1,0.4-2.2,0.7-3.7,0.9c-0.1,0.3-0.1,0.4-0.2,0.4
						c-0.2,0-0.3-0.2-0.6-1.5c0.6,0,1,0,1.4,0c0.7-0.8,1.3-1.6,1.8-2.4c0.2-0.4,0.4-0.8,0.6-1.1c1.2,0.6,1.4,0.8,1.4,1
						c0,0.2,0,0.2-0.6,0.2c-1.3,1.2-2,1.9-2.6,2.4C223.7,214.1,224.5,214.1,225.3,214z M228.8,211.1c-0.8,0.7-1.8,1.2-2.7,1.6
						c-0.1,0-0.2-0.1-0.1-0.1c0.4-0.4,1-1.1,1.4-1.7c0.3-0.4,0.4-0.7,0.5-1c1.1,0.6,1.4,0.8,1.4,1
						C229.3,211.1,229.2,211.2,228.8,211.1z M228.7,215.4c-0.4,0-0.5-0.1-0.9-0.8c-0.4-0.6-0.7-1-1.3-1.4c-0.1,0,0-0.2,0.1-0.1
						c1.9,0.3,2.8,0.8,2.8,1.6C229.4,215.1,229.1,215.4,228.7,215.4z"/>
				</g>
			</g>
		</g>
	</g>
	<g>
		<g>
			<g>
				<g>
					<path class="st0" d="M136.2,332.6c0,2.2-1.3,3.5-2.9,3.5c-1.6,0-2.9-1.2-2.9-3.4c0-2.1,1.3-3.5,2.9-3.5
						S136.2,330.5,136.2,332.6z M131.9,332.7c0,1.9,0.5,3,1.3,3c0.9,0,1.4-1.1,1.4-3c0-2-0.5-3-1.4-3
						C132.4,329.7,131.9,330.7,131.9,332.7z M132.9,341.5l7.9-12.8l0.5,0.3l-7.9,12.8L132.9,341.5z M143.8,337.7
						c0,2.2-1.3,3.5-2.9,3.5c-1.6,0-2.9-1.3-2.9-3.4s1.3-3.5,2.9-3.5C142.5,334.3,143.8,335.5,143.8,337.7z M139.6,337.7
						c0,1.9,0.5,3,1.4,3s1.3-1.1,1.3-3s-0.5-3-1.3-3C140.1,334.7,139.6,335.8,139.6,337.7z"/>
				</g>
			</g>
		</g>
	</g>
	<g>
		<g>
			<g>
				<g>
					<path class="st0" d="M291.3,332.6c0,2.2-1.3,3.5-2.9,3.5c-1.6,0-2.9-1.2-2.9-3.4c0-2.1,1.3-3.5,2.9-3.5
						S291.3,330.5,291.3,332.6z M287.1,332.7c0,1.9,0.5,3,1.3,3c0.9,0,1.4-1.1,1.4-3c0-2-0.5-3-1.4-3
						C287.5,329.7,287.1,330.7,287.1,332.7z M288.1,341.5l7.9-12.8l0.5,0.3l-7.9,12.8L288.1,341.5z M299,337.7
						c0,2.2-1.3,3.5-2.9,3.5c-1.6,0-2.9-1.3-2.9-3.4s1.3-3.5,2.9-3.5C297.6,334.3,299,335.5,299,337.7z M294.7,337.7
						c0,1.9,0.5,3,1.4,3c0.8,0,1.3-1.1,1.3-3s-0.5-3-1.3-3C295.2,334.7,294.7,335.8,294.7,337.7z"/>
				</g>
			</g>
		</g>
	</g>
	<g>
		<g>
			<path class="st3" d="M199,340l0-0.5h1c0.7,0,1.3-0.2,1.8-0.7c0.5-0.5,0.7-1.1,0.7-1.7v-23.3c0-1.2-0.3-2-0.8-2.5
				c-0.6-0.5-1.3-0.7-2.2-0.7h-0.8v-0.5c0.6,0,1.5-0.1,2.6-0.3c1.1-0.1,2.3-0.3,3.5-0.6c1.3-0.2,2.5-0.5,3.7-0.9s2.2-0.8,3-1.3h0.5
				v29.9c0,0.7,0.3,1.2,0.8,1.7s1.1,0.7,1.8,0.7h1v0.5H199z"/>
			<path class="st3" d="M232.7,307.2c3,0,5.6,0.7,7.7,2.1s3.7,3.3,4.9,5.8c1.1,2.5,1.7,5.4,1.7,8.8c0,3.3-0.6,6.3-1.7,8.8
				c-1.1,2.5-2.8,4.5-4.9,5.9c-2.1,1.4-4.7,2.1-7.7,2.1c-3,0-5.5-0.7-7.7-2.1c-2.1-1.4-3.8-3.3-4.9-5.9c-1.1-2.5-1.7-5.4-1.7-8.8
				c0-3.4,0.6-6.3,1.7-8.8c1.1-2.5,2.8-4.4,4.9-5.8C227.1,307.9,229.7,307.2,232.7,307.2z M232.7,309.5c-1.6,0-2.8,1.2-3.5,3.5
				c-0.7,2.3-1.1,6-1.1,10.9s0.4,8.6,1.1,10.9c0.7,2.3,1.9,3.5,3.5,3.5c1.6,0,2.8-1.2,3.5-3.5c0.7-2.3,1.1-6,1.1-10.9
				s-0.4-8.6-1.1-10.9C235.4,310.6,234.3,309.5,232.7,309.5z"/>
			<path class="st3" d="M264.4,307.2c3,0,5.6,0.7,7.7,2.1s3.7,3.3,4.9,5.8c1.1,2.5,1.7,5.4,1.7,8.8c0,3.3-0.6,6.3-1.7,8.8
				c-1.1,2.5-2.8,4.5-4.9,5.9c-2.1,1.4-4.7,2.1-7.7,2.1c-3,0-5.5-0.7-7.7-2.1c-2.1-1.4-3.8-3.3-4.9-5.9c-1.1-2.5-1.7-5.4-1.7-8.8
				c0-3.4,0.6-6.3,1.7-8.8c1.1-2.5,2.8-4.4,4.9-5.8C258.9,307.9,261.4,307.2,264.4,307.2z M264.4,309.5c-1.6,0-2.8,1.2-3.5,3.5
				c-0.7,2.3-1.1,6-1.1,10.9s0.4,8.6,1.1,10.9c0.7,2.3,1.9,3.5,3.5,3.5c1.6,0,2.8-1.2,3.5-3.5c0.7-2.3,1.1-6,1.1-10.9
				s-0.4-8.6-1.1-10.9C267.2,310.6,266,309.5,264.4,309.5z"/>
		</g>
	</g>
	<g>
		<g>
			<g>
				<g>
					<path class="st0" d="M27.4,189.4c-0.3,0.7-0.6,1.3-1,1.9l0.1,0h4.4c0.5-0.6,0.6-0.6,0.8-0.6c0.1,0,0.3,0.1,0.8,0.6
						c0.3,0.2,0.3,0.3,0.3,0.4c0,0.1,0,0.2-0.4,0.4v1c0,3.9,0,4.3,0,4.9c0,0.6-0.1,0.9-0.4,1.1c-0.3,0.2-0.7,0.4-1.1,0.4
						c-0.2,0-0.2-0.1-0.3-0.3c-0.1-0.6-0.4-0.8-1.7-1.1c-0.1,0-0.1-0.2,0-0.2c0.8,0.1,1.2,0.1,1.9,0.1c0.2,0,0.2,0,0.2-0.2v-1.9
						h-4.7c0,1.5,0,2.3,0,3.1c0,0.4-0.3,0.6-0.8,0.6c-0.4,0-0.6-0.1-0.6-0.4c0-0.3,0.1-1.6,0.1-2.7v-3.5c-0.8,0.8-1.8,1.5-2.9,2.1
						c-0.1,0-0.2-0.1-0.1-0.2c1.8-1.4,3.2-3.4,4.1-5.4h-2.7c-0.3,0-0.7,0-1.1,0.1L22,189c0.5,0.1,0.9,0.1,1.2,0.1h2.8
						c0.3-0.8,0.5-1.6,0.7-2.4c1.4,0.3,1.8,0.5,1.8,0.7c0,0.2-0.2,0.3-0.6,0.4c-0.2,0.5-0.3,1-0.5,1.4h4.7c0.7-0.8,0.9-0.9,1-0.9
						c0.1,0,0.3,0.1,1,0.6c0.3,0.3,0.4,0.4,0.4,0.5c0,0.1,0,0.1-0.2,0.1H27.4z M31,193.4v-1.7h-4.7v1.7H31z M26.3,195.5H31v-1.8
						h-4.7V195.5z"/>
					<path class="st0" d="M39.1,195.2c-0.5,1.4-0.9,2.4-1.7,3.3c0,0.1-0.2,0-0.2-0.1c0.2-0.8,0.5-1.8,0.6-2.6
						c0.1-0.6,0.1-1.1,0.1-1.5c1.3,0.4,1.5,0.5,1.5,0.7C39.5,195.1,39.4,195.2,39.1,195.2z M39,192.5c0.4-0.7,0.9-1.6,1.3-2.4
						c0.3-0.7,0.6-1.3,0.7-1.7c1.1,0.5,1.6,0.7,1.6,0.9c0,0.1-0.1,0.2-0.5,0.2c-1,1.3-1.4,1.8-2.6,3c0.4,0,1.4,0,2.1-0.1
						c-0.1-0.3-0.3-0.7-0.5-1.1c0-0.1,0.1-0.1,0.1-0.1c0.5,0.2,0.8,0.5,1.1,0.8c1-1.2,1.7-2.5,2.2-3.8c0.2-0.6,0.4-1.1,0.5-1.7
						c1.5,0.4,1.8,0.5,1.8,0.7c0,0.2-0.1,0.2-0.5,0.3c0.4,0.9,1,1.7,1.7,2.2c0.7,0.6,1.5,1.1,2.5,1.3c0.1,0,0.1,0.1,0,0.1
						c-0.4,0.2-0.6,0.5-0.7,1c-0.1,0.2-0.1,0.3-0.2,0.3c-0.1,0-0.2-0.1-0.5-0.3c-0.6-0.5-1.1-1.1-1.6-1.7c-0.5-0.7-0.9-1.6-1.3-2.8
						c-0.8,1.8-2,3.4-3.7,4.6c0.3,0.3,0.4,0.6,0.4,1c0,0.4-0.3,0.7-0.6,0.7c-0.4,0-0.5-0.1-0.6-1l0-0.2c-0.3,0.1-0.6,0.2-0.9,0.3v2
						c0,1.5,0,3.4,0,4c0,0.4-0.3,0.5-0.7,0.5c-0.4,0-0.6-0.1-0.6-0.4c0-0.3,0.1-1.2,0.1-3.1v-2.7c-0.4,0.1-0.9,0.2-1.3,0.3
						c-0.1,0.3-0.2,0.4-0.3,0.4c-0.2,0-0.3-0.3-0.5-1.5c0.4,0,0.5,0,0.7,0H39z M39.3,187.7c0.1-0.4,0.2-0.8,0.2-1.1
						c1.1,0.4,1.7,0.6,1.7,0.8c0,0.2-0.2,0.3-0.5,0.3c-0.9,1.2-1,1.3-1.5,1.8c0.4,0.3,0.6,0.6,0.6,1c0,0.5-0.3,0.8-0.6,0.8
						s-0.4-0.1-0.6-0.9c-0.2-0.6-0.3-1-0.8-1.4c0-0.1,0-0.2,0.1-0.2c0.4,0.1,0.8,0.3,1.1,0.4C39.1,188.8,39.2,188.2,39.3,187.7z
						 M41.9,197.4c-0.3,0-0.5-0.3-0.5-1.1c0-0.7-0.2-1.4-0.4-1.8c0-0.1,0-0.1,0.1-0.1c1,0.8,1.4,1.5,1.4,2.2
						C42.5,197,42.2,197.4,41.9,197.4z M44.3,198.5v0.5c0,0.3-0.2,0.5-0.8,0.5c-0.4,0-0.5-0.2-0.5-0.5c0-0.6,0.1-1.1,0.1-3.4
						c0-0.7,0-1.4-0.1-2.1c0.7,0.3,0.8,0.4,1.5,0.7h2.9c0.5-0.6,0.6-0.7,0.7-0.7c0.1,0,0.3,0.1,0.7,0.5c0.2,0.2,0.3,0.3,0.3,0.4
						c0,0.1-0.1,0.2-0.4,0.4v0.7c0,1.8,0.1,3,0.1,3.4c0,0.3-0.2,0.5-0.8,0.5c-0.4,0-0.5-0.1-0.5-0.4v-0.5H44.3z M46.4,192
						c0.5-0.7,0.7-0.8,0.8-0.8c0.1,0,0.3,0.1,0.8,0.6c0.2,0.2,0.4,0.3,0.4,0.4s0,0.1-0.2,0.1h-3.7c-0.2,0-0.5,0-0.8,0.1l-0.2-0.5
						c0.4,0.1,0.6,0.1,0.9,0.1H46.4z M47.5,194.5h-3.2v3.6h3.2V194.5z"/>
					<path class="st0" d="M54,187.8h-0.3c-0.2,0-0.4,0-0.7,0.1l-0.2-0.5c0.4,0.1,0.6,0.1,0.9,0.1h4.7c0.6-0.7,0.8-0.8,0.9-0.8
						c0.1,0,0.3,0.1,0.8,0.5c0.3,0.2,0.4,0.3,0.4,0.4c0,0.1,0,0.1-0.2,0.1h-1.7v4c0,2.7,0,6,0,7.1c0,0.4-0.2,0.6-0.8,0.6
						c-0.4,0-0.6-0.1-0.6-0.5c0-0.3,0.1-1.1,0.1-2.7v-0.4c-0.8,0.5-2.1,1.1-3.5,1.6c-0.1,0.4-0.2,0.5-0.4,0.5c-0.2,0-0.2,0-0.7-1.7
						c0.4,0,0.8-0.1,1.3-0.1V187.8z M55.2,190.2h2.1v-2.4h-2.1V190.2z M55.2,192.8h2.1v-2.3h-2.1V192.8z M55.2,195.9
						c0.7-0.1,1.4-0.3,2.1-0.4v-2.3h-2.1V195.9z M63.3,189c0.6-0.6,0.7-0.7,0.8-0.7c0.1,0,0.3,0.1,0.8,0.5c0.4,0.3,0.4,0.4,0.4,0.5
						c0,0.2-0.1,0.3-0.5,0.4c-0.4,2.2-1.1,4-2,5.5c0.8,0.9,1.9,1.6,3.2,2.3c0.1,0,0,0.1,0,0.2c-0.4,0.2-0.6,0.4-0.8,0.9
						c-0.1,0.3-0.1,0.4-0.3,0.4c-0.1,0-0.3-0.1-0.5-0.3c-1-0.8-1.8-1.5-2.4-2.4c-0.9,1.1-2,1.9-3.3,2.6c-0.1,0-0.2-0.1-0.1-0.2
						c1.1-0.9,2-2.1,2.8-3.4l-0.3-0.6c-0.6-1.5-1.1-3.2-1.3-5.4c-0.3,0-0.6,0-0.9,0.1l-0.1-0.5c0.4,0.1,0.7,0.1,1.2,0.1H63.3z
						 M60.2,189.3c0.3,1.8,0.8,3.4,1.8,5c0.7-1.5,1.1-3.2,1.4-5H60.2z"/>
					<path class="st0" d="M69.8,193.2c-0.5,0.4-1.1,0.8-1.7,1.2c-0.1,0-0.2-0.1-0.1-0.1c0.9-0.9,1.8-2.1,2.4-3.2
						c0.3-0.5,0.5-1.1,0.6-1.5c1.5,0.6,1.5,0.7,1.5,0.8c0,0.1-0.1,0.2-0.5,0.3c-0.3,0.6-0.8,1.1-1.3,1.7c0.6,0.1,0.7,0.2,0.7,0.3
						c0,0.1-0.1,0.2-0.4,0.3v6c0,0.4-0.2,0.6-0.7,0.6c-0.3,0-0.6-0.1-0.6-0.5c0-0.4,0.1-1.5,0.1-3.7V193.2z M71.8,187.8
						c-1.2,1.4-2.2,2.2-3.6,2.8c-0.1,0-0.1-0.1-0.1-0.2c0.6-0.6,1.4-1.5,1.9-2.4c0.3-0.6,0.6-1.1,0.7-1.5c1.2,0.5,1.7,0.8,1.7,1
						C72.4,187.7,72.3,187.8,71.8,187.8z M78.7,196.2c0,0.7,0,1.3,0,2c0,0.4-0.1,0.7-0.4,0.9c-0.2,0.3-0.6,0.4-1.1,0.4
						c-0.2,0-0.3-0.1-0.3-0.3c-0.1-0.5-0.4-0.7-1.5-1c-0.1,0-0.1-0.2,0-0.2c0.7,0,1.2,0.1,1.7,0.1c0.2,0,0.2,0,0.2-0.2V195H73
						c-0.3,0-0.6,0-1,0.1l-0.2-0.5c0.5,0.1,0.8,0.1,1.2,0.1h4.5v-0.3c0-0.4,0-0.6-0.1-1.1c1.5,0.2,1.7,0.2,1.7,0.4
						c0,0.1-0.1,0.2-0.4,0.3v0.6h0.5c0.5-0.6,0.7-0.7,0.8-0.7c0.1,0,0.3,0.1,0.8,0.5c0.2,0.2,0.3,0.3,0.3,0.4c0,0.1,0,0.1-0.2,0.1
						h-2.2V196.2z M78.9,192.8c0.5-0.7,0.7-0.8,0.8-0.8c0.1,0,0.3,0.1,0.8,0.5c0.3,0.2,0.4,0.3,0.4,0.4c0,0.1,0,0.1-0.2,0.1h-7.6
						c-0.3,0-0.6,0-1,0.1l-0.2-0.5c0.4,0.1,0.8,0.1,1.1,0.1H78.9z M74.4,191.4c0,0.4-0.2,0.6-0.7,0.6c-0.4,0-0.6-0.1-0.6-0.4
						c0-0.4,0.1-0.7,0.1-2.2c0-0.8,0-1.6-0.1-2.4c0.6,0.3,0.7,0.3,1.4,0.7h3.4c0.5-0.5,0.6-0.6,0.7-0.6c0.1,0,0.3,0.1,0.7,0.5
						c0.2,0.2,0.3,0.3,0.3,0.4c0,0.1,0,0.2-0.4,0.4v0.5c0,1.3,0.1,2.3,0.1,2.6c0,0.4-0.2,0.6-0.7,0.6c-0.4,0-0.6-0.1-0.6-0.5v0H74.4
						z M74.7,197.8c-0.4,0-0.5-0.1-0.6-0.8c-0.2-0.6-0.4-1.1-0.8-1.4c0-0.1,0-0.2,0.1-0.1c1.4,0.3,2,0.9,2,1.5
						C75.5,197.6,75.1,197.8,74.7,197.8z M78.1,187.9h-3.7v1.4h3.7V187.9z M78.1,189.6h-3.7v1.4h3.7V189.6z"/>
					<path class="st0" d="M90.4,196.3c0,1.5,0,2.5,0,2.8c0,0.3-0.3,0.5-0.8,0.5c-0.4,0-0.6-0.1-0.6-0.5c0-0.3,0.1-1.1,0.1-2.8h-4.3
						c-0.3,0-0.6,0-1,0.1l-0.2-0.5c0.5,0.1,0.8,0.1,1.1,0.1h4.4v-0.1c0-0.7,0-1-0.1-1.6c1.6,0.2,1.8,0.2,1.8,0.4
						c0,0.1-0.1,0.2-0.5,0.4v0.8h3.5c0.7-0.9,0.9-1,1-1c0.1,0,0.3,0.1,1,0.7c0.3,0.3,0.4,0.4,0.4,0.5c0,0.1,0,0.1-0.2,0.1H90.4z
						 M84.9,194.4c0,0.4-0.1,0.6-0.3,0.6c-0.2,0-0.4-0.3-0.9-1.5c0.4-0.1,0.8-0.2,1.2-0.3c0.9-0.3,1.8-0.6,2.5-1
						c0.1,0,0.2,0.1,0.1,0.2C87,192.9,86.1,193.7,84.9,194.4z M89.2,188.7c1,0.4,1.3,0.5,1.3,0.7c0,0.2,0,0.2-0.5,0.2
						c-0.5,0.5-0.8,0.8-1.2,1.1c0.3,0.3,0.5,0.5,0.5,0.9c0,0.4-0.2,0.7-0.6,0.7c-0.3,0-0.4-0.1-0.6-0.7c-0.2-0.5-0.4-0.9-0.9-1.3
						c-0.1,0,0-0.1,0.1-0.1c0.4,0.1,0.8,0.2,1.1,0.4c0.1-0.3,0.3-0.5,0.4-0.8c0.1-0.3,0.2-0.6,0.3-0.9h-4.2c-0.3,0-0.6,0-1,0.1
						l-0.2-0.5c0.4,0.1,0.8,0.1,1.1,0.1h4.2v-1c0-0.2,0-0.5-0.1-0.8c1.7,0.2,1.9,0.3,1.9,0.5c0,0.1-0.2,0.3-0.5,0.4v0.9h3.3
						c0.8-0.8,0.9-1,1-1c0.1,0,0.3,0.1,0.9,0.7c0.3,0.3,0.4,0.4,0.4,0.5c0,0.1,0,0.1-0.2,0.1H89.2z M86.1,191.9
						c-0.4,0-0.5-0.1-0.7-0.9c-0.2-0.7-0.5-1.1-0.9-1.5c-0.1-0.1,0-0.1,0.1-0.1c1.5,0.4,2.3,1,2.3,1.7
						C86.8,191.5,86.4,191.9,86.1,191.9z M91.3,193.3c-0.1-0.3-0.3-0.5-0.6-0.8c0-0.1,0-0.1,0.1-0.1c1.2,0.4,1.9,1,1.9,1.7
						c0,0.4-0.3,0.7-0.7,0.7c-0.3,0-0.4-0.1-0.6-0.9c0-0.1-0.1-0.2-0.1-0.3c-1,0.4-2.2,0.7-3.7,0.9c-0.1,0.3-0.1,0.4-0.2,0.4
						c-0.2,0-0.3-0.2-0.6-1.5c0.6,0,1,0,1.4,0c0.7-0.8,1.3-1.6,1.8-2.4c0.2-0.4,0.4-0.8,0.6-1.1c1.2,0.6,1.4,0.8,1.4,1
						c0,0.2,0,0.2-0.6,0.2c-1.3,1.2-2,1.9-2.6,2.4C89.7,193.4,90.5,193.3,91.3,193.3z M94.8,190.4c-0.8,0.7-1.8,1.2-2.7,1.6
						c-0.1,0-0.2-0.1-0.1-0.1c0.4-0.4,1-1.1,1.4-1.7c0.3-0.4,0.4-0.7,0.5-1c1.1,0.6,1.4,0.8,1.4,1C95.4,190.3,95.3,190.4,94.8,190.4
						z M94.7,194.6c-0.4,0-0.5-0.1-0.9-0.8c-0.4-0.6-0.7-1-1.3-1.4c-0.1,0,0-0.2,0.1-0.1c1.9,0.3,2.8,0.8,2.8,1.6
						C95.4,194.3,95.1,194.6,94.7,194.6z"/>
				</g>
			</g>
		</g>
	</g>
	<line class="st4" x1="167" y1="165.5" x2="167" y2="366.2"/>
	<line class="st4" x1="-0.5" y1="165.5" x2="334.5" y2="165.5"/>
	<g>
		<rect x="52.5" y="217.8" class="st0" width="69" height="38.5"/>
		<g>
			<g>
				<path class="st5" d="M67.3,263.6c3.6,0,6.5-2.9,6.5-6.5c0-3.6-2.9-6.5-6.5-6.5c-3.6,0-6.5,2.9-6.5,6.5
					C60.7,260.7,63.7,263.6,67.3,263.6z"/>
				<path class="st5" d="M67.3,267.1c-4.8,0-8.3,5.7-8.3,9.2c0,3.5,0,7,0,7h16.6c0,0,0-3.5,0-7C75.6,272.7,72.1,267.1,67.3,267.1z"
					/>
				<path class="st5" d="M88.1,263.6c3.6,0,6.5-2.9,6.5-6.5c0-3.6-2.9-6.5-6.5-6.5c-3.6,0-6.5,2.9-6.5,6.5
					C81.5,260.7,84.4,263.6,88.1,263.6z"/>
				<path class="st5" d="M88.1,267.1c-4.8,0-8.3,5.7-8.3,9.2c0,3.5,0,7,0,7h16.6c0,0,0-3.5,0-7C96.3,272.7,92.8,267.1,88.1,267.1z"
					/>
				<path class="st5" d="M106.8,268.4c2.7,0,4.9-2.2,4.9-4.9c0-2.7-2.2-4.9-4.9-4.9c-2.7,0-4.9,2.2-4.9,4.9
					C101.9,266.2,104.1,268.4,106.8,268.4z"/>
				<path class="st5" d="M106.8,271.1c-3.6,0-6.2,4.3-6.2,6.9c0,2.6,0,5.2,0,5.2H113c0,0,0-2.6,0-5.2
					C113,275.3,110.4,271.1,106.8,271.1z"/>
			</g>
			<g>
				<path class="st0" d="M67.3,263.6c3.6,0,6.5-2.9,6.5-6.5c0-3.6-2.9-6.5-6.5-6.5c-3.6,0-6.5,2.9-6.5,6.5
					C60.7,260.7,63.7,263.6,67.3,263.6z"/>
				<path class="st0" d="M67.3,267.1c-4.8,0-8.3,5.7-8.3,9.2c0,3.5,0,7,0,7h16.6c0,0,0-3.5,0-7C75.6,272.7,72.1,267.1,67.3,267.1z"
					/>
				<path class="st0" d="M88.1,263.6c3.6,0,6.5-2.9,6.5-6.5c0-3.6-2.9-6.5-6.5-6.5c-3.6,0-6.5,2.9-6.5,6.5
					C81.5,260.7,84.4,263.6,88.1,263.6z"/>
				<path class="st0" d="M88.1,267.1c-4.8,0-8.3,5.7-8.3,9.2c0,3.5,0,7,0,7h16.6c0,0,0-3.5,0-7C96.3,272.7,92.8,267.1,88.1,267.1z"
					/>
				<path class="st0" d="M106.8,268.4c2.7,0,4.9-2.2,4.9-4.9c0-2.7-2.2-4.9-4.9-4.9c-2.7,0-4.9,2.2-4.9,4.9
					C101.9,266.2,104.1,268.4,106.8,268.4z"/>
				<path class="st0" d="M106.8,271.1c-3.6,0-6.2,4.3-6.2,6.9c0,2.6,0,5.2,0,5.2H113c0,0,0-2.6,0-5.2
					C113,275.3,110.4,271.1,106.8,271.1z"/>
			</g>
		</g>
		<rect x="52.5" y="282.7" class="st0" width="69" height="4.5"/>
	</g>
	<g>
		<g>
			<path class="st3" d="M144.8,106.6l-4-10.8c1.2-1,2.6-1.9,4.4-2.6c1.7-0.7,3.5-1.2,5.5-1.6c2-0.4,3.9-0.5,5.9-0.5
				c3.2,0,6.2,0.5,8.8,1.5c2.6,1,4.7,2.4,6.2,4.2c1.5,1.8,2.2,4,2.2,6.6c0,1.9-0.4,3.7-1.2,5.4c-0.8,1.7-1.9,3.2-3.2,4.7
				s-2.8,2.8-4.3,4c-1.6,1.2-3.1,2.3-4.6,3.3c-1.5,1-2.9,1.9-4.1,2.6h11.4c1.2,0,2.3-0.2,3.3-0.7c1-0.5,1.9-1.1,2.7-2.1
				c0.8-0.9,1.6-2.1,2.2-3.5h0.6l-4.1,16.9h-31.2v-0.6c1.7-2.1,3.5-4.2,5.3-6.4c1.8-2.1,3.6-4.2,5.3-6.3c1.7-2.1,3.2-4.2,4.6-6.3
				c1.4-2.1,2.4-4.1,3.2-6.2c0.8-2,1.2-4.1,1.2-6.1c0-2.6-0.7-4.6-2.1-6.1c-1.4-1.5-3.3-2.1-5.6-1.9c-2.5,0.2-4.4,1.3-5.7,3.5
				c-1.3,2.1-2,5.1-2,9H144.8z"/>
			<path class="st3" d="M180.5,92.1l31.8-0.1l-7.7,17.8c-0.5,1.2-1.1,2.6-1.7,4.2c-0.6,1.6-1.2,3.4-1.9,5.3
				c-0.6,1.9-1.3,3.7-1.9,5.6c-0.6,1.8-1.2,3.6-1.7,5.1c-0.5,1.6-0.9,2.9-1.2,4h-10.2c0.7-1.2,1.6-2.6,2.6-4.3c1-1.7,2-3.5,3.1-5.4
				s2.2-3.8,3.2-5.7c1.1-1.9,2-3.7,2.9-5.3s1.5-3,2-4l3.1-6.7h-19.2c-1.2,0-2.1,0.3-2.8,0.9c-0.7,0.6-1.2,1.5-1.7,2.7h-0.6
				L180.5,92.1z"/>
			<path class="st3" d="M220.3,134.8c-1.5,0-2.8-0.5-3.8-1.6c-1.1-1.1-1.6-2.3-1.6-3.8c0-1.5,0.5-2.8,1.6-3.8c1.1-1,2.3-1.6,3.8-1.6
				c1.5,0,2.8,0.5,3.8,1.6c1,1,1.6,2.3,1.6,3.8c0,1.5-0.5,2.8-1.6,3.8S221.8,134.8,220.3,134.8z"/>
			<path class="st3" d="M233.6,106.6l-4-10.8c1.2-1,2.6-1.9,4.4-2.6c1.7-0.7,3.5-1.2,5.5-1.6c2-0.4,3.9-0.5,5.9-0.5
				c3.2,0,6.2,0.5,8.8,1.5c2.6,1,4.7,2.4,6.2,4.2c1.5,1.8,2.2,4,2.2,6.6c0,1.9-0.4,3.7-1.2,5.4c-0.8,1.7-1.9,3.2-3.2,4.7
				s-2.8,2.8-4.3,4c-1.6,1.2-3.1,2.3-4.6,3.3c-1.5,1-2.9,1.9-4.1,2.6h11.4c1.2,0,2.3-0.2,3.3-0.7c1-0.5,1.9-1.1,2.7-2.1
				c0.8-0.9,1.6-2.1,2.2-3.5h0.6l-4.1,16.9H230v-0.6c1.7-2.1,3.5-4.2,5.3-6.4c1.8-2.1,3.6-4.2,5.3-6.3s3.2-4.2,4.6-6.3
				c1.4-2.1,2.4-4.1,3.2-6.2c0.8-2,1.2-4.1,1.2-6.1c0-2.6-0.7-4.6-2.1-6.1c-1.4-1.5-3.2-2.1-5.6-1.9c-2.5,0.2-4.4,1.3-5.7,3.5
				c-1.3,2.1-2,5.1-2,9H233.6z"/>
		</g>
	</g>
	<g>
		<g>
			<path class="st3" d="M32.1,307.9l24.4-0.1l-5.9,13.7c-0.4,0.9-0.8,2-1.3,3.2c-0.5,1.3-0.9,2.6-1.4,4c-0.5,1.4-1,2.9-1.4,4.3
				c-0.5,1.4-0.9,2.7-1.3,3.9c-0.4,1.2-0.7,2.2-0.9,3.1h-7.8c0.6-0.9,1.2-2,2-3.3c0.8-1.3,1.6-2.7,2.4-4.2c0.8-1.5,1.6-2.9,2.5-4.4
				c0.8-1.5,1.5-2.8,2.2-4c0.6-1.2,1.2-2.3,1.6-3.1l2.4-5.1H34.8c-0.9,0-1.6,0.2-2.2,0.7c-0.5,0.5-1,1.2-1.3,2.1h-0.5L32.1,307.9z"
				/>
			<path class="st3" d="M62.3,341.7l-0.2-0.3c3.3-1,5.8-2.1,7.7-3.4c1.9-1.3,3.2-2.7,4.1-4.3c0.9-1.6,1.4-3.4,1.6-5.4
				c0.2-2,0.3-4.3,0.3-6.8c0-2.5-0.1-4.7-0.2-6.4s-0.4-3-0.9-3.8c-0.5-0.8-1.3-1.3-2.4-1.3c-1.1,0-2,0.4-2.6,1.1
				c-0.6,0.8-1,1.7-1.2,2.9c-0.2,1.2-0.3,2.5-0.3,3.9c0,1.7,0.1,3.1,0.3,4.1c0.2,1,0.5,1.7,0.8,2.2c0.4,0.5,0.7,0.8,1.2,1
				c0.7,0.3,1.4,0.3,2,0.1s1.1-0.4,1.5-0.6l0.3,0.4c-0.4,1-1.1,1.7-2,2.3s-2,1-3.2,1.2c-1.2,0.2-2.4,0.1-3.6-0.2
				c-1.2-0.3-2.4-0.8-3.4-1.7c-1-0.8-1.8-1.9-2.5-3.3c-0.6-1.4-0.9-3.1-0.8-5.1c0.1-2.1,0.6-3.9,1.5-5.6c1-1.7,2.4-3,4.4-4
				c2-1,4.5-1.5,7.5-1.6c4.5-0.1,8,1.1,10.4,3.6c2.4,2.5,3.6,6.3,3.6,11.6c0,3.3-0.5,6.2-1.5,8.8c-1,2.6-2.5,4.7-4.5,6.5
				c-2,1.7-4.5,2.9-7.5,3.7C69.8,342.1,66.3,342.2,62.3,341.7z"/>
			<path class="st3" d="M93.7,340.6c-1.1,0-2.1-0.4-2.9-1.2c-0.8-0.8-1.2-1.8-1.2-2.9c0-1.2,0.4-2.1,1.2-2.9
				c0.8-0.8,1.8-1.2,2.9-1.2c1.2,0,2.1,0.4,2.9,1.2c0.8,0.8,1.2,1.8,1.2,2.9c0,1.1-0.4,2.1-1.2,2.9
				C95.9,340.2,94.9,340.6,93.7,340.6z"/>
			<path class="st3" d="M101.2,340l0-0.5h1c0.7,0,1.3-0.2,1.8-0.7c0.5-0.5,0.7-1.1,0.7-1.7v-23.3c0-1.2-0.3-2-0.8-2.5
				c-0.6-0.5-1.3-0.7-2.2-0.7h-0.8v-0.5c0.6,0,1.5-0.1,2.6-0.3c1.1-0.1,2.3-0.3,3.5-0.6c1.3-0.2,2.5-0.5,3.7-0.9
				c1.2-0.4,2.2-0.8,3-1.3h0.5v29.9c0,0.7,0.3,1.2,0.8,1.7c0.5,0.5,1.1,0.7,1.8,0.7h1v0.5H101.2z"/>
		</g>
	</g>
</g>
</svg>
