<svg enable-background="new 0 0 1082 308.9" viewBox="0 0 1082 308.9" xmlns="http://www.w3.org/2000/svg"><path d="m0 0h1082v300.1h-1082z" fill="none"/><circle cx="145.3" cy="104.4" fill="#333" r="17.4"/><path d="m265.9 265.6c0 .7-.5 1-1.4 1s-1.1-.2-1.1-.8c0-1.8.1-3.8.1-11.2 0-2.4 0-4.8-.2-7.2.9.4 1.8.8 2.7 1.3h2.2c.9-1 1.1-1.2 1.3-1.2s.5.2 1.4.9c.4.3.6.5.6.7s-.1.4-.7.8v2.4c0 6.5.1 10.9.1 12.4 0 .7-.5 1-1.4 1-.7 0-1-.2-1-.8v-.9h-2.7zm2.7-16.4h-2.7v6.5h2.7zm0 7.2h-2.7v7h2.7zm10.7-1.5h3.6c1.1-1.4 1.5-1.6 1.6-1.6s.5.2 1.7 1.1c.5.4.7.6.7.8s-.1.3-.3.3h-13.4c-.5 0-1 .1-1.5.2l-.3-1c.6.1 1.2.2 1.7.2h3.7v-4h-2.9c-.5 0-1 .1-1.5.2l-.3-1c.6.1 1.1.2 1.7.2h3v-2.2c0-.7 0-1.3-.1-2 3.1.3 3.4.6 3.4.8s-.3.5-.8.7v2.7h2.4c1.1-1.4 1.4-1.6 1.6-1.6s.5.2 1.7 1.1c.5.4.8.6.8.8s-.1.3-.3.3h-6.2zm3.5 7.9c0 1 .1 3.2.1 4.2s-.1 1.5-.6 2c-.7.7-1.6 1-2.5 1-.2 0-.4-.1-.4-.3-.2-1.4-.9-1.7-3-2.2-.1 0-.1-.3 0-.3 1.3.1 2.5.1 3.5.1.4 0 .5-.1.5-.4v-6.9h-7.1c-.5 0-1 .1-1.5.2l-.3-1c.6.1 1.2.2 1.7.2h7.2v-1.1c0-.7 0-1.4-.1-2.1 2.6.2 3.4.4 3.4.8s-.2.4-.8.7v1.7h.6c1-1.1 1.3-1.4 1.5-1.4s.5.2 1.4 1c.4.3.6.5.6.7s-.1.3-.3.3h-3.7zm-6.5 2.9c-.7 0-.9-.4-1.2-1.7-.2-1-.7-1.9-1.5-2.6-.1-.1 0-.2.1-.2 2.8.6 4.1 1.5 4.1 2.9 0 .9-.6 1.6-1.5 1.6z" fill="#333"/><path d="m297.1 254.6v14.4c0 .7-.5 1-1.5 1-.8 0-1.1-.3-1.1-.9 0-1.9.1-3.8.1-11.5 0-3.9 0-7.8-.2-11.6 1 .3 1.9.8 2.8 1.3h4.6c.9-1 1.1-1.2 1.3-1.2s.5.2 1.4.9c.4.3.6.5.6.7s-.2.4-.8.8v1 5.3s-.5.9-1.4.9c-.7 0-.9-.2-.9-.8v-.3zm5-6.7h-5v2.7h5zm0 3.2h-5v2.9h5zm.7 14.5v.9c0 .7-.4 1-1.4 1-.7 0-1-.2-1-.8 0-.9.1-1.8.1-5.2 0-1.6 0-3.2-.1-4.9.9.3 1.8.8 2.6 1.3h4.9c.9-1 1.1-1.1 1.3-1.1s.5.1 1.4.9c.5.4.6.5.6.8s-.2.4-.7.7v1.2 5.9s-.4 1-1.3 1c-.7 0-.9-.3-.9-.8v-.8zm5.5-7.1h-5.5v2.8h5.5zm0 3.4h-5.5v3.1h5.5zm.9-7.3v.1c0 .7-.4 1-1.3 1s-1-.2-1-.8c0-1 0-2 0-6.1 0-1 0-1.9-.1-2.9.9.4 1.8.8 2.7 1.3h4.6c.9-1 1.1-1.2 1.4-1.2s.5.2 1.4.9c.4.4.6.6.6.8s-.2.4-.7.8v3.1 15.9c0 .6-.2 1.1-.5 1.6-.6.6-1.4.8-2.3.8-.3 0-.4-.1-.5-.4-.1-1.2-.6-1.6-2.6-2.1-.1 0-.1-.3 0-.3 1.6.1 2 .1 3 .1.3 0 .3 0 .3-.4v-12.2zm5.1-6.7h-5.1v2.7h5.1zm0 3.2h-5.1v2.9h5.1z" fill="#333"/><path d="m69.8 227-6-16.2c1.9-1.6 4.1-3 6.5-3.9 2.7-1.1 5.4-1.8 8.3-2.3s5.8-.8 8.8-.8c4.5-.1 8.9.7 13.1 2.2 3.6 1.3 6.8 3.4 9.2 6.3 2.3 2.8 3.5 6.4 3.4 10 0 2.8-.6 5.6-1.8 8.1-1.3 2.6-2.9 4.9-4.8 7-2 2.2-4.2 4.2-6.5 6s-4.7 3.5-6.9 4.9-4.3 2.7-6.1 3.8h17.1c1.7 0 3.4-.3 4.9-1s2.9-1.8 4-3.1c1.4-1.6 2.5-3.4 3.4-5.3h.9l-6.1 25.3h-46.8v-.9c2.6-3.2 5.2-6.4 8-9.5 2.8-3.2 5.4-6.3 7.9-9.5 2.6-3.2 4.8-6.3 6.9-9.4 1.9-2.9 3.5-6 4.8-9.3 1.2-2.9 1.8-6 1.8-9.1 0-3.9-1-7-3.1-9.2s-4.9-3.2-8.4-2.9c-3.6.2-6.8 2.1-8.6 5.2-1.9 3.2-2.9 7.7-2.9 13.6z" fill="#4aa064"/><path d="m123.3 205.2 47.7-.2-11.5 26.7c-.8 1.7-1.6 3.8-2.5 6.3s-1.8 5.1-2.8 7.9-1.9 5.6-2.8 8.4-1.7 5.3-2.5 7.7-1.3 4.4-1.8 6h-15.3c1.1-1.8 2.4-4 3.9-6.5s3.1-5.3 4.7-8.1 3.2-5.7 4.8-8.6 3-5.5 4.3-7.9 2.3-4.5 3.1-6.1l4.7-10h-28.8c-1.5-.1-3 .4-4.2 1.4-1.2 1.1-2 2.5-2.5 4h-.9z" fill="#4aa064"/><path d="m183.1 269.2c-4.5 0-8.1-3.6-8-8.1 0-4.5 3.6-8.1 8.1-8s8.1 3.6 8 8.1c0 2.1-.8 4.1-2.3 5.7-1.6 1.5-3.7 2.4-5.8 2.3z" fill="#4aa064"/><path d="m219.4 203.9c4.2-.1 8.3.5 12.3 1.8 3 1 5.8 2.8 7.8 5.3 1.9 2.4 2.8 5.3 2.8 8.4.1 2.3-.5 4.5-1.5 6.5-.9 1.7-2.3 3.2-3.9 4.3s-3.4 1.8-5.3 2.1c-1.8.3-3.7.3-5.4-.2 2 0 4 .3 5.9.9 2.2.6 4.3 1.6 6.1 2.9 2 1.4 3.7 3.3 4.8 5.5 1.3 2.7 2 5.7 1.9 8.7.1 3.9-.9 7.7-2.9 11.1-2 3.2-4.7 5.9-7.9 7.9-3.4 2.1-7.2 3.6-11.1 4.4-4.2.9-8.4 1.1-12.7.7s-8.5-1.5-12.5-3.3l.2-.9c3.6.1 7.1-.4 10.5-1.4 3.2-.9 6.1-2.3 8.8-4.3 2.5-1.8 4.5-4.2 6-6.9s2.3-5.8 2.2-8.9c.2-3.1-.7-6.2-2.6-8.8-1.7-2.1-3.9-3.8-6.4-4.8-2.4-1-5.1-1.5-7.7-1.5l.2-.9c5.4.2 10.5-2.8 13.2-7.5 1.3-2.4 1.9-5.2 1.5-7.9-.1-1.9-.7-3.8-1.9-5.4-1-1.3-2.4-2.3-4-2.8s-3.4-.7-5.1-.5c-3.6.3-6.1 1.9-7.6 4.7s-2.2 7.1-2.1 12.7h-.9l-5.2-15.6c2.7-2.2 5.9-3.7 9.3-4.6 4.3-1.2 8.8-1.8 13.2-1.7z" fill="#4aa064"/><path d="m52.5 46.2h4.3c1-1.3 1.3-1.5 1.4-1.5s.4.1 1.4 1c.5.4.6.6.6.7s0 .2-.2.2h-7.5v.2c0 3.4.1 4.9.1 6.3 0 .6-.4.8-1.1.8-.6 0-.8-.2-.8-.7s.1-3.4.1-6.4v-.2h-5.2c-.6 0-1.2 0-1.7.1l-.4-.7c.6.1 1.3.1 1.9.2h5.2v-7.1h-4.4c-.6 0-1.1 0-1.7.1l-.2-.7c.6.1 1.2.1 1.8.1h10c.9-1.1 1.2-1.3 1.3-1.3s.4.1 1.3.9c.4.3.6.5.6.6s-.1.2-.2.2h-6.7v7.2zm-4.6-1.2c-.5 0-.7-.2-.8-1.3-.2-1.3-.6-2.5-1.3-3.5 0-.1.1-.2.1-.2 2 1.1 3 2.4 3 3.7.1.8-.4 1.3-1 1.3zm9.6-3.7c-1 1.7-2.4 3.1-4 4.2-.1.1-.2-.1-.2-.2.9-1.2 1.7-2.5 2.2-3.9.2-.6.4-1.1.5-1.7 1.6.7 2.2 1 2.2 1.3s-.1.3-.7.3z" fill="#333"/><path d="m71.4 42.9c.5-1 .9-2.1 1.3-3.2.2-.7.4-1.5.4-2.2 2 .5 2.5.6 2.5.9s-.2.3-.7.4c-.3.7-.7 1.5-1.1 2.2h5.2c.7-.8.8-.9 1-.9s.3.1 1 .8c.3.3.4.4.4.6s-.1.2-.6.6c-.1 5.3-.3 7.7-.8 9.6-.1.6-.5 1.1-.9 1.5-.5.4-1 .6-1.6.6-.4 0-.4 0-.5-.5s-.6-1-2-1.4c-.1 0-.1-.3 0-.3 1.4.1 1.8.2 2.1.2.8 0 1 0 1.2-.3.6-1.2.9-3.7 1-10h-5.7c-.8 1.4-1.9 2.6-3.2 3.6-.1 0-.2-.1-.2-.1.4-.7.8-1.3 1.2-2.1-.1.1-.2.1-.3.1h-2v5c.8-.3 1.6-.5 2.3-.8.1 0 .2.1.1.2-1.5 1.2-3.2 2.3-5 3.2 0 .6-.1.8-.4.8s-.6-.6-1.2-2.2c.5-.1 1-.2 1.5-.3.3-.1.6-.2 1-.3v-5.6h-1.2c-.3 0-.6 0-.9.1l-.2-.7c.3.1.7.1 1 .2h1.2v-2.9c0-.9 0-1.6-.1-2.2 2.2.2 2.4.4 2.4.6s-.2.3-.7.5v3.9h.2c.5-.9.7-1 .8-1s.3.1.9.7c.4.4.6.6.6.7zm1 7.4c0 .6-.1.8-.4.8s-.5-.4-1.2-2.2c.4 0 1-.1 1.6-.2 1.9-.3 3.7-.8 5.5-1.4.1 0 .2.1.1.2-1.7 1.2-3.6 2.1-5.6 2.8zm2.9-5.6c.7-.9.9-1.1 1.1-1.1s.3.2 1 .8c.3.3.4.4.4.6s-.1.2-.2.2h-4.7c-.3 0-.6 0-.8.1l-.2-.7c.3.1.7.1 1 .1z" fill="#333"/><path d="m91.7 42.5c.6-.6.7-.7.9-.7s.3.1.9.7c.3.2.4.4.4.5s0 .2-.4.4c-1 5.5-2.7 8.1-6.6 10.3-.1 0-.2-.1-.1-.2 1.9-1.7 3.3-3.8 4.1-6.2-.1.1-.3.2-.5.2-.3 0-.4-.2-.5-.7-.1-.7-.3-1.3-.7-1.8-.6 1-1.4 1.9-2.3 2.6-.1 0-.2-.1-.1-.2 1.5-2.4 2.3-5.2 2.4-8.1h-.7c-.4 0-.8 0-1.2.1l-.3-.6c.5.1.9.1 1.4.1h3.8c.8-.9 1-1 1.1-1s.4.1 1.1.7c.3.3.5.4.5.6s0 .2-.2.2h-3.8c-.1 1-.3 2.1-.6 3.1zm-1.6.4c-.2.6-.5 1.3-.8 1.9.8.3 1.7.8 1.9 1.7.3-1.2.6-2.4.7-3.6zm7.8 1.1c.1.7.2 1.5.4 2.3l2.2-.3c.7-1.1.9-1.2 1-1.2s.4.1 1.2.6c.4.2.5.3.5.5s-.1.2-.2.2l-4.6.7c.2.7.4 1.3.7 1.9.5-.5.9-1.1 1.3-1.7 1.4.8 1.9 1 1.9 1.3s-.1.3-.9.3c-.5.5-1 1-1.5 1.4.2.2.4.5.6.7.4.5.9.8 1.4 1.1.2 0 .4-.2 1.2-2.1 0-.1.2 0 .2.1-.2 1.4-.2 2.1-.2 2.3s.1.3.2.4c.2.2.4.4.4.7 0 .5-.4.8-.9.8-1.2-.2-2.4-.9-3.2-1.9-.4-.4-.7-.8-1-1.2-2.1 1.4-4.6 2.2-7.1 2.4-.1 0-.2-.2-.1-.2 2.4-.7 4.5-1.8 6.5-3.3-.5-.9-.8-1.8-1-2.8l-2.1.3c-.4 0-.8.1-1.2.3l-.3-.6c.6 0 1.1 0 1.4-.1l2.1-.3c-.2-.9-.3-1.6-.4-2.3l-1.1.2c-.4 0-.8.1-1.2.3l-.3-.8h1.4l1.1-.2c-.1-.7-.1-1.5-.2-2.2l-1.1.2c-.4.1-.7.2-1.2.2l-.3-.6h1.4l1.2-.2c0-.4 0-.7 0-1.1 0-.8 0-1.6-.2-2.4 1.9.2 2.3.4 2.3.6s-.1.3-.5.5v2.2l2.4-.3c.6-.9.7-1 .9-1s.4.1 1 .5c.3.2.4.3.4.5 0 .1-.1.2-.2.2l-4.6.6c0 .7 0 1.5.1 2.2l1.9-.3c.7-1 .8-1.1.9-1.1s.4.1 1.1.5c.4.2.5.3.5.5 0 .1-.1.2-.2.2zm2.1-4c-.3 0-.4 0-.7-.6-.2-.4-.5-.8-.9-1.1-.1 0 0-.2.1-.2 1.5.1 2.2.5 2.2 1.2 0 .4-.3.7-.7.7z" fill="#333"/><path d="m117.3 48.6c.9.7 1.9 1.3 2.9 1.8 1.5.6 3.1.9 4.7 1 .1 0 .1.2 0 .2-.7.2-.8.4-1.3 1.5 0 .1-.1.2-.3.2-.3 0-.6-.1-.8-.3-1.1-.4-2.2-1-3.2-1.7-.9-.7-1.7-1.5-2.3-2.4 0 2.3.1 4 .1 4.5s-.3.7-1.1.7c-.5 0-.7-.2-.7-.6s.1-2.2.1-3.8c-1.9 1.9-4.4 3.2-7.1 3.7-.1 0-.2-.1-.1-.2 2.4-1 4.4-2.6 6-4.6h-4.2c-.4 0-.8 0-1.3.1l-.2-.7c.5.1.9.1 1.4.1h5.5v-1.6h-3.4c-.4 0-.9 0-1.3.1l-.2-.7c.5.1.9.1 1.4.1h3.6v-1.6h-4.5c-.4 0-.9 0-1.3.1l-.2-.7c.5.1 1 .1 1.4.1h3c-.2-.1-.4-.3-.5-.8-.2-.6-.5-1.1-.9-1.5-.1 0 0-.2.1-.1 1.6.2 2.4.8 2.4 1.6 0 .4-.3.8-.6.9h2.9c.3-.5.5-1 .8-1.5.1-.4.3-.7.4-1.1 1.5.5 2 .8 2 1.1s-.1.3-.8.3c-.5.5-1.1.9-1.8 1.3h3c.8-.9 1.1-1.1 1.2-1.1s.4.1 1.2.8c.3.3.5.4.5.6s-.1.2-.2.2h-6.4v1.6h2.8c.8-.9 1-1 1.1-1s.4.2 1 .7c.3.2.4.4.4.5s-.1.2-.2.2h-5.1v1.7h4.5c.9-1 1.1-1.2 1.3-1.2s.3.1 1.2.8c.4.3.5.5.5.6s-.1.2-.2.2zm-3.4-9.9c0-.4 0-.9-.1-1.3 2 .2 2.2.3 2.2.6s-.1.2-.6.5v2.5h1.5v-2.3c0-.4 0-.9-.1-1.3 2 .2 2.2.3 2.2.6s-.1.2-.6.5v2.5h.7c.4-.6.7-1.3 1-2 .2-.4.3-.8.4-1.2 1.6.7 2.1 1 2.1 1.2s-.1.3-.8.3c-.6.7-1.4 1.2-2.2 1.7h2.2c.8-.9 1-1 1.2-1s.4.1 1.1.7c.3.3.5.4.5.6s0 .2-.2.2h-14.4c-.4 0-.9 0-1.3.1l-.2-.7c.5.1 1 .1 1.5.1h4zm-1.9 1.9c-.4 0-.6-.2-.8-.7-.2-.7-.5-1.3-1-1.8-.1 0 0-.2.1-.2 1.7.3 2.6.9 2.6 1.7 0 .6-.4 1-.9 1z" fill="#333"/><path d="m132.2 50.9c0 .5-.4.7-1 .7s-.7-.2-.7-.6c0-1.3.1-2.6.1-7.8 0-1.7 0-3.3-.1-5 .6.3 1.3.6 1.9.9h1.6c.6-.7.7-.8.9-.8s.3.1 1 .6c.3.2.4.3.4.5s-.1.3-.5.6v1.7c0 4.5.1 7.5.1 8.6 0 .5-.3.7-1 .7-.5 0-.7-.1-.7-.6v-.7h-1.9zm1.9-11.3h-1.9v4.5h1.9zm0 4.9h-1.9v4.8h1.9zm7.4-1h2.5c.8-1 1-1.1 1.1-1.1s.4.1 1.2.8c.4.3.5.5.5.6s-.1.2-.2.2h-9.3c-.4 0-.7 0-1.1.1l-.2-.7c.4.1.8.1 1.2.2h2.6v-2.7h-2c-.3 0-.7 0-1 .1l-.2-.7c.4.1.8.1 1.2.1h2.1v-1.5c0-.5 0-.9-.1-1.4 2.2.2 2.4.4 2.4.6s-.2.3-.6.5v1.9h1.7c.8-1 1-1.1 1.1-1.1s.4.1 1.2.8c.4.3.5.5.5.6s-.1.2-.2.2h-4.3zm2.4 5.5c0 .7.1 2.2.1 2.9s-.1 1-.4 1.3c-.5.4-1.1.7-1.7.7-.1 0-.3-.1-.3-.2-.1-.9-.6-1.2-2.1-1.5-.1 0-.1-.2 0-.2.9 0 1.8.1 2.4.1.2 0 .3 0 .3-.3v-4.8h-4.9c-.4 0-.7 0-1.1.1l-.2-.7c.4.1.8.1 1.2.2h5v-.8c0-.5 0-1-.1-1.4 1.8.2 2.3.3 2.3.5s-.2.3-.6.5v1.2h.4c.7-.8.9-.9 1-.9s.3.1 1 .7c.2.2.4.4.4.5s-.1.2-.2.2h-2.4zm-4.5 2c-.5 0-.6-.3-.9-1.2-.1-.7-.5-1.3-1.1-1.8-.1-.1 0-.2.1-.2 2 .4 2.8 1 2.8 2 .1.8-.2 1.2-.9 1.2z" fill="#333"/><path d="m153.8 43.3v10c0 .5-.3.7-1 .7-.5 0-.7-.2-.7-.7 0-1.3.1-2.7.1-8 0-2.7 0-5.4-.1-8 .7.2 1.3.6 1.9.9h3.2c.6-.7.8-.8.9-.8s.3.1 1 .6c.3.2.4.4.4.5s-.1.3-.5.5v.7 3.7s-.3.6-1 .6c-.5 0-.6-.2-.6-.5v-.2zm3.5-4.6h-3.5v1.8h3.5zm0 2.2h-3.5v2h3.5zm.5 10v.6c0 .5-.3.7-.9.7-.5 0-.7-.2-.7-.6 0-.6.1-1.2.1-3.6 0-1.1 0-2.2-.1-3.4.6.2 1.2.5 1.8.9h3.4c.6-.7.7-.8.9-.8s.3.1.9.6c.3.2.4.4.4.5s-.1.3-.5.5v.8 4.1s-.3.7-.9.7c-.5 0-.6-.2-.6-.5v-.4zm3.8-5h-3.8v2h3.8zm0 2.4h-3.8v2.2h3.8zm.6-5c0 .6-.3.8-.9.8s-.7-.2-.7-.5c0-.7 0-1.4 0-4.2 0-.7 0-1.3-.1-2 .6.3 1.3.6 1.9.9h3.2c.6-.7.8-.8.9-.8s.3.1 1 .7c.3.3.4.4.4.5s-.1.3-.5.5v2.2 11c0 .4-.1.8-.4 1.1-.4.4-1 .6-1.6.5-.2 0-.3 0-.3-.2-.1-.8-.4-1.1-1.8-1.5-.1 0-.1-.2 0-.2 1.1.1 1.4.1 2.1.1.2 0 .2 0 .2-.3v-8.5zm3.6-4.7h-3.6v1.8h3.6zm0 2.3h-3.6v2h3.6z" fill="#333"/><path d="m648.5 253.8c0 3.6-2.1 5.7-4.8 5.7s-4.7-2-4.7-5.5 2.1-5.7 4.7-5.7 4.8 2.1 4.8 5.5zm-6.9.1c0 3.2.8 4.9 2.2 4.9s2.2-1.8 2.2-4.9-.8-4.9-2.2-4.9-2.2 1.7-2.2 4.9zm1.7 14.3 12.7-20.8.9.5-12.8 20.8zm17.7-6.2c0 3.6-2.1 5.7-4.7 5.7s-4.8-2-4.8-5.5 2.2-5.7 4.8-5.7 4.7 2 4.7 5.5zm-6.9.1c0 3.1.8 4.9 2.2 4.9s2.2-1.8 2.2-4.9-.8-4.9-2.2-4.9-2.3 1.7-2.2 4.9z" fill="#333"/><path d="m499.7 201.9.4.6c-6.4 2-11.4 4.2-15.1 6.7-3.3 2.1-6.1 5-8 8.4-1.7 3.3-2.8 6.9-3.1 10.6-.4 4.4-.6 8.9-.6 13.4 0 5 .1 9.1.4 12.5.1 2.6.7 5.1 1.8 7.5 1 1.7 2.8 2.6 4.7 2.5 1.9.1 3.8-.7 5-2.2 1.2-1.7 2-3.7 2.3-5.8.4-2.5.6-5.1.6-7.6.1-2.7-.1-5.4-.6-8-.2-1.5-.8-3-1.6-4.3-.6-.9-1.4-1.5-2.3-1.9-1.2-.5-2.5-.6-3.8-.3-1.1.3-2.1.7-3 1.3l-.7-.7c.8-1.9 2.2-3.5 4-4.6 1.9-1.2 4-2 6.3-2.3 2.4-.4 4.8-.3 7.1.3 2.4.6 4.7 1.7 6.6 3.2 2.1 1.7 3.7 3.9 4.8 6.4 1.3 3.2 1.8 6.6 1.6 9.9-.1 3.9-1.1 7.6-3 11-2 3.4-5 6.2-8.5 7.9-3.8 1.9-8.7 3-14.6 3.1-5.1.2-10.3-.8-14.9-3-4.1-2.1-7.4-5.5-9.3-9.8-2.1-4.4-3.1-10.1-3.1-16.9-.1-5.9.9-11.7 2.9-17.2 1.8-4.9 4.8-9.2 8.7-12.6 4.2-3.5 9.2-6 14.6-7.2 6.5-1.6 13.5-1.9 20.4-.9z" fill="#4aa064"/><path d="m535.2 203.9c4.2-.1 8.3.5 12.3 1.8 3 1 5.8 2.8 7.8 5.3 1.9 2.4 2.8 5.3 2.7 8.4.1 2.3-.4 4.5-1.5 6.5-.9 1.7-2.3 3.2-3.9 4.3s-3.4 1.8-5.3 2.1c-1.8.3-3.7.3-5.5-.2 2 0 4 .3 5.9.9 2.2.6 4.3 1.6 6.1 2.9 2 1.4 3.7 3.3 4.8 5.5 1.3 2.7 2 5.7 1.9 8.7.1 3.9-.9 7.8-2.9 11.1-2 3.2-4.7 5.9-7.9 7.9-3.4 2.1-7.2 3.6-11.1 4.4-4.2.9-8.4 1.1-12.7.7s-8.5-1.5-12.5-3.3l.2-.9c3.6.1 7.1-.4 10.5-1.4 3.2-.9 6.1-2.3 8.8-4.3 2.5-1.8 4.5-4.2 6-6.9s2.2-5.8 2.2-8.9c0-3.7-.8-6.6-2.6-8.8-1.7-2.1-3.9-3.8-6.4-4.8-2.4-1-5.1-1.5-7.7-1.5l.2-.9c5.5.2 10.5-2.7 13.2-7.5 1.3-2.4 1.9-5.2 1.5-7.9-.1-1.9-.7-3.8-1.9-5.4-1-1.3-2.4-2.3-4-2.8s-3.4-.7-5.1-.5c-3.6.3-6.2 1.9-7.7 4.7s-2.2 7.1-2.1 12.7h-.9l-5.1-15.6c2.7-2.2 5.9-3.7 9.3-4.6 4.5-1.2 9-1.8 13.4-1.7z" fill="#4aa064"/><path d="m575.5 269.2c-4.5 0-8.1-3.6-8-8.1 0-4.5 3.6-8.1 8.1-8 4.5 0 8.1 3.6 8 8.1 0 2.1-.8 4.1-2.3 5.7-1.5 1.5-3.6 2.4-5.8 2.3z" fill="#4aa064"/><path d="m590.1 268 .1-.9h1.9c1.3 0 2.6-.5 3.5-1.4s1.5-2.1 1.4-3.4v-45.6c0-2.3-.5-4-1.6-4.9-1.2-1-2.8-1.4-4.3-1.4h-1.6v-.9c1.3-.1 3-.2 5.1-.5s4.4-.6 6.9-1.1c2.4-.4 4.8-1 7.2-1.7 2.1-.6 4-1.4 5.9-2.5h.9v58.6c0 1.3.5 2.5 1.5 3.4.9.9 2.2 1.4 3.5 1.4h1.9v.9z" fill="#4aa064"/><path d="m403 40.9c-.4.9-.8 1.7-1.3 2.5h.1 5.7c.7-.7.8-.8 1-.8s.3.1 1 .7c.3.3.4.4.4.6s-.1.2-.5.5v1.2 6.3c.1.6-.1 1.1-.6 1.5-.4.3-.9.5-1.4.5-.2 0-.3-.1-.3-.4-.1-.7-.5-1-2.2-1.5-.1 0-.1-.2 0-.2 1 .1 1.6.1 2.5.1.2 0 .3 0 .3-.2v-2.4h-6v4c0 .5-.4.7-1.1.7-.5 0-.7-.2-.7-.5s.1-2.1.1-3.3v-4.5c-1.1 1.1-2.4 2-3.8 2.6-.1 0-.2-.2-.1-.2 2.3-1.9 4.1-4.3 5.2-7h-3.4c-.5 0-1 0-1.5.1l-.2-.7c.5.1 1.1.1 1.6.2h3.6c.4-1 .7-2.1.9-3.1 1.8.4 2.3.6 2.3.8s-.2.4-.8.5c-.2.6-.4 1.2-.6 1.8h6.1c.9-1 1.1-1.2 1.2-1.2s.4.1 1.3.8c.4.3.5.5.5.6s0 .2-.2.2zm4.7 5.1v-2.2h-6v2.2zm-6 2.8h6v-2.4h-6z" fill="#333"/><path d="m419.9 48.4c-.4 1.5-1.2 3-2.2 4.2 0 .1-.2 0-.2-.1.3-1.1.6-2.2.8-3.4.1-.6.2-1.3.2-2 1.7.5 2 .6 2 .9s-.2.3-.6.4zm-.1-3.5c.6-1 1.2-2 1.7-3 .4-.7.7-1.4.9-2.2 1.5.6 2 .9 2 1.1s-.2.3-.7.3c-1 1.4-2.1 2.7-3.3 3.8.5 0 1.8 0 2.7-.1-.2-.5-.4-.9-.7-1.4-.1-.1.1-.1.1-.1.5.3 1 .6 1.4 1 1.2-1.5 2.2-3.1 2.9-4.9.3-.7.5-1.5.6-2.2 1.9.5 2.3.7 2.3.9s-.1.3-.6.3c.5 1.1 1.2 2.1 2.1 2.9s2 1.4 3.2 1.7c0 0 .1 0 .1.1s0 .1-.1.1c-.5.2-.8.7-.9 1.3-.1.3-.1.4-.3.4-.2-.1-.4-.2-.6-.4-.8-.6-1.4-1.4-2-2.2-.7-1.1-1.3-2.3-1.7-3.5-1 2.4-2.6 4.4-4.8 5.8.3.3.5.8.5 1.2.1.5-.3.9-.7.9-.5 0-.6-.2-.7-1.2v-.2c-.4.1-.8.3-1.1.4v2.6 5.1c0 .5-.3.7-.9.7s-.7-.1-.7-.5.1-1.6.1-3.9v-3.7c-.5.1-1.1.2-1.7.3-.1.4-.2.5-.4.5s-.4-.4-.7-2h1zm.4-6.2c.1-.5.2-.9.2-1.4 1.5.5 2.2.8 2.2 1s-.2.3-.7.3c-.6.8-1.2 1.6-1.9 2.3.5.3.8.8.8 1.3 0 .6-.4 1-.8 1s-.5-.1-.8-1.1c-.1-.7-.5-1.4-1-1.9 0-.1 0-.2.1-.2.5.2.9.3 1.4.6.2-.5.4-1.2.5-1.9zm3.3 12.5c-.4 0-.6-.3-.6-1.5 0-.8-.2-1.6-.5-2.4 0 0 0-.1.1-.1h.1c1.2 1 1.8 1.9 1.8 2.8-.1.7-.4 1.2-.9 1.2zm3.2 1.4v.7c0 .5-.3.7-1 .7-.5 0-.7-.2-.7-.6 0-.7.1-1.5.1-4.4 0-.9 0-1.8-.1-2.8.9.4 1 .5 1.9.9h3.7c.7-.8.8-.9 1-.9s.3.1 1 .7c.3.2.4.4.4.5s-.1.2-.5.6v.8c0 2.3.1 3.8.1 4.3s-.3.7-1 .7c-.5 0-.7-.2-.7-.6v-.7zm2.6-8.4c.6-.9.9-1 1-1s.4.1 1.1.7c.3.2.5.4.5.5s0 .2-.2.2h-4.7c-.3 0-.7 0-1 .1l-.2-.7c.4.1.8.1 1.2.1zm1.5 3.3h-4.1v4.6h4.1z" fill="#333"/><path d="m440.8 38.9h-.4c-.3 0-.6 0-1 .1l-.2-.7c.4.1.8.1 1.2.1h6c.8-.9 1-1 1.1-1s.4.2 1.1.7c.3.3.5.4.5.5s-.1.2-.2.2h-2.2v5.2 9.1c0 .6-.3.8-1 .8s-.8-.2-.8-.7c0-.3.1-1.4.1-3.5v-.6c-1.4.9-3 1.6-4.6 2.1-.1.5-.3.7-.5.7s-.3 0-.9-2.2c.5 0 1.1-.1 1.6-.2zm1.6 3h2.7v-3.1h-2.7zm0 3.4h2.7v-2.9h-2.7zm0 4c.9-.1 1.8-.3 2.7-.5v-3h-2.7zm10.4-8.9c.7-.8.9-1 1-1s.3.1 1 .7c.5.4.5.5.5.7s-.1.3-.6.6c-.4 2.5-1.3 4.9-2.6 7.1 1.2 1.2 2.6 2.2 4.1 2.9.1 0 0 .2-.1.2-.5.2-.9.6-1 1.2-.1.4-.1.5-.3.5-.3-.1-.5-.2-.7-.4-1.2-.9-2.2-1.9-3.1-3.1-1.2 1.4-2.6 2.5-4.2 3.3-.1 0-.2-.2-.1-.2 1.4-1.2 2.7-2.7 3.6-4.4l-.4-.8c-.9-2.2-1.5-4.6-1.6-7-.4 0-.8 0-1.1.1l-.2-.7c.5.1 1.1.2 1.6.2zm-3.9.5c.3 2.3 1.1 4.5 2.3 6.4.9-2.1 1.5-4.2 1.8-6.5z" fill="#333"/><path d="m463 45.8c-.7.6-1.4 1.1-2.2 1.5-.1 0-.2-.1-.1-.2 1.2-1.2 2.2-2.6 3-4.1.3-.6.6-1.3.8-1.9 1.9.8 2 .8 2 1.1s-.1.2-.6.4c-.5.8-1 1.5-1.7 2.1.8.1.9.2.9.4s-.1.3-.5.4v7.7c0 .5-.3.8-.9.8-.4 0-.8-.2-.8-.7s.1-1.9.1-4.7zm2.7-7c-1.3 1.5-2.9 2.8-4.7 3.6-.1 0-.2-.2-.1-.2.9-.9 1.7-2 2.4-3.1.4-.6.7-1.2.9-1.9 1.6.7 2.2 1 2.2 1.2s-.2.4-.7.4zm8.8 10.8v2.5c0 .4-.2.8-.5 1.1-.4.4-.9.5-1.4.5-.3 0-.4-.1-.4-.3-.1-.7-.5-.9-1.9-1.3-.1 0-.1-.3 0-.3.9.1 1.5.1 2.2.1.2 0 .3 0 .3-.3v-3.6h-5.8c-.4 0-.9 0-1.3.1l-.2-.7c.5.1 1 .1 1.5.1h5.8v-.4c0-.5 0-.7-.1-1.3 1.9.2 2.2.3 2.2.6s-.1.2-.5.4v.8h.7c.6-.8.9-.9 1-.9s.4.2 1 .7c.3.2.4.4.4.5s0 .2-.2.2h-2.8zm.2-4.3c.7-.8.9-1 1-1s.4.1 1.1.7c.3.3.5.4.5.5s-.1.2-.2.2h-9.8c-.4 0-.8 0-1.3.1l-.2-.7c.5.1 1 .1 1.5.1zm-5.7-1.8c0 .5-.3.7-.9.7s-.8-.2-.8-.6.1-1 .1-2.9c0-1 0-2.1-.1-3.1.6.2 1.2.5 1.8.9h4.4c.6-.7.8-.8.9-.8s.3.1 1 .7c.3.2.4.4.4.5s0 .2-.5.6v.7c0 1.7.1 2.9.1 3.3s-.3.8-.9.8-.7-.2-.7-.7zm.4 8.3c-.5 0-.6-.2-.8-1-.2-.7-.5-1.3-1-1.8 0-.1 0-.1 0-.2h.1c1.8.4 2.6 1.1 2.6 1.9 0 .5-.4 1-.9 1.1 0-.1-.1-.1 0 0zm4.3-12.8h-4.7v1.8h4.7zm0 2.2h-4.7v1.8h4.7z" fill="#333"/><path d="m491.3 49.8c0 1.9.1 3.2.1 3.6s-.4.6-1 .6-.8-.1-.8-.7.1-1.5.1-3.6h-5.6c-.4 0-.9 0-1.3.1l-.2-.7c.5.1 1 .1 1.5.2h5.6v-.1c0-.7 0-1.3-.1-2 2.1.2 2.3.3 2.3.6s-.1.2-.6.5v1.1h4.5c.9-1.1 1.1-1.3 1.2-1.3s.4.1 1.3.9c.4.3.6.5.6.6s-.1.2-.2.2zm-7.1-2.5c0 .5-.1.7-.3.7s-.5-.5-1.2-1.9c.5-.2 1.1-.3 1.5-.5 1.1-.3 2.2-.8 3.2-1.3.1 0 .2.2.2.2-.9 1.1-2.1 2.1-3.4 2.8zm5.5-7.3c1.3.5 1.7.7 1.7.9s0 .2-.6.2c-.5.5-1 1-1.6 1.4.4.3.6.7.6 1.1s-.3.8-.7.8c0 0 0 0-.1 0-.4 0-.5-.1-.8-1-.2-.6-.6-1.2-1.1-1.7v-.1h.1c.5.1 1 .3 1.4.5.2-.3.3-.7.5-1 .2-.4.3-.8.4-1.2h-5.4c-.4 0-.8 0-1.3.1l-.2-.7c.5.1.9.1 1.4.1h5.4v-1.2c0-.4 0-.7-.1-1.1 2.2.2 2.5.4 2.5.6s-.2.4-.6.5v1.2h4.3c1-1.1 1.2-1.2 1.3-1.2s.4.1 1.2.8c.4.3.5.5.5.6s0 .2-.2.2zm-4 4.1c-.5 0-.6-.2-.9-1.1-.2-.7-.6-1.4-1.1-1.9v-.1h.1c2 .6 2.9 1.3 2.9 2.2-.1.4-.5.8-1 .9zm6.8 1.8c-.2-.4-.4-.8-.7-1.1-.1-.1 0-.2.1-.1 1.5.5 2.5 1.3 2.5 2.2 0 .5-.4.9-.8.9-.4 0-.5-.1-.8-1.1 0-.1-.1-.3-.1-.4-1.5.5-3.1.9-4.7 1.2-.1.4-.1.5-.3.5s-.4-.3-.8-1.9h1.8c.8-.9 1.6-1.9 2.3-3 .3-.5.6-1 .8-1.5 1.5.8 1.8 1 1.8 1.2s0 .2-.8.2c-1.1 1.1-2.2 2.1-3.4 3 1.1 0 2.1 0 3.1-.1zm4.5-3.7c-1 .9-2.2 1.6-3.4 2.1-.1 0-.2-.1-.2-.2.7-.7 1.3-1.4 1.8-2.2.3-.4.5-.8.7-1.3 1.4.7 1.8 1 1.8 1.2s-.2.4-.7.4zm-.1 5.4c-.5 0-.6-.2-1.1-1-.4-.7-1-1.4-1.7-1.8-.1 0 0-.2.1-.2 2.4.4 3.6 1.1 3.6 2.1 0 .5-.4.9-.9.9z" fill="#333"/><path d="m1004.7 253.8c0 3.6-2.1 5.7-4.8 5.7s-4.7-2-4.7-5.5 2.1-5.7 4.7-5.7 4.8 2.1 4.8 5.5zm-7 .1c0 3.2.8 4.9 2.2 4.9s2.2-1.7 2.2-4.9-.8-4.9-2.2-4.9-2.1 1.7-2.2 4.9zm1.7 14.3 12.8-20.8.9.5-12.8 20.8zm17.7-6.2c0 3.6-2.1 5.7-4.7 5.7s-4.8-2-4.8-5.5 2.2-5.7 4.8-5.7 4.7 2 4.7 5.5zm-7 .1c0 3.1.8 4.9 2.2 4.9s2.2-1.8 2.2-4.9-.8-4.9-2.2-4.9-2.1 1.7-2.2 4.9z" fill="#333"/><path d="m822.1 268 .1-.9h1.8c1.3 0 2.6-.5 3.5-1.4s1.5-2.1 1.4-3.4v-45.6c0-2.3-.5-4-1.6-4.9-1.2-1-2.8-1.4-4.3-1.4h-1.6v-.9c1.3-.1 3-.2 5.1-.5s4.4-.6 6.9-1.1c2.4-.4 4.8-1 7.2-1.7 2.1-.6 4-1.4 5.9-2.5h.9v58.6c0 1.3.5 2.5 1.5 3.4.9.9 2.2 1.4 3.5 1.4h1.9v.9z" fill="#4aa064"/><path d="m887.9 203.7c5.3-.2 10.5 1.3 15 4.1 4.2 2.8 7.5 6.8 9.5 11.4 4.4 11 4.4 23.4 0 34.4-2 4.7-5.3 8.6-9.5 11.5-9.3 5.5-20.7 5.5-30 0-4.2-2.8-7.6-6.8-9.6-11.5-4.4-11-4.4-23.4 0-34.4 2-4.7 5.4-8.6 9.6-11.4 4.6-2.8 9.8-4.2 15-4.1zm0 4.5c-3.1 0-5.4 2.3-6.8 6.9s-2.2 11.7-2.2 21.4.7 16.8 2.2 21.4c1.4 4.6 3.7 6.9 6.8 6.9s5.4-2.3 6.8-6.9 2.2-11.7 2.2-21.4-.7-16.8-2.2-21.4-3.7-6.9-6.8-6.9z" fill="#4aa064"/><path d="m950 203.7c5.3-.2 10.5 1.3 15 4.1 4.2 2.8 7.5 6.8 9.5 11.4 4.4 11 4.4 23.4 0 34.4-2 4.7-5.3 8.6-9.5 11.5-9.3 5.5-20.7 5.5-30 0-4.2-2.8-7.6-6.8-9.6-11.5-4.4-11-4.4-23.4 0-34.4 2-4.7 5.4-8.6 9.6-11.4 4.5-2.8 9.7-4.2 15-4.1zm0 4.5c-3.1 0-5.4 2.3-6.8 6.9s-2.2 11.7-2.2 21.4.7 16.8 2.2 21.4c1.4 4.6 3.7 6.9 6.8 6.9s5.4-2.3 6.8-6.9 2.2-11.7 2.2-21.4-.7-16.8-2.2-21.4c-1.4-4.6-3.7-6.9-6.8-6.9z" fill="#4aa064"/><path d="m769.4 40c-.7.9-1.4 1.7-2.2 2.4 2.3 0 4.5 0 6.8-.2-.5-.5-1.2-1-1.8-1.4-.1 0 0-.2.1-.2 2.9.4 4.7 1.5 4.7 2.7 0 .5-.4 1-.9 1-.3 0-.6-.2-.9-.7s-.5-.8-.8-1.1c-3.3.8-6.6 1.3-10 1.5-.1.5-.2.5-.4.5s-.4-.2-.8-2.3c1.1.1 2.2.1 3.3.1.3-.8.6-1.6.8-2.4h-3.6c-.4 0-.8 0-1.3.1l-.2-.7c.5.1 1 .1 1.4.2h5.6v-1.3c0-.3 0-.7-.1-1 2.2.2 2.5.4 2.5.6s-.2.4-.7.5v1.3h4.3c.9-1.1 1.2-1.2 1.3-1.2s.3.2 1.2.8c.4.3.5.5.5.6s0 .2-.2.2zm-3 9.9v3.5c0 .5-.4.7-1.1.7-.5 0-.7-.2-.7-.7 0-1 .1-1.9.1-5.8 0-1.2 0-2.3-.1-3.5.7.2 1.4.5 2 .9h6.6c.6-.7.7-.8.9-.8s.3.1 1.1.7c.3.3.5.4.5.6s-.1.3-.5.6v.9 5.3c0 .6-.3 1.2-.8 1.4-.4.2-.8.3-1.3.3-.1 0-.2-.1-.3-.5s-.4-.8-2-1.3c-.1 0-.1-.2 0-.2 1.1.1 1.6.1 2.4.1.2 0 .2-.1.2-.2v-2zm6.9-4.6h-6.9v1.9h6.9zm-6.9 4.2h6.9v-2h-6.9z" fill="#333"/><path d="m790.3 47.8c-.5 3.8-2.3 5.4-6.6 6.1-.1 0-.2-.2-.1-.2 2.6-.9 4-2.1 4.6-4.1.2-.9.3-1.9.3-2.8 2.3.3 2.3.4 2.3.6s-.1.1-.5.4zm-3.2-7.8c0 3.3.1 5.5.1 6.2 0 .6-.3.8-1 .8-.6 0-.8-.2-.8-.7s.1-2.2.1-5.5c0-1 0-2.1-.1-3.1 2.3.3 2.3.3 2.3.6s-.1.3-.5.4zm4.2 5.6v.2c0 .5-.3.7-.9.7s-.8-.2-.8-.5c0-.9.1-1.8.1-5.5 0-.8 0-1.7-.1-2.6.6.2 1.2.5 1.8.9h4.6c.7-.7.8-.8 1-.8s.3.1 1 .7c.3.2.4.4.4.5s0 .2-.5.6v1c0 2.7.1 4.5.1 5.2s-.3.7-1 .7c-.5 0-.7-.2-.7-.7v-.2zm5-6.5h-5v2.8h5zm0 3.2h-5v2.9h5zm-2.4 9c0 .8.2.9 1.5.9 1.5 0 2.1-.1 2.4-.4s.5-.5 1.1-2.3c0-.1.2-.1.2 0 0 .6-.1 1.7-.1 1.9s0 .3.3.5c.3.1.4.4.4.7 0 .5-.3.8-1 1-1.1.2-2.2.3-3.3.3-2.7 0-3.2-.4-3.2-1.7 0-.5 0-1.1 0-2.7 0-1 0-1.7-.1-2.6 2.2.2 2.3.3 2.3.6s-.2.3-.6.5z" fill="#333"/><path d="m806.9 44.4c-.6.7-1.3 1.4-2 2-.1 0-.2-.1-.2-.2 1.3-1.8 2.4-3.8 3-6 .3-1 .5-2 .7-3 1.6.5 2.4.8 2.4 1s-.2.3-.6.4c-.5 1.5-1.2 3-2.1 4.3.8.1 1 .2 1 .4s-.1.3-.5.4v9.4c0 .5-.3.8-.9.8-.4 0-.8-.2-.8-.7s.1-1.9.1-4.7zm8.9-.8c0 4.3.1 7 .1 9.6 0 .5-.3.7-1.1.7-.6 0-.8-.2-.8-.5 0-.9.1-4.8.1-8.3-1.3 2.2-3.1 4.1-5.3 5.5-.1 0-.2-.1-.2-.2 2.2-2.3 3.8-5 4.8-8h-2.8c-.4 0-.7 0-1.1.1l-.2-.7c.4.1.8.1 1.2.1h3.5v-2.3c0-.8 0-1.5-.1-2.3 2.4.3 2.4.3 2.4.6s-.2.3-.6.5v3.6h2.8c.8-1.1 1.1-1.2 1.2-1.2s.3.1 1.2.8c.4.3.5.5.5.6s-.1.2-.2.2h-5.3c.6 1.4 1.4 2.6 2.4 3.7 1.1 1.1 2.4 2.1 3.8 2.7.1 0 .1.2 0 .2-.4.1-.8.4-1 1.1-.2.4-.2.5-.4.5s-.4-.2-.6-.3c-1-.9-1.8-1.9-2.4-3-.8-1.3-1.4-2.8-1.8-4.4z" fill="#333"/><path d="m835.6 48.6c.9.7 1.9 1.3 2.9 1.8 1.5.6 3.1.9 4.7 1 .1 0 .1.2 0 .2-.7.2-.8.4-1.3 1.5 0 .1-.1.2-.3.2-.3 0-.6-.1-.8-.3-1.1-.4-2.2-1-3.2-1.7-.9-.7-1.7-1.5-2.3-2.4 0 2.3.1 4 .1 4.5s-.3.7-1.1.7c-.5 0-.7-.2-.7-.6s.1-2.2.1-3.8c-1.9 1.9-4.4 3.2-7.1 3.7-.1 0-.2-.1-.1-.2 2.4-1 4.4-2.6 6-4.6h-4.2c-.4 0-.8 0-1.3.1l-.2-.7c.5.1.9.1 1.4.1h5.5v-1.6h-3.5c-.4 0-.9 0-1.3.1l-.2-.7c.5.1.9.1 1.4.1h3.6v-1.6h-4.5c-.4 0-.9 0-1.3.1l-.2-.7c.5.1 1 .1 1.5.1h3c-.2-.1-.4-.3-.5-.8-.2-.6-.5-1.1-.9-1.5-.1 0 0-.2.1-.1 1.6.2 2.5.8 2.5 1.6 0 .4-.3.8-.6.9h2.9c.3-.5.5-1 .8-1.5.1-.4.3-.7.4-1.1 1.5.5 2 .8 2 1.1s-.1.3-.8.3c-.5.5-1.1.9-1.8 1.3h3c.8-.9 1.1-1.1 1.2-1.1s.4.1 1.2.8c.3.3.5.4.5.6s-.1.2-.2.2h-6.4v1.6h2.8c.8-.9 1-1 1.1-1s.4.2 1 .7c.3.2.5.4.5.5s0 .2-.2.2h-5.2v1.7h4.5c.9-1 1.1-1.2 1.3-1.2s.3.1 1.2.8c.4.3.5.5.5.6s-.1.2-.2.2zm-3.4-9.9c0-.4 0-.9-.1-1.3 2 .2 2.2.3 2.2.6s-.2.2-.6.5v2.5h1.5v-2.3c0-.4 0-.9-.1-1.3 2 .2 2.2.3 2.2.6s-.1.2-.6.5v2.5h.7c.4-.6.7-1.3 1-2 .2-.4.3-.8.4-1.2 1.6.7 2.1 1 2.1 1.2s-.1.3-.8.3c-.6.7-1.4 1.2-2.2 1.7h2.1c.8-.9 1-1 1.2-1s.4.1 1.1.7c.3.3.5.4.5.6s0 .2-.2.2h-14.5c-.4 0-.9 0-1.3.1l-.2-.7c.5.1 1 .1 1.5.1h4zm-1.9 1.9c-.4 0-.6-.2-.8-.7-.2-.7-.5-1.3-1-1.8-.1 0 0-.2.1-.2 1.7.3 2.6.9 2.6 1.7 0 .6-.4 1-.9 1z" fill="#333"/><path d="m857.1 49.8v3.6s-.4.6-1 .6-.8-.1-.8-.7.1-1.5.1-3.6h-5.6c-.4 0-.9 0-1.3.1l-.2-.7c.5.1 1 .1 1.5.2h5.6v-.1c0-.7 0-1.3-.1-2 2.1.2 2.3.3 2.3.6s-.1.2-.6.5v1.1h4.5c.9-1.1 1.1-1.3 1.2-1.3s.4.1 1.3.9c.4.3.5.5.5.6s0 .2-.2.2zm-7.1-2.5c0 .5-.1.7-.3.7s-.5-.5-1.2-1.9c.5-.2 1.1-.3 1.5-.5 1.1-.3 2.2-.8 3.2-1.3.1 0 .2.2.2.2-.9 1.1-2.1 2.1-3.4 2.8zm5.5-7.3c1.3.5 1.7.7 1.7.9s0 .2-.6.2c-.5.5-1 1-1.5 1.4.4.3.6.7.6 1.1s-.3.8-.7.8c0 0 0 0-.1 0-.4 0-.5-.1-.8-1-.2-.6-.6-1.2-1.1-1.7v-.1h.1c.5.1 1 .3 1.4.5.2-.3.3-.7.5-1 .2-.4.3-.8.5-1.1l-5.5-.1c-.4 0-.8 0-1.3.1l-.2-.7c.5.1.9.1 1.4.1h5.4v-1.2c0-.4 0-.7-.1-1.1 2.2.2 2.5.4 2.5.6s-.2.4-.6.5v1.2h4.3c1-1.1 1.2-1.2 1.3-1.2s.3.1 1.2.8c.4.3.5.5.5.6s0 .2-.2.2zm-4 4.1c-.5 0-.6-.2-.9-1.1-.2-.7-.6-1.4-1.2-1.9v-.1h.1c2 .6 2.9 1.3 2.9 2.2 0 .4-.4.8-.9.9zm6.8 1.8c-.2-.4-.4-.8-.7-1.1 0-.1 0-.2.1-.1 1.5.5 2.5 1.3 2.5 2.2 0 .5-.4.9-.8.9-.4 0-.5-.1-.8-1.1 0-.2-.1-.3-.1-.4-1.5.5-3.1.9-4.7 1.2-.1.4-.2.5-.3.5s-.4-.3-.8-1.9h1.8c.9-.9 1.6-1.9 2.3-3 .3-.5.5-1 .8-1.5 1.5.8 1.8 1 1.8 1.2s0 .2-.8.2c-1.1 1.1-2.2 2.1-3.4 3 1 0 2.1 0 3.1-.1zm4.5-3.8c-1 .9-2.2 1.6-3.4 2.1-.1 0-.2-.1-.2-.2.7-.6 1.3-1.4 1.8-2.1.3-.4.5-.8.7-1.3 1.4.7 1.8 1 1.8 1.2s-.2.4-.7.3zm-.1 5.5c-.5 0-.6-.2-1.1-1-.4-.7-1-1.4-1.7-1.8-.1 0 0-.2.1-.2 2.4.4 3.6 1.1 3.6 2.1 0 .5-.4.9-.9.9z" fill="#333"/><path d="m879.8 50.2c-2.2 1.9-4.8 3.1-7.6 3.8-.1 0-.2-.2-.1-.2 2.5-1.1 4.8-2.7 6.7-4.6-1.6-2.3-2.7-5-3-7.8-.1 2.4-.6 4.8-1.4 7-.9 2.3-2.5 4.2-4.6 5.4-.1 0-.2-.1-.1-.2 1.5-1.6 2.7-3.5 3.3-5.6.8-2.9 1.1-6 1-9h-1.8c-.5 0-.9 0-1.4.1l-.2-.7c.5.1 1 .2 1.5.2h7.2c.6-.8.8-.9.9-.9s.3.1 1.1.8c.3.3.5.5.5.6s-.2.4-.6.5c-.3 1.1-.6 2.2-1 3.2h2c.7-.8.8-.9.9-.9s.3.1 1.1.7c.4.3.5.5.5.7s-.2.3-.6.4c-.7 2-1.8 3.8-3.2 5.4 1.7 1.3 3.7 2.3 5.8 2.8.1 0 .1.2 0 .2-.8.3-1 .5-1.2 1.4 0 .2-.1.3-.2.3-.4-.1-.9-.3-1.2-.5-1.4-.9-2.8-1.9-4-3zm-4-10.1c.5 3 1.9 5.7 3.9 8 1.2-1.4 2-3.1 2.6-4.8h-2.3v.1c-.1.4-.5.6-.9.6-.6 0-.9-.2-.9-.5 0-.2.1-.4.2-.7.5-1.2.8-2.5 1.1-3.8h-3.7z" fill="#333"/><path d="m902.3 43.8v1.6c.1 1.2 0 2.3-.3 3.4-.7 2.6-2.4 4.3-5 4.3-1.3.1-2.5-.4-3.3-1.4-.7-1-1.1-2.2-1.1-3.4.1-2.4.9-4.7 2.4-6.6-.3 0-.9 0-1.1 0-.6 0-1.2-.2-1.5-.7-.2-.3-.4-.7-.4-1.1 0-.1 0-.2.2-.2s.2.1.2.2c.3.5.5.6 1.2.6.8 0 1.7-.2 2.5-.5.2-.1.4-.2.5-.3.2-.1.4-.2.6-.2.5.1.9.4 1.2.8.1.1.1.2.1.3 0 .2-.1.4-.4.5-.4.2-.8.4-1.2.8-.8.7-1.4 1.5-2 2.4-.7 1.2-1.1 2.5-1.2 3.9-.1.9.2 1.8.8 2.5.7.7 1.6 1 2.5.9 3.2 0 4.2-2.7 4.6-5.4.1-1 .2-1.9.1-2.9 0-.7-.2-1.5-.5-2.1-.1-.2-.2-.5-.2-.8 0-.4.4-.6.9-.6.4 0 .7.3.7.7 0 .6 0 1.2.2 1.7.3.8.7 1.6 1.3 2.3.5.6 1 1.2 1.6 1.7.4.3.6.7.6 1.2 0 .3-.1.5-.3.7-.1.1-.3.2-.5.2-.3 0-.8-.3-1.5-1.2s-1.3-2-1.7-3.1zm2.8-4c.4.2.6.6.7 1.1 0 .3-.3.6-.6.6-.3 0-.5-.2-.6-.4-.3-.6-.7-1.1-1.1-1.6-.1-.1-.2-.2-.2-.2s0-.1.1-.1.2 0 .3 0c.5 0 1 .2 1.4.6zm1.7-1.3c.4.2.6.5.6.9 0 .3-.2.6-.5.7-.3 0-.5-.1-.7-.4-.3-.5-.7-1-1.3-1.4-.1-.1-.2-.2-.2-.2s0-.1.1-.1.2 0 .3 0c.6 0 1.2.2 1.7.5z" fill="#333"/><path d="m914.1 46.1c-.6.6-1.3 1.1-2.1 1.5-.1.1-.2-.1-.1-.2 1.2-1.3 2.1-2.7 2.9-4.3.3-.6.6-1.3.7-1.9 1.7.7 2 .9 2 1.1s-.1.3-.6.4c-.4.8-1 1.5-1.6 2.2.8.1.9.2.9.4s-.1.3-.5.4v7.6c0 .5-.3.8-.9.8-.4 0-.8-.2-.8-.6s.1-1.9.1-4.8zm2.7-7.3c-1.2 1.6-2.7 2.9-4.5 3.8-.1 0-.2-.1-.1-.2.9-.9 1.7-2 2.3-3.1.4-.6.6-1.3.8-2 1.4.5 2.2.9 2.2 1.2s-.2.3-.7.3zm4.2 7.3c1.3.4 1.7.5 1.7.7s-.1.2-.7.4c-.1.2-.2.3-.3.5h3c.7-.6.8-.8.9-.8s.3.1 1 .7c.3.3.4.4.4.6s-.2.3-.8.5c-.7.9-1.4 1.6-2.3 2.3 1.6.7 3.4 1 5.2 1 .1 0 .1.2 0 .2-.6.2-1 .7-1.1 1.3 0 .3-.1.4-.3.4-.3 0-.6-.1-.9-.2-1.4-.4-2.8-1.1-3.9-2-2 1.2-4.3 2-6.7 2.2-.1 0-.2-.2-.1-.2 2.1-.6 4.1-1.6 5.9-2.9-.5-.6-1-1.2-1.3-1.9-1.1 1.2-2.6 2.1-4.1 2.7-.1 0-.2-.1-.1-.2 1.3-1 2.5-2.2 3.4-3.5.4-.5.7-1.1.8-1.8h-.3c0 .5-.3.6-.9.6s-.7-.2-.7-.5.1-1 .1-2.9c0-.3 0-.8 0-1.2-.4.4-.8.8-1.2 1.1-.1 0-.2 0-.1-.1.7-1.2 1.3-2.5 1.8-3.8.2-.6.4-1.2.5-1.8 1.8.5 2.2.7 2.2 1s-.1.3-.8.4c-.1.3-.3.6-.5.8h5.2c.9-1.1 1.1-1.2 1.2-1.2s.3.1 1.2.8c.3.3.5.5.5.6s0 .2-.2.2h-8.1c-.2.4-.5.7-.8 1.1.3.1.6.3.8.5h4.7c.5-.6.7-.7.8-.7s.3.1 1 .6c.3.2.4.4.4.5s-.1.3-.5.5v.4c0 1.5.1 2.5.1 2.9 0 .5-.3.7-.9.7-.4 0-.7-.1-.7-.5zm4.2-4.1h-4.9v1.6h4.9zm0 2h-4.9v1.7h4.9zm-3.9 4.1c-.2.2-.3.4-.4.5.5.6 1.1 1.2 1.8 1.6.7-.6 1.4-1.3 2-2.1z" fill="#333"/><path d="m938.6 40.2c0 6.2-.3 8.3-1.3 10.2-.7 1.4-1.8 2.5-3.1 3.3-.1.1-.3-.1-.2-.2 1-1.1 1.7-2.3 2.2-3.7.7-1.9.9-3.6.9-8 0-1.4 0-2.9-.2-4.3 2.2.3 2.4.3 2.4.6s-.1.3-.6.5zm-2.8 1.9v4.8s-.3.6-.9.6-.7-.2-.7-.7.1-1.6.1-4.7c0-.8 0-1.5-.1-2.3 1.9.2 2.1.3 2.1.5s-.1.3-.5.5zm12.2 2.5c.7-.8.8-.9 1-.9s.3.1 1.2.9c.4.4.5.5.5.7 0 .3-.1.4-1 .3-.2 0-.3 0-.5.2-.4.2-.7.4-1.1.6-.1 0-.2 0-.1-.1.2-.4.3-.9.3-1.3h-8v.5c0 .4-.1.7-.2 1.1.5.2.8.4 1.4.7h1.9c0-.6 0-1.3-.1-1.9 2.2.2 2.2.3 2.2.5s-.1.3-.6.5v.9h2c.6-.7.8-.8.9-.8s.3.1 1 .7c.3.2.4.4.4.5s-.1.3-.5.5v.5 2.3c.1.5-.2 1.1-.7 1.4-.3.1-.7.2-1 .2-.2 0-.3-.1-.3-.4-.1-.5-.4-.8-1.3-1-.1 0-.1-.2 0-.2h1.5c.2 0 .2 0 .2-.2v-3.1h-2.1c0 3 .1 5 .1 5.7 0 .5-.3.7-1 .7s-.7-.1-.7-.6.1-2.3.1-5.7h-2v4.1c0 .5-.3.8-.9.8s-.7-.2-.7-.5.1-.9.1-2.8c0-.8 0-1.5 0-2.2-.2.1-.4.2-.6.2-.5 0-.8-.4-.8-.8 0 0 0 0 0-.1 0-.3.1-.5.5-.8.6-.4.9-1.1.8-1.8 0-.1.2-.2.2-.1.1.3.2.6.3.9zm-1.1-5.8h-5.5c-.4 0-.7.1-1.1.2l-.2-.7c.4.1.8.1 1.3.2h5.3c.7-.8.8-.9.9-.9s.3.1 1 .7c.3.3.4.4.4.5s-.1.2-.6.6v.6c0 1.6.1 2.6.1 3 0 .5-.3.7-1 .7-.5 0-.7-.2-.7-.6h-5.6c-.3 0-.7 0-1 .1l-.2-.7c.4.1.8.1 1.2.1h5.6v-1.7h-5.1c-.3 0-.7 0-1 .1l-.2-.7c.4.1.8.1 1.2.1h5.2z" fill="#333"/><path d="m964.3 49.8c0 1.9.1 3.2.1 3.6s-.4.6-1 .6-.8-.1-.8-.7.1-1.5.1-3.6h-5.6c-.4 0-.9 0-1.3.1l-.2-.7c.5.1 1 .1 1.5.2h5.6v-.1c0-.7 0-1.3-.1-2 2.1.2 2.3.3 2.3.6s-.1.2-.6.5v1.1h4.5c.9-1.1 1.1-1.3 1.2-1.3s.4.1 1.3.9c.4.3.6.5.6.6s-.1.2-.2.2zm-7.1-2.5c0 .5-.1.7-.3.7s-.5-.5-1.2-1.9c.5-.2 1.1-.3 1.5-.5 1.1-.3 2.2-.8 3.2-1.3.1 0 .2.2.2.2-1 1.1-2.1 2.1-3.4 2.8zm5.5-7.3c1.3.5 1.7.7 1.7.9s0 .2-.6.2c-.5.5-1 1-1.6 1.4.4.3.6.7.6 1.1s-.3.8-.7.8c0 0 0 0-.1 0-.4 0-.5-.1-.8-1-.2-.6-.6-1.2-1.1-1.7v-.1h.1c.5.1 1 .3 1.4.5.2-.3.3-.7.5-1 .2-.4.3-.7.4-1.1h-5.4c-.4 0-.8 0-1.3.1l-.2-.7c.5.1.9.1 1.4.1h5.4v-1.2c0-.4 0-.7-.1-1.1 2.2.2 2.5.4 2.5.6s-.2.4-.6.5v1.2h4.3c1-1.1 1.2-1.2 1.3-1.2s.3.1 1.2.8c.4.3.5.5.5.6s0 .2-.2.2zm-4 4.1c-.5 0-.6-.2-.9-1.1-.2-.7-.6-1.4-1.2-1.9v-.1h.1c2 .6 2.9 1.3 2.9 2.2 0 .4-.4.8-.9.9zm6.7 1.8c-.2-.4-.4-.8-.7-1.1-.1-.1 0-.2.1-.1 1.5.5 2.5 1.3 2.5 2.2 0 .5-.4.9-.8.9-.4 0-.5-.1-.8-1.1 0-.1-.1-.3-.1-.4-1.5.5-3.1.9-4.7 1.2-.1.4-.1.5-.3.5s-.4-.3-.8-1.9h1.8c.8-.9 1.6-1.9 2.3-3 .3-.5.6-1 .8-1.5 1.5.8 1.8 1 1.8 1.2s0 .2-.8.2c-1.1 1.1-2.2 2.1-3.4 3 1.1 0 2.1 0 3.1-.1zm4.5-3.8c-1 .9-2.2 1.5-3.4 2.1-.1 0-.2-.1-.2-.2.7-.7 1.3-1.4 1.8-2.2.3-.4.5-.8.7-1.3 1.4.7 1.8 1 1.8 1.2s-.1.5-.7.4zm-.1 5.5c-.5 0-.6-.2-1.1-1-.4-.7-1-1.4-1.7-1.8-.1 0 0-.2.1-.2 2.4.4 3.6 1.1 3.6 2.1 0 .5-.4.9-.9.9z" fill="#333"/><path d="m724.3 308.9v-308.9" fill="none" stroke="#4aa064" stroke-miterlimit="10" stroke-width="1.76"/><path d="m357.7 308.9v-308.9" fill="none" stroke="#4aa064" stroke-miterlimit="10" stroke-width="1.76"/><path d="m800 99.3c4.2 0 7.7-3.4 7.7-7.7s-3.5-7.6-7.7-7.6-7.7 3.4-7.7 7.7 3.5 7.6 7.7 7.6z" fill="#333"/><path d="m820.1 126.1-2.7-11.2c-2.6-10.3-11.5-12.7-17.5-12.7s-14.8 2.4-17.5 12.7l-5.2 22c-.6 1.5.2 3.3 1.7 3.9s3.3-.2 3.9-1.7c0-.1.1-.2.1-.4l6.1-16.1.2 3.5c-2.6 4.2-4 9-4.1 13.9 0 3.4 3.4 18.6 3.4 18.6h2.1l1 22.5c.1 1.9 1.8 3.4 3.8 3.2 1.7-.1 3.1-1.5 3.2-3.2l.9-22.4h1l.9 22.4c.2 1.9 1.9 3.3 3.9 3.1 1.6-.2 2.9-1.5 3.1-3.1l1-22.5h2.1s3.4-15.3 3.4-18.6c0-1.9-.2-3.8-.7-5.7l-9.8 3.8c-2.3 1-5 0-6-2.3s0-5 2.3-6l9.9-4.9c0 .1.2-2.3.2-2.3l1.2 3.3-10.7 5.3c-1.5.8-2 2.6-1.3 4 .7 1.3 2.3 1.9 3.7 1.4l14.4-5.6c2-.9 2.5-2.8 2-4.9z" fill="#333"/><path d="m860.8 169.2-.2.3-7-5.4 3.6-4.7c.2-.3.5-.5.9-.3.2.1.3.2.3.4l.3.7c.3.6 1 1 1.7.8l6-1.4c.4-.2.8 0 1 .4.1.2.1.4 0 .5l-.5 2.7c-.1.7-.7 1.2-1.4 1.4l-3.4.7c-.6.1-.6.2 0 .2l1.9-.1c.7 0 1 .4.7 1-.4.6-1 1.1-1.7 1.3l-.4.1c-.7.4-1.3.8-1.8 1.4z" fill="#333"/><path d="m840.5 170.5c.2-.9.7-.5.8-.2.9 1.8 2.2 3.4 3.7 4.8 1.3-1.6 4.6-5.8 7.4-9.4l7 5.4-.9 1.3c1 2.8 3.1 8.7 3.1 8.7.3.7-.1 1.6-.9 1.8-.7.2-1.5-.1-1.7-.9l-3-6.1-1 1.4c.4.4.6 1 .6 1.5v.6h.2c3.1 0 3.3 3.4.2 3.4h-9.6c-3.2 0-4.2-2.5-3.2-5.1-1.3-1.1-3.6-4-2.7-7.2z" fill="#333"/><path d="m888.9 91.5c0 4.4-3.5 7.9-7.9 7.9s-7.9-3.5-7.9-7.9c0-4.3 3.5-7.9 7.9-7.9s7.9 3.5 7.9 7.9z" fill="#333"/><path d="m881.1 102.2c-5.3 0-16.8 2.3-16.8 13.5l1.4 27.3c.1 1.7 1.6 3.1 3.3 3h.1c1.1-.1 2-.8 2.5-1.9l1 35.7c0 2.2 1.8 4 4 4s4-1.8 4-4l.5-30 .5 30c0 2.2 1.8 4 4 4s4-1.8 4-4l1-35.7c.4 1 1.4 1.7 2.5 1.9 1.7.1 3.2-1.2 3.3-2.9 0 0 0 0 0-.1l1.4-27.3c0-11.3-11.4-13.5-16.7-13.5z" fill="#333"/><path d="m926.6 91.6c0 4.4-3.5 7.9-7.9 7.9s-7.9-3.5-7.9-7.9 3.5-7.9 7.9-7.9c4.4 0 7.9 3.6 7.9 7.9z" fill="#333"/><path d="m929 134.5c.2-2.3.3-4.8.3-4.8 5.7-2 6.2-12.5 6.2-12.5 0-11.3-9.2-15-16.8-15-7.3 0-16.4 4.3-16.8 15 0 0-.1 11 6.7 15.5l.1 1.3c-1.3 3.3-5.2 14.1-5.2 25.9h6.6l1 20.1c-.1 2.2 1.6 4 3.8 4.1-.1-2.1 1.5-3.9 3.6-4s3.9 1.5 4 3.6v.4c2.2-.1 3.9-2 3.8-4.1l1-20.1h6.7c.1-11.2-3.5-21.6-5-25.4z" fill="#333"/><path d="m926.3 111.2c1.8-1.3 4.3-.9 5.6.9s.9 4.3-.9 5.6-4.3.9-5.6-.9c-1.3-1.8-.9-4.3.9-5.6z" fill="#fff"/><path d="m912.8 122c.3-1 1.3-1.6 2.3-1.4 1.3.3 3.5 1.1 3.5 1.1l2.7-1.8-2.6-1.2c-.1 0-.2-.1-.3-.2-.5-.5-.5-1.2 0-1.7.3-.3.8-.5 1.2-.3 0 0 5.6 1.8 6.5 2.1 1.2.2 2 1.4 1.7 2.6-.1.6-.4 1.1-.9 1.4v.1l-2.9.3c-1.6.1-2.8 1.5-2.6 3.1v.3c-1.1.6-2.4.7-3.6.4-.9-.2-1.7-.5-2.5-1.1l-.2.6h-3.6z" fill="#fff"/><path d="m1019.8 91.8c0 4.1-3.3 7.5-7.5 7.5-4.1 0-7.5-3.3-7.5-7.5 0-4.1 3.3-7.5 7.5-7.5 4.2 0 7.5 3.4 7.5 7.5z" fill="#333"/><path d="m984.1 142.6c0 3.6-3 6.6-6.6 6.6s-6.6-3-6.6-6.6 3-6.6 6.6-6.6 6.6 3 6.6 6.6z" fill="#333"/><path d="m969.6 181.2c0 2.1-1.7 3.9-3.9 3.9-2.1 0-3.9-1.7-3.9-3.9 0-2.1 1.7-3.9 3.9-3.9s3.9 1.8 3.9 3.9z" fill="#333"/><path d="m983.3 181.2c0 2.1-1.7 3.9-3.9 3.9-2.1 0-3.9-1.7-3.9-3.9 0-2.1 1.7-3.9 3.9-3.9s3.9 1.8 3.9 3.9z" fill="#333"/><path d="m975.3 175.8h-12.9l2.2-3.9h10.7c1.6 0 4.6-1.4 5.8-5.1.8-2.5 6.1-22.1 6.1-22.4l.4-1.5h10.9l-1.2 3.9h-6.7s-5.1 18.8-5.8 21.1c-1.7 5.2-6 7.9-9.5 7.9z" fill="#333"/><path d="m975.8 150.6c-3.1.5-13.6 3.2-13.6 3.2-1.1.2-1.8 1.3-1.6 2.4s1.3 1.8 2.4 1.6l6.7-.8-1.3 5h-5.1c-2.3 0-3.8.8-4.7 2.7l-4.1 9.1c-.6 1.4 0 2.9 1.4 3.5 1.4.6 2.9 0 3.5-1.4l3.5-6.2h10.3c2.1 0 4.6-1.2 5.2-3.6s2.8-10.8 2.8-10.8c1.3-3.7-1.7-5.3-5.4-4.7z" fill="#333"/><path d="m1032 161.3-.7-5.1h9.6s-5.9-23.8-15.9-30.1c0 0-3.5-16.2-4.8-20.2s-10.2-7.2-14.9 4.3l-4.1 10.5-5.5 13.9c-.7 1.5 0 3.2 1.5 3.8 1.5.7 3.2 0 3.8-1.5l6.7-13.4.4-.9 1.7 6.2-8.3 51.7c-.5 2 .8 4.1 2.8 4.6s4.1-.8 4.6-2.8c0-.1 0-.2 0-.2l6.6-25.9h5.9l1.6 6.9 4.5 19c.5 2 2.5 3.3 4.6 2.8 1.9-.5 3.1-2.3 2.9-4.2z" fill="#333"/><path d="m494.9 80.5h101.1v56.4h-101.1z" fill="#333"/><path d="m516.6 147.6c5.3 0 9.6-4.3 9.6-9.6s-4.3-9.6-9.6-9.6-9.5 4.3-9.6 9.5c0 5.4 4.2 9.7 9.6 9.7z" fill="none" stroke="#fff" stroke-width="6"/><path d="m516.6 152.7c-7 0-12.1 8.3-12.1 13.4v10.2h24.3v-10.2c-.1-5.1-5.2-13.4-12.2-13.4z" fill="none" stroke="#fff" stroke-width="6"/><path d="m547.1 147.6c5.3 0 9.6-4.3 9.6-9.6s-4.3-9.6-9.6-9.6-9.6 4.3-9.6 9.6 4.3 9.6 9.6 9.6c-.1 0 0 0 0 0z" fill="none" stroke="#fff" stroke-width="6"/><path d="m547.1 152.7c-7 0-12.1 8.3-12.1 13.4v10.2h24.3v-10.2c-.1-5.1-5.2-13.4-12.2-13.4z" fill="none" stroke="#fff" stroke-width="6"/><path d="m574.5 154.7c4 0 7.2-3.2 7.2-7.2s-3.2-7.2-7.2-7.2-7.2 3.2-7.2 7.2 3.2 7.2 7.2 7.2z" fill="none" stroke="#fff" stroke-width="6"/><path d="m574.5 158.6c-5.3 0-9.1 6.2-9.1 10.1v7.7h18.3v-7.7c0-3.9-3.9-10.1-9.2-10.1z" fill="none" stroke="#fff" stroke-width="6"/><g fill="#333"><path d="m516.6 147.6c5.3 0 9.6-4.3 9.6-9.6s-4.3-9.6-9.6-9.6-9.5 4.3-9.6 9.5c0 5.4 4.2 9.7 9.6 9.7z"/><path d="m516.6 152.7c-7 0-12.1 8.3-12.1 13.4v10.2h24.3v-10.2c-.1-5.1-5.2-13.4-12.2-13.4z"/><path d="m547.1 147.6c5.3 0 9.6-4.3 9.6-9.6s-4.3-9.6-9.6-9.6-9.6 4.3-9.6 9.6 4.3 9.6 9.6 9.6c-.1 0 0 0 0 0z"/><path d="m547.1 152.7c-7 0-12.1 8.3-12.1 13.4v10.2h24.3v-10.2c-.1-5.1-5.2-13.4-12.2-13.4z"/><path d="m574.5 154.7c4 0 7.2-3.2 7.2-7.2s-3.2-7.2-7.2-7.2-7.2 3.2-7.2 7.2 3.2 7.2 7.2 7.2z"/><path d="m574.5 158.6c-5.3 0-9.1 6.2-9.1 10.1v7.7h18.3v-7.7c0-3.9-3.9-10.1-9.2-10.1z"/><path d="m494.9 175.7h101.1v6.6h-101.1z"/><path d="m122.6 169.4h107.9v11.2h-107.9z"/><path d="m149.4 166.5h28.3 17.3v-8.9h-21.3l-9-24.4h-41.9l13.1 33.3z"/><path d="m189.3 114.6c.6 3.3 1.8 6.2 3.2 7.6v4 .3l7.4 3.2 7.4-3.2c0-.1-.1-.2-.1-.3v-4c1.4-1.4 2.6-4.3 3.2-7.6 1.5-.5 2.4-1.3 3.5-4.7 1.2-3.6-1.7-3.5-1.7-3.5 2.3-6.9-.7-13.4-5.9-12.9-3.6-5.6-15.5 1.3-19.2.8 0 1.2.3 2.3.9 3.3-1.3 2.2-.8 6.6-.4 8.8-.2 0-2.8 0-1.7 3.5s1.9 4.2 3.4 4.7z"/><path d="m197.1 131.3h5.6v4.3h-5.6z"/><path d="m198.8 153.8v12.7h31.4c-1.7-15.6-9.2-30.2-14.4-31.9-.6-.2-1.2-.5-1.8-.8l-10.6 13-.8-8.5h-5.6l-.8 8.5-10.6-13c-.6.3-1.2.6-1.8.8-2.8.9-6.3 7.5-9.1 15.1l1.5 4.1z"/></g><path d="m145.3 91.3v13.7l4.3 7.9" fill="none" stroke="#fff" stroke-miterlimit="10" stroke-width="1.18"/></svg>