<svg enable-background="new 0 0 335 366.2" viewBox="0 0 335 366.2" xmlns="http://www.w3.org/2000/svg"><path d="m5 0h325v361.2h-325z" fill="none"/><path d="m279.9 134c0 .4-.3.6-.9.6s-.6-.1-.6-.5c0-1.1.1-2.3.1-6.9 0-1.5 0-2.9-.1-4.4.6.2 1.1.5 1.6.8h1.4c.5-.6.7-.7.8-.7s.3.1.9.5c.2.2.4.3.4.4s-.1.2-.4.5v1.5c0 4 .1 6.7.1 7.6 0 .4-.3.6-.9.6s-.6-.1-.6-.5v-.5h-1.7zm1.6-10.1h-1.7v4h1.7zm0 4.4h-1.7v4.3h1.7zm6.6-.8h2.2c.7-.9.9-1 1-1s.3.1 1.1.7c.3.3.5.4.5.5s0 .2-.2.2h-8.3c-.3 0-.6 0-.9.1l-.2-.6c.4.1.7.1 1.1.1h2.3v-2.5h-1.8c-.3 0-.6 0-.9.1l-.2-.6c.3.1.7.1 1 .1h1.9v-1.4c0-.4 0-.8-.1-1.3 1.9.2 2.1.3 2.1.5s-.2.3-.5.4v1.7h1.5c.7-.9.9-1 1-1s.3.1 1.1.7c.3.3.5.4.5.5s0 .2-.2.2h-3.8v2.6zm2.2 4.8v2.6s-.1.9-.4 1.2c-.4.4-1 .6-1.5.6-.1 0-.2-.1-.3-.2-.1-.8-.6-1.1-1.8-1.4-.1 0-.1-.2 0-.2.8 0 1.6.1 2.2.1.2 0 .3-.1.3-.3v-4.1h-4.4c-.3 0-.6 0-.9.1l-.2-.6c.4.1.7.1 1.1.1h4.4v-.7c0-.4 0-.9-.1-1.3 1.6.1 2.1.2 2.1.5s-.1.3-.5.4v1.1h.4c.6-.7.8-.8.9-.8s.3.1.9.6c.2.2.4.3.4.4s0 .2-.2.2h-2.3zm-4 1.8c-.4 0-.6-.3-.8-1-.1-.6-.4-1.2-1-1.6-.1 0 0-.1.1-.1 1.8.4 2.5.9 2.5 1.8.1.5-.2.9-.8.9z" fill="#333"/><path d="m299 127.3v8.8c0 .4-.3.6-.9.6-.5 0-.7-.2-.7-.6 0-1.2.1-2.4.1-7.1 0-2.4 0-4.8-.1-7.2.6.2 1.2.5 1.7.8h2.8c.5-.6.7-.7.8-.7s.3.1.9.6c.3.2.4.3.4.4s-.1.2-.5.5v.6 3.2s-.3.6-.9.6-.6-.1-.6-.5v-.2zm3.2-4.2h-3.2v1.6h3.1v-1.6zm0 2h-3.2v1.8h3.1v-1.8zm.4 8.9v.6c0 .4-.2.6-.8.6-.4 0-.6-.1-.6-.5 0-.5 0-1.1 0-3.2 0-1 0-2-.1-3 .6.2 1.1.5 1.6.8h3c.5-.6.7-.7.8-.7s.3.1.8.5c.3.2.4.3.4.5s-.1.2-.5.4v.7 3.6s-.2.6-.8.6-.6-.2-.6-.5v-.4zm3.4-4.4h-3.4v1.7h3.4zm0 2.1h-3.4v1.9h3.4zm.5-4.4c0 .5-.3.7-.8.7s-.6-.1-.6-.5c0-.6 0-1.2 0-3.7 0-.6 0-1.2-.1-1.8.6.2 1.1.5 1.6.8h2.9c.6-.6.7-.7.8-.7s.3.1.9.6c.3.2.4.4.4.5s-.1.3-.4.5v1.9 9.8c0 .4-.1.7-.3 1-.4.4-.9.5-1.4.5-.2 0-.3 0-.3-.2-.1-.7-.4-1-1.6-1.3-.1 0-.1-.2 0-.2 1 .1 1.2.1 1.9.1.2 0 .2 0 .2-.2v-7.5zm3.2-4.2h-3.2v1.6h3.2zm0 2h-3.2v1.8h3.2z" fill="#333"/><path d="m148.7 106.6-4-10.8c1.3-1.1 2.7-2 4.3-2.6 1.8-.7 3.6-1.2 5.5-1.6s3.9-.5 5.9-.5c3 0 6 .5 8.8 1.5 2.4.8 4.5 2.3 6.1 4.2 1.5 1.9 2.3 4.2 2.2 6.6 0 1.9-.4 3.7-1.2 5.4s-1.9 3.3-3.2 4.7c-1.3 1.5-2.8 2.8-4.3 4-1.6 1.2-3.1 2.3-4.6 3.3l-4.1 2.6h11.4c1.1 0 2.2-.2 3.3-.7 1-.5 2-1.2 2.7-2.1.9-1.1 1.7-2.3 2.2-3.5h.6l-4.1 16.9h-31.2v-.6c1.7-2.1 3.5-4.2 5.3-6.4 1.8-2.1 3.6-4.2 5.3-6.3 1.6-2 3.2-4.1 4.6-6.3 1.3-1.9 2.4-4 3.2-6.2.8-1.9 1.2-4 1.2-6.1.1-2.2-.6-4.4-2-6.1-1.4-1.5-3.5-2.2-5.6-1.9-2.4.1-4.5 1.4-5.7 3.4-1.3 2.1-1.9 5.1-1.9 9z" fill="#4aa064"/><path d="m184.3 92.1 31.8-.1-7.7 17.8c-.5 1.2-1.1 2.6-1.7 4.2s-1.2 3.4-1.9 5.3-1.3 3.7-1.9 5.6-1.1 3.6-1.7 5.2c-.5 1.6-.9 2.9-1.2 4h-10c.7-1.2 1.6-2.7 2.6-4.4s2-3.5 3.1-5.4l3.2-5.7c1.1-1.9 2-3.7 2.9-5.3s1.5-3 2-4.1l3.1-6.7h-19.2c-1-.1-2 .3-2.8.9-.8.7-1.4 1.7-1.7 2.7h-.6z" fill="#4aa064"/><path d="m224.2 134.8c-3 0-5.4-2.4-5.4-5.4s2.4-5.4 5.4-5.4 5.4 2.4 5.4 5.4c0 1.4-.6 2.8-1.6 3.8s-2.4 1.6-3.8 1.6z" fill="#4aa064"/><path d="m248.4 91.2c2.8-.1 5.6.4 8.2 1.2 2 .7 3.8 1.9 5.2 3.5 1.2 1.6 1.9 3.6 1.8 5.6 0 1.5-.3 3-1 4.3-.6 1.2-1.5 2.1-2.6 2.9-1.1.7-2.3 1.2-3.5 1.4s-2.4.2-3.6-.2c1.3 0 2.7.2 3.9.6 1.5.4 2.8 1 4.1 1.9s2.4 2.2 3.2 3.7c.9 1.8 1.3 3.8 1.3 5.8.1 2.6-.6 5.2-2 7.4-1.3 2.1-3.1 4-5.2 5.3-2.3 1.4-4.8 2.4-7.4 2.9-2.8.6-5.6.7-8.5.5-2.9-.3-5.7-1-8.3-2.2l.1-.6c2.4.1 4.7-.3 7-.9 2.1-.6 4.1-1.6 5.9-2.9 1.6-1.2 3-2.8 4-4.6s1.5-3.9 1.5-6c.1-2.1-.5-4.1-1.7-5.8-1.1-1.4-2.6-2.5-4.3-3.2-1.6-.7-3.4-1-5.1-1l.1-.6c3.6.1 7-1.8 8.8-5 .9-1.6 1.2-3.4 1-5.2 0-1.3-.5-2.6-1.2-3.6-.7-.9-1.6-1.5-2.7-1.9s-2.2-.5-3.4-.4c-2.1 0-4.1 1.2-5.1 3.2-1 1.9-1.5 4.7-1.4 8.5h-.6l-3.4-10.4c1.8-1.4 3.9-2.5 6.2-3.1 2.8-.7 5.7-1.1 8.7-1.1z" fill="#4aa064"/><g fill="#333"><path d="m126.7 34.4h3.3c.8-1 1-1.1 1.1-1.1s.3.1 1.1.8c.4.3.5.4.5.5s0 .1-.2.1h-5.8v.2 4.9c0 .5-.3.6-.9.6s-.6-.1-.6-.5.1-2.7.1-5v-.2h-4.1c-.4 0-.8 0-1.3.1l-.2-.5c.5.1 1 .1 1.5.1h4.1v-5.5h-3.4c-.4 0-.8 0-1.3.1l-.2-.5c.5.1 1 .1 1.4.1h7.8c.7-.9.9-1 1-1s.3.1 1 .7c.3.3.4.4.4.5s0 .1-.2.1h-5.1zm-3.6-.9c-.4 0-.5-.2-.7-1-.1-1-.5-1.9-1-2.8l.1-.1c1.6.9 2.4 1.9 2.4 2.9.1.6-.3 1-.8 1zm7.5-2.9c-.8 1.3-1.8 2.4-3.1 3.3 0 0-.2-.1-.1-.1.7-.9 1.3-2 1.7-3.1.2-.4.3-.9.4-1.4 1.2.5 1.7.8 1.7 1s-.1.3-.6.3z"/><path d="m140 31.9c.4-.8.7-1.6 1-2.5.2-.6.3-1.2.3-1.8 1.6.4 1.9.5 1.9.7s-.1.3-.5.3c-.2.6-.5 1.2-.8 1.7h4.1c.5-.6.6-.7.8-.7s.2.1.8.6c.2.2.3.3.3.5s0 .1-.4.4c-.1 4.2-.2 6-.6 7.5-.1.5-.4.9-.7 1.2-.4.3-.8.5-1.3.5-.3 0-.3 0-.4-.4s-.5-.8-1.6-1.1c-.1 0-.1-.2 0-.2.5.1 1.1.1 1.6.1.6 0 .8 0 .9-.3.5-.9.7-2.9.8-7.8h-4.4c-.6 1.1-1.5 2.1-2.5 2.8-.1 0-.2 0-.1-.1.2-.3.6-.9.8-1.4 0 .1-.1.1-.1.1h-1.6v3.9c.6-.2 1.3-.4 1.8-.7.1 0 .1.1.1.1-1.2 1-2.5 1.8-3.9 2.5 0 .5-.1.6-.3.6s-.5-.5-.9-1.7c.4-.1.8-.1 1.2-.2l.8-.2v-4.3h-.9c-.2 0-.5 0-.7.1l-.1-.5c.3.1.5.1.8.1h1v-2.3c0-.7 0-1.2-.1-1.7 1.7.1 1.9.3 1.9.5s-.2.2-.5.4v3h.1c.4-.7.6-.8.7-.8s.2.1.7.5c0 .2.1.4 0 .6zm.8 5.7c0 .4-.1.6-.3.6s-.4-.3-.9-1.7c.4 0 .8-.1 1.2-.2 1.5-.3 2.9-.6 4.3-1.1.1 0 .1.1.1.1-1.4 1-2.9 1.8-4.4 2.3zm2.2-4.4c.6-.7.7-.8.8-.8s.3.1.8.6c.2.2.3.3.3.4s0 .1-.2.1h-3.6c-.2 0-.4 0-.6.1l-.1-.5c.2.1.5.1.7.1z"/><path d="m154.4 31.5c.5-.5.6-.6.7-.6s.2.1.7.5c.2.2.3.3.3.4s0 .2-.4.3c-.7 4.2-2.1 6.3-5.1 8-.1 0-.1-.1-.1-.1 1.5-1.3 2.6-3 3.1-4.8-.1.1-.2.1-.4.1s-.4-.1-.4-.6c-.1-.5-.3-1-.6-1.4-.5.8-1.1 1.4-1.8 2l-.1-.1c1.1-1.9 1.8-4.1 1.9-6.3h-.6c-.3 0-.6 0-.9.1l-.2-.5c.4.1.7.1 1.1.1h2.9c.6-.7.8-.8.9-.8s.3.1.9.6c.3.2.4.3.4.4s0 .1-.2.1h-3c-.1.8-.3 1.6-.5 2.4zm-1.3.4c-.2.5-.4 1-.6 1.4.6.3 1.3.6 1.4 1.3.3-.9.4-1.8.6-2.8zm6.1.8c.1.6.2 1.2.3 1.8l1.7-.2c.6-.8.7-.9.8-.9s.3.1.9.5c.3.2.4.3.4.4s-.1.1-.1.1l-3.6.5c.1.5.3 1 .5 1.5.4-.4.7-.8 1-1.3 1.1.6 1.5.8 1.5 1s-.1.2-.7.2c-.4.4-.7.7-1.1 1.1.1.2.3.4.4.5.3.4.7.7 1.1.8.2 0 .3-.1 1-1.6 0-.1.2 0 .2 0-.1 1.1-.2 1.7-.2 1.8s0 .2.1.3c.2.1.3.3.3.6 0 .4-.3.6-.7.6-.9-.2-1.8-.7-2.4-1.4-.3-.3-.6-.6-.8-.9-1.7 1.1-3.5 1.7-5.5 1.9-.1 0-.1-.1-.1-.1 1.8-.5 3.5-1.4 5-2.6-.4-.7-.6-1.4-.8-2.2l-1.6.2c-.3 0-.6.1-.9.2l-.2-.5h1.1l1.6-.2c-.1-.7-.2-1.2-.3-1.8l-.9.1c-.3 0-.6.1-.9.2l-.2-.5h1.1l.9-.1c-.1-.6-.1-1.1-.1-1.7h-1c-.3 0-.6.1-.9.2l-.2-.5h1.1l.9-.1c0-.3 0-.6 0-.9 0-.6 0-1.3-.1-1.9 1.5.2 1.8.3 1.8.5s-.1.2-.4.4v1.8l1.9-.2c.5-.7.6-.8.7-.8s.3.1.8.4c.2.2.3.3.3.4s-.1.1-.1.1l-3.5.5c0 .6 0 1.1.1 1.7l1.5-.2c.5-.8.6-.8.7-.8s.3.1.9.4c.3.2.4.3.4.4s-.1.1-.1.1zm1.6-3.1c-.2 0-.3 0-.5-.5-.2-.3-.4-.6-.7-.9-.1 0 0-.1.1-.1 1.2.1 1.7.4 1.7 1-.1.3-.3.5-.6.5z"/><path d="m172.9 36.3c.7.6 1.5 1 2.3 1.4 1.2.5 2.4.7 3.7.8.1 0 .1.1 0 .2-.5.2-.6.3-1 1.2 0 .1-.1.1-.2.2-.2 0-.5-.1-.7-.2-.9-.3-1.7-.8-2.5-1.4-.7-.5-1.3-1.1-1.8-1.8 0 1.8.1 3.1.1 3.5s-.2.5-.8.5c-.4 0-.6-.2-.6-.5s.1-1.7.1-2.9c-1.5 1.5-3.5 2.5-5.6 2.8-.1 0-.1-.1-.1-.1 1.8-.8 3.4-2 4.7-3.6h-3.3c-.3 0-.7 0-1 .1l-.1-.5c.4.1.7.1 1.1.1h4.3v-1.3h-2.8c-.3 0-.7 0-1 .1l-.2-.5c.4.1.7.1 1.1.1h2.8v-1.3h-3.4c-.3 0-.7 0-1 .1l-.2-.5c.4.1.7.1 1.1.1h2.3c-.2 0-.3-.2-.4-.6-.1-.5-.4-.9-.7-1.2-.1 0 0-.1.1-.1 1.3.2 1.9.6 1.9 1.3 0 .3-.2.6-.5.7h2.3c.2-.4.4-.8.6-1.2.1-.3.2-.6.3-.9 1.1.4 1.6.6 1.6.8s-.1.2-.6.2c-.4.4-.9.7-1.4 1h2.3c.7-.7.8-.8.9-.8s.3.1.9.6c.3.2.4.3.4.4s0 .1-.2.1h-5v1.3h2.2c.6-.7.8-.8.9-.8s.3.1.8.5c.2.2.4.3.4.4s-.1.1-.2.1h-4v1.3h3.5c.7-.8.9-.9 1-.9s.3.1.9.6c.3.2.4.4.4.5s-.1.1-.2.1zm-2.6-7.7c0-.3 0-.7-.1-1 1.6.1 1.7.3 1.7.4s-.1.2-.4.4v2h1.2v-1.8c0-.3 0-.7-.1-1 1.6.2 1.8.3 1.8.4s-.1.2-.5.4v2h.6c.3-.5.6-1 .8-1.6.1-.3.2-.6.3-.9 1.2.5 1.7.8 1.7.9s-.1.3-.6.3c-.5.5-1.1 1-1.7 1.3h1.6c.6-.7.8-.8.9-.8s.3.1.9.6c.3.2.4.3.4.4s0 .1-.2.1h-11.3c-.3 0-.7 0-1 .1l-.1-.5c.4.1.8.1 1.1.1h3.1zm-1.5 1.5c-.3 0-.4-.1-.6-.5-.1-.5-.4-1-.8-1.4-.1 0 0-.1.1-.1 1.3.2 2 .7 2 1.4 0 .3-.3.6-.7.6z"/><path d="m183.1 38.1c0 .4-.3.5-.8.5s-.6-.1-.6-.4c0-1 .1-2 .1-6 0-1.3 0-2.6-.1-3.9.5.2 1 .4 1.4.7h1.2c.5-.6.6-.6.7-.6s.3.1.8.5c.2.2.3.3.3.4s-.1.2-.4.4v1.3c0 3.5.1 5.9.1 6.7 0 .4-.3.5-.8.5s-.5-.1-.5-.4v-.5h-1.4zm1.5-8.8h-1.4v3.5h1.4zm0 3.8h-1.4v3.8h1.4zm5.7-.7h1.9c.6-.8.8-.9.9-.9s.3.1.9.6c.3.2.4.3.4.4s0 .1-.2.1h-7.2c-.3 0-.6 0-.8.1l-.2-.5c.3.1.6.1.9.1h2v-2.1h-1.6c-.3 0-.5 0-.8.1l-.2-.5c.3.1.6.1.9.1h1.6v-1.2c0-.4 0-.7-.1-1.1 1.7.2 1.9.3 1.9.5s-.2.3-.4.4v1.5h1.3c.6-.8.8-.9.9-.9s.3.1.9.6c.3.2.4.4.4.5s-.1.1-.2.1h-3.3zm1.9 4.2v2.2s-.1.8-.3 1c-.4.3-.8.5-1.3.5-.1 0-.2-.1-.2-.2-.1-.7-.5-.9-1.6-1.2-.1 0-.1-.2 0-.2.7 0 1.4.1 1.9.1.2 0 .2 0 .2-.2v-3.6h-3.8c-.3 0-.6 0-.8.1l-.1-.5c.3.1.6.1.9.1h3.9v-.6c0-.4 0-.7-.1-1.1 1.4.1 1.8.2 1.8.4s-.1.2-.4.4v.9h.3c.5-.6.7-.7.8-.7s.3.1.8.5c.2.2.3.3.3.4s0 .2-.2.2h-2zm-3.4 1.5c-.4 0-.5-.2-.7-.9-.1-.6-.4-1-.8-1.4-.1 0 0-.1.1-.1 1.5.3 2.2.8 2.2 1.5-.1.6-.4.9-.8.9z"/><path d="m198.5 32.2v7.8c0 .4-.3.5-.8.5s-.6-.1-.6-.5c0-1 .1-2.1.1-6.2 0-2.1 0-4.2-.1-6.3.5.2 1 .4 1.5.7h2.5c.5-.5.6-.6.7-.6s.2.1.8.5c.2.2.3.3.3.4s-.1.2-.4.4v.6 2.9s-.3.5-.8.5-.5-.1-.5-.4v-.2zm2.7-3.7h-2.7v1.5h2.7zm0 1.8h-2.7v1.5h2.7zm.5 7.8v.5c0 .4-.2.5-.7.5s-.5-.1-.5-.4c0-.5 0-1 0-2.8 0-.9 0-1.8-.1-2.6.5.2 1 .4 1.4.7h2.6c.5-.5.6-.6.7-.6s.3.1.7.5c.2.2.3.3.3.4s-.1.2-.4.4v.6 3.2s-.2.5-.7.5-.5-.2-.5-.4v-.4h-2.8zm2.9-3.8h-2.9v1.5h2.9zm0 1.8h-2.9v1.7h2.9zm.5-3.9c0 .4-.2.6-.7.6s-.6-.1-.6-.4c0-.5 0-1.1 0-3.3 0-.5 0-1.1-.1-1.6.5.2 1 .4 1.4.7h2.5c.5-.5.6-.6.7-.6s.2.1.8.5c.2.2.3.3.3.4s-.1.2-.4.4v1.7 8.6c0 .3-.1.6-.3.8-.3.3-.8.4-1.2.4-.2 0-.2 0-.2-.2-.1-.7-.3-.9-1.4-1.1-.1 0-.1-.2 0-.2.8.1 1 .1 1.6.1.1 0 .2 0 .2-.2v-6.6zm2.7-3.7h-2.8v1.5h2.8zm0 1.8h-2.8v1.5h2.8z"/><path d="m197.9 246c2.1 0 3.8-1.7 3.8-3.8s-1.7-3.8-3.8-3.8-3.8 1.7-3.8 3.8c.1 2.1 1.7 3.8 3.8 3.8z"/><path d="m207.9 259.2-1.3-5.5c-1.3-5.1-5.7-6.2-8.6-6.2s-7.3 1.2-8.6 6.2l-2.6 10.8c-.2.8.2 1.6 1 1.8s1.6-.2 1.8-1l3-7.9.1 1.7c-1.3 2.1-2 4.4-2 6.8 0 1.6 1.7 9.2 1.7 9.2h1l.5 11.1c0 1 .8 1.7 1.7 1.7 1 0 1.7-.8 1.7-1.7l.4-11h.5l.4 11c0 1 .8 1.7 1.7 1.7 1 0 1.7-.8 1.7-1.7l.5-11.1h1s1.7-7.5 1.7-9.2c0-.9-.1-1.9-.3-2.8l-4.8 1.9c-.3.1-.6.2-.9.2-.9 0-1.7-.5-2.1-1.3-.5-1.1 0-2.4 1.1-3l4.9-2.4.1-1.1.6 1.6-5.3 2.6c-.7.4-1 1.3-.6 2 .3.6 1.1.9 1.8.7l7.1-2.8c1-.4 1.4-1.4 1.1-2.3z"/><path d="m224.2 280.4-.1.1-3.4-2.6 1.8-2.3c.2-.3.5-.2.6.1l.2.4c.1.3.5.5.8.4l3-.7c.2-.1.4 0 .5.2v.2l-.2 1.3c-.1.3-.3.6-.7.7l-1.7.4c-.3.1-.3.1 0 .1h.9c.3 0 .5.2.3.5s-.5.5-.8.6h-.2c-.4 0-.8.3-1 .6z"/><path d="m214.2 281c.1-.5.3-.2.4-.1.4.9 1.1 1.7 1.8 2.4.6-.8 2.2-2.9 3.6-4.6l3.4 2.7-.4.6c.5 1.4 1.5 4.3 1.5 4.3.1.4-.1.8-.4.9-.3.1-.7-.1-.9-.4l-1.5-3-.5.7c.2.2.3.5.3.8v.3h.1c1.5 0 1.6 1.7.1 1.7h-4.7c-1.6 0-2.1-1.2-1.6-2.5-.5-.8-1.6-2.2-1.2-3.8z"/><path d="m238 242.1c0 2.1-1.7 3.9-3.9 3.9-2.1 0-3.9-1.7-3.9-3.9 0-2.1 1.7-3.9 3.9-3.9 2.2.1 3.9 1.8 3.9 3.9z"/><path d="m234.2 247.4c-2.6 0-8.3 1.1-8.3 6.7l.7 13.4c0 .9.8 1.5 1.6 1.5.5-.1 1-.4 1.2-.9l.5 17.5c-.2 1.1.5 2.1 1.6 2.3s2.1-.5 2.3-1.6c0-.2 0-.5 0-.7l.3-14.8.3 14.8c-.2 1.1.5 2.1 1.6 2.3s2.1-.5 2.3-1.6c0-.2 0-.5 0-.7l.5-17.5c.2.5.7.9 1.2.9.8.1 1.6-.6 1.6-1.4l.7-13.4c.1-5.7-5.5-6.8-8.1-6.8z"/><path d="m256.6 242.2c0 2.1-1.7 3.9-3.9 3.9-2.1 0-3.9-1.7-3.9-3.9 0-2.1 1.7-3.9 3.9-3.9s3.9 1.7 3.9 3.9z"/><path d="m257.8 263.3c.1-1.1.2-2.4.2-2.4 2.8-1 3.1-6.1 3.1-6.1 0-5.5-4.5-7.4-8.3-7.4s-8.1 2.1-8.3 7.4c0 0-.1 5.4 3.3 7.7l.1.6c-1.6 4.1-2.5 8.4-2.6 12.7h3.3l.5 9.9c0 1.1.8 1.9 1.9 2 1 0 1.8-.9 1.9-1.9 0 1 .9 1.8 2 1.8 1 0 1.8-.9 1.8-2l.5-9.9h3.3c-.4-4.2-1.2-8.4-2.7-12.4z"/></g><path d="m256.4 251.8c.9-.7 2.1-.5 2.8.4s.5 2.1-.4 2.8-2.1.5-2.8-.4c0 0 0 0 0-.1-.7-.8-.5-2 .4-2.7z" fill="#fff"/><path d="m249.8 257.1c.1-.5.6-.8 1.1-.7.6.2 1.1.3 1.7.5l1.3-.9-1.3-.6s-.1 0-.1-.1c-.2-.2-.2-.6 0-.8.2-.2.4-.2.6-.2 0 0 2.7.9 3.2 1 .6.1 1 .7.9 1.3-.1.3-.2.6-.5.7l-1.4.1c-.8.1-1.4.8-1.3 1.5v.2c-.5.3-1.2.4-1.8.2-.4-.1-.9-.2-1.2-.5l-.1.3h-1.8z" fill="#fff"/><path d="m300.4 242.3c0 2-1.6 3.7-3.7 3.7-2 0-3.7-1.6-3.7-3.7 0-2 1.6-3.7 3.7-3.7 2.1 0 3.7 1.6 3.7 3.7z" fill="#333"/><path d="m282.8 267.3c0 1.8-1.5 3.2-3.2 3.2-1.8 0-3.2-1.5-3.2-3.2 0-1.8 1.5-3.2 3.2-3.2 1.8 0 3.2 1.4 3.2 3.2z" fill="#333"/><path d="m275.7 286.3c0 1.1-.9 1.9-1.9 1.9s-1.9-.9-1.9-1.9.9-1.9 1.9-1.9c1-.1 1.9.8 1.9 1.9 0-.1 0 0 0 0z" fill="#333"/><path d="m282.5 286.3c0 1.1-.9 1.9-1.9 1.9s-1.9-.9-1.9-1.9.9-1.9 1.9-1.9 1.9.8 1.9 1.9z" fill="#333"/><path d="m278.5 283.6h-6.4l1.1-1.9h5.3c1.4-.2 2.5-1.2 2.8-2.5.4-1.2 3-10.9 3-11l.2-.7h5.4l-.6 1.9h-3.3s-2.5 9.3-2.9 10.4c-.5 2.1-2.4 3.6-4.6 3.8z" fill="#333"/><path d="m278.8 271.2c-1.5.2-6.7 1.6-6.7 1.6-.6.1-.9.7-.8 1.2s.7.9 1.2.8l3.3-.4-.6 2.5h-2.5c-1-.1-1.9.4-2.3 1.3l-2 4.5c-.3.7 0 1.4.7 1.7.7.3 1.4 0 1.7-.7l1.7-3h5.1c1.2 0 2.2-.7 2.6-1.8.3-1.2 1.4-5.3 1.4-5.3.4-1.9-1-2.7-2.8-2.4z" fill="#333"/><path d="m306.4 276.5-.4-2.5h4.7s-2.9-11.7-7.8-14.8c0 0-1.7-8-2.4-10s-5-3.5-7.3 2.1l-2 5.1-2.7 6.9c-.4.7-.1 1.6.6 1.9s1.6.1 1.9-.6c0 0 0-.1.1-.1l3.3-6.6.2-.4.8 3-4.1 25.5c-.2 1 .4 2 1.4 2.2s2-.4 2.2-1.4l3.2-12.8h2.9l.8 3.4 2.2 9.4c.2 1 1.3 1.6 2.3 1.4.9-.2 1.5-1.1 1.4-2.1z" fill="#333"/><circle cx="48.8" cy="72" fill="#333" r="15.2"/><path d="m29 128.7h94.2v9.8h-94.2z" fill="#333"/><path d="m52.4 126.2h24.7 15.1v-7.8h-18.6l-7.9-21.3h-36.5l11.4 29.1z" fill="#333"/><path d="m87.2 80.8c.6 2.9 1.5 5.4 2.8 6.7v3.5c0 .1 0 .2-.1.3l6.5 2.7 6.5-2.8c0-.1 0-.2 0-.3v-3.5c1.3-1.2 2.2-3.8 2.8-6.7 1.3-.4 2.1-1.1 3-4.1 1-3.2-1.5-3.1-1.5-3.1 2-6-.7-11.7-5.2-11.3-3.1-4.8-13.5 1.1-16.8.7 0 1 .3 2 .7 2.9-1.1 1.9-.7 5.8-.4 7.7-.2 0-2.5 0-1.5 3.1s1.9 3.8 3.2 4.2z" fill="#333"/><path d="m94 95.4h4.9v3.8h-4.9z" fill="#333"/><path d="m95.5 115.1v11.1h27.4c-1.4-13.6-8-26.3-12.5-27.8-.5-.2-1.1-.4-1.6-.7l-9.2 11.3-.7-7.4h-4.9l-.6 7.4-9.2-11.3c-.5.3-1.1.5-1.6.7-2.4.8-5.5 6.5-8 13.2l1.3 3.6z" fill="#333"/><path d="m48.8 60.6v11.9l3.8 6.9" fill="none" stroke="#fff" stroke-miterlimit="10" stroke-width="1.03"/><path d="m193 189.4c-.5.7-1.1 1.3-1.8 1.8 1.8 0 3.6 0 5.3-.2-.4-.4-.9-.8-1.4-1.1v-.1c2.3.3 3.7 1.1 3.7 2.1 0 .4-.2.8-.6.8 0 0 0 0-.1 0-.3 0-.4-.1-.7-.5s-.4-.6-.6-.9c-2.6.6-5.2 1-7.8 1.1-.1.4-.2.4-.3.4s-.3-.2-.6-1.8c.8.1 1.7.1 2.5.1.2-.6.4-1.2.6-1.8h-2.8c-.3 0-.7 0-1 .1l-.2-.5c.4.1.7.1 1.1.1h4.4v-1c0-.3 0-.5-.1-.8 1.7.1 1.9.3 1.9.4s-.2.3-.5.4v1h3.4c.7-.8.9-1 1-1s.3.1 1 .7c.3.2.4.4.4.5s-.1.1-.2.1zm-2.3 7.8v2.7c0 .4-.3.5-.8.5s-.6-.1-.6-.6c0-.8.1-1.4.1-4.6 0-.9 0-1.8-.1-2.7.5.2 1 .4 1.5.7h5.2c.5-.6.6-.6.7-.6s.3.1.9.6c.3.2.4.3.4.4s-.1.2-.4.4v.8 4.1c0 .5-.2.9-.6 1.1-.3.2-.7.2-1 .2-.1 0-.2-.1-.2-.4s-.3-.6-1.5-1c-.1 0-.1-.2 0-.2.8.1 1.2.1 1.8.1.1 0 .2 0 .2-.2v-1.5zm5.4-3.6h-5.4v1.4h5.4zm-5.4 3.2h5.4v-1.5h-5.4z" fill="#333"/><path d="m207.9 195.5c-.4 3-1.8 4.2-5.1 4.7-.1 0-.1-.2-.1-.2 2-.7 3.1-1.6 3.6-3.2.2-.7.3-1.5.2-2.2 1.8.3 1.8.3 1.8.5s-.1.2-.4.4zm-2.5-6.1c0 2.5.1 4.3.1 4.9s-.2.6-.8.6-.6-.1-.6-.5.1-1.7.1-4.3c0-.8 0-1.6-.1-2.4 1.8.2 1.8.2 1.8.4s-.1.2-.4.3zm3.3 4.4v.1c0 .4-.2.6-.7.6s-.6-.1-.6-.4c0-.7.1-1.4.1-4.3 0-.7 0-1.3-.1-2 .5.2 1 .4 1.4.7h3.6c.5-.5.6-.6.8-.6s.2.1.7.5c.2.2.3.3.3.4s-.1.2-.4.4v.8c0 2.1.1 3.5.1 4s-.2.6-.8.6c-.4 0-.5-.1-.5-.5v-.2zm3.8-5h-3.9v2.1h3.9zm0 2.4h-3.9v2.2h3.9zm-1.8 7c0 .7.1.7 1.1.7 1.2 0 1.6-.1 1.9-.3s.4-.4.9-1.8c0-.1.2 0 .2 0 0 .5-.1 1.3-.1 1.5s0 .2.2.4c.2.1.3.3.3.5 0 .4-.2.6-.8.7-.8.2-1.7.3-2.6.2-2.1 0-2.5-.3-2.5-1.3 0-.4 0-.8 0-2.1 0-.8 0-1.3-.1-2 1.7.2 1.8.3 1.8.4s-.1.2-.4.4z" fill="#333"/><path d="m219.4 192.9c-.5.6-1 1.1-1.6 1.5-.1 0-.2-.1-.1-.1 1.1-1.4 1.8-3 2.4-4.7.2-.7.4-1.5.5-2.3 1.3.4 1.9.6 1.9.8s-.1.2-.5.3c-.4 1.2-1 2.3-1.7 3.3.6.1.7.2.7.3s-.1.2-.4.3v7.3c0 .4-.2.6-.7.6-.3 0-.6-.1-.6-.5s.1-1.5.1-3.7zm6.9-.6c0 3.4.1 5.4.1 7.5 0 .4-.2.5-.8.5-.4 0-.6-.1-.6-.4 0-.7.1-3.7.1-6.4-1 1.7-2.4 3.2-4.1 4.3-.1 0-.2-.1-.1-.1 1.7-1.8 2.9-3.9 3.7-6.3h-2.2c-.3 0-.6 0-.9.1l-.2-.5c.3.1.7.1 1 .1h2.7v-1.8c0-.6 0-1.2-.1-1.8 1.8.2 1.9.2 1.9.5s-.1.2-.5.4v2.6h2.2c.7-.8.8-.9.9-.9s.3.1.9.7c.3.2.4.4.4.5s0 .1-.2.1h-4.2c.4 1.1 1.1 2 1.9 2.8.8.9 1.8 1.6 2.9 2.1.1 0 0 .1 0 .2-.3.1-.6.3-.8.8-.1.3-.2.4-.3.4-.2 0-.3-.1-.5-.2-.8-.7-1.4-1.4-1.9-2.3-.6-1-1.1-2.2-1.4-3.4z" fill="#333"/><path d="m240.3 196.2c.7.6 1.5 1 2.3 1.4 1.2.5 2.4.8 3.7.8.1 0 .1.1 0 .1-.5.2-.6.3-1 1.2-.1.1-.1.2-.2.2-.2 0-.4-.1-.7-.2-.9-.3-1.7-.8-2.5-1.4-.7-.5-1.3-1.1-1.8-1.9 0 1.8.1 3.1.1 3.5s-.2.5-.8.5c-.4 0-.6-.1-.6-.5s.1-1.7.1-2.9c-1.5 1.5-3.4 2.5-5.6 2.8-.1 0-.1-.1-.1-.1 1.8-.8 3.4-2 4.7-3.6h-3.3c-.3 0-.7 0-1 .1l-.1-.5c.4.1.7.1 1.1.1h4.3v-1.3h-2.8c-.3 0-.7 0-1 .1l-.2-.5c.4.1.7.1 1.1.1h2.8v-1.3h-3.5c-.3 0-.7 0-1 .1l-.1-.5c.4.1.7.1 1.1.1h2.3c-.2-.1-.3-.2-.4-.6-.1-.5-.4-.9-.7-1.2-.1 0 0-.1.1-.1 1.3.2 1.9.6 1.9 1.3 0 .3-.2.6-.5.7h2.3c.2-.4.4-.8.6-1.2.1-.3.2-.6.3-.9 1.1.4 1.6.7 1.6.8s-.1.2-.6.2c-.4.4-.9.7-1.4 1h2.3c.7-.7.8-.8.9-.8s.3.1.9.6c.3.2.4.3.4.4s0 .1-.2.1h-5v1.3h2.2c.6-.7.8-.8.9-.8s.3.1.8.6c.2.2.4.3.4.4s0 .1-.2.1h-4v1.3h3.5c.7-.8.9-.9 1-.9s.3.1.9.6c.3.2.4.4.4.5s0 .1-.2.1zm-2.6-7.8c0-.3 0-.7-.1-1 1.6.1 1.7.3 1.7.4s-.1.2-.4.4v2h1.2v-1.8c0-.3 0-.7-.1-1 1.6.2 1.8.3 1.8.4s-.1.2-.5.4v2h.6c.3-.5.6-1 .8-1.6.1-.3.2-.6.3-.9 1.2.5 1.7.7 1.7.9s-.1.2-.6.3c-.5.5-1.1 1-1.7 1.3h1.6c.6-.7.8-.8.9-.8s.3.1.9.6c.3.2.4.3.4.4s0 .1-.2.1h-11.3c-.3 0-.7 0-1 .1l-.1-.5c.4.1.8.1 1.1.1h3.1zm-1.5 1.5c-.3 0-.4-.1-.6-.5-.1-.5-.4-1-.8-1.4-.1 0 0-.1.1-.1 1.3.2 2 .7 2 1.3 0 .4-.3.7-.7.7z" fill="#333"/><path d="m255.7 197.1v2.8s-.3.5-.8.5-.6-.1-.6-.5.1-1.1.1-2.8h-4.4c-.3 0-.7 0-1 .1l-.1-.5c.4.1.8.1 1.1.1h4.4v-.1c0-.5 0-1-.1-1.6 1.6.2 1.8.2 1.8.4s-.1.2-.5.4v.8h3.5c.7-.9.9-1 1-1s.3.1 1 .7c.3.2.4.4.4.5s0 .1-.2.1zm-5.6-2c0 .4-.1.6-.3.6s-.4-.4-.9-1.5c.4-.1.8-.2 1.2-.4.9-.3 1.7-.6 2.5-1 .1 0 .2.1.1.2-.7.8-1.6 1.6-2.6 2.1zm4.3-5.7c1 .4 1.3.5 1.3.7s0 .2-.5.2c-.4.4-.8.8-1.2 1.1.3.2.5.5.5.9 0 .3-.2.6-.5.7-.3 0-.4 0-.6-.7-.2-.5-.5-.9-.9-1.3v-.1h.1c.4.1.8.2 1.1.4.1-.3.2-.5.4-.8.1-.3.2-.6.3-.9h-4.2c-.3 0-.7 0-1 .1l-.2-.7c.4.1.7.1 1.1.1h4.2v-1c0-.3 0-.5-.1-.8 1.7.1 1.9.3 1.9.5s-.2.3-.5.4v.9h3.3c.8-.8.9-1 1-1s.3.1.9.7c.3.2.4.4.4.5s0 .1-.2.1zm-3.1 3.2c-.4 0-.5-.1-.7-.9-.2-.6-.5-1.1-.9-1.5v-.1h.1c1.5.4 2.3 1 2.3 1.7-.1.4-.3.8-.8.8zm5.3 1.4c-.2-.3-.3-.6-.6-.9 0 0 0-.1.1-.1 1.2.4 1.9 1 1.9 1.7 0 .4-.3.7-.7.7-.3 0-.4-.1-.6-.9 0-.1-.1-.2-.1-.3-1.2.4-2.4.7-3.7.9-.1.3-.1.4-.2.4s-.3-.2-.6-1.5h1.4c.7-.7 1.3-1.5 1.8-2.4.2-.4.4-.7.6-1.1 1.2.6 1.4.8 1.4 1s0 .1-.6.2c-.8.8-1.7 1.6-2.6 2.4.9 0 1.7 0 2.5-.1zm3.4-2.9c-.8.7-1.7 1.2-2.7 1.6-.1 0-.2-.1-.1-.1.5-.5 1-1.1 1.4-1.7.2-.3.4-.6.5-1 1.1.6 1.4.8 1.4 1s0 .3-.5.2zm0 4.2c-.3 0-.5-.1-.8-.8-.3-.6-.8-1.1-1.3-1.4 0 0-.1-.1 0-.1 1.9.3 2.8.8 2.8 1.6-.1.4-.3.7-.7.7 0 .1 0 .1 0 0z" fill="#333"/><path d="m271.9 197.4c-1.7 1.4-3.7 2.4-5.9 2.9-.1 0-.1-.1-.1-.2 1.9-.9 3.7-2.1 5.2-3.6-1.3-1.8-2.1-3.8-2.4-6-.1 1.8-.4 3.7-1.1 5.4-.7 1.8-1.9 3.3-3.5 4.2 0 0-.1-.1-.1-.2 1.2-1.2 2.1-2.7 2.6-4.4.6-2.3.9-4.6.8-6.9h-1.4c-.4 0-.7 0-1.1.1l-.1-.5c.4.1.8.1 1.2.1h5.6c.5-.6.6-.7.7-.7s.2.1.8.6c.3.2.4.4.4.5s-.1.3-.5.4c-.2.8-.5 1.7-.8 2.5h1.6c.5-.6.6-.7.7-.7s.2.1.9.5c.3.3.4.4.4.5s-.1.2-.5.3c-.5 1.5-1.4 3-2.5 4.2 1.3 1 2.8 1.8 4.5 2.2.1 0 .1.1 0 .2-.7.2-.8.4-1 1.1 0 .1-.1.2-.2.2-.4-.1-.7-.2-1-.4-1.1-.7-2.2-1.4-3.1-2.3zm-3.1-7.9c.4 2.3 1.5 4.5 3 6.2.9-1.1 1.6-2.4 2-3.7h-1.8v.1c-.1.3-.4.5-.7.4-.5 0-.7-.2-.7-.4s.1-.3.2-.5c.4-.9.7-1.9.9-2.9h-2.9z" fill="#333"/><path d="m288 192.4v1.2c0 .9 0 1.8-.2 2.7-.3 1.9-1.9 3.3-3.9 3.3-1 .1-1.9-.3-2.6-1.1-.6-.7-.9-1.7-.9-2.6.1-1.9.7-3.7 1.9-5.1h-.9c-.5 0-.9-.2-1.2-.5-.2-.3-.3-.6-.3-.9 0-.1 0-.2.1-.2s.1.1.2.1c.2.3.4.4 1 .4.7 0 1.3-.2 1.9-.4.1-.1.3-.2.4-.3s.3-.1.4-.1c.4.1.7.3.9.6 0 .1.1.1.1.2s-.1.3-.3.4c-.3.1-.6.3-.9.6-.6.6-1.1 1.2-1.5 1.9-.6.9-.9 1.9-1 3-.1.7.2 1.4.6 1.9.5.5 1.2.8 1.9.7 2.5 0 3.3-2.1 3.6-4.2.1-.7.1-1.5.1-2.3 0-.6-.1-1.1-.4-1.7-.1-.2-.1-.4-.1-.6 0-.3.3-.5.7-.5.3 0 .5.2.5.5 0 .5 0 .9.2 1.4.2.7.6 1.3 1 1.8s.8 1 1.3 1.4c.3.2.4.6.5.9 0 .2-.1.4-.2.5s-.2.2-.4.2c-.3 0-.6-.2-1.2-.9-.5-.7-.9-1.5-1.3-2.3zm2.2-3.2c.3.2.5.5.5.9 0 .3-.2.5-.4.5-.2 0-.4-.1-.5-.3-.2-.5-.5-.9-.9-1.2 0-.1-.1-.1-.1-.2s0-.1.1-.1h.2c.3 0 .7.2 1.1.4zm1.2-.9c.3.1.5.4.5.7s-.2.5-.4.5c-.2 0-.4-.1-.5-.3-.3-.4-.6-.8-1-1.1-.1 0-.2-.1-.2-.2s0-.1 0-.1h.2c.6.1 1 .3 1.4.5z" fill="#333"/><path d="m188.6 214.2c-.5.4-1 .8-1.6 1.2-.1 0-.1-.1-.1-.1.9-1 1.7-2.1 2.3-3.3.2-.5.4-1 .6-1.5 1.3.6 1.5.7 1.5.8s-.1.2-.5.3c-.3.6-.8 1.2-1.2 1.7.6.1.7.1.7.3s-.1.2-.4.3v5.9c0 .4-.2.6-.7.6-.3 0-.6-.1-.6-.5s.1-1.5.1-3.7zm2.1-5.7c-.9 1.2-2.1 2.2-3.5 2.9-.1 0-.2-.1-.1-.1.7-.7 1.3-1.5 1.8-2.4.3-.5.5-1 .7-1.5 1.1.4 1.7.7 1.7.9s-.1.2-.6.2zm3.3 5.7c1 .3 1.3.4 1.3.6s-.1.2-.6.3l-.2.4h2.4c.5-.5.6-.6.7-.6s.2.1.8.6c.3.2.3.3.3.4s-.1.3-.7.4c-.5.7-1.1 1.2-1.8 1.8 1.3.5 2.6.8 4 .8.1 0 .1.1 0 .2-.4.2-.7.5-.8 1 0 .2-.1.3-.2.3-.2 0-.5-.1-.7-.2-1.1-.3-2.1-.9-3.1-1.6-1.6 1-3.4 1.5-5.2 1.7-.1 0-.1-.1-.1-.2 1.6-.5 3.2-1.2 4.6-2.2-.4-.4-.7-.9-1-1.5-.9.9-2 1.7-3.2 2.1-.1 0-.1-.1-.1-.1 1-.7 1.9-1.7 2.6-2.8.3-.4.5-.9.6-1.4h-.2c0 .4-.3.5-.7.5s-.6-.1-.6-.4.1-.8.1-2.3c0-.3 0-.6 0-.9-.3.3-.6.6-.9.8 0 0-.1 0-.1-.1.6-.9 1-1.9 1.4-3 .2-.5.3-.9.4-1.4 1.4.4 1.7.6 1.7.8s-.1.2-.6.3c-.1.2-.2.4-.4.7h4c.7-.8.9-.9 1-.9s.3.1.9.7c.3.2.4.4.4.5s0 .1-.2.1h-6.3c-.2.3-.4.6-.6.9.2.1.4.2.6.4h3.7c.4-.5.5-.6.6-.6s.3.1.8.5c.2.2.3.3.3.4s-.1.2-.4.4v.4 2.2s-.2.6-.7.6c-.3 0-.5-.1-.6-.4zm3.3-3.2h-3.8v1.2h3.8zm0 1.6h-3.8v1.3h3.8zm-3.1 3.2c-.1.2-.2.3-.3.4.4.5.9.9 1.4 1.2.6-.5 1.1-1 1.5-1.7h-2.6z" fill="#333"/><path d="m206.3 209.6c0 4.9-.2 6.4-1.1 8-.6 1.1-1.4 2-2.4 2.6-.1 0-.2-.1-.1-.2.8-.8 1.3-1.8 1.7-2.8.5-1.5.7-2.8.7-6.2 0-1.1 0-2.2-.1-3.3 1.7.2 1.9.3 1.9.5s-.1.2-.5.4zm-2.1 1.5v3.7s-.3.5-.7.5-.5-.1-.5-.5.1-1.3.1-3.6c0-.6 0-1.2-.1-1.8 1.5.2 1.6.2 1.6.4s-.1.2-.4.4zm9.4 1.9c.6-.6.7-.7.8-.7s.2.1.9.7c.3.3.4.4.4.5s-.1.3-.8.3c-.1 0-.3 0-.4.1-.3.2-.5.3-.8.5 0 0-.1 0-.1-.1.1-.3.2-.7.2-1h-6.2v.4c0 .3 0 .6-.1.8.4.2.6.3 1.1.5h1.5c0-.5 0-1-.1-1.5 1.7.2 1.8.2 1.8.4s-.1.2-.5.4v.7h1.5c.5-.5.6-.6.7-.6s.2.1.8.5c.2.2.3.3.3.4s-.1.2-.4.4v.4c0 1.4.1 1.6.1 1.8 0 .4-.2.8-.5 1.1-.2.1-.5.2-.8.2-.1 0-.2-.1-.3-.3-.1-.4-.3-.6-1-.8-.1 0-.1-.2 0-.2h1.2c.2 0 .2 0 .2-.2v-2.4h-1.7v4.4s-.3.5-.8.5-.6-.1-.6-.5.1-1.8.1-4.5h-1.6v3.2c0 .4-.2.6-.7.6s-.6-.1-.6-.4.1-.7.1-2.2c0-.6 0-1.1 0-1.7-.1.1-.3.2-.5.1-.4 0-.6-.3-.6-.6 0-.3.1-.4.4-.6.5-.3.7-.9.7-1.4 0-.1.1-.1.1 0 .1.2.2.5.2.7zm-.8-4.5h-4.3c-.3 0-.6 0-.9.1l-.1-.6c.3.1.7.1 1 .1h4.1c.5-.6.6-.7.7-.7s.2.1.8.5c.2.2.3.3.3.4s0 .1-.4.5v.5 2.3s-.2.6-.8.6c-.4 0-.5-.1-.5-.5h-4.4c-.3 0-.5 0-.8.1l-.1-.5c.3.1.6.1.9.1h4.4v-1.3h-4c-.3 0-.5 0-.8.1l-.1-.5c.3.1.6.1.9.1h4z" fill="#333"/><path d="m224.9 217.1v2.8s-.3.5-.8.5-.6-.1-.6-.5.1-1.1.1-2.8h-4.3c-.3 0-.7 0-1 .1l-.1-.5c.4.1.8.1 1.1.1h4.4v-.1c0-.5 0-1-.1-1.6 1.6.2 1.8.2 1.8.4s-.1.2-.5.4v.8h3.5c.7-.9.9-1 1-1s.3.1 1 .7c.3.2.4.4.4.5s0 .1-.2.1zm-5.6-2c0 .4-.1.6-.3.6s-.4-.4-.9-1.5c.4-.1.8-.2 1.2-.4.9-.3 1.7-.6 2.5-1 .1 0 .2.1.1.2-.7.8-1.6 1.6-2.6 2.1zm4.3-5.7c1 .4 1.3.5 1.3.7s0 .2-.5.2c-.4.4-.8.8-1.2 1.1.3.2.5.5.5.9 0 .3-.2.6-.5.7-.3 0-.4 0-.6-.7-.2-.5-.5-.9-.9-1.3v-.1h.1c.4.1.8.2 1.1.4.1-.3.2-.5.4-.8.1-.3.2-.6.3-.9h-4.2c-.3 0-.7 0-1 .1l-.2-.5c.4.1.7.1 1.1.1h4.2v-1c0-.3 0-.5-.1-.8 1.7.1 1.9.3 1.9.5s-.2.3-.5.4v.9h3.3c.8-.8.9-1 1-1s.3.1.9.7c.3.2.4.4.4.5s-.1.1-.2.1zm-3.1 3.2c-.4 0-.5-.1-.7-.9-.2-.6-.5-1.1-.9-1.5v-.1h.1c1.5.4 2.3 1 2.3 1.7-.1.4-.3.8-.8.8zm5.3 1.4c-.2-.3-.3-.6-.6-.9 0 0 0-.1.1-.1 1.2.4 2 1 2 1.7 0 .4-.3.7-.7.7-.3 0-.4-.1-.6-.9 0-.1-.1-.2-.1-.3-1.2.4-2.4.7-3.7.9-.1.3-.1.4-.2.4s-.3-.2-.6-1.5h1.4c.7-.7 1.3-1.5 1.8-2.4.2-.4.4-.7.6-1.1 1.2.6 1.4.8 1.4 1s0 .1-.6.2c-.8.8-1.7 1.6-2.6 2.4.8 0 1.6 0 2.4-.1zm3.4-2.9c-.8.7-1.7 1.2-2.7 1.6-.1 0-.2-.1-.1-.1.5-.5 1-1.1 1.4-1.7.2-.3.4-.6.5-1 1.1.6 1.4.8 1.4 1s0 .3-.5.2zm0 4.2c-.4 0-.5-.1-.9-.8-.3-.6-.8-1.1-1.3-1.4v-.1h.1c1.9.3 2.8.8 2.8 1.6 0 .4-.3.7-.7.7 0 .1 0 .1 0 0z" fill="#333"/><path d="m136.7 332.6c0 2.2-1.3 3.5-2.9 3.5s-2.9-1.2-2.9-3.4 1.3-3.5 2.9-3.5 2.9 1.3 2.9 3.4zm-4.3.1c0 1.9.5 3 1.3 3s1.4-1.1 1.4-3-.5-3-1.4-3-1.3 1-1.3 3zm1 8.8 7.9-12.8.5.3-7.8 12.8zm10.9-3.9c0 2.2-1.3 3.5-2.9 3.5s-2.9-1.3-2.9-3.4 1.3-3.5 2.9-3.5 2.9 1.3 2.9 3.4zm-4.2.1c0 1.9.5 3 1.4 3s1.3-1.1 1.3-3-.5-3-1.3-3-1.4 1.1-1.4 3z" fill="#333"/><path d="m56.8 306.2.2.3c-2.7.8-5.3 1.9-7.7 3.4-1.7 1.1-3.1 2.5-4.1 4.3-.9 1.7-1.4 3.5-1.6 5.4-.2 2.3-.3 4.5-.3 6.8 0 2.5.1 4.7.2 6.4 0 1.3.3 2.6.9 3.8.5.8 1.4 1.3 2.4 1.3 1 .1 2-.4 2.6-1.1.6-.9 1-1.9 1.2-2.9.2-1.3.3-2.6.3-3.9 0-1.4-.1-2.7-.3-4.1-.1-.8-.4-1.5-.8-2.2-.7-1-2-1.5-3.1-1.1-.5.1-1 .4-1.5.6l-.4-.4c.4-1 1.1-1.8 2-2.4 1-.6 2.1-1 3.2-1.2 1.2-.2 2.4-.1 3.6.2 2.6.6 4.8 2.4 5.8 4.9.7 1.6.9 3.4.8 5.1 0 2-.6 3.9-1.5 5.6-1 1.7-2.5 3.1-4.4 4-2.3 1.1-4.8 1.6-7.4 1.6-2.6.1-5.3-.4-7.6-1.5-2.1-1.1-3.8-2.8-4.7-5-1.2-2.7-1.7-5.7-1.6-8.6 0-3 .5-6 1.5-8.8.9-2.5 2.4-4.7 4.5-6.5 2.2-1.8 4.7-3.1 7.5-3.7 3.3-.7 6.9-.8 10.3-.3z" fill="#4aa064"/><path d="m75 307.2c2.1-.1 4.3.3 6.3.9 1.6.5 2.9 1.4 4 2.7 1.6 2.2 1.8 5.1.6 7.6-.5.9-1.2 1.7-2 2.2s-1.7.9-2.7 1.1c-.9.2-1.9.1-2.8-.1 1 0 2 .2 3 .4 1.1.3 2.2.8 3.1 1.5 1 .7 1.9 1.7 2.5 2.8.7 1.4 1 2.9 1 4.4 0 2-.5 4-1.5 5.7-1 1.6-2.4 3-4 4-1.7 1.1-3.7 1.8-5.7 2.2-2.1.5-4.3.6-6.5.4s-4.4-.7-6.4-1.6l.1-.5c1.8 0 3.6-.2 5.4-.7 1.6-.5 3.1-1.2 4.5-2.2 1.3-.9 2.3-2.1 3.1-3.5s1.1-3 1.1-4.6c.1-1.6-.4-3.2-1.3-4.5-.8-1.1-2-1.9-3.3-2.5-1.3-.5-2.6-.8-3.9-.8l.1-.5c2.8.1 5.4-1.4 6.7-3.9.7-1.2.9-2.6.8-4 0-1-.4-1.9-1-2.7-.5-.7-1.2-1.2-2-1.5s-1.7-.4-2.6-.3c-1.7 0-3.2 1-3.9 2.5-.9 2.1-1.2 4.3-1.1 6.5h-.5l-2.6-8c1.4-1.1 3-1.9 4.7-2.4 2.3-.3 4.5-.6 6.8-.6z" fill="#4aa064"/><path d="m95.6 340.6c-2.3-.1-4.1-1.9-4-4.2s1.9-4.1 4.2-4 4.1 1.9 4 4.2c0 1.1-.4 2.1-1.2 2.8-.8.8-1.9 1.3-3 1.2z" fill="#4aa064"/><path d="m103.1 340v-.5h1c.7 0 1.3-.3 1.8-.7.5-.5.7-1.1.7-1.7v-23.3c.1-.9-.2-1.8-.8-2.5-.6-.5-1.4-.7-2.2-.7h-.8v-.5c.7 0 1.5-.1 2.6-.2s2.3-.3 3.5-.5 2.5-.5 3.7-.9c1-.3 2.1-.7 3-1.3h.5v29.9c0 .7.3 1.3.8 1.7.5.5 1.1.7 1.8.7h1v.5z" fill="#4aa064"/><path d="m291.8 332.6c0 2.2-1.3 3.5-3 3.5s-2.9-1.2-2.9-3.4 1.3-3.5 2.9-3.5 3 1.3 3 3.4zm-4.3.1c0 1.9.5 3 1.3 3s1.4-1.1 1.4-3-.5-3-1.4-3-1.3 1-1.3 3zm1 8.8 7.9-12.8.5.3-7.9 12.8zm10.9-3.9c0 2.2-1.3 3.5-2.9 3.5s-2.9-1.3-2.9-3.4 1.3-3.5 2.9-3.5 3 1.3 2.9 3.4zm-4.2.1c0 1.9.5 3 1.4 3s1.4-1.1 1.4-3-.5-3-1.4-3-1.4 1.1-1.4 3z" fill="#333"/><path d="m199.5 340v-.5h1c1.4 0 2.5-1.1 2.5-2.5v-23.3c.1-.9-.2-1.8-.8-2.5-.6-.5-1.4-.7-2.2-.7h-.8v-.5c.6 0 1.5-.1 2.6-.2s2.3-.3 3.5-.5 2.5-.5 3.7-.9c1-.3 2.1-.7 3-1.3h.5v29.9c0 .7.3 1.3.8 1.7.5.5 1.1.7 1.8.7h1v.5z" fill="#4aa064"/><path d="m233.2 307.2c5.4-.2 10.4 2.9 12.6 7.9 2.3 5.6 2.3 12 0 17.6-2.1 5-7.1 8.2-12.6 8-2.7.1-5.4-.6-7.7-2.1-2.2-1.4-3.9-3.5-4.9-5.9-2.3-5.6-2.3-12 0-17.6 1-2.4 2.7-4.4 4.9-5.8 2.3-1.5 5-2.2 7.7-2.1zm0 2.3c-1.6 0-2.8 1.2-3.5 3.5s-1.1 6-1.1 10.9.4 8.6 1.1 10.9 1.9 3.5 3.5 3.5 2.8-1.2 3.5-3.5 1.1-6 1.1-10.9-.4-8.6-1.1-10.9c-.8-2.4-1.9-3.5-3.5-3.5z" fill="#4aa064"/><path d="m264.9 307.2c5.4-.2 10.4 2.9 12.6 7.9 2.3 5.6 2.3 12 0 17.6-1 2.4-2.7 4.4-4.9 5.9-4.7 2.8-10.6 2.8-15.3 0-2.2-1.4-3.9-3.5-4.9-5.9-2.3-5.6-2.3-12 0-17.6 2.1-5 7.1-8.2 12.5-7.9zm0 2.3c-1.6 0-2.8 1.2-3.5 3.5s-1.1 6-1.1 10.9.4 8.6 1.1 10.9 1.9 3.5 3.5 3.5 2.8-1.2 3.5-3.5 1.1-6 1.1-10.9-.4-8.6-1.1-10.9-1.9-3.5-3.5-3.5z" fill="#4aa064"/><path d="m27.9 189.4c-.3.7-.6 1.3-1 1.9h.1 4.4c.5-.6.6-.6.8-.6s.3.1.8.6c.2.2.3.3.3.4s0 .2-.4.4v1 4.9c.1.4-.1.9-.5 1.1-.3.2-.7.4-1.1.4-.2 0-.2-.1-.3-.3-.1-.6-.4-.8-1.7-1.1-.1 0-.1-.2 0-.2.8.1 1.2.1 1.9.1.2 0 .2 0 .2-.2v-1.9h-4.7v3.1c0 .4-.3.6-.8.6s-.6-.1-.6-.4.1-1.6.1-2.7v-3.5c-.9.8-1.9 1.5-2.9 2-.1 0-.2-.1-.1-.2 1.8-1.5 3.2-3.3 4.1-5.4h-2.7c-.4 0-.8 0-1.1.1l-.1-.5c.4.1.8.1 1.2.1h2.8c.3-.8.5-1.6.7-2.4 1.4.3 1.8.5 1.8.6s-.2.3-.6.4c-.1.5-.3.9-.5 1.4h4.7c.7-.8.8-.9 1-.9.1 0 .3.1 1 .6.3.2.4.4.4.5s0 .1-.2.1zm3.6 4v-1.7h-4.7v1.7zm-4.7 2.2h4.7v-1.8h-4.7z" fill="#333"/><path d="m39.6 195.2c-.3 1.2-.9 2.3-1.7 3.3 0 .1-.2 0-.2-.1.3-.9.5-1.7.6-2.6.1-.5.1-1 .1-1.5 1.3.4 1.5.5 1.5.7s0 .1-.3.2zm-.1-2.6c.5-.8.9-1.5 1.3-2.4.3-.5.5-1.1.7-1.7 1.2.5 1.6.7 1.6.9s-.1.2-.5.2c-.8 1.1-1.6 2.1-2.6 3 .4 0 1.4 0 2.1-.1-.1-.4-.3-.7-.5-1.1 0-.1.1-.1.1-.1.4.2.8.5 1.1.8 1-1.1 1.7-2.5 2.2-3.9.2-.6.4-1.1.5-1.7 1.5.4 1.8.5 1.8.7s-.1.2-.5.2c.4.8 1 1.6 1.7 2.2s1.6 1.1 2.5 1.3c0 0 .1 0 .1.1 0 0 0 .1-.1.1-.4.2-.7.6-.7 1-.1.2-.1.3-.2.3-.2-.1-.3-.2-.5-.3-.6-.5-1.1-1.1-1.6-1.7-.6-.9-1-1.8-1.3-2.8-.8 1.8-2.1 3.4-3.7 4.6.3.3.4.6.4 1s-.2.7-.6.7c-.4 0-.5-.1-.6-1v-.2c-.3.1-.6.2-.9.3v2 4c0 .4-.2.5-.7.5s-.6-.1-.6-.4.1-1.2.1-3.1v-2.7c-.4.1-.8.2-1.3.3-.1.3-.2.4-.3.4s-.3-.3-.5-1.5h.7zm.3-4.9c.1-.4.2-.8.2-1.1 1.1.4 1.7.6 1.7.8s-.2.3-.5.3c-.5.6-1 1.2-1.5 1.8.4.2.6.6.6 1.1s-.3.8-.6.8-.4-.1-.6-.9c-.1-.6-.4-1.1-.8-1.4 0-.1 0-.2.1-.1.4.1.7.3 1.1.4.1-.6.2-1.2.3-1.7zm2.6 9.7c-.3 0-.5-.3-.5-1.1 0-.6-.1-1.3-.4-1.9v-.1h.1c.8.5 1.3 1.3 1.4 2.2 0 .5-.3.9-.6.9zm2.4 1.1v.5c0 .4-.2.5-.8.5-.4 0-.5-.1-.5-.5 0-.6.1-1.1.1-3.4 0-.7 0-1.4-.1-2.1.7.3.8.4 1.5.7h2.9c.5-.6.6-.7.7-.7s.2.1.7.5c.2.2.3.3.3.4s-.1.2-.4.4v.6c0 1.8.1 3 .1 3.4s-.2.5-.8.5-.5 0-.5-.3v-.5zm2-6.5c.5-.7.7-.8.8-.8s.3.1.8.6c.2.2.3.3.3.4s0 .1-.2.1h-3.5c-.3 0-.5 0-.8.1l-.2-.5c.3.1.6.1.9.1zm1.2 2.5h-3.2v3.6h3.2z" fill="#333"/><path d="m54.5 187.8h-.3c-.2 0-.5 0-.7.1l-.2-.5c.3.1.6.1.9.1h4.7c.6-.7.8-.8.8-.8s.3.1.8.6c.3.2.4.3.4.4s0 .1-.2.1h-1.7v4 7.1c0 .4-.2.6-.8.6s-.6-.1-.6-.5.1-1.1.1-2.7v-.4c-1.1.7-2.3 1.2-3.5 1.6-.1.4-.2.5-.4.5s-.2 0-.7-1.7c.4 0 .8-.1 1.3-.1zm1.2 2.4h2.1v-2.4h-2.1zm0 2.6h2.1v-2.3h-2.1zm0 3.1c.7-.1 1.4-.2 2.1-.4v-2.3h-2.1zm8.1-6.9c.6-.6.7-.8.8-.8s.3.1.8.6c.3.3.4.4.4.6s-.1.3-.5.4c-.3 2-1 3.8-2 5.6.9 1 2 1.7 3.2 2.3.1 0 0 .1 0 .2-.4.1-.7.5-.8.9-.1.3-.1.4-.2.4-.2-.1-.4-.2-.5-.3-.9-.7-1.7-1.5-2.4-2.4-.9 1.1-2.1 2-3.4 2.6-.1 0-.2-.1-.1-.2 1.1-1 2.1-2.1 2.8-3.4l-.3-.6c-.7-1.7-1.1-3.6-1.3-5.4-.3 0-.6 0-.9.1l-.1-.5c.4.1.8.1 1.2.1zm-3.1.3c.3 1.8.9 3.5 1.8 5 .7-1.6 1.2-3.3 1.4-5z" fill="#333"/><path d="m70.3 193.2c-.5.4-1.1.8-1.7 1.2-.1 0-.2-.1-.1-.1.9-.9 1.7-2 2.3-3.1.3-.5.5-1 .6-1.5 1.5.6 1.5.7 1.5.8s-.1.2-.5.3c-.4.6-.8 1.2-1.3 1.6.6.1.7.1.7.3s-.1.2-.4.3v6c0 .4-.2.6-.7.6-.3 0-.6-.1-.6-.5s.1-1.5.1-3.7zm2-5.4c-1 1.2-2.2 2.2-3.6 2.8-.1 0-.1-.1-.1-.1.7-.7 1.4-1.5 1.9-2.4.3-.5.5-1 .7-1.5 1.2.6 1.7.8 1.7 1s-.1.2-.6.2zm6.9 8.4v2c0 .3-.1.7-.4.9-.3.3-.7.4-1.1.4-.2 0-.3-.1-.3-.2-.1-.5-.4-.7-1.5-1-.1 0-.1-.2 0-.2.7 0 1.2.1 1.7.1.2 0 .2 0 .2-.2v-3h-4.5c-.3 0-.7 0-1 .1l-.2-.5c.4.1.8.1 1.2.1h4.7v-.3c0-.3 0-.7-.1-1 1.5.2 1.7.2 1.7.4s-.1.2-.4.3v.6h.5c.5-.6.7-.7.8-.7s.3.1.8.5c.2.2.3.3.3.4s0 .1-.2.1h-2.2zm.2-3.4c.6-.7.7-.8.8-.8s.3.1.8.5c.2.2.4.3.4.4s-.1.1-.2.1h-7.6c-.3 0-.7 0-1 .1l-.2-.5c.4.1.8.1 1.1.1zm-4.5-1.4c0 .4-.2.6-.7.6s-.6-.1-.6-.4.1-.7.1-2.2c0-.8 0-1.6-.1-2.4.5.2 1 .4 1.4.7h3.4c.5-.6.6-.6.7-.6s.2.1.7.5c.2.2.3.3.3.4s0 .2-.4.4v.5c0 1.4.1 2.3.1 2.6s-.2.6-.7.6-.6-.1-.6-.6zm.3 6.4c-.4 0-.5-.1-.7-.8-.1-.5-.4-1-.8-1.4 0-.1 0-.1.1-.1 1.4.3 2 .9 2 1.5.2.4-.1.8-.6.8zm3.4-10h-3.7v1.4h3.7zm0 1.8h-3.7v1.4h3.7z" fill="#333"/><path d="m90.9 196.3v2.8s-.3.5-.8.5-.6-.1-.6-.5.1-1.1.1-2.8h-4.3c-.3 0-.7 0-1 .1l-.2-.5c.4.1.8.1 1.2.1h4.4v-.1c0-.5 0-1-.1-1.6 1.6.2 1.8.2 1.8.4s-.1.2-.5.4v.8h3.5c.7-.9.9-1 1-1s.3.1 1 .7c.3.2.4.4.4.5s0 .1-.2.1zm-5.5-2c0 .4 0 .6-.2.6s-.4-.4-.9-1.5c.4-.1.8-.2 1.2-.4.9-.3 1.7-.6 2.5-1 .1 0 .2.1.1.2-.8.9-1.7 1.6-2.7 2.1zm4.3-5.6c1 .4 1.3.6 1.3.7s0 .1-.5.2c-.4.4-.8.8-1.2 1.1.3.2.5.5.5.9 0 .3-.2.6-.5.7-.3 0-.4-.1-.6-.8-.2-.5-.5-.9-.8-1.3v-.1c.4.1.8.2 1.1.4.1-.3.3-.5.4-.8s.2-.6.3-1l-4.1.1c-.3 0-.7 0-1 .1l-.2-.5c.4.1.7.1 1.1.1h4.2v-1c0-.3 0-.6-.1-.8 1.7.1 1.9.3 1.9.5s-.2.3-.5.4v.9h3.3c.8-.8.9-1 1-1s.3.1.9.7c.3.2.4.4.4.5s0 .1-.2.1zm-3.1 3.1c-.4 0-.5-.1-.7-.9-.2-.6-.5-1.1-.9-1.5v-.1h.1c1.5.4 2.3 1 2.3 1.7-.1.5-.4.8-.8.8 0 .1 0 .1 0 0zm5.2 1.4c-.2-.3-.3-.6-.6-.8 0-.1 0-.1.1-.1 1.2.4 1.9 1 1.9 1.7 0 .4-.3.7-.6.7-.3 0-.4-.1-.6-.9 0-.1-.1-.2-.1-.3-1.2.4-2.4.7-3.7.9-.1.3-.1.4-.2.4s-.3-.2-.6-1.5h1.4c.7-.7 1.3-1.5 1.8-2.3.2-.4.4-.7.6-1.1 1.2.6 1.4.8 1.4.9s0 .2-.6.2c-.8.8-1.7 1.6-2.7 2.4.9 0 1.7-.1 2.5-.2zm3.5-2.9c-.8.7-1.7 1.2-2.7 1.7-.1 0-.2-.1-.1-.1.5-.5 1-1.1 1.4-1.7.2-.3.4-.6.5-1 1.1.6 1.4.8 1.4 1s0 .2-.5.1zm-.1 4.3c-.3 0-.5-.1-.8-.8-.3-.6-.8-1.1-1.3-1.4-.1 0 0-.2 0-.1 1.9.3 2.8.8 2.8 1.6 0 .3-.3.7-.7.7z" fill="#333"/><path d="m167.5 165.5v200.7" fill="none" stroke="#4aa064" stroke-miterlimit="10" stroke-width="1.76"/><path d="m0 165.5h335" fill="none" stroke="#4aa064" stroke-miterlimit="10" stroke-width="1.76"/><path d="m53 217.8h69v38.5h-69z" fill="#333"/><path d="m67.8 263.6c3.6 0 6.5-2.9 6.5-6.5s-2.9-6.5-6.5-6.5-6.5 2.9-6.5 6.5c-.1 3.5 2.8 6.5 6.5 6.5-.1 0 0 0 0 0z" fill="none" stroke="#fff" stroke-width="4.09"/><path d="m67.8 267.1c-4.8 0-8.3 5.7-8.3 9.2v7h16.6v-7c0-3.6-3.5-9.2-8.3-9.2z" fill="none" stroke="#fff" stroke-width="4.09"/><path d="m88.6 263.6c3.6 0 6.5-2.9 6.5-6.6s-2.9-6.5-6.6-6.5c-3.6 0-6.5 2.9-6.5 6.5s2.9 6.6 6.6 6.6c-.1 0-.1 0 0 0z" fill="none" stroke="#fff" stroke-width="4.09"/><path d="m88.6 267.1c-4.8 0-8.3 5.7-8.3 9.2v7h16.6v-7c-.1-3.6-3.6-9.2-8.3-9.2z" fill="none" stroke="#fff" stroke-width="4.09"/><path d="m107.3 268.4c2.7 0 4.9-2.2 4.9-4.9s-2.2-4.9-4.9-4.9-4.9 2.2-4.9 4.9 2.2 4.9 4.9 4.9z" fill="none" stroke="#fff" stroke-width="4.09"/><path d="m107.3 271.1c-3.6 0-6.2 4.3-6.2 6.9v5.2h12.5v-5.2c-.1-2.7-2.7-6.9-6.3-6.9z" fill="none" stroke="#fff" stroke-width="4.09"/><path d="m67.8 263.6c3.6 0 6.5-2.9 6.5-6.5s-2.9-6.5-6.5-6.5-6.5 2.9-6.5 6.5c-.1 3.5 2.8 6.5 6.5 6.5-.1 0 0 0 0 0z" fill="#333"/><path d="m67.8 267.1c-4.8 0-8.3 5.7-8.3 9.2v7h16.6v-7c0-3.6-3.5-9.2-8.3-9.2z" fill="#333"/><path d="m88.6 263.6c3.6 0 6.5-2.9 6.5-6.6s-2.9-6.5-6.6-6.5c-3.6 0-6.5 2.9-6.5 6.5s2.9 6.6 6.6 6.6c-.1 0-.1 0 0 0z" fill="#333"/><path d="m88.6 267.1c-4.8 0-8.3 5.7-8.3 9.2v7h16.6v-7c-.1-3.6-3.6-9.2-8.3-9.2z" fill="#333"/><path d="m107.3 268.4c2.7 0 4.9-2.2 4.9-4.9s-2.2-4.9-4.9-4.9-4.9 2.2-4.9 4.9 2.2 4.9 4.9 4.9z" fill="#333"/><path d="m107.3 271.1c-3.6 0-6.2 4.3-6.2 6.9v5.2h12.5v-5.2c-.1-2.7-2.7-6.9-6.3-6.9z" fill="#333"/><path d="m53 282.8h69v4.5h-69z" fill="#333"/></svg>