<?xml version="1.0" encoding="utf-8"?>
<!-- Generator: Adobe Illustrator 25.4.6, SVG Export Plug-In . SVG Version: 6.00 Build 0)  -->
<svg version="1.1" id="レイヤー_1" xmlns="http://www.w3.org/2000/svg" xmlns:xlink="http://www.w3.org/1999/xlink" x="0px"
	 y="0px" viewBox="0 0 1082 309" style="enable-background:new 0 0 1082 309;" xml:space="preserve">
<style type="text/css">
	.st0{fill:none;stroke:#4AA064;stroke-width:1.76;stroke-miterlimit:10;}
	.st1{fill:#333333;}
	.st2{fill:#4AA064;}
	.st3{fill:none;stroke:#333333;stroke-miterlimit:10;}
</style>
<g>
	<line class="st0" x1="775.7" y1="309" x2="775.7" y2="0"/>
	<g>
		<g>
			<g>
				<g>
					<path class="st1" d="M343.4,252.1c-0.7,1-1.5,1.9-2.3,2.7c-0.1,0.1-0.3-0.2-0.3-0.3c1.6-2.9,2.9-6,3.6-8.9
						c0.3-1.4,0.6-2.7,0.7-3.9c3.1,0.8,3.4,0.9,3.4,1.3c0,0.3-0.1,0.4-1,0.7c-0.6,2.1-1.6,4.3-2.7,6.3c1.5,0.2,1.7,0.3,1.7,0.6
						c0,0.2-0.2,0.4-0.7,0.6v13.4c0,0.8-0.4,1.1-1.4,1.1c-0.8,0-1.1-0.3-1.1-1c0-0.7,0.2-2.7,0.2-6.8V252.1z M349.7,261.5
						c0,1.7-0.7,3-2,3c-0.7,0-1.2-0.5-1.2-1.2c0-0.6,0.3-1,1-1.3c1.1-0.5,1.7-1.2,1.7-2.1c0-0.1,0.3-0.2,0.3,0
						C349.6,260.4,349.7,260.9,349.7,261.5z M351.1,245.4c1.9,0.6,2.8,1.4,2.8,2.5c0,0.5-0.4,1-1,1.1h4.2c0.2-0.6,0.4-1.2,0.5-1.8
						c0.1-0.6,0.3-1.1,0.3-1.7c2.2,0.7,2.9,0.9,2.9,1.2c0,0.2-0.2,0.3-0.8,0.5c-1,1.1-1.4,1.4-2.1,1.8h3.6c1.1-1.4,1.4-1.6,1.6-1.6
						c0.2,0,0.5,0.2,1.6,1.1c0.5,0.4,0.7,0.6,0.7,0.8c0,0.2-0.1,0.3-0.3,0.3h-16.2c-0.6,0-1.1,0.1-1.9,0.2l-0.3-1
						c0.8,0.2,1.5,0.2,2.1,0.2h3.5c-0.4-0.1-0.6-0.3-0.7-0.8c-0.3-1.4-0.5-2-1.2-2.8h-0.2c-0.6,0-1.1,0.1-1.9,0.2l-0.3-1
						c0.8,0.2,1.5,0.2,2.1,0.2h4.2v-1.6c0-0.5-0.1-1-0.1-1.6c3,0.3,3.3,0.5,3.3,0.8c0,0.2-0.3,0.4-0.8,0.7v1.7h3.8
						c1.1-1.3,1.4-1.5,1.6-1.5c0.2,0,0.5,0.2,1.6,1.1c0.5,0.4,0.7,0.6,0.7,0.8c0,0.2-0.1,0.3-0.3,0.3H351.1z M351.2,257.7
						c-0.1,0.5-0.5,0.7-1.3,0.7c-0.7,0-1.1-0.3-1.1-0.9c0-0.4,0.1-0.9,0.1-2.6c0-1.5,0-3-0.2-4.6c1.3,0.5,1.5,0.6,2.7,1.2h8.1
						c0.9-1,1.1-1.1,1.3-1.1c0.3,0,0.5,0.2,1.4,0.8c0.4,0.3,0.6,0.5,0.6,0.7c0,0.2-0.2,0.4-0.7,0.8v0.8c0,2.1,0.1,3.5,0.1,4
						c0,0.7-0.5,1-1.5,1c-0.6,0-0.9-0.2-0.9-0.8v0H351.2z M359.8,252.1h-8.6v2.2h8.6V252.1z M359.8,254.9h-8.6v2.2h8.6V254.9z
						 M359.9,262.3c0,0.3,0.1,0.5,0.3,0.5c0.6,0.2,0.8,0.4,0.8,0.9c0,0.5-0.4,0.9-1.2,1.2c-0.9,0.3-2.2,0.4-4.2,0.4
						c-3.3,0-4.4-0.4-4.4-1.8c0-0.5,0.1-1.1,0.1-3.4c0-0.4,0-0.8-0.1-1.1c2.7,0.3,2.9,0.3,2.9,0.7c0,0.3-0.2,0.4-0.7,0.6v2.3
						c0,0.7,0.4,0.9,2.5,0.9c1.1,0,1.8,0,2.3-0.2c0.7-0.3,1-0.9,1.5-2.7c0.1-0.1,0.3-0.1,0.3,0V262.3z M356.6,262
						c-0.6,0-0.7-0.1-1.1-1.4c-0.2-0.7-0.4-1.1-1.1-1.9c-0.1-0.1,0-0.2,0.1-0.2c2.2,0.4,3.2,1.1,3.2,2.2
						C357.8,261.5,357.3,262,356.6,262z M363.7,264.2c-0.7,0-0.9-0.3-1.2-1.6c-0.2-1.1-0.8-2.2-1.4-2.8c-0.1-0.1,0-0.3,0.1-0.2
						c2.6,0.8,3.7,1.7,3.7,3.1C365,263.6,364.4,264.2,363.7,264.2z"/>
					<path class="st1" d="M376.9,264.4c0,0.7-0.6,1-1.6,1c-0.8,0-1.1-0.2-1.1-0.9c0-2.3,0.2-4.7,0.2-14.1c0-2.7,0-5.4-0.2-8.1
						c1.4,0.7,1.6,0.8,2.9,1.4h14.7c1-1.1,1.2-1.2,1.4-1.2c0.3,0,0.5,0.2,1.5,1c0.4,0.4,0.6,0.6,0.6,0.8c0,0.2-0.2,0.4-0.7,0.8v2.9
						c0,12.7,0.1,13.2,0.1,14.7c0,1.3-0.3,1.9-1.2,2.3c-0.4,0.2-1.3,0.4-1.7,0.4c-0.4,0-0.5-0.2-0.6-0.7c-0.1-0.9-0.6-1.5-3.1-2.1
						c-0.1,0-0.1-0.3,0-0.3c1.4,0.1,2.7,0.1,3.5,0.1c0.4,0,0.4-0.1,0.4-0.5v-8.5h-15.1V264.4z M383,252.7v-8.4h-6.1v8.4H383z
						 M392,244.3h-6.4v8.4h6.4V244.3z"/>
				</g>
			</g>
		</g>
	</g>
	<g>
		<g>
			<g>
				<g>
					<path class="st1" d="M48.6,61.8c0,1.2,0,1.9,0,2.5c0,0.4-0.3,0.6-1,0.6c-0.4,0-0.6-0.1-0.6-0.5c0-0.5,0.1-2.4,0.1-3.9
						c-1.1,1.3-2.1,2.1-3.6,2.9c-0.1,0-0.2-0.1-0.1-0.2c1.5-1.4,2.5-2.9,3.4-5h-1.7c-0.3,0-0.6,0-1,0.1l-0.2-0.7
						c0.5,0.1,0.8,0.1,1.2,0.1h2v-0.6c0-0.6,0-1.2-0.1-1.8c1.5,0.1,2.1,0.2,2.1,0.5c0,0.2-0.1,0.3-0.6,0.5v1.4h0.8
						c0.6-0.7,0.8-0.9,0.9-0.9c0.2,0,0.4,0.1,1,0.6c0.3,0.2,0.4,0.4,0.4,0.5s-0.1,0.2-0.2,0.2h-2.9v1.1c1.6,0.2,2.7,0.9,2.7,1.7
						c0,0.5-0.3,0.8-0.7,0.8c-0.3,0-0.5-0.2-0.7-0.5c-0.3-0.8-0.7-1.3-1.3-1.7V61.8z M52.8,51.3c0.7,0.6,1.6,1.2,2.7,1.7
						c1.3,0.5,2.8,0.8,4.4,1c0.1,0,0.1,0.2,0,0.2c-0.5,0.2-0.9,0.5-1.1,1c-0.2,0.5-0.3,0.6-0.5,0.6s-0.5-0.1-0.9-0.3
						c-0.8-0.4-2-1-2.6-1.5c-0.8-0.6-1.4-1.3-2.2-2.3c0,1.5,0.1,2.9,0.1,3.7c0,0.5-0.4,0.6-1,0.6c-0.5,0-0.7-0.2-0.7-0.5
						c0-0.3,0.1-1.7,0.1-3c-1.6,1.5-3.9,2.7-6.8,3.5c-0.1,0-0.2-0.1-0.1-0.2c2.8-1.5,4.3-2.7,5.9-4.6h-3.9c-0.4,0-0.7,0-1.2,0.1
						l-0.2-0.7c0.5,0.1,0.9,0.1,1.3,0.1h4.9v-0.8c0-0.6,0-1.1-0.1-1.7c2.1,0.2,2.3,0.3,2.3,0.6c0,0.2-0.2,0.3-0.6,0.5v1.4h3.7
						c0.9-1.1,1.1-1.3,1.3-1.3c0.2,0,0.4,0.1,1.2,0.9c0.4,0.3,0.6,0.5,0.6,0.6s-0.1,0.2-0.2,0.2H52.8z M55.9,61.8
						c0,1,0.1,1.8,0.1,2.4c0,0.5-0.3,0.6-0.9,0.6c-0.5,0-0.7-0.2-0.7-0.5c0-0.5,0.1-2.3,0.1-4.1c-1.3,1.5-2.7,2.5-4.5,3.4
						c-0.1,0-0.2-0.2-0.1-0.2c1.8-1.4,3.1-3.1,4.1-5.3H53c-0.3,0-0.6,0-1,0.1l-0.2-0.7c0.5,0.1,0.8,0.1,1.2,0.1h1.3V57
						c0-0.5,0-1.1-0.1-1.7c1.6,0.1,2.1,0.2,2.1,0.5c0,0.2-0.1,0.3-0.5,0.5v1.4h1.5c0.7-0.8,0.9-1,1-1c0.2,0,0.4,0.1,1.1,0.7
						c0.3,0.3,0.5,0.4,0.5,0.5s-0.1,0.2-0.2,0.2h-3.7c0.5,0.9,1.1,1.6,1.8,2.2c0.8,0.6,1.6,1.1,2.7,1.4c0.1,0,0.1,0.1,0,0.2
						c-0.6,0.3-0.8,0.6-1,1.2c-0.1,0.2-0.1,0.3-0.3,0.3c-0.1,0-0.2-0.1-0.4-0.3c-0.5-0.4-1.1-1.1-1.5-1.7c-0.5-0.8-1-1.7-1.4-2.9
						V61.8z"/>
					<path class="st1" d="M72.8,55.7c1.1,0.5,1.7,1,1.7,1.8c0,0.6-0.4,1-0.8,1c-0.3,0-0.6-0.1-1-0.5c-0.4-0.5-0.8-1-1.3-1.3
						c-0.6-0.5-1.2-0.8-1.9-1c0,1,0,2,0,3.1c0,0.8,0,2.4,0.1,4.4c0,0.7-0.3,0.8-0.7,0.8c-0.3,0-0.6-0.1-0.8-0.4
						c-0.3-0.5-0.4-1.1-0.4-1.4c0-0.1,0-0.4,0.1-0.5c0.1-0.1,0.1-0.2,0.1-0.3c0-0.2,0.1-0.7,0.1-4c0-1.7,0-3.2,0-4.9
						c0-0.5,0-1.3-0.1-1.5c-0.1-0.2-0.2-0.3-0.4-0.4c-0.3-0.2-0.5-0.3-0.6-0.3c-0.1,0-0.2-0.1-0.2-0.2c0-0.1,0.1-0.2,0.2-0.3
						c0.1-0.1,0.3-0.2,0.5-0.2c0.4,0,1,0.1,1.8,0.5c0.5,0.2,0.7,0.5,0.7,0.8c0,0.2-0.1,0.4-0.3,0.6c-0.1,0.1-0.1,0.2-0.1,0.4
						c-0.1,0.5-0.1,1.6-0.1,3.2C70.6,55,71.8,55.2,72.8,55.7z"/>
					<path class="st1" d="M84.4,54c1.1-0.1,2.6-0.3,4.9-0.5c0.2,0,0.4-0.1,0.6-0.3c0.1-0.1,0.3-0.2,0.5-0.2c0.3,0,0.9,0.4,1.4,0.8
						c0.4,0.4,0.4,0.5,0.4,0.7c0,0.2-0.2,0.3-0.4,0.4c-0.3,0.1-0.4,0.2-0.6,0.8c-0.7,1.3-1.6,2.7-2.8,4c-1.4,1.5-3.5,3.2-5.9,4.2
						c-0.1,0.1-0.3,0.1-0.4,0.1c-0.1,0-0.2-0.1-0.2-0.2c0-0.1,0.1-0.2,0.3-0.3c2.2-1.4,3.7-3.1,5.2-5c1-1.3,1.7-2.5,2.3-3.8
						c0.1-0.1,0.1-0.3,0.1-0.4c0-0.1,0-0.1-0.1-0.1c-0.1,0-0.2,0-0.3,0c-1.9,0.2-3.3,0.4-5.1,0.7c-0.7,0.1-0.9,0.2-1.1,0.3
						c-0.2,0.1-0.4,0.2-0.6,0.2c-0.3,0-0.5-0.1-1-0.6c-0.5-0.5-0.7-1-0.7-1.3c0-0.3,0.1-0.5,0.2-0.5c0.1,0,0.1,0,0.3,0.2
						c0.5,0.5,0.8,0.7,1.5,0.7C83,54.1,83.7,54,84.4,54z M85.2,50.5c0.7-0.1,1.4-0.2,2.2-0.4c0.5-0.1,0.6-0.2,0.8-0.3
						c0.2-0.1,0.5-0.2,0.7-0.2c0.8,0,1.6,0.4,1.6,0.8c0,0.2-0.1,0.5-0.4,0.6c-0.4,0.1-0.8,0.2-1.1,0.2c-0.8,0.1-2.7,0.3-4.1,0.5
						c-0.4,0-0.6,0.1-0.9,0.1c-0.6,0-1-0.3-1.5-1c-0.2-0.3-0.3-0.5-0.3-0.8c0-0.1,0-0.2,0.1-0.2c0.1,0,0.1,0.1,0.2,0.1
						c0.7,0.5,0.9,0.6,1.7,0.6C84.6,50.6,84.9,50.6,85.2,50.5z"/>
					<path class="st1" d="M108.7,58.2c0.7,0.4,1.2,0.7,1.7,1.1c1.1,0.8,1.5,1.5,1.5,2.1c0,0.6-0.4,1-0.8,1c-0.5,0-0.8-0.1-1.1-0.6
						c-0.6-0.9-1.3-1.9-2.1-2.7c-0.7-0.6-1.2-1-1.8-1.4c-1.4,1.4-2.9,2.6-4.4,3.5c-1.2,0.7-2.3,1.2-3.1,1.4
						c-0.1,0.1-0.3,0.1-0.4,0.1c-0.1,0-0.2,0-0.2-0.2c0-0.1,0.1-0.2,0.1-0.2c2.1-1.2,3.6-2.3,5.6-4.4c1.4-1.5,2.3-2.7,3.7-4.8
						c0.1-0.1,0.1-0.2,0.1-0.2c0-0.1-0.1-0.1-0.2-0.1c-1.3,0.1-2.9,0.4-4.3,0.7c-0.5,0.1-0.7,0.2-0.8,0.3c-0.2,0.1-0.3,0.2-0.6,0.2
						c-0.3,0-0.7-0.2-1.2-0.8c-0.3-0.4-0.4-0.7-0.4-1.2c0-0.3,0.1-0.5,0.2-0.5c0.1,0,0.1,0.1,0.3,0.2c0.5,0.6,0.7,0.7,1.2,0.7
						c0.2,0,0.7,0,1.4-0.1c1.5-0.2,2.7-0.3,4-0.5c0.3-0.1,0.6-0.1,0.7-0.3s0.3-0.2,0.5-0.2c0.3,0,0.6,0.2,1,0.5
						c0.5,0.5,0.8,0.8,0.8,1c0,0.2-0.1,0.4-0.6,0.5c-0.2,0.1-0.3,0.2-0.4,0.4c-0.8,1.1-1.4,2.1-2.4,3.2
						C107.4,57.5,108.1,57.8,108.7,58.2z"/>
					<path class="st1" d="M125.2,55.7c1.1,0.5,1.7,1,1.7,1.8c0,0.6-0.4,1-0.8,1c-0.3,0-0.6-0.1-1-0.5c-0.4-0.5-0.8-1-1.3-1.3
						c-0.6-0.5-1.2-0.8-1.9-1c0,1,0,2,0,3.1c0,0.8,0,2.4,0.1,4.4c0,0.7-0.3,0.8-0.7,0.8c-0.3,0-0.6-0.1-0.8-0.4
						c-0.3-0.5-0.4-1.1-0.4-1.4c0-0.1,0-0.4,0.1-0.5c0.1-0.1,0.1-0.2,0.1-0.3c0-0.2,0.1-0.7,0.1-4c0-1.7,0-3.2,0-4.9
						c0-0.5,0-1.3-0.1-1.5c-0.1-0.2-0.2-0.3-0.4-0.4c-0.3-0.2-0.5-0.3-0.6-0.3c-0.1,0-0.2-0.1-0.2-0.2c0-0.1,0.1-0.2,0.2-0.3
						c0.1-0.1,0.3-0.2,0.5-0.2c0.4,0,1,0.1,1.8,0.5c0.5,0.2,0.7,0.5,0.7,0.8c0,0.2-0.1,0.4-0.3,0.6c-0.1,0.1-0.1,0.2-0.1,0.4
						c-0.1,0.5-0.1,1.6-0.1,3.2C123,55,124.2,55.2,125.2,55.7z"/>
					<path class="st1" d="M144.6,53.4c0,0.3-0.1,0.5-0.5,0.6c-0.3,0.1-0.4,0.3-0.6,0.6c-1.2,1.9-2.5,3.8-4.2,5.4
						c-1.6,1.7-3.6,3.1-5.8,3.9c-0.1,0.1-0.3,0.1-0.4,0.1c-0.1,0-0.2,0-0.2-0.2s0.1-0.2,0.3-0.3c2.3-1.5,4-3.1,5.3-4.6
						c1.3-1.6,2.6-3.4,3.5-5.4c0-0.1,0.1-0.1,0.1-0.2c0,0,0-0.1-0.1-0.1c-0.4,0.1-1,0.2-1.8,0.3c-0.5,0.1-0.7,0.2-1,0.2
						c-0.3,0-0.6-0.1-1-0.3c-0.7,0.9-1.4,1.7-2.1,2.4c-0.8,0.8-1.7,1.4-2.6,2c-0.3,0.2-0.5,0.3-0.6,0.3c-0.2,0-0.2-0.1-0.2-0.2
						c0-0.1,0.3-0.3,0.7-0.8c0.7-0.7,1.5-1.6,2.2-2.6c0.5-0.7,1-1.4,1.5-2.1c0.3-0.5,0.6-1.1,0.6-1.4c0-0.3-0.3-0.5-0.6-0.7
						c-0.2-0.1-0.2-0.1-0.2-0.2c0-0.1,0.2-0.3,0.6-0.3c0.3,0,1,0.1,1.8,0.6c0.6,0.3,0.7,0.6,0.7,0.8c0,0.2-0.2,0.4-0.4,0.6
						c-0.2,0.1-0.3,0.3-0.7,0.9c0.1,0,0.2,0,0.3,0c0.4,0,0.8-0.1,1.4-0.2c0.7-0.1,1.2-0.2,1.4-0.3c0.1,0,0.3-0.1,0.4-0.2
						c0.1-0.1,0.3-0.3,0.5-0.3c0.4,0,0.8,0.2,1.5,0.8C144.4,52.9,144.6,53.2,144.6,53.4z M145.5,51c0.5,0.4,0.7,0.7,0.7,1.1
						c0,0.3-0.2,0.6-0.6,0.6c-0.2,0-0.4-0.1-0.6-0.4c-0.4-0.7-0.7-1.1-1.1-1.6c-0.1-0.1-0.2-0.2-0.2-0.2c0-0.1,0.1-0.1,0.2-0.1
						c0.2,0,0.4,0.1,0.4,0.1C144.8,50.5,145.1,50.7,145.5,51z M147.2,49.7c0.4,0.2,0.6,0.5,0.6,0.9c0,0.4-0.3,0.7-0.6,0.7
						c-0.3,0-0.5-0.1-0.7-0.4c-0.4-0.6-0.8-1-1.3-1.4c-0.1-0.1-0.2-0.1-0.2-0.2c0-0.1,0.1-0.1,0.1-0.1c0.1,0,0.3,0,0.5,0.1
						C146.2,49.3,146.7,49.5,147.2,49.7z"/>
					<path class="st1" d="M155.7,53.7c-0.1-0.1-0.2-0.1-0.2-0.2c0-0.1,0.3-0.4,0.7-0.4c0.5,0,1.3,0.3,1.9,0.7
						c0.5,0.3,0.5,0.5,0.5,0.8c0,0.2,0,0.3-0.3,0.5c-0.1,0.1-0.2,0.3-0.3,0.6c-0.4,1.1-0.8,2.3-1.5,3.3c-0.9,1.4-2.1,2.6-3.6,3.3
						c-0.2,0.1-0.3,0.1-0.4,0.1c-0.1,0-0.2-0.1-0.2-0.2c0-0.1,0-0.1,0.2-0.3c1.1-1,1.8-1.9,2.5-3.2c0.6-1,1-2.1,1.2-3.1
						c0.1-0.5,0.2-0.9,0.2-1.3C156.6,54.2,156.2,53.9,155.7,53.7z M159.8,52.6c-0.1-0.2-0.4-0.5-0.8-0.6c-0.1-0.1-0.2-0.1-0.2-0.2
						s0.3-0.4,0.8-0.4s1,0.2,1.6,0.6c0.3,0.2,0.7,0.5,0.7,0.9c0,0.2-0.1,0.3-0.3,0.5c-0.1,0.1-0.1,0.2-0.1,0.4
						c0,1.2-0.1,2.3-0.1,4.1c0,0.8,0,1.2,0,1.3c0,0.2,0,0.2,0.1,0.2c0.1,0,0.2,0,0.4-0.1c2-0.8,3.7-1.7,5.9-3.5
						c0.2-0.2,0.3-0.3,0.5-0.3c0.1,0,0.2,0.1,0.2,0.2c0,0.1-0.1,0.2-0.1,0.3c-1.2,1.7-3.2,3.4-6.4,5.2c-0.2,0.1-0.3,0.2-0.4,0.4
						c-0.1,0.2-0.3,0.3-0.4,0.3c-0.2,0-0.6-0.2-0.9-0.6c-0.3-0.4-0.5-0.8-0.5-1.1c0-0.1,0-0.2,0.1-0.3c0.1-0.2,0.1-0.7,0.1-1.1
						c0-1.4,0-2.7,0-5C160,53.2,159.9,52.8,159.8,52.6z"/>
					<path class="st1" d="M187.3,57.4c-0.6,0-1.8-0.1-2.7-0.1c-1.4,0-4.5,0.1-6.7,0.3c-0.9,0.1-1.5,0.2-1.8,0.3
						c-0.1,0.1-0.3,0.1-0.5,0.1c-0.5,0-0.9-0.4-1.4-1.2c-0.3-0.4-0.3-0.6-0.3-1c0-0.3,0.1-0.4,0.2-0.4c0.1,0,0.1,0.1,0.2,0.2
						c0.7,0.6,1,0.7,1.5,0.7c0.5,0,0.8,0,1.9-0.1c2.2-0.1,4.6-0.3,6.4-0.3c0.7,0,1.2-0.1,1.4-0.3c0.2-0.1,0.4-0.1,0.5-0.1
						c0.2,0,0.5,0.1,0.8,0.2c0.7,0.3,1.2,0.6,1.2,1C187.9,57.1,187.7,57.4,187.3,57.4z"/>
					<path class="st1" d="M196.8,54c-0.3,0.1-0.5,0.2-0.6,0.3s-0.3,0.1-0.5,0.1c-0.3,0-0.6-0.2-1.1-0.8c-0.5-0.6-0.6-0.8-0.6-1.3
						c0-0.4,0.1-0.5,0.2-0.5c0.1,0,0.2,0.1,0.3,0.2c0.5,0.6,0.9,0.8,1.6,0.7c0.5,0,0.9,0,1.3-0.1c1.8-0.2,3.6-0.3,5.2-0.5
						c0.3,0,0.6-0.1,0.8-0.3c0.2-0.1,0.3-0.2,0.5-0.2c0.4,0,0.6,0.1,1.2,0.5c0.6,0.5,0.8,0.7,0.8,1.2c0,0.2-0.1,0.3-0.4,0.5
						c-0.4,0.2-0.6,0.5-0.8,0.9c-1.2,2.2-2.2,3.5-3.4,4.8c-2,2.1-4.2,3.3-5.9,3.9c-0.1,0-0.2,0.1-0.3,0.1c-0.2,0-0.2,0-0.2-0.2
						c0-0.1,0.1-0.2,0.3-0.3c2.2-1.3,3.8-2.8,5.1-4.5c1-1.4,1.9-2.9,2.8-4.6c0.2-0.3,0.2-0.5,0.2-0.6c0-0.1-0.1-0.1-0.2-0.1
						c-0.1,0-0.4,0-0.8,0.1C200.5,53.5,198.4,53.7,196.8,54z M208.3,50.5c0,0.8-0.7,1.5-1.5,1.5s-1.5-0.7-1.5-1.5
						c0-0.8,0.7-1.5,1.5-1.5S208.3,49.7,208.3,50.5z M205.8,50.5c0,0.5,0.5,1,1,1c0.5,0,1-0.5,1-1c0-0.5-0.5-1-1-1
						C206.2,49.6,205.8,50,205.8,50.5z"/>
					<path class="st1" d="M50.5,83.4c-0.1,4.1-1.8,6-6.6,6.9c-0.1,0-0.2-0.2-0.1-0.3c3.7-1.4,4.9-3,4.9-6.9c0-0.2,0-0.4,0-0.8
						c1.9,0.2,2.4,0.3,2.4,0.6C51.1,83.2,50.9,83.3,50.5,83.4z M57.4,81.3c0.7-0.8,0.8-0.9,1-0.9c0.2,0,0.3,0.1,1.2,0.9
						c0.4,0.4,0.5,0.5,0.5,0.6c0,0.3-0.1,0.4-0.8,0.4c-0.3,0-0.4,0.1-0.5,0.2C58,83,57.6,83.3,57,83.7c-0.1,0-0.2-0.1-0.2-0.1
						c0.4-0.6,0.5-1,0.8-1.9H46.3c0,1.4-0.6,2.4-1.7,2.4c-0.5,0-0.8-0.3-0.8-0.8c0-0.4,0.2-0.7,0.7-1c1-0.5,1.3-1,1.4-2.2
						c0-0.1,0.2-0.1,0.2,0c0.1,0.4,0.2,0.8,0.2,1.1H57.4z M52.6,79h3.2c0.8-1,1.1-1.1,1.2-1.1c0.2,0,0.4,0.1,1.2,0.8
						c0.3,0.3,0.5,0.5,0.5,0.6c0,0.1-0.1,0.2-0.2,0.2H47.1c-0.4,0-0.7,0-1.2,0.1l-0.2-0.7c0.5,0.1,1,0.1,1.4,0.1h3.8v-2.1h-5.4
						c-0.4,0-0.8,0-1.3,0.1L44,76.3c0.6,0.1,1,0.1,1.4,0.1h5.4v-0.8c0-0.6,0-1.2-0.1-1.8c2.3,0.2,2.5,0.4,2.5,0.6
						c0,0.2-0.2,0.3-0.6,0.5v1.5H57c0.9-1,1.1-1.2,1.2-1.2c0.2,0,0.4,0.1,1.2,0.8c0.4,0.3,0.5,0.5,0.5,0.6s-0.1,0.2-0.2,0.2h-7.2V79
						z M54.3,87.7c0,0.5,0.2,0.6,1.7,0.6c0.8,0,1.2,0,1.8-0.2c0.5-0.2,0.8-0.8,1.4-2.6c0-0.1,0.2-0.1,0.2,0c0,0.6-0.1,1.4-0.1,1.9
						c0,0.2,0,0.3,0.1,0.3c0.5,0.2,0.6,0.5,0.6,0.8c0,0.5-0.2,0.8-0.8,1c-0.7,0.2-1.7,0.3-3.4,0.3c-2.6,0-3.2-0.3-3.2-1.6v-3
						c0-1,0-2-0.1-3c2.3,0.3,2.3,0.3,2.3,0.6c0,0.2-0.1,0.3-0.5,0.5V87.7z"/>
					<path class="st1" d="M73.9,88.8h4.4c1-1.3,1.3-1.5,1.4-1.5c0.2,0,0.4,0.1,1.4,1c0.5,0.4,0.6,0.6,0.6,0.7s-0.1,0.2-0.2,0.2H67.6
						c-0.5,0-1.1,0-1.7,0.1l-0.2-0.7c0.8,0.1,1.3,0.1,1.9,0.1H72v-12c0-1.1,0-1.9-0.1-2.5c2.4,0.2,2.6,0.4,2.6,0.6
						c0,0.2-0.2,0.4-0.6,0.5v5.4h2.9c1-1.3,1.2-1.4,1.3-1.4c0.2,0,0.4,0.1,1.4,1c0.5,0.4,0.6,0.5,0.6,0.7s-0.1,0.2-0.2,0.2h-6V88.8z
						"/>
					<path class="st1" d="M94.2,74.8c0-0.3,0-0.6-0.1-1.1c2.3,0.2,2.5,0.4,2.5,0.6c0,0.2-0.2,0.3-0.6,0.5v1.1h4.4
						c1-1.1,1.2-1.2,1.3-1.2c0.2,0,0.3,0.1,1.2,0.8c0.4,0.3,0.5,0.5,0.5,0.6s-0.1,0.2-0.2,0.2H88.7c-0.4,0-0.8,0-1.3,0.1l-0.2-0.7
						c0.6,0.1,1,0.1,1.4,0.1h5.5V74.8z M100.5,82.5c0.6-0.7,0.8-0.8,0.9-0.8c0.2,0,0.3,0.1,1,0.6c0.3,0.3,0.4,0.4,0.4,0.5
						c0,0.2-0.1,0.3-0.6,0.6v0.9c0,2.9,0.1,3.6,0.1,4.4c0,0.7-0.2,1-0.7,1.3c-0.3,0.2-0.7,0.3-1.2,0.3c-0.2,0-0.3-0.1-0.4-0.5
						c-0.1-0.6-0.3-0.8-1.6-1.2c-0.1,0-0.1-0.2,0-0.2c0.8,0.1,1.3,0.1,1.9,0.1c0.2,0,0.2-0.1,0.2-0.2v-5.4H89.8v6.7
						c0,0.6-0.3,0.8-1,0.8c-0.5,0-0.7-0.2-0.7-0.7c0-1,0.1-2,0.1-6c0-0.7,0-1.4-0.1-2.1c0.9,0.4,1,0.4,1.9,0.9H100.5z M92.2,81v0.1
						c0,0.5-0.3,0.7-1,0.7c-0.5,0-0.7-0.2-0.7-0.6c0-0.5,0-0.9,0-2.7c0-0.5,0-1,0-1.5c0.9,0.4,1,0.4,1.8,0.9H98
						c0.6-0.7,0.7-0.8,0.8-0.8c0.2,0,0.3,0.1,1,0.6c0.3,0.2,0.4,0.4,0.4,0.5c0,0.1-0.1,0.3-0.5,0.5V79c0,1,0,1.7,0,1.9
						c0,0.6-0.3,0.8-1,0.8c-0.5,0-0.7-0.2-0.7-0.6V81H92.2z M93.3,87.5v0.4c0,0.5-0.3,0.7-1,0.7c-0.5,0-0.6-0.1-0.6-0.6
						c0-0.4,0-0.8,0-2.5c0-0.6,0-1.2-0.1-1.8c0.8,0.3,0.9,0.4,1.8,0.8h3.5c0.5-0.6,0.7-0.7,0.8-0.7c0.2,0,0.3,0.1,1,0.6
						c0.3,0.2,0.4,0.4,0.4,0.5c0,0.2-0.1,0.3-0.5,0.5v0.3c0,0.9,0.1,1.5,0.1,1.7c0,0.5-0.3,0.7-0.9,0.7c-0.5,0-0.7-0.1-0.7-0.5v-0.3
						H93.3z M98.1,78.3h-5.9v2.3h5.9V78.3z M97,84.9h-3.7v2.1H97V84.9z"/>
				</g>
			</g>
		</g>
	</g>
	<g>
		<g>
			<g>
				<g>
					<path class="st1" d="M917.2,198.7c1.4-1.7,1.7-1.9,1.9-1.9c0.2,0,0.5,0.2,1.9,1.3c0.6,0.5,0.8,0.8,0.8,0.9
						c0,0.2-0.1,0.3-0.3,0.3h-9c0,2.8,0.1,5.3,0.1,6.4c0,0.8-0.5,1.1-1.6,1.1c-0.8,0-1.1-0.2-1.1-0.9c0-0.7,0.1-2.7,0.1-6.6h-9.2
						c-0.6,0-1.1,0.1-1.9,0.2l-0.3-1c0.9,0.2,1.5,0.2,2.1,0.2h2.3v-3.6c0-1.3,0-2.6-0.1-3.9c1.3,0.5,1.5,0.6,2.7,1.2h4.3v-4.8h-4.8
						c-1.6,2.4-3.4,4.2-5.8,5.7c-0.1,0.1-0.4-0.1-0.3-0.2c1.7-1.7,3.5-4.7,4.5-7.4c0.4-1.1,0.7-2.1,0.8-3c2.8,0.8,3.5,1.1,3.5,1.6
						c0,0.3-0.3,0.5-1.1,0.6c-0.4,0.8-0.8,1.5-1.2,2.2h11c1.4-1.6,1.7-1.8,1.8-1.8c0.2,0,0.5,0.2,1.8,1.2c0.6,0.5,0.8,0.7,0.8,0.9
						c0,0.2-0.1,0.3-0.3,0.3h-8.2v4.8h3.1c1.3-1.5,1.5-1.7,1.7-1.7c0.3,0,0.5,0.2,1.8,1.1c0.6,0.5,0.8,0.7,0.8,0.9
						c0,0.2-0.1,0.3-0.4,0.3h-6.9v0.9c0,1.5,0,3.1,0,4.7H917.2z M909.9,193.1h-4.5v5.6h4.5V193.1z"/>
				</g>
			</g>
		</g>
	</g>
	<g>
		<g>
			<g>
				<g>
					<path class="st1" d="M855.7,242.2c0.5-1,0.9-1.9,1.2-2.7c0.3-0.7,0.4-1.4,0.6-2c2.2,0.7,3.3,1.2,3.3,1.5c0,0.4-0.3,0.5-1.2,0.5
						c-1.3,1.3-1.8,1.8-2.9,2.7h4.9c1.3-1.5,1.6-1.7,1.8-1.7c0.2,0,0.5,0.2,1.8,1.2c0.6,0.5,0.8,0.7,0.8,0.9c0,0.2-0.1,0.3-0.3,0.3
						H845c-0.6,0-1.1,0.1-1.9,0.2l-0.3-1c0.9,0.2,1.5,0.2,2.1,0.2H855.7z M846.7,254.1c0,3.1,0.1,4.8,0.1,6.4c0,0.7-0.4,1-1.4,1
						c-0.8,0-1.1-0.2-1.1-0.8c0-1.4,0.1-2.9,0.1-8.7c0-2.5,0-5-0.1-7.5c1.3,0.5,1.5,0.5,2.6,1.2h4.2c0.9-1,1.1-1.1,1.3-1.1
						c0.3,0,0.5,0.2,1.4,0.9c0.4,0.3,0.5,0.5,0.5,0.7s-0.2,0.4-0.7,0.7v2c0,8.3,0.1,9.5,0.1,10.3c0,0.7-0.2,1.3-0.6,1.7
						c-0.4,0.4-1,0.5-1.9,0.5c-0.3,0-0.4-0.1-0.4-0.5c-0.2-0.9-0.4-1.3-2.4-1.9c-0.1,0-0.1-0.3,0-0.3c1,0.1,1.8,0.1,2.7,0.1
						c0.2,0,0.3-0.1,0.3-0.4v-4.2H846.7z M851.2,246.2h-4.5v3.3h4.5V246.2z M851.2,250h-4.5v3.4h4.5V250z M850.8,241.9
						c-0.7,0-0.9-0.3-1.1-1.2c-0.3-1.2-0.8-2.2-1.2-2.8c-0.1-0.1,0.1-0.3,0.2-0.3c2.4,0.6,3.5,1.5,3.5,2.8
						C852.1,241.3,851.5,241.9,850.8,241.9z M858.8,248.3c0,3.7,0.1,6.3,0.1,7.1c0,0.8-0.5,1.1-1.5,1.1c-0.8,0-1-0.2-1-1
						c0-0.8,0.1-3.1,0.1-7.8c0-0.9,0-1.4-0.1-2.3c2.9,0.4,3.4,0.5,3.4,0.8c0,0.3-0.3,0.5-0.9,0.7V248.3z M861.6,246.8
						c0-1,0-1.3-0.1-2.3c3.1,0.4,3.4,0.4,3.4,0.9c0,0.3-0.3,0.4-0.9,0.7v6.8c0,1.4,0.1,4.4,0.1,5.9c0,0.5-0.1,1.1-0.4,1.4
						c-0.5,0.7-1.1,1-2.2,1c-0.6,0-0.6-0.1-0.8-0.7c-0.2-0.8-0.6-1.2-2.8-1.8c-0.1,0-0.1-0.3,0-0.3c1.1,0.1,2.4,0.1,3,0.1
						c0.6,0,0.6-0.1,0.6-0.4V246.8z"/>
					<path class="st1" d="M875.3,248.1c-0.7,1-1.5,1.9-2.3,2.7c-0.1,0.1-0.3-0.2-0.3-0.3c1.7-2.9,2.9-6.1,3.7-9
						c0.3-1.4,0.6-2.7,0.7-3.9c3,0.8,3.4,0.9,3.4,1.3c0,0.3-0.1,0.4-1,0.7c-0.6,2.1-1.6,4.2-2.7,6.2c1.4,0.2,1.5,0.3,1.5,0.6
						c0,0.2-0.2,0.4-0.7,0.6v13.4c0,0.8-0.5,1.1-1.4,1.1c-0.8,0-1.1-0.3-1.1-1c0-0.7,0.2-2.7,0.2-6.8V248.1z M885.1,256.4
						c1.7-0.3,3.3-0.6,4.2-0.9c0.1,0,0.2,0.3,0.1,0.3c-2.6,1.4-5.1,2.3-8.8,3.4c-0.1,0.7-0.2,1-0.5,1c-0.4,0-0.5-0.4-1.4-3.1
						c0.5,0,0.9,0,1.6-0.1c0.7-0.1,1.6-0.2,2.5-0.3v-4.6h-2.1c-0.4,0-0.8,0.1-1.4,0.2l-0.3-1c0.7,0.2,1.2,0.2,1.7,0.2h2.1v-0.9
						c0-1.1-0.1-2.1-0.1-3c2.8,0.3,3.1,0.5,3.1,0.8s-0.3,0.5-0.8,0.7v2.5h1.1c0.8-1.1,1.1-1.3,1.3-1.3c0.2,0,0.5,0.2,1.3,0.9
						c0.3,0.3,0.5,0.5,0.5,0.7c0,0.2-0.1,0.3-0.3,0.3h-4V256.4z M884.9,240.6c-0.8,1.7-1.7,3.5-2.9,5c1.7,0,3.3-0.1,5-0.3
						c-0.3-1.1-0.7-2.1-1.2-2.8c-0.1-0.1,0.1-0.3,0.2-0.2c2.3,1.3,3.5,2.6,3.5,3.9c0,0.8-0.6,1.5-1.3,1.5c-0.6,0-0.9-0.3-1.1-1.5
						l0-0.2c-2,0.8-4.3,1.4-6.6,1.7c-0.2,0.5-0.3,0.7-0.6,0.7c-0.3,0-0.5-0.4-1.1-2.9c0.6,0,1,0,1.3,0h1.1c0.4-1.7,0.7-3.3,0.9-5
						h-0.7c-0.4,0-0.9,0.1-1.4,0.2l-0.3-1c0.7,0.2,1.2,0.2,1.7,0.2h4.8c0.9-1.2,1.2-1.4,1.4-1.4c0.2,0,0.5,0.2,1.5,1
						c0.4,0.4,0.6,0.6,0.6,0.8c0,0.2-0.1,0.3-0.3,0.3H884.9z M894.1,240.2c0-0.8,0-1.2-0.2-2.2c2.9,0.4,3.1,0.5,3.1,0.9
						c0,0.3-0.1,0.4-0.7,0.7v9.2c0,4.7,0.1,8.1,0.1,9.6c0,1.2-0.2,1.6-0.8,2.1c-0.6,0.4-1.2,0.6-1.9,0.6c-0.6,0-0.8-0.2-0.9-0.6
						c-0.1-1-0.6-1.4-2.7-2c-0.1,0-0.1-0.4,0-0.4c1.1,0.1,2.6,0.2,3.5,0.2c0.3,0,0.4-0.1,0.4-0.4V240.2z M892.4,244
						c0,5.5,0.1,9.3,0.1,10.5c0,0.7-0.4,1.1-1.4,1.1c-0.7,0-1-0.3-1-0.9c0-0.8,0.1-3.1,0.1-7.8c0-3.7-0.1-5.8-0.1-6.3
						c2.8,0.3,2.9,0.4,2.9,0.8c0,0.2-0.2,0.4-0.7,0.7V244z"/>
					<path class="st1" d="M910.5,243.3c-0.1,0.4-0.3,1.8-0.4,4.6c-0.2,2.7-0.3,5.1-0.3,6.7c0,1.4,0.2,2.1,0.6,2.5
						c0.4,0.4,1.3,0.6,2.5,0.6c1.7,0,3.7-0.6,5.7-1.6c1.4-0.7,3.1-1.8,4.5-3.5c0.2-0.2,0.3-0.3,0.5-0.3c0.1,0,0.3,0.1,0.3,0.3
						c0,0.1-0.2,0.5-0.3,0.7c-1.1,1.8-2.7,3.4-4.5,4.6c-1.7,1.1-3.7,2.1-6.9,2.1c-2.7,0-4.4-1.9-4.3-5.1c0.1-4.3,0.3-8.6,0.4-12.6
						c0-1-0.2-1.4-1-1.7c-0.7-0.3-0.8-0.3-0.8-0.4c0-0.2,0.2-0.3,0.4-0.5c0.3-0.2,0.9-0.2,1.2-0.2c0.7,0,1.5,0.3,2.5,1.2
						c0.5,0.4,0.8,0.9,0.8,1.3c0,0.5-0.2,0.7-0.4,0.9C910.6,243,910.5,243.1,910.5,243.3z"/>
					<path class="st1" d="M943.6,243.9c-3.7,1-6.2,1.8-7.6,2.4c-0.3,0.2-0.7,0.3-1,0.6c-0.2,0.2-0.5,0.3-0.8,0.3
						c-0.5,0-1.1-0.3-2-1.3c-0.4-0.5-1-1.1-1-1.9c0-0.4,0.1-0.8,0.3-0.8c0.1,0,0.2,0,0.4,0.3c0.9,0.9,1.1,1,1.9,1
						c0.4,0,1.8-0.2,4.3-0.9c3.3-0.8,5.9-1.5,7.9-2.1c0.6-0.2,1.1-0.4,1.4-0.5c0.3-0.2,0.5-0.2,1-0.2c0.6,0,1.5,0.1,2.4,0.4
						c0.4,0.2,0.8,0.5,0.8,1c0,0.5-0.2,0.9-1,0.9c-0.5,0.1-1.1,0-2.6,0.1c-2.4,0.2-4.3,1-6,2.8c-1.3,1.4-1.9,3-1.9,5
						c0,1.6,0.7,3,1.9,3.9c1.3,0.9,2.7,1.2,4.2,1.4c0.8,0.1,1.5,0.1,2,0.4c0.6,0.3,1,0.7,1,1.3c0,0.7-0.5,1.2-1.7,1.2
						c-1.6,0-3.5-0.5-5-1.2c-1.8-0.8-3.8-3-3.8-6c0-1.7,0.4-3.1,1-4.4c0.6-1.3,2.1-2.7,3.6-3.8V243.9z M950.7,247.5
						c0.7,0.5,1,1,1,1.6c0,0.4-0.3,0.9-0.9,0.9c-0.3,0-0.6-0.1-0.9-0.6c-0.5-1-1-1.6-1.6-2.3c-0.1-0.1-0.3-0.2-0.3-0.3
						c0-0.1,0.1-0.1,0.1-0.2c0.1,0,0.3,0,0.4,0C949.3,246.7,950.1,247,950.7,247.5z M953.1,245.8c0.5,0.3,0.9,0.8,0.9,1.3
						s-0.4,1-0.8,1c-0.4,0-0.7-0.1-1-0.6c-0.5-0.9-1.1-1.5-1.8-2c-0.1-0.1-0.3-0.2-0.3-0.3c0-0.1,0-0.1,0.1-0.2
						c0.1-0.1,0.2-0.1,0.4,0C951.6,245.1,952.3,245.3,953.1,245.8z"/>
					<path class="st1" d="M966.6,255.8c0.8,1.3,1.3,1.8,2.5,2.2c1.3,0.4,3.2,0.6,5.9,0.6c3.1,0,5.5-0.2,10-0.7c0.1,0,0.1,0.2,0,0.3
						c-0.6,0.3-0.9,0.7-1,1.5c-0.1,0.8-0.1,0.9-0.6,0.9c-1.4,0.2-4.5,0.2-6.3,0.2c-4.4,0-7-0.4-8.7-1.5c-1.2-0.8-1.9-2-2.4-3.7
						c-0.8,1.5-1.6,2.4-3,3.9c0.1,1-0.1,1.2-0.4,1.2c-0.4,0-1-0.9-1.9-3.2c0.6-0.2,1.2-0.4,1.8-0.6c0.7-0.3,1.4-0.7,1.9-1V249h-1.8
						c-0.4,0-0.9,0.1-1.4,0.2l-0.3-1c0.7,0.2,1.2,0.2,1.7,0.2h1.6c0.9-1,1.1-1.2,1.3-1.2c0.3,0,0.5,0.2,1.4,0.9
						c0.4,0.4,0.6,0.5,0.6,0.8c0,0.2-0.1,0.3-0.8,0.8V255.8z M965.3,243.2c-0.6,0-0.9-0.3-1.3-1.6c-0.3-1-0.9-2.3-1.7-3
						c-0.1-0.1,0.1-0.3,0.2-0.2c3,0.8,4.2,2,4.2,3.3C966.7,242.5,966.2,243.2,965.3,243.2z M976.6,243.8h4.5c1-1.2,1.4-1.4,1.5-1.4
						c0.2,0,0.5,0.2,1.5,1c0.4,0.3,0.6,0.6,0.6,0.8c0,0.2-0.1,0.3-0.3,0.3h-6c1.8,0.6,2.3,0.9,2.3,1.2c0,0.3-0.2,0.3-1,0.4
						c-0.9,0.8-1.3,1.2-2,1.7h2.8c1-1.1,1.3-1.4,1.5-1.4c0.2,0,0.5,0.2,1.4,1c0.4,0.3,0.6,0.5,0.6,0.7c0,0.2-0.1,0.3-0.3,0.3h-7v2.6
						h3c0.8-1,1.1-1.2,1.3-1.2c0.2,0,0.5,0.2,1.3,0.9c0.3,0.3,0.5,0.5,0.5,0.7c0,0.2-0.1,0.3-0.3,0.3h-5.8c0,0.9,0,1.7,0.1,2.6h4.2
						c1-1.2,1.3-1.4,1.5-1.4c0.2,0,0.5,0.2,1.5,1c0.4,0.3,0.6,0.6,0.6,0.8c0,0.2-0.1,0.3-0.3,0.3h-7.5c0,1,0.1,1.9,0.1,2.3
						c0,0.8-0.4,1.1-1.5,1.1c-0.7,0-1.1-0.2-1.1-0.7c0-0.3,0.1-1.1,0.1-2.7h-4.8c-0.4,0-0.9,0.1-1.5,0.2l-0.3-1
						c0.7,0.2,1.2,0.2,1.7,0.2h4.8v-2.6h-3.4c-0.4,0-0.8,0.1-1.4,0.2l-0.3-1c0.7,0.2,1.1,0.2,1.6,0.2h3.5v-2.6h-4.6
						c-0.4,0-0.9,0.1-1.4,0.2l-0.3-1c0.7,0.2,1.2,0.2,1.7,0.2h2.8c-0.2-0.1-0.3-0.4-0.4-1c-0.1-0.8-0.4-1.6-0.8-2.1
						c-0.1-0.1,0-0.2,0.1-0.2c1.8,0.4,2.7,1.2,2.7,2.1c0,0.5-0.3,0.9-0.7,1.1h3.6c0.3-0.6,0.5-1.2,0.7-1.8c0.1-0.5,0.3-1,0.4-1.4
						h-8.5c-0.5,0-0.9,0.1-1.5,0.2l-0.3-1c0.7,0.2,1.2,0.2,1.8,0.2h4.9V241h-3.7c-0.4,0-0.9,0.1-1.5,0.2l-0.3-1
						c0.7,0.2,1.2,0.2,1.7,0.2h3.7v-0.9c0-0.7-0.1-1.4-0.1-2.1c2.8,0.3,3.1,0.5,3.1,0.8s-0.2,0.4-0.7,0.6v1.6h3.1
						c0.9-1.1,1.2-1.3,1.4-1.3c0.2,0,0.5,0.2,1.4,0.9c0.4,0.3,0.6,0.5,0.6,0.7c0,0.2-0.1,0.3-0.3,0.3h-6.2V243.8z"/>
					<path class="st1" d="M1004.8,243c0-0.4,0-0.8-0.1-1.2c-0.1-2-0.1-2.8-0.3-3.8c3.2,0.4,3.3,0.4,3.3,0.8c0,0.2-0.2,0.4-0.8,0.6
						c0,1.3,0,2.4,0.1,3.5h4.3c1.4-1.6,1.6-1.7,1.8-1.7c0.3,0,0.4,0.2,1.5,1.2c0.5,0.5,0.6,0.7,0.6,0.9c0,0.2-0.1,0.3-0.4,0.3h-7.8
						c0.3,3.8,0.7,6.3,1.4,8.2c0.3-0.5,0.5-1,0.8-1.6c0.6-1.4,1-2.8,1.2-4.3c2.2,0.6,3,1,3,1.4c0,0.3-0.2,0.4-0.9,0.6
						c-0.8,2.3-1.8,4.3-3,6.1c0.6,1,1.3,1.9,2.2,2.7c0.7,0.6,1.1,0.9,1.3,0.9c0.4,0,0.7-0.6,1.7-2.8c0.1-0.1,0.3-0.1,0.3,0.1
						c-0.2,2.4-0.2,2.9-0.2,3.2c0,0.5,0,0.5,0.4,1c0.2,0.3,0.3,0.5,0.3,0.9c0,0.7-0.4,1.1-1.1,1.1c-0.9,0-2-0.6-3.1-1.5
						c-1.3-1.1-2.4-2.3-3.3-3.7c-2.1,2.2-4.7,3.8-7.9,4.9c-0.1,0.1-0.3-0.2-0.2-0.3c2.9-1.8,5.3-4,7.1-6.4
						c-1.3-2.8-1.9-5.7-2.2-10.7h-8c0,1.7,0,2.9-0.1,4.4h3.8c0.9-1.1,1.1-1.2,1.3-1.2c0.3,0,0.5,0.2,1.5,1c0.4,0.4,0.6,0.6,0.6,0.8
						c0,0.2-0.1,0.3-0.9,0.8c-0.3,4.1-0.4,5.3-0.8,6.6c-0.2,0.7-0.6,1.1-1.1,1.5c-0.5,0.3-1.1,0.4-1.9,0.4c-0.3,0-0.4-0.1-0.5-0.7
						c-0.3-1-0.4-1.1-2.1-1.7c-0.1-0.1,0-0.3,0.1-0.3c1.4,0.2,1.8,0.3,2.2,0.3c1,0,1.2-0.2,1.5-1.6c0.2-1,0.3-2.4,0.4-5.2h-4
						c-0.1,2.9-0.4,5.2-0.9,7c-0.7,2.3-1.8,3.9-3.6,5.6c-0.1,0.1-0.3-0.1-0.3-0.2c0.9-1.9,1.6-3.7,1.9-6c0.4-2.2,0.5-4.8,0.5-8.2
						c0-2-0.1-3.5-0.2-5.3c1.4,0.7,1.6,0.8,3,1.5H1004.8z M1011,242.2c-0.3,0-0.4-0.1-0.7-0.5c-0.6-1.2-1.3-2.1-2.2-2.7
						c-0.1-0.1-0.1-0.3,0.1-0.3c2.7,0.2,3.9,1,3.9,2.2C1012.1,241.7,1011.7,242.2,1011,242.2z"/>
				</g>
			</g>
		</g>
	</g>
	<g>
		<g>
			<path class="st2" d="M840.3,121.2l63.6-0.2l-15.4,35.6c-1,2.3-2.2,5.1-3.4,8.4c-1.2,3.3-2.4,6.8-3.7,10.6
				c-1.3,3.8-2.5,7.5-3.7,11.2c-1.2,3.7-2.3,7.1-3.3,10.3c-1,3.2-1.8,5.8-2.3,8h-20.4c1.4-2.4,3.2-5.3,5.2-8.7c2-3.4,4.1-7,6.2-10.9
				c2.2-3.8,4.3-7.7,6.4-11.5c2.1-3.8,4-7.3,5.7-10.6s3-5.9,4.1-8.1l6.2-13.3h-38.4c-2.4,0-4.3,0.6-5.6,1.8c-1.4,1.2-2.5,3-3.4,5.4
				H837L840.3,121.2z"/>
		</g>
	</g>
	<g>
		<g>
			<g>
				<g>
					<path class="st1" d="M827.2,58.1c-0.6,0-1.4-0.1-2.1-0.1c-0.8,0-1.5,0-2.2,0.1l-0.7,1.9c-0.4,1.1-0.4,1.6-0.2,2
						c0.2,0.4,0.8,0.5,1.4,0.6c0.1,0,0.2,0,0.2,0.2s-0.1,0.2-0.2,0.2c-0.7,0-1.6,0-2.2,0c-0.6,0-1.3,0-1.9,0c-0.2,0-0.2,0-0.2-0.2
						s0-0.2,0.2-0.2c0.5-0.1,0.8-0.3,1.1-0.6c0.4-0.4,0.7-1,1.1-2.1l2.2-5.8c0.8-2.3,1-2.8,1.3-3.8l1.4-0.6c0.1,0,0.2,0,0.2,0.2
						c0.4,1.1,0.7,2,1.5,4.4l2,5.9c0.4,1.1,0.6,1.7,0.9,2.1c0.3,0.4,0.5,0.4,1.2,0.5c0.2,0,0.2,0,0.2,0.2s0,0.2-0.2,0.2
						c-0.8,0-1.8,0-2.6,0c-0.7,0-1.8,0-2.5,0c-0.1,0-0.1,0-0.1-0.2s0-0.2,0.1-0.2c0.7,0,1.1-0.1,1.2-0.5c0.1-0.4,0-0.9-0.3-1.9
						L827.2,58.1z M825.8,54.2c-0.4-1.2-0.6-1.7-0.8-2.4c-0.3,0.7-0.4,1.2-0.8,2.3l-1.2,3.2c0.6,0,1.3,0,2,0c0.6,0,1.3,0,1.8,0
						L825.8,54.2z"/>
					<path class="st1" d="M842.7,52.3c0-0.7,0-1.2-0.1-1.5c-0.1-0.3-0.3-0.4-0.6-0.4l-0.4,0c-0.2,0-0.3,0-0.3-0.2
						c0-0.2,0-0.2,0.2-0.3c0.8-0.2,2.2-0.5,3-0.8c0.1,0,0.2,0.1,0.2,0.2c-0.1,1.2-0.1,2.6-0.1,4.4v6.8c0,1.1,0,1.5,0.1,1.9
						c0.1,0.3,0.3,0.3,0.6,0.3l0.4,0c0.1,0,0.2,0,0.2,0.2c0,0.2,0,0.2-0.2,0.2c-0.7,0-2,0.2-2.8,0.3c-0.1,0-0.2-0.1-0.2-0.2
						c0-0.4,0-0.8,0-1.2c-0.6,1-1.5,1.4-2.4,1.4c-2.5,0-3.9-1.8-3.9-4.3c0-2.6,1.6-4.5,4.1-4.5c0.9,0,1.6,0.4,2.1,0.9V52.3z
						 M842.7,57.8c0-0.6,0-1-0.3-1.6c-0.3-0.6-0.9-1-1.5-1c-1.4,0-2.2,1.5-2.2,3.8s0.9,3.5,2.2,3.5c0.6,0,1.1-0.3,1.5-1
						c0.3-0.5,0.4-0.8,0.4-1.5V57.8z"/>
					<path class="st1" d="M854.1,59.9c0.2,0.6,0.3,0.9,0.5,1.5c0.2-0.6,0.4-0.9,0.6-1.6l0.8-2.4c0.3-0.9,0.4-1.5,0.2-1.8
						c-0.1-0.2-0.5-0.3-0.9-0.4c-0.1,0-0.1,0-0.1-0.2c0-0.2,0-0.2,0.1-0.2c0.5,0,1.2,0.1,1.7,0.1c0.5,0,1,0,1.5-0.1
						c0.1,0,0.2,0,0.2,0.2c0,0.2,0,0.2-0.2,0.2c-0.3,0-0.7,0.2-0.9,0.4c-0.3,0.3-0.6,0.9-0.9,1.7l-1.2,3.3c-0.3,0.9-0.5,1.3-0.8,2.1
						c-0.9,0.4-1,0.4-1.1,0.4c-0.1,0-0.1,0-0.2-0.1c-0.3-0.8-0.5-1.4-0.8-2.4l-1.3-3.4c-0.4-1-0.6-1.6-0.8-1.9
						c-0.2-0.2-0.4-0.3-1-0.3c-0.1,0-0.1,0-0.1-0.2c0-0.2,0-0.2,0.1-0.2c0.7,0,1.5,0.1,2.1,0.1c0.6,0,1.5,0,2.2-0.1
						c0.1,0,0.1,0,0.1,0.2c0,0.2,0,0.2-0.1,0.2c-0.5,0-0.9,0.1-1,0.3c-0.1,0.3,0.1,0.8,0.5,1.8L854.1,59.9z"/>
					<path class="st1" d="M869.3,61c0,1.2,0.2,1.6,0.6,1.6c0.2,0,0.3,0,0.5-0.1c0.1,0,0.2,0,0.2,0.1c0.1,0.1,0.1,0.2-0.1,0.3
						c-0.3,0.2-0.8,0.4-1.5,0.4c-0.8,0-1.3-0.4-1.5-1c-0.6,0.6-1.3,1.1-2.5,1.1c-1.8,0-2.3-1.1-2.3-1.9c0-0.8,0.2-1.2,0.6-1.6
						c0.5-0.5,1.2-0.6,2.3-1c0.8-0.2,1.1-0.4,1.4-0.6c0.2-0.2,0.4-0.5,0.4-0.7V57c0-1.4-0.3-1.9-1.1-1.9c-0.3,0-0.6,0.1-0.9,0.4
						c-0.3,0.2-0.3,0.6-0.3,1c0,0.5-0.5,0.9-1.4,0.9c-0.6,0-0.7-0.2-0.7-0.6c0-0.8,1.4-2.2,3.6-2.2c2.6,0,2.7,1.3,2.7,2.7L869.3,61z
						 M867.5,58.5c-0.2,0.3-0.4,0.4-1.4,0.8c-1,0.4-1.3,1-1.3,1.9c0,1,0.6,1.5,1.1,1.5c0.9,0,1.6-0.7,1.6-1.6L867.5,58.5z"/>
					<path class="st1" d="M875,55.9c-0.2,0-0.2,0-0.3-0.2c0-0.2,0-0.2,0.2-0.3c0.7-0.1,2-0.5,2.8-0.8c0.1,0,0.2,0.1,0.2,0.1
						c0,0.5,0,1.1,0,1.5c0.6-1.1,1.6-1.7,2.8-1.7c0.5,0,2.6,0.3,2.6,2.6c0,0.7,0,1.6,0,2v1.2c0,1.1,0,1.6,0.1,1.9s0.4,0.3,0.9,0.3
						c0.1,0,0.1,0.1,0.1,0.2s0,0.2-0.1,0.2c-0.7,0-1.4-0.1-2-0.1c-0.6,0-1.4,0-2.1,0.1c-0.1,0-0.1,0-0.1-0.2c0-0.2,0-0.2,0.1-0.2
						c0.5,0,0.8-0.1,0.9-0.3c0.1-0.3,0.1-0.9,0.1-1.9v-2.4c0-0.5,0-1-0.2-1.5c-0.2-0.5-0.6-0.9-1.3-0.9c-0.6,0-1.3,0.5-1.6,1
						c-0.3,0.5-0.4,0.9-0.4,1.4v2.4c0,1.1,0,1.6,0.1,1.9c0.1,0.3,0.4,0.3,1,0.3c0.1,0,0.2,0,0.2,0.2c0,0.2,0,0.2-0.2,0.2
						c-0.6,0-1.3-0.1-1.9-0.1c-0.6,0-1.4,0-2.1,0.1c-0.1,0-0.1,0-0.1-0.2c0-0.2,0-0.2,0.1-0.2c0.5-0.1,0.8-0.1,1-0.3
						c0.1-0.3,0.1-0.9,0.1-1.9v-2.7c0-0.7,0-1.2-0.1-1.5c-0.1-0.3-0.3-0.4-0.6-0.4L875,55.9z"/>
					<path class="st1" d="M895.5,55c0.4,0.1,0.7,0.4,0.7,0.8c0,0.6-0.2,1.2-0.8,1.2c-0.5,0-0.9-0.7-1.1-1.1c-0.2-0.4-0.5-0.8-1-0.8
						c-1.4,0-2.1,1.6-2.1,3.8c0,2.3,1.3,3.5,2.5,3.5c1.1,0,1.6-0.4,2.3-1.3c0.1-0.1,0.2-0.1,0.3,0c0.1,0.1,0.2,0.2,0.1,0.3
						c-0.7,1.3-1.8,1.9-3.3,1.9c-2.4,0-4.1-1.8-4.1-4.3c0-2.5,1.8-4.4,4.1-4.4C894.4,54.6,895.1,54.8,895.5,55z"/>
					<path class="st1" d="M903.1,58.9c0,2.4,1.5,3.6,2.6,3.6c1.2,0,1.8-0.4,2.5-1.3c0.1-0.1,0.1-0.1,0.2-0.1c0.1,0,0.1,0,0.2,0.1
						c0.1,0.1,0.1,0.1,0.1,0.2c0,0,0,0.1-0.1,0.2c-0.8,1.3-1.8,1.8-3.3,1.8c-2.5,0-4.2-1.8-4.2-4.3c0-2.4,1.7-4.4,4.2-4.4
						c2.4,0,3.5,2.1,3.5,3.3c0,0.1,0,0.2-0.1,0.3c-0.1,0.1-0.2,0.1-0.3,0.1c-1.8-0.1-3.6-0.1-5.2,0
						C903.2,58.5,903.1,58.6,903.1,58.9z M906.7,57.6c0.1,0,0.2-0.1,0.2-0.3c-0.1-1-0.5-2.2-1.5-2.2c-1,0-1.7,1-2,2.5
						C904.5,57.7,905.4,57.7,906.7,57.6z"/>
					<path class="st1" d="M918,61.3c1.5,0,1.9-0.1,2.2-0.4c0.4-0.4,0.7-0.8,1-1.4c0.1-0.1,0.1-0.1,0.3-0.1c0.2,0.1,0.2,0.1,0.2,0.2
						c-0.2,0.9-0.7,2.5-1,3.5c-1.2,0-2.2,0-3.5,0c-1.3,0-2.4,0-3.6,0c-0.2,0-0.2,0-0.2-0.3s0-0.3,0.1-0.5c0.9-1.7,1.6-2.7,3.2-4.6
						c1.5-2,2.4-2.9,2.4-4.6c0-1.5-0.5-2.6-1.5-2.6c-0.9,0-1.3,0.5-1.5,1c-0.1,0.3-0.2,0.7-0.2,1.3c0,0.5-0.7,0.8-1.4,0.8
						c-0.5,0-0.9-0.1-0.9-0.7c0-1.2,1.5-3.1,3.9-3.1c2.4,0,3.7,1.4,3.7,3.2c0,2.3-1.7,3.2-3.5,4.9c-2,1.8-2.4,2.4-3,3.3H918z"/>
					<path class="st1" d="M934.6,56.6c0,4.1-1.5,6.8-4,6.8c-2.6,0-4-2.5-4-6.6c0-4.2,1.5-6.8,4-6.8
						C933.1,49.9,934.6,52.5,934.6,56.6z M928.7,56.7c0,3.7,0.4,6.1,1.9,6.1c1.5,0,1.9-2.4,1.9-6.1c0-3.8-0.4-6.2-1.9-6.2
						C929,50.5,928.7,52.9,928.7,56.7z"/>
					<path class="st1" d="M944,61.3c1.5,0,1.9-0.1,2.2-0.4c0.4-0.4,0.7-0.8,1-1.4c0.1-0.1,0.1-0.1,0.3-0.1c0.2,0.1,0.2,0.1,0.2,0.2
						c-0.2,0.9-0.7,2.5-1,3.5c-1.2,0-2.2,0-3.5,0c-1.3,0-2.4,0-3.6,0c-0.2,0-0.2,0-0.2-0.3s0-0.3,0.1-0.5c0.9-1.7,1.6-2.7,3.2-4.6
						c1.5-2,2.4-2.9,2.4-4.6c0-1.5-0.5-2.6-1.5-2.6c-0.9,0-1.3,0.5-1.5,1c-0.1,0.3-0.2,0.7-0.2,1.3c0,0.5-0.7,0.8-1.4,0.8
						c-0.5,0-0.9-0.1-0.9-0.7c0-1.2,1.5-3.1,3.9-3.1c2.4,0,3.7,1.4,3.7,3.2c0,2.3-1.7,3.2-3.5,4.9c-2,1.8-2.4,2.4-3,3.3H944z"/>
					<path class="st1" d="M955.3,52c-1,0-1.3,0.1-1.5,0.4c-0.3,0.3-0.5,0.7-0.6,1.2c-0.1,0.1-0.1,0.2-0.3,0.1
						c-0.2,0-0.2-0.1-0.2-0.2c0.1-0.9,0.4-2.4,0.5-3.3c1.2,0.1,2.4,0.1,3.6,0.1c1.2,0,2.4,0,3.5-0.1c0.1,0,0.1,0,0.1,0.4
						c0,0.3,0,0.3-0.1,0.5c-1.7,3.1-2.7,5.7-3.2,7.8c-0.2,0.9-0.3,1.8-0.3,2.4c0,0.5,0,0.8,0,1.2c0,0.6-0.7,1-1.4,1
						c-0.6,0-1.1-0.2-1.1-0.8c0-1.4,0.5-2.8,1.3-4.6c0.8-1.8,1.9-3.6,3.5-6H955.3z"/>
					<path class="st1" d="M972.3,58c-0.1,4.1-1.8,6-6.6,6.9c-0.1,0-0.2-0.2-0.1-0.3c3.7-1.4,4.9-3,4.9-6.9c0-0.2,0-0.4,0-0.8
						c1.9,0.2,2.4,0.3,2.4,0.6C972.9,57.8,972.7,57.9,972.3,58z M979.2,55.9c0.7-0.8,0.8-0.9,1-0.9c0.2,0,0.3,0.1,1.2,0.9
						c0.4,0.4,0.5,0.5,0.5,0.6c0,0.3-0.1,0.4-0.8,0.4c-0.3,0-0.4,0.1-0.5,0.2c-0.7,0.5-1.1,0.8-1.7,1.1c-0.1,0-0.2-0.1-0.2-0.1
						c0.4-0.6,0.5-1,0.8-1.9h-11.3c0,1.4-0.6,2.4-1.7,2.4c-0.5,0-0.8-0.3-0.8-0.8c0-0.4,0.2-0.7,0.7-1c1-0.5,1.3-1,1.4-2.2
						c0-0.1,0.2-0.1,0.2,0c0.1,0.4,0.2,0.8,0.2,1.1H979.2z M974.4,53.6h3.2c0.8-1,1.1-1.1,1.2-1.1c0.2,0,0.4,0.1,1.2,0.8
						c0.3,0.3,0.5,0.4,0.5,0.6c0,0.1-0.1,0.2-0.2,0.2h-11.3c-0.4,0-0.7,0-1.2,0.1l-0.2-0.7c0.5,0.1,1,0.1,1.4,0.1h3.8v-2.1h-5.4
						c-0.4,0-0.8,0-1.3,0.1l-0.2-0.7c0.6,0.1,1,0.1,1.4,0.1h5.4v-0.8c0-0.6,0-1.2-0.1-1.8c2.3,0.2,2.5,0.4,2.5,0.6
						c0,0.2-0.2,0.3-0.6,0.5V51h4.4c0.9-1,1.1-1.2,1.2-1.2c0.2,0,0.4,0.1,1.2,0.8c0.4,0.3,0.5,0.5,0.5,0.6s-0.1,0.2-0.2,0.2h-7.2
						V53.6z M976.2,62.3c0,0.5,0.2,0.6,1.7,0.6c0.8,0,1.2,0,1.8-0.2c0.5-0.2,0.8-0.8,1.4-2.6c0-0.1,0.2-0.1,0.2,0
						c0,0.6-0.1,1.4-0.1,1.9c0,0.2,0,0.3,0.1,0.3c0.5,0.2,0.6,0.5,0.6,0.8c0,0.5-0.2,0.8-0.8,1c-0.7,0.2-1.7,0.3-3.4,0.3
						c-2.6,0-3.2-0.3-3.2-1.6v-3c0-1,0-2-0.1-3c2.3,0.3,2.3,0.3,2.3,0.6c0,0.2-0.1,0.3-0.5,0.5V62.3z"/>
					<path class="st1" d="M995.7,63.4h4.4c1-1.3,1.3-1.5,1.4-1.5c0.2,0,0.4,0.1,1.4,1c0.5,0.4,0.6,0.6,0.6,0.7s-0.1,0.2-0.2,0.2
						h-13.9c-0.5,0-1.1,0-1.7,0.1l-0.2-0.7c0.8,0.1,1.3,0.1,1.9,0.1h4.5v-12c0-1.1,0-1.9-0.1-2.5c2.4,0.2,2.6,0.4,2.6,0.6
						c0,0.2-0.2,0.4-0.6,0.5v5.4h2.9c1-1.3,1.2-1.4,1.3-1.4c0.2,0,0.4,0.1,1.4,1c0.5,0.4,0.6,0.5,0.6,0.7s-0.1,0.2-0.2,0.2h-6V63.4z
						"/>
					<path class="st1" d="M1013,63.3V64c0,0.5-0.4,0.7-1.1,0.7c-0.5,0-0.8-0.2-0.8-0.6c0-1.8,0.1-3.6,0.1-10.9c0-1.5,0-3-0.1-4.5
						c1.1,0.5,1.2,0.5,2.1,1.2h7.3c0.7-0.8,0.8-0.9,1-0.9c0.2,0,0.3,0.1,1.1,0.7c0.3,0.3,0.4,0.4,0.4,0.5c0,0.2-0.1,0.4-0.6,0.6V53
						c0,5.7,0.1,9.6,0.1,10.9c0,0.5-0.4,0.8-1.1,0.8c-0.6,0-0.8-0.2-0.8-0.6v-0.8H1013z M1020.8,50.3h-7.8V54h7.8V50.3z
						 M1020.8,54.5h-7.8v3.8h7.8V54.5z M1020.8,58.7h-7.8v4.2h7.8V58.7z"/>
					<path class="st1" d="M1033.6,54.7c1.2,0.4,1.9,1.1,1.9,1.9c0,0.5-0.3,0.9-0.8,0.9c-0.3,0-0.4-0.2-0.5-0.7
						c-0.1-0.8-0.3-1.4-0.6-1.8c0,3.2,0.1,7.7,0.1,9.3c0,0.4-0.4,0.6-0.9,0.6c-0.5,0-0.7-0.1-0.7-0.5c0-0.9,0.1-4.8,0.1-8.1
						c-0.7,1.9-1.4,2.9-2.5,4.1c-0.1,0.1-0.2,0-0.2-0.1c1-2,2-5,2.4-7.5h-0.7c-0.3,0-0.7,0-1.1,0.1l-0.2-0.7
						c0.5,0.1,0.9,0.1,1.3,0.1h0.9v-1.9c0-0.9,0-1.6-0.1-2.3c1.9,0.2,2.3,0.3,2.3,0.6c0,0.2-0.2,0.3-0.6,0.5v3h0
						c0.4-0.8,0.6-1,0.7-1c0.2,0,0.3,0.1,0.8,0.7c0.2,0.2,0.3,0.4,0.3,0.5s-0.1,0.2-0.2,0.2h-1.6V54.7z M1038,61.5
						c-1,1-2.1,1.8-3.7,2.5c-0.1,0-0.2-0.1-0.1-0.2c0.7-0.6,1.5-1.6,2.1-2.6c0.2-0.4,0.4-0.8,0.6-1.2c1.6,0.8,1.9,1,1.9,1.2
						S1038.5,61.5,1038,61.5z M1041.4,60.8c0,0.4,0.1,1.9,0.1,2.7c0,0.4-0.1,0.8-0.4,1c-0.3,0.3-0.9,0.5-1.6,0.5
						c-0.2,0-0.2-0.1-0.3-0.4c-0.1-0.6-0.5-1-1.9-1.3c-0.1,0-0.1-0.2,0-0.2c0.7,0,1.5,0.1,2.1,0.1c0.2,0,0.3,0,0.3-0.3v-3.4h-3.6
						c-0.3,0-0.7,0-1.1,0.1l-0.2-0.7c0.5,0.1,0.9,0.1,1.3,0.1h7.5c0.8-1,1-1.1,1.2-1.1c0.2,0,0.4,0.1,1.2,0.8
						c0.4,0.3,0.5,0.5,0.5,0.6s-0.1,0.2-0.2,0.2h-4.9V60.8z M1037.3,55.4c0,0.4-0.3,0.6-0.9,0.6c-0.4,0-0.6-0.1-0.6-0.5
						c0-0.3,0.1-0.8,0.1-2.1c0-0.8,0-1.6-0.1-2.4c0.8,0.3,0.9,0.4,1.7,0.8h1.2v-1.9h-1.8c-0.4,0-0.9,0-1.4,0.1l-0.2-0.7
						c0.7,0.1,1.2,0.1,1.7,0.1h7.1c0.8-1,1-1.2,1.2-1.2c0.2,0,0.4,0.1,1.2,0.8c0.4,0.3,0.5,0.5,0.5,0.6s-0.1,0.2-0.2,0.2h-3.7v1.9
						h1.3c0.5-0.6,0.6-0.7,0.8-0.7c0.2,0,0.3,0.1,1,0.6c0.3,0.2,0.4,0.4,0.4,0.5c0,0.1-0.1,0.3-0.5,0.5v0.4c0,1.2,0.1,1.9,0.1,2.1
						c0,0.4-0.3,0.6-0.9,0.6c-0.4,0-0.6-0.2-0.6-0.5v-0.1h-6.9V55.4z M1042.3,56.9c0.7-0.9,0.9-1,1.1-1c0.2,0,0.4,0.1,1.1,0.7
						c0.3,0.3,0.5,0.4,0.5,0.5s-0.1,0.2-0.2,0.2h-7.1c-0.3,0-0.6,0-1,0.1l-0.2-0.7c0.5,0.1,0.8,0.1,1.2,0.1H1042.3z M1038.5,52.2
						h-1.3v2.6h1.3V52.2z M1041.3,49.9h-1.4v1.9h1.4V49.9z M1041.3,54.9v-2.6h-1.4v2.6H1041.3z M1045.1,63.9c-0.5,0-0.7-0.2-0.9-0.8
						c-0.5-1.2-1-1.9-2-2.8c-0.1-0.1,0.1-0.2,0.1-0.1c2.3,0.7,3.7,1.6,3.7,2.8C1046,63.5,1045.7,63.9,1045.1,63.9z M1044.1,52.2
						h-1.4v2.6h1.4V52.2z"/>
				</g>
			</g>
		</g>
	</g>
	<g>
		<g>
			<g>
				<g>
					<path class="st1" d="M583.7,247c-0.7,1-1.5,1.9-2.3,2.7c-0.1,0.1-0.3-0.2-0.3-0.3c1.6-2.9,2.9-6,3.6-8.9
						c0.3-1.4,0.6-2.7,0.7-3.9c3.1,0.8,3.4,0.9,3.4,1.3c0,0.3-0.1,0.4-1,0.7c-0.6,2.1-1.6,4.3-2.7,6.3c1.5,0.2,1.7,0.3,1.7,0.6
						c0,0.2-0.2,0.4-0.7,0.6v13.4c0,0.8-0.4,1.1-1.4,1.1c-0.8,0-1.1-0.3-1.1-1c0-0.7,0.2-2.7,0.2-6.8V247z M590,256.4
						c0,1.7-0.7,3-2,3c-0.7,0-1.2-0.5-1.2-1.2c0-0.6,0.3-1,1-1.3c1.1-0.5,1.7-1.2,1.7-2.1c0-0.1,0.3-0.2,0.3,0
						C589.9,255.3,590,255.8,590,256.4z M591.4,240.3c1.9,0.6,2.8,1.4,2.8,2.5c0,0.5-0.4,1-1,1.1h4.2c0.2-0.6,0.4-1.2,0.5-1.8
						c0.1-0.6,0.3-1.1,0.3-1.7c2.2,0.7,2.9,0.9,2.9,1.2c0,0.2-0.2,0.3-0.8,0.5c-1,1.1-1.4,1.4-2.1,1.8h3.6c1.1-1.4,1.4-1.6,1.6-1.6
						c0.2,0,0.5,0.2,1.6,1.1c0.5,0.4,0.7,0.6,0.7,0.8c0,0.2-0.1,0.3-0.3,0.3h-16.2c-0.6,0-1.1,0.1-1.9,0.2l-0.3-1
						c0.8,0.2,1.5,0.2,2.1,0.2h3.5c-0.4-0.1-0.6-0.3-0.7-0.8c-0.3-1.4-0.5-2-1.2-2.8h-0.2c-0.6,0-1.1,0.1-1.9,0.2l-0.3-1
						c0.8,0.2,1.5,0.2,2.1,0.2h4.2v-1.6c0-0.5-0.1-1-0.1-1.6c3,0.3,3.3,0.5,3.3,0.8c0,0.2-0.3,0.4-0.8,0.7v1.7h3.8
						c1.1-1.3,1.4-1.5,1.6-1.5c0.2,0,0.5,0.2,1.6,1.1c0.5,0.4,0.7,0.6,0.7,0.8c0,0.2-0.1,0.3-0.3,0.3H591.4z M591.4,252.6
						c-0.1,0.5-0.5,0.7-1.3,0.7c-0.7,0-1.1-0.3-1.1-0.9c0-0.4,0.1-0.9,0.1-2.6c0-1.5,0-3-0.2-4.6c1.3,0.5,1.5,0.6,2.7,1.2h8.1
						c0.9-1,1.1-1.1,1.3-1.1c0.3,0,0.5,0.2,1.4,0.8c0.4,0.3,0.6,0.5,0.6,0.7c0,0.2-0.2,0.4-0.7,0.8v0.8c0,2.1,0.1,3.5,0.1,4
						c0,0.7-0.5,1-1.5,1c-0.6,0-0.9-0.2-0.9-0.8v0H591.4z M600,247h-8.6v2.2h8.6V247z M600,249.8h-8.6v2.2h8.6V249.8z M600.2,257.2
						c0,0.3,0.1,0.5,0.3,0.5c0.6,0.2,0.8,0.4,0.8,0.9c0,0.5-0.4,0.9-1.2,1.2c-0.9,0.3-2.2,0.4-4.2,0.4c-3.3,0-4.4-0.4-4.4-1.8
						c0-0.5,0.1-1.1,0.1-3.4c0-0.4,0-0.8-0.1-1.1c2.7,0.3,2.9,0.3,2.9,0.7c0,0.3-0.2,0.4-0.7,0.6v2.3c0,0.7,0.4,0.9,2.5,0.9
						c1.1,0,1.8,0,2.3-0.2c0.7-0.3,1-0.9,1.5-2.7c0.1-0.1,0.3-0.1,0.3,0V257.2z M596.9,256.9c-0.6,0-0.7-0.1-1.1-1.4
						c-0.2-0.7-0.4-1.1-1.1-1.9c-0.1-0.1,0-0.2,0.1-0.2c2.2,0.4,3.2,1.1,3.2,2.2C598.1,256.4,597.6,256.9,596.9,256.9z M604,259.1
						c-0.7,0-0.9-0.3-1.2-1.6c-0.2-1.1-0.8-2.2-1.4-2.8c-0.1-0.1,0-0.3,0.1-0.2c2.6,0.8,3.7,1.7,3.7,3.1
						C605.2,258.5,604.7,259.1,604,259.1z"/>
					<path class="st1" d="M617.2,259.3c0,0.7-0.6,1-1.6,1c-0.8,0-1.1-0.2-1.1-0.9c0-2.3,0.2-4.7,0.2-14.1c0-2.7,0-5.4-0.2-8.1
						c1.4,0.7,1.6,0.8,2.9,1.4h14.7c1-1.1,1.2-1.2,1.4-1.2c0.3,0,0.5,0.2,1.5,1c0.4,0.4,0.6,0.6,0.6,0.8c0,0.2-0.2,0.4-0.7,0.8v2.9
						c0,12.7,0.1,13.2,0.1,14.7c0,1.3-0.3,1.9-1.2,2.3c-0.4,0.2-1.3,0.4-1.7,0.4c-0.4,0-0.5-0.2-0.6-0.7c-0.1-0.9-0.6-1.5-3.1-2.1
						c-0.1,0-0.1-0.3,0-0.3c1.4,0.1,2.7,0.1,3.5,0.1c0.4,0,0.4-0.1,0.4-0.5v-8.5h-15.1V259.3z M623.3,247.6v-8.4h-6.1v8.4H623.3z
						 M632.3,239.2h-6.4v8.4h6.4V239.2z"/>
				</g>
			</g>
		</g>
	</g>
	<g>
		<g>
			<g>
				<g>
					<path class="st1" d="M685.4,262.9c-0.1,0.1-0.3-0.2-0.2-0.3c7.1-5,9.8-10.6,9.8-20.1c0-0.8,0-1.2-0.1-2.2
						c3.4,0.3,3.8,0.4,3.8,0.9c0,0.3-0.1,0.4-0.9,0.7c0,0.8-0.1,1.6-0.1,2.4c0.4,3.4,1.4,6.4,3,8.9c2,3.1,4.8,5.4,8.5,6.8
						c0.1,0.1,0.1,0.3,0,0.3c-0.9,0.3-1.4,0.8-1.7,1.9c-0.2,0.4-0.3,0.5-0.5,0.5s-0.7-0.3-1.4-0.8c-2.8-2.2-5.1-5-6.4-8.4
						c-0.8-2-1.3-4.3-1.6-7C696.5,255,693.1,259.4,685.4,262.9z"/>
				</g>
			</g>
		</g>
	</g>
	<g>
		<g>
			<path class="st2" d="M533.4,178.2c6.4,0,11.9,0.8,16.4,2.5c4.5,1.6,8,4,10.4,7c2.4,3,3.7,6.8,3.7,11.2c0,3.4-0.7,6.2-2,8.6
				c-1.3,2.4-3.1,4.3-5.2,5.8c-2.2,1.4-4.5,2.4-7,2.8c-2.5,0.4-4.9,0.3-7.3-0.3c2.4,0,5,0.4,7.9,1.1c2.8,0.8,5.6,2,8.2,3.8
				c2.6,1.8,4.7,4.2,6.4,7.3c1.7,3.1,2.5,6.9,2.5,11.6c0,5.6-1.3,10.5-3.9,14.8c-2.6,4.3-6.1,7.8-10.5,10.6
				c-4.4,2.8-9.3,4.7-14.8,5.9c-5.5,1.2-11.1,1.5-16.9,1c-5.8-0.5-11.3-2-16.6-4.4l0.2-1.2c5,0.1,9.6-0.5,14-1.8
				c4.4-1.3,8.3-3.2,11.7-5.7c3.4-2.5,6.1-5.6,8-9.1c2-3.6,2.9-7.5,2.9-11.9c0-4.9-1.1-8.8-3.4-11.7c-2.3-2.9-5.1-5.1-8.5-6.4
				c-3.4-1.4-6.8-2-10.3-2l0.2-1.2c3.7,0.1,7.1-0.8,10.2-2.6c3.1-1.8,5.6-4.3,7.3-7.4c1.8-3.2,2.4-6.7,2-10.5
				c-0.2-3-1.1-5.3-2.5-7.1c-1.4-1.8-3.2-3.1-5.3-3.8c-2.1-0.7-4.4-1-6.8-0.7c-4.8,0.4-8.2,2.5-10.2,6.3c-2,3.8-2.9,9.5-2.8,17h-1.2
				l-6.8-20.8c3-2.6,7.2-4.6,12.4-6.2C521.1,179,526.9,178.2,533.4,178.2z"/>
		</g>
	</g>
	<g>
		<g>
			<g>
				<g>
					<path class="st1" d="M484.9,57.2c-0.6,0.5-1.4,1-2.1,1.4c-0.1,0-0.2-0.1-0.1-0.2c1.2-1.2,2.2-2.6,3-3.9
						c0.4-0.7,0.7-1.5,0.9-2.1c1.8,0.9,1.9,0.9,1.9,1.2c0,0.2-0.1,0.3-0.7,0.4c-0.4,0.7-1,1.4-1.6,2c0.6,0.1,0.8,0.2,0.8,0.4
						c0,0.2-0.1,0.3-0.5,0.4v7.5c0,0.5-0.3,0.8-0.9,0.8c-0.4,0-0.8-0.1-0.8-0.6c0-0.5,0.1-1.9,0.1-4.8V57.2z M487.5,49.9
						c-1.5,1.9-2.7,2.9-4.5,3.8c-0.1,0-0.2-0.1-0.1-0.2c0.9-0.9,1.8-2.1,2.4-3.2c0.4-0.7,0.7-1.3,0.8-1.9c1.4,0.5,2.2,0.9,2.2,1.2
						C488.3,49.8,488.1,49.8,487.5,49.9z M494.2,62.7c0.6,0.1,1.4,0.2,2.2,0.2c0.9,0,1.7,0,3.2-0.2c0.1,0,0.1,0.2,0,0.2
						c-0.5,0.3-0.7,0.6-0.8,1.2c-0.1,0.4-0.1,0.5-0.3,0.5c-0.2,0-0.3,0-0.5,0c-2.6,0-4-0.3-5.4-1.1c-1.2-0.7-1.8-1.5-2.6-3.3
						c-0.6,1.8-1.7,3.1-3.2,4.3c-0.1,0.1-0.2-0.1-0.1-0.2c1.6-2,2.4-4.8,2.4-7.9c0-0.2,0-0.5,0-0.9c1.8,0.3,2.2,0.4,2.2,0.6
						c0,0.2-0.1,0.3-0.5,0.4c-0.1,1.2-0.3,2.2-0.6,3c0.8,1.4,1.5,2.1,2.4,2.5v-8.8h-2.8c-0.3,0-0.6,0-1.1,0.1l-0.2-0.7
						c0.5,0.1,0.8,0.1,1.2,0.1h4c0.5-1,0.9-2.1,1.2-3.2c0.1-0.4,0.2-0.8,0.3-1.3c1.7,0.6,2.3,0.9,2.3,1.1s-0.2,0.3-0.7,0.3
						c-0.8,1.2-1.7,2.3-2.5,3h2.2c0.8-1,1-1.1,1.1-1.1c0.2,0,0.4,0.1,1.1,0.8c0.3,0.3,0.5,0.5,0.5,0.6s-0.1,0.2-0.2,0.2h-4.9v4h1.7
						c0.8-1,1-1.1,1.1-1.1c0.2,0,0.3,0.1,1.1,0.8c0.3,0.3,0.5,0.4,0.5,0.6s-0.1,0.2-0.2,0.2h-4.1V62.7z M491.5,52.4
						c-0.5,0-0.6-0.1-0.8-1.4c-0.2-0.8-0.5-1.5-0.9-2.1c-0.1-0.1,0.1-0.2,0.1-0.2c1.7,0.7,2.6,1.5,2.6,2.4
						C492.5,51.9,492.1,52.4,491.5,52.4z"/>
					<path class="st1" d="M513.6,59.6c0.8,0.7,1.8,1.3,2.9,1.8c1.4,0.6,3,0.9,4.7,1c0.1,0,0.1,0.2,0,0.2c-0.7,0.3-0.8,0.4-1.3,1.5
						c-0.1,0.1-0.2,0.2-0.3,0.2c-0.1,0-0.5-0.1-0.8-0.3c-1.1-0.4-2.2-1-3.2-1.7c-0.8-0.6-1.6-1.4-2.3-2.4c0.1,2.3,0.1,4,0.1,4.5
						s-0.3,0.7-1.1,0.7c-0.5,0-0.7-0.2-0.7-0.6c0-0.4,0.1-2.2,0.1-3.8c-1.5,1.7-4,3-7.1,3.7c-0.1,0-0.2-0.1-0.1-0.2
						c2.7-1.3,4.6-2.7,6-4.6h-4.2c-0.4,0-0.8,0-1.3,0.1l-0.2-0.7c0.6,0.1,1,0.1,1.4,0.1h5.5v-1.7h-3.5c-0.4,0-0.8,0-1.3,0.1
						l-0.2-0.7c0.6,0.1,1,0.1,1.4,0.1h3.6v-1.6h-4.5c-0.4,0-0.8,0-1.3,0.1l-0.2-0.7c0.6,0.1,1,0.1,1.4,0.1h3
						c-0.2-0.1-0.4-0.3-0.5-0.8c-0.1-0.6-0.5-1.2-0.9-1.5c-0.1-0.1,0-0.2,0.1-0.1c1.6,0.3,2.4,0.8,2.4,1.6c0,0.4-0.3,0.8-0.6,0.9
						h2.9c0.3-0.6,0.6-1.1,0.8-1.5c0.2-0.4,0.3-0.8,0.4-1.1c1.5,0.6,2.1,0.8,2.1,1.1s-0.1,0.3-0.8,0.3c-0.7,0.6-1.3,1-1.8,1.3h3
						c0.8-0.9,1.1-1.1,1.2-1.1c0.2,0,0.4,0.1,1.2,0.8c0.3,0.3,0.5,0.4,0.5,0.6s-0.1,0.2-0.2,0.2h-6.4v1.6h2.8c0.8-0.9,1-1,1.1-1
						c0.2,0,0.4,0.1,1,0.7c0.3,0.3,0.5,0.4,0.5,0.5s-0.1,0.2-0.2,0.2h-5.2v1.7h4.5c0.9-1,1.1-1.2,1.3-1.2c0.2,0,0.3,0.1,1.2,0.8
						c0.4,0.3,0.5,0.5,0.5,0.6c0,0.1-0.1,0.2-0.2,0.2H513.6z M510.2,49.7c0-0.8,0-0.9-0.1-1.3c2,0.2,2.2,0.3,2.2,0.6
						c0,0.1-0.1,0.3-0.6,0.5V52h1.5v-2.2c0-0.8,0-0.9-0.1-1.3c2.1,0.2,2.3,0.3,2.3,0.6c0,0.1-0.1,0.3-0.6,0.5V52h0.7
						c0.4-0.7,0.8-1.4,1-2c0.2-0.4,0.3-0.8,0.4-1.2c1.6,0.7,2.1,1,2.1,1.2c0,0.3-0.1,0.3-0.8,0.3c-0.7,0.7-1.6,1.4-2.2,1.7h2.1
						c0.8-0.9,1-1,1.2-1c0.2,0,0.4,0.1,1.1,0.7c0.3,0.3,0.5,0.4,0.5,0.6s-0.1,0.2-0.2,0.2h-14.5c-0.4,0-0.8,0-1.3,0.1l-0.2-0.7
						c0.6,0.1,1,0.1,1.5,0.1h4V49.7z M508.3,51.6c-0.4,0-0.6-0.2-0.8-0.7c-0.2-0.8-0.5-1.3-1-1.8c-0.1-0.1,0-0.2,0.1-0.2
						c1.7,0.3,2.6,0.9,2.6,1.7C509.2,51.2,508.8,51.6,508.3,51.6z"/>
					<path class="st1" d="M532.6,63.2c-1.8,0.9-3.4,1.3-5.9,1.6c-0.1,0-0.1-0.2-0.1-0.2c1.3-0.5,2.6-1.2,3.6-1.8
						c0.5-0.4,1-0.8,1.2-1.1c1.6,0.8,2.1,1.1,2.1,1.3S533.3,63.3,532.6,63.2z M530.3,61.3c0,0.5-0.3,0.7-1,0.7
						c-0.6,0-0.8-0.2-0.8-0.6c0-0.7,0.1-1.7,0.1-4.6c0-1.1,0-2.4-0.1-3.6c1,0.4,1,0.5,2,1h8.1c0.6-0.7,0.8-0.8,0.9-0.8
						c0.2,0,0.3,0.1,1,0.6c0.3,0.3,0.4,0.4,0.4,0.5c0,0.2-0.1,0.3-0.5,0.6v1.1c0,2.5,0.1,4.4,0.1,5c0,0.5-0.3,0.7-1,0.7
						c-0.6,0-0.8-0.2-0.8-0.6v-0.1L530.3,61.3L530.3,61.3z M531.1,52.7c0,0.5-0.3,0.7-1,0.7c-0.4,0-0.7-0.1-0.7-0.5
						c0-0.4,0-1.1,0-2.2c0-0.8,0-1.1-0.1-1.9c1,0.4,1.1,0.5,1.9,0.9h6.5c0.6-0.7,0.8-0.8,0.9-0.8c0.2,0,0.3,0.1,1,0.6
						c0.3,0.3,0.4,0.4,0.4,0.5c0,0.2-0.1,0.2-0.5,0.5v0.3c0,0.9,0.1,1.5,0.1,1.8c0,0.5-0.3,0.7-1,0.7c-0.5,0-0.8-0.2-0.8-0.6H531.1z
						 M538.8,54.6h-8.5v1.8h8.5V54.6z M530.3,58.6h8.5v-1.8h-8.5V58.6z M530.3,60.8h8.5V59h-8.5V60.8z M538,50.1h-6.8v2.2h6.8V50.1z
						 M540.7,64.9c-0.4,0-0.5-0.1-1-0.6c-0.9-0.9-2.1-1.7-3.8-2.2c-0.1,0,0-0.2,0.1-0.2c4,0.2,5.6,0.8,5.6,2.1
						C541.5,64.6,541.2,64.9,540.7,64.9z"/>
					<path class="st1" d="M560.9,56.3c1-1.3,1.3-1.4,1.4-1.4c0.2,0,0.4,0.1,1.4,1c0.5,0.4,0.6,0.6,0.6,0.7c0,0.1-0.1,0.2-0.2,0.2
						H550c-0.5,0-1,0-1.7,0.1l-0.2-0.7c0.8,0.1,1.3,0.1,1.9,0.1H560.9z"/>
					<path class="st1" d="M569.7,64.7c-0.1,0-0.2-0.1-0.1-0.2c4.9-3.5,6.8-7.3,6.8-13.9c0-0.6,0-0.8-0.1-1.5
						c2.4,0.2,2.6,0.3,2.6,0.6c0,0.2-0.1,0.3-0.6,0.5c0,0.6,0,1.1-0.1,1.7c0.3,2.4,1,4.4,2.1,6.2c1.4,2.1,3.3,3.7,5.9,4.7
						c0.1,0,0.1,0.2,0,0.2c-0.6,0.2-0.9,0.5-1.2,1.3c-0.1,0.3-0.2,0.4-0.3,0.4s-0.5-0.2-0.9-0.5c-1.9-1.5-3.5-3.5-4.5-5.8
						c-0.6-1.4-0.9-3-1.1-4.8C577.4,59.2,575,62.2,569.7,64.7z"/>
					<path class="st1" d="M603.7,56c0.6-0.7,0.8-0.8,0.9-0.8c0.2,0,0.3,0.1,1,0.6c0.3,0.2,0.4,0.4,0.4,0.5c0,0.1-0.1,0.2-0.5,0.5V58
						c0,3.2,0.1,5.4,0.1,6.1c0,0.5-0.3,0.7-1.1,0.7c-0.5,0-0.7-0.2-0.7-0.6v-0.5h-10.1c-0.4,0-0.7,0-1.2,0.1l-0.2-0.7
						c0.5,0.1,1,0.1,1.4,0.1h10.2v-3.5h-9.4c-0.4,0-0.7,0-1.2,0.1l-0.2-0.7c0.5,0.1,1,0.1,1.4,0.1h9.5v-3.1H594
						c-0.4,0-0.8,0-1.3,0.2l-0.2-0.7c0.6,0.1,1,0.1,1.5,0.1h4.2v-5.7c0-0.6,0-1.1-0.1-1.7c2.2,0.2,2.4,0.4,2.4,0.6s-0.2,0.3-0.6,0.5
						V56H603.7z M595.4,54.7c-0.5,0-0.7-0.3-0.9-1.1c-0.3-1.5-0.8-2.5-1.5-3.4c-0.1-0.1,0-0.2,0.1-0.2c2.2,0.9,3.3,2.2,3.3,3.4
						C596.4,54.2,596,54.7,595.4,54.7z M605.3,51.4c-1.2,1.7-2.4,3-3.6,3.9c-0.1,0.1-0.3-0.1-0.2-0.2c0.7-1.1,1.3-2.5,1.8-3.8
						c0.2-0.6,0.4-1.1,0.5-1.6c1.7,0.7,2.2,1,2.2,1.2S605.9,51.3,605.3,51.4z"/>
					<path class="st1" d="M620.8,51.9c0.3,0,0.5,0,0.8,0.2c0.2,0.1,0.4,0.3,0.4,0.5c0,0.3-0.2,0.5-0.6,0.6c-0.8,0.3-2.1,0.7-3,0.9
						c-0.3,0.8-0.9,2.4-1.3,3.5c-0.4,1.2-1.1,2.8-2,5.2c-0.3,0.7-0.6,0.9-1,0.9c-0.2,0-0.4-0.1-0.5-0.3c-0.1-0.1-0.2-0.3-0.2-0.6
						c0-0.3,0.2-0.7,0.5-1.3c1.3-2.5,2.3-4.8,3.2-7.2c-1,0.2-1.5,0.3-2,0.3c-0.8,0-1.2-0.1-1.7-0.7c-0.3-0.3-0.5-0.8-0.5-0.9
						c0-0.1,0-0.2,0.1-0.2c0.1,0,0.2,0.1,0.3,0.2c0.5,0.3,0.8,0.5,1.5,0.5c0.9,0,1.8-0.2,2.8-0.4c0.4-1.3,0.6-2.1,0.6-2.4
						c0-0.3-0.1-0.5-0.4-0.6c-0.2-0.1-0.4-0.1-0.7-0.2c-0.1,0-0.2-0.1-0.2-0.1c0-0.1,0.1-0.2,0.3-0.3c0.2-0.1,0.5-0.2,0.8-0.2
						c0.5,0,1.3,0.3,1.9,0.7c0.2,0.1,0.3,0.3,0.3,0.5c0,0.2-0.1,0.4-0.3,0.5c-0.3,0.3-0.5,0.7-0.9,1.8c0.5-0.1,0.8-0.3,1.1-0.5
						C620.3,52,620.6,51.9,620.8,51.9z M620.4,59.4c-0.1,0.4-0.2,0.8-0.2,1.1c0,1,0.8,1.7,2.7,1.7c1,0,1.5-0.1,1.8-0.1
						c0.3-0.1,0.5-0.1,0.9-0.1c0.3,0,0.7,0.1,0.9,0.2c0.3,0.1,0.5,0.4,0.5,0.8c0,0.5-0.4,0.7-1,0.8c-0.5,0.1-1.4,0.1-2,0.1
						c-0.7,0-1.5-0.1-2.4-0.3c-1.4-0.4-2.2-1.4-2.2-2.6c0-0.8,0.2-1.3,0.5-1.7c0.1-0.2,0.2-0.3,0.3-0.3s0.1,0.1,0.1,0.1
						S620.5,59.3,620.4,59.4z M622.4,55.6c-0.5,0.1-1.2,0.3-2.1,0.7c-0.1,0-0.1,0.1-0.2,0.1c-0.1,0-0.2-0.1-0.2-0.2
						c0-0.1,0.1-0.1,0.1-0.2c0.5-0.4,1-0.8,1.7-1.1c0.6-0.3,1.5-0.4,2.3-0.4c0.8,0,1.6,0.2,2,0.4c0.4,0.2,0.6,0.5,0.6,0.9
						c0,0.3-0.3,0.5-0.6,0.5c-0.2,0-0.5,0-0.7-0.1c-0.2,0-0.5-0.1-0.7-0.1c-0.5,0-1.2,0.3-2.5,1c-0.1,0.1-0.2,0.1-0.3,0.1
						c-0.1,0-0.1-0.1-0.1-0.1c0-0.1,0.9-0.8,1.7-1.5C623.2,55.6,622.8,55.6,622.4,55.6z"/>
					<path class="st1" d="M637,53.9c0.3-0.9,0.7-1.5,1-2c0.4-0.5,0.9-0.8,1.5-0.8c0.7,0,1.5,0.4,2,1.3c0.6,1,0.9,2.4,0.9,3.7
						c0,2-0.4,3.5-1.2,4.8c-0.7,1.1-1.3,1.6-2.3,2.2c-1,0.6-2,1-3.1,1.3c-0.3,0.1-0.4,0.1-0.5,0.1c-0.1,0-0.2,0-0.2-0.2
						c0-0.1,0.1-0.1,0.3-0.2c2-0.8,3.4-1.9,4.3-3.3c0.8-1.3,1.1-2.6,1.1-4.9c0-1.3-0.1-2.3-0.4-3c-0.3-0.8-0.6-1-1.1-1
						c-0.8,0-1.5,0.7-2.3,4.3c-0.2,0.8-0.3,1.3-0.3,1.9c0,0.6,0.1,0.9,0.1,1.2c0,0.5-0.2,0.7-0.6,0.7c-0.5,0-1-0.6-1.2-1.3
						c-0.2-0.8-0.3-1.4-0.3-2.4c0-1.2,0.2-2.5,0.4-3.9c0.1-0.6,0.1-1,0.1-1.5c0-0.4-0.1-0.7-0.5-1.1c-0.1-0.1-0.1-0.1-0.1-0.2
						c0-0.1,0.2-0.2,0.4-0.2c0.1,0,0.3,0.1,0.5,0.2c0.6,0.4,0.9,0.8,1.2,1.4c0.1,0.3,0.2,0.6,0.2,0.8c0,0.3-0.1,0.4-0.2,0.6
						c-0.1,0.1-0.3,0.4-0.3,0.5c-0.4,1.3-0.6,2.2-0.6,3.1c0,0.5,0,0.8,0.1,1c0,0.1,0.2,0.1,0.2,0C636.4,55.4,636.7,54.7,637,53.9z"
						/>
					<path class="st1" d="M657.3,53.3c0,0.4-0.2,1.2-0.4,1.9c-0.2,0.8-0.6,1.7-1.1,2.6c-0.6,1-1.3,2.2-2,3c-0.4,0.4-0.9,0.7-1.5,0.7
						c-0.5,0-1-0.2-1.4-0.7c-0.6-0.7-1-1.6-1-3.3c0-0.9,0.3-1.9,0.8-2.7c0.6-1.1,1.4-1.9,2.4-2.5c1.2-0.8,2.6-1.2,4.4-1.2
						c2,0,3.4,0.5,4.5,1.4c1.3,1.1,2.1,2.5,2.1,4.6c0,1.5-0.7,2.8-1.7,3.7c-0.9,0.8-1.7,1.2-2.7,1.6c-1.2,0.4-2.6,0.6-3.7,0.7
						c-0.3,0-0.4,0-0.4-0.2c0-0.1,0.1-0.2,0.3-0.2c2.1-0.5,3.5-1.3,4.6-2.4c1.1-1.2,1.6-2.3,1.6-4.2c0-1.3-0.4-2.6-1.6-3.4
						c-0.9-0.6-1.9-0.9-2.9-1c-0.3,0-0.8,0-1.1,0C657,52.2,657.3,52.8,657.3,53.3z M653,53.4c-0.8,0.7-1.2,1.4-1.5,2.2
						c-0.2,0.5-0.3,1-0.3,1.7c0,0.8,0.1,1.4,0.5,1.9c0.2,0.4,0.6,0.6,0.8,0.6c0.3,0,0.6-0.2,1.2-1.2c1-1.4,2-3.3,2.4-4.4
						c0.3-0.6,0.4-1.1,0.4-1.5c0-0.4-0.1-0.7-0.3-0.8C654.7,52.1,653.6,52.8,653,53.4z"/>
					<path class="st1" d="M676.6,58c-0.1,4.1-1.8,6-6.6,6.9c-0.1,0-0.2-0.2-0.1-0.3c3.7-1.4,4.9-3,4.9-6.9c0-0.2,0-0.4,0-0.8
						c1.9,0.2,2.4,0.3,2.4,0.6C677.2,57.8,677.1,57.9,676.6,58z M683.5,55.9c0.7-0.8,0.8-0.9,1-0.9c0.2,0,0.3,0.1,1.2,0.9
						c0.4,0.4,0.5,0.5,0.5,0.6c0,0.3-0.1,0.4-0.8,0.4c-0.3,0-0.4,0.1-0.5,0.2c-0.7,0.5-1.1,0.8-1.7,1.1c-0.1,0-0.2-0.1-0.2-0.1
						c0.4-0.6,0.5-1,0.8-1.9h-11.3c0,1.4-0.6,2.4-1.7,2.4c-0.5,0-0.8-0.3-0.8-0.8c0-0.4,0.2-0.7,0.7-1c1-0.5,1.3-1,1.4-2.2
						c0-0.1,0.2-0.1,0.2,0c0.1,0.4,0.2,0.8,0.2,1.1H683.5z M678.7,53.6h3.2c0.8-1,1.1-1.1,1.2-1.1c0.2,0,0.4,0.1,1.2,0.8
						c0.3,0.3,0.5,0.4,0.5,0.6c0,0.1-0.1,0.2-0.2,0.2h-11.3c-0.4,0-0.7,0-1.2,0.1l-0.2-0.7c0.5,0.1,1,0.1,1.4,0.1h3.8v-2.1h-5.4
						c-0.4,0-0.8,0-1.3,0.1l-0.2-0.7c0.6,0.1,1,0.1,1.4,0.1h5.4v-0.8c0-0.6,0-1.2-0.1-1.8c2.2,0.2,2.5,0.4,2.5,0.6
						c0,0.2-0.2,0.3-0.6,0.5V51h4.4c0.9-1,1.1-1.2,1.2-1.2c0.2,0,0.4,0.1,1.2,0.8c0.4,0.3,0.5,0.5,0.5,0.6s-0.1,0.2-0.2,0.2h-7.2
						V53.6z M680.5,62.3c0,0.5,0.2,0.6,1.7,0.6c0.8,0,1.2,0,1.8-0.2c0.5-0.2,0.8-0.8,1.4-2.6c0-0.1,0.2-0.1,0.2,0
						c0,0.6-0.1,1.4-0.1,1.9c0,0.2,0,0.3,0.1,0.3c0.5,0.2,0.6,0.5,0.6,0.8c0,0.5-0.2,0.8-0.8,1c-0.7,0.2-1.7,0.3-3.4,0.3
						c-2.6,0-3.2-0.3-3.2-1.6v-3c0-1,0-2-0.1-3c2.3,0.3,2.3,0.3,2.3,0.6c0,0.2-0.1,0.3-0.5,0.5V62.3z"/>
					<path class="st1" d="M700,63.4h4.4c1-1.3,1.3-1.5,1.4-1.5c0.2,0,0.4,0.1,1.4,1c0.5,0.4,0.6,0.6,0.6,0.7s-0.1,0.2-0.2,0.2h-13.9
						c-0.5,0-1.1,0-1.7,0.1l-0.2-0.7c0.8,0.1,1.3,0.1,1.9,0.1h4.5v-12c0-1.1,0-1.9-0.1-2.5c2.4,0.2,2.6,0.4,2.6,0.6
						c0,0.2-0.2,0.4-0.6,0.5v5.4h2.9c1-1.3,1.2-1.4,1.3-1.4c0.2,0,0.4,0.1,1.4,1c0.5,0.4,0.6,0.5,0.6,0.7s-0.1,0.2-0.2,0.2h-6V63.4z
						"/>
					<path class="st1" d="M720.4,49.4c0-0.3,0-0.6-0.1-1.1c2.3,0.2,2.5,0.4,2.5,0.6c0,0.2-0.2,0.3-0.6,0.5v1.1h4.4
						c1-1.1,1.2-1.2,1.3-1.2c0.2,0,0.3,0.1,1.2,0.8c0.4,0.3,0.5,0.5,0.5,0.6s-0.1,0.2-0.2,0.2h-14.4c-0.4,0-0.8,0-1.3,0.1l-0.2-0.7
						c0.6,0.1,1,0.1,1.4,0.1h5.5V49.4z M726.6,57.1c0.6-0.7,0.8-0.8,0.9-0.8c0.2,0,0.3,0.1,1,0.6c0.3,0.3,0.4,0.4,0.4,0.5
						c0,0.2-0.1,0.3-0.6,0.6V59c0,2.9,0.1,3.6,0.1,4.4c0,0.7-0.2,1-0.7,1.3c-0.3,0.2-0.7,0.3-1.2,0.3c-0.2,0-0.3-0.1-0.4-0.5
						c-0.1-0.6-0.3-0.8-1.6-1.2c-0.1,0-0.1-0.2,0-0.2c0.8,0.1,1.3,0.1,1.9,0.1c0.2,0,0.2-0.1,0.2-0.2v-5.4H716v6.7
						c0,0.6-0.3,0.8-1,0.8c-0.5,0-0.7-0.2-0.7-0.7c0-1,0.1-2,0.1-6c0-0.7,0-1.4-0.1-2.1c0.9,0.4,1,0.4,1.9,0.9H726.6z M718.3,55.6
						v0.1c0,0.5-0.3,0.7-1,0.7c-0.5,0-0.7-0.2-0.7-0.6c0-0.5,0-0.9,0-2.7c0-0.5,0-1,0-1.5c0.9,0.4,1,0.4,1.8,0.9h5.7
						c0.6-0.7,0.7-0.8,0.8-0.8c0.2,0,0.3,0.1,1,0.6c0.3,0.2,0.4,0.4,0.4,0.5c0,0.1-0.1,0.3-0.5,0.5v0.4c0,1,0,1.7,0,1.9
						c0,0.6-0.3,0.8-1,0.8c-0.5,0-0.7-0.2-0.7-0.6v-0.1H718.3z M719.4,62.1v0.4c0,0.5-0.3,0.7-1,0.7c-0.5,0-0.6-0.1-0.6-0.6
						c0-0.4,0-0.8,0-2.5c0-0.6,0-1.2-0.1-1.8c0.8,0.3,0.9,0.4,1.8,0.8h3.5c0.5-0.6,0.7-0.7,0.8-0.7c0.2,0,0.3,0.1,1,0.6
						c0.3,0.2,0.4,0.4,0.4,0.5c0,0.2-0.1,0.3-0.5,0.5v0.3c0,0.9,0.1,1.5,0.1,1.7c0,0.5-0.3,0.7-0.9,0.7c-0.5,0-0.7-0.1-0.7-0.5v-0.3
						H719.4z M724.2,52.9h-5.9v2.3h5.9V52.9z M723.1,59.5h-3.7v2.1h3.7V59.5z"/>
				</g>
			</g>
		</g>
	</g>
	<line class="st3" x1="676.4" y1="237.2" x2="651.8" y2="261.8"/>
	<g>
		<g>
			<polygon class="st1" points="1004.5,183.6 1004.5,183.6 1004.5,183.6 			"/>
			<polygon class="st1" points="1006.5,181.8 1006.5,181.8 1006.5,181.8 			"/>
			<polygon class="st1" points="960,181.8 960,181.8 960,181.8 960,181.8 			"/>
			<polygon class="st1" points="975.1,177.4 975.1,177.4 975.1,177.4 975.1,177.4 			"/>
			<path class="st1" d="M1024.5,142.7c-1-1.6-2.2-2.7-3.1-3.8c-0.5-0.5-0.8-1-1.1-1.3c-0.3-0.4-0.4-0.6-0.4-0.7c0-0.1-0.1-0.3,0-0.5
				c0-0.6,0.2-1.7,0.5-3c0.3-1.3,0.6-2.7,0.7-4.3c0-1.1-0.2-2.4-0.9-3.6c-0.4-0.7-0.9-1.3-1.5-1.7c-0.9-0.8-1.9-1.3-2.9-1.7
				c-1.4-0.6-2.8-0.9-3.8-1.3c-0.5-0.2-1-0.4-1.3-0.5c-0.3-0.2-0.5-0.3-0.6-0.4l0,0c-0.1-0.1-0.4-0.5-0.6-1.2
				c-0.4-1-0.8-2.5-1.4-4.1c-0.3-0.8-0.7-1.6-1.2-2.5c-0.5-0.8-1.3-1.7-2.3-2.3c-1.2-0.7-2.5-0.9-3.6-0.9c-1.7,0-3.1,0.4-4.3,0.7
				c-1.3,0.3-2.3,0.5-3,0.5c-0.2,0-0.4,0-0.5-0.1c-0.1,0-0.5-0.2-1.1-0.7c-0.9-0.7-1.9-1.8-3.2-2.9c-0.7-0.5-1.4-1.1-2.3-1.5
				c-0.9-0.4-2-0.8-3.2-0.8c-1.6,0-3,0.6-4,1.3c-1.6,1-2.7,2.2-3.8,3.1c-0.5,0.5-1,0.8-1.3,1.1c-0.4,0.3-0.6,0.4-0.7,0.4
				c-0.1,0-0.3,0.1-0.5,0.1c-0.6,0-1.7-0.2-3-0.5c-1.3-0.3-2.7-0.6-4.3-0.7c-1.1,0-2.4,0.2-3.6,0.9l0,0l0,0
				c-0.7,0.4-1.3,0.9-1.7,1.5c-0.8,0.9-1.3,1.9-1.7,2.9c-0.6,1.4-0.9,2.8-1.3,3.8c-0.2,0.5-0.4,1-0.5,1.3c-0.2,0.3-0.3,0.5-0.4,0.6
				c-0.1,0.1-0.5,0.4-1.2,0.6c-1,0.4-2.5,0.8-4.1,1.4c-0.8,0.3-1.6,0.7-2.5,1.2c-0.8,0.5-1.7,1.3-2.3,2.3c-0.7,1.2-0.9,2.5-0.9,3.6
				c0,1.7,0.4,3.1,0.7,4.3c0.3,1.3,0.5,2.3,0.5,3c0,0.2,0,0.4-0.1,0.5l0,0c0,0.1-0.2,0.5-0.7,1.1c-0.7,0.9-1.8,1.9-2.9,3.2
				c-0.5,0.7-1.1,1.4-1.5,2.3c-0.4,0.9-0.8,2-0.8,3.2c0,1.6,0.6,3,1.3,4c1,1.6,2.2,2.7,3.1,3.8c0.5,0.5,0.8,1,1.1,1.3
				c0.3,0.4,0.4,0.6,0.4,0.7l0,0.1l0-0.1c0,0.1,0.1,0.3,0.1,0.5c0,0.6-0.2,1.7-0.5,3c-0.3,1.3-0.6,2.7-0.7,4.3
				c0,1.1,0.2,2.4,0.9,3.6c0.4,0.7,0.9,1.3,1.5,1.7c0.9,0.8,1.9,1.3,2.9,1.7c1.4,0.6,2.8,0.9,3.8,1.3c0.5,0.2,1,0.4,1.3,0.5
				c0.3,0.2,0.5,0.3,0.6,0.4c0.1,0.1,0.3,0.4,0.6,1c0.2,0.6,0.5,1.4,0.8,2.2l0,0c0.2,0.7,0.5,1.6,0.8,2.4c0.3,0.8,0.7,1.7,1.4,2.6
				c0.3,0.4,0.6,0.7,1,1l-9.7,20.8l13.4-0.4l8.3,10.5l9.5-20.5l9.5,20.5l8.3-10.5l13.4,0.4l-9.3-20c0,0,0.1,0,0.1-0.1
				c0.8-0.5,1.5-1.1,2-1.8c0.7-0.9,1.1-1.9,1.5-2.8c0.5-1.4,0.8-2.7,1.2-3.7c0.2-0.5,0.3-0.9,0.5-1.2c0.2-0.3,0.3-0.5,0.4-0.5
				c0.1-0.1,0.5-0.4,1.2-0.6c1-0.4,2.5-0.8,4.1-1.4c0.8-0.3,1.6-0.7,2.5-1.2c0.8-0.5,1.7-1.3,2.3-2.3c0.7-1.2,0.9-2.5,0.9-3.6
				c0-1.7-0.4-3.1-0.7-4.3c-0.3-1.3-0.5-2.3-0.5-3c0-0.2,0-0.4,0-0.5c0-0.1,0.2-0.5,0.7-1.1c0.7-0.9,1.8-1.9,2.9-3.2
				c0.5-0.7,1.1-1.4,1.5-2.3c0.4-0.9,0.8-2,0.8-3.2C1025.8,145.2,1025.2,143.8,1024.5,142.7z M1019.2,147.5
				c-0.4,0.7-1.4,1.7-2.5,2.9c-0.5,0.6-1.1,1.2-1.6,2c-0.5,0.7-1,1.6-1.3,2.7c-0.2,0.7-0.3,1.4-0.3,2.1c0,1.7,0.4,3.1,0.7,4.4
				c0.3,1.3,0.5,2.3,0.5,2.9c0,0.2,0,0.3,0,0.4l0,0.1l-0.1,0.1c-0.2,0.1-0.5,0.4-1.1,0.6c-0.9,0.4-2.2,0.7-3.5,1.1
				c-0.7,0.2-1.4,0.5-2.1,0.9c-0.7,0.4-1.5,0.8-2.2,1.5c-0.9,0.9-1.4,1.9-1.8,2.8c-0.6,1.4-0.9,2.7-1.3,3.8c-0.3,1.1-0.7,2-1,2.2
				l0,0l-0.1,0.1l0,0l0,0l0,0l-0.1,0c-0.1,0-0.2,0-0.4,0c-0.6,0-1.7-0.2-2.9-0.5c-1.3-0.3-2.7-0.6-4.4-0.7c-0.7,0-1.4,0.1-2.1,0.3
				l-0.1,0l-0.2,0.1l0,0c-1.7,0.5-2.9,1.5-3.9,2.4c-1,0.9-1.9,1.8-2.6,2.4l0,0c-0.4,0.3-0.8,0.6-1,0.7c-0.3,0.1-0.4,0.1-0.4,0.1
				c0,0-0.1,0-0.4-0.1c-0.2-0.1-0.6-0.4-1-0.7c-0.8-0.6-1.7-1.5-2.7-2.4c-1.1-0.9-2.3-1.9-4.1-2.4c-0.7-0.2-1.4-0.3-2.1-0.3
				c-1.7,0-3.1,0.4-4.4,0.7c-1.3,0.3-2.3,0.5-2.9,0.5c-0.2,0-0.3,0-0.4,0l-0.1,0l0,0L965,178l0,0l0,0c-0.1-0.2-0.4-0.6-0.6-1.1
				c-0.2-0.5-0.4-1.2-0.6-1.9l0,0c-0.3-0.9-0.5-1.8-1-2.8c-0.4-1-1-2.1-1.9-3c-1-1-2.2-1.6-3.3-2c-1.6-0.6-3.1-1-4.2-1.4
				c-0.5-0.2-1-0.4-1.2-0.6c-0.2-0.2-0.3-0.2-0.3-0.3l0,0l0-0.1c0-0.1,0-0.2,0-0.4c0-0.6,0.2-1.7,0.5-2.9c0.3-1.3,0.6-2.7,0.7-4.4
				c0-0.7-0.1-1.4-0.3-2.1l0,0c-0.4-1.4-1.1-2.5-1.8-3.4c-1.1-1.3-2.2-2.4-3-3.3c-0.4-0.4-0.6-0.8-0.8-1.1c-0.1-0.3-0.1-0.4-0.1-0.4
				c0,0,0-0.2,0.3-0.7c0.4-0.7,1.4-1.7,2.5-2.9c0.5-0.6,1.1-1.2,1.6-2c0.5-0.7,1-1.6,1.3-2.7l0,0c0.2-0.7,0.3-1.4,0.3-2.1
				c0-1.7-0.4-3.1-0.7-4.4c-0.3-1.3-0.5-2.3-0.5-2.9c0-0.2,0-0.3,0-0.4l0-0.1l0,0l0.1-0.1c0.1-0.1,0.5-0.4,1.1-0.6
				c0.9-0.4,2.2-0.7,3.5-1.1c0.7-0.2,1.4-0.5,2.1-0.9c0.7-0.4,1.5-0.8,2.2-1.5c1-1,1.6-2.2,2-3.3c0.6-1.6,1-3.1,1.4-4.2
				c0.2-0.5,0.4-1,0.6-1.2c0.2-0.2,0.2-0.3,0.3-0.3l0.1,0c0.1,0,0.2,0,0.4,0c0.6,0,1.7,0.2,2.9,0.5c1.3,0.3,2.7,0.6,4.4,0.7
				c0.7,0,1.4-0.1,2.1-0.3c1.4-0.4,2.5-1.1,3.4-1.8c1.3-1.1,2.4-2.2,3.3-3c0.4-0.4,0.8-0.6,1.1-0.8c0.3-0.1,0.4-0.1,0.4-0.1
				c0,0,0.3,0,0.7,0.3c0.7,0.4,1.7,1.4,2.9,2.5c0.6,0.5,1.2,1.1,2,1.6c0.7,0.5,1.6,1,2.7,1.3c0.7,0.2,1.4,0.3,2.1,0.3
				c1.7,0,3.1-0.4,4.4-0.7c1.3-0.3,2.3-0.5,2.9-0.5c0.2,0,0.3,0,0.4,0l0.1,0l0.1,0.1c0.1,0.2,0.4,0.5,0.6,1.1
				c0.4,0.9,0.7,2.2,1.1,3.5c0.2,0.7,0.5,1.4,0.9,2.1c0.4,0.7,0.8,1.5,1.5,2.2l0.1,0l-0.1-0.1c1.1,1,2.2,1.6,3.3,2
				c1.6,0.6,3.1,1,4.2,1.4c0.5,0.2,1,0.4,1.2,0.6c0.2,0.2,0.3,0.3,0.3,0.3l0,0.1c0,0.1,0,0.2,0,0.4c0,0.6-0.2,1.7-0.5,2.9
				c-0.3,1.3-0.6,2.7-0.7,4.4c0,0.7,0.1,1.4,0.3,2.1c0.4,1.4,1.1,2.5,1.8,3.4c1.1,1.3,2.2,2.4,3,3.3c0.4,0.4,0.6,0.8,0.8,1.1
				c0.1,0.3,0.1,0.4,0.1,0.4C1019.5,146.8,1019.5,147,1019.2,147.5z"/>
			<path class="st1" d="M983.3,120.9c-14.3,0-25.9,11.6-25.9,25.9c0,7.5,3.2,14.2,8.3,19c4.3,4,9.9,6.5,16.1,6.9h0c0,0,0,0,0,0l0,0
				c0.5,0,1,0,1.5,0c14.3,0,25.9-11.6,25.9-25.9C1009.2,132.5,997.6,120.9,983.3,120.9z M998.3,161.8c-3.9,3.8-9.1,6.2-15,6.2
				c-0.4,0-0.8,0-1.2,0l0,0c-5.1-0.3-9.7-2.4-13.2-5.7c-4.2-3.9-6.8-9.4-6.8-15.5c0-5.9,2.4-11.2,6.2-15c3.8-3.8,9.1-6.2,15-6.2
				c5.9,0,11.2,2.4,15,6.2c3.8,3.8,6.2,9.1,6.2,15C1004.5,152.7,1002.1,157.9,998.3,161.8z"/>
		</g>
	</g>
	<g>
		<g>
			<path class="st1" d="M655.3,122.6c0-3.2-2.6-5.7-5.7-5.7c-3.2,0-5.7,2.6-5.7,5.7c0,3.2,2.6,5.7,5.7,5.7
				C652.8,128.3,655.3,125.8,655.3,122.6z"/>
			<path class="st1" d="M636.7,135.8V155c0,1.4,1.1,2.5,2.5,2.5c1.4,0,2.5-1.1,2.5-2.5v-15.8h1.2v43c0,1.8,1.5,3.3,3.3,3.3
				c1.8,0,3.3-1.5,3.3-3.3v-25h1.1v25c0,1.8,1.5,3.3,3.3,3.3c1.8,0,3.3-1.5,3.3-3.3v-43h1.2V155c0,1.4,1.1,2.5,2.5,2.5
				s2.5-1.1,2.5-2.5v-19.3c0-2.8-3-5.8-5.8-5.8h-15.1C639.8,130,636.7,133,636.7,135.8z"/>
		</g>
	</g>
	<g>
		<path class="st1" d="M705.2,164.2c-1.1,0.3-2.4,0.8-3.9,1.1c-0.6,0.1-1.2,0.2-1.8,0.2c0-0.1,0-0.1,0.1-0.2c0.4-1.4,0.7-2.8,1-3.9
			c0.2-1.2,0.4-2.1,0.5-2.4c0.2-0.9,0.3-1.6,0.5-2.1c0.2-0.5,0.5-0.8,1-0.9c2.1-0.5,4-1.9,5.3-3.9c1.3-2,2.1-4.7,1.9-7.7
			c-0.1-1.8-0.5-2.6-1.1-2.8c-0.5-0.2-1.2,0.3-2.1,1c-0.9,0.7-1.9,1.6-3,2.3c-0.5,0.3-1,0.6-1.6,0.8c-0.1-1.3-0.3-2.5-0.5-3.6
			c-0.2-1.1-0.3-1.9-0.4-2.3c-0.3-1.8-0.5-2.6,0.4-3.2c1.7-1.2,2.9-3,3.4-5.3c0.5-2.3,0.3-4.9-0.9-7.4c-0.7-1.6-1.3-2.1-1.9-2.1
			c-0.5,0-1,0.7-1.5,1.6c-0.5,0.9-1.1,2-1.9,3c-0.3,0.4-0.7,0.9-1.1,1.2c-0.5-0.9-0.9-1.9-1.4-2.6c-0.5-0.9-0.9-1.6-1.1-1.9
			c-0.9-1.5-1.2-2.2-0.7-3c1.1-1.6,1.7-3.6,1.4-5.8c-0.2-2.2-1.3-4.5-3-6.3c-1.1-1.2-1.8-1.5-2.3-1.3c-0.5,0.2-0.7,0.9-0.9,1.9
			c-0.2,1-0.4,2.2-0.8,3.3c-0.2,0.5-0.4,1-0.6,1.4c-0.5-0.5-1-1-1.5-1.4c-0.8-0.7-1.4-1.3-1.6-1.5c-1.3-1.2-1.8-1.7-1.6-2.6
			c0.6-1.8,0.5-3.9-0.4-5.9c-0.9-2-2.6-3.9-4.8-5.1c-1.4-0.8-2.2-0.9-2.6-0.5c-0.4,0.3-0.4,1.1-0.3,2.1c0.1,0.9,0.2,2.1,0.2,3.2
			c-0.8-0.9-1.8-1.6-3-2.1c-1.4-0.6-3.5-1.1-5.3-0.9c-1.8,0.1-3.3,0.8-3.6,2c-0.3,1.2,0.5,2.6,1.6,3.7c1.1,1.1,2.6,2.2,3.8,2.7
			c1,0.5,2.1,0.8,3.2,0.9c0,0-0.1,0.1-0.1,0.1c-1,0.7-1.9,1.3-2.7,1.9c-0.7,0.6-1.3,1.1-1.3,1.5c-0.1,0.5,0.3,0.9,1.2,1.5
			c1.6,0.9,3.3,1.2,5.1,1.1c1.8-0.1,3.6-0.6,5.2-1.6c0.8-0.5,1.4-0.1,2.6,1c0.2,0.2,0.7,0.7,1.4,1.4c0.4,0.4,0.8,0.9,1.2,1.4
			c-0.5,0.2-0.9,0.4-1.4,0.6c-1.1,0.4-2.2,0.7-3.1,1c-0.9,0.3-1.5,0.6-1.7,1c-0.2,0.4,0,1,0.7,1.8c1.2,1.3,2.8,2.1,4.5,2.6
			c1.7,0.5,3.6,0.5,5.5,0.1c0.9-0.2,1.4,0.4,2.2,1.8c0.1,0.2,0.5,0.9,0.9,1.8c0.3,0.7,0.7,1.6,1.1,2.5c-0.6,0.1-1.1,0.1-1.7,0.1
			c-1.3,0-2.5-0.1-3.4-0.1c-1,0-1.7,0.1-2.1,0.5c-0.4,0.4-0.4,0.9,0.1,2c0.8,1.7,2,3,3.5,4.1c1.5,1,3.4,1.8,5.4,2
			c1,0.2,1.2,0.9,1.5,2.5c0,0.3,0.2,1.1,0.2,2.1c0.1,1,0.2,2.1,0.2,3.3c-0.6-0.1-1.1-0.3-1.7-0.5c-1.2-0.4-2.4-1-3.4-1.3
			c-1-0.3-1.7-0.5-2.2-0.3c-0.5,0.2-0.7,0.8-0.6,2c0.1,1.9,0.8,3.7,2,5.3c1.1,1.6,2.7,3,4.6,4c0.5,0.3,0.7,0.6,0.7,1.1
			c0.1,0.5,0,1.1-0.2,2c-0.1,0.3-0.2,1.1-0.6,2.1c-0.3,1-0.7,2.3-1.2,3.5c0,0.1,0,0.1-0.1,0.2c-0.5-0.4-1-0.7-1.4-1.1
			c-1-0.9-2-1.9-2.8-2.6c-0.8-0.7-1.5-1.2-2.1-1.2c-0.6,0-1,0.5-1.4,1.7c-0.6,1.9-0.6,3.9-0.1,5.8c0.5,2,1.4,4,2.8,5.7
			c0.7,0.9,0.3,1.6-0.7,3.2c-0.2,0.3-0.7,1-1.4,1.8c-0.7,0.9-1.6,1.9-2.6,2.9c-0.2,0.2-0.3,0.3-0.5,0.5c-0.3-0.5-0.6-1.1-0.9-1.7
			c-0.6-1.3-1.1-2.6-1.6-3.7c-0.5-1-0.9-1.8-1.5-2c-0.5-0.2-1.2,0-2,1c-1.4,1.5-2.2,3.4-2.6,5.5c-0.4,2.1-0.3,4.4,0.3,6.7
			c0.3,1.1-0.4,1.7-2,2.7c-0.3,0.2-1.1,0.6-2.1,1.1c-1.1,0.5-2.4,1.1-3.7,1.6c-1.3,0.5-3.1,1.3-4.1,1.6
			c-12.5,4.4-27.5,6.3-36.8,13.1c-1.4,1.1,1.4,5.2,2.7,4.8c1.3-0.3,10.4-5.8,33.3-12.1c1-0.3,5.6-1.9,7-2.5c1.4-0.7,2.8-1.4,4-2.1
			c1.1-0.7,2-1.2,2.3-1.4c0.9-0.6,1.6-1,2.1-1.2c0.6-0.2,1-0.2,1.5,0.1c1,0.7,2.1,1.1,3.4,1.3c1.2,0.2,2.5,0.2,3.9,0
			c1.3-0.3,2.7-0.8,4-1.5c1.3-0.8,2.6-1.8,3.6-3c1.4-1.6,1.7-2.5,1.4-3c-0.3-0.5-1.2-0.7-2.4-0.8c-1.2-0.1-2.7-0.2-4.2-0.6
			c-0.6-0.2-1.2-0.4-1.8-0.6c0.2-0.2,0.3-0.4,0.5-0.6c1-1.2,1.9-2.4,2.6-3.4c0.7-1,1.2-1.8,1.4-2.1c1.1-1.7,1.6-2.4,2.8-2.3
			c2.2,0.4,4.6-0.2,6.8-1.7c1.1-0.7,2.1-1.7,2.9-2.8c0.8-1.1,1.5-2.5,2-4c0.6-1.9,0.5-2.8,0.1-3.2
			C707.2,163.6,706.3,163.8,705.2,164.2z"/>
		<path class="st1" d="M636.2,199.3c2.9-1.1,5.9-2.1,9-2.9c-3.3-0.9-6.6-1.8-9.7-2.9c-1-0.3-2.8-1.1-4.1-1.6
			c-1.3-0.5-2.7-1.1-3.7-1.6c-1.1-0.5-1.9-1-2.1-1.1c-1.7-1-2.3-1.6-2-2.7c0.6-2.2,0.7-4.6,0.3-6.7c-0.4-2.1-1.2-4-2.6-5.5
			c-0.9-1-1.5-1.3-2-1c-0.5,0.2-1,1-1.5,2c-0.5,1-1,2.3-1.6,3.7c-0.3,0.6-0.5,1.1-0.9,1.7c-0.2-0.2-0.3-0.3-0.5-0.5
			c-0.9-1-1.9-2-2.6-2.9c-0.7-0.9-1.2-1.6-1.4-1.8c-1-1.5-1.4-2.3-0.7-3.2c1.4-1.7,2.4-3.7,2.8-5.7c0.5-2,0.5-3.9-0.1-5.8
			c-0.4-1.2-0.8-1.7-1.4-1.7c-0.6,0-1.2,0.5-2.1,1.2c-0.8,0.7-1.7,1.7-2.8,2.6c-0.4,0.4-0.9,0.8-1.4,1.1c0-0.1,0-0.1-0.1-0.2
			c-0.5-1.2-0.9-2.5-1.2-3.5c-0.3-1-0.5-1.8-0.6-2.1c-0.2-0.9-0.3-1.5-0.2-2c0.1-0.5,0.3-0.8,0.7-1.1c1.9-1,3.4-2.4,4.6-4
			c1.1-1.6,1.8-3.4,2-5.3c0.1-1.2-0.1-1.8-0.6-2c-0.5-0.2-1.3,0-2.2,0.3c-1,0.3-2.1,0.9-3.4,1.3c-0.5,0.2-1.1,0.4-1.7,0.5
			c0-1.2,0.1-2.3,0.2-3.3c0.1-1,0.2-1.8,0.2-2.1c0.3-1.7,0.5-2.4,1.5-2.5c2-0.2,3.9-1,5.4-2c1.5-1,2.8-2.4,3.5-4.1
			c0.5-1.1,0.5-1.6,0.1-2c-0.4-0.3-1.1-0.4-2.1-0.5c-1,0-2.2,0.1-3.4,0.1c-0.6,0-1.1,0-1.7-0.1c0.4-0.9,0.7-1.8,1.1-2.5
			c0.4-0.9,0.8-1.6,0.9-1.8c0.8-1.4,1.2-2,2.2-1.8c1.9,0.4,3.8,0.4,5.5-0.1c1.7-0.5,3.2-1.3,4.5-2.6c0.8-0.8,1-1.3,0.7-1.8
			c-0.2-0.4-0.9-0.7-1.7-1c-0.9-0.3-2-0.6-3.1-1c-0.5-0.2-0.9-0.3-1.4-0.6c0.4-0.5,0.8-1,1.2-1.4c0.7-0.7,1.2-1.3,1.4-1.4
			c1.2-1.1,1.8-1.5,2.6-1c1.6,1,3.5,1.5,5.2,1.6c1.8,0.1,3.5-0.3,5.1-1.1c1-0.5,1.3-1,1.2-1.5c-0.1-0.5-0.6-1-1.3-1.5
			c-0.7-0.6-1.7-1.2-2.7-1.9c0,0-0.1-0.1-0.1-0.1c1.1-0.1,2.1-0.4,3.2-0.9c1.2-0.5,2.6-1.6,3.8-2.7c1.1-1.2,2-2.5,1.6-3.7
			c-0.3-1.2-1.8-1.9-3.6-2c-1.8-0.1-3.9,0.3-5.3,0.9c-1.2,0.5-2.2,1.2-3,2.1c0-1.2,0.1-2.3,0.2-3.2c0.1-1,0.1-1.7-0.3-2.1
			c-0.4-0.3-1.2-0.2-2.6,0.5c-2.3,1.2-4,3.1-4.8,5.1c-0.9,2-1,4.1-0.4,5.9c0.3,0.9-0.3,1.5-1.6,2.6c-0.2,0.2-0.8,0.7-1.6,1.5
			c-0.4,0.4-0.9,0.9-1.5,1.4c-0.3-0.5-0.5-0.9-0.6-1.4c-0.4-1.2-0.6-2.4-0.8-3.3c-0.2-1-0.4-1.7-0.9-1.9c-0.5-0.2-1.2,0.1-2.3,1.3
			c-1.8,1.9-2.8,4.2-3,6.3c-0.2,2.2,0.3,4.2,1.4,5.8c0.5,0.8,0.2,1.5-0.7,3c-0.1,0.3-0.6,1-1.1,1.9c-0.4,0.8-0.9,1.7-1.4,2.6
			c-0.4-0.4-0.8-0.8-1.1-1.2c-0.8-1-1.4-2.1-1.9-3c-0.5-0.9-1-1.5-1.5-1.6c-0.5,0-1.1,0.5-1.9,2.1c-1.1,2.5-1.4,5.2-0.9,7.4
			c0.5,2.3,1.7,4.1,3.4,5.3c0.8,0.6,0.7,1.4,0.4,3.2c-0.1,0.3-0.2,1.2-0.4,2.3c-0.2,1-0.3,2.3-0.5,3.6c-0.6-0.2-1.1-0.5-1.6-0.8
			c-1.2-0.7-2.2-1.6-3-2.3c-0.8-0.7-1.5-1.2-2.1-1c-0.5,0.2-0.9,0.9-1.1,2.8c-0.2,2.9,0.5,5.6,1.9,7.7c1.3,2,3.2,3.4,5.3,3.9
			c0.5,0.2,0.8,0.4,1,0.9c0.2,0.5,0.3,1.2,0.5,2.1c0.1,0.3,0.2,1.2,0.5,2.4c0.2,1.2,0.6,2.6,1,3.9c0,0.1,0,0.1,0.1,0.2
			c-0.6,0-1.2-0.1-1.8-0.2c-1.4-0.2-2.8-0.7-3.9-1.1c-1.1-0.3-2-0.5-2.4-0.2c-0.5,0.4-0.5,1.3,0.1,3.2c0.5,1.5,1.2,2.8,2,4
			c0.8,1.1,1.8,2.1,2.9,2.8c2.1,1.5,4.5,2,6.8,1.7c1.1-0.1,1.6,0.6,2.8,2.3c0.2,0.3,0.7,1.1,1.4,2.1c0.7,1,1.6,2.2,2.6,3.4
			c0.2,0.2,0.3,0.4,0.5,0.6c-0.6,0.3-1.2,0.5-1.8,0.6c-1.5,0.4-3,0.5-4.2,0.6c-1.2,0.1-2.1,0.3-2.4,0.8c-0.3,0.5,0,1.5,1.4,3
			c1.1,1.2,2.3,2.2,3.6,3c1.3,0.8,2.7,1.3,4,1.5c1.3,0.3,2.7,0.3,3.9,0c1.2-0.2,2.4-0.7,3.4-1.3c0.5-0.3,1-0.3,1.5-0.1
			c0.6,0.2,1.2,0.6,2.1,1.2c0.3,0.2,1.2,0.7,2.3,1.4c1.1,0.7,2.6,1.4,4,2.1C630.7,197.5,635.1,198.9,636.2,199.3z"/>
		<path class="st1" d="M663.8,202c-3.6,1-6.8,2-9.8,2.9c10.1,3.7,14.7,6.3,15.6,6.5c1.3,0.3,4.2-3.8,2.7-4.8
			C669.8,204.7,666.9,203.2,663.8,202z"/>
	</g>
	<line class="st0" x1="436.5" y1="309" x2="436.5" y2="0"/>
	<g>
		<rect x="186.6" y="121.2" class="st1" width="23.8" height="42.1"/>
		<rect x="219.9" y="103.4" class="st1" width="23.8" height="59.9"/>
		<rect x="153.2" y="138.2" class="st1" width="23.8" height="25.1"/>
		<path class="st1" d="M286.3,80.7l-19.6-33.7c-0.3-0.5-0.9-0.8-1.5-0.8s-1.2,0.3-1.5,0.8l-19.6,33.7c-0.3,0.5-0.3,1.2,0,1.7
			c0.3,0.5,0.9,0.8,1.5,0.8h7.7v80.1h23.8V83.2h7.7c0.6,0,1.2-0.3,1.5-0.8C286.6,81.8,286.6,81.2,286.3,80.7z"/>
	</g>
	<g>
		<g>
			<path class="st2" d="M58.8,218.1l-6.7-18c2-1.7,4.4-3.2,7.2-4.3c2.8-1.1,5.9-2,9.2-2.6c3.3-0.6,6.5-0.9,9.8-0.9
				c5.4,0,10.3,0.8,14.6,2.5c4.3,1.6,7.8,4,10.2,7c2.5,3,3.8,6.7,3.8,11c0,3.2-0.7,6.2-2,9c-1.4,2.8-3.1,5.4-5.4,7.8
				c-2.2,2.4-4.6,4.6-7.2,6.6c-2.6,2-5.2,3.9-7.7,5.5c-2.5,1.6-4.8,3.1-6.8,4.4h19c2,0,3.8-0.4,5.4-1.2c1.6-0.8,3.1-1.9,4.5-3.5
				c1.4-1.5,2.6-3.5,3.8-5.9h1l-6.8,28.1h-52v-1c2.9-3.5,5.8-7.1,8.9-10.6c3-3.5,6-7.1,8.8-10.6c2.8-3.5,5.4-7,7.6-10.4
				c2.3-3.5,4.1-6.9,5.4-10.3c1.3-3.4,2-6.8,2-10.1c0-4.3-1.1-7.7-3.4-10.2c-2.3-2.5-5.4-3.5-9.4-3.2c-4.2,0.3-7.4,2.2-9.5,5.8
				c-2.2,3.5-3.2,8.5-3.2,15.1H58.8z"/>
			<path class="st2" d="M121.7,248.8c1.5-1.1,3.2-1.7,5.1-1.6c1.9,0,3.6,0.5,5.4,1.5c1.7,1,3,2.4,3.8,4.2c1.3,2.9,1.8,5.9,1.4,9
				c-0.4,3-1.4,5.8-3.1,8.2s-3.8,4.3-6.4,5.6c-2.6,1.3-5.4,1.6-8.4,1l-0.4-1.3c1.2-0.5,2.3-1.4,3.2-2.6c0.9-1.2,1.4-2.7,1.4-4.5
				c0-1.7-0.9-3.6-2.8-5.6c-1.2-1.4-1.9-3-2.2-4.8c-0.3-1.8-0.2-3.5,0.4-5.2C119.5,251.1,120.4,249.8,121.7,248.8z"/>
			<path class="st2" d="M188.7,210.5L158,213l-1.9,8.3c6.4-1.5,12.1-2,17-1.4c4.9,0.6,9.1,2,12.4,4.2c3.3,2.2,5.8,5.1,7.4,8.5
				c1.6,3.5,2.3,7.3,2.1,11.6c-0.2,4.9-1.6,9.2-4.1,12.8c-2.5,3.6-5.8,6.5-9.8,8.6c-4,2.2-8.3,3.7-13,4.5c-4.7,0.8-9.3,1-13.8,0.4
				c-4.6-0.6-8.7-1.9-12.5-3.8l0.2-1c1.7,0.1,3.9-0.1,6.4-0.5c2.5-0.4,5.2-1.1,7.9-2c2.8-0.9,5.4-2.2,7.9-3.8
				c2.5-1.6,4.5-3.4,6.1-5.6s2.5-4.8,2.7-7.8c0.3-3.8-0.8-6.8-3.1-9c-2.3-2.2-5.5-3.4-9.6-3.6c-4-0.2-8.6,0.7-13.6,2.8l-0.9-0.6
				l8.3-38.4l29.8-2.5c2.1,0,3.8-0.5,5-1.4c1.2-0.9,2.2-2.1,2.9-3.6h1L188.7,210.5z"/>
			<path class="st2" d="M206.8,213.2c0-4.5,1.1-8.2,3.2-11.3c2.2-3.1,5.1-5.5,8.9-7.1c3.7-1.6,7.9-2.5,12.5-2.5
				c4.4,0,8.5,0.7,12.2,2.1c3.8,1.4,6.8,3.4,9.1,6s3.5,5.5,3.5,8.9c0,3.1-1,5.8-3,7.9c-2,2.1-4.5,3.7-7.5,4.7c-3,1-6,1.5-9.1,1.5
				h-3.4c1.7-0.5,3-1.7,3.9-3.5c1-1.9,1.6-4,2-6.3c0.4-2.3,0.5-4.3,0.5-5.9c-0.1-2.7-0.8-5.1-2.2-7.1c-1.4-2-3.5-3-6.2-3.1
				c-2.5-0.1-4.4,0.6-5.8,2.2c-1.4,1.6-2.1,3.7-2.1,6.1c0,1.9,0.5,3.5,1.4,4.9c0.9,1.4,2.4,2.8,4.6,4.2c2.1,1.4,5.1,3.2,8.9,5.2
				c3.2,1.7,6.2,3.2,8.9,4.8c2.8,1.5,5.2,3.1,7.4,4.8c2.1,1.7,3.8,3.7,5,5.9c1.2,2.2,1.8,5,1.8,8.2c0,4.7-1.3,8.6-3.9,11.8
				c-2.6,3.2-6.2,5.6-11,7.2s-10.2,2.4-16.5,2.4c-3.1,0-6.3-0.2-9.5-0.8c-3.2-0.5-6.1-1.4-8.8-2.6c-2.7-1.2-4.9-3-6.5-5.2
				c-1.6-2.3-2.5-5.2-2.5-8.7c0-3.1,0.6-5.8,2-8c1.3-2.2,2.9-4,4.9-5.3c2-1.4,4.1-2.4,6.2-3.2c2.1-0.8,4.1-1.3,5.9-1.5
				c1.8-0.3,3-0.4,3.8-0.4l4.8-1.1c-3.1,0.9-5.6,2.8-7.6,5.5s-3,6.4-3,11.1c0,4.7,1,8.3,3,10.9s4.7,4.1,8.2,4.4c2.2,0.2,4.2,0,6-0.7
				c1.8-0.7,3.3-1.7,4.4-3c1.1-1.4,1.7-2.9,1.7-4.7c0-1.1-0.2-2.2-0.8-3.2c-0.5-1-1.4-2.1-2.6-3.2c-1.2-1.1-2.8-2.3-4.9-3.5
				c-2-1.3-4.6-2.7-7.6-4.2c-1.8-0.9-3.8-2-6.1-3.3c-2.3-1.3-4.5-2.8-6.6-4.7c-2.1-1.8-3.9-4.1-5.3-6.8S206.8,216.9,206.8,213.2z"/>
			<path class="st2" d="M270.4,213.2c0-4.5,1.1-8.2,3.2-11.3c2.2-3.1,5.1-5.5,8.9-7.1c3.7-1.6,7.9-2.5,12.5-2.5
				c4.4,0,8.5,0.7,12.2,2.1c3.8,1.4,6.8,3.4,9.1,6s3.5,5.5,3.5,8.9c0,3.1-1,5.8-3,7.9c-2,2.1-4.5,3.7-7.5,4.7c-3,1-6,1.5-9.1,1.5
				h-3.4c1.7-0.5,3-1.7,3.9-3.5c1-1.9,1.6-4,2-6.3c0.4-2.3,0.5-4.3,0.5-5.9c-0.1-2.7-0.8-5.1-2.2-7.1c-1.4-2-3.5-3-6.2-3.1
				c-2.5-0.1-4.4,0.6-5.8,2.2c-1.4,1.6-2.1,3.7-2.1,6.1c0,1.9,0.5,3.5,1.4,4.9c0.9,1.4,2.4,2.8,4.6,4.2c2.1,1.4,5.1,3.2,8.9,5.2
				c3.2,1.7,6.2,3.2,8.9,4.8c2.8,1.5,5.2,3.1,7.4,4.8c2.1,1.7,3.8,3.7,5,5.9c1.2,2.2,1.8,5,1.8,8.2c0,4.7-1.3,8.6-3.9,11.8
				c-2.6,3.2-6.2,5.6-11,7.2s-10.2,2.4-16.5,2.4c-3.1,0-6.3-0.2-9.5-0.8c-3.2-0.5-6.1-1.4-8.8-2.6c-2.7-1.2-4.9-3-6.5-5.2
				c-1.6-2.3-2.5-5.2-2.5-8.7c0-3.1,0.6-5.8,2-8c1.3-2.2,2.9-4,4.9-5.3c2-1.4,4.1-2.4,6.2-3.2c2.1-0.8,4.1-1.3,5.9-1.5
				c1.8-0.3,3-0.4,3.8-0.4l4.8-1.1c-3.1,0.9-5.6,2.8-7.6,5.5s-3,6.4-3,11.1c0,4.7,1,8.3,3,10.9s4.7,4.1,8.2,4.4c2.2,0.2,4.2,0,6-0.7
				c1.8-0.7,3.3-1.7,4.4-3c1.1-1.4,1.7-2.9,1.7-4.7c0-1.1-0.2-2.2-0.8-3.2c-0.5-1-1.4-2.1-2.6-3.2c-1.2-1.1-2.8-2.3-4.9-3.5
				c-2-1.3-4.6-2.7-7.6-4.2c-1.8-0.9-3.8-2-6.1-3.3c-2.3-1.3-4.5-2.8-6.6-4.7c-2.1-1.8-3.9-4.1-5.3-6.8S270.4,216.9,270.4,213.2z"/>
		</g>
	</g>
</g>
</svg>
