<svg enable-background="new 0 0 335 470.1" viewBox="0 0 335 470.1" xmlns="http://www.w3.org/2000/svg"><path d="m30.6 34.5c0 .9 0 1.1.1 1.4s.5.3 1 .4c.1 0 .1 0 .1.2s0 .2-.1.2c-.6 0-1.2 0-1.8 0s-1.3 0-1.9 0c-.1 0-.1 0-.1-.2s0-.2.1-.2c.5 0 .8-.1 1-.3.2-.5.2-.9.2-1.4v-.6h-2.2-1.3c-.1 0-.2 0-.2-.4 0-.2 0-.4.1-.6 1.3-2.3 2.3-4.1 3.8-6.3l1.2-.3c.1 0 .1 0 .1.2 0 1.1 0 2.2-.1 3.6v3.3c.4 0 .9 0 1.4-.1.1 0 .1 0 .1.1l-.1.3c0 .1 0 .1-.1.1-.4 0-1 0-1.2 0zm-1.5-4.1c0-1 0-1.6.1-2.6-1.1 1.7-2.2 3.6-3.2 5.4-.1.2-.1.2.1.2h3z" fill="#333"/><path d="m37.2 35.8c-.7 1.1-1.7 1.9-2.9 2.4-.1 0-.2-.1-.1-.1.7-.6 1.2-1.4 1.6-2.2.2-.4.3-.7.3-1.1 1.2.4 1.6.6 1.6.8s-.2.1-.5.2zm2.9-1.8c.4-.6.6-.7.7-.7s.2.1.6.5l.1.1c.2-1.6.2-3.2.2-4.8 0-1.7 0-2.7-.1-3.6.5.2 1 .5 1.5.8h1.9c.5-.6.6-.7.7-.7s.3.1.8.5c.2.2.3.3.3.4s0 .2-.4.4v1.6 8.1c0 .7-.1 1-.6 1.2-.3.2-.7.2-1 .2-.2 0-.3 0-.3-.4s-.4-.7-1.3-.9c-.1 0-.1-.2 0-.2h1.7c.2 0 .2 0 .2-.2v-3.3h-2.4c-.1.6-.2 1.1-.3 1.7-.4 1.3-1.2 2.5-2.3 3.4-.1 0-.2 0-.1-.1.8-1.1 1.3-2.3 1.5-3.7h-6.5c-.2 0-.5 0-.7.1l-.2-.5c.3.1.6.1.9.1h.6v-5.9h-.4c-.2 0-.5 0-.7.1l-.2-.5c.3.1.6.1.9.1h.4v-.8c0-.5 0-1-.1-1.6 1.5.2 1.7.3 1.7.4s-.1.2-.4.3v1.6h2v-.7c0-.5 0-1-.1-1.6 1.5.1 1.7.3 1.7.4s-.1.2-.4.4v1.6h.2c.4-.6.6-.7.7-.7s.2.1.6.5c.1.1.2.2.2.4 0 .1 0 .1-.2.1h-1.5zm-3.3-5.9v1.7h1.9v-1.7zm2 2h-2v1.7h2zm-2 2v1.9h2v-1.9zm2.9 4.9c-.3 0-.5-.2-.6-.7-.2-.6-.5-1-1-1.4-.1 0 0-.1.1-.1 1.5.2 2.2.7 2.2 1.5-.1.4-.3.7-.7.7 0 .1 0 .1 0 0zm3.3-7.3c0 1 0 2-.2 3h2.4v-3zm2.2-3.1h-2.2v2.8h2.2z" fill="#333"/><path d="m52.8 35.1c.2.6.7 1 1.3 1.2 1 .3 2.1.4 3.2.3 1.8 0 3.6-.1 5.4-.3.1 0 .1.1 0 .2-.3.1-.5.4-.5.8s-.1.5-.3.5c-.7.1-2.4.1-3.4.1-2.3 0-3.7-.2-4.6-.7-.7-.5-1.2-1.2-1.4-2.1-.4.8-1 1.5-1.6 2.1 0 .5 0 .7-.2.7s-.5-.5-1-1.7c.3-.1.7-.2 1-.4.3-.1.7-.3 1-.5v-3.7h-1c-.3 0-.5 0-.8.1l-.3-.7c.3.1.6.1.9.1h.9c.5-.6.6-.6.7-.6s.2.1.8.5c.2.2.3.3.3.4s0 .1-.4.5zm-.8-6.8c-.3 0-.5-.2-.7-.9-.2-.6-.5-1.2-.9-1.6-.1-.1 0-.1.1-.1 1.6.4 2.2 1.1 2.2 1.8.1.4-.2.8-.7.8zm5.1-1h-2.8c-.2 0-.5 0-.7.1l-.2-.5c.3.1.6.1.9.1h2.7v-.5c0-.5 0-.9 0-1.4 1.4.1 1.7.2 1.7.4s-.1.2-.4.3v1.2h2c.6-.7.7-.8.8-.8s.3.1.9.6c.3.2.4.3.4.4s0 .1-.2.1h-3.9v1.3h1.8c.4-.5.5-.6.6-.6s.3.1.7.5c.2.2.3.3.3.4s-.1.2-.3.4v.5 2.7s-.3.5-.7.5-.6-.2-.6-.4h-1.8v1.5h2.1c.7-.7.9-.8 1-.8s.3.1.8.6c.2.2.4.3.4.4s0 .1-.2.1h-4.1v1.3s-.2.5-.7.5-.6-.1-.6-.3 0-.8 0-1.4h-2.7c-.3 0-.6 0-.9.1l-.2-.6c.3.1.7.1 1 .1h2.8c0-.5 0-1 0-1.5h-1.8v.1c0 .3-.2.5-.7.5s-.5-.1-.5-.5 0-.7 0-2.3c0-.8 0-1.5 0-2.3.4.2.9.4 1.3.6h1.7zm-1.9 1.7v1.4h1.8c0-.5 0-.9 0-1.4zm1.8 1.7h-1.8v1.6h1.8zm1.2-.3h1.9v-1.4h-1.9zm1.9 1.9v-1.6h-1.9v1.6z" fill="#333"/><path d="m76 30.8c.5-.6.6-.7.7-.7s.2.1.9.7c.3.3.4.4.4.5s-.1.3-.6.3c-.2 0-.3 0-.4.1-.3.3-.7.5-1.1.8-.1 0-.1 0-.1-.1.2-.4.3-.8.4-1.3h-5c0 .8-.3 1.6-1 1.6-.3 0-.6-.3-.6-.6v-.1c-.1 0-.1 0-.2 0-.3 0-.4-.1-.4-.7l-.7.2v2 4c0 .3-.2.5-.7.5s-.6-.1-.6-.4.1-1.2.1-3.1v-1c0 .1-.2.1-.4.2-.4 1.2-.9 2.3-1.7 3.3 0 .1-.2 0-.2-.1.3-.9.5-1.8.6-2.7.1-.5.1-.9.1-1.4 1.1.3 1.4.5 1.5.6v-1.4l-1.3.3c-.1.3-.2.4-.3.4s-.3-.4-.4-1.5c.5 0 1 .1 1.4 0 .5-.8.9-1.6 1.3-2.4.3-.5.5-1.1.6-1.6 1.1.5 1.6.7 1.6.9s-.1.2-.5.2c-.7 1.1-1.5 2.1-2.5 3h1.7.4c-.1-.4-.2-.8-.5-1.1 0 0 0-.1.1-.1.9.5 1.3 1 1.3 1.5v.1c.5-.2.9-.8.9-1.4 0-.1.1-.1.2 0 .1.2.2.5.2.7zm-9-4.5c.1-.3.2-.7.2-1.1 1.2.4 1.7.6 1.7.8s-.2.2-.6.2c-.5.6-1 1.2-1.6 1.8.4.2.6.6.6 1s-.2.7-.6.8c-.4 0-.4-.1-.6-.8-.1-.5-.4-1-.8-1.4v-.1h.1c.4.1.7.3 1.1.4.2-.5.4-1.1.5-1.6zm2.6 9.5c-.4 0-.4-.1-.5-1 0-.6-.2-1.2-.4-1.7 0-.1.1-.1.1-.1 1 .8 1.5 1.4 1.5 2 0 .4-.3.8-.7.8zm3.3-3v.7c0 1-.4 2.1-1 2.9-.8.9-1.8 1.5-3 1.7-.1 0-.2-.1-.1-.2.9-.4 1.7-1.1 2.2-1.9.5-.9.7-2 .6-3 0-.3 0-.6 0-.9 1.5.2 1.7.2 1.7.4s-.1.2-.4.3zm1.2-3.6h1.1c.6-.7.7-.8.8-.8s.3.1.8.5c.2.2.3.3.3.4s0 .1-.2.1h-5.8c-.3 0-.5 0-.8.1l-.2-.5c.3.1.6.1.9.1h1.5v-1.7h-1.5c-.3 0-.6 0-.8.1l-.2-.4c.3.1.7.1 1 .1h1.9v-.9c0-.2 0-.6-.1-1.1 1.6.1 1.8.3 1.8.4s-.1.2-.4.4v1.2h1.4c.6-.8.8-.9.9-.9s.3.1.9.6c.3.2.4.4.4.5s0 .1-.2.1h-3.5zm1 7.1c0 .3.1.3.6.3s.8 0 1-.2c.4-.5.6-1 .7-1.6 0-.1.2 0 .2 0v1.2c0 .1.1.2.2.3.2.1.3.3.3.5 0 .3-.2.6-.5.7-.6.2-1.1.3-1.7.2-1.6 0-2-.3-2-1.4 0-.2 0-.5 0-1.5s0-1.8-.1-2.8c1.6.2 1.7.2 1.7.4s-.1.2-.4.3z" fill="#333"/><path d="m86.2 32c0 .3-.2.5-.8.5-.3 0-.5-.1-.5-.4s0-1.1 0-2.6c0 .1 0 .1-.2.1h-1.4v4.2c.6-.2 1.2-.4 1.7-.6.1 0 .1.1.1.2-1.1.9-2.3 1.7-3.6 2.3 0 .4-.1.6-.3.6s-.4-.4-.9-1.7c.4 0 .8-.1 1.2-.2l.6-.2v-4.6h-.7c-.3 0-.5 0-.8.1l-.2-.5c.3.1.5.1.8.1h.8v-2.2c0-.6 0-1.1-.1-1.7 1.7.2 1.8.3 1.8.5s-.1.2-.5.4v3.1h.1c.3-.6.5-.8.6-.8s.2.1.7.5c.1.1.2.2.3.4v-.4c0-.7 0-1.3-.1-2 .5.2 1 .5 1.4.7h3.1c.3-.5.5-.9.7-1.4.1-.4.3-.7.3-1.1 1.4.5 1.7.6 1.7.8s-.2.3-.6.3c-.5.5-1 1-1.5 1.4h1.4c.4-.5.6-.6.7-.6s.2.1.8.5c.2.2.3.3.3.4s-.1.2-.4.5v.6 2.9c0 .3-.2.5-.8.5-.3 0-.5-.1-.5-.5zm.8 5.3v.3c0 .4-.2.5-.8.5-.4 0-.5-.1-.5-.5s.1-1 .1-3c0-.7 0-1.4-.1-2.1.5.2 1 .4 1.4.7h3.5c.4-.5.6-.6.7-.6s.2.1.7.5c.2.2.3.3.3.4s-.1.2-.4.4v.6c0 1.6.1 2.6.1 3s-.3.5-.8.5-.6-.1-.6-.4v-.4zm.4-9.7c-.3 0-.4-.1-.6-.6-.1-.6-.4-1.2-.8-1.7v-.1h.1c1.3.5 1.9 1 1.9 1.6.1.5-.2.8-.6.8zm.7 2.1v-1.6h-1.9v1.6zm-1.9 2h1.9v-1.7h-1.9zm4.5 1.8h-3.7v1.5h3.7zm0 1.9h-3.7v1.6h3.7zm.8-7.3h-2.1v1.6h2.1zm0 1.9h-2.1v1.7h2.1z" fill="#333"/><path d="m100.9 28v9.4c0 .4-.2.6-.8.6s-.6-.2-.6-.5 0-1.6.1-3.5c-.8.6-1.7 1.2-2.6 1.6 0 .4-.1.6-.3.6s-.2 0-.9-1.8c.3 0 .6 0 .9-.1h.2v-5.6c0-.6 0-1.3-.1-1.9 1.7.2 1.8.3 1.8.4s-.1.3-.4.4v6.3c.5-.1 1-.2 1.4-.4 0-.9 0-1.9 0-3 .1-1.8 0-3.5-.1-5.3 1.7.1 1.9.2 1.9.4s-.1.2-.5.4zm5.4-1.2c.6-.7.7-.7.8-.7s.2.1.8.6c.3.3.4.4.4.5s-.1.3-.5.5c-.3 2.3-1.1 4.4-2.4 6.4 1 1.1 2.2 1.9 3.5 2.4.1 0 0 .2 0 .2-.4.1-.6.3-.8.9-.1.3-.1.3-.2.3-.2 0-.3-.1-.5-.2-1.1-.7-2-1.6-2.7-2.6-1 1.2-2.2 2.2-3.5 2.9 0 0-.2-.1-.1-.2 1.2-1 2.3-2.2 3.1-3.6-1.1-2.1-1.8-4.5-1.9-6.9-.2 0-.5 0-.7.1l-.2-.5c.4.1.8.1 1.2.1zm-3.6.4c.3 2.1 1 4.1 2.1 5.9.9-1.9 1.4-3.8 1.7-5.9z" fill="#333"/><path d="m193.8 399.6v-.5h1c.7 0 1.3-.3 1.8-.7.5-.5.7-1.1.7-1.8v-23.3c.1-.9-.2-1.8-.8-2.5-.6-.5-1.4-.7-2.2-.7h-.8v-.5c.6 0 1.5-.1 2.6-.2s2.3-.3 3.5-.6c1.2-.2 2.4-.5 3.6-.9 1-.3 2.1-.7 3-1.3h.5v29.9c0 .7.3 1.3.8 1.7.5.5 1.1.7 1.8.7h1v.5h-16.5z" fill="#4aa064"/><path d="m227.5 366.8c2.7-.1 5.4.6 7.7 2.1 2.1 1.4 3.8 3.5 4.9 5.8 2.3 5.6 2.3 11.9 0 17.6-1 2.4-2.7 4.4-4.9 5.9-4.7 2.8-10.6 2.8-15.3 0-2.2-1.4-3.9-3.5-4.9-5.9-2.3-5.6-2.3-11.9 0-17.6 1-2.4 2.7-4.4 4.9-5.8 2.2-1.5 4.9-2.2 7.6-2.1zm0 2.3c-1.6 0-2.8 1.2-3.5 3.5s-1.1 6-1.1 10.9.4 8.6 1.1 10.9 1.9 3.5 3.5 3.5 2.8-1.2 3.5-3.5 1.1-6 1.1-10.9-.4-8.6-1.1-10.9-1.9-3.5-3.5-3.5z" fill="#4aa064"/><path d="m245 399.6.1-.5h1c.7 0 1.3-.3 1.8-.7.5-.5.7-1.1.7-1.8v-23.3c.1-.9-.2-1.8-.8-2.5-.6-.5-1.4-.7-2.2-.7h-.8v-.5c.6 0 1.5-.1 2.6-.2s2.3-.3 3.5-.6c1.2-.2 2.5-.5 3.7-.9 1-.3 2.1-.7 3-1.3h.5v29.9c0 .7.3 1.3.8 1.7.5.5 1.1.7 1.8.7h1v.5h-16.7z" fill="#4aa064"/><path d="m55.8 222.9h255.6" fill="none" stroke="#ccc" stroke-miterlimit="10" stroke-width=".8"/><path d="m49.2 221.8c0 2.5-.9 4.1-2.5 4.1s-2.5-1.5-2.5-4.1.9-4.2 2.5-4.2 2.5 1.7 2.5 4.2zm-3.7 0c0 2.3.2 3.8 1.2 3.8s1.2-1.5 1.2-3.8-.2-3.8-1.2-3.8-1.2 1.5-1.2 3.8z" fill="#333"/><path d="m55.8 192h255.6" fill="none" stroke="#ccc" stroke-miterlimit="10" stroke-width=".8"/><path d="m31.9 190.8c.3-.6.9-.9 1.5-.9 1.4 0 2.1 1 2.1 2.4.1 1.3-.8 2.4-2.1 2.6-.1 0-.2 0-.3 0-1.5 0-2.5-1.2-2.5-3.1 0-1.7.8-3.2 2.2-4.1.6-.4 1.2-.8 1.8-1 .1 0 .1 0 .3.2s.1.3 0 .3c-.6 0-1.2.2-1.6.6-.8.8-1.4 1.9-1.4 3zm.1.5c-.1.2-.2.4-.1.7 0 1.8.5 2.6 1.2 2.6s1.1-1 1.1-2.2-.3-2-1.1-2c-.5 0-.9.3-1.1.9z" fill="#333"/><path d="m38.3 190c0 .2 0 .3-.1.6.9-.9 2.4-1 3.3-.1.5.5.7 1.1.7 1.8.2 1.3-.8 2.5-2.1 2.7-.2 0-.3 0-.5 0-.5 0-1.1-.1-1.6-.4-.4-.2-.7-.6-.7-.9s.3-.4.8-.4.6.5.7.8c.1.4.4.6.8.6.8 0 1.2-1 1.2-2.3s-.6-2-1.3-2c-.6 0-1.1.3-1.4.8-.1.1-.1.1-.3.1s-.2-.1-.1-.2c0-.1.1-.2.1-.3l.3-3.5s0-.1.1-.1c0 0 .1-.1.2-.1h1.6c.5 0 1.1 0 1.9-.1.1 0 .1.1.1.1l-.4 1-.1.1h-1.1-2z" fill="#333"/><path d="m49.2 190.8c0 2.5-.9 4.1-2.4 4.1s-2.5-1.5-2.5-4.1.9-4.2 2.5-4.2 2.4 1.7 2.4 4.2zm-3.7 0c0 2.3.2 3.8 1.2 3.8s1.2-1.5 1.2-3.8-.2-3.8-1.2-3.8-1.2 1.6-1.2 3.8z" fill="#333"/><path d="m55.8 130.1h255.6" fill="none" stroke="#ccc" stroke-miterlimit="10" stroke-width=".8"/><path d="m20.6 126.1c-.1 0-.1 0-.2-.1 0-.1 0-.2.1-.2.6-.2 1.6-.6 2.3-1 .1 0 .2 0 .2.1v2.4 3.4c0 1.1 0 1.2.1 1.5s.5.2.9.3c.1 0 .1.1.1.2s0 .1-.1.1c-.5 0-1.1 0-1.6 0s-1.2 0-1.7 0c-.1 0-.1 0-.1-.1s0-.2.1-.2c.5 0 .8 0 .9-.3.1-.5.2-1 .1-1.5v-3.9c0-.3 0-.6-.1-.8-.1-.1-.3-.1-.6 0z" fill="#333"/><path d="m27 134.3c0 .1-.1.1-.2 0s-.1-.2 0-.2c.5-.3.7-.7.7-1 0-.1-.2-.3-.3-.3s-.4-.1-.4-.4c0-.4.4-.7.8-.8.4.1.7.5.7.9s-.2 1-1.3 1.8z" fill="#333"/><path d="m34.1 129c-.3.5-.9.8-1.5.8-1.2 0-2.2-1-2.2-2.1 0-.1 0-.1 0-.2-.1-1.3.8-2.5 2.2-2.6h.3c1.5 0 2.5 1.3 2.5 3.2.1 1.7-.7 3.4-2.2 4.3-.5.4-1.1.6-1.8.8-.1 0-.2-.1-.3-.2s-.1-.3 0-.3c.5 0 1.1-.1 1.5-.4.9-.5 1.3-1.5 1.4-3.2zm-2.3-1.6c0 1.1.4 2 1.1 2 .5 0 .8-.3 1.1-1 .1-.2.1-.5.1-.7 0-1.5-.4-2.5-1.2-2.5s-1.1.9-1.1 2.2z" fill="#333"/><path d="m38.3 128.1c0 .2 0 .3-.1.6.9-.9 2.4-1 3.3-.1.5.5.8 1.1.7 1.8.1 1.3-.8 2.5-2.2 2.6-.1 0-.2 0-.3 0-.5 0-1.1-.1-1.6-.4-.4-.2-.7-.6-.7-.9s.3-.4.8-.4.6.5.7.8c.1.4.4.6.8.6.8 0 1.2-1 1.2-2.3s-.6-2-1.3-2c-.6 0-1.1.3-1.4.8-.1.1-.1.1-.3.1s-.2-.1-.1-.2c0-.1.1-.2.1-.3l.3-3.5c0-.1 0-.1.1-.1 0 0 .1-.1.2-.1h1.7 1.9c.1 0 .1 0 .1.1l-.4 1-.1.1h-1.1-2z" fill="#333"/><path d="m49.2 128.9c0 2.5-.9 4.1-2.4 4.1s-2.5-1.5-2.5-4.1.9-4.2 2.5-4.2 2.4 1.7 2.4 4.2zm-3.7 0c0 2.3.2 3.8 1.2 3.8s1.2-1.5 1.2-3.8-.2-3.8-1.2-3.8-1.2 1.6-1.2 3.8z" fill="#333"/><path d="m24 66.4c-2.5 2.3-2.7 6.1-.5 8.6.1.2.3.3.5.5.1.1.1.1.1.1v.1s-.1 0-.1-.1c-.8-.5-1.4-1.3-1.9-2.1-.9-1.5-.9-3.5 0-5 .5-.8 1.2-1.5 1.9-2.1-.1 0-.1 0 0 0z" fill="#333"/><path d="m26.5 70.4c-.3.4-.5.7-.8 1 0 0-.1 0-.1-.1.6-1 1-2.2 1.3-3.3.1-.5.2-1 .2-1.4 1.1.3 1.3.3 1.3.5s0 .1-.4.2c-.2.8-.6 1.6-1 2.3.5.1.6.1.6.2s-.1.1-.3.2v5c0 .3-.2.4-.5.4s-.4-.1-.4-.4.1-1 .1-2.5zm2.3 3.5c0 .6-.3 1.1-.7 1.1-.2 0-.4-.2-.4-.4 0-.2.1-.4.4-.5.4-.1.6-.4.6-.8 0-.1.1-.1.1 0zm.5-6c.7.2 1 .5 1 .9 0 .2-.2.4-.4.4h1.6c.1-.2.2-.4.2-.7.1-.2.1-.4.1-.6.8.2 1.1.3 1.1.4s-.1.1-.3.2c-.2.3-.5.5-.8.7h1.3c.4-.5.5-.6.6-.6s.2.1.6.4c.2.1.2.2.2.3s0 .1-.1.1h-6c-.2 0-.5 0-.7.1l-.1-.4c.3.1.5.1.8.1h1.3c-.1 0-.2-.1-.2-.3 0-.4-.2-.7-.4-1h-.1c-.2 0-.5 0-.7.1l-.1-.3c.3 0 .5.1.8.1h1.5v-.6c0-.2 0-.4 0-.6 1.1.1 1.2.2 1.2.3s-.1.2-.3.2v.6h1.4c.4-.5.5-.6.6-.6s.2.1.6.4c.2.2.3.2.3.3s0 .1-.1.1zm0 4.6c0 .2-.2.3-.5.3s-.4-.1-.4-.3 0-.3 0-1 0-1.1-.1-1.7c.3.1.7.3 1 .4h3c.3-.3.4-.4.5-.4s.2.1.5.3c.1.1.2.2.2.3s-.1.1-.2.3v.3 1.5s-.2.4-.5.4-.4-.1-.4-.3zm3.2-2h-3.1v.8h3.2zm0 1h-3.1v.8h3.2zm.1 2.7c0 .1 0 .2.1.2s.3.1.3.3-.1.3-.5.4c-.5.1-1 .2-1.5.1-1.2 0-1.6-.2-1.6-.7 0-.2 0-.4 0-1.2 0-.1 0-.3 0-.4 1 .1 1.1.1 1.1.3s-.1.2-.3.2v.8c0 .3.1.3.9.3.3 0 .6 0 .8-.1.3-.1.3-.3.6-1h.1zm-1.3-.1c-.2 0-.2 0-.4-.5-.1-.3-.2-.5-.4-.7v-.1c.8.1 1.2.4 1.2.8 0 .3-.1.4-.4.5zm2.7.8c-.2 0-.3-.1-.4-.6-.1-.4-.3-.7-.5-1v-.1c1 .3 1.4.7 1.4 1.2-.1.2-.3.4-.5.5z" fill="#333"/><path d="m37.9 75c0 .2-.2.4-.6.4s-.4-.1-.4-.3c0-.9.1-1.7.1-5.2 0-1 0-2-.1-3l1.1.5h5.4c.3-.4.4-.5.5-.5s.2.1.5.4c.2.2.2.2.2.3s-.1.2-.2.3v1.1 5.4s-.1.6-.4.8c-.2.1-.4.1-.6.1s-.2-.1-.2-.3-.2-.6-1.1-.8v-.1h1.3c.1 0 .2 0 .2-.2v-3.2h-5.5v4.3zm2.3-4.3v-3.1h-2.3v3.1zm3.3-3.1h-2.4v3.1h2.4z" fill="#333"/><path d="m47 66.4c.8.5 1.5 1.3 2 2.1.9 1.5.9 3.5 0 5-.5.8-1.2 1.5-2 2.1-.1 0-.1.1-.1.1s0 0 0-.1 0-.1.1-.1c2.5-2.2 2.7-6 .5-8.5-.3-.2-.4-.4-.5-.6-.1.1-.1.1 0 0-.1-.1-.1-.1 0 0 0-.1 0 0 0 0z" fill="#333"/><path d="m55.8 99.1h255.6" fill="none" stroke="#ccc" stroke-miterlimit="10" stroke-width=".8"/><path d="m22.5 100.8c.9 0 1.1-.1 1.4-.3s.5-.5.6-.8c0-.1.1-.1.2-.1s.1.1.1.1c-.1.6-.4 1.5-.6 2.1-.8 0-1.3 0-2.1 0s-1.5 0-2.2 0c-.1 0-.1 0-.1-.2 0-.1 0-.2.1-.3.6-1 1.2-1.9 1.9-2.8.9-1.2 1.5-1.8 1.5-2.8s-.3-1.6-1-1.6c-.4 0-.8.2-.9.6-.1.3-.1.5-.1.8s-.4.5-.8.5-.5-.1-.5-.4c.2-1.1 1.2-1.9 2.4-1.9 1.1-.2 2.1.6 2.3 1.7v.2c0 1.4-1 1.9-2.1 3-.7.6-1.3 1.2-1.8 2z" fill="#333"/><path d="m27 103.4s-.1 0-.2 0-.1-.2 0-.2c.5-.3.7-.7.7-1 0-.2-.2-.3-.3-.3s-.4-.1-.4-.4c0-.4.4-.7.8-.8.4.1.7.5.7.9 0 .3-.2 1-1.3 1.8z" fill="#333"/><path d="m31.9 98c.3-.6.8-.9 1.5-.9 1.4 0 2.1 1 2.1 2.4.1 1.3-.8 2.4-2.1 2.6-.1 0-.2 0-.3 0-1.5 0-2.5-1.2-2.5-3.1 0-1.7.8-3.2 2.2-4.2.6-.4 1.2-.8 1.8-1 .1 0 .1 0 .3.2s.1.3 0 .3c-.6 0-1.2.2-1.6.6-.8.8-1.4 1.9-1.4 3.1zm.1.4c-.1.2-.2.4-.1.7 0 1.8.5 2.6 1.2 2.6s1.1-1 1.1-2.2-.3-2-1.1-2c-.5 0-.9.4-1.1.9z" fill="#333"/><path d="m42.3 98c0 2.5-.9 4.1-2.5 4.1s-2.5-1.5-2.5-4.1.9-4.2 2.5-4.2 2.5 1.7 2.5 4.2zm-3.6 0c0 2.3.2 3.8 1.2 3.8s1.1-1.5 1.1-3.8-.2-3.8-1.2-3.8-1.1 1.5-1.1 3.8z" fill="#333"/><path d="m49.2 98c0 2.5-.9 4.1-2.4 4.1s-2.5-1.5-2.5-4.1.9-4.2 2.5-4.2 2.4 1.7 2.4 4.2zm-3.7 0c0 2.3.2 3.8 1.2 3.8s1.2-1.5 1.2-3.8-.2-3.8-1.2-3.8-1.2 1.5-1.2 3.8z" fill="#333"/><path d="m55.8 161h255.6" fill="none" stroke="#ccc" stroke-miterlimit="10" stroke-width=".8"/><path d="m20.6 157c-.1 0-.1 0-.2-.1 0-.1 0-.2.1-.2.6-.2 1.6-.6 2.3-1 .1 0 .2.1.2.1v2.4 3.4c0 1.1 0 1.2.1 1.5s.5.2.9.3c.1 0 .1 0 .1.2s0 .1-.1.1c-.5 0-1.1 0-1.6 0s-1.2 0-1.7 0c-.1 0-.1 0-.1-.1s0-.1.1-.2c.5 0 .8-.1.9-.3.1-.5.2-1 .1-1.5v-3.9c0-.3 0-.6-.1-.9-.1-.1-.3-.1-.6 0z" fill="#333"/><path d="m27 165.3s-.1 0-.2-.1-.1-.2 0-.2c.5-.3.7-.7.7-1 0-.1-.2-.3-.3-.4s-.4-.1-.4-.4c0-.4.4-.7.8-.8.4.1.7.5.7.9 0 .5-.2 1.2-1.3 2z" fill="#333"/><path d="m33.4 159.6c1.3.3 2 1 2 2.1.1 1.3-.9 2.3-2.2 2.4-.1 0-.2 0-.3 0-.6 0-1.1-.1-1.6-.4-.4-.2-.7-.6-.7-.9s.3-.5.8-.5.6.5.7.8c.1.4.4.7.8.6.8 0 1.2-.8 1.2-2.1 0-.8-.3-1.9-1.4-1.8h-.5c-.1 0-.1 0-.1-.2s.1-.2.2-.2h.4c.6 0 1.2-.5 1.2-1.7 0-.8-.3-1.5-.9-1.5-.3 0-.7.2-.8.5-.1.2-.1.4-.1.6 0 .4-.4.6-.8.6s-.5-.1-.5-.4c.3-1 1.2-1.7 2.3-1.6 1.1-.1 2 .6 2.2 1.7v.2c-.1 1-.9 1.5-1.9 1.8z" fill="#333"/><path d="m42.3 159.9c0 2.5-.9 4.1-2.5 4.1s-2.5-1.5-2.5-4.1.9-4.2 2.5-4.2 2.5 1.7 2.5 4.2zm-3.6 0c0 2.3.2 3.8 1.2 3.8s1.1-1.4 1.1-3.7-.2-3.8-1.2-3.8-1.1 1.4-1.1 3.7z" fill="#333"/><path d="m49.2 159.9c0 2.5-.9 4.1-2.4 4.1s-2.5-1.5-2.5-4.1.9-4.2 2.5-4.2 2.4 1.7 2.4 4.2zm-3.7 0c0 2.3.2 3.8 1.2 3.8s1.2-1.5 1.2-3.8-.2-3.8-1.2-3.8-1.2 1.5-1.2 3.8z" fill="#333"/><path d="m127.5 239.3c.9 0 1.1-.1 1.4-.3.2-.2.5-.5.6-.8 0-.1.1-.1.2-.1s.1.1.1.1c-.1.6-.4 1.5-.6 2.1-.7 0-1.3 0-2.1 0s-1.4 0-2.2 0c-.1 0-.1 0-.1-.2 0-.1 0-.2.1-.3.6-1 1.2-1.9 1.9-2.8.9-1.2 1.5-1.8 1.5-2.8s-.3-1.6-.9-1.6c-.4 0-.8.2-.9.6-.1.3-.1.5-.1.8s-.4.5-.8.5-.5-.1-.5-.4c.2-1.1 1.2-1.9 2.4-1.9 1.1-.1 2.1.6 2.3 1.7v.2c0 1.4-1 1.9-2.1 3-.7.6-1.3 1.2-1.8 2z" fill="#333"/><path d="m136.5 236.4c0 2.5-.9 4.1-2.4 4.1s-2.5-1.5-2.5-4.1.9-4.2 2.5-4.2 2.4 1.7 2.4 4.2zm-3.6 0c0 2.3.2 3.8 1.2 3.8s1.2-1.5 1.2-3.8-.2-3.8-1.2-3.8-1.2 1.6-1.2 3.8z" fill="#333"/><path d="m139.3 233.6c-.1 0-.1 0-.2-.1s0-.1.1-.2c.6-.2 1.6-.6 2.3-1 .1 0 .2.1.2.1v2.4 3.4c0 1.1 0 1.2.1 1.5s.5.2.9.3c.1 0 .1 0 .1.2s0 .2-.1.2c-.5 0-1.1 0-1.6 0s-1.2 0-1.7 0c-.1 0-.1 0-.1-.2s0-.1.1-.2c.5 0 .8-.1.9-.3.1-.5.2-1 .1-1.5v-3.9c0-.3 0-.6-.1-.9-.1-.1-.3-.1-.6 0z" fill="#333"/><path d="m150.2 238.3c-.1 1.4-1.3 2.4-2.6 2.3-1.2-.1-2.1-1-2.3-2.2 0-.9.7-1.5 1.7-2-.9-.3-1.5-1.2-1.5-2.1.1-1.1 1.1-2 2.2-1.9 1.3 0 2.2.8 2.2 1.8 0 .8-.5 1.3-1.4 1.8 1 .2 1.7 1.2 1.7 2.3zm-3.8.1c0 1.1.5 1.8 1.3 1.8s1.3-.7 1.3-1.8c0-.8-.4-1.3-1.8-1.9-.5.5-.9 1.2-.8 1.9zm2.5-4.3c0-.9-.5-1.4-1.1-1.4-.7 0-1.2.6-1.2 1.2v.1c0 .6.2 1 1.6 1.6.5-.3.7-.9.7-1.5z" fill="#333"/><path d="m160.1 238.1c.6-.7.7-.8.8-.8s.2.1.8.6c.3.2.4.3.4.4s0 .1-.1.1h-3.8v2.7s-.2.5-.7.5-.5-.1-.5-.4 0-1.1 0-2.8h-4c-.3 0-.5 0-.8.1l-.1-.4c.3.1.6.1.9.1h1v-1.5c0-.6 0-1.1 0-1.6.4.1.8.3 1.1.5h1.8v-2h-2c-.6 1-1.5 1.8-2.5 2.4-.1 0-.2 0-.1-.1.8-.9 1.5-2 1.9-3.1.2-.4.3-.8.4-1.3 1.2.3 1.5.5 1.5.7s-.1.2-.5.2c-.2.4-.3.6-.5.9h4.7c.6-.7.7-.8.8-.8s.2.1.8.5c.3.2.3.3.3.4s0 .1-.1.1h-3.5v2h1.3c.6-.6.6-.7.7-.7s.2.1.8.5c.2.2.3.3.3.4s0 .1-.2.1h-2.9v.4 2zm-3.1-2.4h-1.9v2.4h1.9z" fill="#333"/><path d="m167.8 234.5v-.2c0-.3 0-.6 0-.9 1.2.1 1.3.1 1.3.3s-.1.1-.3.2v.6h1.9v-.4c0-.3 0-.5 0-.8 1 .1 1.3.2 1.3.3s-.1.1-.3.3v.6h.7c.4-.6.6-.6.7-.6s.2.1.7.4c.2.2.3.3.3.3s0 .1-.1.1h-2.2v1.7s-.2.4-.6.4-.4-.1-.4-.4v-.1h-1.9v.1c0 .3-.2.4-.6.4s-.4-.1-.4-.4 0-.8 0-1.8h-1.6c0 1.2-.1 2.4-.4 3.5s-.8 2.2-1.5 3.1c0 0-.1 0-.1-.1.4-1.2.7-2.4.8-3.6.1-.9.1-1.9.1-3.2 0-.9 0-1.6-.1-2.4.4.2.9.4 1.2.6h2.7v-.5c0-.2 0-.4-.1-.6 1.3.1 1.5.2 1.5.4s-.1.2-.4.3v.6h2.4c.5-.6.6-.7.7-.7s.2.1.8.5c.2.2.3.3.3.4s0 .1-.1.1h-7.9v.9.6zm3.4 3c.4-.5.5-.5.6-.5s.2.1.6.5c.2.2.3.3.3.4s-.1.2-.6.3c-.4.6-.9 1.1-1.5 1.5 1.2.4 2.4.7 3.7.7.1 0 0 .1 0 .1-.4.1-.5.3-.7.8 0 .1-.1.2-.2.2-.2 0-.5-.1-.7-.1-.9-.2-1.8-.6-2.7-1.1l-.2-.1c-1.4.8-2.9 1.2-4.5 1.3 0 0-.1-.2 0-.2 1.4-.3 2.7-.9 3.9-1.7-.6-.5-1-1.2-1.4-1.9h-.7c-.2 0-.4 0-.6.1l-.1-.4c.3.1.5.1.8.1zm-3 .2c.4.6 1 1.1 1.6 1.5.5-.4 1-1 1.4-1.5zm2.5-1.6v-1.4h-1.9v1.4z" fill="#333"/><path d="m59 239.3c.9 0 1.1-.1 1.4-.3s.5-.5.6-.8c0-.1.1-.1.2-.1s.1.1.1.1c-.1.6-.4 1.5-.6 2.1-.8 0-1.3 0-2.1 0s-1.5 0-2.2 0c-.1 0-.2 0-.2-.2 0-.1 0-.2.1-.3.6-1 1.2-1.9 1.9-2.8.9-1.2 1.5-1.8 1.5-2.8s-.3-1.6-1-1.6c-.4 0-.8.2-.9.6-.1.3-.1.5-.1.8s-.4.5-.8.5-.5-.1-.5-.4c.2-1.1 1.2-1.9 2.4-1.9 1.1-.2 2.1.6 2.3 1.7v.2c0 1.4-1 1.9-2.1 3-.7.6-1.3 1.2-1.8 2z" fill="#333"/><path d="m68.1 236.4c0 2.5-.9 4.1-2.5 4.1-1.5 0-2.5-1.5-2.5-4.1s.9-4.2 2.5-4.2 2.5 1.7 2.5 4.2zm-3.7 0c0 2.3.2 3.8 1.2 3.8.9 0 1.2-1.5 1.2-3.8s-.2-3.8-1.2-3.8c-.9.1-1.2 1.6-1.2 3.8z" fill="#333"/><path d="m70.8 233.6c-.1 0-.2 0-.2-.1s0-.1.1-.2c.6-.2 1.6-.6 2.3-1 .1 0 .2.1.2.1v2.4 3.4c0 1.1 0 1.2.1 1.5s.5.2.9.3c.1 0 .1 0 .1.2s0 .2-.1.2c-.5 0-1.1 0-1.6 0s-1.2 0-1.7 0c-.1 0-.1 0-.1-.2s0-.1.1-.2c.5 0 .8-.1.9-.3.1-.5.2-1 .1-1.5v-3.9c0-.3 0-.6-.1-.9-.1-.1-.3-.1-.7 0z" fill="#333"/><path d="m78.6 233.6c-.6 0-.8.1-.9.2-.2.2-.3.5-.4.7 0 .1-.1.1-.2.1s-.1-.1-.1-.1c.1-.6.2-1.4.3-2h2.2s1.4 0 2.1 0c.1 0 .1 0 .1.2v.3c-.9 1.5-1.5 3.1-1.9 4.8-.1.5-.2 1-.2 1.4v.7s-.4.6-.8.6-.7-.1-.7-.5c.1-1 .3-1.9.8-2.8.6-1.3 1.3-2.5 2.1-3.7z" fill="#333"/><path d="m91.7 238.1c.6-.7.7-.8.8-.8s.2.1.8.6c.3.2.3.3.3.4s0 .1-.1.1h-3.8v2.7s-.2.5-.7.5-.5-.1-.5-.4 0-1.1 0-2.8h-3.8c-.3 0-.5 0-.8.1l-.1-.4c.3.1.6.1.9.1h1v-1.5c0-.6 0-1.1 0-1.6.4.1.8.3 1.2.5h1.8v-2h-2c-.6 1-1.5 1.8-2.5 2.4 0 0-.2 0-.1-.1.8-.9 1.5-2 1.9-3.1.2-.4.3-.8.4-1.3 1.2.3 1.5.5 1.5.7s-.1.2-.5.2c-.2.4-.3.6-.5.9h4.7c.6-.7.7-.8.8-.8s.2.1.8.5c.2.2.3.3.3.4s0 .1-.2.1h-3.6v2h1.3c.6-.6.6-.7.7-.7s.2.1.8.5c.2.2.3.3.3.4s0 .1-.2.1h-2.9v.4 2zm-3.1-2.4h-1.9v2.4h1.9z" fill="#333"/><path d="m99.4 234.5v-.2c0-.3 0-.6 0-.9 1.2.1 1.3.1 1.3.3s-.1.1-.3.2v.6h1.9v-.4c0-.3 0-.6 0-.8 1 .1 1.3.2 1.3.3s0 .1-.3.3v.6h.7c.4-.6.6-.6.7-.6s.2.1.7.4c.2.2.3.3.3.3s0 .1-.1.1h-2.3v1.7s-.2.4-.6.4-.4-.1-.4-.4v-.1h-1.9v.1c0 .3-.2.4-.6.4s-.4-.1-.4-.4 0-.8 0-1.8h-1.5c0 1.2-.1 2.4-.4 3.5s-.8 2.2-1.5 3.1c0 0-.2 0-.1-.1.4-1.2.7-2.4.8-3.6.1-.9.1-1.9.1-3.2 0-.9 0-1.6-.1-2.4.4.2.9.3 1.3.6h2.7v-.5c0-.2 0-.4-.1-.6 1.3.1 1.5.2 1.5.4s-.1.2-.4.3v.6h2.4c.5-.6.6-.7.7-.7s.2.1.8.5c.2.2.3.3.3.4s0 .1-.1.1h-7.9v.9.6zm3.4 3c.4-.5.5-.5.6-.5s.2.1.7.5c.2.2.3.3.3.4s-.2.2-.6.3c-.4.6-.9 1.1-1.5 1.5 1.2.4 2.4.7 3.7.7.1 0 0 .1 0 .1-.4.1-.5.3-.7.8 0 .1-.1.2-.2.2-.2 0-.5-.1-.7-.1-.9-.2-1.8-.6-2.7-1.1l-.2-.1c-1.4.8-3 1.2-4.6 1.3-.1 0-.1-.2 0-.2 1.4-.3 2.7-.9 3.9-1.7-.6-.5-1-1.2-1.4-1.9h-.7c-.2 0-.4 0-.7.1l-.1-.4c.3.1.5.1.8.1zm-3 .2c.4.6 1 1.1 1.6 1.5.5-.4 1-1 1.4-1.5zm2.5-1.6v-1.4h-2v1.4z" fill="#333"/><path d="m195.9 239.3c.9 0 1.1-.1 1.4-.3s.5-.5.6-.8c0-.1.1-.1.2-.1s.1.1.1.1c-.1.6-.4 1.5-.6 2.1-.8 0-1.3 0-2.1 0s-1.5 0-2.2 0c-.1 0-.1 0-.1-.2 0-.1 0-.2.1-.3.6-1 1.2-1.9 1.9-2.8.9-1.2 1.5-1.8 1.5-2.8s-.3-1.6-.9-1.6c-.4 0-.8.2-.9.6-.1.3-.1.5-.1.8s-.4.5-.8.5-.5-.1-.5-.4c.2-1.1 1.2-1.9 2.4-1.9 1.1-.2 2.1.6 2.3 1.7v.2c0 1.4-1 1.9-2.1 3-.7.6-1.3 1.2-1.8 2z" fill="#333"/><path d="m204.9 236.4c0 2.5-.9 4.1-2.4 4.1s-2.5-1.5-2.5-4.1.9-4.2 2.5-4.2 2.4 1.7 2.4 4.2zm-3.6 0c0 2.3.2 3.8 1.2 3.8s1.1-1.5 1.1-3.8-.2-3.8-1.1-3.8-1.2 1.6-1.2 3.8z" fill="#333"/><path d="m207.7 233.6c-.1 0-.1 0-.2-.1s0-.1.1-.2c.6-.2 1.6-.6 2.3-1 .1 0 .2.1.2.1v2.4 3.4c0 1.1 0 1.2.1 1.5s.5.2.9.3c.1 0 .1 0 .1.2s0 .2-.1.2c-.5 0-1.1 0-1.6 0s-1.1 0-1.7 0c-.1 0-.1 0-.1-.2s0-.1.1-.2c.5 0 .8-.1.9-.3.1-.5.2-1 .1-1.5v-3.9c0-.3 0-.6-.1-.9-.1-.1-.3-.1-.6 0z" fill="#333"/><path d="m217.3 236.5c-.3.5-.9.8-1.4.8-1.2 0-2.2-1-2.2-2.1 0-.1 0-.1 0-.2-.1-1.3.9-2.5 2.2-2.6h.2c1.5 0 2.5 1.3 2.5 3.1.1 1.7-.7 3.4-2.2 4.3-.5.4-1.1.6-1.8.8-.1 0-.2-.1-.3-.2s-.1-.3.1-.3c.5 0 1.1-.1 1.5-.4.9-.5 1.3-1.5 1.4-3.2zm-2.3-1.6c0 1.1.4 2 1.1 2 .5 0 .8-.3 1.1-1 .1-.2.1-.5.1-.7 0-1.5-.4-2.5-1.2-2.5s-1.1 1-1.1 2.2z" fill="#333"/><path d="m228.5 238.1c.6-.7.7-.8.8-.8s.2.1.8.6c.3.2.4.3.4.4s0 .1-.1.1h-3.8v2.7s-.2.5-.7.5-.5-.1-.5-.4 0-1.1 0-2.8h-3.9c-.3 0-.5 0-.8.1l-.1-.4c.3.1.6.1.9.1h1v-1.5c0-.6 0-1.1-.1-1.6.4.1.8.3 1.2.5h1.8v-2h-2c-.6 1-1.5 1.8-2.5 2.4 0 0-.1 0-.1-.1.8-.9 1.5-2 1.9-3.1.2-.4.3-.8.4-1.3 1.2.3 1.5.5 1.5.7s-.1.2-.5.2c-.2.4-.3.6-.5.9h4.7c.6-.7.7-.8.8-.8s.2.1.8.5c.2.2.3.3.3.4s0 .1-.1.1h-3.5v2h1.3c.6-.6.6-.7.7-.7s.2.1.8.5c.3.2.3.3.3.4s0 .1-.2.1h-2.9v.4 2zm-3.1-2.4h-1.9v2.4h1.9z" fill="#333"/><path d="m236.2 234.5v-.2c0-.3 0-.6 0-.9 1.2.1 1.3.1 1.3.3s-.1.1-.3.2v.6h1.9v-.4c0-.3 0-.5 0-.8 1 .1 1.3.2 1.3.3s0 .1-.3.3v.6h.7c.4-.6.6-.6.7-.6s.2.1.7.4c.2.2.3.3.3.3s0 .1-.1.1h-2.2v1.7s-.2.4-.6.4-.4-.1-.4-.4v-.1h-1.9v.1c0 .3-.2.4-.6.4s-.4-.1-.4-.4 0-.8 0-1.8h-1.6c0 1.2-.1 2.4-.4 3.5s-.8 2.2-1.5 3.1c0 0-.1 0-.1-.1.4-1.2.7-2.4.8-3.6.1-.9.1-1.9.1-3.2 0-.9 0-1.6-.1-2.4.4.2.9.4 1.2.6h2.7v-.5c0-.2 0-.4-.1-.6 1.3.1 1.5.2 1.5.4s-.1.2-.4.3v.6h2.4c.5-.6.6-.7.7-.7s.2.1.7.5c.2.2.3.3.3.4s0 .1-.1.1h-7.9v.9.6zm3.4 3c.4-.5.5-.5.6-.5s.2.1.6.5c.2.2.3.3.3.4s-.2.2-.6.3c-.4.6-.9 1.1-1.5 1.5 1.2.4 2.4.7 3.7.7.1 0 0 .1 0 .1-.4.1-.5.3-.7.8 0 .1-.1.2-.2.2-.2 0-.5-.1-.7-.1-.9-.2-1.8-.6-2.7-1.1l-.2-.1c-1.4.8-2.9 1.2-4.5 1.3 0 0-.1-.2 0-.2 1.4-.3 2.7-.9 3.9-1.7-.6-.5-1-1.2-1.4-1.9h-.7c-.2 0-.4 0-.6.1l-.1-.4c.3.1.5.1.8.1zm-3 .2c.4.6 1 1.1 1.6 1.5.5-.4 1-1 1.4-1.5zm2.5-1.6v-1.4h-1.9v1.4z" fill="#333"/><path d="m264.3 239.3c.9 0 1.1-.1 1.4-.3s.5-.5.6-.8c0-.1.1-.1.2-.1s.1.1.1.1c-.1.6-.4 1.5-.6 2.1-.8 0-1.3 0-2.1 0s-1.5 0-2.2 0c-.1 0-.1 0-.1-.2 0-.1 0-.2.1-.3.6-1 1.2-1.9 1.9-2.8.9-1.2 1.5-1.8 1.5-2.8s-.3-1.6-1-1.6c-.4 0-.8.2-.9.6-.1.3-.1.5-.1.8s-.4.5-.8.5-.5-.1-.5-.4c.2-1.1 1.2-1.9 2.4-1.9 1.1-.2 2.1.6 2.3 1.7v.2c0 1.4-1 1.9-2.1 3-.7.6-1.3 1.2-1.8 2z" fill="#333"/><path d="m273.4 236.4c0 2.5-.9 4.1-2.5 4.1s-2.5-1.5-2.5-4.1.9-4.2 2.5-4.2 2.5 1.7 2.5 4.2zm-3.7 0c0 2.3.2 3.8 1.2 3.8s1.2-1.5 1.2-3.8-.2-3.8-1.2-3.8-1.2 1.6-1.2 3.8z" fill="#333"/><path d="m278 239.3c.9 0 1.1-.1 1.4-.3s.5-.5.6-.8c0-.1.1-.1.2-.1s.1.1.1.1c-.1.6-.4 1.5-.6 2.1-.8 0-1.3 0-2.1 0s-1.5 0-2.2 0c-.1 0-.1 0-.1-.2 0-.1 0-.2.1-.3.6-1 1.2-1.9 1.9-2.8.9-1.2 1.5-1.8 1.5-2.8s-.3-1.6-1-1.6c-.4 0-.8.2-.9.6-.1.3-.1.5-.1.8s-.4.5-.8.5-.5-.1-.5-.4c.2-1.1 1.2-1.9 2.4-1.9 1.1-.2 2.1.6 2.3 1.7v.2c0 1.4-1 1.9-2.1 3-.7.6-1.3 1.2-1.8 2z" fill="#333"/><path d="m287 236.4c0 2.5-.9 4.1-2.4 4.1s-2.5-1.5-2.5-4.1.9-4.2 2.5-4.2 2.4 1.7 2.4 4.2zm-3.6 0c0 2.3.2 3.8 1.2 3.8s1.1-1.5 1.1-3.8-.2-3.8-1.1-3.8-1.2 1.6-1.2 3.8z" fill="#333"/><path d="m296.9 238.1c.6-.7.7-.8.8-.8s.2.1.8.6c.3.2.4.3.4.4s0 .1-.1.1h-3.8v2.7s-.2.5-.7.5-.5-.1-.5-.4 0-1.1 0-2.8h-3.8c-.3 0-.5 0-.8.1l-.1-.4c.3.1.6.1.9.1h1v-1.5c0-.6 0-1.1 0-1.6.4.1.8.3 1.1.5h1.8v-2h-2c-.6 1-1.5 1.8-2.5 2.4 0 0-.1 0-.1-.1.8-.9 1.5-2 1.9-3.1.2-.4.3-.8.4-1.3 1.2.3 1.5.5 1.5.7s-.1.2-.5.2c-.2.4-.3.6-.5.9h4.7c.6-.7.7-.8.8-.8s.2.1.8.5c.2.2.3.3.3.4s0 .1-.1.1h-3.6v2h1.3c.6-.6.6-.7.7-.7s.2.1.8.5c.2.2.3.3.3.4s0 .1-.2.1h-2.9v.4 2zm-3-2.4h-1.9v2.4h1.9z" fill="#333"/><path d="m304.7 234.5v-.2c0-.3 0-.6 0-.9 1.2.1 1.3.1 1.3.3s-.1.1-.3.2v.6h1.9v-.4c0-.3 0-.6 0-.8 1 .1 1.3.2 1.3.3s-.1.1-.3.3v.6h.7c.5-.6.6-.6.7-.6s.2.1.7.4c.2.2.3.3.3.3s0 .1-.1.1h-2.2v1.7s-.2.4-.6.4-.4-.1-.4-.4v-.1h-1.9v.1c0 .3-.2.4-.6.4s-.4-.1-.4-.4 0-.8 0-1.8h-1.5c0 1.2-.1 2.4-.4 3.5s-.8 2.2-1.5 3.1c0 0-.1 0-.1-.1.4-1.2.7-2.4.8-3.6.1-.9.1-1.9.1-3.2 0-.9 0-1.6-.1-2.4.4.2.9.3 1.3.6h2.7v-.5c0-.2 0-.4-.1-.6 1.3.1 1.5.2 1.5.4s-.1.2-.4.3v.6h2.4c.5-.6.6-.7.7-.7s.2.1.8.5c.2.2.3.3.3.4s0 .1-.1.1h-7.9v.9.6zm3.4 3c.5-.5.5-.5.6-.5s.2.1.6.5c.2.2.3.3.3.4s-.1.2-.6.3c-.4.6-.9 1.1-1.5 1.5 1.2.4 2.4.7 3.7.7.1 0 0 .1 0 .1-.4.1-.5.3-.7.8 0 .1-.1.2-.2.2-.2 0-.5-.1-.7-.1-.9-.2-1.8-.6-2.7-1.1l-.2-.1c-1.4.8-2.9 1.2-4.5 1.3-.1 0-.1-.2 0-.2 1.4-.3 2.7-.9 3.9-1.7-.6-.5-1-1.2-1.4-1.9h-.7c-.2 0-.4 0-.6.1l-.1-.4c.3.1.5.1.8.1zm-3 .2c.4.6 1 1.1 1.6 1.5.5-.4 1-1 1.4-1.5zm2.5-1.6v-1.4h-1.9v1.4z" fill="#333"/><path d="m60.4 122.4h46v18.7h-46z" fill="#fff"/><path d="m124.4 118.1h54.1v20.2h-54.1z" fill="#fff"/><path d="m191.6 91.3h58.2v26.9h-58.2z" fill="#fff"/><path d="m64.7 137.6v-.2h.3c.5 0 .9-.4.9-.9v-8.1c0-.3-.1-.6-.3-.9-.2-.2-.5-.3-.8-.2h-.3v-.2c.2 0 .5 0 .9-.1s.8-.1 1.2-.2.9-.2 1.3-.3.7-.3 1-.4h.2v10.4c0 .2.1.4.3.6s.4.3.6.2h.3v.2z" fill="#4aa064"/><path d="m71.9 135.3c.2-.2.5-.3.8-.3s.6.1.8.2c.3.2.5.4.6.7.2.5.3.9.2 1.4s-.2.9-.5 1.3-.6.7-1 .9-.9.3-1.3.2l-.1-.2c.2-.1.4-.2.5-.4.2-.2.2-.5.2-.7 0-.3-.2-.7-.4-.9s-.3-.5-.4-.8 0-.6.1-.8c.2-.3.3-.5.5-.6z" fill="#4aa064"/><path d="m84 125.9c-.9.4-1.8.8-2.7 1.3-.6.4-1.1.9-1.4 1.5s-.5 1.2-.6 1.9c-.1.8-.1 1.6-.1 2.4 0 .9 0 1.6.1 2.2 0 .5.1.9.3 1.3.2.3.5.5.8.4.3 0 .7-.1.9-.4s.4-.6.4-1c.1-.4.1-.9.1-1.4s0-1-.1-1.4c0-.3-.1-.5-.3-.8-.1-.2-.2-.3-.4-.3-.2-.1-.5-.1-.7 0s-.4.1-.5.2l-.1-.1c.1-.3.4-.6.7-.8s.7-.4 1.1-.4c.4-.1.8 0 1.3.1.4.1.8.3 1.2.6s.7.7.9 1.1c.2.6.3 1.2.3 1.8 0 .7-.2 1.4-.5 2-.4.6-.9 1.1-1.5 1.4-.8.4-1.7.6-2.6.6s-1.8-.1-2.7-.5c-.7-.4-1.3-1-1.7-1.7-.4-.9-.6-2-.6-3s.2-2.1.5-3.1c.3-.9.9-1.6 1.6-2.2.8-.6 1.6-1.1 2.6-1.3 1.2-.5 2.5-.5 3.7-.4z" fill="#4aa064"/><path d="m86.4 137.6v-.2h.3c.5 0 .9-.4.9-.9v-8.1c0-.3-.1-.6-.3-.9-.2-.2-.5-.3-.8-.2h-.3v-.2c.2 0 .5 0 .9-.1s.8-.1 1.2-.1c.4-.1.9-.2 1.3-.3s.7-.3 1-.4h.2v10.4c0 .2.1.5.3.6.2.2.4.3.6.2h.3v.2z" fill="#4aa064"/><path d="m94.4 138.2-.1-.1c.9-.2 1.8-.6 2.7-1.1.6-.4 1.1-.9 1.4-1.5s.5-1.2.6-1.9.1-1.5.1-2.4 0-1.6-.1-2.2c0-.5-.1-.9-.3-1.3-.2-.3-.5-.5-.8-.4-.3 0-.7.1-.9.4s-.4.6-.4 1c-.1.4-.1.9-.1 1.4s0 1 .1 1.4c0 .3.1.5.3.8.1.1.2.3.4.3.2.1.5.1.7 0s.4-.1.5-.2l.1.1c-.1.3-.4.6-.7.8s-.7.4-1.1.4c-.4.1-.8 0-1.3-.1-.4-.1-.8-.3-1.2-.6s-.7-.7-.8-1.1c-.2-.6-.3-1.2-.3-1.8 0-.7.2-1.4.5-1.9.4-.6.9-1.1 1.5-1.4.8-.4 1.7-.6 2.6-.5 1.3-.1 2.6.3 3.6 1.2.9 1.1 1.4 2.6 1.3 4 0 1-.2 2.1-.5 3.1-.3.9-.9 1.6-1.6 2.2s-1.6 1.1-2.6 1.3c-1.1.3-2.3.3-3.6.1z" fill="#4aa064"/><path d="m131.6 133.8v-.2h.4c.2 0 .5-.1.6-.3.2-.2.3-.4.3-.6v-8.1c0-.3-.1-.6-.3-.9-.2-.2-.5-.3-.8-.2h-.3v-.2c.2 0 .5 0 .9-.1s.8-.1 1.2-.2.9-.2 1.3-.3.7-.3 1.1-.4h.2v10.4c0 .2.1.4.3.6s.4.2.6.2h.3v.2z" fill="#4aa064"/><path d="m138.9 131.4c.2-.2.5-.3.8-.3s.6.1.9.2c.3.2.5.4.6.7.2.4.3.9.2 1.4s-.2.9-.5 1.3-.6.7-1 .9-.9.3-1.3.2l-.1-.2c.2-.1.4-.2.5-.4.2-.2.2-.5.2-.7 0-.3-.2-.7-.4-.9s-.3-.5-.4-.8c0-.3 0-.6.1-.8 0-.2.2-.4.4-.6z" fill="#4aa064"/><path d="m142.5 122.6h8.5l-2.1 4.8c-.1.3-.3.7-.4 1.1s-.3.9-.5 1.4-.3 1-.5 1.5-.3.9-.4 1.4-.2.8-.3 1.1h-2.8l.7-1.2.8-1.4.9-1.5c.3-.5.5-1 .8-1.4s.4-.8.6-1.1l.8-1.8h-5.1c-.3 0-.5.1-.8.2-.2.2-.4.4-.4.7h-.3z" fill="#4aa064"/><path d="m159.1 122.3.1 1.2-5.7 5.5h6.4c.2 0 .5 0 .7-.2.2-.1.3-.3.4-.5h.2l-.5 2.3h-9.8v-.2zm.2 10.5c0 .2.1.5.3.6.2.2.4.3.6.3h.2v.2h-5.4v-.2h.2c.2 0 .5-.1.6-.2.2-.2.3-.4.3-.6h3.2zm-3.3-7 3.1-3.5h.2v11.4h-3.3z" fill="#4aa064"/><path d="m163.2 134.4-.1-.1c.9-.3 1.8-.7 2.7-1.2.6-.4 1.1-.9 1.4-1.5s.5-1.2.6-1.9.1-1.5.1-2.4 0-1.6-.1-2.2c0-.5-.1-.9-.3-1.3-.2-.3-.5-.5-.8-.4-.3 0-.7.1-.9.4s-.4.6-.4 1c-.1.4-.1.9-.1 1.4s0 1 .1 1.4c0 .3.1.5.3.8.1.2.2.3.4.4s.5.1.7 0c.2 0 .4-.1.5-.2l.1.1c-.1.3-.4.6-.7.8s-.7.4-1.1.4c-.4.1-.8 0-1.3-.1-.4-.1-.8-.3-1.2-.6s-.7-.7-.9-1.2c-.2-.6-.3-1.2-.3-1.8 0-.7.2-1.4.5-2 .4-.6.9-1.1 1.5-1.4.8-.4 1.7-.6 2.6-.5 1.3-.1 2.6.3 3.6 1.2.9 1.1 1.4 2.6 1.3 4 0 1-.2 2.1-.5 3.1-.3.9-.9 1.6-1.6 2.2s-1.6 1.1-2.6 1.3c-1 .3-2.2.4-3.5.3z" fill="#4aa064"/><path d="m199.2 102.2-1.1-2.9c.3-.3.7-.5 1.2-.7s1-.3 1.5-.4 1-.1 1.6-.1c.8 0 1.6.1 2.3.4.6.2 1.2.6 1.6 1.1s.6 1.1.6 1.8c0 .5-.1 1-.3 1.4-.2.5-.5.9-.9 1.2-.4.4-.7.7-1.2 1.1-.4.3-.8.6-1.2.9l-1.1.7h3c.3 0 .6-.1.9-.2s.5-.3.7-.6.4-.6.6-.9h.2l-1.1 4.5h-8.3v-.2c.5-.6.9-1.1 1.4-1.7s1-1.1 1.4-1.7.9-1.1 1.2-1.7c.3-.5.6-1.1.9-1.7.2-.5.3-1.1.3-1.6 0-.6-.2-1.2-.6-1.6s-.9-.6-1.5-.5c-.6 0-1.2.4-1.5.9-.4.7-.6 1.6-.6 2.5z" fill="#4aa064"/><path d="m209.3 107.2c.2-.2.5-.3.8-.3s.6.1.9.2c.3.2.5.4.6.7.2.4.3.9.2 1.4s-.2.9-.5 1.3-.6.7-1 .9-.9.3-1.3.2l-.1-.2c.2-.1.4-.2.5-.4.2-.2.2-.5.2-.7 0-.3-.2-.7-.4-.9s-.3-.5-.4-.8c0-.3 0-.6.1-.8.1-.3.2-.5.4-.6z" fill="#4aa064"/><path d="m216.9 98.2c.7 0 1.5.1 2.2.3.5.2 1 .5 1.4.9.6.8.6 1.8.2 2.7-.2.3-.4.6-.7.8s-.6.3-.9.4-.7.1-1 0c.3 0 .7.1 1 .2.4.1.8.3 1.1.5.4.3.7.6.9 1 .2.5.3 1 .3 1.5 0 .7-.2 1.4-.5 2s-.8 1.1-1.4 1.4c-.6.4-1.3.6-2 .8s-1.5.2-2.3.1-1.5-.3-2.2-.6v-.2c.6 0 1.3-.1 1.9-.2.6-.2 1.1-.4 1.6-.8.4-.3.8-.7 1.1-1.2s.4-1 .4-1.6-.1-1.1-.4-1.6c-.3-.4-.7-.7-1.1-.9s-.9-.3-1.4-.3v-.2c.5 0 .9-.1 1.4-.3.4-.2.8-.6 1-1s.3-.9.3-1.4c0-.4-.1-.7-.3-1-.2-.2-.4-.4-.7-.5s-.6-.1-.9-.1c-.6 0-1.1.3-1.4.8-.3.7-.4 1.5-.4 2.3h-.2l-.9-2.8c.5-.4 1-.7 1.6-.8.6-.2 1.4-.3 2.3-.2z" fill="#4aa064"/><path d="m226.5 98.2c.7 0 1.5.1 2.2.3.5.2 1 .5 1.4.9.3.4.5 1 .5 1.5 0 .4-.1.8-.3 1.2-.2.3-.4.6-.7.8s-.6.3-.9.4-.7.1-1 0c.3 0 .7.1 1 .2.4.1.8.3 1.1.5.4.3.7.6.9 1 .2.5.3 1 .3 1.5 0 .7-.2 1.4-.5 2s-.8 1.1-1.4 1.4c-.6.4-1.3.6-2 .8s-1.5.2-2.3.1-1.5-.3-2.2-.6v-.2c.6 0 1.3-.1 1.9-.2.6-.2 1.1-.4 1.6-.8.4-.3.8-.7 1.1-1.2s.4-1 .4-1.6-.1-1.1-.4-1.6c-.3-.4-.7-.7-1.1-.9s-.9-.3-1.4-.3v-.2c1.1.1 2-.5 2.5-1.4.2-.4.3-.9.3-1.4 0-.4-.1-.7-.3-1-.2-.2-.4-.4-.7-.5s-.6-.1-.9-.1c-.6 0-1.1.3-1.4.8-.3.7-.4 1.5-.4 2.3h-.2l-.9-2.8c.5-.4 1.1-.7 1.6-.8.6-.1 1.4-.2 2.2-.1z" fill="#4aa064"/><path d="m240.6 97.8.1.1c-.9.3-1.8.7-2.7 1.2-.6.4-1.1.9-1.4 1.5s-.5 1.2-.6 1.9-.1 1.5-.1 2.4 0 1.6.1 2.2c0 .5.1.9.3 1.3.2.3.5.5.8.4.3 0 .7-.1.9-.4s.4-.6.4-1c.1-.4.1-.9.1-1.3 0-.5 0-1-.1-1.4 0-.3-.1-.5-.3-.8-.1-.1-.3-.3-.4-.3-.2-.1-.5-.1-.7 0s-.4.1-.5.2l-.1-.1c.1-.3.4-.6.7-.8s.7-.4 1.1-.4c.4-.1.8 0 1.3.1.9.2 1.6.8 2 1.7.2.6.3 1.2.3 1.8 0 .7-.2 1.4-.5 2-.4.6-.9 1.1-1.5 1.4-.8.4-1.7.6-2.6.6s-1.8-.1-2.7-.5c-.7-.4-1.3-1-1.6-1.7-.4-.9-.6-2-.6-3s.2-2.1.5-3.1c.3-.9.9-1.6 1.6-2.2.8-.6 1.6-1.1 2.6-1.3 1.1-.6 2.4-.6 3.6-.5z" fill="#4aa064"/><path d="m256.9 79h57.4v26.9h-57.4z" fill="#fff"/><path d="m261.5 88.2-1.3-3.6c.4-.4.9-.7 1.5-.9s1.2-.4 1.8-.5 1.3-.2 2-.2c1 0 2 .2 2.9.5.8.3 1.5.8 2 1.4s.8 1.4.8 2.2c0 .6-.1 1.2-.4 1.8s-.6 1.1-1.1 1.6c-.4.5-.9.9-1.4 1.3s-1 .8-1.5 1.1l-1.4.9h3.8c.4 0 .7-.1 1.1-.2.3-.2.6-.4.9-.7.3-.4.6-.8.8-1.2h.2l-1.4 5.6h-10.4v-.2c.6-.7 1.2-1.4 1.8-2.1s1.2-1.4 1.8-2.1 1.1-1.4 1.5-2.1c.4-.6.8-1.3 1.1-2.1.3-.6.4-1.3.4-2s-.2-1.4-.7-2c-.5-.5-1.2-.7-1.9-.6-.8 0-1.5.5-1.9 1.2-.5.9-.7 2-.6 3z" fill="#4aa064"/><path d="m274.1 94.3c.3-.2.6-.3 1-.3s.7.1 1.1.3c.3.2.6.5.8.8.3.6.4 1.2.3 1.8s-.3 1.2-.6 1.6c-.3.5-.8.9-1.3 1.1-.5.3-1.1.3-1.7.2l-.1-.3c.3-.1.5-.3.6-.5.2-.3.3-.6.3-.9 0-.4-.2-.8-.5-1.1-.2-.3-.4-.6-.5-.9s0-.7.1-1c0-.3.2-.6.5-.8z" fill="#4aa064"/><path d="m287.5 86.7-6.1.5-.3 1.7c1.1-.3 2.3-.4 3.4-.3.9.1 1.7.4 2.5.8.6.4 1.2 1 1.5 1.7s.5 1.5.4 2.3c0 .9-.3 1.8-.8 2.6-.5.7-1.2 1.3-2 1.7s-1.7.7-2.6.9-1.8.2-2.8.1c-.9-.1-1.7-.4-2.5-.8v-.2c.4 0 .9 0 1.3-.1.5-.1 1.1-.2 1.6-.4.6-.2 1.1-.4 1.6-.8.5-.3.9-.7 1.2-1.1.3-.5.5-1 .5-1.6.1-.7-.1-1.3-.6-1.8s-1.2-.7-1.9-.7c-.9 0-1.9.2-2.7.6l-.2-.1 1.7-7.7 6-.5c.4 0 .7-.1 1-.3.2-.2.4-.4.6-.7h.2z" fill="#4aa064"/><path d="m290.5 97.3v-.2h.4c.3 0 .6-.1.8-.3s.3-.5.3-.8v-10.1c0-.4-.1-.8-.4-1.1-.3-.2-.6-.3-1-.3h-.4v-.2c.3 0 .6-.1 1.1-.1s1-.1 1.5-.2 1.1-.2 1.6-.4c.5-.1.9-.3 1.3-.6h.2v13c0 .3.1.6.3.8s.5.3.8.3h.4v.2z" fill="#4aa064"/><path d="m308.2 83 .2 1.5-7.1 6.9h8c.3 0 .6-.1.8-.2.2-.2.4-.4.5-.6h.2l-.6 2.9h-12.3v-.2zm.2 13c0 .3.1.6.3.8s.5.3.8.3h.2v.2h-6.7v-.2h.2c.3 0 .6-.1.8-.3s.3-.5.3-.8zm-4.1-8.7 3.9-4.3h.2v14.3h-4.1z" fill="#4aa064"/><circle cx="83.2" cy="146.9" fill="#4aa064" r="4.3"/><circle cx="150.8" cy="143.5" fill="#4aa064" r="4.3"/><circle cx="285.9" cy="109.4" fill="#4aa064" r="4.3"/><circle cx="218.4" cy="121" fill="#4aa064" r="4.3"/><path d="m83.2 146.9 67.6-3.4 67.6-22.5 67.5-11.6" fill="none" stroke="#4aa064" stroke-miterlimit="10" stroke-width=".8"/><g fill="#333"><path d="m209.5 322.8v-3.3h-10.6v3.3h-5.8v33.1h8v-6h6v6h8v-33.1zm-11.3 23.3h-2.4v-3.9h2.4zm0-7.8h-2.4v-3.9h2.4zm0-7.8h-2.4v-3.9h2.4zm4.8 15.6h-2.4v-3.9h2.4zm0-7.8h-2.4v-3.9h2.4zm0-7.8h-2.4v-3.9h2.4zm4.8 15.6h-2.4v-3.9h2.4zm0-7.8h-2.4v-3.9h2.4zm0-7.8h-2.4v-3.9h2.4zm4.7 15.6h-2.4v-3.9h2.4zm0-7.8h-2.4v-3.9h2.4zm0-7.8h-2.4v-3.9h2.4z"/><path d="m310.3 340.4c-.5-1.9-2.4-3.1-4.3-2.6-1.8.3-2.8 2.6-3.2 4 .1-1.8-.2-4.4-2.4-5.6-3.3-1.8-5.4 1.4-5.7 1.9s-.2.5.4.5c1.1-.3 2.1-.3 3.2-.2l.7-.6.3.9c1.4.5 2.3 1.8 2.4 3.2-1.1-1.3-2.7-2-4.3-2-3 0-5.5 2.4-5.5 5.4v.1c0 .1.1.2.2.2s.2 0 .3-.1.2-.2.3-.4c.5-.5 1-.8 1.6-1.2l.5-1 .7.4c1.1-.4 2.3-.7 3.5-.7.8 0 1.6.1 2.3.3-2.2-.1-4.3 1.1-5.3 3-.8 1.6-.8 3.5.2 5 .1.1.3 0 .4-.2.2-.9.5-1.8.9-2.6l-.2-.9.6.2c.8-1.5 2-2.7 3.4-3.6-1.7 3.6-1.9 7.8-.7 11.6h3.7s-3.7-3.6-1.8-11c.6.7 1 1.5 1.4 2.3l.6.1-.2.7c.3.9.5 1.8.6 2.8 0 .2.2.4.2.3 1.2-2.5.8-5.1-.9-6.7 1.1.4 2 1.2 2.6 2.2l.8.2-.1.9c.5.9.8 1.8 1 2.7 0 .2.2.4.3.1.9-1.6 1-4.7-.6-6.4-1.3-1.3-3.5-1.4-4.9-1 .9-1.5 3.3-1.6 3.3-1.6s.4-.9.5-1 .5.9.5.9l2.5 1s.3.2.4-.1c-.1-.7-.1-1.1-.2-1.4z"/><path d="m253.1 343.9v12.1h22v-6h6v6h8.1v-12.1z"/><path d="m240.1 339.6h-9.6v-2.2h-2.5v2.2h-2.3l-4.2 7h3v9.4h16.8v-9.4h3zm-9 11h-2.4v-2.4h2.4zm6.1 0h-2.4v-2.4h2.4z"/><path d="m75.2 346h22.5c.4 0 .8-.2 1-.5s.3-.7.2-1.1l-3.9-11.7c-.2-.5-.6-.8-1.1-.8h-14.8c-.5 0-1 .3-1.1.8l-4 11.8c-.1.4-.1.8.2 1.1.2.2.6.4 1 .4zm4.8-12.3h8.5l-10.5 6z"/><path d="m69.4 366.1c-.2-.5-.6-.8-1.1-.8h-14.7c-.5 0-1 .3-1.1.8l-3.9 11.7c-.1.4-.1.8.2 1.1.2.3.6.5 1 .5h22.5c.4 0 .8-.2 1-.5s.3-.7.2-1.1zm-16.9 6.9 2-6h8.5z"/><path d="m95.9 366.1c-.2-.5-.6-.8-1.1-.8h-14.8c-.5 0-1 .3-1.1.8l-3.9 11.7c-.1.4-.1.8.2 1.1.2.3.6.5 1 .5h22.5c.4 0 .8-.2 1-.5s.3-.7.2-1.1zm-16.9 6.9 2-6h8.5z"/><path d="m126.3 377.8-3.9-11.7c-.2-.5-.6-.8-1.1-.8h-14.7c-.5 0-1 .3-1.1.8l-3.9 11.7c-.1.4-.1.8.2 1.1.2.3.6.5 1 .5h22.5c.4 0 .8-.2 1-.5.1-.4.1-.8 0-1.1zm-20.9-4.8 2-6h8.5z"/><path d="m54.8 383.6c-.2-.5-.6-.8-1.1-.8h-14.8c-.5 0-1 .3-1.1.8l-3.9 11.7c-.1.4-.1.8.2 1.1.2.3.6.5 1 .5h22.5c.7 0 1.2-.5 1.2-1.2 0-.1 0-.2-.1-.4zm-17 6.9 2-6h8.5z"/><path d="m81.2 383.6c-.2-.5-.6-.8-1.1-.8h-14.8c-.5 0-1 .3-1.1.8l-3.9 11.7c-.1.4-.1.8.2 1.1.2.3.6.5 1 .5h22.5c.4 0 .8-.2 1-.5s.3-.7.2-1.1zm-16.9 6.9 2-6h8.5z"/><path d="m134.1 383.6c-.2-.5-.6-.8-1.1-.8h-14.7c-.5 0-1 .3-1.1.8l-3.9 11.7c-.2.6.1 1.3.8 1.5.1 0 .2.1.4.1h22.5c.4 0 .8-.2 1-.5s.3-.7.2-1.1zm-16.9 6.9 2-6h8.5z"/><path d="m111.6 395.3-3.9-11.7c-.2-.5-.6-.8-1.1-.8h-14.8c-.5 0-1 .3-1.1.8l-3.9 11.7c-.1.4-.1.8.2 1.1.2.3.6.5 1 .5h22.5c.4 0 .8-.2 1-.5s.2-.7.1-1.1zm-20.8-4.8 2-6h8.5z"/><path d="m61.5 362.7h22.5c.4 0 .8-.2 1-.5s.3-.7.2-1.1l-3.9-11.7c-.2-.5-.6-.8-1.1-.8h-14.8c-.5 0-1 .3-1.1.8l-3.9 11.7c-.1.4-.1.8.2 1.1.1.3.5.5.9.5zm4.8-12.4h8.5l-10.5 6z"/><path d="m90.7 349.4-3.9 11.7c-.1.4-.1.8.2 1.1.2.3.6.5 1 .5h22.5c.4 0 .8-.2 1-.5s.3-.7.2-1.1l-3.9-11.7c-.2-.5-.6-.8-1.1-.8h-14.9c-.5-.1-1 .3-1.1.8zm10.5.9-10.5 6 2-6z"/><path d="m273.4 388.3c0 .8 0 1.6-.1 2.4h1.1c.5-.6.6-.8.8-.8s.3.1.8.6c.2.2.3.3.3.5s0 .2-.4.4c-.2 3.4-.5 5.8-.9 6.6-.1.3-.4.6-.6.8-.3.2-.7.4-1.1.3-.2 0-.2-.1-.3-.3-.1-.7-.3-.9-1.1-1.2-.1 0 0-.2 0-.2.7.1 1.1.1 1.3.1.5 0 .6-.1.8-.7.4-1.9.5-3.9.6-5.8h-1.2c-.3 4.2-1.2 6.3-3.2 8.1-.1 0-.2-.1-.2-.1 1.5-2.5 2.1-5.5 2.1-10.3v-.5h-.4c-.3 0-.7 0-1 .1l-.2-.6c.4.1.8.1 1.2.1h1v-1.8c0-.2 0-.6-.1-1.2 1.8.2 2 .4 2 .5s-.1.2-.4.4v2.2h.5c.6-.7.8-.9.9-.9s.3.1.8.6c.2.2.3.3.3.5s0 .2-.2.2zm4.6-.4c-.6.8-1.3 1.6-2.1 2.2-.1 0-.2 0-.2-.1.6-1 1.1-2 1.5-3.2.2-.7.3-1.4.4-2.1 1.7.4 2 .5 2 .7s-.2.3-.6.4c-.2.6-.5 1.2-.9 1.7h4.1c.8-1 1-1.1 1.1-1.1s.3.1 1 .8c.3.3.5.4.5.5s0 .2-.2.2zm.5 9.3c0 .5.1.6 2.1.6s2.4-.1 2.7-.2.4-.4.9-2.1c0-.1.2 0 .2 0v1.5c0 .2.1.4.2.4.3.2.4.4.4.6s-.3.7-1 .9c-1 .2-2 .2-3.1.2-3.3 0-3.9-.2-3.9-1.5 0-.4 0-.8 0-2.5 0-.7 0-1.5 0-2.2-.3.1-.6.2-.9.4l-.3-.5c.3 0 .7-.1 1-.2l.2-.1c0-1 0-2 0-3 1.7.2 1.9.2 1.9.5s-.1.3-.5.4v1.8l1.3-.4v-1.1c0-.7 0-1.4-.1-2.1 1.4.1 1.9.3 1.9.5s-.1.2-.5.4v2l1.2-.4c.5-.8.7-.9.8-.9.4.1.8.4 1.1.7.1.1.2.2.2.3 0 .2-.1.3-.5.5 0 1.1-.1 2.2-.2 3.3-.1.4-.2.7-.5 1-.3.2-.6.4-1 .4-.2 0-.2 0-.2-.4s-.3-.7-.9-.9v1.1c0 .4-.2.6-.8.6s-.6-.1-.6-.5 0-1.6.1-3.9l-1.3.4zm2.6-5.4v1.5 1.5c.3.1.6.1.9.1.2 0 .5-.2.5-.4.1-1 .2-2 .2-3z"/><path d="m293.6 388c.7-.8.9-1 1-1s.3.1 1 .7c.3.2.4.4.4.5s0 .2-.2.2h-5.1c-.4 0-.7 0-1.1.1l-.2-.6c.4.1.9.1 1.3.1zm-2 10.3v.5c0 .4-.3.6-.8.6s-.7-.2-.7-.5 0-1 0-3.1c0-.8 0-1.5-.1-2.3.6.2 1.1.5 1.7.8h1.6c.6-.7.7-.8.8-.8s.3.1.9.6c.3.2.4.3.4.5s-.1.3-.5.5v.5c0 1.4.1 2.3.1 2.6s-.3.6-.9.6-.6-.1-.6-.5v-.1zm1.3-12.5c.7-.8.9-1 1-1s.3.1 1 .7c.3.2.4.4.4.5s0 .2-.2.2h-3.7c-.3 0-.7 0-1 .1l-.2-.6c.4.1.7.1 1.1.1zm.1 4.3c.6-.8.8-.9.9-.9s.3.1.9.6c.3.2.4.4.4.5s0 .2-.2.2h-3.7c-.3 0-.7 0-1 .1l-.2-.6c.4.1.8.1 1.1.1zm0 2.1c.6-.8.8-.9.9-.9s.3.1 1 .6c.3.2.4.4.4.5s0 .2-.2.2h-3.7c-.3 0-.7 0-1 .1l-.2-.6c.4.1.8.1 1.1.1zm.6 2.5h-1.9v3.2h1.9zm7.4-2.9c.7-.6.8-.7.9-.7s.3.1 1 .6c.3.2.4.4.4.5s-.2.3-.6.5c-.5 1.2-1.2 2.3-2.1 3.3 1.2.8 2.5 1.2 3.8 1.4.1 0 .1.1 0 .2-.5.2-.8.5-.9 1.2 0 .2-.1.3-.2.3-.2-.1-.4-.1-.6-.2-1.2-.4-2.2-1.2-3-2.1-1.4 1.1-3 1.9-4.7 2.4-.1 0-.2-.2-.1-.2 1.6-.7 3-1.8 4.1-3.1-.7-1.1-1.3-2.4-1.6-3.7h-.2c-.3 0-.6 0-.9.1l-.2-.6c.4.1.8.1 1.2.1zm2.9-3.1c0 .2.1.3.3.4s.2.2.2.5-.2.6-.6.7c-.5.1-1 .2-1.5.2-1.4 0-1.9-.4-1.9-1.4 0-.6 0-.8 0-1.4v-1.6h-1.9v.3c0 1-.1 1.9-.5 2.8-.6.9-1.4 1.6-2.4 1.9-.1 0-.2-.1-.1-.1.7-.6 1.1-1.4 1.4-2.2.1-.6.2-1.3.2-1.9s0-1.3-.1-1.9c.8.3 1 .4 1.7.8h1.8c.5-.6.6-.7.8-.7s.3.1.8.5c.1.1.3.3.3.4 0 .2-.1.3-.4.5v2.5c0 .3.1.3.6.3s.6 0 .8-.2c.3-.4.5-.9.5-1.4 0-.1.2-.1.2 0zm-6.2 3.5c.4 1.1 1.1 2.1 1.9 3 .7-.9 1.2-1.9 1.5-3z"/><path d="m195.2 416.1v1.2c0 .3-.2.4-.6.4-.3 0-.5-.1-.5-.4 0-.1 0-.5 0-1.2 0-.1 0-.2 0-.4-.5.3-1 .6-1.6.8-.1 0-.1-.1-.1-.1.7-.5 1.4-1.2 1.9-1.9.3-.4.5-.8.7-1.3 1 .4 1.4.6 1.4.7s-.1.2-.5.2c-.3.4-.7.8-1.1 1.1.5.1.6.2.6.3s0 .1-.3.3zm1.5 7.6c-1.2.5-2.5.8-3.8.8-.1 0-.1-.1 0-.2.7-.2 1.4-.5 2.1-.9.4-.2.7-.5 1-.8 1.3.8 1.3.8 1.3.9s-.1.3-.6.2zm-1.2-1.2c0 .3-.2.4-.6.4s-.5-.1-.5-.4 0-.9 0-2.7c0-.7 0-1.4 0-2 .4.1.9.3 1.3.5h4.7c.4-.4.5-.5.6-.5s.2.1.7.4c.2.2.3.2.3.4s0 .1-.3.4v.6c0 1.5.1 2.6.1 2.9s-.3.4-.7.4-.5-.1-.5-.3zm5-3.9h-5v1h5zm-5 2.3h5v-1h-5zm0 1.3h5v-1.1h-5zm3-6.2h-1.8c-.3 0-.7 0-1 .1l-.1-.4c.3.1.7.1 1.1.1h1.8v-.9c-.6 0-1.4 0-2.3 0-.1 0-.1-.1 0-.2 1.3-.1 2.6-.4 3.9-.9.3-.1.7-.3 1-.5.8.5 1 .8 1 1s0 .1-.2.1-.3 0-.5-.1c-.6.2-1.2.3-1.8.4v1h2.1c.6-.6.7-.7.8-.7s.2.1.7.5c.2.2.3.3.3.4s0 .1-.1.1h-3.6v1.1h1.5c.5-.6.7-.7.8-.7s.2.1.7.5c.2.2.3.3.3.4s0 .1-.1.1h-5.6c-.3 0-.7 0-1 .1l-.1-.5c.4.1.7.1 1.1.1h1.5zm3.6 8.7c-.3 0-.5-.1-.7-.4-.7-.6-1.5-1.1-2.4-1.3-.1 0 0-.1 0-.1 2.7 0 3.8.5 3.8 1.2-.1.3-.4.6-.7.6z"/><path d="m208.6 416.1v1.1s-.2.4-.6.4-.5-.1-.5-.4c0-.1 0-.3 0-.7 0-.1 0-.3 0-.5-.6.4-1.2.7-1.8 1-.1 0-.1-.1-.1-.1.8-.6 1.4-1.3 2-2.1.3-.4.5-.8.6-1.2 1.1.4 1.4.6 1.4.7s-.1.2-.5.2c-.3.3-.6.7-.9.9.4.1.6.2.6.3s-.1.1-.3.3zm1.3 7.7c-1.2.5-2.5.8-3.8.8-.1 0-.1-.1 0-.2.9-.3 1.8-.7 2.6-1.2.2-.1.4-.3.5-.5 1.3.8 1.3.8 1.3.9s-.1.2-.6.2zm3.6-5.8.3-.3c-.4-.2-.8-.4-1.1-.7-.5-.4-.8-.8-1.1-1.4l-1.7.2c-.3 0-.5.1-.7.1l-.1-.4h.9l1.6-.2c-.1-.4-.3-.7-.3-1.1-.1-.3-.1-.6-.2-.9 1.1 0 1.5.1 1.5.3s-.1.2-.3.3c.1.4.2.8.4 1.2l2.1-.2c.5-.7.6-.8.7-.8s.2.1.8.4c.3.2.4.2.4.4l-.1.1-3.7.4c.1.1.1.2.2.2.5.5 1.1.9 1.7 1.1.2.1.5.1.7.1s.5-.3.9-1.1h.1c0 .3-.1.8-.1.9s0 .2.3.3c.1.1.2.2.2.4 0 .4-.3.5-1 .5-.2 0-.4 0-.6-.1 0 0 0 .1.1.1 0 .1-.1.1-.3.4v.6 3s-.2.4-.7.4-.4-.1-.5-.3h-5c0 .3-.2.4-.6.4s-.5-.1-.5-.4.1-.8.1-2.5c0-.8 0-1.6-.1-2.5.4.1.8.3 1.2.5zm.1.3h-5v1.1h5zm0 1.4h-5v1.1h5zm0 1.3h-5v1.1h5zm1.6 3.7c-.3 0-.5-.1-.7-.4-.7-.6-1.5-1.1-2.4-1.4-.1 0 0-.1 0-.1 2.7 0 3.8.5 3.8 1.2-.1.5-.4.7-.7.7zm-1.2-9.7c-.2 0-.2 0-.4-.3-.2-.4-.6-.7-1-.9-.1 0 0-.1 0-.1 1.3 0 1.8.3 1.8.8 0 .2-.2.5-.4.5z"/><path d="m221.4 420.7v.8c0 .2.2.3.3.3.3.1.7.2 1 .2.8 0 1.6-.1 2.4-.3.2-.1.4-.1.6-.1.5 0 .8.2.8.6s-.1.4-.4.5c-.4.1-.7.2-1.1.2-.7 0-1.3.1-1.9.1-1.3 0-2.1-.2-2.4-.6-.1-.2-.2-.3-.3-.5-.1-.3-.1-.7-.1-1 0-.7 0-1.5 0-2.2s0-1.3 0-1.9 0-.5-.3-.7c-.1-.1-.2-.1-.3-.1s-.1-.1-.1-.1.4-.3.6-.3c.3 0 .7.1.9.3.4.2.6.4.6.6s-.1.3-.2.4-.1.2-.2.6-.1 1.1-.1 1.7c.6-.2 1.2-.4 1.8-.7.5-.3 1-.5 1.5-.8.1-.1.2-.1.2-.2s-.1-.2-.2-.3-.2-.2-.2-.2.1-.1.2-.1c.4 0 .6.1 1.1.5.3.3.5.5.5.8s-.1.3-.4.4l-.4.1c-.6.2-1.3.4-1.9.6-.7.2-1.4.3-2.1.4.1.1.1.6.1 1zm5-5.3c.3.2.4.4.4.7 0 .2-.2.4-.4.4-.2 0-.3-.1-.4-.3-.2-.4-.5-.7-.8-1.1-.1 0-.1-.1-.1-.1l.1-.1h.3c.4.2.6.3.9.5zm1.1-.8c.2.1.4.3.4.6 0 .2-.1.4-.4.4-.2 0-.4-.1-.4-.3-.2-.4-.5-.7-.8-.9l-.1-.1s0-.1.1-.1h.3c.3.1.6.2.9.4z"/><path d="m232 417.1c-.1 0-.2 0-.2-.1s.2-.2.5-.2c.5 0 .9.2 1.3.5.3.2.4.4.4.5s-.1.2-.2.3-.2.3-.2.4c-.2.8-.6 1.5-1 2.2-.6.9-1.4 1.7-2.4 2.2-.1 0-.2.1-.2.1-.1 0-.1 0-.1-.1s0-.1.1-.2c.7-.6 1.3-1.3 1.7-2.1.4-.7.6-1.4.8-2.1.1-.3.1-.6.1-.9 0-.2-.2-.4-.6-.5zm2.7-.8c-.1-.2-.3-.4-.6-.4-.1 0-.1 0-.1-.1s.2-.3.5-.3c.4 0 .8.2 1.1.4.2.1.5.3.5.6 0 .1-.1.3-.2.3-.1.1-.1.2-.1.3 0 .8 0 1.5-.1 2.7v.9c0 .1 0 .2.1.2s.2 0 .3-.1c1.4-.6 2.8-1.3 4-2.3.1-.1.2-.2.3-.2s.1 0 .1.1 0 .1-.1.2c-1.2 1.4-2.6 2.6-4.2 3.5-.1.1-.2.1-.2.2-.1.1-.2.2-.3.2-.2-.1-.5-.2-.6-.4-.2-.2-.3-.4-.3-.7 0-.1 0-.1 0-.2 0-.2.1-.5.1-.7 0-1 0-1.8 0-3.3 0-.4-.1-.6-.2-.9z"/><path d="m246.2 419c0 .6-.5 1.1-1.1 1.1s-1.1-.5-1.1-1.1.5-1.1 1.1-1.1c.6 0 1.1.5 1.1 1.1z"/><path d="m251.1 418.1c-.4.5-.9 1-1.4 1.5 0 0-.2-.1-.1-.1 1-1.3 1.7-2.7 2.1-4.2.2-.6.3-1.2.4-1.8 1.1.3 1.6.5 1.6.7s-.1.2-.4.3c-.4 1-.9 1.9-1.4 2.8.6.1.7.1.7.3s-.1.2-.3.3v6.2c0 .4-.2.5-.6.5s-.5-.1-.5-.4.1-1.3.1-3.2v-2.9zm4.6 1.9h-1.6c-.3 0-.5 0-.8.1l-.1-.5c.3.1.6.1.9.1h1.6v-2.9h-1.9c-.3 0-.5 0-.8.1l-.1-.4c.3.1.6.1.9.1h4.6c.6-.7.7-.8.8-.8s.2.1.8.6c.3.2.4.3.4.4s0 .1-.2.1h-3.4v2.9h1.3c.6-.8.7-.8.8-.8s.2.1.8.6c.2.2.3.3.3.4s0 .1-.2.1h-3v3.6h1.8c.6-.9.8-1 .9-1s.2.1.9.7c.3.3.4.4.4.5s0 .1-.2.1h-7.2c-.3 0-.6 0-.9.1l-.1-.4c.3.1.7.1 1 .1h2.3zm.9-4.2c-.4 0-.5-.1-.7-.7-.2-.5-.5-.9-.9-1.2v-.1c1.6.2 2.2.6 2.2 1.4.1.3-.2.6-.6.6z"/><path d="m272 415.3c.5-.6.6-.6.7-.6s.2.1.9.7c.3.3.4.4.4.5s-.1.2-.5.2c-.2-.1-.4 0-.5.1-.3.2-.7.5-1.1.6 0 0-.1 0-.1-.1.2-.4.3-.8.4-1.2h-7.4c0 1-.3 1.6-1 1.6-.3 0-.6-.3-.6-.6 0 0 0 0 0-.1 0-.3.1-.5.4-.6.5-.2.9-.7.9-1.3 0-.1.1-.1.1 0 .1.2.1.5.1.7h3v-.8c0-.4 0-.7 0-1 1.5.1 1.6.3 1.6.4s-.1.2-.4.3v1zm-4.9 3c-1.1.2-2.2.3-3.3.4-.1 0-.1-.2 0-.2 1.7-.3 3.4-.9 5-1.6.5-.2.9-.6 1.3-1 1 .6 1.3.9 1.3 1.1s-.1.2-.7.1c-.8.4-1.6.7-2.4.9v2l3.3-.5c.6-.9.7-1 .8-1s.3.1.9.5c.3.2.4.3.4.4s-.1.1-.1.1l-5.2.7v2c0 .9.1.9 1.9.9 1.4 0 1.8-.1 2-.4.3-.5.5-1 .7-1.6 0-.1.1-.1.1 0v1.4c0 .1 0 .2.2.3.2 0 .3.2.3.4 0 .4-.2.6-.8.8-.9.2-1.8.2-2.8.2-2.3 0-2.8-.4-2.8-1.5v-2.3l-2.9.4c-.3 0-.5.1-.8.2l-.2-.4h.9l2.9-.4z"/><path d="m281.5 421c0 1.3-1.1 2.4-2.4 2.5-.1 0-.2 0-.2 0-1.4.1-2.5-.9-2.7-2.2v-.1c0-1 .7-1.6 1.9-2.2-1-.3-1.7-1.3-1.6-2.3.1-1.2 1.2-2.2 2.5-2.1 1.4 0 2.4.8 2.4 1.9 0 .9-.5 1.4-1.6 1.9 1.1.3 1.8 1.4 1.7 2.6zm-4 .1c0 1.2.6 2 1.4 2s1.5-.8 1.5-1.9c0-.9-.5-1.4-2-2.1-.7.4-1.1 1.2-.9 2zm2.6-4.7c0-1-.5-1.6-1.2-1.6s-1.3.6-1.3 1.3v.2c0 .7.3 1.1 1.8 1.8.5-.4.8-1 .7-1.7z"/><path d="m289 419c0 2.8-1 4.5-2.7 4.5s-2.7-1.6-2.7-4.4 1-4.5 2.7-4.5 2.7 1.7 2.7 4.4zm-4 0c0 2.5.2 4.1 1.3 4.1s1.3-1.6 1.3-4.1-.2-4.1-1.3-4.1-1.2 1.6-1.3 4.1z"/><path d="m293.7 417.7c.9.3 1.3.8 1.3 1.3 0 .3-.2.5-.5.6-.2 0-.4-.1-.4-.4 0-.5-.2-.9-.5-1.2 0 2.4.1 5.6.1 6.3 0 .3-.2.4-.6.4s-.5-.1-.5-.4c0-.6.1-3.1.1-5.4-.4 1.1-1 2-1.8 2.8 0 0-.1 0-.1-.1.8-1.6 1.4-3.3 1.7-5h-.4c-.3 0-.5 0-.8.1l-.1-.5c.3.1.6.1.9.1h.6v-1.2c0-.5 0-1-.1-1.5 1.3.1 1.5.2 1.5.4s-.1.2-.4.4v2h.1c.3-.6.5-.7.6-.7s.2.1.5.5c.1.1.2.2.2.4 0 .1 0 .1-.2.1h-1.3zm5.1 2.6c.4.6.9 1.1 1.5 1.5.7.4 1.4.7 2.2.8.1 0 0 .1 0 .1-.3.2-.6.5-.6.8-.1.2-.1.2-.2.2-.2 0-.3-.1-.5-.2-.5-.3-.9-.7-1.4-1.1-.5-.6-1-1.3-1.3-2 0 1.6.1 3.2.1 3.7 0 .3-.2.5-.7.5s-.5-.1-.5-.4.1-1.6.1-2.9c-1 1.2-2.2 2-3.6 2.5-.1 0-.1-.1-.1-.1 1.3-.8 2.4-2 3.2-3.4h-.9c0 .3-.2.4-.6.4s-.5-.1-.5-.4 0-1.1 0-2.6c0-.7 0-1 0-1.7.4.2.8.4 1.1.6h1.4v-1.2h-2c-.3 0-.5 0-.8.1l-.1-.5c.3.1.6.1.9.1h2v-.4c0-.5 0-.9-.1-1.4 1.2.1 1.5.2 1.5.4s-.1.2-.4.3v1h1.6c.6-.6.7-.8.8-.8s.2.1.8.5c.2.2.3.3.3.4s0 .1-.2.1h-3.3v1.2h1.5c.4-.5.4-.5.5-.5s.2.1.6.4c.2.1.3.2.3.3s-.1.2-.3.4v.5c0 1.4.1 2.3.1 2.6s-.2.4-.6.4-.5-.1-.5-.3v-.1zm-1.2-3.3h-1.4v1.4h1.4zm0 1.6h-1.4v1.4h1.4zm2.7-.2v-1.4h-1.6v1.4zm0 1.7v-1.5h-1.6v1.4z"/><path d="m304.5 421.7c0-.1 0-.1.1-.1.7.1 1.5.4 2.1.8.4.2.7.7.8 1.2 0 .4-.3.7-.6.7 0 0 0 0-.1 0-.3 0-.6-.2-.6-.5-.3-.8-.8-1.5-1.5-2-.2 0-.2-.1-.2-.1z"/><path d="m203 432.6c.2 0 .4-.1.5-.2s.3-.1.4-.1c.4 0 .7.1 1 .3.2.1.3.3.3.5s-.2.4-.3.4c-.2 0-.4 0-.6-.1-.3 0-.5-.1-.8-.1-.4 0-1.3 0-2.3.1v2.2c0 1.2.1 1.8.1 2.2 0 .3-.1.5-.2.8s-.4.5-.7.5c-.2 0-.3-.1-.4-.4 0-.2-.1-.3-.3-.5-.3-.2-.6-.4-.9-.5-.2-.1-.3-.1-.3-.2s0 0 .1 0h.3c.4.1.7.1 1.1.1.2 0 .2-.1.2-.3s0-.7 0-1.6 0-1.5 0-2.3c-.7.1-1.4.2-2.2.3-.2 0-.3.1-.5.2-.1.1-.3.1-.4.1-.2 0-.4-.1-.8-.5-.2-.2-.3-.4-.3-.7 0-.1 0-.3.1-.3s.2.1.4.3.4.3.7.3h.5l2.5-.2v-1.4c0-.1 0-.3-.1-.4 0-.1-.2-.2-.3-.3l-.4-.1c-.1 0-.1 0-.1-.1s.1-.2.4-.3c.2-.1.4-.1.6-.1.4.1.7.2 1 .5.2.1.2.2.2.4 0 .1-.1.3-.2.4s-.1.2-.2.5 0 .5 0 1c.7-.3 1.3-.3 1.9-.4zm-4.8 2c.1 0 .1.1.1.2.1.5 0 .9-.1 1.4-.1.4-.3.7-.6.9-.2.2-.4.3-.7.3s-.6-.2-.6-.5v-.1c0-.2.1-.4.5-.6.3-.1.5-.3.7-.5.2-.3.4-.6.5-.9.1-.1.1-.2.2-.2zm4.4.2c0-.1 0-.1.1-.1h.2c.6.1 1.1.4 1.5.7.4.2.6.6.7 1.1 0 .4-.2.7-.6.7s-.5-.2-.6-.5c-.2-.4-.4-.8-.6-1.1-.2-.2-.4-.4-.6-.6-.1-.1-.1-.2-.1-.2z"/><path d="m212.7 432.9c1.2-.1 1.7-.1 2.3-.2.2 0 .3-.1.4-.1.1-.1.3-.1.4-.1.4 0 .8.1 1.1.3.2.1.3.3.3.5s-.1.3-.3.4c-.2 0-.5 0-.7 0-.5-.1-1-.1-1.5-.1-.4 0-1.1 0-1.6 0 .4.3.6.5.6.7 0 .1 0 .1-.1.2-.1.2-.2.4-.2.5-.3.9-.7 1.7-1.3 2.4-.7.8-1.5 1.5-2.4 2-.1 0-.1.1-.2.1s-.1 0-.1-.1.1-.1.3-.3c.7-.7 1.3-1.4 1.8-2.2.4-.7.7-1.4.9-2.1.1-.2.1-.4.1-.6 0-.1 0-.3-.1-.4-.9.1-1.7.2-2.3.3-.2 0-.4.1-.6.2-.1.1-.2.1-.4.1s-.4-.1-.8-.5c-.2-.2-.3-.4-.3-.7 0-.2.1-.3.1-.3s.1.1.2.1c.2.2.5.4.8.4s.7 0 1.1-.1c.7-.3 1.4-.3 2.5-.4zm.7-2.6c.1 0 .2-.1.4-.1.1-.1.3-.1.4-.1.3 0 .7.1 1 .2.1.1.2.2.2.4s-.2.4-.4.4-.6 0-1 0l-2.6.2c-.2 0-.4 0-.6 0-.4.1-.8-.1-1-.4-.2-.2-.3-.4-.3-.6 0-.1 0-.2.1-.2s.1 0 .1.1c.3.3.6.4 1 .4s.9 0 1.3-.1c.6 0 1.1-.1 1.4-.2z"/><path d="m221.7 432.6c-.1 0-.2 0-.2-.1s.2-.2.5-.2c.5 0 .9.2 1.3.5.3.2.4.4.4.5s-.1.2-.2.3-.2.3-.2.4c-.2.8-.6 1.5-1 2.2-.6.9-1.4 1.7-2.4 2.2-.1 0-.2.1-.2.1-.1 0-.1 0-.1-.1s0-.1.1-.2c.7-.6 1.3-1.3 1.7-2.1.4-.7.6-1.4.8-2.1.1-.3.1-.6.1-.9 0-.2-.3-.4-.6-.5zm2.7-.8c-.1-.2-.3-.4-.6-.4-.1 0-.1 0-.1-.1s.2-.3.5-.3c.4 0 .8.2 1.1.4.2.1.5.3.5.6 0 .1-.1.3-.2.3-.1.1-.1.2-.1.3 0 .8 0 1.5-.1 2.7v.9c0 .1 0 .2.1.2s.2 0 .3-.1c1.4-.6 2.8-1.3 4-2.3.1-.1.2-.2.3-.2s.1 0 .1.1c0 .1-.1.1-.1.2-1.2 1.4-2.6 2.6-4.2 3.5-.1.1-.2.1-.2.2-.1.1-.2.2-.3.2-.2-.1-.4-.2-.6-.4s-.3-.5-.3-.7c0-.1 0-.1 0-.2 0-.2.1-.5.1-.7 0-1 0-1.8 0-3.3-.1-.4-.1-.6-.2-.9z"/><path d="m235.9 434.5c0 .6-.5 1.1-1.1 1.1s-1.1-.5-1.1-1.1.5-1.1 1.1-1.1c.6 0 1.1.5 1.1 1.1z"/><path d="m244.4 430.2c-.2-.1-.4-.2-.6-.2-.1 0-.1 0-.1-.1s.1-.2.2-.2c.1-.1.2-.1.4-.1.3 0 .7.1 1 .2.4.2.7.4.7.6 0 .1 0 .3-.1.4s-.1.2-.1.7c0 1.4-.1 2.8-.3 4.1-.2.8-.6 1.6-1.2 2.2-1 .9-2.2 1.5-3.6 1.8-.1 0-.2 0-.2 0-.1 0-.1 0-.1-.1s0-.1.2-.1c1.5-.4 2.8-1.4 3.6-2.8.4-.8.6-1.7.6-2.6 0-.5.1-1.3.1-2.9-.3-.6-.3-.8-.5-.9zm-3.2.9c-.1-.1-.2-.3-.6-.5-.1 0-.1-.1-.1-.1l.1-.1c.1-.1.3-.1.4-.1.3 0 .6.1.9.3.4.2.6.5.6.7 0 .1-.1.2-.1.3-.1.1-.1.3-.1.4 0 1-.1 2-.1 3.4 0 .4-.1.5-.4.5s-.4-.2-.5-.4-.2-.4-.2-.7c0-.1 0-.2.1-.3 0-.2.1-.4.1-.6 0-.5 0-.9 0-1.9 0-.3 0-.6-.1-.9z"/><path d="m249.8 431.5c0-.1.1-.1.1-.1.2 0 .4.1.6.2.5.2.9.4 1.2.8.3.3.4.6.4 1 .1.4-.2.7-.6.8 0 0 0 0-.1 0-.3 0-.5-.2-.6-.5-.1-.7-.5-1.4-1-1.9 0-.2 0-.2 0-.3zm4 5.4c-.9 1-1.9 1.8-3.1 2.3-.2.1-.3.1-.5.2-.1 0-.1 0-.1-.1 0-.1.1-.1.2-.2 1-.7 1.9-1.5 2.6-2.4s1.4-1.9 1.9-2.9c.4-.6.7-1.3.8-2 0-.2-.1-.3-.2-.4s-.3-.1-.4-.2c-.1 0-.1-.1-.1-.1s.3-.2.6-.2c.5.1 1 .3 1.4.6.3.2.4.4.4.6s-.1.3-.2.4c-.2.2-.3.4-.4.6-.9 1.2-1.8 2.6-2.9 3.8zm3.9-6.9c.3.1.4.4.5.7 0 .2-.2.4-.4.4-.2 0-.3-.1-.4-.3-.2-.4-.5-.7-.8-1.1-.1 0-.1-.1-.1-.1l.1-.1h.3c.3.2.5.3.8.5zm1.1-.8c.2.1.4.3.4.6 0 .2-.1.4-.4.4-.2 0-.4-.1-.4-.3-.2-.4-.5-.7-.8-.9l-.1-.1s0-.1.1-.1h.3c.3.1.6.2.9.4z"/><path d="m270.5 435c-.4 0-1.2-.1-1.8-.1-.9 0-3 0-4.5.2-.4 0-.8.1-1.2.2-.1.1-.2.1-.3.1-.3 0-.6-.3-1-.8-.2-.2-.2-.4-.2-.6s.1-.3.1-.3.1 0 .2.1c.2.3.6.5 1 .5.3 0 .5 0 1.3-.1 1.5-.1 3.1-.2 4.2-.2.3 0 .6 0 .9-.2.1-.1.2-.1.3-.1.2 0 .4 0 .5.1.5.2.8.4.8.7s-.1.5-.3.5z"/><path d="m278.3 433.9c.7.3 1.1.7 1.1 1.2 0 .3-.2.6-.5.6s-.5-.1-.7-.4c-.3-.3-.5-.6-.9-.9s-.8-.5-1.2-.7v2.1 2.9c0 .5-.2.6-.4.6s-.4-.1-.5-.3c-.2-.3-.3-.6-.3-1 0-.1 0-.2.1-.3 0-.1.1-.1.1-.2s0-.5 0-2.7c0-1.1 0-2.2 0-3.3 0-.3 0-.7 0-1 0-.1-.1-.2-.2-.3s-.3-.1-.4-.2c-.1 0-.1-.1-.1-.1s.1-.1.1-.2c.1-.1.2-.1.3-.1.4 0 .9.1 1.3.3.3.1.5.3.5.6 0 .2-.1.3-.2.4s-.1.2-.1.2c0 .3-.1 1-.1 2.2.7.1 1.4.3 2.1.6z"/><path d="m284.3 431.7c0 .6 0 1.2-.1 1.8h.8c.4-.5.5-.6.6-.6s.2.1.6.5c.2.1.2.2.2.3s0 .1-.3.3c0 1.7-.2 3.4-.7 5-.1.2-.3.4-.5.6s-.5.3-.8.2c-.1 0-.2 0-.2-.2-.1-.5-.2-.7-.9-.9-.1 0 0-.1 0-.1.5 0 .9.1 1 .1.4 0 .5-.1.6-.5.3-1.4.4-2.9.4-4.4h-.9c-.2 3.1-.9 4.7-2.4 6.1l-.1-.1c1.1-1.9 1.5-4.1 1.5-7.7v-.3h-.3c-.3 0-.5 0-.8.1l-.1-.5c.3.1.6.1.9.1h.7v-1.5c0-.2 0-.5 0-.9 1.3.1 1.5.3 1.5.4s-.1.2-.3.3v1.7h.4c.4-.5.6-.6.7-.6s.2.1.6.5c.2.1.3.2.3.3s0 .1-.2.1zm3.5-.3c-.4.6-1 1.2-1.6 1.6 0 0-.2 0-.1-.1.5-.7.9-1.5 1.1-2.4.2-.5.3-1 .3-1.5 1.3.3 1.5.4 1.5.5s-.1.2-.4.3c-.2.4-.4.9-.6 1.3h3c.6-.7.7-.8.8-.8s.2.1.8.6c.2.2.3.3.3.4s0 .1-.2.1zm.4 7c0 .4.1.5 1.6.5s1.8 0 2-.2.3-.3.7-1.6c0-.1.2 0 .2 0v1.1c0 .1.1.3.2.3.2.1.3.3.3.5s-.2.5-.8.7c-.8.1-1.5.2-2.3.2-2.5 0-2.9-.2-2.9-1.1 0-.3 0-.6 0-1.8 0-.6 0-1.1 0-1.6-.2.1-.5.2-.7.3l-.2-.4c.3 0 .5-.1.8-.1h.2c0-.7 0-1.5 0-2.3 1.3.1 1.4.2 1.4.4s-.1.2-.4.3v1.3l1-.3v-.9c0-.5 0-1.1-.1-1.6 1.1.1 1.4.2 1.4.4s-.1.2-.4.3v1.5l.9-.3c.4-.6.5-.7.6-.7.3.1.6.3.8.6.1.1.1.1.1.2s-.1.2-.4.4c0 .8-.1 1.7-.2 2.5 0 .3-.2.5-.4.7s-.5.3-.7.3c-.1 0-.2 0-.2-.3s-.2-.5-.7-.7v.8s-.2.4-.6.4-.4-.1-.4-.4 0-1.2 0-2.9l-1 .3zm1.9-4v1.1 1.1c.2 0 .4.1.6.1s.3-.1.4-.3c.1-.7.1-1.5.1-2.3z"/><path d="m298.3 431.5c.5-.6.7-.7.7-.7s.2.1.8.5c.2.2.3.3.3.4s0 .1-.1.1h-3.8c-.3 0-.5 0-.8.1l-.1-.4c.3.1.7.1 1 .1zm-1.5 7.7v.4c0 .3-.2.5-.6.5s-.5-.1-.5-.4 0-.8 0-2.3c0-.6 0-1.1-.1-1.7.4.2.9.4 1.3.6h1.2c.4-.5.5-.6.6-.6s.2.1.6.4c.2.2.3.2.3.4s-.1.2-.4.4v.4 2s-.2.5-.6.5-.5-.1-.5-.4v-.1zm1-9.3c.5-.6.7-.7.8-.7s.2.1.7.5c.2.2.3.3.3.4s0 .1-.1.1h-2.8c-.2 0-.5 0-.7.1l-.1-.4c.3.1.6.1.8.1h1.1zm.1 3.2c.5-.6.6-.7.7-.7s.2.1.7.5c.2.2.3.3.3.4s0 .1-.2.1h-2.8c-.2 0-.5 0-.7.1l-.1-.4c.3.1.6.1.9.1h1.2zm0 1.5c.5-.6.6-.7.7-.7s.2.1.7.5c.2.2.3.3.3.4s0 .1-.2.1h-2.8c-.2 0-.5 0-.7.1l-.1-.4c.3.1.6.1.9.1h1.2zm.4 1.9h-1.4v2.4h1.4zm5.6-2.2c.5-.5.6-.5.7-.5s.2.1.7.5c.2.2.3.3.3.4s-.1.2-.4.4c-.4.9-.9 1.7-1.6 2.5.9.6 1.9.9 2.9 1.1 0 0 .1 0 .1.1 0 0 0 .1-.1.1-.4.1-.6.4-.7.9 0 .2-.1.2-.2.2-.2 0-.3-.1-.5-.2-.9-.3-1.6-.9-2.2-1.6-1 .8-2.2 1.5-3.5 1.8-.1 0-.1-.1-.1-.2 1.2-.6 2.2-1.4 3.1-2.3-.5-.9-.9-1.8-1.2-2.8h-.2c-.2 0-.5 0-.7.1l-.1-.5c.3.1.6.1.9.1zm2.1-2.3c0 .2 0 .2.2.3.1.1.2.2.2.4 0 .3-.2.5-.5.5-.4.1-.8.2-1.2.1-1 0-1.4-.3-1.4-1 0-.5 0-.6 0-1.1v-1.2h-1.4v.2c0 .7-.1 1.5-.4 2.1-.4.7-1.1 1.2-1.8 1.4 0 0-.1 0-.1-.1.5-.4.8-1 1-1.7.1-.5.2-1 .1-1.5 0-.5 0-1-.1-1.4.6.2.7.3 1.2.6h1.3c.4-.4.5-.5.6-.5s.2 0 .6.4c.1.1.2.2.2.3s-.1.2-.3.3v1.9c0 .2.1.2.5.2s.4 0 .6-.1c.2-.3.3-.7.4-1.1 0-.1.1-.1.1 0zm-4.6 2.6c.3.8.8 1.6 1.4 2.2.5-.7.9-1.4 1.1-2.2z"/><path d="m234.5 453.1c1 0 1.2-.1 1.5-.3.3-.3.5-.6.7-.9 0-.1.1-.1.2-.1s.1.1.1.2c-.1.6-.4 1.7-.6 2.3-.8 0-1.4 0-2.3 0s-1.6 0-2.4 0c-.1 0-.1 0-.1-.2 0-.1 0-.2.1-.3.6-1.1 1.3-2.1 2.1-3.1 1-1.3 1.6-1.9 1.6-3.1s-.4-1.7-1-1.7c-.5 0-.9.3-1 .7-.1.3-.1.6-.1.9s-.5.6-.9.6-.6-.1-.6-.5c.2-1.2 1.3-2.1 2.6-2 1.2-.2 2.3.7 2.5 1.9v.3c0 1.5-1.1 2.1-2.3 3.2-.8.6-1.5 1.4-2 2.2z"/><path d="m240.9 446.9c-.7 0-.8.1-1 .3s-.3.5-.4.8c0 .1-.1.1-.2.1s-.1 0-.1-.1c.1-.6.2-1.6.3-2.2h2.4s1.6 0 2.3 0c.1 0 .1 0 .1.2v.3c-1 1.6-1.7 3.4-2.1 5.2-.1.5-.2 1.1-.2 1.6v.8s-.4.6-.9.6-.8-.1-.8-.5c.1-1.1.4-2.1.9-3 .7-1.4 1.4-2.7 2.3-4z"/><path d="m251.7 447.9c.8 0 1.4.9 1.4 2.1 0 .9-.1 1.8-.4 2.7-.2.5-.4.9-.7 1.3-.4.5-.8.7-1.2.7s-.6-.1-.6-.5c0-.2-.1-.5-.2-.6-.2-.2-.3-.4-.5-.6-.1-.1-.1-.1-.1-.1s0-.1.1-.1c.1 0 .1 0 .1.1.3.2.5.3.8.5.1.1.3.1.5.1s.3-.1.4-.2c.3-.4.5-.9.6-1.4.2-.6.3-1.3.3-1.9 0-1.1-.2-1.5-.7-1.5-.2 0-.4 0-.6.1-.5 1.1-1.2 2.6-1.7 3.6s-.9 1.7-1.2 2.2c-.1.2-.3.3-.5.3-.3 0-.5-.2-.5-.5 0-.2.1-.5.2-.6 1-1.5 1.9-3 2.6-4.6l-1.3.5c-.1 0-.2.1-.4.2-.1.1-.2.1-.3.1-.3 0-.5-.1-.7-.3s-.4-.5-.5-.8c0-.2.1-.4.2-.4s.1.1.2.1c.1.2.4.4.6.4.3 0 .7-.1 1-.1.4-.1.9-.2 1.4-.3.3-.6.5-1.3.6-1.9 0-.1-.1-.3-.2-.4-.2-.1-.3-.1-.5-.2-.1 0-.2 0-.2-.1s.1-.2.2-.2c.2-.1.4-.1.6-.1.5.1.9.3 1.3.7.1.1.1.2.1.3 0 .2-.1.3-.3.4-.1.1-.2.2-.2.4l-.4 1c.3-.4.5-.5.7-.4zm2.9 3.4h-.4c-.1 0-.1 0-.1-.1s0-.1.1-.1c1.1-.4 1.4-.6 1.4-.8 0-.4-.2-.7-.4-1-.3-.5-.8-1-1.4-1.2-.1 0-.2-.1-.2-.2s.1-.1.2-.1h.1c.7.1 1.4.5 1.9 1 .7.5 1 1.4 1 2.2 0 .5-.3.6-.5.7-.2 0-.4 0-.5-.2-.1-.1-.2-.2-.4-.2z"/><path d="m261.2 450.5c0 .7-.2 1.4-.3 2.1-.3 1.1-.9 2-1.6 2.8l-.2-.1c.5-.9.8-1.9.9-2.9.1-1.3.2-2.7.2-4 0-.7 0-1 0-1.6.4.2.9.4 1.3.7h1.7c.4-.5.5-.5.6-.5s.2.1.7.5c.2.2.3.2.3.3s-.1.2-.4.4v.6 2.2s-.2.5-.6.5-.5-.1-.5-.4v-.3zm2-5.1c.6-.6.7-.7.8-.7s.2.1.8.5c.2.2.3.3.3.4s0 .1-.2.1h-4.3c-.3 0-.6 0-.8.1l-.1-.5c.3.1.6.1.9.1zm0 2.2h-1.9v.4c0 .9 0 1.6-.1 2.2h2zm3.2 1.3c0 1.1-.2 2.1-.5 3.2-.5 1.4-1.5 2.6-2.7 3.4 0 0-.2-.1-.1-.1 1-.9 1.6-2.1 1.9-3.4s.4-2.7.3-4.1c0-.8 0-1.2-.1-2 .4.1.9.3 1.3.5.7-.3 1.4-.7 2-1.2.2-.2.4-.4.6-.6 1.1.9 1.2.9 1.2 1.1s-.1.2-.6.1c-1 .5-2.1.8-3.2 1v.6 1.3h2.4c.5-.6.6-.8.7-.8s.2.1.8.5c.2.2.3.3.3.4s0 .1-.2.1h-1.7v2 3.9c0 .4-.2.6-.7.6-.4 0-.5-.1-.5-.4s0-1.1 0-2.8v-3.2z"/><path d="m188.6 301.1c.5-.8.9-1.6 1.3-2.4.3-.5.5-1 .6-1.6 1.1.5 1.5.8 1.5 1s-.2.2-.6.2c-.7 1-1.6 1.9-2.5 2.8.7 0 1.4 0 2.1-.1-.1-.4-.3-.8-.5-1.1l.1-.1c1.1.6 1.6 1.1 1.6 1.8 0 .4-.2.7-.6.7-.3 0-.4-.2-.5-.9l-.8.2v2 4c0 .4-.2.5-.7.5s-.6-.1-.6-.4.1-1.2.1-3v-1c-.1.1-.2.1-.4.1-.3 1.2-.9 2.2-1.6 3.2 0 .1-.2 0-.2-.1.3-.8.5-1.7.6-2.6.1-.5.1-1 .1-1.5.5.1 1 .3 1.5.5v-1.5l-1.2.3c-.1.3-.2.4-.3.4s-.3-.3-.5-1.5h.7zm.5-5.1c.1-.3.1-.6.2-.9 1.3.5 1.7.7 1.7.8s-.2.2-.6.2c-.5.6-1 1.2-1.6 1.8.4.2.6.6.6 1 0 .5-.3.8-.6.8s-.4 0-.6-.8c-.1-.5-.4-1-.8-1.4-.1-.1 0-.1.1-.1.4.1.8.2 1.1.4.2-.6.4-1.2.5-1.8zm2.5 8.9c-.3 0-.5-.1-.5-.8 0-.5-.1-1-.4-1.4 0-.1 0-.1.1-.1 1 .5 1.4 1 1.4 1.6 0 .4-.2.7-.6.7zm1.3.2c0 .9-.4 1.7-1.1 1.7-.4 0-.7-.3-.7-.6 0-.3.2-.5.6-.7.6-.3.9-.6.9-1.4 0-.1.1-.1.2 0 .1.3.1.7.1 1zm2-8.7c-.6 1.5-1.7 2.7-3.1 3.6-.1 0-.2 0-.1-.1.8-1 1.4-2.1 1.8-3.3.1-.4.2-.8.3-1.3 1.5.4 1.7.5 1.7.8s-.2.3-.6.3zm-1.1 4.6c.3-.6.5-1.3.7-2 .1-.5.2-.9.3-1.4 1.4.4 1.8.5 1.8.7s0 .2-.6.3c-.5.8-1.1 1.6-1.7 2.3 1 0 2-.1 2.9-.1-.2-.5-.5-.9-.8-1.3 0 0 0-.1.1-.1 1.5.5 2.3 1.2 2.3 2.1 0 .4-.3.8-.7.8-.3 0-.5-.2-.6-.6 0-.2-.1-.3-.1-.5-1.3.4-2.6.7-4 .9 0 .3-.2.5-.3.5s-.2-.2-.5-1.6c.4 0 .7.1 1.1.1zm1 5.2c0 .4.2.5 1.1.5.3 0 .7 0 1-.2.2-.1.4-.4.7-1.5 0-.1.2-.1.2 0v1.2c0 .2 0 .2.2.3.3.1.4.2.4.5s-.2.5-.7.7c-.6.1-1.3.2-1.9.2-1.8 0-2.3-.2-2.3-1 0-.5.1-.9.1-2.8 0-.3 0-.6-.1-.9 1.6.2 1.7.2 1.7.4s-.1.2-.4.3zm1.5-1.7c-.3 0-.4-.1-.6-.5-.1-.6-.5-1.1-.9-1.5v-.1h.1c1.3.2 2.1.7 2.1 1.4 0 .4-.3.7-.7.7zm3.2-4.6c0 .2-.1.2-.2.2s-.3-.1-.4-.2c-.5-.4-.9-.9-1.2-1.4-.5-.8-.8-1.6-1-2.5-.1-.2-.1-.2-.2-.4 0 0 0-.1-.1-.1 0-.1.3-.2.5-.2.1 0 .1 0 .1.1s-.1.2-.1.3 0 .2.1.4c.3.6.7 1 1.2 1.4.6.5 1.3.8 2 1.1.1 0 .1.1 0 .2-.4.1-.5.3-.7 1.1zm-.1 6.8c-.4 0-.5-.2-.6-.9s-.4-1.3-.8-1.9c0 0 0-.1.1-.1 1.4.6 2 1.2 2 2 0 .5-.3.9-.7.9z"/><path d="m205.2 298.3c0 .7 0 1.4-.1 2.1h.9c.4-.6.5-.7.6-.7s.3.1.7.5c.2.2.3.3.3.4s-.1.1-.3.4c0 2-.3 3.9-.8 5.8-.1.3-.3.5-.6.7s-.6.3-1 .3c-.2 0-.2 0-.2-.2-.1-.6-.3-.8-1-1-.1 0 0-.2 0-.2.6 0 1 .1 1.1.1.4 0 .5-.1.7-.6.3-1.7.5-3.4.5-5.1h-1.1c-.3 3.6-1.1 5.5-2.8 7.1-.1 0-.2-.1-.1-.1 1.3-2.2 1.8-4.8 1.8-9v-.4h-.4c-.3 0-.6 0-.9.1l-.1-.5c.3.1.7.1 1 .1h.8v-1.7c0-.2 0-.6-.1-1 1.6.1 1.7.3 1.7.5s-.1.2-.4.4v1.9h.4c.5-.6.7-.7.8-.7s.3.1.7.5c.2.2.3.3.3.4s0 .1-.2.1zm4.1-.4c-.5.7-1.1 1.4-1.8 1.9-.1 0-.2 0-.2-.1.6-.9 1-1.8 1.3-2.8.2-.6.3-1.2.4-1.8 1.5.3 1.8.4 1.8.6s-.1.2-.5.3c-.2.5-.4 1-.7 1.5h3.6c.7-.8.9-1 1-1s.3.1.9.6c.3.3.4.4.4.5s0 .1-.2.1zm.4 8.2c0 .5.1.6 1.9.6s2.1-.1 2.3-.2.3-.3.8-1.9c0-.1.2 0 .2 0v1.3c0 .2.1.3.2.4.3.2.4.3.4.6s-.3.6-.9.8c-.9.2-1.8.2-2.7.2-2.9 0-3.4-.2-3.4-1.3 0-.4 0-.7 0-2.2 0-.6 0-1.3 0-1.9-.3.1-.6.2-.8.3l-.3-.5c.3 0 .6-.1.9-.2h.2c0-.9 0-1.8 0-2.7 1.5.1 1.7.2 1.7.4s-.1.2-.4.4v1.5l1.1-.3v-1c0-.6 0-1.2-.1-1.9 1.2.1 1.6.2 1.6.4s-.1.2-.4.3v1.8l1.1-.3c.4-.7.6-.8.7-.8.4.1.7.3 1 .6.1.1.1.2.2.3 0 .1-.1.2-.4.4 0 1-.1 1.9-.2 2.9-.1.3-.2.6-.4.9-.2.2-.5.3-.9.3-.2 0-.2 0-.2-.4s-.3-.6-.8-.8v.9c0 .4-.2.5-.7.5s-.5-.1-.5-.5 0-1.4.1-3.4l-1.1.3zm2.3-4.8v1.3 1.3c.3.1.5.1.8.1.2 0 .4-.1.4-.4.1-.9.2-1.8.2-2.6z"/><path d="m221.6 298.1c.6-.7.8-.9.9-.9s.3.1.9.6c.3.2.4.3.4.4s0 .1-.2.1h-4.4c-.3 0-.7 0-1 .1l-.2-.4c.4.1.7.1 1.1.1zm-1.8 9v.4c0 .4-.2.5-.7.5s-.6-.1-.6-.5 0-.9 0-2.7c0-.7 0-1.3-.1-2 .5.2 1 .4 1.5.7h1.4c.5-.6.6-.7.7-.7s.2.1.8.5c.2.2.3.3.3.4s-.1.2-.4.5v.5c0 1.2.1 2 .1 2.3s-.2.5-.8.5-.6-.1-.6-.4v-.1zm1.1-10.9c.6-.7.8-.8.9-.8s.3.1.9.6c.2.2.4.3.4.4s0 .1-.2.1h-3.3c-.3 0-.6 0-.8.1l-.2-.5c.3.1.7.1 1 .1zm.1 3.8c.5-.7.7-.8.8-.8s.3.1.8.6c.2.2.4.3.4.4s0 .1-.2.1h-3.2c-.3 0-.6 0-.9.1l-.2-.5c.3.1.7.1 1 .1zm0 1.8c.5-.7.7-.8.8-.8s.3.1.8.6c.2.2.4.3.4.4s0 .1-.2.1h-3.2c-.3 0-.6 0-.8.1l-.1-.5c.3.1.7.1 1 .1zm.5 2.1h-1.6v2.8h1.6zm6.6-2.5c.6-.6.7-.6.8-.6s.3.1.8.5c.3.2.4.3.4.4s-.2.3-.5.4c-.5 1.1-1.1 2-1.9 2.9 1 .7 2.2 1.1 3.4 1.3.1 0 .1.1 0 .1-.5.1-.7.4-.8 1.1-.1.2-.1.3-.2.3-.2 0-.4-.1-.5-.2-1-.4-1.9-1-2.6-1.8-1.2 1-2.6 1.7-4.1 2.1-.1 0-.1-.1-.1-.2 1.4-.6 2.6-1.6 3.6-2.7-.6-1-1.1-2.1-1.4-3.2h-.2c-.3 0-.5 0-.8.1l-.2-.5c.3.1.7.1 1 .1zm2.4-2.8c0 .2.1.3.3.4.1.1.2.3.2.4 0 .3-.2.5-.6.6s-.9.2-1.4.2c-1.2 0-1.7-.3-1.7-1.2 0-.5 0-.7 0-1.2v-1.4h-1.6v.3c0 .9-.1 1.7-.4 2.5-.5.8-1.2 1.4-2.1 1.7-.1 0-.2 0-.1-.1.6-.5 1-1.2 1.2-2 .1-.6.2-1.1.2-1.7s0-1.1-.1-1.7c.7.3.8.3 1.5.7h1.5c.4-.5.5-.6.7-.6s.2.1.7.5c.1.1.2.2.3.4 0 .1-.1.2-.4.4v2.2c0 .2.1.3.6.3s.5 0 .6-.2c.2-.4.4-.8.5-1.2 0-.1.2-.1.2 0zm-5.4 3.1c.4 1 .9 1.8 1.6 2.6.6-.8 1-1.6 1.3-2.6z"/><path d="m237.4 299.7v1.2s-.2.5-.7.5-.5-.1-.5-.5c0-.1 0-.5.1-1.3-.8 1-1.9 1.8-3.1 2.3-.1 0-.1-.1-.1-.1 1-.8 1.9-1.8 2.5-3h-1c-.3 0-.7 0-1 .1l-.1-.5c.3.1.7.1 1.1.1h1.7v-1.8c0-.4 0-.9-.1-1.3 1.4.1 1.7.2 1.7.4s-.1.2-.4.3v2.4h1.2c.4-.6.6-.7.7-.7s.3.1.8.5c.2.2.3.3.3.4s-.1.1-.2.1h-2.8v.5c1.3.2 2 .6 2 1.3 0 .3-.2.5-.5.6 0 0 0 0-.1 0-.2 0-.4-.1-.7-.6-.2-.3-.5-.7-.8-.9zm1.7 3.5c-.2.7-.6 1.5-1 2.1.6.3.9.6.9 1 0 .3-.3.6-.6.6-.4 0-.4 0-1-.8-1.1 1-2.5 1.6-4 1.8-.1 0-.1-.2 0-.2 1.3-.4 2.4-1.2 3.3-2.3-.3-.2-.7-.4-1-.6l-.3.5c-.1.2-.4.4-.6.4-.4 0-.6-.2-.6-.4 0-.1.1-.2.1-.4.4-.6.7-1.2 1-1.8h-.8c-.3 0-.6 0-.9.1l-.2-.5c.4.1.7.1 1.1.1h1l.1-.1c.2-.4.3-.8.4-1.2 1.4.3 1.4.3 1.4.5s-.1.2-.4.3l-.2.6h1.9c.5-.6.7-.7.8-.7s.3.1.7.5c.2.2.3.3.3.4s0 .1-.2.1zm-4-5.1c-.4 0-.4-.1-.6-.9-.1-.4-.2-.8-.5-1.2 0 0 0-.1.1-.1 1 .3 1.6.8 1.6 1.5 0 .4-.3.7-.6.7zm.7 6.6c.4.1.9.2 1.3.3.3-.5.6-1.1.7-1.7h-1.3zm3.7-7.9c-.5.6-1.1 1.1-1.7 1.5-.1 0-.1 0-.1-.1.3-.4.5-.9.7-1.4.1-.3.2-.7.3-1 1 .4 1.4.6 1.4.8s-.2.2-.6.2zm5.5 2.1c-.2 1.9-.8 3.8-1.8 5.4.9.9 2.1 1.7 3.3 2.1 0 0 .1.1 0 .1-.4.1-.5.3-.6 1-.1.4-.1.4-.3.4-.3-.1-.5-.2-.7-.4-.9-.7-1.7-1.5-2.4-2.4-1.1 1.3-2.6 2.3-4.2 2.8-.1 0-.1-.1-.1-.2 1.5-.9 2.8-2.1 3.8-3.6-.6-1.2-1-2.5-1.2-3.8-.4.5-.8 1-1.3 1.5-.1 0-.2 0-.1-.1.8-1.5 1.4-3 1.8-4.7.1-.6.2-1.3.2-1.9 1.6.4 1.8.4 1.8.6s-.1.2-.6.4c-.2.8-.5 1.5-.8 2.3h2.4c.6-.8.8-.9.9-.9s.3.1.9.6c.2.2.4.4.4.5s0 .1-.2.1zm-3.3 0c-.2.4-.4.9-.7 1.3.3 1.1.8 2.2 1.4 3.2.7-1.4 1.1-2.9 1.2-4.5z"/><path d="m140.7 442.1c0 2.2-1.3 3.5-2.9 3.5s-2.9-1.2-2.9-3.4 1.3-3.5 2.9-3.5 2.9 1.3 2.9 3.4zm-4.3 0c0 1.9.5 3 1.3 3s1.4-1.1 1.4-3-.5-3-1.4-3-1.3 1.1-1.3 3zm1 8.8 7.9-12.8.5.3-7.8 12.8zm10.9-3.8c0 2.2-1.3 3.5-2.9 3.5s-2.9-1.3-2.9-3.4 1.3-3.5 2.9-3.5 2.9 1.3 2.9 3.4zm-4.3.1c0 1.9.5 3 1.4 3s1.3-1.1 1.3-3-.5-3-1.3-3-1.3 1-1.4 3z"/></g><path d="m41.4 415c2.1 0 4.3.3 6.3 1 1.6.5 2.9 1.4 4 2.7 1 1.2 1.5 2.7 1.4 4.3 0 1.2-.2 2.3-.8 3.3-.5.9-1.2 1.6-2 2.2s-1.7.9-2.7 1.1c-.9.2-1.9.1-2.8-.1 1 0 2 .2 3 .4 1.1.3 2.2.8 3.1 1.5 1 .7 1.9 1.7 2.5 2.8.7 1.4 1 2.9 1 4.4 0 2-.5 4-1.5 5.7-1 1.6-2.4 3-4 4-1.7 1.1-3.7 1.8-5.7 2.3-2.1.4-4.3.6-6.5.4s-4.4-.8-6.4-1.7l.1-.5c1.8 0 3.6-.2 5.4-.7 1.6-.5 3.1-1.2 4.5-2.2 1.3-.9 2.3-2.1 3.1-3.5s1.2-3 1.1-4.6c.1-1.6-.4-3.2-1.3-4.5-.9-1.1-2-1.9-3.3-2.4-1.2-.5-2.6-.8-3.9-.8l.1-.5c2.8.1 5.4-1.4 6.7-3.8.7-1.2.9-2.6.8-4 0-1-.4-1.9-1-2.7-.5-.7-1.2-1.2-2-1.5s-1.7-.4-2.6-.3c-1.6 0-3.1 1-3.9 2.4-.9 2-1.3 4.3-1.2 6.5h-.5l-2.6-8c1.4-1.1 3-1.9 4.7-2.4 2.4-.6 4.6-.8 6.9-.8z" fill="#4aa064"/><path d="m61.6 449.5-.2-.3c2.7-.8 5.3-1.9 7.7-3.4 1.7-1.1 3.1-2.5 4.1-4.3.9-1.7 1.4-3.5 1.6-5.4.2-2.3.3-4.5.3-6.8 0-2.5-.1-4.7-.2-6.4 0-1.3-.3-2.6-.9-3.8-.5-.9-1.4-1.3-2.4-1.3-1-.1-2 .3-2.6 1.1-.6.9-1 1.9-1.2 2.9-.2 1.3-.3 2.6-.3 3.9 0 1.4.1 2.7.3 4.1.1.8.4 1.5.8 2.2.3.4.7.8 1.2 1 .6.3 1.3.3 2 .1.5-.2 1-.4 1.5-.6l.3.4c-.4 1-1.1 1.8-2 2.3-1 .6-2 1-3.2 1.2s-2.4.1-3.6-.2-2.4-.9-3.4-1.7c-1.1-.9-1.9-2-2.5-3.3-.7-1.6-.9-3.3-.8-5.1 0-2 .6-3.9 1.5-5.6 1-1.7 2.5-3.1 4.4-4 2.3-1.1 4.9-1.7 7.4-1.7 4.5-.1 8 1.1 10.4 3.6s3.6 6.3 3.6 11.6c0 3-.4 6-1.5 8.8-.9 2.5-2.5 4.7-4.5 6.5-2.2 1.8-4.7 3.1-7.4 3.7-3.4.9-6.9 1-10.4.5z" fill="#4aa064"/><path d="m93.1 448.4c-2.3 0-4.1-1.9-4.1-4.2 0-1.1.4-2.2 1.2-2.9 1.7-1.6 4.3-1.5 5.9.2 1.5 1.6 1.5 4.1 0 5.6-.9.9-1.9 1.3-3 1.3z" fill="#4aa064"/><path d="m111.6 415c2.1 0 4.3.3 6.3 1 1.6.5 2.9 1.4 4 2.7 1 1.2 1.5 2.7 1.4 4.3 0 1.2-.2 2.3-.8 3.3-.5.9-1.2 1.6-2 2.2s-1.7.9-2.7 1.1c-.9.2-1.9.1-2.8-.1 1 0 2 .2 3 .4 1.1.3 2.2.8 3.1 1.5 1 .7 1.9 1.7 2.5 2.8.7 1.4 1 2.9 1 4.4 0 2-.5 4-1.5 5.7-1 1.6-2.4 3-4 4-1.7 1.1-3.7 1.8-5.7 2.3-2.1.4-4.3.6-6.5.4s-4.4-.8-6.4-1.7l.1-.5c1.8 0 3.6-.2 5.4-.7 1.6-.5 3.1-1.2 4.5-2.2 1.3-.9 2.3-2.1 3.1-3.5s1.2-3 1.1-4.6c.1-1.6-.4-3.2-1.3-4.5-.8-1.1-2-1.9-3.3-2.5-1.2-.5-2.6-.8-3.9-.8l.1-.5c2.8.1 5.4-1.4 6.7-3.8.7-1.2.9-2.6.8-4 0-1-.4-1.9-1-2.7-.5-.7-1.2-1.2-2-1.5s-1.7-.4-2.6-.3c-1.6 0-3.1 1-3.9 2.4-.9 2.1-1.2 4.3-1.1 6.5h-.5l-2.6-8c1.4-1.1 3-1.9 4.7-2.4 2.4-.5 4.6-.7 6.8-.7z" fill="#4aa064"/><path d="m25.8 306.2v.5c0 .4-.2.6-.8.6s-.6-.2-.6-.5c0-1.2.1-2.5.1-7.5 0-1.1 0-2.3-.1-3.5.5.2 1.1.5 1.6.7h1.3c.2-.5.3-1 .4-1.4.1-.3.2-.7.2-1 1.4.4 1.7.5 1.7.7s-.1.2-.5.3c-.4.5-.9 1-1.4 1.4h3.9c.5-.5.6-.6.7-.6s.3.1.8.5c.3.2.4.3.4.5s-.1.2-.5.5v1.4c0 4.1.1 6.9.1 7.8 0 .4-.2.6-.8.6s-.6-.1-.6-.5v-.5zm6-9.2h-6v2.6h6zm0 2.9h-6v2.7h6zm0 3h-6v3h6z" fill="#333"/><path d="m47.2 295.8h-6.9c-.3 0-.7 0-1 .1l-.2-.6c.4.1.8.1 1.2.1h6.9c.5-.6.6-.6.7-.6s.3.1.8.5c.2.2.3.3.3.4s0 .1-.4.5v.7c0 1.8.1 3 .1 3.4s-.2.7-.8.7c-.4 0-.6-.1-.6-.5v-.5h-6.7v4.6c0 .6.3.8 3.3.8 3.6 0 4.2-.1 4.6-.4s.6-.8 1-2.2c0-.1.2-.1.2 0v1.8s0 .3.2.4.4.3.3.5c0 .5-.3.7-1.2.9-1.5.2-3.1.3-4.6.3-4.5 0-5.2-.2-5.2-1.8 0-.6 0-1.6 0-3.1 0-1.3 0-1.7-.1-2.8.5.2 1 .5 1.5.8h6.6z" fill="#333"/><path d="m54.3 299.4c0 .4-.1.5-.3.5s-.2-.1-.7-1.6c.5 0 1 0 1.5-.1 1.1-.1 2.2-.3 3.2-.5.1 0 .1.1.1.2-1.2.6-2.5 1.1-3.8 1.5zm3.6 6.9c-1.4.6-2.9 1-4.5 1-.1 0-.1-.2 0-.2.9-.3 1.8-.6 2.6-1.1.4-.2.7-.5 1-.9 1.5.9 1.5.9 1.5 1.1s-.1.1-.6.1zm-2.6-5.8c-.5 0-.9.1-1.4.1-.1 0-.1-.1 0-.2.5-.1 1-.2 1.4-.3 0-.3 0-.6 0-.9.4.1.9.3 1.3.5.9-.4 1.8-1 2.5-1.7.4-.5.7-1.1.8-1.7 1.2.2 1.8.4 1.8.5s-.2.2-.5.3c.5.6 1.2 1.1 2 1.5 1 .4 2 .6 3.1.6.1 0 .1.1 0 .2-.4.2-.7.6-.7 1 0 .1-.1.2-.2.1-.2 0-.4-.1-.6-.1-.2-.1-.5-.2-.7-.3-.1.1-.2.2-.3.2v.7c0 2 .1 3.3.1 3.7s-.3.5-.8.5c-.3 0-.5-.1-.5-.4h-5.8v.1c0 .3-.2.5-.7.5s-.6-.1-.6-.5c0-.6.1-1.3.1-3.9zm.4-3.6c-.3 0-.5-.1-.7-.6-.2-.6-.6-1.1-1.1-1.5-.1 0 0-.1 0-.1 1.6.1 2.4.6 2.4 1.4.1.5-.2.8-.6.8zm.8 4.4h5.8v-1.2h-5.1l-.8.2zm5.8.3h-5.8v1.2h5.8zm0 1.6h-5.8v1.3h5.8zm-3.6-7c-.6.5-1.2 1-1.9 1.3 0 0-.2-.1-.1-.1.5-.5 1-1.2 1.3-1.9.2-.4.3-.8.5-1.3 1.3.4 1.7.6 1.7.7s-.1.2-.6.3c-.1.2-.3.4-.5.6h4.6c.5-.6.6-.7.7-.7s.2.1.8.6c.3.2.3.4.3.5s-.1.3-.6.4c-.2 0-.3.1-.5.2-.5.3-1 .6-1.5.8-.1 0-.2-.1-.1-.2.3-.4.6-.8.8-1.3zm3.5 3.6.4-.4c-.7-.5-1.3-1.2-1.7-2-.6 1.1-1.6 1.9-2.7 2.4zm1.9 7.6c-.3 0-.6-.2-.8-.4-.8-.7-1.8-1.2-2.8-1.5-.1 0 0-.1 0-.1 3.6 0 4.4.5 4.4 1.3-.1.4-.5.7-.8.7z" fill="#333"/><path d="m74 303.8c0-1.4.1-2.9.1-4.3-1.3 2.3-3.3 4.2-5.7 5.4-.1 0-.1-.1-.1-.1 2.3-1.8 4-4.1 5.1-6.8h-3.2c-.4 0-.8 0-1.2.1l-.2-.5c.4.1.9.1 1.3.1h3.9v-1.2c0-.7 0-1.3-.1-2 1.4.1 1.8.2 1.8.4s-.1.2-.4.4v2.3h3.3c.7-.9.8-1 .9-1s.3.1 1 .7c.3.3.4.4.4.5s0 .1-.2.1h-5.3c.5 1.2 1.2 2.2 2.2 3 1.1 1 2.5 1.8 3.9 2.2 0 0 .1 0 .1.1s0 .1-.1.1c-.5.2-.8.4-1 1.1-.1.2-.1.3-.2.3-.2 0-.4-.1-.6-.3-1.1-.7-2-1.6-2.7-2.7-.7-1-1.3-2.2-1.7-3.4 0 1.3.1 4.2.1 5.5h.7c.6-.8.8-.9.9-.9s.3.1.9.6c.3.2.4.4.4.5s0 .1-.2.1h-2.7v2.6s-.3.6-.9.6-.6-.1-.6-.5 0-1.4.1-2.7h-1.6c-.3 0-.7 0-1 .1l-.2-.5c.4.1.7.1 1.1.1z" fill="#333"/><path d="m86.9 304.9c1.1-.3 2.3-.6 3.4-1 .1 0 .1.1.1.1-1.6 1.1-3.3 1.9-5.2 2.5-.1.4-.2.5-.4.5s-.3-.3-.8-1.7c.3 0 .6-.1.9-.1l.7-.1v-8.6c0-.6 0-1.1-.1-1.7 1.7.2 1.9.3 1.9.5s-.1.2-.5.4v3.7h1.4c.7-.8.9-.9 1-.9s.3.1.9.6c.3.2.4.4.4.5s0 .1-.2.1h-3.5zm5.2-4.5c.8-.6 1.5-1.2 2.1-1.9.4-.4.7-.9 1-1.4 1.1.7 1.6 1 1.6 1.2s-.1.3-.7.2c-1.2 1-2.5 1.7-3.9 2.3v4.2c0 .6.1.6 1.7.6.4.1.8 0 1.2-.2.3-.2.6-.8 1-2.2 0-.1.2-.1.2 0 0 .6-.1 1.5-.1 1.8 0 .1.1.3.2.3.3.1.4.3.4.5s-.3.7-.9.8c-.7.1-1.4.2-2.2.2-2.6 0-3-.2-3-1.6 0-.3 0-.5 0-1.6 0-2.9 0-5.9 0-8.8 1.5.2 1.8.2 1.8.4s-.1.2-.4.4z" fill="#333"/><path d="m106.2 304.1v2.8s-.3.5-.8.5-.6-.1-.6-.5.1-1.1.1-2.8h-4.3c-.3 0-.7 0-1 .1l-.2-.5c.4.1.8.1 1.2.1h4.3v-.1c0-.5 0-1-.1-1.6 1.6.2 1.8.2 1.8.4s-.1.2-.5.4v.8h3.5c.7-.9.9-1 1-1s.3.1 1 .7c.3.2.4.4.4.5s0 .1-.2.1zm-5.6-2c0 .4-.1.6-.2.6s-.4-.4-.9-1.5c.4-.1.8-.2 1.2-.4.9-.3 1.7-.6 2.5-1 0 0 .2.1.1.2-.7.8-1.7 1.5-2.7 2.1zm4.3-5.7c1 .4 1.3.5 1.3.7s0 .1-.5.2c-.4.4-.8.8-1.2 1.1.3.2.5.5.5.9 0 .3-.2.6-.5.7-.3 0-.4-.1-.6-.7-.2-.5-.5-.9-.9-1.3v-.1c.4.1.8.2 1.1.4.1-.3.2-.5.4-.8.1-.3.2-.6.3-.9h-4.2c-.3 0-.7 0-1 .1l-.2-.5c.4.1.7.1 1.1.1h4.2v-1c0-.3 0-.6-.1-.8 1.7.2 1.9.3 1.9.5s-.2.3-.5.4v.9h3.3c.8-.8.9-1 1-1s.3.1.9.7c.3.2.4.4.4.5s0 .1-.2.1zm-3.1 3.2c-.4 0-.5-.1-.7-.9-.2-.6-.5-1.1-.9-1.5v-.1h.1c1.5.5 2.2 1 2.2 1.7 0 .4-.3.8-.7.8zm5.3 1.4c-.2-.3-.4-.6-.6-.8 0 0 0-.1.1-.1 1.2.4 2 1 2 1.7 0 .4-.3.7-.6.7-.3 0-.4-.1-.6-.9 0-.1-.1-.2-.1-.3-1.2.4-2.4.7-3.7.9-.1.3-.1.4-.2.4s-.3-.2-.6-1.5h1.4c.7-.7 1.3-1.5 1.8-2.4.2-.4.4-.7.6-1.1 1.2.6 1.4.8 1.4 1s0 .2-.6.2c-.8.8-1.7 1.6-2.7 2.4.8-.1 1.6-.1 2.4-.2zm3.5-2.9c-.8.7-1.7 1.2-2.7 1.6-.1 0-.2-.1-.1-.1.5-.5 1-1.1 1.4-1.7.2-.3.4-.6.5-1 1.1.6 1.4.8 1.4 1s-.1.2-.5.2zm-.1 4.2c-.3 0-.5-.1-.9-.8-.3-.6-.8-1.1-1.3-1.4 0 0 0-.2.1-.1 1.9.3 2.8.8 2.8 1.6 0 .4-.3.7-.7.7 0 0 0 .1 0 0z" fill="#333"/><path d="m0 273.2h335" fill="none" stroke="#4aa064" stroke-miterlimit="10" stroke-width="1.76"/><path d="m167.5 273.2v196.9" fill="none" stroke="#4aa064" stroke-miterlimit="10" stroke-width="1.76"/></svg>