<?xml version="1.0" encoding="utf-8"?>
<!-- Generator: Adobe Illustrator 25.4.1, SVG Export Plug-In . SVG Version: 6.00 Build 0)  -->
<svg version="1.1" id="レイヤー_1" xmlns="http://www.w3.org/2000/svg" xmlns:xlink="http://www.w3.org/1999/xlink" x="0px"
	 y="0px" viewBox="0 0 335 470.1" style="enable-background:new 0 0 335 470.1;" xml:space="preserve">
<style type="text/css">
	.st0{fill:#333333;}
	.st1{fill:#4AA064;}
	.st2{fill:none;stroke:#CCCCCC;stroke-width:0.8;stroke-miterlimit:10;}
	.st3{fill:#FFFFFF;}
	.st4{fill:none;stroke:#4AA064;stroke-width:0.8;stroke-miterlimit:10;}
	.st5{fill:none;stroke:#4AA064;stroke-width:1.76;stroke-miterlimit:10;}
</style>
<path class="st0" d="M30.6,34.5c0,0.9,0,1.1,0.1,1.4s0.5,0.3,1,0.4c0.1,0,0.1,0,0.1,0.2s0,0.2-0.1,0.2c-0.6,0-1.2,0-1.8,0
	s-1.3,0-1.9,0c-0.1,0-0.1,0-0.1-0.2s0-0.2,0.1-0.2c0.5,0,0.8-0.1,1-0.3c0.2-0.5,0.2-0.9,0.2-1.4V34H27h-1.3c-0.1,0-0.2,0-0.2-0.4
	c0-0.2,0-0.4,0.1-0.6c1.3-2.3,2.3-4.1,3.8-6.3l1.2-0.3c0.1,0,0.1,0,0.1,0.2c0,1.1,0,2.2-0.1,3.6v3.3c0.4,0,0.9,0,1.4-0.1
	c0.1,0,0.1,0,0.1,0.1L32,33.8c0,0.1,0,0.1-0.1,0.1c-0.4,0-1,0-1.2,0L30.6,34.5z M29.1,30.4c0-1,0-1.6,0.1-2.6
	c-1.1,1.7-2.2,3.6-3.2,5.4c-0.1,0.2-0.1,0.2,0.1,0.2h3V30.4z"/>
<path class="st0" d="M37.2,35.8c-0.7,1.1-1.7,1.9-2.9,2.4c-0.1,0-0.2-0.1-0.1-0.1c0.7-0.6,1.2-1.4,1.6-2.2c0.2-0.4,0.3-0.7,0.3-1.1
	c1.2,0.4,1.6,0.6,1.6,0.8S37.5,35.7,37.2,35.8z M40.1,34c0.4-0.6,0.6-0.7,0.7-0.7s0.2,0.1,0.6,0.5l0.1,0.1c0.2-1.6,0.2-3.2,0.2-4.8
	c0-1.7,0-2.7-0.1-3.6c0.5,0.2,1,0.5,1.5,0.8H45c0.5-0.6,0.6-0.7,0.7-0.7s0.3,0.1,0.8,0.5c0.2,0.2,0.3,0.3,0.3,0.4s0,0.2-0.4,0.4v1.6
	c0,7.4,0,7.7,0,8.1c0,0.7-0.1,1-0.6,1.2c-0.3,0.2-0.7,0.2-1,0.2c-0.2,0-0.3,0-0.3-0.4s-0.4-0.7-1.3-0.9c-0.1,0-0.1-0.2,0-0.2h1.7
	c0.2,0,0.2,0,0.2-0.2V33h-2.4c-0.1,0.6-0.2,1.1-0.3,1.7c-0.4,1.3-1.2,2.5-2.3,3.4c-0.1,0-0.2,0-0.1-0.1c0.8-1.1,1.3-2.3,1.5-3.7H35
	c-0.2,0-0.5,0-0.7,0.1l-0.2-0.5C34.4,34,34.7,34,35,34h0.6v-5.9h-0.4c-0.2,0-0.5,0-0.7,0.1l-0.2-0.5c0.3,0.1,0.6,0.1,0.9,0.1h0.4V27
	c0-0.5,0-1-0.1-1.6c1.5,0.2,1.7,0.3,1.7,0.4s-0.1,0.2-0.4,0.3v1.6h2V27c0-0.5,0-1-0.1-1.6c1.5,0.1,1.7,0.3,1.7,0.4S40.3,26,40,26.2
	v1.6h0.2c0.4-0.6,0.6-0.7,0.7-0.7s0.2,0.1,0.6,0.5c0.1,0.1,0.2,0.2,0.2,0.4c0,0.1,0,0.1-0.2,0.1H40L40.1,34L40.1,34z M36.8,28.1v1.7
	h1.9v-1.7H36.8z M38.8,30.1h-2v1.7h2V30.1z M36.8,32.1V34h2v-1.9H36.8z M39.7,37c-0.3,0-0.5-0.2-0.6-0.7c-0.2-0.6-0.5-1-1-1.4
	c-0.1,0,0-0.1,0.1-0.1c1.5,0.2,2.2,0.7,2.2,1.5C40.3,36.7,40.1,37,39.7,37C39.7,37.1,39.7,37.1,39.7,37L39.7,37z M43,29.7
	c0,1,0,2-0.2,3h2.4v-3H43z M45.2,26.6H43v2.8h2.2V26.6z"/>
<path class="st0" d="M52.8,35.1c0.2,0.6,0.7,1,1.3,1.2c1,0.3,2.1,0.4,3.2,0.3c1.8,0,3.6-0.1,5.4-0.3c0.1,0,0.1,0.1,0,0.2
	c-0.3,0.1-0.5,0.4-0.5,0.8c0,0.4-0.1,0.5-0.3,0.5c-0.7,0.1-2.4,0.1-3.4,0.1c-2.3,0-3.7-0.2-4.6-0.7c-0.7-0.5-1.2-1.2-1.4-2.1
	c-0.4,0.8-1,1.5-1.6,2.1c0,0.5,0,0.7-0.2,0.7s-0.5-0.5-1-1.7c0.3-0.1,0.7-0.2,1-0.4c0.3-0.1,0.7-0.3,1-0.5v-3.7h-1
	c-0.3,0-0.5,0-0.8,0.1L49.6,31c0.3,0.1,0.6,0.1,0.9,0.1h0.9c0.5-0.6,0.6-0.6,0.7-0.6s0.2,0.1,0.8,0.5c0.2,0.2,0.3,0.3,0.3,0.4
	s0,0.1-0.4,0.5V35.1z M52,28.3c-0.3,0-0.5-0.2-0.7-0.9c-0.2-0.6-0.5-1.2-0.9-1.6c-0.1-0.1,0-0.1,0.1-0.1c1.6,0.4,2.2,1.1,2.2,1.8
	C52.8,27.9,52.5,28.3,52,28.3C52.1,28.3,52,28.3,52,28.3z M57.1,27.3h-2.8c-0.2,0-0.5,0-0.7,0.1l-0.2-0.5C53.7,27,54,27,54.3,27H57
	v-0.5c0-0.5,0-0.9,0-1.4c1.4,0.1,1.7,0.2,1.7,0.4s-0.1,0.2-0.4,0.3V27h2c0.6-0.7,0.7-0.8,0.8-0.8s0.3,0.1,0.9,0.6
	c0.3,0.2,0.4,0.3,0.4,0.4s0,0.1-0.2,0.1h-3.9v1.3h1.8c0.4-0.5,0.5-0.6,0.6-0.6s0.3,0.1,0.7,0.5c0.2,0.2,0.3,0.3,0.3,0.4
	s-0.1,0.2-0.3,0.4v0.5c0,1.4,0,2.4,0,2.7S61.1,33,60.7,33s-0.6-0.2-0.6-0.4l0,0h-1.8c0,0.3,0,1,0,1.5h2.1c0.7-0.7,0.9-0.8,1-0.8
	s0.3,0.1,0.8,0.6c0.2,0.2,0.4,0.3,0.4,0.4s0,0.1-0.2,0.1h-4.1c0,0.6,0,1,0,1.3s-0.2,0.5-0.7,0.5S57,36.1,57,35.9s0-0.8,0-1.4h-2.7
	c-0.3,0-0.6,0-0.9,0.1L53.2,34c0.3,0.1,0.7,0.1,1,0.1H57c0-0.5,0-1,0-1.5h-1.8v0.1c0,0.3-0.2,0.5-0.7,0.5S54,33.1,54,32.7
	s0-0.7,0-2.3c0-0.8,0-1.5,0-2.3c0.4,0.2,0.9,0.4,1.3,0.6H57L57.1,27.3z M55.2,29v1.4H57c0-0.5,0-0.9,0-1.4H55.2z M57,30.7h-1.8v1.6
	H57V30.7z M58.2,30.4h1.9V29h-1.9V30.4z M60.1,32.3v-1.6h-1.9v1.6H60.1z"/>
<path class="st0" d="M76,30.8c0.5-0.6,0.6-0.7,0.7-0.7s0.2,0.1,0.9,0.7c0.3,0.3,0.4,0.4,0.4,0.5s-0.1,0.3-0.6,0.3
	c-0.2,0-0.3,0-0.4,0.1c-0.3,0.3-0.7,0.5-1.1,0.8c-0.1,0-0.1,0-0.1-0.1c0.2-0.4,0.3-0.8,0.4-1.3h-5l0,0c0,0.8-0.3,1.6-1,1.6
	c-0.3,0-0.6-0.3-0.6-0.6l0,0V32c-0.1,0-0.1,0-0.2,0c-0.3,0-0.4-0.1-0.4-0.7l-0.7,0.2v2c0,1.5,0,3.4,0,4c0,0.3-0.2,0.5-0.7,0.5
	S67,37.9,67,37.6s0.1-1.2,0.1-3.1v-1c0,0.1-0.2,0.1-0.4,0.2C66.3,34.9,65.8,36,65,37c0,0.1-0.2,0-0.2-0.1c0.3-0.9,0.5-1.8,0.6-2.7
	c0.1-0.5,0.1-0.9,0.1-1.4c1.1,0.3,1.4,0.5,1.5,0.6V32l-1.3,0.3c-0.1,0.3-0.2,0.4-0.3,0.4s-0.3-0.4-0.4-1.5c0.5,0,1,0.1,1.4,0l0,0
	c0.5-0.8,0.9-1.6,1.3-2.4c0.3-0.5,0.5-1.1,0.6-1.6c1.1,0.5,1.6,0.7,1.6,0.9s-0.1,0.2-0.5,0.2c-0.7,1.1-1.5,2.1-2.5,3
	c0.6,0,1.1,0,1.7,0H69c-0.1-0.4-0.2-0.8-0.5-1.1c0,0,0-0.1,0.1-0.1c0.9,0.5,1.3,1,1.3,1.5v0.1c0.5-0.2,0.9-0.8,0.9-1.4
	c0-0.1,0.1-0.1,0.2,0c0.1,0.2,0.2,0.5,0.2,0.7L76,30.8z M67,26.3c0.1-0.3,0.2-0.7,0.2-1.1c1.2,0.4,1.7,0.6,1.7,0.8s-0.2,0.2-0.6,0.2
	c-0.5,0.6-1,1.2-1.6,1.8c0.4,0.2,0.6,0.6,0.6,1s-0.2,0.7-0.6,0.8l0,0c-0.4,0-0.4-0.1-0.6-0.8c-0.1-0.5-0.4-1-0.8-1.4v-0.1
	c0,0,0,0,0.1,0c0.4,0.1,0.7,0.3,1.1,0.4C66.7,27.4,66.9,26.8,67,26.3z M69.6,35.8c-0.4,0-0.4-0.1-0.5-1c0-0.6-0.2-1.2-0.4-1.7
	c0-0.1,0.1-0.1,0.1-0.1c1,0.8,1.5,1.4,1.5,2C70.3,35.4,70,35.8,69.6,35.8L69.6,35.8z M72.9,32.8c0,0.2,0,0.4,0,0.7
	c0,1-0.4,2.1-1,2.9c-0.8,0.9-1.8,1.5-3,1.7c-0.1,0-0.2-0.1-0.1-0.2c0.9-0.4,1.7-1.1,2.2-1.9c0.5-0.9,0.7-2,0.6-3c0-0.3,0-0.6,0-0.9
	c1.5,0.2,1.7,0.2,1.7,0.4S73.2,32.7,72.9,32.8L72.9,32.8z M74.1,29.2h1.1c0.6-0.7,0.7-0.8,0.8-0.8s0.3,0.1,0.8,0.5
	c0.2,0.2,0.3,0.3,0.3,0.4s0,0.1-0.2,0.1h-5.8c-0.3,0-0.5,0-0.8,0.1L70.1,29c0.3,0.1,0.6,0.1,0.9,0.1h1.5v-1.7H71
	c-0.3,0-0.6,0-0.8,0.1L70,27.1c0.3,0.1,0.7,0.1,1,0.1h1.9v-0.9c0-0.2,0-0.6-0.1-1.1c1.6,0.1,1.8,0.3,1.8,0.4s-0.1,0.2-0.4,0.4v1.2
	h1.4c0.6-0.8,0.8-0.9,0.9-0.9s0.3,0.1,0.9,0.6c0.3,0.2,0.4,0.4,0.4,0.5s0,0.1-0.2,0.1h-3.5L74.1,29.2z M75.1,36.3
	c0,0.3,0.1,0.3,0.6,0.3s0.8,0,1-0.2c0.4-0.5,0.6-1,0.7-1.6c0-0.1,0.2,0,0.2,0c0,0.4,0,1,0,1.2c0,0.1,0.1,0.2,0.2,0.3
	c0.2,0.1,0.3,0.3,0.3,0.5c0,0.3-0.2,0.6-0.5,0.7c-0.6,0.2-1.1,0.3-1.7,0.2c-1.6,0-2-0.3-2-1.4c0-0.2,0-0.5,0-1.5s0-1.8-0.1-2.8
	c1.6,0.2,1.7,0.2,1.7,0.4s-0.1,0.2-0.4,0.3L75.1,36.3z"/>
<path class="st0" d="M86.2,32c0,0.3-0.2,0.5-0.8,0.5c-0.3,0-0.5-0.1-0.5-0.4s0-1.1,0-2.6c0,0.1,0,0.1-0.2,0.1h-1.4v4.2
	c0.6-0.2,1.2-0.4,1.7-0.6c0.1,0,0.1,0.1,0.1,0.2c-1.1,0.9-2.3,1.7-3.6,2.3c0,0.4-0.1,0.6-0.3,0.6s-0.4-0.4-0.9-1.7
	c0.4,0,0.8-0.1,1.2-0.2l0.6-0.2v-4.6h-0.7c-0.3,0-0.5,0-0.8,0.1l-0.2-0.5c0.3,0.1,0.5,0.1,0.8,0.1H82v-2.2c0-0.6,0-1.1-0.1-1.7
	c1.7,0.2,1.8,0.3,1.8,0.5s-0.1,0.2-0.5,0.4v3.1h0.1c0.3-0.6,0.5-0.8,0.6-0.8s0.2,0.1,0.7,0.5c0.1,0.1,0.2,0.2,0.3,0.4v-0.4
	c0-0.7,0-1.3-0.1-2c0.5,0.2,1,0.5,1.4,0.7h3.1c0.3-0.5,0.5-0.9,0.7-1.4c0.1-0.4,0.3-0.7,0.3-1.1c1.4,0.5,1.7,0.6,1.7,0.8
	s-0.2,0.3-0.6,0.3c-0.5,0.5-1,1-1.5,1.4h1.4c0.4-0.5,0.6-0.6,0.7-0.6s0.2,0.1,0.8,0.5c0.2,0.2,0.3,0.3,0.3,0.4s-0.1,0.2-0.4,0.5v0.6
	c0,1.5,0,2.5,0,2.9c0,0.3-0.2,0.5-0.8,0.5c-0.3,0-0.5-0.1-0.5-0.5L86.2,32z M87,37.3v0.3c0,0.4-0.2,0.5-0.8,0.5
	c-0.4,0-0.5-0.1-0.5-0.5s0.1-1,0.1-3c0-0.7,0-1.4-0.1-2.1c0.5,0.2,1,0.4,1.4,0.7h3.5c0.4-0.5,0.6-0.6,0.7-0.6s0.2,0.1,0.7,0.5
	c0.2,0.2,0.3,0.3,0.3,0.4s-0.1,0.2-0.4,0.4v0.6c0,1.6,0.1,2.6,0.1,3S91.7,38,91.2,38s-0.6-0.1-0.6-0.4v-0.4L87,37.3z M87.4,27.6
	c-0.3,0-0.4-0.1-0.6-0.6c-0.1-0.6-0.4-1.2-0.8-1.7v-0.1h0.1c1.3,0.5,1.9,1,1.9,1.6C88.1,27.3,87.8,27.6,87.4,27.6L87.4,27.6z
	 M88.1,29.7v-1.6h-1.9v1.6H88.1z M86.2,31.7h1.9V30h-1.9V31.7z M90.7,33.5H87V35h3.7V33.5z M90.7,35.4H87V37h3.7V35.4z M91.5,28.1
	h-2.1v1.6h2.1V28.1z M91.5,30h-2.1v1.7h2.1V30z"/>
<path class="st0" d="M100.9,28c0,7,0,8.7,0,9.4c0,0.4-0.2,0.6-0.8,0.6s-0.6-0.2-0.6-0.5s0-1.6,0.1-3.5c-0.8,0.6-1.7,1.2-2.6,1.6
	c0,0.4-0.1,0.6-0.3,0.6s-0.2,0-0.9-1.8c0.3,0,0.6,0,0.9-0.1h0.2v-5.6c0-0.6,0-1.3-0.1-1.9c1.7,0.2,1.8,0.3,1.8,0.4s-0.1,0.3-0.4,0.4
	v6.3c0.5-0.1,1-0.2,1.4-0.4c0-0.9,0-1.9,0-3c0.1-1.8,0-3.5-0.1-5.3c1.7,0.1,1.9,0.2,1.9,0.4s-0.1,0.2-0.5,0.4V28z M106.3,26.8
	c0.6-0.7,0.7-0.7,0.8-0.7s0.2,0.1,0.8,0.6c0.3,0.3,0.4,0.4,0.4,0.5s-0.1,0.3-0.5,0.5c-0.3,2.3-1.1,4.4-2.4,6.4
	c1,1.1,2.2,1.9,3.5,2.4c0.1,0,0,0.2,0,0.2c-0.4,0.1-0.6,0.3-0.8,0.9c-0.1,0.3-0.1,0.3-0.2,0.3c-0.2,0-0.3-0.1-0.5-0.2
	c-1.1-0.7-2-1.6-2.7-2.6c-1,1.2-2.2,2.2-3.5,2.9c0,0-0.2-0.1-0.1-0.2c1.2-1,2.3-2.2,3.1-3.6c-1.1-2.1-1.8-4.5-1.9-6.9
	c-0.2,0-0.5,0-0.7,0.1l-0.2-0.5c0.4,0.1,0.8,0.1,1.2,0.1L106.3,26.8z M102.7,27.2c0.3,2.1,1,4.1,2.1,5.9c0.9-1.9,1.4-3.8,1.7-5.9
	C106.5,27.2,102.7,27.2,102.7,27.2z"/>
<path class="st1" d="M193.8,399.6v-0.5h1c0.7,0,1.3-0.3,1.8-0.7c0.5-0.5,0.7-1.1,0.7-1.8v-23.3c0.1-0.9-0.2-1.8-0.8-2.5
	c-0.6-0.5-1.4-0.7-2.2-0.7h-0.8v-0.5c0.6,0,1.5-0.1,2.6-0.2s2.3-0.3,3.5-0.6c1.2-0.2,2.4-0.5,3.6-0.9c1-0.3,2.1-0.7,3-1.3h0.5v29.9
	c0,0.7,0.3,1.3,0.8,1.7c0.5,0.5,1.1,0.7,1.8,0.7h1v0.5h-16.5V399.6z"/>
<path class="st1" d="M227.5,366.8c2.7-0.1,5.4,0.6,7.7,2.1c2.1,1.4,3.8,3.5,4.9,5.8c2.3,5.6,2.3,11.9,0,17.6c-1,2.4-2.7,4.4-4.9,5.9
	c-4.7,2.8-10.6,2.8-15.3,0c-2.2-1.4-3.9-3.5-4.9-5.9c-2.3-5.6-2.3-11.9,0-17.6c1-2.4,2.7-4.4,4.9-5.8
	C222.1,367.4,224.8,366.7,227.5,366.8z M227.5,369.1c-1.6,0-2.8,1.2-3.5,3.5s-1.1,6-1.1,10.9s0.4,8.6,1.1,10.9s1.9,3.5,3.5,3.5
	s2.8-1.2,3.5-3.5s1.1-6,1.1-10.9s-0.4-8.6-1.1-10.9S229.1,369.1,227.5,369.1L227.5,369.1z"/>
<path class="st1" d="M245,399.6l0.1-0.5h1c0.7,0,1.3-0.3,1.8-0.7c0.5-0.5,0.7-1.1,0.7-1.8v-23.3c0.1-0.9-0.2-1.8-0.8-2.5
	c-0.6-0.5-1.4-0.7-2.2-0.7h-0.8v-0.5c0.6,0,1.5-0.1,2.6-0.2s2.3-0.3,3.5-0.6c1.2-0.2,2.5-0.5,3.7-0.9c1-0.3,2.1-0.7,3-1.3h0.5v29.9
	c0,0.7,0.3,1.3,0.8,1.7c0.5,0.5,1.1,0.7,1.8,0.7h1v0.5H245V399.6z"/>
<line class="st2" x1="55.8" y1="222.9" x2="311.4" y2="222.9"/>
<path class="st0" d="M49.2,221.8c0,2.5-0.9,4.1-2.5,4.1s-2.5-1.5-2.5-4.1s0.9-4.2,2.5-4.2S49.2,219.3,49.2,221.8z M45.5,221.8
	c0,2.3,0.2,3.8,1.2,3.8s1.2-1.5,1.2-3.8s-0.2-3.8-1.2-3.8S45.5,219.5,45.5,221.8L45.5,221.8z"/>
<line class="st2" x1="55.8" y1="192" x2="311.4" y2="192"/>
<path class="st0" d="M31.9,190.8c0.3-0.6,0.9-0.9,1.5-0.9c1.4,0,2.1,1,2.1,2.4c0.1,1.3-0.8,2.4-2.1,2.6c-0.1,0-0.2,0-0.3,0
	c-1.5,0-2.5-1.2-2.5-3.1c0-1.7,0.8-3.2,2.2-4.1c0.6-0.4,1.2-0.8,1.8-1c0.1,0,0.1,0,0.3,0.2s0.1,0.3,0,0.3c-0.6,0-1.2,0.2-1.6,0.6
	C32.5,188.6,31.9,189.7,31.9,190.8L31.9,190.8z M32,191.3c-0.1,0.2-0.2,0.4-0.1,0.7c0,1.8,0.5,2.6,1.2,2.6s1.1-1,1.1-2.2
	s-0.3-2-1.1-2C32.6,190.4,32.2,190.7,32,191.3L32,191.3z"/>
<path class="st0" d="M38.3,190c0,0.2,0,0.3-0.1,0.6c0.9-0.9,2.4-1,3.3-0.1c0.5,0.5,0.7,1.1,0.7,1.8c0.2,1.3-0.8,2.5-2.1,2.7
	c-0.2,0-0.3,0-0.5,0c-0.5,0-1.1-0.1-1.6-0.4c-0.4-0.2-0.7-0.6-0.7-0.9s0.3-0.4,0.8-0.4s0.6,0.5,0.7,0.8c0.1,0.4,0.4,0.6,0.8,0.6
	c0.8,0,1.2-1,1.2-2.3s-0.6-2-1.3-2c-0.6,0-1.1,0.3-1.4,0.8c-0.1,0.1-0.1,0.1-0.3,0.1s-0.2-0.1-0.1-0.2c0-0.1,0.1-0.2,0.1-0.3
	l0.3-3.5c0,0,0-0.1,0.1-0.1c0,0,0.1-0.1,0.2-0.1H40c0.5,0,1.1,0,1.9-0.1c0.1,0,0.1,0.1,0.1,0.1l-0.4,1l-0.1,0.1h-1.1h-2L38.3,190z"
	/>
<path class="st0" d="M49.2,190.8c0,2.5-0.9,4.1-2.4,4.1s-2.5-1.5-2.5-4.1s0.9-4.2,2.5-4.2S49.2,188.3,49.2,190.8z M45.5,190.8
	c0,2.3,0.2,3.8,1.2,3.8s1.2-1.5,1.2-3.8s-0.2-3.8-1.2-3.8S45.5,188.6,45.5,190.8L45.5,190.8z"/>
<line class="st2" x1="55.8" y1="130.1" x2="311.4" y2="130.1"/>
<path class="st0" d="M20.6,126.1c-0.1,0-0.1,0-0.2-0.1c0-0.1,0-0.2,0.1-0.2c0.6-0.2,1.6-0.6,2.3-1c0.1,0,0.2,0,0.2,0.1
	c0,0.9,0,1.5,0,2.4v3.4c0,1.1,0,1.2,0.1,1.5s0.5,0.2,0.9,0.3c0.1,0,0.1,0.1,0.1,0.2s0,0.1-0.1,0.1c-0.5,0-1.1,0-1.6,0s-1.2,0-1.7,0
	c-0.1,0-0.1,0-0.1-0.1s0-0.2,0.1-0.2c0.5,0,0.8,0,0.9-0.3c0.1-0.5,0.2-1,0.1-1.5v-3.9c0-0.3,0-0.6-0.1-0.8c-0.1-0.1-0.3-0.1-0.6,0
	L20.6,126.1z"/>
<path class="st0" d="M27,134.3c0,0.1-0.1,0.1-0.2,0s-0.1-0.2,0-0.2c0.5-0.3,0.7-0.7,0.7-1c0-0.1-0.2-0.3-0.3-0.3s-0.4-0.1-0.4-0.4
	c0-0.4,0.4-0.7,0.8-0.8c0.4,0.1,0.7,0.5,0.7,0.9C28.3,132.9,28.1,133.5,27,134.3z"/>
<path class="st0" d="M34.1,129c-0.3,0.5-0.9,0.8-1.5,0.8c-1.2,0-2.2-1-2.2-2.1c0-0.1,0-0.1,0-0.2c-0.1-1.3,0.8-2.5,2.2-2.6
	c0.1,0,0.2,0,0.3,0c1.5,0,2.5,1.3,2.5,3.2c0.1,1.7-0.7,3.4-2.2,4.3c-0.5,0.4-1.1,0.6-1.8,0.8c-0.1,0-0.2-0.1-0.3-0.2s-0.1-0.3,0-0.3
	c0.5,0,1.1-0.1,1.5-0.4c0.9-0.5,1.3-1.5,1.4-3.2L34.1,129z M31.8,127.4c0,1.1,0.4,2,1.1,2c0.5,0,0.8-0.3,1.1-1
	c0.1-0.2,0.1-0.5,0.1-0.7c0-1.5-0.4-2.5-1.2-2.5C32.1,125.2,31.8,126.1,31.8,127.4L31.8,127.4z"/>
<path class="st0" d="M38.3,128.1c0,0.2,0,0.3-0.1,0.6c0.9-0.9,2.4-1,3.3-0.1c0.5,0.5,0.8,1.1,0.7,1.8c0.1,1.3-0.8,2.5-2.2,2.6
	c-0.1,0-0.2,0-0.3,0c-0.5,0-1.1-0.1-1.6-0.4c-0.4-0.2-0.7-0.6-0.7-0.9s0.3-0.4,0.8-0.4s0.6,0.5,0.7,0.8c0.1,0.4,0.4,0.6,0.8,0.6
	c0.8,0,1.2-1,1.2-2.3s-0.6-2-1.3-2c-0.6,0-1.1,0.3-1.4,0.8c-0.1,0.1-0.1,0.1-0.3,0.1s-0.2-0.1-0.1-0.2c0-0.1,0.1-0.2,0.1-0.3
	l0.3-3.5c0-0.1,0-0.1,0.1-0.1c0,0,0.1-0.1,0.2-0.1h1.7c0.5,0,1.1,0,1.9,0c0.1,0,0.1,0,0.1,0.1l-0.4,1l-0.1,0.1h-1.1h-2L38.3,128.1z"
	/>
<path class="st0" d="M49.2,128.9c0,2.5-0.9,4.1-2.4,4.1s-2.5-1.5-2.5-4.1s0.9-4.2,2.5-4.2S49.2,126.4,49.2,128.9z M45.5,128.9
	c0,2.3,0.2,3.8,1.2,3.8s1.2-1.5,1.2-3.8s-0.2-3.8-1.2-3.8S45.5,126.7,45.5,128.9L45.5,128.9z"/>
<path class="st0" d="M24,66.4L24,66.4c-2.5,2.3-2.7,6.1-0.5,8.6c0.1,0.2,0.3,0.3,0.5,0.5c0.1,0.1,0.1,0.1,0.1,0.1v0.1
	c0,0-0.1,0-0.1-0.1c-0.8-0.5-1.4-1.3-1.9-2.1c-0.9-1.5-0.9-3.5,0-5C22.6,67.7,23.3,67,24,66.4C23.9,66.4,23.9,66.4,24,66.4L24,66.4z
	"/>
<path class="st0" d="M26.5,70.4c-0.3,0.4-0.5,0.7-0.8,1c0,0-0.1,0-0.1-0.1c0.6-1,1-2.2,1.3-3.3c0.1-0.5,0.2-1,0.2-1.4
	c1.1,0.3,1.3,0.3,1.3,0.5s0,0.1-0.4,0.2c-0.2,0.8-0.6,1.6-1,2.3c0.5,0.1,0.6,0.1,0.6,0.2s-0.1,0.1-0.3,0.2v5c0,0.3-0.2,0.4-0.5,0.4
	s-0.4-0.1-0.4-0.4s0.1-1,0.1-2.5L26.5,70.4z M28.8,73.9c0,0.6-0.3,1.1-0.7,1.1c-0.2,0-0.4-0.2-0.4-0.4l0,0c0-0.2,0.1-0.4,0.4-0.5
	c0.4-0.1,0.6-0.4,0.6-0.8c0-0.1,0.1-0.1,0.1,0C28.8,73.5,28.8,73.7,28.8,73.9z M29.3,67.9c0.7,0.2,1,0.5,1,0.9
	c0,0.2-0.2,0.4-0.4,0.4h1.6c0.1-0.2,0.2-0.4,0.2-0.7c0.1-0.2,0.1-0.4,0.1-0.6c0.8,0.2,1.1,0.3,1.1,0.4s-0.1,0.1-0.3,0.2
	c-0.2,0.3-0.5,0.5-0.8,0.7h1.3c0.4-0.5,0.5-0.6,0.6-0.6s0.2,0.1,0.6,0.4c0.2,0.1,0.2,0.2,0.2,0.3s0,0.1-0.1,0.1h-6
	c-0.2,0-0.5,0-0.7,0.1l-0.1-0.4c0.3,0.1,0.5,0.1,0.8,0.1h1.3c-0.1,0-0.2-0.1-0.2-0.3c0-0.4-0.2-0.7-0.4-1H29c-0.2,0-0.5,0-0.7,0.1
	l-0.1-0.3c0.3,0,0.5,0.1,0.8,0.1h1.5v-0.6c0-0.2,0-0.4,0-0.6c1.1,0.1,1.2,0.2,1.2,0.3s-0.1,0.2-0.3,0.2v0.6h1.4
	c0.4-0.5,0.5-0.6,0.6-0.6s0.2,0.1,0.6,0.4c0.2,0.2,0.3,0.2,0.3,0.3s0,0.1-0.1,0.1H29.3z M29.3,72.5c0,0.2-0.2,0.3-0.5,0.3
	s-0.4-0.1-0.4-0.3s0-0.3,0-1s0-1.1-0.1-1.7c0.3,0.1,0.7,0.3,1,0.4h3c0.3-0.3,0.4-0.4,0.5-0.4s0.2,0.1,0.5,0.3
	c0.1,0.1,0.2,0.2,0.2,0.3s-0.1,0.1-0.2,0.3V71c0,0.8,0,1.3,0,1.5s-0.2,0.4-0.5,0.4s-0.4-0.1-0.4-0.3L29.3,72.5L29.3,72.5z
	 M32.5,70.5h-3.1v0.8h3.2L32.5,70.5z M32.5,71.5h-3.1v0.8h3.2L32.5,71.5z M32.6,74.2c0,0.1,0,0.2,0.1,0.2s0.3,0.1,0.3,0.3
	s-0.1,0.3-0.5,0.4c-0.5,0.1-1,0.2-1.5,0.1c-1.2,0-1.6-0.2-1.6-0.7c0-0.2,0-0.4,0-1.2c0-0.1,0-0.3,0-0.4c1,0.1,1.1,0.1,1.1,0.3
	s-0.1,0.2-0.3,0.2v0.8c0,0.3,0.1,0.3,0.9,0.3c0.3,0,0.6,0,0.8-0.1c0.3-0.1,0.3-0.3,0.6-1h0.1L32.6,74.2z M31.3,74.1
	c-0.2,0-0.2,0-0.4-0.5c-0.1-0.3-0.2-0.5-0.4-0.7v-0.1c0.8,0.1,1.2,0.4,1.2,0.8C31.7,73.9,31.6,74,31.3,74.1L31.3,74.1z M34,74.9
	c-0.2,0-0.3-0.1-0.4-0.6c-0.1-0.4-0.3-0.7-0.5-1v-0.1c1,0.3,1.4,0.7,1.4,1.2C34.4,74.6,34.2,74.8,34,74.9L34,74.9z"/>
<path class="st0" d="M37.9,75c0,0.2-0.2,0.4-0.6,0.4s-0.4-0.1-0.4-0.3c0-0.9,0.1-1.7,0.1-5.2c0-1,0-2-0.1-3l1.1,0.5h5.4
	c0.3-0.4,0.4-0.5,0.5-0.5s0.2,0.1,0.5,0.4c0.2,0.2,0.2,0.2,0.2,0.3s-0.1,0.2-0.2,0.3V69c0,4.7,0,4.9,0,5.4S44.3,75,44,75.2
	c-0.2,0.1-0.4,0.1-0.6,0.1c-0.2,0-0.2-0.1-0.2-0.3s-0.2-0.6-1.1-0.8v-0.1c0.5,0,1,0,1.3,0c0.1,0,0.2,0,0.2-0.2v-3.2h-5.5V75H37.9z
	 M40.2,70.7v-3.1h-2.3v3.1H40.2z M43.5,67.6h-2.4v3.1h2.4V67.6z"/>
<path class="st0" d="M47,66.4c0.8,0.5,1.5,1.3,2,2.1c0.9,1.5,0.9,3.5,0,5c-0.5,0.8-1.2,1.5-2,2.1c-0.1,0-0.1,0.1-0.1,0.1s0,0,0-0.1
	s0-0.1,0.1-0.1c2.5-2.2,2.7-6,0.5-8.5C47.2,66.8,47.1,66.6,47,66.4C46.9,66.5,46.9,66.5,47,66.4C46.9,66.3,46.9,66.3,47,66.4
	C47,66.3,47,66.4,47,66.4z"/>
<line class="st2" x1="55.8" y1="99.1" x2="311.4" y2="99.1"/>
<path class="st0" d="M22.5,100.8c0.9,0,1.1-0.1,1.4-0.3c0.3-0.2,0.5-0.5,0.6-0.8c0-0.1,0.1-0.1,0.2-0.1s0.1,0.1,0.1,0.1
	c-0.1,0.6-0.4,1.5-0.6,2.1c-0.8,0-1.3,0-2.1,0s-1.5,0-2.2,0c-0.1,0-0.1,0-0.1-0.2c0-0.1,0-0.2,0.1-0.3c0.6-1,1.2-1.9,1.9-2.8
	c0.9-1.2,1.5-1.8,1.5-2.8s-0.3-1.6-1-1.6c-0.4,0-0.8,0.2-0.9,0.6c-0.1,0.3-0.1,0.5-0.1,0.8S20.9,96,20.5,96S20,95.9,20,95.6
	c0.2-1.1,1.2-1.9,2.4-1.9c1.1-0.2,2.1,0.6,2.3,1.7c0,0.1,0,0.2,0,0.2c0,1.4-1,1.9-2.1,3c-0.7,0.6-1.3,1.2-1.8,2L22.5,100.8z"/>
<path class="st0" d="M27,103.4c0,0-0.1,0-0.2,0s-0.1-0.2,0-0.2c0.5-0.3,0.7-0.7,0.7-1c0-0.2-0.2-0.3-0.3-0.3s-0.4-0.1-0.4-0.4
	c0-0.4,0.4-0.7,0.8-0.8c0.4,0.1,0.7,0.5,0.7,0.9C28.3,101.9,28.1,102.6,27,103.4z"/>
<path class="st0" d="M31.9,98c0.3-0.6,0.8-0.9,1.5-0.9c1.4,0,2.1,1,2.1,2.4c0.1,1.3-0.8,2.4-2.1,2.6c-0.1,0-0.2,0-0.3,0
	c-1.5,0-2.5-1.2-2.5-3.1c0-1.7,0.8-3.2,2.2-4.2c0.6-0.4,1.2-0.8,1.8-1c0.1,0,0.1,0,0.3,0.2s0.1,0.3,0,0.3c-0.6,0-1.2,0.2-1.6,0.6
	C32.5,95.7,31.9,96.8,31.9,98L31.9,98z M32,98.4c-0.1,0.2-0.2,0.4-0.1,0.7c0,1.8,0.5,2.6,1.2,2.6s1.1-1,1.1-2.2s-0.3-2-1.1-2
	C32.6,97.5,32.2,97.9,32,98.4L32,98.4z"/>
<path class="st0" d="M42.3,98c0,2.5-0.9,4.1-2.5,4.1s-2.5-1.5-2.5-4.1s0.9-4.2,2.5-4.2S42.3,95.5,42.3,98z M38.7,98
	c0,2.3,0.2,3.8,1.2,3.8S41,100.3,41,98s-0.2-3.8-1.2-3.8S38.7,95.7,38.7,98z"/>
<path class="st0" d="M49.2,98c0,2.5-0.9,4.1-2.4,4.1s-2.5-1.5-2.5-4.1s0.9-4.2,2.5-4.2S49.2,95.5,49.2,98z M45.5,98
	c0,2.3,0.2,3.8,1.2,3.8s1.2-1.5,1.2-3.8s-0.2-3.8-1.2-3.8S45.5,95.7,45.5,98z"/>
<line class="st2" x1="55.8" y1="161" x2="311.4" y2="161"/>
<path class="st0" d="M20.6,157c-0.1,0-0.1,0-0.2-0.1c0-0.1,0-0.2,0.1-0.2c0.6-0.2,1.6-0.6,2.3-1c0.1,0,0.2,0.1,0.2,0.1
	c0,0.9,0,1.5,0,2.4v3.4c0,1.1,0,1.2,0.1,1.5s0.5,0.2,0.9,0.3c0.1,0,0.1,0,0.1,0.2s0,0.1-0.1,0.1c-0.5,0-1.1,0-1.6,0s-1.2,0-1.7,0
	c-0.1,0-0.1,0-0.1-0.1s0-0.1,0.1-0.2c0.5,0,0.8-0.1,0.9-0.3c0.1-0.5,0.2-1,0.1-1.5v-3.9c0-0.3,0-0.6-0.1-0.9c-0.1-0.1-0.3-0.1-0.6,0
	L20.6,157z"/>
<path class="st0" d="M27,165.3c0,0-0.1,0-0.2-0.1s-0.1-0.2,0-0.2c0.5-0.3,0.7-0.7,0.7-1c0-0.1-0.2-0.3-0.3-0.4s-0.4-0.1-0.4-0.4
	c0-0.4,0.4-0.7,0.8-0.8c0.4,0.1,0.7,0.5,0.7,0.9C28.3,163.8,28.1,164.5,27,165.3z"/>
<path class="st0" d="M33.4,159.6c1.3,0.3,2,1,2,2.1c0.1,1.3-0.9,2.3-2.2,2.4c-0.1,0-0.2,0-0.3,0c-0.6,0-1.1-0.1-1.6-0.4
	c-0.4-0.2-0.7-0.6-0.7-0.9s0.3-0.5,0.8-0.5s0.6,0.5,0.7,0.8c0.1,0.4,0.4,0.7,0.8,0.6c0.8,0,1.2-0.8,1.2-2.1c0-0.8-0.3-1.9-1.4-1.8
	h-0.5c-0.1,0-0.1,0-0.1-0.2s0.1-0.2,0.2-0.2h0.4c0.6,0,1.2-0.5,1.2-1.7c0-0.8-0.3-1.5-0.9-1.5c-0.3,0-0.7,0.2-0.8,0.5
	c-0.1,0.2-0.1,0.4-0.1,0.6c0,0.4-0.4,0.6-0.8,0.6s-0.5-0.1-0.5-0.4c0.3-1,1.2-1.7,2.3-1.6c1.1-0.1,2,0.6,2.2,1.7c0,0.1,0,0.2,0,0.2
	C35.2,158.8,34.4,159.3,33.4,159.6L33.4,159.6z"/>
<path class="st0" d="M42.3,159.9c0,2.5-0.9,4.1-2.5,4.1s-2.5-1.5-2.5-4.1s0.9-4.2,2.5-4.2S42.3,157.4,42.3,159.9z M38.7,159.9
	c0,2.3,0.2,3.8,1.2,3.8s1.1-1.4,1.1-3.7s-0.2-3.8-1.2-3.8S38.7,157.6,38.7,159.9L38.7,159.9z"/>
<path class="st0" d="M49.2,159.9c0,2.5-0.9,4.1-2.4,4.1s-2.5-1.5-2.5-4.1s0.9-4.2,2.5-4.2S49.2,157.4,49.2,159.9z M45.5,159.9
	c0,2.3,0.2,3.8,1.2,3.8s1.2-1.5,1.2-3.8s-0.2-3.8-1.2-3.8S45.5,157.6,45.5,159.9L45.5,159.9z"/>
<path class="st0" d="M127.5,239.3c0.9,0,1.1-0.1,1.4-0.3c0.2-0.2,0.5-0.5,0.6-0.8c0-0.1,0.1-0.1,0.2-0.1c0.1,0,0.1,0.1,0.1,0.1
	c-0.1,0.6-0.4,1.5-0.6,2.1c-0.7,0-1.3,0-2.1,0s-1.4,0-2.2,0c-0.1,0-0.1,0-0.1-0.2c0-0.1,0-0.2,0.1-0.3c0.6-1,1.2-1.9,1.9-2.8
	c0.9-1.2,1.5-1.8,1.5-2.8s-0.3-1.6-0.9-1.6c-0.4,0-0.8,0.2-0.9,0.6c-0.1,0.3-0.1,0.5-0.1,0.8s-0.4,0.5-0.8,0.5s-0.5-0.1-0.5-0.4
	c0.2-1.1,1.2-1.9,2.4-1.9c1.1-0.1,2.1,0.6,2.3,1.7c0,0.1,0,0.2,0,0.2c0,1.4-1,1.9-2.1,3c-0.7,0.6-1.3,1.2-1.8,2L127.5,239.3z"/>
<path class="st0" d="M136.5,236.4c0,2.5-0.9,4.1-2.4,4.1s-2.5-1.5-2.5-4.1s0.9-4.2,2.5-4.2S136.5,233.9,136.5,236.4z M132.9,236.4
	c0,2.3,0.2,3.8,1.2,3.8s1.2-1.5,1.2-3.8s-0.2-3.8-1.2-3.8S132.9,234.2,132.9,236.4L132.9,236.4z"/>
<path class="st0" d="M139.3,233.6c-0.1,0-0.1,0-0.2-0.1s0-0.1,0.1-0.2c0.6-0.2,1.6-0.6,2.3-1c0.1,0,0.2,0.1,0.2,0.1
	c0,0.9,0,1.5,0,2.4v3.4c0,1.1,0,1.2,0.1,1.5s0.5,0.2,0.9,0.3c0.1,0,0.1,0,0.1,0.2s0,0.2-0.1,0.2c-0.5,0-1.1,0-1.6,0s-1.2,0-1.7,0
	c-0.1,0-0.1,0-0.1-0.2s0-0.1,0.1-0.2c0.5,0,0.8-0.1,0.9-0.3c0.1-0.5,0.2-1,0.1-1.5v-3.9c0-0.3,0-0.6-0.1-0.9c-0.1-0.1-0.3-0.1-0.6,0
	L139.3,233.6z"/>
<path class="st0" d="M150.2,238.3c-0.1,1.4-1.3,2.4-2.6,2.3c-1.2-0.1-2.1-1-2.3-2.2c0-0.9,0.7-1.5,1.7-2c-0.9-0.3-1.5-1.2-1.5-2.1
	c0.1-1.1,1.1-2,2.2-1.9c1.3,0,2.2,0.8,2.2,1.8c0,0.8-0.5,1.3-1.4,1.8C149.5,236.2,150.2,237.2,150.2,238.3z M146.4,238.4
	c0,1.1,0.5,1.8,1.3,1.8s1.3-0.7,1.3-1.8c0-0.8-0.4-1.3-1.8-1.9C146.7,237,146.3,237.7,146.4,238.4L146.4,238.4z M148.9,234.1
	c0-0.9-0.5-1.4-1.1-1.4c-0.7,0-1.2,0.6-1.2,1.2v0.1c0,0.6,0.2,1,1.6,1.6C148.7,235.3,148.9,234.7,148.9,234.1L148.9,234.1z"/>
<path class="st0" d="M160.1,238.1c0.6-0.7,0.7-0.8,0.8-0.8s0.2,0.1,0.8,0.6c0.3,0.2,0.4,0.3,0.4,0.4s0,0.1-0.1,0.1h-3.8
	c0,1.2,0,2.2,0,2.7s-0.2,0.5-0.7,0.5s-0.5-0.1-0.5-0.4s0-1.1,0-2.8h-4c-0.3,0-0.5,0-0.8,0.1l-0.1-0.4c0.3,0.1,0.6,0.1,0.9,0.1h1
	v-1.5c0-0.6,0-1.1,0-1.6c0.4,0.1,0.8,0.3,1.1,0.5h1.8v-2h-2c-0.6,1-1.5,1.8-2.5,2.4c-0.1,0-0.2,0-0.1-0.1c0.8-0.9,1.5-2,1.9-3.1
	c0.2-0.4,0.3-0.8,0.4-1.3c1.2,0.3,1.5,0.5,1.5,0.7s-0.1,0.2-0.5,0.2c-0.2,0.4-0.3,0.6-0.5,0.9h4.7c0.6-0.7,0.7-0.8,0.8-0.8
	s0.2,0.1,0.8,0.5c0.3,0.2,0.3,0.3,0.3,0.4s0,0.1-0.1,0.1h-3.5v2h1.3c0.6-0.6,0.6-0.7,0.7-0.7s0.2,0.1,0.8,0.5
	c0.2,0.2,0.3,0.3,0.3,0.4s0,0.1-0.2,0.1h-2.9v0.4c0,0.6,0,1.3,0,2L160.1,238.1z M157,235.7h-1.9v2.4h1.9V235.7z"/>
<path class="st0" d="M167.8,234.5v-0.2c0-0.3,0-0.6,0-0.9c1.2,0.1,1.3,0.1,1.3,0.3s-0.1,0.1-0.3,0.2v0.6h1.9v-0.4c0-0.3,0-0.5,0-0.8
	c1,0.1,1.3,0.2,1.3,0.3s-0.1,0.1-0.3,0.3v0.6h0.7c0.4-0.6,0.6-0.6,0.7-0.6s0.2,0.1,0.7,0.4c0.2,0.2,0.3,0.3,0.3,0.3s0,0.1-0.1,0.1
	h-2.2c0,0.9,0,1.5,0,1.7s-0.2,0.4-0.6,0.4s-0.4-0.1-0.4-0.4v-0.1h-1.9v0.1c0,0.3-0.2,0.4-0.6,0.4s-0.4-0.1-0.4-0.4s0-0.8,0-1.8h-1.6
	c0,1.2-0.1,2.4-0.4,3.5c-0.3,1.1-0.8,2.2-1.5,3.1c0,0-0.1,0-0.1-0.1c0.4-1.2,0.7-2.4,0.8-3.6c0.1-0.9,0.1-1.9,0.1-3.2
	c0-0.9,0-1.6-0.1-2.4c0.4,0.2,0.9,0.4,1.2,0.6h2.7V232c0-0.2,0-0.4-0.1-0.6c1.3,0.1,1.5,0.2,1.5,0.4s-0.1,0.2-0.4,0.3v0.6h2.4
	c0.5-0.6,0.6-0.7,0.7-0.7s0.2,0.1,0.8,0.5c0.2,0.2,0.3,0.3,0.3,0.4s0,0.1-0.1,0.1h-7.9v0.9c0,0.2,0,0.4,0,0.6H167.8z M171.2,237.5
	c0.4-0.5,0.5-0.5,0.6-0.5s0.2,0.1,0.6,0.5c0.2,0.2,0.3,0.3,0.3,0.4s-0.1,0.2-0.6,0.3c-0.4,0.6-0.9,1.1-1.5,1.5
	c1.2,0.4,2.4,0.7,3.7,0.7c0.1,0,0,0.1,0,0.1c-0.4,0.1-0.5,0.3-0.7,0.8c0,0.1-0.1,0.2-0.2,0.2c-0.2,0-0.5-0.1-0.7-0.1
	c-0.9-0.2-1.8-0.6-2.7-1.1l-0.2-0.1c-1.4,0.8-2.9,1.2-4.5,1.3c0,0-0.1-0.2,0-0.2c1.4-0.3,2.7-0.9,3.9-1.7c-0.6-0.5-1-1.2-1.4-1.9
	h-0.7c-0.2,0-0.4,0-0.6,0.1l-0.1-0.4c0.3,0.1,0.5,0.1,0.8,0.1L171.2,237.5z M168.2,237.7c0.4,0.6,1,1.1,1.6,1.5c0.5-0.4,1-1,1.4-1.5
	H168.2z M170.7,236.1v-1.4h-1.9v1.4H170.7z"/>
<path class="st0" d="M59,239.3c0.9,0,1.1-0.1,1.4-0.3c0.3-0.2,0.5-0.5,0.6-0.8c0-0.1,0.1-0.1,0.2-0.1s0.1,0.1,0.1,0.1
	c-0.1,0.6-0.4,1.5-0.6,2.1c-0.8,0-1.3,0-2.1,0s-1.5,0-2.2,0c-0.1,0-0.2,0-0.2-0.2c0-0.1,0-0.2,0.1-0.3c0.6-1,1.2-1.9,1.9-2.8
	c0.9-1.2,1.5-1.8,1.5-2.8s-0.3-1.6-1-1.6c-0.4,0-0.8,0.2-0.9,0.6c-0.1,0.3-0.1,0.5-0.1,0.8s-0.4,0.5-0.8,0.5s-0.5-0.1-0.5-0.4
	c0.2-1.1,1.2-1.9,2.4-1.9c1.1-0.2,2.1,0.6,2.3,1.7c0,0.1,0,0.2,0,0.2c0,1.4-1,1.9-2.1,3c-0.7,0.6-1.3,1.2-1.8,2L59,239.3z"/>
<path class="st0" d="M68.1,236.4c0,2.5-0.9,4.1-2.5,4.1c-1.5,0-2.5-1.5-2.5-4.1s0.9-4.2,2.5-4.2S68.1,233.9,68.1,236.4z M64.4,236.4
	c0,2.3,0.2,3.8,1.2,3.8c0.9,0,1.2-1.5,1.2-3.8s-0.2-3.8-1.2-3.8C64.7,232.7,64.4,234.2,64.4,236.4L64.4,236.4z"/>
<path class="st0" d="M70.8,233.6c-0.1,0-0.2,0-0.2-0.1s0-0.1,0.1-0.2c0.6-0.2,1.6-0.6,2.3-1c0.1,0,0.2,0.1,0.2,0.1
	c0,0.9,0,1.5,0,2.4v3.4c0,1.1,0,1.2,0.1,1.5s0.5,0.2,0.9,0.3c0.1,0,0.1,0,0.1,0.2s0,0.2-0.1,0.2c-0.5,0-1.1,0-1.6,0s-1.2,0-1.7,0
	c-0.1,0-0.1,0-0.1-0.2s0-0.1,0.1-0.2c0.5,0,0.8-0.1,0.9-0.3c0.1-0.5,0.2-1,0.1-1.5v-3.9c0-0.3,0-0.6-0.1-0.9c-0.1-0.1-0.3-0.1-0.7,0
	L70.8,233.6z"/>
<path class="st0" d="M78.6,233.6c-0.6,0-0.8,0.1-0.9,0.2c-0.2,0.2-0.3,0.5-0.4,0.7c0,0.1-0.1,0.1-0.2,0.1s-0.1-0.1-0.1-0.1
	c0.1-0.6,0.2-1.4,0.3-2c0.7,0,1.4,0,2.2,0s1.4,0,2.1,0c0.1,0,0.1,0,0.1,0.2c0,0.1,0,0.2,0,0.3c-0.9,1.5-1.5,3.1-1.9,4.8
	c-0.1,0.5-0.2,1-0.2,1.4c0,0.3,0,0.5,0,0.7s-0.4,0.6-0.8,0.6s-0.7-0.1-0.7-0.5c0.1-1,0.3-1.9,0.8-2.8c0.6-1.3,1.3-2.5,2.1-3.7
	L78.6,233.6z"/>
<path class="st0" d="M91.7,238.1c0.6-0.7,0.7-0.8,0.8-0.8s0.2,0.1,0.8,0.6c0.3,0.2,0.3,0.3,0.3,0.4s0,0.1-0.1,0.1h-3.8
	c0,1.2,0,2.2,0,2.7s-0.2,0.5-0.7,0.5s-0.5-0.1-0.5-0.4s0-1.1,0-2.8h-3.8c-0.3,0-0.5,0-0.8,0.1l-0.1-0.4c0.3,0.1,0.6,0.1,0.9,0.1h1
	v-1.5c0-0.6,0-1.1,0-1.6c0.4,0.1,0.8,0.3,1.2,0.5h1.8v-2h-2c-0.6,1-1.5,1.8-2.5,2.4c0,0-0.2,0-0.1-0.1c0.8-0.9,1.5-2,1.9-3.1
	c0.2-0.4,0.3-0.8,0.4-1.3c1.2,0.3,1.5,0.5,1.5,0.7s-0.1,0.2-0.5,0.2c-0.2,0.4-0.3,0.6-0.5,0.9h4.7c0.6-0.7,0.7-0.8,0.8-0.8
	s0.2,0.1,0.8,0.5c0.2,0.2,0.3,0.3,0.3,0.4s0,0.1-0.2,0.1h-3.6v2H91c0.6-0.6,0.6-0.7,0.7-0.7s0.2,0.1,0.8,0.5
	c0.2,0.2,0.3,0.3,0.3,0.4s0,0.1-0.2,0.1h-2.9v0.4c0,0.6,0,1.3,0,2L91.7,238.1z M88.6,235.7h-1.9v2.4h1.9V235.7z"/>
<path class="st0" d="M99.4,234.5v-0.2c0-0.3,0-0.6,0-0.9c1.2,0.1,1.3,0.1,1.3,0.3s-0.1,0.1-0.3,0.2v0.6h1.9v-0.4c0-0.3,0-0.6,0-0.8
	c1,0.1,1.3,0.2,1.3,0.3s0,0.1-0.3,0.3v0.6h0.7c0.4-0.6,0.6-0.6,0.7-0.6s0.2,0.1,0.7,0.4c0.2,0.2,0.3,0.3,0.3,0.3s0,0.1-0.1,0.1h-2.3
	c0,0.9,0,1.5,0,1.7s-0.2,0.4-0.6,0.4s-0.4-0.1-0.4-0.4v-0.1h-1.9v0.1c0,0.3-0.2,0.4-0.6,0.4s-0.4-0.1-0.4-0.4s0-0.8,0-1.8h-1.5
	c0,1.2-0.1,2.4-0.4,3.5s-0.8,2.2-1.5,3.1c0,0-0.2,0-0.1-0.1c0.4-1.2,0.7-2.4,0.8-3.6c0.1-0.9,0.1-1.9,0.1-3.2c0-0.9,0-1.6-0.1-2.4
	c0.4,0.2,0.9,0.3,1.3,0.6h2.7V232c0-0.2,0-0.4-0.1-0.6c1.3,0.1,1.5,0.2,1.5,0.4s-0.1,0.2-0.4,0.3v0.6h2.4c0.5-0.6,0.6-0.7,0.7-0.7
	s0.2,0.1,0.8,0.5c0.2,0.2,0.3,0.3,0.3,0.4s0,0.1-0.1,0.1h-7.9v0.9c0,0.2,0,0.4,0,0.6H99.4z M102.8,237.5c0.4-0.5,0.5-0.5,0.6-0.5
	s0.2,0.1,0.7,0.5c0.2,0.2,0.3,0.3,0.3,0.4s-0.2,0.2-0.6,0.3c-0.4,0.6-0.9,1.1-1.5,1.5c1.2,0.4,2.4,0.7,3.7,0.7c0.1,0,0,0.1,0,0.1
	c-0.4,0.1-0.5,0.3-0.7,0.8c0,0.1-0.1,0.2-0.2,0.2c-0.2,0-0.5-0.1-0.7-0.1c-0.9-0.2-1.8-0.6-2.7-1.1l-0.2-0.1c-1.4,0.8-3,1.2-4.6,1.3
	c-0.1,0-0.1-0.2,0-0.2c1.4-0.3,2.7-0.9,3.9-1.7c-0.6-0.5-1-1.2-1.4-1.9h-0.7c-0.2,0-0.4,0-0.7,0.1l-0.1-0.4c0.3,0.1,0.5,0.1,0.8,0.1
	L102.8,237.5z M99.8,237.7c0.4,0.6,1,1.1,1.6,1.5c0.5-0.4,1-1,1.4-1.5H99.8z M102.3,236.1v-1.4h-2v1.4H102.3z"/>
<path class="st0" d="M195.9,239.3c0.9,0,1.1-0.1,1.4-0.3c0.3-0.2,0.5-0.5,0.6-0.8c0-0.1,0.1-0.1,0.2-0.1s0.1,0.1,0.1,0.1
	c-0.1,0.6-0.4,1.5-0.6,2.1c-0.8,0-1.3,0-2.1,0s-1.5,0-2.2,0c-0.1,0-0.1,0-0.1-0.2c0-0.1,0-0.2,0.1-0.3c0.6-1,1.2-1.9,1.9-2.8
	c0.9-1.2,1.5-1.8,1.5-2.8s-0.3-1.6-0.9-1.6c-0.4,0-0.8,0.2-0.9,0.6c-0.1,0.3-0.1,0.5-0.1,0.8s-0.4,0.5-0.8,0.5s-0.5-0.1-0.5-0.4
	c0.2-1.1,1.2-1.9,2.4-1.9c1.1-0.2,2.1,0.6,2.3,1.7c0,0.1,0,0.2,0,0.2c0,1.4-1,1.9-2.1,3c-0.7,0.6-1.3,1.2-1.8,2L195.9,239.3z"/>
<path class="st0" d="M204.9,236.4c0,2.5-0.9,4.1-2.4,4.1s-2.5-1.5-2.5-4.1s0.9-4.2,2.5-4.2S204.9,233.9,204.9,236.4z M201.3,236.4
	c0,2.3,0.2,3.8,1.2,3.8s1.1-1.5,1.1-3.8s-0.2-3.8-1.1-3.8S201.3,234.2,201.3,236.4L201.3,236.4z"/>
<path class="st0" d="M207.7,233.6c-0.1,0-0.1,0-0.2-0.1s0-0.1,0.1-0.2c0.6-0.2,1.6-0.6,2.3-1c0.1,0,0.2,0.1,0.2,0.1
	c0,0.9,0,1.5,0,2.4v3.4c0,1.1,0,1.2,0.1,1.5s0.5,0.2,0.9,0.3c0.1,0,0.1,0,0.1,0.2s0,0.2-0.1,0.2c-0.5,0-1.1,0-1.6,0s-1.1,0-1.7,0
	c-0.1,0-0.1,0-0.1-0.2s0-0.1,0.1-0.2c0.5,0,0.8-0.1,0.9-0.3c0.1-0.5,0.2-1,0.1-1.5v-3.9c0-0.3,0-0.6-0.1-0.9c-0.1-0.1-0.3-0.1-0.6,0
	L207.7,233.6z"/>
<path class="st0" d="M217.3,236.5c-0.3,0.5-0.9,0.8-1.4,0.8c-1.2,0-2.2-1-2.2-2.1c0-0.1,0-0.1,0-0.2c-0.1-1.3,0.9-2.5,2.2-2.6
	c0.1,0,0.1,0,0.2,0c1.5,0,2.5,1.3,2.5,3.1c0.1,1.7-0.7,3.4-2.2,4.3c-0.5,0.4-1.1,0.6-1.8,0.8c-0.1,0-0.2-0.1-0.3-0.2
	s-0.1-0.3,0.1-0.3c0.5,0,1.1-0.1,1.5-0.4C216.8,239.2,217.2,238.2,217.3,236.5L217.3,236.5z M215,234.9c0,1.1,0.4,2,1.1,2
	c0.5,0,0.8-0.3,1.1-1c0.1-0.2,0.1-0.5,0.1-0.7c0-1.5-0.4-2.5-1.2-2.5S215,233.7,215,234.9z"/>
<path class="st0" d="M228.5,238.1c0.6-0.7,0.7-0.8,0.8-0.8s0.2,0.1,0.8,0.6c0.3,0.2,0.4,0.3,0.4,0.4s0,0.1-0.1,0.1h-3.8
	c0,1.2,0,2.2,0,2.7s-0.2,0.5-0.7,0.5s-0.5-0.1-0.5-0.4s0-1.1,0-2.8h-3.9c-0.3,0-0.5,0-0.8,0.1l-0.1-0.4c0.3,0.1,0.6,0.1,0.9,0.1h1
	v-1.5c0-0.6,0-1.1-0.1-1.6c0.4,0.1,0.8,0.3,1.2,0.5h1.8v-2h-2c-0.6,1-1.5,1.8-2.5,2.4c0,0-0.1,0-0.1-0.1c0.8-0.9,1.5-2,1.9-3.1
	c0.2-0.4,0.3-0.8,0.4-1.3c1.2,0.3,1.5,0.5,1.5,0.7s-0.1,0.2-0.5,0.2c-0.2,0.4-0.3,0.6-0.5,0.9h4.7c0.6-0.7,0.7-0.8,0.8-0.8
	s0.2,0.1,0.8,0.5c0.2,0.2,0.3,0.3,0.3,0.4s0,0.1-0.1,0.1h-3.5v2h1.3c0.6-0.6,0.6-0.7,0.7-0.7s0.2,0.1,0.8,0.5
	c0.3,0.2,0.3,0.3,0.3,0.4s0,0.1-0.2,0.1h-2.9v0.4c0,0.6,0,1.3,0,2L228.5,238.1z M225.4,235.7h-1.9v2.4h1.9V235.7z"/>
<path class="st0" d="M236.2,234.5v-0.2c0-0.3,0-0.6,0-0.9c1.2,0.1,1.3,0.1,1.3,0.3s-0.1,0.1-0.3,0.2v0.6h1.9v-0.4c0-0.3,0-0.5,0-0.8
	c1,0.1,1.3,0.2,1.3,0.3s0,0.1-0.3,0.3v0.6h0.7c0.4-0.6,0.6-0.6,0.7-0.6s0.2,0.1,0.7,0.4c0.2,0.2,0.3,0.3,0.3,0.3s0,0.1-0.1,0.1h-2.2
	c0,0.9,0,1.5,0,1.7s-0.2,0.4-0.6,0.4s-0.4-0.1-0.4-0.4v-0.1h-1.9v0.1c0,0.3-0.2,0.4-0.6,0.4s-0.4-0.1-0.4-0.4s0-0.8,0-1.8h-1.6
	c0,1.2-0.1,2.4-0.4,3.5c-0.3,1.1-0.8,2.2-1.5,3.1c0,0-0.1,0-0.1-0.1c0.4-1.2,0.7-2.4,0.8-3.6c0.1-0.9,0.1-1.9,0.1-3.2
	c0-0.9,0-1.6-0.1-2.4c0.4,0.2,0.9,0.4,1.2,0.6h2.7V232c0-0.2,0-0.4-0.1-0.6c1.3,0.1,1.5,0.2,1.5,0.4s-0.1,0.2-0.4,0.3v0.6h2.4
	c0.5-0.6,0.6-0.7,0.7-0.7s0.2,0.1,0.7,0.5c0.2,0.2,0.3,0.3,0.3,0.4s0,0.1-0.1,0.1h-7.9v0.9c0,0.2,0,0.4,0,0.6H236.2z M239.6,237.5
	c0.4-0.5,0.5-0.5,0.6-0.5s0.2,0.1,0.6,0.5c0.2,0.2,0.3,0.3,0.3,0.4s-0.2,0.2-0.6,0.3c-0.4,0.6-0.9,1.1-1.5,1.5
	c1.2,0.4,2.4,0.7,3.7,0.7c0.1,0,0,0.1,0,0.1c-0.4,0.1-0.5,0.3-0.7,0.8c0,0.1-0.1,0.2-0.2,0.2c-0.2,0-0.5-0.1-0.7-0.1
	c-0.9-0.2-1.8-0.6-2.7-1.1l-0.2-0.1c-1.4,0.8-2.9,1.2-4.5,1.3c0,0-0.1-0.2,0-0.2c1.4-0.3,2.7-0.9,3.9-1.7c-0.6-0.5-1-1.2-1.4-1.9
	h-0.7c-0.2,0-0.4,0-0.6,0.1l-0.1-0.4c0.3,0.1,0.5,0.1,0.8,0.1L239.6,237.5z M236.6,237.7c0.4,0.6,1,1.1,1.6,1.5c0.5-0.4,1-1,1.4-1.5
	H236.6z M239.1,236.1v-1.4h-1.9v1.4H239.1z"/>
<path class="st0" d="M264.3,239.3c0.9,0,1.1-0.1,1.4-0.3s0.5-0.5,0.6-0.8c0-0.1,0.1-0.1,0.2-0.1s0.1,0.1,0.1,0.1
	c-0.1,0.6-0.4,1.5-0.6,2.1c-0.8,0-1.3,0-2.1,0s-1.5,0-2.2,0c-0.1,0-0.1,0-0.1-0.2c0-0.1,0-0.2,0.1-0.3c0.6-1,1.2-1.9,1.9-2.8
	c0.9-1.2,1.5-1.8,1.5-2.8s-0.3-1.6-1-1.6c-0.4,0-0.8,0.2-0.9,0.6c-0.1,0.3-0.1,0.5-0.1,0.8s-0.4,0.5-0.8,0.5s-0.5-0.1-0.5-0.4
	c0.2-1.1,1.2-1.9,2.4-1.9c1.1-0.2,2.1,0.6,2.3,1.7c0,0.1,0,0.2,0,0.2c0,1.4-1,1.9-2.1,3c-0.7,0.6-1.3,1.2-1.8,2L264.3,239.3z"/>
<path class="st0" d="M273.4,236.4c0,2.5-0.9,4.1-2.5,4.1s-2.5-1.5-2.5-4.1s0.9-4.2,2.5-4.2S273.4,233.9,273.4,236.4z M269.7,236.4
	c0,2.3,0.2,3.8,1.2,3.8s1.2-1.5,1.2-3.8s-0.2-3.8-1.2-3.8S269.7,234.2,269.7,236.4L269.7,236.4z"/>
<path class="st0" d="M278,239.3c0.9,0,1.1-0.1,1.4-0.3s0.5-0.5,0.6-0.8c0-0.1,0.1-0.1,0.2-0.1s0.1,0.1,0.1,0.1
	c-0.1,0.6-0.4,1.5-0.6,2.1c-0.8,0-1.3,0-2.1,0s-1.5,0-2.2,0c-0.1,0-0.1,0-0.1-0.2c0-0.1,0-0.2,0.1-0.3c0.6-1,1.2-1.9,1.9-2.8
	c0.9-1.2,1.5-1.8,1.5-2.8s-0.3-1.6-1-1.6c-0.4,0-0.8,0.2-0.9,0.6c-0.1,0.3-0.1,0.5-0.1,0.8s-0.4,0.5-0.8,0.5s-0.5-0.1-0.5-0.4
	c0.2-1.1,1.2-1.9,2.4-1.9c1.1-0.2,2.1,0.6,2.3,1.7c0,0.1,0,0.2,0,0.2c0,1.4-1,1.9-2.1,3c-0.7,0.6-1.3,1.2-1.8,2L278,239.3z"/>
<path class="st0" d="M287,236.4c0,2.5-0.9,4.1-2.4,4.1s-2.5-1.5-2.5-4.1s0.9-4.2,2.5-4.2S287,233.9,287,236.4z M283.4,236.4
	c0,2.3,0.2,3.8,1.2,3.8s1.1-1.5,1.1-3.8s-0.2-3.8-1.1-3.8S283.4,234.2,283.4,236.4L283.4,236.4z"/>
<path class="st0" d="M296.9,238.1c0.6-0.7,0.7-0.8,0.8-0.8s0.2,0.1,0.8,0.6c0.3,0.2,0.4,0.3,0.4,0.4s0,0.1-0.1,0.1H295
	c0,1.2,0,2.2,0,2.7s-0.2,0.5-0.7,0.5s-0.5-0.1-0.5-0.4s0-1.1,0-2.8H290c-0.3,0-0.5,0-0.8,0.1l-0.1-0.4c0.3,0.1,0.6,0.1,0.9,0.1h1
	v-1.5c0-0.6,0-1.1,0-1.6c0.4,0.1,0.8,0.3,1.1,0.5h1.8v-2h-2c-0.6,1-1.5,1.8-2.5,2.4c0,0-0.1,0-0.1-0.1c0.8-0.9,1.5-2,1.9-3.1
	c0.2-0.4,0.3-0.8,0.4-1.3c1.2,0.3,1.5,0.5,1.5,0.7s-0.1,0.2-0.5,0.2c-0.2,0.4-0.3,0.6-0.5,0.9h4.7c0.6-0.7,0.7-0.8,0.8-0.8
	s0.2,0.1,0.8,0.5c0.2,0.2,0.3,0.3,0.3,0.4s0,0.1-0.1,0.1H295v2h1.3c0.6-0.6,0.6-0.7,0.7-0.7s0.2,0.1,0.8,0.5
	c0.2,0.2,0.3,0.3,0.3,0.4s0,0.1-0.2,0.1H295v0.4c0,0.6,0,1.3,0,2L296.9,238.1z M293.9,235.7H292v2.4h1.9V235.7z"/>
<path class="st0" d="M304.7,234.5v-0.2c0-0.3,0-0.6,0-0.9c1.2,0.1,1.3,0.1,1.3,0.3s-0.1,0.1-0.3,0.2v0.6h1.9v-0.4c0-0.3,0-0.6,0-0.8
	c1,0.1,1.3,0.2,1.3,0.3s-0.1,0.1-0.3,0.3v0.6h0.7c0.5-0.6,0.6-0.6,0.7-0.6s0.2,0.1,0.7,0.4c0.2,0.2,0.3,0.3,0.3,0.3s0,0.1-0.1,0.1
	h-2.2c0,0.9,0,1.5,0,1.7s-0.2,0.4-0.6,0.4s-0.4-0.1-0.4-0.4v-0.1h-1.9v0.1c0,0.3-0.2,0.4-0.6,0.4s-0.4-0.1-0.4-0.4s0-0.8,0-1.8h-1.5
	c0,1.2-0.1,2.4-0.4,3.5s-0.8,2.2-1.5,3.1c0,0-0.1,0-0.1-0.1c0.4-1.2,0.7-2.4,0.8-3.6c0.1-0.9,0.1-1.9,0.1-3.2c0-0.9,0-1.6-0.1-2.4
	c0.4,0.2,0.9,0.3,1.3,0.6h2.7V232c0-0.2,0-0.4-0.1-0.6c1.3,0.1,1.5,0.2,1.5,0.4s-0.1,0.2-0.4,0.3v0.6h2.4c0.5-0.6,0.6-0.7,0.7-0.7
	s0.2,0.1,0.8,0.5c0.2,0.2,0.3,0.3,0.3,0.4s0,0.1-0.1,0.1h-7.9v0.9c0,0.2,0,0.4,0,0.6H304.7z M308.1,237.5c0.5-0.5,0.5-0.5,0.6-0.5
	s0.2,0.1,0.6,0.5c0.2,0.2,0.3,0.3,0.3,0.4s-0.1,0.2-0.6,0.3c-0.4,0.6-0.9,1.1-1.5,1.5c1.2,0.4,2.4,0.7,3.7,0.7c0.1,0,0,0.1,0,0.1
	c-0.4,0.1-0.5,0.3-0.7,0.8c0,0.1-0.1,0.2-0.2,0.2c-0.2,0-0.5-0.1-0.7-0.1c-0.9-0.2-1.8-0.6-2.7-1.1l-0.2-0.1
	c-1.4,0.8-2.9,1.2-4.5,1.3c-0.1,0-0.1-0.2,0-0.2c1.4-0.3,2.7-0.9,3.9-1.7c-0.6-0.5-1-1.2-1.4-1.9H304c-0.2,0-0.4,0-0.6,0.1l-0.1-0.4
	c0.3,0.1,0.5,0.1,0.8,0.1L308.1,237.5z M305.1,237.7c0.4,0.6,1,1.1,1.6,1.5c0.5-0.4,1-1,1.4-1.5H305.1z M307.6,236.1v-1.4h-1.9v1.4
	H307.6z"/>
<rect x="60.4" y="122.4" class="st3" width="46" height="18.7"/>
<rect x="124.4" y="118.1" class="st3" width="54.1" height="20.2"/>
<rect x="191.6" y="91.3" class="st3" width="58.2" height="26.9"/>
<path class="st1" d="M64.7,137.6v-0.2H65c0.5,0,0.9-0.4,0.9-0.9l0,0v-8.1c0-0.3-0.1-0.6-0.3-0.9c-0.2-0.2-0.5-0.3-0.8-0.2h-0.3v-0.2
	c0.2,0,0.5,0,0.9-0.1s0.8-0.1,1.2-0.2c0.4-0.1,0.9-0.2,1.3-0.3c0.4-0.1,0.7-0.3,1-0.4h0.2v10.4c0,0.2,0.1,0.4,0.3,0.6
	c0.2,0.2,0.4,0.3,0.6,0.2h0.3v0.2L64.7,137.6L64.7,137.6z"/>
<path class="st1" d="M71.9,135.3c0.2-0.2,0.5-0.3,0.8-0.3s0.6,0.1,0.8,0.2c0.3,0.2,0.5,0.4,0.6,0.7c0.2,0.5,0.3,0.9,0.2,1.4
	c-0.1,0.5-0.2,0.9-0.5,1.3c-0.3,0.4-0.6,0.7-1,0.9s-0.9,0.3-1.3,0.2l-0.1-0.2c0.2-0.1,0.4-0.2,0.5-0.4c0.2-0.2,0.2-0.5,0.2-0.7
	c0-0.3-0.2-0.7-0.4-0.9c-0.2-0.2-0.3-0.5-0.4-0.8s0-0.6,0.1-0.8C71.6,135.6,71.7,135.4,71.9,135.3z"/>
<path class="st1" d="M84,125.9L84,125.9c-0.9,0.4-1.8,0.8-2.7,1.3c-0.6,0.4-1.1,0.9-1.4,1.5s-0.5,1.2-0.6,1.9
	c-0.1,0.8-0.1,1.6-0.1,2.4c0,0.9,0,1.6,0.1,2.2c0,0.5,0.1,0.9,0.3,1.3c0.2,0.3,0.5,0.5,0.8,0.4c0.3,0,0.7-0.1,0.9-0.4
	c0.2-0.3,0.4-0.6,0.4-1c0.1-0.4,0.1-0.9,0.1-1.4s0-1-0.1-1.4c0-0.3-0.1-0.5-0.3-0.8c-0.1-0.2-0.2-0.3-0.4-0.3
	c-0.2-0.1-0.5-0.1-0.7,0s-0.4,0.1-0.5,0.2l-0.1-0.1c0.1-0.3,0.4-0.6,0.7-0.8c0.3-0.2,0.7-0.4,1.1-0.4c0.4-0.1,0.8,0,1.3,0.1
	c0.4,0.1,0.8,0.3,1.2,0.6c0.4,0.3,0.7,0.7,0.9,1.1c0.2,0.6,0.3,1.2,0.3,1.8c0,0.7-0.2,1.4-0.5,2c-0.4,0.6-0.9,1.1-1.5,1.4
	c-0.8,0.4-1.7,0.6-2.6,0.6s-1.8-0.1-2.7-0.5c-0.7-0.4-1.3-1-1.7-1.7c-0.4-0.9-0.6-2-0.6-3s0.2-2.1,0.5-3.1c0.3-0.9,0.9-1.6,1.6-2.2
	c0.8-0.6,1.6-1.1,2.6-1.3C81.5,125.8,82.8,125.8,84,125.9z"/>
<path class="st1" d="M86.4,137.6v-0.2h0.3c0.5,0,0.9-0.4,0.9-0.9l0,0v-8.1c0-0.3-0.1-0.6-0.3-0.9c-0.2-0.2-0.5-0.3-0.8-0.2h-0.3
	v-0.2c0.2,0,0.5,0,0.9-0.1s0.8-0.1,1.2-0.1c0.4-0.1,0.9-0.2,1.3-0.3c0.4-0.1,0.7-0.3,1-0.4h0.2v10.4c0,0.2,0.1,0.5,0.3,0.6
	c0.2,0.2,0.4,0.3,0.6,0.2H92v0.2H86.4z"/>
<path class="st1" d="M94.4,138.2l-0.1-0.1c0.9-0.2,1.8-0.6,2.7-1.1c0.6-0.4,1.1-0.9,1.4-1.5s0.5-1.2,0.6-1.9s0.1-1.5,0.1-2.4
	s0-1.6-0.1-2.2c0-0.5-0.1-0.9-0.3-1.3c-0.2-0.3-0.5-0.5-0.8-0.4c-0.3,0-0.7,0.1-0.9,0.4c-0.2,0.3-0.4,0.6-0.4,1
	c-0.1,0.4-0.1,0.9-0.1,1.4s0,1,0.1,1.4c0,0.3,0.1,0.5,0.3,0.8c0.1,0.1,0.2,0.3,0.4,0.3c0.2,0.1,0.5,0.1,0.7,0s0.4-0.1,0.5-0.2
	l0.1,0.1c-0.1,0.3-0.4,0.6-0.7,0.8c-0.3,0.2-0.7,0.4-1.1,0.4c-0.4,0.1-0.8,0-1.3-0.1c-0.4-0.1-0.8-0.3-1.2-0.6
	c-0.4-0.3-0.7-0.7-0.8-1.1c-0.2-0.6-0.3-1.2-0.3-1.8c0-0.7,0.2-1.4,0.5-1.9c0.4-0.6,0.9-1.1,1.5-1.4c0.8-0.4,1.7-0.6,2.6-0.5
	c1.3-0.1,2.6,0.3,3.6,1.2c0.9,1.1,1.4,2.6,1.3,4c0,1-0.2,2.1-0.5,3.1c-0.3,0.9-0.9,1.6-1.6,2.2c-0.7,0.6-1.6,1.1-2.6,1.3
	C96.9,138.4,95.7,138.4,94.4,138.2z"/>
<path class="st1" d="M131.6,133.8v-0.2h0.4c0.2,0,0.5-0.1,0.6-0.3c0.2-0.2,0.3-0.4,0.3-0.6v-8.1c0-0.3-0.1-0.6-0.3-0.9
	c-0.2-0.2-0.5-0.3-0.8-0.2h-0.3v-0.2c0.2,0,0.5,0,0.9-0.1s0.8-0.1,1.2-0.2s0.9-0.2,1.3-0.3c0.4-0.1,0.7-0.3,1.1-0.4h0.2v10.4
	c0,0.2,0.1,0.4,0.3,0.6c0.2,0.2,0.4,0.2,0.6,0.2h0.3v0.2L131.6,133.8z"/>
<path class="st1" d="M138.9,131.4c0.2-0.2,0.5-0.3,0.8-0.3s0.6,0.1,0.9,0.2c0.3,0.2,0.5,0.4,0.6,0.7c0.2,0.4,0.3,0.9,0.2,1.4
	s-0.2,0.9-0.5,1.3c-0.3,0.4-0.6,0.7-1,0.9s-0.9,0.3-1.3,0.2l-0.1-0.2c0.2-0.1,0.4-0.2,0.5-0.4c0.2-0.2,0.2-0.5,0.2-0.7
	c0-0.3-0.2-0.7-0.4-0.9s-0.3-0.5-0.4-0.8c0-0.3,0-0.6,0.1-0.8C138.5,131.8,138.7,131.6,138.9,131.4z"/>
<path class="st1" d="M142.5,122.6h8.5l-2.1,4.8c-0.1,0.3-0.3,0.7-0.4,1.1s-0.3,0.9-0.5,1.4s-0.3,1-0.5,1.5s-0.3,0.9-0.4,1.4
	s-0.2,0.8-0.3,1.1H144l0.7-1.2l0.8-1.4l0.9-1.5c0.3-0.5,0.5-1,0.8-1.4s0.4-0.8,0.6-1.1l0.8-1.8h-5.1c-0.3,0-0.5,0.1-0.8,0.2
	c-0.2,0.2-0.4,0.4-0.4,0.7H142L142.5,122.6z"/>
<path class="st1" d="M159.1,122.3l0.1,1.2l-5.7,5.5h6.4c0.2,0,0.5,0,0.7-0.2c0.2-0.1,0.3-0.3,0.4-0.5h0.2l-0.5,2.3h-9.8v-0.2
	L159.1,122.3z M159.3,132.8c0,0.2,0.1,0.5,0.3,0.6c0.2,0.2,0.4,0.3,0.6,0.3h0.2v0.2H155v-0.2h0.2c0.2,0,0.5-0.1,0.6-0.2
	c0.2-0.2,0.3-0.4,0.3-0.6h3.2V132.8z M156,125.8l3.1-3.5h0.2v11.4H156V125.8z"/>
<path class="st1" d="M163.2,134.4l-0.1-0.1c0.9-0.3,1.8-0.7,2.7-1.2c0.6-0.4,1.1-0.9,1.4-1.5c0.3-0.6,0.5-1.2,0.6-1.9
	s0.1-1.5,0.1-2.4s0-1.6-0.1-2.2c0-0.5-0.1-0.9-0.3-1.3c-0.2-0.3-0.5-0.5-0.8-0.4c-0.3,0-0.7,0.1-0.9,0.4s-0.4,0.6-0.4,1
	c-0.1,0.4-0.1,0.9-0.1,1.4s0,1,0.1,1.4c0,0.3,0.1,0.5,0.3,0.8c0.1,0.2,0.2,0.3,0.4,0.4c0.2,0.1,0.5,0.1,0.7,0c0.2,0,0.4-0.1,0.5-0.2
	l0.1,0.1c-0.1,0.3-0.4,0.6-0.7,0.8s-0.7,0.4-1.1,0.4c-0.4,0.1-0.8,0-1.3-0.1c-0.4-0.1-0.8-0.3-1.2-0.6s-0.7-0.7-0.9-1.2
	c-0.2-0.6-0.3-1.2-0.3-1.8c0-0.7,0.2-1.4,0.5-2c0.4-0.6,0.9-1.1,1.5-1.4c0.8-0.4,1.7-0.6,2.6-0.5c1.3-0.1,2.6,0.3,3.6,1.2
	c0.9,1.1,1.4,2.6,1.3,4c0,1-0.2,2.1-0.5,3.1c-0.3,0.9-0.9,1.6-1.6,2.2c-0.7,0.6-1.6,1.1-2.6,1.3
	C165.7,134.4,164.5,134.5,163.2,134.4z"/>
<path class="st1" d="M199.2,102.2l-1.1-2.9c0.3-0.3,0.7-0.5,1.2-0.7s1-0.3,1.5-0.4s1-0.1,1.6-0.1c0.8,0,1.6,0.1,2.3,0.4
	c0.6,0.2,1.2,0.6,1.6,1.1c0.4,0.5,0.6,1.1,0.6,1.8c0,0.5-0.1,1-0.3,1.4c-0.2,0.5-0.5,0.9-0.9,1.2c-0.4,0.4-0.7,0.7-1.2,1.1
	c-0.4,0.3-0.8,0.6-1.2,0.9l-1.1,0.7h3c0.3,0,0.6-0.1,0.9-0.2c0.3-0.1,0.5-0.3,0.7-0.6c0.2-0.3,0.4-0.6,0.6-0.9h0.2l-1.1,4.5h-8.3
	v-0.2c0.5-0.6,0.9-1.1,1.4-1.7s1-1.1,1.4-1.7s0.9-1.1,1.2-1.7c0.3-0.5,0.6-1.1,0.9-1.7c0.2-0.5,0.3-1.1,0.3-1.6
	c0-0.6-0.2-1.2-0.6-1.6c-0.4-0.4-0.9-0.6-1.5-0.5c-0.6,0-1.2,0.4-1.5,0.9C199.4,100.4,199.2,101.3,199.2,102.2L199.2,102.2z"/>
<path class="st1" d="M209.3,107.2c0.2-0.2,0.5-0.3,0.8-0.3s0.6,0.1,0.9,0.2c0.3,0.2,0.5,0.4,0.6,0.7c0.2,0.4,0.3,0.9,0.2,1.4
	s-0.2,0.9-0.5,1.3s-0.6,0.7-1,0.9c-0.4,0.2-0.9,0.3-1.3,0.2l-0.1-0.2c0.2-0.1,0.4-0.2,0.5-0.4c0.2-0.2,0.2-0.5,0.2-0.7
	c0-0.3-0.2-0.7-0.4-0.9c-0.2-0.2-0.3-0.5-0.4-0.8c0-0.3,0-0.6,0.1-0.8C209,107.5,209.1,107.3,209.3,107.2z"/>
<path class="st1" d="M216.9,98.2c0.7,0,1.5,0.1,2.2,0.3c0.5,0.2,1,0.5,1.4,0.9c0.6,0.8,0.6,1.8,0.2,2.7c-0.2,0.3-0.4,0.6-0.7,0.8
	c-0.3,0.2-0.6,0.3-0.9,0.4c-0.3,0.1-0.7,0.1-1,0c0.3,0,0.7,0.1,1,0.2c0.4,0.1,0.8,0.3,1.1,0.5c0.4,0.3,0.7,0.6,0.9,1
	c0.2,0.5,0.3,1,0.3,1.5c0,0.7-0.2,1.4-0.5,2s-0.8,1.1-1.4,1.4c-0.6,0.4-1.3,0.6-2,0.8c-0.7,0.2-1.5,0.2-2.3,0.1s-1.5-0.3-2.2-0.6
	V110c0.6,0,1.3-0.1,1.9-0.2c0.6-0.2,1.1-0.4,1.6-0.8c0.4-0.3,0.8-0.7,1.1-1.2s0.4-1,0.4-1.6s-0.1-1.1-0.4-1.6
	c-0.3-0.4-0.7-0.7-1.1-0.9c-0.4-0.2-0.9-0.3-1.4-0.3v-0.2c0.5,0,0.9-0.1,1.4-0.3c0.4-0.2,0.8-0.6,1-1s0.3-0.9,0.3-1.4
	c0-0.4-0.1-0.7-0.3-1c-0.2-0.2-0.4-0.4-0.7-0.5s-0.6-0.1-0.9-0.1c-0.6,0-1.1,0.3-1.4,0.8c-0.3,0.7-0.4,1.5-0.4,2.3h-0.2l-0.9-2.8
	c0.5-0.4,1-0.7,1.6-0.8C215.2,98.2,216,98.1,216.9,98.2z"/>
<path class="st1" d="M226.5,98.2c0.7,0,1.5,0.1,2.2,0.3c0.5,0.2,1,0.5,1.4,0.9c0.3,0.4,0.5,1,0.5,1.5c0,0.4-0.1,0.8-0.3,1.2
	c-0.2,0.3-0.4,0.6-0.7,0.8c-0.3,0.2-0.6,0.3-0.9,0.4c-0.3,0.1-0.7,0.1-1,0c0.3,0,0.7,0.1,1,0.2c0.4,0.1,0.8,0.3,1.1,0.5
	c0.4,0.3,0.7,0.6,0.9,1c0.2,0.5,0.3,1,0.3,1.5c0,0.7-0.2,1.4-0.5,2s-0.8,1.1-1.4,1.4c-0.6,0.4-1.3,0.6-2,0.8
	c-0.7,0.2-1.5,0.2-2.3,0.1s-1.5-0.3-2.2-0.6V110c0.6,0,1.3-0.1,1.9-0.2c0.6-0.2,1.1-0.4,1.6-0.8c0.4-0.3,0.8-0.7,1.1-1.2
	s0.4-1,0.4-1.6s-0.1-1.1-0.4-1.6c-0.3-0.4-0.7-0.7-1.1-0.9c-0.4-0.2-0.9-0.3-1.4-0.3v-0.2c1.1,0.1,2-0.5,2.5-1.4
	c0.2-0.4,0.3-0.9,0.3-1.4c0-0.4-0.1-0.7-0.3-1c-0.2-0.2-0.4-0.4-0.7-0.5s-0.6-0.1-0.9-0.1c-0.6,0-1.1,0.3-1.4,0.8
	c-0.3,0.7-0.4,1.5-0.4,2.3h-0.2l-0.9-2.8c0.5-0.4,1.1-0.7,1.6-0.8C224.9,98.2,225.7,98.1,226.5,98.2z"/>
<path class="st1" d="M240.6,97.8l0.1,0.1c-0.9,0.3-1.8,0.7-2.7,1.2c-0.6,0.4-1.1,0.9-1.4,1.5c-0.3,0.6-0.5,1.2-0.6,1.9
	c-0.1,0.7-0.1,1.5-0.1,2.4s0,1.6,0.1,2.2c0,0.5,0.1,0.9,0.3,1.3c0.2,0.3,0.5,0.5,0.8,0.4c0.3,0,0.7-0.1,0.9-0.4s0.4-0.6,0.4-1
	c0.1-0.4,0.1-0.9,0.1-1.3c0-0.5,0-1-0.1-1.4c0-0.3-0.1-0.5-0.3-0.8c-0.1-0.1-0.3-0.3-0.4-0.3c-0.2-0.1-0.5-0.1-0.7,0
	s-0.4,0.1-0.5,0.2l-0.1-0.1c0.1-0.3,0.4-0.6,0.7-0.8c0.3-0.2,0.7-0.4,1.1-0.4c0.4-0.1,0.8,0,1.3,0.1c0.9,0.2,1.6,0.8,2,1.7
	c0.2,0.6,0.3,1.2,0.3,1.8c0,0.7-0.2,1.4-0.5,2c-0.4,0.6-0.9,1.1-1.5,1.4c-0.8,0.4-1.7,0.6-2.6,0.6c-0.9,0-1.8-0.1-2.7-0.5
	c-0.7-0.4-1.3-1-1.6-1.7c-0.4-0.9-0.6-2-0.6-3s0.2-2.1,0.5-3.1c0.3-0.9,0.9-1.6,1.6-2.2c0.8-0.6,1.6-1.1,2.6-1.3
	C238.1,97.7,239.4,97.7,240.6,97.8z"/>
<rect x="256.9" y="79" class="st3" width="57.4" height="26.9"/>
<path class="st1" d="M261.5,88.2l-1.3-3.6c0.4-0.4,0.9-0.7,1.5-0.9c0.6-0.2,1.2-0.4,1.8-0.5c0.6-0.1,1.3-0.2,2-0.2
	c1,0,2,0.2,2.9,0.5c0.8,0.3,1.5,0.8,2,1.4s0.8,1.4,0.8,2.2c0,0.6-0.1,1.2-0.4,1.8c-0.3,0.6-0.6,1.1-1.1,1.6
	c-0.4,0.5-0.9,0.9-1.4,1.3s-1,0.8-1.5,1.1l-1.4,0.9h3.8c0.4,0,0.7-0.1,1.1-0.2c0.3-0.2,0.6-0.4,0.9-0.7c0.3-0.4,0.6-0.8,0.8-1.2h0.2
	l-1.4,5.6h-10.4v-0.2c0.6-0.7,1.2-1.4,1.8-2.1s1.2-1.4,1.8-2.1s1.1-1.4,1.5-2.1c0.4-0.6,0.8-1.3,1.1-2.1c0.3-0.6,0.4-1.3,0.4-2
	s-0.2-1.4-0.7-2c-0.5-0.5-1.2-0.7-1.9-0.6c-0.8,0-1.5,0.5-1.9,1.2c-0.5,0.9-0.7,2-0.6,3L261.5,88.2z"/>
<path class="st1" d="M274.1,94.3c0.3-0.2,0.6-0.3,1-0.3s0.7,0.1,1.1,0.3c0.3,0.2,0.6,0.5,0.8,0.8c0.3,0.6,0.4,1.2,0.3,1.8
	c-0.1,0.6-0.3,1.2-0.6,1.6c-0.3,0.5-0.8,0.9-1.3,1.1c-0.5,0.3-1.1,0.3-1.7,0.2l-0.1-0.3c0.3-0.1,0.5-0.3,0.6-0.5
	c0.2-0.3,0.3-0.6,0.3-0.9c0-0.4-0.2-0.8-0.5-1.1c-0.2-0.3-0.4-0.6-0.5-0.9s0-0.7,0.1-1C273.6,94.8,273.8,94.5,274.1,94.3z"/>
<path class="st1" d="M287.5,86.7l-6.1,0.5l-0.3,1.7c1.1-0.3,2.3-0.4,3.4-0.3c0.9,0.1,1.7,0.4,2.5,0.8c0.6,0.4,1.2,1,1.5,1.7
	s0.5,1.5,0.4,2.3c0,0.9-0.3,1.8-0.8,2.6c-0.5,0.7-1.2,1.3-2,1.7c-0.8,0.4-1.7,0.7-2.6,0.9c-0.9,0.2-1.8,0.2-2.8,0.1
	c-0.9-0.1-1.7-0.4-2.5-0.8v-0.2c0.4,0,0.9,0,1.3-0.1c0.5-0.1,1.1-0.2,1.6-0.4c0.6-0.2,1.1-0.4,1.6-0.8c0.5-0.3,0.9-0.7,1.2-1.1
	c0.3-0.5,0.5-1,0.5-1.6c0.1-0.7-0.1-1.3-0.6-1.8s-1.2-0.7-1.9-0.7c-0.9,0-1.9,0.2-2.7,0.6l-0.2-0.1l1.7-7.7l6-0.5
	c0.4,0,0.7-0.1,1-0.3c0.2-0.2,0.4-0.4,0.6-0.7h0.2L287.5,86.7z"/>
<path class="st1" d="M290.5,97.3v-0.2h0.4c0.3,0,0.6-0.1,0.8-0.3c0.2-0.2,0.3-0.5,0.3-0.8V85.9c0-0.4-0.1-0.8-0.4-1.1
	c-0.3-0.2-0.6-0.3-1-0.3h-0.4v-0.2c0.3,0,0.6-0.1,1.1-0.1s1-0.1,1.5-0.2s1.1-0.2,1.6-0.4c0.5-0.1,0.9-0.3,1.3-0.6h0.2v13
	c0,0.3,0.1,0.6,0.3,0.8c0.2,0.2,0.5,0.3,0.8,0.3h0.4v0.2L290.5,97.3z"/>
<path class="st1" d="M308.2,83l0.2,1.5l-7.1,6.9h8c0.3,0,0.6-0.1,0.8-0.2c0.2-0.2,0.4-0.4,0.5-0.6h0.2l-0.6,2.9h-12.3v-0.2L308.2,83
	z M308.4,96c0,0.3,0.1,0.6,0.3,0.8c0.2,0.2,0.5,0.3,0.8,0.3h0.2v0.2H303v-0.2h0.2c0.3,0,0.6-0.1,0.8-0.3c0.2-0.2,0.3-0.5,0.3-0.8
	H308.4z M304.3,87.3l3.9-4.3h0.2v14.3h-4.1V87.3z"/>
<circle class="st1" cx="83.2" cy="146.9" r="4.3"/>
<circle class="st1" cx="150.8" cy="143.5" r="4.3"/>
<circle class="st1" cx="285.9" cy="109.4" r="4.3"/>
<circle class="st1" cx="218.4" cy="121" r="4.3"/>
<polyline class="st4" points="83.2,146.9 150.8,143.5 218.4,121 285.9,109.4 "/>
<path class="st0" d="M209.5,322.8v-3.3h-10.6v3.3h-5.8v33.1h8v-6h6v6h8v-33.1H209.5z M198.2,346.1h-2.4v-3.9h2.4V346.1z
	 M198.2,338.3h-2.4v-3.9h2.4V338.3z M198.2,330.5h-2.4v-3.9h2.4V330.5z M203,346.1h-2.4v-3.9h2.4V346.1z M203,338.3h-2.4v-3.9h2.4
	V338.3z M203,330.5h-2.4v-3.9h2.4V330.5z M207.8,346.1h-2.4v-3.9h2.4V346.1z M207.8,338.3h-2.4v-3.9h2.4V338.3z M207.8,330.5h-2.4
	v-3.9h2.4V330.5z M212.5,346.1h-2.4v-3.9h2.4V346.1z M212.5,338.3h-2.4v-3.9h2.4V338.3z M212.5,330.5h-2.4v-3.9h2.4V330.5z"/>
<path class="st0" d="M310.3,340.4c-0.5-1.9-2.4-3.1-4.3-2.6l0,0c-1.8,0.3-2.8,2.6-3.2,4c0.1-1.8-0.2-4.4-2.4-5.6
	c-3.3-1.8-5.4,1.4-5.7,1.9s-0.2,0.5,0.4,0.5c1.1-0.3,2.1-0.3,3.2-0.2l0.7-0.6l0.3,0.9c1.4,0.5,2.3,1.8,2.4,3.2c-1.1-1.3-2.7-2-4.3-2
	c-3,0-5.5,2.4-5.5,5.4l0,0v0.1c0,0.1,0.1,0.2,0.2,0.2s0.2,0,0.3-0.1c0.1-0.1,0.2-0.2,0.3-0.4c0.5-0.5,1-0.8,1.6-1.2l0.5-1l0.7,0.4
	c1.1-0.4,2.3-0.7,3.5-0.7c0.8,0,1.6,0.1,2.3,0.3c-2.2-0.1-4.3,1.1-5.3,3c-0.8,1.6-0.8,3.5,0.2,5c0.1,0.1,0.3,0,0.4-0.2
	c0.2-0.9,0.5-1.8,0.9-2.6l-0.2-0.9l0.6,0.2c0.8-1.5,2-2.7,3.4-3.6c-1.7,3.6-1.9,7.8-0.7,11.6h3.7c0,0-3.7-3.6-1.8-11
	c0.6,0.7,1,1.5,1.4,2.3l0.6,0.1l-0.2,0.7c0.3,0.9,0.5,1.8,0.6,2.8c0,0.2,0.2,0.4,0.2,0.3c1.2-2.5,0.8-5.1-0.9-6.7
	c1.1,0.4,2,1.2,2.6,2.2l0.8,0.2l-0.1,0.9c0.5,0.9,0.8,1.8,1,2.7c0,0.2,0.2,0.4,0.3,0.1c0.9-1.6,1-4.7-0.6-6.4
	c-1.3-1.3-3.5-1.4-4.9-1c0.9-1.5,3.3-1.6,3.3-1.6s0.4-0.9,0.5-1s0.5,0.9,0.5,0.9l2.5,1c0,0,0.3,0.2,0.4-0.1
	C310.4,341.1,310.4,340.7,310.3,340.4z"/>
<path class="st0" d="M253.1,343.9V356h22v-6h6v6h8.1v-12.1H253.1z"/>
<path class="st0" d="M240.1,339.6h-9.6v-2.2H228v2.2h-2.3l-4.2,7h3v9.4h16.8v-9.4h3L240.1,339.6z M231.1,350.6h-2.4v-2.4h2.4V350.6z
	 M237.2,350.6h-2.4v-2.4h2.4V350.6z"/>
<path class="st0" d="M75.2,346h22.5c0.4,0,0.8-0.2,1-0.5s0.3-0.7,0.2-1.1L95,332.7c-0.2-0.5-0.6-0.8-1.1-0.8H79.1
	c-0.5,0-1,0.3-1.1,0.8l-4,11.8c-0.1,0.4-0.1,0.8,0.2,1.1C74.4,345.8,74.8,346,75.2,346z M80,333.7h8.5l-10.5,6L80,333.7z"/>
<path class="st0" d="M69.4,366.1c-0.2-0.5-0.6-0.8-1.1-0.8H53.6c-0.5,0-1,0.3-1.1,0.8l-3.9,11.7c-0.1,0.4-0.1,0.8,0.2,1.1
	c0.2,0.3,0.6,0.5,1,0.5h22.5c0.4,0,0.8-0.2,1-0.5s0.3-0.7,0.2-1.1L69.4,366.1z M52.5,373l2-6H63L52.5,373z"/>
<path class="st0" d="M95.9,366.1c-0.2-0.5-0.6-0.8-1.1-0.8H80c-0.5,0-1,0.3-1.1,0.8L75,377.8c-0.1,0.4-0.1,0.8,0.2,1.1
	c0.2,0.3,0.6,0.5,1,0.5h22.5c0.4,0,0.8-0.2,1-0.5s0.3-0.7,0.2-1.1L95.9,366.1z M79,373l2-6h8.5L79,373z"/>
<path class="st0" d="M126.3,377.8l-3.9-11.7c-0.2-0.5-0.6-0.8-1.1-0.8h-14.7c-0.5,0-1,0.3-1.1,0.8l-3.9,11.7
	c-0.1,0.4-0.1,0.8,0.2,1.1c0.2,0.3,0.6,0.5,1,0.5h22.5c0.4,0,0.8-0.2,1-0.5C126.4,378.5,126.4,378.1,126.3,377.8z M105.4,373l2-6
	h8.5L105.4,373z"/>
<path class="st0" d="M54.8,383.6c-0.2-0.5-0.6-0.8-1.1-0.8H38.9c-0.5,0-1,0.3-1.1,0.8l-3.9,11.7c-0.1,0.4-0.1,0.8,0.2,1.1
	c0.2,0.3,0.6,0.5,1,0.5h22.5c0.7,0,1.2-0.5,1.2-1.2c0-0.1,0-0.2-0.1-0.4L54.8,383.6z M37.8,390.5l2-6h8.5L37.8,390.5z"/>
<path class="st0" d="M81.2,383.6c-0.2-0.5-0.6-0.8-1.1-0.8H65.3c-0.5,0-1,0.3-1.1,0.8l-3.9,11.7c-0.1,0.4-0.1,0.8,0.2,1.1
	c0.2,0.3,0.6,0.5,1,0.5H84c0.4,0,0.8-0.2,1-0.5s0.3-0.7,0.2-1.1L81.2,383.6z M64.3,390.5l2-6h8.5L64.3,390.5z"/>
<path class="st0" d="M134.1,383.6c-0.2-0.5-0.6-0.8-1.1-0.8h-14.7c-0.5,0-1,0.3-1.1,0.8l-3.9,11.7c-0.2,0.6,0.1,1.3,0.8,1.5
	c0.1,0,0.2,0.1,0.4,0.1H137c0.4,0,0.8-0.2,1-0.5s0.3-0.7,0.2-1.1L134.1,383.6z M117.2,390.5l2-6h8.5L117.2,390.5z"/>
<path class="st0" d="M111.6,395.3l-3.9-11.7c-0.2-0.5-0.6-0.8-1.1-0.8H91.8c-0.5,0-1,0.3-1.1,0.8l-3.9,11.7
	c-0.1,0.4-0.1,0.8,0.2,1.1c0.2,0.3,0.6,0.5,1,0.5h22.5c0.4,0,0.8-0.2,1-0.5S111.7,395.7,111.6,395.3z M90.8,390.5l2-6h8.5
	L90.8,390.5z"/>
<path class="st0" d="M61.5,362.7H84c0.4,0,0.8-0.2,1-0.5s0.3-0.7,0.2-1.1l-3.9-11.7c-0.2-0.5-0.6-0.8-1.1-0.8H65.4
	c-0.5,0-1,0.3-1.1,0.8l-3.9,11.7c-0.1,0.4-0.1,0.8,0.2,1.1C60.7,362.5,61.1,362.7,61.5,362.7z M66.3,350.3h8.5l-10.5,6L66.3,350.3z"
	/>
<path class="st0" d="M90.7,349.4l-3.9,11.7c-0.1,0.4-0.1,0.8,0.2,1.1c0.2,0.3,0.6,0.5,1,0.5h22.5c0.4,0,0.8-0.2,1-0.5
	s0.3-0.7,0.2-1.1l-3.9-11.7c-0.2-0.5-0.6-0.8-1.1-0.8H91.8C91.3,348.5,90.8,348.9,90.7,349.4z M101.2,350.3l-10.5,6l2-6H101.2z"/>
<path class="st0" d="M273.4,388.3c0,0.8,0,1.6-0.1,2.4h1.1c0.5-0.6,0.6-0.8,0.8-0.8s0.3,0.1,0.8,0.6c0.2,0.2,0.3,0.3,0.3,0.5
	s0,0.2-0.4,0.4c-0.2,3.4-0.5,5.8-0.9,6.6c-0.1,0.3-0.4,0.6-0.6,0.8c-0.3,0.2-0.7,0.4-1.1,0.3c-0.2,0-0.2-0.1-0.3-0.3
	c-0.1-0.7-0.3-0.9-1.1-1.2c-0.1,0,0-0.2,0-0.2c0.7,0.1,1.1,0.1,1.3,0.1c0.5,0,0.6-0.1,0.8-0.7c0.4-1.9,0.5-3.9,0.6-5.8h-1.2
	c-0.3,4.2-1.2,6.3-3.2,8.1c-0.1,0-0.2-0.1-0.2-0.1c1.5-2.5,2.1-5.5,2.1-10.3v-0.5h-0.4c-0.3,0-0.7,0-1,0.1l-0.2-0.6
	c0.4,0.1,0.8,0.1,1.2,0.1h1V386c0-0.2,0-0.6-0.1-1.2c1.8,0.2,2,0.4,2,0.5s-0.1,0.2-0.4,0.4v2.2h0.5c0.6-0.7,0.8-0.9,0.9-0.9
	s0.3,0.1,0.8,0.6c0.2,0.2,0.3,0.3,0.3,0.5s0,0.2-0.2,0.2L273.4,388.3z M278,387.9c-0.6,0.8-1.3,1.6-2.1,2.2c-0.1,0-0.2,0-0.2-0.1
	c0.6-1,1.1-2,1.5-3.2c0.2-0.7,0.3-1.4,0.4-2.1c1.7,0.4,2,0.5,2,0.7s-0.2,0.3-0.6,0.4c-0.2,0.6-0.5,1.2-0.9,1.7h4.1
	c0.8-1,1-1.1,1.1-1.1s0.3,0.1,1,0.8c0.3,0.3,0.5,0.4,0.5,0.5s0,0.2-0.2,0.2H278z M278.5,397.2c0,0.5,0.1,0.6,2.1,0.6
	s2.4-0.1,2.7-0.2s0.4-0.4,0.9-2.1c0-0.1,0.2,0,0.2,0c0,0.5,0,1.2,0,1.5c0,0.2,0.1,0.4,0.2,0.4c0.3,0.2,0.4,0.4,0.4,0.6
	s-0.3,0.7-1,0.9c-1,0.2-2,0.2-3.1,0.2c-3.3,0-3.9-0.2-3.9-1.5c0-0.4,0-0.8,0-2.5c0-0.7,0-1.5,0-2.2c-0.3,0.1-0.6,0.2-0.9,0.4
	l-0.3-0.5c0.3,0,0.7-0.1,1-0.2l0.2-0.1c0-1,0-2,0-3c1.7,0.2,1.9,0.2,1.9,0.5s-0.1,0.3-0.5,0.4v1.8l1.3-0.4v-1.1c0-0.7,0-1.4-0.1-2.1
	c1.4,0.1,1.9,0.3,1.9,0.5s-0.1,0.2-0.5,0.4v2l1.2-0.4c0.5-0.8,0.7-0.9,0.8-0.9c0.4,0.1,0.8,0.4,1.1,0.7c0.1,0.1,0.2,0.2,0.2,0.3
	c0,0.2-0.1,0.3-0.5,0.5c0,1.1-0.1,2.2-0.2,3.3c-0.1,0.4-0.2,0.7-0.5,1c-0.3,0.2-0.6,0.4-1,0.4c-0.2,0-0.2,0-0.2-0.4
	s-0.3-0.7-0.9-0.9c0,0.5,0,0.9,0,1.1c0,0.4-0.2,0.6-0.8,0.6s-0.6-0.1-0.6-0.5s0-1.6,0.1-3.9l-1.3,0.4L278.5,397.2z M281.1,391.8
	c0,0.5,0,1,0,1.5v1.5c0.3,0.1,0.6,0.1,0.9,0.1c0.2,0,0.5-0.2,0.5-0.4l0,0c0.1-1,0.2-2,0.2-3L281.1,391.8z"/>
<path class="st0" d="M293.6,388c0.7-0.8,0.9-1,1-1s0.3,0.1,1,0.7c0.3,0.2,0.4,0.4,0.4,0.5s0,0.2-0.2,0.2h-5.1c-0.4,0-0.7,0-1.1,0.1
	l-0.2-0.6c0.4,0.1,0.9,0.1,1.3,0.1L293.6,388z M291.6,398.3v0.5c0,0.4-0.3,0.6-0.8,0.6s-0.7-0.2-0.7-0.5s0-1,0-3.1
	c0-0.8,0-1.5-0.1-2.3c0.6,0.2,1.1,0.5,1.7,0.8h1.6c0.6-0.7,0.7-0.8,0.8-0.8s0.3,0.1,0.9,0.6c0.3,0.2,0.4,0.3,0.4,0.5
	s-0.1,0.3-0.5,0.5v0.5c0,1.4,0.1,2.3,0.1,2.6s-0.3,0.6-0.9,0.6s-0.6-0.1-0.6-0.5v-0.1L291.6,398.3z M292.9,385.8c0.7-0.8,0.9-1,1-1
	s0.3,0.1,1,0.7c0.3,0.2,0.4,0.4,0.4,0.5s0,0.2-0.2,0.2h-3.7c-0.3,0-0.7,0-1,0.1l-0.2-0.6c0.4,0.1,0.7,0.1,1.1,0.1L292.9,385.8z
	 M293,390.1c0.6-0.8,0.8-0.9,0.9-0.9s0.3,0.1,0.9,0.6c0.3,0.2,0.4,0.4,0.4,0.5s0,0.2-0.2,0.2h-3.7c-0.3,0-0.7,0-1,0.1l-0.2-0.6
	c0.4,0.1,0.8,0.1,1.1,0.1L293,390.1z M293,392.2c0.6-0.8,0.8-0.9,0.9-0.9s0.3,0.1,1,0.6c0.3,0.2,0.4,0.4,0.4,0.5s0,0.2-0.2,0.2h-3.7
	c-0.3,0-0.7,0-1,0.1l-0.2-0.6c0.4,0.1,0.8,0.1,1.1,0.1L293,392.2z M293.6,394.7h-1.9v3.2h1.9V394.7z M301,391.8
	c0.7-0.6,0.8-0.7,0.9-0.7s0.3,0.1,1,0.6c0.3,0.2,0.4,0.4,0.4,0.5s-0.2,0.3-0.6,0.5c-0.5,1.2-1.2,2.3-2.1,3.3
	c1.2,0.8,2.5,1.2,3.8,1.4c0.1,0,0.1,0.1,0,0.2c-0.5,0.2-0.8,0.5-0.9,1.2c0,0.2-0.1,0.3-0.2,0.3c-0.2-0.1-0.4-0.1-0.6-0.2
	c-1.2-0.4-2.2-1.2-3-2.1c-1.4,1.1-3,1.9-4.7,2.4c-0.1,0-0.2-0.2-0.1-0.2c1.6-0.7,3-1.8,4.1-3.1c-0.7-1.1-1.3-2.4-1.6-3.7h-0.2
	c-0.3,0-0.6,0-0.9,0.1l-0.2-0.6c0.4,0.1,0.8,0.1,1.2,0.1L301,391.8z M303.9,388.7c0,0.2,0.1,0.3,0.3,0.4s0.2,0.2,0.2,0.5
	s-0.2,0.6-0.6,0.7c-0.5,0.1-1,0.2-1.5,0.2c-1.4,0-1.9-0.4-1.9-1.4c0-0.6,0-0.8,0-1.4v-1.6h-1.9v0.3c0,1-0.1,1.9-0.5,2.8
	c-0.6,0.9-1.4,1.6-2.4,1.9c-0.1,0-0.2-0.1-0.1-0.1c0.7-0.6,1.1-1.4,1.4-2.2c0.1-0.6,0.2-1.3,0.2-1.9s0-1.3-0.1-1.9
	c0.8,0.3,1,0.4,1.7,0.8h1.8c0.5-0.6,0.6-0.7,0.8-0.7s0.3,0.1,0.8,0.5c0.1,0.1,0.3,0.3,0.3,0.4c0,0.2-0.1,0.3-0.4,0.5v2.5
	c0,0.3,0.1,0.3,0.6,0.3s0.6,0,0.8-0.2c0.3-0.4,0.5-0.9,0.5-1.4c0-0.1,0.2-0.1,0.2,0L303.9,388.7z M297.7,392.2
	c0.4,1.1,1.1,2.1,1.9,3c0.7-0.9,1.2-1.9,1.5-3H297.7z"/>
<path class="st0" d="M195.2,416.1c0,0.6,0,1.1,0,1.2c0,0.3-0.2,0.4-0.6,0.4c-0.3,0-0.5-0.1-0.5-0.4c0-0.1,0-0.5,0-1.2
	c0-0.1,0-0.2,0-0.4c-0.5,0.3-1,0.6-1.6,0.8c-0.1,0-0.1-0.1-0.1-0.1c0.7-0.5,1.4-1.2,1.9-1.9c0.3-0.4,0.5-0.8,0.7-1.3
	c1,0.4,1.4,0.6,1.4,0.7s-0.1,0.2-0.5,0.2c-0.3,0.4-0.7,0.8-1.1,1.1c0.5,0.1,0.6,0.2,0.6,0.3s0,0.1-0.3,0.3L195.2,416.1z
	 M196.7,423.7c-1.2,0.5-2.5,0.8-3.8,0.8c-0.1,0-0.1-0.1,0-0.2c0.7-0.2,1.4-0.5,2.1-0.9c0.4-0.2,0.7-0.5,1-0.8
	c1.3,0.8,1.3,0.8,1.3,0.9S197.2,423.8,196.7,423.7L196.7,423.7z M195.5,422.5c0,0.3-0.2,0.4-0.6,0.4s-0.5-0.1-0.5-0.4s0-0.9,0-2.7
	c0-0.7,0-1.4,0-2c0.4,0.1,0.9,0.3,1.3,0.5h4.7c0.4-0.4,0.5-0.5,0.6-0.5s0.2,0.1,0.7,0.4c0.2,0.2,0.3,0.2,0.3,0.4s0,0.1-0.3,0.4v0.6
	c0,1.5,0.1,2.6,0.1,2.9s-0.3,0.4-0.7,0.4s-0.5-0.1-0.5-0.3L195.5,422.5z M200.5,418.6h-5v1h5V418.6z M195.5,420.9h5v-1h-5V420.9z
	 M195.5,422.2h5v-1.1h-5V422.2z M198.5,416h-1.8c-0.3,0-0.7,0-1,0.1l-0.1-0.4c0.3,0.1,0.7,0.1,1.1,0.1h1.8v-0.9c-0.6,0-1.4,0-2.3,0
	c-0.1,0-0.1-0.1,0-0.2c1.3-0.1,2.6-0.4,3.9-0.9c0.3-0.1,0.7-0.3,1-0.5c0.8,0.5,1,0.8,1,1s0,0.1-0.2,0.1s-0.3,0-0.5-0.1
	c-0.6,0.2-1.2,0.3-1.8,0.4v1h2.1c0.6-0.6,0.7-0.7,0.8-0.7s0.2,0.1,0.7,0.5c0.2,0.2,0.3,0.3,0.3,0.4s0,0.1-0.1,0.1h-3.6v1.1h1.5
	c0.5-0.6,0.7-0.7,0.8-0.7s0.2,0.1,0.7,0.5c0.2,0.2,0.3,0.3,0.3,0.4s0,0.1-0.1,0.1h-5.6c-0.3,0-0.7,0-1,0.1l-0.1-0.5
	c0.4,0.1,0.7,0.1,1.1,0.1h1.5L198.5,416z M202.1,424.7c-0.3,0-0.5-0.1-0.7-0.4c-0.7-0.6-1.5-1.1-2.4-1.3c-0.1,0,0-0.1,0-0.1
	c2.7,0,3.8,0.5,3.8,1.2C202.7,424.4,202.4,424.7,202.1,424.7L202.1,424.7z"/>
<path class="st0" d="M208.6,416.1c0,0.6,0,1,0,1.1s-0.2,0.4-0.6,0.4s-0.5-0.1-0.5-0.4c0-0.1,0-0.3,0-0.7c0-0.1,0-0.3,0-0.5
	c-0.6,0.4-1.2,0.7-1.8,1c-0.1,0-0.1-0.1-0.1-0.1c0.8-0.6,1.4-1.3,2-2.1c0.3-0.4,0.5-0.8,0.6-1.2c1.1,0.4,1.4,0.6,1.4,0.7
	s-0.1,0.2-0.5,0.2c-0.3,0.3-0.6,0.7-0.9,0.9c0.4,0.1,0.6,0.2,0.6,0.3s-0.1,0.1-0.3,0.3L208.6,416.1z M209.9,423.8
	c-1.2,0.5-2.5,0.8-3.8,0.8c-0.1,0-0.1-0.1,0-0.2c0.9-0.3,1.8-0.7,2.6-1.2c0.2-0.1,0.4-0.3,0.5-0.5c1.3,0.8,1.3,0.8,1.3,0.9
	S210.4,423.8,209.9,423.8z M213.5,418c0.1-0.1,0.2-0.2,0.3-0.3c-0.4-0.2-0.8-0.4-1.1-0.7c-0.5-0.4-0.8-0.8-1.1-1.4l-1.7,0.2
	c-0.3,0-0.5,0.1-0.7,0.1l-0.1-0.4c0.3,0,0.8,0,0.9,0l1.6-0.2c-0.1-0.4-0.3-0.7-0.3-1.1c-0.1-0.3-0.1-0.6-0.2-0.9
	c1.1,0,1.5,0.1,1.5,0.3s-0.1,0.2-0.3,0.3c0.1,0.4,0.2,0.8,0.4,1.2l2.1-0.2c0.5-0.7,0.6-0.8,0.7-0.8s0.2,0.1,0.8,0.4
	c0.3,0.2,0.4,0.2,0.4,0.4l-0.1,0.1l-3.7,0.4c0.1,0.1,0.1,0.2,0.2,0.2c0.5,0.5,1.1,0.9,1.7,1.1c0.2,0.1,0.5,0.1,0.7,0.1
	s0.5-0.3,0.9-1.1h0.1c0,0.3-0.1,0.8-0.1,0.9s0,0.2,0.3,0.3c0.1,0.1,0.2,0.2,0.2,0.4c0,0.4-0.3,0.5-1,0.5c-0.2,0-0.4,0-0.6-0.1
	c0,0,0,0.1,0.1,0.1c0,0.1-0.1,0.1-0.3,0.4v0.6c0,1.6,0,2.7,0,3s-0.2,0.4-0.7,0.4s-0.4-0.1-0.5-0.3h-5c0,0.3-0.2,0.4-0.6,0.4
	s-0.5-0.1-0.5-0.4s0.1-0.8,0.1-2.5c0-0.8,0-1.6-0.1-2.5c0.4,0.1,0.8,0.3,1.2,0.5L213.5,418z M213.6,418.3h-5v1.1h5V418.3z
	 M213.6,419.7h-5v1.1h5V419.7z M213.6,421h-5v1.1h5V421z M215.2,424.7c-0.3,0-0.5-0.1-0.7-0.4c-0.7-0.6-1.5-1.1-2.4-1.4
	c-0.1,0,0-0.1,0-0.1c2.7,0,3.8,0.5,3.8,1.2C215.8,424.5,215.5,424.7,215.2,424.7z M214,415c-0.2,0-0.2,0-0.4-0.3
	c-0.2-0.4-0.6-0.7-1-0.9c-0.1,0,0-0.1,0-0.1c1.3,0,1.8,0.3,1.8,0.8C214.4,414.7,214.2,415,214,415z"/>
<path class="st0" d="M221.4,420.7c0,0.3,0,0.6,0,0.8c0,0.2,0.2,0.3,0.3,0.3c0.3,0.1,0.7,0.2,1,0.2c0.8,0,1.6-0.1,2.4-0.3
	c0.2-0.1,0.4-0.1,0.6-0.1c0.5,0,0.8,0.2,0.8,0.6s-0.1,0.4-0.4,0.5c-0.4,0.1-0.7,0.2-1.1,0.2c-0.7,0-1.3,0.1-1.9,0.1
	c-1.3,0-2.1-0.2-2.4-0.6c-0.1-0.2-0.2-0.3-0.3-0.5c-0.1-0.3-0.1-0.7-0.1-1c0-0.7,0-1.5,0-2.2s0-1.3,0-1.9s0-0.5-0.3-0.7
	c-0.1-0.1-0.2-0.1-0.3-0.1s-0.1-0.1-0.1-0.1s0.4-0.3,0.6-0.3c0.3,0,0.7,0.1,0.9,0.3c0.4,0.2,0.6,0.4,0.6,0.6s-0.1,0.3-0.2,0.4
	c-0.1,0.1-0.1,0.2-0.2,0.6s-0.1,1.1-0.1,1.7c0.6-0.2,1.2-0.4,1.8-0.7c0.5-0.3,1-0.5,1.5-0.8c0.1-0.1,0.2-0.1,0.2-0.2
	s-0.1-0.2-0.2-0.3s-0.2-0.2-0.2-0.2s0.1-0.1,0.2-0.1c0.4,0,0.6,0.1,1.1,0.5c0.3,0.3,0.5,0.5,0.5,0.8s-0.1,0.3-0.4,0.4l-0.4,0.1
	c-0.6,0.2-1.3,0.4-1.9,0.6c-0.7,0.2-1.4,0.3-2.1,0.4C221.4,419.8,221.4,420.3,221.4,420.7z M226.4,415.4c0.3,0.2,0.4,0.4,0.4,0.7
	c0,0.2-0.2,0.4-0.4,0.4l0,0c-0.2,0-0.3-0.1-0.4-0.3c-0.2-0.4-0.5-0.7-0.8-1.1c-0.1,0-0.1-0.1-0.1-0.1l0.1-0.1c0.1,0,0.2,0,0.3,0
	C225.9,415.1,226.1,415.2,226.4,415.4L226.4,415.4z M227.5,414.6c0.2,0.1,0.4,0.3,0.4,0.6c0,0.2-0.1,0.4-0.4,0.4l0,0
	c-0.2,0-0.4-0.1-0.4-0.3c-0.2-0.4-0.5-0.7-0.8-0.9l-0.1-0.1c0,0,0-0.1,0.1-0.1l0,0c0.1,0,0.2,0,0.3,0
	C226.9,414.3,227.2,414.4,227.5,414.6L227.5,414.6z"/>
<path class="st0" d="M232,417.1c-0.1,0-0.2,0-0.2-0.1s0.2-0.2,0.5-0.2c0.5,0,0.9,0.2,1.3,0.5c0.3,0.2,0.4,0.4,0.4,0.5
	s-0.1,0.2-0.2,0.3c-0.1,0.1-0.2,0.3-0.2,0.4c-0.2,0.8-0.6,1.5-1,2.2c-0.6,0.9-1.4,1.7-2.4,2.2c-0.1,0-0.2,0.1-0.2,0.1
	c-0.1,0-0.1,0-0.1-0.1s0-0.1,0.1-0.2c0.7-0.6,1.3-1.3,1.7-2.1c0.4-0.7,0.6-1.4,0.8-2.1c0.1-0.3,0.1-0.6,0.1-0.9
	C232.6,417.4,232.4,417.2,232,417.1z M234.7,416.3c-0.1-0.2-0.3-0.4-0.6-0.4c-0.1,0-0.1,0-0.1-0.1s0.2-0.3,0.5-0.3
	c0.4,0,0.8,0.2,1.1,0.4c0.2,0.1,0.5,0.3,0.5,0.6c0,0.1-0.1,0.3-0.2,0.3c-0.1,0.1-0.1,0.2-0.1,0.3c0,0.8,0,1.5-0.1,2.7v0.9
	c0,0.1,0,0.2,0.1,0.2s0.2,0,0.3-0.1c1.4-0.6,2.8-1.3,4-2.3c0.1-0.1,0.2-0.2,0.3-0.2s0.1,0,0.1,0.1s0,0.1-0.1,0.2
	c-1.2,1.4-2.6,2.6-4.2,3.5c-0.1,0.1-0.2,0.1-0.2,0.2c-0.1,0.1-0.2,0.2-0.3,0.2c-0.2-0.1-0.5-0.2-0.6-0.4c-0.2-0.2-0.3-0.4-0.3-0.7
	c0-0.1,0-0.1,0-0.2c0-0.2,0.1-0.5,0.1-0.7c0-1,0-1.8,0-3.3C234.9,416.8,234.8,416.6,234.7,416.3L234.7,416.3z"/>
<path class="st0" d="M246.2,419c0,0.6-0.5,1.1-1.1,1.1s-1.1-0.5-1.1-1.1s0.5-1.1,1.1-1.1l0,0C245.7,417.9,246.2,418.4,246.2,419
	L246.2,419z"/>
<path class="st0" d="M251.1,418.1c-0.4,0.5-0.9,1-1.4,1.5c0,0-0.2-0.1-0.1-0.1c1-1.3,1.7-2.7,2.1-4.2c0.2-0.6,0.3-1.2,0.4-1.8
	c1.1,0.3,1.6,0.5,1.6,0.7s-0.1,0.2-0.4,0.3c-0.4,1-0.9,1.9-1.4,2.8c0.6,0.1,0.7,0.1,0.7,0.3s-0.1,0.2-0.3,0.3v6.2
	c0,0.4-0.2,0.5-0.6,0.5s-0.5-0.1-0.5-0.4s0.1-1.3,0.1-3.2v-2.9H251.1z M255.7,420h-1.6c-0.3,0-0.5,0-0.8,0.1l-0.1-0.5
	c0.3,0.1,0.6,0.1,0.9,0.1h1.6v-2.9h-1.9c-0.3,0-0.5,0-0.8,0.1l-0.1-0.4c0.3,0.1,0.6,0.1,0.9,0.1h4.6c0.6-0.7,0.7-0.8,0.8-0.8
	s0.2,0.1,0.8,0.6c0.3,0.2,0.4,0.3,0.4,0.4s0,0.1-0.2,0.1h-3.4v2.9h1.3c0.6-0.8,0.7-0.8,0.8-0.8s0.2,0.1,0.8,0.6
	c0.2,0.2,0.3,0.3,0.3,0.4s0,0.1-0.2,0.1h-3v3.6h1.8c0.6-0.9,0.8-1,0.9-1s0.2,0.1,0.9,0.7c0.3,0.3,0.4,0.4,0.4,0.5s0,0.1-0.2,0.1
	h-7.2c-0.3,0-0.6,0-0.9,0.1l-0.1-0.4c0.3,0.1,0.7,0.1,1,0.1h2.3L255.7,420z M256.6,415.8c-0.4,0-0.5-0.1-0.7-0.7
	c-0.2-0.5-0.5-0.9-0.9-1.2v-0.1l0,0c1.6,0.2,2.2,0.6,2.2,1.4C257.3,415.5,257,415.8,256.6,415.8L256.6,415.8z"/>
<path class="st0" d="M272,415.3c0.5-0.6,0.6-0.6,0.7-0.6s0.2,0.1,0.9,0.7c0.3,0.3,0.4,0.4,0.4,0.5s-0.1,0.2-0.5,0.2
	c-0.2-0.1-0.4,0-0.5,0.1c-0.3,0.2-0.7,0.5-1.1,0.6c0,0-0.1,0-0.1-0.1c0.2-0.4,0.3-0.8,0.4-1.2h-7.4c0,1-0.3,1.6-1,1.6
	c-0.3,0-0.6-0.3-0.6-0.6c0,0,0,0,0-0.1c0-0.3,0.1-0.5,0.4-0.6c0.5-0.2,0.9-0.7,0.9-1.3c0-0.1,0.1-0.1,0.1,0c0.1,0.2,0.1,0.5,0.1,0.7
	h3v-0.8c0-0.4,0-0.7,0-1c1.5,0.1,1.6,0.3,1.6,0.4s-0.1,0.2-0.4,0.3v1L272,415.3z M267.1,418.3c-1.1,0.2-2.2,0.3-3.3,0.4
	c-0.1,0-0.1-0.2,0-0.2c1.7-0.3,3.4-0.9,5-1.6c0.5-0.2,0.9-0.6,1.3-1c1,0.6,1.3,0.9,1.3,1.1s-0.1,0.2-0.7,0.1
	c-0.8,0.4-1.6,0.7-2.4,0.9v2l3.3-0.5c0.6-0.9,0.7-1,0.8-1s0.3,0.1,0.9,0.5c0.3,0.2,0.4,0.3,0.4,0.4s-0.1,0.1-0.1,0.1l-5.2,0.7v2
	c0,0.9,0.1,0.9,1.9,0.9c1.4,0,1.8-0.1,2-0.4c0.3-0.5,0.5-1,0.7-1.6c0-0.1,0.1-0.1,0.1,0c0,0.4,0,1,0,1.4c0,0.1,0,0.2,0.2,0.3
	c0.2,0,0.3,0.2,0.3,0.4c0,0.4-0.2,0.6-0.8,0.8c-0.9,0.2-1.8,0.2-2.8,0.2c-2.3,0-2.8-0.4-2.8-1.5v-2.3l-2.9,0.4
	c-0.3,0-0.5,0.1-0.8,0.2l-0.2-0.4c0.3,0,0.6,0,0.9,0l2.9-0.4L267.1,418.3z"/>
<path class="st0" d="M281.5,421c0,1.3-1.1,2.4-2.4,2.5c-0.1,0-0.2,0-0.2,0c-1.4,0.1-2.5-0.9-2.7-2.2v-0.1c0-1,0.7-1.6,1.9-2.2
	c-1-0.3-1.7-1.3-1.6-2.3c0.1-1.2,1.2-2.2,2.5-2.1c1.4,0,2.4,0.8,2.4,1.9c0,0.9-0.5,1.4-1.6,1.9C280.9,418.7,281.6,419.8,281.5,421z
	 M277.5,421.1c0,1.2,0.6,2,1.4,2s1.5-0.8,1.5-1.9c0-0.9-0.5-1.4-2-2.1C277.7,419.5,277.3,420.3,277.5,421.1L277.5,421.1z
	 M280.1,416.4c0-1-0.5-1.6-1.2-1.6s-1.3,0.6-1.3,1.3c0,0.1,0,0.1,0,0.2c0,0.7,0.3,1.1,1.8,1.8C279.9,417.7,280.2,417.1,280.1,416.4
	L280.1,416.4z"/>
<path class="st0" d="M289,419c0,2.8-1,4.5-2.7,4.5s-2.7-1.6-2.7-4.4s1-4.5,2.7-4.5S289,416.3,289,419z M285,419
	c0,2.5,0.2,4.1,1.3,4.1s1.3-1.6,1.3-4.1s-0.2-4.1-1.3-4.1S285.1,416.5,285,419L285,419z"/>
<path class="st0" d="M293.7,417.7c0.9,0.3,1.3,0.8,1.3,1.3c0,0.3-0.2,0.5-0.5,0.6c-0.2,0-0.4-0.1-0.4-0.4c0-0.5-0.2-0.9-0.5-1.2
	c0,2.4,0.1,5.6,0.1,6.3c0,0.3-0.2,0.4-0.6,0.4s-0.5-0.1-0.5-0.4c0-0.6,0.1-3.1,0.1-5.4c-0.4,1.1-1,2-1.8,2.8c0,0-0.1,0-0.1-0.1
	c0.8-1.6,1.4-3.3,1.7-5h-0.4c-0.3,0-0.5,0-0.8,0.1l-0.1-0.5c0.3,0.1,0.6,0.1,0.9,0.1h0.6v-1.2c0-0.5,0-1-0.1-1.5
	c1.3,0.1,1.5,0.2,1.5,0.4s-0.1,0.2-0.4,0.4v2h0.1c0.3-0.6,0.5-0.7,0.6-0.7s0.2,0.1,0.5,0.5c0.1,0.1,0.2,0.2,0.2,0.4
	c0,0.1,0,0.1-0.2,0.1h-1.3L293.7,417.7z M298.8,420.3c0.4,0.6,0.9,1.1,1.5,1.5c0.7,0.4,1.4,0.7,2.2,0.8c0.1,0,0,0.1,0,0.1
	c-0.3,0.2-0.6,0.5-0.6,0.8c-0.1,0.2-0.1,0.2-0.2,0.2c-0.2,0-0.3-0.1-0.5-0.2c-0.5-0.3-0.9-0.7-1.4-1.1c-0.5-0.6-1-1.3-1.3-2
	c0,1.6,0.1,3.2,0.1,3.7c0,0.3-0.2,0.5-0.7,0.5s-0.5-0.1-0.5-0.4s0.1-1.6,0.1-2.9c-1,1.2-2.2,2-3.6,2.5c-0.1,0-0.1-0.1-0.1-0.1
	c1.3-0.8,2.4-2,3.2-3.4h-0.9l0,0c0,0.3-0.2,0.4-0.6,0.4s-0.5-0.1-0.5-0.4s0-1.1,0-2.6c0-0.7,0-1,0-1.7c0.4,0.2,0.8,0.4,1.1,0.6h1.4
	v-1.2h-2c-0.3,0-0.5,0-0.8,0.1l-0.1-0.5c0.3,0.1,0.6,0.1,0.9,0.1h2v-0.4c0-0.5,0-0.9-0.1-1.4c1.2,0.1,1.5,0.2,1.5,0.4
	s-0.1,0.2-0.4,0.3v1h1.6c0.6-0.6,0.7-0.8,0.8-0.8s0.2,0.1,0.8,0.5c0.2,0.2,0.3,0.3,0.3,0.4s0,0.1-0.2,0.1h-3.3v1.2h1.5
	c0.4-0.5,0.4-0.5,0.5-0.5s0.2,0.1,0.6,0.4c0.2,0.1,0.3,0.2,0.3,0.3s-0.1,0.2-0.3,0.4v0.5c0,1.4,0.1,2.3,0.1,2.6s-0.2,0.4-0.6,0.4
	s-0.5-0.1-0.5-0.3v-0.1L298.8,420.3z M297.6,417h-1.4v1.4h1.4V417z M297.6,418.6h-1.4v1.4h1.4V418.6z M300.3,418.4V417h-1.6v1.4
	H300.3z M300.3,420.1v-1.5h-1.6v1.4L300.3,420.1z"/>
<path class="st0" d="M304.5,421.7c0-0.1,0-0.1,0.1-0.1l0,0c0.7,0.1,1.5,0.4,2.1,0.8c0.4,0.2,0.7,0.7,0.8,1.2c0,0.4-0.3,0.7-0.6,0.7
	c0,0,0,0-0.1,0c-0.3,0-0.6-0.2-0.6-0.5c-0.3-0.8-0.8-1.5-1.5-2C304.5,421.8,304.5,421.7,304.5,421.7z"/>
<path class="st0" d="M203,432.6c0.2,0,0.4-0.1,0.5-0.2s0.3-0.1,0.4-0.1c0.4,0,0.7,0.1,1,0.3c0.2,0.1,0.3,0.3,0.3,0.5
	s-0.2,0.4-0.3,0.4l0,0c-0.2,0-0.4,0-0.6-0.1c-0.3,0-0.5-0.1-0.8-0.1c-0.4,0-1.3,0-2.3,0.1c0,0.9,0,1.7,0,2.2c0,1.2,0.1,1.8,0.1,2.2
	c0,0.3-0.1,0.5-0.2,0.8c-0.1,0.3-0.4,0.5-0.7,0.5c-0.2,0-0.3-0.1-0.4-0.4c0-0.2-0.1-0.3-0.3-0.5c-0.3-0.2-0.6-0.4-0.9-0.5
	c-0.2-0.1-0.3-0.1-0.3-0.2s0,0,0.1,0h0.3c0.4,0.1,0.7,0.1,1.1,0.1c0.2,0,0.2-0.1,0.2-0.3s0-0.7,0-1.6s0-1.5,0-2.3
	c-0.7,0.1-1.4,0.2-2.2,0.3c-0.2,0-0.3,0.1-0.5,0.2c-0.1,0.1-0.3,0.1-0.4,0.1c-0.2,0-0.4-0.1-0.8-0.5c-0.2-0.2-0.3-0.4-0.3-0.7
	c0-0.1,0-0.3,0.1-0.3s0.2,0.1,0.4,0.3c0.2,0.2,0.4,0.3,0.7,0.3h0.5l2.5-0.2v-1.4c0-0.1,0-0.3-0.1-0.4c0-0.1-0.2-0.2-0.3-0.3
	l-0.4-0.1c-0.1,0-0.1,0-0.1-0.1s0.1-0.2,0.4-0.3c0.2-0.1,0.4-0.1,0.6-0.1c0.4,0.1,0.7,0.2,1,0.5c0.2,0.1,0.2,0.2,0.2,0.4
	c0,0.1-0.1,0.3-0.2,0.4c-0.1,0.1-0.1,0.2-0.2,0.5s0,0.5,0,1C201.8,432.7,202.4,432.7,203,432.6z M198.2,434.6c0.1,0,0.1,0.1,0.1,0.2
	c0.1,0.5,0,0.9-0.1,1.4c-0.1,0.4-0.3,0.7-0.6,0.9c-0.2,0.2-0.4,0.3-0.7,0.3s-0.6-0.2-0.6-0.5v-0.1c0-0.2,0.1-0.4,0.5-0.6
	c0.3-0.1,0.5-0.3,0.7-0.5c0.2-0.3,0.4-0.6,0.5-0.9C198.1,434.7,198.1,434.6,198.2,434.6L198.2,434.6z M202.6,434.8
	c0-0.1,0-0.1,0.1-0.1h0.2c0.6,0.1,1.1,0.4,1.5,0.7c0.4,0.2,0.6,0.6,0.7,1.1c0,0.4-0.2,0.7-0.6,0.7s-0.5-0.2-0.6-0.5
	c-0.2-0.4-0.4-0.8-0.6-1.1c-0.2-0.2-0.4-0.4-0.6-0.6C202.6,434.9,202.6,434.8,202.6,434.8L202.6,434.8z"/>
<path class="st0" d="M212.7,432.9c1.2-0.1,1.7-0.1,2.3-0.2c0.2,0,0.3-0.1,0.4-0.1c0.1-0.1,0.3-0.1,0.4-0.1c0.4,0,0.8,0.1,1.1,0.3
	c0.2,0.1,0.3,0.3,0.3,0.5s-0.1,0.3-0.3,0.4c-0.2,0-0.5,0-0.7,0c-0.5-0.1-1-0.1-1.5-0.1c-0.4,0-1.1,0-1.6,0c0.4,0.3,0.6,0.5,0.6,0.7
	c0,0.1,0,0.1-0.1,0.2c-0.1,0.2-0.2,0.4-0.2,0.5c-0.3,0.9-0.7,1.7-1.3,2.4c-0.7,0.8-1.5,1.5-2.4,2c-0.1,0-0.1,0.1-0.2,0.1
	c-0.1,0-0.1,0-0.1-0.1s0.1-0.1,0.3-0.3c0.7-0.7,1.3-1.4,1.8-2.2c0.4-0.7,0.7-1.4,0.9-2.1c0.1-0.2,0.1-0.4,0.1-0.6
	c0-0.1,0-0.3-0.1-0.4c-0.9,0.1-1.7,0.2-2.3,0.3c-0.2,0-0.4,0.1-0.6,0.2c-0.1,0.1-0.2,0.1-0.4,0.1s-0.4-0.1-0.8-0.5
	c-0.2-0.2-0.3-0.4-0.3-0.7c0-0.2,0.1-0.3,0.1-0.3s0.1,0.1,0.2,0.1c0.2,0.2,0.5,0.4,0.8,0.4s0.7,0,1.1-0.1
	C210.9,433,211.6,433,212.7,432.9z M213.4,430.3c0.1,0,0.2-0.1,0.4-0.1c0.1-0.1,0.3-0.1,0.4-0.1c0.3,0,0.7,0.1,1,0.2
	c0.1,0.1,0.2,0.2,0.2,0.4c0,0.2-0.2,0.4-0.4,0.4s-0.6,0-1,0l-2.6,0.2c-0.2,0-0.4,0-0.6,0c-0.4,0.1-0.8-0.1-1-0.4
	c-0.2-0.2-0.3-0.4-0.3-0.6c0-0.1,0-0.2,0.1-0.2s0.1,0,0.1,0.1c0.3,0.3,0.6,0.4,1,0.4s0.9,0,1.3-0.1
	C212.6,430.5,213.1,430.4,213.4,430.3z"/>
<path class="st0" d="M221.7,432.6c-0.1,0-0.2,0-0.2-0.1s0.2-0.2,0.5-0.2c0.5,0,0.9,0.2,1.3,0.5c0.3,0.2,0.4,0.4,0.4,0.5
	s-0.1,0.2-0.2,0.3c-0.1,0.1-0.2,0.3-0.2,0.4c-0.2,0.8-0.6,1.5-1,2.2c-0.6,0.9-1.4,1.7-2.4,2.2c-0.1,0-0.2,0.1-0.2,0.1
	c-0.1,0-0.1,0-0.1-0.1s0-0.1,0.1-0.2c0.7-0.6,1.3-1.3,1.7-2.1c0.4-0.7,0.6-1.4,0.8-2.1c0.1-0.3,0.1-0.6,0.1-0.9
	C222.3,432.9,222,432.7,221.7,432.6z M224.4,431.8c-0.1-0.2-0.3-0.4-0.6-0.4c-0.1,0-0.1,0-0.1-0.1s0.2-0.3,0.5-0.3
	c0.4,0,0.8,0.2,1.1,0.4c0.2,0.1,0.5,0.3,0.5,0.6c0,0.1-0.1,0.3-0.2,0.3c-0.1,0.1-0.1,0.2-0.1,0.3c0,0.8,0,1.5-0.1,2.7v0.9
	c0,0.1,0,0.2,0.1,0.2s0.2,0,0.3-0.1c1.4-0.6,2.8-1.3,4-2.3c0.1-0.1,0.2-0.2,0.3-0.2s0.1,0,0.1,0.1l0,0c0,0.1-0.1,0.1-0.1,0.2
	c-1.2,1.4-2.6,2.6-4.2,3.5c-0.1,0.1-0.2,0.1-0.2,0.2c-0.1,0.1-0.2,0.2-0.3,0.2c-0.2-0.1-0.4-0.2-0.6-0.4c-0.2-0.2-0.3-0.5-0.3-0.7
	c0-0.1,0-0.1,0-0.2c0-0.2,0.1-0.5,0.1-0.7c0-1,0-1.8,0-3.3C224.5,432.3,224.5,432.1,224.4,431.8L224.4,431.8z"/>
<path class="st0" d="M235.9,434.5c0,0.6-0.5,1.1-1.1,1.1s-1.1-0.5-1.1-1.1s0.5-1.1,1.1-1.1l0,0C235.4,433.4,235.9,433.9,235.9,434.5
	L235.9,434.5z"/>
<path class="st0" d="M244.4,430.2c-0.2-0.1-0.4-0.2-0.6-0.2c-0.1,0-0.1,0-0.1-0.1s0.1-0.2,0.2-0.2c0.1-0.1,0.2-0.1,0.4-0.1
	c0.3,0,0.7,0.1,1,0.2c0.4,0.2,0.7,0.4,0.7,0.6c0,0.1,0,0.3-0.1,0.4s-0.1,0.2-0.1,0.7c0,1.4-0.1,2.8-0.3,4.1
	c-0.2,0.8-0.6,1.6-1.2,2.2c-1,0.9-2.2,1.5-3.6,1.8c-0.1,0-0.2,0-0.2,0c-0.1,0-0.1,0-0.1-0.1s0-0.1,0.2-0.1c1.5-0.4,2.8-1.4,3.6-2.8
	c0.4-0.8,0.6-1.7,0.6-2.6c0-0.5,0.1-1.3,0.1-2.9C244.6,430.5,244.6,430.3,244.4,430.2z M241.2,431.1c-0.1-0.1-0.2-0.3-0.6-0.5
	c-0.1,0-0.1-0.1-0.1-0.1l0.1-0.1c0.1-0.1,0.3-0.1,0.4-0.1c0.3,0,0.6,0.1,0.9,0.3c0.4,0.2,0.6,0.5,0.6,0.7c0,0.1-0.1,0.2-0.1,0.3
	c-0.1,0.1-0.1,0.3-0.1,0.4c0,1-0.1,2-0.1,3.4c0,0.4-0.1,0.5-0.4,0.5s-0.4-0.2-0.5-0.4c-0.1-0.2-0.2-0.4-0.2-0.7c0-0.1,0-0.2,0.1-0.3
	c0-0.2,0.1-0.4,0.1-0.6c0-0.5,0-0.9,0-1.9C241.3,431.7,241.3,431.4,241.2,431.1L241.2,431.1z"/>
<path class="st0" d="M249.8,431.5c0-0.1,0.1-0.1,0.1-0.1c0.2,0,0.4,0.1,0.6,0.2c0.5,0.2,0.9,0.4,1.2,0.8c0.3,0.3,0.4,0.6,0.4,1
	c0.1,0.4-0.2,0.7-0.6,0.8c0,0,0,0-0.1,0c-0.3,0-0.5-0.2-0.6-0.5c-0.1-0.7-0.5-1.4-1-1.9C249.8,431.6,249.8,431.6,249.8,431.5z
	 M253.8,436.9c-0.9,1-1.9,1.8-3.1,2.3c-0.2,0.1-0.3,0.1-0.5,0.2c-0.1,0-0.1,0-0.1-0.1l0,0c0-0.1,0.1-0.1,0.2-0.2
	c1-0.7,1.9-1.5,2.6-2.4c0.7-0.9,1.4-1.9,1.9-2.9c0.4-0.6,0.7-1.3,0.8-2c0-0.2-0.1-0.3-0.2-0.4c-0.1-0.1-0.3-0.1-0.4-0.2
	c-0.1,0-0.1-0.1-0.1-0.1s0.3-0.2,0.6-0.2c0.5,0.1,1,0.3,1.4,0.6c0.3,0.2,0.4,0.4,0.4,0.6s-0.1,0.3-0.2,0.4c-0.2,0.2-0.3,0.4-0.4,0.6
	C255.8,434.3,254.9,435.7,253.8,436.9z M257.7,430c0.3,0.1,0.4,0.4,0.5,0.7c0,0.2-0.2,0.4-0.4,0.4l0,0c-0.2,0-0.3-0.1-0.4-0.3
	c-0.2-0.4-0.5-0.7-0.8-1.1c-0.1,0-0.1-0.1-0.1-0.1l0.1-0.1c0.1,0,0.2,0,0.3,0C257.2,429.7,257.4,429.8,257.7,430L257.7,430z
	 M258.8,429.2c0.2,0.1,0.4,0.3,0.4,0.6c0,0.2-0.1,0.4-0.4,0.4l0,0c-0.2,0-0.4-0.1-0.4-0.3c-0.2-0.4-0.5-0.7-0.8-0.9l-0.1-0.1
	c0,0,0-0.1,0.1-0.1h0.3C258.2,428.9,258.5,429,258.8,429.2z"/>
<path class="st0" d="M270.5,435c-0.4,0-1.2-0.1-1.8-0.1c-0.9,0-3,0-4.5,0.2c-0.4,0-0.8,0.1-1.2,0.2c-0.1,0.1-0.2,0.1-0.3,0.1
	c-0.3,0-0.6-0.3-1-0.8c-0.2-0.2-0.2-0.4-0.2-0.6s0.1-0.3,0.1-0.3s0.1,0,0.2,0.1c0.2,0.3,0.6,0.5,1,0.5c0.3,0,0.5,0,1.3-0.1
	c1.5-0.1,3.1-0.2,4.2-0.2c0.3,0,0.6,0,0.9-0.2c0.1-0.1,0.2-0.1,0.3-0.1c0.2,0,0.4,0,0.5,0.1c0.5,0.2,0.8,0.4,0.8,0.7
	C270.8,434.8,270.7,435,270.5,435z"/>
<path class="st0" d="M278.3,433.9c0.7,0.3,1.1,0.7,1.1,1.2c0,0.3-0.2,0.6-0.5,0.6s-0.5-0.1-0.7-0.4c-0.3-0.3-0.5-0.6-0.9-0.9
	s-0.8-0.5-1.2-0.7v2.1c0,0.5,0,1.6,0,2.9c0,0.5-0.2,0.6-0.4,0.6c-0.2,0-0.4-0.1-0.5-0.3c-0.2-0.3-0.3-0.6-0.3-1c0-0.1,0-0.2,0.1-0.3
	c0-0.1,0.1-0.1,0.1-0.2s0-0.5,0-2.7c0-1.1,0-2.2,0-3.3c0-0.3,0-0.7,0-1c0-0.1-0.1-0.2-0.2-0.3c-0.1-0.1-0.3-0.1-0.4-0.2
	c-0.1,0-0.1-0.1-0.1-0.1s0.1-0.1,0.1-0.2c0.1-0.1,0.2-0.1,0.3-0.1c0.4,0,0.9,0.1,1.3,0.3c0.3,0.1,0.5,0.3,0.5,0.6
	c0,0.2-0.1,0.3-0.2,0.4s-0.1,0.2-0.1,0.2c0,0.3-0.1,1-0.1,2.2C276.9,433.4,277.6,433.6,278.3,433.9z"/>
<path class="st0" d="M284.3,431.7c0,0.6,0,1.2-0.1,1.8h0.8c0.4-0.5,0.5-0.6,0.6-0.6s0.2,0.1,0.6,0.5c0.2,0.1,0.2,0.2,0.2,0.3
	s0,0.1-0.3,0.3c0,1.7-0.2,3.4-0.7,5c-0.1,0.2-0.3,0.4-0.5,0.6s-0.5,0.3-0.8,0.2c-0.1,0-0.2,0-0.2-0.2c-0.1-0.5-0.2-0.7-0.9-0.9
	c-0.1,0,0-0.1,0-0.1c0.5,0,0.9,0.1,1,0.1c0.4,0,0.5-0.1,0.6-0.5c0.3-1.4,0.4-2.9,0.4-4.4h-0.9c-0.2,3.1-0.9,4.7-2.4,6.1l-0.1-0.1
	c1.1-1.9,1.5-4.1,1.5-7.7v-0.3h-0.3c-0.3,0-0.5,0-0.8,0.1l-0.1-0.5c0.3,0.1,0.6,0.1,0.9,0.1h0.7V430c0-0.2,0-0.5,0-0.9
	c1.3,0.1,1.5,0.3,1.5,0.4s-0.1,0.2-0.3,0.3v1.7h0.4c0.4-0.5,0.6-0.6,0.7-0.6s0.2,0.1,0.6,0.5c0.2,0.1,0.3,0.2,0.3,0.3s0,0.1-0.2,0.1
	L284.3,431.7z M287.8,431.4c-0.4,0.6-1,1.2-1.6,1.6c0,0-0.2,0-0.1-0.1c0.5-0.7,0.9-1.5,1.1-2.4c0.2-0.5,0.3-1,0.3-1.5
	c1.3,0.3,1.5,0.4,1.5,0.5s-0.1,0.2-0.4,0.3c-0.2,0.4-0.4,0.9-0.6,1.3h3c0.6-0.7,0.7-0.8,0.8-0.8s0.2,0.1,0.8,0.6
	c0.2,0.2,0.3,0.3,0.3,0.4s0,0.1-0.2,0.1H287.8z M288.2,438.4c0,0.4,0.1,0.5,1.6,0.5s1.8,0,2-0.2s0.3-0.3,0.7-1.6c0-0.1,0.2,0,0.2,0
	c0,0.4,0,0.9,0,1.1c0,0.1,0.1,0.3,0.2,0.3c0.2,0.1,0.3,0.3,0.3,0.5s-0.2,0.5-0.8,0.7c-0.8,0.1-1.5,0.2-2.3,0.2
	c-2.5,0-2.9-0.2-2.9-1.1c0-0.3,0-0.6,0-1.8c0-0.6,0-1.1,0-1.6c-0.2,0.1-0.5,0.2-0.7,0.3l-0.2-0.4c0.3,0,0.5-0.1,0.8-0.1h0.2
	c0-0.7,0-1.5,0-2.3c1.3,0.1,1.4,0.2,1.4,0.4s-0.1,0.2-0.4,0.3v1.3l1-0.3v-0.9c0-0.5,0-1.1-0.1-1.6c1.1,0.1,1.4,0.2,1.4,0.4
	s-0.1,0.2-0.4,0.3v1.5l0.9-0.3c0.4-0.6,0.5-0.7,0.6-0.7c0.3,0.1,0.6,0.3,0.8,0.6c0.1,0.1,0.1,0.1,0.1,0.2s-0.1,0.2-0.4,0.4
	c0,0.8-0.1,1.7-0.2,2.5c0,0.3-0.2,0.5-0.4,0.7c-0.2,0.2-0.5,0.3-0.7,0.3c-0.1,0-0.2,0-0.2-0.3s-0.2-0.5-0.7-0.7c0,0.4,0,0.6,0,0.8
	s-0.2,0.4-0.6,0.4s-0.4-0.1-0.4-0.4s0-1.2,0-2.9l-1,0.3L288.2,438.4z M290.1,434.4c0,0.4,0,0.7,0,1.1v1.1c0.2,0,0.4,0.1,0.6,0.1
	s0.3-0.1,0.4-0.3c0.1-0.7,0.1-1.5,0.1-2.3L290.1,434.4z"/>
<path class="st0" d="M298.3,431.5c0.5-0.6,0.7-0.7,0.7-0.7s0.2,0.1,0.8,0.5c0.2,0.2,0.3,0.3,0.3,0.4s0,0.1-0.1,0.1h-3.8
	c-0.3,0-0.5,0-0.8,0.1l-0.1-0.4c0.3,0.1,0.7,0.1,1,0.1L298.3,431.5z M296.8,439.2v0.4c0,0.3-0.2,0.5-0.6,0.5s-0.5-0.1-0.5-0.4
	s0-0.8,0-2.3c0-0.6,0-1.1-0.1-1.7c0.4,0.2,0.9,0.4,1.3,0.6h1.2c0.4-0.5,0.5-0.6,0.6-0.6s0.2,0.1,0.6,0.4c0.2,0.2,0.3,0.2,0.3,0.4
	s-0.1,0.2-0.4,0.4v0.4c0,1,0,1.7,0,2s-0.2,0.5-0.6,0.5s-0.5-0.1-0.5-0.4v-0.1L296.8,439.2z M297.8,429.9c0.5-0.6,0.7-0.7,0.8-0.7
	s0.2,0.1,0.7,0.5c0.2,0.2,0.3,0.3,0.3,0.4s0,0.1-0.1,0.1h-2.8c-0.2,0-0.5,0-0.7,0.1l-0.1-0.4c0.3,0.1,0.6,0.1,0.8,0.1h1.1V429.9z
	 M297.9,433.1c0.5-0.6,0.6-0.7,0.7-0.7s0.2,0.1,0.7,0.5c0.2,0.2,0.3,0.3,0.3,0.4s0,0.1-0.2,0.1h-2.8c-0.2,0-0.5,0-0.7,0.1l-0.1-0.4
	c0.3,0.1,0.6,0.1,0.9,0.1h1.2V433.1z M297.9,434.6c0.5-0.6,0.6-0.7,0.7-0.7s0.2,0.1,0.7,0.5c0.2,0.2,0.3,0.3,0.3,0.4s0,0.1-0.2,0.1
	h-2.8c-0.2,0-0.5,0-0.7,0.1l-0.1-0.4c0.3,0.1,0.6,0.1,0.9,0.1h1.2V434.6z M298.3,436.5h-1.4v2.4h1.4V436.5z M303.9,434.3
	c0.5-0.5,0.6-0.5,0.7-0.5s0.2,0.1,0.7,0.5c0.2,0.2,0.3,0.3,0.3,0.4s-0.1,0.2-0.4,0.4c-0.4,0.9-0.9,1.7-1.6,2.5
	c0.9,0.6,1.9,0.9,2.9,1.1c0,0,0.1,0,0.1,0.1c0,0,0,0.1-0.1,0.1c-0.4,0.1-0.6,0.4-0.7,0.9c0,0.2-0.1,0.2-0.2,0.2
	c-0.2,0-0.3-0.1-0.5-0.2c-0.9-0.3-1.6-0.9-2.2-1.6c-1,0.8-2.2,1.5-3.5,1.8c-0.1,0-0.1-0.1-0.1-0.2c1.2-0.6,2.2-1.4,3.1-2.3
	c-0.5-0.9-0.9-1.8-1.2-2.8H301c-0.2,0-0.5,0-0.7,0.1l-0.1-0.5c0.3,0.1,0.6,0.1,0.9,0.1L303.9,434.3z M306,432c0,0.2,0,0.2,0.2,0.3
	c0.1,0.1,0.2,0.2,0.2,0.4c0,0.3-0.2,0.5-0.5,0.5c-0.4,0.1-0.8,0.2-1.2,0.1c-1,0-1.4-0.3-1.4-1c0-0.5,0-0.6,0-1.1V430h-1.4v0.2
	c0,0.7-0.1,1.5-0.4,2.1c-0.4,0.7-1.1,1.2-1.8,1.4c0,0-0.1,0-0.1-0.1c0.5-0.4,0.8-1,1-1.7c0.1-0.5,0.2-1,0.1-1.5c0-0.5,0-1-0.1-1.4
	c0.6,0.2,0.7,0.3,1.2,0.6h1.3c0.4-0.4,0.5-0.5,0.6-0.5s0.2,0,0.6,0.4c0.1,0.1,0.2,0.2,0.2,0.3c0,0.1-0.1,0.2-0.3,0.3v1.9
	c0,0.2,0.1,0.2,0.5,0.2s0.4,0,0.6-0.1c0.2-0.3,0.3-0.7,0.4-1.1c0-0.1,0.1-0.1,0.1,0L306,432z M301.4,434.6c0.3,0.8,0.8,1.6,1.4,2.2
	c0.5-0.7,0.9-1.4,1.1-2.2H301.4z"/>
<path class="st0" d="M234.5,453.1c1,0,1.2-0.1,1.5-0.3c0.3-0.3,0.5-0.6,0.7-0.9c0-0.1,0.1-0.1,0.2-0.1s0.1,0.1,0.1,0.2
	c-0.1,0.6-0.4,1.7-0.6,2.3c-0.8,0-1.4,0-2.3,0s-1.6,0-2.4,0c-0.1,0-0.1,0-0.1-0.2c0-0.1,0-0.2,0.1-0.3c0.6-1.1,1.3-2.1,2.1-3.1
	c1-1.3,1.6-1.9,1.6-3.1s-0.4-1.7-1-1.7c-0.5,0-0.9,0.3-1,0.7c-0.1,0.3-0.1,0.6-0.1,0.9s-0.5,0.6-0.9,0.6s-0.6-0.1-0.6-0.5
	c0.2-1.2,1.3-2.1,2.6-2c1.2-0.2,2.3,0.7,2.5,1.9c0,0.1,0,0.2,0,0.3c0,1.5-1.1,2.1-2.3,3.2c-0.8,0.6-1.5,1.4-2,2.2L234.5,453.1z"/>
<path class="st0" d="M240.9,446.9c-0.7,0-0.8,0.1-1,0.3c-0.2,0.2-0.3,0.5-0.4,0.8c0,0.1-0.1,0.1-0.2,0.1s-0.1,0-0.1-0.1
	c0.1-0.6,0.2-1.6,0.3-2.2c0.8,0,1.6,0,2.4,0s1.6,0,2.3,0c0.1,0,0.1,0,0.1,0.2c0,0.1,0,0.2,0,0.3c-1,1.6-1.7,3.4-2.1,5.2
	c-0.1,0.5-0.2,1.1-0.2,1.6c0,0.3,0,0.5,0,0.8s-0.4,0.6-0.9,0.6s-0.8-0.1-0.8-0.5c0.1-1.1,0.4-2.1,0.9-3c0.7-1.4,1.4-2.7,2.3-4
	L240.9,446.9z"/>
<path class="st0" d="M251.7,447.9c0.8,0,1.4,0.9,1.4,2.1c0,0.9-0.1,1.8-0.4,2.7c-0.2,0.5-0.4,0.9-0.7,1.3c-0.4,0.5-0.8,0.7-1.2,0.7
	s-0.6-0.1-0.6-0.5c0-0.2-0.1-0.5-0.2-0.6c-0.2-0.2-0.3-0.4-0.5-0.6c-0.1-0.1-0.1-0.1-0.1-0.1s0-0.1,0.1-0.1l0,0c0.1,0,0.1,0,0.1,0.1
	c0.3,0.2,0.5,0.3,0.8,0.5c0.1,0.1,0.3,0.1,0.5,0.1s0.3-0.1,0.4-0.2c0.3-0.4,0.5-0.9,0.6-1.4c0.2-0.6,0.3-1.3,0.3-1.9
	c0-1.1-0.2-1.5-0.7-1.5c-0.2,0-0.4,0-0.6,0.1c-0.5,1.1-1.2,2.6-1.7,3.6s-0.9,1.7-1.2,2.2c-0.1,0.2-0.3,0.3-0.5,0.3
	c-0.3,0-0.5-0.2-0.5-0.5c0-0.2,0.1-0.5,0.2-0.6c1-1.5,1.9-3,2.6-4.6l-1.3,0.5c-0.1,0-0.2,0.1-0.4,0.2c-0.1,0.1-0.2,0.1-0.3,0.1
	c-0.3,0-0.5-0.1-0.7-0.3c-0.2-0.2-0.4-0.5-0.5-0.8c0-0.2,0.1-0.4,0.2-0.4s0.1,0.1,0.2,0.1c0.1,0.2,0.4,0.4,0.6,0.4
	c0.3,0,0.7-0.1,1-0.1c0.4-0.1,0.9-0.2,1.4-0.3c0.3-0.6,0.5-1.3,0.6-1.9c0-0.1-0.1-0.3-0.2-0.4c-0.2-0.1-0.3-0.1-0.5-0.2
	c-0.1,0-0.2,0-0.2-0.1s0.1-0.2,0.2-0.2c0.2-0.1,0.4-0.1,0.6-0.1c0.5,0.1,0.9,0.3,1.3,0.7c0.1,0.1,0.1,0.2,0.1,0.3
	c0,0.2-0.1,0.3-0.3,0.4c-0.1,0.1-0.2,0.2-0.2,0.4l-0.4,1C251.3,447.9,251.5,447.8,251.7,447.9z M254.6,451.3h-0.4
	c-0.1,0-0.1,0-0.1-0.1s0-0.1,0.1-0.1c1.1-0.4,1.4-0.6,1.4-0.8c0-0.4-0.2-0.7-0.4-1c-0.3-0.5-0.8-1-1.4-1.2c-0.1,0-0.2-0.1-0.2-0.2
	s0.1-0.1,0.2-0.1h0.1c0.7,0.1,1.4,0.5,1.9,1c0.7,0.5,1,1.4,1,2.2c0,0.5-0.3,0.6-0.5,0.7c-0.2,0-0.4,0-0.5-0.2
	c-0.1-0.1-0.2-0.2-0.4-0.2L254.6,451.3z"/>
<path class="st0" d="M261.2,450.5c0,0.7-0.2,1.4-0.3,2.1c-0.3,1.1-0.9,2-1.6,2.8l-0.2-0.1c0.5-0.9,0.8-1.9,0.9-2.9
	c0.1-1.3,0.2-2.7,0.2-4c0-0.7,0-1,0-1.6c0.4,0.2,0.9,0.4,1.3,0.7h1.7c0.4-0.5,0.5-0.5,0.6-0.5s0.2,0.1,0.7,0.5
	c0.2,0.2,0.3,0.2,0.3,0.3s-0.1,0.2-0.4,0.4v0.6c0,1.2,0,1.9,0,2.2s-0.2,0.5-0.6,0.5s-0.5-0.1-0.5-0.4v-0.3L261.2,450.5z
	 M263.2,445.4c0.6-0.6,0.7-0.7,0.8-0.7s0.2,0.1,0.8,0.5c0.2,0.2,0.3,0.3,0.3,0.4s0,0.1-0.2,0.1h-4.3c-0.3,0-0.6,0-0.8,0.1l-0.1-0.5
	c0.3,0.1,0.6,0.1,0.9,0.1H263.2z M263.2,447.6h-1.9v0.4c0,0.9,0,1.6-0.1,2.2h2V447.6z M266.4,448.9c0,1.1-0.2,2.1-0.5,3.2
	c-0.5,1.4-1.5,2.6-2.7,3.4c0,0-0.2-0.1-0.1-0.1c1-0.9,1.6-2.1,1.9-3.4s0.4-2.7,0.3-4.1c0-0.8,0-1.2-0.1-2c0.4,0.1,0.9,0.3,1.3,0.5
	c0.7-0.3,1.4-0.7,2-1.2c0.2-0.2,0.4-0.4,0.6-0.6c1.1,0.9,1.2,0.9,1.2,1.1s-0.1,0.2-0.6,0.1c-1,0.5-2.1,0.8-3.2,1v0.6
	c0,0.5,0,0.9,0,1.3h2.4c0.5-0.6,0.6-0.8,0.7-0.8s0.2,0.1,0.8,0.5c0.2,0.2,0.3,0.3,0.3,0.4s0,0.1-0.2,0.1h-1.7v2c0,1.5,0,3.3,0,3.9
	c0,0.4-0.2,0.6-0.7,0.6c-0.4,0-0.5-0.1-0.5-0.4s0-1.1,0-2.8V449L266.4,448.9z"/>
<path class="st0" d="M188.6,301.1c0.5-0.8,0.9-1.6,1.3-2.4c0.3-0.5,0.5-1,0.6-1.6c1.1,0.5,1.5,0.8,1.5,1s-0.2,0.2-0.6,0.2
	c-0.7,1-1.6,1.9-2.5,2.8c0.7,0,1.4,0,2.1-0.1c-0.1-0.4-0.3-0.8-0.5-1.1l0.1-0.1c1.1,0.6,1.6,1.1,1.6,1.8c0,0.4-0.2,0.7-0.6,0.7l0,0
	c-0.3,0-0.4-0.2-0.5-0.9l0,0l-0.8,0.2v2c0,1.5,0,3.4,0,4c0,0.4-0.2,0.5-0.7,0.5s-0.6-0.1-0.6-0.4s0.1-1.2,0.1-3v-1
	c-0.1,0.1-0.2,0.1-0.4,0.1c-0.3,1.2-0.9,2.2-1.6,3.2c0,0.1-0.2,0-0.2-0.1c0.3-0.8,0.5-1.7,0.6-2.6c0.1-0.5,0.1-1,0.1-1.5
	c0.5,0.1,1,0.3,1.5,0.5v-1.5l-1.2,0.3c-0.1,0.3-0.2,0.4-0.3,0.4s-0.3-0.3-0.5-1.5c0.2,0,0.5,0,0.7,0L188.6,301.1z M189.1,296
	c0.1-0.3,0.1-0.6,0.2-0.9c1.3,0.5,1.7,0.7,1.7,0.8s-0.2,0.2-0.6,0.2c-0.5,0.6-1,1.2-1.6,1.8c0.4,0.2,0.6,0.6,0.6,1
	c0,0.5-0.3,0.8-0.6,0.8s-0.4,0-0.6-0.8c-0.1-0.5-0.4-1-0.8-1.4c-0.1-0.1,0-0.1,0.1-0.1c0.4,0.1,0.8,0.2,1.1,0.4
	C188.8,297.2,189,296.6,189.1,296L189.1,296z M191.6,304.9c-0.3,0-0.5-0.1-0.5-0.8c0-0.5-0.1-1-0.4-1.4c0-0.1,0-0.1,0.1-0.1
	c1,0.5,1.4,1,1.4,1.6C192.2,304.6,192,304.9,191.6,304.9L191.6,304.9L191.6,304.9z M192.9,305.1c0,0.9-0.4,1.7-1.1,1.7
	c-0.4,0-0.7-0.3-0.7-0.6l0,0c0-0.3,0.2-0.5,0.6-0.7c0.6-0.3,0.9-0.6,0.9-1.4c0-0.1,0.1-0.1,0.2,0
	C192.9,304.4,192.9,304.8,192.9,305.1z M194.9,296.4c-0.6,1.5-1.7,2.7-3.1,3.6c-0.1,0-0.2,0-0.1-0.1c0.8-1,1.4-2.1,1.8-3.3
	c0.1-0.4,0.2-0.8,0.3-1.3c1.5,0.4,1.7,0.5,1.7,0.8S195.3,296.4,194.9,296.4z M193.8,301c0.3-0.6,0.5-1.3,0.7-2
	c0.1-0.5,0.2-0.9,0.3-1.4c1.4,0.4,1.8,0.5,1.8,0.7s0,0.2-0.6,0.3c-0.5,0.8-1.1,1.6-1.7,2.3c1,0,2-0.1,2.9-0.1
	c-0.2-0.5-0.5-0.9-0.8-1.3c0,0,0-0.1,0.1-0.1c1.5,0.5,2.3,1.2,2.3,2.1c0,0.4-0.3,0.8-0.7,0.8c-0.3,0-0.5-0.2-0.6-0.6
	c0-0.2-0.1-0.3-0.1-0.5c-1.3,0.4-2.6,0.7-4,0.9c0,0.3-0.2,0.5-0.3,0.5s-0.2-0.2-0.5-1.6c0.4,0,0.7,0.1,1.1,0.1L193.8,301z
	 M194.8,306.2c0,0.4,0.2,0.5,1.1,0.5c0.3,0,0.7,0,1-0.2c0.2-0.1,0.4-0.4,0.7-1.5c0-0.1,0.2-0.1,0.2,0c0,0.3,0,0.8,0,1.2
	c0,0.2,0,0.2,0.2,0.3c0.3,0.1,0.4,0.2,0.4,0.5s-0.2,0.5-0.7,0.7c-0.6,0.1-1.3,0.2-1.9,0.2c-1.8,0-2.3-0.2-2.3-1
	c0-0.5,0.1-0.9,0.1-2.8c0-0.3,0-0.6-0.1-0.9c1.6,0.2,1.7,0.2,1.7,0.4s-0.1,0.2-0.4,0.3V306.2z M196.3,304.5c-0.3,0-0.4-0.1-0.6-0.5
	c-0.1-0.6-0.5-1.1-0.9-1.5v-0.1c0,0,0,0,0.1,0c1.3,0.2,2.1,0.7,2.1,1.4C197,304.2,196.7,304.5,196.3,304.5L196.3,304.5z
	 M199.5,299.9c0,0.2-0.1,0.2-0.2,0.2c-0.1,0-0.3-0.1-0.4-0.2c-0.5-0.4-0.9-0.9-1.2-1.4c-0.5-0.8-0.8-1.6-1-2.5
	c-0.1-0.2-0.1-0.2-0.2-0.4c0,0,0-0.1-0.1-0.1c0-0.1,0.3-0.2,0.5-0.2c0.1,0,0.1,0,0.1,0.1l0,0c0,0-0.1,0.2-0.1,0.3
	c0,0.1,0,0.2,0.1,0.4c0.3,0.6,0.7,1,1.2,1.4c0.6,0.5,1.3,0.8,2,1.1c0.1,0,0.1,0.1,0,0.2C199.8,298.9,199.7,299.1,199.5,299.9
	L199.5,299.9z M199.4,306.7c-0.4,0-0.5-0.2-0.6-0.9c-0.1-0.7-0.4-1.3-0.8-1.9c0,0,0-0.1,0.1-0.1c1.4,0.6,2,1.2,2,2
	C200.1,306.3,199.8,306.7,199.4,306.7L199.4,306.7z"/>
<path class="st0" d="M205.2,298.3c0,0.7,0,1.4-0.1,2.1h0.9c0.4-0.6,0.5-0.7,0.6-0.7s0.3,0.1,0.7,0.5c0.2,0.2,0.3,0.3,0.3,0.4
	s-0.1,0.1-0.3,0.4c0,2-0.3,3.9-0.8,5.8c-0.1,0.3-0.3,0.5-0.6,0.7s-0.6,0.3-1,0.3c-0.2,0-0.2,0-0.2-0.2c-0.1-0.6-0.3-0.8-1-1
	c-0.1,0,0-0.2,0-0.2c0.6,0,1,0.1,1.1,0.1c0.4,0,0.5-0.1,0.7-0.6c0.3-1.7,0.5-3.4,0.5-5.1h-1.1c-0.3,3.6-1.1,5.5-2.8,7.1
	c-0.1,0-0.2-0.1-0.1-0.1c1.3-2.2,1.8-4.8,1.8-9v-0.4h-0.4c-0.3,0-0.6,0-0.9,0.1l-0.1-0.5c0.3,0.1,0.7,0.1,1,0.1h0.8v-1.7
	c0-0.2,0-0.6-0.1-1c1.6,0.1,1.7,0.3,1.7,0.5s-0.1,0.2-0.4,0.4v1.9h0.4c0.5-0.6,0.7-0.7,0.8-0.7s0.3,0.1,0.7,0.5
	c0.2,0.2,0.3,0.3,0.3,0.4s0,0.1-0.2,0.1L205.2,298.3z M209.3,297.9c-0.5,0.7-1.1,1.4-1.8,1.9c-0.1,0-0.2,0-0.2-0.1
	c0.6-0.9,1-1.8,1.3-2.8c0.2-0.6,0.3-1.2,0.4-1.8c1.5,0.3,1.8,0.4,1.8,0.6s-0.1,0.2-0.5,0.3c-0.2,0.5-0.4,1-0.7,1.5h3.6
	c0.7-0.8,0.9-1,1-1s0.3,0.1,0.9,0.6c0.3,0.3,0.4,0.4,0.4,0.5s0,0.1-0.2,0.1L209.3,297.9z M209.7,306.1c0,0.5,0.1,0.6,1.9,0.6
	s2.1-0.1,2.3-0.2s0.3-0.3,0.8-1.9c0-0.1,0.2,0,0.2,0c0,0.4,0,1,0,1.3c0,0.2,0.1,0.3,0.2,0.4c0.3,0.2,0.4,0.3,0.4,0.6
	s-0.3,0.6-0.9,0.8c-0.9,0.2-1.8,0.2-2.7,0.2c-2.9,0-3.4-0.2-3.4-1.3c0-0.4,0-0.7,0-2.2c0-0.6,0-1.3,0-1.9c-0.3,0.1-0.6,0.2-0.8,0.3
	l-0.3-0.5c0.3,0,0.6-0.1,0.9-0.2h0.2c0-0.9,0-1.8,0-2.7c1.5,0.1,1.7,0.2,1.7,0.4s-0.1,0.2-0.4,0.4v1.5l1.1-0.3v-1
	c0-0.6,0-1.2-0.1-1.9c1.2,0.1,1.6,0.2,1.6,0.4s-0.1,0.2-0.4,0.3v1.8l1.1-0.3c0.4-0.7,0.6-0.8,0.7-0.8c0.4,0.1,0.7,0.3,1,0.6
	c0.1,0.1,0.1,0.2,0.2,0.3c0,0.1-0.1,0.2-0.4,0.4c0,1-0.1,1.9-0.2,2.9c-0.1,0.3-0.2,0.6-0.4,0.9c-0.2,0.2-0.5,0.3-0.9,0.3
	c-0.2,0-0.2,0-0.2-0.4s-0.3-0.6-0.8-0.8c0,0.4,0,0.8,0,0.9c0,0.4-0.2,0.5-0.7,0.5s-0.5-0.1-0.5-0.5s0-1.4,0.1-3.4l-1.1,0.3
	L209.7,306.1z M212,301.3c0,0.4,0,0.9,0,1.3v1.3c0.3,0.1,0.5,0.1,0.8,0.1c0.2,0,0.4-0.1,0.4-0.4c0.1-0.9,0.2-1.8,0.2-2.6L212,301.3z
	"/>
<path class="st0" d="M221.6,298.1c0.6-0.7,0.8-0.9,0.9-0.9s0.3,0.1,0.9,0.6c0.3,0.2,0.4,0.3,0.4,0.4s0,0.1-0.2,0.1h-4.4
	c-0.3,0-0.7,0-1,0.1L218,298c0.4,0.1,0.7,0.1,1.1,0.1H221.6z M219.8,307.1v0.4c0,0.4-0.2,0.5-0.7,0.5s-0.6-0.1-0.6-0.5s0-0.9,0-2.7
	c0-0.7,0-1.3-0.1-2c0.5,0.2,1,0.4,1.5,0.7h1.4c0.5-0.6,0.6-0.7,0.7-0.7s0.2,0.1,0.8,0.5c0.2,0.2,0.3,0.3,0.3,0.4s-0.1,0.2-0.4,0.5
	v0.5c0,1.2,0.1,2,0.1,2.3s-0.2,0.5-0.8,0.5s-0.6-0.1-0.6-0.4V307L219.8,307.1z M220.9,296.2c0.6-0.7,0.8-0.8,0.9-0.8
	s0.3,0.1,0.9,0.6c0.2,0.2,0.4,0.3,0.4,0.4s0,0.1-0.2,0.1h-3.3c-0.3,0-0.6,0-0.8,0.1l-0.2-0.5c0.3,0.1,0.7,0.1,1,0.1L220.9,296.2
	L220.9,296.2z M221,300c0.5-0.7,0.7-0.8,0.8-0.8s0.3,0.1,0.8,0.6c0.2,0.2,0.4,0.3,0.4,0.4s0,0.1-0.2,0.1h-3.2c-0.3,0-0.6,0-0.9,0.1
	l-0.2-0.5c0.3,0.1,0.7,0.1,1,0.1L221,300z M221,301.8c0.5-0.7,0.7-0.8,0.8-0.8s0.3,0.1,0.8,0.6c0.2,0.2,0.4,0.3,0.4,0.4
	s0,0.1-0.2,0.1h-3.2c-0.3,0-0.6,0-0.8,0.1l-0.1-0.5c0.3,0.1,0.7,0.1,1,0.1L221,301.8z M221.5,303.9h-1.6v2.8h1.6V303.9z
	 M228.1,301.4c0.6-0.6,0.7-0.6,0.8-0.6s0.3,0.1,0.8,0.5c0.3,0.2,0.4,0.3,0.4,0.4s-0.2,0.3-0.5,0.4c-0.5,1.1-1.1,2-1.9,2.9
	c1,0.7,2.2,1.1,3.4,1.3c0.1,0,0.1,0.1,0,0.1c-0.5,0.1-0.7,0.4-0.8,1.1c-0.1,0.2-0.1,0.3-0.2,0.3c-0.2,0-0.4-0.1-0.5-0.2
	c-1-0.4-1.9-1-2.6-1.8c-1.2,1-2.6,1.7-4.1,2.1c-0.1,0-0.1-0.1-0.1-0.2c1.4-0.6,2.6-1.6,3.6-2.7c-0.6-1-1.1-2.1-1.4-3.2h-0.2
	c-0.3,0-0.5,0-0.8,0.1l-0.2-0.5c0.3,0.1,0.7,0.1,1,0.1L228.1,301.4z M230.5,298.6c0,0.2,0.1,0.3,0.3,0.4c0.1,0.1,0.2,0.3,0.2,0.4
	c0,0.3-0.2,0.5-0.6,0.6c-0.4,0.1-0.9,0.2-1.4,0.2c-1.2,0-1.7-0.3-1.7-1.2c0-0.5,0-0.7,0-1.2v-1.4h-1.6v0.3c0,0.9-0.1,1.7-0.4,2.5
	c-0.5,0.8-1.2,1.4-2.1,1.7c-0.1,0-0.2,0-0.1-0.1c0.6-0.5,1-1.2,1.2-2c0.1-0.6,0.2-1.1,0.2-1.7s0-1.1-0.1-1.7
	c0.7,0.3,0.8,0.3,1.5,0.7h1.5c0.4-0.5,0.5-0.6,0.7-0.6s0.2,0.1,0.7,0.5c0.1,0.1,0.2,0.2,0.3,0.4c0,0.1-0.1,0.2-0.4,0.4v2.2
	c0,0.2,0.1,0.3,0.6,0.3s0.5,0,0.6-0.2c0.2-0.4,0.4-0.8,0.5-1.2c0-0.1,0.2-0.1,0.2,0L230.5,298.6z M225.1,301.7
	c0.4,1,0.9,1.8,1.6,2.6c0.6-0.8,1-1.6,1.3-2.6H225.1z"/>
<path class="st0" d="M237.4,299.7c0,0.3,0,0.9,0,1.2s-0.2,0.5-0.7,0.5s-0.5-0.1-0.5-0.5c0-0.1,0-0.5,0.1-1.3c-0.8,1-1.9,1.8-3.1,2.3
	c-0.1,0-0.1-0.1-0.1-0.1c1-0.8,1.9-1.8,2.5-3h-1c-0.3,0-0.7,0-1,0.1l-0.1-0.5c0.3,0.1,0.7,0.1,1.1,0.1h1.7v-1.8c0-0.4,0-0.9-0.1-1.3
	c1.4,0.1,1.7,0.2,1.7,0.4s-0.1,0.2-0.4,0.3v2.4h1.2c0.4-0.6,0.6-0.7,0.7-0.7s0.3,0.1,0.8,0.5c0.2,0.2,0.3,0.3,0.3,0.4
	s-0.1,0.1-0.2,0.1h-2.8v0.5c1.3,0.2,2,0.6,2,1.3c0,0.3-0.2,0.5-0.5,0.6c0,0,0,0-0.1,0c-0.2,0-0.4-0.1-0.7-0.6
	C238,300.3,237.7,299.9,237.4,299.7L237.4,299.7z M239.1,303.2c-0.2,0.7-0.6,1.5-1,2.1c0.6,0.3,0.9,0.6,0.9,1c0,0.3-0.3,0.6-0.6,0.6
	l0,0c-0.4,0-0.4,0-1-0.8c-1.1,1-2.5,1.6-4,1.8c-0.1,0-0.1-0.2,0-0.2c1.3-0.4,2.4-1.2,3.3-2.3c-0.3-0.2-0.7-0.4-1-0.6l-0.3,0.5
	c-0.1,0.2-0.4,0.4-0.6,0.4c-0.4,0-0.6-0.2-0.6-0.4c0-0.1,0.1-0.2,0.1-0.4c0.4-0.6,0.7-1.2,1-1.8h-0.8c-0.3,0-0.6,0-0.9,0.1l-0.2-0.5
	c0.4,0.1,0.7,0.1,1.1,0.1h1l0.1-0.1c0.2-0.4,0.3-0.8,0.4-1.2c1.4,0.3,1.4,0.3,1.4,0.5s-0.1,0.2-0.4,0.3l-0.2,0.6h1.9
	c0.5-0.6,0.7-0.7,0.8-0.7s0.3,0.1,0.7,0.5c0.2,0.2,0.3,0.3,0.3,0.4s0,0.1-0.2,0.1H239.1z M235.1,298.1c-0.4,0-0.4-0.1-0.6-0.9
	c-0.1-0.4-0.2-0.8-0.5-1.2c0,0,0-0.1,0.1-0.1c1,0.3,1.6,0.8,1.6,1.5C235.7,297.8,235.4,298.1,235.1,298.1L235.1,298.1L235.1,298.1z
	 M235.8,304.7c0.4,0.1,0.9,0.2,1.3,0.3c0.3-0.5,0.6-1.1,0.7-1.7h-1.3L235.8,304.7z M239.5,296.8c-0.5,0.6-1.1,1.1-1.7,1.5
	c-0.1,0-0.1,0-0.1-0.1c0.3-0.4,0.5-0.9,0.7-1.4c0.1-0.3,0.2-0.7,0.3-1c1,0.4,1.4,0.6,1.4,0.8S239.9,296.8,239.5,296.8L239.5,296.8z
	 M245,298.9c-0.2,1.9-0.8,3.8-1.8,5.4c0.9,0.9,2.1,1.7,3.3,2.1c0,0,0.1,0.1,0,0.1l0,0c-0.4,0.1-0.5,0.3-0.6,1
	c-0.1,0.4-0.1,0.4-0.3,0.4c-0.3-0.1-0.5-0.2-0.7-0.4c-0.9-0.7-1.7-1.5-2.4-2.4c-1.1,1.3-2.6,2.3-4.2,2.8c-0.1,0-0.1-0.1-0.1-0.2
	c1.5-0.9,2.8-2.1,3.8-3.6c-0.6-1.2-1-2.5-1.2-3.8c-0.4,0.5-0.8,1-1.3,1.5c-0.1,0-0.2,0-0.1-0.1c0.8-1.5,1.4-3,1.8-4.7
	c0.1-0.6,0.2-1.3,0.2-1.9c1.6,0.4,1.8,0.4,1.8,0.6s-0.1,0.2-0.6,0.4c-0.2,0.8-0.5,1.5-0.8,2.3h2.4c0.6-0.8,0.8-0.9,0.9-0.9
	s0.3,0.1,0.9,0.6c0.2,0.2,0.4,0.4,0.4,0.5s0,0.1-0.2,0.1L245,298.9z M241.7,298.9c-0.2,0.4-0.4,0.9-0.7,1.3c0.3,1.1,0.8,2.2,1.4,3.2
	c0.7-1.4,1.1-2.9,1.2-4.5H241.7z"/>
<path class="st0" d="M140.7,442.1c0,2.2-1.3,3.5-2.9,3.5s-2.9-1.2-2.9-3.4s1.3-3.5,2.9-3.5S140.7,440,140.7,442.1z M136.4,442.1
	c0,1.9,0.5,3,1.3,3s1.4-1.1,1.4-3s-0.5-3-1.4-3S136.4,440.2,136.4,442.1z M137.4,450.9l7.9-12.8l0.5,0.3l-7.8,12.8L137.4,450.9z
	 M148.3,447.1c0,2.2-1.3,3.5-2.9,3.5s-2.9-1.3-2.9-3.4s1.3-3.5,2.9-3.5S148.3,445,148.3,447.1L148.3,447.1z M144,447.2
	c0,1.9,0.5,3,1.4,3s1.3-1.1,1.3-3s-0.5-3-1.3-3S144.1,445.2,144,447.2L144,447.2z"/>
<path class="st1" d="M41.4,415c2.1,0,4.3,0.3,6.3,1c1.6,0.5,2.9,1.4,4,2.7c1,1.2,1.5,2.7,1.4,4.3c0,1.2-0.2,2.3-0.8,3.3
	c-0.5,0.9-1.2,1.6-2,2.2s-1.7,0.9-2.7,1.1c-0.9,0.2-1.9,0.1-2.8-0.1c1,0,2,0.2,3,0.4c1.1,0.3,2.2,0.8,3.1,1.5c1,0.7,1.9,1.7,2.5,2.8
	c0.7,1.4,1,2.9,1,4.4c0,2-0.5,4-1.5,5.7c-1,1.6-2.4,3-4,4c-1.7,1.1-3.7,1.8-5.7,2.3c-2.1,0.4-4.3,0.6-6.5,0.4s-4.4-0.8-6.4-1.7
	l0.1-0.5c1.8,0,3.6-0.2,5.4-0.7c1.6-0.5,3.1-1.2,4.5-2.2c1.3-0.9,2.3-2.1,3.1-3.5s1.2-3,1.1-4.6c0.1-1.6-0.4-3.2-1.3-4.5
	c-0.9-1.1-2-1.9-3.3-2.4c-1.2-0.5-2.6-0.8-3.9-0.8l0.1-0.5c2.8,0.1,5.4-1.4,6.7-3.8c0.7-1.2,0.9-2.6,0.8-4c0-1-0.4-1.9-1-2.7
	c-0.5-0.7-1.2-1.2-2-1.5s-1.7-0.4-2.6-0.3c-1.6,0-3.1,1-3.9,2.4c-0.9,2-1.3,4.3-1.2,6.5h-0.5l-2.6-8c1.4-1.1,3-1.9,4.7-2.4
	C36.9,415.2,39.1,415,41.4,415z"/>
<path class="st1" d="M61.6,449.5l-0.2-0.3c2.7-0.8,5.3-1.9,7.7-3.4c1.7-1.1,3.1-2.5,4.1-4.3c0.9-1.7,1.4-3.5,1.6-5.4
	c0.2-2.3,0.3-4.5,0.3-6.8c0-2.5-0.1-4.7-0.2-6.4c0-1.3-0.3-2.6-0.9-3.8c-0.5-0.9-1.4-1.3-2.4-1.3c-1-0.1-2,0.3-2.6,1.1
	c-0.6,0.9-1,1.9-1.2,2.9c-0.2,1.3-0.3,2.6-0.3,3.9c0,1.4,0.1,2.7,0.3,4.1c0.1,0.8,0.4,1.5,0.8,2.2c0.3,0.4,0.7,0.8,1.2,1
	c0.6,0.3,1.3,0.3,2,0.1c0.5-0.2,1-0.4,1.5-0.6l0.3,0.4c-0.4,1-1.1,1.8-2,2.3c-1,0.6-2,1-3.2,1.2s-2.4,0.1-3.6-0.2
	c-1.2-0.3-2.4-0.9-3.4-1.7c-1.1-0.9-1.9-2-2.5-3.3c-0.7-1.6-0.9-3.3-0.8-5.1c0-2,0.6-3.9,1.5-5.6c1-1.7,2.5-3.1,4.4-4
	c2.3-1.1,4.9-1.7,7.4-1.7c4.5-0.1,8,1.1,10.4,3.6s3.6,6.3,3.6,11.6c0,3-0.4,6-1.5,8.8c-0.9,2.5-2.5,4.7-4.5,6.5
	c-2.2,1.8-4.7,3.1-7.4,3.7C68.6,449.9,65.1,450,61.6,449.5z"/>
<path class="st1" d="M93.1,448.4c-2.3,0-4.1-1.9-4.1-4.2c0-1.1,0.4-2.2,1.2-2.9c1.7-1.6,4.3-1.5,5.9,0.2c1.5,1.6,1.5,4.1,0,5.6
	C95.2,448,94.2,448.4,93.1,448.4z"/>
<path class="st1" d="M111.6,415c2.1,0,4.3,0.3,6.3,1c1.6,0.5,2.9,1.4,4,2.7c1,1.2,1.5,2.7,1.4,4.3c0,1.2-0.2,2.3-0.8,3.3
	c-0.5,0.9-1.2,1.6-2,2.2s-1.7,0.9-2.7,1.1c-0.9,0.2-1.9,0.1-2.8-0.1c1,0,2,0.2,3,0.4c1.1,0.3,2.2,0.8,3.1,1.5c1,0.7,1.9,1.7,2.5,2.8
	c0.7,1.4,1,2.9,1,4.4c0,2-0.5,4-1.5,5.7c-1,1.6-2.4,3-4,4c-1.7,1.1-3.7,1.8-5.7,2.3c-2.1,0.4-4.3,0.6-6.5,0.4s-4.4-0.8-6.4-1.7
	l0.1-0.5c1.8,0,3.6-0.2,5.4-0.7c1.6-0.5,3.1-1.2,4.5-2.2c1.3-0.9,2.3-2.1,3.1-3.5c0.8-1.4,1.2-3,1.1-4.6c0.1-1.6-0.4-3.2-1.3-4.5
	c-0.8-1.1-2-1.9-3.3-2.5c-1.2-0.5-2.6-0.8-3.9-0.8l0.1-0.5c2.8,0.1,5.4-1.4,6.7-3.8c0.7-1.2,0.9-2.6,0.8-4c0-1-0.4-1.9-1-2.7
	c-0.5-0.7-1.2-1.2-2-1.5s-1.7-0.4-2.6-0.3c-1.6,0-3.1,1-3.9,2.4c-0.9,2.1-1.2,4.3-1.1,6.5h-0.5l-2.6-8c1.4-1.1,3-1.9,4.7-2.4
	C107.2,415.2,109.4,415,111.6,415z"/>
<path class="st0" d="M25.8,306.2v0.5c0,0.4-0.2,0.6-0.8,0.6s-0.6-0.2-0.6-0.5c0-1.2,0.1-2.5,0.1-7.5c0-1.1,0-2.3-0.1-3.5
	c0.5,0.2,1.1,0.5,1.6,0.7h1.3c0.2-0.5,0.3-1,0.4-1.4c0.1-0.3,0.2-0.7,0.2-1c1.4,0.4,1.7,0.5,1.7,0.7s-0.1,0.2-0.5,0.3
	c-0.4,0.5-0.9,1-1.4,1.4h3.9c0.5-0.5,0.6-0.6,0.7-0.6s0.3,0.1,0.8,0.5c0.3,0.2,0.4,0.3,0.4,0.5s-0.1,0.2-0.5,0.5v1.4
	c0,4.1,0.1,6.9,0.1,7.8c0,0.4-0.2,0.6-0.8,0.6c-0.6,0-0.6-0.1-0.6-0.5v-0.5H25.8z M31.8,297h-6v2.6h6V297z M31.8,299.9h-6v2.7h6
	V299.9z M31.8,302.9h-6v3h6V302.9z"/>
<path class="st0" d="M47.2,295.8h-6.9c-0.3,0-0.7,0-1,0.1l-0.2-0.6c0.4,0.1,0.8,0.1,1.2,0.1h6.9c0.5-0.6,0.6-0.6,0.7-0.6
	s0.3,0.1,0.8,0.5c0.2,0.2,0.3,0.3,0.3,0.4s0,0.1-0.4,0.5v0.7c0,1.8,0.1,3,0.1,3.4s-0.2,0.7-0.8,0.7c-0.4,0-0.6-0.1-0.6-0.5V300h-6.7
	v4.6c0,0.6,0.3,0.8,3.3,0.8c3.6,0,4.2-0.1,4.6-0.4s0.6-0.8,1-2.2c0-0.1,0.2-0.1,0.2,0c0,0.6,0,1.5,0,1.8s0,0.3,0.2,0.4
	s0.4,0.3,0.3,0.5c0,0.5-0.3,0.7-1.2,0.9c-1.5,0.2-3.1,0.3-4.6,0.3c-4.5,0-5.2-0.2-5.2-1.8c0-0.6,0-1.6,0-3.1c0-1.3,0-1.7-0.1-2.8
	c0.5,0.2,1,0.5,1.5,0.8h6.6L47.2,295.8z"/>
<path class="st0" d="M54.3,299.4c0,0.4-0.1,0.5-0.3,0.5s-0.2-0.1-0.7-1.6c0.5,0,1,0,1.5-0.1c1.1-0.1,2.2-0.3,3.2-0.5
	c0.1,0,0.1,0.1,0.1,0.2C56.9,298.5,55.6,299,54.3,299.4z M57.9,306.3c-1.4,0.6-2.9,1-4.5,1c-0.1,0-0.1-0.2,0-0.2
	c0.9-0.3,1.8-0.6,2.6-1.1c0.4-0.2,0.7-0.5,1-0.9c1.5,0.9,1.5,0.9,1.5,1.1S58.4,306.3,57.9,306.3L57.9,306.3z M55.3,300.5
	c-0.5,0-0.9,0.1-1.4,0.1c-0.1,0-0.1-0.1,0-0.2c0.5-0.1,1-0.2,1.4-0.3c0-0.3,0-0.6,0-0.9c0.4,0.1,0.9,0.3,1.3,0.5
	c0.9-0.4,1.8-1,2.5-1.7c0.4-0.5,0.7-1.1,0.8-1.7c1.2,0.2,1.8,0.4,1.8,0.5s-0.2,0.2-0.5,0.3c0.5,0.6,1.2,1.1,2,1.5
	c1,0.4,2,0.6,3.1,0.6c0.1,0,0.1,0.1,0,0.2c-0.4,0.2-0.7,0.6-0.7,1c0,0.1-0.1,0.2-0.2,0.1c-0.2,0-0.4-0.1-0.6-0.1
	c-0.2-0.1-0.5-0.2-0.7-0.3c-0.1,0.1-0.2,0.2-0.3,0.2v0.7c0,2,0.1,3.3,0.1,3.7s-0.3,0.5-0.8,0.5c-0.3,0-0.5-0.1-0.5-0.4h-5.8v0.1
	c0,0.3-0.2,0.5-0.7,0.5s-0.6-0.1-0.6-0.5c0-0.6,0.1-1.3,0.1-3.9L55.3,300.5z M55.7,296.9c-0.3,0-0.5-0.1-0.7-0.6
	c-0.2-0.6-0.6-1.1-1.1-1.5c-0.1,0,0-0.1,0-0.1c1.6,0.1,2.4,0.6,2.4,1.4C56.4,296.6,56.1,296.9,55.7,296.9L55.7,296.9L55.7,296.9z
	 M56.5,301.3h5.8v-1.2h-5.1l-0.8,0.2L56.5,301.3L56.5,301.3z M62.3,301.6h-5.8v1.2h5.8V301.6z M62.3,303.2h-5.8v1.3h5.8V303.2z
	 M58.7,296.2c-0.6,0.5-1.2,1-1.9,1.3c0,0-0.2-0.1-0.1-0.1c0.5-0.5,1-1.2,1.3-1.9c0.2-0.4,0.3-0.8,0.5-1.3c1.3,0.4,1.7,0.6,1.7,0.7
	s-0.1,0.2-0.6,0.3c-0.1,0.2-0.3,0.4-0.5,0.6h4.6c0.5-0.6,0.6-0.7,0.7-0.7s0.2,0.1,0.8,0.6c0.3,0.2,0.3,0.4,0.3,0.5s-0.1,0.3-0.6,0.4
	c-0.2,0-0.3,0.1-0.5,0.2c-0.5,0.3-1,0.6-1.5,0.8c-0.1,0-0.2-0.1-0.1-0.2c0.3-0.4,0.6-0.8,0.8-1.3L58.7,296.2z M62.2,299.8l0.4-0.4
	c-0.7-0.5-1.3-1.2-1.7-2c-0.6,1.1-1.6,1.9-2.7,2.4H62.2z M64.1,307.4c-0.3,0-0.6-0.2-0.8-0.4c-0.8-0.7-1.8-1.2-2.8-1.5
	c-0.1,0,0-0.1,0-0.1c3.6,0,4.4,0.5,4.4,1.3C64.8,307.1,64.4,307.4,64.1,307.4L64.1,307.4z"/>
<path class="st0" d="M74,303.8c0-1.4,0.1-2.9,0.1-4.3c-1.3,2.3-3.3,4.2-5.7,5.4c-0.1,0-0.1-0.1-0.1-0.1c2.3-1.8,4-4.1,5.1-6.8h-3.2
	c-0.4,0-0.8,0-1.2,0.1l-0.2-0.5c0.4,0.1,0.9,0.1,1.3,0.1H74v-1.2c0-0.7,0-1.3-0.1-2c1.4,0.1,1.8,0.2,1.8,0.4s-0.1,0.2-0.4,0.4v2.3
	h3.3c0.7-0.9,0.8-1,0.9-1s0.3,0.1,1,0.7c0.3,0.3,0.4,0.4,0.4,0.5s0,0.1-0.2,0.1h-5.3c0.5,1.2,1.2,2.2,2.2,3c1.1,1,2.5,1.8,3.9,2.2
	c0,0,0.1,0,0.1,0.1s0,0.1-0.1,0.1l0,0c-0.5,0.2-0.8,0.4-1,1.1c-0.1,0.2-0.1,0.3-0.2,0.3c-0.2,0-0.4-0.1-0.6-0.3
	c-1.1-0.7-2-1.6-2.7-2.7c-0.7-1-1.3-2.2-1.7-3.4c0,1.3,0.1,4.2,0.1,5.5h0.7c0.6-0.8,0.8-0.9,0.9-0.9s0.3,0.1,0.9,0.6
	c0.3,0.2,0.4,0.4,0.4,0.5s0,0.1-0.2,0.1h-2.7c0,1.3,0,2.2,0,2.6s-0.3,0.6-0.9,0.6s-0.6-0.1-0.6-0.5s0-1.4,0.1-2.7h-1.6
	c-0.3,0-0.7,0-1,0.1l-0.2-0.5c0.4,0.1,0.7,0.1,1.1,0.1L74,303.8z"/>
<path class="st0" d="M86.9,304.9c1.1-0.3,2.3-0.6,3.4-1c0.1,0,0.1,0.1,0.1,0.1c-1.6,1.1-3.3,1.9-5.2,2.5c-0.1,0.4-0.2,0.5-0.4,0.5
	s-0.3-0.3-0.8-1.7c0.3,0,0.6-0.1,0.9-0.1l0.7-0.1v-8.6c0-0.6,0-1.1-0.1-1.7c1.7,0.2,1.9,0.3,1.9,0.5s-0.1,0.2-0.5,0.4v3.7h1.4
	c0.7-0.8,0.9-0.9,1-0.9s0.3,0.1,0.9,0.6c0.3,0.2,0.4,0.4,0.4,0.5s0,0.1-0.2,0.1h-3.5C86.9,299.7,86.9,304.9,86.9,304.9z M92.1,300.4
	c0.8-0.6,1.5-1.2,2.1-1.9c0.4-0.4,0.7-0.9,1-1.4c1.1,0.7,1.6,1,1.6,1.2s-0.1,0.3-0.7,0.2c-1.2,1-2.5,1.7-3.9,2.3v4.2
	c0,0.6,0.1,0.6,1.7,0.6c0.4,0.1,0.8,0,1.2-0.2c0.3-0.2,0.6-0.8,1-2.2c0-0.1,0.2-0.1,0.2,0c0,0.6-0.1,1.5-0.1,1.8
	c0,0.1,0.1,0.3,0.2,0.3c0.3,0.1,0.4,0.3,0.4,0.5s-0.3,0.7-0.9,0.8c-0.7,0.1-1.4,0.2-2.2,0.2c-2.6,0-3-0.2-3-1.6c0-0.3,0-0.5,0-1.6
	c0-2.9,0-5.9,0-8.8c1.5,0.2,1.8,0.2,1.8,0.4s-0.1,0.2-0.4,0.4L92.1,300.4z"/>
<path class="st0" d="M106.2,304.1c0,1.5,0,2.5,0,2.8s-0.3,0.5-0.8,0.5s-0.6-0.1-0.6-0.5s0.1-1.1,0.1-2.8h-4.3c-0.3,0-0.7,0-1,0.1
	l-0.2-0.5c0.4,0.1,0.8,0.1,1.2,0.1h4.3v-0.1c0-0.5,0-1-0.1-1.6c1.6,0.2,1.8,0.2,1.8,0.4s-0.1,0.2-0.5,0.4v0.8h3.5c0.7-0.9,0.9-1,1-1
	s0.3,0.1,1,0.7c0.3,0.2,0.4,0.4,0.4,0.5s0,0.1-0.2,0.1L106.2,304.1z M100.6,302.1c0,0.4-0.1,0.6-0.2,0.6s-0.4-0.4-0.9-1.5
	c0.4-0.1,0.8-0.2,1.2-0.4c0.9-0.3,1.7-0.6,2.5-1c0,0,0.2,0.1,0.1,0.2C102.6,300.8,101.6,301.5,100.6,302.1L100.6,302.1z
	 M104.9,296.4c1,0.4,1.3,0.5,1.3,0.7s0,0.1-0.5,0.2c-0.4,0.4-0.8,0.8-1.2,1.1c0.3,0.2,0.5,0.5,0.5,0.9c0,0.3-0.2,0.6-0.5,0.7l0,0
	c-0.3,0-0.4-0.1-0.6-0.7c-0.2-0.5-0.5-0.9-0.9-1.3v-0.1l0,0c0.4,0.1,0.8,0.2,1.1,0.4c0.1-0.3,0.2-0.5,0.4-0.8
	c0.1-0.3,0.2-0.6,0.3-0.9h-4.2c-0.3,0-0.7,0-1,0.1l-0.2-0.5c0.4,0.1,0.7,0.1,1.1,0.1h4.2v-1c0-0.3,0-0.6-0.1-0.8
	c1.7,0.2,1.9,0.3,1.9,0.5s-0.2,0.3-0.5,0.4v0.9h3.3c0.8-0.8,0.9-1,1-1s0.3,0.1,0.9,0.7c0.3,0.2,0.4,0.4,0.4,0.5s0,0.1-0.2,0.1
	L104.9,296.4z M101.8,299.6c-0.4,0-0.5-0.1-0.7-0.9c-0.2-0.6-0.5-1.1-0.9-1.5v-0.1h0.1c1.5,0.5,2.2,1,2.2,1.7
	C102.5,299.2,102.2,299.6,101.8,299.6L101.8,299.6L101.8,299.6z M107.1,301c-0.2-0.3-0.4-0.6-0.6-0.8c0,0,0-0.1,0.1-0.1
	c1.2,0.4,2,1,2,1.7c0,0.4-0.3,0.7-0.6,0.7l0,0c-0.3,0-0.4-0.1-0.6-0.9c0-0.1-0.1-0.2-0.1-0.3c-1.2,0.4-2.4,0.7-3.7,0.9
	c-0.1,0.3-0.1,0.4-0.2,0.4s-0.3-0.2-0.6-1.5c0.6,0,1,0,1.4,0c0.7-0.7,1.3-1.5,1.8-2.4c0.2-0.4,0.4-0.7,0.6-1.1
	c1.2,0.6,1.4,0.8,1.4,1s0,0.2-0.6,0.2c-0.8,0.8-1.7,1.6-2.7,2.4C105.5,301.1,106.3,301.1,107.1,301z M110.6,298.1
	c-0.8,0.7-1.7,1.2-2.7,1.6c-0.1,0-0.2-0.1-0.1-0.1c0.5-0.5,1-1.1,1.4-1.7c0.2-0.3,0.4-0.6,0.5-1c1.1,0.6,1.4,0.8,1.4,1
	S111,298.1,110.6,298.1L110.6,298.1z M110.5,302.3c-0.3,0-0.5-0.1-0.9-0.8c-0.3-0.6-0.8-1.1-1.3-1.4c0,0,0-0.2,0.1-0.1
	c1.9,0.3,2.8,0.8,2.8,1.6C111.2,302,110.9,302.3,110.5,302.3C110.5,302.3,110.5,302.4,110.5,302.3L110.5,302.3z"/>
<line class="st5" x1="0" y1="273.2" x2="335" y2="273.2"/>
<line class="st5" x1="167.5" y1="273.2" x2="167.5" y2="470.1"/>
</svg>
