<?xml version="1.0" encoding="utf-8"?>
<!-- Generator: Adobe Illustrator 25.4.1, SVG Export Plug-In . SVG Version: 6.00 Build 0)  -->
<svg version="1.1" id="レイヤー_1" xmlns="http://www.w3.org/2000/svg" xmlns:xlink="http://www.w3.org/1999/xlink" x="0px"
	 y="0px" viewBox="0 0 1082 308.9" style="enable-background:new 0 0 1082 308.9;" xml:space="preserve">
<style type="text/css">
	.st0{fill:none;}
	.st1{fill:#333333;}
	.st2{fill:#4AA064;}
	.st3{fill:none;stroke:#4AA064;stroke-width:1.76;stroke-miterlimit:10;}
	.st4{fill:#FFFFFF;}
	.st5{fill:none;stroke:#FFFFFF;stroke-width:6;}
	.st6{fill:none;stroke:#FFFFFF;stroke-width:1.18;stroke-miterlimit:10;}
</style>
<rect class="st0" width="1082" height="300.1"/>
<g>
	<circle class="st1" cx="145.3" cy="104.4" r="17.4"/>
	<path class="st1" d="M265.9,265.6c0,0.7-0.5,1-1.4,1s-1.1-0.2-1.1-0.8c0-1.8,0.1-3.8,0.1-11.2c0-2.4,0-4.8-0.2-7.2
		c0.9,0.4,1.8,0.8,2.7,1.3h2.2c0.9-1,1.1-1.2,1.3-1.2s0.5,0.2,1.4,0.9c0.4,0.3,0.6,0.5,0.6,0.7s-0.1,0.4-0.7,0.8v2.4
		c0,6.5,0.1,10.9,0.1,12.4c0,0.7-0.5,1-1.4,1c-0.7,0-1-0.2-1-0.8V264h-2.7L265.9,265.6z M268.6,249.2h-2.7v6.5h2.7V249.2z
		 M268.6,256.4h-2.7v7h2.7V256.4z M279.3,254.9h3.6c1.1-1.4,1.5-1.6,1.6-1.6s0.5,0.2,1.7,1.1c0.5,0.4,0.7,0.6,0.7,0.8
		s-0.1,0.3-0.3,0.3h-13.4c-0.5,0-1,0.1-1.5,0.2l-0.3-1c0.6,0.1,1.2,0.2,1.7,0.2h3.7v-4h-2.9c-0.5,0-1,0.1-1.5,0.2l-0.3-1
		c0.6,0.1,1.1,0.2,1.7,0.2h3v-2.2c0-0.7,0-1.3-0.1-2c3.1,0.3,3.4,0.6,3.4,0.8s-0.3,0.5-0.8,0.7v2.7h2.4c1.1-1.4,1.4-1.6,1.6-1.6
		s0.5,0.2,1.7,1.1c0.5,0.4,0.8,0.6,0.8,0.8s-0.1,0.3-0.3,0.3h-6.2L279.3,254.9z M282.8,262.8c0,1,0.1,3.2,0.1,4.2s-0.1,1.5-0.6,2
		c-0.7,0.7-1.6,1-2.5,1c-0.2,0-0.4-0.1-0.4-0.3c-0.2-1.4-0.9-1.7-3-2.2c-0.1,0-0.1-0.3,0-0.3c1.3,0.1,2.5,0.1,3.5,0.1
		c0.4,0,0.5-0.1,0.5-0.4V260h-7.1c-0.5,0-1,0.1-1.5,0.2l-0.3-1c0.6,0.1,1.2,0.2,1.7,0.2h7.2v-1.1c0-0.7,0-1.4-0.1-2.1
		c2.6,0.2,3.4,0.4,3.4,0.8s-0.2,0.4-0.8,0.7v1.7h0.6c1-1.1,1.3-1.4,1.5-1.4s0.5,0.2,1.4,1c0.4,0.3,0.6,0.5,0.6,0.7s-0.1,0.3-0.3,0.3
		H283L282.8,262.8z M276.3,265.7c-0.7,0-0.9-0.4-1.2-1.7c-0.2-1-0.7-1.9-1.5-2.6c-0.1-0.1,0-0.2,0.1-0.2c2.8,0.6,4.1,1.5,4.1,2.9
		C277.8,265,277.2,265.7,276.3,265.7L276.3,265.7z"/>
	<path class="st1" d="M297.1,254.6V269c0,0.7-0.5,1-1.5,1c-0.8,0-1.1-0.3-1.1-0.9c0-1.9,0.1-3.8,0.1-11.5c0-3.9,0-7.8-0.2-11.6
		c1,0.3,1.9,0.8,2.8,1.3h4.6c0.9-1,1.1-1.2,1.3-1.2s0.5,0.2,1.4,0.9c0.4,0.3,0.6,0.5,0.6,0.7s-0.2,0.4-0.8,0.8v1c0,2.8,0,4.7,0,5.3
		s-0.5,0.9-1.4,0.9c-0.7,0-0.9-0.2-0.9-0.8v-0.3L297.1,254.6z M302.1,247.9h-5v2.7h5V247.9z M302.1,251.1h-5v2.9h5V251.1z
		 M302.8,265.6v0.9c0,0.7-0.4,1-1.4,1c-0.7,0-1-0.2-1-0.8c0-0.9,0.1-1.8,0.1-5.2c0-1.6,0-3.2-0.1-4.9c0.9,0.3,1.8,0.8,2.6,1.3h4.9
		c0.9-1,1.1-1.1,1.3-1.1s0.5,0.1,1.4,0.9c0.5,0.4,0.6,0.5,0.6,0.8s-0.2,0.4-0.7,0.7v1.2c0,3.1,0,5.2,0,5.9s-0.4,1-1.3,1
		c-0.7,0-0.9-0.3-0.9-0.8v-0.8L302.8,265.6z M308.3,258.5h-5.5v2.8h5.5V258.5z M308.3,261.9h-5.5v3.1h5.5V261.9z M309.2,254.6v0.1
		c0,0.7-0.4,1-1.3,1s-1-0.2-1-0.8c0-1,0-2,0-6.1c0-1,0-1.9-0.1-2.9c0.9,0.4,1.8,0.8,2.7,1.3h4.6c0.9-1,1.1-1.2,1.4-1.2
		s0.5,0.2,1.4,0.9c0.4,0.4,0.6,0.6,0.6,0.8s-0.2,0.4-0.7,0.8v3.1c0,14.5,0,15.2,0,15.9c0,0.6-0.2,1.1-0.5,1.6
		c-0.6,0.6-1.4,0.8-2.3,0.8c-0.3,0-0.4-0.1-0.5-0.4c-0.1-1.2-0.6-1.6-2.6-2.1c-0.1,0-0.1-0.3,0-0.3c1.6,0.1,2,0.1,3,0.1
		c0.3,0,0.3,0,0.3-0.4v-12.2L309.2,254.6z M314.3,247.9h-5.1v2.7h5.1V247.9z M314.3,251.1h-5.1v2.9h5.1V251.1z"/>
	<path class="st2" d="M69.8,227l-6-16.2c1.9-1.6,4.1-3,6.5-3.9c2.7-1.1,5.4-1.8,8.3-2.3s5.8-0.8,8.8-0.8c4.5-0.1,8.9,0.7,13.1,2.2
		c3.6,1.3,6.8,3.4,9.2,6.3c2.3,2.8,3.5,6.4,3.4,10c0,2.8-0.6,5.6-1.8,8.1c-1.3,2.6-2.9,4.9-4.8,7c-2,2.2-4.2,4.2-6.5,6
		s-4.7,3.5-6.9,4.9s-4.3,2.7-6.1,3.8h17.1c1.7,0,3.4-0.3,4.9-1s2.9-1.8,4-3.1c1.4-1.6,2.5-3.4,3.4-5.3h0.9l-6.1,25.3H64.4v-0.9
		c2.6-3.2,5.2-6.4,8-9.5c2.8-3.2,5.4-6.3,7.9-9.5c2.6-3.2,4.8-6.3,6.9-9.4c1.9-2.9,3.5-6,4.8-9.3c1.2-2.9,1.8-6,1.8-9.1
		c0-3.9-1-7-3.1-9.2s-4.9-3.2-8.4-2.9c-3.6,0.2-6.8,2.1-8.6,5.2c-1.9,3.2-2.9,7.7-2.9,13.6L69.8,227z"/>
	<path class="st2" d="M123.3,205.2L171,205l-11.5,26.7c-0.8,1.7-1.6,3.8-2.5,6.3s-1.8,5.1-2.8,7.9c-1,2.8-1.9,5.6-2.8,8.4
		s-1.7,5.3-2.5,7.7s-1.3,4.4-1.8,6h-15.3c1.1-1.8,2.4-4,3.9-6.5s3.1-5.3,4.7-8.1s3.2-5.7,4.8-8.6s3-5.5,4.3-7.9s2.3-4.5,3.1-6.1
		l4.7-10h-28.8c-1.5-0.1-3,0.4-4.2,1.4c-1.2,1.1-2,2.5-2.5,4h-0.9L123.3,205.2z"/>
	<path class="st2" d="M183.1,269.2c-4.5,0-8.1-3.6-8-8.1c0-4.5,3.6-8.1,8.1-8s8.1,3.6,8,8.1c0,2.1-0.8,4.1-2.3,5.7
		C187.3,268.4,185.2,269.3,183.1,269.2z"/>
	<path class="st2" d="M219.4,203.9c4.2-0.1,8.3,0.5,12.3,1.8c3,1,5.8,2.8,7.8,5.3c1.9,2.4,2.8,5.3,2.8,8.4c0.1,2.3-0.5,4.5-1.5,6.5
		c-0.9,1.7-2.3,3.2-3.9,4.3c-1.6,1.1-3.4,1.8-5.3,2.1c-1.8,0.3-3.7,0.3-5.4-0.2c2,0,4,0.3,5.9,0.9c2.2,0.6,4.3,1.6,6.1,2.9
		c2,1.4,3.7,3.3,4.8,5.5c1.3,2.7,2,5.7,1.9,8.7c0.1,3.9-0.9,7.7-2.9,11.1c-2,3.2-4.7,5.9-7.9,7.9c-3.4,2.1-7.2,3.6-11.1,4.4
		c-4.2,0.9-8.4,1.1-12.7,0.7s-8.5-1.5-12.5-3.3l0.2-0.9c3.6,0.1,7.1-0.4,10.5-1.4c3.2-0.9,6.1-2.3,8.8-4.3c2.5-1.8,4.5-4.2,6-6.9
		c1.5-2.7,2.3-5.8,2.2-8.9c0.2-3.1-0.7-6.2-2.6-8.8c-1.7-2.1-3.9-3.8-6.4-4.8c-2.4-1-5.1-1.5-7.7-1.5l0.2-0.9
		c5.4,0.2,10.5-2.8,13.2-7.5c1.3-2.4,1.9-5.2,1.5-7.9c-0.1-1.9-0.7-3.8-1.9-5.4c-1-1.3-2.4-2.3-4-2.8s-3.4-0.7-5.1-0.5
		c-3.6,0.3-6.1,1.9-7.6,4.7s-2.2,7.1-2.1,12.7h-0.9l-5.2-15.6c2.7-2.2,5.9-3.7,9.3-4.6C210.5,204.4,215,203.8,219.4,203.9z"/>
	<path class="st1" d="M52.5,46.2h4.3c1-1.3,1.3-1.5,1.4-1.5s0.4,0.1,1.4,1c0.5,0.4,0.6,0.6,0.6,0.7s0,0.2-0.2,0.2h-7.5v0.2
		c0,3.4,0.1,4.9,0.1,6.3c0,0.6-0.4,0.8-1.1,0.8c-0.6,0-0.8-0.2-0.8-0.7s0.1-3.4,0.1-6.4v-0.2h-5.2c-0.6,0-1.2,0-1.7,0.1L43.5,46
		c0.6,0.1,1.3,0.1,1.9,0.2h5.2v-7.1h-4.4c-0.6,0-1.1,0-1.7,0.1l-0.2-0.7c0.6,0.1,1.2,0.1,1.8,0.1h10c0.9-1.1,1.2-1.3,1.3-1.3
		s0.4,0.1,1.3,0.9c0.4,0.3,0.6,0.5,0.6,0.6S59.2,39,59.1,39h-6.7v7.2H52.5z M47.9,45c-0.5,0-0.7-0.2-0.8-1.3
		c-0.2-1.3-0.6-2.5-1.3-3.5c0-0.1,0.1-0.2,0.1-0.2c2,1.1,3,2.4,3,3.7C49,44.5,48.5,45,47.9,45z M57.5,41.3c-1,1.7-2.4,3.1-4,4.2
		c-0.1,0.1-0.2-0.1-0.2-0.2c0.9-1.2,1.7-2.5,2.2-3.9c0.2-0.6,0.4-1.1,0.5-1.7c1.6,0.7,2.2,1,2.2,1.3S58.1,41.3,57.5,41.3L57.5,41.3z
		"/>
	<path class="st1" d="M71.4,42.9c0.5-1,0.9-2.1,1.3-3.2c0.2-0.7,0.4-1.5,0.4-2.2c2,0.5,2.5,0.6,2.5,0.9s-0.2,0.3-0.7,0.4
		c-0.3,0.7-0.7,1.5-1.1,2.2H79c0.7-0.8,0.8-0.9,1-0.9s0.3,0.1,1,0.8c0.3,0.3,0.4,0.4,0.4,0.6s-0.1,0.2-0.6,0.6
		c-0.1,5.3-0.3,7.7-0.8,9.6c-0.1,0.6-0.5,1.1-0.9,1.5c-0.5,0.4-1,0.6-1.6,0.6c-0.4,0-0.4,0-0.5-0.5s-0.6-1-2-1.4
		c-0.1,0-0.1-0.3,0-0.3c1.4,0.1,1.8,0.2,2.1,0.2c0.8,0,1,0,1.2-0.3c0.6-1.2,0.9-3.7,1-10h-5.7c-0.8,1.4-1.9,2.6-3.2,3.6
		c-0.1,0-0.2-0.1-0.2-0.1C70.6,44.3,71,43.7,71.4,42.9C71.3,43,71.2,43,71.1,43h-2v5c0.8-0.3,1.6-0.5,2.3-0.8c0.1,0,0.2,0.1,0.1,0.2
		c-1.5,1.2-3.2,2.3-5,3.2c0,0.6-0.1,0.8-0.4,0.8s-0.6-0.6-1.2-2.2c0.5-0.1,1-0.2,1.5-0.3c0.3-0.1,0.6-0.2,1-0.3V43h-1.2
		c-0.3,0-0.6,0-0.9,0.1l-0.2-0.7c0.3,0.1,0.7,0.1,1,0.2h1.2v-2.9c0-0.9,0-1.6-0.1-2.2c2.2,0.2,2.4,0.4,2.4,0.6s-0.2,0.3-0.7,0.5v3.9
		h0.2c0.5-0.9,0.7-1,0.8-1s0.3,0.1,0.9,0.7C71.2,42.6,71.4,42.8,71.4,42.9L71.4,42.9z M72.4,50.3c0,0.6-0.1,0.8-0.4,0.8
		s-0.5-0.4-1.2-2.2c0.4,0,1-0.1,1.6-0.2c1.9-0.3,3.7-0.8,5.5-1.4c0.1,0,0.2,0.1,0.1,0.2C76.3,48.7,74.4,49.6,72.4,50.3z M75.3,44.7
		c0.7-0.9,0.9-1.1,1.1-1.1s0.3,0.2,1,0.8c0.3,0.3,0.4,0.4,0.4,0.6s-0.1,0.2-0.2,0.2h-4.7c-0.3,0-0.6,0-0.8,0.1l-0.2-0.7
		c0.3,0.1,0.7,0.1,1,0.1C72.9,44.7,75.3,44.7,75.3,44.7z"/>
	<path class="st1" d="M91.7,42.5c0.6-0.6,0.7-0.7,0.9-0.7s0.3,0.1,0.9,0.7c0.3,0.2,0.4,0.4,0.4,0.5s0,0.2-0.4,0.4
		c-1,5.5-2.7,8.1-6.6,10.3c-0.1,0-0.2-0.1-0.1-0.2c1.9-1.7,3.3-3.8,4.1-6.2c-0.1,0.1-0.3,0.2-0.5,0.2c-0.3,0-0.4-0.2-0.5-0.7
		c-0.1-0.7-0.3-1.3-0.7-1.8c-0.6,1-1.4,1.9-2.3,2.6c-0.1,0-0.2-0.1-0.1-0.2c1.5-2.4,2.3-5.2,2.4-8.1h-0.7c-0.4,0-0.8,0-1.2,0.1
		L87,38.8c0.5,0.1,0.9,0.1,1.4,0.1h3.8c0.8-0.9,1-1,1.1-1s0.4,0.1,1.1,0.7c0.3,0.3,0.5,0.4,0.5,0.6s0,0.2-0.2,0.2h-3.8
		c-0.1,1-0.3,2.1-0.6,3.1L91.7,42.5z M90.1,42.9c-0.2,0.6-0.5,1.3-0.8,1.9c0.8,0.3,1.7,0.8,1.9,1.7c0.3-1.2,0.6-2.4,0.7-3.6
		L90.1,42.9z M97.9,44c0.1,0.7,0.2,1.5,0.4,2.3l2.2-0.3c0.7-1.1,0.9-1.2,1-1.2s0.4,0.1,1.2,0.6c0.4,0.2,0.5,0.3,0.5,0.5
		s-0.1,0.2-0.2,0.2l-4.6,0.7c0.2,0.7,0.4,1.3,0.7,1.9c0.5-0.5,0.9-1.1,1.3-1.7c1.4,0.8,1.9,1,1.9,1.3s-0.1,0.3-0.9,0.3
		c-0.5,0.5-1,1-1.5,1.4c0.2,0.2,0.4,0.5,0.6,0.7c0.4,0.5,0.9,0.8,1.4,1.1c0.2,0,0.4-0.2,1.2-2.1c0-0.1,0.2,0,0.2,0.1
		c-0.2,1.4-0.2,2.1-0.2,2.3s0.1,0.3,0.2,0.4c0.2,0.2,0.4,0.4,0.4,0.7c0,0.5-0.4,0.8-0.9,0.8c-1.2-0.2-2.4-0.9-3.2-1.9
		c-0.4-0.4-0.7-0.8-1-1.2c-2.1,1.4-4.6,2.2-7.1,2.4c-0.1,0-0.2-0.2-0.1-0.2c2.4-0.7,4.5-1.8,6.5-3.3c-0.5-0.9-0.8-1.8-1-2.8
		l-2.1,0.3c-0.4,0-0.8,0.1-1.2,0.3L93.3,47c0.6,0,1.1,0,1.4-0.1l2.1-0.3c-0.2-0.9-0.3-1.6-0.4-2.3l-1.1,0.2c-0.4,0-0.8,0.1-1.2,0.3
		L93.8,44c0.5,0,0.9,0,1.4,0l1.1-0.2c-0.1-0.7-0.1-1.5-0.2-2.2L95,41.8c-0.4,0.1-0.7,0.2-1.2,0.2l-0.3-0.6c0.5,0,0.9,0,1.4,0
		l1.2-0.2c0-0.4,0-0.7,0-1.1c0-0.8,0-1.6-0.2-2.4c1.9,0.2,2.3,0.4,2.3,0.6s-0.1,0.3-0.5,0.5c0,0.9,0,1.6,0,2.2l2.4-0.3
		c0.6-0.9,0.7-1,0.9-1s0.4,0.1,1,0.5c0.3,0.2,0.4,0.3,0.4,0.5c0,0.1-0.1,0.2-0.2,0.2l-4.6,0.6c0,0.7,0,1.5,0.1,2.2l1.9-0.3
		c0.7-1,0.8-1.1,0.9-1.1s0.4,0.1,1.1,0.5c0.4,0.2,0.5,0.3,0.5,0.5c0,0.1-0.1,0.2-0.2,0.2L97.9,44z M100,40c-0.3,0-0.4,0-0.7-0.6
		c-0.2-0.4-0.5-0.8-0.9-1.1c-0.1,0,0-0.2,0.1-0.2c1.5,0.1,2.2,0.5,2.2,1.2C100.7,39.7,100.4,40,100,40L100,40z"/>
	<path class="st1" d="M117.3,48.6c0.9,0.7,1.9,1.3,2.9,1.8c1.5,0.6,3.1,0.9,4.7,1c0.1,0,0.1,0.2,0,0.2c-0.7,0.2-0.8,0.4-1.3,1.5
		c0,0.1-0.1,0.2-0.3,0.2c-0.3,0-0.6-0.1-0.8-0.3c-1.1-0.4-2.2-1-3.2-1.7c-0.9-0.7-1.7-1.5-2.3-2.4c0,2.3,0.1,4,0.1,4.5
		s-0.3,0.7-1.1,0.7c-0.5,0-0.7-0.2-0.7-0.6s0.1-2.2,0.1-3.8c-1.9,1.9-4.4,3.2-7.1,3.7c-0.1,0-0.2-0.1-0.1-0.2c2.4-1,4.4-2.6,6-4.6
		H110c-0.4,0-0.8,0-1.3,0.1l-0.2-0.7c0.5,0.1,0.9,0.1,1.4,0.1h5.5v-1.6H112c-0.4,0-0.9,0-1.3,0.1l-0.2-0.7c0.5,0.1,0.9,0.1,1.4,0.1
		h3.6v-1.6H111c-0.4,0-0.9,0-1.3,0.1l-0.2-0.7c0.5,0.1,1,0.1,1.4,0.1h3c-0.2-0.1-0.4-0.3-0.5-0.8c-0.2-0.6-0.5-1.1-0.9-1.5
		c-0.1,0,0-0.2,0.1-0.1c1.6,0.2,2.4,0.8,2.4,1.6c0,0.4-0.3,0.8-0.6,0.9h2.9c0.3-0.5,0.5-1,0.8-1.5c0.1-0.4,0.3-0.7,0.4-1.1
		c1.5,0.5,2,0.8,2,1.1s-0.1,0.3-0.8,0.3c-0.5,0.5-1.1,0.9-1.8,1.3h3c0.8-0.9,1.1-1.1,1.2-1.1s0.4,0.1,1.2,0.8
		c0.3,0.3,0.5,0.4,0.5,0.6s-0.1,0.2-0.2,0.2h-6.4v1.6h2.8c0.8-0.9,1-1,1.1-1s0.4,0.2,1,0.7c0.3,0.2,0.4,0.4,0.4,0.5
		s-0.1,0.2-0.2,0.2h-5.1v1.7h4.5c0.9-1,1.1-1.2,1.3-1.2s0.3,0.1,1.2,0.8c0.4,0.3,0.5,0.5,0.5,0.6s-0.1,0.2-0.2,0.2L117.3,48.6z
		 M113.9,38.7c0-0.4,0-0.9-0.1-1.3c2,0.2,2.2,0.3,2.2,0.6s-0.1,0.2-0.6,0.5V41h1.5v-2.3c0-0.4,0-0.9-0.1-1.3c2,0.2,2.2,0.3,2.2,0.6
		s-0.1,0.2-0.6,0.5V41h0.7c0.4-0.6,0.7-1.3,1-2c0.2-0.4,0.3-0.8,0.4-1.2c1.6,0.7,2.1,1,2.1,1.2s-0.1,0.3-0.8,0.3
		c-0.6,0.7-1.4,1.2-2.2,1.7h2.2c0.8-0.9,1-1,1.2-1s0.4,0.1,1.1,0.7c0.3,0.3,0.5,0.4,0.5,0.6s0,0.2-0.2,0.2H110c-0.4,0-0.9,0-1.3,0.1
		l-0.2-0.7c0.5,0.1,1,0.1,1.5,0.1h4L113.9,38.7z M112,40.6c-0.4,0-0.6-0.2-0.8-0.7c-0.2-0.7-0.5-1.3-1-1.8c-0.1,0,0-0.2,0.1-0.2
		c1.7,0.3,2.6,0.9,2.6,1.7C112.9,40.2,112.5,40.6,112,40.6z"/>
	<path class="st1" d="M132.2,50.9c0,0.5-0.4,0.7-1,0.7s-0.7-0.2-0.7-0.6c0-1.3,0.1-2.6,0.1-7.8c0-1.7,0-3.3-0.1-5
		c0.6,0.3,1.3,0.6,1.9,0.9h1.6c0.6-0.7,0.7-0.8,0.9-0.8s0.3,0.1,1,0.6c0.3,0.2,0.4,0.3,0.4,0.5s-0.1,0.3-0.5,0.6v1.7
		c0,4.5,0.1,7.5,0.1,8.6c0,0.5-0.3,0.7-1,0.7c-0.5,0-0.7-0.1-0.7-0.6v-0.7h-1.9L132.2,50.9z M134.1,39.6h-1.9v4.5h1.9V39.6z
		 M134.1,44.5h-1.9v4.8h1.9V44.5z M141.5,43.5h2.5c0.8-1,1-1.1,1.1-1.1s0.4,0.1,1.2,0.8c0.4,0.3,0.5,0.5,0.5,0.6s-0.1,0.2-0.2,0.2
		h-9.3c-0.4,0-0.7,0-1.1,0.1l-0.2-0.7c0.4,0.1,0.8,0.1,1.2,0.2h2.6v-2.7h-2c-0.3,0-0.7,0-1,0.1l-0.2-0.7c0.4,0.1,0.8,0.1,1.2,0.1
		h2.1v-1.5c0-0.5,0-0.9-0.1-1.4c2.2,0.2,2.4,0.4,2.4,0.6s-0.2,0.3-0.6,0.5v1.9h1.7c0.8-1,1-1.1,1.1-1.1s0.4,0.1,1.2,0.8
		c0.4,0.3,0.5,0.5,0.5,0.6S146,41,145.9,41h-4.3L141.5,43.5z M143.9,49c0,0.7,0.1,2.2,0.1,2.9s-0.1,1-0.4,1.3
		c-0.5,0.4-1.1,0.7-1.7,0.7c-0.1,0-0.3-0.1-0.3-0.2c-0.1-0.9-0.6-1.2-2.1-1.5c-0.1,0-0.1-0.2,0-0.2c0.9,0,1.8,0.1,2.4,0.1
		c0.2,0,0.3,0,0.3-0.3V47h-4.9c-0.4,0-0.7,0-1.1,0.1l-0.2-0.7c0.4,0.1,0.8,0.1,1.2,0.2h5v-0.8c0-0.5,0-1-0.1-1.4
		c1.8,0.2,2.3,0.3,2.3,0.5s-0.2,0.3-0.6,0.5v1.2h0.4c0.7-0.8,0.9-0.9,1-0.9s0.3,0.1,1,0.7c0.2,0.2,0.4,0.4,0.4,0.5s-0.1,0.2-0.2,0.2
		H144L143.9,49z M139.4,51c-0.5,0-0.6-0.3-0.9-1.2c-0.1-0.7-0.5-1.3-1.1-1.8c-0.1-0.1,0-0.2,0.1-0.2c2,0.4,2.8,1,2.8,2
		C140.4,50.6,140.1,51,139.4,51z"/>
	<path class="st1" d="M153.8,43.3v10c0,0.5-0.3,0.7-1,0.7c-0.5,0-0.7-0.2-0.7-0.7c0-1.3,0.1-2.7,0.1-8c0-2.7,0-5.4-0.1-8
		c0.7,0.2,1.3,0.6,1.9,0.9h3.2c0.6-0.7,0.8-0.8,0.9-0.8s0.3,0.1,1,0.6c0.3,0.2,0.4,0.4,0.4,0.5s-0.1,0.3-0.5,0.5v0.7
		c0,1.9,0,3.2,0,3.7s-0.3,0.6-1,0.6c-0.5,0-0.6-0.2-0.6-0.5v-0.2H153.8z M157.3,38.7h-3.5v1.8h3.5V38.7z M157.3,40.9h-3.5v2h3.5
		V40.9z M157.8,50.9v0.6c0,0.5-0.3,0.7-0.9,0.7c-0.5,0-0.7-0.2-0.7-0.6c0-0.6,0.1-1.2,0.1-3.6c0-1.1,0-2.2-0.1-3.4
		c0.6,0.2,1.2,0.5,1.8,0.9h3.4c0.6-0.7,0.7-0.8,0.9-0.8s0.3,0.1,0.9,0.6c0.3,0.2,0.4,0.4,0.4,0.5s-0.1,0.3-0.5,0.5v0.8
		c0,2.1,0,3.6,0,4.1s-0.3,0.7-0.9,0.7c-0.5,0-0.6-0.2-0.6-0.5V51L157.8,50.9z M161.6,45.9h-3.8v2h3.8V45.9z M161.6,48.3h-3.8v2.2
		h3.8V48.3z M162.2,43.3L162.2,43.3c0,0.6-0.3,0.8-0.9,0.8s-0.7-0.2-0.7-0.5c0-0.7,0-1.4,0-4.2c0-0.7,0-1.3-0.1-2
		c0.6,0.3,1.3,0.6,1.9,0.9h3.2c0.6-0.7,0.8-0.8,0.9-0.8s0.3,0.1,1,0.7c0.3,0.3,0.4,0.4,0.4,0.5s-0.1,0.3-0.5,0.5v2.2
		c0,10,0,10.5,0,11c0,0.4-0.1,0.8-0.4,1.1c-0.4,0.4-1,0.6-1.6,0.5c-0.2,0-0.3,0-0.3-0.2c-0.1-0.8-0.4-1.1-1.8-1.5
		c-0.1,0-0.1-0.2,0-0.2c1.1,0.1,1.4,0.1,2.1,0.1c0.2,0,0.2,0,0.2-0.3v-8.5L162.2,43.3z M165.8,38.6h-3.6v1.8h3.6V38.6z M165.8,40.9
		h-3.6v2h3.6V40.9z"/>
	<path class="st1" d="M648.5,253.8c0,3.6-2.1,5.7-4.8,5.7s-4.7-2-4.7-5.5s2.1-5.7,4.7-5.7S648.5,250.4,648.5,253.8z M641.6,253.9
		c0,3.2,0.8,4.9,2.2,4.9s2.2-1.8,2.2-4.9s-0.8-4.9-2.2-4.9S641.6,250.7,641.6,253.9z M643.3,268.2l12.7-20.8l0.9,0.5l-12.8,20.8
		L643.3,268.2z M661,262c0,3.6-2.1,5.7-4.7,5.7s-4.8-2-4.8-5.5s2.2-5.7,4.8-5.7S661,258.5,661,262z M654.1,262.1
		c0,3.1,0.8,4.9,2.2,4.9s2.2-1.8,2.2-4.9s-0.8-4.9-2.2-4.9S654,258.9,654.1,262.1L654.1,262.1z"/>
	<path class="st2" d="M499.7,201.9l0.4,0.6c-6.4,2-11.4,4.2-15.1,6.7c-3.3,2.1-6.1,5-8,8.4c-1.7,3.3-2.8,6.9-3.1,10.6
		c-0.4,4.4-0.6,8.9-0.6,13.4c0,5,0.1,9.1,0.4,12.5c0.1,2.6,0.7,5.1,1.8,7.5c1,1.7,2.8,2.6,4.7,2.5c1.9,0.1,3.8-0.7,5-2.2
		c1.2-1.7,2-3.7,2.3-5.8c0.4-2.5,0.6-5.1,0.6-7.6c0.1-2.7-0.1-5.4-0.6-8c-0.2-1.5-0.8-3-1.6-4.3c-0.6-0.9-1.4-1.5-2.3-1.9
		c-1.2-0.5-2.5-0.6-3.8-0.3c-1.1,0.3-2.1,0.7-3,1.3l-0.7-0.7c0.8-1.9,2.2-3.5,4-4.6c1.9-1.2,4-2,6.3-2.3c2.4-0.4,4.8-0.3,7.1,0.3
		c2.4,0.6,4.7,1.7,6.6,3.2c2.1,1.7,3.7,3.9,4.8,6.4c1.3,3.2,1.8,6.6,1.6,9.9c-0.1,3.9-1.1,7.6-3,11c-2,3.4-5,6.2-8.5,7.9
		c-3.8,1.9-8.7,3-14.6,3.1c-5.1,0.2-10.3-0.8-14.9-3c-4.1-2.1-7.4-5.5-9.3-9.8c-2.1-4.4-3.1-10.1-3.1-16.9
		c-0.1-5.9,0.9-11.7,2.9-17.2c1.8-4.9,4.8-9.2,8.7-12.6c4.2-3.5,9.2-6,14.6-7.2C485.8,201.2,492.8,200.9,499.7,201.9z"/>
	<path class="st2" d="M535.2,203.9c4.2-0.1,8.3,0.5,12.3,1.8c3,1,5.8,2.8,7.8,5.3c1.9,2.4,2.8,5.3,2.7,8.4c0.1,2.3-0.4,4.5-1.5,6.5
		c-0.9,1.7-2.3,3.2-3.9,4.3c-1.6,1.1-3.4,1.8-5.3,2.1c-1.8,0.3-3.7,0.3-5.5-0.2c2,0,4,0.3,5.9,0.9c2.2,0.6,4.3,1.6,6.1,2.9
		c2,1.4,3.7,3.3,4.8,5.5c1.3,2.7,2,5.7,1.9,8.7c0.1,3.9-0.9,7.8-2.9,11.1c-2,3.2-4.7,5.9-7.9,7.9c-3.4,2.1-7.2,3.6-11.1,4.4
		c-4.2,0.9-8.4,1.1-12.7,0.7s-8.5-1.5-12.5-3.3l0.2-0.9c3.6,0.1,7.1-0.4,10.5-1.4c3.2-0.9,6.1-2.3,8.8-4.3c2.5-1.8,4.5-4.2,6-6.9
		c1.5-2.7,2.2-5.8,2.2-8.9c0-3.7-0.8-6.6-2.6-8.8c-1.7-2.1-3.9-3.8-6.4-4.8c-2.4-1-5.1-1.5-7.7-1.5l0.2-0.9
		c5.5,0.2,10.5-2.7,13.2-7.5c1.3-2.4,1.9-5.2,1.5-7.9c-0.1-1.9-0.7-3.8-1.9-5.4c-1-1.3-2.4-2.3-4-2.8s-3.4-0.7-5.1-0.5
		c-3.6,0.3-6.2,1.9-7.7,4.7s-2.2,7.1-2.1,12.7h-0.9l-5.1-15.6c2.7-2.2,5.9-3.7,9.3-4.6C526.3,204.4,530.8,203.8,535.2,203.9z"/>
	<path class="st2" d="M575.5,269.2c-4.5,0-8.1-3.6-8-8.1c0-4.5,3.6-8.1,8.1-8c4.5,0,8.1,3.6,8,8.1c0,2.1-0.8,4.1-2.3,5.7
		C579.8,268.4,577.7,269.3,575.5,269.2z"/>
	<path class="st2" d="M590.1,268l0.1-0.9h1.9c1.3,0,2.6-0.5,3.5-1.4s1.5-2.1,1.4-3.4v-45.6c0-2.3-0.5-4-1.6-4.9
		c-1.2-1-2.8-1.4-4.3-1.4h-1.6v-0.9c1.3-0.1,3-0.2,5.1-0.5s4.4-0.6,6.9-1.1c2.4-0.4,4.8-1,7.2-1.7c2.1-0.6,4-1.4,5.9-2.5h0.9v58.6
		c0,1.3,0.5,2.5,1.5,3.4c0.9,0.9,2.2,1.4,3.5,1.4h1.9v0.9H590.1z"/>
	<path class="st1" d="M403,40.9c-0.4,0.9-0.8,1.7-1.3,2.5h0.1h5.7c0.7-0.7,0.8-0.8,1-0.8s0.3,0.1,1,0.7c0.3,0.3,0.4,0.4,0.4,0.6
		s-0.1,0.2-0.5,0.5v1.2c0,5,0,5.5,0,6.3c0.1,0.6-0.1,1.1-0.6,1.5c-0.4,0.3-0.9,0.5-1.4,0.5c-0.2,0-0.3-0.1-0.3-0.4
		c-0.1-0.7-0.5-1-2.2-1.5c-0.1,0-0.1-0.2,0-0.2c1,0.1,1.6,0.1,2.5,0.1c0.2,0,0.3,0,0.3-0.2v-2.4h-6c0,2,0,3,0,4
		c0,0.5-0.4,0.7-1.1,0.7c-0.5,0-0.7-0.2-0.7-0.5s0.1-2.1,0.1-3.3v-4.5c-1.1,1.1-2.4,2-3.8,2.6c-0.1,0-0.2-0.2-0.1-0.2
		c2.3-1.9,4.1-4.3,5.2-7h-3.4c-0.5,0-1,0-1.5,0.1l-0.2-0.7c0.5,0.1,1.1,0.1,1.6,0.2h3.6c0.4-1,0.7-2.1,0.9-3.1
		c1.8,0.4,2.3,0.6,2.3,0.8s-0.2,0.4-0.8,0.5c-0.2,0.6-0.4,1.2-0.6,1.8h6.1c0.9-1,1.1-1.2,1.2-1.2s0.4,0.1,1.3,0.8
		c0.4,0.3,0.5,0.5,0.5,0.6s0,0.2-0.2,0.2L403,40.9z M407.7,46v-2.2h-6V46H407.7z M401.7,48.8h6v-2.4h-6V48.8z"/>
	<path class="st1" d="M419.9,48.4c-0.4,1.5-1.2,3-2.2,4.2c0,0.1-0.2,0-0.2-0.1c0.3-1.1,0.6-2.2,0.8-3.4c0.1-0.6,0.2-1.3,0.2-2
		c1.7,0.5,2,0.6,2,0.9S420.3,48.3,419.9,48.4z M419.8,44.9c0.6-1,1.2-2,1.7-3c0.4-0.7,0.7-1.4,0.9-2.2c1.5,0.6,2,0.9,2,1.1
		s-0.2,0.3-0.7,0.3c-1,1.4-2.1,2.7-3.3,3.8c0.5,0,1.8,0,2.7-0.1c-0.2-0.5-0.4-0.9-0.7-1.4c-0.1-0.1,0.1-0.1,0.1-0.1
		c0.5,0.3,1,0.6,1.4,1c1.2-1.5,2.2-3.1,2.9-4.9c0.3-0.7,0.5-1.5,0.6-2.2c1.9,0.5,2.3,0.7,2.3,0.9s-0.1,0.3-0.6,0.3
		c0.5,1.1,1.2,2.1,2.1,2.9c0.9,0.8,2,1.4,3.2,1.7c0,0,0.1,0,0.1,0.1s0,0.1-0.1,0.1c-0.5,0.2-0.8,0.7-0.9,1.3
		c-0.1,0.3-0.1,0.4-0.3,0.4c-0.2-0.1-0.4-0.2-0.6-0.4c-0.8-0.6-1.4-1.4-2-2.2c-0.7-1.1-1.3-2.3-1.7-3.5c-1,2.4-2.6,4.4-4.8,5.8
		c0.3,0.3,0.5,0.8,0.5,1.2c0.1,0.5-0.3,0.9-0.7,0.9l0,0c-0.5,0-0.6-0.2-0.7-1.2v-0.2c-0.4,0.1-0.8,0.3-1.1,0.4v2.6
		c0,1.9,0,4.3,0,5.1c0,0.5-0.3,0.7-0.9,0.7s-0.7-0.1-0.7-0.5s0.1-1.6,0.1-3.9V46c-0.5,0.1-1.1,0.2-1.7,0.3c-0.1,0.4-0.2,0.5-0.4,0.5
		s-0.4-0.4-0.7-2c0.5,0,0.6,0,1,0L419.8,44.9z M420.2,38.7c0.1-0.5,0.2-0.9,0.2-1.4c1.5,0.5,2.2,0.8,2.2,1s-0.2,0.3-0.7,0.3
		c-0.6,0.8-1.2,1.6-1.9,2.3c0.5,0.3,0.8,0.8,0.8,1.3c0,0.6-0.4,1-0.8,1s-0.5-0.1-0.8-1.1c-0.1-0.7-0.5-1.4-1-1.9
		c0-0.1,0-0.2,0.1-0.2c0.5,0.2,0.9,0.3,1.4,0.6C419.9,40.1,420.1,39.4,420.2,38.7z M423.5,51.2c-0.4,0-0.6-0.3-0.6-1.5
		c0-0.8-0.2-1.6-0.5-2.4c0,0,0-0.1,0.1-0.1h0.1c1.2,1,1.8,1.9,1.8,2.8C424.3,50.7,424,51.2,423.5,51.2z M426.7,52.6v0.7
		c0,0.5-0.3,0.7-1,0.7c-0.5,0-0.7-0.2-0.7-0.6c0-0.7,0.1-1.5,0.1-4.4c0-0.9,0-1.8-0.1-2.8c0.9,0.4,1,0.5,1.9,0.9h3.7
		c0.7-0.8,0.8-0.9,1-0.9s0.3,0.1,1,0.7c0.3,0.2,0.4,0.4,0.4,0.5s-0.1,0.2-0.5,0.6v0.8c0,2.3,0.1,3.8,0.1,4.3s-0.3,0.7-1,0.7
		c-0.5,0-0.7-0.2-0.7-0.6v-0.7L426.7,52.6z M429.3,44.2c0.6-0.9,0.9-1,1-1s0.4,0.1,1.1,0.7c0.3,0.2,0.5,0.4,0.5,0.5s0,0.2-0.2,0.2
		H427c-0.3,0-0.7,0-1,0.1l-0.2-0.7c0.4,0.1,0.8,0.1,1.2,0.1L429.3,44.2z M430.8,47.5h-4.1v4.6h4.1V47.5z"/>
	<path class="st1" d="M440.8,38.9h-0.4c-0.3,0-0.6,0-1,0.1l-0.2-0.7c0.4,0.1,0.8,0.1,1.2,0.1h6c0.8-0.9,1-1,1.1-1s0.4,0.2,1.1,0.7
		c0.3,0.3,0.5,0.4,0.5,0.5s-0.1,0.2-0.2,0.2h-2.2V44c0,3.4,0,7.7,0,9.1c0,0.6-0.3,0.8-1,0.8s-0.8-0.2-0.8-0.7c0-0.3,0.1-1.4,0.1-3.5
		v-0.6c-1.4,0.9-3,1.6-4.6,2.1c-0.1,0.5-0.3,0.7-0.5,0.7s-0.3,0-0.9-2.2c0.5,0,1.1-0.1,1.6-0.2L440.8,38.9z M442.4,41.9h2.7v-3.1
		h-2.7V41.9z M442.4,45.3h2.7v-2.9h-2.7V45.3z M442.4,49.3c0.9-0.1,1.8-0.3,2.7-0.5v-3h-2.7V49.3z M452.8,40.4c0.7-0.8,0.9-1,1-1
		s0.3,0.1,1,0.7c0.5,0.4,0.5,0.5,0.5,0.7s-0.1,0.3-0.6,0.6c-0.4,2.5-1.3,4.9-2.6,7.1c1.2,1.2,2.6,2.2,4.1,2.9c0.1,0,0,0.2-0.1,0.2
		c-0.5,0.2-0.9,0.6-1,1.2c-0.1,0.4-0.1,0.5-0.3,0.5c-0.3-0.1-0.5-0.2-0.7-0.4c-1.2-0.9-2.2-1.9-3.1-3.1c-1.2,1.4-2.6,2.5-4.2,3.3
		c-0.1,0-0.2-0.2-0.1-0.2c1.4-1.2,2.7-2.7,3.6-4.4l-0.4-0.8c-0.9-2.2-1.5-4.6-1.6-7c-0.4,0-0.8,0-1.1,0.1l-0.2-0.7
		c0.5,0.1,1.1,0.2,1.6,0.2L452.8,40.4z M448.9,40.9c0.3,2.3,1.1,4.5,2.3,6.4c0.9-2.1,1.5-4.2,1.8-6.5L448.9,40.9z"/>
	<path class="st1" d="M463,45.8c-0.7,0.6-1.4,1.1-2.2,1.5c-0.1,0-0.2-0.1-0.1-0.2c1.2-1.2,2.2-2.6,3-4.1c0.3-0.6,0.6-1.3,0.8-1.9
		c1.9,0.8,2,0.8,2,1.1s-0.1,0.2-0.6,0.4c-0.5,0.8-1,1.5-1.7,2.1c0.8,0.1,0.9,0.2,0.9,0.4s-0.1,0.3-0.5,0.4v7.7
		c0,0.5-0.3,0.8-0.9,0.8c-0.4,0-0.8-0.2-0.8-0.7s0.1-1.9,0.1-4.7L463,45.8z M465.7,38.8c-1.3,1.5-2.9,2.8-4.7,3.6
		c-0.1,0-0.2-0.2-0.1-0.2c0.9-0.9,1.7-2,2.4-3.1c0.4-0.6,0.7-1.2,0.9-1.9c1.6,0.7,2.2,1,2.2,1.2S466.2,38.8,465.7,38.8L465.7,38.8z
		 M474.5,49.6c0,0.8,0,1.7,0,2.5c0,0.4-0.2,0.8-0.5,1.1c-0.4,0.4-0.9,0.5-1.4,0.5c-0.3,0-0.4-0.1-0.4-0.3c-0.1-0.7-0.5-0.9-1.9-1.3
		c-0.1,0-0.1-0.3,0-0.3c0.9,0.1,1.5,0.1,2.2,0.1c0.2,0,0.3,0,0.3-0.3V48H467c-0.4,0-0.9,0-1.3,0.1l-0.2-0.7c0.5,0.1,1,0.1,1.5,0.1
		h5.8v-0.4c0-0.5,0-0.7-0.1-1.3c1.9,0.2,2.2,0.3,2.2,0.6s-0.1,0.2-0.5,0.4v0.8h0.7c0.6-0.8,0.9-0.9,1-0.9s0.4,0.2,1,0.7
		c0.3,0.2,0.4,0.4,0.4,0.5s0,0.2-0.2,0.2h-2.8V49.6L474.5,49.6z M474.7,45.3c0.7-0.8,0.9-1,1-1s0.4,0.1,1.1,0.7
		c0.3,0.3,0.5,0.4,0.5,0.5s-0.1,0.2-0.2,0.2h-9.8c-0.4,0-0.8,0-1.3,0.1l-0.2-0.7c0.5,0.1,1,0.1,1.5,0.1L474.7,45.3z M469,43.5
		c0,0.5-0.3,0.7-0.9,0.7s-0.8-0.2-0.8-0.6s0.1-1,0.1-2.9c0-1,0-2.1-0.1-3.1c0.6,0.2,1.2,0.5,1.8,0.9h4.4c0.6-0.7,0.8-0.8,0.9-0.8
		s0.3,0.1,1,0.7c0.3,0.2,0.4,0.4,0.4,0.5s0,0.2-0.5,0.6v0.7c0,1.7,0.1,2.9,0.1,3.3s-0.3,0.8-0.9,0.8s-0.7-0.2-0.7-0.7l0,0L469,43.5z
		 M469.4,51.8c-0.5,0-0.6-0.2-0.8-1c-0.2-0.7-0.5-1.3-1-1.8c0-0.1,0-0.1,0-0.2h0.1c1.8,0.4,2.6,1.1,2.6,1.9
		C470.3,51.2,469.9,51.7,469.4,51.8C469.4,51.7,469.3,51.7,469.4,51.8L469.4,51.8z M473.7,39H469v1.8h4.7V39z M473.7,41.2H469V43
		h4.7V41.2z"/>
	<path class="st1" d="M491.3,49.8c0,1.9,0.1,3.2,0.1,3.6s-0.4,0.6-1,0.6s-0.8-0.1-0.8-0.7s0.1-1.5,0.1-3.6h-5.6
		c-0.4,0-0.9,0-1.3,0.1l-0.2-0.7c0.5,0.1,1,0.1,1.5,0.2h5.6v-0.1c0-0.7,0-1.3-0.1-2c2.1,0.2,2.3,0.3,2.3,0.6s-0.1,0.2-0.6,0.5v1.1
		h4.5c0.9-1.1,1.1-1.3,1.2-1.3s0.4,0.1,1.3,0.9c0.4,0.3,0.6,0.5,0.6,0.6s-0.1,0.2-0.2,0.2L491.3,49.8z M484.2,47.3
		c0,0.5-0.1,0.7-0.3,0.7s-0.5-0.5-1.2-1.9c0.5-0.2,1.1-0.3,1.5-0.5c1.1-0.3,2.2-0.8,3.2-1.3c0.1,0,0.2,0.2,0.2,0.2
		C486.7,45.6,485.5,46.6,484.2,47.3z M489.7,40c1.3,0.5,1.7,0.7,1.7,0.9s0,0.2-0.6,0.2c-0.5,0.5-1,1-1.6,1.4
		c0.4,0.3,0.6,0.7,0.6,1.1c0,0.4-0.3,0.8-0.7,0.8c0,0,0,0-0.1,0c-0.4,0-0.5-0.1-0.8-1c-0.2-0.6-0.6-1.2-1.1-1.7v-0.1h0.1
		c0.5,0.1,1,0.3,1.4,0.5c0.2-0.3,0.3-0.7,0.5-1c0.2-0.4,0.3-0.8,0.4-1.2h-5.4c-0.4,0-0.8,0-1.3,0.1l-0.2-0.7
		c0.5,0.1,0.9,0.1,1.4,0.1h5.4v-1.2c0-0.4,0-0.7-0.1-1.1c2.2,0.2,2.5,0.4,2.5,0.6s-0.2,0.4-0.6,0.5v1.2h4.3c1-1.1,1.2-1.2,1.3-1.2
		s0.4,0.1,1.2,0.8c0.4,0.3,0.5,0.5,0.5,0.6s0,0.2-0.2,0.2L489.7,40z M485.7,44.1c-0.5,0-0.6-0.2-0.9-1.1c-0.2-0.7-0.6-1.4-1.1-1.9
		V41c0,0,0,0,0.1,0c2,0.6,2.9,1.3,2.9,2.2C486.6,43.6,486.2,44,485.7,44.1L485.7,44.1z M492.5,45.9c-0.2-0.4-0.4-0.8-0.7-1.1
		c-0.1-0.1,0-0.2,0.1-0.1c1.5,0.5,2.5,1.3,2.5,2.2c0,0.5-0.4,0.9-0.8,0.9l0,0c-0.4,0-0.5-0.1-0.8-1.1c0-0.1-0.1-0.3-0.1-0.4
		c-1.5,0.5-3.1,0.9-4.7,1.2c-0.1,0.4-0.1,0.5-0.3,0.5s-0.4-0.3-0.8-1.9c0.8,0,1.2,0,1.8,0c0.8-0.9,1.6-1.9,2.3-3
		c0.3-0.5,0.6-1,0.8-1.5c1.5,0.8,1.8,1,1.8,1.2s0,0.2-0.8,0.2c-1.1,1.1-2.2,2.1-3.4,3C490.5,46,491.5,46,492.5,45.9L492.5,45.9z
		 M497,42.2c-1,0.9-2.2,1.6-3.4,2.1c-0.1,0-0.2-0.1-0.2-0.2c0.7-0.7,1.3-1.4,1.8-2.2c0.3-0.4,0.5-0.8,0.7-1.3c1.4,0.7,1.8,1,1.8,1.2
		S497.5,42.2,497,42.2z M496.9,47.6c-0.5,0-0.6-0.2-1.1-1c-0.4-0.7-1-1.4-1.7-1.8c-0.1,0,0-0.2,0.1-0.2c2.4,0.4,3.6,1.1,3.6,2.1
		C497.8,47.2,497.4,47.6,496.9,47.6L496.9,47.6L496.9,47.6z"/>
	<path class="st1" d="M1004.7,253.8c0,3.6-2.1,5.7-4.8,5.7s-4.7-2-4.7-5.5s2.1-5.7,4.7-5.7S1004.7,250.4,1004.7,253.8z M997.7,253.9
		c0,3.2,0.8,4.9,2.2,4.9s2.2-1.7,2.2-4.9s-0.8-4.9-2.2-4.9S997.8,250.7,997.7,253.9L997.7,253.9z M999.4,268.2l12.8-20.8l0.9,0.5
		l-12.8,20.8L999.4,268.2z M1017.1,262c0,3.6-2.1,5.7-4.7,5.7s-4.8-2-4.8-5.5s2.2-5.7,4.8-5.7S1017.1,258.5,1017.1,262L1017.1,262z
		 M1010.1,262.1c0,3.1,0.8,4.9,2.2,4.9s2.2-1.8,2.2-4.9s-0.8-4.9-2.2-4.9S1010.2,258.9,1010.1,262.1L1010.1,262.1z"/>
	<path class="st2" d="M822.1,268l0.1-0.9h1.8c1.3,0,2.6-0.5,3.5-1.4s1.5-2.1,1.4-3.4v-45.6c0-2.3-0.5-4-1.6-4.9
		c-1.2-1-2.8-1.4-4.3-1.4h-1.6v-0.9c1.3-0.1,3-0.2,5.1-0.5s4.4-0.6,6.9-1.1c2.4-0.4,4.8-1,7.2-1.7c2.1-0.6,4-1.4,5.9-2.5h0.9v58.6
		c0,1.3,0.5,2.5,1.5,3.4c0.9,0.9,2.2,1.4,3.5,1.4h1.9v0.9H822.1z"/>
	<path class="st2" d="M887.9,203.7c5.3-0.2,10.5,1.3,15,4.1c4.2,2.8,7.5,6.8,9.5,11.4c4.4,11,4.4,23.4,0,34.4
		c-2,4.7-5.3,8.6-9.5,11.5c-9.3,5.5-20.7,5.5-30,0c-4.2-2.8-7.6-6.8-9.6-11.5c-4.4-11-4.4-23.4,0-34.4c2-4.7,5.4-8.6,9.6-11.4
		C877.5,205,882.7,203.6,887.9,203.7z M887.9,208.2c-3.1,0-5.4,2.3-6.8,6.9c-1.4,4.6-2.2,11.7-2.2,21.4s0.7,16.8,2.2,21.4
		c1.4,4.6,3.7,6.9,6.8,6.9s5.4-2.3,6.8-6.9s2.2-11.7,2.2-21.4s-0.7-16.8-2.2-21.4S891,208.2,887.9,208.2z"/>
	<path class="st2" d="M950,203.7c5.3-0.2,10.5,1.3,15,4.1c4.2,2.8,7.5,6.8,9.5,11.4c4.4,11,4.4,23.4,0,34.4c-2,4.7-5.3,8.6-9.5,11.5
		c-9.3,5.5-20.7,5.5-30,0c-4.2-2.8-7.6-6.8-9.6-11.5c-4.4-11-4.4-23.4,0-34.4c2-4.7,5.4-8.6,9.6-11.4
		C939.5,205,944.7,203.6,950,203.7z M950,208.2c-3.1,0-5.4,2.3-6.8,6.9c-1.4,4.6-2.2,11.7-2.2,21.4s0.7,16.8,2.2,21.4
		c1.4,4.6,3.7,6.9,6.8,6.9s5.4-2.3,6.8-6.9c1.4-4.6,2.2-11.7,2.2-21.4s-0.7-16.8-2.2-21.4C955.4,210.5,953.1,208.2,950,208.2z"/>
	<path class="st1" d="M769.4,40c-0.7,0.9-1.4,1.7-2.2,2.4c2.3,0,4.5,0,6.8-0.2c-0.5-0.5-1.2-1-1.8-1.4c-0.1,0,0-0.2,0.1-0.2
		c2.9,0.4,4.7,1.5,4.7,2.7c0,0.5-0.4,1-0.9,1c-0.3,0-0.6-0.2-0.9-0.7s-0.5-0.8-0.8-1.1c-3.3,0.8-6.6,1.3-10,1.5
		c-0.1,0.5-0.2,0.5-0.4,0.5s-0.4-0.2-0.8-2.3c1.1,0.1,2.2,0.1,3.3,0.1c0.3-0.8,0.6-1.6,0.8-2.4h-3.6c-0.4,0-0.8,0-1.3,0.1l-0.2-0.7
		c0.5,0.1,1,0.1,1.4,0.2h5.6v-1.3c0-0.3,0-0.7-0.1-1c2.2,0.2,2.5,0.4,2.5,0.6s-0.2,0.4-0.7,0.5v1.3h4.3c0.9-1.1,1.2-1.2,1.3-1.2
		s0.3,0.2,1.2,0.8c0.4,0.3,0.5,0.5,0.5,0.6s0,0.2-0.2,0.2L769.4,40z M766.4,49.9c0,1.7,0,2.6,0,3.5c0,0.5-0.4,0.7-1.1,0.7
		c-0.5,0-0.7-0.2-0.7-0.7c0-1,0.1-1.9,0.1-5.8c0-1.2,0-2.3-0.1-3.5c0.7,0.2,1.4,0.5,2,0.9h6.6c0.6-0.7,0.7-0.8,0.9-0.8
		s0.3,0.1,1.1,0.7c0.3,0.3,0.5,0.4,0.5,0.6s-0.1,0.3-0.5,0.6V47c0,4.2,0,4.5,0,5.3c0,0.6-0.3,1.2-0.8,1.4c-0.4,0.2-0.8,0.3-1.3,0.3
		c-0.1,0-0.2-0.1-0.3-0.5s-0.4-0.8-2-1.3c-0.1,0-0.1-0.2,0-0.2c1.1,0.1,1.6,0.1,2.4,0.1c0.2,0,0.2-0.1,0.2-0.2v-2L766.4,49.9z
		 M773.3,45.3h-6.9v1.9h6.9V45.3z M766.4,49.5h6.9v-2h-6.9V49.5z"/>
	<path class="st1" d="M790.3,47.8c-0.5,3.8-2.3,5.4-6.6,6.1c-0.1,0-0.2-0.2-0.1-0.2c2.6-0.9,4-2.1,4.6-4.1c0.2-0.9,0.3-1.9,0.3-2.8
		c2.3,0.3,2.3,0.4,2.3,0.6S790.7,47.5,790.3,47.8z M787.1,40c0,3.3,0.1,5.5,0.1,6.2c0,0.6-0.3,0.8-1,0.8c-0.6,0-0.8-0.2-0.8-0.7
		s0.1-2.2,0.1-5.5c0-1,0-2.1-0.1-3.1c2.3,0.3,2.3,0.3,2.3,0.6s-0.1,0.3-0.5,0.4L787.1,40z M791.3,45.6v0.2c0,0.5-0.3,0.7-0.9,0.7
		s-0.8-0.2-0.8-0.5c0-0.9,0.1-1.8,0.1-5.5c0-0.8,0-1.7-0.1-2.6c0.6,0.2,1.2,0.5,1.8,0.9h4.6c0.7-0.7,0.8-0.8,1-0.8s0.3,0.1,1,0.7
		c0.3,0.2,0.4,0.4,0.4,0.5s0,0.2-0.5,0.6v1c0,2.7,0.1,4.5,0.1,5.2s-0.3,0.7-1,0.7c-0.5,0-0.7-0.2-0.7-0.7v-0.2L791.3,45.6z
		 M796.3,39.1h-5v2.8h5V39.1z M796.3,42.3h-5v2.9h5V42.3z M793.9,51.3c0,0.8,0.2,0.9,1.5,0.9c1.5,0,2.1-0.1,2.4-0.4s0.5-0.5,1.1-2.3
		c0-0.1,0.2-0.1,0.2,0c0,0.6-0.1,1.7-0.1,1.9s0,0.3,0.3,0.5c0.3,0.1,0.4,0.4,0.4,0.7c0,0.5-0.3,0.8-1,1c-1.1,0.2-2.2,0.3-3.3,0.3
		c-2.7,0-3.2-0.4-3.2-1.7c0-0.5,0-1.1,0-2.7c0-1,0-1.7-0.1-2.6c2.2,0.2,2.3,0.3,2.3,0.6s-0.2,0.3-0.6,0.5L793.9,51.3z"/>
	<path class="st1" d="M806.9,44.4c-0.6,0.7-1.3,1.4-2,2c-0.1,0-0.2-0.1-0.2-0.2c1.3-1.8,2.4-3.8,3-6c0.3-1,0.5-2,0.7-3
		c1.6,0.5,2.4,0.8,2.4,1s-0.2,0.3-0.6,0.4c-0.5,1.5-1.2,3-2.1,4.3c0.8,0.1,1,0.2,1,0.4s-0.1,0.3-0.5,0.4v9.4c0,0.5-0.3,0.8-0.9,0.8
		c-0.4,0-0.8-0.2-0.8-0.7s0.1-1.9,0.1-4.7L806.9,44.4z M815.8,43.6c0,4.3,0.1,7,0.1,9.6c0,0.5-0.3,0.7-1.1,0.7
		c-0.6,0-0.8-0.2-0.8-0.5c0-0.9,0.1-4.8,0.1-8.3c-1.3,2.2-3.1,4.1-5.3,5.5c-0.1,0-0.2-0.1-0.2-0.2c2.2-2.3,3.8-5,4.8-8h-2.8
		c-0.4,0-0.7,0-1.1,0.1l-0.2-0.7c0.4,0.1,0.8,0.1,1.2,0.1h3.5v-2.3c0-0.8,0-1.5-0.1-2.3c2.4,0.3,2.4,0.3,2.4,0.6s-0.2,0.3-0.6,0.5
		V42h2.8c0.8-1.1,1.1-1.2,1.2-1.2s0.3,0.1,1.2,0.8c0.4,0.3,0.5,0.5,0.5,0.6s-0.1,0.2-0.2,0.2h-5.3c0.6,1.4,1.4,2.6,2.4,3.7
		c1.1,1.1,2.4,2.1,3.8,2.7c0.1,0,0.1,0.2,0,0.2c-0.4,0.1-0.8,0.4-1,1.1c-0.2,0.4-0.2,0.5-0.4,0.5s-0.4-0.2-0.6-0.3
		c-1-0.9-1.8-1.9-2.4-3c-0.8-1.3-1.4-2.8-1.8-4.4L815.8,43.6z"/>
	<path class="st1" d="M835.6,48.6c0.9,0.7,1.9,1.3,2.9,1.8c1.5,0.6,3.1,0.9,4.7,1c0.1,0,0.1,0.2,0,0.2c-0.7,0.2-0.8,0.4-1.3,1.5
		c0,0.1-0.1,0.2-0.3,0.2c-0.3,0-0.6-0.1-0.8-0.3c-1.1-0.4-2.2-1-3.2-1.7c-0.9-0.7-1.7-1.5-2.3-2.4c0,2.3,0.1,4,0.1,4.5
		s-0.3,0.7-1.1,0.7c-0.5,0-0.7-0.2-0.7-0.6s0.1-2.2,0.1-3.8c-1.9,1.9-4.4,3.2-7.1,3.7c-0.1,0-0.2-0.1-0.1-0.2c2.4-1,4.4-2.6,6-4.6
		h-4.2c-0.4,0-0.8,0-1.3,0.1l-0.2-0.7c0.5,0.1,0.9,0.1,1.4,0.1h5.5v-1.6h-3.5c-0.4,0-0.9,0-1.3,0.1l-0.2-0.7
		c0.5,0.1,0.9,0.1,1.4,0.1h3.6v-1.6h-4.5c-0.4,0-0.9,0-1.3,0.1l-0.2-0.7c0.5,0.1,1,0.1,1.5,0.1h3c-0.2-0.1-0.4-0.3-0.5-0.8
		c-0.2-0.6-0.5-1.1-0.9-1.5c-0.1,0,0-0.2,0.1-0.1c1.6,0.2,2.5,0.8,2.5,1.6c0,0.4-0.3,0.8-0.6,0.9h2.9c0.3-0.5,0.5-1,0.8-1.5
		c0.1-0.4,0.3-0.7,0.4-1.1c1.5,0.5,2,0.8,2,1.1s-0.1,0.3-0.8,0.3c-0.5,0.5-1.1,0.9-1.8,1.3h3c0.8-0.9,1.1-1.1,1.2-1.1
		s0.4,0.1,1.2,0.8c0.3,0.3,0.5,0.4,0.5,0.6s-0.1,0.2-0.2,0.2h-6.4v1.6h2.8c0.8-0.9,1-1,1.1-1s0.4,0.2,1,0.7c0.3,0.2,0.5,0.4,0.5,0.5
		s0,0.2-0.2,0.2h-5.2v1.7h4.5c0.9-1,1.1-1.2,1.3-1.2s0.3,0.1,1.2,0.8c0.4,0.3,0.5,0.5,0.5,0.6s-0.1,0.2-0.2,0.2L835.6,48.6z
		 M832.2,38.7c0-0.4,0-0.9-0.1-1.3c2,0.2,2.2,0.3,2.2,0.6s-0.2,0.2-0.6,0.5V41h1.5v-2.3c0-0.4,0-0.9-0.1-1.3c2,0.2,2.2,0.3,2.2,0.6
		s-0.1,0.2-0.6,0.5V41h0.7c0.4-0.6,0.7-1.3,1-2c0.2-0.4,0.3-0.8,0.4-1.2c1.6,0.7,2.1,1,2.1,1.2s-0.1,0.3-0.8,0.3
		c-0.6,0.7-1.4,1.2-2.2,1.7h2.1c0.8-0.9,1-1,1.2-1s0.4,0.1,1.1,0.7c0.3,0.3,0.5,0.4,0.5,0.6s0,0.2-0.2,0.2h-14.5
		c-0.4,0-0.9,0-1.3,0.1l-0.2-0.7c0.5,0.1,1,0.1,1.5,0.1h4L832.2,38.7z M830.3,40.6c-0.4,0-0.6-0.2-0.8-0.7c-0.2-0.7-0.5-1.3-1-1.8
		c-0.1,0,0-0.2,0.1-0.2c1.7,0.3,2.6,0.9,2.6,1.7C831.2,40.2,830.8,40.6,830.3,40.6L830.3,40.6z"/>
	<path class="st1" d="M857.1,49.8c0,1.9,0,3.2,0,3.6s-0.4,0.6-1,0.6s-0.8-0.1-0.8-0.7s0.1-1.5,0.1-3.6h-5.6c-0.4,0-0.9,0-1.3,0.1
		l-0.2-0.7c0.5,0.1,1,0.1,1.5,0.2h5.6v-0.1c0-0.7,0-1.3-0.1-2c2.1,0.2,2.3,0.3,2.3,0.6s-0.1,0.2-0.6,0.5v1.1h4.5
		c0.9-1.1,1.1-1.3,1.2-1.3s0.4,0.1,1.3,0.9c0.4,0.3,0.5,0.5,0.5,0.6s0,0.2-0.2,0.2L857.1,49.8z M850,47.3c0,0.5-0.1,0.7-0.3,0.7
		s-0.5-0.5-1.2-1.9c0.5-0.2,1.1-0.3,1.5-0.5c1.1-0.3,2.2-0.8,3.2-1.3c0.1,0,0.2,0.2,0.2,0.2C852.5,45.6,851.3,46.6,850,47.3z
		 M855.5,40c1.3,0.5,1.7,0.7,1.7,0.9s0,0.2-0.6,0.2c-0.5,0.5-1,1-1.5,1.4c0.4,0.3,0.6,0.7,0.6,1.1c0,0.4-0.3,0.8-0.7,0.8
		c0,0,0,0-0.1,0c-0.4,0-0.5-0.1-0.8-1c-0.2-0.6-0.6-1.2-1.1-1.7v-0.1h0.1c0.5,0.1,1,0.3,1.4,0.5c0.2-0.3,0.3-0.7,0.5-1
		C855.2,40.7,855.3,40.3,855.5,40l-5.5-0.1c-0.4,0-0.8,0-1.3,0.1l-0.2-0.7c0.5,0.1,0.9,0.1,1.4,0.1h5.4v-1.2c0-0.4,0-0.7-0.1-1.1
		c2.2,0.2,2.5,0.4,2.5,0.6s-0.2,0.4-0.6,0.5v1.2h4.3c1-1.1,1.2-1.2,1.3-1.2s0.3,0.1,1.2,0.8c0.4,0.3,0.5,0.5,0.5,0.6s0,0.2-0.2,0.2
		L855.5,40z M851.5,44.1c-0.5,0-0.6-0.2-0.9-1.1c-0.2-0.7-0.6-1.4-1.2-1.9V41c0,0,0,0,0.1,0c2,0.6,2.9,1.3,2.9,2.2
		C852.4,43.6,852,44,851.5,44.1L851.5,44.1z M858.3,45.9c-0.2-0.4-0.4-0.8-0.7-1.1c0-0.1,0-0.2,0.1-0.1c1.5,0.5,2.5,1.3,2.5,2.2
		c0,0.5-0.4,0.9-0.8,0.9l0,0c-0.4,0-0.5-0.1-0.8-1.1c0-0.2-0.1-0.3-0.1-0.4c-1.5,0.5-3.1,0.9-4.7,1.2c-0.1,0.4-0.2,0.5-0.3,0.5
		s-0.4-0.3-0.8-1.9c0.8,0,1.2,0,1.8,0c0.9-0.9,1.6-1.9,2.3-3c0.3-0.5,0.5-1,0.8-1.5c1.5,0.8,1.8,1,1.8,1.2s0,0.2-0.8,0.2
		c-1.1,1.1-2.2,2.1-3.4,3C856.2,46,857.3,46,858.3,45.9L858.3,45.9z M862.8,42.1c-1,0.9-2.2,1.6-3.4,2.1c-0.1,0-0.2-0.1-0.2-0.2
		c0.7-0.6,1.3-1.4,1.8-2.1c0.3-0.4,0.5-0.8,0.7-1.3c1.4,0.7,1.8,1,1.8,1.2S863.3,42.2,862.8,42.1L862.8,42.1z M862.7,47.6
		c-0.5,0-0.6-0.2-1.1-1c-0.4-0.7-1-1.4-1.7-1.8c-0.1,0,0-0.2,0.1-0.2c2.4,0.4,3.6,1.1,3.6,2.1C863.6,47.2,863.2,47.6,862.7,47.6
		L862.7,47.6L862.7,47.6z"/>
	<path class="st1" d="M879.8,50.2c-2.2,1.9-4.8,3.1-7.6,3.8c-0.1,0-0.2-0.2-0.1-0.2c2.5-1.1,4.8-2.7,6.7-4.6c-1.6-2.3-2.7-5-3-7.8
		c-0.1,2.4-0.6,4.8-1.4,7c-0.9,2.3-2.5,4.2-4.6,5.4c-0.1,0-0.2-0.1-0.1-0.2c1.5-1.6,2.7-3.5,3.3-5.6c0.8-2.9,1.1-6,1-9h-1.8
		c-0.5,0-0.9,0-1.4,0.1l-0.2-0.7c0.5,0.1,1,0.2,1.5,0.2h7.2c0.6-0.8,0.8-0.9,0.9-0.9s0.3,0.1,1.1,0.8c0.3,0.3,0.5,0.5,0.5,0.6
		s-0.2,0.4-0.6,0.5c-0.3,1.1-0.6,2.2-1,3.2h2c0.7-0.8,0.8-0.9,0.9-0.9s0.3,0.1,1.1,0.7c0.4,0.3,0.5,0.5,0.5,0.7s-0.2,0.3-0.6,0.4
		c-0.7,2-1.8,3.8-3.2,5.4c1.7,1.3,3.7,2.3,5.8,2.8c0.1,0,0.1,0.2,0,0.2c-0.8,0.3-1,0.5-1.2,1.4c0,0.2-0.1,0.3-0.2,0.3
		c-0.4-0.1-0.9-0.3-1.2-0.5c-1.4-0.9-2.8-1.9-4-3L879.8,50.2z M875.8,40.1c0.5,3,1.9,5.7,3.9,8c1.2-1.4,2-3.1,2.6-4.8H880v0.1
		c-0.1,0.4-0.5,0.6-0.9,0.6c-0.6,0-0.9-0.2-0.9-0.5c0-0.2,0.1-0.4,0.2-0.7c0.5-1.2,0.8-2.5,1.1-3.8h-3.7
		C875.8,39.3,875.8,39.6,875.8,40.1L875.8,40.1z"/>
	<path class="st1" d="M902.3,43.8c0,0.6,0,1.1,0,1.6c0.1,1.2,0,2.3-0.3,3.4c-0.7,2.6-2.4,4.3-5,4.3c-1.3,0.1-2.5-0.4-3.3-1.4
		c-0.7-1-1.1-2.2-1.1-3.4c0.1-2.4,0.9-4.7,2.4-6.6c-0.3,0-0.9,0-1.1,0c-0.6,0-1.2-0.2-1.5-0.7c-0.2-0.3-0.4-0.7-0.4-1.1
		c0-0.1,0-0.2,0.2-0.2s0.2,0.1,0.2,0.2c0.3,0.5,0.5,0.6,1.2,0.6c0.8,0,1.7-0.2,2.5-0.5c0.2-0.1,0.4-0.2,0.5-0.3
		c0.2-0.1,0.4-0.2,0.6-0.2c0.5,0.1,0.9,0.4,1.2,0.8c0.1,0.1,0.1,0.2,0.1,0.3c0,0.2-0.1,0.4-0.4,0.5c-0.4,0.2-0.8,0.4-1.2,0.8
		c-0.8,0.7-1.4,1.5-2,2.4c-0.7,1.2-1.1,2.5-1.2,3.9c-0.1,0.9,0.2,1.8,0.8,2.5c0.7,0.7,1.6,1,2.5,0.9c3.2,0,4.2-2.7,4.6-5.4
		c0.1-1,0.2-1.9,0.1-2.9c0-0.7-0.2-1.5-0.5-2.1c-0.1-0.2-0.2-0.5-0.2-0.8c0-0.4,0.4-0.6,0.9-0.6c0.4,0,0.7,0.3,0.7,0.7l0,0
		c0,0.6,0,1.2,0.2,1.7c0.3,0.8,0.7,1.6,1.3,2.3c0.5,0.6,1,1.2,1.6,1.7c0.4,0.3,0.6,0.7,0.6,1.2c0,0.3-0.1,0.5-0.3,0.7
		c-0.1,0.1-0.3,0.2-0.5,0.2c-0.3,0-0.8-0.3-1.5-1.2s-1.3-2-1.7-3.1L902.3,43.8z M905.1,39.8c0.4,0.2,0.6,0.6,0.7,1.1
		c0,0.3-0.3,0.6-0.6,0.6l0,0c-0.3,0-0.5-0.2-0.6-0.4c-0.3-0.6-0.7-1.1-1.1-1.6c-0.1-0.1-0.2-0.2-0.2-0.2s0-0.1,0.1-0.1s0.2,0,0.3,0
		C904.2,39.2,904.7,39.4,905.1,39.8L905.1,39.8z M906.8,38.5c0.4,0.2,0.6,0.5,0.6,0.9c0,0.3-0.2,0.6-0.5,0.7l0,0
		c-0.3,0-0.5-0.1-0.7-0.4c-0.3-0.5-0.7-1-1.3-1.4c-0.1-0.1-0.2-0.2-0.2-0.2s0-0.1,0.1-0.1s0.2,0,0.3,0
		C905.7,38,906.3,38.2,906.8,38.5L906.8,38.5z"/>
	<path class="st1" d="M914.1,46.1c-0.6,0.6-1.3,1.1-2.1,1.5c-0.1,0.1-0.2-0.1-0.1-0.2c1.2-1.3,2.1-2.7,2.9-4.3
		c0.3-0.6,0.6-1.3,0.7-1.9c1.7,0.7,2,0.9,2,1.1s-0.1,0.3-0.6,0.4c-0.4,0.8-1,1.5-1.6,2.2c0.8,0.1,0.9,0.2,0.9,0.4s-0.1,0.3-0.5,0.4
		v7.6c0,0.5-0.3,0.8-0.9,0.8c-0.4,0-0.8-0.2-0.8-0.6s0.1-1.9,0.1-4.8L914.1,46.1z M916.8,38.8c-1.2,1.6-2.7,2.9-4.5,3.8
		c-0.1,0-0.2-0.1-0.1-0.2c0.9-0.9,1.7-2,2.3-3.1c0.4-0.6,0.6-1.3,0.8-2c1.4,0.5,2.2,0.9,2.2,1.2S917.3,38.8,916.8,38.8z M921,46.1
		c1.3,0.4,1.7,0.5,1.7,0.7s-0.1,0.2-0.7,0.4c-0.1,0.2-0.2,0.3-0.3,0.5h3c0.7-0.6,0.8-0.8,0.9-0.8s0.3,0.1,1,0.7
		c0.3,0.3,0.4,0.4,0.4,0.6s-0.2,0.3-0.8,0.5c-0.7,0.9-1.4,1.6-2.3,2.3c1.6,0.7,3.4,1,5.2,1c0.1,0,0.1,0.2,0,0.2
		c-0.6,0.2-1,0.7-1.1,1.3c0,0.3-0.1,0.4-0.3,0.4c-0.3,0-0.6-0.1-0.9-0.2c-1.4-0.4-2.8-1.1-3.9-2c-2,1.2-4.3,2-6.7,2.2
		c-0.1,0-0.2-0.2-0.1-0.2c2.1-0.6,4.1-1.6,5.9-2.9c-0.5-0.6-1-1.2-1.3-1.9c-1.1,1.2-2.6,2.1-4.1,2.7c-0.1,0-0.2-0.1-0.1-0.2
		c1.3-1,2.5-2.2,3.4-3.5c0.4-0.5,0.7-1.1,0.8-1.8h-0.3c0,0.5-0.3,0.6-0.9,0.6s-0.7-0.2-0.7-0.5s0.1-1,0.1-2.9c0-0.3,0-0.8,0-1.2
		c-0.4,0.4-0.8,0.8-1.2,1.1c-0.1,0-0.2,0-0.1-0.1c0.7-1.2,1.3-2.5,1.8-3.8c0.2-0.6,0.4-1.2,0.5-1.8c1.8,0.5,2.2,0.7,2.2,1
		s-0.1,0.3-0.8,0.4c-0.1,0.3-0.3,0.6-0.5,0.8h5.2c0.9-1.1,1.1-1.2,1.2-1.2s0.3,0.1,1.2,0.8c0.3,0.3,0.5,0.5,0.5,0.6s0,0.2-0.2,0.2
		h-8.1c-0.2,0.4-0.5,0.7-0.8,1.1c0.3,0.1,0.6,0.3,0.8,0.5h4.7c0.5-0.6,0.7-0.7,0.8-0.7s0.3,0.1,1,0.6c0.3,0.2,0.4,0.4,0.4,0.5
		s-0.1,0.3-0.5,0.5V43c0,1.5,0.1,2.5,0.1,2.9c0,0.5-0.3,0.7-0.9,0.7c-0.4,0-0.7-0.1-0.7-0.5L921,46.1z M925.2,42h-4.9v1.6h4.9V42z
		 M925.2,44h-4.9v1.7h4.9V44z M921.3,48.1c-0.2,0.2-0.3,0.4-0.4,0.5c0.5,0.6,1.1,1.2,1.8,1.6c0.7-0.6,1.4-1.3,2-2.1H921.3z"/>
	<path class="st1" d="M938.6,40.2c0,6.2-0.3,8.3-1.3,10.2c-0.7,1.4-1.8,2.5-3.1,3.3c-0.1,0.1-0.3-0.1-0.2-0.2c1-1.1,1.7-2.3,2.2-3.7
		c0.7-1.9,0.9-3.6,0.9-8c0-1.4,0-2.9-0.2-4.3c2.2,0.3,2.4,0.3,2.4,0.6s-0.1,0.3-0.6,0.5L938.6,40.2z M935.8,42.1c0,2.8,0,4.3,0,4.8
		s-0.3,0.6-0.9,0.6s-0.7-0.2-0.7-0.7s0.1-1.6,0.1-4.7c0-0.8,0-1.5-0.1-2.3c1.9,0.2,2.1,0.3,2.1,0.5s-0.1,0.3-0.5,0.5L935.8,42.1z
		 M948,44.6c0.7-0.8,0.8-0.9,1-0.9s0.3,0.1,1.2,0.9c0.4,0.4,0.5,0.5,0.5,0.7c0,0.3-0.1,0.4-1,0.3c-0.2,0-0.3,0-0.5,0.2
		c-0.4,0.2-0.7,0.4-1.1,0.6c-0.1,0-0.2,0-0.1-0.1c0.2-0.4,0.3-0.9,0.3-1.3h-8c0,0.2,0,0.3,0,0.5c0,0.4-0.1,0.7-0.2,1.1
		c0.5,0.2,0.8,0.4,1.4,0.7h1.9c0-0.6,0-1.3-0.1-1.9c2.2,0.2,2.2,0.3,2.2,0.5s-0.1,0.3-0.6,0.5v0.9h2c0.6-0.7,0.8-0.8,0.9-0.8
		s0.3,0.1,1,0.7c0.3,0.2,0.4,0.4,0.4,0.5s-0.1,0.3-0.5,0.5v0.5c0,1.7,0,2,0,2.3c0.1,0.5-0.2,1.1-0.7,1.4c-0.3,0.1-0.7,0.2-1,0.2
		c-0.2,0-0.3-0.1-0.3-0.4c-0.1-0.5-0.4-0.8-1.3-1c-0.1,0-0.1-0.2,0-0.2c0.6,0,1,0,1.5,0c0.2,0,0.2,0,0.2-0.2v-3.1H945
		c0,3,0.1,5,0.1,5.7c0,0.5-0.3,0.7-1,0.7s-0.7-0.1-0.7-0.6s0.1-2.3,0.1-5.7h-2v4.1c0,0.5-0.3,0.8-0.9,0.8s-0.7-0.2-0.7-0.5
		s0.1-0.9,0.1-2.8c0-0.8,0-1.5,0-2.2c-0.2,0.1-0.4,0.2-0.6,0.2c-0.5,0-0.8-0.4-0.8-0.8c0,0,0,0,0-0.1c0-0.3,0.1-0.5,0.5-0.8
		c0.6-0.4,0.9-1.1,0.8-1.8c0-0.1,0.2-0.2,0.2-0.1c0.1,0.3,0.2,0.6,0.3,0.9L948,44.6z M946.9,38.8h-5.5c-0.4,0-0.7,0.1-1.1,0.2
		l-0.2-0.7c0.4,0.1,0.8,0.1,1.3,0.2h5.3c0.7-0.8,0.8-0.9,0.9-0.9s0.3,0.1,1,0.7c0.3,0.3,0.4,0.4,0.4,0.5s-0.1,0.2-0.6,0.6V40
		c0,1.6,0.1,2.6,0.1,3c0,0.5-0.3,0.7-1,0.7c-0.5,0-0.7-0.2-0.7-0.6h-5.6c-0.3,0-0.7,0-1,0.1l-0.2-0.7c0.4,0.1,0.8,0.1,1.2,0.1h5.6
		v-1.7h-5.1c-0.3,0-0.7,0-1,0.1l-0.2-0.7c0.4,0.1,0.8,0.1,1.2,0.1h5.2L946.9,38.8z"/>
	<path class="st1" d="M964.3,49.8c0,1.9,0.1,3.2,0.1,3.6s-0.4,0.6-1,0.6s-0.8-0.1-0.8-0.7s0.1-1.5,0.1-3.6h-5.6
		c-0.4,0-0.9,0-1.3,0.1l-0.2-0.7c0.5,0.1,1,0.1,1.5,0.2h5.6v-0.1c0-0.7,0-1.3-0.1-2c2.1,0.2,2.3,0.3,2.3,0.6s-0.1,0.2-0.6,0.5v1.1
		h4.5c0.9-1.1,1.1-1.3,1.2-1.3s0.4,0.1,1.3,0.9c0.4,0.3,0.6,0.5,0.6,0.6s-0.1,0.2-0.2,0.2L964.3,49.8z M957.2,47.3
		c0,0.5-0.1,0.7-0.3,0.7s-0.5-0.5-1.2-1.9c0.5-0.2,1.1-0.3,1.5-0.5c1.1-0.3,2.2-0.8,3.2-1.3c0.1,0,0.2,0.2,0.2,0.2
		C959.6,45.6,958.5,46.6,957.2,47.3L957.2,47.3z M962.7,40c1.3,0.5,1.7,0.7,1.7,0.9s0,0.2-0.6,0.2c-0.5,0.5-1,1-1.6,1.4
		c0.4,0.3,0.6,0.7,0.6,1.1c0,0.4-0.3,0.8-0.7,0.8c0,0,0,0-0.1,0c-0.4,0-0.5-0.1-0.8-1c-0.2-0.6-0.6-1.2-1.1-1.7v-0.1h0.1
		c0.5,0.1,1,0.3,1.4,0.5c0.2-0.3,0.3-0.7,0.5-1c0.2-0.4,0.3-0.7,0.4-1.1h-5.4c-0.4,0-0.8,0-1.3,0.1l-0.2-0.7
		c0.5,0.1,0.9,0.1,1.4,0.1h5.4v-1.2c0-0.4,0-0.7-0.1-1.1c2.2,0.2,2.5,0.4,2.5,0.6s-0.2,0.4-0.6,0.5v1.2h4.3c1-1.1,1.2-1.2,1.3-1.2
		s0.3,0.1,1.2,0.8c0.4,0.3,0.5,0.5,0.5,0.6s0,0.2-0.2,0.2L962.7,40z M958.7,44.1c-0.5,0-0.6-0.2-0.9-1.1c-0.2-0.7-0.6-1.4-1.2-1.9
		V41c0,0,0,0,0.1,0c2,0.6,2.9,1.3,2.9,2.2C959.6,43.6,959.2,44,958.7,44.1L958.7,44.1z M965.4,45.9c-0.2-0.4-0.4-0.8-0.7-1.1
		c-0.1-0.1,0-0.2,0.1-0.1c1.5,0.5,2.5,1.3,2.5,2.2c0,0.5-0.4,0.9-0.8,0.9l0,0c-0.4,0-0.5-0.1-0.8-1.1c0-0.1-0.1-0.3-0.1-0.4
		c-1.5,0.5-3.1,0.9-4.7,1.2c-0.1,0.4-0.1,0.5-0.3,0.5s-0.4-0.3-0.8-1.9c0.8,0,1.2,0,1.8,0c0.8-0.9,1.6-1.9,2.3-3
		c0.3-0.5,0.6-1,0.8-1.5c1.5,0.8,1.8,1,1.8,1.2s0,0.2-0.8,0.2c-1.1,1.1-2.2,2.1-3.4,3C963.4,46,964.4,46,965.4,45.9L965.4,45.9z
		 M969.9,42.1c-1,0.9-2.2,1.5-3.4,2.1c-0.1,0-0.2-0.1-0.2-0.2c0.7-0.7,1.3-1.4,1.8-2.2c0.3-0.4,0.5-0.8,0.7-1.3
		c1.4,0.7,1.8,1,1.8,1.2S970.5,42.2,969.9,42.1L969.9,42.1z M969.8,47.6c-0.5,0-0.6-0.2-1.1-1c-0.4-0.7-1-1.4-1.7-1.8
		c-0.1,0,0-0.2,0.1-0.2c2.4,0.4,3.6,1.1,3.6,2.1C970.7,47.2,970.3,47.6,969.8,47.6C969.9,47.6,969.8,47.6,969.8,47.6L969.8,47.6z"/>
	<line class="st3" x1="724.3" y1="308.9" x2="724.3" y2="0"/>
	<line class="st3" x1="357.7" y1="308.9" x2="357.7" y2="0"/>
	<path class="st1" d="M800,99.3c4.2,0,7.7-3.4,7.7-7.7S804.2,84,800,84s-7.7,3.4-7.7,7.7S795.8,99.3,800,99.3L800,99.3z"/>
	<path class="st1" d="M820.1,126.1l-2.7-11.2c-2.6-10.3-11.5-12.7-17.5-12.7s-14.8,2.4-17.5,12.7l-5.2,22c-0.6,1.5,0.2,3.3,1.7,3.9
		c1.5,0.6,3.3-0.2,3.9-1.7c0-0.1,0.1-0.2,0.1-0.4l6.1-16.1l0.2,3.5c-2.6,4.2-4,9-4.1,13.9c0,3.4,3.4,18.6,3.4,18.6h2.1l1,22.5
		c0.1,1.9,1.8,3.4,3.8,3.2c1.7-0.1,3.1-1.5,3.2-3.2l0.9-22.4h1l0.9,22.4c0.2,1.9,1.9,3.3,3.9,3.1c1.6-0.2,2.9-1.5,3.1-3.1l1-22.5
		h2.1c0,0,3.4-15.3,3.4-18.6c0-1.9-0.2-3.8-0.7-5.7l-9.8,3.8c-2.3,1-5,0-6-2.3s0-5,2.3-6l9.9-4.9c0,0.1,0.2-2.3,0.2-2.3l1.2,3.3
		l-10.7,5.3c-1.5,0.8-2,2.6-1.3,4c0.7,1.3,2.3,1.9,3.7,1.4l14.4-5.6C820.1,130.1,820.6,128.2,820.1,126.1z"/>
	<path class="st1" d="M860.8,169.2l-0.2,0.3l-7-5.4l3.6-4.7c0.2-0.3,0.5-0.5,0.9-0.3c0.2,0.1,0.3,0.2,0.3,0.4l0.3,0.7
		c0.3,0.6,1,1,1.7,0.8l6-1.4c0.4-0.2,0.8,0,1,0.4c0.1,0.2,0.1,0.4,0,0.5l-0.5,2.7c-0.1,0.7-0.7,1.2-1.4,1.4l-3.4,0.7
		c-0.6,0.1-0.6,0.2,0,0.2l1.9-0.1c0.7,0,1,0.4,0.7,1c-0.4,0.6-1,1.1-1.7,1.3l-0.4,0.1C861.9,168.2,861.3,168.6,860.8,169.2z"/>
	<path class="st1" d="M840.5,170.5c0.2-0.9,0.7-0.5,0.8-0.2c0.9,1.8,2.2,3.4,3.7,4.8c1.3-1.6,4.6-5.8,7.4-9.4l7,5.4l-0.9,1.3
		c1,2.8,3.1,8.7,3.1,8.7c0.3,0.7-0.1,1.6-0.9,1.8l0,0c-0.7,0.2-1.5-0.1-1.7-0.9l0,0l-3-6.1l-1,1.4c0.4,0.4,0.6,1,0.6,1.5v0.6h0.2
		c3.1,0,3.3,3.4,0.2,3.4h-9.6c-3.2,0-4.2-2.5-3.2-5.1C841.9,176.6,839.6,173.7,840.5,170.5z"/>
	<path class="st1" d="M888.9,91.5c0,4.4-3.5,7.9-7.9,7.9s-7.9-3.5-7.9-7.9c0-4.3,3.5-7.9,7.9-7.9S888.9,87.1,888.9,91.5L888.9,91.5z
		"/>
	<path class="st1" d="M881.1,102.2L881.1,102.2c-5.3,0-16.8,2.3-16.8,13.5l1.4,27.3c0.1,1.7,1.6,3.1,3.3,3c0,0,0,0,0.1,0
		c1.1-0.1,2-0.8,2.5-1.9l1,35.7c0,2.2,1.8,4,4,4s4-1.8,4-4l0.5-30l0,0l0.5,30c0,2.2,1.8,4,4,4s4-1.8,4-4l1-35.7
		c0.4,1,1.4,1.7,2.5,1.9c1.7,0.1,3.2-1.2,3.3-2.9c0,0,0,0,0-0.1l1.4-27.3C897.8,104.4,886.4,102.2,881.1,102.2z"/>
	<path class="st1" d="M926.6,91.6c0,4.4-3.5,7.9-7.9,7.9s-7.9-3.5-7.9-7.9s3.5-7.9,7.9-7.9l0,0C923.1,83.7,926.6,87.3,926.6,91.6
		L926.6,91.6z"/>
	<path class="st1" d="M929,134.5c0.2-2.3,0.3-4.8,0.3-4.8c5.7-2,6.2-12.5,6.2-12.5c0-11.3-9.2-15-16.8-15c-7.3,0-16.4,4.3-16.8,15
		c0,0-0.1,11,6.7,15.5l0.1,1.3c-1.3,3.3-5.2,14.1-5.2,25.9h6.6l1,20.1c-0.1,2.2,1.6,4,3.8,4.1c-0.1-2.1,1.5-3.9,3.6-4s3.9,1.5,4,3.6
		c0,0.1,0,0.3,0,0.4c2.2-0.1,3.9-2,3.8-4.1l1-20.1h6.7C934.1,148.7,930.5,138.3,929,134.5z"/>
	<path class="st4" d="M926.3,111.2c1.8-1.3,4.3-0.9,5.6,0.9s0.9,4.3-0.9,5.6s-4.3,0.9-5.6-0.9l0,0
		C924.1,115,924.5,112.5,926.3,111.2z"/>
	<path class="st4" d="M912.8,122c0.3-1,1.3-1.6,2.3-1.4l0,0c1.3,0.3,3.5,1.1,3.5,1.1l2.7-1.8l-2.6-1.2c-0.1,0-0.2-0.1-0.3-0.2
		c-0.5-0.5-0.5-1.2,0-1.7l0,0c0.3-0.3,0.8-0.5,1.2-0.3c0,0,5.6,1.8,6.5,2.1c1.2,0.2,2,1.4,1.7,2.6c-0.1,0.6-0.4,1.1-0.9,1.4v0.1
		L924,123c-1.6,0.1-2.8,1.5-2.6,3.1l0,0c0,0.1,0,0.2,0,0.3c-1.1,0.6-2.4,0.7-3.6,0.4c-0.9-0.2-1.7-0.5-2.5-1.1l-0.2,0.6h-3.6
		L912.8,122z"/>
	<path class="st1" d="M1019.8,91.8c0,4.1-3.3,7.5-7.5,7.5c-4.1,0-7.5-3.3-7.5-7.5c0-4.1,3.3-7.5,7.5-7.5l0,0
		C1016.5,84.3,1019.8,87.7,1019.8,91.8z"/>
	<path class="st1" d="M984.1,142.6c0,3.6-3,6.6-6.6,6.6s-6.6-3-6.6-6.6s3-6.6,6.6-6.6S984.1,139,984.1,142.6L984.1,142.6z"/>
	<path class="st1" d="M969.6,181.2c0,2.1-1.7,3.9-3.9,3.9c-2.1,0-3.9-1.7-3.9-3.9c0-2.1,1.7-3.9,3.9-3.9S969.6,179.1,969.6,181.2
		L969.6,181.2z"/>
	<path class="st1" d="M983.3,181.2c0,2.1-1.7,3.9-3.9,3.9c-2.1,0-3.9-1.7-3.9-3.9c0-2.1,1.7-3.9,3.9-3.9S983.3,179.1,983.3,181.2
		L983.3,181.2z"/>
	<path class="st1" d="M975.3,175.8h-12.9l2.2-3.9h10.7c1.6,0,4.6-1.4,5.8-5.1c0.8-2.5,6.1-22.1,6.1-22.4l0.4-1.5h10.9l-1.2,3.9h-6.7
		c0,0-5.1,18.8-5.8,21.1C983.1,173.1,978.8,175.8,975.3,175.8z"/>
	<path class="st1" d="M975.8,150.6c-3.1,0.5-13.6,3.2-13.6,3.2c-1.1,0.2-1.8,1.3-1.6,2.4s1.3,1.8,2.4,1.6l0,0l6.7-0.8l-1.3,5h-5.1
		c-2.3,0-3.8,0.8-4.7,2.7l-4.1,9.1c-0.6,1.4,0,2.9,1.4,3.5l0,0c1.4,0.6,2.9,0,3.5-1.4l3.5-6.2h10.3c2.1,0,4.6-1.2,5.2-3.6
		s2.8-10.8,2.8-10.8C982.5,151.6,979.5,150,975.8,150.6z"/>
	<path class="st1" d="M1032,161.3l-0.7-5.1h9.6c0,0-5.9-23.8-15.9-30.1c0,0-3.5-16.2-4.8-20.2s-10.2-7.2-14.9,4.3l-4.1,10.5
		l-5.5,13.9c-0.7,1.5,0,3.2,1.5,3.8c1.5,0.7,3.2,0,3.8-1.5l6.7-13.4l0.4-0.9l1.7,6.2l-8.3,51.7c-0.5,2,0.8,4.1,2.8,4.6
		s4.1-0.8,4.6-2.8c0-0.1,0-0.2,0-0.2l6.6-25.9h5.9l1.6,6.9l4.5,19c0.5,2,2.5,3.3,4.6,2.8c1.9-0.5,3.1-2.3,2.9-4.2L1032,161.3z"/>
	<rect x="494.9" y="80.5" class="st1" width="101.1" height="56.4"/>
	<path class="st5" d="M516.6,147.6c5.3,0,9.6-4.3,9.6-9.6s-4.3-9.6-9.6-9.6s-9.5,4.3-9.6,9.5C507,143.3,511.2,147.6,516.6,147.6
		L516.6,147.6z"/>
	<path class="st5" d="M516.6,152.7c-7,0-12.1,8.3-12.1,13.4v10.2h24.3v-10.2C528.7,161,523.6,152.7,516.6,152.7z"/>
	<path class="st5" d="M547.1,147.6c5.3,0,9.6-4.3,9.6-9.6s-4.3-9.6-9.6-9.6s-9.6,4.3-9.6,9.6S541.8,147.6,547.1,147.6
		C547,147.6,547.1,147.6,547.1,147.6z"/>
	<path class="st5" d="M547.1,152.7c-7,0-12.1,8.3-12.1,13.4v10.2h24.3v-10.2C559.2,161,554.1,152.7,547.1,152.7z"/>
	<path class="st5" d="M574.5,154.7c4,0,7.2-3.2,7.2-7.2s-3.2-7.2-7.2-7.2s-7.2,3.2-7.2,7.2S570.5,154.7,574.5,154.7L574.5,154.7z"/>
	<path class="st5" d="M574.5,158.6c-5.3,0-9.1,6.2-9.1,10.1v7.7h18.3v-7.7C583.7,164.8,579.8,158.6,574.5,158.6z"/>
	<path class="st1" d="M516.6,147.6c5.3,0,9.6-4.3,9.6-9.6s-4.3-9.6-9.6-9.6s-9.5,4.3-9.6,9.5C507,143.3,511.2,147.6,516.6,147.6
		L516.6,147.6z"/>
	<path class="st1" d="M516.6,152.7c-7,0-12.1,8.3-12.1,13.4v10.2h24.3v-10.2C528.7,161,523.6,152.7,516.6,152.7z"/>
	<path class="st1" d="M547.1,147.6c5.3,0,9.6-4.3,9.6-9.6s-4.3-9.6-9.6-9.6s-9.6,4.3-9.6,9.6S541.8,147.6,547.1,147.6
		C547,147.6,547.1,147.6,547.1,147.6z"/>
	<path class="st1" d="M547.1,152.7c-7,0-12.1,8.3-12.1,13.4v10.2h24.3v-10.2C559.2,161,554.1,152.7,547.1,152.7z"/>
	<path class="st1" d="M574.5,154.7c4,0,7.2-3.2,7.2-7.2s-3.2-7.2-7.2-7.2s-7.2,3.2-7.2,7.2S570.5,154.7,574.5,154.7L574.5,154.7z"/>
	<path class="st1" d="M574.5,158.6c-5.3,0-9.1,6.2-9.1,10.1v7.7h18.3v-7.7C583.7,164.8,579.8,158.6,574.5,158.6z"/>
	<rect x="494.9" y="175.7" class="st1" width="101.1" height="6.6"/>
	<rect x="122.6" y="169.4" class="st1" width="107.9" height="11.2"/>
	<polygon class="st1" points="149.4,166.5 177.7,166.5 195,166.5 195,157.6 173.7,157.6 164.7,133.2 122.8,133.2 135.9,166.5 	"/>
	<path class="st1" d="M189.3,114.6c0.6,3.3,1.8,6.2,3.2,7.6v4c0,0.1,0,0.2,0,0.3l7.4,3.2l7.4-3.2c0-0.1-0.1-0.2-0.1-0.3v-4
		c1.4-1.4,2.6-4.3,3.2-7.6c1.5-0.5,2.4-1.3,3.5-4.7c1.2-3.6-1.7-3.5-1.7-3.5c2.3-6.9-0.7-13.4-5.9-12.9c-3.6-5.6-15.5,1.3-19.2,0.8
		c0,1.2,0.3,2.3,0.9,3.3c-1.3,2.2-0.8,6.6-0.4,8.8c-0.2,0-2.8,0-1.7,3.5S187.8,114.1,189.3,114.6z"/>
	<rect x="197.1" y="131.3" class="st1" width="5.6" height="4.3"/>
	<path class="st1" d="M198.8,153.8v12.7h31.4c-1.7-15.6-9.2-30.2-14.4-31.9c-0.6-0.2-1.2-0.5-1.8-0.8l-10.6,13l-0.8-8.5H197
		l-0.8,8.5l-10.6-13c-0.6,0.3-1.2,0.6-1.8,0.8c-2.8,0.9-6.3,7.5-9.1,15.1l1.5,4.1L198.8,153.8L198.8,153.8z"/>
	<polyline class="st6" points="145.3,91.3 145.3,105 149.6,112.9 	"/>
</g>
</svg>
