<svg version="1.1" id="レイヤー_1" xmlns="http://www.w3.org/2000/svg" x="0" y="0" viewBox="0 0 299.8 93.1" xml:space="preserve"><style>.st0{fill:none;stroke:#000;stroke-width:8;stroke-miterlimit:3}</style><path class="st0" d="M36.6 28.6L6.9 80h59.4z"/><path class="st0" d="M81.2 8L51.5 59.4h59.3zM56.8.2v50M26.5 46v47.1m66.4-44.7v44.7"/><path d="M128 33h8.9v32.5h20.2v8.1H128V33zm55.6 41.2c-3.1 0-6-.5-8.6-1.7s-4.9-2.6-6.8-4.5c-1.9-1.9-3.4-4.1-4.5-6.6s-1.6-5.2-1.6-8.1v-.1c0-2.9.5-5.6 1.6-8.1s2.6-4.7 4.5-6.7c1.9-1.9 4.2-3.4 6.8-4.5 2.6-1.1 5.5-1.7 8.7-1.7s6 .5 8.6 1.7 4.9 2.6 6.8 4.5c1.9 1.9 3.4 4.1 4.5 6.6s1.6 5.2 1.6 8.1v.1c0 2.9-.5 5.6-1.6 8.1s-2.6 4.8-4.5 6.7-4.2 3.4-6.8 4.5c-2.7 1.2-5.6 1.7-8.7 1.7zm.1-8.2c1.8 0 3.4-.3 4.9-1 1.5-.7 2.8-1.6 3.9-2.7 1.1-1.2 1.9-2.5 2.5-4 .6-1.5.9-3.2.9-4.9v-.1c0-1.7-.3-3.4-.9-4.9-.6-1.5-1.4-2.9-2.5-4.1s-2.4-2.1-3.9-2.8c-1.5-.7-3.1-1-4.9-1-1.8 0-3.5.3-5 1s-2.8 1.6-3.8 2.7c-1.1 1.2-1.9 2.5-2.5 4-.6 1.5-.9 3.2-.9 4.9v.1c0 1.7.3 3.4.9 4.9.6 1.5 1.4 2.9 2.5 4.1s2.4 2.1 3.9 2.8c1.4.7 3.1 1 4.9 1zm48.9 8.2c-3.2 0-6.1-.5-8.7-1.6-2.6-1-4.8-2.5-6.7-4.3-1.9-1.9-3.3-4.1-4.4-6.6-1-2.5-1.6-5.3-1.6-8.3v-.1c0-2.9.5-5.6 1.6-8.1s2.5-4.7 4.4-6.7c1.9-1.9 4.1-3.4 6.7-4.5 2.6-1.1 5.4-1.7 8.5-1.7 1.8 0 3.5.1 5 .4s2.9.6 4.1 1.1c1.3.5 2.5 1 3.6 1.7s2.2 1.5 3.2 2.4l-5.6 6.8c-.8-.7-1.5-1.2-2.3-1.7-.8-.5-1.6-.9-2.4-1.3-.8-.3-1.7-.6-2.7-.8-1-.2-2-.3-3.2-.3-1.6 0-3.1.3-4.5 1s-2.6 1.6-3.7 2.7-1.9 2.5-2.5 4c-.6 1.5-.9 3.2-.9 4.9v.1c0 1.9.3 3.6.9 5.1.6 1.6 1.4 2.9 2.5 4.1 1.1 1.2 2.4 2.1 3.9 2.7 1.5.6 3.1 1 5 1 3.3 0 6.1-.8 8.4-2.4V58h-9v-7.7h17.6v17.6c-2.1 1.8-4.6 3.3-7.4 4.5-2.8 1.2-6.1 1.8-9.8 1.8zm45.6 0c-3.1 0-6-.5-8.6-1.7s-4.9-2.6-6.8-4.5c-1.9-1.9-3.4-4.1-4.5-6.6s-1.6-5.2-1.6-8.1v-.1c0-2.9.5-5.6 1.6-8.1s2.6-4.7 4.5-6.7c1.9-1.9 4.2-3.4 6.8-4.5 2.6-1.1 5.5-1.7 8.7-1.7s6 .5 8.6 1.7 4.9 2.6 6.8 4.5c1.9 1.9 3.4 4.1 4.5 6.6s1.6 5.2 1.6 8.1v.1c0 2.9-.5 5.6-1.6 8.1s-2.6 4.8-4.5 6.7-4.2 3.4-6.8 4.5c-2.7 1.2-5.6 1.7-8.7 1.7zm.1-8.2c1.8 0 3.4-.3 4.9-1 1.5-.7 2.8-1.6 3.9-2.7 1.1-1.2 1.9-2.5 2.5-4 .6-1.5.9-3.2.9-4.9v-.1c0-1.7-.3-3.4-.9-4.9-.6-1.5-1.4-2.9-2.5-4.1s-2.4-2.1-3.9-2.8c-1.5-.7-3.1-1-4.9-1-1.8 0-3.5.3-5 1s-2.8 1.6-3.8 2.7c-1.1 1.2-1.9 2.5-2.5 4-.6 1.5-.9 3.2-.9 4.9v.1c0 1.7.3 3.4.9 4.9.6 1.5 1.4 2.9 2.5 4.1s2.4 2.1 3.9 2.8c1.5.7 3.1 1 4.9 1z"/></svg>