<svg xmlns="http://www.w3.org/2000/svg" viewBox="0 0 234.62 116.42"><g id="レイヤー_2" data-name="レイヤー 2"><g id="レイヤー_1-2" data-name="レイヤー 1"><path d="M.52,1.19H19V40.68H45v15.8H.52Z"/><path d="M47.76,29v-.16C47.76,12.8,61,0,78,0s30.09,12.64,30.09,28.68v.15c0,16-13.19,28.84-30.25,28.84S47.76,45,47.76,29Zm41.71,0v-.16c0-6.55-4.5-12.48-11.61-12.48S66.4,22.2,66.4,28.68v.15c0,6.56,4.51,12.48,11.62,12.48S89.47,35.47,89.47,29Z"/><path d="M111.91,29v-.16c0-16.51,13-28.83,30.49-28.83a34.3,34.3,0,0,1,23.15,8.37L155.2,20.85A18.56,18.56,0,0,0,143,16c-7.18,0-12.4,5.53-12.4,13v.16c0,7.82,5.45,13.19,13.19,13.19,3.16,0,4.9-.47,6.32-1.26V35.63h-9.48V23.78h26.78V49.37A38.27,38.27,0,0,1,143,57.67C125.73,57.67,111.91,46.13,111.91,29Z"/><path d="M171.47,29v-.16c0-16,13.2-28.83,30.26-28.83s30.1,12.64,30.1,28.68v.15c0,16-13.2,28.84-30.26,28.84S171.47,45,171.47,29Zm41.71,0v-.16c0-6.55-4.5-12.48-11.61-12.48s-11.45,5.85-11.45,12.33v.15c0,6.56,4.5,12.48,11.61,12.48S213.18,35.47,213.18,29Z"/><path d="M0,69.24H25.87c6.4,0,10.43,1.45,13.13,4.15a9.88,9.88,0,0,1,2.84,7.2v.13c0,5.48-3.3,8.84-8.25,10.56,5.94,1.71,9.77,4.88,9.77,11.22v.13c0,7.39-6.07,12.8-17.75,12.8H0ZM26.66,84.08c0-2-1.65-3.16-4.95-3.16H15.05v6.46h6.73c3.3,0,4.88-1.12,4.88-3.16ZM22.83,96.89H15.05v6.86h7.72c3.36,0,5.08-1.39,5.08-3.37v-.13C27.85,98.27,26.2,96.89,22.83,96.89Z"/><path d="M46.73,69.24H62.17v33H83.88v13.2H46.73Z"/><path d="M103.35,68.91h15.31l19.47,46.52H121.37l-2.44-6.2H102.76l-2.38,6.2H83.89ZM115.1,98.27l-4.22-11.22-4.23,11.22Z"/><path d="M139,92.47v-.14c0-13.79,10.76-24.08,24.55-24.08,10.17,0,17,5,20.92,12l-12.73,7.45c-1.72-3.3-4.16-5.61-8.38-5.61-5.22,0-8.65,4.56-8.65,10.1v.13c0,6,3.56,10.23,8.65,10.23,4.35,0,6.79-2.37,8.71-5.8L184.79,104c-3.89,6.86-10.36,12.47-21.84,12.47C150.15,116.42,139,106.79,139,92.47Z"/><path d="M187.77,69.24h15.44V86.53l13.13-17.29h17.95L218.19,89.3l16.43,26.13H216.21l-9-14.65-4,4.82v9.83H187.77Z"/></g></g></svg>