<svg xmlns="http://www.w3.org/2000/svg" viewBox="0 0 234.47 115.76"><defs><style>.cls-1{fill:#fff;}</style></defs><g id="レイヤー_2" data-name="レイヤー 2"><g id="レイヤー_1-2" data-name="レイヤー 1"><path class="cls-1" d="M3.16,1.19H21.64V40.68h26v15.8H3.16Z"/><path class="cls-1" d="M50.4,29v-.16C50.4,12.8,63.59,0,80.66,0s30.09,12.64,30.09,28.68v.15c0,16-13.19,28.84-30.25,28.84S50.4,45,50.4,29Zm41.71,0v-.16c0-6.55-4.5-12.48-11.61-12.48S69,22.2,69,28.68v.15c0,6.56,4.51,12.48,11.62,12.48S92.11,35.47,92.11,29Z"/><path class="cls-1" d="M114.55,29v-.16C114.55,12.32,127.58,0,145,0a34.3,34.3,0,0,1,23.15,8.37L157.84,20.85A18.56,18.56,0,0,0,145.59,16c-7.18,0-12.4,5.53-12.4,13v.16c0,7.82,5.45,13.19,13.19,13.19,3.16,0,4.9-.47,6.32-1.26V35.63h-9.48V23.78H170V49.37a38.27,38.27,0,0,1-24.41,8.3C128.37,57.67,114.55,46.13,114.55,29Z"/><path class="cls-1" d="M174.11,29v-.16c0-16,13.2-28.83,30.26-28.83s30.1,12.64,30.1,28.68v.15c0,16-13.2,28.84-30.26,28.84S174.11,45,174.11,29Zm41.71,0v-.16c0-6.55-4.5-12.48-11.61-12.48s-11.45,5.85-11.45,12.33v.15c0,6.56,4.5,12.48,11.61,12.48S215.82,35.47,215.82,29Z"/><path class="cls-1" d="M0,69.24H16.17L22.7,91.41,30.16,69.1H43.49L51,91.41l6.53-22.17H73.39L58.27,115.76H44.81l-8.12-23-8.11,23H15.11Z"/><path class="cls-1" d="M76,69.24H91.47v16.3H105.6V69.24H121v46.19H105.6V98.87H91.47v16.56H76Z"/><path class="cls-1" d="M126.46,69.24H141.9v46.19H126.46Z"/><path class="cls-1" d="M159.12,82.3H145.53V69.24h42.63V82.3H174.57v33.13H159.12Z"/><path class="cls-1" d="M191.66,69.24h39.4V81.91H206.84v4.68h22.57V97.75H206.84v5h24.55v12.67H191.66Z"/></g></g></svg>