<svg xmlns="http://www.w3.org/2000/svg" viewBox="0 0 246.79 15.05"><defs><style>.cls-1{fill:none;stroke:#333;}</style></defs><g id="レイヤー_2" data-name="レイヤー 2"><g id="pc"><rect class="cls-1" x="207.16" y="2.7" width="9.64" height="9.64" transform="translate(56.77 152.1) rotate(-45)"/><rect class="cls-1" x="220.8" y="2.7" width="9.64" height="9.64" transform="translate(60.76 161.74) rotate(-45)"/><rect class="cls-1" x="234.44" y="2.7" width="9.64" height="9.64" transform="translate(64.76 171.39) rotate(-45)"/><rect class="cls-1" x="193.53" y="2.7" width="9.64" height="9.64" transform="translate(52.77 142.46) rotate(-45)"/><rect class="cls-1" x="179.9" y="2.7" width="9.64" height="9.64" transform="translate(48.78 132.82) rotate(-45)"/><rect class="cls-1" x="166.27" y="2.7" width="9.64" height="9.64" transform="translate(44.79 123.18) rotate(-45)"/><rect class="cls-1" x="152.64" y="2.7" width="9.64" height="9.64" transform="translate(40.8 113.55) rotate(-45)"/><rect class="cls-1" x="139.01" y="2.7" width="9.64" height="9.64" transform="translate(36.8 103.91) rotate(-45)"/><rect class="cls-1" x="125.38" y="2.7" width="9.64" height="9.64" transform="translate(32.81 94.27) rotate(-45)"/><rect class="cls-1" x="111.75" y="2.7" width="9.64" height="9.64" transform="translate(28.82 84.63) rotate(-45)"/><rect class="cls-1" x="98.12" y="2.7" width="9.64" height="9.64" transform="translate(24.83 74.99) rotate(-45)"/><rect class="cls-1" x="84.49" y="2.7" width="9.64" height="9.64" transform="translate(20.84 65.36) rotate(-45)"/><rect class="cls-1" x="70.86" y="2.7" width="9.64" height="9.64" transform="translate(16.84 55.72) rotate(-45)"/><rect class="cls-1" x="57.23" y="2.7" width="9.64" height="9.64" transform="translate(12.85 46.08) rotate(-45)"/><rect class="cls-1" x="43.6" y="2.7" width="9.64" height="9.64" transform="translate(8.86 36.44) rotate(-45)"/><rect class="cls-1" x="29.97" y="2.7" width="9.64" height="9.64" transform="translate(4.87 26.8) rotate(-45)"/><rect class="cls-1" x="16.33" y="2.7" width="9.64" height="9.64" transform="translate(0.87 17.16) rotate(-45)"/><rect class="cls-1" x="2.7" y="2.7" width="9.64" height="9.64" transform="translate(-3.12 7.53) rotate(-45)"/></g></g></svg>