<svg xmlns="http://www.w3.org/2000/svg" viewBox="0 0 54.85 54.85"><defs><style>.cls-1{fill:#fff;}.cls-2{fill:#e8314b;}</style></defs><g id="レイヤー_2" data-name="レイヤー 2"><g id="pc"><circle class="cls-1" cx="27.43" cy="27.43" r="27.43"/><rect class="cls-2" x="16.06" y="14.87" width="1.48" height="1.18" rx="0.29" transform="translate(-4.63 23.33) rotate(-62.78)"/><path class="cls-2" d="M45.15,36.86a2,2,0,0,0-.33-.56.93.93,0,0,0-.23-.21L44.43,36a.6.6,0,0,0-.2,0,.59.59,0,0,0-.29.07.73.73,0,0,0-.2.19l-.13.18.07.21a.35.35,0,0,1,0,.13,1,1,0,0,1-.07.36,1.27,1.27,0,0,1-.4.53,1.23,1.23,0,0,1-.78.24,2.86,2.86,0,0,1-1.24-.34,2,2,0,0,1-.59-.4,2,2,0,0,1-.33-.47,5.18,5.18,0,0,1-.41-1.16,22.44,22.44,0,0,0-.66-2.44,9.77,9.77,0,0,0-1.68-3h0c-2.91-3.24-6.19-7-8.74-10-1.28-1.48-2.37-2.76-3.15-3.67l-.9-1.07c-.12-.14-.21-.24-.26-.31L24,13.36,24,13.3s-.53-.75-1.11-1.52c-.29-.38-.59-.76-.85-1.07a4.58,4.58,0,0,0-.36-.38l-.17-.15-.11-.06a.44.44,0,0,0-.15,0h-.1a.38.38,0,0,0-.19,0,.47.47,0,0,0-.22.15,1.14,1.14,0,0,0-.23.31,6,6,0,0,0-.32.71c-.15.39-.29.81-.4,1.14l-.06.21a10.71,10.71,0,0,0-1.48-.11,5.36,5.36,0,0,0-1.44.17,2.33,2.33,0,0,0-.49.21,5.33,5.33,0,0,0-.81.56,11.89,11.89,0,0,0-1,.94l-.29.31-2.46-.2a1.32,1.32,0,0,0-.85.1,1.2,1.2,0,0,0-.33.25,1.23,1.23,0,0,0-.28.51,1.7,1.7,0,0,0-.08.55,2.18,2.18,0,0,0,.12.72,4.44,4.44,0,0,0,.33.71c.2.38.44.77.63,1.06l.33.51s.33.49.72,1a8.75,8.75,0,0,0,.62.71,2,2,0,0,0,.31.28l.17.11a.93.93,0,0,0,.22.08,3.43,3.43,0,0,1,.43.12l.87.32.32.12.06,0c.22.17,1.15.94,2.05,1.78a16,16,0,0,1,1.3,1.33,4.12,4.12,0,0,1,.39.54,1.5,1.5,0,0,1,.09.18.11.11,0,0,1,0,.05h0a13.07,13.07,0,0,0,.57,4l0,0c0,.77.08,1.85.08,3,0,1.32,0,2.75-.11,3.9,0,.58-.09,1.09-.14,1.48,0,.2-.06.36-.09.49a1.56,1.56,0,0,1-.05.16.24.24,0,0,1,0,.07,5,5,0,0,1-.92,1.09,4.69,4.69,0,0,0-.47.53,1.77,1.77,0,0,0-.19.33,1.12,1.12,0,0,0-.1.38,1.36,1.36,0,0,0,0,.2,1.57,1.57,0,0,0,.14.64,1.69,1.69,0,0,0,.7.75,2.45,2.45,0,0,0,1.15.29l.5,0a4.87,4.87,0,0,0,.76-.06,2.29,2.29,0,0,0,.56-.18,1.8,1.8,0,0,0,.73-.62,1.62,1.62,0,0,0,.1-.18l.13.21a1.94,1.94,0,0,0,.59.55,2,2,0,0,0,.81.3,5.89,5.89,0,0,0,.69.05,3.84,3.84,0,0,0,1.8-.42,2.19,2.19,0,0,0,.48-.32h6.28a3.48,3.48,0,0,0,1.68-.38,1.81,1.81,0,0,0,.57-.49,1.38,1.38,0,0,0,.18-.39l.71.49a7.23,7.23,0,0,0,3.88,1.14,6.49,6.49,0,0,0,3.25-.84,4.5,4.5,0,0,0,1.18-1,3.51,3.51,0,0,0,.71-1.26,3.34,3.34,0,0,0,.15-1A4,4,0,0,0,45.15,36.86ZM18.13,23c-.49-.46-1-.9-1.39-1.25s-.93-.77-.93-.77l-.05,0-.06,0L15,20.61c-.21-.08-.42-.16-.62-.22a4,4,0,0,0-.52-.15l-.11-.09a3.64,3.64,0,0,1-.43-.44l-.18-.22.81.16.18,0a.74.74,0,0,0,.31-.07.7.7,0,0,0,.27-.23.4.4,0,0,0,.07-.14l-.41-.14.12,0-.12,0a.16.16,0,0,1-.06.08.28.28,0,0,1-.18.07H14L12.71,19l-.09-.12-.22-.31-.07-.09v0h0v0c-.05-.07-.3-.44-.55-.86-.1-.16-.19-.32-.28-.48a11,11,0,0,0,.67-1.67l2.42.19.14-.17h0a10.7,10.7,0,0,1,.89-.92,6.35,6.35,0,0,1,.76-.63,2.23,2.23,0,0,1,.67-.36,4.39,4.39,0,0,1,1.2-.14,9.84,9.84,0,0,1,1.19.08l.38.05.11,0h0l-.23.83.42.11.52-1.91h0c.08-.22.16-.48.25-.72a6.14,6.14,0,0,1,.31-.74l.12.13c.18.2.39.47.61.75s.67.88.93,1.23c.13.18.24.33.31.44l.08.1.46,1.7.06.08,1.51,1.77ZM44.5,39.23a2.59,2.59,0,0,1-.54,1,4.23,4.23,0,0,1-1.58,1.09,5.75,5.75,0,0,1-2.2.43,6.41,6.41,0,0,1-3.41-1,7.91,7.91,0,0,1-2.06-1.75,2.21,2.21,0,0,1-.29-.45l0-.1h0l-.19.05.2,0-.84.18a2.52,2.52,0,0,0,.48.9c.14.17.31.36.52.57l0,0a1.37,1.37,0,0,1,.24.31.48.48,0,0,1,.05.21.37.37,0,0,1-.07.21,1.17,1.17,0,0,1-.53.35,3,3,0,0,1-1,.16H26.53l-.13.14h0a1.34,1.34,0,0,1-.44.3,2.91,2.91,0,0,1-1.36.3A3.91,3.91,0,0,1,24,42a1.36,1.36,0,0,1-.48-.17,1.28,1.28,0,0,1-.46-.54,1.66,1.66,0,0,1-.17-.73,1.25,1.25,0,0,1,.24-.78.72.72,0,0,1,.25-.21.87.87,0,0,1,.39-.08h5.93v-.43l0-.28h0v-.14h-.61l-.56-.16v0a7.53,7.53,0,0,1-.88-.31L27.37,38a4.79,4.79,0,0,1-1.55-1.15,2.87,2.87,0,0,1-.49-.8,2.59,2.59,0,0,1-.18-1,1.77,1.77,0,0,1,0-.23,3.9,3.9,0,0,1,3.9-3.54,4.74,4.74,0,0,1,.82.08l.1-.57a5.82,5.82,0,0,0-.92-.08,4.47,4.47,0,0,0-4.48,4.07c0,.09,0,.18,0,.27a3.29,3.29,0,0,0,.23,1.2v0a7.3,7.3,0,0,1-1-1.23c0-.25.1-.49.14-.72.14-.69.26-1.3.34-1.73l.13-.7-.84-.16-.76,3.91c-.19,1-.4,2.11-.57,3s-.32,1.68-.39,2.09a1.85,1.85,0,0,1-.23.68,1,1,0,0,1-.23.27,1.13,1.13,0,0,1-.47.21,3.4,3.4,0,0,1-.67.06h-.46a1.48,1.48,0,0,1-.92-.3.66.66,0,0,1-.18-.24.73.73,0,0,1-.07-.29s0-.07,0-.1a.74.74,0,0,1,0-.14,1.41,1.41,0,0,1,.21-.31c.16-.18.39-.39.63-.64A5,5,0,0,0,20.2,39a1.8,1.8,0,0,0,.08-.21,2.35,2.35,0,0,0,.12-.46c.06-.3.1-.68.14-1.11.13-1.29.18-3.08.18-4.73,0-.92,0-1.81,0-2.53,0-.36,0-.68-.07-.95a3.42,3.42,0,0,0-.1-.66l-.17.05a13.53,13.53,0,0,1-.3-2.87,1.34,1.34,0,0,0-.08-.37,2.78,2.78,0,0,0-.35-.62l-.08-.1,7.1-5.59c2.66,3.1,6.73,7.81,10.26,11.75A9.16,9.16,0,0,1,38.29,33a28,28,0,0,1,.86,3.08,4.51,4.51,0,0,0,.56,1.27,2.7,2.7,0,0,0,1.12.95,3.78,3.78,0,0,0,1.62.42,2.12,2.12,0,0,0,.93-.2,1.9,1.9,0,0,0,.89-.8,2.81,2.81,0,0,0,.17-.35,2.29,2.29,0,0,1,.08.28,3.78,3.78,0,0,1,.09.77A2.54,2.54,0,0,1,44.5,39.23Zm-21.43-.42c.15-.8.32-1.72.49-2.61a9.56,9.56,0,0,0,2.38,2c.27.16.53.31.78.43H23.8A1.57,1.57,0,0,0,23.07,38.81Z"/></g></g></svg>