<svg xmlns="http://www.w3.org/2000/svg" viewBox="0 0 54.85 54.85"><defs><style>.cls-1{fill:#fff;}.cls-2{fill:#e8314b;}</style></defs><g id="レイヤー_2" data-name="レイヤー 2"><g id="pc"><circle class="cls-1" cx="27.43" cy="27.43" r="27.43"/><path class="cls-2" d="M35.54,19.66a8.15,8.15,0,0,0-3.12-3.21,9.26,9.26,0,0,0-4.73-1.28,10.6,10.6,0,0,0-5.34,1.34,6,6,0,0,0-2,1.69,1,1,0,0,0,0,1.57l1.9,1.52a1,1,0,0,0,1.31,0,2.51,2.51,0,0,1,1-.83,6,6,0,0,1,3.1-.76,4.65,4.65,0,0,1,3,1.1,3.37,3.37,0,0,1,.81,1,1.77,1.77,0,0,1,.23.82,3.27,3.27,0,0,1-.35,1.6,3.21,3.21,0,0,1-.62.83,6.89,6.89,0,0,1-1.5,1.08c-.6.33-1.23.63-1.88,1a5.9,5.9,0,0,0-2.09,1.87,5.05,5.05,0,0,0-.65,1.46A5.9,5.9,0,0,0,24.48,32v1.09a1,1,0,0,0,1,1H28a1,1,0,0,0,1-1V32a1.91,1.91,0,0,1,.05-.45.6.6,0,0,1,.13-.24,1.77,1.77,0,0,1,.46-.34l1.64-.85a11,11,0,0,0,3.26-2.53,7.46,7.46,0,0,0,1.28-2.21,8.06,8.06,0,0,0,.49-2.84A6.42,6.42,0,0,0,35.54,19.66Z"/><path class="cls-2" d="M26.73,36.57a2.78,2.78,0,1,0,2.78,2.78A2.79,2.79,0,0,0,26.73,36.57Z"/></g></g></svg>