<svg viewBox="0 0 238.53 56.49" xmlns="http://www.w3.org/2000/svg"><path d="m11.6 19.27c0 .49-.71.69-1.37.69-.51 0-.77-.16-.77-.47 0-.09 0-.48 0-.79v-.09h-3.61v.24.66s0 .66-1.25.66c-.55 0-.79-.17-.79-.41v-.07c.11-.69.19-2.53.19-2.69v-2.15a9.56 9.56 0 0 1 -3.67 4.38s-.09 0-.09-.07a.5.5 0 0 1 .11-.22c2.11-2.68 2.53-5.47 2.55-8.86a24.85 24.85 0 0 0 -.19-3.43 13.64 13.64 0 0 1 -2.49 1.45c-.09 0-.13-.02-.13-.1a.35.35 0 0 1 .17-.24c3.5-2.7 5.17-6.22 5.42-7.76.41.07 2.92.55 2.92 1.12 0 .2-.31.33-.66.33h-.19c3 .79 4.88 1.85 4.88 3.24a1 1 0 0 1 -1 1.12c-.4 0-.75-.31-1.12-1a9.08 9.08 0 0 0 -3-3 15.85 15.85 0 0 1 -2.65 3.19c.68.07 1.52.11 2 .11h.49a5.28 5.28 0 0 1 1.19-1.52.18.18 0 0 1 .13 0c.46.29 1.71 1.23 1.71 1.67 0 .18-.15.29-.37.29h-2.68c-.69 0-1.9 0-2.56.09a1.32 1.32 0 0 1 -.26-.4c-.51.46-.97.83-1.51 1.21a11.51 11.51 0 0 1 2.05.83h4.12c.51-.59.73-.86.88-.86s1.95.8 1.95 1.41c0 .2-.2.4-.62.51a7.1 7.1 0 0 0 0 .73v1.27c0 .22 0 1 .05 1.26s0 .63 0 .79c0 .46-.68.73-1.41.73-.46 0-.68-.18-.68-.47v-.22h-4.65c-.09.44-.18.86-.31 1.28a10.83 10.83 0 0 1 1.62.77h3.3c.15-.18.74-.93 1-.93a.09.09 0 0 1 .08 0c.51.19 1.81 1 1.81 1.49 0 .2-.2.4-.68.53a4.81 4.81 0 0 0 0 .59v.95 1.3s0 .66 0 .81zm-2.23-7.41c0-.31 0-.95 0-1.36v-.44h-4.46v.63a10 10 0 0 1 -.11 1.24h4.6zm0-4h-4.46v1.7h4.48zm.13 7.14h-3.65v3h3.65zm4.21-10.3a24.91 24.91 0 0 0 -.18-3c.88 0 2.86.2 2.86.72 0 .18-.24.4-.77.49v3.56 4.62c0 1 0 1.92.07 2.73v1.06c0 .7-1.28.7-1.36.7-.58 0-.77-.22-.77-.55v-.03c.11-.83.13-3.87.13-4zm3.8-1c0-.26 0-2.5-.15-3.27.75 0 3.06.13 3.06.7 0 .2-.27.42-.77.53v6.29c0 5.55 0 6.8.09 9.37v.2c0 2.49-2.59 2.82-2.86 2.82a.49.49 0 0 1 -.42-.29c-.15-.39-.59-1.12-2.5-1.76-.11 0-.18-.11-.18-.15s.07-.11.2-.11h.02a20.9 20.9 0 0 0 2.23.17 1.24 1.24 0 0 0 1.29-1.23z"/><path d="m48.51 13.07a3.08 3.08 0 0 0 -3.23-3 8.5 8.5 0 0 0 -5.92 3c-.53.6-.79 1.13-1.56 1.28a3.68 3.68 0 0 1 -.62.07c-1.1 0-1.19-.84-1.19-1a.88.88 0 0 1 .4-.68c1.3-1 2.79-2.14 3.08-2.42a47.24 47.24 0 0 0 5.26-6.32.21.21 0 0 0 -.2-.2s-.07 0-.09 0c-.53.24-1.56 1-2.07 1.25a3.06 3.06 0 0 1 -1.49.53c-1.1 0-2.45-1-2.45-1.83 0-.28.16-.5.27-.5a.13.13 0 0 1 .09 0 2.08 2.08 0 0 0 1.36.46 15.2 15.2 0 0 0 3.94-1.12c.35-.16.55-.49 1-.49s2.55 1 2.55 1.72-1 .92-1.45 1.32a54.37 54.37 0 0 0 -5.1 5.11s0 0 0 0a.41.41 0 0 0 .15-.07 11.08 11.08 0 0 1 4.12-.9c3.08 0 5.39 1.76 5.39 4.05 0 3.36-3.85 5.67-7.57 5.67-3 0-4.71-1.38-4.71-2.77s1.43-1.93 2.88-1.93c1.81 0 3.5 1 3.57 2.81 1.7-.45 3.59-1.95 3.59-4.04zm-7.63 2.27c-.22 0-1.46 0-1.46.85s1.19 1.32 2.84 1.37a6.32 6.32 0 0 0 1-.07 2.18 2.18 0 0 0 -2.38-2.15z"/><path d="m76.76 7.77c0 3.08-2.07 6.55-3.68 8.34a2.55 2.55 0 0 1 -1.87 1c-1.56 0-3.23-2.16-3.23-4.62 0-4.07 3.89-9 9.59-9 4.4 0 7.81 3.25 7.81 7.08a7.64 7.64 0 0 1 -3.25 6.14 15 15 0 0 1 -7.42 2.42c-.22 0-.35 0-.35-.07s.26-.22.93-.39c7.56-2.08 7.71-7.47 7.71-8.37a5.71 5.71 0 0 0 -6-5.81 7.53 7.53 0 0 0 -1.43.13 4.14 4.14 0 0 1 1.19 3.15zm-7.33 3.76c0 1.63 1 3.12 1.67 3.12 1.17 0 4.29-5.28 4.29-8.29a2.88 2.88 0 0 0 -.39-1.61 7.42 7.42 0 0 0 -5.57 6.78z"/><path d="m106.72 9.75s.07 0 .07.15a2.87 2.87 0 0 1 -.13.73 18.64 18.64 0 0 0 -.79 4.75 7.49 7.49 0 0 0 .13 1.62 3.15 3.15 0 0 1 .11.73 1 1 0 0 1 -1 1c-1.42 0-2-3.15-2-5.1 0-.51 0-1 .06-1.48.2-2.11.73-4.13 1.06-6a8.8 8.8 0 0 0 .18-1.67 2.08 2.08 0 0 0 -.53-1.65c-.18-.13-.33-.22-.33-.31a.63.63 0 0 1 .57-.28c1 0 2.22 2 2.22 2.95a5.09 5.09 0 0 1 -.44 1.73 21.68 21.68 0 0 0 -1.38 5.68 6.75 6.75 0 0 0 .11 1.21s0 .07 0 .07h.09a.08.08 0 0 0 .09-.07 25.27 25.27 0 0 1 1.91-4.06zm7.7-5.75c0-.9-.3-1.39-1.16-1.5-.24 0-.4-.08-.4-.22a1.19 1.19 0 0 1 1.14-.72c.57 0 2.64.77 2.64 1.56 0 .31-.18.69-.29 1.3-.06.4-.15.84-.2 1.3a3.3 3.3 0 0 1 1.24-.42c.06 0 2 0 2 1 0 .6-.64.91-1.66.91a11.34 11.34 0 0 0 -1.67.08c-.06.71-.06 1.36-.06 2.04a19.56 19.56 0 0 0 .19 2.93 17.09 17.09 0 0 1 .22 2c.58.2 3.66 1.21 3.66 3a1 1 0 0 1 -.93 1c-.35 0-.81-.16-1.38-1a5.56 5.56 0 0 0 -1.52-1.47 4.11 4.11 0 0 1 -3.94 2.81c-2 0-3.59-1.3-3.59-2.53 0-1.89 3.17-2.33 4.54-2.33a9.22 9.22 0 0 1 1.43.11c0-.26 0-.55 0-.81 0-.58-.07-3.35-.16-5.48-.9.2-1.84.44-2.72.64a5.85 5.85 0 0 1 -1.15.15c-1.16 0-2.53-.88-2.53-1.54a.49.49 0 0 1 .13-.38c.07 0 .14.07.25.14a3.19 3.19 0 0 0 1.7.43 24.85 24.85 0 0 0 4.29-.84zm-2.31 10.83c-1.89 0-2.72.59-2.72 1.14 0 .88 1.76 1.17 2.15 1.17a2.91 2.91 0 0 0 2.91-2 8.12 8.12 0 0 0 -2.34-.35z"/><path d="m139.41 19.43a10.36 10.36 0 0 0 -3.41-3.94c-.22-.13-.33-.26-.33-.35s.14-.16.36-.16c.63 0 5.87 1.13 5.87 3.9a1.38 1.38 0 0 1 -1.23 1.54c-.44 0-.88-.29-1.26-.99z"/><path d="m2.57 47.22a9.2 9.2 0 0 1 -2.42 1.92.14.14 0 0 1 -.15-.14.24.24 0 0 1 .09-.17 20.79 20.79 0 0 0 4.22-8.1c1.12.26 2.75 1 2.75 1.54 0 .2-.22.33-.61.33a1.94 1.94 0 0 1 -.33 0 23.76 23.76 0 0 1 -1.81 2.68c.82.18 1.08.25 1.08.55s-.29.47-.75.53v2.14 2.55 3.34 1.28s-.07.81-1.5.81c-.59 0-.81-.2-.81-.61v-.11c.08-1 .19-4.25.19-4.71zm-2.11-4.07c-.11 0-.17 0-.17-.13a.26.26 0 0 1 .08-.16 16.46 16.46 0 0 0 3.5-6.75c1.26.33 2.8 1.08 2.8 1.58 0 .22-.22.38-.6.38a1.55 1.55 0 0 1 -.35 0 15 15 0 0 1 -5.26 5.08zm10.61 5.44v3a38.1 38.1 0 0 0 3.93-1.02h.09a.21.21 0 0 1 .22.2.22.22 0 0 1 -.13.2 53 53 0 0 1 -8 3.59 1 1 0 0 1 0 .28c0 .33-.11.57-.31.57-.64 0-1.54-2.79-1.56-2.9.44 0 1.07-.07 1.49-.11.68-.09 1.41-.2 2.18-.33v-3.45c-.75 0-2 0-2.77.11a1.5 1.5 0 0 1 -.35-.88c.74.05 2.14.15 3.14.15v-.74a19.53 19.53 0 0 0 -.17-2.34h.2c2.66 0 2.75.62 2.75.75s-.22.4-.71.51v1.85h.55a8.82 8.82 0 0 1 1.08-1.63.11.11 0 0 1 .11-.07c.26 0 1.73 1.48 1.73 2 0 .18-.13.29-.35.29zm-1.76-4.34a29.34 29.34 0 0 0 -3.06.16 1.5 1.5 0 0 1 -.35-.88c.63.06 2 .15 3.12.17v-3.34c-.73 0-1.69 0-2.33.11a1.5 1.5 0 0 1 -.35-.88c.61.08 1.69.17 2.68.19v-1a19.5 19.5 0 0 0 -.15-2.4h.13c.66 0 2.8.11 2.8.77 0 .2-.25.4-.73.51 0 .37-.05 1.21-.05 2.16h.4a7.1 7.1 0 0 1 1-1.54.1.1 0 0 1 .1-.07c.14 0 1.66 1.25 1.66 1.85 0 .2-.16.31-.38.31h-2.8v3.33h.69c.76-1.32 1.2-1.7 1.31-1.7s1.74 1.35 1.74 2c0 .15-.11.26-.31.26zm7.39-1.25c-.64 0-1.58.06-2.11.13a1.73 1.73 0 0 1 -.38-.9 29.17 29.17 0 0 0 2.93.17h.37c.14-.2 1.17-1.78 1.46-1.78a5.14 5.14 0 0 1 2 2.07c0 .15-.11.29-.35.29h-1.79v7.59c0 .68.07 2 .09 2.57v.15a3.13 3.13 0 0 1 -3.08 3.11.37.37 0 0 1 -.39-.29c-.42-1-1.15-1.25-2.4-1.65a.25.25 0 0 1 -.18-.22.18.18 0 0 1 .2-.18 23.28 23.28 0 0 0 2.36.18c.79 0 1.23-.4 1.23-1.28zm.3-4.47c-.42 0-1.7 0-2.4.13a1.74 1.74 0 0 1 -.35-.9 23.71 23.71 0 0 0 2.61.18h.27c.31-.53 1.16-1.76 1.41-1.76a5.6 5.6 0 0 1 2.06 2c0 .18-.13.31-.37.31z"/><g fill="none"><path d="m39.12 43.24c-.53 0-2.49-.57-2.49-1.87 0 0 0-.55.18-.55s.13 0 .24.13a2.19 2.19 0 0 0 1.56.59 15.36 15.36 0 0 0 3.46-.74 14.15 14.15 0 0 0 .3-1.81c0-.44-.17-.77-.7-.77h-.15a1.42 1.42 0 0 1 -.27 0c-.15 0-.2 0-.2-.08a1.51 1.51 0 0 1 1.46-1c.81 0 2.11.81 2.11 1.58a2.59 2.59 0 0 1 -.4 1.06 3 3 0 0 0 -.17.37 4.7 4.7 0 0 1 .79-.39 4.37 4.37 0 0 1 .86-.09c.72 0 1 .24 1 .57 0 .53-.24.73-3.3 1.78a52.06 52.06 0 0 0 -3.6 10.98c-.07.3-.22 1-.29 1.18a1.68 1.68 0 0 1 -1.36 1.17c-1 0-1-1.91-1-2a1.62 1.62 0 0 1 .24-1 8.43 8.43 0 0 0 1.1-1.81c1-2.42 2.35-5.32 3.19-8a7.78 7.78 0 0 1 -2.56.7zm10.93 11.92c-3.52 0-5.41-2.48-5.41-3.71a1.77 1.77 0 0 1 1-1.63c.07 0 .09 0 .09.13a1 1 0 0 1 -.18.51 1 1 0 0 0 -.13.44c0 1 2 2.09 3.63 2.09a3.24 3.24 0 0 0 .79-.09 3.41 3.41 0 0 1 .8-.22c.31 0 2.35.09 2.35 1.25s-1.88 1.23-2.94 1.23zm2.27-9.72a10.28 10.28 0 0 0 -3.54 1.14 1 1 0 0 1 -.44.14c-.07 0-.11 0-.11-.07s.08-.18.26-.37 1.45-1.52 1.45-1.87-1.43-.56-1.93-.56a3.26 3.26 0 0 0 -.95.12.89.89 0 0 1 -.29 0c-.13 0-.19 0-.19-.11 0-.35 1.16-1.06 2.83-1.06 3.39 0 3.83 1.5 3.83 1.87s-.24.7-.92.77zm-1.43-4.69a5.4 5.4 0 0 0 -2.25-1.93c-.26-.11-.37-.2-.37-.31s.2-.2.57-.2c.57 0 3.52.31 3.52 2 0 .51-.33 1-.72 1a1 1 0 0 1 -.75-.56zm2.11-1.54a5.89 5.89 0 0 0 -2.33-1.85c-.26-.11-.37-.22-.37-.3s.22-.2.5-.2c.6 0 3.61.2 3.61 1.89 0 .51-.31 1-.68 1a1 1 0 0 1 -.73-.54z"/><path d="m71.3 48.59a13.47 13.47 0 0 1 .07-1.39c.24-2.33.51-3.45.81-5.55a9.23 9.23 0 0 0 .11-1.4c0-.77-.13-1.46-.55-1.65-.2-.09-.39-.2-.39-.31s.28-.29.65-.29a3.16 3.16 0 0 1 2.28 2.68 5.28 5.28 0 0 1 -.35 1.59 21.94 21.94 0 0 0 -1.23 5.54c0 .31 0 1.57.29 1.57.06 0 .15-.09.26-.33 1.1-2.6 1.89-4.51 2.2-4.51.07 0 .09.06.09.17a2.67 2.67 0 0 1 -.15.73 16.11 16.11 0 0 0 -1 5.1 20.76 20.76 0 0 0 .15 2.2v.16a1 1 0 0 1 -1 1c-1.09-.01-2.24-2.12-2.24-5.31zm12.87-1.32v.33c0 7.39-7.56 8.49-7.59 8.49s-.13 0-.13-.07.27-.28.77-.53a9.62 9.62 0 0 0 5.06-8c.07-.79.11-1.72.11-2.62 0-.33 0-.66 0-1a18.08 18.08 0 0 1 -2.66.31c-2.14 0-3-1.32-3-2.11 0-.4.2-.6.24-.6s.18.09.29.24a2.63 2.63 0 0 0 2.2.91 20.61 20.61 0 0 0 2.88-.36c-.34-3.38-.34-3.88-1.34-3.88-.38 0-.55-.07-.55-.2a1.27 1.27 0 0 1 1.23-.71c.59 0 2.68.71 2.68 1.68 0 .35-.19.74-.26 1.23 0 .15-.09.79-.13 1.52a5.94 5.94 0 0 0 .88-.31 6 6 0 0 1 1.25-.66h.16c.42 0 1.51.28 1.51 1s-.3.88-3.85 1.69c.08 1.23.23 3.03.25 3.65z"/><path d="m110.46 55.36c-4.53 0-4.84-4-4.84-6.29s.33-5.1.38-7.24v-.44c0-1.12-.11-2.49-1.15-2.55-.28 0-.41-.11-.41-.22 0-.33.68-.64 1.07-.64.88 0 2.93 1.25 2.93 2.77a9.32 9.32 0 0 1 -.33 1.85 33.33 33.33 0 0 0 -.81 6.93c0 2.33.46 3.72 3 3.72 3.92 0 7.5-3.3 8.08-3.85.44-.4.7-.62.81-.62a.07.07 0 0 1 0 .07c.08.55-3.36 6.51-8.73 6.51zm2.86-11.24a6.23 6.23 0 0 0 -2.06-2.66c-.25-.16-.36-.31-.36-.4s.11-.15.29-.15c.73 0 3.85 1.12 3.85 2.75 0 .64-.44 1.19-.9 1.19-.29 0-.6-.2-.82-.73zm2.68-1.28a6.85 6.85 0 0 0 -2.29-2.55c-.26-.18-.35-.31-.35-.4s.11-.15.31-.15c.53 0 4 .77 4 2.6 0 .61-.4 1.16-.84 1.16-.27 0-.56-.2-.83-.66z"/><path d="m139 49.07a2.72 2.72 0 0 1 -1.63.75c-1 0-2.42-.71-2.42-1.52 0-.31.19-.59.3-.59a.54.54 0 0 1 .31.17 1.48 1.48 0 0 0 .88.27 5.25 5.25 0 0 0 1.92-.55 3.27 3.27 0 0 1 -.73-1.94c0-1.41.95-1.54 1.12-1.54a1.44 1.44 0 0 1 .6.13 1.77 1.77 0 0 0 .68.09c.79 0 2-.22 2-.44s-.35-.53-1.1-.88c-.24-.11-.35-.22-.35-.33s.37-.29.68-.29c1.05 0 3 .8 3 2.18v.16a1.2 1.2 0 0 1 -.13.39 12.35 12.35 0 0 1 1.65-.2h.11c1.67 0 3.48.91 3.48 2.4s-1.85 3-4 3a7 7 0 0 1 -4.43-1.71c0-.05 0-.07.16-.07a4.68 4.68 0 0 1 .92.18 7.53 7.53 0 0 0 2 .26c2.44 0 3.39-1.21 3.39-1.94s-.49-1.27-1.59-1.27c-2.09 0-4.18 1.47-5.45 2.48.94 1.41 2.22 3.08 2.62 3.68a4.3 4.3 0 0 1 .94 2.42c0 1.6-.88 1.65-1 1.65-.31 0-.6-.2-.71-.73a15.91 15.91 0 0 0 -2.83-6.4zm2.42-4.18c-2.07 0-2.14.73-2.14 1.25a1.93 1.93 0 0 0 .29.84 28.93 28.93 0 0 1 3.17-1.47 2.54 2.54 0 0 0 -1.34-.62z"/><path d="m174 39.45a2.91 2.91 0 0 1 1.3-.28c.81 0 1 .26 1 .59s-.2.57-.73.79-1.45.49-2.4.84a67.5 67.5 0 0 0 -3.72 7.88 1.93 1.93 0 0 1 -1.74 1.27c-.46 0-.79-.3-.79-.94a2.22 2.22 0 0 1 .53-1.48 27.06 27.06 0 0 0 4.07-6.29c-.37.13-.68.26-1.08.42a3.79 3.79 0 0 1 -1.41.33c-.46 0-2.57-.46-2.57-1.78 0-.18 0-.49.18-.49a1.09 1.09 0 0 1 .37.18 2.76 2.76 0 0 0 1.5.42 22.09 22.09 0 0 0 3.52-.77 10.79 10.79 0 0 0 .28-1.48c0-.44-.2-.75-.79-.75h-.22c-.15 0-.22-.06-.22-.15a1.37 1.37 0 0 1 1.32-.81c.79 0 2 .74 2 1.49a1.6 1.6 0 0 1 -.38.88zm3.69 11.49c2.51.64 3.83 1.78 3.83 3 0 .42-.13 1-.83 1a2.08 2.08 0 0 1 -1.39-1 5.64 5.64 0 0 0 -1.87-1.65 4.14 4.14 0 0 1 -3.89 2.95c-2 0-3.64-1.39-3.64-2.56s1.66-2.33 4.43-2.33a13.32 13.32 0 0 1 1.56.11c0-.39 0-.81 0-1.23 0-2.4.18-3.65 2.4-5.41.35-.29.48-.42.48-.6s0-.37-1.34-.37a2.6 2.6 0 0 0 -.7.07 1.2 1.2 0 0 1 -.35 0c-.16 0-.22 0-.22-.11 0-.26 1-1 2.7-1s3.54.7 3.54 1.8c0 .6-.41.86-1.4.86-.44 0-.88 0-1.19 0-2.38 0-2.73 1.45-2.73 2.57v.6c.11 1.12.38 2.2.44 3.19zm-4.2.51c-1.23 0-2.9.26-2.9 1.16 0 .64 1 1.17 2.29 1.17a2.71 2.71 0 0 0 2.81-2.05 7.85 7.85 0 0 0 -2.22-.28z"/><path d="m204.93 53.62a5.28 5.28 0 0 1 -3.74-2.11c-1.19-1.69-1.56-3.54-1.56-6.38v-1.05c0-1.39-.16-2.49-.6-2.67-.19-.09-.28-.15-.28-.24s.39-.33.68-.33a3.14 3.14 0 0 1 2.36 2.55 7.77 7.77 0 0 1 -.2 1.37 13.54 13.54 0 0 0 -.22 2.2c0 3.74 2.15 3.94 2.35 3.94a.93.93 0 0 0 .84-.62c.52-1.08 1.08-2.62 1.6-3.63.2-.4.36-.59.44-.59s.07.06.07.19a2.72 2.72 0 0 1 -.07.55 17.34 17.34 0 0 0 -.37 3 7 7 0 0 0 .29 2 1.76 1.76 0 0 1 .06.46 1.5 1.5 0 0 1 -1.65 1.36zm10.25-3.62a.83.83 0 0 1 -.7-.44 15.71 15.71 0 0 1 -.73-2.61 7.7 7.7 0 0 0 -3.75-4.33c-.28-.13-.44-.28-.44-.39s.14-.18.38-.18a2.68 2.68 0 0 1 .35 0c3.37.53 6.2 3.75 6.2 5.86a2 2 0 0 1 -.63 1.76 1.12 1.12 0 0 1 -.68.33z"/><path d="m235.36 56.24a2.94 2.94 0 1 1 2.92-2.92 2.93 2.93 0 0 1 -2.92 2.92zm0-5a2 2 0 1 0 0 4.07 2 2 0 1 0 0-4.07z"/><path d="m11.6 19.27c0 .49-.71.69-1.37.69-.51 0-.77-.16-.77-.47 0-.09 0-.48 0-.79v-.09h-3.61v.24.66s0 .66-1.25.66c-.55 0-.79-.17-.79-.41v-.07c.11-.69.19-2.53.19-2.69v-2.15a9.56 9.56 0 0 1 -3.67 4.38s-.09 0-.09-.07a.5.5 0 0 1 .11-.22c2.11-2.68 2.53-5.47 2.55-8.86a24.85 24.85 0 0 0 -.19-3.43 13.64 13.64 0 0 1 -2.49 1.45c-.09 0-.13-.02-.13-.1a.35.35 0 0 1 .17-.24c3.5-2.7 5.17-6.22 5.42-7.76.41.07 2.92.55 2.92 1.12 0 .2-.31.33-.66.33h-.19c3 .79 4.88 1.85 4.88 3.24a1 1 0 0 1 -1 1.12c-.4 0-.75-.31-1.12-1a9.08 9.08 0 0 0 -3-3 15.85 15.85 0 0 1 -2.65 3.19c.68.07 1.52.11 2 .11h.49a5.28 5.28 0 0 1 1.19-1.52.18.18 0 0 1 .13 0c.46.29 1.71 1.23 1.71 1.67 0 .18-.15.29-.37.29h-2.68c-.69 0-1.9 0-2.56.09a1.32 1.32 0 0 1 -.26-.4c-.51.46-.97.83-1.51 1.21a11.51 11.51 0 0 1 2.05.83h4.12c.51-.59.73-.86.88-.86s1.95.8 1.95 1.41c0 .2-.2.4-.62.51a7.1 7.1 0 0 0 0 .73v1.27c0 .22 0 1 .05 1.26s0 .63 0 .79c0 .46-.68.73-1.41.73-.46 0-.68-.18-.68-.47v-.22h-4.65c-.09.44-.18.86-.31 1.28a10.83 10.83 0 0 1 1.62.77h3.3c.15-.18.74-.93 1-.93a.09.09 0 0 1 .08 0c.51.19 1.81 1 1.81 1.49 0 .2-.2.4-.68.53a4.81 4.81 0 0 0 0 .59v.95 1.3s0 .66 0 .81zm-2.23-7.41c0-.31 0-.95 0-1.36v-.44h-4.46v.63a10 10 0 0 1 -.11 1.24h4.6zm0-4h-4.46v1.7h4.48zm.13 7.14h-3.65v3h3.65zm4.21-10.3a24.91 24.91 0 0 0 -.18-3c.88 0 2.86.2 2.86.72 0 .18-.24.4-.77.49v3.56 4.62c0 1 0 1.92.07 2.73v1.06c0 .7-1.28.7-1.36.7-.58 0-.77-.22-.77-.55v-.03c.11-.83.13-3.87.13-4zm3.8-1c0-.26 0-2.5-.15-3.27.75 0 3.06.13 3.06.7 0 .2-.27.42-.77.53v6.29c0 5.55 0 6.8.09 9.37v.2c0 2.49-2.59 2.82-2.86 2.82a.49.49 0 0 1 -.42-.29c-.15-.39-.59-1.12-2.5-1.76-.11 0-.18-.11-.18-.15s.07-.11.2-.11h.02a20.9 20.9 0 0 0 2.23.17 1.24 1.24 0 0 0 1.29-1.23z"/><path d="m48.51 13.07a3.08 3.08 0 0 0 -3.23-3 8.5 8.5 0 0 0 -5.92 3c-.53.6-.79 1.13-1.56 1.28a3.68 3.68 0 0 1 -.62.07c-1.1 0-1.19-.84-1.19-1a.88.88 0 0 1 .4-.68c1.3-1 2.79-2.14 3.08-2.42a47.24 47.24 0 0 0 5.26-6.32.21.21 0 0 0 -.2-.2s-.07 0-.09 0c-.53.24-1.56 1-2.07 1.25a3.06 3.06 0 0 1 -1.49.53c-1.1 0-2.45-1-2.45-1.83 0-.28.16-.5.27-.5a.13.13 0 0 1 .09 0 2.08 2.08 0 0 0 1.36.46 15.2 15.2 0 0 0 3.94-1.12c.35-.16.55-.49 1-.49s2.55 1 2.55 1.72-1 .92-1.45 1.32a54.37 54.37 0 0 0 -5.1 5.11s0 0 0 0a.41.41 0 0 0 .15-.07 11.08 11.08 0 0 1 4.12-.9c3.08 0 5.39 1.76 5.39 4.05 0 3.36-3.85 5.67-7.57 5.67-3 0-4.71-1.38-4.71-2.77s1.43-1.93 2.88-1.93c1.81 0 3.5 1 3.57 2.81 1.7-.45 3.59-1.95 3.59-4.04zm-7.63 2.27c-.22 0-1.46 0-1.46.85s1.19 1.32 2.84 1.37a6.32 6.32 0 0 0 1-.07 2.18 2.18 0 0 0 -2.38-2.15z"/><path d="m76.76 7.77c0 3.08-2.07 6.55-3.68 8.34a2.55 2.55 0 0 1 -1.87 1c-1.56 0-3.23-2.16-3.23-4.62 0-4.07 3.89-9 9.59-9 4.4 0 7.81 3.25 7.81 7.08a7.64 7.64 0 0 1 -3.25 6.14 15 15 0 0 1 -7.42 2.42c-.22 0-.35 0-.35-.07s.26-.22.93-.39c7.56-2.08 7.71-7.47 7.71-8.37a5.71 5.71 0 0 0 -6-5.81 7.53 7.53 0 0 0 -1.43.13 4.14 4.14 0 0 1 1.19 3.15zm-7.33 3.76c0 1.63 1 3.12 1.67 3.12 1.17 0 4.29-5.28 4.29-8.29a2.88 2.88 0 0 0 -.39-1.61 7.42 7.42 0 0 0 -5.57 6.78z"/><path d="m106.72 9.75s.07 0 .07.15a2.87 2.87 0 0 1 -.13.73 18.64 18.64 0 0 0 -.79 4.75 7.49 7.49 0 0 0 .13 1.62 3.15 3.15 0 0 1 .11.73 1 1 0 0 1 -1 1c-1.42 0-2-3.15-2-5.1 0-.51 0-1 .06-1.48.2-2.11.73-4.13 1.06-6a8.8 8.8 0 0 0 .18-1.67 2.08 2.08 0 0 0 -.53-1.65c-.18-.13-.33-.22-.33-.31a.63.63 0 0 1 .57-.28c1 0 2.22 2 2.22 2.95a5.09 5.09 0 0 1 -.44 1.73 21.68 21.68 0 0 0 -1.38 5.68 6.75 6.75 0 0 0 .11 1.21s0 .07 0 .07h.09a.08.08 0 0 0 .09-.07 25.27 25.27 0 0 1 1.91-4.06zm7.7-5.75c0-.9-.3-1.39-1.16-1.5-.24 0-.4-.08-.4-.22a1.19 1.19 0 0 1 1.14-.72c.57 0 2.64.77 2.64 1.56 0 .31-.18.69-.29 1.3-.06.4-.15.84-.2 1.3a3.3 3.3 0 0 1 1.24-.42c.06 0 2 0 2 1 0 .6-.64.91-1.66.91a11.34 11.34 0 0 0 -1.67.08c-.06.71-.06 1.36-.06 2.04a19.56 19.56 0 0 0 .19 2.93 17.09 17.09 0 0 1 .22 2c.58.2 3.66 1.21 3.66 3a1 1 0 0 1 -.93 1c-.35 0-.81-.16-1.38-1a5.56 5.56 0 0 0 -1.52-1.47 4.11 4.11 0 0 1 -3.94 2.81c-2 0-3.59-1.3-3.59-2.53 0-1.89 3.17-2.33 4.54-2.33a9.22 9.22 0 0 1 1.43.11c0-.26 0-.55 0-.81 0-.58-.07-3.35-.16-5.48-.9.2-1.84.44-2.72.64a5.85 5.85 0 0 1 -1.15.15c-1.16 0-2.53-.88-2.53-1.54a.49.49 0 0 1 .13-.38c.07 0 .14.07.25.14a3.19 3.19 0 0 0 1.7.43 24.85 24.85 0 0 0 4.29-.84zm-2.31 10.83c-1.89 0-2.72.59-2.72 1.14 0 .88 1.76 1.17 2.15 1.17a2.91 2.91 0 0 0 2.91-2 8.12 8.12 0 0 0 -2.34-.35z"/><path d="m139.41 19.43a10.36 10.36 0 0 0 -3.41-3.94c-.22-.13-.33-.26-.33-.35s.14-.16.36-.16c.63 0 5.87 1.13 5.87 3.9a1.38 1.38 0 0 1 -1.23 1.54c-.44 0-.88-.29-1.26-.99z"/><path d="m2.57 47.22a9.2 9.2 0 0 1 -2.42 1.92.14.14 0 0 1 -.15-.14.24.24 0 0 1 .09-.17 20.79 20.79 0 0 0 4.22-8.1c1.12.26 2.75 1 2.75 1.54 0 .2-.22.33-.61.33a1.94 1.94 0 0 1 -.33 0 23.76 23.76 0 0 1 -1.81 2.68c.82.18 1.08.25 1.08.55s-.29.47-.75.53v2.14 2.55 3.34 1.28s-.07.81-1.5.81c-.59 0-.81-.2-.81-.61v-.11c.08-1 .19-4.25.19-4.71zm-2.11-4.07c-.11 0-.17 0-.17-.13a.26.26 0 0 1 .08-.16 16.46 16.46 0 0 0 3.5-6.75c1.26.33 2.8 1.08 2.8 1.58 0 .22-.22.38-.6.38a1.55 1.55 0 0 1 -.35 0 15 15 0 0 1 -5.26 5.08zm10.61 5.44v3a38.1 38.1 0 0 0 3.93-1.02h.09a.21.21 0 0 1 .22.2.22.22 0 0 1 -.13.2 53 53 0 0 1 -8 3.59 1 1 0 0 1 0 .28c0 .33-.11.57-.31.57-.64 0-1.54-2.79-1.56-2.9.44 0 1.07-.07 1.49-.11.68-.09 1.41-.2 2.18-.33v-3.45c-.75 0-2 0-2.77.11a1.5 1.5 0 0 1 -.35-.88c.74.05 2.14.15 3.14.15v-.74a19.53 19.53 0 0 0 -.17-2.34h.2c2.66 0 2.75.62 2.75.75s-.22.4-.71.51v1.85h.55a8.82 8.82 0 0 1 1.08-1.63.11.11 0 0 1 .11-.07c.26 0 1.73 1.48 1.73 2 0 .18-.13.29-.35.29zm-1.76-4.34a29.34 29.34 0 0 0 -3.06.16 1.5 1.5 0 0 1 -.35-.88c.63.06 2 .15 3.12.17v-3.34c-.73 0-1.69 0-2.33.11a1.5 1.5 0 0 1 -.35-.88c.61.08 1.69.17 2.68.19v-1a19.5 19.5 0 0 0 -.15-2.4h.13c.66 0 2.8.11 2.8.77 0 .2-.25.4-.73.51 0 .37-.05 1.21-.05 2.16h.4a7.1 7.1 0 0 1 1-1.54.1.1 0 0 1 .1-.07c.14 0 1.66 1.25 1.66 1.85 0 .2-.16.31-.38.31h-2.8v3.33h.69c.76-1.32 1.2-1.7 1.31-1.7s1.74 1.35 1.74 2c0 .15-.11.26-.31.26zm7.39-1.25c-.64 0-1.58.06-2.11.13a1.73 1.73 0 0 1 -.38-.9 29.17 29.17 0 0 0 2.93.17h.37c.14-.2 1.17-1.78 1.46-1.78a5.14 5.14 0 0 1 2 2.07c0 .15-.11.29-.35.29h-1.79v7.59c0 .68.07 2 .09 2.57v.15a3.13 3.13 0 0 1 -3.08 3.11.37.37 0 0 1 -.39-.29c-.42-1-1.15-1.25-2.4-1.65a.25.25 0 0 1 -.18-.22.18.18 0 0 1 .2-.18 23.28 23.28 0 0 0 2.36.18c.79 0 1.23-.4 1.23-1.28zm.3-4.47c-.42 0-1.7 0-2.4.13a1.74 1.74 0 0 1 -.35-.9 23.71 23.71 0 0 0 2.61.18h.27c.31-.53 1.16-1.76 1.41-1.76a5.6 5.6 0 0 1 2.06 2c0 .18-.13.31-.37.31z"/><path d="m39.12 43.24c-.53 0-2.49-.57-2.49-1.87 0 0 0-.55.18-.55s.13 0 .24.13a2.19 2.19 0 0 0 1.56.59 15.36 15.36 0 0 0 3.46-.74 14.15 14.15 0 0 0 .3-1.81c0-.44-.17-.77-.7-.77h-.15a1.42 1.42 0 0 1 -.27 0c-.15 0-.2 0-.2-.08a1.51 1.51 0 0 1 1.46-1c.81 0 2.11.81 2.11 1.58a2.59 2.59 0 0 1 -.4 1.06 3 3 0 0 0 -.17.37 4.7 4.7 0 0 1 .79-.39 4.37 4.37 0 0 1 .86-.09c.72 0 1 .24 1 .57 0 .53-.24.73-3.3 1.78a52.06 52.06 0 0 0 -3.6 10.98c-.07.3-.22 1-.29 1.18a1.68 1.68 0 0 1 -1.36 1.17c-1 0-1-1.91-1-2a1.62 1.62 0 0 1 .24-1 8.43 8.43 0 0 0 1.1-1.81c1-2.42 2.35-5.32 3.19-8a7.78 7.78 0 0 1 -2.56.7zm10.93 11.92c-3.52 0-5.41-2.48-5.41-3.71a1.77 1.77 0 0 1 1-1.63c.07 0 .09 0 .09.13a1 1 0 0 1 -.18.51 1 1 0 0 0 -.13.44c0 1 2 2.09 3.63 2.09a3.24 3.24 0 0 0 .79-.09 3.41 3.41 0 0 1 .8-.22c.31 0 2.35.09 2.35 1.25s-1.88 1.23-2.94 1.23zm2.27-9.72a10.28 10.28 0 0 0 -3.54 1.14 1 1 0 0 1 -.44.14c-.07 0-.11 0-.11-.07s.08-.18.26-.37 1.45-1.52 1.45-1.87-1.43-.56-1.93-.56a3.26 3.26 0 0 0 -.95.12.89.89 0 0 1 -.29 0c-.13 0-.19 0-.19-.11 0-.35 1.16-1.06 2.83-1.06 3.39 0 3.83 1.5 3.83 1.87s-.24.7-.92.77zm-1.43-4.69a5.4 5.4 0 0 0 -2.25-1.93c-.26-.11-.37-.2-.37-.31s.2-.2.57-.2c.57 0 3.52.31 3.52 2 0 .51-.33 1-.72 1a1 1 0 0 1 -.75-.56zm2.11-1.54a5.89 5.89 0 0 0 -2.33-1.85c-.26-.11-.37-.22-.37-.3s.22-.2.5-.2c.6 0 3.61.2 3.61 1.89 0 .51-.31 1-.68 1a1 1 0 0 1 -.73-.54z" stroke="#000" stroke-miterlimit="10" stroke-width=".5"/><path d="m71.3 48.59a13.47 13.47 0 0 1 .07-1.39c.24-2.33.51-3.45.81-5.55a9.23 9.23 0 0 0 .11-1.4c0-.77-.13-1.46-.55-1.65-.2-.09-.39-.2-.39-.31s.28-.29.65-.29a3.16 3.16 0 0 1 2.28 2.68 5.28 5.28 0 0 1 -.35 1.59 21.94 21.94 0 0 0 -1.23 5.54c0 .31 0 1.57.29 1.57.06 0 .15-.09.26-.33 1.1-2.6 1.89-4.51 2.2-4.51.07 0 .09.06.09.17a2.67 2.67 0 0 1 -.15.73 16.11 16.11 0 0 0 -1 5.1 20.76 20.76 0 0 0 .15 2.2v.16a1 1 0 0 1 -1 1c-1.09-.01-2.24-2.12-2.24-5.31zm12.87-1.32v.33c0 7.39-7.56 8.49-7.59 8.49s-.13 0-.13-.07.27-.28.77-.53a9.62 9.62 0 0 0 5.06-8c.07-.79.11-1.72.11-2.62 0-.33 0-.66 0-1a18.08 18.08 0 0 1 -2.66.31c-2.14 0-3-1.32-3-2.11 0-.4.2-.6.24-.6s.18.09.29.24a2.63 2.63 0 0 0 2.2.91 20.61 20.61 0 0 0 2.88-.36c-.34-3.38-.34-3.88-1.34-3.88-.38 0-.55-.07-.55-.2a1.27 1.27 0 0 1 1.23-.71c.59 0 2.68.71 2.68 1.68 0 .35-.19.74-.26 1.23 0 .15-.09.79-.13 1.52a5.94 5.94 0 0 0 .88-.31 6 6 0 0 1 1.25-.66h.16c.42 0 1.51.28 1.51 1s-.3.88-3.85 1.69c.08 1.23.23 3.03.25 3.65z" stroke="#000" stroke-miterlimit="10" stroke-width=".5"/><path d="m110.46 55.36c-4.53 0-4.84-4-4.84-6.29s.33-5.1.38-7.24v-.44c0-1.12-.11-2.49-1.15-2.55-.28 0-.41-.11-.41-.22 0-.33.68-.64 1.07-.64.88 0 2.93 1.25 2.93 2.77a9.32 9.32 0 0 1 -.33 1.85 33.33 33.33 0 0 0 -.81 6.93c0 2.33.46 3.72 3 3.72 3.92 0 7.5-3.3 8.08-3.85.44-.4.7-.62.81-.62a.07.07 0 0 1 0 .07c.08.55-3.36 6.51-8.73 6.51zm2.86-11.24a6.23 6.23 0 0 0 -2.06-2.66c-.25-.16-.36-.31-.36-.4s.11-.15.29-.15c.73 0 3.85 1.12 3.85 2.75 0 .64-.44 1.19-.9 1.19-.29 0-.6-.2-.82-.73zm2.68-1.28a6.85 6.85 0 0 0 -2.29-2.55c-.26-.18-.35-.31-.35-.4s.11-.15.31-.15c.53 0 4 .77 4 2.6 0 .61-.4 1.16-.84 1.16-.27 0-.56-.2-.83-.66z" stroke="#000" stroke-miterlimit="10" stroke-width=".5"/><path d="m139 49.07a2.72 2.72 0 0 1 -1.63.75c-1 0-2.42-.71-2.42-1.52 0-.31.19-.59.3-.59a.54.54 0 0 1 .31.17 1.48 1.48 0 0 0 .88.27 5.25 5.25 0 0 0 1.92-.55 3.27 3.27 0 0 1 -.73-1.94c0-1.41.95-1.54 1.12-1.54a1.44 1.44 0 0 1 .6.13 1.77 1.77 0 0 0 .68.09c.79 0 2-.22 2-.44s-.35-.53-1.1-.88c-.24-.11-.35-.22-.35-.33s.37-.29.68-.29c1.05 0 3 .8 3 2.18v.16a1.2 1.2 0 0 1 -.13.39 12.35 12.35 0 0 1 1.65-.2h.11c1.67 0 3.48.91 3.48 2.4s-1.85 3-4 3a7 7 0 0 1 -4.43-1.71c0-.05 0-.07.16-.07a4.68 4.68 0 0 1 .92.18 7.53 7.53 0 0 0 2 .26c2.44 0 3.39-1.21 3.39-1.94s-.49-1.27-1.59-1.27c-2.09 0-4.18 1.47-5.45 2.48.94 1.41 2.22 3.08 2.62 3.68a4.3 4.3 0 0 1 .94 2.42c0 1.6-.88 1.65-1 1.65-.31 0-.6-.2-.71-.73a15.91 15.91 0 0 0 -2.83-6.4zm2.42-4.18c-2.07 0-2.14.73-2.14 1.25a1.93 1.93 0 0 0 .29.84 28.93 28.93 0 0 1 3.17-1.47 2.54 2.54 0 0 0 -1.34-.62z" stroke="#000" stroke-miterlimit="10" stroke-width=".5"/><path d="m174 39.45a2.91 2.91 0 0 1 1.3-.28c.81 0 1 .26 1 .59s-.2.57-.73.79-1.45.49-2.4.84a67.5 67.5 0 0 0 -3.72 7.88 1.93 1.93 0 0 1 -1.74 1.27c-.46 0-.79-.3-.79-.94a2.22 2.22 0 0 1 .53-1.48 27.06 27.06 0 0 0 4.07-6.29c-.37.13-.68.26-1.08.42a3.79 3.79 0 0 1 -1.41.33c-.46 0-2.57-.46-2.57-1.78 0-.18 0-.49.18-.49a1.09 1.09 0 0 1 .37.18 2.76 2.76 0 0 0 1.5.42 22.09 22.09 0 0 0 3.52-.77 10.79 10.79 0 0 0 .28-1.48c0-.44-.2-.75-.79-.75h-.22c-.15 0-.22-.06-.22-.15a1.37 1.37 0 0 1 1.32-.81c.79 0 2 .74 2 1.49a1.6 1.6 0 0 1 -.38.88zm3.69 11.49c2.51.64 3.83 1.78 3.83 3 0 .42-.13 1-.83 1a2.08 2.08 0 0 1 -1.39-1 5.64 5.64 0 0 0 -1.87-1.65 4.14 4.14 0 0 1 -3.89 2.95c-2 0-3.64-1.39-3.64-2.56s1.66-2.33 4.43-2.33a13.32 13.32 0 0 1 1.56.11c0-.39 0-.81 0-1.23 0-2.4.18-3.65 2.4-5.41.35-.29.48-.42.48-.6s0-.37-1.34-.37a2.6 2.6 0 0 0 -.7.07 1.2 1.2 0 0 1 -.35 0c-.16 0-.22 0-.22-.11 0-.26 1-1 2.7-1s3.54.7 3.54 1.8c0 .6-.41.86-1.4.86-.44 0-.88 0-1.19 0-2.38 0-2.73 1.45-2.73 2.57v.6c.11 1.12.38 2.2.44 3.19zm-4.2.51c-1.23 0-2.9.26-2.9 1.16 0 .64 1 1.17 2.29 1.17a2.71 2.71 0 0 0 2.81-2.05 7.85 7.85 0 0 0 -2.22-.28z" stroke="#000" stroke-miterlimit="10" stroke-width=".5"/><path d="m204.93 53.62a5.28 5.28 0 0 1 -3.74-2.11c-1.19-1.69-1.56-3.54-1.56-6.38v-1.05c0-1.39-.16-2.49-.6-2.67-.19-.09-.28-.15-.28-.24s.39-.33.68-.33a3.14 3.14 0 0 1 2.36 2.55 7.77 7.77 0 0 1 -.2 1.37 13.54 13.54 0 0 0 -.22 2.2c0 3.74 2.15 3.94 2.35 3.94a.93.93 0 0 0 .84-.62c.52-1.08 1.08-2.62 1.6-3.63.2-.4.36-.59.44-.59s.07.06.07.19a2.72 2.72 0 0 1 -.07.55 17.34 17.34 0 0 0 -.37 3 7 7 0 0 0 .29 2 1.76 1.76 0 0 1 .06.46 1.5 1.5 0 0 1 -1.65 1.36zm10.25-3.62a.83.83 0 0 1 -.7-.44 15.71 15.71 0 0 1 -.73-2.61 7.7 7.7 0 0 0 -3.75-4.33c-.28-.13-.44-.28-.44-.39s.14-.18.38-.18a2.68 2.68 0 0 1 .35 0c3.37.53 6.2 3.75 6.2 5.86a2 2 0 0 1 -.63 1.76 1.12 1.12 0 0 1 -.68.33z" stroke="#000" stroke-miterlimit="10" stroke-width=".5"/><path d="m235.36 56.24a2.94 2.94 0 1 1 2.92-2.92 2.93 2.93 0 0 1 -2.92 2.92zm0-5a2 2 0 1 0 0 4.07 2 2 0 1 0 0-4.07z" stroke="#000" stroke-miterlimit="10" stroke-width=".5"/></g></svg>