<svg viewBox="0 0 134.41 40" xmlns="http://www.w3.org/2000/svg"><g fill="#fff"><path d="m67 2.48a10.22 10.22 0 0 0 1.33.15 10.63 10.63 0 0 0 1.37-.15c1 8.52 1.71 15.43 2.78 21.73-.88-.06-1.74-.16-2.63-.16s-1.68.1-2.56.16c-.26-5-.89-9.88-1.36-14.76-2.41 4.84-4.79 9.69-7 14.6a3.23 3.23 0 0 0 -1.2 0c-2-4.37-4.53-9.28-6.94-14.25a130.68 130.68 0 0 0 -1.33 14.41 12.79 12.79 0 0 0 -1.49-.16 12.07 12.07 0 0 0 -1.46.16c1.14-6.37 2.15-13.72 3.23-21.73a9.77 9.77 0 0 0 1.3.15 10 10 0 0 0 1.33-.15c2.28 5 4.79 9.91 7.29 14.89 2.19-4.5 4.88-9.48 7.34-14.89z"/><path d="m89.45 3.42c4.75 0 6.65 4.88 6.65 9.13 0 5.45-2.18 10.55-7.1 10.55s-6.62-4.55-6.62-8.83c.04-7.39 2.67-10.85 7.07-10.85zm11.91 9.77c0-4.92-2.69-11.28-11.72-11.28-7.89 0-12.48 5.1-12.48 11.4 0 7.2 4.72 11.31 11.72 11.31 7.76 0 12.52-5.26 12.48-11.43z"/><path d="m111.56 4.19c1.93 0 5.62-.26 6.13 2.37a7.86 7.86 0 0 1 .16 1.59c0 3.26-3 4.85-6.29 4.53zm-4.75 20c.79-.06 1.58-.16 2.37-.16s1.59.1 2.38.16v-10.19h.67a4.4 4.4 0 0 1 4.15 2.23 21.62 21.62 0 0 1 1.86 5.77c.37 1.54.55 2.23.55 2.23s2-.14 3-.14 2.88.16 2.88.16-.59-1.23-.93-2.21c-1.08-3.05-1.38-4.34-2.32-5.82a6.4 6.4 0 0 0 -3.59-2.84 5.39 5.39 0 0 0 4.94-5.7c-.06-2.15-1.39-3.5-3.25-4.35s-5.49-.81-7-.81h-5.72z"/><path d="m129.66 2.48c.79.06 1.58.15 2.38.15s1.58-.09 2.37-.15v21.73c-.79-.06-1.58-.16-2.37-.16s-1.59.1-2.38.16z"/><path d="m77.23 28.43c.94 0 2.72-.12 3 1.15a5 5 0 0 1 .08.87c0 1.57-1.43 2.44-3 2.29zm-2.29 10c.38 0 .77-.08 1.15-.08s.76 0 1.14.08v-4.9h.33a2 2 0 0 1 2 1 10.55 10.55 0 0 1 .9 2.74l.26 1.08s1-.07 1.44-.07 1.39.08 1.39.08-.28-.6-.45-1.07a13.08 13.08 0 0 0 -1.1-2.77 3.09 3.09 0 0 0 -1.74-1.37 2.88 2.88 0 0 0 2.39-2.95 2.59 2.59 0 0 0 -1.57-2.29 9.75 9.75 0 0 0 -3.37-.39h-2.77z"/><path d="m69.92 38.39c-.39 0-.78-.08-1.17-.08s-.79 0-1.18.08v-9.75a21.36 21.36 0 0 0 -2.91.22 4.91 4.91 0 0 0 .08-.67 5 5 0 0 0 -.08-.66h8.06a4.93 4.93 0 0 0 -.07.66 3.72 3.72 0 0 0 .08.67 23.66 23.66 0 0 0 -2.81-.22z"/><path d="m110.88 38.39c-.39 0-.79-.08-1.18-.08s-.78 0-1.17.08v-9.75a21.36 21.36 0 0 0 -2.91.22 4.9 4.9 0 0 0 .07-.67 4.93 4.93 0 0 0 -.07-.66h8.06a5 5 0 0 0 -.08.66 4.91 4.91 0 0 0 .08.67 23.5 23.5 0 0 0 -2.8-.22z"/><path d="m85.48 27.57a11.69 11.69 0 0 0 1.18.08 11.5 11.5 0 0 0 1.17-.08v4.43a20.65 20.65 0 0 0 .11 3 2.85 2.85 0 0 0 .83 1.8 2.51 2.51 0 0 0 1.79.68 2.61 2.61 0 0 0 2.78-1.9 12 12 0 0 0 .29-3.24v-4.77a3.24 3.24 0 0 0 .62.05 3.28 3.28 0 0 0 .63-.05v5.58c0 1.78 0 3.41-1.66 4.54a5.07 5.07 0 0 1 -3 .83c-1.9 0-4-.59-4.53-2.63a7.41 7.41 0 0 1 -.21-1.89z"/><path d="m102.83 29.59a1.87 1.87 0 0 0 -1.8-1.36c-1.24 0-1.72.64-1.72 1.54 0 2.11 4.76 1.72 4.76 5.31 0 2-1.73 3.44-4.15 3.44a4.77 4.77 0 0 1 -2.53-.67 15.48 15.48 0 0 0 .46-2h.3a2.11 2.11 0 0 0 2.16 1.72 1.65 1.65 0 0 0 1.83-1.57c0-2.5-4.67-1.6-4.67-5.37 0-1.8 1.24-3.29 3.62-3.29a4.1 4.1 0 0 1 2.47.75c-.18.51-.34 1-.5 1.55z"/><path d="m40 20a20 20 0 1 1 -20-20 20 20 0 0 1 20 20z"/></g><path d="m8.8 8.94c0 1.6 4.95 2.89 11.05 2.89s11.06-1.29 11.06-2.89-4.91-2.88-11.06-2.88-11.05 1.29-11.05 2.88z" fill="#333" stroke="#fff" stroke-width=".65"/><path d="m19.92 10.35c-1.71 0-3.09 5.31-3.09 11.86s1.38 11.86 3.09 11.86 3.08-5.31 3.08-11.86-1.37-11.86-3.08-11.86z" fill="#333" stroke="#fff" stroke-width=".65"/><path d="m11.4 13c-1.52 0-2.75 4.7-2.75 10.52s1.23 10.53 2.75 10.53 2.75-4.72 2.75-10.53-1.23-10.52-2.75-10.52z" fill="#333" stroke="#fff" stroke-width=".65"/><path d="m29.1 7.38c-1.93 0-3.49 6-3.49 13.36s1.56 13.35 3.49 13.35 3.48-6 3.48-13.35-1.58-13.36-3.48-13.36z" fill="#333" stroke="#fff" stroke-width=".65"/></svg>