<svg enable-background="new 0 0 164 193" viewBox="0 0 164 193" xmlns="http://www.w3.org/2000/svg"><path d="m22.2 30.2c11.8 3.1 26.8 5 43.1 5.7 3.3-6.4 7.3-10.2 11.9-10.2s8.6 3.8 11.9 10.2c12.3-.5 23.8-1.8 33.8-3.7 3.3-11.9 7.6-21 12.8-25.1-1.3-.4-2.8-.8-4.3-1.2-14.6-3.8-34-5.9-54.6-5.9s-40 2.1-54.6 5.9c-15.6 4-21.1 8.9-21.1 12.1 0 3.3 5.5 8.2 21.1 12.2zm64 10.3c-.4-.8-.7-1.6-1.1-2.2-.4-.8-.8-1.6-1.2-2.3-2.5-4.1-4.8-5.8-6.7-5.8s-4.2 1.7-6.7 5.8c-.4.7-.8 1.4-1.2 2.2-.4.7-.7 1.5-1.1 2.3-1.4 3.2-2.9 7.4-4.2 12.5-4.1 15.6-6.3 36.4-6.3 58.6s2.2 43 6.3 58.6c4.4 16.8 9.7 22.8 13.2 22.8s8.8-6 13.2-22.8c4.1-15.6 6.3-36.4 6.3-58.6s-2.2-43-6.3-58.6c-1.3-5.1-2.7-9.2-4.2-12.5zm-69.1 8.4c-7.1 0-17.1 27.3-17.1 72 0 19.7 2 38.1 5.6 52 3.9 14.8 8.5 20 11.5 20 7.1 0 17.1-27.4 17.1-72 0-19.7-2-38.1-5.6-52-3.9-14.8-8.5-20-11.5-20zm136.8-24.2c-.3-.8-.6-1.6-.9-2.3-.4-.9-.7-1.7-1.1-2.5-1.8-3.8-3.6-6.6-5.4-8.4-1.5-1.4-3-2.2-4.5-2.2h-.1c-4.8.1-9.9 8-13.9 21.8-.2.8-.5 1.7-.7 2.5s-.4 1.6-.6 2.4c-4.1 16.1-6.9 38.7-6.9 65.2 0 54.2 11.7 91.9 22.3 91.9s22.3-37.8 22.3-91.9c-.1-33.4-4.6-60.5-10.5-76.5z"/></svg>